<?xml version="1.0" encoding="us-ascii" standalone="no"?><svg xmlns="http://www.w3.org/2000/svg" xmlns:xlink="http://www.w3.org/1999/xlink" contentStyleType="text/css" height="426px" preserveAspectRatio="none" style="width:1955px;height:426px;background:#FFFFFF;" version="1.1" viewBox="0 0 1955 426" width="1955px" zoomAndPan="magnify"><defs/><g><rect fill="#FFFFFF" height="305.4922" style="stroke:#181818;stroke-width:1.0;" width="10" x="450" y="67.4297"/><rect fill="#FFFFFF" height="216.0938" style="stroke:#181818;stroke-width:1.0;" width="10" x="870" y="120.6953"/><rect fill="#FFFFFF" height="29.1328" style="stroke:#181818;stroke-width:1.0;" width="10" x="1250" y="149.8281"/><rect fill="#FFFFFF" height="99.5625" style="stroke:#181818;stroke-width:1.0;" width="10" x="1250" y="208.0938"/><rect fill="#FFFFFF" height="31.2969" style="stroke:#181818;stroke-width:1.0;" width="10" x="1864" y="247.2266"/><rect fill="none" height="262.3594" style="stroke:#000000;stroke-width:1.5;" width="1608" x="341.5" y="82.4297"/><line style="stroke:#181818;stroke-width:0.5;stroke-dasharray:5.0,5.0;" x1="454.5" x2="454.5" y1="36.2969" y2="390.9219"/><line style="stroke:#181818;stroke-width:0.5;stroke-dasharray:5.0,5.0;" x1="874.5" x2="874.5" y1="36.2969" y2="390.9219"/><line style="stroke:#181818;stroke-width:0.5;stroke-dasharray:5.0,5.0;" x1="1254.5" x2="1254.5" y1="36.2969" y2="390.9219"/><line style="stroke:#181818;stroke-width:0.5;stroke-dasharray:5.0,5.0;" x1="1868.5" x2="1868.5" y1="246.7422" y2="390.9219"/><rect fill="#E3E3E3" height="30.2969" rx="2.5" ry="2.5" style="stroke:#181818;stroke-width:0.5;" width="207" x="351.5" y="5"/><text fill="#000000" font-family="sans-serif" font-size="14" lengthAdjust="spacing" textLength="193" x="358.5" y="24.9951">:RegisterCheckUpController</text><rect fill="#E3E3E3" height="30.2969" rx="2.5" ry="2.5" style="stroke:#181818;stroke-width:0.5;" width="207" x="351.5" y="389.9219"/><text fill="#000000" font-family="sans-serif" font-size="14" lengthAdjust="spacing" textLength="193" x="358.5" y="409.917">:RegisterCheckUpController</text><rect fill="#E3E3E3" height="30.2969" rx="2.5" ry="2.5" style="stroke:#181818;stroke-width:0.5;" width="265" x="742.5" y="5"/><text fill="#000000" font-family="sans-serif" font-size="14" lengthAdjust="spacing" textLength="251" x="749.5" y="24.9951">vehicleRepository:VehicleRepository</text><rect fill="#E3E3E3" height="30.2969" rx="2.5" ry="2.5" style="stroke:#181818;stroke-width:0.5;" width="265" x="742.5" y="389.9219"/><text fill="#000000" font-family="sans-serif" font-size="14" lengthAdjust="spacing" textLength="251" x="749.5" y="409.917">vehicleRepository:VehicleRepository</text><rect fill="#E3E3E3" height="30.2969" rx="2.5" ry="2.5" style="stroke:#181818;stroke-width:0.5;" width="117" x="1196.5" y="5"/><text fill="#000000" font-family="sans-serif" font-size="14" lengthAdjust="spacing" textLength="103" x="1203.5" y="24.9951">vehicle:Vehicle</text><rect fill="#E3E3E3" height="30.2969" rx="2.5" ry="2.5" style="stroke:#181818;stroke-width:0.5;" width="117" x="1196.5" y="389.9219"/><text fill="#000000" font-family="sans-serif" font-size="14" lengthAdjust="spacing" textLength="103" x="1203.5" y="409.917">vehicle:Vehicle</text><rect fill="#E3E3E3" height="30.2969" rx="2.5" ry="2.5" style="stroke:#181818;stroke-width:0.5;" width="141" x="1798.5" y="389.9219"/><text fill="#000000" font-family="sans-serif" font-size="14" lengthAdjust="spacing" textLength="127" x="1805.5" y="409.917">checkup:Checkup</text><rect fill="#FFFFFF" height="305.4922" style="stroke:#181818;stroke-width:1.0;" width="10" x="450" y="67.4297"/><rect fill="#FFFFFF" height="216.0938" style="stroke:#181818;stroke-width:1.0;" width="10" x="870" y="120.6953"/><rect fill="#FFFFFF" height="29.1328" style="stroke:#181818;stroke-width:1.0;" width="10" x="1250" y="149.8281"/><rect fill="#FFFFFF" height="99.5625" style="stroke:#181818;stroke-width:1.0;" width="10" x="1250" y="208.0938"/><rect fill="#FFFFFF" height="31.2969" style="stroke:#181818;stroke-width:1.0;" width="10" x="1864" y="247.2266"/><polygon fill="#181818" points="438,63.4297,448,67.4297,438,71.4297,442,67.4297" style="stroke:#181818;stroke-width:1.0;"/><line style="stroke:#181818;stroke-width:1.0;" x1="0" x2="444" y1="67.4297" y2="67.4297"/><text fill="#000000" font-family="sans-serif" font-size="13" font-weight="bold" lengthAdjust="spacing" textLength="18" x="7" y="62.3638">13</text><text fill="#000000" font-family="sans-serif" font-size="13" lengthAdjust="spacing" textLength="409" x="29" y="62.3638">addCheckUp(selectedPlate, date, currentKms, maintenanceKm)</text><path d="M341.5,82.4297 L547.5,82.4297 L547.5,89.5625 L537.5,99.5625 L341.5,99.5625 L341.5,82.4297 " fill="#EEEEEE" style="stroke:#000000;stroke-width:1.5;"/><rect fill="none" height="262.3594" style="stroke:#000000;stroke-width:1.5;" width="1608" x="341.5" y="82.4297"/><text fill="#000000" font-family="sans-serif" font-size="13" font-weight="bold" lengthAdjust="spacing" textLength="161" x="356.5" y="95.4966">Register Maintenance</text><polygon fill="#181818" points="858,116.6953,868,120.6953,858,124.6953,862,120.6953" style="stroke:#181818;stroke-width:1.0;"/><line style="stroke:#181818;stroke-width:1.0;" x1="460" x2="864" y1="120.6953" y2="120.6953"/><text fill="#000000" font-family="sans-serif" font-size="13" font-weight="bold" lengthAdjust="spacing" textLength="32" x="467" y="115.6294">13.1</text><text fill="#000000" font-family="sans-serif" font-size="13" lengthAdjust="spacing" textLength="355" x="503" y="115.6294">addCheckUp(plate, date, currentKms, maintenanceKm)</text><polygon fill="#181818" points="1238,145.8281,1248,149.8281,1238,153.8281,1242,149.8281" style="stroke:#181818;stroke-width:1.0;"/><line style="stroke:#181818;stroke-width:1.0;" x1="880" x2="1244" y1="149.8281" y2="149.8281"/><text fill="#000000" font-family="sans-serif" font-size="13" font-weight="bold" lengthAdjust="spacing" textLength="32" x="887" y="144.7622">13.2</text><text fill="#000000" font-family="sans-serif" font-size="13" lengthAdjust="spacing" textLength="159" x="923" y="144.7622">findVehicleByPlate(plate)</text><polygon fill="#181818" points="891,174.9609,881,178.9609,891,182.9609,887,178.9609" style="stroke:#181818;stroke-width:1.0;"/><line style="stroke:#181818;stroke-width:1.0;" x1="885" x2="1254" y1="178.9609" y2="178.9609"/><text fill="#000000" font-family="sans-serif" font-size="13" font-weight="bold" lengthAdjust="spacing" textLength="32" x="897" y="173.895">13.3</text><text fill="#000000" font-family="sans-serif" font-size="13" lengthAdjust="spacing" textLength="44" x="933" y="173.895">vehicle</text><polygon fill="#181818" points="1238,204.0938,1248,208.0938,1238,212.0938,1242,208.0938" style="stroke:#181818;stroke-width:1.0;"/><line style="stroke:#181818;stroke-width:1.0;" x1="880" x2="1244" y1="208.0938" y2="208.0938"/><text fill="#000000" font-family="sans-serif" font-size="13" font-weight="bold" lengthAdjust="spacing" textLength="32" x="887" y="203.0278">13.4</text><text fill="#000000" font-family="sans-serif" font-size="13" lengthAdjust="spacing" textLength="315" x="923" y="203.0278">addCheckUp(currentKms, date, maintenanceKm)</text><polygon fill="#181818" points="1786.5,233.2266,1796.5,237.2266,1786.5,241.2266,1790.5,237.2266" style="stroke:#181818;stroke-width:1.0;"/><line style="stroke:#181818;stroke-width:1.0;" x1="1260" x2="1792.5" y1="237.2266" y2="237.2266"/><text fill="#000000" font-family="sans-serif" font-size="13" font-weight="bold" lengthAdjust="spacing" textLength="32" x="1267" y="232.1606">13.5</text><text fill="#000000" font-family="sans-serif" font-size="13" lengthAdjust="spacing" textLength="108" x="1303" y="232.1606">create(km, date)</text><rect fill="#E3E3E3" height="30.2969" rx="2.5" ry="2.5" style="stroke:#181818;stroke-width:0.5;" width="141" x="1798.5" y="216.0938"/><text fill="#000000" font-family="sans-serif" font-size="14" lengthAdjust="spacing" textLength="127" x="1805.5" y="236.0889">checkup:Checkup</text><polygon fill="#181818" points="1271,274.5234,1261,278.5234,1271,282.5234,1267,278.5234" style="stroke:#181818;stroke-width:1.0;"/><line style="stroke:#181818;stroke-width:1.0;" x1="1265" x2="1868" y1="278.5234" y2="278.5234"/><text fill="#000000" font-family="sans-serif" font-size="13" font-weight="bold" lengthAdjust="spacing" textLength="32" x="1277" y="273.4575">13.6</text><text fill="#000000" font-family="sans-serif" font-size="13" lengthAdjust="spacing" textLength="544" x="1313" y="273.4575">Created and Added to the Check Up List of the Vehicle which was under maintenance</text><polygon fill="#181818" points="891,303.6563,881,307.6563,891,311.6563,887,307.6563" style="stroke:#181818;stroke-width:1.0;"/><line style="stroke:#181818;stroke-width:1.0;stroke-dasharray:2.0,2.0;" x1="885" x2="1254" y1="307.6563" y2="307.6563"/><text fill="#000000" font-family="sans-serif" font-size="13" font-weight="bold" lengthAdjust="spacing" textLength="32" x="897" y="302.5903">13.7</text><text fill="#000000" font-family="sans-serif" font-size="13" lengthAdjust="spacing" textLength="34" x="933" y="302.5903">Done</text><polygon fill="#181818" points="471,332.7891,461,336.7891,471,340.7891,467,336.7891" style="stroke:#181818;stroke-width:1.0;"/><line style="stroke:#181818;stroke-width:1.0;stroke-dasharray:2.0,2.0;" x1="465" x2="874" y1="336.7891" y2="336.7891"/><text fill="#000000" font-family="sans-serif" font-size="13" font-weight="bold" lengthAdjust="spacing" textLength="32" x="477" y="331.7231">13.8</text><text fill="#000000" font-family="sans-serif" font-size="13" lengthAdjust="spacing" textLength="26" x="513" y="331.7231">true</text><polygon fill="#181818" points="11,368.9219,1,372.9219,11,376.9219,7,372.9219" style="stroke:#181818;stroke-width:1.0;"/><line style="stroke:#181818;stroke-width:1.0;stroke-dasharray:2.0,2.0;" x1="5" x2="454" y1="372.9219" y2="372.9219"/><text fill="#000000" font-family="sans-serif" font-size="13" font-weight="bold" lengthAdjust="spacing" textLength="18" x="17" y="367.856">14</text><text fill="#000000" font-family="sans-serif" font-size="13" lengthAdjust="spacing" textLength="53" x="39" y="367.856">Success</text><!--SRC=[bLJBRi8m4BpxArQSMWILK7kAgafjUgELAX2zk_QIM4biotP0_7sD4u8TK4LpY5yxuvdTJMmbfAQ6Dj0egLXfL8FWJ8l43YUQieeMk7Q76i4WSrGMTHnWIyhLNiW2jhIsI0XjdP9jyuE641_Y11EQIWUJR8M5i0vDNYAhDZfNqXbLrsWcG2sSbobiXwLWDQvGAokSCeViUxmJyD7kLO8JB0vE0zbHLwkpl1ixLTsSnBvWyKZ8_2LI31bGpdjVTnPhdoZaNpLrE0CUtgmr1gLRDdO63HNIeQIIuRAvJvaV5eGo9tOU5AU454Qr6aufXCyp1I7WdqYCbnOb8zMcRzHqf1nqnAaD9p7z-JP_qrP8tg_U3i5_T-DrmeJiKdPVk134yK_mfPB8SsopCtw3sR6qlX6cKy_D31wTLKt7Do8OMYQKfLkaslA0vq0bXrVE_SmfS6KFXOs63rzbKDkmUSBj_L32tZTbAxalSsHYdA94mc3Y8i7lIluZk-EE3t-Aw-ZGAIXv-jKy4V8ydySadcNTCeRMabZzkUr_0G00]--></g></svg>