<?xml version="1.0" encoding="us-ascii" standalone="no"?><svg xmlns="http://www.w3.org/2000/svg" xmlns:xlink="http://www.w3.org/1999/xlink" contentStyleType="text/css" height="1156px" preserveAspectRatio="none" style="width:2685px;height:1156px;background:#FFFFFF;" version="1.1" viewBox="0 0 2685 1156" width="2685px" zoomAndPan="magnify"><defs/><g><text fill="#000000" font-family="sans-serif" font-size="14" font-weight="bold" lengthAdjust="spacing" textLength="507" x="1088" y="27.9951">UI Sequence Diagram (SSD) for Registering Vehicle Maintenance</text><rect fill="#FFFFFF" height="938.3125" style="stroke:#181818;stroke-width:1.0;" width="10" x="17.5" y="128.5938"/><rect fill="#FFFFFF" height="303.4922" style="stroke:#181818;stroke-width:1.0;" width="10" x="622.5" y="149.7266"/><rect fill="#FFFFFF" height="575.5547" style="stroke:#181818;stroke-width:1.0;" width="10" x="622.5" y="482.3516"/><rect fill="#FFFFFF" height="203.9297" style="stroke:#181818;stroke-width:1.0;" width="10" x="1082.5" y="220.1563"/><rect fill="#FFFFFF" height="87.3984" style="stroke:#181818;stroke-width:1.0;" width="10" x="1082.5" y="637.8828"/><rect fill="#FFFFFF" height="274.3594" style="stroke:#181818;stroke-width:1.0;" width="10" x="1082.5" y="754.4141"/><rect fill="#FFFFFF" height="29.1328" style="stroke:#181818;stroke-width:1.0;" width="10" x="1246.5" y="249.2891"/><rect fill="#FFFFFF" height="29.1328" style="stroke:#181818;stroke-width:1.0;" width="10" x="1401" y="307.5547"/><rect fill="#FFFFFF" height="29.1328" style="stroke:#181818;stroke-width:1.0;" width="10" x="1637.5" y="365.8203"/><rect fill="#FFFFFF" height="29.1328" style="stroke:#181818;stroke-width:1.0;" width="10" x="1637.5" y="667.0156"/><rect fill="#FFFFFF" height="216.0938" style="stroke:#181818;stroke-width:1.0;" width="10" x="1637.5" y="783.5469"/><rect fill="#FFFFFF" height="29.1328" style="stroke:#181818;stroke-width:1.0;" width="10" x="2003.5" y="812.6797"/><rect fill="#FFFFFF" height="99.5625" style="stroke:#181818;stroke-width:1.0;" width="10" x="2003.5" y="870.9453"/><rect fill="#FFFFFF" height="31.2969" style="stroke:#181818;stroke-width:1.0;" width="10" x="2603.5" y="910.0781"/><line style="stroke:#181818;stroke-width:0.5;stroke-dasharray:5.0,5.0;" x1="22" x2="22" y1="118.5938" y2="1075.9063"/><line style="stroke:#181818;stroke-width:0.5;stroke-dasharray:5.0,5.0;" x1="627" x2="627" y1="118.5938" y2="1075.9063"/><line style="stroke:#181818;stroke-width:0.5;stroke-dasharray:5.0,5.0;" x1="1087" x2="1087" y1="188.375" y2="1075.9063"/><line style="stroke:#181818;stroke-width:0.5;stroke-dasharray:5.0,5.0;" x1="1251" x2="1251" y1="118.5938" y2="1075.9063"/><line style="stroke:#181818;stroke-width:0.5;stroke-dasharray:5.0,5.0;" x1="1406" x2="1406" y1="118.5938" y2="1075.9063"/><line style="stroke:#181818;stroke-width:0.5;stroke-dasharray:5.0,5.0;" x1="1642" x2="1642" y1="118.5938" y2="1075.9063"/><line style="stroke:#181818;stroke-width:0.5;stroke-dasharray:5.0,5.0;" x1="2008" x2="2008" y1="118.5938" y2="1075.9063"/><line style="stroke:#181818;stroke-width:0.5;stroke-dasharray:5.0,5.0;" x1="2608" x2="2608" y1="909.5938" y2="1075.9063"/><text fill="#000000" font-family="sans-serif" font-size="14" lengthAdjust="spacing" textLength="29" x="5" y="115.292">VFM</text><ellipse cx="22.5" cy="50.7969" fill="#E3E3E3" rx="8" ry="8" style="stroke:#181818;stroke-width:0.5;"/><path d="M22.5,58.7969 L22.5,85.7969 M9.5,66.7969 L35.5,66.7969 M22.5,85.7969 L9.5,100.7969 M22.5,85.7969 L35.5,100.7969 " fill="none" style="stroke:#181818;stroke-width:0.5;"/><text fill="#000000" font-family="sans-serif" font-size="14" lengthAdjust="spacing" textLength="29" x="5" y="1087.9014">VFM</text><ellipse cx="22.5" cy="1099.7031" fill="#E3E3E3" rx="8" ry="8" style="stroke:#181818;stroke-width:0.5;"/><path d="M22.5,1107.7031 L22.5,1134.7031 M9.5,1115.7031 L35.5,1115.7031 M22.5,1134.7031 L9.5,1149.7031 M22.5,1134.7031 L35.5,1149.7031 " fill="none" style="stroke:#181818;stroke-width:0.5;"/><rect fill="#E3E3E3" height="30.2969" rx="2.5" ry="2.5" style="stroke:#181818;stroke-width:0.5;" width="153" x="551" y="87.2969"/><text fill="#000000" font-family="sans-serif" font-size="14" lengthAdjust="spacing" textLength="139" x="558" y="107.292">:RegisterCheckUpUI</text><rect fill="#E3E3E3" height="30.2969" rx="2.5" ry="2.5" style="stroke:#181818;stroke-width:0.5;" width="153" x="551" y="1074.9063"/><text fill="#000000" font-family="sans-serif" font-size="14" lengthAdjust="spacing" textLength="139" x="558" y="1094.9014">:RegisterCheckUpUI</text><rect fill="#E3E3E3" height="30.2969" rx="2.5" ry="2.5" style="stroke:#181818;stroke-width:0.5;" width="207" x="984" y="1074.9063"/><text fill="#000000" font-family="sans-serif" font-size="14" lengthAdjust="spacing" textLength="193" x="991" y="1094.9014">:RegisterCheckUpController</text><rect fill="#E3E3E3" height="30.2969" rx="2.5" ry="2.5" style="stroke:#181818;stroke-width:0.5;" width="101" x="1201" y="87.2969"/><text fill="#000000" font-family="sans-serif" font-size="14" lengthAdjust="spacing" textLength="87" x="1208" y="107.292">Repositories</text><rect fill="#E3E3E3" height="30.2969" rx="2.5" ry="2.5" style="stroke:#181818;stroke-width:0.5;" width="101" x="1201" y="1074.9063"/><text fill="#000000" font-family="sans-serif" font-size="14" lengthAdjust="spacing" textLength="87" x="1208" y="1094.9014">Repositories</text><rect fill="#E3E3E3" height="30.2969" rx="2.5" ry="2.5" style="stroke:#181818;stroke-width:0.5;" width="188" x="1312" y="87.2969"/><text fill="#000000" font-family="sans-serif" font-size="14" lengthAdjust="spacing" textLength="174" x="1319" y="107.292">repositories:Repositories</text><rect fill="#E3E3E3" height="30.2969" rx="2.5" ry="2.5" style="stroke:#181818;stroke-width:0.5;" width="188" x="1312" y="1074.9063"/><text fill="#000000" font-family="sans-serif" font-size="14" lengthAdjust="spacing" textLength="174" x="1319" y="1094.9014">repositories:Repositories</text><rect fill="#E3E3E3" height="30.2969" rx="2.5" ry="2.5" style="stroke:#181818;stroke-width:0.5;" width="265" x="1510" y="87.2969"/><text fill="#000000" font-family="sans-serif" font-size="14" lengthAdjust="spacing" textLength="251" x="1517" y="107.292">vehicleRepository:VehicleRepository</text><rect fill="#E3E3E3" height="30.2969" rx="2.5" ry="2.5" style="stroke:#181818;stroke-width:0.5;" width="265" x="1510" y="1074.9063"/><text fill="#000000" font-family="sans-serif" font-size="14" lengthAdjust="spacing" textLength="251" x="1517" y="1094.9014">vehicleRepository:VehicleRepository</text><rect fill="#E3E3E3" height="30.2969" rx="2.5" ry="2.5" style="stroke:#181818;stroke-width:0.5;" width="117" x="1950" y="87.2969"/><text fill="#000000" font-family="sans-serif" font-size="14" lengthAdjust="spacing" textLength="103" x="1957" y="107.292">vehicle:Vehicle</text><rect fill="#E3E3E3" height="30.2969" rx="2.5" ry="2.5" style="stroke:#181818;stroke-width:0.5;" width="117" x="1950" y="1074.9063"/><text fill="#000000" font-family="sans-serif" font-size="14" lengthAdjust="spacing" textLength="103" x="1957" y="1094.9014">vehicle:Vehicle</text><rect fill="#E3E3E3" height="30.2969" rx="2.5" ry="2.5" style="stroke:#181818;stroke-width:0.5;" width="141" x="2538" y="1074.9063"/><text fill="#000000" font-family="sans-serif" font-size="14" lengthAdjust="spacing" textLength="127" x="2545" y="1094.9014">checkup:Checkup</text><rect fill="#FFFFFF" height="938.3125" style="stroke:#181818;stroke-width:1.0;" width="10" x="17.5" y="128.5938"/><rect fill="#FFFFFF" height="303.4922" style="stroke:#181818;stroke-width:1.0;" width="10" x="622.5" y="149.7266"/><rect fill="#FFFFFF" height="575.5547" style="stroke:#181818;stroke-width:1.0;" width="10" x="622.5" y="482.3516"/><rect fill="#FFFFFF" height="203.9297" style="stroke:#181818;stroke-width:1.0;" width="10" x="1082.5" y="220.1563"/><rect fill="#FFFFFF" height="87.3984" style="stroke:#181818;stroke-width:1.0;" width="10" x="1082.5" y="637.8828"/><rect fill="#FFFFFF" height="274.3594" style="stroke:#181818;stroke-width:1.0;" width="10" x="1082.5" y="754.4141"/><rect fill="#FFFFFF" height="29.1328" style="stroke:#181818;stroke-width:1.0;" width="10" x="1246.5" y="249.2891"/><rect fill="#FFFFFF" height="29.1328" style="stroke:#181818;stroke-width:1.0;" width="10" x="1401" y="307.5547"/><rect fill="#FFFFFF" height="29.1328" style="stroke:#181818;stroke-width:1.0;" width="10" x="1637.5" y="365.8203"/><rect fill="#FFFFFF" height="29.1328" style="stroke:#181818;stroke-width:1.0;" width="10" x="1637.5" y="667.0156"/><rect fill="#FFFFFF" height="216.0938" style="stroke:#181818;stroke-width:1.0;" width="10" x="1637.5" y="783.5469"/><rect fill="#FFFFFF" height="29.1328" style="stroke:#181818;stroke-width:1.0;" width="10" x="2003.5" y="812.6797"/><rect fill="#FFFFFF" height="99.5625" style="stroke:#181818;stroke-width:1.0;" width="10" x="2003.5" y="870.9453"/><rect fill="#FFFFFF" height="31.2969" style="stroke:#181818;stroke-width:1.0;" width="10" x="2603.5" y="910.0781"/><polygon fill="#181818" points="610.5,145.7266,620.5,149.7266,610.5,153.7266,614.5,149.7266" style="stroke:#181818;stroke-width:1.0;"/><line style="stroke:#181818;stroke-width:1.0;" x1="27.5" x2="616.5" y1="149.7266" y2="149.7266"/><text fill="#000000" font-family="sans-serif" font-size="13" font-weight="bold" lengthAdjust="spacing" textLength="9" x="34.5" y="144.6606">1</text><text fill="#000000" font-family="sans-serif" font-size="13" lengthAdjust="spacing" textLength="200" x="47.5" y="144.6606">Asks to register a maintenance</text><polygon fill="#181818" points="972,174.8594,982,178.8594,972,182.8594,976,178.8594" style="stroke:#181818;stroke-width:1.0;"/><line style="stroke:#181818;stroke-width:1.0;" x1="632.5" x2="978" y1="178.8594" y2="178.8594"/><text fill="#000000" font-family="sans-serif" font-size="13" font-weight="bold" lengthAdjust="spacing" textLength="9" x="639.5" y="173.7935">2</text><text fill="#000000" font-family="sans-serif" font-size="13" lengthAdjust="spacing" textLength="41" x="652.5" y="173.7935">create</text><rect fill="#E3E3E3" height="30.2969" rx="2.5" ry="2.5" style="stroke:#181818;stroke-width:0.5;" width="207" x="984" y="157.7266"/><text fill="#000000" font-family="sans-serif" font-size="14" lengthAdjust="spacing" textLength="193" x="991" y="177.7217">:RegisterCheckUpController</text><polygon fill="#181818" points="1070.5,216.1563,1080.5,220.1563,1070.5,224.1563,1074.5,220.1563" style="stroke:#181818;stroke-width:1.0;"/><line style="stroke:#181818;stroke-width:1.0;" x1="632.5" x2="1076.5" y1="220.1563" y2="220.1563"/><text fill="#000000" font-family="sans-serif" font-size="13" font-weight="bold" lengthAdjust="spacing" textLength="9" x="639.5" y="215.0903">3</text><text fill="#000000" font-family="sans-serif" font-size="13" lengthAdjust="spacing" textLength="236" x="652.5" y="215.0903">getDataNeededToRegisterCheckUp()</text><polygon fill="#181818" points="1234.5,245.2891,1244.5,249.2891,1234.5,253.2891,1238.5,249.2891" style="stroke:#181818;stroke-width:1.0;"/><line style="stroke:#181818;stroke-width:1.0;" x1="1092.5" x2="1240.5" y1="249.2891" y2="249.2891"/><text fill="#000000" font-family="sans-serif" font-size="13" font-weight="bold" lengthAdjust="spacing" textLength="9" x="1099.5" y="244.2231">4</text><text fill="#000000" font-family="sans-serif" font-size="13" lengthAdjust="spacing" textLength="85" x="1112.5" y="244.2231">getInstance()</text><polygon fill="#181818" points="1103.5,274.4219,1093.5,278.4219,1103.5,282.4219,1099.5,278.4219" style="stroke:#181818;stroke-width:1.0;"/><line style="stroke:#181818;stroke-width:1.0;stroke-dasharray:2.0,2.0;" x1="1097.5" x2="1250.5" y1="278.4219" y2="278.4219"/><text fill="#000000" font-family="sans-serif" font-size="13" font-weight="bold" lengthAdjust="spacing" textLength="9" x="1109.5" y="273.356">5</text><text fill="#000000" font-family="sans-serif" font-size="13" lengthAdjust="spacing" textLength="75" x="1122.5" y="273.356">repositories</text><polygon fill="#181818" points="1389,303.5547,1399,307.5547,1389,311.5547,1393,307.5547" style="stroke:#181818;stroke-width:1.0;"/><line style="stroke:#181818;stroke-width:1.0;" x1="1092.5" x2="1395" y1="307.5547" y2="307.5547"/><text fill="#000000" font-family="sans-serif" font-size="13" font-weight="bold" lengthAdjust="spacing" textLength="9" x="1099.5" y="302.4888">6</text><text fill="#000000" font-family="sans-serif" font-size="13" lengthAdjust="spacing" textLength="144" x="1112.5" y="302.4888">getVehicleRepository()</text><polygon fill="#181818" points="1103.5,332.6875,1093.5,336.6875,1103.5,340.6875,1099.5,336.6875" style="stroke:#181818;stroke-width:1.0;"/><line style="stroke:#181818;stroke-width:1.0;stroke-dasharray:2.0,2.0;" x1="1097.5" x2="1405" y1="336.6875" y2="336.6875"/><text fill="#000000" font-family="sans-serif" font-size="13" font-weight="bold" lengthAdjust="spacing" textLength="9" x="1109.5" y="331.6216">7</text><text fill="#000000" font-family="sans-serif" font-size="13" lengthAdjust="spacing" textLength="111" x="1122.5" y="331.6216">vehicleRepository</text><polygon fill="#181818" points="1625.5,361.8203,1635.5,365.8203,1625.5,369.8203,1629.5,365.8203" style="stroke:#181818;stroke-width:1.0;"/><line style="stroke:#181818;stroke-width:1.0;" x1="1092.5" x2="1631.5" y1="365.8203" y2="365.8203"/><text fill="#000000" font-family="sans-serif" font-size="13" font-weight="bold" lengthAdjust="spacing" textLength="9" x="1099.5" y="360.7544">8</text><text fill="#000000" font-family="sans-serif" font-size="13" lengthAdjust="spacing" textLength="135" x="1112.5" y="360.7544">getVehiclePLateList()</text><polygon fill="#181818" points="1103.5,390.9531,1093.5,394.9531,1103.5,398.9531,1099.5,394.9531" style="stroke:#181818;stroke-width:1.0;"/><line style="stroke:#181818;stroke-width:1.0;stroke-dasharray:2.0,2.0;" x1="1097.5" x2="1641.5" y1="394.9531" y2="394.9531"/><text fill="#000000" font-family="sans-serif" font-size="13" font-weight="bold" lengthAdjust="spacing" textLength="9" x="1109.5" y="389.8872">9</text><text fill="#000000" font-family="sans-serif" font-size="13" lengthAdjust="spacing" textLength="39" x="1122.5" y="389.8872">plates</text><polygon fill="#181818" points="643.5,420.0859,633.5,424.0859,643.5,428.0859,639.5,424.0859" style="stroke:#181818;stroke-width:1.0;"/><line style="stroke:#181818;stroke-width:1.0;stroke-dasharray:2.0,2.0;" x1="637.5" x2="1086.5" y1="424.0859" y2="424.0859"/><text fill="#000000" font-family="sans-serif" font-size="13" font-weight="bold" lengthAdjust="spacing" textLength="18" x="649.5" y="419.02">10</text><text fill="#000000" font-family="sans-serif" font-size="13" lengthAdjust="spacing" textLength="83" x="671.5" y="419.02">vehiclePlates</text><polygon fill="#181818" points="38.5,449.2188,28.5,453.2188,38.5,457.2188,34.5,453.2188" style="stroke:#181818;stroke-width:1.0;"/><line style="stroke:#181818;stroke-width:1.0;stroke-dasharray:2.0,2.0;" x1="32.5" x2="626.5" y1="453.2188" y2="453.2188"/><text fill="#000000" font-family="sans-serif" font-size="13" font-weight="bold" lengthAdjust="spacing" textLength="18" x="44.5" y="448.1528">11</text><text fill="#000000" font-family="sans-serif" font-size="13" lengthAdjust="spacing" textLength="549" x="66.5" y="448.1528">Show Plates, Request Date of Check Up and Current Kilometers and Frequency Option</text><polygon fill="#181818" points="610.5,478.3516,620.5,482.3516,610.5,486.3516,614.5,482.3516" style="stroke:#181818;stroke-width:1.0;"/><line style="stroke:#181818;stroke-width:1.0;" x1="27.5" x2="616.5" y1="482.3516" y2="482.3516"/><text fill="#000000" font-family="sans-serif" font-size="13" font-weight="bold" lengthAdjust="spacing" textLength="18" x="34.5" y="477.2856">12</text><text fill="#000000" font-family="sans-serif" font-size="13" lengthAdjust="spacing" textLength="533" x="56.5" y="477.2856">Selects a Plate, Provides Check Up Info, Changes Check Up Frequency and Submits</text><line style="stroke:#181818;stroke-width:1.0;" x1="632.5" x2="674.5" y1="511.4844" y2="511.4844"/><line style="stroke:#181818;stroke-width:1.0;" x1="674.5" x2="674.5" y1="511.4844" y2="524.4844"/><line style="stroke:#181818;stroke-width:1.0;" x1="633.5" x2="674.5" y1="524.4844" y2="524.4844"/><polygon fill="#181818" points="643.5,520.4844,633.5,524.4844,643.5,528.4844,639.5,524.4844" style="stroke:#181818;stroke-width:1.0;"/><text fill="#000000" font-family="sans-serif" font-size="13" font-weight="bold" lengthAdjust="spacing" textLength="18" x="639.5" y="506.4185">13</text><text fill="#000000" font-family="sans-serif" font-size="13" lengthAdjust="spacing" textLength="207" x="661.5" y="506.4185">verifyCheckUpDateFormat(date)</text><line style="stroke:#181818;stroke-width:1.0;" x1="632.5" x2="674.5" y1="553.6172" y2="553.6172"/><line style="stroke:#181818;stroke-width:1.0;" x1="674.5" x2="674.5" y1="553.6172" y2="566.6172"/><line style="stroke:#181818;stroke-width:1.0;" x1="633.5" x2="674.5" y1="566.6172" y2="566.6172"/><polygon fill="#181818" points="643.5,562.6172,633.5,566.6172,643.5,570.6172,639.5,566.6172" style="stroke:#181818;stroke-width:1.0;"/><text fill="#000000" font-family="sans-serif" font-size="13" font-weight="bold" lengthAdjust="spacing" textLength="18" x="639.5" y="548.5513">14</text><text fill="#000000" font-family="sans-serif" font-size="13" lengthAdjust="spacing" textLength="177" x="661.5" y="548.5513">validateCheckUpDate(date)</text><line style="stroke:#181818;stroke-width:1.0;" x1="632.5" x2="674.5" y1="595.75" y2="595.75"/><line style="stroke:#181818;stroke-width:1.0;" x1="674.5" x2="674.5" y1="595.75" y2="608.75"/><line style="stroke:#181818;stroke-width:1.0;" x1="633.5" x2="674.5" y1="608.75" y2="608.75"/><polygon fill="#181818" points="643.5,604.75,633.5,608.75,643.5,612.75,639.5,608.75" style="stroke:#181818;stroke-width:1.0;"/><text fill="#000000" font-family="sans-serif" font-size="13" font-weight="bold" lengthAdjust="spacing" textLength="18" x="639.5" y="590.6841">15</text><text fill="#000000" font-family="sans-serif" font-size="13" lengthAdjust="spacing" textLength="232" x="661.5" y="590.6841">verifyKilometersFormat(currentKms)</text><polygon fill="#181818" points="1070.5,633.8828,1080.5,637.8828,1070.5,641.8828,1074.5,637.8828" style="stroke:#181818;stroke-width:1.0;"/><line style="stroke:#181818;stroke-width:1.0;" x1="632.5" x2="1076.5" y1="637.8828" y2="637.8828"/><text fill="#000000" font-family="sans-serif" font-size="13" font-weight="bold" lengthAdjust="spacing" textLength="18" x="639.5" y="632.8169">16</text><text fill="#000000" font-family="sans-serif" font-size="13" lengthAdjust="spacing" textLength="296" x="661.5" y="632.8169">validateKilometers(currentKms, selectedPlate)</text><polygon fill="#181818" points="1625.5,663.0156,1635.5,667.0156,1625.5,671.0156,1629.5,667.0156" style="stroke:#181818;stroke-width:1.0;"/><line style="stroke:#181818;stroke-width:1.0;" x1="1092.5" x2="1631.5" y1="667.0156" y2="667.0156"/><text fill="#000000" font-family="sans-serif" font-size="13" font-weight="bold" lengthAdjust="spacing" textLength="18" x="1099.5" y="661.9497">17</text><text fill="#000000" font-family="sans-serif" font-size="13" lengthAdjust="spacing" textLength="177" x="1121.5" y="661.9497">getLastKmForVehicle(plate)</text><polygon fill="#181818" points="1103.5,692.1484,1093.5,696.1484,1103.5,700.1484,1099.5,696.1484" style="stroke:#181818;stroke-width:1.0;"/><line style="stroke:#181818;stroke-width:1.0;" x1="1097.5" x2="1641.5" y1="696.1484" y2="696.1484"/><text fill="#000000" font-family="sans-serif" font-size="13" font-weight="bold" lengthAdjust="spacing" textLength="18" x="1109.5" y="691.0825">18</text><text fill="#000000" font-family="sans-serif" font-size="13" lengthAdjust="spacing" textLength="67" x="1131.5" y="691.0825">currentKm</text><polygon fill="#181818" points="643.5,721.2813,633.5,725.2813,643.5,729.2813,639.5,725.2813" style="stroke:#181818;stroke-width:1.0;"/><line style="stroke:#181818;stroke-width:1.0;" x1="637.5" x2="1086.5" y1="725.2813" y2="725.2813"/><text fill="#000000" font-family="sans-serif" font-size="13" font-weight="bold" lengthAdjust="spacing" textLength="18" x="649.5" y="720.2153">19</text><text fill="#000000" font-family="sans-serif" font-size="13" lengthAdjust="spacing" textLength="26" x="671.5" y="720.2153">true</text><polygon fill="#181818" points="1070.5,750.4141,1080.5,754.4141,1070.5,758.4141,1074.5,754.4141" style="stroke:#181818;stroke-width:1.0;"/><line style="stroke:#181818;stroke-width:1.0;" x1="632.5" x2="1076.5" y1="754.4141" y2="754.4141"/><text fill="#000000" font-family="sans-serif" font-size="13" font-weight="bold" lengthAdjust="spacing" textLength="18" x="639.5" y="749.3481">20</text><text fill="#000000" font-family="sans-serif" font-size="13" lengthAdjust="spacing" textLength="409" x="661.5" y="749.3481">addCheckUp(selectedPlate, date, currentKms, maintenanceKm)</text><polygon fill="#181818" points="1625.5,779.5469,1635.5,783.5469,1625.5,787.5469,1629.5,783.5469" style="stroke:#181818;stroke-width:1.0;"/><line style="stroke:#181818;stroke-width:1.0;" x1="1092.5" x2="1631.5" y1="783.5469" y2="783.5469"/><text fill="#000000" font-family="sans-serif" font-size="13" font-weight="bold" lengthAdjust="spacing" textLength="18" x="1099.5" y="778.481">21</text><text fill="#000000" font-family="sans-serif" font-size="13" lengthAdjust="spacing" textLength="355" x="1121.5" y="778.481">addCheckUp(plate, date, currentKms, maintenanceKm)</text><polygon fill="#181818" points="1991.5,808.6797,2001.5,812.6797,1991.5,816.6797,1995.5,812.6797" style="stroke:#181818;stroke-width:1.0;"/><line style="stroke:#181818;stroke-width:1.0;" x1="1647.5" x2="1997.5" y1="812.6797" y2="812.6797"/><text fill="#000000" font-family="sans-serif" font-size="13" font-weight="bold" lengthAdjust="spacing" textLength="18" x="1654.5" y="807.6138">22</text><text fill="#000000" font-family="sans-serif" font-size="13" lengthAdjust="spacing" textLength="159" x="1676.5" y="807.6138">findVehicleByPlate(plate)</text><polygon fill="#181818" points="1658.5,837.8125,1648.5,841.8125,1658.5,845.8125,1654.5,841.8125" style="stroke:#181818;stroke-width:1.0;"/><line style="stroke:#181818;stroke-width:1.0;" x1="1652.5" x2="2007.5" y1="841.8125" y2="841.8125"/><text fill="#000000" font-family="sans-serif" font-size="13" font-weight="bold" lengthAdjust="spacing" textLength="18" x="1664.5" y="836.7466">23</text><text fill="#000000" font-family="sans-serif" font-size="13" lengthAdjust="spacing" textLength="44" x="1686.5" y="836.7466">vehicle</text><polygon fill="#181818" points="1991.5,866.9453,2001.5,870.9453,1991.5,874.9453,1995.5,870.9453" style="stroke:#181818;stroke-width:1.0;"/><line style="stroke:#181818;stroke-width:1.0;" x1="1647.5" x2="1997.5" y1="870.9453" y2="870.9453"/><text fill="#000000" font-family="sans-serif" font-size="13" font-weight="bold" lengthAdjust="spacing" textLength="18" x="1654.5" y="865.8794">24</text><text fill="#000000" font-family="sans-serif" font-size="13" lengthAdjust="spacing" textLength="315" x="1676.5" y="865.8794">addCheckUp(currentKms, date, maintenanceKm)</text><polygon fill="#181818" points="2526,896.0781,2536,900.0781,2526,904.0781,2530,900.0781" style="stroke:#181818;stroke-width:1.0;"/><line style="stroke:#181818;stroke-width:1.0;" x1="2013.5" x2="2532" y1="900.0781" y2="900.0781"/><text fill="#000000" font-family="sans-serif" font-size="13" font-weight="bold" lengthAdjust="spacing" textLength="18" x="2020.5" y="895.0122">25</text><text fill="#000000" font-family="sans-serif" font-size="13" lengthAdjust="spacing" textLength="108" x="2042.5" y="895.0122">create(km, date)</text><rect fill="#E3E3E3" height="30.2969" rx="2.5" ry="2.5" style="stroke:#181818;stroke-width:0.5;" width="141" x="2538" y="878.9453"/><text fill="#000000" font-family="sans-serif" font-size="14" lengthAdjust="spacing" textLength="127" x="2545" y="898.9404">checkup:Checkup</text><polygon fill="#181818" points="2024.5,937.375,2014.5,941.375,2024.5,945.375,2020.5,941.375" style="stroke:#181818;stroke-width:1.0;"/><line style="stroke:#181818;stroke-width:1.0;" x1="2018.5" x2="2607.5" y1="941.375" y2="941.375"/><text fill="#000000" font-family="sans-serif" font-size="13" font-weight="bold" lengthAdjust="spacing" textLength="18" x="2030.5" y="936.3091">26</text><text fill="#000000" font-family="sans-serif" font-size="13" lengthAdjust="spacing" textLength="544" x="2052.5" y="936.3091">Created and Added to the Check Up List of the Vehicle which was under maintenance</text><polygon fill="#181818" points="1658.5,966.5078,1648.5,970.5078,1658.5,974.5078,1654.5,970.5078" style="stroke:#181818;stroke-width:1.0;"/><line style="stroke:#181818;stroke-width:1.0;stroke-dasharray:2.0,2.0;" x1="1652.5" x2="2007.5" y1="970.5078" y2="970.5078"/><text fill="#000000" font-family="sans-serif" font-size="13" font-weight="bold" lengthAdjust="spacing" textLength="18" x="1664.5" y="965.4419">27</text><text fill="#000000" font-family="sans-serif" font-size="13" lengthAdjust="spacing" textLength="34" x="1686.5" y="965.4419">Done</text><polygon fill="#181818" points="1103.5,995.6406,1093.5,999.6406,1103.5,1003.6406,1099.5,999.6406" style="stroke:#181818;stroke-width:1.0;"/><line style="stroke:#181818;stroke-width:1.0;stroke-dasharray:2.0,2.0;" x1="1097.5" x2="1641.5" y1="999.6406" y2="999.6406"/><text fill="#000000" font-family="sans-serif" font-size="13" font-weight="bold" lengthAdjust="spacing" textLength="18" x="1109.5" y="994.5747">28</text><text fill="#000000" font-family="sans-serif" font-size="13" lengthAdjust="spacing" textLength="26" x="1131.5" y="994.5747">true</text><polygon fill="#181818" points="643.5,1024.7734,633.5,1028.7734,643.5,1032.7734,639.5,1028.7734" style="stroke:#181818;stroke-width:1.0;"/><line style="stroke:#181818;stroke-width:1.0;" x1="637.5" x2="1086.5" y1="1028.7734" y2="1028.7734"/><text fill="#000000" font-family="sans-serif" font-size="13" font-weight="bold" lengthAdjust="spacing" textLength="18" x="649.5" y="1023.7075">29</text><text fill="#000000" font-family="sans-serif" font-size="13" lengthAdjust="spacing" textLength="53" x="671.5" y="1023.7075">Success</text><polygon fill="#181818" points="38.5,1053.9063,28.5,1057.9063,38.5,1061.9063,34.5,1057.9063" style="stroke:#181818;stroke-width:1.0;"/><line style="stroke:#181818;stroke-width:1.0;stroke-dasharray:2.0,2.0;" x1="32.5" x2="626.5" y1="1057.9063" y2="1057.9063"/><text fill="#000000" font-family="sans-serif" font-size="13" font-weight="bold" lengthAdjust="spacing" textLength="18" x="44.5" y="1052.8403">30</text><text fill="#000000" font-family="sans-serif" font-size="13" lengthAdjust="spacing" textLength="189" x="66.5" y="1052.8403">Confirms registration success</text><!--SRC=[bLNRRk8m47tFLupw11Nz0HvMwe8geRQxLRFqtPiCO97OMTifukztR2TaSYbjUI29FMSkPux7zYXL9OmeeTHAPmUZImHdQapiPQSIsL7iCNNd0i5WveJQ5zp07aIkJrBjOISAYqdYf2FJxGPI_5UZoX3MKkozwInDrtFOQGElk9VMeV6mDpp8Z13FGYg7IX0YIKJjjAhBlsZeFNC4kNbxUBu1OU6XG7JFGb5Mj9bG5avciXBAmSsoTRmwO7RSLjjDW6mtryrMMZcZYm9DCEy-1-vViT9MKZOIRR0C2tqRmsoMau2-_Nii_s9vNhuDLmAIhKuwQ67Sk6-O-MBhQhcAprXgV0yaotVXS4Wl_uIx7xwlIxYtHmjEanuYZI2WPDsx-2BU4m8GhAFqzfOSP0PfVxn9MtjqQ-74ByGSypzwqAdPlFFEsyHSaCD0NVIrKTRvf3WmTYs9LdV317W3anpxA6X-Kn5Zm57tXf53t77OaGw6iOSXMQ1Uv9SdGZmHQJmmLq_2aQCygeBiUuNti3o7LWvDwYyZ9E-GRpK1UdfQGdhG9uZ01LL90yCwM7kitaLnmhO2eN9OrSOWoVXH5ZIcI14sB3-OE6NEyBjoKYiUtijlKhyf5ZJ9o44ClO0NezzbZhOBkL4xlQ1F6dTykGldWwVrtr8wEoNuXXWZT-T6khwg1srAuMOvlSvxXgAGVf6PDaPZTnq1ZRSiClDOsldaYMgTTq06MO0DP60UgFZIyMA22C9x4fPSKJRDngmQkFfOVJnL6WjjMb-INyDAkB2kY6x0XiZpTfRqAbz07luvDMoeFPRJr5mxaonKzTqGroXhRymbxAJAcw-Vvr36HznVd8pJR8xl1ETN8hFQU3cnm4-Augaq5n2x5MR7ClhXXBVNLFFIpsKLS7aualSvNHl-Rd87x8wj7uT-elZ55dUYnm5ET0dMAgVsiQIXfwSszYNh4ODhhRv0tr29G-5-9lIqpZAqtnomPB6JfhJDNMs47v9WnwveTFq7]--></g></svg>