<?xml version="1.0" encoding="us-ascii" standalone="no"?><svg xmlns="http://www.w3.org/2000/svg" xmlns:xlink="http://www.w3.org/1999/xlink" contentStyleType="text/css" height="1396px" preserveAspectRatio="none" style="width:3000px;height:1396px;background:#FFFFFF;" version="1.1" viewBox="0 0 3000 1396" width="3000px" zoomAndPan="magnify"><defs/><g><rect fill="#FFFFFF" height="1215.7813" style="stroke:#181818;stroke-width:1.0;" width="10" x="19" y="91.2969"/><rect fill="#FFFFFF" height="1185.6484" style="stroke:#181818;stroke-width:1.0;" width="10" x="403" y="112.4297"/><rect fill="#FFFFFF" height="1086.0859" style="stroke:#181818;stroke-width:1.0;" width="10" x="618.5" y="182.8594"/><rect fill="#FFFFFF" height="121.5313" style="stroke:#181818;stroke-width:1.0;" width="10" x="623.5" y="336.5234"/><rect fill="#FFFFFF" height="63.2656" style="stroke:#181818;stroke-width:1.0;" width="10" x="623.5" y="1118.2813"/><rect fill="#FFFFFF" height="29.1328" style="stroke:#181818;stroke-width:1.0;" width="10" x="847.5" y="370.6563"/><rect fill="#FFFFFF" height="29.1328" style="stroke:#181818;stroke-width:1.0;" width="10" x="847.5" y="1152.4141"/><rect fill="#FFFFFF" height="29.1328" style="stroke:#181818;stroke-width:1.0;" width="10" x="985" y="428.9219"/><rect fill="#FFFFFF" height="29.1328" style="stroke:#181818;stroke-width:1.0;" width="10" x="1098.5" y="211.9922"/><rect fill="#FFFFFF" height="29.1328" style="stroke:#181818;stroke-width:1.0;" width="10" x="1253" y="270.2578"/><rect fill="#FFFFFF" height="261.5703" style="stroke:#181818;stroke-width:1.0;" width="10" x="1452.5" y="487.1875"/><rect fill="#FFFFFF" height="30" style="stroke:#181818;stroke-width:1.0;" width="10" x="1687.5" y="675.625"/><rect fill="#FFFFFF" height="30" style="stroke:#181818;stroke-width:1.0;" width="10" x="1687.5" y="872.4531"/><rect fill="#FFFFFF" height="30" style="stroke:#181818;stroke-width:1.0;" width="10" x="1921.5" y="581.75"/><rect fill="#FFFFFF" height="303.2578" style="stroke:#181818;stroke-width:1.0;" width="10" x="2104.5" y="777.8906"/><rect fill="#FFFFFF" height="34.1328" style="stroke:#181818;stroke-width:1.0;" width="10" x="2109.5" y="939.5859"/><rect fill="#FFFFFF" height="30" style="stroke:#181818;stroke-width:1.0;" width="10" x="2392.5" y="1015.0156"/><rect fill="#FFFFFF" height="29.1328" style="stroke:#181818;stroke-width:1.0;" width="10" x="2897.5" y="1210.6797"/><rect fill="none" height="177.1406" style="stroke:#000000;stroke-width:1.5;" width="689" x="1342" y="543.4844"/><rect fill="none" height="86.875" style="stroke:#000000;stroke-width:1.5;" width="495" x="1352" y="626.75"/><rect fill="none" height="218.8281" style="stroke:#000000;stroke-width:1.5;" width="1258" x="1553" y="834.1875"/><line style="stroke:#181818;stroke-width:0.5;stroke-dasharray:5.0,5.0;" x1="24" x2="24" y1="81.2969" y2="1316.0781"/><line style="stroke:#181818;stroke-width:0.5;stroke-dasharray:5.0,5.0;" x1="407.5" x2="407.5" y1="81.2969" y2="1316.0781"/><line style="stroke:#181818;stroke-width:0.5;stroke-dasharray:5.0,5.0;" x1="623.5" x2="623.5" y1="151.0781" y2="1316.0781"/><line style="stroke:#181818;stroke-width:0.5;stroke-dasharray:5.0,5.0;" x1="852" x2="852" y1="81.2969" y2="1316.0781"/><line style="stroke:#181818;stroke-width:0.5;stroke-dasharray:5.0,5.0;" x1="990" x2="990" y1="81.2969" y2="1316.0781"/><line style="stroke:#181818;stroke-width:0.5;stroke-dasharray:5.0,5.0;" x1="1103" x2="1103" y1="81.2969" y2="1316.0781"/><line style="stroke:#181818;stroke-width:0.5;stroke-dasharray:5.0,5.0;" x1="1258" x2="1258" y1="81.2969" y2="1316.0781"/><line style="stroke:#181818;stroke-width:0.5;stroke-dasharray:5.0,5.0;" x1="1457" x2="1457" y1="81.2969" y2="1316.0781"/><line style="stroke:#181818;stroke-width:0.5;stroke-dasharray:5.0,5.0;" x1="1692" x2="1692" y1="525.8359" y2="1316.0781"/><line style="stroke:#181818;stroke-width:0.5;stroke-dasharray:5.0,5.0;" x1="1926" x2="1926" y1="81.2969" y2="1316.0781"/><line style="stroke:#181818;stroke-width:0.5;stroke-dasharray:5.0,5.0;" x1="2109" x2="2109" y1="81.2969" y2="1316.0781"/><line style="stroke:#181818;stroke-width:0.5;stroke-dasharray:5.0,5.0;" x1="2397" x2="2397" y1="816.5391" y2="1316.0781"/><line style="stroke:#181818;stroke-width:0.5;stroke-dasharray:5.0,5.0;" x1="2681" x2="2681" y1="983.2344" y2="1316.0781"/><line style="stroke:#181818;stroke-width:0.5;stroke-dasharray:5.0,5.0;" x1="2902" x2="2902" y1="81.2969" y2="1316.0781"/><text fill="#000000" font-family="sans-serif" font-size="14" lengthAdjust="spacing" textLength="32" x="5" y="77.9951">GSM</text><ellipse cx="24" cy="13.5" fill="#E3E3E3" rx="8" ry="8" style="stroke:#181818;stroke-width:0.5;"/><path d="M24,21.5 L24,48.5 M11,29.5 L37,29.5 M24,48.5 L11,63.5 M24,48.5 L37,63.5 " fill="none" style="stroke:#181818;stroke-width:0.5;"/><text fill="#000000" font-family="sans-serif" font-size="14" lengthAdjust="spacing" textLength="32" x="5" y="1328.0732">GSM</text><ellipse cx="24" cy="1339.875" fill="#E3E3E3" rx="8" ry="8" style="stroke:#181818;stroke-width:0.5;"/><path d="M24,1347.875 L24,1374.875 M11,1355.875 L37,1355.875 M24,1374.875 L11,1389.875 M24,1374.875 L37,1389.875 " fill="none" style="stroke:#181818;stroke-width:0.5;"/><rect fill="#E3E3E3" height="30.2969" rx="2.5" ry="2.5" style="stroke:#181818;stroke-width:0.5;" width="181" x="317.5" y="50"/><text fill="#000000" font-family="sans-serif" font-size="14" lengthAdjust="spacing" textLength="167" x="324.5" y="69.9951">:ManageGreenSpacesUI</text><rect fill="#E3E3E3" height="30.2969" rx="2.5" ry="2.5" style="stroke:#181818;stroke-width:0.5;" width="181" x="317.5" y="1315.0781"/><text fill="#000000" font-family="sans-serif" font-size="14" lengthAdjust="spacing" textLength="167" x="324.5" y="1335.0732">:ManageGreenSpacesUI</text><rect fill="#E3E3E3" height="30.2969" rx="2.5" ry="2.5" style="stroke:#181818;stroke-width:0.5;" width="230" x="508.5" y="1315.0781"/><text fill="#000000" font-family="sans-serif" font-size="14" lengthAdjust="spacing" textLength="216" x="515.5" y="1335.0732">:RegisterGreenSpaceController</text><rect fill="#E3E3E3" height="30.2969" rx="2.5" ry="2.5" style="stroke:#181818;stroke-width:0.5;" width="149" x="778" y="50"/><text fill="#000000" font-family="sans-serif" font-size="14" lengthAdjust="spacing" textLength="135" x="785" y="69.9951">:ApplicationSession</text><rect fill="#E3E3E3" height="30.2969" rx="2.5" ry="2.5" style="stroke:#181818;stroke-width:0.5;" width="149" x="778" y="1315.0781"/><text fill="#000000" font-family="sans-serif" font-size="14" lengthAdjust="spacing" textLength="135" x="785" y="1335.0732">:ApplicationSession</text><rect fill="#E3E3E3" height="30.2969" rx="2.5" ry="2.5" style="stroke:#181818;stroke-width:0.5;" width="106" x="937" y="50"/><text fill="#000000" font-family="sans-serif" font-size="14" lengthAdjust="spacing" textLength="92" x="944" y="69.9951">:UserSession</text><rect fill="#E3E3E3" height="30.2969" rx="2.5" ry="2.5" style="stroke:#181818;stroke-width:0.5;" width="106" x="937" y="1315.0781"/><text fill="#000000" font-family="sans-serif" font-size="14" lengthAdjust="spacing" textLength="92" x="944" y="1335.0732">:UserSession</text><rect fill="#E3E3E3" height="30.2969" rx="2.5" ry="2.5" style="stroke:#181818;stroke-width:0.5;" width="101" x="1053" y="50"/><text fill="#000000" font-family="sans-serif" font-size="14" lengthAdjust="spacing" textLength="87" x="1060" y="69.9951">Repositories</text><rect fill="#E3E3E3" height="30.2969" rx="2.5" ry="2.5" style="stroke:#181818;stroke-width:0.5;" width="101" x="1053" y="1315.0781"/><text fill="#000000" font-family="sans-serif" font-size="14" lengthAdjust="spacing" textLength="87" x="1060" y="1335.0732">Repositories</text><rect fill="#E3E3E3" height="30.2969" rx="2.5" ry="2.5" style="stroke:#181818;stroke-width:0.5;" width="188" x="1164" y="50"/><text fill="#000000" font-family="sans-serif" font-size="14" lengthAdjust="spacing" textLength="174" x="1171" y="69.9951">repositories:Repositories</text><rect fill="#E3E3E3" height="30.2969" rx="2.5" ry="2.5" style="stroke:#181818;stroke-width:0.5;" width="188" x="1164" y="1315.0781"/><text fill="#000000" font-family="sans-serif" font-size="14" lengthAdjust="spacing" textLength="174" x="1171" y="1335.0732">repositories:Repositories</text><rect fill="#E3E3E3" height="30.2969" rx="2.5" ry="2.5" style="stroke:#181818;stroke-width:0.5;" width="191" x="1362" y="50"/><text fill="#000000" font-family="sans-serif" font-size="14" lengthAdjust="spacing" textLength="177" x="1369" y="69.9951">organization:Organization</text><rect fill="#E3E3E3" height="30.2969" rx="2.5" ry="2.5" style="stroke:#181818;stroke-width:0.5;" width="191" x="1362" y="1315.0781"/><text fill="#000000" font-family="sans-serif" font-size="14" lengthAdjust="spacing" textLength="177" x="1369" y="1335.0732">organization:Organization</text><rect fill="#E3E3E3" height="30.2969" rx="2.5" ry="2.5" style="stroke:#181818;stroke-width:0.5;" width="259" x="1563" y="1315.0781"/><text fill="#000000" font-family="sans-serif" font-size="14" lengthAdjust="spacing" textLength="245" x="1570" y="1335.0732">greenSpaceList:List&lt;GreenSpace&gt;</text><rect fill="#E3E3E3" height="30.2969" rx="2.5" ry="2.5" style="stroke:#181818;stroke-width:0.5;" width="189" x="1832" y="50"/><text fill="#000000" font-family="sans-serif" font-size="14" lengthAdjust="spacing" textLength="175" x="1839" y="69.9951">greenSpace:GreenSpace</text><rect fill="#E3E3E3" height="30.2969" rx="2.5" ry="2.5" style="stroke:#181818;stroke-width:0.5;" width="189" x="1832" y="1315.0781"/><text fill="#000000" font-family="sans-serif" font-size="14" lengthAdjust="spacing" textLength="175" x="1839" y="1335.0732">greenSpace:GreenSpace</text><rect fill="#E3E3E3" height="30.2969" rx="2.5" ry="2.5" style="stroke:#181818;stroke-width:0.5;" width="157" x="2031" y="50"/><text fill="#000000" font-family="sans-serif" font-size="14" lengthAdjust="spacing" textLength="143" x="2038" y="69.9951">:GreenSpaceMapper</text><rect fill="#E3E3E3" height="30.2969" rx="2.5" ry="2.5" style="stroke:#181818;stroke-width:0.5;" width="157" x="2031" y="1315.0781"/><text fill="#000000" font-family="sans-serif" font-size="14" lengthAdjust="spacing" textLength="143" x="2038" y="1335.0732">:GreenSpaceMapper</text><rect fill="#E3E3E3" height="30.2969" rx="2.5" ry="2.5" style="stroke:#181818;stroke-width:0.5;" width="309" x="2243" y="1315.0781"/><text fill="#000000" font-family="sans-serif" font-size="14" lengthAdjust="spacing" textLength="295" x="2250" y="1335.0732">greenSpaceListDto:List&lt;GreenSpaceDto&gt;</text><rect fill="#E3E3E3" height="30.2969" rx="2.5" ry="2.5" style="stroke:#181818;stroke-width:0.5;" width="239" x="2562" y="1315.0781"/><text fill="#000000" font-family="sans-serif" font-size="14" lengthAdjust="spacing" textLength="225" x="2569" y="1335.0732">greenSpaceDto:GreenSpaceDto</text><rect fill="#E3E3E3" height="30.2969" rx="2.5" ry="2.5" style="stroke:#181818;stroke-width:0.5;" width="183" x="2811" y="50"/><text fill="#000000" font-family="sans-serif" font-size="14" lengthAdjust="spacing" textLength="169" x="2818" y="69.9951">sortAlgorithm:SortingList</text><rect fill="#E3E3E3" height="30.2969" rx="2.5" ry="2.5" style="stroke:#181818;stroke-width:0.5;" width="183" x="2811" y="1315.0781"/><text fill="#000000" font-family="sans-serif" font-size="14" lengthAdjust="spacing" textLength="169" x="2818" y="1335.0732">sortAlgorithm:SortingList</text><rect fill="#FFFFFF" height="1215.7813" style="stroke:#181818;stroke-width:1.0;" width="10" x="19" y="91.2969"/><rect fill="#FFFFFF" height="1185.6484" style="stroke:#181818;stroke-width:1.0;" width="10" x="403" y="112.4297"/><rect fill="#FFFFFF" height="1086.0859" style="stroke:#181818;stroke-width:1.0;" width="10" x="618.5" y="182.8594"/><rect fill="#FFFFFF" height="121.5313" style="stroke:#181818;stroke-width:1.0;" width="10" x="623.5" y="336.5234"/><rect fill="#FFFFFF" height="63.2656" style="stroke:#181818;stroke-width:1.0;" width="10" x="623.5" y="1118.2813"/><rect fill="#FFFFFF" height="29.1328" style="stroke:#181818;stroke-width:1.0;" width="10" x="847.5" y="370.6563"/><rect fill="#FFFFFF" height="29.1328" style="stroke:#181818;stroke-width:1.0;" width="10" x="847.5" y="1152.4141"/><rect fill="#FFFFFF" height="29.1328" style="stroke:#181818;stroke-width:1.0;" width="10" x="985" y="428.9219"/><rect fill="#FFFFFF" height="29.1328" style="stroke:#181818;stroke-width:1.0;" width="10" x="1098.5" y="211.9922"/><rect fill="#FFFFFF" height="29.1328" style="stroke:#181818;stroke-width:1.0;" width="10" x="1253" y="270.2578"/><rect fill="#FFFFFF" height="261.5703" style="stroke:#181818;stroke-width:1.0;" width="10" x="1452.5" y="487.1875"/><rect fill="#FFFFFF" height="30" style="stroke:#181818;stroke-width:1.0;" width="10" x="1687.5" y="675.625"/><rect fill="#FFFFFF" height="30" style="stroke:#181818;stroke-width:1.0;" width="10" x="1687.5" y="872.4531"/><rect fill="#FFFFFF" height="30" style="stroke:#181818;stroke-width:1.0;" width="10" x="1921.5" y="581.75"/><rect fill="#FFFFFF" height="303.2578" style="stroke:#181818;stroke-width:1.0;" width="10" x="2104.5" y="777.8906"/><rect fill="#FFFFFF" height="34.1328" style="stroke:#181818;stroke-width:1.0;" width="10" x="2109.5" y="939.5859"/><rect fill="#FFFFFF" height="30" style="stroke:#181818;stroke-width:1.0;" width="10" x="2392.5" y="1015.0156"/><rect fill="#FFFFFF" height="29.1328" style="stroke:#181818;stroke-width:1.0;" width="10" x="2897.5" y="1210.6797"/><polygon fill="#181818" points="391,108.4297,401,112.4297,391,116.4297,395,112.4297" style="stroke:#181818;stroke-width:1.0;"/><line style="stroke:#181818;stroke-width:1.0;" x1="29" x2="397" y1="112.4297" y2="112.4297"/><text fill="#000000" font-family="sans-serif" font-size="13" font-weight="bold" lengthAdjust="spacing" textLength="9" x="36" y="107.3638">1</text><text fill="#000000" font-family="sans-serif" font-size="13" lengthAdjust="spacing" textLength="342" x="49" y="107.3638">Request to list all green spaces managed by the GSM</text><polygon fill="#181818" points="496.5,137.5625,506.5,141.5625,496.5,145.5625,500.5,141.5625" style="stroke:#181818;stroke-width:1.0;"/><line style="stroke:#181818;stroke-width:1.0;" x1="413" x2="502.5" y1="141.5625" y2="141.5625"/><text fill="#000000" font-family="sans-serif" font-size="13" font-weight="bold" lengthAdjust="spacing" textLength="9" x="420" y="136.4966">2</text><text fill="#000000" font-family="sans-serif" font-size="13" lengthAdjust="spacing" textLength="41" x="433" y="136.4966">create</text><rect fill="#E3E3E3" height="30.2969" rx="2.5" ry="2.5" style="stroke:#181818;stroke-width:0.5;" width="230" x="508.5" y="120.4297"/><text fill="#000000" font-family="sans-serif" font-size="14" lengthAdjust="spacing" textLength="216" x="515.5" y="140.4248">:RegisterGreenSpaceController</text><polygon fill="#181818" points="606.5,178.8594,616.5,182.8594,606.5,186.8594,610.5,182.8594" style="stroke:#181818;stroke-width:1.0;"/><line style="stroke:#181818;stroke-width:1.0;" x1="413" x2="612.5" y1="182.8594" y2="182.8594"/><text fill="#000000" font-family="sans-serif" font-size="13" font-weight="bold" lengthAdjust="spacing" textLength="9" x="420" y="177.7935">3</text><text fill="#000000" font-family="sans-serif" font-size="13" lengthAdjust="spacing" textLength="168" x="433" y="177.7935">getGreenSpacesByEmail()</text><polygon fill="#181818" points="1086.5,207.9922,1096.5,211.9922,1086.5,215.9922,1090.5,211.9922" style="stroke:#181818;stroke-width:1.0;"/><line style="stroke:#181818;stroke-width:1.0;" x1="628.5" x2="1092.5" y1="211.9922" y2="211.9922"/><text fill="#000000" font-family="sans-serif" font-size="13" font-weight="bold" lengthAdjust="spacing" textLength="9" x="635.5" y="206.9263">4</text><text fill="#000000" font-family="sans-serif" font-size="13" lengthAdjust="spacing" textLength="85" x="648.5" y="206.9263">getInstance()</text><polygon fill="#181818" points="639.5,237.125,629.5,241.125,639.5,245.125,635.5,241.125" style="stroke:#181818;stroke-width:1.0;"/><line style="stroke:#181818;stroke-width:1.0;stroke-dasharray:2.0,2.0;" x1="633.5" x2="1102.5" y1="241.125" y2="241.125"/><text fill="#000000" font-family="sans-serif" font-size="13" font-weight="bold" lengthAdjust="spacing" textLength="9" x="645.5" y="236.0591">5</text><text fill="#000000" font-family="sans-serif" font-size="13" lengthAdjust="spacing" textLength="75" x="658.5" y="236.0591">repositories</text><polygon fill="#181818" points="1241,266.2578,1251,270.2578,1241,274.2578,1245,270.2578" style="stroke:#181818;stroke-width:1.0;"/><line style="stroke:#181818;stroke-width:1.0;" x1="628.5" x2="1247" y1="270.2578" y2="270.2578"/><text fill="#000000" font-family="sans-serif" font-size="13" font-weight="bold" lengthAdjust="spacing" textLength="9" x="635.5" y="265.1919">6</text><text fill="#000000" font-family="sans-serif" font-size="13" lengthAdjust="spacing" textLength="112" x="648.5" y="265.1919">getOrganization()</text><polygon fill="#181818" points="639.5,295.3906,629.5,299.3906,639.5,303.3906,635.5,299.3906" style="stroke:#181818;stroke-width:1.0;"/><line style="stroke:#181818;stroke-width:1.0;stroke-dasharray:2.0,2.0;" x1="633.5" x2="1257" y1="299.3906" y2="299.3906"/><text fill="#000000" font-family="sans-serif" font-size="13" font-weight="bold" lengthAdjust="spacing" textLength="9" x="645.5" y="294.3247">7</text><text fill="#000000" font-family="sans-serif" font-size="13" lengthAdjust="spacing" textLength="79" x="658.5" y="294.3247">organization</text><line style="stroke:#181818;stroke-width:1.0;" x1="628.5" x2="675.5" y1="323.5234" y2="323.5234"/><line style="stroke:#181818;stroke-width:1.0;" x1="675.5" x2="675.5" y1="323.5234" y2="336.5234"/><line style="stroke:#181818;stroke-width:1.0;" x1="634.5" x2="675.5" y1="336.5234" y2="336.5234"/><polygon fill="#181818" points="644.5,332.5234,634.5,336.5234,644.5,340.5234,640.5,336.5234" style="stroke:#181818;stroke-width:1.0;"/><text fill="#000000" font-family="sans-serif" font-size="13" font-weight="bold" lengthAdjust="spacing" textLength="9" x="640.5" y="318.4575">8</text><text fill="#000000" font-family="sans-serif" font-size="13" lengthAdjust="spacing" textLength="192" x="653.5" y="318.4575">getCollaboratorFromSession()</text><polygon fill="#181818" points="835.5,366.6563,845.5,370.6563,835.5,374.6563,839.5,370.6563" style="stroke:#181818;stroke-width:1.0;"/><line style="stroke:#181818;stroke-width:1.0;" x1="633.5" x2="841.5" y1="370.6563" y2="370.6563"/><text fill="#000000" font-family="sans-serif" font-size="13" font-weight="bold" lengthAdjust="spacing" textLength="9" x="640.5" y="365.5903">9</text><text fill="#000000" font-family="sans-serif" font-size="13" lengthAdjust="spacing" textLength="129" x="653.5" y="365.5903">getCurrentSession()</text><polygon fill="#181818" points="644.5,395.7891,634.5,399.7891,644.5,403.7891,640.5,399.7891" style="stroke:#181818;stroke-width:1.0;"/><line style="stroke:#181818;stroke-width:1.0;" x1="638.5" x2="851.5" y1="399.7891" y2="399.7891"/><text fill="#000000" font-family="sans-serif" font-size="13" font-weight="bold" lengthAdjust="spacing" textLength="18" x="650.5" y="394.7231">10</text><text fill="#000000" font-family="sans-serif" font-size="13" lengthAdjust="spacing" textLength="78" x="672.5" y="394.7231">userSession</text><polygon fill="#181818" points="973,424.9219,983,428.9219,973,432.9219,977,428.9219" style="stroke:#181818;stroke-width:1.0;"/><line style="stroke:#181818;stroke-width:1.0;" x1="633.5" x2="979" y1="428.9219" y2="428.9219"/><text fill="#000000" font-family="sans-serif" font-size="13" font-weight="bold" lengthAdjust="spacing" textLength="18" x="640.5" y="423.856">11</text><text fill="#000000" font-family="sans-serif" font-size="13" lengthAdjust="spacing" textLength="96" x="662.5" y="423.856">getUserEmail()</text><polygon fill="#181818" points="639.5,454.0547,629.5,458.0547,639.5,462.0547,635.5,458.0547" style="stroke:#181818;stroke-width:1.0;"/><line style="stroke:#181818;stroke-width:1.0;" x1="633.5" x2="989" y1="458.0547" y2="458.0547"/><text fill="#000000" font-family="sans-serif" font-size="13" font-weight="bold" lengthAdjust="spacing" textLength="18" x="645.5" y="452.9888">12</text><text fill="#000000" font-family="sans-serif" font-size="13" lengthAdjust="spacing" textLength="63" x="667.5" y="452.9888">userEmail</text><polygon fill="#181818" points="1440.5,483.1875,1450.5,487.1875,1440.5,491.1875,1444.5,487.1875" style="stroke:#181818;stroke-width:1.0;"/><line style="stroke:#181818;stroke-width:1.0;" x1="628.5" x2="1446.5" y1="487.1875" y2="487.1875"/><text fill="#000000" font-family="sans-serif" font-size="13" font-weight="bold" lengthAdjust="spacing" textLength="18" x="635.5" y="482.1216">13</text><text fill="#000000" font-family="sans-serif" font-size="13" lengthAdjust="spacing" textLength="304" x="657.5" y="482.1216">getGreenSpaceListByManagerEmail(UserEmail)</text><polygon fill="#181818" points="1551,512.3203,1561,516.3203,1551,520.3203,1555,516.3203" style="stroke:#181818;stroke-width:1.0;"/><line style="stroke:#181818;stroke-width:1.0;" x1="1462.5" x2="1557" y1="516.3203" y2="516.3203"/><text fill="#000000" font-family="sans-serif" font-size="13" font-weight="bold" lengthAdjust="spacing" textLength="18" x="1469.5" y="511.2544">14</text><text fill="#000000" font-family="sans-serif" font-size="13" lengthAdjust="spacing" textLength="51" x="1491.5" y="511.2544">create()</text><rect fill="#E3E3E3" height="30.2969" rx="2.5" ry="2.5" style="stroke:#181818;stroke-width:0.5;" width="259" x="1563" y="495.1875"/><text fill="#000000" font-family="sans-serif" font-size="14" lengthAdjust="spacing" textLength="245" x="1570" y="515.1826">greenSpaceList:List&lt;GreenSpace&gt;</text><path d="M1342,543.4844 L1419,543.4844 L1419,550.6172 L1409,560.6172 L1342,560.6172 L1342,543.4844 " fill="#EEEEEE" style="stroke:#000000;stroke-width:1.5;"/><rect fill="none" height="177.1406" style="stroke:#000000;stroke-width:1.5;" width="689" x="1342" y="543.4844"/><text fill="#000000" font-family="sans-serif" font-size="13" font-weight="bold" lengthAdjust="spacing" textLength="32" x="1357" y="556.5513">loop</text><text fill="#000000" font-family="sans-serif" font-size="11" font-weight="bold" lengthAdjust="spacing" textLength="246" x="1434" y="555.6948">[for each greenSpace in greenSpaces]</text><polygon fill="#181818" points="1909.5,577.75,1919.5,581.75,1909.5,585.75,1913.5,581.75" style="stroke:#181818;stroke-width:1.0;"/><line style="stroke:#181818;stroke-width:1.0;" x1="1462.5" x2="1915.5" y1="581.75" y2="581.75"/><text fill="#000000" font-family="sans-serif" font-size="13" font-weight="bold" lengthAdjust="spacing" textLength="18" x="1469.5" y="576.6841">15</text><text fill="#000000" font-family="sans-serif" font-size="13" lengthAdjust="spacing" textLength="159" x="1491.5" y="576.6841">GSMEmail = createdBy()</text><path d="M1352,626.75 L1416,626.75 L1416,633.8828 L1406,643.8828 L1352,643.8828 L1352,626.75 " fill="#EEEEEE" style="stroke:#000000;stroke-width:1.5;"/><rect fill="none" height="86.875" style="stroke:#000000;stroke-width:1.5;" width="495" x="1352" y="626.75"/><text fill="#000000" font-family="sans-serif" font-size="13" font-weight="bold" lengthAdjust="spacing" textLength="19" x="1367" y="639.8169">alt</text><text fill="#000000" font-family="sans-serif" font-size="11" font-weight="bold" lengthAdjust="spacing" textLength="411" x="1431" y="638.9604">[greenSpace was created by the GSM who is currently logged in</text><text fill="#000000" font-family="sans-serif" font-size="11" font-weight="bold" lengthAdjust="spacing" textLength="293" x="1431" y="651.7651">, i.e, whose email is stored in email attribute]</text><polygon fill="#181818" points="1675.5,671.625,1685.5,675.625,1675.5,679.625,1679.5,675.625" style="stroke:#181818;stroke-width:1.0;"/><line style="stroke:#181818;stroke-width:1.0;" x1="1462.5" x2="1681.5" y1="675.625" y2="675.625"/><text fill="#000000" font-family="sans-serif" font-size="13" font-weight="bold" lengthAdjust="spacing" textLength="18" x="1469.5" y="670.5591">16</text><text fill="#000000" font-family="sans-serif" font-size="13" lengthAdjust="spacing" textLength="111" x="1491.5" y="670.5591">add(greenSpace)</text><polygon fill="#181818" points="639.5,744.7578,629.5,748.7578,639.5,752.7578,635.5,748.7578" style="stroke:#181818;stroke-width:1.0;"/><line style="stroke:#181818;stroke-width:1.0;" x1="633.5" x2="1456.5" y1="748.7578" y2="748.7578"/><text fill="#000000" font-family="sans-serif" font-size="13" font-weight="bold" lengthAdjust="spacing" textLength="18" x="645.5" y="743.6919">17</text><text fill="#000000" font-family="sans-serif" font-size="13" lengthAdjust="spacing" textLength="101" x="667.5" y="743.6919">GreenSpaceList</text><polygon fill="#181818" points="2092.5,773.8906,2102.5,777.8906,2092.5,781.8906,2096.5,777.8906" style="stroke:#181818;stroke-width:1.0;"/><line style="stroke:#181818;stroke-width:1.0;" x1="628.5" x2="2098.5" y1="777.8906" y2="777.8906"/><text fill="#000000" font-family="sans-serif" font-size="13" font-weight="bold" lengthAdjust="spacing" textLength="18" x="635.5" y="772.8247">18</text><text fill="#000000" font-family="sans-serif" font-size="13" lengthAdjust="spacing" textLength="327" x="657.5" y="772.8247">greenSpaceListToGreenSpaceDto(GreenSpaceList)</text><polygon fill="#181818" points="2231,803.0234,2241,807.0234,2231,811.0234,2235,807.0234" style="stroke:#181818;stroke-width:1.0;"/><line style="stroke:#181818;stroke-width:1.0;" x1="2114.5" x2="2237" y1="807.0234" y2="807.0234"/><text fill="#000000" font-family="sans-serif" font-size="13" font-weight="bold" lengthAdjust="spacing" textLength="18" x="2121.5" y="801.9575">19</text><text fill="#000000" font-family="sans-serif" font-size="13" lengthAdjust="spacing" textLength="51" x="2143.5" y="801.9575">create()</text><rect fill="#E3E3E3" height="30.2969" rx="2.5" ry="2.5" style="stroke:#181818;stroke-width:0.5;" width="309" x="2243" y="785.8906"/><text fill="#000000" font-family="sans-serif" font-size="14" lengthAdjust="spacing" textLength="295" x="2250" y="805.8857">greenSpaceListDto:List&lt;GreenSpaceDto&gt;</text><path d="M1553,834.1875 L1630,834.1875 L1630,841.3203 L1620,851.3203 L1553,851.3203 L1553,834.1875 " fill="#EEEEEE" style="stroke:#000000;stroke-width:1.5;"/><rect fill="none" height="218.8281" style="stroke:#000000;stroke-width:1.5;" width="1258" x="1553" y="834.1875"/><text fill="#000000" font-family="sans-serif" font-size="13" font-weight="bold" lengthAdjust="spacing" textLength="32" x="1568" y="847.2544">loop</text><text fill="#000000" font-family="sans-serif" font-size="11" font-weight="bold" lengthAdjust="spacing" textLength="263" x="1645" y="846.3979">[for each greenSpace in GreenSpaceList]</text><polygon fill="#181818" points="1708.5,868.4531,1698.5,872.4531,1708.5,876.4531,1704.5,872.4531" style="stroke:#181818;stroke-width:1.0;"/><line style="stroke:#181818;stroke-width:1.0;" x1="1702.5" x2="2103.5" y1="872.4531" y2="872.4531"/><text fill="#000000" font-family="sans-serif" font-size="13" font-weight="bold" lengthAdjust="spacing" textLength="18" x="1714.5" y="867.3872">20</text><text fill="#000000" font-family="sans-serif" font-size="13" lengthAdjust="spacing" textLength="127" x="1736.5" y="867.3872">greenSpace = get()</text><line style="stroke:#181818;stroke-width:1.0;" x1="2114.5" x2="2161.5" y1="926.5859" y2="926.5859"/><line style="stroke:#181818;stroke-width:1.0;" x1="2161.5" x2="2161.5" y1="926.5859" y2="939.5859"/><line style="stroke:#181818;stroke-width:1.0;" x1="2120.5" x2="2161.5" y1="939.5859" y2="939.5859"/><polygon fill="#181818" points="2130.5,935.5859,2120.5,939.5859,2130.5,943.5859,2126.5,939.5859" style="stroke:#181818;stroke-width:1.0;"/><text fill="#000000" font-family="sans-serif" font-size="13" font-weight="bold" lengthAdjust="spacing" textLength="18" x="2126.5" y="921.52">21</text><text fill="#000000" font-family="sans-serif" font-size="13" lengthAdjust="spacing" textLength="242" x="2148.5" y="921.52">greenSpaceDto = toDto(greenSpace)</text><polygon fill="#181818" points="2550,969.7188,2560,973.7188,2550,977.7188,2554,973.7188" style="stroke:#181818;stroke-width:1.0;"/><line style="stroke:#181818;stroke-width:1.0;" x1="2114.5" x2="2556" y1="973.7188" y2="973.7188"/><text fill="#000000" font-family="sans-serif" font-size="13" font-weight="bold" lengthAdjust="spacing" textLength="18" x="2121.5" y="968.6528">22</text><text fill="#000000" font-family="sans-serif" font-size="13" lengthAdjust="spacing" textLength="199" x="2143.5" y="968.6528">create(greenSpace All Getters)</text><rect fill="#E3E3E3" height="30.2969" rx="2.5" ry="2.5" style="stroke:#181818;stroke-width:0.5;" width="239" x="2562" y="952.5859"/><text fill="#000000" font-family="sans-serif" font-size="14" lengthAdjust="spacing" textLength="225" x="2569" y="972.5811">greenSpaceDto:GreenSpaceDto</text><polygon fill="#181818" points="2380.5,1011.0156,2390.5,1015.0156,2380.5,1019.0156,2384.5,1015.0156" style="stroke:#181818;stroke-width:1.0;"/><line style="stroke:#181818;stroke-width:1.0;" x1="2114.5" x2="2386.5" y1="1015.0156" y2="1015.0156"/><text fill="#000000" font-family="sans-serif" font-size="13" font-weight="bold" lengthAdjust="spacing" textLength="18" x="2121.5" y="1009.9497">23</text><text fill="#000000" font-family="sans-serif" font-size="13" lengthAdjust="spacing" textLength="134" x="2143.5" y="1009.9497">add(greenSpaceDto)</text><polygon fill="#181818" points="639.5,1077.1484,629.5,1081.1484,639.5,1085.1484,635.5,1081.1484" style="stroke:#181818;stroke-width:1.0;"/><line style="stroke:#181818;stroke-width:1.0;" x1="633.5" x2="2108.5" y1="1081.1484" y2="1081.1484"/><text fill="#000000" font-family="sans-serif" font-size="13" font-weight="bold" lengthAdjust="spacing" textLength="18" x="645.5" y="1076.0825">24</text><text fill="#000000" font-family="sans-serif" font-size="13" lengthAdjust="spacing" textLength="122" x="667.5" y="1076.0825">greenSpaceListDto</text><line style="stroke:#181818;stroke-width:1.0;" x1="628.5" x2="675.5" y1="1105.2813" y2="1105.2813"/><line style="stroke:#181818;stroke-width:1.0;" x1="675.5" x2="675.5" y1="1105.2813" y2="1118.2813"/><line style="stroke:#181818;stroke-width:1.0;" x1="634.5" x2="675.5" y1="1118.2813" y2="1118.2813"/><polygon fill="#181818" points="644.5,1114.2813,634.5,1118.2813,644.5,1122.2813,640.5,1118.2813" style="stroke:#181818;stroke-width:1.0;"/><text fill="#000000" font-family="sans-serif" font-size="13" font-weight="bold" lengthAdjust="spacing" textLength="18" x="640.5" y="1100.2153">25</text><text fill="#000000" font-family="sans-serif" font-size="13" lengthAdjust="spacing" textLength="120" x="662.5" y="1100.2153">getSortAlgorithm()</text><polygon fill="#181818" points="835.5,1148.4141,845.5,1152.4141,835.5,1156.4141,839.5,1152.4141" style="stroke:#181818;stroke-width:1.0;"/><line style="stroke:#181818;stroke-width:1.0;" x1="633.5" x2="841.5" y1="1152.4141" y2="1152.4141"/><text fill="#000000" font-family="sans-serif" font-size="13" font-weight="bold" lengthAdjust="spacing" textLength="18" x="640.5" y="1147.3481">26</text><text fill="#000000" font-family="sans-serif" font-size="13" lengthAdjust="spacing" textLength="140" x="662.5" y="1147.3481">getAlgorithmService()</text><polygon fill="#181818" points="639.5,1177.5469,629.5,1181.5469,639.5,1185.5469,635.5,1181.5469" style="stroke:#181818;stroke-width:1.0;"/><line style="stroke:#181818;stroke-width:1.0;" x1="633.5" x2="851.5" y1="1181.5469" y2="1181.5469"/><text fill="#000000" font-family="sans-serif" font-size="13" font-weight="bold" lengthAdjust="spacing" textLength="18" x="645.5" y="1176.481">27</text><text fill="#000000" font-family="sans-serif" font-size="13" lengthAdjust="spacing" textLength="87" x="667.5" y="1176.481">sortAlgorithm</text><polygon fill="#181818" points="2885.5,1206.6797,2895.5,1210.6797,2885.5,1214.6797,2889.5,1210.6797" style="stroke:#181818;stroke-width:1.0;"/><line style="stroke:#181818;stroke-width:1.0;" x1="628.5" x2="2891.5" y1="1210.6797" y2="1210.6797"/><text fill="#000000" font-family="sans-serif" font-size="13" font-weight="bold" lengthAdjust="spacing" textLength="18" x="635.5" y="1205.6138">28</text><text fill="#000000" font-family="sans-serif" font-size="13" lengthAdjust="spacing" textLength="198" x="657.5" y="1205.6138">sortingList(greenSpaceListDto)</text><polygon fill="#181818" points="639.5,1235.8125,629.5,1239.8125,639.5,1243.8125,635.5,1239.8125" style="stroke:#181818;stroke-width:1.0;"/><line style="stroke:#181818;stroke-width:1.0;" x1="633.5" x2="2901.5" y1="1239.8125" y2="1239.8125"/><text fill="#000000" font-family="sans-serif" font-size="13" font-weight="bold" lengthAdjust="spacing" textLength="18" x="645.5" y="1234.7466">29</text><text fill="#000000" font-family="sans-serif" font-size="13" lengthAdjust="spacing" textLength="63" x="667.5" y="1234.7466">sortedList</text><polygon fill="#181818" points="424,1264.9453,414,1268.9453,424,1272.9453,420,1268.9453" style="stroke:#181818;stroke-width:1.0;"/><line style="stroke:#181818;stroke-width:1.0;" x1="418" x2="622.5" y1="1268.9453" y2="1268.9453"/><text fill="#000000" font-family="sans-serif" font-size="13" font-weight="bold" lengthAdjust="spacing" textLength="18" x="430" y="1263.8794">30</text><text fill="#000000" font-family="sans-serif" font-size="13" lengthAdjust="spacing" textLength="63" x="452" y="1263.8794">sortedList</text><polygon fill="#181818" points="40,1294.0781,30,1298.0781,40,1302.0781,36,1298.0781" style="stroke:#181818;stroke-width:1.0;"/><line style="stroke:#181818;stroke-width:1.0;" x1="34" x2="407" y1="1298.0781" y2="1298.0781"/><text fill="#000000" font-family="sans-serif" font-size="13" font-weight="bold" lengthAdjust="spacing" textLength="18" x="46" y="1293.0122">31</text><text fill="#000000" font-family="sans-serif" font-size="13" lengthAdjust="spacing" textLength="312" x="68" y="1293.0122">Shows Sorted List of the Managed Green Spaces</text><!--SRC=[bLRRRjim37ttLn1zIejk7s1i1TfkAm8i650lRtjHRDKHwaYU93V8ldwKhDYKR6ThW2Iwa8SN7L8ohqAsJBC379HKvLwh0mUhEvwPOQTbvIkhUM5F3GVDIyjatL01isULEWfPmmjh3CyorbabkyEEQnoNLccuUYesLy0CF6dEPO6GVCCaeg84WbXHYfP92rTvlpoAcUtQAsxNYU0phuMnN8-YZqfQhPg6QwynJXFD-xPjHCciKBBWnk2Vbm_ZH7XhkAPIP9ublZ_pLXc1uGfklAnVY6KqaSad2dwtruhLbAwP57-yp_aFCl5gk12BrqDElcEESlVpQSpJNN8IRdj9Fn_54gqaJ_HWspOSGJ-yvDiNgrBtS6dEGrnU0d8WaNwYFb4rIjlxfiR4s_qXBt26x7L6UYBGNSzWySOid-FkP0a-t25L8SUp_zrnOy4gQ10OMDE0znYCfpKSl485knFOFO8Ncz4IaZr35CGQINnpWwYbvhYVJNTpgBabLVDm-dfWebbTZw2a7h9nx60yupp2MXeixv9JlS17_mSV4gkKprd5KwNOpaXlRupoc1gaLJ2E9wPfJL3JL3ssJsRUWKSSivtI3Ft_XgqlrFN_9Iq8zq2TrbpQ6VsXLOH1UceTQISaXa4jjacQZxVhvfDpZZeKcKmoq9srgUNjl4FBUS1JJCZd2kdX50gYTszmbFZfkbQ6FmuaLYPKny2oHgaMNl0MGNVsC9Oz24bc9WFyJF0G2KlBsuRF0RHwE26k4v-fRRzE8YTG-Ecr6alTE6BF2C2ack6uLo1mf-T6Su96rQxWXVmbRq5yvBTEn73WtZaKDSX3Bn2McBLQx3hR-pGRdaiNXiYgQZLwT3t8pqJXk_rvVpREGOBBAdFVyobHuYRY1CYVQyoH_Xx88UxzFrNKebSn965Ak4Qo_d-Q05H-1sLc0bq21keoqWTflaoS0UroKaTRqwnW86Z5AfUDz3WdsLXoFCa62U0Uxw0dRl7HPAvJJmFgfMmuxrAguTh5XBYhzs9Ed83ds6WrkjKcmbEV_zNce_lyNSszrnzq2wxVH7mvdblbKeyryLjYfiKlDDdKeUZ5uc73asKrIH5rBpOVJTDKEqnUfTMS82JtqNf9ZORIlrKcJwKSYhqwziyjx7g-tjIBRv-Ry3RoEX3QExsarjbV]--></g></svg>