<?xml version="1.0" encoding="us-ascii" standalone="no"?><svg xmlns="http://www.w3.org/2000/svg" xmlns:xlink="http://www.w3.org/1999/xlink" contentStyleType="text/css" height="588px" preserveAspectRatio="none" style="width:1549px;height:588px;background:#FFFFFF;" version="1.1" viewBox="0 0 1549 588" width="1549px" zoomAndPan="magnify"><defs/><g><rect fill="#FFFFFF" height="488.9609" style="stroke:#181818;stroke-width:1.0;" width="10" x="115" y="46.2969"/><rect fill="#FFFFFF" height="407.5625" style="stroke:#181818;stroke-width:1.0;" width="10" x="404" y="91.5625"/><rect fill="#FFFFFF" height="29.1328" style="stroke:#181818;stroke-width:1.0;" width="10" x="409" y="208.9609"/><rect fill="#FFFFFF" height="349.2969" style="stroke:#181818;stroke-width:1.0;" width="10" x="734" y="120.6953"/><rect fill="#FFFFFF" height="30" style="stroke:#181818;stroke-width:1.0;" width="10" x="965" y="149.8281"/><rect fill="#FFFFFF" height="173.6328" style="stroke:#181818;stroke-width:1.0;" width="10" x="1089" y="267.2266"/><rect fill="#FFFFFF" height="73.2344" style="stroke:#181818;stroke-width:1.0;" width="10" x="1370" y="338.4922"/><rect fill="none" height="453.8281" style="stroke:#000000;stroke-width:1.5;" width="1533.5" x="10" y="53.2969"/><line style="stroke:#181818;stroke-width:0.5;stroke-dasharray:5.0,5.0;" x1="120" x2="120" y1="36.2969" y2="553.2578"/><line style="stroke:#181818;stroke-width:0.5;stroke-dasharray:5.0,5.0;" x1="408.5" x2="408.5" y1="36.2969" y2="553.2578"/><line style="stroke:#181818;stroke-width:0.5;stroke-dasharray:5.0,5.0;" x1="739" x2="739" y1="36.2969" y2="553.2578"/><line style="stroke:#181818;stroke-width:0.5;stroke-dasharray:5.0,5.0;" x1="969.5" x2="969.5" y1="36.2969" y2="553.2578"/><line style="stroke:#181818;stroke-width:0.5;stroke-dasharray:5.0,5.0;" x1="1093.5" x2="1093.5" y1="36.2969" y2="553.2578"/><line style="stroke:#181818;stroke-width:0.5;stroke-dasharray:5.0,5.0;" x1="1374.5" x2="1374.5" y1="36.2969" y2="553.2578"/><rect fill="#E3E3E3" height="30.2969" rx="2.5" ry="2.5" style="stroke:#181818;stroke-width:0.5;" width="200" x="20" y="5"/><text fill="#000000" font-family="sans-serif" font-size="14" lengthAdjust="spacing" textLength="186" x="27" y="24.9951">:ViewDetailsEntryController</text><rect fill="#E3E3E3" height="30.2969" rx="2.5" ry="2.5" style="stroke:#181818;stroke-width:0.5;" width="200" x="20" y="552.2578"/><text fill="#000000" font-family="sans-serif" font-size="14" lengthAdjust="spacing" textLength="186" x="27" y="572.2529">:ViewDetailsEntryController</text><rect fill="#E3E3E3" height="30.2969" rx="2.5" ry="2.5" style="stroke:#181818;stroke-width:0.5;" width="237" x="290.5" y="5"/><text fill="#000000" font-family="sans-serif" font-size="14" lengthAdjust="spacing" textLength="223" x="297.5" y="24.9951">entryRepository:EntryRepository</text><rect fill="#E3E3E3" height="30.2969" rx="2.5" ry="2.5" style="stroke:#181818;stroke-width:0.5;" width="237" x="290.5" y="552.2578"/><text fill="#000000" font-family="sans-serif" font-size="14" lengthAdjust="spacing" textLength="223" x="297.5" y="572.2529">entryRepository:EntryRepository</text><rect fill="#E3E3E3" height="30.2969" rx="2.5" ry="2.5" style="stroke:#181818;stroke-width:0.5;" width="106" x="686" y="5"/><text fill="#000000" font-family="sans-serif" font-size="14" lengthAdjust="spacing" textLength="92" x="693" y="24.9951">:EntryMapper</text><rect fill="#E3E3E3" height="30.2969" rx="2.5" ry="2.5" style="stroke:#181818;stroke-width:0.5;" width="106" x="686" y="552.2578"/><text fill="#000000" font-family="sans-serif" font-size="14" lengthAdjust="spacing" textLength="92" x="693" y="572.2529">:EntryMapper</text><rect fill="#E3E3E3" height="30.2969" rx="2.5" ry="2.5" style="stroke:#181818;stroke-width:0.5;" width="139" x="900.5" y="5"/><text fill="#000000" font-family="sans-serif" font-size="14" lengthAdjust="spacing" textLength="125" x="907.5" y="24.9951">entryDto:EntryDto</text><rect fill="#E3E3E3" height="30.2969" rx="2.5" ry="2.5" style="stroke:#181818;stroke-width:0.5;" width="139" x="900.5" y="552.2578"/><text fill="#000000" font-family="sans-serif" font-size="14" lengthAdjust="spacing" textLength="125" x="907.5" y="572.2529">entryDto:EntryDto</text><rect fill="#E3E3E3" height="30.2969" rx="2.5" ry="2.5" style="stroke:#181818;stroke-width:0.5;" width="89" x="1049.5" y="5"/><text fill="#000000" font-family="sans-serif" font-size="14" lengthAdjust="spacing" textLength="75" x="1056.5" y="24.9951">entry:Entry</text><rect fill="#E3E3E3" height="30.2969" rx="2.5" ry="2.5" style="stroke:#181818;stroke-width:0.5;" width="89" x="1049.5" y="552.2578"/><text fill="#000000" font-family="sans-serif" font-size="14" lengthAdjust="spacing" textLength="75" x="1056.5" y="572.2529">entry:Entry</text><rect fill="#E3E3E3" height="30.2969" rx="2.5" ry="2.5" style="stroke:#181818;stroke-width:0.5;" width="93" x="1328.5" y="5"/><text fill="#000000" font-family="sans-serif" font-size="14" lengthAdjust="spacing" textLength="79" x="1335.5" y="24.9951">team:Team</text><rect fill="#E3E3E3" height="30.2969" rx="2.5" ry="2.5" style="stroke:#181818;stroke-width:0.5;" width="93" x="1328.5" y="552.2578"/><text fill="#000000" font-family="sans-serif" font-size="14" lengthAdjust="spacing" textLength="79" x="1335.5" y="572.2529">team:Team</text><rect fill="#FFFFFF" height="488.9609" style="stroke:#181818;stroke-width:1.0;" width="10" x="115" y="46.2969"/><rect fill="#FFFFFF" height="407.5625" style="stroke:#181818;stroke-width:1.0;" width="10" x="404" y="91.5625"/><rect fill="#FFFFFF" height="29.1328" style="stroke:#181818;stroke-width:1.0;" width="10" x="409" y="208.9609"/><rect fill="#FFFFFF" height="349.2969" style="stroke:#181818;stroke-width:1.0;" width="10" x="734" y="120.6953"/><rect fill="#FFFFFF" height="30" style="stroke:#181818;stroke-width:1.0;" width="10" x="965" y="149.8281"/><rect fill="#FFFFFF" height="173.6328" style="stroke:#181818;stroke-width:1.0;" width="10" x="1089" y="267.2266"/><rect fill="#FFFFFF" height="73.2344" style="stroke:#181818;stroke-width:1.0;" width="10" x="1370" y="338.4922"/><path d="M10,53.2969 L503,53.2969 L503,60.4297 L493,70.4297 L10,70.4297 L10,53.2969 " fill="#EEEEEE" style="stroke:#000000;stroke-width:1.5;"/><rect fill="none" height="453.8281" style="stroke:#000000;stroke-width:1.5;" width="1533.5" x="10" y="53.2969"/><text fill="#000000" font-family="sans-serif" font-size="13" font-weight="bold" lengthAdjust="spacing" textLength="448" x="25" y="66.3638">Assign Team to An Entry and Send Emails to Team Members</text><polygon fill="#181818" points="392,87.5625,402,91.5625,392,95.5625,396,91.5625" style="stroke:#181818;stroke-width:1.0;"/><line style="stroke:#181818;stroke-width:1.0;" x1="125" x2="398" y1="91.5625" y2="91.5625"/><text fill="#000000" font-family="sans-serif" font-size="13" font-weight="bold" lengthAdjust="spacing" textLength="23" x="132" y="86.4966">4.1</text><text fill="#000000" font-family="sans-serif" font-size="13" lengthAdjust="spacing" textLength="233" x="159" y="86.4966">assignTeamToEntry(team, entryDto)</text><polygon fill="#181818" points="722,116.6953,732,120.6953,722,124.6953,726,120.6953" style="stroke:#181818;stroke-width:1.0;"/><line style="stroke:#181818;stroke-width:1.0;" x1="414" x2="728" y1="120.6953" y2="120.6953"/><text fill="#000000" font-family="sans-serif" font-size="13" font-weight="bold" lengthAdjust="spacing" textLength="23" x="421" y="115.6294">4.2</text><text fill="#000000" font-family="sans-serif" font-size="13" lengthAdjust="spacing" textLength="274" x="448" y="115.6294">toDomainAndAssignTeam(team, entryDto)</text><polygon fill="#181818" points="953,145.8281,963,149.8281,953,153.8281,957,149.8281" style="stroke:#181818;stroke-width:1.0;"/><line style="stroke:#181818;stroke-width:1.0;" x1="744" x2="959" y1="149.8281" y2="149.8281"/><text fill="#000000" font-family="sans-serif" font-size="13" font-weight="bold" lengthAdjust="spacing" textLength="23" x="751" y="144.7622">4.3</text><text fill="#000000" font-family="sans-serif" font-size="13" lengthAdjust="spacing" textLength="175" x="778" y="144.7622">reference = getReference()</text><polygon fill="#181818" points="430,204.9609,420,208.9609,430,212.9609,426,208.9609" style="stroke:#181818;stroke-width:1.0;"/><line style="stroke:#181818;stroke-width:1.0;" x1="424" x2="733" y1="208.9609" y2="208.9609"/><text fill="#000000" font-family="sans-serif" font-size="13" font-weight="bold" lengthAdjust="spacing" textLength="23" x="436" y="203.895">4.4</text><text fill="#000000" font-family="sans-serif" font-size="13" lengthAdjust="spacing" textLength="207" x="463" y="203.895">findEntryByReference(reference)</text><polygon fill="#181818" points="722,234.0938,732,238.0938,722,242.0938,726,238.0938" style="stroke:#181818;stroke-width:1.0;"/><line style="stroke:#181818;stroke-width:1.0;" x1="414" x2="728" y1="238.0938" y2="238.0938"/><text fill="#000000" font-family="sans-serif" font-size="13" font-weight="bold" lengthAdjust="spacing" textLength="23" x="421" y="233.0278">4.5</text><text fill="#000000" font-family="sans-serif" font-size="13" lengthAdjust="spacing" textLength="33" x="448" y="233.0278">entry</text><polygon fill="#181818" points="1077,263.2266,1087,267.2266,1077,271.2266,1081,267.2266" style="stroke:#181818;stroke-width:1.0;"/><line style="stroke:#181818;stroke-width:1.0;" x1="744" x2="1083" y1="267.2266" y2="267.2266"/><text fill="#000000" font-family="sans-serif" font-size="13" font-weight="bold" lengthAdjust="spacing" textLength="23" x="751" y="262.1606">4.6</text><text fill="#000000" font-family="sans-serif" font-size="13" lengthAdjust="spacing" textLength="121" x="778" y="262.1606">assignTeam(team)</text><line style="stroke:#181818;stroke-width:1.0;" x1="1099" x2="1141" y1="296.3594" y2="296.3594"/><line style="stroke:#181818;stroke-width:1.0;" x1="1141" x2="1141" y1="296.3594" y2="309.3594"/><line style="stroke:#181818;stroke-width:1.0;" x1="1100" x2="1141" y1="309.3594" y2="309.3594"/><polygon fill="#181818" points="1110,305.3594,1100,309.3594,1110,313.3594,1106,309.3594" style="stroke:#181818;stroke-width:1.0;"/><text fill="#000000" font-family="sans-serif" font-size="13" font-weight="bold" lengthAdjust="spacing" textLength="23" x="1106" y="291.2935">4.7</text><text fill="#000000" font-family="sans-serif" font-size="13" lengthAdjust="spacing" textLength="158" x="1133" y="291.2935">setTeamAssigned(team)</text><polygon fill="#181818" points="1358,334.4922,1368,338.4922,1358,342.4922,1362,338.4922" style="stroke:#181818;stroke-width:1.0;"/><line style="stroke:#181818;stroke-width:1.0;" x1="1099" x2="1364" y1="338.4922" y2="338.4922"/><text fill="#000000" font-family="sans-serif" font-size="13" font-weight="bold" lengthAdjust="spacing" textLength="23" x="1106" y="333.4263">4.8</text><text fill="#000000" font-family="sans-serif" font-size="13" lengthAdjust="spacing" textLength="225" x="1133" y="333.4263">sendToEmailFile(subject, message)</text><rect fill="none" height="39.1016" style="stroke:#000000;stroke-width:1.5;" width="211" x="1325.5" y="346.4922"/><path d="M1325.5,346.4922 L1391.5,346.4922 L1391.5,353.4922 L1381.5,363.4922 L1325.5,363.4922 L1325.5,346.4922 " fill="#EEEEEE" style="stroke:#000000;stroke-width:2.0;"/><text fill="#000000" font-family="sans-serif" font-size="13" font-weight="bold" lengthAdjust="spacing" textLength="21" x="1338.5" y="360.5591">ref</text><text fill="#000000" font-family="sans-serif" font-size="12" lengthAdjust="spacing" textLength="203" x="1329.5" y="378.6309">Send Email to All Team Members</text><polygon fill="#181818" points="1110,407.7266,1100,411.7266,1110,415.7266,1106,411.7266" style="stroke:#181818;stroke-width:1.0;"/><line style="stroke:#181818;stroke-width:1.0;" x1="1104" x2="1374" y1="411.7266" y2="411.7266"/><text fill="#000000" font-family="sans-serif" font-size="13" font-weight="bold" lengthAdjust="spacing" textLength="23" x="1116" y="406.6606">4.9</text><text fill="#000000" font-family="sans-serif" font-size="13" lengthAdjust="spacing" textLength="26" x="1143" y="406.6606">true</text><polygon fill="#181818" points="755,436.8594,745,440.8594,755,444.8594,751,440.8594" style="stroke:#181818;stroke-width:1.0;"/><line style="stroke:#181818;stroke-width:1.0;stroke-dasharray:2.0,2.0;" x1="749" x2="1093" y1="440.8594" y2="440.8594"/><text fill="#000000" font-family="sans-serif" font-size="13" font-weight="bold" lengthAdjust="spacing" textLength="32" x="761" y="435.7935">4.10</text><text fill="#000000" font-family="sans-serif" font-size="13" lengthAdjust="spacing" textLength="26" x="797" y="435.7935">true</text><polygon fill="#181818" points="425,465.9922,415,469.9922,425,473.9922,421,469.9922" style="stroke:#181818;stroke-width:1.0;"/><line style="stroke:#181818;stroke-width:1.0;stroke-dasharray:2.0,2.0;" x1="419" x2="738" y1="469.9922" y2="469.9922"/><text fill="#000000" font-family="sans-serif" font-size="13" font-weight="bold" lengthAdjust="spacing" textLength="32" x="431" y="464.9263">4.11</text><text fill="#000000" font-family="sans-serif" font-size="13" lengthAdjust="spacing" textLength="26" x="467" y="464.9263">true</text><polygon fill="#181818" points="136,495.125,126,499.125,136,503.125,132,499.125" style="stroke:#181818;stroke-width:1.0;"/><line style="stroke:#181818;stroke-width:1.0;stroke-dasharray:2.0,2.0;" x1="130" x2="408" y1="499.125" y2="499.125"/><text fill="#000000" font-family="sans-serif" font-size="13" font-weight="bold" lengthAdjust="spacing" textLength="32" x="142" y="494.0591">4.12</text><text fill="#000000" font-family="sans-serif" font-size="13" lengthAdjust="spacing" textLength="26" x="178" y="494.0591">true</text><polygon fill="#181818" points="11,531.2578,1,535.2578,11,539.2578,7,535.2578" style="stroke:#181818;stroke-width:1.0;"/><line style="stroke:#181818;stroke-width:1.0;" x1="5" x2="119" y1="535.2578" y2="535.2578"/><text fill="#000000" font-family="sans-serif" font-size="13" font-weight="bold" lengthAdjust="spacing" textLength="9" x="17" y="530.1919">5</text><text fill="#000000" font-family="sans-serif" font-size="13" lengthAdjust="spacing" textLength="26" x="30" y="530.1919">true</text><!--SRC=[nLR1Rjim3BthAuXScW1fYmtR9TW6P4tMoxf3KnJOKR6PHAij6PAI8dy_IfPjsLQAOfVbu5ZKuoFvH4asBq9MNFCIIYLLTj2gHB3wYCoqCnNFNlWUD_PS86ZCB9Vx8WQO0y_Lgv1xsF7286DajY8J5PSM9ejdWQyhj5mKPYsjFjyfUggYG3q1Rk3kwV7dHpPmGWTyn4ePOPK-BzRziNTiRKFd6lt0gog4YCQ9C2khQWzwwU0qOCciQcm7760iydBnH0-FS2_4mezMoMEvHGsVRZumdbbnuXP3xNkjZXKiZH5xwJt0AbZAcXwup663z5YNJa8tvp4FwFWC0_fv7hZ-rca22mhl21tsINdxrEKsXwRe6VE-RJAHdixUKJMyjOB4RDLAKJ9oAVDb6-Gzx64DElv0sKGWFwBNk4EDCaFu2dkqZyrmEajGkdLorXp7zejnWa8x8NC__dxkWhJHP_yg3zPjaSegjEkbl7ghvWLD9H7vnvu6hNEhLmJpuDx7-ivnK9bJKxY6-Y4Ad9hZzWzjx3cKQ0pjzK7KqCNEHkg0Eb7AtkOiNM_wjYsASNiw13dwzzihA9IgOASqa3W7oEWeu5kbEMri4B8tDcqKz_EyLCHTxB5mBUB3X_RePHv3MJlT8-XKGSVIWgAbIxCqwVZW6zGdaU5OMaywXxJ2_RMDUDhPsEY2BQkg41ctGiaDCT5Vf430fOGO-x6kaWJfzQ2mHfvXVf5AgH1j7eNj-OCmS9_YIzLyty_3ALmlUD1sKhTyIViEVYahTY6B2KtzLaSuy1F25b66pOMvwrGkwutgUiuU46XHPCvl9hDUBcrr5xED54XYaAx4KUqh5EltbZ_0_ZS5tiev4c48wuIGUQfjnk06U7NBUliid7F-ysH0uZ6iTzYDRws4t_0yRSxZmKLnqRMvq8PNWZkb_9tyXc-u2roryGV2PyQ-NDVUmJa-YSB7qby0]--></g></svg>