<?xml version="1.0" encoding="us-ascii" standalone="no"?><svg xmlns="http://www.w3.org/2000/svg" xmlns:xlink="http://www.w3.org/1999/xlink" contentStyleType="text/css" height="1064px" preserveAspectRatio="none" style="width:2707px;height:1064px;background:#FFFFFF;" version="1.1" viewBox="0 0 2707 1064" width="2707px" zoomAndPan="magnify"><defs/><g><!--cluster UI--><g id="cluster_UI"><path d="M8.5,569.62 L24.5,569.62 A3.75,3.75 0 0 1 27,572.12 L34,591.9169 L229.5,591.9169 A2.5,2.5 0 0 1 232,594.4169 L232,666.12 A2.5,2.5 0 0 1 229.5,668.62 L8.5,668.62 A2.5,2.5 0 0 1 6,666.12 L6,572.12 A2.5,2.5 0 0 1 8.5,569.62 " fill="#F0F0F0" style="stroke:#000000;stroke-width:1.5;"/><line style="stroke:#000000;stroke-width:1.5;" x1="6" x2="34" y1="591.9169" y2="591.9169"/><text fill="#000000" font-family="sans-serif" font-size="14" font-weight="bold" lengthAdjust="spacing" textLength="15" x="10" y="584.6151">UI</text></g><!--cluster Core--><g id="cluster_Core"><path d="M267.5,36.62 L306.5,36.62 A3.75,3.75 0 0 1 309,39.12 L316,58.9169 L2697.5,58.9169 A2.5,2.5 0 0 1 2700,61.4169 L2700,988.12 A2.5,2.5 0 0 1 2697.5,990.62 L267.5,990.62 A2.5,2.5 0 0 1 265,988.12 L265,39.12 A2.5,2.5 0 0 1 267.5,36.62 " fill="#F0F0F0" style="stroke:#000000;stroke-width:1.5;"/><line style="stroke:#000000;stroke-width:1.5;" x1="265" x2="316" y1="58.9169" y2="58.9169"/><text fill="#000000" font-family="sans-serif" font-size="14" font-weight="bold" lengthAdjust="spacing" textLength="38" x="269" y="51.6151">Core</text></g><!--cluster Controller--><g id="cluster_Controller"><path d="M291.5,545.62 L371.5,545.62 A3.75,3.75 0 0 1 374,548.12 L381,567.9169 L689.5,567.9169 A2.5,2.5 0 0 1 692,570.4169 L692,690.12 A2.5,2.5 0 0 1 689.5,692.62 L291.5,692.62 A2.5,2.5 0 0 1 289,690.12 L289,548.12 A2.5,2.5 0 0 1 291.5,545.62 " fill="#DDDDDD" style="stroke:#000000;stroke-width:1.5;"/><line style="stroke:#000000;stroke-width:1.5;" x1="289" x2="381" y1="567.9169" y2="567.9169"/><text fill="#000000" font-family="sans-serif" font-size="14" font-weight="bold" lengthAdjust="spacing" textLength="79" x="293" y="560.6151">Controller</text></g><!--cluster Session--><g id="cluster_Session"><path d="M856.5,805.62 L919.5,805.62 A3.75,3.75 0 0 1 922,808.12 L929,827.9169 L1677,827.9169 A2.5,2.5 0 0 1 1679.5,830.4169 L1679.5,950.12 A2.5,2.5 0 0 1 1677,952.62 L856.5,952.62 A2.5,2.5 0 0 1 854,950.12 L854,808.12 A2.5,2.5 0 0 1 856.5,805.62 " fill="#DDDDDD" style="stroke:#000000;stroke-width:1.5;"/><line style="stroke:#000000;stroke-width:1.5;" x1="854" x2="929" y1="827.9169" y2="827.9169"/><text fill="#000000" font-family="sans-serif" font-size="14" font-weight="bold" lengthAdjust="spacing" textLength="62" x="858" y="820.6151">Session</text></g><!--cluster SortingAlgorithmsServ--><g id="cluster_SortingAlgorithmsServ"><path d="M1334,567.62 L1513,567.62 A3.75,3.75 0 0 1 1515.5,570.12 L1522.5,589.9169 L2465.5,589.9169 A2.5,2.5 0 0 1 2468,592.4169 L2468,779.12 A2.5,2.5 0 0 1 2465.5,781.62 L1334,781.62 A2.5,2.5 0 0 1 1331.5,779.12 L1331.5,570.12 A2.5,2.5 0 0 1 1334,567.62 " fill="#DDDDDD" style="stroke:#000000;stroke-width:1.5;"/><line style="stroke:#000000;stroke-width:1.5;" x1="1331.5" x2="1522.5" y1="589.9169" y2="589.9169"/><text fill="#000000" font-family="sans-serif" font-size="14" font-weight="bold" lengthAdjust="spacing" textLength="178" x="1335.5" y="582.6151">SortingAlgorithmsServ</text></g><!--cluster Mapper--><g id="cluster_Mapper"><path d="M1208.5,397.62 L1268.5,397.62 A3.75,3.75 0 0 1 1271,400.12 L1278,419.9169 L1944.5,419.9169 A2.5,2.5 0 0 1 1947,422.4169 L1947,528.12 A2.5,2.5 0 0 1 1944.5,530.62 L1208.5,530.62 A2.5,2.5 0 0 1 1206,528.12 L1206,400.12 A2.5,2.5 0 0 1 1208.5,397.62 " fill="#DDDDDD" style="stroke:#000000;stroke-width:1.5;"/><line style="stroke:#000000;stroke-width:1.5;" x1="1206" x2="1278" y1="419.9169" y2="419.9169"/><text fill="#000000" font-family="sans-serif" font-size="14" font-weight="bold" lengthAdjust="spacing" textLength="59" x="1210" y="412.6151">Mapper</text></g><!--cluster DTO--><g id="cluster_DTO"><path d="M2503.5,542.62 L2537.5,542.62 A3.75,3.75 0 0 1 2540,545.12 L2547,564.9169 L2673.5,564.9169 A2.5,2.5 0 0 1 2676,567.4169 L2676,705.12 A2.5,2.5 0 0 1 2673.5,707.62 L2503.5,707.62 A2.5,2.5 0 0 1 2501,705.12 L2501,545.12 A2.5,2.5 0 0 1 2503.5,542.62 " fill="#DDDDDD" style="stroke:#000000;stroke-width:1.5;"/><line style="stroke:#000000;stroke-width:1.5;" x1="2501" x2="2547" y1="564.9169" y2="564.9169"/><text fill="#000000" font-family="sans-serif" font-size="14" font-weight="bold" lengthAdjust="spacing" textLength="33" x="2505" y="557.6151">DTO</text></g><!--cluster Domain--><g id="cluster_Domain"><path d="M803.5,80.62 L862.5,80.62 A3.75,3.75 0 0 1 865,83.12 L872,102.9169 L2332,102.9169 A2.5,2.5 0 0 1 2334.5,105.4169 L2334.5,371.12 A2.5,2.5 0 0 1 2332,373.62 L803.5,373.62 A2.5,2.5 0 0 1 801,371.12 L801,83.12 A2.5,2.5 0 0 1 803.5,80.62 " fill="#DDDDDD" style="stroke:#000000;stroke-width:1.5;"/><line style="stroke:#000000;stroke-width:1.5;" x1="801" x2="872" y1="102.9169" y2="102.9169"/><text fill="#000000" font-family="sans-serif" font-size="14" font-weight="bold" lengthAdjust="spacing" textLength="58" x="805" y="95.6151">Domain</text></g><!--cluster Repository--><g id="cluster_Repository"><path d="M827.5,123.62 L913.5,123.62 A3.75,3.75 0 0 1 916,126.12 L923,145.9169 L1843,145.9169 A2.5,2.5 0 0 1 1845.5,148.4169 L1845.5,347.12 A2.5,2.5 0 0 1 1843,349.62 L827.5,349.62 A2.5,2.5 0 0 1 825,347.12 L825,126.12 A2.5,2.5 0 0 1 827.5,123.62 " fill="#BBBBBB" style="stroke:#000000;stroke-width:1.5;"/><line style="stroke:#000000;stroke-width:1.5;" x1="825" x2="923" y1="145.9169" y2="145.9169"/><text fill="#000000" font-family="sans-serif" font-size="14" font-weight="bold" lengthAdjust="spacing" textLength="85" x="829" y="138.6151">Repository</text></g><!--cluster Model--><g id="cluster_Model"><path d="M2138,180.62 L2186,180.62 A3.75,3.75 0 0 1 2188.5,183.12 L2195.5,202.9169 L2308,202.9169 A2.5,2.5 0 0 1 2310.5,205.4169 L2310.5,343.12 A2.5,2.5 0 0 1 2308,345.62 L2138,345.62 A2.5,2.5 0 0 1 2135.5,343.12 L2135.5,183.12 A2.5,2.5 0 0 1 2138,180.62 " fill="#BBBBBB" style="stroke:#000000;stroke-width:1.5;"/><line style="stroke:#000000;stroke-width:1.5;" x1="2135.5" x2="2195.5" y1="202.9169" y2="202.9169"/><text fill="#000000" font-family="sans-serif" font-size="14" font-weight="bold" lengthAdjust="spacing" textLength="47" x="2139.5" y="195.6151">Model</text></g><!--class ManageGreenSpacesUI--><g id="elem_ManageGreenSpacesUI"><rect codeLine="7" fill="#F1F1F1" height="48" id="ManageGreenSpacesUI" rx="2.5" ry="2.5" style="stroke:#181818;stroke-width:0.5;" width="194" x="22" y="604.62"/><ellipse cx="37" cy="620.62" fill="#ADD1B2" rx="11" ry="11" style="stroke:#181818;stroke-width:1.0;"/><path d="M39.9688,626.2606 Q39.3906,626.5575 38.75,626.6981 Q38.1094,626.8544 37.4063,626.8544 Q34.9063,626.8544 33.5781,625.2138 Q32.2656,623.5575 32.2656,620.4325 Q32.2656,617.3075 33.5781,615.6513 Q34.9063,613.995 37.4063,613.995 Q38.1094,613.995 38.75,614.1513 Q39.4063,614.3075 39.9688,614.6044 L39.9688,617.3231 Q39.3438,616.745 38.75,616.4794 Q38.1563,616.1981 37.5313,616.1981 Q36.1875,616.1981 35.5,617.2763 Q34.8125,618.3388 34.8125,620.4325 Q34.8125,622.5263 35.5,623.6044 Q36.1875,624.6669 37.5313,624.6669 Q38.1563,624.6669 38.75,624.4013 Q39.3438,624.12 39.9688,623.5419 L39.9688,626.2606 Z " fill="#000000"/><text fill="#000000" font-family="sans-serif" font-size="14" lengthAdjust="spacing" textLength="162" x="51" y="625.4667">ManageGreenSpacesUI</text><line style="stroke:#181818;stroke-width:0.5;" x1="23" x2="215" y1="636.62" y2="636.62"/><line style="stroke:#181818;stroke-width:0.5;" x1="23" x2="215" y1="644.62" y2="644.62"/></g><!--class RegisterGreenSpaceController--><g id="elem_RegisterGreenSpaceController"><rect codeLine="14" fill="#F1F1F1" height="96.8906" id="RegisterGreenSpaceController" rx="2.5" ry="2.5" style="stroke:#181818;stroke-width:0.5;" width="371" x="305" y="580.12"/><ellipse cx="380.75" cy="596.12" fill="#ADD1B2" rx="11" ry="11" style="stroke:#181818;stroke-width:1.0;"/><path d="M383.7188,601.7606 Q383.1406,602.0575 382.5,602.1981 Q381.8594,602.3544 381.1563,602.3544 Q378.6563,602.3544 377.3281,600.7138 Q376.0156,599.0575 376.0156,595.9325 Q376.0156,592.8075 377.3281,591.1513 Q378.6563,589.495 381.1563,589.495 Q381.8594,589.495 382.5,589.6513 Q383.1563,589.8075 383.7188,590.1044 L383.7188,592.8231 Q383.0938,592.245 382.5,591.9794 Q381.9063,591.6981 381.2813,591.6981 Q379.9375,591.6981 379.25,592.7763 Q378.5625,593.8388 378.5625,595.9325 Q378.5625,598.0263 379.25,599.1044 Q379.9375,600.1669 381.2813,600.1669 Q381.9063,600.1669 382.5,599.9013 Q383.0938,599.62 383.7188,599.0419 L383.7188,601.7606 Z " fill="#000000"/><text fill="#000000" font-family="sans-serif" font-size="14" lengthAdjust="spacing" textLength="211" x="401.25" y="600.9667">RegisterGreenSpaceController</text><line style="stroke:#181818;stroke-width:0.5;" x1="306" x2="675" y1="612.12" y2="612.12"/><line style="stroke:#181818;stroke-width:0.5;" x1="306" x2="675" y1="620.12" y2="620.12"/><text fill="#000000" font-family="sans-serif" font-size="14" lengthAdjust="spacing" textLength="359" x="311" y="637.1151">+getGreenSpacesByEmail(): List&lt;GreenSpaceDto&gt;</text><text fill="#000000" font-family="sans-serif" font-size="14" lengthAdjust="spacing" textLength="267" x="311" y="653.412">+getCollaboratorFromSession(): String</text><text fill="#000000" font-family="sans-serif" font-size="14" lengthAdjust="spacing" textLength="219" x="311" y="669.7089">+getSortAlgorithm(): SortingList</text></g><!--class ApplicationSession--><g id="elem_ApplicationSession"><rect codeLine="22" fill="#F1F1F1" height="96.8906" id="ApplicationSession" rx="2.5" ry="2.5" style="stroke:#181818;stroke-width:0.5;" width="260" x="870" y="840.12"/><ellipse cx="930.75" cy="856.12" fill="#ADD1B2" rx="11" ry="11" style="stroke:#181818;stroke-width:1.0;"/><path d="M933.7188,861.7606 Q933.1406,862.0575 932.5,862.1981 Q931.8594,862.3544 931.1563,862.3544 Q928.6563,862.3544 927.3281,860.7138 Q926.0156,859.0575 926.0156,855.9325 Q926.0156,852.8075 927.3281,851.1513 Q928.6563,849.495 931.1563,849.495 Q931.8594,849.495 932.5,849.6513 Q933.1563,849.8075 933.7188,850.1044 L933.7188,852.8231 Q933.0938,852.245 932.5,851.9794 Q931.9063,851.6981 931.2813,851.6981 Q929.9375,851.6981 929.25,852.7763 Q928.5625,853.8388 928.5625,855.9325 Q928.5625,858.0263 929.25,859.1044 Q929.9375,860.1669 931.2813,860.1669 Q931.9063,860.1669 932.5,859.9013 Q933.0938,859.62 933.7188,859.0419 L933.7188,861.7606 Z " fill="#000000"/><text fill="#000000" font-family="sans-serif" font-size="14" lengthAdjust="spacing" textLength="130" x="951.25" y="860.9667">ApplicationSession</text><line style="stroke:#181818;stroke-width:0.5;" x1="871" x2="1129" y1="872.12" y2="872.12"/><text fill="#000000" font-family="sans-serif" font-size="14" lengthAdjust="spacing" textLength="203" x="876" y="889.1151">-instance: ApplicationSession</text><line style="stroke:#181818;stroke-width:0.5;" x1="871" x2="1129" y1="896.4169" y2="896.4169"/><text fill="#000000" font-family="sans-serif" font-size="14" lengthAdjust="spacing" textLength="248" x="876" y="913.412">+getCurrentSession(): UserSession</text><text fill="#000000" font-family="sans-serif" font-size="14" lengthAdjust="spacing" textLength="241" x="876" y="929.7089">+getAlgorithmService(): SortingList</text></g><!--class UserSession--><g id="elem_UserSession"><rect codeLine="28" fill="#F1F1F1" height="64.2969" id="UserSession" rx="2.5" ry="2.5" style="stroke:#181818;stroke-width:0.5;" width="174" x="1489.5" y="868.62"/><ellipse cx="1529.25" cy="884.62" fill="#ADD1B2" rx="11" ry="11" style="stroke:#181818;stroke-width:1.0;"/><path d="M1532.2188,890.2606 Q1531.6406,890.5575 1531,890.6981 Q1530.3594,890.8544 1529.6563,890.8544 Q1527.1563,890.8544 1525.8281,889.2138 Q1524.5156,887.5575 1524.5156,884.4325 Q1524.5156,881.3075 1525.8281,879.6513 Q1527.1563,877.995 1529.6563,877.995 Q1530.3594,877.995 1531,878.1513 Q1531.6563,878.3075 1532.2188,878.6044 L1532.2188,881.3231 Q1531.5938,880.745 1531,880.4794 Q1530.4063,880.1981 1529.7813,880.1981 Q1528.4375,880.1981 1527.75,881.2763 Q1527.0625,882.3388 1527.0625,884.4325 Q1527.0625,886.5263 1527.75,887.6044 Q1528.4375,888.6669 1529.7813,888.6669 Q1530.4063,888.6669 1531,888.4013 Q1531.5938,888.12 1532.2188,887.5419 L1532.2188,890.2606 Z " fill="#000000"/><text fill="#000000" font-family="sans-serif" font-size="14" lengthAdjust="spacing" textLength="87" x="1548.75" y="889.4667">UserSession</text><line style="stroke:#181818;stroke-width:0.5;" x1="1490.5" x2="1662.5" y1="900.62" y2="900.62"/><line style="stroke:#181818;stroke-width:0.5;" x1="1490.5" x2="1662.5" y1="908.62" y2="908.62"/><text fill="#000000" font-family="sans-serif" font-size="14" lengthAdjust="spacing" textLength="162" x="1495.5" y="925.6151">+getUserEmail(): String</text></g><!--class SortingList--><g id="elem_SortingList"><rect codeLine="34" fill="#F1F1F1" height="64.2969" id="SortingList" rx="2.5" ry="2.5" style="stroke:#181818;stroke-width:0.5;" width="458" x="1347.5" y="701.62"/><ellipse cx="1536.25" cy="717.62" fill="#B4A7E5" rx="11" ry="11" style="stroke:#181818;stroke-width:1.0;"/><path d="M1532.1719,713.3856 L1532.1719,711.2294 L1539.5625,711.2294 L1539.5625,713.3856 L1537.0938,713.3856 L1537.0938,721.4638 L1539.5625,721.4638 L1539.5625,723.62 L1532.1719,723.62 L1532.1719,721.4638 L1534.6406,721.4638 L1534.6406,713.3856 L1532.1719,713.3856 Z " fill="#000000"/><text fill="#000000" font-family="sans-serif" font-size="14" font-style="italic" lengthAdjust="spacing" textLength="72" x="1556.75" y="722.4667">SortingList</text><line style="stroke:#181818;stroke-width:0.5;" x1="1348.5" x2="1804.5" y1="733.62" y2="733.62"/><line style="stroke:#181818;stroke-width:0.5;" x1="1348.5" x2="1804.5" y1="741.62" y2="741.62"/><text fill="#000000" font-family="sans-serif" font-size="14" lengthAdjust="spacing" textLength="446" x="1353.5" y="758.6151">+sortingList(list: List&lt;GreenSpaceDto&gt;): List&lt;GreenSpaceDto&gt;</text></g><!--class SortingAlgorithm1--><g id="elem_SortingAlgorithm1"><rect codeLine="38" fill="#F1F1F1" height="64.2969" id="SortingAlgorithm1" rx="2.5" ry="2.5" style="stroke:#181818;stroke-width:0.5;" width="458" x="1994" y="602.62"/><ellipse cx="2157.25" cy="618.62" fill="#ADD1B2" rx="11" ry="11" style="stroke:#181818;stroke-width:1.0;"/><path d="M2160.2188,624.2606 Q2159.6406,624.5575 2159,624.6981 Q2158.3594,624.8544 2157.6563,624.8544 Q2155.1563,624.8544 2153.8281,623.2138 Q2152.5156,621.5575 2152.5156,618.4325 Q2152.5156,615.3075 2153.8281,613.6513 Q2155.1563,611.995 2157.6563,611.995 Q2158.3594,611.995 2159,612.1513 Q2159.6563,612.3075 2160.2188,612.6044 L2160.2188,615.3231 Q2159.5938,614.745 2159,614.4794 Q2158.4063,614.1981 2157.7813,614.1981 Q2156.4375,614.1981 2155.75,615.2763 Q2155.0625,616.3388 2155.0625,618.4325 Q2155.0625,620.5263 2155.75,621.6044 Q2156.4375,622.6669 2157.7813,622.6669 Q2158.4063,622.6669 2159,622.4013 Q2159.5938,622.12 2160.2188,621.5419 L2160.2188,624.2606 Z " fill="#000000"/><text fill="#000000" font-family="sans-serif" font-size="14" lengthAdjust="spacing" textLength="123" x="2177.75" y="623.4667">SortingAlgorithm1</text><line style="stroke:#181818;stroke-width:0.5;" x1="1995" x2="2451" y1="634.62" y2="634.62"/><line style="stroke:#181818;stroke-width:0.5;" x1="1995" x2="2451" y1="642.62" y2="642.62"/><text fill="#000000" font-family="sans-serif" font-size="14" lengthAdjust="spacing" textLength="446" x="2000" y="659.6151">+sortingList(list: List&lt;GreenSpaceDto&gt;): List&lt;GreenSpaceDto&gt;</text></g><!--class SortingAlgorithm2--><g id="elem_SortingAlgorithm2"><rect codeLine="43" fill="#F1F1F1" height="64.2969" id="SortingAlgorithm2" rx="2.5" ry="2.5" style="stroke:#181818;stroke-width:0.5;" width="458" x="1994" y="701.62"/><ellipse cx="2157.25" cy="717.62" fill="#ADD1B2" rx="11" ry="11" style="stroke:#181818;stroke-width:1.0;"/><path d="M2160.2188,723.2606 Q2159.6406,723.5575 2159,723.6981 Q2158.3594,723.8544 2157.6563,723.8544 Q2155.1563,723.8544 2153.8281,722.2138 Q2152.5156,720.5575 2152.5156,717.4325 Q2152.5156,714.3075 2153.8281,712.6513 Q2155.1563,710.995 2157.6563,710.995 Q2158.3594,710.995 2159,711.1513 Q2159.6563,711.3075 2160.2188,711.6044 L2160.2188,714.3231 Q2159.5938,713.745 2159,713.4794 Q2158.4063,713.1981 2157.7813,713.1981 Q2156.4375,713.1981 2155.75,714.2763 Q2155.0625,715.3388 2155.0625,717.4325 Q2155.0625,719.5263 2155.75,720.6044 Q2156.4375,721.6669 2157.7813,721.6669 Q2158.4063,721.6669 2159,721.4013 Q2159.5938,721.12 2160.2188,720.5419 L2160.2188,723.2606 Z " fill="#000000"/><text fill="#000000" font-family="sans-serif" font-size="14" lengthAdjust="spacing" textLength="123" x="2177.75" y="722.4667">SortingAlgorithm2</text><line style="stroke:#181818;stroke-width:0.5;" x1="1995" x2="2451" y1="733.62" y2="733.62"/><line style="stroke:#181818;stroke-width:0.5;" x1="1995" x2="2451" y1="741.62" y2="741.62"/><text fill="#000000" font-family="sans-serif" font-size="14" lengthAdjust="spacing" textLength="446" x="2000" y="758.6151">+sortingList(list: List&lt;GreenSpaceDto&gt;): List&lt;GreenSpaceDto&gt;</text></g><!--class GreenSpaceMapper--><g id="elem_GreenSpaceMapper"><rect codeLine="51" fill="#F1F1F1" height="80.5938" id="GreenSpaceMapper" rx="2.5" ry="2.5" style="stroke:#181818;stroke-width:0.5;" width="709" x="1222" y="433.12"/><ellipse cx="1503.25" cy="449.12" fill="#ADD1B2" rx="11" ry="11" style="stroke:#181818;stroke-width:1.0;"/><path d="M1506.2188,454.7606 Q1505.6406,455.0575 1505,455.1981 Q1504.3594,455.3544 1503.6563,455.3544 Q1501.1563,455.3544 1499.8281,453.7138 Q1498.5156,452.0575 1498.5156,448.9325 Q1498.5156,445.8075 1499.8281,444.1513 Q1501.1563,442.495 1503.6563,442.495 Q1504.3594,442.495 1505,442.6513 Q1505.6563,442.8075 1506.2188,443.1044 L1506.2188,445.8231 Q1505.5938,445.245 1505,444.9794 Q1504.4063,444.6981 1503.7813,444.6981 Q1502.4375,444.6981 1501.75,445.7763 Q1501.0625,446.8388 1501.0625,448.9325 Q1501.0625,451.0263 1501.75,452.1044 Q1502.4375,453.1669 1503.7813,453.1669 Q1504.4063,453.1669 1505,452.9013 Q1505.5938,452.62 1506.2188,452.0419 L1506.2188,454.7606 Z " fill="#000000"/><text fill="#000000" font-family="sans-serif" font-size="14" lengthAdjust="spacing" textLength="138" x="1523.75" y="453.9667">GreenSpaceMapper</text><line style="stroke:#181818;stroke-width:0.5;" x1="1223" x2="1930" y1="465.12" y2="465.12"/><line style="stroke:#181818;stroke-width:0.5;" x1="1223" x2="1930" y1="473.12" y2="473.12"/><text fill="#000000" font-family="sans-serif" font-size="14" lengthAdjust="spacing" textLength="697" x="1228" y="490.1151">+greenSpaceListToGreenSpaceDtoList(greenSpaceList: List&lt;GreenSpace&gt;): List&lt;GreenSpaceDto&gt;</text><text fill="#000000" font-family="sans-serif" font-size="14" lengthAdjust="spacing" textLength="360" x="1228" y="506.412">+toDto(greenSpace: GreenSpace): GreenSpaceDto</text></g><!--class GreenSpaceDto--><g id="elem_GreenSpaceDto"><rect codeLine="58" fill="#F1F1F1" height="113.1875" id="GreenSpaceDto" rx="2.5" ry="2.5" style="stroke:#181818;stroke-width:0.5;" width="143" x="2517" y="578.12"/><ellipse cx="2532" cy="594.12" fill="#ADD1B2" rx="11" ry="11" style="stroke:#181818;stroke-width:1.0;"/><path d="M2534.9688,599.7606 Q2534.3906,600.0575 2533.75,600.1981 Q2533.1094,600.3544 2532.4063,600.3544 Q2529.9063,600.3544 2528.5781,598.7138 Q2527.2656,597.0575 2527.2656,593.9325 Q2527.2656,590.8075 2528.5781,589.1513 Q2529.9063,587.495 2532.4063,587.495 Q2533.1094,587.495 2533.75,587.6513 Q2534.4063,587.8075 2534.9688,588.1044 L2534.9688,590.8231 Q2534.3438,590.245 2533.75,589.9794 Q2533.1563,589.6981 2532.5313,589.6981 Q2531.1875,589.6981 2530.5,590.7763 Q2529.8125,591.8388 2529.8125,593.9325 Q2529.8125,596.0263 2530.5,597.1044 Q2531.1875,598.1669 2532.5313,598.1669 Q2533.1563,598.1669 2533.75,597.9013 Q2534.3438,597.62 2534.9688,597.0419 L2534.9688,599.7606 Z " fill="#000000"/><text fill="#000000" font-family="sans-serif" font-size="14" lengthAdjust="spacing" textLength="111" x="2546" y="598.9667">GreenSpaceDto</text><line style="stroke:#181818;stroke-width:0.5;" x1="2518" x2="2659" y1="610.12" y2="610.12"/><text fill="#000000" font-family="sans-serif" font-size="14" lengthAdjust="spacing" textLength="100" x="2523" y="627.1151">+name: String</text><text fill="#000000" font-family="sans-serif" font-size="14" lengthAdjust="spacing" textLength="115" x="2523" y="643.412">+location: String</text><text fill="#000000" font-family="sans-serif" font-size="14" lengthAdjust="spacing" textLength="78" x="2523" y="659.7089">+size: float</text><text fill="#000000" font-family="sans-serif" font-size="14" lengthAdjust="spacing" textLength="131" x="2523" y="676.0057">+createdBy: String</text><line style="stroke:#181818;stroke-width:0.5;" x1="2518" x2="2659" y1="683.3075" y2="683.3075"/></g><!--class Repositories--><g id="elem_Repositories"><rect codeLine="68" fill="#F1F1F1" height="129.4844" id="Repositories" rx="2.5" ry="2.5" style="stroke:#181818;stroke-width:0.5;" width="318" x="841" y="204.12"/><ellipse cx="952.25" cy="220.12" fill="#ADD1B2" rx="11" ry="11" style="stroke:#181818;stroke-width:1.0;"/><path d="M955.2188,225.7606 Q954.6406,226.0575 954,226.1981 Q953.3594,226.3544 952.6563,226.3544 Q950.1563,226.3544 948.8281,224.7138 Q947.5156,223.0575 947.5156,219.9325 Q947.5156,216.8075 948.8281,215.1513 Q950.1563,213.495 952.6563,213.495 Q953.3594,213.495 954,213.6513 Q954.6563,213.8075 955.2188,214.1044 L955.2188,216.8231 Q954.5938,216.245 954,215.9794 Q953.4063,215.6981 952.7813,215.6981 Q951.4375,215.6981 950.75,216.7763 Q950.0625,217.8388 950.0625,219.9325 Q950.0625,222.0263 950.75,223.1044 Q951.4375,224.1669 952.7813,224.1669 Q953.4063,224.1669 954,223.9013 Q954.5938,223.62 955.2188,223.0419 L955.2188,225.7606 Z " fill="#000000"/><text fill="#000000" font-family="sans-serif" font-size="14" lengthAdjust="spacing" textLength="87" x="972.75" y="224.9667">Repositories</text><line style="stroke:#181818;stroke-width:0.5;" x1="842" x2="1158" y1="236.12" y2="236.12"/><text fill="#000000" font-family="sans-serif" font-size="14" lengthAdjust="spacing" textLength="260" x="847" y="253.1151">-organizationRepository: Organization</text><text fill="#000000" font-family="sans-serif" font-size="14" lengthAdjust="spacing" textLength="205" x="847" y="269.412">-static instance : Repositories</text><line style="stroke:#181818;stroke-width:0.5;" x1="842" x2="1158" y1="276.7138" y2="276.7138"/><text fill="#000000" font-family="sans-serif" font-size="14" lengthAdjust="spacing" textLength="204" x="847" y="293.7089">+getInstance() : Repositories</text><text fill="#000000" font-family="sans-serif" font-size="14" lengthAdjust="spacing" textLength="306" x="847" y="310.0057">+getOrganizationRepository() : Organization</text><text fill="#000000" font-family="sans-serif" font-size="14" lengthAdjust="spacing" textLength="102" x="847" y="326.3026">-Repositories()</text></g><!--class Organization--><g id="elem_Organization"><rect codeLine="76" fill="#F1F1F1" height="64.2969" id="Organization" rx="2.5" ry="2.5" style="stroke:#181818;stroke-width:0.5;" width="506" x="1323.5" y="236.62"/><ellipse cx="1528.75" cy="252.62" fill="#ADD1B2" rx="11" ry="11" style="stroke:#181818;stroke-width:1.0;"/><path d="M1531.7188,258.2606 Q1531.1406,258.5575 1530.5,258.6981 Q1529.8594,258.8544 1529.1563,258.8544 Q1526.6563,258.8544 1525.3281,257.2138 Q1524.0156,255.5575 1524.0156,252.4325 Q1524.0156,249.3075 1525.3281,247.6513 Q1526.6563,245.995 1529.1563,245.995 Q1529.8594,245.995 1530.5,246.1513 Q1531.1563,246.3075 1531.7188,246.6044 L1531.7188,249.3231 Q1531.0938,248.745 1530.5,248.4794 Q1529.9063,248.1981 1529.2813,248.1981 Q1527.9375,248.1981 1527.25,249.2763 Q1526.5625,250.3388 1526.5625,252.4325 Q1526.5625,254.5263 1527.25,255.6044 Q1527.9375,256.6669 1529.2813,256.6669 Q1529.9063,256.6669 1530.5,256.4013 Q1531.0938,256.12 1531.7188,255.5419 L1531.7188,258.2606 Z " fill="#000000"/><text fill="#000000" font-family="sans-serif" font-size="14" lengthAdjust="spacing" textLength="87" x="1549.25" y="257.4667">Organization</text><line style="stroke:#181818;stroke-width:0.5;" x1="1324.5" x2="1828.5" y1="268.62" y2="268.62"/><line style="stroke:#181818;stroke-width:0.5;" x1="1324.5" x2="1828.5" y1="276.62" y2="276.62"/><text fill="#000000" font-family="sans-serif" font-size="14" lengthAdjust="spacing" textLength="494" x="1329.5" y="293.6151">+getGreenSpaceListByManagerEmail(email: String): List&lt;GreenSpace&gt;</text></g><!--class GreenSpace--><g id="elem_GreenSpace"><rect codeLine="82" fill="#F1F1F1" height="113.1875" id="GreenSpace" rx="2.5" ry="2.5" style="stroke:#181818;stroke-width:0.5;" width="143" x="2151.5" y="216.12"/><ellipse cx="2177.75" cy="232.12" fill="#ADD1B2" rx="11" ry="11" style="stroke:#181818;stroke-width:1.0;"/><path d="M2180.7188,237.7606 Q2180.1406,238.0575 2179.5,238.1981 Q2178.8594,238.3544 2178.1563,238.3544 Q2175.6563,238.3544 2174.3281,236.7138 Q2173.0156,235.0575 2173.0156,231.9325 Q2173.0156,228.8075 2174.3281,227.1513 Q2175.6563,225.495 2178.1563,225.495 Q2178.8594,225.495 2179.5,225.6513 Q2180.1563,225.8075 2180.7188,226.1044 L2180.7188,228.8231 Q2180.0938,228.245 2179.5,227.9794 Q2178.9063,227.6981 2178.2813,227.6981 Q2176.9375,227.6981 2176.25,228.7763 Q2175.5625,229.8388 2175.5625,231.9325 Q2175.5625,234.0263 2176.25,235.1044 Q2176.9375,236.1669 2178.2813,236.1669 Q2178.9063,236.1669 2179.5,235.9013 Q2180.0938,235.62 2180.7188,235.0419 L2180.7188,237.7606 Z " fill="#000000"/><text fill="#000000" font-family="sans-serif" font-size="14" lengthAdjust="spacing" textLength="86" x="2194.25" y="236.9667">GreenSpace</text><line style="stroke:#181818;stroke-width:0.5;" x1="2152.5" x2="2293.5" y1="248.12" y2="248.12"/><text fill="#000000" font-family="sans-serif" font-size="14" lengthAdjust="spacing" textLength="100" x="2157.5" y="265.1151">+name: String</text><text fill="#000000" font-family="sans-serif" font-size="14" lengthAdjust="spacing" textLength="115" x="2157.5" y="281.412">+location: String</text><text fill="#000000" font-family="sans-serif" font-size="14" lengthAdjust="spacing" textLength="78" x="2157.5" y="297.7089">+size: float</text><text fill="#000000" font-family="sans-serif" font-size="14" lengthAdjust="spacing" textLength="131" x="2157.5" y="314.0057">+createdBy: String</text><line style="stroke:#181818;stroke-width:0.5;" x1="2152.5" x2="2293.5" y1="321.3075" y2="321.3075"/></g><!--reverse link SortingList to SortingAlgorithm1--><g id="link_SortingList_SortingAlgorithm1"><path d="M1803.6513,698.877 C1876.5613,687.677 1940.61,677.84 2013.53,666.64 " fill="none" id="SortingList-backto-SortingAlgorithm1" style="stroke:#181818;stroke-width:1.0;stroke-dasharray:7.0,7.0;"/><polygon fill="none" points="1785.86,701.61,1804.5623,704.8074,1802.7403,692.9466,1785.86,701.61" style="stroke:#181818;stroke-width:1.0;"/></g><!--reverse link SortingList to SortingAlgorithm2--><g id="link_SortingList_SortingAlgorithm2"><path d="M1823.63,733.62 C1884.74,733.62 1932.8,733.62 1993.9,733.62 " fill="none" id="SortingList-backto-SortingAlgorithm2" style="stroke:#181818;stroke-width:1.0;stroke-dasharray:7.0,7.0;"/><polygon fill="none" points="1805.63,733.62,1823.63,739.62,1823.63,727.62,1805.63,733.62" style="stroke:#181818;stroke-width:1.0;"/></g><!--link ManageGreenSpacesUI to RegisterGreenSpaceController--><g id="link_ManageGreenSpacesUI_RegisterGreenSpaceController"><path codeLine="93" d="M216.12,628.62 C243.38,628.62 268.02,628.62 298.66,628.62 " fill="none" id="ManageGreenSpacesUI-to-RegisterGreenSpaceController" style="stroke:#181818;stroke-width:1.0;stroke-dasharray:7.0,7.0;"/><polygon fill="#181818" points="304.66,628.62,295.66,624.62,299.66,628.62,295.66,632.62,304.66,628.62" style="stroke:#181818;stroke-width:1.0;"/></g><!--link RegisterGreenSpaceController to Repositories--><g id="link_RegisterGreenSpaceController_Repositories"><path codeLine="94" d="M559.94,580.07 C649.77,516.35 802.8162,407.7814 902.7662,336.8814 " fill="none" id="RegisterGreenSpaceController-to-Repositories" style="stroke:#181818;stroke-width:1.0;stroke-dasharray:7.0,7.0;"/><polygon fill="#181818" points="907.66,333.41,898.005,335.3546,903.5818,336.3029,902.6336,341.8797,907.66,333.41" style="stroke:#181818;stroke-width:1.0;"/><text fill="#000000" font-family="sans-serif" font-size="13" lengthAdjust="spacing" textLength="75" x="709" y="418.6869">repositories</text></g><!--link RegisterGreenSpaceController to Organization--><g id="link_RegisterGreenSpaceController_Organization"><path codeLine="95" d="M504.31,580.1 C534.48,476.96 620.78,237.55 793,141.62 C1036.47,6 1379.0899,161.5689 1513.8699,233.6989 " fill="none" id="RegisterGreenSpaceController-to-Organization" style="stroke:#181818;stroke-width:1.0;stroke-dasharray:7.0,7.0;"/><polygon fill="#181818" points="1519.16,236.53,1513.1123,228.7567,1514.7516,234.1708,1509.3375,235.8101,1519.16,236.53" style="stroke:#181818;stroke-width:1.0;"/><text fill="#000000" font-family="sans-serif" font-size="13" lengthAdjust="spacing" textLength="79" x="960.5" y="84.6869">organization</text></g><!--link RegisterGreenSpaceController to GreenSpaceMapper--><g id="link_RegisterGreenSpaceController_GreenSpaceMapper"><path codeLine="96" d="M593.76,580.11 C629.19,565.32 669.64,550.61 708,541.62 C874.39,502.63 1057.1271,485.1116 1215.9671,477.3816 " fill="none" id="RegisterGreenSpaceController-to-GreenSpaceMapper" style="stroke:#181818;stroke-width:1.0;stroke-dasharray:7.0,7.0;"/><polygon fill="#181818" points="1221.96,477.09,1212.7762,473.5322,1216.9659,477.333,1213.1651,481.5227,1221.96,477.09" style="stroke:#181818;stroke-width:1.0;"/></g><!--link RegisterGreenSpaceController to SortingList--><g id="link_RegisterGreenSpaceController_SortingList"><path codeLine="97" d="M676.01,667.98 C686.83,670.24 697.56,672.47 708,674.62 C745.73,682.4 754.78,686.8 793,691.62 C978.76,715.06 1184.9426,725.2541 1341.4526,729.8441 " fill="none" id="RegisterGreenSpaceController-to-SortingList" style="stroke:#181818;stroke-width:1.0;stroke-dasharray:7.0,7.0;"/><polygon fill="#181818" points="1347.45,730.02,1338.5711,725.7579,1342.4521,729.8734,1338.3366,733.7544,1347.45,730.02" style="stroke:#181818;stroke-width:1.0;"/><text fill="#000000" font-family="sans-serif" font-size="13" lengthAdjust="spacing" textLength="87" x="956.5" y="687.6869">sortAlgorithm</text></g><!--link RegisterGreenSpaceController to UserSession--><g id="link_RegisterGreenSpaceController_UserSession"><path codeLine="98" d="M518.42,677.37 C563.6,753.46 662.68,897.64 793,954.62 C1027.87,1057.32 1334.7418,981.6282 1483.7318,933.3882 " fill="none" id="RegisterGreenSpaceController-to-UserSession" style="stroke:#181818;stroke-width:1.0;stroke-dasharray:7.0,7.0;"/><polygon fill="#181818" points="1489.44,931.54,1479.6455,930.5068,1484.6831,933.0802,1482.1098,938.1178,1489.44,931.54" style="stroke:#181818;stroke-width:1.0;"/></g><!--link RegisterGreenSpaceController to ApplicationSession--><g id="link_RegisterGreenSpaceController_ApplicationSession"><path codeLine="99" d="M586.36,677.22 C677.16,723.74 808.0399,790.7944 898.8299,837.3044 " fill="none" id="RegisterGreenSpaceController-to-ApplicationSession" style="stroke:#181818;stroke-width:1.0;stroke-dasharray:7.0,7.0;"/><polygon fill="#181818" points="904.17,840.04,897.9836,832.3765,899.7199,837.7603,894.3361,839.4966,904.17,840.04" style="stroke:#181818;stroke-width:1.0;"/></g><!--link RegisterGreenSpaceController to GreenSpaceDto--><g id="link_RegisterGreenSpaceController_GreenSpaceDto"><path codeLine="100" d="M676.06,586.42 C771.86,568.05 891.14,550.62 999,550.62 C999,550.62 999,550.62 2224,550.62 C2337.14,550.62 2367.09,555.98 2476,586.62 C2489.49,590.42 2497.9398,593.2251 2511.2798,598.6351 " fill="none" id="RegisterGreenSpaceController-to-GreenSpaceDto" style="stroke:#181818;stroke-width:1.0;stroke-dasharray:7.0,7.0;"/><polygon fill="#181818" points="2516.84,600.89,2510.003,593.8009,2512.2065,599.0109,2506.9965,601.2144,2516.84,600.89" style="stroke:#181818;stroke-width:1.0;"/></g><!--link RegisterGreenSpaceController to SortingAlgorithm1--><g id="link_RegisterGreenSpaceController_SortingAlgorithm1"><path codeLine="101" d="M676.28,629.26 C995,630.37 1641.15,632.6092 1987.71,633.8092 " fill="none" id="RegisterGreenSpaceController-to-SortingAlgorithm1" style="stroke:#181818;stroke-width:1.0;stroke-dasharray:7.0,7.0;"/><polygon fill="#181818" points="1993.71,633.83,1984.7239,629.7989,1988.71,633.8127,1984.6962,637.7988,1993.71,633.83" style="stroke:#181818;stroke-width:1.0;"/></g><!--link RegisterGreenSpaceController to SortingAlgorithm2--><g id="link_RegisterGreenSpaceController_SortingAlgorithm2"><path codeLine="102" d="M676.04,637.27 C686.85,637.74 697.57,638.19 708,638.62 C1262.11,661.41 1403.81,622.41 1955,683.62 C1993.32,687.88 2028.4901,693.4185 2066.6501,700.4785 " fill="none" id="RegisterGreenSpaceController-to-SortingAlgorithm2" style="stroke:#181818;stroke-width:1.0;stroke-dasharray:7.0,7.0;"/><polygon fill="#181818" points="2072.55,701.57,2064.4279,695.9994,2067.6334,700.6604,2062.9725,703.8659,2072.55,701.57" style="stroke:#181818;stroke-width:1.0;"/></g><!--link SortingAlgorithm1 to GreenSpaceDto--><g id="link_SortingAlgorithm1_GreenSpaceDto"><path codeLine="103" d="M2452.15,634.62 C2475.4,634.62 2491.56,634.62 2510.98,634.62 " fill="none" id="SortingAlgorithm1-to-GreenSpaceDto" style="stroke:#181818;stroke-width:1.0;stroke-dasharray:7.0,7.0;"/><polygon fill="#181818" points="2516.98,634.62,2507.98,630.62,2511.98,634.62,2507.98,638.62,2516.98,634.62" style="stroke:#181818;stroke-width:1.0;"/></g><!--link SortingAlgorithm2 to GreenSpaceDto--><g id="link_SortingAlgorithm2_GreenSpaceDto"><path codeLine="104" d="M2409.59,701.6 C2432.15,696.3 2454.73,690.32 2476,683.62 C2489.41,679.4 2497.8454,676.3768 2511.1754,670.7968 " fill="none" id="SortingAlgorithm2-to-GreenSpaceDto" style="stroke:#181818;stroke-width:1.0;stroke-dasharray:7.0,7.0;"/><polygon fill="#181818" points="2516.71,668.48,2506.8635,668.2655,2512.0978,670.4107,2509.9526,675.645,2516.71,668.48" style="stroke:#181818;stroke-width:1.0;"/></g><!--link SortingList to GreenSpaceDto--><g id="link_SortingList_GreenSpaceDto"><path codeLine="105" d="M1767.37,765.65 C1993.62,800.09 2356.12,842.4 2476,782.62 C2514.15,763.6 2539.7301,729.8504 2558.3801,696.6704 " fill="none" id="SortingList-to-GreenSpaceDto" style="stroke:#181818;stroke-width:1.0;stroke-dasharray:7.0,7.0;"/><polygon fill="#181818" points="2561.32,691.44,2553.4232,697.3256,2558.8701,695.7986,2560.397,701.2455,2561.32,691.44" style="stroke:#181818;stroke-width:1.0;"/></g><!--link ApplicationSession to UserSession--><g id="link_ApplicationSession_UserSession"><path codeLine="106" d="M1130.29,891.32 C1239.98,893.61 1388.2613,896.7045 1483.4113,898.6945 " fill="none" id="ApplicationSession-to-UserSession" style="stroke:#181818;stroke-width:1.0;stroke-dasharray:7.0,7.0;"/><polygon fill="#181818" points="1489.41,898.82,1480.4956,894.6327,1484.4111,898.7155,1480.3283,902.6309,1489.41,898.82" style="stroke:#181818;stroke-width:1.0;"/></g><!--link ApplicationSession to SortingList--><g id="link_ApplicationSession_SortingList"><path codeLine="107" d="M1130.11,845.09 C1152.65,837.95 1175.94,830.85 1198,824.62 C1274.39,803.04 1354.5251,783.4154 1425.1151,767.0454 " fill="none" id="ApplicationSession-to-SortingList" style="stroke:#181818;stroke-width:1.0;stroke-dasharray:7.0,7.0;"/><polygon fill="#181818" points="1430.96,765.69,1421.289,763.8266,1426.0893,766.8195,1423.0963,771.6198,1430.96,765.69" style="stroke:#181818;stroke-width:1.0;"/></g><!--link GreenSpaceMapper to GreenSpaceDto--><g id="link_GreenSpaceMapper_GreenSpaceDto"><path codeLine="108" d="M1931.16,447.43 C2104.46,447.53 2312.44,467.48 2485,541.62 C2504.54,550.01 2518.4092,559.6524 2533.9592,573.9924 " fill="none" id="GreenSpaceMapper-to-GreenSpaceDto" style="stroke:#181818;stroke-width:1.0;stroke-dasharray:7.0,7.0;"/><polygon fill="#181818" points="2538.37,578.06,2534.4655,569.0181,2534.6944,574.6704,2529.0421,574.8992,2538.37,578.06" style="stroke:#181818;stroke-width:1.0;"/></g><!--link GreenSpaceMapper to GreenSpace--><g id="link_GreenSpaceMapper_GreenSpace"><path codeLine="109" d="M1707.54,433.07 C1841.38,391.32 2039.212,329.6262 2145.712,296.4162 " fill="none" id="GreenSpaceMapper-to-GreenSpace" style="stroke:#181818;stroke-width:1.0;stroke-dasharray:7.0,7.0;"/><polygon fill="#181818" points="2151.44,294.63,2141.6573,293.4906,2146.6667,296.1185,2144.0388,301.1279,2151.44,294.63" style="stroke:#181818;stroke-width:1.0;"/></g><!--link Organization to GreenSpace--><g id="link_Organization_GreenSpace"><path codeLine="110" d="M1829.91,270.19 C1945.65,270.9 2068.0101,271.6627 2145.3201,272.1427 " fill="none" id="Organization-to-GreenSpace" style="stroke:#181818;stroke-width:1.0;"/><polygon fill="#181818" points="2151.32,272.18,2142.345,268.1242,2146.3201,272.149,2142.2953,276.124,2151.32,272.18" style="stroke:#181818;stroke-width:1.0;"/><text fill="#000000" font-family="sans-serif" font-size="13" lengthAdjust="spacing" textLength="8" x="1837.5519" y="282.5237">1</text><text fill="#000000" font-family="sans-serif" font-size="13" lengthAdjust="spacing" textLength="7" x="2136.5671" y="284.9721">*</text></g><!--link Repositories to Organization--><g id="link_Repositories_Organization"><path codeLine="111" d="M1159.12,268.62 C1209.94,268.62 1261.57,268.62 1317.4,268.62 " fill="none" id="Repositories-to-Organization" style="stroke:#181818;stroke-width:1.0;"/><polygon fill="#181818" points="1323.4,268.62,1314.4,264.62,1318.4,268.62,1314.4,272.62,1323.4,268.62" style="stroke:#181818;stroke-width:1.0;"/><text fill="#000000" font-family="sans-serif" font-size="13" lengthAdjust="spacing" textLength="8" x="1167.0211" y="281.0417">1</text><text fill="#000000" font-family="sans-serif" font-size="13" lengthAdjust="spacing" textLength="8" x="1307.7673" y="280.9071">1</text></g><!--link Repositories to Repositories--><g id="link_Repositories_Repositories"><path codeLine="112" d="M964.8,204.02 C965.69,184.43 977.42,169.12 1000,169.12 C1022.58,169.12 1034.0377,178.4362 1034.9277,198.0262 " fill="none" id="Repositories-to-Repositories" style="stroke:#181818;stroke-width:1.0;"/><polygon fill="#181818" points="1035.2,204.02,1038.7874,194.8477,1034.9731,199.0252,1030.7957,195.2108,1035.2,204.02" style="stroke:#181818;stroke-width:1.0;"/><text fill="#000000" font-family="sans-serif" font-size="13" lengthAdjust="spacing" textLength="54" x="973" y="160.1869">instance</text></g><!--SRC=[lLPHRzem47xFhx3O2woYQliOJKZGRXFIAgIc_G4c7C6gOqUskubE_FVP9YHsx13wq0K9HEwxk-_ET-UJhuHLME0IoHtUy3-45MYBgOH4DfASOYddIWcoVbEmp3dBo3kWcoIXi5L8SIH8iLDeGmJaYd2M91NENt41QFIo7A4lsnlpGNyJf1zh3JrYfkK_1G3BD1ZaoxAM7vA3et_F1RWMBCIHCYKufI0qPcEVsahhwGaA8XM8rbUhvO3DSrM0SYWjzjzBJEXuag9VsiItLlIW-2pGlDScyPeBhBZu8NYPWPGw6KOzqxbZHQ2HSQ7cjE22g5rfSVg51Xfl3VXGPyMFl3RU7_QygYZ9iJcE6ji9TagOL9Zba4QmON1lGW1JJaml4aGVkWag0_6RvD0VMuUrOpHoDaRQ74adfprfEZfj-4X3A9OqmdI9RFNHkZox591iPMEglwA5CL0kGSnTZhU8b1M5KgTRVXgRo-dS_Gyw3fleEJxYgZhNvAsv8p8edaPkl3zppxrbx2C2bhDBXe3Y-frZANLuJTm_6ZPGk0_FgqkYrOQweJ9SGdpYK7xiyRXKwfcUeYtbMFc2N01Mi5diUtlEPyvrXtg3gS4tc2Uek2HwJkurRcsVJXYdsLtZ2CWEm8umn4M16NctORL6KxHotaVKzE1J94Ud2OXIprEWS8Nqy5dMuF7a8lWgoimg3v1pROyd7i1frZP9hhb8alnBpTJmOd-yVUjP2kRxTBPXcSyw329SsZRb6w3dZxGr7EFQMxp31NosY0SAEHgPNKHYUyhrzUpiLf6SNJcEsavTfqYurJIex9rtwhN0i79tK0vhk2C_jKE-kHg6bTqbOH0SMKC-48-PgPS6qzwr7rUvIy8BEsGItgAz69lPK1fPuBePxO6ucrPmCOQE1Y29Ls-Zsn6QJcTez7NaOho2RZ3wT-LNfuCoY4uVdEPnyWy0]--></g></svg>