<?xml version="1.0" encoding="us-ascii" standalone="no"?><svg xmlns="http://www.w3.org/2000/svg" xmlns:xlink="http://www.w3.org/1999/xlink" contentStyleType="text/css" height="397px" preserveAspectRatio="none" style="width:1024px;height:397px;background:#FFFFFF;" version="1.1" viewBox="0 0 1024 397" width="1024px" zoomAndPan="magnify"><defs/><g><rect fill="#FFFFFF" height="286.0625" style="stroke:#181818;stroke-width:1.0;" width="10" x="260" y="67.4297"/><rect fill="#FFFFFF" height="216.7969" style="stroke:#181818;stroke-width:1.0;" width="10" x="492.5" y="120.6953"/><rect fill="#FFFFFF" height="123.3984" style="stroke:#181818;stroke-width:1.0;" width="10" x="684.5" y="184.9609"/><rect fill="#FFFFFF" height="30" style="stroke:#181818;stroke-width:1.0;" width="10" x="938.5" y="249.2266"/><rect fill="none" height="263.0625" style="stroke:#000000;stroke-width:1.5;" width="863" x="155" y="82.4297"/><line style="stroke:#181818;stroke-width:0.5;stroke-dasharray:5.0,5.0;" x1="265" x2="265" y1="36.2969" y2="362.4922"/><line style="stroke:#181818;stroke-width:0.5;stroke-dasharray:5.0,5.0;" x1="497" x2="497" y1="36.2969" y2="362.4922"/><line style="stroke:#181818;stroke-width:0.5;stroke-dasharray:5.0,5.0;" x1="689.5" x2="689.5" y1="36.2969" y2="362.4922"/><line style="stroke:#181818;stroke-width:0.5;stroke-dasharray:5.0,5.0;" x1="943" x2="943" y1="36.2969" y2="362.4922"/><rect fill="#E3E3E3" height="30.2969" rx="2.5" ry="2.5" style="stroke:#181818;stroke-width:0.5;" width="200" x="165" y="5"/><text fill="#000000" font-family="sans-serif" font-size="14" lengthAdjust="spacing" textLength="186" x="172" y="24.9951">:ViewDetailsEntryController</text><rect fill="#E3E3E3" height="30.2969" rx="2.5" ry="2.5" style="stroke:#181818;stroke-width:0.5;" width="200" x="165" y="361.4922"/><text fill="#000000" font-family="sans-serif" font-size="14" lengthAdjust="spacing" textLength="186" x="172" y="381.4873">:ViewDetailsEntryController</text><rect fill="#E3E3E3" height="30.2969" rx="2.5" ry="2.5" style="stroke:#181818;stroke-width:0.5;" width="245" x="375" y="5"/><text fill="#000000" font-family="sans-serif" font-size="14" lengthAdjust="spacing" textLength="231" x="382" y="24.9951">TeamRepository:TeamRepository</text><rect fill="#E3E3E3" height="30.2969" rx="2.5" ry="2.5" style="stroke:#181818;stroke-width:0.5;" width="245" x="375" y="361.4922"/><text fill="#000000" font-family="sans-serif" font-size="14" lengthAdjust="spacing" textLength="231" x="382" y="381.4873">TeamRepository:TeamRepository</text><rect fill="#E3E3E3" height="30.2969" rx="2.5" ry="2.5" style="stroke:#181818;stroke-width:0.5;" width="110" x="634.5" y="5"/><text fill="#000000" font-family="sans-serif" font-size="14" lengthAdjust="spacing" textLength="96" x="641.5" y="24.9951">:TeamMapper</text><rect fill="#E3E3E3" height="30.2969" rx="2.5" ry="2.5" style="stroke:#181818;stroke-width:0.5;" width="110" x="634.5" y="361.4922"/><text fill="#000000" font-family="sans-serif" font-size="14" lengthAdjust="spacing" textLength="96" x="641.5" y="381.4873">:TeamMapper</text><rect fill="#E3E3E3" height="30.2969" rx="2.5" ry="2.5" style="stroke:#181818;stroke-width:0.5;" width="129" x="879" y="5"/><text fill="#000000" font-family="sans-serif" font-size="14" lengthAdjust="spacing" textLength="115" x="886" y="24.9951">objDto:TeamDto</text><rect fill="#E3E3E3" height="30.2969" rx="2.5" ry="2.5" style="stroke:#181818;stroke-width:0.5;" width="129" x="879" y="361.4922"/><text fill="#000000" font-family="sans-serif" font-size="14" lengthAdjust="spacing" textLength="115" x="886" y="381.4873">objDto:TeamDto</text><rect fill="#FFFFFF" height="286.0625" style="stroke:#181818;stroke-width:1.0;" width="10" x="260" y="67.4297"/><rect fill="#FFFFFF" height="216.7969" style="stroke:#181818;stroke-width:1.0;" width="10" x="492.5" y="120.6953"/><rect fill="#FFFFFF" height="123.3984" style="stroke:#181818;stroke-width:1.0;" width="10" x="684.5" y="184.9609"/><rect fill="#FFFFFF" height="30" style="stroke:#181818;stroke-width:1.0;" width="10" x="938.5" y="249.2266"/><polygon fill="#181818" points="248,63.4297,258,67.4297,248,71.4297,252,67.4297" style="stroke:#181818;stroke-width:1.0;"/><line style="stroke:#181818;stroke-width:1.0;" x1="0" x2="254" y1="67.4297" y2="67.4297"/><text fill="#000000" font-family="sans-serif" font-size="13" lengthAdjust="spacing" textLength="241" x="7" y="62.3638">assignTeamToEntry(objDto, entryDto)</text><path d="M155,82.4297 L319,82.4297 L319,89.5625 L309,99.5625 L155,99.5625 L155,82.4297 " fill="#EEEEEE" style="stroke:#000000;stroke-width:1.5;"/><rect fill="none" height="263.0625" style="stroke:#000000;stroke-width:1.5;" width="863" x="155" y="82.4297"/><text fill="#000000" font-family="sans-serif" font-size="13" font-weight="bold" lengthAdjust="spacing" textLength="119" x="170" y="95.4966">Get Team Name</text><polygon fill="#181818" points="480.5,116.6953,490.5,120.6953,480.5,124.6953,484.5,120.6953" style="stroke:#181818;stroke-width:1.0;"/><line style="stroke:#181818;stroke-width:1.0;" x1="270" x2="486.5" y1="120.6953" y2="120.6953"/><text fill="#000000" font-family="sans-serif" font-size="13" font-weight="bold" lengthAdjust="spacing" textLength="23" x="277" y="115.6294">2.1</text><text fill="#000000" font-family="sans-serif" font-size="13" lengthAdjust="spacing" textLength="148" x="304" y="115.6294">getTeamName(objDto)</text><path d="M275,133.6953 L275,158.6953 L407,158.6953 L407,143.6953 L397,133.6953 L275,133.6953 " fill="#FAFAFA" style="stroke:#181818;stroke-width:0.5;"/><path d="M397,133.6953 L397,143.6953 L407,143.6953 L397,133.6953 " fill="#FAFAFA" style="stroke:#181818;stroke-width:0.5;"/><text fill="#000000" font-family="sans-serif" font-size="13" lengthAdjust="spacing" textLength="111" x="281" y="150.7622">stringTeamName</text><polygon fill="#181818" points="672.5,180.9609,682.5,184.9609,672.5,188.9609,676.5,184.9609" style="stroke:#181818;stroke-width:1.0;"/><line style="stroke:#181818;stroke-width:1.0;" x1="502.5" x2="678.5" y1="184.9609" y2="184.9609"/><text fill="#000000" font-family="sans-serif" font-size="13" font-weight="bold" lengthAdjust="spacing" textLength="23" x="509.5" y="179.895">2.2</text><text fill="#000000" font-family="sans-serif" font-size="13" lengthAdjust="spacing" textLength="136" x="536.5" y="179.895">extractName(objDto)</text><path d="M507,197.9609 L507,222.9609 L639,222.9609 L639,207.9609 L629,197.9609 L507,197.9609 " fill="#FAFAFA" style="stroke:#181818;stroke-width:0.5;"/><path d="M629,197.9609 L629,207.9609 L639,207.9609 L629,197.9609 " fill="#FAFAFA" style="stroke:#181818;stroke-width:0.5;"/><text fill="#000000" font-family="sans-serif" font-size="13" lengthAdjust="spacing" textLength="111" x="513" y="215.0278">stringTeamName</text><polygon fill="#181818" points="926.5,245.2266,936.5,249.2266,926.5,253.2266,930.5,249.2266" style="stroke:#181818;stroke-width:1.0;"/><line style="stroke:#181818;stroke-width:1.0;" x1="694.5" x2="932.5" y1="249.2266" y2="249.2266"/><text fill="#000000" font-family="sans-serif" font-size="13" font-weight="bold" lengthAdjust="spacing" textLength="23" x="701.5" y="244.1606">2.3</text><text fill="#000000" font-family="sans-serif" font-size="13" lengthAdjust="spacing" textLength="198" x="728.5" y="244.1606">teamName = getTeamName()</text><polygon fill="#181818" points="513.5,304.3594,503.5,308.3594,513.5,312.3594,509.5,308.3594" style="stroke:#181818;stroke-width:1.0;"/><line style="stroke:#181818;stroke-width:1.0;" x1="507.5" x2="688.5" y1="308.3594" y2="308.3594"/><text fill="#000000" font-family="sans-serif" font-size="13" font-weight="bold" lengthAdjust="spacing" textLength="23" x="519.5" y="303.2935">2.4</text><text fill="#000000" font-family="sans-serif" font-size="13" lengthAdjust="spacing" textLength="73" x="546.5" y="303.2935">teamName</text><polygon fill="#181818" points="281,333.4922,271,337.4922,281,341.4922,277,337.4922" style="stroke:#181818;stroke-width:1.0;"/><line style="stroke:#181818;stroke-width:1.0;" x1="275" x2="496.5" y1="337.4922" y2="337.4922"/><text fill="#000000" font-family="sans-serif" font-size="13" font-weight="bold" lengthAdjust="spacing" textLength="23" x="287" y="332.4263">2.5</text><text fill="#000000" font-family="sans-serif" font-size="13" lengthAdjust="spacing" textLength="73" x="314" y="332.4263">teamName</text><!--SRC=[dLB1JiCm3BttAwoTc0H8x3W9BXlY0Xp6nDthl2wiZQl4PUplSTAqspe14ZcqzOkVtyjB_SxO6XrMKB7bVEku8X3NKERxdHhp7HRq9eUIm54kQ8lojC5lSSrxOmlOOEafonGMaviQhS1e-cveFoT1K_f7A-umOtroMP8R0NgOBHVFam5dILWjg6PlXDrXUbv6LWSDnGB-WdMTXX_BypvUVSo5OxU- -rRzpiAwUMXjmLHtl2bis5noj7_LSg-1GgLVummROTjKAt8mkRtBC1VpYKBfQ8NZfeOdaYW1hrXHq01ThOYgTSTHmO8aLA4jIOrZhsMTw4on5U1D6WrfUN4QVqUBCDbrfCIYTtICBS2zQdBG9gKUw4kSSlxmq0_xburqBRsH99wigAJwa3GAxizY6LzE2pSNm3LTm3yefBZbrEs0FRJOPTNz6xznsvJr-E6klm40]--></g></svg>