<?xml version="1.0" encoding="us-ascii" standalone="no"?><svg xmlns="http://www.w3.org/2000/svg" xmlns:xlink="http://www.w3.org/1999/xlink" contentStyleType="text/css" height="1495px" preserveAspectRatio="none" style="width:3702px;height:1495px;background:#FFFFFF;" version="1.1" viewBox="0 0 3702 1495" width="3702px" zoomAndPan="magnify"><defs/><g><rect fill="#FFFFFF" height="1313.9219" style="stroke:#181818;stroke-width:1.0;" width="10" x="19" y="91.2969"/><rect fill="#FFFFFF" height="1225.7188" style="stroke:#181818;stroke-width:1.0;" width="10" x="392" y="170.5"/><rect fill="#FFFFFF" height="1167.4531" style="stroke:#181818;stroke-width:1.0;" width="10" x="675" y="199.6328"/><rect fill="#FFFFFF" height="216.7969" style="stroke:#181818;stroke-width:1.0;" width="10" x="914" y="329.2969"/><rect fill="#FFFFFF" height="29.1328" style="stroke:#181818;stroke-width:1.0;" width="10" x="914" y="575.2266"/><rect fill="#FFFFFF" height="123.3984" style="stroke:#181818;stroke-width:1.0;" width="10" x="1101.5" y="393.5625"/><rect fill="#FFFFFF" height="30" style="stroke:#181818;stroke-width:1.0;" width="10" x="1341.5" y="457.8281"/><rect fill="#FFFFFF" height="704.4609" style="stroke:#181818;stroke-width:1.0;" width="10" x="1534.5" y="633.4922"/><rect fill="#FFFFFF" height="29.1328" style="stroke:#181818;stroke-width:1.0;" width="10" x="1539.5" y="750.8906"/><rect fill="#FFFFFF" height="646.1953" style="stroke:#181818;stroke-width:1.0;" width="10" x="1859.5" y="662.625"/><rect fill="#FFFFFF" height="30" style="stroke:#181818;stroke-width:1.0;" width="10" x="2085.5" y="691.7578"/><rect fill="#FFFFFF" height="470.5313" style="stroke:#181818;stroke-width:1.0;" width="10" x="2209.5" y="809.1563"/><rect fill="#FFFFFF" height="370.1328" style="stroke:#181818;stroke-width:1.0;" width="10" x="2485.5" y="880.4219"/><rect fill="#FFFFFF" height="29.1328" style="stroke:#181818;stroke-width:1.0;" width="10" x="2633.5" y="933.6875"/><rect fill="#FFFFFF" height="230.4688" style="stroke:#181818;stroke-width:1.0;" width="10" x="2804.5" y="991.9531"/><rect fill="#FFFFFF" height="29.1328" style="stroke:#181818;stroke-width:1.0;" width="10" x="2968.5" y="1021.0859"/><rect fill="#FFFFFF" height="30" style="stroke:#181818;stroke-width:1.0;" width="10" x="3479.5" y="1103.4844"/><rect fill="#FFFFFF" height="30" style="stroke:#181818;stroke-width:1.0;" width="10" x="3607" y="1177.4219"/><rect fill="none" height="327" style="stroke:#000000;stroke-width:1.5;" width="1262" x="2434" y="895.4219"/><rect fill="none" height="150.2031" style="stroke:#000000;stroke-width:1.5;" width="939" x="2747" y="1065.2188"/><line style="stroke:#181818;stroke-width:0.5;stroke-dasharray:5.0,5.0;" x1="24" x2="24" y1="81.2969" y2="1414.2188"/><line style="stroke:#181818;stroke-width:0.5;stroke-dasharray:5.0,5.0;" x1="397" x2="397" y1="81.2969" y2="1414.2188"/><line style="stroke:#181818;stroke-width:0.5;stroke-dasharray:5.0,5.0;" x1="680" x2="680" y1="81.2969" y2="1414.2188"/><line style="stroke:#181818;stroke-width:0.5;stroke-dasharray:5.0,5.0;" x1="918.5" x2="918.5" y1="81.2969" y2="1414.2188"/><line style="stroke:#181818;stroke-width:0.5;stroke-dasharray:5.0,5.0;" x1="1106.5" x2="1106.5" y1="81.2969" y2="1414.2188"/><line style="stroke:#181818;stroke-width:0.5;stroke-dasharray:5.0,5.0;" x1="1346" x2="1346" y1="81.2969" y2="1414.2188"/><line style="stroke:#181818;stroke-width:0.5;stroke-dasharray:5.0,5.0;" x1="1539" x2="1539" y1="81.2969" y2="1414.2188"/><line style="stroke:#181818;stroke-width:0.5;stroke-dasharray:5.0,5.0;" x1="1864.5" x2="1864.5" y1="81.2969" y2="1414.2188"/><line style="stroke:#181818;stroke-width:0.5;stroke-dasharray:5.0,5.0;" x1="2090" x2="2090" y1="81.2969" y2="1414.2188"/><line style="stroke:#181818;stroke-width:0.5;stroke-dasharray:5.0,5.0;" x1="2214" x2="2214" y1="81.2969" y2="1414.2188"/><line style="stroke:#181818;stroke-width:0.5;stroke-dasharray:5.0,5.0;" x1="2490" x2="2490" y1="81.2969" y2="1414.2188"/><line style="stroke:#181818;stroke-width:0.5;stroke-dasharray:5.0,5.0;" x1="2638" x2="2638" y1="81.2969" y2="1414.2188"/><line style="stroke:#181818;stroke-width:0.5;stroke-dasharray:5.0,5.0;" x1="2809" x2="2809" y1="81.2969" y2="1414.2188"/><line style="stroke:#181818;stroke-width:0.5;stroke-dasharray:5.0,5.0;" x1="2973" x2="2973" y1="81.2969" y2="1414.2188"/><line style="stroke:#181818;stroke-width:0.5;stroke-dasharray:5.0,5.0;" x1="3484" x2="3484" y1="81.2969" y2="1414.2188"/><line style="stroke:#181818;stroke-width:0.5;stroke-dasharray:5.0,5.0;" x1="3612" x2="3612" y1="81.2969" y2="1414.2188"/><text fill="#000000" font-family="sans-serif" font-size="14" lengthAdjust="spacing" textLength="32" x="5" y="77.9951">GSM</text><ellipse cx="24" cy="13.5" fill="#E3E3E3" rx="8" ry="8" style="stroke:#181818;stroke-width:0.5;"/><path d="M24,21.5 L24,48.5 M11,29.5 L37,29.5 M24,48.5 L11,63.5 M24,48.5 L37,63.5 " fill="none" style="stroke:#181818;stroke-width:0.5;"/><text fill="#000000" font-family="sans-serif" font-size="14" lengthAdjust="spacing" textLength="32" x="5" y="1426.2139">GSM</text><ellipse cx="24" cy="1438.0156" fill="#E3E3E3" rx="8" ry="8" style="stroke:#181818;stroke-width:0.5;"/><path d="M24,1446.0156 L24,1473.0156 M11,1454.0156 L37,1454.0156 M24,1473.0156 L11,1488.0156 M24,1473.0156 L37,1488.0156 " fill="none" style="stroke:#181818;stroke-width:0.5;"/><rect fill="#E3E3E3" height="30.2969" rx="2.5" ry="2.5" style="stroke:#181818;stroke-width:0.5;" width="146" x="324" y="50"/><text fill="#000000" font-family="sans-serif" font-size="14" lengthAdjust="spacing" textLength="132" x="331" y="69.9951">:ViewDetailsEntryUI</text><rect fill="#E3E3E3" height="30.2969" rx="2.5" ry="2.5" style="stroke:#181818;stroke-width:0.5;" width="146" x="324" y="1413.2188"/><text fill="#000000" font-family="sans-serif" font-size="14" lengthAdjust="spacing" textLength="132" x="331" y="1433.2139">:ViewDetailsEntryUI</text><rect fill="#E3E3E3" height="30.2969" rx="2.5" ry="2.5" style="stroke:#181818;stroke-width:0.5;" width="200" x="580" y="50"/><text fill="#000000" font-family="sans-serif" font-size="14" lengthAdjust="spacing" textLength="186" x="587" y="69.9951">:ViewDetailsEntryController</text><rect fill="#E3E3E3" height="30.2969" rx="2.5" ry="2.5" style="stroke:#181818;stroke-width:0.5;" width="200" x="580" y="1413.2188"/><text fill="#000000" font-family="sans-serif" font-size="14" lengthAdjust="spacing" textLength="186" x="587" y="1433.2139">:ViewDetailsEntryController</text><rect fill="#E3E3E3" height="30.2969" rx="2.5" ry="2.5" style="stroke:#181818;stroke-width:0.5;" width="245" x="796.5" y="50"/><text fill="#000000" font-family="sans-serif" font-size="14" lengthAdjust="spacing" textLength="231" x="803.5" y="69.9951">TeamRepository:TeamRepository</text><rect fill="#E3E3E3" height="30.2969" rx="2.5" ry="2.5" style="stroke:#181818;stroke-width:0.5;" width="245" x="796.5" y="1413.2188"/><text fill="#000000" font-family="sans-serif" font-size="14" lengthAdjust="spacing" textLength="231" x="803.5" y="1433.2139">TeamRepository:TeamRepository</text><rect fill="#E3E3E3" height="30.2969" rx="2.5" ry="2.5" style="stroke:#181818;stroke-width:0.5;" width="110" x="1051.5" y="50"/><text fill="#000000" font-family="sans-serif" font-size="14" lengthAdjust="spacing" textLength="96" x="1058.5" y="69.9951">:TeamMapper</text><rect fill="#E3E3E3" height="30.2969" rx="2.5" ry="2.5" style="stroke:#181818;stroke-width:0.5;" width="110" x="1051.5" y="1413.2188"/><text fill="#000000" font-family="sans-serif" font-size="14" lengthAdjust="spacing" textLength="96" x="1058.5" y="1433.2139">:TeamMapper</text><rect fill="#E3E3E3" height="30.2969" rx="2.5" ry="2.5" style="stroke:#181818;stroke-width:0.5;" width="129" x="1282" y="50"/><text fill="#000000" font-family="sans-serif" font-size="14" lengthAdjust="spacing" textLength="115" x="1289" y="69.9951">objDto:TeamDto</text><rect fill="#E3E3E3" height="30.2969" rx="2.5" ry="2.5" style="stroke:#181818;stroke-width:0.5;" width="129" x="1282" y="1413.2188"/><text fill="#000000" font-family="sans-serif" font-size="14" lengthAdjust="spacing" textLength="115" x="1289" y="1433.2139">objDto:TeamDto</text><rect fill="#E3E3E3" height="30.2969" rx="2.5" ry="2.5" style="stroke:#181818;stroke-width:0.5;" width="237" x="1421" y="50"/><text fill="#000000" font-family="sans-serif" font-size="14" lengthAdjust="spacing" textLength="223" x="1428" y="69.9951">entryRepository:EntryRepository</text><rect fill="#E3E3E3" height="30.2969" rx="2.5" ry="2.5" style="stroke:#181818;stroke-width:0.5;" width="237" x="1421" y="1413.2188"/><text fill="#000000" font-family="sans-serif" font-size="14" lengthAdjust="spacing" textLength="223" x="1428" y="1433.2139">entryRepository:EntryRepository</text><rect fill="#E3E3E3" height="30.2969" rx="2.5" ry="2.5" style="stroke:#181818;stroke-width:0.5;" width="106" x="1811.5" y="50"/><text fill="#000000" font-family="sans-serif" font-size="14" lengthAdjust="spacing" textLength="92" x="1818.5" y="69.9951">:EntryMapper</text><rect fill="#E3E3E3" height="30.2969" rx="2.5" ry="2.5" style="stroke:#181818;stroke-width:0.5;" width="106" x="1811.5" y="1413.2188"/><text fill="#000000" font-family="sans-serif" font-size="14" lengthAdjust="spacing" textLength="92" x="1818.5" y="1433.2139">:EntryMapper</text><rect fill="#E3E3E3" height="30.2969" rx="2.5" ry="2.5" style="stroke:#181818;stroke-width:0.5;" width="139" x="2021" y="50"/><text fill="#000000" font-family="sans-serif" font-size="14" lengthAdjust="spacing" textLength="125" x="2028" y="69.9951">entryDto:EntryDto</text><rect fill="#E3E3E3" height="30.2969" rx="2.5" ry="2.5" style="stroke:#181818;stroke-width:0.5;" width="139" x="2021" y="1413.2188"/><text fill="#000000" font-family="sans-serif" font-size="14" lengthAdjust="spacing" textLength="125" x="2028" y="1433.2139">entryDto:EntryDto</text><rect fill="#E3E3E3" height="30.2969" rx="2.5" ry="2.5" style="stroke:#181818;stroke-width:0.5;" width="89" x="2170" y="50"/><text fill="#000000" font-family="sans-serif" font-size="14" lengthAdjust="spacing" textLength="75" x="2177" y="69.9951">entry:Entry</text><rect fill="#E3E3E3" height="30.2969" rx="2.5" ry="2.5" style="stroke:#181818;stroke-width:0.5;" width="89" x="2170" y="1413.2188"/><text fill="#000000" font-family="sans-serif" font-size="14" lengthAdjust="spacing" textLength="75" x="2177" y="1433.2139">entry:Entry</text><rect fill="#E3E3E3" height="30.2969" rx="2.5" ry="2.5" style="stroke:#181818;stroke-width:0.5;" width="93" x="2444" y="50"/><text fill="#000000" font-family="sans-serif" font-size="14" lengthAdjust="spacing" textLength="79" x="2451" y="69.9951">team:Team</text><rect fill="#E3E3E3" height="30.2969" rx="2.5" ry="2.5" style="stroke:#181818;stroke-width:0.5;" width="93" x="2444" y="1413.2188"/><text fill="#000000" font-family="sans-serif" font-size="14" lengthAdjust="spacing" textLength="79" x="2451" y="1433.2139">team:Team</text><rect fill="#E3E3E3" height="30.2969" rx="2.5" ry="2.5" style="stroke:#181818;stroke-width:0.5;" width="183" x="2547" y="50"/><text fill="#000000" font-family="sans-serif" font-size="14" lengthAdjust="spacing" textLength="169" x="2554" y="69.9951">collaborator:Collaborator</text><rect fill="#E3E3E3" height="30.2969" rx="2.5" ry="2.5" style="stroke:#181818;stroke-width:0.5;" width="183" x="2547" y="1413.2188"/><text fill="#000000" font-family="sans-serif" font-size="14" lengthAdjust="spacing" textLength="169" x="2554" y="1433.2139">collaborator:Collaborator</text><rect fill="#E3E3E3" height="30.2969" rx="2.5" ry="2.5" style="stroke:#181818;stroke-width:0.5;" width="105" x="2757" y="50"/><text fill="#000000" font-family="sans-serif" font-size="14" lengthAdjust="spacing" textLength="91" x="2764" y="69.9951">:EmailService</text><rect fill="#E3E3E3" height="30.2969" rx="2.5" ry="2.5" style="stroke:#181818;stroke-width:0.5;" width="105" x="2757" y="1413.2188"/><text fill="#000000" font-family="sans-serif" font-size="14" lengthAdjust="spacing" textLength="91" x="2764" y="1433.2139">:EmailService</text><rect fill="#E3E3E3" height="30.2969" rx="2.5" ry="2.5" style="stroke:#181818;stroke-width:0.5;" width="149" x="2899" y="50"/><text fill="#000000" font-family="sans-serif" font-size="14" lengthAdjust="spacing" textLength="135" x="2906" y="69.9951">:ApplicationSession</text><rect fill="#E3E3E3" height="30.2969" rx="2.5" ry="2.5" style="stroke:#181818;stroke-width:0.5;" width="149" x="2899" y="1413.2188"/><text fill="#000000" font-family="sans-serif" font-size="14" lengthAdjust="spacing" textLength="135" x="2906" y="1433.2139">:ApplicationSession</text><rect fill="#E3E3E3" height="30.2969" rx="2.5" ry="2.5" style="stroke:#181818;stroke-width:0.5;" width="107" x="3431" y="50"/><text fill="#000000" font-family="sans-serif" font-size="14" lengthAdjust="spacing" textLength="93" x="3438" y="69.9951">:GmailService</text><rect fill="#E3E3E3" height="30.2969" rx="2.5" ry="2.5" style="stroke:#181818;stroke-width:0.5;" width="107" x="3431" y="1413.2188"/><text fill="#000000" font-family="sans-serif" font-size="14" lengthAdjust="spacing" textLength="93" x="3438" y="1433.2139">:GmailService</text><rect fill="#E3E3E3" height="30.2969" rx="2.5" ry="2.5" style="stroke:#181818;stroke-width:0.5;" width="128" x="3548" y="50"/><text fill="#000000" font-family="sans-serif" font-size="14" lengthAdjust="spacing" textLength="114" x="3555" y="69.9951">:DeiEmailService</text><rect fill="#E3E3E3" height="30.2969" rx="2.5" ry="2.5" style="stroke:#181818;stroke-width:0.5;" width="128" x="3548" y="1413.2188"/><text fill="#000000" font-family="sans-serif" font-size="14" lengthAdjust="spacing" textLength="114" x="3555" y="1433.2139">:DeiEmailService</text><rect fill="#FFFFFF" height="1313.9219" style="stroke:#181818;stroke-width:1.0;" width="10" x="19" y="91.2969"/><rect fill="#FFFFFF" height="1225.7188" style="stroke:#181818;stroke-width:1.0;" width="10" x="392" y="170.5"/><rect fill="#FFFFFF" height="1167.4531" style="stroke:#181818;stroke-width:1.0;" width="10" x="675" y="199.6328"/><rect fill="#FFFFFF" height="216.7969" style="stroke:#181818;stroke-width:1.0;" width="10" x="914" y="329.2969"/><rect fill="#FFFFFF" height="29.1328" style="stroke:#181818;stroke-width:1.0;" width="10" x="914" y="575.2266"/><rect fill="#FFFFFF" height="123.3984" style="stroke:#181818;stroke-width:1.0;" width="10" x="1101.5" y="393.5625"/><rect fill="#FFFFFF" height="30" style="stroke:#181818;stroke-width:1.0;" width="10" x="1341.5" y="457.8281"/><rect fill="#FFFFFF" height="704.4609" style="stroke:#181818;stroke-width:1.0;" width="10" x="1534.5" y="633.4922"/><rect fill="#FFFFFF" height="29.1328" style="stroke:#181818;stroke-width:1.0;" width="10" x="1539.5" y="750.8906"/><rect fill="#FFFFFF" height="646.1953" style="stroke:#181818;stroke-width:1.0;" width="10" x="1859.5" y="662.625"/><rect fill="#FFFFFF" height="30" style="stroke:#181818;stroke-width:1.0;" width="10" x="2085.5" y="691.7578"/><rect fill="#FFFFFF" height="470.5313" style="stroke:#181818;stroke-width:1.0;" width="10" x="2209.5" y="809.1563"/><rect fill="#FFFFFF" height="370.1328" style="stroke:#181818;stroke-width:1.0;" width="10" x="2485.5" y="880.4219"/><rect fill="#FFFFFF" height="29.1328" style="stroke:#181818;stroke-width:1.0;" width="10" x="2633.5" y="933.6875"/><rect fill="#FFFFFF" height="230.4688" style="stroke:#181818;stroke-width:1.0;" width="10" x="2804.5" y="991.9531"/><rect fill="#FFFFFF" height="29.1328" style="stroke:#181818;stroke-width:1.0;" width="10" x="2968.5" y="1021.0859"/><rect fill="#FFFFFF" height="30" style="stroke:#181818;stroke-width:1.0;" width="10" x="3479.5" y="1103.4844"/><rect fill="#FFFFFF" height="30" style="stroke:#181818;stroke-width:1.0;" width="10" x="3607" y="1177.4219"/><rect fill="none" height="53.0703" style="stroke:#000000;stroke-width:1.5;" width="242" x="2" y="91.2969"/><path d="M2,91.2969 L68,91.2969 L68,98.2969 L58,108.2969 L2,108.2969 L2,91.2969 " fill="#EEEEEE" style="stroke:#000000;stroke-width:2.0;"/><text fill="#000000" font-family="sans-serif" font-size="13" font-weight="bold" lengthAdjust="spacing" textLength="21" x="15" y="105.3638">ref</text><text fill="#000000" font-family="sans-serif" font-size="12" lengthAdjust="spacing" textLength="234" x="6" y="123.4355">Get details and management options</text><text fill="#000000" font-family="sans-serif" font-size="12" lengthAdjust="spacing" textLength="215" x="17.5" y="137.4043">of a selected entry on the agenda</text><polygon fill="#181818" points="380,166.5,390,170.5,380,174.5,384,170.5" style="stroke:#181818;stroke-width:1.0;"/><line style="stroke:#181818;stroke-width:1.0;" x1="29" x2="386" y1="170.5" y2="170.5"/><text fill="#000000" font-family="sans-serif" font-size="13" font-weight="bold" lengthAdjust="spacing" textLength="9" x="36" y="165.4341">1</text><text fill="#000000" font-family="sans-serif" font-size="13" lengthAdjust="spacing" textLength="331" x="49" y="165.4341">Selects a Team and Assigns it to the Selected Entry</text><polygon fill="#181818" points="663,195.6328,673,199.6328,663,203.6328,667,199.6328" style="stroke:#181818;stroke-width:1.0;"/><line style="stroke:#181818;stroke-width:1.0;" x1="402" x2="669" y1="199.6328" y2="199.6328"/><text fill="#000000" font-family="sans-serif" font-size="13" font-weight="bold" lengthAdjust="spacing" textLength="9" x="409" y="194.5669">2</text><text fill="#000000" font-family="sans-serif" font-size="13" lengthAdjust="spacing" textLength="241" x="422" y="194.5669">assignTeamToEntry(objDto, entryDto)</text><path d="M407,212.6328 L407,267.6328 L948,267.6328 L948,222.6328 L938,212.6328 L407,212.6328 " fill="#FAFAFA" style="stroke:#181818;stroke-width:0.5;"/><path d="M938,212.6328 L938,222.6328 L948,222.6328 L938,212.6328 " fill="#FAFAFA" style="stroke:#181818;stroke-width:0.5;"/><text fill="#000000" font-family="sans-serif" font-size="13" lengthAdjust="spacing" textLength="333" x="413" y="229.6997">Remember that in the previous referenced diagram,</text><text fill="#000000" font-family="sans-serif" font-size="13" lengthAdjust="spacing" textLength="326" x="413" y="244.8325">ViewDetailsUI received entryDto from AgendaUI via</text><text fill="#000000" font-family="sans-serif" font-size="13" lengthAdjust="spacing" textLength="520" x="413" y="259.9653">showEntryDetails and will continue to use it via this method: "assignTeamToEntry"</text><path d="M407,278.0313 L407,303.0313 L655,303.0313 L655,288.0313 L645,278.0313 L407,278.0313 " fill="#FAFAFA" style="stroke:#181818;stroke-width:0.5;"/><path d="M645,278.0313 L645,288.0313 L655,288.0313 L645,278.0313 " fill="#FAFAFA" style="stroke:#181818;stroke-width:0.5;"/><text fill="#000000" font-family="sans-serif" font-size="13" lengthAdjust="spacing" textLength="227" x="413" y="295.0981">stringTeamName, objSelectedEntry</text><polygon fill="#181818" points="902,325.2969,912,329.2969,902,333.2969,906,329.2969" style="stroke:#181818;stroke-width:1.0;"/><line style="stroke:#181818;stroke-width:1.0;" x1="685" x2="908" y1="329.2969" y2="329.2969"/><text fill="#000000" font-family="sans-serif" font-size="13" font-weight="bold" lengthAdjust="spacing" textLength="9" x="692" y="324.231">3</text><text fill="#000000" font-family="sans-serif" font-size="13" lengthAdjust="spacing" textLength="148" x="705" y="324.231">getTeamName(objDto)</text><path d="M690,342.2969 L690,367.2969 L822,367.2969 L822,352.2969 L812,342.2969 L690,342.2969 " fill="#FAFAFA" style="stroke:#181818;stroke-width:0.5;"/><path d="M812,342.2969 L812,352.2969 L822,352.2969 L812,342.2969 " fill="#FAFAFA" style="stroke:#181818;stroke-width:0.5;"/><text fill="#000000" font-family="sans-serif" font-size="13" lengthAdjust="spacing" textLength="111" x="696" y="359.3638">stringTeamName</text><polygon fill="#181818" points="1089.5,389.5625,1099.5,393.5625,1089.5,397.5625,1093.5,393.5625" style="stroke:#181818;stroke-width:1.0;"/><line style="stroke:#181818;stroke-width:1.0;" x1="924" x2="1095.5" y1="393.5625" y2="393.5625"/><text fill="#000000" font-family="sans-serif" font-size="13" font-weight="bold" lengthAdjust="spacing" textLength="9" x="931" y="388.4966">4</text><text fill="#000000" font-family="sans-serif" font-size="13" lengthAdjust="spacing" textLength="136" x="944" y="388.4966">extractName(objDto)</text><path d="M929,406.5625 L929,431.5625 L1061,431.5625 L1061,416.5625 L1051,406.5625 L929,406.5625 " fill="#FAFAFA" style="stroke:#181818;stroke-width:0.5;"/><path d="M1051,406.5625 L1051,416.5625 L1061,416.5625 L1051,406.5625 " fill="#FAFAFA" style="stroke:#181818;stroke-width:0.5;"/><text fill="#000000" font-family="sans-serif" font-size="13" lengthAdjust="spacing" textLength="111" x="935" y="423.6294">stringTeamName</text><polygon fill="#181818" points="1329.5,453.8281,1339.5,457.8281,1329.5,461.8281,1333.5,457.8281" style="stroke:#181818;stroke-width:1.0;"/><line style="stroke:#181818;stroke-width:1.0;" x1="1111.5" x2="1335.5" y1="457.8281" y2="457.8281"/><text fill="#000000" font-family="sans-serif" font-size="13" font-weight="bold" lengthAdjust="spacing" textLength="9" x="1118.5" y="452.7622">5</text><text fill="#000000" font-family="sans-serif" font-size="13" lengthAdjust="spacing" textLength="198" x="1131.5" y="452.7622">teamName = getTeamName()</text><polygon fill="#181818" points="935,512.9609,925,516.9609,935,520.9609,931,516.9609" style="stroke:#181818;stroke-width:1.0;"/><line style="stroke:#181818;stroke-width:1.0;" x1="929" x2="1105.5" y1="516.9609" y2="516.9609"/><text fill="#000000" font-family="sans-serif" font-size="13" font-weight="bold" lengthAdjust="spacing" textLength="9" x="941" y="511.895">6</text><text fill="#000000" font-family="sans-serif" font-size="13" lengthAdjust="spacing" textLength="73" x="954" y="511.895">teamName</text><polygon fill="#181818" points="696,542.0938,686,546.0938,696,550.0938,692,546.0938" style="stroke:#181818;stroke-width:1.0;"/><line style="stroke:#181818;stroke-width:1.0;" x1="690" x2="918" y1="546.0938" y2="546.0938"/><text fill="#000000" font-family="sans-serif" font-size="13" font-weight="bold" lengthAdjust="spacing" textLength="9" x="702" y="541.0278">7</text><text fill="#000000" font-family="sans-serif" font-size="13" lengthAdjust="spacing" textLength="73" x="715" y="541.0278">teamName</text><polygon fill="#181818" points="902,571.2266,912,575.2266,902,579.2266,906,575.2266" style="stroke:#181818;stroke-width:1.0;"/><line style="stroke:#181818;stroke-width:1.0;" x1="685" x2="908" y1="575.2266" y2="575.2266"/><text fill="#000000" font-family="sans-serif" font-size="13" font-weight="bold" lengthAdjust="spacing" textLength="9" x="692" y="570.1606">8</text><text fill="#000000" font-family="sans-serif" font-size="13" lengthAdjust="spacing" textLength="197" x="705" y="570.1606">findTeamByName(teamName)</text><polygon fill="#181818" points="696,600.3594,686,604.3594,696,608.3594,692,604.3594" style="stroke:#181818;stroke-width:1.0;"/><line style="stroke:#181818;stroke-width:1.0;" x1="690" x2="918" y1="604.3594" y2="604.3594"/><text fill="#000000" font-family="sans-serif" font-size="13" font-weight="bold" lengthAdjust="spacing" textLength="9" x="702" y="599.2935">9</text><text fill="#000000" font-family="sans-serif" font-size="13" lengthAdjust="spacing" textLength="34" x="715" y="599.2935">team</text><polygon fill="#181818" points="1522.5,629.4922,1532.5,633.4922,1522.5,637.4922,1526.5,633.4922" style="stroke:#181818;stroke-width:1.0;"/><line style="stroke:#181818;stroke-width:1.0;" x1="685" x2="1528.5" y1="633.4922" y2="633.4922"/><text fill="#000000" font-family="sans-serif" font-size="13" font-weight="bold" lengthAdjust="spacing" textLength="18" x="692" y="628.4263">10</text><text fill="#000000" font-family="sans-serif" font-size="13" lengthAdjust="spacing" textLength="233" x="714" y="628.4263">assignTeamToEntry(team, entryDto)</text><polygon fill="#181818" points="1847.5,658.625,1857.5,662.625,1847.5,666.625,1851.5,662.625" style="stroke:#181818;stroke-width:1.0;"/><line style="stroke:#181818;stroke-width:1.0;" x1="1544.5" x2="1853.5" y1="662.625" y2="662.625"/><text fill="#000000" font-family="sans-serif" font-size="13" font-weight="bold" lengthAdjust="spacing" textLength="18" x="1551.5" y="657.5591">11</text><text fill="#000000" font-family="sans-serif" font-size="13" lengthAdjust="spacing" textLength="274" x="1573.5" y="657.5591">toDomainAndAssignTeam(team, entryDto)</text><polygon fill="#181818" points="2073.5,687.7578,2083.5,691.7578,2073.5,695.7578,2077.5,691.7578" style="stroke:#181818;stroke-width:1.0;"/><line style="stroke:#181818;stroke-width:1.0;" x1="1869.5" x2="2079.5" y1="691.7578" y2="691.7578"/><text fill="#000000" font-family="sans-serif" font-size="13" font-weight="bold" lengthAdjust="spacing" textLength="18" x="1876.5" y="686.6919">12</text><text fill="#000000" font-family="sans-serif" font-size="13" lengthAdjust="spacing" textLength="175" x="1898.5" y="686.6919">reference = getReference()</text><polygon fill="#181818" points="1560.5,746.8906,1550.5,750.8906,1560.5,754.8906,1556.5,750.8906" style="stroke:#181818;stroke-width:1.0;"/><line style="stroke:#181818;stroke-width:1.0;" x1="1554.5" x2="1858.5" y1="750.8906" y2="750.8906"/><text fill="#000000" font-family="sans-serif" font-size="13" font-weight="bold" lengthAdjust="spacing" textLength="18" x="1566.5" y="745.8247">13</text><text fill="#000000" font-family="sans-serif" font-size="13" lengthAdjust="spacing" textLength="207" x="1588.5" y="745.8247">findEntryByReference(reference)</text><polygon fill="#181818" points="1847.5,776.0234,1857.5,780.0234,1847.5,784.0234,1851.5,780.0234" style="stroke:#181818;stroke-width:1.0;"/><line style="stroke:#181818;stroke-width:1.0;" x1="1544.5" x2="1853.5" y1="780.0234" y2="780.0234"/><text fill="#000000" font-family="sans-serif" font-size="13" font-weight="bold" lengthAdjust="spacing" textLength="18" x="1551.5" y="774.9575">14</text><text fill="#000000" font-family="sans-serif" font-size="13" lengthAdjust="spacing" textLength="33" x="1573.5" y="774.9575">entry</text><polygon fill="#181818" points="2197.5,805.1563,2207.5,809.1563,2197.5,813.1563,2201.5,809.1563" style="stroke:#181818;stroke-width:1.0;"/><line style="stroke:#181818;stroke-width:1.0;" x1="1869.5" x2="2203.5" y1="809.1563" y2="809.1563"/><text fill="#000000" font-family="sans-serif" font-size="13" font-weight="bold" lengthAdjust="spacing" textLength="18" x="1876.5" y="804.0903">15</text><text fill="#000000" font-family="sans-serif" font-size="13" lengthAdjust="spacing" textLength="121" x="1898.5" y="804.0903">assignTeam(team)</text><line style="stroke:#181818;stroke-width:1.0;" x1="2219.5" x2="2261.5" y1="838.2891" y2="838.2891"/><line style="stroke:#181818;stroke-width:1.0;" x1="2261.5" x2="2261.5" y1="838.2891" y2="851.2891"/><line style="stroke:#181818;stroke-width:1.0;" x1="2220.5" x2="2261.5" y1="851.2891" y2="851.2891"/><polygon fill="#181818" points="2230.5,847.2891,2220.5,851.2891,2230.5,855.2891,2226.5,851.2891" style="stroke:#181818;stroke-width:1.0;"/><text fill="#000000" font-family="sans-serif" font-size="13" font-weight="bold" lengthAdjust="spacing" textLength="18" x="2226.5" y="833.2231">16</text><text fill="#000000" font-family="sans-serif" font-size="13" lengthAdjust="spacing" textLength="158" x="2248.5" y="833.2231">setTeamAssigned(team)</text><polygon fill="#181818" points="2473.5,876.4219,2483.5,880.4219,2473.5,884.4219,2477.5,880.4219" style="stroke:#181818;stroke-width:1.0;"/><line style="stroke:#181818;stroke-width:1.0;" x1="2219.5" x2="2479.5" y1="880.4219" y2="880.4219"/><text fill="#000000" font-family="sans-serif" font-size="13" font-weight="bold" lengthAdjust="spacing" textLength="18" x="2226.5" y="875.356">17</text><text fill="#000000" font-family="sans-serif" font-size="13" lengthAdjust="spacing" textLength="225" x="2248.5" y="875.356">sendToEmailFile(subject, message)</text><path d="M2434,895.4219 L2511,895.4219 L2511,902.5547 L2501,912.5547 L2434,912.5547 L2434,895.4219 " fill="#EEEEEE" style="stroke:#000000;stroke-width:1.5;"/><rect fill="none" height="327" style="stroke:#000000;stroke-width:1.5;" width="1262" x="2434" y="895.4219"/><text fill="#000000" font-family="sans-serif" font-size="13" font-weight="bold" lengthAdjust="spacing" textLength="32" x="2449" y="908.4888">loop</text><text fill="#000000" font-family="sans-serif" font-size="11" font-weight="bold" lengthAdjust="spacing" textLength="285" x="2526" y="907.6323">[for each collaborator in collaboratorsTeam]</text><polygon fill="#181818" points="2621.5,929.6875,2631.5,933.6875,2621.5,937.6875,2625.5,933.6875" style="stroke:#181818;stroke-width:1.0;"/><line style="stroke:#181818;stroke-width:1.0;" x1="2495.5" x2="2627.5" y1="933.6875" y2="933.6875"/><text fill="#000000" font-family="sans-serif" font-size="13" font-weight="bold" lengthAdjust="spacing" textLength="18" x="2502.5" y="928.6216">18</text><text fill="#000000" font-family="sans-serif" font-size="13" lengthAdjust="spacing" textLength="66" x="2524.5" y="928.6216">getEmail()</text><polygon fill="#181818" points="2506.5,958.8203,2496.5,962.8203,2506.5,966.8203,2502.5,962.8203" style="stroke:#181818;stroke-width:1.0;"/><line style="stroke:#181818;stroke-width:1.0;" x1="2500.5" x2="2637.5" y1="962.8203" y2="962.8203"/><text fill="#000000" font-family="sans-serif" font-size="13" font-weight="bold" lengthAdjust="spacing" textLength="18" x="2512.5" y="957.7544">19</text><text fill="#000000" font-family="sans-serif" font-size="13" lengthAdjust="spacing" textLength="35" x="2534.5" y="957.7544">email</text><polygon fill="#181818" points="2792.5,987.9531,2802.5,991.9531,2792.5,995.9531,2796.5,991.9531" style="stroke:#181818;stroke-width:1.0;"/><line style="stroke:#181818;stroke-width:1.0;" x1="2495.5" x2="2798.5" y1="991.9531" y2="991.9531"/><text fill="#000000" font-family="sans-serif" font-size="13" font-weight="bold" lengthAdjust="spacing" textLength="18" x="2502.5" y="986.8872">20</text><text fill="#000000" font-family="sans-serif" font-size="13" lengthAdjust="spacing" textLength="268" x="2524.5" y="986.8872">sendToEmailFile(email, subject, message)</text><polygon fill="#181818" points="2956.5,1017.0859,2966.5,1021.0859,2956.5,1025.0859,2960.5,1021.0859" style="stroke:#181818;stroke-width:1.0;"/><line style="stroke:#181818;stroke-width:1.0;" x1="2814.5" x2="2962.5" y1="1021.0859" y2="1021.0859"/><text fill="#000000" font-family="sans-serif" font-size="13" font-weight="bold" lengthAdjust="spacing" textLength="18" x="2821.5" y="1016.02">21</text><text fill="#000000" font-family="sans-serif" font-size="13" lengthAdjust="spacing" textLength="113" x="2843.5" y="1016.02">getEmailService()</text><polygon fill="#181818" points="2825.5,1046.2188,2815.5,1050.2188,2825.5,1054.2188,2821.5,1050.2188" style="stroke:#181818;stroke-width:1.0;"/><line style="stroke:#181818;stroke-width:1.0;stroke-dasharray:2.0,2.0;" x1="2819.5" x2="2972.5" y1="1050.2188" y2="1050.2188"/><text fill="#000000" font-family="sans-serif" font-size="13" font-weight="bold" lengthAdjust="spacing" textLength="18" x="2831.5" y="1045.1528">22</text><text fill="#000000" font-family="sans-serif" font-size="13" lengthAdjust="spacing" textLength="82" x="2853.5" y="1045.1528">emailService</text><path d="M2747,1065.2188 L2811,1065.2188 L2811,1072.3516 L2801,1082.3516 L2747,1082.3516 L2747,1065.2188 " fill="#EEEEEE" style="stroke:#000000;stroke-width:1.5;"/><rect fill="none" height="150.2031" style="stroke:#000000;stroke-width:1.5;" width="939" x="2747" y="1065.2188"/><text fill="#000000" font-family="sans-serif" font-size="13" font-weight="bold" lengthAdjust="spacing" textLength="19" x="2762" y="1078.2856">alt</text><text fill="#000000" font-family="sans-serif" font-size="11" font-weight="bold" lengthAdjust="spacing" textLength="194" x="2826" y="1077.4292">[emailService is GmailService]</text><polygon fill="#181818" points="3467.5,1099.4844,3477.5,1103.4844,3467.5,1107.4844,3471.5,1103.4844" style="stroke:#181818;stroke-width:1.0;"/><line style="stroke:#181818;stroke-width:1.0;" x1="2814.5" x2="3473.5" y1="1103.4844" y2="1103.4844"/><text fill="#000000" font-family="sans-serif" font-size="13" font-weight="bold" lengthAdjust="spacing" textLength="18" x="2821.5" y="1098.4185">23</text><text fill="#000000" font-family="sans-serif" font-size="13" lengthAdjust="spacing" textLength="624" x="2843.5" y="1098.4185">sendEmail(email, "Assignment Notification", "You have been assigned to an entry in the agenda.")</text><line style="stroke:#000000;stroke-width:1.0;stroke-dasharray:2.0,2.0;" x1="2747" x2="3686" y1="1142.4844" y2="1142.4844"/><text fill="#000000" font-family="sans-serif" font-size="11" font-weight="bold" lengthAdjust="spacing" textLength="214" x="2752" y="1152.6948">[emailService is DeiEmailService]</text><polygon fill="#181818" points="3595,1173.4219,3605,1177.4219,3595,1181.4219,3599,1177.4219" style="stroke:#181818;stroke-width:1.0;"/><line style="stroke:#181818;stroke-width:1.0;" x1="2814.5" x2="3601" y1="1177.4219" y2="1177.4219"/><text fill="#000000" font-family="sans-serif" font-size="13" font-weight="bold" lengthAdjust="spacing" textLength="18" x="2821.5" y="1172.356">24</text><text fill="#000000" font-family="sans-serif" font-size="13" lengthAdjust="spacing" textLength="624" x="2843.5" y="1172.356">sendEmail(email, "Assignment Notification", "You have been assigned to an entry in the agenda.")</text><polygon fill="#181818" points="2230.5,1246.5547,2220.5,1250.5547,2230.5,1254.5547,2226.5,1250.5547" style="stroke:#181818;stroke-width:1.0;"/><line style="stroke:#181818;stroke-width:1.0;" x1="2224.5" x2="2489.5" y1="1250.5547" y2="1250.5547"/><text fill="#000000" font-family="sans-serif" font-size="13" font-weight="bold" lengthAdjust="spacing" textLength="18" x="2236.5" y="1245.4888">25</text><text fill="#000000" font-family="sans-serif" font-size="13" lengthAdjust="spacing" textLength="26" x="2258.5" y="1245.4888">true</text><polygon fill="#181818" points="1880.5,1275.6875,1870.5,1279.6875,1880.5,1283.6875,1876.5,1279.6875" style="stroke:#181818;stroke-width:1.0;"/><line style="stroke:#181818;stroke-width:1.0;stroke-dasharray:2.0,2.0;" x1="1874.5" x2="2213.5" y1="1279.6875" y2="1279.6875"/><text fill="#000000" font-family="sans-serif" font-size="13" font-weight="bold" lengthAdjust="spacing" textLength="18" x="1886.5" y="1274.6216">26</text><text fill="#000000" font-family="sans-serif" font-size="13" lengthAdjust="spacing" textLength="26" x="1908.5" y="1274.6216">true</text><polygon fill="#181818" points="1555.5,1304.8203,1545.5,1308.8203,1555.5,1312.8203,1551.5,1308.8203" style="stroke:#181818;stroke-width:1.0;"/><line style="stroke:#181818;stroke-width:1.0;stroke-dasharray:2.0,2.0;" x1="1549.5" x2="1863.5" y1="1308.8203" y2="1308.8203"/><text fill="#000000" font-family="sans-serif" font-size="13" font-weight="bold" lengthAdjust="spacing" textLength="18" x="1561.5" y="1303.7544">27</text><text fill="#000000" font-family="sans-serif" font-size="13" lengthAdjust="spacing" textLength="26" x="1583.5" y="1303.7544">true</text><polygon fill="#181818" points="696,1333.9531,686,1337.9531,696,1341.9531,692,1337.9531" style="stroke:#181818;stroke-width:1.0;"/><line style="stroke:#181818;stroke-width:1.0;stroke-dasharray:2.0,2.0;" x1="690" x2="1538.5" y1="1337.9531" y2="1337.9531"/><text fill="#000000" font-family="sans-serif" font-size="13" font-weight="bold" lengthAdjust="spacing" textLength="18" x="702" y="1332.8872">28</text><text fill="#000000" font-family="sans-serif" font-size="13" lengthAdjust="spacing" textLength="26" x="724" y="1332.8872">true</text><polygon fill="#181818" points="413,1363.0859,403,1367.0859,413,1371.0859,409,1367.0859" style="stroke:#181818;stroke-width:1.0;"/><line style="stroke:#181818;stroke-width:1.0;stroke-dasharray:2.0,2.0;" x1="407" x2="679" y1="1367.0859" y2="1367.0859"/><text fill="#000000" font-family="sans-serif" font-size="13" font-weight="bold" lengthAdjust="spacing" textLength="18" x="419" y="1362.02">29</text><text fill="#000000" font-family="sans-serif" font-size="13" lengthAdjust="spacing" textLength="26" x="441" y="1362.02">true</text><polygon fill="#181818" points="40,1392.2188,30,1396.2188,40,1400.2188,36,1396.2188" style="stroke:#181818;stroke-width:1.0;"/><line style="stroke:#181818;stroke-width:1.0;stroke-dasharray:2.0,2.0;" x1="34" x2="396" y1="1396.2188" y2="1396.2188"/><text fill="#000000" font-family="sans-serif" font-size="13" font-weight="bold" lengthAdjust="spacing" textLength="18" x="46" y="1391.1528">30</text><text fill="#000000" font-family="sans-serif" font-size="13" lengthAdjust="spacing" textLength="238" x="68" y="1391.1528">Displays Operation Success Message</text><!--SRC=[nLTBRziu4BxpLmnygW6tXnuDx09kd0q2RBf0d1HOO2-qDBRPIgGWqixwttVu54KfJNkg3v58VVFDUyZeRq9slESjj4ggwjIh5i7qPsGwVUbuzOqVSMUk3KAFbU7osEG0VUArUX7o20VUQ6ICdusIvtQFFRrNHlMmkDizB81he2TZ96P49Jek3IpMNmI-RD5mqUXRQVhhyxr3Fjz_V0Due-YlQXhidS3Dq-FV7rd1_eIyVSHEQK5cNDVZfHEBMwLPTl-1TrrW7vPZdDf_tHhbqFHCK7elJK5hSsRBxNZjHDDUAUpHcJtPUaQDDUasl0nmRzGCt6C7O84nv93pCBbN02hA0j-hdfCZwvjiuHEJRKpSQYcTE-mleaAlFziemPkkQqJ5ZL1oXrhJmubCjmkvkr99lb5WjoWcDXLxhgZ5XHlqvSnwF82wO6-Ni8OxD53xEWKkQsYvfFvfATAWEckb_a-2EW07ZGtr4zRWiW1AWZaX45ZMd37BzlvFsmX4kdDG8dJnTxmRylKeDGW3HZd9NUJpMKncsbvYp18Hd-iJOkHEtB8zAOT_vsjv1R64bWD3Q2wfwBqNnvEn3bXQeDyZEMUxdMpW1eJtekln8jHPqyWuO8-o8hDgmOyqCLPEAcldvtixM51SOYX8EHne6C76nOA-NmHtKlgaNdmnPn5-4Kq35Oq38SzeWt7MQCD2GcIBqD2YEQbw3Ok9qmj62i3wzOfpslGqsgp4PzxY2YX8CSm-oacUCHzQYd4SAXJc8vee70AyB3Jvs4vr3Smf3SEmIXg2DZyAI1_-Rth2_q1V8lbfbM7Ei4nHK6iJjGOJnE6FaRlBCOiTFpLEjcPOG-WYRIcLcnDZ4AlwDPamLESoT12ojijFLsTrP5Y-5NRF5NI-fIzDzjdEimnvtmsginDXe8XyAUb6RHLDABcHzIQHlyKQmvXJHMQVrzIwFh6FSPbdDfqiMG26qsQEEmkxMt-w3iH9u_9NGu3-u2gj27cOisEK2HUiKccGooMqhsyVPQo3s81pqzd2gAQKEpN-4Ws-q-VzLvePAvf4MjE0BugBiKQf3WvqLIBxJv0Vg7QWvclj16plEbss47EqcpXECMN9eeOPFZg7xQUHu60yMca7oA8vbOxgyxDnwhaZMy4q02FRHkUh_P9lM2NJGpxpDE1AXsSk1jxo6RBtXICn3BbDMJJcg9tknepaG1It3GY_qh-xiMuRHP_44B-5hpXtY_YiZ3W4xGlwzAywmubV4FQ8CjGqdQJKmbo6guN8hnOV5ijant2LcRCoytZo7UckF_6rl2gzvcw1-oqUlsPhvlJavkSSbtLP3cEG1QJc27F3_LDLd14ipOtfG2_W-JYAOwoOfxCYSSRdapC_BUTanaTNke6Ms70bTBTAMy3kxhiLkcluLSC_fDQb2tRdgg8MWGVV-3c5lMDz1m00]--></g></svg>