<?xml version="1.0" encoding="us-ascii" standalone="no"?><svg xmlns="http://www.w3.org/2000/svg" xmlns:xlink="http://www.w3.org/1999/xlink" contentStyleType="text/css" height="1386px" preserveAspectRatio="none" style="width:3221px;height:1386px;background:#FFFFFF;" version="1.1" viewBox="0 0 3221 1386" width="3221px" zoomAndPan="magnify"><defs/><g><rect fill="#FFFFFF" height="1205.1719" style="stroke:#181818;stroke-width:1.0;" width="10" x="19" y="91.2969"/><rect fill="#FFFFFF" height="1175.0391" style="stroke:#181818;stroke-width:1.0;" width="10" x="403" y="112.4297"/><rect fill="#FFFFFF" height="1075.4766" style="stroke:#181818;stroke-width:1.0;" width="10" x="618.5" y="182.8594"/><rect fill="#FFFFFF" height="121.5313" style="stroke:#181818;stroke-width:1.0;" width="10" x="623.5" y="336.5234"/><rect fill="#FFFFFF" height="63.2656" style="stroke:#181818;stroke-width:1.0;" width="10" x="623.5" y="1107.6719"/><rect fill="#FFFFFF" height="29.1328" style="stroke:#181818;stroke-width:1.0;" width="10" x="847.5" y="370.6563"/><rect fill="#FFFFFF" height="29.1328" style="stroke:#181818;stroke-width:1.0;" width="10" x="847.5" y="1141.8047"/><rect fill="#FFFFFF" height="29.1328" style="stroke:#181818;stroke-width:1.0;" width="10" x="985" y="428.9219"/><rect fill="#FFFFFF" height="29.1328" style="stroke:#181818;stroke-width:1.0;" width="10" x="1098.5" y="211.9922"/><rect fill="#FFFFFF" height="29.1328" style="stroke:#181818;stroke-width:1.0;" width="10" x="1253" y="270.2578"/><rect fill="#FFFFFF" height="250.9609" style="stroke:#181818;stroke-width:1.0;" width="10" x="1489.5" y="487.1875"/><rect fill="#FFFFFF" height="30" style="stroke:#181818;stroke-width:1.0;" width="10" x="1761.5" y="665.0156"/><rect fill="#FFFFFF" height="30" style="stroke:#181818;stroke-width:1.0;" width="10" x="1761.5" y="861.8438"/><rect fill="#FFFFFF" height="30" style="stroke:#181818;stroke-width:1.0;" width="10" x="1995.5" y="581.75"/><rect fill="#FFFFFF" height="303.2578" style="stroke:#181818;stroke-width:1.0;" width="10" x="2178.5" y="767.2813"/><rect fill="#FFFFFF" height="34.1328" style="stroke:#181818;stroke-width:1.0;" width="10" x="2183.5" y="928.9766"/><rect fill="#FFFFFF" height="30" style="stroke:#181818;stroke-width:1.0;" width="10" x="2466.5" y="1004.4063"/><rect fill="#FFFFFF" height="29.1328" style="stroke:#181818;stroke-width:1.0;" width="10" x="3045" y="1200.0703"/><rect fill="none" height="166.5313" style="stroke:#000000;stroke-width:1.5;" width="763" x="1342" y="543.4844"/><rect fill="none" height="76.2656" style="stroke:#000000;stroke-width:1.5;" width="716" x="1352" y="626.75"/><rect fill="none" height="218.8281" style="stroke:#000000;stroke-width:1.5;" width="1258" x="1627" y="823.5781"/><line style="stroke:#181818;stroke-width:0.5;stroke-dasharray:5.0,5.0;" x1="24" x2="24" y1="81.2969" y2="1305.4688"/><line style="stroke:#181818;stroke-width:0.5;stroke-dasharray:5.0,5.0;" x1="407.5" x2="407.5" y1="81.2969" y2="1305.4688"/><line style="stroke:#181818;stroke-width:0.5;stroke-dasharray:5.0,5.0;" x1="623.5" x2="623.5" y1="151.0781" y2="1305.4688"/><line style="stroke:#181818;stroke-width:0.5;stroke-dasharray:5.0,5.0;" x1="852" x2="852" y1="81.2969" y2="1305.4688"/><line style="stroke:#181818;stroke-width:0.5;stroke-dasharray:5.0,5.0;" x1="990" x2="990" y1="81.2969" y2="1305.4688"/><line style="stroke:#181818;stroke-width:0.5;stroke-dasharray:5.0,5.0;" x1="1103" x2="1103" y1="81.2969" y2="1305.4688"/><line style="stroke:#181818;stroke-width:0.5;stroke-dasharray:5.0,5.0;" x1="1258" x2="1258" y1="81.2969" y2="1305.4688"/><line style="stroke:#181818;stroke-width:0.5;stroke-dasharray:5.0,5.0;" x1="1494" x2="1494" y1="81.2969" y2="1305.4688"/><line style="stroke:#181818;stroke-width:0.5;stroke-dasharray:5.0,5.0;" x1="1766" x2="1766" y1="525.8359" y2="1305.4688"/><line style="stroke:#181818;stroke-width:0.5;stroke-dasharray:5.0,5.0;" x1="2000" x2="2000" y1="81.2969" y2="1305.4688"/><line style="stroke:#181818;stroke-width:0.5;stroke-dasharray:5.0,5.0;" x1="2183" x2="2183" y1="81.2969" y2="1305.4688"/><line style="stroke:#181818;stroke-width:0.5;stroke-dasharray:5.0,5.0;" x1="2471" x2="2471" y1="805.9297" y2="1305.4688"/><line style="stroke:#181818;stroke-width:0.5;stroke-dasharray:5.0,5.0;" x1="2755" x2="2755" y1="972.625" y2="1305.4688"/><line style="stroke:#181818;stroke-width:0.5;stroke-dasharray:5.0,5.0;" x1="3050" x2="3050" y1="81.2969" y2="1305.4688"/><text fill="#000000" font-family="sans-serif" font-size="14" lengthAdjust="spacing" textLength="32" x="5" y="77.9951">GSM</text><ellipse cx="24" cy="13.5" fill="#E3E3E3" rx="8" ry="8" style="stroke:#181818;stroke-width:0.5;"/><path d="M24,21.5 L24,48.5 M11,29.5 L37,29.5 M24,48.5 L11,63.5 M24,48.5 L37,63.5 " fill="none" style="stroke:#181818;stroke-width:0.5;"/><text fill="#000000" font-family="sans-serif" font-size="14" lengthAdjust="spacing" textLength="32" x="5" y="1317.4639">GSM</text><ellipse cx="24" cy="1329.2656" fill="#E3E3E3" rx="8" ry="8" style="stroke:#181818;stroke-width:0.5;"/><path d="M24,1337.2656 L24,1364.2656 M11,1345.2656 L37,1345.2656 M24,1364.2656 L11,1379.2656 M24,1364.2656 L37,1379.2656 " fill="none" style="stroke:#181818;stroke-width:0.5;"/><rect fill="#E3E3E3" height="30.2969" rx="2.5" ry="2.5" style="stroke:#181818;stroke-width:0.5;" width="181" x="317.5" y="50"/><text fill="#000000" font-family="sans-serif" font-size="14" lengthAdjust="spacing" textLength="167" x="324.5" y="69.9951">:ManageGreenSpacesUI</text><rect fill="#E3E3E3" height="30.2969" rx="2.5" ry="2.5" style="stroke:#181818;stroke-width:0.5;" width="181" x="317.5" y="1304.4688"/><text fill="#000000" font-family="sans-serif" font-size="14" lengthAdjust="spacing" textLength="167" x="324.5" y="1324.4639">:ManageGreenSpacesUI</text><rect fill="#E3E3E3" height="30.2969" rx="2.5" ry="2.5" style="stroke:#181818;stroke-width:0.5;" width="230" x="508.5" y="1304.4688"/><text fill="#000000" font-family="sans-serif" font-size="14" lengthAdjust="spacing" textLength="216" x="515.5" y="1324.4639">:RegisterGreenSpaceController</text><rect fill="#E3E3E3" height="30.2969" rx="2.5" ry="2.5" style="stroke:#181818;stroke-width:0.5;" width="149" x="778" y="50"/><text fill="#000000" font-family="sans-serif" font-size="14" lengthAdjust="spacing" textLength="135" x="785" y="69.9951">:ApplicationSession</text><rect fill="#E3E3E3" height="30.2969" rx="2.5" ry="2.5" style="stroke:#181818;stroke-width:0.5;" width="149" x="778" y="1304.4688"/><text fill="#000000" font-family="sans-serif" font-size="14" lengthAdjust="spacing" textLength="135" x="785" y="1324.4639">:ApplicationSession</text><rect fill="#E3E3E3" height="30.2969" rx="2.5" ry="2.5" style="stroke:#181818;stroke-width:0.5;" width="106" x="937" y="50"/><text fill="#000000" font-family="sans-serif" font-size="14" lengthAdjust="spacing" textLength="92" x="944" y="69.9951">:UserSession</text><rect fill="#E3E3E3" height="30.2969" rx="2.5" ry="2.5" style="stroke:#181818;stroke-width:0.5;" width="106" x="937" y="1304.4688"/><text fill="#000000" font-family="sans-serif" font-size="14" lengthAdjust="spacing" textLength="92" x="944" y="1324.4639">:UserSession</text><rect fill="#E3E3E3" height="30.2969" rx="2.5" ry="2.5" style="stroke:#181818;stroke-width:0.5;" width="101" x="1053" y="50"/><text fill="#000000" font-family="sans-serif" font-size="14" lengthAdjust="spacing" textLength="87" x="1060" y="69.9951">Repositories</text><rect fill="#E3E3E3" height="30.2969" rx="2.5" ry="2.5" style="stroke:#181818;stroke-width:0.5;" width="101" x="1053" y="1304.4688"/><text fill="#000000" font-family="sans-serif" font-size="14" lengthAdjust="spacing" textLength="87" x="1060" y="1324.4639">Repositories</text><rect fill="#E3E3E3" height="30.2969" rx="2.5" ry="2.5" style="stroke:#181818;stroke-width:0.5;" width="188" x="1164" y="50"/><text fill="#000000" font-family="sans-serif" font-size="14" lengthAdjust="spacing" textLength="174" x="1171" y="69.9951">repositories:Repositories</text><rect fill="#E3E3E3" height="30.2969" rx="2.5" ry="2.5" style="stroke:#181818;stroke-width:0.5;" width="188" x="1164" y="1304.4688"/><text fill="#000000" font-family="sans-serif" font-size="14" lengthAdjust="spacing" textLength="174" x="1171" y="1324.4639">repositories:Repositories</text><rect fill="#E3E3E3" height="30.2969" rx="2.5" ry="2.5" style="stroke:#181818;stroke-width:0.5;" width="265" x="1362" y="50"/><text fill="#000000" font-family="sans-serif" font-size="14" lengthAdjust="spacing" textLength="251" x="1369" y="69.9951">organizationRepository:Organization</text><rect fill="#E3E3E3" height="30.2969" rx="2.5" ry="2.5" style="stroke:#181818;stroke-width:0.5;" width="265" x="1362" y="1304.4688"/><text fill="#000000" font-family="sans-serif" font-size="14" lengthAdjust="spacing" textLength="251" x="1369" y="1324.4639">organizationRepository:Organization</text><rect fill="#E3E3E3" height="30.2969" rx="2.5" ry="2.5" style="stroke:#181818;stroke-width:0.5;" width="259" x="1637" y="1304.4688"/><text fill="#000000" font-family="sans-serif" font-size="14" lengthAdjust="spacing" textLength="245" x="1644" y="1324.4639">greenSpaceList:List&lt;GreenSpace&gt;</text><rect fill="#E3E3E3" height="30.2969" rx="2.5" ry="2.5" style="stroke:#181818;stroke-width:0.5;" width="189" x="1906" y="50"/><text fill="#000000" font-family="sans-serif" font-size="14" lengthAdjust="spacing" textLength="175" x="1913" y="69.9951">greenSpace:GreenSpace</text><rect fill="#E3E3E3" height="30.2969" rx="2.5" ry="2.5" style="stroke:#181818;stroke-width:0.5;" width="189" x="1906" y="1304.4688"/><text fill="#000000" font-family="sans-serif" font-size="14" lengthAdjust="spacing" textLength="175" x="1913" y="1324.4639">greenSpace:GreenSpace</text><rect fill="#E3E3E3" height="30.2969" rx="2.5" ry="2.5" style="stroke:#181818;stroke-width:0.5;" width="157" x="2105" y="50"/><text fill="#000000" font-family="sans-serif" font-size="14" lengthAdjust="spacing" textLength="143" x="2112" y="69.9951">:GreenSpaceMapper</text><rect fill="#E3E3E3" height="30.2969" rx="2.5" ry="2.5" style="stroke:#181818;stroke-width:0.5;" width="157" x="2105" y="1304.4688"/><text fill="#000000" font-family="sans-serif" font-size="14" lengthAdjust="spacing" textLength="143" x="2112" y="1324.4639">:GreenSpaceMapper</text><rect fill="#E3E3E3" height="30.2969" rx="2.5" ry="2.5" style="stroke:#181818;stroke-width:0.5;" width="309" x="2317" y="1304.4688"/><text fill="#000000" font-family="sans-serif" font-size="14" lengthAdjust="spacing" textLength="295" x="2324" y="1324.4639">greenSpaceListDto:List&lt;GreenSpaceDto&gt;</text><rect fill="#E3E3E3" height="30.2969" rx="2.5" ry="2.5" style="stroke:#181818;stroke-width:0.5;" width="239" x="2636" y="1304.4688"/><text fill="#000000" font-family="sans-serif" font-size="14" lengthAdjust="spacing" textLength="225" x="2643" y="1324.4639">greenSpaceDto:GreenSpaceDto</text><rect fill="#E3E3E3" height="46.5938" rx="2.5" ry="2.5" style="stroke:#181818;stroke-width:0.5;" width="330" x="2885" y="33.7031"/><text fill="#000000" font-family="sans-serif" font-size="14" lengthAdjust="spacing" textLength="316" x="2892" y="53.6982">someSortingAlgorithm: SomeSortingAlgorithm</text><text fill="#000000" font-family="sans-serif" font-size="14" lengthAdjust="spacing" textLength="175" x="2962.5" y="69.9951">implements &#171;SortingList&#187;</text><rect fill="#E3E3E3" height="46.5938" rx="2.5" ry="2.5" style="stroke:#181818;stroke-width:0.5;" width="330" x="2885" y="1304.4688"/><text fill="#000000" font-family="sans-serif" font-size="14" lengthAdjust="spacing" textLength="316" x="2892" y="1324.4639">someSortingAlgorithm: SomeSortingAlgorithm</text><text fill="#000000" font-family="sans-serif" font-size="14" lengthAdjust="spacing" textLength="175" x="2962.5" y="1340.7607">implements &#171;SortingList&#187;</text><rect fill="#FFFFFF" height="1205.1719" style="stroke:#181818;stroke-width:1.0;" width="10" x="19" y="91.2969"/><rect fill="#FFFFFF" height="1175.0391" style="stroke:#181818;stroke-width:1.0;" width="10" x="403" y="112.4297"/><rect fill="#FFFFFF" height="1075.4766" style="stroke:#181818;stroke-width:1.0;" width="10" x="618.5" y="182.8594"/><rect fill="#FFFFFF" height="121.5313" style="stroke:#181818;stroke-width:1.0;" width="10" x="623.5" y="336.5234"/><rect fill="#FFFFFF" height="63.2656" style="stroke:#181818;stroke-width:1.0;" width="10" x="623.5" y="1107.6719"/><rect fill="#FFFFFF" height="29.1328" style="stroke:#181818;stroke-width:1.0;" width="10" x="847.5" y="370.6563"/><rect fill="#FFFFFF" height="29.1328" style="stroke:#181818;stroke-width:1.0;" width="10" x="847.5" y="1141.8047"/><rect fill="#FFFFFF" height="29.1328" style="stroke:#181818;stroke-width:1.0;" width="10" x="985" y="428.9219"/><rect fill="#FFFFFF" height="29.1328" style="stroke:#181818;stroke-width:1.0;" width="10" x="1098.5" y="211.9922"/><rect fill="#FFFFFF" height="29.1328" style="stroke:#181818;stroke-width:1.0;" width="10" x="1253" y="270.2578"/><rect fill="#FFFFFF" height="250.9609" style="stroke:#181818;stroke-width:1.0;" width="10" x="1489.5" y="487.1875"/><rect fill="#FFFFFF" height="30" style="stroke:#181818;stroke-width:1.0;" width="10" x="1761.5" y="665.0156"/><rect fill="#FFFFFF" height="30" style="stroke:#181818;stroke-width:1.0;" width="10" x="1761.5" y="861.8438"/><rect fill="#FFFFFF" height="30" style="stroke:#181818;stroke-width:1.0;" width="10" x="1995.5" y="581.75"/><rect fill="#FFFFFF" height="303.2578" style="stroke:#181818;stroke-width:1.0;" width="10" x="2178.5" y="767.2813"/><rect fill="#FFFFFF" height="34.1328" style="stroke:#181818;stroke-width:1.0;" width="10" x="2183.5" y="928.9766"/><rect fill="#FFFFFF" height="30" style="stroke:#181818;stroke-width:1.0;" width="10" x="2466.5" y="1004.4063"/><rect fill="#FFFFFF" height="29.1328" style="stroke:#181818;stroke-width:1.0;" width="10" x="3045" y="1200.0703"/><polygon fill="#181818" points="391,108.4297,401,112.4297,391,116.4297,395,112.4297" style="stroke:#181818;stroke-width:1.0;"/><line style="stroke:#181818;stroke-width:1.0;" x1="29" x2="397" y1="112.4297" y2="112.4297"/><text fill="#000000" font-family="sans-serif" font-size="13" font-weight="bold" lengthAdjust="spacing" textLength="9" x="36" y="107.3638">1</text><text fill="#000000" font-family="sans-serif" font-size="13" lengthAdjust="spacing" textLength="342" x="49" y="107.3638">Request to list all green spaces managed by the GSM</text><polygon fill="#181818" points="496.5,137.5625,506.5,141.5625,496.5,145.5625,500.5,141.5625" style="stroke:#181818;stroke-width:1.0;"/><line style="stroke:#181818;stroke-width:1.0;" x1="413" x2="502.5" y1="141.5625" y2="141.5625"/><text fill="#000000" font-family="sans-serif" font-size="13" font-weight="bold" lengthAdjust="spacing" textLength="9" x="420" y="136.4966">2</text><text fill="#000000" font-family="sans-serif" font-size="13" lengthAdjust="spacing" textLength="41" x="433" y="136.4966">create</text><rect fill="#E3E3E3" height="30.2969" rx="2.5" ry="2.5" style="stroke:#181818;stroke-width:0.5;" width="230" x="508.5" y="120.4297"/><text fill="#000000" font-family="sans-serif" font-size="14" lengthAdjust="spacing" textLength="216" x="515.5" y="140.4248">:RegisterGreenSpaceController</text><polygon fill="#181818" points="606.5,178.8594,616.5,182.8594,606.5,186.8594,610.5,182.8594" style="stroke:#181818;stroke-width:1.0;"/><line style="stroke:#181818;stroke-width:1.0;" x1="413" x2="612.5" y1="182.8594" y2="182.8594"/><text fill="#000000" font-family="sans-serif" font-size="13" font-weight="bold" lengthAdjust="spacing" textLength="9" x="420" y="177.7935">3</text><text fill="#000000" font-family="sans-serif" font-size="13" lengthAdjust="spacing" textLength="168" x="433" y="177.7935">getGreenSpacesByEmail()</text><polygon fill="#181818" points="1086.5,207.9922,1096.5,211.9922,1086.5,215.9922,1090.5,211.9922" style="stroke:#181818;stroke-width:1.0;"/><line style="stroke:#181818;stroke-width:1.0;" x1="628.5" x2="1092.5" y1="211.9922" y2="211.9922"/><text fill="#000000" font-family="sans-serif" font-size="13" font-weight="bold" lengthAdjust="spacing" textLength="9" x="635.5" y="206.9263">4</text><text fill="#000000" font-family="sans-serif" font-size="13" lengthAdjust="spacing" textLength="85" x="648.5" y="206.9263">getInstance()</text><polygon fill="#181818" points="639.5,237.125,629.5,241.125,639.5,245.125,635.5,241.125" style="stroke:#181818;stroke-width:1.0;"/><line style="stroke:#181818;stroke-width:1.0;stroke-dasharray:2.0,2.0;" x1="633.5" x2="1102.5" y1="241.125" y2="241.125"/><text fill="#000000" font-family="sans-serif" font-size="13" font-weight="bold" lengthAdjust="spacing" textLength="9" x="645.5" y="236.0591">5</text><text fill="#000000" font-family="sans-serif" font-size="13" lengthAdjust="spacing" textLength="75" x="658.5" y="236.0591">repositories</text><polygon fill="#181818" points="1241,266.2578,1251,270.2578,1241,274.2578,1245,270.2578" style="stroke:#181818;stroke-width:1.0;"/><line style="stroke:#181818;stroke-width:1.0;" x1="628.5" x2="1247" y1="270.2578" y2="270.2578"/><text fill="#000000" font-family="sans-serif" font-size="13" font-weight="bold" lengthAdjust="spacing" textLength="9" x="635.5" y="265.1919">6</text><text fill="#000000" font-family="sans-serif" font-size="13" lengthAdjust="spacing" textLength="179" x="648.5" y="265.1919">getOrganizationRepository()</text><polygon fill="#181818" points="639.5,295.3906,629.5,299.3906,639.5,303.3906,635.5,299.3906" style="stroke:#181818;stroke-width:1.0;"/><line style="stroke:#181818;stroke-width:1.0;stroke-dasharray:2.0,2.0;" x1="633.5" x2="1257" y1="299.3906" y2="299.3906"/><text fill="#000000" font-family="sans-serif" font-size="13" font-weight="bold" lengthAdjust="spacing" textLength="9" x="645.5" y="294.3247">7</text><text fill="#000000" font-family="sans-serif" font-size="13" lengthAdjust="spacing" textLength="146" x="658.5" y="294.3247">organizationRepository</text><line style="stroke:#181818;stroke-width:1.0;" x1="628.5" x2="675.5" y1="323.5234" y2="323.5234"/><line style="stroke:#181818;stroke-width:1.0;" x1="675.5" x2="675.5" y1="323.5234" y2="336.5234"/><line style="stroke:#181818;stroke-width:1.0;" x1="634.5" x2="675.5" y1="336.5234" y2="336.5234"/><polygon fill="#181818" points="644.5,332.5234,634.5,336.5234,644.5,340.5234,640.5,336.5234" style="stroke:#181818;stroke-width:1.0;"/><text fill="#000000" font-family="sans-serif" font-size="13" font-weight="bold" lengthAdjust="spacing" textLength="9" x="640.5" y="318.4575">8</text><text fill="#000000" font-family="sans-serif" font-size="13" lengthAdjust="spacing" textLength="192" x="653.5" y="318.4575">getCollaboratorFromSession()</text><polygon fill="#181818" points="835.5,366.6563,845.5,370.6563,835.5,374.6563,839.5,370.6563" style="stroke:#181818;stroke-width:1.0;"/><line style="stroke:#181818;stroke-width:1.0;" x1="633.5" x2="841.5" y1="370.6563" y2="370.6563"/><text fill="#000000" font-family="sans-serif" font-size="13" font-weight="bold" lengthAdjust="spacing" textLength="9" x="640.5" y="365.5903">9</text><text fill="#000000" font-family="sans-serif" font-size="13" lengthAdjust="spacing" textLength="129" x="653.5" y="365.5903">getCurrentSession()</text><polygon fill="#181818" points="644.5,395.7891,634.5,399.7891,644.5,403.7891,640.5,399.7891" style="stroke:#181818;stroke-width:1.0;"/><line style="stroke:#181818;stroke-width:1.0;" x1="638.5" x2="851.5" y1="399.7891" y2="399.7891"/><text fill="#000000" font-family="sans-serif" font-size="13" font-weight="bold" lengthAdjust="spacing" textLength="18" x="650.5" y="394.7231">10</text><text fill="#000000" font-family="sans-serif" font-size="13" lengthAdjust="spacing" textLength="78" x="672.5" y="394.7231">userSession</text><polygon fill="#181818" points="973,424.9219,983,428.9219,973,432.9219,977,428.9219" style="stroke:#181818;stroke-width:1.0;"/><line style="stroke:#181818;stroke-width:1.0;" x1="633.5" x2="979" y1="428.9219" y2="428.9219"/><text fill="#000000" font-family="sans-serif" font-size="13" font-weight="bold" lengthAdjust="spacing" textLength="18" x="640.5" y="423.856">11</text><text fill="#000000" font-family="sans-serif" font-size="13" lengthAdjust="spacing" textLength="96" x="662.5" y="423.856">getUserEmail()</text><polygon fill="#181818" points="639.5,454.0547,629.5,458.0547,639.5,462.0547,635.5,458.0547" style="stroke:#181818;stroke-width:1.0;"/><line style="stroke:#181818;stroke-width:1.0;" x1="633.5" x2="989" y1="458.0547" y2="458.0547"/><text fill="#000000" font-family="sans-serif" font-size="13" font-weight="bold" lengthAdjust="spacing" textLength="18" x="645.5" y="452.9888">12</text><text fill="#000000" font-family="sans-serif" font-size="13" lengthAdjust="spacing" textLength="63" x="667.5" y="452.9888">userEmail</text><polygon fill="#181818" points="1477.5,483.1875,1487.5,487.1875,1477.5,491.1875,1481.5,487.1875" style="stroke:#181818;stroke-width:1.0;"/><line style="stroke:#181818;stroke-width:1.0;" x1="628.5" x2="1483.5" y1="487.1875" y2="487.1875"/><text fill="#000000" font-family="sans-serif" font-size="13" font-weight="bold" lengthAdjust="spacing" textLength="18" x="635.5" y="482.1216">13</text><text fill="#000000" font-family="sans-serif" font-size="13" lengthAdjust="spacing" textLength="304" x="657.5" y="482.1216">getGreenSpaceListByManagerEmail(UserEmail)</text><polygon fill="#181818" points="1625,512.3203,1635,516.3203,1625,520.3203,1629,516.3203" style="stroke:#181818;stroke-width:1.0;"/><line style="stroke:#181818;stroke-width:1.0;" x1="1499.5" x2="1631" y1="516.3203" y2="516.3203"/><text fill="#000000" font-family="sans-serif" font-size="13" font-weight="bold" lengthAdjust="spacing" textLength="18" x="1506.5" y="511.2544">14</text><text fill="#000000" font-family="sans-serif" font-size="13" lengthAdjust="spacing" textLength="51" x="1528.5" y="511.2544">create()</text><rect fill="#E3E3E3" height="30.2969" rx="2.5" ry="2.5" style="stroke:#181818;stroke-width:0.5;" width="259" x="1637" y="495.1875"/><text fill="#000000" font-family="sans-serif" font-size="14" lengthAdjust="spacing" textLength="245" x="1644" y="515.1826">greenSpaceList:List&lt;GreenSpace&gt;</text><path d="M1342,543.4844 L1419,543.4844 L1419,550.6172 L1409,560.6172 L1342,560.6172 L1342,543.4844 " fill="#EEEEEE" style="stroke:#000000;stroke-width:1.5;"/><rect fill="none" height="166.5313" style="stroke:#000000;stroke-width:1.5;" width="763" x="1342" y="543.4844"/><text fill="#000000" font-family="sans-serif" font-size="13" font-weight="bold" lengthAdjust="spacing" textLength="32" x="1357" y="556.5513">loop</text><text fill="#000000" font-family="sans-serif" font-size="11" font-weight="bold" lengthAdjust="spacing" textLength="246" x="1434" y="555.6948">[for each greenSpace in greenSpaces]</text><polygon fill="#181818" points="1983.5,577.75,1993.5,581.75,1983.5,585.75,1987.5,581.75" style="stroke:#181818;stroke-width:1.0;"/><line style="stroke:#181818;stroke-width:1.0;" x1="1499.5" x2="1989.5" y1="581.75" y2="581.75"/><text fill="#000000" font-family="sans-serif" font-size="13" font-weight="bold" lengthAdjust="spacing" textLength="18" x="1506.5" y="576.6841">15</text><text fill="#000000" font-family="sans-serif" font-size="13" lengthAdjust="spacing" textLength="159" x="1528.5" y="576.6841">GSMEmail = createdBy()</text><path d="M1352,626.75 L1416,626.75 L1416,633.8828 L1406,643.8828 L1352,643.8828 L1352,626.75 " fill="#EEEEEE" style="stroke:#000000;stroke-width:1.5;"/><rect fill="none" height="76.2656" style="stroke:#000000;stroke-width:1.5;" width="716" x="1352" y="626.75"/><text fill="#000000" font-family="sans-serif" font-size="13" font-weight="bold" lengthAdjust="spacing" textLength="19" x="1367" y="639.8169">alt</text><text fill="#000000" font-family="sans-serif" font-size="11" font-weight="bold" lengthAdjust="spacing" textLength="632" x="1431" y="638.9604">[greenSpace is managed by the Green Space Manager (GSM) currently using the system as a user]</text><polygon fill="#181818" points="1749.5,661.0156,1759.5,665.0156,1749.5,669.0156,1753.5,665.0156" style="stroke:#181818;stroke-width:1.0;"/><line style="stroke:#181818;stroke-width:1.0;" x1="1499.5" x2="1755.5" y1="665.0156" y2="665.0156"/><text fill="#000000" font-family="sans-serif" font-size="13" font-weight="bold" lengthAdjust="spacing" textLength="18" x="1506.5" y="659.9497">16</text><text fill="#000000" font-family="sans-serif" font-size="13" lengthAdjust="spacing" textLength="111" x="1528.5" y="659.9497">add(greenSpace)</text><polygon fill="#181818" points="639.5,734.1484,629.5,738.1484,639.5,742.1484,635.5,738.1484" style="stroke:#181818;stroke-width:1.0;"/><line style="stroke:#181818;stroke-width:1.0;" x1="633.5" x2="1493.5" y1="738.1484" y2="738.1484"/><text fill="#000000" font-family="sans-serif" font-size="13" font-weight="bold" lengthAdjust="spacing" textLength="18" x="645.5" y="733.0825">17</text><text fill="#000000" font-family="sans-serif" font-size="13" lengthAdjust="spacing" textLength="101" x="667.5" y="733.0825">GreenSpaceList</text><polygon fill="#181818" points="2166.5,763.2813,2176.5,767.2813,2166.5,771.2813,2170.5,767.2813" style="stroke:#181818;stroke-width:1.0;"/><line style="stroke:#181818;stroke-width:1.0;" x1="628.5" x2="2172.5" y1="767.2813" y2="767.2813"/><text fill="#000000" font-family="sans-serif" font-size="13" font-weight="bold" lengthAdjust="spacing" textLength="18" x="635.5" y="762.2153">18</text><text fill="#000000" font-family="sans-serif" font-size="13" lengthAdjust="spacing" textLength="327" x="657.5" y="762.2153">greenSpaceListToGreenSpaceDto(GreenSpaceList)</text><polygon fill="#181818" points="2305,792.4141,2315,796.4141,2305,800.4141,2309,796.4141" style="stroke:#181818;stroke-width:1.0;"/><line style="stroke:#181818;stroke-width:1.0;" x1="2188.5" x2="2311" y1="796.4141" y2="796.4141"/><text fill="#000000" font-family="sans-serif" font-size="13" font-weight="bold" lengthAdjust="spacing" textLength="18" x="2195.5" y="791.3481">19</text><text fill="#000000" font-family="sans-serif" font-size="13" lengthAdjust="spacing" textLength="51" x="2217.5" y="791.3481">create()</text><rect fill="#E3E3E3" height="30.2969" rx="2.5" ry="2.5" style="stroke:#181818;stroke-width:0.5;" width="309" x="2317" y="775.2813"/><text fill="#000000" font-family="sans-serif" font-size="14" lengthAdjust="spacing" textLength="295" x="2324" y="795.2764">greenSpaceListDto:List&lt;GreenSpaceDto&gt;</text><path d="M1627,823.5781 L1704,823.5781 L1704,830.7109 L1694,840.7109 L1627,840.7109 L1627,823.5781 " fill="#EEEEEE" style="stroke:#000000;stroke-width:1.5;"/><rect fill="none" height="218.8281" style="stroke:#000000;stroke-width:1.5;" width="1258" x="1627" y="823.5781"/><text fill="#000000" font-family="sans-serif" font-size="13" font-weight="bold" lengthAdjust="spacing" textLength="32" x="1642" y="836.645">loop</text><text fill="#000000" font-family="sans-serif" font-size="11" font-weight="bold" lengthAdjust="spacing" textLength="263" x="1719" y="835.7886">[for each greenSpace in GreenSpaceList]</text><polygon fill="#181818" points="1782.5,857.8438,1772.5,861.8438,1782.5,865.8438,1778.5,861.8438" style="stroke:#181818;stroke-width:1.0;"/><line style="stroke:#181818;stroke-width:1.0;" x1="1776.5" x2="2177.5" y1="861.8438" y2="861.8438"/><text fill="#000000" font-family="sans-serif" font-size="13" font-weight="bold" lengthAdjust="spacing" textLength="18" x="1788.5" y="856.7778">20</text><text fill="#000000" font-family="sans-serif" font-size="13" lengthAdjust="spacing" textLength="127" x="1810.5" y="856.7778">greenSpace = get()</text><line style="stroke:#181818;stroke-width:1.0;" x1="2188.5" x2="2235.5" y1="915.9766" y2="915.9766"/><line style="stroke:#181818;stroke-width:1.0;" x1="2235.5" x2="2235.5" y1="915.9766" y2="928.9766"/><line style="stroke:#181818;stroke-width:1.0;" x1="2194.5" x2="2235.5" y1="928.9766" y2="928.9766"/><polygon fill="#181818" points="2204.5,924.9766,2194.5,928.9766,2204.5,932.9766,2200.5,928.9766" style="stroke:#181818;stroke-width:1.0;"/><text fill="#000000" font-family="sans-serif" font-size="13" font-weight="bold" lengthAdjust="spacing" textLength="18" x="2200.5" y="910.9106">21</text><text fill="#000000" font-family="sans-serif" font-size="13" lengthAdjust="spacing" textLength="242" x="2222.5" y="910.9106">greenSpaceDto = toDto(greenSpace)</text><polygon fill="#181818" points="2624,959.1094,2634,963.1094,2624,967.1094,2628,963.1094" style="stroke:#181818;stroke-width:1.0;"/><line style="stroke:#181818;stroke-width:1.0;" x1="2188.5" x2="2630" y1="963.1094" y2="963.1094"/><text fill="#000000" font-family="sans-serif" font-size="13" font-weight="bold" lengthAdjust="spacing" textLength="18" x="2195.5" y="958.0435">22</text><text fill="#000000" font-family="sans-serif" font-size="13" lengthAdjust="spacing" textLength="199" x="2217.5" y="958.0435">create(greenSpace All Getters)</text><rect fill="#E3E3E3" height="30.2969" rx="2.5" ry="2.5" style="stroke:#181818;stroke-width:0.5;" width="239" x="2636" y="941.9766"/><text fill="#000000" font-family="sans-serif" font-size="14" lengthAdjust="spacing" textLength="225" x="2643" y="961.9717">greenSpaceDto:GreenSpaceDto</text><polygon fill="#181818" points="2454.5,1000.4063,2464.5,1004.4063,2454.5,1008.4063,2458.5,1004.4063" style="stroke:#181818;stroke-width:1.0;"/><line style="stroke:#181818;stroke-width:1.0;" x1="2188.5" x2="2460.5" y1="1004.4063" y2="1004.4063"/><text fill="#000000" font-family="sans-serif" font-size="13" font-weight="bold" lengthAdjust="spacing" textLength="18" x="2195.5" y="999.3403">23</text><text fill="#000000" font-family="sans-serif" font-size="13" lengthAdjust="spacing" textLength="134" x="2217.5" y="999.3403">add(greenSpaceDto)</text><polygon fill="#181818" points="639.5,1066.5391,629.5,1070.5391,639.5,1074.5391,635.5,1070.5391" style="stroke:#181818;stroke-width:1.0;"/><line style="stroke:#181818;stroke-width:1.0;" x1="633.5" x2="2182.5" y1="1070.5391" y2="1070.5391"/><text fill="#000000" font-family="sans-serif" font-size="13" font-weight="bold" lengthAdjust="spacing" textLength="18" x="645.5" y="1065.4731">24</text><text fill="#000000" font-family="sans-serif" font-size="13" lengthAdjust="spacing" textLength="122" x="667.5" y="1065.4731">greenSpaceListDto</text><line style="stroke:#181818;stroke-width:1.0;" x1="628.5" x2="675.5" y1="1094.6719" y2="1094.6719"/><line style="stroke:#181818;stroke-width:1.0;" x1="675.5" x2="675.5" y1="1094.6719" y2="1107.6719"/><line style="stroke:#181818;stroke-width:1.0;" x1="634.5" x2="675.5" y1="1107.6719" y2="1107.6719"/><polygon fill="#181818" points="644.5,1103.6719,634.5,1107.6719,644.5,1111.6719,640.5,1107.6719" style="stroke:#181818;stroke-width:1.0;"/><text fill="#000000" font-family="sans-serif" font-size="13" font-weight="bold" lengthAdjust="spacing" textLength="18" x="640.5" y="1089.606">25</text><text fill="#000000" font-family="sans-serif" font-size="13" lengthAdjust="spacing" textLength="120" x="662.5" y="1089.606">getSortAlgorithm()</text><polygon fill="#181818" points="835.5,1137.8047,845.5,1141.8047,835.5,1145.8047,839.5,1141.8047" style="stroke:#181818;stroke-width:1.0;"/><line style="stroke:#181818;stroke-width:1.0;" x1="633.5" x2="841.5" y1="1141.8047" y2="1141.8047"/><text fill="#000000" font-family="sans-serif" font-size="13" font-weight="bold" lengthAdjust="spacing" textLength="18" x="640.5" y="1136.7388">26</text><text fill="#000000" font-family="sans-serif" font-size="13" lengthAdjust="spacing" textLength="140" x="662.5" y="1136.7388">getAlgorithmService()</text><polygon fill="#181818" points="639.5,1166.9375,629.5,1170.9375,639.5,1174.9375,635.5,1170.9375" style="stroke:#181818;stroke-width:1.0;"/><line style="stroke:#181818;stroke-width:1.0;" x1="633.5" x2="851.5" y1="1170.9375" y2="1170.9375"/><text fill="#000000" font-family="sans-serif" font-size="13" font-weight="bold" lengthAdjust="spacing" textLength="18" x="645.5" y="1165.8716">27</text><text fill="#000000" font-family="sans-serif" font-size="13" lengthAdjust="spacing" textLength="144" x="667.5" y="1165.8716">someSortingAlgorithm</text><polygon fill="#181818" points="3033,1196.0703,3043,1200.0703,3033,1204.0703,3037,1200.0703" style="stroke:#181818;stroke-width:1.0;"/><line style="stroke:#181818;stroke-width:1.0;" x1="628.5" x2="3039" y1="1200.0703" y2="1200.0703"/><text fill="#000000" font-family="sans-serif" font-size="13" font-weight="bold" lengthAdjust="spacing" textLength="18" x="635.5" y="1195.0044">28</text><text fill="#000000" font-family="sans-serif" font-size="13" lengthAdjust="spacing" textLength="198" x="657.5" y="1195.0044">sortingList(greenSpaceListDto)</text><polygon fill="#181818" points="639.5,1225.2031,629.5,1229.2031,639.5,1233.2031,635.5,1229.2031" style="stroke:#181818;stroke-width:1.0;"/><line style="stroke:#181818;stroke-width:1.0;" x1="633.5" x2="3049" y1="1229.2031" y2="1229.2031"/><text fill="#000000" font-family="sans-serif" font-size="13" font-weight="bold" lengthAdjust="spacing" textLength="18" x="645.5" y="1224.1372">29</text><text fill="#000000" font-family="sans-serif" font-size="13" lengthAdjust="spacing" textLength="63" x="667.5" y="1224.1372">sortedList</text><polygon fill="#181818" points="424,1254.3359,414,1258.3359,424,1262.3359,420,1258.3359" style="stroke:#181818;stroke-width:1.0;"/><line style="stroke:#181818;stroke-width:1.0;" x1="418" x2="622.5" y1="1258.3359" y2="1258.3359"/><text fill="#000000" font-family="sans-serif" font-size="13" font-weight="bold" lengthAdjust="spacing" textLength="18" x="430" y="1253.27">30</text><text fill="#000000" font-family="sans-serif" font-size="13" lengthAdjust="spacing" textLength="63" x="452" y="1253.27">sortedList</text><polygon fill="#181818" points="40,1283.4688,30,1287.4688,40,1291.4688,36,1287.4688" style="stroke:#181818;stroke-width:1.0;"/><line style="stroke:#181818;stroke-width:1.0;" x1="34" x2="407" y1="1287.4688" y2="1287.4688"/><text fill="#000000" font-family="sans-serif" font-size="13" font-weight="bold" lengthAdjust="spacing" textLength="18" x="46" y="1282.4028">31</text><text fill="#000000" font-family="sans-serif" font-size="13" lengthAdjust="spacing" textLength="312" x="68" y="1282.4028">Shows Sorted List of the Managed Green Spaces</text><!--SRC=[bLPBRjim4Dth58Eix02zWD06ID8sC50ZG5Jlkc4aHXP2aIf99t2lr2DqbvDrICdIa9JSne1jSZZpviFvq3mticEQjT0ggSgzLYq7gmyyC-D9nyfdLlF27WK7pKlBP2qeWzcpIhqsieOd9WpFCdQmIXxQHwvnNLgbuUAks5u0Ct2dEPS5Gl8jauYA70XYcxBfcBHmaVVaYStiDbvmjuaO7tZT6Clrn7ghfDLA2AwznBID9A-xJZGbiusI1JS6_pp_i8wOTuPhoaNsMMJx0- -KQT3TXXlFwmaXZoOyUIBWJtkfK4pfcidcbxTvb3hczuJi0P0G2jPZTBvXj7Btyt6As5Lq9-vuIJwVs2AfA6BqYhjkk8n-USwsprR5vY5fpa8aBm4va40-4az43IPyeP0WwsjHuqtOVPj3CKFz8Pks4xpbqXfu-pqSEtlU_lJvWvIHsoT-yy8idqlvX0GVhZ338SUK-NdWne9L810Qc13WtGFZgm5QBr31un7i7i6BxQG9QoH35CIQSl_o4b5BpV4yIqzpgBabnNPp_DAoHgpM4oWfesnQEnYVY1vX8mrsXP9JkI6D_HzyYBJICiWg7Wk5UgQgyChkPsk1ggPbDAqJ8-QBYff3WIAZoCvRTOjhzgWqGuols4Q77l5_aHoOUw23rfXZC_9ZsnaMyLKUI6iYJenYeKxIoBnUjqykF-XsP9D4u72IffftymOjnm6lDif8Lrytnw5AUlD6GucThkzb-ED0Gc6I_-XO9fJgu0ad4fgpXwbnG2F9pcI0dmGFaR3Ul6xuD81MDoxr7FjCmNiwyPn0uQUN4XO2Ez8Iz-NVdvxQnGhjM4FPfueuOlZT-7NSveX3iNNzYFbByKfclN7HGOzOLQqc_UkHVyPeFnvEvxDkZHnSLfdxdYw5vcd4Je3yDOOfqG-E7C9XyLq5FNqLGfB46EPErl-d0K3XTsJ8ZADBm41Dncp1h5xEan7jV50dNMbKq17KOfMBHdoTIJIM38-YGHounZbqnos-jymwjdH0FHSDPrsSQaWx6n0tgy_6n37u79kq1fCjOKvj_bTN3sRwktfvBp_A5bo_DE60F7N6fPOwzpJ9vXhxGckDxQAkEFJn_R9A8aMj35yrmJQEkCFaLLpK4K8qXJPBOjIL_jcIl9hmeRPNh_tB2_kbBplrvDlWTkYXf7a63mryAlq5]--></g></svg>