<?xml version="1.0" encoding="us-ascii" standalone="no"?><svg xmlns="http://www.w3.org/2000/svg" xmlns:xlink="http://www.w3.org/1999/xlink" contentStyleType="text/css" height="1065px" preserveAspectRatio="none" style="width:889px;height:1065px;background:#FFFFFF;" version="1.1" viewBox="0 0 889 1065" width="889px" zoomAndPan="magnify"><defs/><g><!--cluster actors--><g id="cluster_actors"><rect fill="none" height="247" rx="2.5" ry="2.5" style="stroke:#181818;stroke-width:1.0;" width="208" x="7" y="349"/><text fill="#000000" font-family="sans-serif" font-size="14" font-weight="bold" lengthAdjust="spacing" textLength="99" x="61.5" y="366.1074">System Actors</text></g><!--cluster usecases--><g id="cluster_usecases"><rect fill="none" height="1052" rx="2.5" ry="2.5" style="stroke:#181818;stroke-width:1.0;" width="640" x="243" y="7"/><text fill="#000000" font-family="sans-serif" font-size="14" font-weight="bold" lengthAdjust="spacing" textLength="74" x="526" y="24.1074">Use Cases</text></g><!--entity Manager--><g id="elem_Manager"><ellipse cx="111" cy="395" fill="#F1F1F1" rx="8" ry="8" style="stroke:#181818;stroke-width:0.5;"/><path d="M111,403 L111,430 M98,411 L124,411 M111,430 L98,445 M111,430 L124,445 " fill="none" style="stroke:#181818;stroke-width:0.5;"/><text fill="#000000" font-family="sans-serif" font-size="14" lengthAdjust="spacing" textLength="92" x="65" y="461.6074">Fleet Manager</text></g><!--entity HRM--><g id="elem_HRM"><ellipse cx="111" cy="509" fill="#F1F1F1" rx="8" ry="8" style="stroke:#181818;stroke-width:0.5;"/><path d="M111,517 L111,544 M98,525 L124,525 M111,544 L98,559 M111,544 L124,559 " fill="none" style="stroke:#181818;stroke-width:0.5;"/><text fill="#000000" font-family="sans-serif" font-size="14" lengthAdjust="spacing" textLength="176" x="23" y="575.6074">Human Recourses Manager</text></g><g id="elem_GMN6"><path d="M409.5,44.5 L409.5,71.791 L716.5,71.791 L716.5,54.5 L706.5,44.5 L409.5,44.5 " fill="#FEFFDD" style="stroke:#181818;stroke-width:0.5;"/><path d="M706.5,44.5 L706.5,54.5 L716.5,54.5 L706.5,44.5 " fill="#FEFFDD" style="stroke:#181818;stroke-width:1.0;"/><text fill="#000000" font-family="sans-serif" font-size="13" lengthAdjust="spacing" textLength="286" x="415.5" y="63.5283">Who manage Machines, Vehicles and Equipment</text></g><g id="elem_UC6"><ellipse cx="563.2489" cy="170.2498" fill="#F1F1F1" rx="304.2489" ry="63.2498" style="stroke:#181818;stroke-width:0.5;"/><text fill="#000000" font-family="sans-serif" font-size="14" lengthAdjust="spacing" textLength="561" x="282.7489" y="164.7361">UC6 -  Register a vehicle including Brand, Model, Type, Tare, Gross Weight, Current Km,</text><text fill="#000000" font-family="sans-serif" font-size="14" lengthAdjust="spacing" textLength="484" x="323.2489" y="183.3572">Register Date, Acquisition Date, Maintenance/Check-Up Frequency (in Kms).</text></g><g id="elem_UC7"><ellipse cx="562.8162" cy="296.9632" fill="#F1F1F1" rx="130.3162" ry="28.4632" style="stroke:#181818;stroke-width:0.5;"/><text fill="#000000" font-family="sans-serif" font-size="14" lengthAdjust="spacing" textLength="225" x="450.3162" y="300.7601">UC7 - Register a vehicle's check-up</text></g><g id="elem_UC8"><ellipse cx="563.1952" cy="394.839" fill="#F1F1F1" rx="157.1952" ry="33.839" style="stroke:#181818;stroke-width:0.5;"/><text fill="#000000" font-family="sans-serif" font-size="14" lengthAdjust="spacing" textLength="282" x="422.1952" y="398.6359">UC8 - List the vehicles needing the check-up</text></g><g id="elem_GMN15"><path d="M402.5,464.5 L402.5,491.791 L723.5,491.791 L723.5,474.5 L713.5,464.5 L402.5,464.5 " fill="#FEFFDD" style="stroke:#181818;stroke-width:0.5;"/><path d="M713.5,464.5 L713.5,474.5 L723.5,474.5 L713.5,464.5 " fill="#FEFFDD" style="stroke:#181818;stroke-width:1.0;"/><text fill="#000000" font-family="sans-serif" font-size="13" lengthAdjust="spacing" textLength="300" x="408.5" y="483.5283">Who manage Collaborators, Teams, Skills and Jobs</text></g><g id="elem_UC1"><ellipse cx="562.9662" cy="570.1932" fill="#F1F1F1" rx="203.9662" ry="43.1932" style="stroke:#181818;stroke-width:0.5;"/><text fill="#000000" font-family="sans-serif" font-size="14" lengthAdjust="spacing" textLength="379" x="373.4662" y="573.9901">UC1 - Register skills that may be appointed to a collaborator</text></g><g id="elem_UC2"><ellipse cx="563.0589" cy="667.9118" fill="#F1F1F1" rx="87.5589" ry="19.9118" style="stroke:#181818;stroke-width:0.5;"/><text fill="#000000" font-family="sans-serif" font-size="14" lengthAdjust="spacing" textLength="128" x="496.0589" y="672.7155">UC2 - Register a job</text></g><g id="elem_UC3"><ellipse cx="563.0857" cy="774.2171" fill="#F1F1F1" rx="241.5857" ry="50.7171" style="stroke:#181818;stroke-width:0.5;"/><text fill="#000000" font-family="sans-serif" font-size="14" lengthAdjust="spacing" textLength="456" x="335.0857" y="778.014">UC3 - Register a collaborator with a job and fundamental characteristics.</text></g><g id="elem_UC4"><ellipse cx="563.0174" cy="896.9035" fill="#F1F1F1" rx="172.5174" ry="36.9035" style="stroke:#181818;stroke-width:0.5;"/><text fill="#000000" font-family="sans-serif" font-size="14" lengthAdjust="spacing" textLength="314" x="406.0174" y="900.7004">UC4 - Assign one or more skill(s) to a collaborator</text></g><g id="elem_UC5"><ellipse cx="563.0561" cy="1006.2112" fill="#F1F1F1" rx="171.5561" ry="36.7112" style="stroke:#181818;stroke-width:0.5;"/><text fill="#000000" font-family="sans-serif" font-size="14" lengthAdjust="spacing" textLength="312" x="407.0561" y="1010.0081">UC5 - Generate a team to proposal automatically.</text></g><!--link Manager to GMN6--><g id="link_Manager_GMN6"><path d="M113.51,386.49 C118.61,314.32 140.61,161.91 235,89 C307.77,32.79 418.61,35.09 490.68,44.5 " fill="none" id="Manager-GMN6" style="stroke:#181818;stroke-width:1.0;stroke-dasharray:7.0,7.0;"/></g><!--link Manager to UC6--><g id="link_Manager_UC6"><path d="M129.5,386.29 C149.29,346.04 185.36,284.99 235,251 C261.06,233.15 285.0168,221.2404 315.5268,210.3904 " fill="none" id="Manager-to-UC6" style="stroke:#181818;stroke-width:1.0;"/><polygon fill="#181818" points="321.18,208.38,311.36,207.6268,316.469,210.0553,314.0405,215.1644,321.18,208.38" style="stroke:#181818;stroke-width:1.0;"/></g><!--link Manager to UC7--><g id="link_Manager_UC7"><path d="M157.09,388.29 C179.23,371.76 207.1,353.71 235,343 C298.02,318.8 366.2741,307.6668 428.0641,302.1168 " fill="none" id="Manager-to-UC7" style="stroke:#181818;stroke-width:1.0;"/><polygon fill="#181818" points="434.04,301.58,424.7182,298.4012,429.06,302.0273,425.4339,306.3691,434.04,301.58" style="stroke:#181818;stroke-width:1.0;"/></g><!--link Manager to UC8--><g id="link_Manager_UC8"><path d="M157.21,422.89 C216.66,418.79 318.0542,411.8019 407.2842,405.6619 " fill="none" id="Manager-to-UC8" style="stroke:#181818;stroke-width:1.0;"/><polygon fill="#181818" points="413.27,405.25,404.0166,401.8773,408.2818,405.5932,404.5658,409.8584,413.27,405.25" style="stroke:#181818;stroke-width:1.0;"/></g><!--link HRM to GMN15--><g id="link_HRM_GMN15"><path d="M199,516.33 C211.03,513.57 223.28,511.02 235,509 C289.09,499.68 348.73,492.98 402.1,488.26 " fill="none" id="HRM-GMN15" style="stroke:#181818;stroke-width:1.0;stroke-dasharray:7.0,7.0;"/></g><!--link HRM to UC1--><g id="link_HRM_UC1"><path d="M199.03,545.8 C247.19,549.01 303.1033,552.7412 362.0933,556.6712 " fill="none" id="HRM-to-UC1" style="stroke:#181818;stroke-width:1.0;"/><polygon fill="#181818" points="368.08,557.07,359.3658,552.4806,363.0911,556.7376,358.834,560.4629,368.08,557.07" style="stroke:#181818;stroke-width:1.0;"/></g><!--link HRM to UC2--><g id="link_HRM_UC2"><path d="M154.51,579.63 C176.81,598.08 205.56,618.46 235,630 C312.68,660.46 402.1211,668.4239 469.7911,669.7339 " fill="none" id="HRM-to-UC2" style="stroke:#181818;stroke-width:1.0;"/><polygon fill="#181818" points="475.79,669.85,466.8691,665.6766,470.7909,669.7532,466.7143,673.6751,475.79,669.85" style="stroke:#181818;stroke-width:1.0;"/></g><!--link HRM to UC3--><g id="link_HRM_UC3"><path d="M130.79,579.57 C151.06,617.8 186.99,674.29 235,705 C268.36,726.34 301.3701,739.6634 340.3601,749.9934 " fill="none" id="HRM-to-UC3" style="stroke:#181818;stroke-width:1.0;"/><polygon fill="#181818" points="346.16,751.53,338.4846,745.3585,341.3268,750.2495,336.4357,753.0917,346.16,751.53" style="stroke:#181818;stroke-width:1.0;"/></g><!--link HRM to UC4--><g id="link_HRM_UC4"><path d="M115.98,579.57 C124.83,645.18 152.37,775.82 235,842 C278.7,877 330.426,892.5983 385.176,899.4183 " fill="none" id="HRM-to-UC4" style="stroke:#181818;stroke-width:1.0;"/><polygon fill="#181818" points="391.13,900.16,382.6935,895.0782,386.1683,899.5419,381.7046,903.0168,391.13,900.16" style="stroke:#181818;stroke-width:1.0;"/></g><!--link HRM to UC5--><g id="link_HRM_UC5"><path d="M111.06,579.64 C111.43,662.37 124.87,853.76 235,951 C278.15,989.1 331.5265,1005.1689 387.8165,1011.4089 " fill="none" id="HRM-to-UC5" style="stroke:#181818;stroke-width:1.0;"/><polygon fill="#181818" points="393.78,1012.07,385.2755,1007.1027,388.8104,1011.5191,384.3941,1015.054,393.78,1012.07" style="stroke:#181818;stroke-width:1.0;"/></g><!--SRC=[VLDBSzCm4BxxL-paadOcWScZ92TcGg3j0Baqb5wuREIDBI9BhYJJyJ3zxwmKXoHsG0VRalTxx2UfxtPIbsYnWC9e8t9h2W9lAqgEVqeKEynexMj5O4bur9cYf7-iS3ccvaNg3BQe72M9egq7Ry3ABFUGoe2IHYV9NpZqrhNpLC12U6DT3z01na_udG2FE87UhIBoi4BD3coiQhvFY-wh0ZKya32LTUJEokyVLibhSgRyw0YMo8Mne78amcGlgusdnhRPdcc5yPGRAE8Q_nAvrEG6y9roAHJBeaxXqtCbouAqZnZYbS0O9uqGwo_VmH3ORoOv0Wi8l_OK8BLGLHg2_62PRG0hav8QmBUw97wYvUUTDSx14mMF0rXMrh8QV2a6F_IHyYDwBbq8TkDaYBvPMQ7KdZHgGM-NEOdTyB64MqlF5MbHmvNKpEIktyHas6SqtgG0m-7xkDRkPiRTT9lfEn1HeIeRjja5jbc7RSviNvaBV4u7BWUQAEOI5bkqymkqy-J2ReQZS64dbqOft1YBuVHnoeG5lzOxgTH-Jp-RZVllTevE0t1xeC_Hiq8D6m8iInDoJyETG10dWaqFeqZ91Xl_equiu_EGVvfD0nsteECET78EFPM75-dpFLriTLlf5CFnHSKny-KMZ66W5Evm9YOjlKb7Ryfw2-Tafi5e0bOfZALzC5Vk-fyXJ5lCqmxp3JFVaIP6SQhWUQi2MsbDQHnRnigR0jajAbKV3D-qQ6-IC5wJFm00]--></g></svg>