<?xml version="1.0" encoding="us-ascii" standalone="no"?><svg xmlns="http://www.w3.org/2000/svg" xmlns:xlink="http://www.w3.org/1999/xlink" contentStyleType="text/css" height="502px" preserveAspectRatio="none" style="width:906px;height:502px;background:#FFFFFF;" version="1.1" viewBox="0 0 906 502" width="906px" zoomAndPan="magnify"><defs/><g><rect fill="#FFFFFF" height="347.7715" style="stroke:#181818;stroke-width:1.0;" width="10" x="180" y="84.2871"/><rect fill="#FFFFFF" height="29.3105" style="stroke:#181818;stroke-width:1.0;" width="10" x="392" y="155.9082"/><rect fill="#FFFFFF" height="29.3105" style="stroke:#181818;stroke-width:1.0;" width="10" x="505" y="214.5293"/><rect fill="#FFFFFF" height="197.2188" style="stroke:#181818;stroke-width:1.0;" width="10" x="625.5" y="243.8398"/><line style="stroke:#181818;stroke-width:0.5;stroke-dasharray:5.0,5.0;" x1="185" x2="185" y1="52.9766" y2="450.0586"/><line style="stroke:#181818;stroke-width:0.5;stroke-dasharray:5.0,5.0;" x1="396.5" x2="396.5" y1="52.9766" y2="450.0586"/><line style="stroke:#181818;stroke-width:0.5;stroke-dasharray:5.0,5.0;" x1="509.5" x2="509.5" y1="52.9766" y2="450.0586"/><line style="stroke:#181818;stroke-width:0.5;stroke-dasharray:5.0,5.0;" x1="630.5" x2="630.5" y1="52.9766" y2="450.0586"/><line style="stroke:#181818;stroke-width:0.5;stroke-dasharray:5.0,5.0;" x1="877.5" x2="877.5" y1="320.1387" y2="450.0586"/><rect fill="#E3E3E3" height="30.4883" rx="2.5" ry="2.5" style="stroke:#181818;stroke-width:0.5;" width="172" x="99" y="21.4883"/><text fill="#000000" font-family="sans-serif" font-size="14" lengthAdjust="spacing" textLength="158" x="106" y="42.0234">:RegisterSkillController</text><rect fill="#E3E3E3" height="30.4883" rx="2.5" ry="2.5" style="stroke:#181818;stroke-width:0.5;" width="172" x="99" y="449.0586"/><text fill="#000000" font-family="sans-serif" font-size="14" lengthAdjust="spacing" textLength="158" x="106" y="469.5938">:RegisterSkillController</text><rect fill="#E3E3E3" height="30.4883" rx="2.5" ry="2.5" style="stroke:#181818;stroke-width:0.5;" width="103" x="345.5" y="21.4883"/><text fill="#000000" font-family="sans-serif" font-size="14" lengthAdjust="spacing" textLength="89" x="352.5" y="42.0234">:Repositories</text><rect fill="#E3E3E3" height="30.4883" rx="2.5" ry="2.5" style="stroke:#181818;stroke-width:0.5;" width="103" x="345.5" y="449.0586"/><text fill="#000000" font-family="sans-serif" font-size="14" lengthAdjust="spacing" textLength="89" x="352.5" y="469.5938">:Repositories</text><rect fill="#E3E3E3" height="46.9766" rx="2.5" ry="2.5" style="stroke:#181818;stroke-width:0.5;" width="103" x="458.5" y="5"/><text fill="#000000" font-family="sans-serif" font-size="14" lengthAdjust="spacing" textLength="82" x="469" y="25.5352">repositories</text><text fill="#000000" font-family="sans-serif" font-size="14" lengthAdjust="spacing" textLength="89" x="465.5" y="42.0234">:Repositories</text><rect fill="#E3E3E3" height="46.9766" rx="2.5" ry="2.5" style="stroke:#181818;stroke-width:0.5;" width="103" x="458.5" y="449.0586"/><text fill="#000000" font-family="sans-serif" font-size="14" lengthAdjust="spacing" textLength="82" x="469" y="469.5938">repositories</text><text fill="#000000" font-family="sans-serif" font-size="14" lengthAdjust="spacing" textLength="89" x="465.5" y="486.082">:Repositories</text><rect fill="#E3E3E3" height="46.9766" rx="2.5" ry="2.5" style="stroke:#181818;stroke-width:0.5;" width="118" x="571.5" y="5"/><text fill="#000000" font-family="sans-serif" font-size="14" lengthAdjust="spacing" textLength="104" x="578.5" y="25.5352">skillRepository:</text><text fill="#000000" font-family="sans-serif" font-size="14" lengthAdjust="spacing" textLength="101" x="580" y="42.0234">SkillRepository</text><rect fill="#E3E3E3" height="46.9766" rx="2.5" ry="2.5" style="stroke:#181818;stroke-width:0.5;" width="118" x="571.5" y="449.0586"/><text fill="#000000" font-family="sans-serif" font-size="14" lengthAdjust="spacing" textLength="104" x="578.5" y="469.5938">skillRepository:</text><text fill="#000000" font-family="sans-serif" font-size="14" lengthAdjust="spacing" textLength="101" x="580" y="486.082">SkillRepository</text><rect fill="#E3E3E3" height="46.9766" rx="2.5" ry="2.5" style="stroke:#181818;stroke-width:0.5;" width="46" x="854.5" y="449.0586"/><text fill="#000000" font-family="sans-serif" font-size="14" lengthAdjust="spacing" textLength="32" x="861.5" y="469.5938">Skill:</text><text fill="#000000" font-family="sans-serif" font-size="14" lengthAdjust="spacing" textLength="28" x="863.5" y="486.082">Skill</text><rect fill="#FFFFFF" height="347.7715" style="stroke:#181818;stroke-width:1.0;" width="10" x="180" y="84.2871"/><rect fill="#FFFFFF" height="29.3105" style="stroke:#181818;stroke-width:1.0;" width="10" x="392" y="155.9082"/><rect fill="#FFFFFF" height="29.3105" style="stroke:#181818;stroke-width:1.0;" width="10" x="505" y="214.5293"/><rect fill="#FFFFFF" height="197.2188" style="stroke:#181818;stroke-width:1.0;" width="10" x="625.5" y="243.8398"/><polygon fill="#181818" points="168,80.2871,178,84.2871,168,88.2871,172,84.2871" style="stroke:#181818;stroke-width:1.0;"/><line style="stroke:#181818;stroke-width:1.0;" x1="0" x2="174" y1="84.2871" y2="84.2871"/><text fill="#000000" font-family="sans-serif" font-size="13" font-weight="bold" lengthAdjust="spacing" textLength="9" x="7" y="79.5449">5</text><text fill="#000000" font-family="sans-serif" font-size="13" lengthAdjust="spacing" textLength="148" x="20" y="79.5449">registerSkill(skill name)</text><line style="stroke:#181818;stroke-width:1.0;" x1="190" x2="232" y1="113.5977" y2="113.5977"/><line style="stroke:#181818;stroke-width:1.0;" x1="232" x2="232" y1="113.5977" y2="126.5977"/><line style="stroke:#181818;stroke-width:1.0;" x1="191" x2="232" y1="126.5977" y2="126.5977"/><polygon fill="#181818" points="201,122.5977,191,126.5977,201,130.5977,197,126.5977" style="stroke:#181818;stroke-width:1.0;"/><text fill="#000000" font-family="sans-serif" font-size="13" font-weight="bold" lengthAdjust="spacing" textLength="9" x="197" y="108.8555">6</text><text fill="#000000" font-family="sans-serif" font-size="13" lengthAdjust="spacing" textLength="175" x="210" y="108.8555">verifySkillName(skill name))</text><polygon fill="#181818" points="380,151.9082,390,155.9082,380,159.9082,384,155.9082" style="stroke:#181818;stroke-width:1.0;"/><line style="stroke:#181818;stroke-width:1.0;" x1="190" x2="386" y1="155.9082" y2="155.9082"/><text fill="#000000" font-family="sans-serif" font-size="13" font-weight="bold" lengthAdjust="spacing" textLength="9" x="197" y="151.166">7</text><text fill="#000000" font-family="sans-serif" font-size="13" lengthAdjust="spacing" textLength="81" x="210" y="151.166">getInstance()</text><polygon fill="#181818" points="201,181.2188,191,185.2188,201,189.2188,197,185.2188" style="stroke:#181818;stroke-width:1.0;"/><line style="stroke:#181818;stroke-width:1.0;stroke-dasharray:2.0,2.0;" x1="195" x2="396" y1="185.2188" y2="185.2188"/><text fill="#000000" font-family="sans-serif" font-size="13" font-weight="bold" lengthAdjust="spacing" textLength="9" x="207" y="180.4766">8</text><text fill="#000000" font-family="sans-serif" font-size="13" lengthAdjust="spacing" textLength="75" x="220" y="180.4766">repositories</text><polygon fill="#181818" points="493,210.5293,503,214.5293,493,218.5293,497,214.5293" style="stroke:#181818;stroke-width:1.0;"/><line style="stroke:#181818;stroke-width:1.0;" x1="190" x2="499" y1="214.5293" y2="214.5293"/><text fill="#000000" font-family="sans-serif" font-size="13" font-weight="bold" lengthAdjust="spacing" textLength="9" x="197" y="209.7871">9</text><text fill="#000000" font-family="sans-serif" font-size="13" lengthAdjust="spacing" textLength="122" x="210" y="209.7871">getSkillRepository()</text><polygon fill="#181818" points="201,239.8398,191,243.8398,201,247.8398,197,243.8398" style="stroke:#181818;stroke-width:1.0;"/><line style="stroke:#181818;stroke-width:1.0;stroke-dasharray:2.0,2.0;" x1="195" x2="509" y1="243.8398" y2="243.8398"/><text fill="#000000" font-family="sans-serif" font-size="13" font-weight="bold" lengthAdjust="spacing" textLength="18" x="207" y="239.0977">10</text><text fill="#000000" font-family="sans-serif" font-size="13" lengthAdjust="spacing" textLength="94" x="229" y="239.0977">skillRepository</text><polygon fill="#181818" points="613.5,269.1504,623.5,273.1504,613.5,277.1504,617.5,273.1504" style="stroke:#181818;stroke-width:1.0;"/><line style="stroke:#181818;stroke-width:1.0;" x1="190" x2="619.5" y1="273.1504" y2="273.1504"/><text fill="#000000" font-family="sans-serif" font-size="13" font-weight="bold" lengthAdjust="spacing" textLength="18" x="197" y="268.4082">11</text><text fill="#000000" font-family="sans-serif" font-size="13" lengthAdjust="spacing" textLength="152" x="219" y="268.4082">registerSkill (skill name)</text><polygon fill="#181818" points="842.5,298.4609,852.5,302.4609,842.5,306.4609,846.5,302.4609" style="stroke:#181818;stroke-width:1.0;"/><line style="stroke:#181818;stroke-width:1.0;" x1="635.5" x2="848.5" y1="302.4609" y2="302.4609"/><text fill="#000000" font-family="sans-serif" font-size="13" font-weight="bold" lengthAdjust="spacing" textLength="18" x="642.5" y="297.7188">12</text><text fill="#000000" font-family="sans-serif" font-size="13" lengthAdjust="spacing" textLength="46" x="664.5" y="297.7188">create()</text><rect fill="#E3E3E3" height="46.9766" rx="2.5" ry="2.5" style="stroke:#181818;stroke-width:0.5;" width="46" x="854.5" y="281.1504"/><text fill="#000000" font-family="sans-serif" font-size="14" lengthAdjust="spacing" textLength="32" x="861.5" y="301.6855">Skill:</text><text fill="#000000" font-family="sans-serif" font-size="14" lengthAdjust="spacing" textLength="28" x="863.5" y="318.1738">Skill</text><line style="stroke:#181818;stroke-width:1.0;" x1="635.5" x2="677.5" y1="360.4375" y2="360.4375"/><line style="stroke:#181818;stroke-width:1.0;" x1="677.5" x2="677.5" y1="360.4375" y2="373.4375"/><line style="stroke:#181818;stroke-width:1.0;" x1="636.5" x2="677.5" y1="373.4375" y2="373.4375"/><polygon fill="#181818" points="646.5,369.4375,636.5,373.4375,646.5,377.4375,642.5,373.4375" style="stroke:#181818;stroke-width:1.0;"/><text fill="#000000" font-family="sans-serif" font-size="13" font-weight="bold" lengthAdjust="spacing" textLength="18" x="642.5" y="355.6953">13</text><text fill="#000000" font-family="sans-serif" font-size="13" lengthAdjust="spacing" textLength="201" x="664.5" y="355.6953">verifyIfExistAndSave(skill name)</text><polygon fill="#181818" points="201,398.748,191,402.748,201,406.748,197,402.748" style="stroke:#181818;stroke-width:1.0;"/><line style="stroke:#181818;stroke-width:1.0;" x1="195" x2="624.5" y1="402.748" y2="402.748"/><text fill="#000000" font-family="sans-serif" font-size="13" font-weight="bold" lengthAdjust="spacing" textLength="18" x="207" y="398.0059">14</text><text fill="#000000" font-family="sans-serif" font-size="13" lengthAdjust="spacing" textLength="50" x="229" y="398.0059">skillList</text><polygon fill="#181818" points="11,428.0586,1,432.0586,11,436.0586,7,432.0586" style="stroke:#181818;stroke-width:1.0;"/><line style="stroke:#181818;stroke-width:1.0;stroke-dasharray:2.0,2.0;" x1="5" x2="184" y1="432.0586" y2="432.0586"/><text fill="#000000" font-family="sans-serif" font-size="13" font-weight="bold" lengthAdjust="spacing" textLength="18" x="17" y="427.3164">15</text><text fill="#000000" font-family="sans-serif" font-size="13" lengthAdjust="spacing" textLength="50" x="39" y="427.3164">skillList</text><!--SRC=[bPCzRy8m48Pt_mgBfO2KeGCBgYeXr049LHLXP3799LX9xCWs5FvzdGiGnmw8UehYUvzxxyEwuA9cYbMqaa8c1oKhe4OTWUZxJSsIWkKGcqi9L45YcCXBDq0VM2f_kSXfnaeDXB2ZaU9OxK4HydRWAT1CIhENPqA8bHYUy9e9GqVp3UHS6r1nmSjoAOLHiYn1ZIZJTBdTh8FmMcfkfEAWCUR-unBpnfNDsvSeHx4J8U1dlTZs5Rgnqd7dEn7t_w3EY-eZK70JOZX-kOsXCn9zOebqRflgT66CQ2fO1HE2Xpg79OQVc86sE-uDiZhc2HJFBaZyjYYNEl6OhdgWeHQMWra9RGUVm7WIQE-UXgOHH3TdA4jqzTwqenjI84_XV-bkXJM3RYlnnlci8DoEmGeGrrdsr-69wvRvEAUF6iv_AykBzfU9zhTfYEGJB1Ibqwc59Ggif_7hqj1FkuYhxEjiRIr46hCJ13l-0lcwrtYpjYWhSfxJ-mmP7r4K1ZuO1BwWzlm1]--></g></svg>