<?xml version="1.0" encoding="us-ascii" standalone="no"?><svg xmlns="http://www.w3.org/2000/svg" xmlns:xlink="http://www.w3.org/1999/xlink" contentStyleType="text/css" height="490px" preserveAspectRatio="none" style="width:314px;height:490px;background:#FFFFFF;" version="1.1" viewBox="0 0 314 490" width="314px" zoomAndPan="magnify"><defs/><g><!--class GSM--><g id="elem_GSM"><rect codeLine="19" fill="#F1F1F1" height="92.4844" id="GSM" rx="2.5" ry="2.5" style="stroke:#181818;stroke-width:0.5;" width="72" x="138" y="7"/><text fill="#000000" font-family="sans-serif" font-size="14" lengthAdjust="spacing" textLength="31" x="158.5" y="27.1074">GSM</text><line style="stroke:#181818;stroke-width:0.5;" x1="139" x2="209" y1="35.6211" y2="35.6211"/><text fill="#000000" font-family="sans-serif" font-size="14" lengthAdjust="spacing" textLength="35" x="144" y="54.7285">name</text><text fill="#000000" font-family="sans-serif" font-size="14" lengthAdjust="spacing" textLength="33" x="144" y="73.3496">email</text><text fill="#000000" font-family="sans-serif" font-size="14" lengthAdjust="spacing" textLength="60" x="144" y="91.9707">password</text></g><!--class Entry--><g id="elem_Entry"><rect codeLine="25" fill="#F1F1F1" height="73.8633" id="Entry" rx="2.5" ry="2.5" style="stroke:#181818;stroke-width:0.5;" width="83" x="16.5" y="178"/><text fill="#000000" font-family="sans-serif" font-size="14" lengthAdjust="spacing" textLength="33" x="41.5" y="198.1074">Entry</text><line style="stroke:#181818;stroke-width:0.5;" x1="17.5" x2="98.5" y1="206.6211" y2="206.6211"/><text fill="#000000" font-family="sans-serif" font-size="14" lengthAdjust="spacing" textLength="71" x="22.5" y="225.7285">periodTime</text><text fill="#000000" font-family="sans-serif" font-size="14" lengthAdjust="spacing" textLength="38" x="22.5" y="244.3496">status</text></g><!--class Vehicle--><g id="elem_Vehicle"><rect codeLine="30" fill="#F1F1F1" height="36.6211" id="Vehicle" rx="2.5" ry="2.5" style="stroke:#181818;stroke-width:0.5;" width="52" x="239" y="331"/><text fill="#000000" font-family="sans-serif" font-size="14" lengthAdjust="spacing" textLength="46" x="242" y="351.1074">Vehicle</text><line style="stroke:#181818;stroke-width:0.5;" x1="240" x2="290" y1="359.6211" y2="359.6211"/></g><!--class Task--><g id="elem_Task"><rect codeLine="34" fill="#F1F1F1" height="36.6211" id="Task" rx="2.5" ry="2.5" style="stroke:#181818;stroke-width:0.5;" width="37" x="182.5" y="196.5"/><text fill="#000000" font-family="sans-serif" font-size="14" lengthAdjust="spacing" textLength="31" x="185.5" y="216.6074">Task</text><line style="stroke:#181818;stroke-width:0.5;" x1="183.5" x2="218.5" y1="225.1211" y2="225.1211"/></g><!--class Team--><g id="elem_Team"><rect fill="#F1F1F1" height="36.6211" id="Team" rx="2.5" ry="2.5" style="stroke:#181818;stroke-width:0.5;" width="42" x="28" y="331"/><text fill="#000000" font-family="sans-serif" font-size="14" lengthAdjust="spacing" textLength="36" x="31" y="351.1074">Team</text><line style="stroke:#181818;stroke-width:0.5;" x1="29" x2="69" y1="359.6211" y2="359.6211"/></g><!--class Equipment--><g id="elem_Equipment"><rect fill="#F1F1F1" height="36.6211" id="Equipment" rx="2.5" ry="2.5" style="stroke:#181818;stroke-width:0.5;" width="73" x="105.5" y="331"/><text fill="#000000" font-family="sans-serif" font-size="14" lengthAdjust="spacing" textLength="67" x="108.5" y="351.1074">Equipment</text><line style="stroke:#181818;stroke-width:0.5;" x1="106.5" x2="177.5" y1="359.6211" y2="359.6211"/></g><!--class Collaborator--><g id="elem_Collaborator"><rect fill="#F1F1F1" height="36.6211" id="Collaborator" rx="2.5" ry="2.5" style="stroke:#181818;stroke-width:0.5;" width="84" x="7" y="447"/><text fill="#000000" font-family="sans-serif" font-size="14" lengthAdjust="spacing" textLength="78" x="10" y="467.1074">Collaborator</text><line style="stroke:#181818;stroke-width:0.5;" x1="8" x2="90" y1="475.6211" y2="475.6211"/></g><!--link GSM to Entry--><g id="link_GSM_Entry"><path codeLine="38" d="M141.07,99.42 C123.05,124.27 101.04,154.64 84.2,177.87 " fill="none" id="GSM-Entry" style="stroke:#181818;stroke-width:1.0;"/><polygon fill="#000000" points="121.0654,142.6937,128.7536,137.0954,123.9947,133.6455,121.0654,142.6937" style="stroke:#000000;stroke-width:1.0;"/><text fill="#000000" font-family="sans-serif" font-size="13" lengthAdjust="spacing" textLength="26" x="133" y="144.0283">have</text><text fill="#000000" font-family="sans-serif" font-size="13" lengthAdjust="spacing" textLength="7" x="128.7193" y="121.5005">1</text><text fill="#000000" font-family="sans-serif" font-size="13" lengthAdjust="spacing" textLength="20" x="67.0856" y="166.8086">0..*</text></g><!--link Entry to Task--><g id="link_Entry_Task"><path codeLine="40" d="M99.75,215 C127.12,215 161.56,215 182.4,215 " fill="none" id="Entry-Task" style="stroke:#181818;stroke-width:1.0;"/><text fill="#000000" font-family="sans-serif" font-size="13" lengthAdjust="spacing" textLength="46" x="118" y="208.0283">extends</text><text fill="#000000" font-family="sans-serif" font-size="13" lengthAdjust="spacing" textLength="7" x="107.5273" y="210.6041">1</text><text fill="#000000" font-family="sans-serif" font-size="13" lengthAdjust="spacing" textLength="7" x="167.5269" y="209.1195">1</text></g><!--link GSM to Vehicle--><g id="link_GSM_Vehicle"><path codeLine="42" d="M201.13,99.07 C213.82,121.98 228.06,150.69 237,178 C254.64,231.88 261.5,299.14 263.88,330.65 " fill="none" id="GSM-Vehicle" style="stroke:#181818;stroke-width:1.0;"/><polygon fill="#000000" points="260.3077,219.9715,260.7787,210.4726,255.1054,212.0098,260.3077,219.9715" style="stroke:#000000;stroke-width:1.0;"/><text fill="#000000" font-family="sans-serif" font-size="13" lengthAdjust="spacing" textLength="38" x="268" y="220.5283">assign</text><text fill="#000000" font-family="sans-serif" font-size="13" lengthAdjust="spacing" textLength="7" x="197.7483" y="121.4395">1</text><text fill="#000000" font-family="sans-serif" font-size="13" lengthAdjust="spacing" textLength="20" x="240.6135" y="319.7427">0..*</text></g><!--link Entry to Team--><g id="link_Entry_Team"><path codeLine="44" d="M55.54,252.21 C53.8,277.8 51.55,310.98 50.19,330.96 " fill="none" id="Entry-Team" style="stroke:#181818;stroke-width:1.0;"/><polygon fill="#000000" points="58.6611,296.634,62.2063,287.8089,56.342,287.4105,58.6611,296.634" style="stroke:#000000;stroke-width:1.0;"/><text fill="#000000" font-family="sans-serif" font-size="13" lengthAdjust="spacing" textLength="26" x="68" y="297.0283">have</text><text fill="#000000" font-family="sans-serif" font-size="13" lengthAdjust="spacing" textLength="7" x="47.5529" y="273.8445">1</text><text fill="#000000" font-family="sans-serif" font-size="13" lengthAdjust="spacing" textLength="22" x="25.1857" y="319.8099">0..1</text></g><!--link Entry to Vehicle--><g id="link_Entry_Vehicle"><path codeLine="46" d="M99.74,242.02 C119.04,254.1 142.24,268.71 163,282 C188.82,298.53 218.11,317.67 238.66,331.16 " fill="none" id="Entry-Vehicle" style="stroke:#181818;stroke-width:1.0;"/><text fill="#000000" font-family="sans-serif" font-size="13" lengthAdjust="spacing" textLength="34" x="192" y="297.0283">have&gt;</text><text fill="#000000" font-family="sans-serif" font-size="13" lengthAdjust="spacing" textLength="7" x="107.5156" y="242.2682">1</text><text fill="#000000" font-family="sans-serif" font-size="13" lengthAdjust="spacing" textLength="20" x="211.1649" y="322.7217">0..*</text></g><!--link Entry to Equipment--><g id="link_Entry_Equipment"><path codeLine="48" d="M83.21,252.02 C89.78,261.67 96.77,272.16 103,282 C113.31,298.28 124.36,317.29 132.06,330.8 " fill="none" id="Entry-Equipment" style="stroke:#181818;stroke-width:1.0;"/><polygon fill="#000000" points="121.6349,295.8949,119.366,286.6589,114.3706,289.7565,121.6349,295.8949" style="stroke:#000000;stroke-width:1.0;"/><text fill="#000000" font-family="sans-serif" font-size="13" lengthAdjust="spacing" textLength="26" x="128" y="297.0283">have</text><text fill="#000000" font-family="sans-serif" font-size="13" lengthAdjust="spacing" textLength="7" x="79.9414" y="273.9088">1</text><text fill="#000000" font-family="sans-serif" font-size="13" lengthAdjust="spacing" textLength="20" x="105.9534" y="319.6009">0..*</text></g><!--link Team to Collaborator--><g id="link_Team_Collaborator"><path codeLine="50" d="M49,368.31 C49,389.73 49,425.45 49,446.81 " fill="none" id="Team-Collaborator" style="stroke:#181818;stroke-width:1.0;"/><polygon fill="#000000" points="54,412.6455,56.9389,403.6004,51.0611,403.6004,54,412.6455" style="stroke:#000000;stroke-width:1.0;"/><text fill="#000000" font-family="sans-serif" font-size="13" lengthAdjust="spacing" textLength="26" x="63" y="413.0283">have</text><text fill="#000000" font-family="sans-serif" font-size="13" lengthAdjust="spacing" textLength="7" x="41.0594" y="389.7679">1</text><text fill="#000000" font-family="sans-serif" font-size="13" lengthAdjust="spacing" textLength="20" x="25.9375" y="435.614">0..*</text></g><!--SRC=[TP31IWCn48RlUOfXBmMXfLvx44H5F1I45kzfCjqTccJMPDPQIz_TRBRQgZM7C4c- -VuaQKEXrL5xy1pOD94zWiGELVe-QRNPw1eNidC84OteKBjp83NQyfP23Mlj4YerShWM48P8TIDWgUyY3kgioJYTqgr8f5Kd-6GuBEW3OQfKGnR1K3GvfDGUfM6RibT8yXtksMiAC6UBBcyM4pmxBMkE7lPg132sc4oajgIE3agfWNfSp3C0UGJjiHIOPQvKRIQs7AqwVE4FGU9ku5kCn7P9nwuaMhfq8b-meNpXlJfjBNNQ3Ei-jRgkO3o6QZgPN5M3U0QDVaEuKQei1wJCVIlC0Dy5G__mlu9ZNePo5DNXbsNWUXFclxuOT47LK_z03wyTjHw3dCcA-oTsnyxf5KSj74_a9m00]--></g></svg>