<?xml version="1.0" encoding="us-ascii" standalone="no"?><svg xmlns="http://www.w3.org/2000/svg" xmlns:xlink="http://www.w3.org/1999/xlink" contentStyleType="text/css" height="626px" preserveAspectRatio="none" style="width:329px;height:626px;background:#FFFFFF;" version="1.1" viewBox="0 0 329 626" width="329px" zoomAndPan="magnify"><defs/><g><!--class Entry--><g id="elem_Entry"><rect codeLine="8" fill="#F1F1F1" height="115.7813" id="Entry" rx="2.5" ry="2.5" style="stroke:#181818;stroke-width:0.5;" width="83" x="127.5" y="151"/><text fill="#000000" font-family="sans-serif" font-size="14" lengthAdjust="spacing" textLength="35" x="151.5" y="168.9951">Entry</text><line style="stroke:#181818;stroke-width:0.5;" x1="128.5" x2="209.5" y1="177.2969" y2="177.2969"/><text fill="#000000" font-family="sans-serif" font-size="14" lengthAdjust="spacing" textLength="67" x="133.5" y="194.292">reference</text><text fill="#000000" font-family="sans-serif" font-size="14" lengthAdjust="spacing" textLength="43" x="133.5" y="210.5889">status</text><text fill="#000000" font-family="sans-serif" font-size="14" lengthAdjust="spacing" textLength="64" x="133.5" y="226.8857">startDate</text><text fill="#000000" font-family="sans-serif" font-size="14" lengthAdjust="spacing" textLength="71" x="133.5" y="243.1826">vehicleList</text><text fill="#000000" font-family="sans-serif" font-size="14" lengthAdjust="spacing" textLength="69" x="133.5" y="259.4795">finishDate</text></g><!--class GSM--><g id="elem_GSM"><rect codeLine="16" fill="#F1F1F1" height="66.8906" id="GSM" rx="2.5" ry="2.5" style="stroke:#181818;stroke-width:0.5;" width="79" x="236.5" y="7"/><text fill="#000000" font-family="sans-serif" font-size="14" lengthAdjust="spacing" textLength="32" x="260" y="24.9951">GSM</text><line style="stroke:#181818;stroke-width:0.5;" x1="237.5" x2="314.5" y1="33.2969" y2="33.2969"/><text fill="#000000" font-family="sans-serif" font-size="14" lengthAdjust="spacing" textLength="36" x="242.5" y="50.292">email</text><text fill="#000000" font-family="sans-serif" font-size="14" lengthAdjust="spacing" textLength="67" x="242.5" y="66.5889">password</text></g><!--class Team--><g id="elem_Team"><rect codeLine="21" fill="#F1F1F1" height="99.4844" id="Team" rx="2.5" ry="2.5" style="stroke:#181818;stroke-width:0.5;" width="106" x="7" y="344"/><text fill="#000000" font-family="sans-serif" font-size="14" lengthAdjust="spacing" textLength="39" x="40.5" y="361.9951">Team</text><line style="stroke:#181818;stroke-width:0.5;" x1="8" x2="112" y1="370.2969" y2="370.2969"/><text fill="#000000" font-family="sans-serif" font-size="14" lengthAdjust="spacing" textLength="39" x="13" y="387.292">name</text><text fill="#000000" font-family="sans-serif" font-size="14" lengthAdjust="spacing" textLength="57" x="13" y="403.5889">maxSize</text><text fill="#000000" font-family="sans-serif" font-size="14" lengthAdjust="spacing" textLength="54" x="13" y="419.8857">minSize</text><text fill="#000000" font-family="sans-serif" font-size="14" lengthAdjust="spacing" textLength="94" x="13" y="436.1826">skillsSelected</text></g><!--class Collaborator--><g id="elem_Collaborator"><rect codeLine="28" fill="#F1F1F1" height="99.4844" id="Collaborator" rx="2.5" ry="2.5" style="stroke:#181818;stroke-width:0.5;" width="89" x="15.5" y="520"/><text fill="#000000" font-family="sans-serif" font-size="14" lengthAdjust="spacing" textLength="83" x="18.5" y="537.9951">Collaborator</text><line style="stroke:#181818;stroke-width:0.5;" x1="16.5" x2="103.5" y1="546.2969" y2="546.2969"/><text fill="#000000" font-family="sans-serif" font-size="14" lengthAdjust="spacing" textLength="39" x="21.5" y="563.292">name</text><text fill="#000000" font-family="sans-serif" font-size="14" lengthAdjust="spacing" textLength="36" x="21.5" y="579.5889">email</text><text fill="#000000" font-family="sans-serif" font-size="14" lengthAdjust="spacing" textLength="62" x="21.5" y="595.8857">birthdate</text><text fill="#000000" font-family="sans-serif" font-size="14" lengthAdjust="spacing" textLength="39" x="21.5" y="612.1826">salary</text></g><!--class EmailService--><g id="elem_EmailService"><rect codeLine="36" fill="#F1F1F1" height="34.2969" id="EmailService" rx="2.5" ry="2.5" style="stroke:#181818;stroke-width:0.5;" width="92" x="14" y="23.5"/><text fill="#000000" font-family="sans-serif" font-size="14" lengthAdjust="spacing" textLength="86" x="17" y="41.4951">EmailService</text><line style="stroke:#181818;stroke-width:0.5;" x1="15" x2="105" y1="49.7969" y2="49.7969"/></g><!--link GSM to Entry--><g id="link_GSM_Entry"><path codeLine="39" d="M261.9,74.04 C255.06,88.76 246.31,106.15 237,121 C229.16,133.51 219.89,146.36 210.75,158.22 " fill="none" id="GSM-Entry" style="stroke:#181818;stroke-width:1.0;"/><polygon fill="#000000" points="249.4036,116.8394,256.6122,110.6356,251.5889,107.5833,249.4036,116.8394" style="stroke:#000000;stroke-width:1.0;"/><text fill="#000000" font-family="sans-serif" font-size="13" lengthAdjust="spacing" textLength="60" x="261" y="117.0669">manages</text><text fill="#000000" font-family="sans-serif" font-size="13" lengthAdjust="spacing" textLength="23" x="234.02" y="93.9532">1..*</text><text fill="#000000" font-family="sans-serif" font-size="13" lengthAdjust="spacing" textLength="7" x="218.5273" y="145.3002">*</text></g><!--link Entry to Team--><g id="link_Entry_Team"><path codeLine="41" d="M134.81,267.24 C120.14,291.81 103.18,320.21 89.11,343.75 " fill="none" id="Entry-Team" style="stroke:#181818;stroke-width:1.0;"/><polygon fill="#000000" points="117.436,309.859,124.5974,303.6007,119.5512,300.5866,117.436,309.859" style="stroke:#000000;stroke-width:1.0;"/><text fill="#000000" font-family="sans-serif" font-size="13" lengthAdjust="spacing" textLength="84" x="129" y="310.0669">has assigned</text><text fill="#000000" font-family="sans-serif" font-size="13" lengthAdjust="spacing" textLength="7" x="123.4521" y="286.9284">*</text><text fill="#000000" font-family="sans-serif" font-size="13" lengthAdjust="spacing" textLength="24" x="67.4092" y="333.1003">0..1</text></g><!--link Team to Collaborator--><g id="link_Team_Collaborator"><path codeLine="43" d="M60,443.43 C60,467.35 60,496.06 60,519.94 " fill="none" id="Team-Collaborator" style="stroke:#181818;stroke-width:1.0;"/><polygon fill="#000000" points="65,486.5664,67.9389,477.5213,62.0611,477.5213,65,486.5664" style="stroke:#000000;stroke-width:1.0;"/><text fill="#000000" font-family="sans-serif" font-size="13" lengthAdjust="spacing" textLength="52" x="74" y="486.0669">includes</text><text fill="#000000" font-family="sans-serif" font-size="13" lengthAdjust="spacing" textLength="8" x="51.4375" y="463.5483">1</text><text fill="#000000" font-family="sans-serif" font-size="13" lengthAdjust="spacing" textLength="7" x="52.5078" y="508.9581">*</text></g><!--link EmailService to Entry--><g id="link_EmailService_Entry"><path codeLine="45" d="M62,57.68 C64.61,74.44 70.32,100.96 82,121 C93.72,141.12 111.24,159.87 127.48,174.78 " fill="none" id="EmailService-Entry" style="stroke:#181818;stroke-width:1.0;"/><polygon fill="#000000" points="89.4403,116.9305,87.5909,107.6014,82.4606,110.4702,89.4403,116.9305" style="stroke:#000000;stroke-width:1.0;"/><text fill="#000000" font-family="sans-serif" font-size="13" lengthAdjust="spacing" textLength="132" x="96" y="117.0669">receives assignment</text><text fill="#000000" font-family="sans-serif" font-size="13" lengthAdjust="spacing" textLength="8" x="63.9875" y="77.895">1</text><text fill="#000000" font-family="sans-serif" font-size="13" lengthAdjust="spacing" textLength="7" x="112.4608" y="164.4468">*</text></g><!--link EmailService to Team--><g id="link_EmailService_Team"><path codeLine="46" d="M57.85,57.79 C55.15,79.14 50.66,117.8 49,151 C46.42,202.49 46.75,215.49 49,267 C50.11,292.46 52.49,320.73 54.75,343.99 " fill="none" id="EmailService-Team" style="stroke:#181818;stroke-width:1.0;"/><polygon fill="#000000" points="53.9458,214.0661,56.9826,205.0534,51.1051,204.9897,53.9458,214.0661" style="stroke:#000000;stroke-width:1.0;"/><text fill="#000000" font-family="sans-serif" font-size="13" lengthAdjust="spacing" textLength="46" x="63" y="213.5669">notifies</text><text fill="#000000" font-family="sans-serif" font-size="13" lengthAdjust="spacing" textLength="7" x="49.0491" y="77.7326">*</text><text fill="#000000" font-family="sans-serif" font-size="13" lengthAdjust="spacing" textLength="7" x="46.5195" y="333.0151">*</text></g><!--SRC=[NP9DJiD038NtEOML9L8Zkkq22G52IB0A5t0dJc9rVgePfwKWxeupQTgKREAndxzvTf9sxFSOqO4BFfW-1aSWSQ0YNIfxD3lig9QJ9OXa17rdbuBKOnEEx3jeqQPbnLXCwL4aydOGUZF1r_nDS5_qt10OZaP1ENOaVMXIKUGMUF4IJpy5w1EffKZUK3ubGHdI74PvHfaA1-fPQU-S99zRzfpwNFwTgQ_rnyGaXsnpjDVyCSJcAleaDJx9FBe9xl1hD3x5x2-nJcfjgidgLcZ1U0hMuZP4b13_iwvtRpbAtym39BGOJoDZti4eh2aUs912jA3-eLnNrLq9gnMK-ifxWeqQzFg94ZmKnPGgpvhxgbgNqqmRw361ahdpr8pId2xN5zgDxGsmDtPepjIbcKNBR43_2-83pNn7NhJjjkjg- -p71-6MymL_]--></g></svg>