<?xml version="1.0" encoding="us-ascii" standalone="no"?><svg xmlns="http://www.w3.org/2000/svg" xmlns:xlink="http://www.w3.org/1999/xlink" contentStyleType="text/css" height="514px" preserveAspectRatio="none" style="width:489px;height:514px;background:#FFFFFF;" version="1.1" viewBox="0 0 489 514" width="489px" zoomAndPan="magnify"><defs/><g><!--class UserSession--><g id="elem_UserSession"><rect codeLine="17" fill="#F1F1F1" height="34.4883" id="UserSession" rx="2.5" ry="2.5" style="stroke:#181818;stroke-width:0.5;" width="89" x="393" y="151.47"/><text fill="#000000" font-family="sans-serif" font-size="14" lengthAdjust="spacing" textLength="83" x="396" y="170.0052">UserSession</text><line style="stroke:#181818;stroke-width:0.5;" x1="394" x2="481" y1="177.9583" y2="177.9583"/></g><!--class Collaborator--><g id="elem_Collaborator"><rect codeLine="21" fill="#F1F1F1" height="83.9531" id="Collaborator" rx="2.5" ry="2.5" style="stroke:#181818;stroke-width:0.5;" width="93" x="307" y="262.95"/><text fill="#000000" font-family="sans-serif" font-size="14" lengthAdjust="spacing" textLength="87" x="310" y="281.4852">Collaborator</text><line style="stroke:#181818;stroke-width:0.5;" x1="308" x2="399" y1="289.4383" y2="289.4383"/><text fill="#000000" font-family="sans-serif" font-size="14" lengthAdjust="spacing" textLength="38" x="313" y="306.9734">name</text><text fill="#000000" font-family="sans-serif" font-size="14" lengthAdjust="spacing" textLength="37" x="313" y="323.4617">email</text><text fill="#000000" font-family="sans-serif" font-size="14" lengthAdjust="spacing" textLength="66" x="313" y="339.95">password</text></g><!--class Entry--><g id="elem_Entry"><rect codeLine="27" fill="#F1F1F1" height="67.4648" id="Entry" rx="2.5" ry="2.5" style="stroke:#181818;stroke-width:0.5;" width="74" x="162.5" y="7"/><text fill="#000000" font-family="sans-serif" font-size="14" lengthAdjust="spacing" textLength="35" x="182" y="25.5352">Entry</text><line style="stroke:#181818;stroke-width:0.5;" x1="163.5" x2="235.5" y1="33.4883" y2="33.4883"/><text fill="#000000" font-family="sans-serif" font-size="14" lengthAdjust="spacing" textLength="62" x="168.5" y="51.0234">startDate</text><text fill="#000000" font-family="sans-serif" font-size="14" lengthAdjust="spacing" textLength="41" x="168.5" y="67.5117">status</text></g><!--class Task--><g id="elem_Task"><rect codeLine="32" fill="#F1F1F1" height="83.9531" id="Task" rx="2.5" ry="2.5" style="stroke:#181818;stroke-width:0.5;" width="155" x="7" y="423.91"/><text fill="#000000" font-family="sans-serif" font-size="14" lengthAdjust="spacing" textLength="32" x="68.5" y="442.4452">Task</text><line style="stroke:#181818;stroke-width:0.5;" x1="8" x2="161" y1="450.3983" y2="450.3983"/><text fill="#000000" font-family="sans-serif" font-size="14" lengthAdjust="spacing" textLength="143" x="13" y="467.9334">greenSpaceAssigned</text><text fill="#000000" font-family="sans-serif" font-size="14" lengthAdjust="spacing" textLength="104" x="13" y="484.4217">degreeUrgency</text><text fill="#000000" font-family="sans-serif" font-size="14" lengthAdjust="spacing" textLength="93" x="13" y="500.91">timeExpected</text></g><!--class Equipment--><g id="elem_Equipment"><rect codeLine="39" fill="#F1F1F1" height="34.4883" id="Equipment" rx="2.5" ry="2.5" style="stroke:#181818;stroke-width:0.5;" width="80" x="108.5" y="151.47"/><text fill="#000000" font-family="sans-serif" font-size="14" lengthAdjust="spacing" textLength="74" x="111.5" y="170.0052">Equipment</text><line style="stroke:#181818;stroke-width:0.5;" x1="109.5" x2="187.5" y1="177.9583" y2="177.9583"/></g><!--class Vehicle--><g id="elem_Vehicle"><rect codeLine="42" fill="#F1F1F1" height="34.4883" id="Vehicle" rx="2.5" ry="2.5" style="stroke:#181818;stroke-width:0.5;" width="55" x="224" y="151.47"/><text fill="#000000" font-family="sans-serif" font-size="14" lengthAdjust="spacing" textLength="49" x="227" y="170.0052">Vehicle</text><line style="stroke:#181818;stroke-width:0.5;" x1="225" x2="278" y1="177.9583" y2="177.9583"/></g><!--class Team--><g id="elem_Team"><rect fill="#F1F1F1" height="34.4883" id="Team" rx="2.5" ry="2.5" style="stroke:#181818;stroke-width:0.5;" width="44" x="314.5" y="151.47"/><text fill="#000000" font-family="sans-serif" font-size="14" lengthAdjust="spacing" textLength="38" x="317.5" y="170.0052">Team</text><line style="stroke:#181818;stroke-width:0.5;" x1="315.5" x2="357.5" y1="177.9583" y2="177.9583"/></g><!--class Skills--><g id="elem_Skills"><rect fill="#F1F1F1" height="34.4883" id="Skills" rx="2.5" ry="2.5" style="stroke:#181818;stroke-width:0.5;" width="41" x="231" y="287.69"/><text fill="#000000" font-family="sans-serif" font-size="14" lengthAdjust="spacing" textLength="35" x="234" y="306.2252">Skills</text><line style="stroke:#181818;stroke-width:0.5;" x1="232" x2="271" y1="314.1783" y2="314.1783"/></g><!--link Collaborator to Task--><g id="link_Collaborator_Task"><path codeLine="47" d="M306.82,336.18 C301.02,339.83 295.14,343.48 289.5,346.91 C246.33,373.13 197.32,401.39 158.05,423.67 " fill="none" id="Collaborator-Task" style="stroke:#181818;stroke-width:1.0;"/><polygon fill="#000000" points="234.1901,388.0999,243.4766,386.048,240.497,380.9814,234.1901,388.0999" style="stroke:#000000;stroke-width:1.0;"/><text fill="#000000" font-family="sans-serif" font-size="13" lengthAdjust="spacing" textLength="29" x="247.5" y="390.4784">have</text><text fill="#000000" font-family="sans-serif" font-size="13" lengthAdjust="spacing" textLength="8" x="291.0596" y="337.4094">1</text><text fill="#000000" font-family="sans-serif" font-size="13" lengthAdjust="spacing" textLength="22" x="146.4098" y="413.0298">0..*</text></g><!--link Entry to Task--><g id="link_Entry_Task"><path codeLine="50" d="M162.05,67.67 C137,87.41 106.07,117 91.5,151.47 C53.1,242.33 65.56,361.64 76.12,423.56 " fill="none" id="Entry-Task" style="stroke:#181818;stroke-width:1.0;"/><text fill="#000000" font-family="sans-serif" font-size="13" lengthAdjust="spacing" textLength="50" x="74.5" y="229.5184">extends</text><text fill="#000000" font-family="sans-serif" font-size="13" lengthAdjust="spacing" textLength="8" x="146.4077" y="68.8508">1</text><text fill="#000000" font-family="sans-serif" font-size="13" lengthAdjust="spacing" textLength="8" x="66.1469" y="413.212">1</text></g><!--link Entry to Team--><g id="link_Entry_Team"><path codeLine="52" d="M236.94,66.85 C252.03,77.69 269.22,90.96 283.5,104.47 C298.91,119.03 314.21,137.89 324.39,151.22 " fill="none" id="Entry-Team" style="stroke:#181818;stroke-width:1.0;"/><polygon fill="#000000" points="307.0983,116.5969,302.6294,108.2016,298.5483,112.4317,307.0983,116.5969" style="stroke:#000000;stroke-width:1.0;"/><text fill="#000000" font-family="sans-serif" font-size="13" lengthAdjust="spacing" textLength="29" x="312.5" y="118.0384">have</text><text fill="#000000" font-family="sans-serif" font-size="13" lengthAdjust="spacing" textLength="8" x="244.5805" y="67.8796">1</text><text fill="#000000" font-family="sans-serif" font-size="13" lengthAdjust="spacing" textLength="24" x="292.7049" y="140.871">0..1</text></g><!--link Entry to Vehicle--><g id="link_Entry_Vehicle"><path codeLine="54" d="M213.16,74.83 C223.27,99.33 236.62,131.67 244.61,151.01 " fill="none" id="Entry-Vehicle" style="stroke:#181818;stroke-width:1.0;"/><polygon fill="#000000" points="238.408,117.7469,237.6729,108.2648,232.2399,110.5078,238.408,117.7469" style="stroke:#000000;stroke-width:1.0;"/><text fill="#000000" font-family="sans-serif" font-size="13" lengthAdjust="spacing" textLength="29" x="245.5" y="118.0384">have</text><text fill="#000000" font-family="sans-serif" font-size="13" lengthAdjust="spacing" textLength="8" x="206.9411" y="95.0965">1</text><text fill="#000000" font-family="sans-serif" font-size="13" lengthAdjust="spacing" textLength="22" x="216.9076" y="140.594">0..*</text></g><!--link Entry to Equipment--><g id="link_Entry_Equipment"><path codeLine="56" d="M178.94,74.8 C173.71,84.15 168.46,94.5 164.5,104.47 C158.39,119.83 154.05,138.24 151.44,151.23 " fill="none" id="Entry-Equipment" style="stroke:#181818;stroke-width:1.0;"/><polygon fill="#000000" points="167.8072,117.83,173.6349,110.3141,168.1041,108.3241,167.8072,117.83" style="stroke:#000000;stroke-width:1.0;"/><text fill="#000000" font-family="sans-serif" font-size="13" lengthAdjust="spacing" textLength="29" x="178.5" y="118.0384">have</text><text fill="#000000" font-family="sans-serif" font-size="13" lengthAdjust="spacing" textLength="8" x="166.4117" y="95.061">1</text><text fill="#000000" font-family="sans-serif" font-size="13" lengthAdjust="spacing" textLength="22" x="126.7701" y="140.5738">0..*</text></g><!--link Team to Collaborator--><g id="link_Team_Collaborator"><path codeLine="58" d="M338.62,186.44 C341.02,205.41 345.03,237.05 348.28,262.71 " fill="none" id="Team-Collaborator" style="stroke:#181818;stroke-width:1.0;"/><polygon fill="#000000" points="347.8717,219.6449,346.0926,228.9876,351.9239,228.249,347.8717,219.6449" style="stroke:#000000;stroke-width:1.0;"/><text fill="#000000" font-family="sans-serif" font-size="13" lengthAdjust="spacing" textLength="29" x="357.5" y="229.5184">have</text><text fill="#000000" font-family="sans-serif" font-size="13" lengthAdjust="spacing" textLength="24" x="311.7178" y="206.4641">0..1</text><text fill="#000000" font-family="sans-serif" font-size="13" lengthAdjust="spacing" textLength="8" x="338.7529" y="252.0698">1</text></g><!--link Team to Skills--><g id="link_Team_Skills"><path codeLine="60" d="M316.44,186.24 C307.36,194.48 297,205 289.5,215.95 C273.89,238.74 262.55,268.97 256.5,287.4 " fill="none" id="Team-Skills" style="stroke:#181818;stroke-width:1.0;"/><polygon fill="#000000" points="291.9512,228.9069,299.0904,222.6234,294.0336,219.6271,291.9512,228.9069" style="stroke:#000000;stroke-width:1.0;"/><text fill="#000000" font-family="sans-serif" font-size="13" lengthAdjust="spacing" textLength="29" x="303.5" y="229.5184">have</text><text fill="#000000" font-family="sans-serif" font-size="13" lengthAdjust="spacing" textLength="8" x="298.5153" y="188.0081">1</text><text fill="#000000" font-family="sans-serif" font-size="13" lengthAdjust="spacing" textLength="22" x="232.5875" y="277.0382">0..*</text></g><!--link UserSession to Collaborator--><g id="link_UserSession_Collaborator"><path codeLine="62" d="M427.03,186.44 C415.16,205.41 395.36,237.05 379.29,262.71 " fill="none" id="UserSession-Collaborator" style="stroke:#181818;stroke-width:1.0;"/><polygon fill="#000000" points="415.1528,220.3671,407.8626,226.4748,412.845,229.5934,415.1528,220.3671" style="stroke:#000000;stroke-width:1.0;"/><text fill="#000000" font-family="sans-serif" font-size="13" lengthAdjust="spacing" textLength="29" x="421.5" y="229.5184">have</text><text fill="#000000" font-family="sans-serif" font-size="13" lengthAdjust="spacing" textLength="8" x="414.7794" y="206.4641">1</text><text fill="#000000" font-family="sans-serif" font-size="13" lengthAdjust="spacing" textLength="22" x="359.7396" y="252.0698">0..*</text></g><!--SRC=[XP5DJyCm38Rl-HNMBfEGDethX90Guy012QcCkqcyDbe-YkCnniH_9qqtrW4IFLI9_VXzRIUjRMYHqOEF8Ug6eoSGtf1AtvaMzHfhgcJd29YqOAZT44WDchYreOOLkaHAZHsj12G2sxeHCBQhiZ6eGP5scDAD2DkNZT2zZg6o7mGpfHfh2BHbdKtAsPCqqQIiArPo3uleqGPuY8PS3XObU7GegyWUzceCC36KDDksk8u_LSyi4t55AUNWNgbFTGZVHkVm9J9Av5mE-GlegHmeMxboQZEwZMnETNT1UDVpIP1bWKB7cspI2Np2jEwvceb2bJTADxcDEf0fOKDTOiar1Rqh4R6UxjxRl3SgZaVBrurjFGNPdzIVgR5vLoMYrDameyiHJ2Omcasd5wFInXmQV2EupcHflqVAlql37EXTA7JR7kHxYOwX_7GdZLz8TZcqym_rFSY0A-87eqdVqzaq1_BgI9u9LclhN1ge3Hxx1_gtw1S0]--></g></svg>