<?xml version="1.0" encoding="us-ascii" standalone="no"?><svg xmlns="http://www.w3.org/2000/svg" xmlns:xlink="http://www.w3.org/1999/xlink" contentStyleType="text/css" height="382px" preserveAspectRatio="none" style="width:630px;height:382px;background:#FFFFFF;" version="1.1" viewBox="0 0 630 382" width="630px" zoomAndPan="magnify"><defs/><g><text fill="#000000" font-family="sans-serif" font-size="14" font-weight="bold" lengthAdjust="spacing" textLength="298" x="167.5" y="27.9951">Reference System Sequence Diagram</text><rect fill="#FFFFFF" height="163.7969" style="stroke:#181818;stroke-width:1.0;" width="10" x="34" y="128.5938"/><rect fill="#FFFFFF" height="29.1328" style="stroke:#181818;stroke-width:1.0;" width="10" x="387" y="188.9922"/><rect fill="#FFFFFF" height="29.1328" style="stroke:#181818;stroke-width:1.0;" width="10" x="387" y="247.2578"/><rect fill="none" height="148.7969" style="stroke:#000000;stroke-width:1.5;" width="614" x="10" y="135.5938"/><line style="stroke:#181818;stroke-width:0.5;stroke-dasharray:5.0,5.0;" x1="39" x2="39" y1="118.5938" y2="301.3906"/><line style="stroke:#181818;stroke-width:0.5;stroke-dasharray:5.0,5.0;" x1="392" x2="392" y1="118.5938" y2="301.3906"/><text fill="#000000" font-family="sans-serif" font-size="14" lengthAdjust="spacing" textLength="32" x="20" y="115.292">GSM</text><ellipse cx="39" cy="50.7969" fill="#E3E3E3" rx="8" ry="8" style="stroke:#181818;stroke-width:0.5;"/><path d="M39,58.7969 L39,85.7969 M26,66.7969 L52,66.7969 M39,85.7969 L26,100.7969 M39,85.7969 L52,100.7969 " fill="none" style="stroke:#181818;stroke-width:0.5;"/><text fill="#000000" font-family="sans-serif" font-size="14" lengthAdjust="spacing" textLength="32" x="20" y="313.3857">GSM</text><ellipse cx="39" cy="325.1875" fill="#E3E3E3" rx="8" ry="8" style="stroke:#181818;stroke-width:0.5;"/><path d="M39,333.1875 L39,360.1875 M26,341.1875 L52,341.1875 M39,360.1875 L26,375.1875 M39,360.1875 L52,375.1875 " fill="none" style="stroke:#181818;stroke-width:0.5;"/><rect fill="#E3E3E3" height="30.2969" rx="2.5" ry="2.5" style="stroke:#181818;stroke-width:0.5;" width="70" x="357" y="87.2969"/><text fill="#000000" font-family="sans-serif" font-size="14" lengthAdjust="spacing" textLength="56" x="364" y="107.292">:System</text><rect fill="#E3E3E3" height="30.2969" rx="2.5" ry="2.5" style="stroke:#181818;stroke-width:0.5;" width="70" x="357" y="300.3906"/><text fill="#000000" font-family="sans-serif" font-size="14" lengthAdjust="spacing" textLength="56" x="364" y="320.3857">:System</text><rect fill="#FFFFFF" height="163.7969" style="stroke:#181818;stroke-width:1.0;" width="10" x="34" y="128.5938"/><rect fill="#FFFFFF" height="29.1328" style="stroke:#181818;stroke-width:1.0;" width="10" x="387" y="188.9922"/><rect fill="#FFFFFF" height="29.1328" style="stroke:#181818;stroke-width:1.0;" width="10" x="387" y="247.2578"/><path d="M10,135.5938 L619,135.5938 L619,142.7266 L609,152.7266 L10,152.7266 L10,135.5938 " fill="#EEEEEE" style="stroke:#000000;stroke-width:1.5;"/><rect fill="none" height="148.7969" style="stroke:#000000;stroke-width:1.5;" width="614" x="10" y="135.5938"/><text fill="#000000" font-family="sans-serif" font-size="13" font-weight="bold" lengthAdjust="spacing" textLength="564" x="25" y="148.6606">Get the details and management options of a selected entry on the agenda</text><polygon fill="#181818" points="375,184.9922,385,188.9922,375,192.9922,379,188.9922" style="stroke:#181818;stroke-width:1.0;"/><line style="stroke:#181818;stroke-width:1.0;" x1="44" x2="381" y1="188.9922" y2="188.9922"/><text fill="#000000" font-family="sans-serif" font-size="13" font-weight="bold" lengthAdjust="spacing" textLength="9" x="51" y="176.3599">1</text><text fill="#000000" font-family="sans-serif" font-size="13" lengthAdjust="spacing" textLength="262" x="64" y="168.7935">Asks to get the details and management</text><text fill="#000000" font-family="sans-serif" font-size="13" lengthAdjust="spacing" textLength="260" x="68" y="183.9263">options of a specific entry on the agenda</text><polygon fill="#181818" points="55,214.125,45,218.125,55,222.125,51,218.125" style="stroke:#181818;stroke-width:1.0;"/><line style="stroke:#181818;stroke-width:1.0;" x1="49" x2="391" y1="218.125" y2="218.125"/><text fill="#000000" font-family="sans-serif" font-size="13" font-weight="bold" lengthAdjust="spacing" textLength="9" x="61" y="213.0591">2</text><text fill="#000000" font-family="sans-serif" font-size="13" lengthAdjust="spacing" textLength="142" x="74" y="213.0591">Shows Agenda Entries</text><polygon fill="#181818" points="375,243.2578,385,247.2578,375,251.2578,379,247.2578" style="stroke:#181818;stroke-width:1.0;"/><line style="stroke:#181818;stroke-width:1.0;" x1="44" x2="381" y1="247.2578" y2="247.2578"/><text fill="#000000" font-family="sans-serif" font-size="13" font-weight="bold" lengthAdjust="spacing" textLength="9" x="51" y="242.1919">3</text><text fill="#000000" font-family="sans-serif" font-size="13" lengthAdjust="spacing" textLength="104" x="64" y="242.1919">Selects an Entry</text><polygon fill="#181818" points="55,272.3906,45,276.3906,55,280.3906,51,276.3906" style="stroke:#181818;stroke-width:1.0;"/><line style="stroke:#181818;stroke-width:1.0;" x1="49" x2="391" y1="276.3906" y2="276.3906"/><text fill="#000000" font-family="sans-serif" font-size="13" font-weight="bold" lengthAdjust="spacing" textLength="9" x="61" y="271.3247">4</text><text fill="#000000" font-family="sans-serif" font-size="13" lengthAdjust="spacing" textLength="306" x="74" y="271.3247">Displays entry details and management options</text><!--SRC=[XP31Ri8m44Jl_eeHz_u0Xqf8L8X3BusuzR9rDeb5OWVlfYX_tusf40BKvcB5EpDlrd8CSQHC0uOKa-zo6XYQ9tPodOpaZzHofNFFoEoLOjlV2gIZEfr3RD5GB-oS1ZNf1pUSENf6DOloW8fFK_dV1chDw6ZI5AVXYxDpv3Lbh7RL-meaiDCvYzVWmqXHiLfVKihqi2-6y4tA5wbhSvf6x5YX7QDcfT0BADOOA5hzWIqaZHfI5AG61E7Ubk4QDiapKYnEayQQd8DzbeoNLwEjiP6ZG1FQFm6VyGuniWzDy4yH2-6wnB9HkJdi5wIHrwYwT1PiYXflbX1OYgRcHzzDrweijdGhhlcHT0VQ1XbxckMtvZ-FXoSThA9pFm00]--></g></svg>