<?xml version="1.0" encoding="us-ascii" standalone="no"?><svg xmlns="http://www.w3.org/2000/svg" xmlns:xlink="http://www.w3.org/1999/xlink" contentStyleType="text/css" height="367px" preserveAspectRatio="none" style="width:658px;height:367px;background:#FFFFFF;" version="1.1" viewBox="0 0 658 367" width="658px" zoomAndPan="magnify"><defs/><g><text fill="#000000" font-family="sans-serif" font-size="14" font-weight="bold" lengthAdjust="spacing" textLength="298" x="181.5" y="27.9951">Reference System Sequence Diagram</text><rect fill="#FFFFFF" height="148.6641" style="stroke:#181818;stroke-width:1.0;" width="10" x="34" y="128.5938"/><rect fill="#FFFFFF" height="29.1328" style="stroke:#181818;stroke-width:1.0;" width="10" x="602" y="173.8594"/><rect fill="#FFFFFF" height="29.1328" style="stroke:#181818;stroke-width:1.0;" width="10" x="602" y="232.125"/><rect fill="none" height="133.6641" style="stroke:#000000;stroke-width:1.5;" width="642" x="10" y="135.5938"/><line style="stroke:#181818;stroke-width:0.5;stroke-dasharray:5.0,5.0;" x1="39" x2="39" y1="118.5938" y2="286.2578"/><line style="stroke:#181818;stroke-width:0.5;stroke-dasharray:5.0,5.0;" x1="607" x2="607" y1="118.5938" y2="286.2578"/><text fill="#000000" font-family="sans-serif" font-size="14" lengthAdjust="spacing" textLength="32" x="20" y="115.292">GSM</text><ellipse cx="39" cy="50.7969" fill="#E3E3E3" rx="8" ry="8" style="stroke:#181818;stroke-width:0.5;"/><path d="M39,58.7969 L39,85.7969 M26,66.7969 L52,66.7969 M39,85.7969 L26,100.7969 M39,85.7969 L52,100.7969 " fill="none" style="stroke:#181818;stroke-width:0.5;"/><text fill="#000000" font-family="sans-serif" font-size="14" lengthAdjust="spacing" textLength="32" x="20" y="298.2529">GSM</text><ellipse cx="39" cy="310.0547" fill="#E3E3E3" rx="8" ry="8" style="stroke:#181818;stroke-width:0.5;"/><path d="M39,318.0547 L39,345.0547 M26,326.0547 L52,326.0547 M39,345.0547 L26,360.0547 M39,345.0547 L52,360.0547 " fill="none" style="stroke:#181818;stroke-width:0.5;"/><rect fill="#E3E3E3" height="30.2969" rx="2.5" ry="2.5" style="stroke:#181818;stroke-width:0.5;" width="70" x="572" y="87.2969"/><text fill="#000000" font-family="sans-serif" font-size="14" lengthAdjust="spacing" textLength="56" x="579" y="107.292">:System</text><rect fill="#E3E3E3" height="30.2969" rx="2.5" ry="2.5" style="stroke:#181818;stroke-width:0.5;" width="70" x="572" y="285.2578"/><text fill="#000000" font-family="sans-serif" font-size="14" lengthAdjust="spacing" textLength="56" x="579" y="305.2529">:System</text><rect fill="#FFFFFF" height="148.6641" style="stroke:#181818;stroke-width:1.0;" width="10" x="34" y="128.5938"/><rect fill="#FFFFFF" height="29.1328" style="stroke:#181818;stroke-width:1.0;" width="10" x="602" y="173.8594"/><rect fill="#FFFFFF" height="29.1328" style="stroke:#181818;stroke-width:1.0;" width="10" x="602" y="232.125"/><path d="M10,135.5938 L619,135.5938 L619,142.7266 L609,152.7266 L10,152.7266 L10,135.5938 " fill="#EEEEEE" style="stroke:#000000;stroke-width:1.5;"/><rect fill="none" height="133.6641" style="stroke:#000000;stroke-width:1.5;" width="642" x="10" y="135.5938"/><text fill="#000000" font-family="sans-serif" font-size="13" font-weight="bold" lengthAdjust="spacing" textLength="564" x="25" y="148.6606">Get the details and management options of a selected entry on the agenda</text><polygon fill="#181818" points="590,169.8594,600,173.8594,590,177.8594,594,173.8594" style="stroke:#181818;stroke-width:1.0;"/><line style="stroke:#181818;stroke-width:1.0;" x1="44" x2="596" y1="173.8594" y2="173.8594"/><text fill="#000000" font-family="sans-serif" font-size="13" font-weight="bold" lengthAdjust="spacing" textLength="9" x="51" y="168.7935">1</text><text fill="#000000" font-family="sans-serif" font-size="13" lengthAdjust="spacing" textLength="526" x="64" y="168.7935">Asks to get the details and management options of a specific entry on the agenda</text><polygon fill="#181818" points="55,198.9922,45,202.9922,55,206.9922,51,202.9922" style="stroke:#181818;stroke-width:1.0;"/><line style="stroke:#181818;stroke-width:1.0;" x1="49" x2="606" y1="202.9922" y2="202.9922"/><text fill="#000000" font-family="sans-serif" font-size="13" font-weight="bold" lengthAdjust="spacing" textLength="9" x="61" y="197.9263">2</text><text fill="#000000" font-family="sans-serif" font-size="13" lengthAdjust="spacing" textLength="189" x="74" y="197.9263">Shows Agenda and its Entries</text><polygon fill="#181818" points="590,228.125,600,232.125,590,236.125,594,232.125" style="stroke:#181818;stroke-width:1.0;"/><line style="stroke:#181818;stroke-width:1.0;" x1="44" x2="596" y1="232.125" y2="232.125"/><text fill="#000000" font-family="sans-serif" font-size="13" font-weight="bold" lengthAdjust="spacing" textLength="9" x="51" y="227.0591">3</text><text fill="#000000" font-family="sans-serif" font-size="13" lengthAdjust="spacing" textLength="104" x="64" y="227.0591">Selects an Entry</text><polygon fill="#181818" points="55,257.2578,45,261.2578,55,265.2578,51,261.2578" style="stroke:#181818;stroke-width:1.0;"/><line style="stroke:#181818;stroke-width:1.0;" x1="49" x2="606" y1="261.2578" y2="261.2578"/><text fill="#000000" font-family="sans-serif" font-size="13" font-weight="bold" lengthAdjust="spacing" textLength="9" x="61" y="256.1919">4</text><text fill="#000000" font-family="sans-serif" font-size="13" lengthAdjust="spacing" textLength="306" x="74" y="256.1919">Displays entry details and management options</text><!--SRC=[bO_1QiCm44Jl-eeXz_v03eL2IiYXbvfym5PUsoAMv6hN3VxxhfKIGXCezSNOEpDlHauXJLGe8kQK_L1oP6YPsSdrCf4_KS-DBYEZi5TA_NWha87QV0wfHqUZi7CQrAJlt77Xv1dD8ieH3N_EzNiNg3UZerbpckC75-V8QoxOx9kt3KXWR-SiNeCF4oN5Pdj9gTVZeHh25obVfAulUPwmPuKEZ9QLmYYWr29IilgHBIHF6d8Iv0u4uT76S0kxb0KvLQT9KqlEmHvBnjEpqRPuaPD0C_h_02RseGl-8M3DlqvOzzG_nyCADEuMpP3FWfUghfYWWbTB2YnLs_Az_wPnK-Uj3QjhkIV-0kw2J2CjybFtZuLuqC6gElSD]--></g></svg>