<?xml version="1.0" encoding="us-ascii" standalone="no"?><svg xmlns="http://www.w3.org/2000/svg" xmlns:xlink="http://www.w3.org/1999/xlink" contentStyleType="text/css" height="819px" preserveAspectRatio="none" style="width:2275px;height:819px;background:#FFFFFF;" version="1.1" viewBox="0 0 2275 819" width="2275px" zoomAndPan="magnify"><defs/><g><rect fill="#FFFFFF" height="629.4141" style="stroke:#181818;stroke-width:1.0;" width="10" x="17.5" y="91.2969"/><rect fill="#FFFFFF" height="608.2813" style="stroke:#181818;stroke-width:1.0;" width="10" x="999.5" y="112.4297"/><rect fill="#FFFFFF" height="147.8281" style="stroke:#181818;stroke-width:1.0;" width="10" x="1523.5" y="151.5625"/><rect fill="#FFFFFF" height="231.3906" style="stroke:#181818;stroke-width:1.0;" width="10" x="1523.5" y="460.1875"/><rect fill="#FFFFFF" height="29.1328" style="stroke:#181818;stroke-width:1.0;" width="10" x="1683.5" y="182.8594"/><rect fill="#FFFFFF" height="29.1328" style="stroke:#181818;stroke-width:1.0;" width="10" x="1840.5" y="241.125"/><rect fill="#FFFFFF" height="157.9922" style="stroke:#181818;stroke-width:1.0;" width="10" x="2047.5" y="504.4531"/><line style="stroke:#181818;stroke-width:0.5;stroke-dasharray:5.0,5.0;" x1="22" x2="22" y1="81.2969" y2="738.7109"/><line style="stroke:#181818;stroke-width:0.5;stroke-dasharray:5.0,5.0;" x1="1004.5" x2="1004.5" y1="81.2969" y2="738.7109"/><line style="stroke:#181818;stroke-width:0.5;stroke-dasharray:5.0,5.0;" x1="1528.5" x2="1528.5" y1="151.0781" y2="738.7109"/><line style="stroke:#181818;stroke-width:0.5;stroke-dasharray:5.0,5.0;" x1="1688.5" x2="1688.5" y1="81.2969" y2="738.7109"/><line style="stroke:#181818;stroke-width:0.5;stroke-dasharray:5.0,5.0;" x1="1845.5" x2="1845.5" y1="81.2969" y2="738.7109"/><line style="stroke:#181818;stroke-width:0.5;stroke-dasharray:5.0,5.0;" x1="2052" x2="2052" y1="81.2969" y2="738.7109"/><line style="stroke:#181818;stroke-width:0.5;stroke-dasharray:5.0,5.0;" x1="2234.5" x2="2234.5" y1="551.25" y2="738.7109"/><text fill="#000000" font-family="sans-serif" font-size="14" lengthAdjust="spacing" textLength="29" x="5" y="77.9951">VFM</text><ellipse cx="22.5" cy="13.5" fill="#E3E3E3" rx="8" ry="8" style="stroke:#181818;stroke-width:0.5;"/><path d="M22.5,21.5 L22.5,48.5 M9.5,29.5 L35.5,29.5 M22.5,48.5 L9.5,63.5 M22.5,48.5 L35.5,63.5 " fill="none" style="stroke:#181818;stroke-width:0.5;"/><text fill="#000000" font-family="sans-serif" font-size="14" lengthAdjust="spacing" textLength="29" x="5" y="750.7061">VFM</text><ellipse cx="22.5" cy="762.5078" fill="#E3E3E3" rx="8" ry="8" style="stroke:#181818;stroke-width:0.5;"/><path d="M22.5,770.5078 L22.5,797.5078 M9.5,778.5078 L35.5,778.5078 M22.5,797.5078 L9.5,812.5078 M22.5,797.5078 L35.5,812.5078 " fill="none" style="stroke:#181818;stroke-width:0.5;"/><rect fill="#E3E3E3" height="30.2969" rx="2.5" ry="2.5" style="stroke:#181818;stroke-width:0.5;" width="140" x="934.5" y="50"/><text fill="#000000" font-family="sans-serif" font-size="14" lengthAdjust="spacing" textLength="126" x="941.5" y="69.9951">:RegisterVehicleUI</text><rect fill="#E3E3E3" height="30.2969" rx="2.5" ry="2.5" style="stroke:#181818;stroke-width:0.5;" width="140" x="934.5" y="737.7109"/><text fill="#000000" font-family="sans-serif" font-size="14" lengthAdjust="spacing" textLength="126" x="941.5" y="757.7061">:RegisterVehicleUI</text><rect fill="#E3E3E3" height="30.2969" rx="2.5" ry="2.5" style="stroke:#181818;stroke-width:0.5;" width="194" x="1431.5" y="737.7109"/><text fill="#000000" font-family="sans-serif" font-size="14" lengthAdjust="spacing" textLength="180" x="1438.5" y="757.7061">:RegisterVehicleController</text><rect fill="#E3E3E3" height="30.2969" rx="2.5" ry="2.5" style="stroke:#181818;stroke-width:0.5;" width="106" x="1635.5" y="50"/><text fill="#000000" font-family="sans-serif" font-size="14" lengthAdjust="spacing" textLength="92" x="1642.5" y="69.9951">:Repositories</text><rect fill="#E3E3E3" height="30.2969" rx="2.5" ry="2.5" style="stroke:#181818;stroke-width:0.5;" width="106" x="1635.5" y="737.7109"/><text fill="#000000" font-family="sans-serif" font-size="14" lengthAdjust="spacing" textLength="92" x="1642.5" y="757.7061">:Repositories</text><rect fill="#E3E3E3" height="30.2969" rx="2.5" ry="2.5" style="stroke:#181818;stroke-width:0.5;" width="188" x="1751.5" y="50"/><text fill="#000000" font-family="sans-serif" font-size="14" lengthAdjust="spacing" textLength="174" x="1758.5" y="69.9951">repositories:Repositories</text><rect fill="#E3E3E3" height="30.2969" rx="2.5" ry="2.5" style="stroke:#181818;stroke-width:0.5;" width="188" x="1751.5" y="737.7109"/><text fill="#000000" font-family="sans-serif" font-size="14" lengthAdjust="spacing" textLength="174" x="1758.5" y="757.7061">repositories:Repositories</text><rect fill="#E3E3E3" height="46.5938" rx="2.5" ry="2.5" style="stroke:#181818;stroke-width:0.5;" width="143" x="1981" y="33.7031"/><text fill="#000000" font-family="sans-serif" font-size="14" lengthAdjust="spacing" textLength="122" x="1991.5" y="53.6982">vehicleRepository</text><text fill="#000000" font-family="sans-serif" font-size="14" lengthAdjust="spacing" textLength="129" x="1988" y="69.9951">:VehicleRepository</text><rect fill="#E3E3E3" height="46.5938" rx="2.5" ry="2.5" style="stroke:#181818;stroke-width:0.5;" width="143" x="1981" y="737.7109"/><text fill="#000000" font-family="sans-serif" font-size="14" lengthAdjust="spacing" textLength="122" x="1991.5" y="757.7061">vehicleRepository</text><text fill="#000000" font-family="sans-serif" font-size="14" lengthAdjust="spacing" textLength="129" x="1988" y="774.0029">:VehicleRepository</text><rect fill="#E3E3E3" height="46.5938" rx="2.5" ry="2.5" style="stroke:#181818;stroke-width:0.5;" width="69" x="2200.5" y="737.7109"/><text fill="#000000" font-family="sans-serif" font-size="14" lengthAdjust="spacing" textLength="48" x="2211" y="757.7061">vehicle</text><text fill="#000000" font-family="sans-serif" font-size="14" lengthAdjust="spacing" textLength="55" x="2207.5" y="774.0029">:Vehicle</text><rect fill="#FFFFFF" height="629.4141" style="stroke:#181818;stroke-width:1.0;" width="10" x="17.5" y="91.2969"/><rect fill="#FFFFFF" height="608.2813" style="stroke:#181818;stroke-width:1.0;" width="10" x="999.5" y="112.4297"/><rect fill="#FFFFFF" height="147.8281" style="stroke:#181818;stroke-width:1.0;" width="10" x="1523.5" y="151.5625"/><rect fill="#FFFFFF" height="231.3906" style="stroke:#181818;stroke-width:1.0;" width="10" x="1523.5" y="460.1875"/><rect fill="#FFFFFF" height="29.1328" style="stroke:#181818;stroke-width:1.0;" width="10" x="1683.5" y="182.8594"/><rect fill="#FFFFFF" height="29.1328" style="stroke:#181818;stroke-width:1.0;" width="10" x="1840.5" y="241.125"/><rect fill="#FFFFFF" height="157.9922" style="stroke:#181818;stroke-width:1.0;" width="10" x="2047.5" y="504.4531"/><polygon fill="#181818" points="987.5,108.4297,997.5,112.4297,987.5,116.4297,991.5,112.4297" style="stroke:#181818;stroke-width:1.0;"/><line style="stroke:#181818;stroke-width:1.0;" x1="27.5" x2="993.5" y1="112.4297" y2="112.4297"/><text fill="#000000" font-family="sans-serif" font-size="13" font-weight="bold" lengthAdjust="spacing" textLength="9" x="34.5" y="107.3638">1</text><text fill="#000000" font-family="sans-serif" font-size="13" lengthAdjust="spacing" textLength="161" x="47.5" y="107.3638">asks to register a Vehicle</text><polygon fill="#181818" points="1419.5,137.5625,1429.5,141.5625,1419.5,145.5625,1423.5,141.5625" style="stroke:#181818;stroke-width:1.0;"/><line style="stroke:#181818;stroke-width:1.0;" x1="1009.5" x2="1425.5" y1="141.5625" y2="141.5625"/><text fill="#000000" font-family="sans-serif" font-size="13" font-weight="bold" lengthAdjust="spacing" textLength="9" x="1016.5" y="136.4966">2</text><text fill="#000000" font-family="sans-serif" font-size="13" lengthAdjust="spacing" textLength="41" x="1029.5" y="136.4966">create</text><rect fill="#E3E3E3" height="30.2969" rx="2.5" ry="2.5" style="stroke:#181818;stroke-width:0.5;" width="194" x="1431.5" y="120.4297"/><text fill="#000000" font-family="sans-serif" font-size="14" lengthAdjust="spacing" textLength="180" x="1438.5" y="140.4248">:RegisterVehicleController</text><polygon fill="#181818" points="1671.5,178.8594,1681.5,182.8594,1671.5,186.8594,1675.5,182.8594" style="stroke:#181818;stroke-width:1.0;"/><line style="stroke:#181818;stroke-width:1.0;" x1="1533.5" x2="1677.5" y1="182.8594" y2="182.8594"/><text fill="#000000" font-family="sans-serif" font-size="13" font-weight="bold" lengthAdjust="spacing" textLength="9" x="1540.5" y="177.7935">3</text><text fill="#000000" font-family="sans-serif" font-size="13" lengthAdjust="spacing" textLength="85" x="1553.5" y="177.7935">getInstance()</text><polygon fill="#181818" points="1544.5,207.9922,1534.5,211.9922,1544.5,215.9922,1540.5,211.9922" style="stroke:#181818;stroke-width:1.0;"/><line style="stroke:#181818;stroke-width:1.0;stroke-dasharray:2.0,2.0;" x1="1538.5" x2="1687.5" y1="211.9922" y2="211.9922"/><text fill="#000000" font-family="sans-serif" font-size="13" font-weight="bold" lengthAdjust="spacing" textLength="9" x="1550.5" y="206.9263">4</text><text fill="#000000" font-family="sans-serif" font-size="13" lengthAdjust="spacing" textLength="75" x="1563.5" y="206.9263">repositories</text><polygon fill="#181818" points="1828.5,237.125,1838.5,241.125,1828.5,245.125,1832.5,241.125" style="stroke:#181818;stroke-width:1.0;"/><line style="stroke:#181818;stroke-width:1.0;" x1="1533.5" x2="1834.5" y1="241.125" y2="241.125"/><text fill="#000000" font-family="sans-serif" font-size="13" font-weight="bold" lengthAdjust="spacing" textLength="9" x="1540.5" y="236.0591">5</text><text fill="#000000" font-family="sans-serif" font-size="13" lengthAdjust="spacing" textLength="144" x="1553.5" y="236.0591">getVehicleRepository()</text><polygon fill="#181818" points="1544.5,266.2578,1534.5,270.2578,1544.5,274.2578,1540.5,270.2578" style="stroke:#181818;stroke-width:1.0;"/><line style="stroke:#181818;stroke-width:1.0;stroke-dasharray:2.0,2.0;" x1="1538.5" x2="1844.5" y1="270.2578" y2="270.2578"/><text fill="#000000" font-family="sans-serif" font-size="13" font-weight="bold" lengthAdjust="spacing" textLength="9" x="1550.5" y="265.1919">6</text><text fill="#000000" font-family="sans-serif" font-size="13" lengthAdjust="spacing" textLength="111" x="1563.5" y="265.1919">vehicleRepository</text><polygon fill="#181818" points="1020.5,295.3906,1010.5,299.3906,1020.5,303.3906,1016.5,299.3906" style="stroke:#181818;stroke-width:1.0;"/><line style="stroke:#181818;stroke-width:1.0;stroke-dasharray:2.0,2.0;" x1="1014.5" x2="1527.5" y1="299.3906" y2="299.3906"/><text fill="#000000" font-family="sans-serif" font-size="13" font-weight="bold" lengthAdjust="spacing" textLength="9" x="1026.5" y="294.3247">7</text><text fill="#000000" font-family="sans-serif" font-size="13" lengthAdjust="spacing" textLength="26" x="1039.5" y="294.3247">true</text><polygon fill="#181818" points="38.5,324.5234,28.5,328.5234,38.5,332.5234,34.5,328.5234" style="stroke:#181818;stroke-width:1.0;"/><line style="stroke:#181818;stroke-width:1.0;stroke-dasharray:2.0,2.0;" x1="32.5" x2="998.5" y1="328.5234" y2="328.5234"/><text fill="#000000" font-family="sans-serif" font-size="13" font-weight="bold" lengthAdjust="spacing" textLength="9" x="44.5" y="323.4575">8</text><text fill="#000000" font-family="sans-serif" font-size="13" lengthAdjust="spacing" textLength="895" x="57.5" y="323.4575">requests data brand, model, type, tare, gross weight, current km, register date, acquisition date, maintenance/check-up frequency (in kms))</text><polygon fill="#181818" points="987.5,353.6563,997.5,357.6563,987.5,361.6563,991.5,357.6563" style="stroke:#181818;stroke-width:1.0;"/><line style="stroke:#181818;stroke-width:1.0;" x1="27.5" x2="993.5" y1="357.6563" y2="357.6563"/><text fill="#000000" font-family="sans-serif" font-size="13" font-weight="bold" lengthAdjust="spacing" textLength="9" x="34.5" y="352.5903">9</text><text fill="#000000" font-family="sans-serif" font-size="13" lengthAdjust="spacing" textLength="935" x="47.5" y="352.5903">types requests data(brand, model, type, tare, gross weight, current km, register date, acquisition date, maintenance/check-up frequency (in kms))</text><polygon fill="#181818" points="38.5,382.7891,28.5,386.7891,38.5,390.7891,34.5,386.7891" style="stroke:#181818;stroke-width:1.0;"/><line style="stroke:#181818;stroke-width:1.0;stroke-dasharray:2.0,2.0;" x1="32.5" x2="998.5" y1="386.7891" y2="386.7891"/><text fill="#000000" font-family="sans-serif" font-size="13" font-weight="bold" lengthAdjust="spacing" textLength="18" x="44.5" y="381.7231">10</text><text fill="#000000" font-family="sans-serif" font-size="13" lengthAdjust="spacing" textLength="262" x="66.5" y="381.7231">shows all data and requests confirmation</text><polygon fill="#181818" points="987.5,411.9219,997.5,415.9219,987.5,419.9219,991.5,415.9219" style="stroke:#181818;stroke-width:1.0;"/><line style="stroke:#181818;stroke-width:1.0;" x1="27.5" x2="993.5" y1="415.9219" y2="415.9219"/><text fill="#000000" font-family="sans-serif" font-size="13" font-weight="bold" lengthAdjust="spacing" textLength="18" x="34.5" y="410.856">11</text><text fill="#000000" font-family="sans-serif" font-size="13" lengthAdjust="spacing" textLength="88" x="56.5" y="410.856">confirms data</text><polygon fill="#181818" points="1511.5,456.1875,1521.5,460.1875,1511.5,464.1875,1515.5,460.1875" style="stroke:#181818;stroke-width:1.0;"/><line style="stroke:#181818;stroke-width:1.0;" x1="1009.5" x2="1517.5" y1="460.1875" y2="460.1875"/><text fill="#000000" font-family="sans-serif" font-size="13" font-weight="bold" lengthAdjust="spacing" textLength="18" x="1016.5" y="447.5552">12</text><text fill="#000000" font-family="sans-serif" font-size="13" lengthAdjust="spacing" textLength="425" x="1038.5" y="439.9888">registerVehicle(brand, model, type, tare, gross weight, current km,</text><text fill="#000000" font-family="sans-serif" font-size="13" lengthAdjust="spacing" textLength="473" x="1038.5" y="455.1216">register date, acquisition date, maintenance/check-up frequency (in kms))</text><polygon fill="#181818" points="2035.5,500.4531,2045.5,504.4531,2035.5,508.4531,2039.5,504.4531" style="stroke:#181818;stroke-width:1.0;"/><line style="stroke:#181818;stroke-width:1.0;" x1="1533.5" x2="2041.5" y1="504.4531" y2="504.4531"/><text fill="#000000" font-family="sans-serif" font-size="13" font-weight="bold" lengthAdjust="spacing" textLength="18" x="1540.5" y="491.8208">13</text><text fill="#000000" font-family="sans-serif" font-size="13" lengthAdjust="spacing" textLength="425" x="1562.5" y="484.2544">registerVehicle(brand, model, type, tare, gross weight, current km,</text><text fill="#000000" font-family="sans-serif" font-size="13" lengthAdjust="spacing" textLength="473" x="1562.5" y="499.3872">register date, acquisition date, maintenance/check-up frequency (in kms))</text><polygon fill="#181818" points="2188.5,529.5859,2198.5,533.5859,2188.5,537.5859,2192.5,533.5859" style="stroke:#181818;stroke-width:1.0;"/><line style="stroke:#181818;stroke-width:1.0;" x1="2057.5" x2="2194.5" y1="533.5859" y2="533.5859"/><text fill="#000000" font-family="sans-serif" font-size="13" font-weight="bold" lengthAdjust="spacing" textLength="18" x="2064.5" y="528.52">14</text><text fill="#000000" font-family="sans-serif" font-size="13" lengthAdjust="spacing" textLength="97" x="2086.5" y="528.52">createVehicle()</text><rect fill="#E3E3E3" height="46.5938" rx="2.5" ry="2.5" style="stroke:#181818;stroke-width:0.5;" width="69" x="2200.5" y="512.4531"/><text fill="#000000" font-family="sans-serif" font-size="14" lengthAdjust="spacing" textLength="48" x="2211" y="532.4482">vehicle</text><text fill="#000000" font-family="sans-serif" font-size="14" lengthAdjust="spacing" textLength="55" x="2207.5" y="548.7451">:Vehicle</text><line style="stroke:#181818;stroke-width:1.0;" x1="2057.5" x2="2099.5" y1="591.1797" y2="591.1797"/><line style="stroke:#181818;stroke-width:1.0;" x1="2099.5" x2="2099.5" y1="591.1797" y2="604.1797"/><line style="stroke:#181818;stroke-width:1.0;" x1="2058.5" x2="2099.5" y1="604.1797" y2="604.1797"/><polygon fill="#181818" points="2068.5,600.1797,2058.5,604.1797,2068.5,608.1797,2064.5,604.1797" style="stroke:#181818;stroke-width:1.0;"/><text fill="#000000" font-family="sans-serif" font-size="13" font-weight="bold" lengthAdjust="spacing" textLength="18" x="2064.5" y="586.1138">15</text><text fill="#000000" font-family="sans-serif" font-size="13" lengthAdjust="spacing" textLength="124" x="2086.5" y="586.1138">addVehicle(vehicle)</text><polygon fill="#181818" points="1699.5,629.3125,1689.5,633.3125,1699.5,637.3125,1695.5,633.3125" style="stroke:#181818;stroke-width:1.0;"/><line style="stroke:#181818;stroke-width:1.0;stroke-dasharray:2.0,2.0;" x1="1693.5" x2="2046.5" y1="633.3125" y2="633.3125"/><text fill="#000000" font-family="sans-serif" font-size="13" font-weight="bold" lengthAdjust="spacing" textLength="18" x="1705.5" y="628.2466">16</text><text fill="#000000" font-family="sans-serif" font-size="13" lengthAdjust="spacing" textLength="82" x="1727.5" y="628.2466">true / vehicle</text><polygon fill="#181818" points="1544.5,658.4453,1534.5,662.4453,1544.5,666.4453,1540.5,662.4453" style="stroke:#181818;stroke-width:1.0;"/><line style="stroke:#181818;stroke-width:1.0;stroke-dasharray:2.0,2.0;" x1="1538.5" x2="1687.5" y1="662.4453" y2="662.4453"/><text fill="#000000" font-family="sans-serif" font-size="13" font-weight="bold" lengthAdjust="spacing" textLength="18" x="1550.5" y="657.3794">17</text><text fill="#000000" font-family="sans-serif" font-size="13" lengthAdjust="spacing" textLength="82" x="1572.5" y="657.3794">true / vehicle</text><polygon fill="#181818" points="1020.5,687.5781,1010.5,691.5781,1020.5,695.5781,1016.5,691.5781" style="stroke:#181818;stroke-width:1.0;"/><line style="stroke:#181818;stroke-width:1.0;stroke-dasharray:2.0,2.0;" x1="1014.5" x2="1527.5" y1="691.5781" y2="691.5781"/><text fill="#000000" font-family="sans-serif" font-size="13" font-weight="bold" lengthAdjust="spacing" textLength="18" x="1026.5" y="686.5122">18</text><text fill="#000000" font-family="sans-serif" font-size="13" lengthAdjust="spacing" textLength="82" x="1048.5" y="686.5122">true / vehicle</text><polygon fill="#181818" points="33.5,716.7109,23.5,720.7109,33.5,724.7109,29.5,720.7109" style="stroke:#181818;stroke-width:1.0;"/><line style="stroke:#181818;stroke-width:1.0;stroke-dasharray:2.0,2.0;" x1="27.5" x2="1003.5" y1="720.7109" y2="720.7109"/><text fill="#000000" font-family="sans-serif" font-size="13" font-weight="bold" lengthAdjust="spacing" textLength="18" x="39.5" y="715.645">19</text><text fill="#000000" font-family="sans-serif" font-size="13" lengthAdjust="spacing" textLength="171" x="61.5" y="715.645">displays operation success</text><!--SRC=[pLKxZzim3DxzAuWiJO84jsVeSa210EroxMMwXP4PMuWj-KJvqlpxKd8USfm7SEXm6Ho3-Zu-FeeqRxLfq64DjJLMbSxM1DwrbF7ff46rnO9- -tr5u4XvD4ML0hZ4tEwqAM235LEMOUkjQUirkIpxLkgSO6EjNzk_6Ifl7OnMFtwD01daFnCVNYlTeF4mMhnGeTcJMr6fLKMlouXxNTw7FLlZdQqgSX7-_EVbvu3GMDOIN1D7J6heOrroSftNntzqEPoG-pUpM5tQkd8lhLSTdUafAGlQwG_q55NBG7xo0lFleWui1Bbby5OQr2a3U686w8aiKaQ3a8GQb9fEXQuSoMaV6cMCfl0MuAaQGYh8BmtBVL0qdlIvFNdZKOyxFyHUGAfsnELqnqcQI9V0GDDhcPmpE4KMzg1nr-AdSOzQnm6vYKsCPmM3t48F7GirlxV4dY57Zx1sQFAP361ErGpylY5vefDduImpx4WNfP-1QfqZkIVRUdRkidWG8AhtLaiDsfg3fKPjF9dGcYTLajhEsmOsCR1HUnXh8tvuCXbUf900zrCSVu4KUm9oQNSCM5MTWfBSEM5bpKQx6aEaONM7qwwkoqc8hUajbazL_cR-N-qF1d9m-xzu1SCDs7NeqfpKDfqUjzEneib3Jge7vlcHU1Zuc_pXXWkJ3a_7JP7TsMH3yCKkk55wibaUURYnJNBDJOLx1jkGYzSUk5MAUB1Fm-vFCvBlo3y0]--></g></svg>