<?xml version="1.0" encoding="us-ascii" standalone="no"?><svg xmlns="http://www.w3.org/2000/svg" xmlns:xlink="http://www.w3.org/1999/xlink" contentStyleType="text/css" height="833px" preserveAspectRatio="none" style="width:2523px;height:833px;background:#FFFFFF;" version="1.1" viewBox="0 0 2523 833" width="2523px" zoomAndPan="magnify"><defs/><g><rect fill="#FFFFFF" height="638.4023" style="stroke:#181818;stroke-width:1.0;" width="10" x="17.5" y="93.6211"/><rect fill="#FFFFFF" height="615.1113" style="stroke:#181818;stroke-width:1.0;" width="10" x="903.5" y="116.9121"/><rect fill="#FFFFFF" height="410.0742" style="stroke:#181818;stroke-width:1.0;" width="10" x="1368.5" y="290.6582"/><rect fill="#FFFFFF" height="419.0742" style="stroke:#181818;stroke-width:1.0;" width="10" x="1845.5" y="321.9492"/><rect fill="#FFFFFF" height="253.6191" style="stroke:#181818;stroke-width:1.0;" width="10" x="2322.5" y="353.2402"/><line style="stroke:#181818;stroke-width:0.5;stroke-dasharray:5.0,5.0;" x1="22" x2="22" y1="83.6211" y2="750.0234"/><line style="stroke:#181818;stroke-width:0.5;stroke-dasharray:5.0,5.0;" x1="908" x2="908" y1="83.6211" y2="750.0234"/><line style="stroke:#181818;stroke-width:0.5;stroke-dasharray:5.0,5.0;" x1="1373" x2="1373" y1="83.6211" y2="750.0234"/><line style="stroke:#181818;stroke-width:0.5;stroke-dasharray:5.0,5.0;" x1="1850" x2="1850" y1="83.6211" y2="750.0234"/><line style="stroke:#181818;stroke-width:0.5;stroke-dasharray:5.0,5.0;" x1="2327.5" x2="2327.5" y1="83.6211" y2="750.0234"/><line style="stroke:#181818;stroke-width:0.5;stroke-dasharray:5.0,5.0;" x1="2485.5" x2="2485.5" y1="83.6211" y2="750.0234"/><text fill="#000000" font-family="sans-serif" font-size="14" lengthAdjust="spacing" textLength="29" x="5" y="80.1074">VFM</text><ellipse cx="22.5" cy="13.5" fill="#E3E3E3" rx="8" ry="8" style="stroke:#181818;stroke-width:0.5;"/><path d="M22.5,21.5 L22.5,48.5 M9.5,29.5 L35.5,29.5 M22.5,48.5 L9.5,63.5 M22.5,48.5 L35.5,63.5 " fill="none" style="stroke:#181818;stroke-width:0.5;"/><text fill="#000000" font-family="sans-serif" font-size="14" lengthAdjust="spacing" textLength="29" x="5" y="764.1309">VFM</text><ellipse cx="22.5" cy="776.1445" fill="#E3E3E3" rx="8" ry="8" style="stroke:#181818;stroke-width:0.5;"/><path d="M22.5,784.1445 L22.5,811.1445 M9.5,792.1445 L35.5,792.1445 M22.5,811.1445 L9.5,826.1445 M22.5,811.1445 L35.5,826.1445 " fill="none" style="stroke:#181818;stroke-width:0.5;"/><rect fill="#E3E3E3" height="32.6211" rx="2.5" ry="2.5" style="stroke:#181818;stroke-width:0.5;" width="129" x="844" y="50"/><text fill="#000000" font-family="sans-serif" font-size="14" lengthAdjust="spacing" textLength="115" x="851" y="72.1074">:RegisterVehicleUI</text><rect fill="#E3E3E3" height="32.6211" rx="2.5" ry="2.5" style="stroke:#181818;stroke-width:0.5;" width="129" x="844" y="749.0234"/><text fill="#000000" font-family="sans-serif" font-size="14" lengthAdjust="spacing" textLength="115" x="851" y="771.1309">:RegisterVehicleUI</text><rect fill="#E3E3E3" height="32.6211" rx="2.5" ry="2.5" style="stroke:#181818;stroke-width:0.5;" width="179" x="1284" y="50"/><text fill="#000000" font-family="sans-serif" font-size="14" lengthAdjust="spacing" textLength="165" x="1291" y="72.1074">:RegisterVehicleController</text><rect fill="#E3E3E3" height="32.6211" rx="2.5" ry="2.5" style="stroke:#181818;stroke-width:0.5;" width="179" x="1284" y="749.0234"/><text fill="#000000" font-family="sans-serif" font-size="14" lengthAdjust="spacing" textLength="165" x="1291" y="771.1309">:RegisterVehicleController</text><rect fill="#E3E3E3" height="32.6211" rx="2.5" ry="2.5" style="stroke:#181818;stroke-width:0.5;" width="97" x="1802" y="50"/><text fill="#000000" font-family="sans-serif" font-size="14" lengthAdjust="spacing" textLength="83" x="1809" y="72.1074">:Repositories</text><rect fill="#E3E3E3" height="32.6211" rx="2.5" ry="2.5" style="stroke:#181818;stroke-width:0.5;" width="97" x="1802" y="749.0234"/><text fill="#000000" font-family="sans-serif" font-size="14" lengthAdjust="spacing" textLength="83" x="1809" y="771.1309">:Repositories</text><rect fill="#E3E3E3" height="51.2422" rx="2.5" ry="2.5" style="stroke:#181818;stroke-width:0.5;" width="132" x="2261.5" y="31.3789"/><text fill="#000000" font-family="sans-serif" font-size="14" lengthAdjust="spacing" textLength="112" x="2271.5" y="53.4863">vehicleRepository</text><text fill="#000000" font-family="sans-serif" font-size="14" lengthAdjust="spacing" textLength="118" x="2268.5" y="72.1074">:VehicleRepository</text><rect fill="#E3E3E3" height="51.2422" rx="2.5" ry="2.5" style="stroke:#181818;stroke-width:0.5;" width="132" x="2261.5" y="749.0234"/><text fill="#000000" font-family="sans-serif" font-size="14" lengthAdjust="spacing" textLength="112" x="2271.5" y="771.1309">vehicleRepository</text><text fill="#000000" font-family="sans-serif" font-size="14" lengthAdjust="spacing" textLength="118" x="2268.5" y="789.752">:VehicleRepository</text><rect fill="#E3E3E3" height="51.2422" rx="2.5" ry="2.5" style="stroke:#181818;stroke-width:0.5;" width="64" x="2453.5" y="31.3789"/><text fill="#000000" font-family="sans-serif" font-size="14" lengthAdjust="spacing" textLength="44" x="2463.5" y="53.4863">vehicle</text><text fill="#000000" font-family="sans-serif" font-size="14" lengthAdjust="spacing" textLength="50" x="2460.5" y="72.1074">:Vehicle</text><rect fill="#E3E3E3" height="51.2422" rx="2.5" ry="2.5" style="stroke:#181818;stroke-width:0.5;" width="64" x="2453.5" y="749.0234"/><text fill="#000000" font-family="sans-serif" font-size="14" lengthAdjust="spacing" textLength="44" x="2463.5" y="771.1309">vehicle</text><text fill="#000000" font-family="sans-serif" font-size="14" lengthAdjust="spacing" textLength="50" x="2460.5" y="789.752">:Vehicle</text><rect fill="#FFFFFF" height="638.4023" style="stroke:#181818;stroke-width:1.0;" width="10" x="17.5" y="93.6211"/><rect fill="#FFFFFF" height="615.1113" style="stroke:#181818;stroke-width:1.0;" width="10" x="903.5" y="116.9121"/><rect fill="#FFFFFF" height="410.0742" style="stroke:#181818;stroke-width:1.0;" width="10" x="1368.5" y="290.6582"/><rect fill="#FFFFFF" height="419.0742" style="stroke:#181818;stroke-width:1.0;" width="10" x="1845.5" y="321.9492"/><rect fill="#FFFFFF" height="253.6191" style="stroke:#181818;stroke-width:1.0;" width="10" x="2322.5" y="353.2402"/><polygon fill="#181818" points="891.5,112.9121,901.5,116.9121,891.5,120.9121,895.5,116.9121" style="stroke:#181818;stroke-width:1.0;"/><line style="stroke:#181818;stroke-width:1.0;" x1="27.5" x2="897.5" y1="116.9121" y2="116.9121"/><text fill="#000000" font-family="sans-serif" font-size="13" font-weight="bold" lengthAdjust="spacing" textLength="7" x="34.5" y="111.6494">1</text><text fill="#000000" font-family="sans-serif" font-size="13" lengthAdjust="spacing" textLength="148" x="45.5" y="111.6494">asks to register a Vehicle</text><polygon fill="#181818" points="38.5,144.2031,28.5,148.2031,38.5,152.2031,34.5,148.2031" style="stroke:#181818;stroke-width:1.0;"/><line style="stroke:#181818;stroke-width:1.0;stroke-dasharray:2.0,2.0;" x1="32.5" x2="902.5" y1="148.2031" y2="148.2031"/><text fill="#000000" font-family="sans-serif" font-size="13" font-weight="bold" lengthAdjust="spacing" textLength="7" x="44.5" y="142.9404">2</text><text fill="#000000" font-family="sans-serif" font-size="13" lengthAdjust="spacing" textLength="805" x="55.5" y="142.9404">requests data brand, model, type, tare, gross weight, current km, register date, acquisition date, maintenance/check-up frequency (in kms))</text><polygon fill="#181818" points="891.5,175.4941,901.5,179.4941,891.5,183.4941,895.5,179.4941" style="stroke:#181818;stroke-width:1.0;"/><line style="stroke:#181818;stroke-width:1.0;" x1="27.5" x2="897.5" y1="179.4941" y2="179.4941"/><text fill="#000000" font-family="sans-serif" font-size="13" font-weight="bold" lengthAdjust="spacing" textLength="7" x="34.5" y="174.2314">3</text><text fill="#000000" font-family="sans-serif" font-size="13" lengthAdjust="spacing" textLength="841" x="45.5" y="174.2314">types requests data(brand, model, type, tare, gross weight, current km, register date, acquisition date, maintenance/check-up frequency (in kms))</text><polygon fill="#181818" points="38.5,206.7852,28.5,210.7852,38.5,214.7852,34.5,210.7852" style="stroke:#181818;stroke-width:1.0;"/><line style="stroke:#181818;stroke-width:1.0;stroke-dasharray:2.0,2.0;" x1="32.5" x2="902.5" y1="210.7852" y2="210.7852"/><text fill="#000000" font-family="sans-serif" font-size="13" font-weight="bold" lengthAdjust="spacing" textLength="7" x="44.5" y="205.5225">4</text><text fill="#000000" font-family="sans-serif" font-size="13" lengthAdjust="spacing" textLength="236" x="55.5" y="205.5225">shows all data and requests confirmation</text><polygon fill="#181818" points="891.5,238.0762,901.5,242.0762,891.5,246.0762,895.5,242.0762" style="stroke:#181818;stroke-width:1.0;"/><line style="stroke:#181818;stroke-width:1.0;" x1="27.5" x2="897.5" y1="242.0762" y2="242.0762"/><text fill="#000000" font-family="sans-serif" font-size="13" font-weight="bold" lengthAdjust="spacing" textLength="7" x="34.5" y="236.8135">5</text><text fill="#000000" font-family="sans-serif" font-size="13" lengthAdjust="spacing" textLength="78" x="45.5" y="236.8135">confirms data</text><polygon fill="#181818" points="1356.5,286.6582,1366.5,290.6582,1356.5,294.6582,1360.5,290.6582" style="stroke:#181818;stroke-width:1.0;"/><line style="stroke:#181818;stroke-width:1.0;" x1="913.5" x2="1362.5" y1="290.6582" y2="290.6582"/><text fill="#000000" font-family="sans-serif" font-size="13" font-weight="bold" lengthAdjust="spacing" textLength="7" x="920.5" y="276.75">6</text><text fill="#000000" font-family="sans-serif" font-size="13" lengthAdjust="spacing" textLength="383" x="931.5" y="268.1045">registerVehicle(brand, model, type, tare, gross weight, current km,</text><text fill="#000000" font-family="sans-serif" font-size="13" lengthAdjust="spacing" textLength="425" x="931.5" y="285.3955">register date, acquisition date, maintenance/check-up frequency (in kms))</text><polygon fill="#181818" points="1833.5,317.9492,1843.5,321.9492,1833.5,325.9492,1837.5,321.9492" style="stroke:#181818;stroke-width:1.0;"/><line style="stroke:#181818;stroke-width:1.0;" x1="1378.5" x2="1839.5" y1="321.9492" y2="321.9492"/><text fill="#000000" font-family="sans-serif" font-size="13" font-weight="bold" lengthAdjust="spacing" textLength="7" x="1385.5" y="316.6865">7</text><text fill="#000000" font-family="sans-serif" font-size="13" lengthAdjust="spacing" textLength="75" x="1396.5" y="316.6865">getInstance()</text><polygon fill="#181818" points="1833.5,349.2402,1843.5,353.2402,1833.5,357.2402,1837.5,353.2402" style="stroke:#181818;stroke-width:1.0;"/><line style="stroke:#181818;stroke-width:1.0;" x1="1378.5" x2="1839.5" y1="353.2402" y2="353.2402"/><text fill="#000000" font-family="sans-serif" font-size="13" font-weight="bold" lengthAdjust="spacing" textLength="7" x="1385.5" y="347.9775">8</text><text fill="#000000" font-family="sans-serif" font-size="13" lengthAdjust="spacing" textLength="131" x="1396.5" y="347.9775">getVehicleRepository()</text><polygon fill="#181818" points="2310.5,380.5313,2320.5,384.5313,2310.5,388.5313,2314.5,384.5313" style="stroke:#181818;stroke-width:1.0;"/><line style="stroke:#181818;stroke-width:1.0;" x1="1855.5" x2="2316.5" y1="384.5313" y2="384.5313"/><text fill="#000000" font-family="sans-serif" font-size="13" font-weight="bold" lengthAdjust="spacing" textLength="7" x="1862.5" y="379.2686">9</text><text fill="#000000" font-family="sans-serif" font-size="13" lengthAdjust="spacing" textLength="131" x="1873.5" y="379.2686">getVehicleRepository()</text><polygon fill="#181818" points="1833.5,429.1133,1843.5,433.1133,1833.5,437.1133,1837.5,433.1133" style="stroke:#181818;stroke-width:1.0;"/><line style="stroke:#181818;stroke-width:1.0;" x1="1378.5" x2="1839.5" y1="433.1133" y2="433.1133"/><text fill="#000000" font-family="sans-serif" font-size="13" font-weight="bold" lengthAdjust="spacing" textLength="14" x="1385.5" y="419.2051">10</text><text fill="#000000" font-family="sans-serif" font-size="13" lengthAdjust="spacing" textLength="383" x="1403.5" y="410.5596">registerVehicle(brand, model, type, tare, gross weight, current km,</text><text fill="#000000" font-family="sans-serif" font-size="13" lengthAdjust="spacing" textLength="425" x="1403.5" y="427.8506">register date, acquisition date, maintenance/check-up frequency (in kms))</text><polygon fill="#181818" points="2310.5,477.6953,2320.5,481.6953,2310.5,485.6953,2314.5,481.6953" style="stroke:#181818;stroke-width:1.0;"/><line style="stroke:#181818;stroke-width:1.0;" x1="1855.5" x2="2316.5" y1="481.6953" y2="481.6953"/><text fill="#000000" font-family="sans-serif" font-size="13" font-weight="bold" lengthAdjust="spacing" textLength="14" x="1862.5" y="467.7871">11</text><text fill="#000000" font-family="sans-serif" font-size="13" lengthAdjust="spacing" textLength="383" x="1880.5" y="459.1416">registerVehicle(brand, model, type, tare, gross weight, current km,</text><text fill="#000000" font-family="sans-serif" font-size="13" lengthAdjust="spacing" textLength="425" x="1880.5" y="476.4326">register date, acquisition date, maintenance/check-up frequency (in kms))</text><polygon fill="#181818" points="2473.5,508.9863,2483.5,512.9863,2473.5,516.9863,2477.5,512.9863" style="stroke:#181818;stroke-width:1.0;"/><line style="stroke:#181818;stroke-width:1.0;" x1="2332.5" x2="2479.5" y1="512.9863" y2="512.9863"/><text fill="#000000" font-family="sans-serif" font-size="13" font-weight="bold" lengthAdjust="spacing" textLength="14" x="2339.5" y="507.7236">12</text><text fill="#000000" font-family="sans-serif" font-size="13" lengthAdjust="spacing" textLength="87" x="2357.5" y="507.7236">createVehicle()</text><polygon fill="#181818" points="2343.5,540.2773,2333.5,544.2773,2343.5,548.2773,2339.5,544.2773" style="stroke:#181818;stroke-width:1.0;"/><line style="stroke:#181818;stroke-width:1.0;" x1="2337.5" x2="2484.5" y1="544.2773" y2="544.2773"/><text fill="#000000" font-family="sans-serif" font-size="13" font-weight="bold" lengthAdjust="spacing" textLength="14" x="2349.5" y="539.0146">13</text><text fill="#000000" font-family="sans-serif" font-size="13" lengthAdjust="spacing" textLength="111" x="2367.5" y="539.0146">addVehicle(vehicle)</text><polygon fill="#181818" points="1866.5,571.5684,1856.5,575.5684,1866.5,579.5684,1862.5,575.5684" style="stroke:#181818;stroke-width:1.0;"/><line style="stroke:#181818;stroke-width:1.0;stroke-dasharray:2.0,2.0;" x1="1860.5" x2="2321.5" y1="575.5684" y2="575.5684"/><text fill="#000000" font-family="sans-serif" font-size="13" font-weight="bold" lengthAdjust="spacing" textLength="14" x="1872.5" y="570.3057">14</text><text fill="#000000" font-family="sans-serif" font-size="13" lengthAdjust="spacing" textLength="73" x="1890.5" y="570.3057">true / vehicle</text><polygon fill="#181818" points="1866.5,602.8594,1856.5,606.8594,1866.5,610.8594,1862.5,606.8594" style="stroke:#181818;stroke-width:1.0;"/><line style="stroke:#181818;stroke-width:1.0;stroke-dasharray:2.0,2.0;" x1="1860.5" x2="2326.5" y1="606.8594" y2="606.8594"/><text fill="#000000" font-family="sans-serif" font-size="13" font-weight="bold" lengthAdjust="spacing" textLength="14" x="1872.5" y="601.5967">15</text><text fill="#000000" font-family="sans-serif" font-size="13" lengthAdjust="spacing" textLength="101" x="1890.5" y="601.5967">vehicleRepository</text><polygon fill="#181818" points="1389.5,634.1504,1379.5,638.1504,1389.5,642.1504,1385.5,638.1504" style="stroke:#181818;stroke-width:1.0;"/><line style="stroke:#181818;stroke-width:1.0;stroke-dasharray:2.0,2.0;" x1="1383.5" x2="1844.5" y1="638.1504" y2="638.1504"/><text fill="#000000" font-family="sans-serif" font-size="13" font-weight="bold" lengthAdjust="spacing" textLength="14" x="1395.5" y="632.8877">16</text><text fill="#000000" font-family="sans-serif" font-size="13" lengthAdjust="spacing" textLength="73" x="1413.5" y="632.8877">true / vehicle</text><polygon fill="#181818" points="1389.5,665.4414,1379.5,669.4414,1389.5,673.4414,1385.5,669.4414" style="stroke:#181818;stroke-width:1.0;"/><line style="stroke:#181818;stroke-width:1.0;stroke-dasharray:2.0,2.0;" x1="1383.5" x2="1844.5" y1="669.4414" y2="669.4414"/><text fill="#000000" font-family="sans-serif" font-size="13" font-weight="bold" lengthAdjust="spacing" textLength="14" x="1395.5" y="664.1787">17</text><text fill="#000000" font-family="sans-serif" font-size="13" lengthAdjust="spacing" textLength="67" x="1413.5" y="664.1787">repositories</text><polygon fill="#181818" points="924.5,696.7324,914.5,700.7324,924.5,704.7324,920.5,700.7324" style="stroke:#181818;stroke-width:1.0;"/><line style="stroke:#181818;stroke-width:1.0;stroke-dasharray:2.0,2.0;" x1="918.5" x2="1372.5" y1="700.7324" y2="700.7324"/><text fill="#000000" font-family="sans-serif" font-size="13" font-weight="bold" lengthAdjust="spacing" textLength="14" x="930.5" y="695.4697">18</text><text fill="#000000" font-family="sans-serif" font-size="13" lengthAdjust="spacing" textLength="73" x="948.5" y="695.4697">true / vehicle</text><polygon fill="#181818" points="33.5,728.0234,23.5,732.0234,33.5,736.0234,29.5,732.0234" style="stroke:#181818;stroke-width:1.0;"/><line style="stroke:#181818;stroke-width:1.0;" x1="27.5" x2="907.5" y1="732.0234" y2="732.0234"/><text fill="#000000" font-family="sans-serif" font-size="13" font-weight="bold" lengthAdjust="spacing" textLength="14" x="39.5" y="726.7607">19</text><text fill="#000000" font-family="sans-serif" font-size="13" lengthAdjust="spacing" textLength="158" x="57.5" y="726.7607">displays operation success</text><!--SRC=[pLR1Rk903BtdAomk2nAeznnwgRGIqlRItNBgnKnCCYAPISSJMFv-dGcGXB2qq1wOGn0J-_azZpqEhxKfqM41XJLMPSuM1DvL5F7nJObgZIdzzhkSm97oQDAyQy0P9dQhJGehp9cY22jlJLKioKNHZqmd12jh_TB-ZL1vws2q-Fay0cIGtqWml5QwHEDX5BzGgjcJMr2cLKwlys3tEhzizcIDTpRFoGNpfpyllmOEfMKjmJLniEbkz6qt3URHOFTcuiNfNaF_TFSiKElUTOhgNEWDUWfPY62_v0_C7aKnn6AzPl1Majwe1Jnw7yoF89AYi2cEC_6lOM9nVA-8FKE27c7fq2HJEUc4yYduNKdoH2VFr5bcs99ECpy5LJb78c1TJDlGWY26gDuhBLgrDVkT0hNnPD0eUb0PgVMiAc4L0XkrWx4sWiEJISEkgwucm7sAupkWs4iWPtRBW7dUP538jOILDIlj2gmZ3TNjtpQwskEjqHz3WORZwLNnJUhVpFVf7nHLQAIM_BaLf8YaRZ-9j9JytB2lOuud5m6EmNeTUMlGGKj-Dlgmbo_wzIBNvNBg_dywDsYxlrBvSdBkjVRFhI7_LfHqkYC9TT3nAQIpIP7xFaaECFlPSJMlOLFKqnmUO7COEry3Z64m7YyY9lGz7TPUcjVeEOjHrzw7Dytrl9k-3TV_WEG74S8rsqw7PlGaciiSTmos91U6372b53579-xrwE_obS-9Vm00]--></g></svg>