<?xml version="1.0" encoding="us-ascii" standalone="no"?><svg xmlns="http://www.w3.org/2000/svg" xmlns:xlink="http://www.w3.org/1999/xlink" contentStyleType="text/css" height="900px" preserveAspectRatio="none" style="width:1346px;height:900px;background:#FFFFFF;" version="1.1" viewBox="0 0 1346 900" width="1346px" zoomAndPan="magnify"><defs/><g><!--class ApplicationSession--><g id="elem_ApplicationSession"><rect codeLine="11" fill="#F1F1F1" height="85.2422" id="ApplicationSession" rx="2.5" ry="2.5" style="stroke:#181818;stroke-width:0.5;" width="151" x="933.5" y="275"/><ellipse cx="948.5" cy="291" fill="#ADD1B2" rx="11" ry="11" style="stroke:#181818;stroke-width:1.0;"/><path d="M951.2656,286.875 Q951.4219,286.6563 951.6094,286.5469 Q951.7969,286.4375 952.0156,286.4375 Q952.3906,286.4375 952.625,286.7031 Q952.8594,286.9531 952.8594,287.5625 L952.8594,289.0156 Q952.8594,289.625 952.625,289.8906 Q952.3906,290.1563 952.0156,290.1563 Q951.6719,290.1563 951.4688,289.9531 Q951.2656,289.7656 951.1563,289.25 Q951.1094,288.8906 950.9219,288.7031 Q950.5938,288.3281 949.9844,288.1094 Q949.375,287.8906 948.75,287.8906 Q947.9844,287.8906 947.3438,288.2188 Q946.7188,288.5469 946.2188,289.2969 Q945.7344,290.0469 945.7344,291.0781 L945.7344,292.1719 Q945.7344,293.4063 946.625,294.2344 Q947.5156,295.0469 949.1094,295.0469 Q950.0469,295.0469 950.7031,294.7969 Q951.0938,294.6406 951.5156,294.2031 Q951.7813,293.9375 951.9219,293.8594 Q952.0781,293.7813 952.2813,293.7813 Q952.6094,293.7813 952.8594,294.0469 Q953.125,294.2969 953.125,294.6406 Q953.125,294.9844 952.7813,295.3906 Q952.2813,295.9688 951.4844,296.2969 Q950.4063,296.75 949.1094,296.75 Q947.5938,296.75 946.3906,296.125 Q945.4063,295.625 944.7188,294.5625 Q944.0313,293.4844 944.0313,292.2031 L944.0313,291.0469 Q944.0313,289.7188 944.6406,288.5781 Q945.2656,287.4219 946.3594,286.8125 Q947.4531,286.1875 948.6875,286.1875 Q949.4219,286.1875 950.0625,286.3594 Q950.7188,286.5156 951.2656,286.875 Z " fill="#000000"/><text fill="#000000" font-family="sans-serif" font-size="14" lengthAdjust="spacing" textLength="119" x="962.5" y="296.7969">ApplicationSession</text><line style="stroke:#181818;stroke-width:0.5;" x1="934.5" x2="1083.5" y1="307" y2="307"/><line style="stroke:#181818;stroke-width:0.5;" x1="934.5" x2="1083.5" y1="315" y2="315"/><text fill="#000000" font-family="sans-serif" font-size="14" lengthAdjust="spacing" textLength="128" x="939.5" y="334.1074">+static getInstance()</text><text fill="#000000" font-family="sans-serif" font-size="14" lengthAdjust="spacing" textLength="136" x="939.5" y="352.7285">+getCurrentSession()</text></g><!--class UserSession--><g id="elem_UserSession"><rect codeLine="17" fill="#F1F1F1" height="66.6211" id="UserSession" rx="2.5" ry="2.5" style="stroke:#181818;stroke-width:0.5;" width="113" x="1084.5" y="532"/><ellipse cx="1100.4" cy="548" fill="#ADD1B2" rx="11" ry="11" style="stroke:#181818;stroke-width:1.0;"/><path d="M1103.1656,543.875 Q1103.3219,543.6563 1103.5094,543.5469 Q1103.6969,543.4375 1103.9156,543.4375 Q1104.2906,543.4375 1104.525,543.7031 Q1104.7594,543.9531 1104.7594,544.5625 L1104.7594,546.0156 Q1104.7594,546.625 1104.525,546.8906 Q1104.2906,547.1563 1103.9156,547.1563 Q1103.5719,547.1563 1103.3688,546.9531 Q1103.1656,546.7656 1103.0563,546.25 Q1103.0094,545.8906 1102.8219,545.7031 Q1102.4938,545.3281 1101.8844,545.1094 Q1101.275,544.8906 1100.65,544.8906 Q1099.8844,544.8906 1099.2438,545.2188 Q1098.6188,545.5469 1098.1188,546.2969 Q1097.6344,547.0469 1097.6344,548.0781 L1097.6344,549.1719 Q1097.6344,550.4063 1098.525,551.2344 Q1099.4156,552.0469 1101.0094,552.0469 Q1101.9469,552.0469 1102.6031,551.7969 Q1102.9938,551.6406 1103.4156,551.2031 Q1103.6813,550.9375 1103.8219,550.8594 Q1103.9781,550.7813 1104.1813,550.7813 Q1104.5094,550.7813 1104.7594,551.0469 Q1105.025,551.2969 1105.025,551.6406 Q1105.025,551.9844 1104.6813,552.3906 Q1104.1813,552.9688 1103.3844,553.2969 Q1102.3063,553.75 1101.0094,553.75 Q1099.4938,553.75 1098.2906,553.125 Q1097.3063,552.625 1096.6188,551.5625 Q1095.9313,550.4844 1095.9313,549.2031 L1095.9313,548.0469 Q1095.9313,546.7188 1096.5406,545.5781 Q1097.1656,544.4219 1098.2594,543.8125 Q1099.3531,543.1875 1100.5875,543.1875 Q1101.3219,543.1875 1101.9625,543.3594 Q1102.6188,543.5156 1103.1656,543.875 Z " fill="#000000"/><text fill="#000000" font-family="sans-serif" font-size="14" lengthAdjust="spacing" textLength="79" x="1114.6" y="553.7969">UserSession</text><line style="stroke:#181818;stroke-width:0.5;" x1="1085.5" x2="1196.5" y1="564" y2="564"/><line style="stroke:#181818;stroke-width:0.5;" x1="1085.5" x2="1196.5" y1="572" y2="572"/><text fill="#000000" font-family="sans-serif" font-size="14" lengthAdjust="spacing" textLength="101" x="1090.5" y="591.1074">+getUserEmail()</text></g><!--class Employee--><g id="elem_Employee"><rect codeLine="22" fill="#F1F1F1" height="122.4844" id="Employee" rx="2.5" ry="2.5" style="stroke:#181818;stroke-width:0.5;" width="94" x="337" y="771"/><ellipse cx="352" cy="787" fill="#ADD1B2" rx="11" ry="11" style="stroke:#181818;stroke-width:1.0;"/><path d="M354.7656,782.875 Q354.9219,782.6563 355.1094,782.5469 Q355.2969,782.4375 355.5156,782.4375 Q355.8906,782.4375 356.125,782.7031 Q356.3594,782.9531 356.3594,783.5625 L356.3594,785.0156 Q356.3594,785.625 356.125,785.8906 Q355.8906,786.1563 355.5156,786.1563 Q355.1719,786.1563 354.9688,785.9531 Q354.7656,785.7656 354.6563,785.25 Q354.6094,784.8906 354.4219,784.7031 Q354.0938,784.3281 353.4844,784.1094 Q352.875,783.8906 352.25,783.8906 Q351.4844,783.8906 350.8438,784.2188 Q350.2188,784.5469 349.7188,785.2969 Q349.2344,786.0469 349.2344,787.0781 L349.2344,788.1719 Q349.2344,789.4063 350.125,790.2344 Q351.0156,791.0469 352.6094,791.0469 Q353.5469,791.0469 354.2031,790.7969 Q354.5938,790.6406 355.0156,790.2031 Q355.2813,789.9375 355.4219,789.8594 Q355.5781,789.7813 355.7813,789.7813 Q356.1094,789.7813 356.3594,790.0469 Q356.625,790.2969 356.625,790.6406 Q356.625,790.9844 356.2813,791.3906 Q355.7813,791.9688 354.9844,792.2969 Q353.9063,792.75 352.6094,792.75 Q351.0938,792.75 349.8906,792.125 Q348.9063,791.625 348.2188,790.5625 Q347.5313,789.4844 347.5313,788.2031 L347.5313,787.0469 Q347.5313,785.7188 348.1406,784.5781 Q348.7656,783.4219 349.8594,782.8125 Q350.9531,782.1875 352.1875,782.1875 Q352.9219,782.1875 353.5625,782.3594 Q354.2188,782.5156 354.7656,782.875 Z " fill="#000000"/><text fill="#000000" font-family="sans-serif" font-size="14" lengthAdjust="spacing" textLength="62" x="366" y="792.7969">Employee</text><line style="stroke:#181818;stroke-width:0.5;" x1="338" x2="430" y1="803" y2="803"/><text fill="#000000" font-family="sans-serif" font-size="14" lengthAdjust="spacing" textLength="40" x="343" y="822.1074">-name</text><text fill="#000000" font-family="sans-serif" font-size="14" lengthAdjust="spacing" textLength="38" x="343" y="840.7285">-email</text><text fill="#000000" font-family="sans-serif" font-size="14" lengthAdjust="spacing" textLength="54" x="343" y="859.3496">-position</text><text fill="#000000" font-family="sans-serif" font-size="14" lengthAdjust="spacing" textLength="45" x="343" y="877.9707">-phone</text><line style="stroke:#181818;stroke-width:0.5;" x1="338" x2="430" y1="885.4844" y2="885.4844"/></g><!--class Vehicle--><g id="elem_Vehicle"><rect codeLine="29" fill="#F1F1F1" height="252.832" id="Vehicle" rx="2.5" ry="2.5" style="stroke:#181818;stroke-width:0.5;" width="754" x="7" y="439"/><ellipse cx="356.75" cy="455" fill="#ADD1B2" rx="11" ry="11" style="stroke:#181818;stroke-width:1.0;"/><path d="M359.5156,450.875 Q359.6719,450.6563 359.8594,450.5469 Q360.0469,450.4375 360.2656,450.4375 Q360.6406,450.4375 360.875,450.7031 Q361.1094,450.9531 361.1094,451.5625 L361.1094,453.0156 Q361.1094,453.625 360.875,453.8906 Q360.6406,454.1563 360.2656,454.1563 Q359.9219,454.1563 359.7188,453.9531 Q359.5156,453.7656 359.4063,453.25 Q359.3594,452.8906 359.1719,452.7031 Q358.8438,452.3281 358.2344,452.1094 Q357.625,451.8906 357,451.8906 Q356.2344,451.8906 355.5938,452.2188 Q354.9688,452.5469 354.4688,453.2969 Q353.9844,454.0469 353.9844,455.0781 L353.9844,456.1719 Q353.9844,457.4063 354.875,458.2344 Q355.7656,459.0469 357.3594,459.0469 Q358.2969,459.0469 358.9531,458.7969 Q359.3438,458.6406 359.7656,458.2031 Q360.0313,457.9375 360.1719,457.8594 Q360.3281,457.7813 360.5313,457.7813 Q360.8594,457.7813 361.1094,458.0469 Q361.375,458.2969 361.375,458.6406 Q361.375,458.9844 361.0313,459.3906 Q360.5313,459.9688 359.7344,460.2969 Q358.6563,460.75 357.3594,460.75 Q355.8438,460.75 354.6406,460.125 Q353.6563,459.625 352.9688,458.5625 Q352.2813,457.4844 352.2813,456.2031 L352.2813,455.0469 Q352.2813,453.7188 352.8906,452.5781 Q353.5156,451.4219 354.6094,450.8125 Q355.7031,450.1875 356.9375,450.1875 Q357.6719,450.1875 358.3125,450.3594 Q358.9688,450.5156 359.5156,450.875 Z " fill="#000000"/><text fill="#000000" font-family="sans-serif" font-size="14" lengthAdjust="spacing" textLength="46" x="377.25" y="460.7969">Vehicle</text><line style="stroke:#181818;stroke-width:0.5;" x1="8" x2="760" y1="471" y2="471"/><text fill="#000000" font-family="sans-serif" font-size="14" lengthAdjust="spacing" textLength="83" x="13" y="490.1074">-String brand</text><text fill="#000000" font-family="sans-serif" font-size="14" lengthAdjust="spacing" textLength="84" x="13" y="508.7285">-String model</text><text fill="#000000" font-family="sans-serif" font-size="14" lengthAdjust="spacing" textLength="84" x="13" y="527.3496">-Integer plate</text><text fill="#000000" font-family="sans-serif" font-size="14" lengthAdjust="spacing" textLength="73" x="13" y="545.9707">-String type</text><text fill="#000000" font-family="sans-serif" font-size="14" lengthAdjust="spacing" textLength="78" x="13" y="564.5918">-Integer tare</text><text fill="#000000" font-family="sans-serif" font-size="14" lengthAdjust="spacing" textLength="125" x="13" y="583.2129">-String grossWeight</text><text fill="#000000" font-family="sans-serif" font-size="14" lengthAdjust="spacing" textLength="126" x="13" y="601.834">-Integer currenteKM</text><text fill="#000000" font-family="sans-serif" font-size="14" lengthAdjust="spacing" textLength="124" x="13" y="620.4551">-String registerDate</text><text fill="#000000" font-family="sans-serif" font-size="14" lengthAdjust="spacing" textLength="143" x="13" y="639.0762">-String acquisitionDate</text><text fill="#000000" font-family="sans-serif" font-size="14" lengthAdjust="spacing" textLength="174" x="13" y="657.6973">-Integer checkupFrequency</text><line style="stroke:#181818;stroke-width:0.5;" x1="8" x2="760" y1="665.2109" y2="665.2109"/><text fill="#000000" font-family="sans-serif" font-size="14" lengthAdjust="spacing" textLength="742" x="13" y="684.3184">+Vehicle(brand, model, plate, type, tare, grossWeight, currenteKM, registerDate, acquisitionDate, checkupFrequency)</text></g><!--class VehicleRepository--><g id="elem_VehicleRepository"><rect codeLine="46" fill="#F1F1F1" height="48" id="VehicleRepository" rx="2.5" ry="2.5" style="stroke:#181818;stroke-width:0.5;" width="146" x="712" y="293.5"/><ellipse cx="727" cy="309.5" fill="#ADD1B2" rx="11" ry="11" style="stroke:#181818;stroke-width:1.0;"/><path d="M729.7656,305.375 Q729.9219,305.1563 730.1094,305.0469 Q730.2969,304.9375 730.5156,304.9375 Q730.8906,304.9375 731.125,305.2031 Q731.3594,305.4531 731.3594,306.0625 L731.3594,307.5156 Q731.3594,308.125 731.125,308.3906 Q730.8906,308.6563 730.5156,308.6563 Q730.1719,308.6563 729.9688,308.4531 Q729.7656,308.2656 729.6563,307.75 Q729.6094,307.3906 729.4219,307.2031 Q729.0938,306.8281 728.4844,306.6094 Q727.875,306.3906 727.25,306.3906 Q726.4844,306.3906 725.8438,306.7188 Q725.2188,307.0469 724.7188,307.7969 Q724.2344,308.5469 724.2344,309.5781 L724.2344,310.6719 Q724.2344,311.9063 725.125,312.7344 Q726.0156,313.5469 727.6094,313.5469 Q728.5469,313.5469 729.2031,313.2969 Q729.5938,313.1406 730.0156,312.7031 Q730.2813,312.4375 730.4219,312.3594 Q730.5781,312.2813 730.7813,312.2813 Q731.1094,312.2813 731.3594,312.5469 Q731.625,312.7969 731.625,313.1406 Q731.625,313.4844 731.2813,313.8906 Q730.7813,314.4688 729.9844,314.7969 Q728.9063,315.25 727.6094,315.25 Q726.0938,315.25 724.8906,314.625 Q723.9063,314.125 723.2188,313.0625 Q722.5313,311.9844 722.5313,310.7031 L722.5313,309.5469 Q722.5313,308.2188 723.1406,307.0781 Q723.7656,305.9219 724.8594,305.3125 Q725.9531,304.6875 727.1875,304.6875 Q727.9219,304.6875 728.5625,304.8594 Q729.2188,305.0156 729.7656,305.375 Z " fill="#000000"/><text fill="#000000" font-family="sans-serif" font-size="14" lengthAdjust="spacing" textLength="114" x="741" y="315.2969">VehicleRepository</text><line style="stroke:#181818;stroke-width:0.5;" x1="713" x2="857" y1="325.5" y2="325.5"/><line style="stroke:#181818;stroke-width:0.5;" x1="713" x2="857" y1="333.5" y2="333.5"/></g><!--class Repositories--><g id="elem_Repositories"><rect codeLine="50" fill="#F1F1F1" height="103.8633" id="Repositories" rx="2.5" ry="2.5" style="stroke:#181818;stroke-width:0.5;" width="194" x="607" y="141"/><ellipse cx="660.25" cy="157" fill="#ADD1B2" rx="11" ry="11" style="stroke:#181818;stroke-width:1.0;"/><path d="M663.0156,152.875 Q663.1719,152.6563 663.3594,152.5469 Q663.5469,152.4375 663.7656,152.4375 Q664.1406,152.4375 664.375,152.7031 Q664.6094,152.9531 664.6094,153.5625 L664.6094,155.0156 Q664.6094,155.625 664.375,155.8906 Q664.1406,156.1563 663.7656,156.1563 Q663.4219,156.1563 663.2188,155.9531 Q663.0156,155.7656 662.9063,155.25 Q662.8594,154.8906 662.6719,154.7031 Q662.3438,154.3281 661.7344,154.1094 Q661.125,153.8906 660.5,153.8906 Q659.7344,153.8906 659.0938,154.2188 Q658.4688,154.5469 657.9688,155.2969 Q657.4844,156.0469 657.4844,157.0781 L657.4844,158.1719 Q657.4844,159.4063 658.375,160.2344 Q659.2656,161.0469 660.8594,161.0469 Q661.7969,161.0469 662.4531,160.7969 Q662.8438,160.6406 663.2656,160.2031 Q663.5313,159.9375 663.6719,159.8594 Q663.8281,159.7813 664.0313,159.7813 Q664.3594,159.7813 664.6094,160.0469 Q664.875,160.2969 664.875,160.6406 Q664.875,160.9844 664.5313,161.3906 Q664.0313,161.9688 663.2344,162.2969 Q662.1563,162.75 660.8594,162.75 Q659.3438,162.75 658.1406,162.125 Q657.1563,161.625 656.4688,160.5625 Q655.7813,159.4844 655.7813,158.2031 L655.7813,157.0469 Q655.7813,155.7188 656.3906,154.5781 Q657.0156,153.4219 658.1094,152.8125 Q659.2031,152.1875 660.4375,152.1875 Q661.1719,152.1875 661.8125,152.3594 Q662.4688,152.5156 663.0156,152.875 Z " fill="#000000"/><text fill="#000000" font-family="sans-serif" font-size="14" lengthAdjust="spacing" textLength="79" x="680.75" y="162.7969">Repositories</text><line style="stroke:#181818;stroke-width:0.5;" x1="608" x2="800" y1="173" y2="173"/><line style="stroke:#181818;stroke-width:0.5;" x1="608" x2="800" y1="181" y2="181"/><text fill="#000000" font-family="sans-serif" font-size="14" lengthAdjust="spacing" textLength="94" x="613" y="200.1074">-Repositories()</text><text fill="#000000" font-family="sans-serif" font-size="14" lengthAdjust="spacing" textLength="182" x="613" y="218.7285">+getInstance() : Repositories</text><text fill="#000000" font-family="sans-serif" font-size="14" lengthAdjust="spacing" textLength="152" x="613" y="237.3496">+getVehicleRepository()</text></g><!--class VehicleController--><g id="elem_VehicleController"><rect codeLine="56" fill="#F1F1F1" height="103.8633" id="VehicleController" rx="2.5" ry="2.5" style="stroke:#181818;stroke-width:0.5;" width="250" x="860" y="7"/><ellipse cx="926.75" cy="23" fill="#ADD1B2" rx="11" ry="11" style="stroke:#181818;stroke-width:1.0;"/><path d="M929.5156,18.875 Q929.6719,18.6563 929.8594,18.5469 Q930.0469,18.4375 930.2656,18.4375 Q930.6406,18.4375 930.875,18.7031 Q931.1094,18.9531 931.1094,19.5625 L931.1094,21.0156 Q931.1094,21.625 930.875,21.8906 Q930.6406,22.1563 930.2656,22.1563 Q929.9219,22.1563 929.7188,21.9531 Q929.5156,21.7656 929.4063,21.25 Q929.3594,20.8906 929.1719,20.7031 Q928.8438,20.3281 928.2344,20.1094 Q927.625,19.8906 927,19.8906 Q926.2344,19.8906 925.5938,20.2188 Q924.9688,20.5469 924.4688,21.2969 Q923.9844,22.0469 923.9844,23.0781 L923.9844,24.1719 Q923.9844,25.4063 924.875,26.2344 Q925.7656,27.0469 927.3594,27.0469 Q928.2969,27.0469 928.9531,26.7969 Q929.3438,26.6406 929.7656,26.2031 Q930.0313,25.9375 930.1719,25.8594 Q930.3281,25.7813 930.5313,25.7813 Q930.8594,25.7813 931.1094,26.0469 Q931.375,26.2969 931.375,26.6406 Q931.375,26.9844 931.0313,27.3906 Q930.5313,27.9688 929.7344,28.2969 Q928.6563,28.75 927.3594,28.75 Q925.8438,28.75 924.6406,28.125 Q923.6563,27.625 922.9688,26.5625 Q922.2813,25.4844 922.2813,24.2031 L922.2813,23.0469 Q922.2813,21.7188 922.8906,20.5781 Q923.5156,19.4219 924.6094,18.8125 Q925.7031,18.1875 926.9375,18.1875 Q927.6719,18.1875 928.3125,18.3594 Q928.9688,18.5156 929.5156,18.875 Z " fill="#000000"/><text fill="#000000" font-family="sans-serif" font-size="14" lengthAdjust="spacing" textLength="108" x="947.25" y="28.7969">VehicleController</text><line style="stroke:#181818;stroke-width:0.5;" x1="861" x2="1109" y1="39" y2="39"/><line style="stroke:#181818;stroke-width:0.5;" x1="861" x2="1109" y1="47" y2="47"/><text fill="#000000" font-family="sans-serif" font-size="14" lengthAdjust="spacing" textLength="238" x="866" y="66.1074">+VehicleController(vehicleRepository)</text><text fill="#000000" font-family="sans-serif" font-size="14" lengthAdjust="spacing" textLength="112" x="866" y="84.7285">+registerVehicle()</text><text fill="#000000" font-family="sans-serif" font-size="14" lengthAdjust="spacing" textLength="180" x="866" y="103.3496">-getEmployeeFromSession()</text></g><g id="elem_GMN9"><path d="M1145,19.5 L1145,55 L1110.24,59 L1145,63 L1145,98.6641 A0,0 0 0 0 1145,98.6641 L1339,98.6641 A0,0 0 0 0 1339,98.6641 L1339,29.5 L1329,19.5 L1145,19.5 A0,0 0 0 0 1145,19.5 " fill="#FEFFDD" style="stroke:#181818;stroke-width:0.5;"/><path d="M1329,19.5 L1329,29.5 L1339,29.5 L1329,19.5 " fill="#FEFFDD" style="stroke:#181818;stroke-width:0.5;"/><text fill="#000000" font-family="sans-serif" font-size="13" lengthAdjust="spacing" textLength="133" x="1151" y="38.5283">- userEmail is obtained</text><text fill="#000000" font-family="sans-serif" font-size="13" lengthAdjust="spacing" textLength="125" x="1151" y="55.8193">from the user session</text><text fill="#000000" font-family="sans-serif" font-size="13" lengthAdjust="spacing" textLength="123" x="1151" y="73.1104">- categoryDescription</text><text fill="#000000" font-family="sans-serif" font-size="13" lengthAdjust="spacing" textLength="173" x="1151" y="90.4014">is retrieved from selected data</text></g><g id="elem_GMN12"><path d="M796.5,543 L796.5,587.582 A0,0 0 0 0 796.5,587.582 L933.5,587.582 A0,0 0 0 0 933.5,587.582 L933.5,553 L923.5,543 L861.9,543 L792.53,341.64 L853.9,543 L796.5,543 A0,0 0 0 0 796.5,543 " fill="#FEFFDD" style="stroke:#181818;stroke-width:0.5;"/><path d="M923.5,543 L923.5,553 L933.5,553 L923.5,543 " fill="#FEFFDD" style="stroke:#181818;stroke-width:0.5;"/><text fill="#000000" font-family="sans-serif" font-size="13" lengthAdjust="spacing" textLength="116" x="802.5" y="562.0283">- used for displaying</text><text fill="#000000" font-family="sans-serif" font-size="13" lengthAdjust="spacing" textLength="82" x="802.5" y="579.3193">the vehicle list</text></g><!--class VehicleUI--><g id="elem_VehicleUI"><rect fill="#F1F1F1" height="48" id="VehicleUI" rx="2.5" ry="2.5" style="stroke:#181818;stroke-width:0.5;" width="90" x="735" y="35"/><ellipse cx="750" cy="51" fill="#ADD1B2" rx="11" ry="11" style="stroke:#181818;stroke-width:1.0;"/><path d="M752.7656,46.875 Q752.9219,46.6563 753.1094,46.5469 Q753.2969,46.4375 753.5156,46.4375 Q753.8906,46.4375 754.125,46.7031 Q754.3594,46.9531 754.3594,47.5625 L754.3594,49.0156 Q754.3594,49.625 754.125,49.8906 Q753.8906,50.1563 753.5156,50.1563 Q753.1719,50.1563 752.9688,49.9531 Q752.7656,49.7656 752.6563,49.25 Q752.6094,48.8906 752.4219,48.7031 Q752.0938,48.3281 751.4844,48.1094 Q750.875,47.8906 750.25,47.8906 Q749.4844,47.8906 748.8438,48.2188 Q748.2188,48.5469 747.7188,49.2969 Q747.2344,50.0469 747.2344,51.0781 L747.2344,52.1719 Q747.2344,53.4063 748.125,54.2344 Q749.0156,55.0469 750.6094,55.0469 Q751.5469,55.0469 752.2031,54.7969 Q752.5938,54.6406 753.0156,54.2031 Q753.2813,53.9375 753.4219,53.8594 Q753.5781,53.7813 753.7813,53.7813 Q754.1094,53.7813 754.3594,54.0469 Q754.625,54.2969 754.625,54.6406 Q754.625,54.9844 754.2813,55.3906 Q753.7813,55.9688 752.9844,56.2969 Q751.9063,56.75 750.6094,56.75 Q749.0938,56.75 747.8906,56.125 Q746.9063,55.625 746.2188,54.5625 Q745.5313,53.4844 745.5313,52.2031 L745.5313,51.0469 Q745.5313,49.7188 746.1406,48.5781 Q746.7656,47.4219 747.8594,46.8125 Q748.9531,46.1875 750.1875,46.1875 Q750.9219,46.1875 751.5625,46.3594 Q752.2188,46.5156 752.7656,46.875 Z " fill="#000000"/><text fill="#000000" font-family="sans-serif" font-size="14" lengthAdjust="spacing" textLength="58" x="764" y="56.7969">VehicleUI</text><line style="stroke:#181818;stroke-width:0.5;" x1="736" x2="824" y1="67" y2="67"/><line style="stroke:#181818;stroke-width:0.5;" x1="736" x2="824" y1="75" y2="75"/></g><!--link Repositories to VehicleRepository--><g id="link_Repositories_VehicleRepository"><path codeLine="74" d="M737.88,245.24 C748.98,262.03 757.4522,274.8342 766.4522,288.4542 " fill="none" id="Repositories-to-VehicleRepository" style="stroke:#181818;stroke-width:1.0;"/><polygon fill="#181818" points="769.76,293.46,768.1355,283.746,767.0035,289.2885,761.4611,288.1565,769.76,293.46" style="stroke:#181818;stroke-width:1.0;"/><text fill="#000000" font-family="sans-serif" font-size="13" lengthAdjust="spacing" textLength="7" x="757.9579" y="282.1872">1</text></g><!--link Repositories to Repositories--><g id="link_Repositories_Repositories"><path codeLine="75" d="M801.28,170.57 C821.48,172.93 836,180.41 836,193 C836,205.59 827.4395,212.3737 807.2395,214.7337 " fill="none" id="Repositories-to-Repositories" style="stroke:#181818;stroke-width:1.0;"/><polygon fill="#181818" points="801.28,215.43,810.6834,218.3586,806.2462,214.8498,809.755,210.4126,801.28,215.43" style="stroke:#181818;stroke-width:1.0;"/><text fill="#000000" font-family="sans-serif" font-size="13" lengthAdjust="spacing" textLength="49" x="842" y="198.5283">instance</text></g><!--link ApplicationSession to ApplicationSession--><g id="link_ApplicationSession_ApplicationSession"><path codeLine="77" d="M1084.66,302.27 C1104.5,303.17 1119.5,308.25 1119.5,317.5 C1119.5,326.75 1110.4938,331.5581 1090.6538,332.4581 " fill="none" id="ApplicationSession-to-ApplicationSession" style="stroke:#181818;stroke-width:1.0;"/><polygon fill="#181818" points="1084.66,332.73,1093.832,336.318,1089.6549,332.5034,1093.4695,328.3263,1084.66,332.73" style="stroke:#181818;stroke-width:1.0;"/><text fill="#000000" font-family="sans-serif" font-size="13" lengthAdjust="spacing" textLength="49" x="1125.5" y="323.0283">instance</text></g><!--link ApplicationSession to UserSession--><g id="link_ApplicationSession_UserSession"><path codeLine="78" d="M1031.39,360.23 C1057.36,408.62 1096.783,482.0931 1120.533,526.3531 " fill="none" id="ApplicationSession-to-UserSession" style="stroke:#181818;stroke-width:1.0;"/><polygon fill="#181818" points="1123.37,531.64,1122.6392,521.8183,1121.0059,527.2342,1115.5899,525.6009,1123.37,531.64" style="stroke:#181818;stroke-width:1.0;"/><text fill="#000000" font-family="sans-serif" font-size="13" lengthAdjust="spacing" textLength="72" x="1056" y="405.0283">userSession</text><text fill="#000000" font-family="sans-serif" font-size="13" lengthAdjust="spacing" textLength="7" x="1112.3421" y="520.6573">1</text></g><!--link VehicleUI to VehicleController--><g id="link_VehicleUI_VehicleController"><path codeLine="80" d="M825.2,59 C837.91,59 848.33,59 848.33,59 C848.33,59 847.01,59 853.93,59 " fill="none" id="VehicleUI-to-VehicleController" style="stroke:#181818;stroke-width:1.0;stroke-dasharray:7.0,7.0;"/><polygon fill="#181818" points="859.93,59,850.93,55,854.93,59,850.93,63,859.93,59" style="stroke:#181818;stroke-width:1.0;"/></g><!--link VehicleController to Repositories--><g id="link_VehicleController_Repositories"><path codeLine="82" d="M876.36,111.03 C851.65,122.64 830.9809,132.3494 806.7709,143.7194 " fill="none" id="VehicleController-to-Repositories" style="stroke:#181818;stroke-width:1.0;stroke-dasharray:7.0,7.0;"/><polygon fill="#181818" points="801.34,146.27,811.1867,146.0647,805.8657,144.1445,807.786,138.8236,801.34,146.27" style="stroke:#181818;stroke-width:1.0;"/><text fill="#000000" font-family="sans-serif" font-size="13" lengthAdjust="spacing" textLength="67" x="770.85" y="124.6783">repositories</text></g><!--link VehicleController to ApplicationSession--><g id="link_VehicleController_ApplicationSession"><path codeLine="83" d="M1012.23,111.3 C1020.77,127.37 1028,141 1028,141 C1028,141 1028,245 1028,245 C1028,245 1025.7709,253.3812 1021.5909,269.1112 " fill="none" id="VehicleController-to-ApplicationSession" style="stroke:#181818;stroke-width:1.0;stroke-dasharray:7.0,7.0;"/><polygon fill="#181818" points="1020.05,274.91,1026.2272,267.2392,1021.3341,270.0777,1018.4956,265.1846,1020.05,274.91" style="stroke:#181818;stroke-width:1.0;"/></g><!--link VehicleController to UserSession--><g id="link_VehicleController_UserSession"><path codeLine="84" d="M1031.7,111.22 C1089.67,174.82 1181,275 1181,275 C1181,275 1181,360 1181,360 C1181,360 1159.8812,467.9515 1148.5812,525.7515 " fill="none" id="VehicleController-to-UserSession" style="stroke:#181818;stroke-width:1.0;stroke-dasharray:7.0,7.0;"/><polygon fill="#181818" points="1147.43,531.64,1153.0825,523.5747,1148.3893,526.7329,1145.2311,522.0397,1147.43,531.64" style="stroke:#181818;stroke-width:1.0;"/></g><!--link VehicleController to VehicleRepository--><g id="link_VehicleController_VehicleRepository"><path codeLine="85" d="M939.4,111.3 C925.11,127.37 913,141 913,141 C913,141 881,245 881,245 C881,245 848.7825,268.9968 820.7125,289.8968 " fill="none" id="VehicleController-to-VehicleRepository" style="stroke:#181818;stroke-width:1.0;stroke-dasharray:7.0,7.0;"/><polygon fill="#181818" points="815.9,293.48,825.5076,291.3135,819.9104,290.494,820.73,284.8968,815.9,293.48" style="stroke:#181818;stroke-width:1.0;"/><text fill="#000000" font-family="sans-serif" font-size="13" lengthAdjust="spacing" textLength="105" x="914" y="198.5283">VehicleRepository</text></g><!--link Vehicle to Employee--><g id="link_Vehicle_Employee"><path codeLine="87" d="M384,692.17 C384,719.62 384,741.46 384,764.93 " fill="none" id="Vehicle-to-Employee" style="stroke:#181818;stroke-width:1.0;"/><polygon fill="#181818" points="384,770.93,388,761.93,384,765.93,380,761.93,384,770.93" style="stroke:#181818;stroke-width:1.0;"/><text fill="#000000" font-family="sans-serif" font-size="13" lengthAdjust="spacing" textLength="59" x="385" y="737.0283">createdBy</text></g><!--link VehicleRepository to Vehicle--><g id="link_VehicleRepository_Vehicle"><path codeLine="89" d="M747.27,341.64 C709.94,364.55 654.824,398.3519 594.054,435.6419 " fill="none" id="VehicleRepository-to-Vehicle" style="stroke:#181818;stroke-width:1.0;"/><polygon fill="#181818" points="588.94,438.78,598.703,437.4822,593.2016,436.165,594.5189,430.6636,588.94,438.78" style="stroke:#181818;stroke-width:1.0;"/><text fill="#000000" font-family="sans-serif" font-size="13" lengthAdjust="spacing" textLength="46" x="668" y="405.0283">vehicles</text><text fill="#000000" font-family="sans-serif" font-size="13" lengthAdjust="spacing" textLength="7" x="730.2202" y="363.6598">1</text><text fill="#000000" font-family="sans-serif" font-size="13" lengthAdjust="spacing" textLength="5" x="596.2762" y="427.5823">*</text></g><!--SRC=[TLHDRzmW4BtpAqQvRD8wKNlTGwGq7zAgwgMhj6SMpzee61p0gTme_xs3ZMtyKP_Cp9l7uyt0phr8NNFBAwYCDgAqfaBmja4sPMekNdY1Hzyg18l2Srse5E1Adfi_KXTmvigb6IKr-hP6g8rgmuBjDfB6UiEIAg6uStVUMtbgF1w4qKVv5-4BOpk5Pm_UW9L5wI6NGOuqch6k1kxgMad1G-Y8peNCEmFwFeFp51PGe3ze-jS2BwzYYcBtZRMeVIoYpCT0-UpGBhce88GVAovLYdsiQcLQHEY1rw1vXV4N0pZ-ryR9JdPSbeQS6Lb-OIc5caYEP0HvUx9Sv_DGPN8SE0_QOu4MQiKzpc71v0NASxi05TOuznk3hmkiwBt1xp_c5HOBwJpQXzM6NBmsiZzYaXpvIXGlJVrayRL1BLeMNOtdlkmEclM7o_hpPDqPiavsbahD4dNPJ56sL96jDkuwjt3z9tRDCROb_p_6x1YMwCR6fC5qcAO1W_qCD45MkwLZ59FtHdjhb2BBtkSMJPdBjoNHe6FmOd3rAegcpOSnVQBRFfjuRJp6gsNEwyqYGpECFaW7vkGvtUD-CCz42Bx43W8ktfg-Ycub5gJl0PsmiXx7dpWiqjZW6-OzWKD5jvfMEVUSeSuXw8hgJiPxmapoffDFyeZ8M7eT70rFImFPPOAkw1OzFSudpBFkNj_2nTUB3VebQhRUWunTPspz2WNuHZGfsgg9If8NY2gQv3rYKUJp0MvkD_h5rfDqiz9jqm7TABZPaluVOFfORYFMrso_OVLGt7amlgfx41PfZF9l4o8X2bvrddqQkqSbiUME_GC0]--></g></svg>