<?xml version="1.0" encoding="us-ascii" standalone="no"?><svg xmlns="http://www.w3.org/2000/svg" xmlns:xlink="http://www.w3.org/1999/xlink" contentStyleType="text/css" height="840px" preserveAspectRatio="none" style="width:2056px;height:840px;background:#FFFFFF;" version="1.1" viewBox="0 0 2056 840" width="2056px" zoomAndPan="magnify"><defs/><g><rect fill="#FFFFFF" height="646.1016" style="stroke:#181818;stroke-width:1.0;" width="10" x="17.5" y="93.6211"/><rect fill="#FFFFFF" height="622.8105" style="stroke:#181818;stroke-width:1.0;" width="10" x="903.5" y="116.9121"/><rect fill="#FFFFFF" height="127.4941" style="stroke:#181818;stroke-width:1.0;" width="10" x="1375.5" y="158.2031"/><rect fill="#FFFFFF" height="248.9883" style="stroke:#181818;stroke-width:1.0;" width="10" x="1375.5" y="459.4434"/><rect fill="#FFFFFF" height="31.291" style="stroke:#181818;stroke-width:1.0;" width="10" x="1523.5" y="191.8242"/><rect fill="#FFFFFF" height="31.291" style="stroke:#181818;stroke-width:1.0;" width="10" x="1667.5" y="254.4063"/><rect fill="#FFFFFF" height="169.1152" style="stroke:#181818;stroke-width:1.0;" width="10" x="1847.5" y="508.0254"/><line style="stroke:#181818;stroke-width:0.5;stroke-dasharray:5.0,5.0;" x1="22" x2="22" y1="83.6211" y2="757.7227"/><line style="stroke:#181818;stroke-width:0.5;stroke-dasharray:5.0,5.0;" x1="908" x2="908" y1="83.6211" y2="757.7227"/><line style="stroke:#181818;stroke-width:0.5;stroke-dasharray:5.0,5.0;" x1="1380" x2="1380" y1="156.7227" y2="757.7227"/><line style="stroke:#181818;stroke-width:0.5;stroke-dasharray:5.0,5.0;" x1="1528" x2="1528" y1="83.6211" y2="757.7227"/><line style="stroke:#181818;stroke-width:0.5;stroke-dasharray:5.0,5.0;" x1="1672" x2="1672" y1="83.6211" y2="757.7227"/><line style="stroke:#181818;stroke-width:0.5;stroke-dasharray:5.0,5.0;" x1="1852.5" x2="1852.5" y1="83.6211" y2="757.7227"/><line style="stroke:#181818;stroke-width:0.5;stroke-dasharray:5.0,5.0;" x1="2018.5" x2="2018.5" y1="557.1465" y2="757.7227"/><text fill="#000000" font-family="sans-serif" font-size="14" lengthAdjust="spacing" textLength="29" x="5" y="80.1074">VFM</text><ellipse cx="22.5" cy="13.5" fill="#E3E3E3" rx="8" ry="8" style="stroke:#181818;stroke-width:0.5;"/><path d="M22.5,21.5 L22.5,48.5 M9.5,29.5 L35.5,29.5 M22.5,48.5 L9.5,63.5 M22.5,48.5 L35.5,63.5 " fill="none" style="stroke:#181818;stroke-width:0.5;"/><text fill="#000000" font-family="sans-serif" font-size="14" lengthAdjust="spacing" textLength="29" x="5" y="771.8301">VFM</text><ellipse cx="22.5" cy="783.8438" fill="#E3E3E3" rx="8" ry="8" style="stroke:#181818;stroke-width:0.5;"/><path d="M22.5,791.8438 L22.5,818.8438 M9.5,799.8438 L35.5,799.8438 M22.5,818.8438 L9.5,833.8438 M22.5,818.8438 L35.5,833.8438 " fill="none" style="stroke:#181818;stroke-width:0.5;"/><rect fill="#E3E3E3" height="32.6211" rx="2.5" ry="2.5" style="stroke:#181818;stroke-width:0.5;" width="129" x="844" y="50"/><text fill="#000000" font-family="sans-serif" font-size="14" lengthAdjust="spacing" textLength="115" x="851" y="72.1074">:RegisterVehicleUI</text><rect fill="#E3E3E3" height="32.6211" rx="2.5" ry="2.5" style="stroke:#181818;stroke-width:0.5;" width="129" x="844" y="756.7227"/><text fill="#000000" font-family="sans-serif" font-size="14" lengthAdjust="spacing" textLength="115" x="851" y="778.8301">:RegisterVehicleUI</text><rect fill="#E3E3E3" height="32.6211" rx="2.5" ry="2.5" style="stroke:#181818;stroke-width:0.5;" width="179" x="1291" y="756.7227"/><text fill="#000000" font-family="sans-serif" font-size="14" lengthAdjust="spacing" textLength="165" x="1298" y="778.8301">:RegisterVehicleController</text><rect fill="#E3E3E3" height="32.6211" rx="2.5" ry="2.5" style="stroke:#181818;stroke-width:0.5;" width="97" x="1480" y="50"/><text fill="#000000" font-family="sans-serif" font-size="14" lengthAdjust="spacing" textLength="83" x="1487" y="72.1074">:Repositories</text><rect fill="#E3E3E3" height="32.6211" rx="2.5" ry="2.5" style="stroke:#181818;stroke-width:0.5;" width="97" x="1480" y="756.7227"/><text fill="#000000" font-family="sans-serif" font-size="14" lengthAdjust="spacing" textLength="83" x="1487" y="778.8301">:Repositories</text><rect fill="#E3E3E3" height="32.6211" rx="2.5" ry="2.5" style="stroke:#181818;stroke-width:0.5;" width="171" x="1587" y="50"/><text fill="#000000" font-family="sans-serif" font-size="14" lengthAdjust="spacing" textLength="157" x="1594" y="72.1074">repositories:Repositories</text><rect fill="#E3E3E3" height="32.6211" rx="2.5" ry="2.5" style="stroke:#181818;stroke-width:0.5;" width="171" x="1587" y="756.7227"/><text fill="#000000" font-family="sans-serif" font-size="14" lengthAdjust="spacing" textLength="157" x="1594" y="778.8301">repositories:Repositories</text><rect fill="#E3E3E3" height="51.2422" rx="2.5" ry="2.5" style="stroke:#181818;stroke-width:0.5;" width="132" x="1786.5" y="31.3789"/><text fill="#000000" font-family="sans-serif" font-size="14" lengthAdjust="spacing" textLength="112" x="1796.5" y="53.4863">vehicleRepository</text><text fill="#000000" font-family="sans-serif" font-size="14" lengthAdjust="spacing" textLength="118" x="1793.5" y="72.1074">:VehicleRepository</text><rect fill="#E3E3E3" height="51.2422" rx="2.5" ry="2.5" style="stroke:#181818;stroke-width:0.5;" width="132" x="1786.5" y="756.7227"/><text fill="#000000" font-family="sans-serif" font-size="14" lengthAdjust="spacing" textLength="112" x="1796.5" y="778.8301">vehicleRepository</text><text fill="#000000" font-family="sans-serif" font-size="14" lengthAdjust="spacing" textLength="118" x="1793.5" y="797.4512">:VehicleRepository</text><rect fill="#E3E3E3" height="51.2422" rx="2.5" ry="2.5" style="stroke:#181818;stroke-width:0.5;" width="64" x="1986.5" y="756.7227"/><text fill="#000000" font-family="sans-serif" font-size="14" lengthAdjust="spacing" textLength="44" x="1996.5" y="778.8301">vehicle</text><text fill="#000000" font-family="sans-serif" font-size="14" lengthAdjust="spacing" textLength="50" x="1993.5" y="797.4512">:Vehicle</text><rect fill="#FFFFFF" height="646.1016" style="stroke:#181818;stroke-width:1.0;" width="10" x="17.5" y="93.6211"/><rect fill="#FFFFFF" height="622.8105" style="stroke:#181818;stroke-width:1.0;" width="10" x="903.5" y="116.9121"/><rect fill="#FFFFFF" height="127.4941" style="stroke:#181818;stroke-width:1.0;" width="10" x="1375.5" y="158.2031"/><rect fill="#FFFFFF" height="248.9883" style="stroke:#181818;stroke-width:1.0;" width="10" x="1375.5" y="459.4434"/><rect fill="#FFFFFF" height="31.291" style="stroke:#181818;stroke-width:1.0;" width="10" x="1523.5" y="191.8242"/><rect fill="#FFFFFF" height="31.291" style="stroke:#181818;stroke-width:1.0;" width="10" x="1667.5" y="254.4063"/><rect fill="#FFFFFF" height="169.1152" style="stroke:#181818;stroke-width:1.0;" width="10" x="1847.5" y="508.0254"/><polygon fill="#181818" points="891.5,112.9121,901.5,116.9121,891.5,120.9121,895.5,116.9121" style="stroke:#181818;stroke-width:1.0;"/><line style="stroke:#181818;stroke-width:1.0;" x1="27.5" x2="897.5" y1="116.9121" y2="116.9121"/><text fill="#000000" font-family="sans-serif" font-size="13" font-weight="bold" lengthAdjust="spacing" textLength="7" x="34.5" y="111.6494">1</text><text fill="#000000" font-family="sans-serif" font-size="13" lengthAdjust="spacing" textLength="148" x="45.5" y="111.6494">asks to register a Vehicle</text><polygon fill="#181818" points="1279,144.2031,1289,148.2031,1279,152.2031,1283,148.2031" style="stroke:#181818;stroke-width:1.0;"/><line style="stroke:#181818;stroke-width:1.0;" x1="913.5" x2="1285" y1="148.2031" y2="148.2031"/><text fill="#000000" font-family="sans-serif" font-size="13" font-weight="bold" lengthAdjust="spacing" textLength="7" x="920.5" y="142.9404">2</text><text fill="#000000" font-family="sans-serif" font-size="13" lengthAdjust="spacing" textLength="36" x="931.5" y="142.9404">create</text><rect fill="#E3E3E3" height="32.6211" rx="2.5" ry="2.5" style="stroke:#181818;stroke-width:0.5;" width="179" x="1291" y="124.9121"/><text fill="#000000" font-family="sans-serif" font-size="14" lengthAdjust="spacing" textLength="165" x="1298" y="147.0195">:RegisterVehicleController</text><polygon fill="#181818" points="1511.5,187.8242,1521.5,191.8242,1511.5,195.8242,1515.5,191.8242" style="stroke:#181818;stroke-width:1.0;"/><line style="stroke:#181818;stroke-width:1.0;" x1="1385.5" x2="1517.5" y1="191.8242" y2="191.8242"/><text fill="#000000" font-family="sans-serif" font-size="13" font-weight="bold" lengthAdjust="spacing" textLength="7" x="1392.5" y="186.5615">3</text><text fill="#000000" font-family="sans-serif" font-size="13" lengthAdjust="spacing" textLength="75" x="1403.5" y="186.5615">getInstance()</text><polygon fill="#181818" points="1396.5,219.1152,1386.5,223.1152,1396.5,227.1152,1392.5,223.1152" style="stroke:#181818;stroke-width:1.0;"/><line style="stroke:#181818;stroke-width:1.0;stroke-dasharray:2.0,2.0;" x1="1390.5" x2="1527.5" y1="223.1152" y2="223.1152"/><text fill="#000000" font-family="sans-serif" font-size="13" font-weight="bold" lengthAdjust="spacing" textLength="7" x="1402.5" y="217.8525">4</text><text fill="#000000" font-family="sans-serif" font-size="13" lengthAdjust="spacing" textLength="67" x="1413.5" y="217.8525">repositories</text><polygon fill="#181818" points="1655.5,250.4063,1665.5,254.4063,1655.5,258.4063,1659.5,254.4063" style="stroke:#181818;stroke-width:1.0;"/><line style="stroke:#181818;stroke-width:1.0;" x1="1385.5" x2="1661.5" y1="254.4063" y2="254.4063"/><text fill="#000000" font-family="sans-serif" font-size="13" font-weight="bold" lengthAdjust="spacing" textLength="7" x="1392.5" y="249.1436">5</text><text fill="#000000" font-family="sans-serif" font-size="13" lengthAdjust="spacing" textLength="131" x="1403.5" y="249.1436">getVehicleRepository()</text><polygon fill="#181818" points="1391.5,281.6973,1381.5,285.6973,1391.5,289.6973,1387.5,285.6973" style="stroke:#181818;stroke-width:1.0;"/><line style="stroke:#181818;stroke-width:1.0;stroke-dasharray:2.0,2.0;" x1="1385.5" x2="1671.5" y1="285.6973" y2="285.6973"/><text fill="#000000" font-family="sans-serif" font-size="13" font-weight="bold" lengthAdjust="spacing" textLength="7" x="1397.5" y="280.4346">6</text><text fill="#000000" font-family="sans-serif" font-size="13" lengthAdjust="spacing" textLength="101" x="1408.5" y="280.4346">vehicleRepository</text><polygon fill="#181818" points="38.5,312.9883,28.5,316.9883,38.5,320.9883,34.5,316.9883" style="stroke:#181818;stroke-width:1.0;"/><line style="stroke:#181818;stroke-width:1.0;stroke-dasharray:2.0,2.0;" x1="32.5" x2="902.5" y1="316.9883" y2="316.9883"/><text fill="#000000" font-family="sans-serif" font-size="13" font-weight="bold" lengthAdjust="spacing" textLength="7" x="44.5" y="311.7256">7</text><text fill="#000000" font-family="sans-serif" font-size="13" lengthAdjust="spacing" textLength="805" x="55.5" y="311.7256">requests data brand, model, type, tare, gross weight, current km, register date, acquisition date, maintenance/check-up frequency (in kms))</text><polygon fill="#181818" points="891.5,344.2793,901.5,348.2793,891.5,352.2793,895.5,348.2793" style="stroke:#181818;stroke-width:1.0;"/><line style="stroke:#181818;stroke-width:1.0;" x1="27.5" x2="897.5" y1="348.2793" y2="348.2793"/><text fill="#000000" font-family="sans-serif" font-size="13" font-weight="bold" lengthAdjust="spacing" textLength="7" x="34.5" y="343.0166">8</text><text fill="#000000" font-family="sans-serif" font-size="13" lengthAdjust="spacing" textLength="841" x="45.5" y="343.0166">types requests data(brand, model, type, tare, gross weight, current km, register date, acquisition date, maintenance/check-up frequency (in kms))</text><polygon fill="#181818" points="38.5,375.5703,28.5,379.5703,38.5,383.5703,34.5,379.5703" style="stroke:#181818;stroke-width:1.0;"/><line style="stroke:#181818;stroke-width:1.0;stroke-dasharray:2.0,2.0;" x1="32.5" x2="902.5" y1="379.5703" y2="379.5703"/><text fill="#000000" font-family="sans-serif" font-size="13" font-weight="bold" lengthAdjust="spacing" textLength="7" x="44.5" y="374.3076">9</text><text fill="#000000" font-family="sans-serif" font-size="13" lengthAdjust="spacing" textLength="236" x="55.5" y="374.3076">shows all data and requests confirmation</text><polygon fill="#181818" points="891.5,406.8613,901.5,410.8613,891.5,414.8613,895.5,410.8613" style="stroke:#181818;stroke-width:1.0;"/><line style="stroke:#181818;stroke-width:1.0;" x1="27.5" x2="897.5" y1="410.8613" y2="410.8613"/><text fill="#000000" font-family="sans-serif" font-size="13" font-weight="bold" lengthAdjust="spacing" textLength="14" x="34.5" y="405.5986">10</text><text fill="#000000" font-family="sans-serif" font-size="13" lengthAdjust="spacing" textLength="78" x="52.5" y="405.5986">confirms data</text><polygon fill="#181818" points="1363.5,455.4434,1373.5,459.4434,1363.5,463.4434,1367.5,459.4434" style="stroke:#181818;stroke-width:1.0;"/><line style="stroke:#181818;stroke-width:1.0;" x1="913.5" x2="1369.5" y1="459.4434" y2="459.4434"/><text fill="#000000" font-family="sans-serif" font-size="13" font-weight="bold" lengthAdjust="spacing" textLength="14" x="920.5" y="445.5352">11</text><text fill="#000000" font-family="sans-serif" font-size="13" lengthAdjust="spacing" textLength="383" x="938.5" y="436.8896">registerVehicle(brand, model, type, tare, gross weight, current km,</text><text fill="#000000" font-family="sans-serif" font-size="13" lengthAdjust="spacing" textLength="425" x="938.5" y="454.1807">register date, acquisition date, maintenance/check-up frequency (in kms))</text><polygon fill="#181818" points="1835.5,504.0254,1845.5,508.0254,1835.5,512.0254,1839.5,508.0254" style="stroke:#181818;stroke-width:1.0;"/><line style="stroke:#181818;stroke-width:1.0;" x1="1385.5" x2="1841.5" y1="508.0254" y2="508.0254"/><text fill="#000000" font-family="sans-serif" font-size="13" font-weight="bold" lengthAdjust="spacing" textLength="14" x="1392.5" y="494.1172">12</text><text fill="#000000" font-family="sans-serif" font-size="13" lengthAdjust="spacing" textLength="383" x="1410.5" y="485.4717">registerVehicle(brand, model, type, tare, gross weight, current km,</text><text fill="#000000" font-family="sans-serif" font-size="13" lengthAdjust="spacing" textLength="425" x="1410.5" y="502.7627">register date, acquisition date, maintenance/check-up frequency (in kms))</text><polygon fill="#181818" points="1974.5,535.3164,1984.5,539.3164,1974.5,543.3164,1978.5,539.3164" style="stroke:#181818;stroke-width:1.0;"/><line style="stroke:#181818;stroke-width:1.0;" x1="1857.5" x2="1980.5" y1="539.3164" y2="539.3164"/><text fill="#000000" font-family="sans-serif" font-size="13" font-weight="bold" lengthAdjust="spacing" textLength="14" x="1864.5" y="534.0537">13</text><text fill="#000000" font-family="sans-serif" font-size="13" lengthAdjust="spacing" textLength="87" x="1882.5" y="534.0537">createVehicle()</text><rect fill="#E3E3E3" height="51.2422" rx="2.5" ry="2.5" style="stroke:#181818;stroke-width:0.5;" width="64" x="1986.5" y="516.0254"/><text fill="#000000" font-family="sans-serif" font-size="14" lengthAdjust="spacing" textLength="44" x="1996.5" y="538.1328">vehicle</text><text fill="#000000" font-family="sans-serif" font-size="14" lengthAdjust="spacing" textLength="50" x="1993.5" y="556.7539">:Vehicle</text><line style="stroke:#181818;stroke-width:1.0;" x1="1857.5" x2="1899.5" y1="601.5586" y2="601.5586"/><line style="stroke:#181818;stroke-width:1.0;" x1="1899.5" x2="1899.5" y1="601.5586" y2="614.5586"/><line style="stroke:#181818;stroke-width:1.0;" x1="1858.5" x2="1899.5" y1="614.5586" y2="614.5586"/><polygon fill="#181818" points="1868.5,610.5586,1858.5,614.5586,1868.5,618.5586,1864.5,614.5586" style="stroke:#181818;stroke-width:1.0;"/><text fill="#000000" font-family="sans-serif" font-size="13" font-weight="bold" lengthAdjust="spacing" textLength="14" x="1864.5" y="596.2959">14</text><text fill="#000000" font-family="sans-serif" font-size="13" lengthAdjust="spacing" textLength="111" x="1882.5" y="596.2959">addVehicle(vehicle)</text><polygon fill="#181818" points="1539.5,641.8496,1529.5,645.8496,1539.5,649.8496,1535.5,645.8496" style="stroke:#181818;stroke-width:1.0;"/><line style="stroke:#181818;stroke-width:1.0;stroke-dasharray:2.0,2.0;" x1="1533.5" x2="1846.5" y1="645.8496" y2="645.8496"/><text fill="#000000" font-family="sans-serif" font-size="13" font-weight="bold" lengthAdjust="spacing" textLength="14" x="1545.5" y="640.5869">15</text><text fill="#000000" font-family="sans-serif" font-size="13" lengthAdjust="spacing" textLength="73" x="1563.5" y="640.5869">true / vehicle</text><polygon fill="#181818" points="1396.5,673.1406,1386.5,677.1406,1396.5,681.1406,1392.5,677.1406" style="stroke:#181818;stroke-width:1.0;"/><line style="stroke:#181818;stroke-width:1.0;stroke-dasharray:2.0,2.0;" x1="1390.5" x2="1527.5" y1="677.1406" y2="677.1406"/><text fill="#000000" font-family="sans-serif" font-size="13" font-weight="bold" lengthAdjust="spacing" textLength="14" x="1402.5" y="671.8779">16</text><text fill="#000000" font-family="sans-serif" font-size="13" lengthAdjust="spacing" textLength="73" x="1420.5" y="671.8779">true / vehicle</text><polygon fill="#181818" points="924.5,704.4316,914.5,708.4316,924.5,712.4316,920.5,708.4316" style="stroke:#181818;stroke-width:1.0;"/><line style="stroke:#181818;stroke-width:1.0;stroke-dasharray:2.0,2.0;" x1="918.5" x2="1379.5" y1="708.4316" y2="708.4316"/><text fill="#000000" font-family="sans-serif" font-size="13" font-weight="bold" lengthAdjust="spacing" textLength="14" x="930.5" y="703.1689">17</text><text fill="#000000" font-family="sans-serif" font-size="13" lengthAdjust="spacing" textLength="73" x="948.5" y="703.1689">true / vehicle</text><polygon fill="#181818" points="33.5,735.7227,23.5,739.7227,33.5,743.7227,29.5,739.7227" style="stroke:#181818;stroke-width:1.0;"/><line style="stroke:#181818;stroke-width:1.0;stroke-dasharray:2.0,2.0;" x1="27.5" x2="907.5" y1="739.7227" y2="739.7227"/><text fill="#000000" font-family="sans-serif" font-size="13" font-weight="bold" lengthAdjust="spacing" textLength="14" x="39.5" y="734.46">18</text><text fill="#000000" font-family="sans-serif" font-size="13" lengthAdjust="spacing" textLength="158" x="57.5" y="734.46">displays operation success</text><!--SRC=[pLKxZzim3DxzAuWiJO84jsVeSa210EroxMMwXP4PMx0j-KJvqlpxKd8UVkG173fS1iUWle-FZnJDXJOrEgoWiiQgtDcAmBk64ZwVrAWApEYtFvG4ZfH7avLT0EUOshqs6UomP4eIRBmrJRKbboJVSfqIxAprM_itGUMjWydcnwy988Fy9-B3QwLhD1ucgnVAD7jo6ygrAkbr7N6lw_kmPskyisL9BiAV_xpy715gorg2Q-A8wHhwMDSvkSxhup_Q7Cx8mvjPROQsjjoXzQgZ2xrBIe9s-WCzHTKIa9-ymFAxg0ChGHOCtag3McK0pym0FPD5ocWGab23KlEvq9KZEUr3eupH5Du2lAk6a3BoQyCo3ugcipwt9syywd6NnzWhwAeTSIdTST9Df4rWfEcrJ2uPd2CBUzIuQ_6JeV6YIf1Gl8KkX3hU6sBFaA97s3eqwK8kLKhb0loX9dcYasVcB3FiIMUvNu1gd2FfVL4jBfqJ3m94zTveoKjRSxHKg8qd4-H-KZcfOjdKi8k1ZJh0L1lnmxFPU3X20jnFSVe5Kkm9oBdTCs1PjWfASfU4bJKxxIeCaSRL7K_RkeRJ7LlJMnQVglpD_B_Q7rooqKH_yGh6MwtjqD3SgMq-FssSKqMpXvok7fYc9-Bn4j_aZxTM-Bp1q-ds9tUsqnWys0KtIcyx6SVpaOSRsoJLN9TuOB0rkJZsm8rInACT6VPvDoFvDlm3]--></g></svg>