<?xml version="1.0" encoding="us-ascii" standalone="no"?><svg xmlns="http://www.w3.org/2000/svg" xmlns:xlink="http://www.w3.org/1999/xlink" contentStyleType="text/css" height="414px" preserveAspectRatio="none" style="width:987px;height:414px;background:#FFFFFF;" version="1.1" viewBox="0 0 987 414" width="987px" zoomAndPan="magnify"><defs/><g><rect fill="#FFFFFF" height="293.3281" style="stroke:#181818;stroke-width:1.0;" width="10" x="233" y="67.4297"/><rect fill="#FFFFFF" height="29.1328" style="stroke:#181818;stroke-width:1.0;" width="10" x="376.5" y="120.6953"/><rect fill="#FFFFFF" height="29.1328" style="stroke:#181818;stroke-width:1.0;" width="10" x="531" y="178.9609"/><rect fill="#FFFFFF" height="29.1328" style="stroke:#181818;stroke-width:1.0;" width="10" x="531" y="237.2266"/><rect fill="#FFFFFF" height="29.1328" style="stroke:#181818;stroke-width:1.0;" width="10" x="800.5" y="295.4922"/><rect fill="none" height="250.1953" style="stroke:#000000;stroke-width:1.5;" width="836" x="145" y="82.4297"/><line style="stroke:#181818;stroke-width:0.5;stroke-dasharray:5.0,5.0;" x1="238" x2="238" y1="36.2969" y2="378.7578"/><line style="stroke:#181818;stroke-width:0.5;stroke-dasharray:5.0,5.0;" x1="381" x2="381" y1="36.2969" y2="378.7578"/><line style="stroke:#181818;stroke-width:0.5;stroke-dasharray:5.0,5.0;" x1="536" x2="536" y1="36.2969" y2="378.7578"/><line style="stroke:#181818;stroke-width:0.5;stroke-dasharray:5.0,5.0;" x1="805" x2="805" y1="36.2969" y2="378.7578"/><rect fill="#E3E3E3" height="30.2969" rx="2.5" ry="2.5" style="stroke:#181818;stroke-width:0.5;" width="166" x="155" y="5"/><text fill="#000000" font-family="sans-serif" font-size="14" lengthAdjust="spacing" textLength="152" x="162" y="24.9951">:AssignSkillsController</text><rect fill="#E3E3E3" height="30.2969" rx="2.5" ry="2.5" style="stroke:#181818;stroke-width:0.5;" width="166" x="155" y="377.7578"/><text fill="#000000" font-family="sans-serif" font-size="14" lengthAdjust="spacing" textLength="152" x="162" y="397.7529">:AssignSkillsController</text><rect fill="#E3E3E3" height="30.2969" rx="2.5" ry="2.5" style="stroke:#181818;stroke-width:0.5;" width="101" x="331" y="5"/><text fill="#000000" font-family="sans-serif" font-size="14" lengthAdjust="spacing" textLength="87" x="338" y="24.9951">Repositories</text><rect fill="#E3E3E3" height="30.2969" rx="2.5" ry="2.5" style="stroke:#181818;stroke-width:0.5;" width="101" x="331" y="377.7578"/><text fill="#000000" font-family="sans-serif" font-size="14" lengthAdjust="spacing" textLength="87" x="338" y="397.7529">Repositories</text><rect fill="#E3E3E3" height="30.2969" rx="2.5" ry="2.5" style="stroke:#181818;stroke-width:0.5;" width="188" x="442" y="5"/><text fill="#000000" font-family="sans-serif" font-size="14" lengthAdjust="spacing" textLength="174" x="449" y="24.9951">repositories:Repositories</text><rect fill="#E3E3E3" height="30.2969" rx="2.5" ry="2.5" style="stroke:#181818;stroke-width:0.5;" width="188" x="442" y="377.7578"/><text fill="#000000" font-family="sans-serif" font-size="14" lengthAdjust="spacing" textLength="174" x="449" y="397.7529">repositories:Repositories</text><rect fill="#E3E3E3" height="30.2969" rx="2.5" ry="2.5" style="stroke:#181818;stroke-width:0.5;" width="331" x="640" y="5"/><text fill="#000000" font-family="sans-serif" font-size="14" lengthAdjust="spacing" textLength="317" x="647" y="24.9951">collaboratorRepository:CollaboratorRepository</text><rect fill="#E3E3E3" height="30.2969" rx="2.5" ry="2.5" style="stroke:#181818;stroke-width:0.5;" width="331" x="640" y="377.7578"/><text fill="#000000" font-family="sans-serif" font-size="14" lengthAdjust="spacing" textLength="317" x="647" y="397.7529">collaboratorRepository:CollaboratorRepository</text><rect fill="#FFFFFF" height="293.3281" style="stroke:#181818;stroke-width:1.0;" width="10" x="233" y="67.4297"/><rect fill="#FFFFFF" height="29.1328" style="stroke:#181818;stroke-width:1.0;" width="10" x="376.5" y="120.6953"/><rect fill="#FFFFFF" height="29.1328" style="stroke:#181818;stroke-width:1.0;" width="10" x="531" y="178.9609"/><rect fill="#FFFFFF" height="29.1328" style="stroke:#181818;stroke-width:1.0;" width="10" x="531" y="237.2266"/><rect fill="#FFFFFF" height="29.1328" style="stroke:#181818;stroke-width:1.0;" width="10" x="800.5" y="295.4922"/><polygon fill="#181818" points="221,63.4297,231,67.4297,221,71.4297,225,67.4297" style="stroke:#181818;stroke-width:1.0;"/><line style="stroke:#181818;stroke-width:1.0;" x1="0" x2="227" y1="67.4297" y2="67.4297"/><text fill="#000000" font-family="sans-serif" font-size="13" font-weight="bold" lengthAdjust="spacing" textLength="9" x="7" y="62.3638">3</text><text fill="#000000" font-family="sans-serif" font-size="13" lengthAdjust="spacing" textLength="201" x="20" y="62.3638">getDataNeededToAssignSkills()</text><path d="M145,82.4297 L343,82.4297 L343,89.5625 L333,99.5625 L145,99.5625 L145,82.4297 " fill="#EEEEEE" style="stroke:#000000;stroke-width:1.5;"/><rect fill="none" height="250.1953" style="stroke:#000000;stroke-width:1.5;" width="836" x="145" y="82.4297"/><text fill="#000000" font-family="sans-serif" font-size="13" font-weight="bold" lengthAdjust="spacing" textLength="153" x="160" y="95.4966">Get Collaborator List</text><polygon fill="#181818" points="364.5,116.6953,374.5,120.6953,364.5,124.6953,368.5,120.6953" style="stroke:#181818;stroke-width:1.0;"/><line style="stroke:#181818;stroke-width:1.0;" x1="243" x2="370.5" y1="120.6953" y2="120.6953"/><text fill="#000000" font-family="sans-serif" font-size="13" font-weight="bold" lengthAdjust="spacing" textLength="23" x="250" y="115.6294">3.1</text><text fill="#000000" font-family="sans-serif" font-size="13" lengthAdjust="spacing" textLength="85" x="277" y="115.6294">getInstance()</text><polygon fill="#181818" points="254,145.8281,244,149.8281,254,153.8281,250,149.8281" style="stroke:#181818;stroke-width:1.0;"/><line style="stroke:#181818;stroke-width:1.0;stroke-dasharray:2.0,2.0;" x1="248" x2="380.5" y1="149.8281" y2="149.8281"/><text fill="#000000" font-family="sans-serif" font-size="13" font-weight="bold" lengthAdjust="spacing" textLength="23" x="260" y="144.7622">3.2</text><text fill="#000000" font-family="sans-serif" font-size="13" lengthAdjust="spacing" textLength="75" x="287" y="144.7622">repositories</text><polygon fill="#181818" points="519,174.9609,529,178.9609,519,182.9609,523,178.9609" style="stroke:#181818;stroke-width:1.0;"/><line style="stroke:#181818;stroke-width:1.0;" x1="243" x2="525" y1="178.9609" y2="178.9609"/><text fill="#000000" font-family="sans-serif" font-size="13" font-weight="bold" lengthAdjust="spacing" textLength="23" x="250" y="173.895">3.3</text><text fill="#000000" font-family="sans-serif" font-size="13" lengthAdjust="spacing" textLength="123" x="277" y="173.895">getSkillRepository()</text><polygon fill="#181818" points="254,204.0938,244,208.0938,254,212.0938,250,208.0938" style="stroke:#181818;stroke-width:1.0;"/><line style="stroke:#181818;stroke-width:1.0;stroke-dasharray:2.0,2.0;" x1="248" x2="535" y1="208.0938" y2="208.0938"/><text fill="#000000" font-family="sans-serif" font-size="13" font-weight="bold" lengthAdjust="spacing" textLength="23" x="260" y="203.0278">3.4</text><text fill="#000000" font-family="sans-serif" font-size="13" lengthAdjust="spacing" textLength="90" x="287" y="203.0278">skillRepository</text><polygon fill="#181818" points="519,233.2266,529,237.2266,519,241.2266,523,237.2266" style="stroke:#181818;stroke-width:1.0;"/><line style="stroke:#181818;stroke-width:1.0;" x1="243" x2="525" y1="237.2266" y2="237.2266"/><text fill="#000000" font-family="sans-serif" font-size="13" font-weight="bold" lengthAdjust="spacing" textLength="23" x="250" y="232.1606">3.5</text><text fill="#000000" font-family="sans-serif" font-size="13" lengthAdjust="spacing" textLength="176" x="277" y="232.1606">getCollaboratorRepository()</text><polygon fill="#181818" points="254,262.3594,244,266.3594,254,270.3594,250,266.3594" style="stroke:#181818;stroke-width:1.0;"/><line style="stroke:#181818;stroke-width:1.0;stroke-dasharray:2.0,2.0;" x1="248" x2="535" y1="266.3594" y2="266.3594"/><text fill="#000000" font-family="sans-serif" font-size="13" font-weight="bold" lengthAdjust="spacing" textLength="23" x="260" y="261.2935">3.6</text><text fill="#000000" font-family="sans-serif" font-size="13" lengthAdjust="spacing" textLength="143" x="287" y="261.2935">collaboratorRepository</text><polygon fill="#181818" points="788.5,291.4922,798.5,295.4922,788.5,299.4922,792.5,295.4922" style="stroke:#181818;stroke-width:1.0;"/><line style="stroke:#181818;stroke-width:1.0;" x1="243" x2="794.5" y1="295.4922" y2="295.4922"/><text fill="#000000" font-family="sans-serif" font-size="13" font-weight="bold" lengthAdjust="spacing" textLength="23" x="250" y="290.4263">3.7</text><text fill="#000000" font-family="sans-serif" font-size="13" lengthAdjust="spacing" textLength="131" x="277" y="290.4263">getCollaboratorList()</text><polygon fill="#181818" points="254,320.625,244,324.625,254,328.625,250,324.625" style="stroke:#181818;stroke-width:1.0;"/><line style="stroke:#181818;stroke-width:1.0;stroke-dasharray:2.0,2.0;" x1="248" x2="804.5" y1="324.625" y2="324.625"/><text fill="#000000" font-family="sans-serif" font-size="13" font-weight="bold" lengthAdjust="spacing" textLength="23" x="260" y="319.5591">3.8</text><text fill="#000000" font-family="sans-serif" font-size="13" lengthAdjust="spacing" textLength="98" x="287" y="319.5591">collaboratorList</text><polygon fill="#181818" points="11,356.7578,1,360.7578,11,364.7578,7,360.7578" style="stroke:#181818;stroke-width:1.0;"/><line style="stroke:#181818;stroke-width:1.0;stroke-dasharray:2.0,2.0;" x1="5" x2="237" y1="360.7578" y2="360.7578"/><text fill="#000000" font-family="sans-serif" font-size="13" font-weight="bold" lengthAdjust="spacing" textLength="9" x="17" y="355.6919">4</text><text fill="#000000" font-family="sans-serif" font-size="13" lengthAdjust="spacing" textLength="98" x="30" y="355.6919">collaboratorList</text><!--SRC=[fLBDIiGm4BxFKuIzg8SAegSYWgmYWdXmVO7PTEo6RPEIfCg-lMcwsvraouBOMoVVNoQVsohTeSLMj4ORkR6c9U5jJ-2camxb5cjQ-Lr3mfBqgEk60zm6A_EZT2s-i744WBqtkc_NP04WOBoIgaFjnQ9yT4xLUhLLJUEMHdjhceRiGg0Jnz-Cz46TSSeRgyX5P1oa6CimvGaXdiwmPB33jR4Oi1DfLovdnr7fkUs62Lo8HCWD5s8Ag_G_KgSPv6mU8p7Vx-Ku0BvSSGjGFB2zYLBKv9_GupjHHTMduUk-l4gurpU0qgjlz9IilhQcxyGB-SHOl2ddGOIFsGNpUCVHzrMxK0r9mMV0JUBZtkDiH1TvQFvu4LVH73jrFhxfQ9-jF4_1AX0F6FqaJ_QQUQHSwdok-JBz9zvyQ_-MSj_ZquZ3E-VX3gMFqmFpRAofBIpGGOLqbRJu3k2-ABZMd1WJOctz1G00]--></g></svg>