<?xml version="1.0" encoding="us-ascii" standalone="no"?><svg xmlns="http://www.w3.org/2000/svg" xmlns:xlink="http://www.w3.org/1999/xlink" contentStyleType="text/css" height="297px" preserveAspectRatio="none" style="width:1029px;height:297px;background:#FFFFFF;" version="1.1" viewBox="0 0 1029 297" width="1029px" zoomAndPan="magnify"><defs/><g><rect fill="#FFFFFF" height="176.7969" style="stroke:#181818;stroke-width:1.0;" width="10" x="270" y="67.4297"/><rect fill="#FFFFFF" height="87.3984" style="stroke:#181818;stroke-width:1.0;" width="10" x="650" y="120.6953"/><rect fill="#FFFFFF" height="29.1328" style="stroke:#181818;stroke-width:1.0;" width="10" x="917" y="149.8281"/><rect fill="none" height="133.6641" style="stroke:#000000;stroke-width:1.5;" width="841.5" x="182" y="82.4297"/><line style="stroke:#181818;stroke-width:0.5;stroke-dasharray:5.0,5.0;" x1="275" x2="275" y1="36.2969" y2="262.2266"/><line style="stroke:#181818;stroke-width:0.5;stroke-dasharray:5.0,5.0;" x1="654.5" x2="654.5" y1="36.2969" y2="262.2266"/><line style="stroke:#181818;stroke-width:0.5;stroke-dasharray:5.0,5.0;" x1="921.5" x2="921.5" y1="36.2969" y2="262.2266"/><rect fill="#E3E3E3" height="30.2969" rx="2.5" ry="2.5" style="stroke:#181818;stroke-width:0.5;" width="166" x="192" y="5"/><text fill="#000000" font-family="sans-serif" font-size="14" lengthAdjust="spacing" textLength="152" x="199" y="24.9951">:AssignSkillsController</text><rect fill="#E3E3E3" height="30.2969" rx="2.5" ry="2.5" style="stroke:#181818;stroke-width:0.5;" width="166" x="192" y="261.2266"/><text fill="#000000" font-family="sans-serif" font-size="14" lengthAdjust="spacing" textLength="152" x="199" y="281.2217">:AssignSkillsController</text><rect fill="#E3E3E3" height="30.2969" rx="2.5" ry="2.5" style="stroke:#181818;stroke-width:0.5;" width="331" x="489.5" y="5"/><text fill="#000000" font-family="sans-serif" font-size="14" lengthAdjust="spacing" textLength="317" x="496.5" y="24.9951">collaboratorRepository:CollaboratorRepository</text><rect fill="#E3E3E3" height="30.2969" rx="2.5" ry="2.5" style="stroke:#181818;stroke-width:0.5;" width="331" x="489.5" y="261.2266"/><text fill="#000000" font-family="sans-serif" font-size="14" lengthAdjust="spacing" textLength="317" x="496.5" y="281.2217">collaboratorRepository:CollaboratorRepository</text><rect fill="#E3E3E3" height="30.2969" rx="2.5" ry="2.5" style="stroke:#181818;stroke-width:0.5;" width="183" x="830.5" y="5"/><text fill="#000000" font-family="sans-serif" font-size="14" lengthAdjust="spacing" textLength="169" x="837.5" y="24.9951">collaborator:Collaborator</text><rect fill="#E3E3E3" height="30.2969" rx="2.5" ry="2.5" style="stroke:#181818;stroke-width:0.5;" width="183" x="830.5" y="261.2266"/><text fill="#000000" font-family="sans-serif" font-size="14" lengthAdjust="spacing" textLength="169" x="837.5" y="281.2217">collaborator:Collaborator</text><rect fill="#FFFFFF" height="176.7969" style="stroke:#181818;stroke-width:1.0;" width="10" x="270" y="67.4297"/><rect fill="#FFFFFF" height="87.3984" style="stroke:#181818;stroke-width:1.0;" width="10" x="650" y="120.6953"/><rect fill="#FFFFFF" height="29.1328" style="stroke:#181818;stroke-width:1.0;" width="10" x="917" y="149.8281"/><polygon fill="#181818" points="258,63.4297,268,67.4297,258,71.4297,262,67.4297" style="stroke:#181818;stroke-width:1.0;"/><line style="stroke:#181818;stroke-width:1.0;" x1="0" x2="264" y1="67.4297" y2="67.4297"/><text fill="#000000" font-family="sans-serif" font-size="13" font-weight="bold" lengthAdjust="spacing" textLength="18" x="7" y="62.3638">11</text><text fill="#000000" font-family="sans-serif" font-size="13" lengthAdjust="spacing" textLength="229" x="29" y="62.3638">assignSkills(collaborator, skillName)</text><path d="M182,82.4297 L311,82.4297 L311,89.5625 L301,99.5625 L182,99.5625 L182,82.4297 " fill="#EEEEEE" style="stroke:#000000;stroke-width:1.5;"/><rect fill="none" height="133.6641" style="stroke:#000000;stroke-width:1.5;" width="841.5" x="182" y="82.4297"/><text fill="#000000" font-family="sans-serif" font-size="13" font-weight="bold" lengthAdjust="spacing" textLength="84" x="197" y="95.4966">Assign Skill</text><polygon fill="#181818" points="638,116.6953,648,120.6953,638,124.6953,642,120.6953" style="stroke:#181818;stroke-width:1.0;"/><line style="stroke:#181818;stroke-width:1.0;" x1="280" x2="644" y1="120.6953" y2="120.6953"/><text fill="#000000" font-family="sans-serif" font-size="13" font-weight="bold" lengthAdjust="spacing" textLength="32" x="287" y="115.6294">11.1</text><text fill="#000000" font-family="sans-serif" font-size="13" lengthAdjust="spacing" textLength="315" x="323" y="115.6294">assignSkillToCollaborator(collaborator, skillName)</text><polygon fill="#181818" points="905,145.8281,915,149.8281,905,153.8281,909,149.8281" style="stroke:#181818;stroke-width:1.0;"/><line style="stroke:#181818;stroke-width:1.0;" x1="660" x2="911" y1="149.8281" y2="149.8281"/><text fill="#000000" font-family="sans-serif" font-size="13" font-weight="bold" lengthAdjust="spacing" textLength="32" x="667" y="144.7622">11.2</text><text fill="#000000" font-family="sans-serif" font-size="13" lengthAdjust="spacing" textLength="138" x="703" y="144.7622">assignSkill(skillName)</text><polygon fill="#181818" points="671,174.9609,661,178.9609,671,182.9609,667,178.9609" style="stroke:#181818;stroke-width:1.0;"/><line style="stroke:#181818;stroke-width:1.0;stroke-dasharray:2.0,2.0;" x1="665" x2="921" y1="178.9609" y2="178.9609"/><text fill="#000000" font-family="sans-serif" font-size="13" font-weight="bold" lengthAdjust="spacing" textLength="32" x="677" y="173.895">11.3</text><text fill="#000000" font-family="sans-serif" font-size="13" lengthAdjust="spacing" textLength="26" x="713" y="173.895">true</text><polygon fill="#181818" points="291,204.0938,281,208.0938,291,212.0938,287,208.0938" style="stroke:#181818;stroke-width:1.0;"/><line style="stroke:#181818;stroke-width:1.0;stroke-dasharray:2.0,2.0;" x1="285" x2="654" y1="208.0938" y2="208.0938"/><text fill="#000000" font-family="sans-serif" font-size="13" font-weight="bold" lengthAdjust="spacing" textLength="32" x="297" y="203.0278">11.4</text><text fill="#000000" font-family="sans-serif" font-size="13" lengthAdjust="spacing" textLength="26" x="333" y="203.0278">true</text><polygon fill="#181818" points="11,240.2266,1,244.2266,11,248.2266,7,244.2266" style="stroke:#181818;stroke-width:1.0;"/><line style="stroke:#181818;stroke-width:1.0;stroke-dasharray:2.0,2.0;" x1="5" x2="274" y1="244.2266" y2="244.2266"/><text fill="#000000" font-family="sans-serif" font-size="13" font-weight="bold" lengthAdjust="spacing" textLength="18" x="17" y="239.1606">12</text><text fill="#000000" font-family="sans-serif" font-size="13" lengthAdjust="spacing" textLength="26" x="39" y="239.1606">true</text><!--SRC=[TLBDJiCm3BxxAQnTDYIAD8uLGa8JLmwC5_0wqqLBaof9GNjxqdHjux7s5kVxo-Vwip8jEMgmiSPM9sSRnk0w1Z_Tj5ITgUPzk6X6nrKWK-iSu4zqjB_ArFXDsZC0TS6QhZcm0uYGe2hLaWcuAj-yLxNPdvNMVcTDS5PhTYiaZ_CHO8s2zicjzIfOfzWdR1hSebo6AlzHqkt04wmgMjB1EehOYNGfTtV7IUczQVi9h8MExz-K2UpbEJ6d6G0kXX3MrsRcGLukRhS0nMlM79OHFpUyoNKVCKNye8OVfCZJ5gWAweS2YotKpdOj3YiRiiVSySlyelkr3cdzPVFGopbwkSbxB7Pm6NNJ0sUwzDaiQSdEXjIPI262fn- -nnnvGK0ckkty7dy40vkZNDepm4jHv0gZXB2Vzl07]--></g></svg>