<?xml version="1.0" encoding="us-ascii" standalone="no"?><svg xmlns="http://www.w3.org/2000/svg" xmlns:xlink="http://www.w3.org/1999/xlink" contentStyleType="text/css" height="887px" preserveAspectRatio="none" style="width:1172px;height:887px;background:#FFFFFF;" version="1.1" viewBox="0 0 1172 887" width="1172px" zoomAndPan="magnify"><defs/><g><!--class SkillRepository--><g id="elem_SkillRepository"><rect codeLine="12" fill="#F1F1F1" height="80.5938" id="SkillRepository" rx="2.5" ry="2.5" style="stroke:#181818;stroke-width:0.5;" width="192" x="7" y="547"/><ellipse cx="49" cy="563" fill="#ADD1B2" rx="11" ry="11" style="stroke:#181818;stroke-width:1.0;"/><path d="M51.9688,568.6406 Q51.3906,568.9375 50.75,569.0781 Q50.1094,569.2344 49.4063,569.2344 Q46.9063,569.2344 45.5781,567.5938 Q44.2656,565.9375 44.2656,562.8125 Q44.2656,559.6875 45.5781,558.0313 Q46.9063,556.375 49.4063,556.375 Q50.1094,556.375 50.75,556.5313 Q51.4063,556.6875 51.9688,556.9844 L51.9688,559.7031 Q51.3438,559.125 50.75,558.8594 Q50.1563,558.5781 49.5313,558.5781 Q48.1875,558.5781 47.5,559.6563 Q46.8125,560.7188 46.8125,562.8125 Q46.8125,564.9063 47.5,565.9844 Q48.1875,567.0469 49.5313,567.0469 Q50.1563,567.0469 50.75,566.7813 Q51.3438,566.5 51.9688,565.9219 L51.9688,568.6406 Z " fill="#000000"/><text fill="#000000" font-family="sans-serif" font-size="14" lengthAdjust="spacing" textLength="100" x="69" y="567.8467">SkillRepository</text><line style="stroke:#181818;stroke-width:0.5;" x1="8" x2="198" y1="579" y2="579"/><text fill="#000000" font-family="sans-serif" font-size="14" lengthAdjust="spacing" textLength="139" x="13" y="595.9951">-skillList : List&lt;Skill&gt;</text><line style="stroke:#181818;stroke-width:0.5;" x1="8" x2="198" y1="603.2969" y2="603.2969"/><text fill="#000000" font-family="sans-serif" font-size="14" lengthAdjust="spacing" textLength="180" x="13" y="620.292">+getAllSkills() : List&lt;Skill&gt;</text></g><!--class AssignSkillsUI--><g id="elem_AssignSkillsUI"><rect codeLine="17" fill="#F1F1F1" height="48" id="AssignSkillsUI" rx="2.5" ry="2.5" style="stroke:#181818;stroke-width:0.5;" width="125" x="296.5" y="7"/><ellipse cx="311.5" cy="23" fill="#ADD1B2" rx="11" ry="11" style="stroke:#181818;stroke-width:1.0;"/><path d="M314.4688,28.6406 Q313.8906,28.9375 313.25,29.0781 Q312.6094,29.2344 311.9063,29.2344 Q309.4063,29.2344 308.0781,27.5938 Q306.7656,25.9375 306.7656,22.8125 Q306.7656,19.6875 308.0781,18.0313 Q309.4063,16.375 311.9063,16.375 Q312.6094,16.375 313.25,16.5313 Q313.9063,16.6875 314.4688,16.9844 L314.4688,19.7031 Q313.8438,19.125 313.25,18.8594 Q312.6563,18.5781 312.0313,18.5781 Q310.6875,18.5781 310,19.6563 Q309.3125,20.7188 309.3125,22.8125 Q309.3125,24.9063 310,25.9844 Q310.6875,27.0469 312.0313,27.0469 Q312.6563,27.0469 313.25,26.7813 Q313.8438,26.5 314.4688,25.9219 L314.4688,28.6406 Z " fill="#000000"/><text fill="#000000" font-family="sans-serif" font-size="14" lengthAdjust="spacing" textLength="93" x="325.5" y="27.8467">AssignSkillsUI</text><line style="stroke:#181818;stroke-width:0.5;" x1="297.5" x2="420.5" y1="39" y2="39"/><line style="stroke:#181818;stroke-width:0.5;" x1="297.5" x2="420.5" y1="47" y2="47"/></g><!--class AssignSkillsController--><g id="elem_AssignSkillsController"><rect codeLine="20" fill="#F1F1F1" height="194.6719" id="AssignSkillsController" rx="2.5" ry="2.5" style="stroke:#181818;stroke-width:0.5;" width="579" x="69.5" y="116"/><ellipse cx="281.25" cy="132" fill="#ADD1B2" rx="11" ry="11" style="stroke:#181818;stroke-width:1.0;"/><path d="M284.2188,137.6406 Q283.6406,137.9375 283,138.0781 Q282.3594,138.2344 281.6563,138.2344 Q279.1563,138.2344 277.8281,136.5938 Q276.5156,134.9375 276.5156,131.8125 Q276.5156,128.6875 277.8281,127.0313 Q279.1563,125.375 281.6563,125.375 Q282.3594,125.375 283,125.5313 Q283.6563,125.6875 284.2188,125.9844 L284.2188,128.7031 Q283.5938,128.125 283,127.8594 Q282.4063,127.5781 281.7813,127.5781 Q280.4375,127.5781 279.75,128.6563 Q279.0625,129.7188 279.0625,131.8125 Q279.0625,133.9063 279.75,134.9844 Q280.4375,136.0469 281.7813,136.0469 Q282.4063,136.0469 283,135.7813 Q283.5938,135.5 284.2188,134.9219 L284.2188,137.6406 Z " fill="#000000"/><text fill="#000000" font-family="sans-serif" font-size="14" lengthAdjust="spacing" textLength="147" x="301.75" y="136.8467">AssignSkillsController</text><line style="stroke:#181818;stroke-width:0.5;" x1="70.5" x2="647.5" y1="148" y2="148"/><text fill="#000000" font-family="sans-serif" font-size="14" lengthAdjust="spacing" textLength="330" x="75.5" y="164.9951">-collaboratorRepository : CollaboratorRepository</text><text fill="#000000" font-family="sans-serif" font-size="14" lengthAdjust="spacing" textLength="217" x="75.5" y="181.292">-skillRepository : SkillRepository</text><line style="stroke:#181818;stroke-width:0.5;" x1="70.5" x2="647.5" y1="188.5938" y2="188.5938"/><text fill="#000000" font-family="sans-serif" font-size="14" lengthAdjust="spacing" textLength="169" x="75.5" y="205.5889">+AssignSkillsController()</text><text fill="#000000" font-family="sans-serif" font-size="14" lengthAdjust="spacing" textLength="271" x="75.5" y="221.8857">+getDataNeededToAssignSkills() : void</text><text fill="#000000" font-family="sans-serif" font-size="14" lengthAdjust="spacing" textLength="294" x="75.5" y="238.1826">+getCollaboratorList() : List&lt;Collaborator&gt;</text><text fill="#000000" font-family="sans-serif" font-size="14" lengthAdjust="spacing" textLength="291" x="75.5" y="254.4795">+getCollaborator(index : int) : Collaborator</text><text fill="#000000" font-family="sans-serif" font-size="14" lengthAdjust="spacing" textLength="424" x="75.5" y="270.7764">+getAvailableSkillsList(collaborator : Collaborator) : List&lt;Skill&gt;</text><text fill="#000000" font-family="sans-serif" font-size="14" lengthAdjust="spacing" textLength="560" x="75.5" y="287.0732">+filterAssignedSkills(assignedSkills : List&lt;Skill&gt;, allSkills : List&lt;Skill&gt;) : List&lt;Skill&gt;</text><text fill="#000000" font-family="sans-serif" font-size="14" lengthAdjust="spacing" textLength="567" x="75.5" y="303.3701">+assignSkills(collaborator : Collaborator, skillName : Skill) : Optional&lt;Collaborator&gt;</text></g><!--class CollaboratorRepository--><g id="elem_CollaboratorRepository"><rect codeLine="32" fill="#F1F1F1" height="113.1875" id="CollaboratorRepository" rx="2.5" ry="2.5" style="stroke:#181818;stroke-width:0.5;" width="571" x="73.5" y="396"/><ellipse cx="276.25" cy="412" fill="#ADD1B2" rx="11" ry="11" style="stroke:#181818;stroke-width:1.0;"/><path d="M279.2188,417.6406 Q278.6406,417.9375 278,418.0781 Q277.3594,418.2344 276.6563,418.2344 Q274.1563,418.2344 272.8281,416.5938 Q271.5156,414.9375 271.5156,411.8125 Q271.5156,408.6875 272.8281,407.0313 Q274.1563,405.375 276.6563,405.375 Q277.3594,405.375 278,405.5313 Q278.6563,405.6875 279.2188,405.9844 L279.2188,408.7031 Q278.5938,408.125 278,407.8594 Q277.4063,407.5781 276.7813,407.5781 Q275.4375,407.5781 274.75,408.6563 Q274.0625,409.7188 274.0625,411.8125 Q274.0625,413.9063 274.75,414.9844 Q275.4375,416.0469 276.7813,416.0469 Q277.4063,416.0469 278,415.7813 Q278.5938,415.5 279.2188,414.9219 L279.2188,417.6406 Z " fill="#000000"/><text fill="#000000" font-family="sans-serif" font-size="14" lengthAdjust="spacing" textLength="157" x="296.75" y="416.8467">CollaboratorRepository</text><line style="stroke:#181818;stroke-width:0.5;" x1="74.5" x2="643.5" y1="428" y2="428"/><text fill="#000000" font-family="sans-serif" font-size="14" lengthAdjust="spacing" textLength="252" x="79.5" y="444.9951">-collaboratorList : List&lt;Collaborator&gt;</text><line style="stroke:#181818;stroke-width:0.5;" x1="74.5" x2="643.5" y1="452.2969" y2="452.2969"/><text fill="#000000" font-family="sans-serif" font-size="14" lengthAdjust="spacing" textLength="294" x="79.5" y="469.292">+getCollaboratorList() : List&lt;Collaborator&gt;</text><text fill="#000000" font-family="sans-serif" font-size="14" lengthAdjust="spacing" textLength="559" x="79.5" y="485.5889">+assignSkill(collaborator : Collaborator, skillName : Skill) : Optional&lt;Collaborator&gt;</text><text fill="#000000" font-family="sans-serif" font-size="14" lengthAdjust="spacing" textLength="448" x="79.5" y="501.8857">+getCollaboratorSkillsList(collaborator : Collaborator) : List&lt;Skill&gt;</text></g><!--class Collaborator--><g id="elem_Collaborator"><rect codeLine="39" fill="#F1F1F1" height="96.8906" id="Collaborator" rx="2.5" ry="2.5" style="stroke:#181818;stroke-width:0.5;" width="238" x="219" y="658"/><ellipse cx="292.25" cy="674" fill="#ADD1B2" rx="11" ry="11" style="stroke:#181818;stroke-width:1.0;"/><path d="M295.2188,679.6406 Q294.6406,679.9375 294,680.0781 Q293.3594,680.2344 292.6563,680.2344 Q290.1563,680.2344 288.8281,678.5938 Q287.5156,676.9375 287.5156,673.8125 Q287.5156,670.6875 288.8281,669.0313 Q290.1563,667.375 292.6563,667.375 Q293.3594,667.375 294,667.5313 Q294.6563,667.6875 295.2188,667.9844 L295.2188,670.7031 Q294.5938,670.125 294,669.8594 Q293.4063,669.5781 292.7813,669.5781 Q291.4375,669.5781 290.75,670.6563 Q290.0625,671.7188 290.0625,673.8125 Q290.0625,675.9063 290.75,676.9844 Q291.4375,678.0469 292.7813,678.0469 Q293.4063,678.0469 294,677.7813 Q294.5938,677.5 295.2188,676.9219 L295.2188,679.6406 Z " fill="#000000"/><text fill="#000000" font-family="sans-serif" font-size="14" lengthAdjust="spacing" textLength="83" x="312.75" y="678.8467">Collaborator</text><line style="stroke:#181818;stroke-width:0.5;" x1="220" x2="456" y1="690" y2="690"/><text fill="#000000" font-family="sans-serif" font-size="14" lengthAdjust="spacing" textLength="130" x="225" y="706.9951">-docIDNumber : int</text><text fill="#000000" font-family="sans-serif" font-size="14" lengthAdjust="spacing" textLength="124" x="225" y="723.292">-skills : List&lt;Skill&gt;</text><line style="stroke:#181818;stroke-width:0.5;" x1="220" x2="456" y1="730.5938" y2="730.5938"/><text fill="#000000" font-family="sans-serif" font-size="14" lengthAdjust="spacing" textLength="226" x="225" y="747.5889">+assignSkill(skill : Skill) : boolean</text></g><!--class Skill--><g id="elem_Skill"><rect codeLine="45" fill="#F1F1F1" height="64.2969" id="Skill" rx="2.5" ry="2.5" style="stroke:#181818;stroke-width:0.5;" width="109" x="110.5" y="816"/><ellipse cx="148.45" cy="832" fill="#ADD1B2" rx="11" ry="11" style="stroke:#181818;stroke-width:1.0;"/><path d="M151.4188,837.6406 Q150.8406,837.9375 150.2,838.0781 Q149.5594,838.2344 148.8563,838.2344 Q146.3563,838.2344 145.0281,836.5938 Q143.7156,834.9375 143.7156,831.8125 Q143.7156,828.6875 145.0281,827.0313 Q146.3563,825.375 148.8563,825.375 Q149.5594,825.375 150.2,825.5313 Q150.8563,825.6875 151.4188,825.9844 L151.4188,828.7031 Q150.7938,828.125 150.2,827.8594 Q149.6063,827.5781 148.9813,827.5781 Q147.6375,827.5781 146.95,828.6563 Q146.2625,829.7188 146.2625,831.8125 Q146.2625,833.9063 146.95,834.9844 Q147.6375,836.0469 148.9813,836.0469 Q149.6063,836.0469 150.2,835.7813 Q150.7938,835.5 151.4188,834.9219 L151.4188,837.6406 Z " fill="#000000"/><text fill="#000000" font-family="sans-serif" font-size="14" lengthAdjust="spacing" textLength="26" x="167.55" y="836.8467">Skill</text><line style="stroke:#181818;stroke-width:0.5;" x1="111.5" x2="218.5" y1="848" y2="848"/><text fill="#000000" font-family="sans-serif" font-size="14" lengthAdjust="spacing" textLength="97" x="116.5" y="864.9951">-name : String</text><line style="stroke:#181818;stroke-width:0.5;" x1="111.5" x2="218.5" y1="872.2969" y2="872.2969"/></g><!--class Repositories--><g id="elem_Repositories"><rect codeLine="49" fill="#F1F1F1" height="129.4844" id="Repositories" rx="2.5" ry="2.5" style="stroke:#181818;stroke-width:0.5;" width="384" x="680" y="388"/><ellipse cx="824.25" cy="404" fill="#ADD1B2" rx="11" ry="11" style="stroke:#181818;stroke-width:1.0;"/><path d="M827.2188,409.6406 Q826.6406,409.9375 826,410.0781 Q825.3594,410.2344 824.6563,410.2344 Q822.1563,410.2344 820.8281,408.5938 Q819.5156,406.9375 819.5156,403.8125 Q819.5156,400.6875 820.8281,399.0313 Q822.1563,397.375 824.6563,397.375 Q825.3594,397.375 826,397.5313 Q826.6563,397.6875 827.2188,397.9844 L827.2188,400.7031 Q826.5938,400.125 826,399.8594 Q825.4063,399.5781 824.7813,399.5781 Q823.4375,399.5781 822.75,400.6563 Q822.0625,401.7188 822.0625,403.8125 Q822.0625,405.9063 822.75,406.9844 Q823.4375,408.0469 824.7813,408.0469 Q825.4063,408.0469 826,407.7813 Q826.5938,407.5 827.2188,406.9219 L827.2188,409.6406 Z " fill="#000000"/><text fill="#000000" font-family="sans-serif" font-size="14" lengthAdjust="spacing" textLength="87" x="844.75" y="408.8467">Repositories</text><line style="stroke:#181818;stroke-width:0.5;" x1="681" x2="1063" y1="420" y2="420"/><text fill="#000000" font-family="sans-serif" font-size="14" lengthAdjust="spacing" textLength="205" x="686" y="436.9951">-static instance : Repositories</text><line style="stroke:#181818;stroke-width:0.5;" x1="681" x2="1063" y1="444.2969" y2="444.2969"/><text fill="#000000" font-family="sans-serif" font-size="14" lengthAdjust="spacing" textLength="204" x="686" y="461.292">+getInstance() : Repositories</text><text fill="#000000" font-family="sans-serif" font-size="14" lengthAdjust="spacing" textLength="258" x="686" y="477.5889">+getSkillRepository() : SkillRepository</text><text fill="#000000" font-family="sans-serif" font-size="14" lengthAdjust="spacing" textLength="372" x="686" y="493.8857">+getCollaboratorRepository() : CollaboratorRepository</text><text fill="#000000" font-family="sans-serif" font-size="14" lengthAdjust="spacing" textLength="102" x="686" y="510.1826">-Repositories()</text></g><!--link AssignSkillsUI to AssignSkillsController--><g id="link_AssignSkillsUI_AssignSkillsController"><path codeLine="57" d="M359,55.23 C359,71.03 359,87.12 359,109.76 " fill="none" id="AssignSkillsUI-to-AssignSkillsController" style="stroke:#181818;stroke-width:1.0;stroke-dasharray:7.0,7.0;"/><polygon fill="#181818" points="359,115.76,363,106.76,359,110.76,355,106.76,359,115.76" style="stroke:#181818;stroke-width:1.0;"/></g><!--link AssignSkillsController to Repositories--><g id="link_AssignSkillsController_Repositories"><path codeLine="58" d="M568.03,311.07 C624.03,336.94 677.7034,361.7331 728.7734,385.3331 " fill="none" id="AssignSkillsController-to-Repositories" style="stroke:#181818;stroke-width:1.0;stroke-dasharray:7.0,7.0;"/><polygon fill="#181818" points="734.22,387.85,727.7281,380.4436,729.6812,385.7526,724.3722,387.7057,734.22,387.85" style="stroke:#181818;stroke-width:1.0;"/><text fill="#000000" font-family="sans-serif" font-size="13" lengthAdjust="spacing" textLength="75" x="663" y="354.0669">repositories</text></g><!--link AssignSkillsController to SkillRepository--><g id="link_AssignSkillsController_SkillRepository"><path codeLine="59" d="M190.22,311.14 C120.65,350.98 56,388 56,388 C56,388 56,517 56,517 C56,517 62.2903,526.2989 72.8403,541.9089 " fill="none" id="AssignSkillsController-to-SkillRepository" style="stroke:#181818;stroke-width:1.0;stroke-dasharray:7.0,7.0;"/><polygon fill="#181818" points="76.2,546.88,74.4745,537.1835,73.4002,542.7374,67.8463,541.6631,76.2,546.88" style="stroke:#181818;stroke-width:1.0;"/><text fill="#000000" font-family="sans-serif" font-size="13" lengthAdjust="spacing" textLength="90" x="134" y="354.0669">skillRepository</text></g><!--link AssignSkillsController to CollaboratorRepository--><g id="link_AssignSkillsController_CollaboratorRepository"><path codeLine="60" d="M359,311.24 C359,340.04 359,364.61 359,389.84 " fill="none" id="AssignSkillsController-to-CollaboratorRepository" style="stroke:#181818;stroke-width:1.0;stroke-dasharray:7.0,7.0;"/><polygon fill="#181818" points="359,395.84,363,386.84,359,390.84,355,386.84,359,395.84" style="stroke:#181818;stroke-width:1.0;"/><text fill="#000000" font-family="sans-serif" font-size="13" lengthAdjust="spacing" textLength="143" x="360" y="354.0669">collaboratorRepository</text></g><!--link SkillRepository to Skill--><g id="link_SkillRepository_Skill"><path codeLine="61" d="M112.48,628.04 C124.87,679.66 144.8803,763.1255 156.1603,810.1455 " fill="none" id="SkillRepository-to-Skill" style="stroke:#181818;stroke-width:1.0;"/><polygon fill="#181818" points="157.56,815.98,159.3501,806.2952,156.3936,811.118,151.5708,808.1614,157.56,815.98" style="stroke:#181818;stroke-width:1.0;"/><text fill="#000000" font-family="sans-serif" font-size="13" lengthAdjust="spacing" textLength="8" x="105.3534" y="647.8062">1</text><text fill="#000000" font-family="sans-serif" font-size="13" lengthAdjust="spacing" textLength="7" x="148.3036" y="804.879">*</text></g><!--link CollaboratorRepository to Collaborator--><g id="link_CollaboratorRepository_Collaborator"><path codeLine="62" d="M354.37,509.11 C350.66,553.61 346.0075,609.3707 342.4875,651.6807 " fill="none" id="CollaboratorRepository-to-Collaborator" style="stroke:#181818;stroke-width:1.0;"/><polygon fill="#181818" points="341.99,657.66,346.7224,649.0226,342.4045,652.6772,338.75,648.3593,341.99,657.66" style="stroke:#181818;stroke-width:1.0;"/><text fill="#000000" font-family="sans-serif" font-size="13" lengthAdjust="spacing" textLength="8" x="345.2643" y="529.3875">1</text><text fill="#000000" font-family="sans-serif" font-size="13" lengthAdjust="spacing" textLength="7" x="335.0589" y="646.8211">*</text></g><!--link Repositories to Repositories--><g id="link_Repositories_Repositories"><path codeLine="63" d="M1064.1,436.41 C1085.31,439.47 1099,444.83 1099,452.5 C1099,460.17 1091.2485,464.6732 1070.0385,467.7332 " fill="none" id="Repositories-to-Repositories" style="stroke:#181818;stroke-width:1.0;"/><polygon fill="#181818" points="1064.1,468.59,1073.5789,471.2639,1069.0488,467.876,1072.4366,463.3459,1064.1,468.59" style="stroke:#181818;stroke-width:1.0;"/><text fill="#000000" font-family="sans-serif" font-size="13" lengthAdjust="spacing" textLength="54" x="1105" y="457.0669">instance</text></g><!--link Collaborator to Skill--><g id="link_Collaborator_Skill"><path codeLine="64" d="M278.95,755.12 C254.08,775.17 230.5218,794.1751 208.3718,812.0251 " fill="none" id="Collaborator-to-Skill" style="stroke:#181818;stroke-width:1.0;"/><polygon fill="#181818" points="203.7,815.79,213.2176,813.2572,207.5932,812.6526,208.1978,807.0282,203.7,815.79" style="stroke:#181818;stroke-width:1.0;"/><text fill="#000000" font-family="sans-serif" font-size="13" lengthAdjust="spacing" textLength="7" x="263.1539" y="775.0958">*</text><text fill="#000000" font-family="sans-serif" font-size="13" lengthAdjust="spacing" textLength="7" x="203.63" y="805.0228">*</text></g><!--SRC=[hLLDZzem4BtxLuou0EsoQg-eGaBi1Mb5fTB-09CCmSBOaMssfLN_UnqdaB7NeLMrNC2UDn_lpNWOswDGDJVy12UjT74m-eJWp1bPRwbvSUGLRjr58XWi75ULf01xuAN-BbG5UoujjKYXq5rgX5hBItDWuunH6wSPyIeajtRfd16xiyDreTLM_4JumDXOujw1qs14TN1GYgOSeHLZmGUsHo7b5wor5KwR2_nYu3ypiCtzix0Evj1yVGh0HR2-XmhTKifmPIVJ60BizpNuqbfHgHRsRUrZPoqhhPpHKgAvPI_yaU-quRucKjmSLba3hJc29-owwlF99zEUt1DtV8DOOlbLKtJW-g95sKDfHOqAlHpKiiWxJ8GgyOTt4CfD4tf4wXSk_BN4jeYGXIgKEBxgHnjeBwH3qxB1ikF3esFi-03yskFOC920Kw7krFVGDch3_SFfMjH4_5mtSybbejjjPFAjpuuCdTj_wCBVsqQelHapo1VpdptEodGJfzJ5-cbpFktGjCD6NupDFd5AES0eevtM4haYQOFfbazr2lY5fAeUT6kRGDjl6iUTA7nH_eSg6ZSAwqLQTu3GgJmaUUu1cLy1YUY9pzqjGrFxdU799MlkyN4ni6BOmDfhF29jvlvVWn2yuxPzjVEIBNZFUJMqPlFxbwN9HXz7C9ijOFHkr0q06mX9aT64ieXt0qc4kCv553d4YJApFm00]--></g></svg>