<?xml version="1.0" encoding="us-ascii" standalone="no"?><svg xmlns="http://www.w3.org/2000/svg" xmlns:xlink="http://www.w3.org/1999/xlink" contentStyleType="text/css" height="1070px" preserveAspectRatio="none" style="width:1651px;height:1070px;background:#FFFFFF;" version="1.1" viewBox="0 0 1651 1070" width="1651px" zoomAndPan="magnify"><defs/><g><rect fill="#FFFFFF" height="905.6445" style="stroke:#181818;stroke-width:1.0;" width="10" x="237.5" y="90.5332"/><rect fill="#FFFFFF" height="31.291" style="stroke:#181818;stroke-width:1.0;" width="10" x="388.5" y="121.8242"/><rect fill="#FFFFFF" height="31.291" style="stroke:#181818;stroke-width:1.0;" width="10" x="495.5" y="184.4063"/><rect fill="#FFFFFF" height="31.291" style="stroke:#181818;stroke-width:1.0;" width="10" x="495.5" y="246.9883"/><rect fill="#FFFFFF" height="136.873" style="stroke:#181818;stroke-width:1.0;" width="10" x="613.5" y="453.0645"/><rect fill="#FFFFFF" height="97.582" style="stroke:#181818;stroke-width:1.0;" width="10" x="618.5" y="492.3555"/><rect fill="#FFFFFF" height="112.2031" style="stroke:#181818;stroke-width:1.0;" width="10" x="799.5" y="309.5703"/><rect fill="#FFFFFF" height="30" style="stroke:#181818;stroke-width:1.0;" width="10" x="1072.5" y="859.3047"/><rect fill="#FFFFFF" height="30" style="stroke:#181818;stroke-width:1.0;" width="10" x="1262.5" y="722.4316"/><rect fill="#FFFFFF" height="273.0762" style="stroke:#181818;stroke-width:1.0;" width="10" x="1407.5" y="647.5195"/><rect fill="#FFFFFF" height="36.291" style="stroke:#181818;stroke-width:1.0;" width="10" x="1412.5" y="791.7227"/><rect fill="#FFFFFF" height="30" style="stroke:#181818;stroke-width:1.0;" width="10" x="1614.5" y="528.6465"/><rect fill="none" height="323.6582" style="stroke:#000000;stroke-width:1.5;" width="1484.5" x="140" y="604.9375"/><line style="stroke:#181818;stroke-width:0.5;stroke-dasharray:5.0,5.0;" x1="72" x2="72" y1="57.2422" y2="1014.1777"/><line style="stroke:#181818;stroke-width:0.5;stroke-dasharray:5.0,5.0;" x1="242" x2="242" y1="57.2422" y2="1014.1777"/><line style="stroke:#181818;stroke-width:0.5;stroke-dasharray:5.0,5.0;" x1="393" x2="393" y1="57.2422" y2="1014.1777"/><line style="stroke:#181818;stroke-width:0.5;stroke-dasharray:5.0,5.0;" x1="500" x2="500" y1="57.2422" y2="1014.1777"/><line style="stroke:#181818;stroke-width:0.5;stroke-dasharray:5.0,5.0;" x1="618" x2="618" y1="57.2422" y2="1014.1777"/><line style="stroke:#181818;stroke-width:0.5;stroke-dasharray:5.0,5.0;" x1="804.5" x2="804.5" y1="57.2422" y2="1014.1777"/><line style="stroke:#181818;stroke-width:0.5;stroke-dasharray:5.0,5.0;" x1="923.5" x2="923.5" y1="57.2422" y2="1014.1777"/><line style="stroke:#181818;stroke-width:0.5;stroke-dasharray:5.0,5.0;" x1="1077.5" x2="1077.5" y1="687.3301" y2="1014.1777"/><line style="stroke:#181818;stroke-width:0.5;stroke-dasharray:5.0,5.0;" x1="1267.5" x2="1267.5" y1="349.3809" y2="1014.1777"/><line style="stroke:#181818;stroke-width:0.5;stroke-dasharray:5.0,5.0;" x1="1412.5" x2="1412.5" y1="57.2422" y2="1014.1777"/><line style="stroke:#181818;stroke-width:0.5;stroke-dasharray:5.0,5.0;" x1="1619" x2="1619" y1="57.2422" y2="1014.1777"/><rect fill="#E3E3E3" height="32.6211" rx="2.5" ry="2.5" style="stroke:#181818;stroke-width:0.5;" width="135" x="5" y="23.6211"/><text fill="#000000" font-family="sans-serif" font-size="14" lengthAdjust="spacing" textLength="121" x="12" y="45.7285">:ViewDetailsEntryUI</text><rect fill="#E3E3E3" height="32.6211" rx="2.5" ry="2.5" style="stroke:#181818;stroke-width:0.5;" width="135" x="5" y="1013.1777"/><text fill="#000000" font-family="sans-serif" font-size="14" lengthAdjust="spacing" textLength="121" x="12" y="1035.2852">:ViewDetailsEntryUI</text><rect fill="#E3E3E3" height="32.6211" rx="2.5" ry="2.5" style="stroke:#181818;stroke-width:0.5;" width="185" x="150" y="23.6211"/><text fill="#000000" font-family="sans-serif" font-size="14" lengthAdjust="spacing" textLength="171" x="157" y="45.7285">:ViewDetailsEntryController</text><rect fill="#E3E3E3" height="32.6211" rx="2.5" ry="2.5" style="stroke:#181818;stroke-width:0.5;" width="185" x="150" y="1013.1777"/><text fill="#000000" font-family="sans-serif" font-size="14" lengthAdjust="spacing" textLength="171" x="157" y="1035.2852">:ViewDetailsEntryController</text><rect fill="#E3E3E3" height="32.6211" rx="2.5" ry="2.5" style="stroke:#181818;stroke-width:0.5;" width="97" x="345" y="23.6211"/><text fill="#000000" font-family="sans-serif" font-size="14" lengthAdjust="spacing" textLength="83" x="352" y="45.7285">:Repositories</text><rect fill="#E3E3E3" height="32.6211" rx="2.5" ry="2.5" style="stroke:#181818;stroke-width:0.5;" width="97" x="345" y="1013.1777"/><text fill="#000000" font-family="sans-serif" font-size="14" lengthAdjust="spacing" textLength="83" x="352" y="1035.2852">:Repositories</text><rect fill="#E3E3E3" height="51.2422" rx="2.5" ry="2.5" style="stroke:#181818;stroke-width:0.5;" width="97" x="452" y="5"/><text fill="#000000" font-family="sans-serif" font-size="14" lengthAdjust="spacing" textLength="74" x="463.5" y="27.1074">repositories</text><text fill="#000000" font-family="sans-serif" font-size="14" lengthAdjust="spacing" textLength="83" x="459" y="45.7285">:Repositories</text><rect fill="#E3E3E3" height="51.2422" rx="2.5" ry="2.5" style="stroke:#181818;stroke-width:0.5;" width="97" x="452" y="1013.1777"/><text fill="#000000" font-family="sans-serif" font-size="14" lengthAdjust="spacing" textLength="74" x="463.5" y="1035.2852">repositories</text><text fill="#000000" font-family="sans-serif" font-size="14" lengthAdjust="spacing" textLength="83" x="459" y="1053.9063">:Repositories</text><rect fill="#E3E3E3" height="51.2422" rx="2.5" ry="2.5" style="stroke:#181818;stroke-width:0.5;" width="119" x="559" y="5"/><text fill="#000000" font-family="sans-serif" font-size="14" lengthAdjust="spacing" textLength="100" x="568.5" y="27.1074">entryRepository</text><text fill="#000000" font-family="sans-serif" font-size="14" lengthAdjust="spacing" textLength="105" x="566" y="45.7285">:EntryRepository</text><rect fill="#E3E3E3" height="51.2422" rx="2.5" ry="2.5" style="stroke:#181818;stroke-width:0.5;" width="119" x="559" y="1013.1777"/><text fill="#000000" font-family="sans-serif" font-size="14" lengthAdjust="spacing" textLength="100" x="568.5" y="1035.2852">entryRepository</text><text fill="#000000" font-family="sans-serif" font-size="14" lengthAdjust="spacing" textLength="105" x="566" y="1053.9063">:EntryRepository</text><rect fill="#E3E3E3" height="51.2422" rx="2.5" ry="2.5" style="stroke:#181818;stroke-width:0.5;" width="132" x="738.5" y="5"/><text fill="#000000" font-family="sans-serif" font-size="14" lengthAdjust="spacing" textLength="112" x="748.5" y="27.1074">vehicleRepository</text><text fill="#000000" font-family="sans-serif" font-size="14" lengthAdjust="spacing" textLength="118" x="745.5" y="45.7285">:VehicleRepository</text><rect fill="#E3E3E3" height="51.2422" rx="2.5" ry="2.5" style="stroke:#181818;stroke-width:0.5;" width="132" x="738.5" y="1013.1777"/><text fill="#000000" font-family="sans-serif" font-size="14" lengthAdjust="spacing" textLength="112" x="748.5" y="1035.2852">vehicleRepository</text><text fill="#000000" font-family="sans-serif" font-size="14" lengthAdjust="spacing" textLength="118" x="745.5" y="1053.9063">:VehicleRepository</text><rect fill="#E3E3E3" height="32.6211" rx="2.5" ry="2.5" style="stroke:#181818;stroke-width:0.5;" width="86" x="880.5" y="23.6211"/><text fill="#000000" font-family="sans-serif" font-size="14" lengthAdjust="spacing" textLength="72" x="887.5" y="45.7285">:VehicleDto</text><rect fill="#E3E3E3" height="32.6211" rx="2.5" ry="2.5" style="stroke:#181818;stroke-width:0.5;" width="86" x="880.5" y="1013.1777"/><text fill="#000000" font-family="sans-serif" font-size="14" lengthAdjust="spacing" textLength="72" x="887.5" y="1035.2852">:VehicleDto</text><rect fill="#E3E3E3" height="32.6211" rx="2.5" ry="2.5" style="stroke:#181818;stroke-width:0.5;" width="202" x="976.5" y="1013.1777"/><text fill="#000000" font-family="sans-serif" font-size="14" lengthAdjust="spacing" textLength="188" x="983.5" y="1035.2852">agendaDto : List&lt;VehicleDto&gt;</text><rect fill="#E3E3E3" height="32.6211" rx="2.5" ry="2.5" style="stroke:#181818;stroke-width:0.5;" width="158" x="1188.5" y="1013.1777"/><text fill="#000000" font-family="sans-serif" font-size="14" lengthAdjust="spacing" textLength="144" x="1195.5" y="1035.2852">agenda : List&lt;Vehicle&gt;</text><rect fill="#E3E3E3" height="32.6211" rx="2.5" ry="2.5" style="stroke:#181818;stroke-width:0.5;" width="112" x="1356.5" y="23.6211"/><text fill="#000000" font-family="sans-serif" font-size="14" lengthAdjust="spacing" textLength="98" x="1363.5" y="45.7285">:VehicleMapper</text><rect fill="#E3E3E3" height="32.6211" rx="2.5" ry="2.5" style="stroke:#181818;stroke-width:0.5;" width="112" x="1356.5" y="1013.1777"/><text fill="#000000" font-family="sans-serif" font-size="14" lengthAdjust="spacing" textLength="98" x="1363.5" y="1035.2852">:VehicleMapper</text><rect fill="#E3E3E3" height="32.6211" rx="2.5" ry="2.5" style="stroke:#181818;stroke-width:0.5;" width="51" x="1594" y="23.6211"/><text fill="#000000" font-family="sans-serif" font-size="14" lengthAdjust="spacing" textLength="37" x="1601" y="45.7285">:Entry</text><rect fill="#E3E3E3" height="32.6211" rx="2.5" ry="2.5" style="stroke:#181818;stroke-width:0.5;" width="51" x="1594" y="1013.1777"/><text fill="#000000" font-family="sans-serif" font-size="14" lengthAdjust="spacing" textLength="37" x="1601" y="1035.2852">:Entry</text><rect fill="#FFFFFF" height="905.6445" style="stroke:#181818;stroke-width:1.0;" width="10" x="237.5" y="90.5332"/><rect fill="#FFFFFF" height="31.291" style="stroke:#181818;stroke-width:1.0;" width="10" x="388.5" y="121.8242"/><rect fill="#FFFFFF" height="31.291" style="stroke:#181818;stroke-width:1.0;" width="10" x="495.5" y="184.4063"/><rect fill="#FFFFFF" height="31.291" style="stroke:#181818;stroke-width:1.0;" width="10" x="495.5" y="246.9883"/><rect fill="#FFFFFF" height="136.873" style="stroke:#181818;stroke-width:1.0;" width="10" x="613.5" y="453.0645"/><rect fill="#FFFFFF" height="97.582" style="stroke:#181818;stroke-width:1.0;" width="10" x="618.5" y="492.3555"/><rect fill="#FFFFFF" height="112.2031" style="stroke:#181818;stroke-width:1.0;" width="10" x="799.5" y="309.5703"/><rect fill="#FFFFFF" height="30" style="stroke:#181818;stroke-width:1.0;" width="10" x="1072.5" y="859.3047"/><rect fill="#FFFFFF" height="30" style="stroke:#181818;stroke-width:1.0;" width="10" x="1262.5" y="722.4316"/><rect fill="#FFFFFF" height="273.0762" style="stroke:#181818;stroke-width:1.0;" width="10" x="1407.5" y="647.5195"/><rect fill="#FFFFFF" height="36.291" style="stroke:#181818;stroke-width:1.0;" width="10" x="1412.5" y="791.7227"/><rect fill="#FFFFFF" height="30" style="stroke:#181818;stroke-width:1.0;" width="10" x="1614.5" y="528.6465"/><polygon fill="#181818" points="225.5,86.5332,235.5,90.5332,225.5,94.5332,229.5,90.5332" style="stroke:#181818;stroke-width:1.0;"/><line style="stroke:#181818;stroke-width:1.0;" x1="0" x2="231.5" y1="90.5332" y2="90.5332"/><text fill="#000000" font-family="sans-serif" font-size="13" font-weight="bold" lengthAdjust="spacing" textLength="7" x="7" y="85.2705">5</text><text fill="#000000" font-family="sans-serif" font-size="13" lengthAdjust="spacing" textLength="149" x="18" y="85.2705">getDataNeededToModify()</text><polygon fill="#181818" points="376.5,117.8242,386.5,121.8242,376.5,125.8242,380.5,121.8242" style="stroke:#181818;stroke-width:1.0;"/><line style="stroke:#181818;stroke-width:1.0;" x1="247.5" x2="382.5" y1="121.8242" y2="121.8242"/><text fill="#000000" font-family="sans-serif" font-size="13" font-weight="bold" lengthAdjust="spacing" textLength="7" x="254.5" y="116.5615">6</text><text fill="#000000" font-family="sans-serif" font-size="13" lengthAdjust="spacing" textLength="75" x="265.5" y="116.5615">getInstance()</text><polygon fill="#181818" points="258.5,149.1152,248.5,153.1152,258.5,157.1152,254.5,153.1152" style="stroke:#181818;stroke-width:1.0;"/><line style="stroke:#181818;stroke-width:1.0;stroke-dasharray:2.0,2.0;" x1="252.5" x2="392.5" y1="153.1152" y2="153.1152"/><text fill="#000000" font-family="sans-serif" font-size="13" font-weight="bold" lengthAdjust="spacing" textLength="7" x="264.5" y="147.8525">7</text><text fill="#000000" font-family="sans-serif" font-size="13" lengthAdjust="spacing" textLength="67" x="275.5" y="147.8525">repositories</text><polygon fill="#181818" points="483.5,180.4063,493.5,184.4063,483.5,188.4063,487.5,184.4063" style="stroke:#181818;stroke-width:1.0;"/><line style="stroke:#181818;stroke-width:1.0;" x1="247.5" x2="489.5" y1="184.4063" y2="184.4063"/><text fill="#000000" font-family="sans-serif" font-size="13" font-weight="bold" lengthAdjust="spacing" textLength="7" x="254.5" y="179.1436">8</text><text fill="#000000" font-family="sans-serif" font-size="13" lengthAdjust="spacing" textLength="131" x="265.5" y="179.1436">getVehicleRepository()</text><polygon fill="#181818" points="258.5,211.6973,248.5,215.6973,258.5,219.6973,254.5,215.6973" style="stroke:#181818;stroke-width:1.0;"/><line style="stroke:#181818;stroke-width:1.0;" x1="252.5" x2="499.5" y1="215.6973" y2="215.6973"/><text fill="#000000" font-family="sans-serif" font-size="13" font-weight="bold" lengthAdjust="spacing" textLength="7" x="264.5" y="210.4346">9</text><text fill="#000000" font-family="sans-serif" font-size="13" lengthAdjust="spacing" textLength="101" x="275.5" y="210.4346">vehicleRepository</text><polygon fill="#181818" points="483.5,242.9883,493.5,246.9883,483.5,250.9883,487.5,246.9883" style="stroke:#181818;stroke-width:1.0;"/><line style="stroke:#181818;stroke-width:1.0;" x1="247.5" x2="489.5" y1="246.9883" y2="246.9883"/><text fill="#000000" font-family="sans-serif" font-size="13" font-weight="bold" lengthAdjust="spacing" textLength="14" x="254.5" y="241.7256">10</text><text fill="#000000" font-family="sans-serif" font-size="13" lengthAdjust="spacing" textLength="119" x="272.5" y="241.7256">getEntryRepository()</text><polygon fill="#181818" points="258.5,274.2793,248.5,278.2793,258.5,282.2793,254.5,278.2793" style="stroke:#181818;stroke-width:1.0;"/><line style="stroke:#181818;stroke-width:1.0;" x1="252.5" x2="499.5" y1="278.2793" y2="278.2793"/><text fill="#000000" font-family="sans-serif" font-size="13" font-weight="bold" lengthAdjust="spacing" textLength="14" x="264.5" y="273.0166">11</text><text fill="#000000" font-family="sans-serif" font-size="13" lengthAdjust="spacing" textLength="91" x="282.5" y="273.0166">entryRepository</text><polygon fill="#181818" points="787.5,305.5703,797.5,309.5703,787.5,313.5703,791.5,309.5703" style="stroke:#181818;stroke-width:1.0;"/><line style="stroke:#181818;stroke-width:1.0;" x1="247.5" x2="793.5" y1="309.5703" y2="309.5703"/><text fill="#000000" font-family="sans-serif" font-size="13" font-weight="bold" lengthAdjust="spacing" textLength="14" x="254.5" y="304.3076">12</text><text fill="#000000" font-family="sans-serif" font-size="13" lengthAdjust="spacing" textLength="90" x="272.5" y="304.3076">getVehicleList()</text><polygon fill="#181818" points="1176.5,336.8613,1186.5,340.8613,1176.5,344.8613,1180.5,340.8613" style="stroke:#181818;stroke-width:1.0;"/><line style="stroke:#181818;stroke-width:1.0;" x1="809.5" x2="1182.5" y1="340.8613" y2="340.8613"/><text fill="#000000" font-family="sans-serif" font-size="13" font-weight="bold" lengthAdjust="spacing" textLength="14" x="816.5" y="335.5986">13</text><text fill="#000000" font-family="sans-serif" font-size="13" lengthAdjust="spacing" textLength="36" x="834.5" y="335.5986">create</text><rect fill="#E3E3E3" height="32.6211" rx="2.5" ry="2.5" style="stroke:#181818;stroke-width:0.5;" width="158" x="1188.5" y="317.5703"/><text fill="#000000" font-family="sans-serif" font-size="14" lengthAdjust="spacing" textLength="144" x="1195.5" y="339.6777">agenda : List&lt;Vehicle&gt;</text><path d="M1180,366.1914 L1180,393.1914 L1354,393.1914 L1354,376.1914 L1344,366.1914 L1180,366.1914 " fill="#FAFAFA" style="stroke:#181818;stroke-width:0.5;"/><path d="M1344,366.1914 L1344,376.1914 L1354,376.1914 L1344,366.1914 " fill="#FAFAFA" style="stroke:#181818;stroke-width:0.5;"/><text fill="#000000" font-family="sans-serif" font-size="13" lengthAdjust="spacing" textLength="153" x="1186" y="385.2197">loop to populate is omitted</text><polygon fill="#181818" points="258.5,417.7734,248.5,421.7734,258.5,425.7734,254.5,421.7734" style="stroke:#181818;stroke-width:1.0;"/><line style="stroke:#181818;stroke-width:1.0;" x1="252.5" x2="803.5" y1="421.7734" y2="421.7734"/><text fill="#000000" font-family="sans-serif" font-size="13" font-weight="bold" lengthAdjust="spacing" textLength="14" x="264.5" y="416.5107">14</text><text fill="#000000" font-family="sans-serif" font-size="13" lengthAdjust="spacing" textLength="60" x="282.5" y="416.5107">vehicleList</text><polygon fill="#181818" points="601.5,449.0645,611.5,453.0645,601.5,457.0645,605.5,453.0645" style="stroke:#181818;stroke-width:1.0;"/><line style="stroke:#181818;stroke-width:1.0;" x1="247.5" x2="607.5" y1="453.0645" y2="453.0645"/><text fill="#000000" font-family="sans-serif" font-size="13" font-weight="bold" lengthAdjust="spacing" textLength="14" x="254.5" y="447.8018">15</text><text fill="#000000" font-family="sans-serif" font-size="13" lengthAdjust="spacing" textLength="276" x="272.5" y="447.8018">filterVehiclesNotUseInTime(entryDto,vehicleList)</text><line style="stroke:#181818;stroke-width:1.0;" x1="623.5" x2="670.5" y1="479.3555" y2="479.3555"/><line style="stroke:#181818;stroke-width:1.0;" x1="670.5" x2="670.5" y1="479.3555" y2="492.3555"/><line style="stroke:#181818;stroke-width:1.0;" x1="629.5" x2="670.5" y1="492.3555" y2="492.3555"/><polygon fill="#181818" points="639.5,488.3555,629.5,492.3555,639.5,496.3555,635.5,492.3555" style="stroke:#181818;stroke-width:1.0;"/><text fill="#000000" font-family="sans-serif" font-size="13" font-weight="bold" lengthAdjust="spacing" textLength="14" x="635.5" y="474.0928">16</text><text fill="#000000" font-family="sans-serif" font-size="13" lengthAdjust="spacing" textLength="144" x="653.5" y="474.0928">getEntryInTime(entryDto)</text><polygon fill="#181818" points="1602.5,524.6465,1612.5,528.6465,1602.5,532.6465,1606.5,528.6465" style="stroke:#181818;stroke-width:1.0;"/><line style="stroke:#181818;stroke-width:1.0;" x1="628.5" x2="1608.5" y1="528.6465" y2="528.6465"/><text fill="#000000" font-family="sans-serif" font-size="13" font-weight="bold" lengthAdjust="spacing" textLength="14" x="635.5" y="523.3838">17</text><text fill="#000000" font-family="sans-serif" font-size="13" lengthAdjust="spacing" textLength="90" x="653.5" y="523.3838">getVehicleList()</text><polygon fill="#181818" points="258.5,585.9375,248.5,589.9375,258.5,593.9375,254.5,589.9375" style="stroke:#181818;stroke-width:1.0;"/><line style="stroke:#181818;stroke-width:1.0;" x1="252.5" x2="617.5" y1="589.9375" y2="589.9375"/><text fill="#000000" font-family="sans-serif" font-size="13" font-weight="bold" lengthAdjust="spacing" textLength="14" x="264.5" y="584.6748">18</text><text fill="#000000" font-family="sans-serif" font-size="13" lengthAdjust="spacing" textLength="60" x="282.5" y="584.6748">vehicleList</text><path d="M140,604.9375 L213,604.9375 L213,614.2285 L203,624.2285 L140,624.2285 L140,604.9375 " fill="#EEEEEE" style="stroke:#000000;stroke-width:1.5;"/><rect fill="none" height="323.6582" style="stroke:#000000;stroke-width:1.5;" width="1484.5" x="140" y="604.9375"/><text fill="#000000" font-family="sans-serif" font-size="13" font-weight="bold" lengthAdjust="spacing" textLength="28" x="155" y="619.9658">loop</text><text fill="#000000" font-family="sans-serif" font-size="11" font-weight="bold" lengthAdjust="spacing" textLength="104" x="228" y="618.8076">[For every Vehicle]</text><polygon fill="#181818" points="1395.5,643.5195,1405.5,647.5195,1395.5,651.5195,1399.5,647.5195" style="stroke:#181818;stroke-width:1.0;"/><line style="stroke:#181818;stroke-width:1.0;" x1="247.5" x2="1401.5" y1="647.5195" y2="647.5195"/><text fill="#000000" font-family="sans-serif" font-size="13" font-weight="bold" lengthAdjust="spacing" textLength="14" x="254.5" y="642.2568">19</text><text fill="#000000" font-family="sans-serif" font-size="13" lengthAdjust="spacing" textLength="134" x="272.5" y="642.2568">toDTO(vehicleListFilter)</text><polygon fill="#181818" points="1189.5,674.8105,1179.5,678.8105,1189.5,682.8105,1185.5,678.8105" style="stroke:#181818;stroke-width:1.0;"/><line style="stroke:#181818;stroke-width:1.0;" x1="1183.5" x2="1406.5" y1="678.8105" y2="678.8105"/><text fill="#000000" font-family="sans-serif" font-size="13" font-weight="bold" lengthAdjust="spacing" textLength="14" x="1195.5" y="673.5479">20</text><text fill="#000000" font-family="sans-serif" font-size="13" lengthAdjust="spacing" textLength="36" x="1213.5" y="673.5479">create</text><rect fill="#E3E3E3" height="32.6211" rx="2.5" ry="2.5" style="stroke:#181818;stroke-width:0.5;" width="202" x="976.5" y="655.5195"/><text fill="#000000" font-family="sans-serif" font-size="14" lengthAdjust="spacing" textLength="188" x="983.5" y="677.627">agendaDto : List&lt;VehicleDto&gt;</text><polygon fill="#181818" points="1283.5,718.4316,1273.5,722.4316,1283.5,726.4316,1279.5,722.4316" style="stroke:#181818;stroke-width:1.0;"/><line style="stroke:#181818;stroke-width:1.0;" x1="1277.5" x2="1406.5" y1="722.4316" y2="722.4316"/><text fill="#000000" font-family="sans-serif" font-size="13" font-weight="bold" lengthAdjust="spacing" textLength="14" x="1289.5" y="717.1689">21</text><text fill="#000000" font-family="sans-serif" font-size="13" lengthAdjust="spacing" textLength="84" x="1307.5" y="717.1689">vehicle = get(i)</text><line style="stroke:#181818;stroke-width:1.0;" x1="1417.5" x2="1464.5" y1="778.7227" y2="778.7227"/><line style="stroke:#181818;stroke-width:1.0;" x1="1464.5" x2="1464.5" y1="778.7227" y2="791.7227"/><line style="stroke:#181818;stroke-width:1.0;" x1="1423.5" x2="1464.5" y1="791.7227" y2="791.7227"/><polygon fill="#181818" points="1433.5,787.7227,1423.5,791.7227,1433.5,795.7227,1429.5,791.7227" style="stroke:#181818;stroke-width:1.0;"/><text fill="#000000" font-family="sans-serif" font-size="13" font-weight="bold" lengthAdjust="spacing" textLength="14" x="1429.5" y="773.46">22</text><text fill="#000000" font-family="sans-serif" font-size="13" lengthAdjust="spacing" textLength="165" x="1447.5" y="773.46">vehicleDTO = toDTO(vehicle)</text><polygon fill="#181818" points="934.5,824.0137,924.5,828.0137,934.5,832.0137,930.5,828.0137" style="stroke:#181818;stroke-width:1.0;"/><line style="stroke:#181818;stroke-width:1.0;" x1="928.5" x2="1406.5" y1="828.0137" y2="828.0137"/><text fill="#000000" font-family="sans-serif" font-size="13" font-weight="bold" lengthAdjust="spacing" textLength="14" x="940.5" y="822.751">23</text><text fill="#000000" font-family="sans-serif" font-size="13" lengthAdjust="spacing" textLength="56" x="958.5" y="822.751">create(...)</text><polygon fill="#181818" points="1093.5,855.3047,1083.5,859.3047,1093.5,863.3047,1089.5,859.3047" style="stroke:#181818;stroke-width:1.0;"/><line style="stroke:#181818;stroke-width:1.0;" x1="1087.5" x2="1406.5" y1="859.3047" y2="859.3047"/><text fill="#000000" font-family="sans-serif" font-size="13" font-weight="bold" lengthAdjust="spacing" textLength="14" x="1099.5" y="854.042">24</text><text fill="#000000" font-family="sans-serif" font-size="13" lengthAdjust="spacing" textLength="88" x="1117.5" y="854.042">add(vehicleDto)</text><polygon fill="#181818" points="258.5,916.5957,248.5,920.5957,258.5,924.5957,254.5,920.5957" style="stroke:#181818;stroke-width:1.0;"/><line style="stroke:#181818;stroke-width:1.0;" x1="252.5" x2="1411.5" y1="920.5957" y2="920.5957"/><text fill="#000000" font-family="sans-serif" font-size="13" font-weight="bold" lengthAdjust="spacing" textLength="14" x="264.5" y="915.333">25</text><text fill="#000000" font-family="sans-serif" font-size="13" lengthAdjust="spacing" textLength="80" x="282.5" y="915.333">vehicleDtoList</text><path d="M179,940.5957 L179,967.5957 L305,967.5957 L305,950.5957 L295,940.5957 L179,940.5957 " fill="#FAFAFA" style="stroke:#181818;stroke-width:0.5;"/><path d="M295,940.5957 L295,950.5957 L305,950.5957 L295,940.5957 " fill="#FAFAFA" style="stroke:#181818;stroke-width:0.5;"/><text fill="#000000" font-family="sans-serif" font-size="13" lengthAdjust="spacing" textLength="105" x="185" y="959.624">other data omitted</text><polygon fill="#181818" points="11,992.1777,1,996.1777,11,1000.1777,7,996.1777" style="stroke:#181818;stroke-width:1.0;"/><line style="stroke:#181818;stroke-width:1.0;stroke-dasharray:2.0,2.0;" x1="5" x2="241.5" y1="996.1777" y2="996.1777"/><text fill="#000000" font-family="sans-serif" font-size="13" font-weight="bold" lengthAdjust="spacing" textLength="14" x="17" y="990.915">15</text><text fill="#000000" font-family="sans-serif" font-size="13" lengthAdjust="spacing" textLength="80" x="35" y="990.915">vehicleDtoList</text><!--SRC=[rLXBJnin4BxxLrXS6b23r4fS8ef42KYf24GaSEh5x4uIYurdjNP2y-yxTbvUxxOWhRSgUuWKPsOyyyqtZwn-aIeNXLZm1IfCvWKkW9jY2KplVyb5yY9cC3Rh37W1YH5gbla2UYvIV9LgngSYqy2OM1fKoyKp58nzciiK-1JHFEClnXYf69d8N2Z3ZtfF4bxxO8JCzBKonVfnSCI5ve-3hsy8NY5zOfP1uHIk9W-teSe3vAYbmKA2TaBxW_LOsX38oR9AuMdyL5K3ezlBILa3h2y7kwHqNJvnUi5PsSGAvZB9e6JaAJnpPYgd5JGt0ds3JduC6MKBqlxalYn8sLIf837UuxTIc_E3ueNJj8TlQ0UgLRrwtuOYpxSvsmaEBqUZwuT0t47cnEw__s0-fVWPwrvi4au-pC3qXH5t02ca4nnYAgVhpZ7ZTOz8Z5m90rkwi7gfhMswf8Omcoi7IbCL9F2dYzxxx1sgesOpq_Qfyx-x0w_7VRetkoo55YFPfyEMtmR_IYL4IuGhyMQsd9iUHIi57WthZRFHqGtQrV-CRT1_8oCR1zWAMKiSjYqp6i8r4wAHuQhh58_Vv4zEA9Ya0BgyuLKAoNzSKN_txPFr337dDAfop9UP3L9gZWjfx8XXRSGNrArr9nglOYTeJxAWPidzgSmC5DiBzHsQHmq3DP4BwBYgeM7_sGin5WN3NQUPsJ2icaYzdXM4zs52eXMdlPvWzwTOz7MxMEpeswotkAbhpR3hSJTOSA06kDvrYKYjeRnd4z06QQVlU73Vk5OHYt31Nj_CQk1yC7ueZdWJwEzN7GZAlzbIxSXOU9N-DCNYPybeR5mgZDeYG-aWS4hq-Y2ayWYrfrFdzFJqE5f2_crLK10YJNT9Y3WBmpS3RV3LsesDJp1a296eSoPgTa6bJHTRRvtUHOvcJjzIOKHfVVPUh7mvSvUUTxllWSkBVlSwnJw_0G00]--></g></svg>