<?xml version="1.0" encoding="us-ascii" standalone="no"?><svg xmlns="http://www.w3.org/2000/svg" xmlns:xlink="http://www.w3.org/1999/xlink" contentStyleType="text/css" height="1063px" preserveAspectRatio="none" style="width:1730px;height:1063px;background:#FFFFFF;" version="1.1" viewBox="0 0 1730 1063" width="1730px" zoomAndPan="magnify"><defs/><g><rect fill="#FFFFFF" height="898.3535" style="stroke:#181818;stroke-width:1.0;" width="10" x="237.5" y="90.5332"/><rect fill="#FFFFFF" height="31.291" style="stroke:#181818;stroke-width:1.0;" width="10" x="388.5" y="121.8242"/><rect fill="#FFFFFF" height="31.291" style="stroke:#181818;stroke-width:1.0;" width="10" x="495.5" y="184.4063"/><rect fill="#FFFFFF" height="31.291" style="stroke:#181818;stroke-width:1.0;" width="10" x="495.5" y="246.9883"/><rect fill="#FFFFFF" height="136.873" style="stroke:#181818;stroke-width:1.0;" width="10" x="613.5" y="453.0645"/><rect fill="#FFFFFF" height="97.582" style="stroke:#181818;stroke-width:1.0;" width="10" x="618.5" y="492.3555"/><rect fill="#FFFFFF" height="112.2031" style="stroke:#181818;stroke-width:1.0;" width="10" x="799.5" y="309.5703"/><rect fill="#FFFFFF" height="30" style="stroke:#181818;stroke-width:1.0;" width="10" x="918.5" y="828.0137"/><rect fill="#FFFFFF" height="30" style="stroke:#181818;stroke-width:1.0;" width="10" x="1072.5" y="889.3047"/><rect fill="#FFFFFF" height="30" style="stroke:#181818;stroke-width:1.0;" width="10" x="1262.5" y="766.7227"/><rect fill="#FFFFFF" height="336.3672" style="stroke:#181818;stroke-width:1.0;" width="10" x="1407.5" y="621.2285"/><rect fill="#FFFFFF" height="127.582" style="stroke:#181818;stroke-width:1.0;" width="10" x="1412.5" y="730.4316"/><rect fill="#FFFFFF" height="30" style="stroke:#181818;stroke-width:1.0;" width="10" x="1693.5" y="528.6465"/><rect fill="none" height="291.0762" style="stroke:#000000;stroke-width:1.5;" width="833" x="870.5" y="636.2285"/><line style="stroke:#181818;stroke-width:0.5;stroke-dasharray:5.0,5.0;" x1="72" x2="72" y1="57.2422" y2="1006.8867"/><line style="stroke:#181818;stroke-width:0.5;stroke-dasharray:5.0,5.0;" x1="242" x2="242" y1="57.2422" y2="1006.8867"/><line style="stroke:#181818;stroke-width:0.5;stroke-dasharray:5.0,5.0;" x1="393" x2="393" y1="57.2422" y2="1006.8867"/><line style="stroke:#181818;stroke-width:0.5;stroke-dasharray:5.0,5.0;" x1="500" x2="500" y1="57.2422" y2="1006.8867"/><line style="stroke:#181818;stroke-width:0.5;stroke-dasharray:5.0,5.0;" x1="618" x2="618" y1="57.2422" y2="1006.8867"/><line style="stroke:#181818;stroke-width:0.5;stroke-dasharray:5.0,5.0;" x1="804.5" x2="804.5" y1="57.2422" y2="1006.8867"/><line style="stroke:#181818;stroke-width:0.5;stroke-dasharray:5.0,5.0;" x1="923.5" x2="923.5" y1="57.2422" y2="1006.8867"/><line style="stroke:#181818;stroke-width:0.5;stroke-dasharray:5.0,5.0;" x1="1077.5" x2="1077.5" y1="687.3301" y2="1006.8867"/><line style="stroke:#181818;stroke-width:0.5;stroke-dasharray:5.0,5.0;" x1="1267.5" x2="1267.5" y1="349.3809" y2="1006.8867"/><line style="stroke:#181818;stroke-width:0.5;stroke-dasharray:5.0,5.0;" x1="1412.5" x2="1412.5" y1="57.2422" y2="1006.8867"/><line style="stroke:#181818;stroke-width:0.5;stroke-dasharray:5.0,5.0;" x1="1698" x2="1698" y1="57.2422" y2="1006.8867"/><rect fill="#E3E3E3" height="32.6211" rx="2.5" ry="2.5" style="stroke:#181818;stroke-width:0.5;" width="135" x="5" y="23.6211"/><text fill="#000000" font-family="sans-serif" font-size="14" lengthAdjust="spacing" textLength="121" x="12" y="45.7285">:ViewDetailsEntryUI</text><rect fill="#E3E3E3" height="32.6211" rx="2.5" ry="2.5" style="stroke:#181818;stroke-width:0.5;" width="135" x="5" y="1005.8867"/><text fill="#000000" font-family="sans-serif" font-size="14" lengthAdjust="spacing" textLength="121" x="12" y="1027.9941">:ViewDetailsEntryUI</text><rect fill="#E3E3E3" height="32.6211" rx="2.5" ry="2.5" style="stroke:#181818;stroke-width:0.5;" width="185" x="150" y="23.6211"/><text fill="#000000" font-family="sans-serif" font-size="14" lengthAdjust="spacing" textLength="171" x="157" y="45.7285">:ViewDetailsEntryController</text><rect fill="#E3E3E3" height="32.6211" rx="2.5" ry="2.5" style="stroke:#181818;stroke-width:0.5;" width="185" x="150" y="1005.8867"/><text fill="#000000" font-family="sans-serif" font-size="14" lengthAdjust="spacing" textLength="171" x="157" y="1027.9941">:ViewDetailsEntryController</text><rect fill="#E3E3E3" height="32.6211" rx="2.5" ry="2.5" style="stroke:#181818;stroke-width:0.5;" width="97" x="345" y="23.6211"/><text fill="#000000" font-family="sans-serif" font-size="14" lengthAdjust="spacing" textLength="83" x="352" y="45.7285">:Repositories</text><rect fill="#E3E3E3" height="32.6211" rx="2.5" ry="2.5" style="stroke:#181818;stroke-width:0.5;" width="97" x="345" y="1005.8867"/><text fill="#000000" font-family="sans-serif" font-size="14" lengthAdjust="spacing" textLength="83" x="352" y="1027.9941">:Repositories</text><rect fill="#E3E3E3" height="51.2422" rx="2.5" ry="2.5" style="stroke:#181818;stroke-width:0.5;" width="97" x="452" y="5"/><text fill="#000000" font-family="sans-serif" font-size="14" lengthAdjust="spacing" textLength="74" x="463.5" y="27.1074">repositories</text><text fill="#000000" font-family="sans-serif" font-size="14" lengthAdjust="spacing" textLength="83" x="459" y="45.7285">:Repositories</text><rect fill="#E3E3E3" height="51.2422" rx="2.5" ry="2.5" style="stroke:#181818;stroke-width:0.5;" width="97" x="452" y="1005.8867"/><text fill="#000000" font-family="sans-serif" font-size="14" lengthAdjust="spacing" textLength="74" x="463.5" y="1027.9941">repositories</text><text fill="#000000" font-family="sans-serif" font-size="14" lengthAdjust="spacing" textLength="83" x="459" y="1046.6152">:Repositories</text><rect fill="#E3E3E3" height="51.2422" rx="2.5" ry="2.5" style="stroke:#181818;stroke-width:0.5;" width="119" x="559" y="5"/><text fill="#000000" font-family="sans-serif" font-size="14" lengthAdjust="spacing" textLength="100" x="568.5" y="27.1074">entryRepository</text><text fill="#000000" font-family="sans-serif" font-size="14" lengthAdjust="spacing" textLength="105" x="566" y="45.7285">:EntryRepository</text><rect fill="#E3E3E3" height="51.2422" rx="2.5" ry="2.5" style="stroke:#181818;stroke-width:0.5;" width="119" x="559" y="1005.8867"/><text fill="#000000" font-family="sans-serif" font-size="14" lengthAdjust="spacing" textLength="100" x="568.5" y="1027.9941">entryRepository</text><text fill="#000000" font-family="sans-serif" font-size="14" lengthAdjust="spacing" textLength="105" x="566" y="1046.6152">:EntryRepository</text><rect fill="#E3E3E3" height="51.2422" rx="2.5" ry="2.5" style="stroke:#181818;stroke-width:0.5;" width="132" x="738.5" y="5"/><text fill="#000000" font-family="sans-serif" font-size="14" lengthAdjust="spacing" textLength="112" x="748.5" y="27.1074">vehicleRepository</text><text fill="#000000" font-family="sans-serif" font-size="14" lengthAdjust="spacing" textLength="118" x="745.5" y="45.7285">:VehicleRepository</text><rect fill="#E3E3E3" height="51.2422" rx="2.5" ry="2.5" style="stroke:#181818;stroke-width:0.5;" width="132" x="738.5" y="1005.8867"/><text fill="#000000" font-family="sans-serif" font-size="14" lengthAdjust="spacing" textLength="112" x="748.5" y="1027.9941">vehicleRepository</text><text fill="#000000" font-family="sans-serif" font-size="14" lengthAdjust="spacing" textLength="118" x="745.5" y="1046.6152">:VehicleRepository</text><rect fill="#E3E3E3" height="32.6211" rx="2.5" ry="2.5" style="stroke:#181818;stroke-width:0.5;" width="86" x="880.5" y="23.6211"/><text fill="#000000" font-family="sans-serif" font-size="14" lengthAdjust="spacing" textLength="72" x="887.5" y="45.7285">:VehicleDto</text><rect fill="#E3E3E3" height="32.6211" rx="2.5" ry="2.5" style="stroke:#181818;stroke-width:0.5;" width="86" x="880.5" y="1005.8867"/><text fill="#000000" font-family="sans-serif" font-size="14" lengthAdjust="spacing" textLength="72" x="887.5" y="1027.9941">:VehicleDto</text><rect fill="#E3E3E3" height="32.6211" rx="2.5" ry="2.5" style="stroke:#181818;stroke-width:0.5;" width="202" x="976.5" y="1005.8867"/><text fill="#000000" font-family="sans-serif" font-size="14" lengthAdjust="spacing" textLength="188" x="983.5" y="1027.9941">agendaDto : List&lt;VehicleDto&gt;</text><rect fill="#E3E3E3" height="32.6211" rx="2.5" ry="2.5" style="stroke:#181818;stroke-width:0.5;" width="158" x="1188.5" y="1005.8867"/><text fill="#000000" font-family="sans-serif" font-size="14" lengthAdjust="spacing" textLength="144" x="1195.5" y="1027.9941">agenda : List&lt;Vehicle&gt;</text><rect fill="#E3E3E3" height="32.6211" rx="2.5" ry="2.5" style="stroke:#181818;stroke-width:0.5;" width="112" x="1356.5" y="23.6211"/><text fill="#000000" font-family="sans-serif" font-size="14" lengthAdjust="spacing" textLength="98" x="1363.5" y="45.7285">:VehicleMapper</text><rect fill="#E3E3E3" height="32.6211" rx="2.5" ry="2.5" style="stroke:#181818;stroke-width:0.5;" width="112" x="1356.5" y="1005.8867"/><text fill="#000000" font-family="sans-serif" font-size="14" lengthAdjust="spacing" textLength="98" x="1363.5" y="1027.9941">:VehicleMapper</text><rect fill="#E3E3E3" height="32.6211" rx="2.5" ry="2.5" style="stroke:#181818;stroke-width:0.5;" width="51" x="1673" y="23.6211"/><text fill="#000000" font-family="sans-serif" font-size="14" lengthAdjust="spacing" textLength="37" x="1680" y="45.7285">:Entry</text><rect fill="#E3E3E3" height="32.6211" rx="2.5" ry="2.5" style="stroke:#181818;stroke-width:0.5;" width="51" x="1673" y="1005.8867"/><text fill="#000000" font-family="sans-serif" font-size="14" lengthAdjust="spacing" textLength="37" x="1680" y="1027.9941">:Entry</text><rect fill="#FFFFFF" height="898.3535" style="stroke:#181818;stroke-width:1.0;" width="10" x="237.5" y="90.5332"/><rect fill="#FFFFFF" height="31.291" style="stroke:#181818;stroke-width:1.0;" width="10" x="388.5" y="121.8242"/><rect fill="#FFFFFF" height="31.291" style="stroke:#181818;stroke-width:1.0;" width="10" x="495.5" y="184.4063"/><rect fill="#FFFFFF" height="31.291" style="stroke:#181818;stroke-width:1.0;" width="10" x="495.5" y="246.9883"/><rect fill="#FFFFFF" height="136.873" style="stroke:#181818;stroke-width:1.0;" width="10" x="613.5" y="453.0645"/><rect fill="#FFFFFF" height="97.582" style="stroke:#181818;stroke-width:1.0;" width="10" x="618.5" y="492.3555"/><rect fill="#FFFFFF" height="112.2031" style="stroke:#181818;stroke-width:1.0;" width="10" x="799.5" y="309.5703"/><rect fill="#FFFFFF" height="30" style="stroke:#181818;stroke-width:1.0;" width="10" x="918.5" y="828.0137"/><rect fill="#FFFFFF" height="30" style="stroke:#181818;stroke-width:1.0;" width="10" x="1072.5" y="889.3047"/><rect fill="#FFFFFF" height="30" style="stroke:#181818;stroke-width:1.0;" width="10" x="1262.5" y="766.7227"/><rect fill="#FFFFFF" height="336.3672" style="stroke:#181818;stroke-width:1.0;" width="10" x="1407.5" y="621.2285"/><rect fill="#FFFFFF" height="127.582" style="stroke:#181818;stroke-width:1.0;" width="10" x="1412.5" y="730.4316"/><rect fill="#FFFFFF" height="30" style="stroke:#181818;stroke-width:1.0;" width="10" x="1693.5" y="528.6465"/><polygon fill="#181818" points="225.5,86.5332,235.5,90.5332,225.5,94.5332,229.5,90.5332" style="stroke:#181818;stroke-width:1.0;"/><line style="stroke:#181818;stroke-width:1.0;" x1="0" x2="231.5" y1="90.5332" y2="90.5332"/><text fill="#000000" font-family="sans-serif" font-size="13" font-weight="bold" lengthAdjust="spacing" textLength="7" x="7" y="85.2705">5</text><text fill="#000000" font-family="sans-serif" font-size="13" lengthAdjust="spacing" textLength="190" x="18" y="85.2705">getVehicleListPossibleForEntry()</text><polygon fill="#181818" points="376.5,117.8242,386.5,121.8242,376.5,125.8242,380.5,121.8242" style="stroke:#181818;stroke-width:1.0;"/><line style="stroke:#181818;stroke-width:1.0;" x1="247.5" x2="382.5" y1="121.8242" y2="121.8242"/><text fill="#000000" font-family="sans-serif" font-size="13" font-weight="bold" lengthAdjust="spacing" textLength="7" x="254.5" y="116.5615">6</text><text fill="#000000" font-family="sans-serif" font-size="13" lengthAdjust="spacing" textLength="75" x="265.5" y="116.5615">getInstance()</text><polygon fill="#181818" points="258.5,149.1152,248.5,153.1152,258.5,157.1152,254.5,153.1152" style="stroke:#181818;stroke-width:1.0;"/><line style="stroke:#181818;stroke-width:1.0;stroke-dasharray:2.0,2.0;" x1="252.5" x2="392.5" y1="153.1152" y2="153.1152"/><text fill="#000000" font-family="sans-serif" font-size="13" font-weight="bold" lengthAdjust="spacing" textLength="7" x="264.5" y="147.8525">7</text><text fill="#000000" font-family="sans-serif" font-size="13" lengthAdjust="spacing" textLength="67" x="275.5" y="147.8525">repositories</text><polygon fill="#181818" points="483.5,180.4063,493.5,184.4063,483.5,188.4063,487.5,184.4063" style="stroke:#181818;stroke-width:1.0;"/><line style="stroke:#181818;stroke-width:1.0;" x1="247.5" x2="489.5" y1="184.4063" y2="184.4063"/><text fill="#000000" font-family="sans-serif" font-size="13" font-weight="bold" lengthAdjust="spacing" textLength="7" x="254.5" y="179.1436">8</text><text fill="#000000" font-family="sans-serif" font-size="13" lengthAdjust="spacing" textLength="131" x="265.5" y="179.1436">getVehicleRepository()</text><polygon fill="#181818" points="258.5,211.6973,248.5,215.6973,258.5,219.6973,254.5,215.6973" style="stroke:#181818;stroke-width:1.0;"/><line style="stroke:#181818;stroke-width:1.0;" x1="252.5" x2="499.5" y1="215.6973" y2="215.6973"/><text fill="#000000" font-family="sans-serif" font-size="13" font-weight="bold" lengthAdjust="spacing" textLength="7" x="264.5" y="210.4346">9</text><text fill="#000000" font-family="sans-serif" font-size="13" lengthAdjust="spacing" textLength="101" x="275.5" y="210.4346">vehicleRepository</text><polygon fill="#181818" points="483.5,242.9883,493.5,246.9883,483.5,250.9883,487.5,246.9883" style="stroke:#181818;stroke-width:1.0;"/><line style="stroke:#181818;stroke-width:1.0;" x1="247.5" x2="489.5" y1="246.9883" y2="246.9883"/><text fill="#000000" font-family="sans-serif" font-size="13" font-weight="bold" lengthAdjust="spacing" textLength="14" x="254.5" y="241.7256">10</text><text fill="#000000" font-family="sans-serif" font-size="13" lengthAdjust="spacing" textLength="119" x="272.5" y="241.7256">getEntryRepository()</text><polygon fill="#181818" points="258.5,274.2793,248.5,278.2793,258.5,282.2793,254.5,278.2793" style="stroke:#181818;stroke-width:1.0;"/><line style="stroke:#181818;stroke-width:1.0;" x1="252.5" x2="499.5" y1="278.2793" y2="278.2793"/><text fill="#000000" font-family="sans-serif" font-size="13" font-weight="bold" lengthAdjust="spacing" textLength="14" x="264.5" y="273.0166">11</text><text fill="#000000" font-family="sans-serif" font-size="13" lengthAdjust="spacing" textLength="91" x="282.5" y="273.0166">entryRepository</text><polygon fill="#181818" points="787.5,305.5703,797.5,309.5703,787.5,313.5703,791.5,309.5703" style="stroke:#181818;stroke-width:1.0;"/><line style="stroke:#181818;stroke-width:1.0;" x1="247.5" x2="793.5" y1="309.5703" y2="309.5703"/><text fill="#000000" font-family="sans-serif" font-size="13" font-weight="bold" lengthAdjust="spacing" textLength="14" x="254.5" y="304.3076">12</text><text fill="#000000" font-family="sans-serif" font-size="13" lengthAdjust="spacing" textLength="90" x="272.5" y="304.3076">getVehicleList()</text><polygon fill="#181818" points="1176.5,336.8613,1186.5,340.8613,1176.5,344.8613,1180.5,340.8613" style="stroke:#181818;stroke-width:1.0;"/><line style="stroke:#181818;stroke-width:1.0;" x1="809.5" x2="1182.5" y1="340.8613" y2="340.8613"/><text fill="#000000" font-family="sans-serif" font-size="13" font-weight="bold" lengthAdjust="spacing" textLength="14" x="816.5" y="335.5986">13</text><text fill="#000000" font-family="sans-serif" font-size="13" lengthAdjust="spacing" textLength="36" x="834.5" y="335.5986">create</text><rect fill="#E3E3E3" height="32.6211" rx="2.5" ry="2.5" style="stroke:#181818;stroke-width:0.5;" width="158" x="1188.5" y="317.5703"/><text fill="#000000" font-family="sans-serif" font-size="14" lengthAdjust="spacing" textLength="144" x="1195.5" y="339.6777">agenda : List&lt;Vehicle&gt;</text><path d="M1180,366.1914 L1180,393.1914 L1354,393.1914 L1354,376.1914 L1344,366.1914 L1180,366.1914 " fill="#FAFAFA" style="stroke:#181818;stroke-width:0.5;"/><path d="M1344,366.1914 L1344,376.1914 L1354,376.1914 L1344,366.1914 " fill="#FAFAFA" style="stroke:#181818;stroke-width:0.5;"/><text fill="#000000" font-family="sans-serif" font-size="13" lengthAdjust="spacing" textLength="153" x="1186" y="385.2197">loop to populate is omitted</text><polygon fill="#181818" points="258.5,417.7734,248.5,421.7734,258.5,425.7734,254.5,421.7734" style="stroke:#181818;stroke-width:1.0;"/><line style="stroke:#181818;stroke-width:1.0;" x1="252.5" x2="803.5" y1="421.7734" y2="421.7734"/><text fill="#000000" font-family="sans-serif" font-size="13" font-weight="bold" lengthAdjust="spacing" textLength="14" x="264.5" y="416.5107">14</text><text fill="#000000" font-family="sans-serif" font-size="13" lengthAdjust="spacing" textLength="60" x="282.5" y="416.5107">vehicleList</text><polygon fill="#181818" points="601.5,449.0645,611.5,453.0645,601.5,457.0645,605.5,453.0645" style="stroke:#181818;stroke-width:1.0;"/><line style="stroke:#181818;stroke-width:1.0;" x1="247.5" x2="607.5" y1="453.0645" y2="453.0645"/><text fill="#000000" font-family="sans-serif" font-size="13" font-weight="bold" lengthAdjust="spacing" textLength="14" x="254.5" y="447.8018">15</text><text fill="#000000" font-family="sans-serif" font-size="13" lengthAdjust="spacing" textLength="276" x="272.5" y="447.8018">filterVehiclesNotUseInTime(entryDto,vehicleList)</text><line style="stroke:#181818;stroke-width:1.0;" x1="623.5" x2="670.5" y1="479.3555" y2="479.3555"/><line style="stroke:#181818;stroke-width:1.0;" x1="670.5" x2="670.5" y1="479.3555" y2="492.3555"/><line style="stroke:#181818;stroke-width:1.0;" x1="629.5" x2="670.5" y1="492.3555" y2="492.3555"/><polygon fill="#181818" points="639.5,488.3555,629.5,492.3555,639.5,496.3555,635.5,492.3555" style="stroke:#181818;stroke-width:1.0;"/><text fill="#000000" font-family="sans-serif" font-size="13" font-weight="bold" lengthAdjust="spacing" textLength="14" x="635.5" y="474.0928">16</text><text fill="#000000" font-family="sans-serif" font-size="13" lengthAdjust="spacing" textLength="144" x="653.5" y="474.0928">getEntryInTime(entryDto)</text><polygon fill="#181818" points="1681.5,524.6465,1691.5,528.6465,1681.5,532.6465,1685.5,528.6465" style="stroke:#181818;stroke-width:1.0;"/><line style="stroke:#181818;stroke-width:1.0;" x1="628.5" x2="1687.5" y1="528.6465" y2="528.6465"/><text fill="#000000" font-family="sans-serif" font-size="13" font-weight="bold" lengthAdjust="spacing" textLength="14" x="635.5" y="523.3838">17</text><text fill="#000000" font-family="sans-serif" font-size="13" lengthAdjust="spacing" textLength="90" x="653.5" y="523.3838">getVehicleList()</text><polygon fill="#181818" points="258.5,585.9375,248.5,589.9375,258.5,593.9375,254.5,589.9375" style="stroke:#181818;stroke-width:1.0;"/><line style="stroke:#181818;stroke-width:1.0;" x1="252.5" x2="617.5" y1="589.9375" y2="589.9375"/><text fill="#000000" font-family="sans-serif" font-size="13" font-weight="bold" lengthAdjust="spacing" textLength="14" x="264.5" y="584.6748">18</text><text fill="#000000" font-family="sans-serif" font-size="13" lengthAdjust="spacing" textLength="60" x="282.5" y="584.6748">vehicleList</text><polygon fill="#181818" points="1395.5,617.2285,1405.5,621.2285,1395.5,625.2285,1399.5,621.2285" style="stroke:#181818;stroke-width:1.0;"/><line style="stroke:#181818;stroke-width:1.0;" x1="247.5" x2="1401.5" y1="621.2285" y2="621.2285"/><text fill="#000000" font-family="sans-serif" font-size="13" font-weight="bold" lengthAdjust="spacing" textLength="14" x="254.5" y="615.9658">19</text><text fill="#000000" font-family="sans-serif" font-size="13" lengthAdjust="spacing" textLength="255" x="272.5" y="615.9658">vehicleListToVehicleDtoList(vehicleListFilter)</text><path d="M870.5,636.2285 L943.5,636.2285 L943.5,645.5195 L933.5,655.5195 L870.5,655.5195 L870.5,636.2285 " fill="#EEEEEE" style="stroke:#000000;stroke-width:1.5;"/><rect fill="none" height="291.0762" style="stroke:#000000;stroke-width:1.5;" width="833" x="870.5" y="636.2285"/><text fill="#000000" font-family="sans-serif" font-size="13" font-weight="bold" lengthAdjust="spacing" textLength="28" x="885.5" y="651.2568">loop</text><text fill="#000000" font-family="sans-serif" font-size="11" font-weight="bold" lengthAdjust="spacing" textLength="104" x="958.5" y="650.0986">[For every Vehicle]</text><polygon fill="#181818" points="1189.5,674.8105,1179.5,678.8105,1189.5,682.8105,1185.5,678.8105" style="stroke:#181818;stroke-width:1.0;"/><line style="stroke:#181818;stroke-width:1.0;" x1="1183.5" x2="1406.5" y1="678.8105" y2="678.8105"/><text fill="#000000" font-family="sans-serif" font-size="13" font-weight="bold" lengthAdjust="spacing" textLength="14" x="1195.5" y="673.5479">20</text><text fill="#000000" font-family="sans-serif" font-size="13" lengthAdjust="spacing" textLength="36" x="1213.5" y="673.5479">create</text><rect fill="#E3E3E3" height="32.6211" rx="2.5" ry="2.5" style="stroke:#181818;stroke-width:0.5;" width="202" x="976.5" y="655.5195"/><text fill="#000000" font-family="sans-serif" font-size="14" lengthAdjust="spacing" textLength="188" x="983.5" y="677.627">agendaDto : List&lt;VehicleDto&gt;</text><line style="stroke:#181818;stroke-width:1.0;" x1="1417.5" x2="1464.5" y1="717.4316" y2="717.4316"/><line style="stroke:#181818;stroke-width:1.0;" x1="1464.5" x2="1464.5" y1="717.4316" y2="730.4316"/><line style="stroke:#181818;stroke-width:1.0;" x1="1423.5" x2="1464.5" y1="730.4316" y2="730.4316"/><polygon fill="#181818" points="1433.5,726.4316,1423.5,730.4316,1433.5,734.4316,1429.5,730.4316" style="stroke:#181818;stroke-width:1.0;"/><text fill="#000000" font-family="sans-serif" font-size="13" font-weight="bold" lengthAdjust="spacing" textLength="14" x="1429.5" y="712.1689">21</text><text fill="#000000" font-family="sans-serif" font-size="13" lengthAdjust="spacing" textLength="244" x="1447.5" y="712.1689">vehicleDTO = vehicleToVehicleDto(vehicle)</text><polygon fill="#181818" points="1283.5,762.7227,1273.5,766.7227,1283.5,770.7227,1279.5,766.7227" style="stroke:#181818;stroke-width:1.0;"/><line style="stroke:#181818;stroke-width:1.0;" x1="1277.5" x2="1411.5" y1="766.7227" y2="766.7227"/><text fill="#000000" font-family="sans-serif" font-size="13" font-weight="bold" lengthAdjust="spacing" textLength="14" x="1289.5" y="761.46">22</text><text fill="#000000" font-family="sans-serif" font-size="13" lengthAdjust="spacing" textLength="84" x="1307.5" y="761.46">vehicle = get(i)</text><polygon fill="#181818" points="939.5,824.0137,929.5,828.0137,939.5,832.0137,935.5,828.0137" style="stroke:#181818;stroke-width:1.0;"/><line style="stroke:#181818;stroke-width:1.0;" x1="933.5" x2="1411.5" y1="828.0137" y2="828.0137"/><text fill="#000000" font-family="sans-serif" font-size="13" font-weight="bold" lengthAdjust="spacing" textLength="14" x="945.5" y="822.751">23</text><text fill="#000000" font-family="sans-serif" font-size="13" lengthAdjust="spacing" textLength="56" x="963.5" y="822.751">create(...)</text><polygon fill="#181818" points="1093.5,885.3047,1083.5,889.3047,1093.5,893.3047,1089.5,889.3047" style="stroke:#181818;stroke-width:1.0;"/><line style="stroke:#181818;stroke-width:1.0;" x1="1087.5" x2="1406.5" y1="889.3047" y2="889.3047"/><text fill="#000000" font-family="sans-serif" font-size="13" font-weight="bold" lengthAdjust="spacing" textLength="14" x="1099.5" y="884.042">24</text><text fill="#000000" font-family="sans-serif" font-size="13" lengthAdjust="spacing" textLength="88" x="1117.5" y="884.042">add(vehicleDto)</text><polygon fill="#181818" points="258.5,953.5957,248.5,957.5957,258.5,961.5957,254.5,957.5957" style="stroke:#181818;stroke-width:1.0;"/><line style="stroke:#181818;stroke-width:1.0;" x1="252.5" x2="1411.5" y1="957.5957" y2="957.5957"/><text fill="#000000" font-family="sans-serif" font-size="13" font-weight="bold" lengthAdjust="spacing" textLength="14" x="264.5" y="952.333">25</text><text fill="#000000" font-family="sans-serif" font-size="13" lengthAdjust="spacing" textLength="80" x="282.5" y="952.333">vehicleDtoList</text><polygon fill="#181818" points="11,984.8867,1,988.8867,11,992.8867,7,988.8867" style="stroke:#181818;stroke-width:1.0;"/><line style="stroke:#181818;stroke-width:1.0;stroke-dasharray:2.0,2.0;" x1="5" x2="241.5" y1="988.8867" y2="988.8867"/><text fill="#000000" font-family="sans-serif" font-size="13" font-weight="bold" lengthAdjust="spacing" textLength="14" x="17" y="983.624">15</text><text fill="#000000" font-family="sans-serif" font-size="13" lengthAdjust="spacing" textLength="80" x="35" y="983.624">vehicleDtoList</text><!--SRC=[rLZVJzim47xtNs7nie9Mf4tYfG8aHelK2KPL2azxCSdHMYHsPBkm_lSxkqdhE64WnT4sFrIgS_VTh-_EJlGp5mLJBAUv539PAPa3DMeDHE-U52nvPakuCviCg8B4CB7CV06zOgbyvM99drYcWH2sDbAiyqTGX7nQyHJeavJcKVuYXA2AuGalc33qOFJ0uNKCXl5CJuHHc_lf0MMQta-_lYDuAV5NPXaeft2vc5-7AdCefEP6AWxQ2UqsDdVSXe1ErbMKf_5JD05crnUBkWPON_Qug3IfxpYzOAyEyG8hdcHG0ta8znnCOxUHpQt0s4WdVmSPLWlIyUAsBeZL52b3CJgYrroRqxtYkTEqc-ze1wfDlNRVRbXHb3Mh16ykPhF9F11tANDYjz- -4vzIz8GCpxS5Hn-MO4faQticjUQF6Ln9vG06XuIsBPOO_i8CbBmXxLAb4RJMmfojxQdGs0u9l6NeesldK1j7kq7RrUR_iChYYFgyxsOiXHuZsPN3zc6jzdjRqGhXUhqRbdFJusgZqwFbUkjizEm6S-jVpcqmY2DdDavY6sHjpAze6MuvAZe1Drt7UFnfVtI4mIGAq7X7KqAY__851xsFZ-YPb0N5CwkGnJgpGN9DPSwDFMj87_45VMlTYSQhs0NQaIpeMNJ_YMS6L6bG_v3cNiDKB7WE0zSrUEf_zaACHS7mqjCDDWoh9L9lPWNX_JSXuLsdlvbWBrAnwEikPR6ZxxFVufRkJy2H-hX-EwvdPI7t5tP74U_PbUlsM9m9xkXk1EFbcWBEvqqrnBhP2W8DpXLy-wWTBIIsiRVoZ8RfMVN7JtYLx9vIJFhBvJuuZ0o7p80VTd-rw1HxxNtnhxZYTNBDcRvePcbLiNbmV7mScqNsRJtQRFD1OsF6eFlximDppTAqQjc8Lu7m2qaV9DpYWaXZ9oauQCjJfBSIbujwtt2-d3XhfyFXHvpniAiFDdRz1W00]--></g></svg>