<?xml version="1.0" encoding="us-ascii" standalone="no"?><svg xmlns="http://www.w3.org/2000/svg" xmlns:xlink="http://www.w3.org/1999/xlink" contentStyleType="text/css" height="1957px" preserveAspectRatio="none" style="width:2978px;height:1957px;background:#FFFFFF;" version="1.1" viewBox="0 0 2978 1957" width="2978px" zoomAndPan="magnify"><defs/><g><rect fill="#FFFFFF" height="1770.541" style="stroke:#181818;stroke-width:1.0;" width="10" x="33.5" y="93.6211"/><rect fill="#FFFFFF" height="185.7461" style="stroke:#181818;stroke-width:1.0;" width="10" x="342.5" y="116.9121"/><rect fill="#FFFFFF" height="31.291" style="stroke:#181818;stroke-width:1.0;" width="10" x="342.5" y="333.9492"/><rect fill="#FFFFFF" height="1072.1387" style="stroke:#181818;stroke-width:1.0;" width="10" x="494" y="375.2402"/><rect fill="#FFFFFF" height="344.2012" style="stroke:#181818;stroke-width:1.0;" width="10" x="494" y="1504.9609"/><rect fill="#FFFFFF" height="79.543" style="stroke:#181818;stroke-width:1.0;" width="10" x="636" y="191.8242"/><rect fill="#FFFFFF" height="963.6055" style="stroke:#181818;stroke-width:1.0;" width="10" x="803" y="452.4824"/><rect fill="#FFFFFF" height="281.6191" style="stroke:#181818;stroke-width:1.0;" width="10" x="803" y="1536.252"/><rect fill="#FFFFFF" height="31.291" style="stroke:#181818;stroke-width:1.0;" width="10" x="954" y="483.7734"/><rect fill="#FFFFFF" height="31.291" style="stroke:#181818;stroke-width:1.0;" width="10" x="1061" y="546.3555"/><rect fill="#FFFFFF" height="31.291" style="stroke:#181818;stroke-width:1.0;" width="10" x="1061" y="608.9375"/><rect fill="#FFFFFF" height="202.125" style="stroke:#181818;stroke-width:1.0;" width="10" x="1179" y="815.0137"/><rect fill="#FFFFFF" height="219.0371" style="stroke:#181818;stroke-width:1.0;" width="10" x="1179" y="1567.543"/><rect fill="#FFFFFF" height="112.2031" style="stroke:#181818;stroke-width:1.0;" width="10" x="1314.5" y="671.5195"/><rect fill="#FFFFFF" height="30" style="stroke:#181818;stroke-width:1.0;" width="10" x="1507.5" y="1255.2148"/><rect fill="#FFFFFF" height="30" style="stroke:#181818;stroke-width:1.0;" width="10" x="1661.5" y="1316.5059"/><rect fill="#FFFFFF" height="30" style="stroke:#181818;stroke-width:1.0;" width="10" x="1851.5" y="1193.9238"/><rect fill="#FFFFFF" height="336.3672" style="stroke:#181818;stroke-width:1.0;" width="10" x="1996.5" y="1048.4297"/><rect fill="#FFFFFF" height="127.582" style="stroke:#181818;stroke-width:1.0;" width="10" x="2001.5" y="1157.6328"/><rect fill="#FFFFFF" height="31.291" style="stroke:#181818;stroke-width:1.0;" width="10" x="1996.5" y="1630.125"/><rect fill="#FFFFFF" height="30" style="stroke:#181818;stroke-width:1.0;" width="10" x="2282.5" y="955.8477"/><rect fill="#FFFFFF" height="31.291" style="stroke:#181818;stroke-width:1.0;" width="10" x="2282.5" y="1692.707"/><rect fill="#FFFFFF" height="156.4551" style="stroke:#181818;stroke-width:1.0;" width="10" x="2462.5" y="1598.834"/><rect fill="#FFFFFF" height="30" style="stroke:#181818;stroke-width:1.0;" width="10" x="2918.5" y="846.3047"/><rect fill="none" height="247.4551" style="stroke:#000000;stroke-width:1.5;" width="833" x="1459.5" y="1107.0508"/><rect fill="none" height="394.7832" style="stroke:#000000;stroke-width:1.5;" width="2517" x="10" y="1462.3789"/><line style="stroke:#181818;stroke-width:0.5;stroke-dasharray:5.0,5.0;" x1="38" x2="38" y1="83.6211" y2="1874.1621"/><line style="stroke:#181818;stroke-width:0.5;stroke-dasharray:5.0,5.0;" x1="347" x2="347" y1="83.6211" y2="1874.1621"/><line style="stroke:#181818;stroke-width:0.5;stroke-dasharray:5.0,5.0;" x1="498.5" x2="498.5" y1="373.7598" y2="1874.1621"/><line style="stroke:#181818;stroke-width:0.5;stroke-dasharray:5.0,5.0;" x1="640.5" x2="640.5" y1="156.7227" y2="1874.1621"/><line style="stroke:#181818;stroke-width:0.5;stroke-dasharray:5.0,5.0;" x1="807.5" x2="807.5" y1="417.3809" y2="1874.1621"/><line style="stroke:#181818;stroke-width:0.5;stroke-dasharray:5.0,5.0;" x1="958.5" x2="958.5" y1="83.6211" y2="1874.1621"/><line style="stroke:#181818;stroke-width:0.5;stroke-dasharray:5.0,5.0;" x1="1065.5" x2="1065.5" y1="83.6211" y2="1874.1621"/><line style="stroke:#181818;stroke-width:0.5;stroke-dasharray:5.0,5.0;" x1="1183.5" x2="1183.5" y1="83.6211" y2="1874.1621"/><line style="stroke:#181818;stroke-width:0.5;stroke-dasharray:5.0,5.0;" x1="1319.5" x2="1319.5" y1="83.6211" y2="1874.1621"/><line style="stroke:#181818;stroke-width:0.5;stroke-dasharray:5.0,5.0;" x1="1427.5" x2="1427.5" y1="83.6211" y2="1874.1621"/><line style="stroke:#181818;stroke-width:0.5;stroke-dasharray:5.0,5.0;" x1="1512.5" x2="1512.5" y1="83.6211" y2="1874.1621"/><line style="stroke:#181818;stroke-width:0.5;stroke-dasharray:5.0,5.0;" x1="1666.5" x2="1666.5" y1="1088.2402" y2="1874.1621"/><line style="stroke:#181818;stroke-width:0.5;stroke-dasharray:5.0,5.0;" x1="1856.5" x2="1856.5" y1="711.3301" y2="1874.1621"/><line style="stroke:#181818;stroke-width:0.5;stroke-dasharray:5.0,5.0;" x1="2001.5" x2="2001.5" y1="83.6211" y2="1874.1621"/><line style="stroke:#181818;stroke-width:0.5;stroke-dasharray:5.0,5.0;" x1="2287" x2="2287" y1="83.6211" y2="1874.1621"/><line style="stroke:#181818;stroke-width:0.5;stroke-dasharray:5.0,5.0;" x1="2359" x2="2359" y1="83.6211" y2="1874.1621"/><line style="stroke:#181818;stroke-width:0.5;stroke-dasharray:5.0,5.0;" x1="2467" x2="2467" y1="83.6211" y2="1874.1621"/><line style="stroke:#181818;stroke-width:0.5;stroke-dasharray:5.0,5.0;" x1="2621" x2="2621" y1="83.6211" y2="1874.1621"/><line style="stroke:#181818;stroke-width:0.5;stroke-dasharray:5.0,5.0;" x1="2798" x2="2798" y1="83.6211" y2="1874.1621"/><line style="stroke:#181818;stroke-width:0.5;stroke-dasharray:5.0,5.0;" x1="2923" x2="2923" y1="83.6211" y2="1874.1621"/><text fill="#000000" font-family="sans-serif" font-size="14" lengthAdjust="spacing" textLength="31" x="20" y="80.1074">GSM</text><ellipse cx="38.5" cy="13.5" fill="#E3E3E3" rx="8" ry="8" style="stroke:#181818;stroke-width:0.5;"/><path d="M38.5,21.5 L38.5,48.5 M25.5,29.5 L51.5,29.5 M38.5,48.5 L25.5,63.5 M38.5,48.5 L51.5,63.5 " fill="none" style="stroke:#181818;stroke-width:0.5;"/><text fill="#000000" font-family="sans-serif" font-size="14" lengthAdjust="spacing" textLength="31" x="20" y="1888.2695">GSM</text><ellipse cx="38.5" cy="1900.2832" fill="#E3E3E3" rx="8" ry="8" style="stroke:#181818;stroke-width:0.5;"/><path d="M38.5,1908.2832 L38.5,1935.2832 M25.5,1916.2832 L51.5,1916.2832 M38.5,1935.2832 L25.5,1950.2832 M38.5,1935.2832 L51.5,1950.2832 " fill="none" style="stroke:#181818;stroke-width:0.5;"/><rect fill="#E3E3E3" height="32.6211" rx="2.5" ry="2.5" style="stroke:#181818;stroke-width:0.5;" width="79" x="308" y="50"/><text fill="#000000" font-family="sans-serif" font-size="14" lengthAdjust="spacing" textLength="65" x="315" y="72.1074">:AgendaUI</text><rect fill="#E3E3E3" height="32.6211" rx="2.5" ry="2.5" style="stroke:#181818;stroke-width:0.5;" width="79" x="308" y="1873.1621"/><text fill="#000000" font-family="sans-serif" font-size="14" lengthAdjust="spacing" textLength="65" x="315" y="1895.2695">:AgendaUI</text><rect fill="#E3E3E3" height="32.6211" rx="2.5" ry="2.5" style="stroke:#181818;stroke-width:0.5;" width="135" x="431.5" y="1873.1621"/><text fill="#000000" font-family="sans-serif" font-size="14" lengthAdjust="spacing" textLength="121" x="438.5" y="1895.2695">:ViewDetailsEntryUI</text><rect fill="#E3E3E3" height="32.6211" rx="2.5" ry="2.5" style="stroke:#181818;stroke-width:0.5;" width="129" x="576.5" y="1873.1621"/><text fill="#000000" font-family="sans-serif" font-size="14" lengthAdjust="spacing" textLength="115" x="583.5" y="1895.2695">:AgendaController</text><rect fill="#E3E3E3" height="32.6211" rx="2.5" ry="2.5" style="stroke:#181818;stroke-width:0.5;" width="185" x="715.5" y="1873.1621"/><text fill="#000000" font-family="sans-serif" font-size="14" lengthAdjust="spacing" textLength="171" x="722.5" y="1895.2695">:ViewDetailsEntryController</text><rect fill="#E3E3E3" height="32.6211" rx="2.5" ry="2.5" style="stroke:#181818;stroke-width:0.5;" width="97" x="910.5" y="50"/><text fill="#000000" font-family="sans-serif" font-size="14" lengthAdjust="spacing" textLength="83" x="917.5" y="72.1074">:Repositories</text><rect fill="#E3E3E3" height="32.6211" rx="2.5" ry="2.5" style="stroke:#181818;stroke-width:0.5;" width="97" x="910.5" y="1873.1621"/><text fill="#000000" font-family="sans-serif" font-size="14" lengthAdjust="spacing" textLength="83" x="917.5" y="1895.2695">:Repositories</text><rect fill="#E3E3E3" height="51.2422" rx="2.5" ry="2.5" style="stroke:#181818;stroke-width:0.5;" width="97" x="1017.5" y="31.3789"/><text fill="#000000" font-family="sans-serif" font-size="14" lengthAdjust="spacing" textLength="74" x="1029" y="53.4863">repositories</text><text fill="#000000" font-family="sans-serif" font-size="14" lengthAdjust="spacing" textLength="83" x="1024.5" y="72.1074">:Repositories</text><rect fill="#E3E3E3" height="51.2422" rx="2.5" ry="2.5" style="stroke:#181818;stroke-width:0.5;" width="97" x="1017.5" y="1873.1621"/><text fill="#000000" font-family="sans-serif" font-size="14" lengthAdjust="spacing" textLength="74" x="1029" y="1895.2695">repositories</text><text fill="#000000" font-family="sans-serif" font-size="14" lengthAdjust="spacing" textLength="83" x="1024.5" y="1913.8906">:Repositories</text><rect fill="#E3E3E3" height="51.2422" rx="2.5" ry="2.5" style="stroke:#181818;stroke-width:0.5;" width="119" x="1124.5" y="31.3789"/><text fill="#000000" font-family="sans-serif" font-size="14" lengthAdjust="spacing" textLength="100" x="1134" y="53.4863">entryRepository</text><text fill="#000000" font-family="sans-serif" font-size="14" lengthAdjust="spacing" textLength="105" x="1131.5" y="72.1074">:EntryRepository</text><rect fill="#E3E3E3" height="51.2422" rx="2.5" ry="2.5" style="stroke:#181818;stroke-width:0.5;" width="119" x="1124.5" y="1873.1621"/><text fill="#000000" font-family="sans-serif" font-size="14" lengthAdjust="spacing" textLength="100" x="1134" y="1895.2695">entryRepository</text><text fill="#000000" font-family="sans-serif" font-size="14" lengthAdjust="spacing" textLength="105" x="1131.5" y="1913.8906">:EntryRepository</text><rect fill="#E3E3E3" height="51.2422" rx="2.5" ry="2.5" style="stroke:#181818;stroke-width:0.5;" width="132" x="1253.5" y="31.3789"/><text fill="#000000" font-family="sans-serif" font-size="14" lengthAdjust="spacing" textLength="112" x="1263.5" y="53.4863">vehicleRepository</text><text fill="#000000" font-family="sans-serif" font-size="14" lengthAdjust="spacing" textLength="118" x="1260.5" y="72.1074">:VehicleRepository</text><rect fill="#E3E3E3" height="51.2422" rx="2.5" ry="2.5" style="stroke:#181818;stroke-width:0.5;" width="132" x="1253.5" y="1873.1621"/><text fill="#000000" font-family="sans-serif" font-size="14" lengthAdjust="spacing" textLength="112" x="1263.5" y="1895.2695">vehicleRepository</text><text fill="#000000" font-family="sans-serif" font-size="14" lengthAdjust="spacing" textLength="118" x="1260.5" y="1913.8906">:VehicleRepository</text><rect fill="#E3E3E3" height="32.6211" rx="2.5" ry="2.5" style="stroke:#181818;stroke-width:0.5;" width="64" x="1395.5" y="50"/><text fill="#000000" font-family="sans-serif" font-size="14" lengthAdjust="spacing" textLength="50" x="1402.5" y="72.1074">:Vehicle</text><rect fill="#E3E3E3" height="32.6211" rx="2.5" ry="2.5" style="stroke:#181818;stroke-width:0.5;" width="64" x="1395.5" y="1873.1621"/><text fill="#000000" font-family="sans-serif" font-size="14" lengthAdjust="spacing" textLength="50" x="1402.5" y="1895.2695">:Vehicle</text><rect fill="#E3E3E3" height="32.6211" rx="2.5" ry="2.5" style="stroke:#181818;stroke-width:0.5;" width="86" x="1469.5" y="50"/><text fill="#000000" font-family="sans-serif" font-size="14" lengthAdjust="spacing" textLength="72" x="1476.5" y="72.1074">:VehicleDto</text><rect fill="#E3E3E3" height="32.6211" rx="2.5" ry="2.5" style="stroke:#181818;stroke-width:0.5;" width="86" x="1469.5" y="1873.1621"/><text fill="#000000" font-family="sans-serif" font-size="14" lengthAdjust="spacing" textLength="72" x="1476.5" y="1895.2695">:VehicleDto</text><rect fill="#E3E3E3" height="32.6211" rx="2.5" ry="2.5" style="stroke:#181818;stroke-width:0.5;" width="202" x="1565.5" y="1873.1621"/><text fill="#000000" font-family="sans-serif" font-size="14" lengthAdjust="spacing" textLength="188" x="1572.5" y="1895.2695">agendaDto : List&lt;VehicleDto&gt;</text><rect fill="#E3E3E3" height="32.6211" rx="2.5" ry="2.5" style="stroke:#181818;stroke-width:0.5;" width="158" x="1777.5" y="1873.1621"/><text fill="#000000" font-family="sans-serif" font-size="14" lengthAdjust="spacing" textLength="144" x="1784.5" y="1895.2695">agenda : List&lt;Vehicle&gt;</text><rect fill="#E3E3E3" height="32.6211" rx="2.5" ry="2.5" style="stroke:#181818;stroke-width:0.5;" width="112" x="1945.5" y="50"/><text fill="#000000" font-family="sans-serif" font-size="14" lengthAdjust="spacing" textLength="98" x="1952.5" y="72.1074">:VehicleMapper</text><rect fill="#E3E3E3" height="32.6211" rx="2.5" ry="2.5" style="stroke:#181818;stroke-width:0.5;" width="112" x="1945.5" y="1873.1621"/><text fill="#000000" font-family="sans-serif" font-size="14" lengthAdjust="spacing" textLength="98" x="1952.5" y="1895.2695">:VehicleMapper</text><rect fill="#E3E3E3" height="32.6211" rx="2.5" ry="2.5" style="stroke:#181818;stroke-width:0.5;" width="51" x="2262" y="50"/><text fill="#000000" font-family="sans-serif" font-size="14" lengthAdjust="spacing" textLength="37" x="2269" y="72.1074">:Entry</text><rect fill="#E3E3E3" height="32.6211" rx="2.5" ry="2.5" style="stroke:#181818;stroke-width:0.5;" width="51" x="2262" y="1873.1621"/><text fill="#000000" font-family="sans-serif" font-size="14" lengthAdjust="spacing" textLength="37" x="2269" y="1895.2695">:Entry</text><rect fill="#E3E3E3" height="32.6211" rx="2.5" ry="2.5" style="stroke:#181818;stroke-width:0.5;" width="73" x="2323" y="50"/><text fill="#000000" font-family="sans-serif" font-size="14" lengthAdjust="spacing" textLength="59" x="2330" y="72.1074">:EntryDto</text><rect fill="#E3E3E3" height="32.6211" rx="2.5" ry="2.5" style="stroke:#181818;stroke-width:0.5;" width="73" x="2323" y="1873.1621"/><text fill="#000000" font-family="sans-serif" font-size="14" lengthAdjust="spacing" textLength="59" x="2330" y="1895.2695">:EntryDto</text><rect fill="#E3E3E3" height="32.6211" rx="2.5" ry="2.5" style="stroke:#181818;stroke-width:0.5;" width="99" x="2418" y="50"/><text fill="#000000" font-family="sans-serif" font-size="14" lengthAdjust="spacing" textLength="85" x="2425" y="72.1074">:EntryMapper</text><rect fill="#E3E3E3" height="32.6211" rx="2.5" ry="2.5" style="stroke:#181818;stroke-width:0.5;" width="99" x="2418" y="1873.1621"/><text fill="#000000" font-family="sans-serif" font-size="14" lengthAdjust="spacing" textLength="85" x="2425" y="1895.2695">:EntryMapper</text><rect fill="#E3E3E3" height="32.6211" rx="2.5" ry="2.5" style="stroke:#181818;stroke-width:0.5;" width="189" x="2527" y="50"/><text fill="#000000" font-family="sans-serif" font-size="14" lengthAdjust="spacing" textLength="175" x="2534" y="72.1074">agendaDto : List&lt;EntryDto&gt;</text><rect fill="#E3E3E3" height="32.6211" rx="2.5" ry="2.5" style="stroke:#181818;stroke-width:0.5;" width="189" x="2527" y="1873.1621"/><text fill="#000000" font-family="sans-serif" font-size="14" lengthAdjust="spacing" textLength="175" x="2534" y="1895.2695">agendaDto : List&lt;EntryDto&gt;</text><rect fill="#E3E3E3" height="32.6211" rx="2.5" ry="2.5" style="stroke:#181818;stroke-width:0.5;" width="145" x="2726" y="50"/><text fill="#000000" font-family="sans-serif" font-size="14" lengthAdjust="spacing" textLength="131" x="2733" y="72.1074">agenda : List&lt;Entry&gt;</text><rect fill="#E3E3E3" height="32.6211" rx="2.5" ry="2.5" style="stroke:#181818;stroke-width:0.5;" width="145" x="2726" y="1873.1621"/><text fill="#000000" font-family="sans-serif" font-size="14" lengthAdjust="spacing" textLength="131" x="2733" y="1895.2695">agenda : List&lt;Entry&gt;</text><rect fill="#E3E3E3" height="32.6211" rx="2.5" ry="2.5" style="stroke:#181818;stroke-width:0.5;" width="85" x="2881" y="50"/><text fill="#000000" font-family="sans-serif" font-size="14" lengthAdjust="spacing" textLength="71" x="2888" y="72.1074">AgendaList</text><rect fill="#E3E3E3" height="32.6211" rx="2.5" ry="2.5" style="stroke:#181818;stroke-width:0.5;" width="85" x="2881" y="1873.1621"/><text fill="#000000" font-family="sans-serif" font-size="14" lengthAdjust="spacing" textLength="71" x="2888" y="1895.2695">AgendaList</text><rect fill="#FFFFFF" height="1770.541" style="stroke:#181818;stroke-width:1.0;" width="10" x="33.5" y="93.6211"/><rect fill="#FFFFFF" height="185.7461" style="stroke:#181818;stroke-width:1.0;" width="10" x="342.5" y="116.9121"/><rect fill="#FFFFFF" height="31.291" style="stroke:#181818;stroke-width:1.0;" width="10" x="342.5" y="333.9492"/><rect fill="#FFFFFF" height="1072.1387" style="stroke:#181818;stroke-width:1.0;" width="10" x="494" y="375.2402"/><rect fill="#FFFFFF" height="344.2012" style="stroke:#181818;stroke-width:1.0;" width="10" x="494" y="1504.9609"/><rect fill="#FFFFFF" height="79.543" style="stroke:#181818;stroke-width:1.0;" width="10" x="636" y="191.8242"/><rect fill="#FFFFFF" height="963.6055" style="stroke:#181818;stroke-width:1.0;" width="10" x="803" y="452.4824"/><rect fill="#FFFFFF" height="281.6191" style="stroke:#181818;stroke-width:1.0;" width="10" x="803" y="1536.252"/><rect fill="#FFFFFF" height="31.291" style="stroke:#181818;stroke-width:1.0;" width="10" x="954" y="483.7734"/><rect fill="#FFFFFF" height="31.291" style="stroke:#181818;stroke-width:1.0;" width="10" x="1061" y="546.3555"/><rect fill="#FFFFFF" height="31.291" style="stroke:#181818;stroke-width:1.0;" width="10" x="1061" y="608.9375"/><rect fill="#FFFFFF" height="202.125" style="stroke:#181818;stroke-width:1.0;" width="10" x="1179" y="815.0137"/><rect fill="#FFFFFF" height="219.0371" style="stroke:#181818;stroke-width:1.0;" width="10" x="1179" y="1567.543"/><rect fill="#FFFFFF" height="112.2031" style="stroke:#181818;stroke-width:1.0;" width="10" x="1314.5" y="671.5195"/><rect fill="#FFFFFF" height="30" style="stroke:#181818;stroke-width:1.0;" width="10" x="1507.5" y="1255.2148"/><rect fill="#FFFFFF" height="30" style="stroke:#181818;stroke-width:1.0;" width="10" x="1661.5" y="1316.5059"/><rect fill="#FFFFFF" height="30" style="stroke:#181818;stroke-width:1.0;" width="10" x="1851.5" y="1193.9238"/><rect fill="#FFFFFF" height="336.3672" style="stroke:#181818;stroke-width:1.0;" width="10" x="1996.5" y="1048.4297"/><rect fill="#FFFFFF" height="127.582" style="stroke:#181818;stroke-width:1.0;" width="10" x="2001.5" y="1157.6328"/><rect fill="#FFFFFF" height="31.291" style="stroke:#181818;stroke-width:1.0;" width="10" x="1996.5" y="1630.125"/><rect fill="#FFFFFF" height="30" style="stroke:#181818;stroke-width:1.0;" width="10" x="2282.5" y="955.8477"/><rect fill="#FFFFFF" height="31.291" style="stroke:#181818;stroke-width:1.0;" width="10" x="2282.5" y="1692.707"/><rect fill="#FFFFFF" height="156.4551" style="stroke:#181818;stroke-width:1.0;" width="10" x="2462.5" y="1598.834"/><rect fill="#FFFFFF" height="30" style="stroke:#181818;stroke-width:1.0;" width="10" x="2918.5" y="846.3047"/><polygon fill="#181818" points="330.5,112.9121,340.5,116.9121,330.5,120.9121,334.5,116.9121" style="stroke:#181818;stroke-width:1.0;"/><line style="stroke:#181818;stroke-width:1.0;" x1="43.5" x2="336.5" y1="116.9121" y2="116.9121"/><text fill="#000000" font-family="sans-serif" font-size="13" font-weight="bold" lengthAdjust="spacing" textLength="7" x="50.5" y="111.6494">1</text><text fill="#000000" font-family="sans-serif" font-size="13" lengthAdjust="spacing" textLength="269" x="61.5" y="111.6494">asks to assign a vehicle to an Entry in Agenda</text><polygon fill="#181818" points="564.5,144.2031,574.5,148.2031,564.5,152.2031,568.5,148.2031" style="stroke:#181818;stroke-width:1.0;"/><line style="stroke:#181818;stroke-width:1.0;" x1="352.5" x2="570.5" y1="148.2031" y2="148.2031"/><text fill="#000000" font-family="sans-serif" font-size="13" font-weight="bold" lengthAdjust="spacing" textLength="7" x="359.5" y="142.9404">2</text><text fill="#000000" font-family="sans-serif" font-size="13" lengthAdjust="spacing" textLength="44" x="370.5" y="142.9404">create()</text><rect fill="#E3E3E3" height="32.6211" rx="2.5" ry="2.5" style="stroke:#181818;stroke-width:0.5;" width="129" x="576.5" y="124.9121"/><text fill="#000000" font-family="sans-serif" font-size="14" lengthAdjust="spacing" textLength="115" x="583.5" y="147.0195">:AgendaController</text><polygon fill="#181818" points="624,187.8242,634,191.8242,624,195.8242,628,191.8242" style="stroke:#181818;stroke-width:1.0;"/><line style="stroke:#181818;stroke-width:1.0;" x1="352.5" x2="630" y1="191.8242" y2="191.8242"/><text fill="#000000" font-family="sans-serif" font-size="13" font-weight="bold" lengthAdjust="spacing" textLength="7" x="359.5" y="186.5615">3</text><text fill="#000000" font-family="sans-serif" font-size="13" lengthAdjust="spacing" textLength="91" x="370.5" y="186.5615">getAgendaList()</text><rect fill="none" height="43.252" style="stroke:#000000;stroke-width:1.5;" width="135" x="573.5" y="199.8242"/><path d="M573.5,199.8242 L635.5,199.8242 L635.5,208.8242 L625.5,218.8242 L573.5,218.8242 L573.5,199.8242 " fill="#EEEEEE" style="stroke:#000000;stroke-width:2.0;"/><text fill="#000000" font-family="sans-serif" font-size="13" font-weight="bold" lengthAdjust="spacing" textLength="17" x="586.5" y="215.8525">ref</text><text fill="#000000" font-family="sans-serif" font-size="12" lengthAdjust="spacing" textLength="126" x="578" y="235.7734">Get Agenda Entry's List</text><polygon fill="#181818" points="363.5,267.3672,353.5,271.3672,363.5,275.3672,359.5,271.3672" style="stroke:#181818;stroke-width:1.0;"/><line style="stroke:#181818;stroke-width:1.0;" x1="357.5" x2="640" y1="271.3672" y2="271.3672"/><text fill="#000000" font-family="sans-serif" font-size="13" font-weight="bold" lengthAdjust="spacing" textLength="7" x="369.5" y="266.1045">4</text><text fill="#000000" font-family="sans-serif" font-size="13" lengthAdjust="spacing" textLength="62" x="380.5" y="266.1045">agendaDto</text><polygon fill="#181818" points="54.5,298.6582,44.5,302.6582,54.5,306.6582,50.5,302.6582" style="stroke:#181818;stroke-width:1.0;"/><line style="stroke:#181818;stroke-width:1.0;" x1="48.5" x2="346.5" y1="302.6582" y2="302.6582"/><text fill="#000000" font-family="sans-serif" font-size="13" font-weight="bold" lengthAdjust="spacing" textLength="7" x="60.5" y="297.3955">5</text><text fill="#000000" font-family="sans-serif" font-size="13" lengthAdjust="spacing" textLength="244" x="71.5" y="297.3955">show Agenda and wait to select one Entry</text><polygon fill="#181818" points="330.5,329.9492,340.5,333.9492,330.5,337.9492,334.5,333.9492" style="stroke:#181818;stroke-width:1.0;"/><line style="stroke:#181818;stroke-width:1.0;stroke-dasharray:2.0,2.0;" x1="43.5" x2="336.5" y1="333.9492" y2="333.9492"/><text fill="#000000" font-family="sans-serif" font-size="13" font-weight="bold" lengthAdjust="spacing" textLength="7" x="50.5" y="328.6865">6</text><text fill="#000000" font-family="sans-serif" font-size="13" lengthAdjust="spacing" textLength="95" x="61.5" y="328.6865">select one Entry</text><polygon fill="#181818" points="419.5,361.2402,429.5,365.2402,419.5,369.2402,423.5,365.2402" style="stroke:#181818;stroke-width:1.0;"/><line style="stroke:#181818;stroke-width:1.0;stroke-dasharray:2.0,2.0;" x1="347.5" x2="425.5" y1="365.2402" y2="365.2402"/><text fill="#000000" font-family="sans-serif" font-size="13" font-weight="bold" lengthAdjust="spacing" textLength="7" x="354.5" y="359.9775">7</text><text fill="#000000" font-family="sans-serif" font-size="13" lengthAdjust="spacing" textLength="44" x="365.5" y="359.9775">create()</text><rect fill="#E3E3E3" height="32.6211" rx="2.5" ry="2.5" style="stroke:#181818;stroke-width:0.5;" width="135" x="431.5" y="341.9492"/><text fill="#000000" font-family="sans-serif" font-size="14" lengthAdjust="spacing" textLength="121" x="438.5" y="364.0566">:ViewDetailsEntryUI</text><polygon fill="#181818" points="703.5,404.8613,713.5,408.8613,703.5,412.8613,707.5,408.8613" style="stroke:#181818;stroke-width:1.0;"/><line style="stroke:#181818;stroke-width:1.0;stroke-dasharray:2.0,2.0;" x1="504" x2="709.5" y1="408.8613" y2="408.8613"/><text fill="#000000" font-family="sans-serif" font-size="13" font-weight="bold" lengthAdjust="spacing" textLength="7" x="511" y="403.5986">8</text><text fill="#000000" font-family="sans-serif" font-size="13" lengthAdjust="spacing" textLength="93" x="522" y="403.5986">create(entryDto)</text><rect fill="#E3E3E3" height="32.6211" rx="2.5" ry="2.5" style="stroke:#181818;stroke-width:0.5;" width="185" x="715.5" y="385.5703"/><text fill="#000000" font-family="sans-serif" font-size="14" lengthAdjust="spacing" textLength="171" x="722.5" y="407.6777">:ViewDetailsEntryController</text><polygon fill="#181818" points="791,448.4824,801,452.4824,791,456.4824,795,452.4824" style="stroke:#181818;stroke-width:1.0;"/><line style="stroke:#181818;stroke-width:1.0;stroke-dasharray:2.0,2.0;" x1="504" x2="797" y1="452.4824" y2="452.4824"/><text fill="#000000" font-family="sans-serif" font-size="13" font-weight="bold" lengthAdjust="spacing" textLength="7" x="511" y="447.2197">9</text><text fill="#000000" font-family="sans-serif" font-size="13" lengthAdjust="spacing" textLength="190" x="522" y="447.2197">getVehicleListPossibleForEntry()</text><polygon fill="#181818" points="942,479.7734,952,483.7734,942,487.7734,946,483.7734" style="stroke:#181818;stroke-width:1.0;"/><line style="stroke:#181818;stroke-width:1.0;" x1="813" x2="948" y1="483.7734" y2="483.7734"/><text fill="#000000" font-family="sans-serif" font-size="13" font-weight="bold" lengthAdjust="spacing" textLength="14" x="820" y="478.5107">10</text><text fill="#000000" font-family="sans-serif" font-size="13" lengthAdjust="spacing" textLength="75" x="838" y="478.5107">getInstance()</text><polygon fill="#181818" points="824,511.0645,814,515.0645,824,519.0645,820,515.0645" style="stroke:#181818;stroke-width:1.0;"/><line style="stroke:#181818;stroke-width:1.0;stroke-dasharray:2.0,2.0;" x1="818" x2="958" y1="515.0645" y2="515.0645"/><text fill="#000000" font-family="sans-serif" font-size="13" font-weight="bold" lengthAdjust="spacing" textLength="14" x="830" y="509.8018">11</text><text fill="#000000" font-family="sans-serif" font-size="13" lengthAdjust="spacing" textLength="67" x="848" y="509.8018">repositories</text><polygon fill="#181818" points="1049,542.3555,1059,546.3555,1049,550.3555,1053,546.3555" style="stroke:#181818;stroke-width:1.0;"/><line style="stroke:#181818;stroke-width:1.0;" x1="813" x2="1055" y1="546.3555" y2="546.3555"/><text fill="#000000" font-family="sans-serif" font-size="13" font-weight="bold" lengthAdjust="spacing" textLength="14" x="820" y="541.0928">12</text><text fill="#000000" font-family="sans-serif" font-size="13" lengthAdjust="spacing" textLength="131" x="838" y="541.0928">getVehicleRepository()</text><polygon fill="#181818" points="824,573.6465,814,577.6465,824,581.6465,820,577.6465" style="stroke:#181818;stroke-width:1.0;"/><line style="stroke:#181818;stroke-width:1.0;" x1="818" x2="1065" y1="577.6465" y2="577.6465"/><text fill="#000000" font-family="sans-serif" font-size="13" font-weight="bold" lengthAdjust="spacing" textLength="14" x="830" y="572.3838">13</text><text fill="#000000" font-family="sans-serif" font-size="13" lengthAdjust="spacing" textLength="101" x="848" y="572.3838">vehicleRepository</text><polygon fill="#181818" points="1049,604.9375,1059,608.9375,1049,612.9375,1053,608.9375" style="stroke:#181818;stroke-width:1.0;"/><line style="stroke:#181818;stroke-width:1.0;" x1="813" x2="1055" y1="608.9375" y2="608.9375"/><text fill="#000000" font-family="sans-serif" font-size="13" font-weight="bold" lengthAdjust="spacing" textLength="14" x="820" y="603.6748">14</text><text fill="#000000" font-family="sans-serif" font-size="13" lengthAdjust="spacing" textLength="119" x="838" y="603.6748">getEntryRepository()</text><polygon fill="#181818" points="824,636.2285,814,640.2285,824,644.2285,820,640.2285" style="stroke:#181818;stroke-width:1.0;"/><line style="stroke:#181818;stroke-width:1.0;" x1="818" x2="1065" y1="640.2285" y2="640.2285"/><text fill="#000000" font-family="sans-serif" font-size="13" font-weight="bold" lengthAdjust="spacing" textLength="14" x="830" y="634.9658">15</text><text fill="#000000" font-family="sans-serif" font-size="13" lengthAdjust="spacing" textLength="91" x="848" y="634.9658">entryRepository</text><polygon fill="#181818" points="1302.5,667.5195,1312.5,671.5195,1302.5,675.5195,1306.5,671.5195" style="stroke:#181818;stroke-width:1.0;"/><line style="stroke:#181818;stroke-width:1.0;" x1="813" x2="1308.5" y1="671.5195" y2="671.5195"/><text fill="#000000" font-family="sans-serif" font-size="13" font-weight="bold" lengthAdjust="spacing" textLength="14" x="820" y="666.2568">16</text><text fill="#000000" font-family="sans-serif" font-size="13" lengthAdjust="spacing" textLength="90" x="838" y="666.2568">getVehicleList()</text><polygon fill="#181818" points="1765.5,698.8105,1775.5,702.8105,1765.5,706.8105,1769.5,702.8105" style="stroke:#181818;stroke-width:1.0;"/><line style="stroke:#181818;stroke-width:1.0;" x1="1324.5" x2="1771.5" y1="702.8105" y2="702.8105"/><text fill="#000000" font-family="sans-serif" font-size="13" font-weight="bold" lengthAdjust="spacing" textLength="14" x="1331.5" y="697.5479">17</text><text fill="#000000" font-family="sans-serif" font-size="13" lengthAdjust="spacing" textLength="44" x="1349.5" y="697.5479">create()</text><rect fill="#E3E3E3" height="32.6211" rx="2.5" ry="2.5" style="stroke:#181818;stroke-width:0.5;" width="158" x="1777.5" y="679.5195"/><text fill="#000000" font-family="sans-serif" font-size="14" lengthAdjust="spacing" textLength="144" x="1784.5" y="701.627">agenda : List&lt;Vehicle&gt;</text><path d="M1769,728.1406 L1769,755.1406 L1943,755.1406 L1943,738.1406 L1933,728.1406 L1769,728.1406 " fill="#FAFAFA" style="stroke:#181818;stroke-width:0.5;"/><path d="M1933,728.1406 L1933,738.1406 L1943,738.1406 L1933,728.1406 " fill="#FAFAFA" style="stroke:#181818;stroke-width:0.5;"/><text fill="#000000" font-family="sans-serif" font-size="13" lengthAdjust="spacing" textLength="153" x="1775" y="747.1689">loop to populate is omitted</text><polygon fill="#181818" points="824,779.7227,814,783.7227,824,787.7227,820,783.7227" style="stroke:#181818;stroke-width:1.0;"/><line style="stroke:#181818;stroke-width:1.0;" x1="818" x2="1318.5" y1="783.7227" y2="783.7227"/><text fill="#000000" font-family="sans-serif" font-size="13" font-weight="bold" lengthAdjust="spacing" textLength="14" x="830" y="778.46">18</text><text fill="#000000" font-family="sans-serif" font-size="13" lengthAdjust="spacing" textLength="60" x="848" y="778.46">vehicleList</text><polygon fill="#181818" points="1167,811.0137,1177,815.0137,1167,819.0137,1171,815.0137" style="stroke:#181818;stroke-width:1.0;"/><line style="stroke:#181818;stroke-width:1.0;" x1="813" x2="1173" y1="815.0137" y2="815.0137"/><text fill="#000000" font-family="sans-serif" font-size="13" font-weight="bold" lengthAdjust="spacing" textLength="14" x="820" y="809.751">19</text><text fill="#000000" font-family="sans-serif" font-size="13" lengthAdjust="spacing" textLength="91" x="838" y="809.751">getAgendaList()</text><polygon fill="#181818" points="2906.5,842.3047,2916.5,846.3047,2906.5,850.3047,2910.5,846.3047" style="stroke:#181818;stroke-width:1.0;"/><line style="stroke:#181818;stroke-width:1.0;" x1="1189" x2="2912.5" y1="846.3047" y2="846.3047"/><text fill="#000000" font-family="sans-serif" font-size="13" font-weight="bold" lengthAdjust="spacing" textLength="14" x="1196" y="841.042">20</text><text fill="#000000" font-family="sans-serif" font-size="13" lengthAdjust="spacing" textLength="276" x="1214" y="841.042">filterVehiclesNotUseInTime(entryDto,vehicleList)</text><rect fill="none" height="43.252" style="stroke:#000000;stroke-width:1.5;" width="94" x="2878" y="884.3047"/><path d="M2878,884.3047 L2940,884.3047 L2940,893.3047 L2930,903.3047 L2878,903.3047 L2878,884.3047 " fill="#EEEEEE" style="stroke:#000000;stroke-width:2.0;"/><text fill="#000000" font-family="sans-serif" font-size="13" font-weight="bold" lengthAdjust="spacing" textLength="17" x="2891" y="900.333">ref</text><text fill="#000000" font-family="sans-serif" font-size="12" lengthAdjust="spacing" textLength="86" x="2882" y="920.2539">method omitted</text><polygon fill="#181818" points="2270.5,951.8477,2280.5,955.8477,2270.5,959.8477,2274.5,955.8477" style="stroke:#181818;stroke-width:1.0;"/><line style="stroke:#181818;stroke-width:1.0;" x1="1189" x2="2276.5" y1="955.8477" y2="955.8477"/><text fill="#000000" font-family="sans-serif" font-size="13" font-weight="bold" lengthAdjust="spacing" textLength="14" x="1196" y="950.585">21</text><text fill="#000000" font-family="sans-serif" font-size="13" lengthAdjust="spacing" textLength="90" x="1214" y="950.585">getVehicleList()</text><polygon fill="#181818" points="824,1013.1387,814,1017.1387,824,1021.1387,820,1017.1387" style="stroke:#181818;stroke-width:1.0;"/><line style="stroke:#181818;stroke-width:1.0;" x1="818" x2="1183" y1="1017.1387" y2="1017.1387"/><text fill="#000000" font-family="sans-serif" font-size="13" font-weight="bold" lengthAdjust="spacing" textLength="14" x="830" y="1011.876">22</text><text fill="#000000" font-family="sans-serif" font-size="13" lengthAdjust="spacing" textLength="60" x="848" y="1011.876">vehicleList</text><polygon fill="#181818" points="1984.5,1044.4297,1994.5,1048.4297,1984.5,1052.4297,1988.5,1048.4297" style="stroke:#181818;stroke-width:1.0;"/><line style="stroke:#181818;stroke-width:1.0;" x1="813" x2="1990.5" y1="1048.4297" y2="1048.4297"/><text fill="#000000" font-family="sans-serif" font-size="13" font-weight="bold" lengthAdjust="spacing" textLength="14" x="820" y="1043.167">23</text><text fill="#000000" font-family="sans-serif" font-size="13" lengthAdjust="spacing" textLength="134" x="838" y="1043.167">toDTO(vehicleListFilter)</text><polygon fill="#181818" points="1778.5,1075.7207,1768.5,1079.7207,1778.5,1083.7207,1774.5,1079.7207" style="stroke:#181818;stroke-width:1.0;"/><line style="stroke:#181818;stroke-width:1.0;" x1="1772.5" x2="1995.5" y1="1079.7207" y2="1079.7207"/><text fill="#000000" font-family="sans-serif" font-size="13" font-weight="bold" lengthAdjust="spacing" textLength="14" x="1784.5" y="1074.458">24</text><text fill="#000000" font-family="sans-serif" font-size="13" lengthAdjust="spacing" textLength="44" x="1802.5" y="1074.458">create()</text><rect fill="#E3E3E3" height="32.6211" rx="2.5" ry="2.5" style="stroke:#181818;stroke-width:0.5;" width="202" x="1565.5" y="1056.4297"/><text fill="#000000" font-family="sans-serif" font-size="14" lengthAdjust="spacing" textLength="188" x="1572.5" y="1078.5371">agendaDto : List&lt;VehicleDto&gt;</text><path d="M1459.5,1107.0508 L1532.5,1107.0508 L1532.5,1116.3418 L1522.5,1126.3418 L1459.5,1126.3418 L1459.5,1107.0508 " fill="#EEEEEE" style="stroke:#000000;stroke-width:1.5;"/><rect fill="none" height="247.4551" style="stroke:#000000;stroke-width:1.5;" width="833" x="1459.5" y="1107.0508"/><text fill="#000000" font-family="sans-serif" font-size="13" font-weight="bold" lengthAdjust="spacing" textLength="28" x="1474.5" y="1122.0791">loop</text><text fill="#000000" font-family="sans-serif" font-size="11" font-weight="bold" lengthAdjust="spacing" textLength="104" x="1547.5" y="1120.9209">[For every Vehicle]</text><line style="stroke:#181818;stroke-width:1.0;" x1="2006.5" x2="2053.5" y1="1144.6328" y2="1144.6328"/><line style="stroke:#181818;stroke-width:1.0;" x1="2053.5" x2="2053.5" y1="1144.6328" y2="1157.6328"/><line style="stroke:#181818;stroke-width:1.0;" x1="2012.5" x2="2053.5" y1="1157.6328" y2="1157.6328"/><polygon fill="#181818" points="2022.5,1153.6328,2012.5,1157.6328,2022.5,1161.6328,2018.5,1157.6328" style="stroke:#181818;stroke-width:1.0;"/><text fill="#000000" font-family="sans-serif" font-size="13" font-weight="bold" lengthAdjust="spacing" textLength="14" x="2018.5" y="1139.3701">25</text><text fill="#000000" font-family="sans-serif" font-size="13" lengthAdjust="spacing" textLength="244" x="2036.5" y="1139.3701">vehicleDTO = vehicleToVehicleDto(vehicle)</text><polygon fill="#181818" points="1872.5,1189.9238,1862.5,1193.9238,1872.5,1197.9238,1868.5,1193.9238" style="stroke:#181818;stroke-width:1.0;"/><line style="stroke:#181818;stroke-width:1.0;" x1="1866.5" x2="2000.5" y1="1193.9238" y2="1193.9238"/><text fill="#000000" font-family="sans-serif" font-size="13" font-weight="bold" lengthAdjust="spacing" textLength="14" x="1878.5" y="1188.6611">26</text><text fill="#000000" font-family="sans-serif" font-size="13" lengthAdjust="spacing" textLength="84" x="1896.5" y="1188.6611">vehicle = get(i)</text><polygon fill="#181818" points="1528.5,1251.2148,1518.5,1255.2148,1528.5,1259.2148,1524.5,1255.2148" style="stroke:#181818;stroke-width:1.0;"/><line style="stroke:#181818;stroke-width:1.0;" x1="1522.5" x2="2000.5" y1="1255.2148" y2="1255.2148"/><text fill="#000000" font-family="sans-serif" font-size="13" font-weight="bold" lengthAdjust="spacing" textLength="14" x="1534.5" y="1249.9521">27</text><text fill="#000000" font-family="sans-serif" font-size="13" lengthAdjust="spacing" textLength="56" x="1552.5" y="1249.9521">create(...)</text><polygon fill="#181818" points="1682.5,1312.5059,1672.5,1316.5059,1682.5,1320.5059,1678.5,1316.5059" style="stroke:#181818;stroke-width:1.0;"/><line style="stroke:#181818;stroke-width:1.0;" x1="1676.5" x2="1995.5" y1="1316.5059" y2="1316.5059"/><text fill="#000000" font-family="sans-serif" font-size="13" font-weight="bold" lengthAdjust="spacing" textLength="14" x="1688.5" y="1311.2432">28</text><text fill="#000000" font-family="sans-serif" font-size="13" lengthAdjust="spacing" textLength="88" x="1706.5" y="1311.2432">add(vehicleDto)</text><polygon fill="#181818" points="824,1380.7969,814,1384.7969,824,1388.7969,820,1384.7969" style="stroke:#181818;stroke-width:1.0;"/><line style="stroke:#181818;stroke-width:1.0;" x1="818" x2="2000.5" y1="1384.7969" y2="1384.7969"/><text fill="#000000" font-family="sans-serif" font-size="13" font-weight="bold" lengthAdjust="spacing" textLength="14" x="830" y="1379.5342">29</text><text fill="#000000" font-family="sans-serif" font-size="13" lengthAdjust="spacing" textLength="80" x="848" y="1379.5342">vehicleDtoList</text><polygon fill="#181818" points="515,1412.0879,505,1416.0879,515,1420.0879,511,1416.0879" style="stroke:#181818;stroke-width:1.0;"/><line style="stroke:#181818;stroke-width:1.0;" x1="509" x2="807" y1="1416.0879" y2="1416.0879"/><text fill="#000000" font-family="sans-serif" font-size="13" font-weight="bold" lengthAdjust="spacing" textLength="14" x="521" y="1410.8252">30</text><text fill="#000000" font-family="sans-serif" font-size="13" lengthAdjust="spacing" textLength="80" x="539" y="1410.8252">vehicleDtoList</text><polygon fill="#181818" points="54.5,1443.3789,44.5,1447.3789,54.5,1451.3789,50.5,1447.3789" style="stroke:#181818;stroke-width:1.0;"/><line style="stroke:#181818;stroke-width:1.0;" x1="48.5" x2="498" y1="1447.3789" y2="1447.3789"/><text fill="#000000" font-family="sans-serif" font-size="13" font-weight="bold" lengthAdjust="spacing" textLength="14" x="60.5" y="1442.1162">31</text><text fill="#000000" font-family="sans-serif" font-size="13" lengthAdjust="spacing" textLength="318" x="78.5" y="1442.1162">show entry data and wait for selection vehicle to assign</text><path d="M10,1462.3789 L83,1462.3789 L83,1471.6699 L73,1481.6699 L10,1481.6699 L10,1462.3789 " fill="#EEEEEE" style="stroke:#000000;stroke-width:1.5;"/><rect fill="none" height="394.7832" style="stroke:#000000;stroke-width:1.5;" width="2517" x="10" y="1462.3789"/><text fill="#000000" font-family="sans-serif" font-size="13" font-weight="bold" lengthAdjust="spacing" textLength="28" x="25" y="1477.4072">loop</text><text fill="#000000" font-family="sans-serif" font-size="11" font-weight="bold" lengthAdjust="spacing" textLength="398" x="98" y="1476.249">[For Every vehicle that he want to add to the entry and are disposable to]</text><polygon fill="#181818" points="482,1500.9609,492,1504.9609,482,1508.9609,486,1504.9609" style="stroke:#181818;stroke-width:1.0;"/><line style="stroke:#181818;stroke-width:1.0;" x1="43.5" x2="488" y1="1504.9609" y2="1504.9609"/><text fill="#000000" font-family="sans-serif" font-size="13" font-weight="bold" lengthAdjust="spacing" textLength="14" x="50.5" y="1499.6982">32</text><text fill="#000000" font-family="sans-serif" font-size="13" lengthAdjust="spacing" textLength="274" x="68.5" y="1499.6982">select one vehicle and click on button to assign</text><polygon fill="#181818" points="791,1532.252,801,1536.252,791,1540.252,795,1536.252" style="stroke:#181818;stroke-width:1.0;"/><line style="stroke:#181818;stroke-width:1.0;" x1="504" x2="797" y1="1536.252" y2="1536.252"/><text fill="#000000" font-family="sans-serif" font-size="13" font-weight="bold" lengthAdjust="spacing" textLength="14" x="511" y="1530.9893">33</text><text fill="#000000" font-family="sans-serif" font-size="13" lengthAdjust="spacing" textLength="246" x="529" y="1530.9893">assignVehicleToEntry(vehicleDto,entryDto)</text><polygon fill="#181818" points="1167,1563.543,1177,1567.543,1167,1571.543,1171,1567.543" style="stroke:#181818;stroke-width:1.0;"/><line style="stroke:#181818;stroke-width:1.0;" x1="813" x2="1173" y1="1567.543" y2="1567.543"/><text fill="#000000" font-family="sans-serif" font-size="13" font-weight="bold" lengthAdjust="spacing" textLength="14" x="820" y="1562.2803">34</text><text fill="#000000" font-family="sans-serif" font-size="13" lengthAdjust="spacing" textLength="246" x="838" y="1562.2803">assignVehicleToEntry(vehicleDto,entryDto)</text><polygon fill="#181818" points="2450.5,1594.834,2460.5,1598.834,2450.5,1602.834,2454.5,1598.834" style="stroke:#181818;stroke-width:1.0;"/><line style="stroke:#181818;stroke-width:1.0;" x1="1189" x2="2456.5" y1="1598.834" y2="1598.834"/><text fill="#000000" font-family="sans-serif" font-size="13" font-weight="bold" lengthAdjust="spacing" textLength="14" x="1196" y="1593.5713">35</text><text fill="#000000" font-family="sans-serif" font-size="13" lengthAdjust="spacing" textLength="151" x="1214" y="1593.5713">entryDtoToEntry(entryDto)</text><polygon fill="#181818" points="2017.5,1626.125,2007.5,1630.125,2017.5,1634.125,2013.5,1630.125" style="stroke:#181818;stroke-width:1.0;"/><line style="stroke:#181818;stroke-width:1.0;" x1="2011.5" x2="2461.5" y1="1630.125" y2="1630.125"/><text fill="#000000" font-family="sans-serif" font-size="13" font-weight="bold" lengthAdjust="spacing" textLength="14" x="2023.5" y="1624.8623">36</text><text fill="#000000" font-family="sans-serif" font-size="13" lengthAdjust="spacing" textLength="183" x="2041.5" y="1624.8623">vehicleDtoToVehicle(vehicleDto)</text><polygon fill="#181818" points="2450.5,1657.416,2460.5,1661.416,2450.5,1665.416,2454.5,1661.416" style="stroke:#181818;stroke-width:1.0;"/><line style="stroke:#181818;stroke-width:1.0;" x1="2001.5" x2="2456.5" y1="1661.416" y2="1661.416"/><text fill="#000000" font-family="sans-serif" font-size="13" font-weight="bold" lengthAdjust="spacing" textLength="14" x="2008.5" y="1656.1533">37</text><text fill="#000000" font-family="sans-serif" font-size="13" lengthAdjust="spacing" textLength="39" x="2026.5" y="1656.1533">vehicle</text><polygon fill="#181818" points="2303.5,1688.707,2293.5,1692.707,2303.5,1696.707,2299.5,1692.707" style="stroke:#181818;stroke-width:1.0;"/><line style="stroke:#181818;stroke-width:1.0;" x1="2297.5" x2="2461.5" y1="1692.707" y2="1692.707"/><text fill="#000000" font-family="sans-serif" font-size="13" font-weight="bold" lengthAdjust="spacing" textLength="14" x="2309.5" y="1687.4443">38</text><text fill="#000000" font-family="sans-serif" font-size="13" lengthAdjust="spacing" textLength="133" x="2327.5" y="1687.4443">setNewVehicle(vehicle)</text><polygon fill="#181818" points="2450.5,1719.998,2460.5,1723.998,2450.5,1727.998,2454.5,1723.998" style="stroke:#181818;stroke-width:1.0;"/><line style="stroke:#181818;stroke-width:1.0;" x1="2287.5" x2="2456.5" y1="1723.998" y2="1723.998"/><text fill="#000000" font-family="sans-serif" font-size="13" font-weight="bold" lengthAdjust="spacing" textLength="14" x="2294.5" y="1718.7354">39</text><text fill="#000000" font-family="sans-serif" font-size="13" lengthAdjust="spacing" textLength="53" x="2312.5" y="1718.7354">true/false</text><polygon fill="#181818" points="1200,1751.2891,1190,1755.2891,1200,1759.2891,1196,1755.2891" style="stroke:#181818;stroke-width:1.0;"/><line style="stroke:#181818;stroke-width:1.0;" x1="1194" x2="2466.5" y1="1755.2891" y2="1755.2891"/><text fill="#000000" font-family="sans-serif" font-size="13" font-weight="bold" lengthAdjust="spacing" textLength="14" x="1206" y="1750.0264">40</text><text fill="#000000" font-family="sans-serif" font-size="13" lengthAdjust="spacing" textLength="29" x="1224" y="1750.0264">entry</text><polygon fill="#181818" points="824,1782.5801,814,1786.5801,824,1790.5801,820,1786.5801" style="stroke:#181818;stroke-width:1.0;"/><line style="stroke:#181818;stroke-width:1.0;" x1="818" x2="1183" y1="1786.5801" y2="1786.5801"/><text fill="#000000" font-family="sans-serif" font-size="13" font-weight="bold" lengthAdjust="spacing" textLength="14" x="830" y="1781.3174">41</text><text fill="#000000" font-family="sans-serif" font-size="13" lengthAdjust="spacing" textLength="53" x="848" y="1781.3174">true/false</text><polygon fill="#181818" points="515,1813.8711,505,1817.8711,515,1821.8711,511,1817.8711" style="stroke:#181818;stroke-width:1.0;"/><line style="stroke:#181818;stroke-width:1.0;" x1="509" x2="807" y1="1817.8711" y2="1817.8711"/><text fill="#000000" font-family="sans-serif" font-size="13" font-weight="bold" lengthAdjust="spacing" textLength="14" x="521" y="1812.6084">42</text><text fill="#000000" font-family="sans-serif" font-size="13" lengthAdjust="spacing" textLength="53" x="539" y="1812.6084">true/false</text><polygon fill="#181818" points="54.5,1845.1621,44.5,1849.1621,54.5,1853.1621,50.5,1849.1621" style="stroke:#181818;stroke-width:1.0;"/><line style="stroke:#181818;stroke-width:1.0;" x1="48.5" x2="498" y1="1849.1621" y2="1849.1621"/><text fill="#000000" font-family="sans-serif" font-size="13" font-weight="bold" lengthAdjust="spacing" textLength="14" x="60.5" y="1843.8994">43</text><text fill="#000000" font-family="sans-serif" font-size="13" lengthAdjust="spacing" textLength="140" x="78.5" y="1843.8994">show operation success</text><!--SRC=[rLbBK-Cu4BxhLwYu4AOOjYf7QfSgTc2ss88P2WAdkIXs9r7XI5vBWUNVRqloIxBZPEqCoVW2aLlTNp_LQgiNBbAMiILTIY6ZHIQNG7Ms0gBADocBNjWS7lLx0ZI3I3CnJ-e4Qi5Y-SR5dCvOee0Gjj9Ih9PJo0WvNl0Ow4nAFPN_4XPfcT6ZlnxlZYXJ5FyIvA5vn5CcD3qwlvo3YDdJZNtzT1EyVURmTWMQyKHT2vszbtJZLZPV91B9987CadsPFDnkODYo8sJz0AbK7DNWe2nHkV3-o8rbK7T_IrRRyKCq6TpVNaxy7M2mL7nnqxM_OlS5QpwBLrZmA06FoNEuPjaqLaCRkVUMzlkVVpz2WZ40SJlLbPQMiA2wcdpt2Pdr39BHSthBbVwzsdXXTvh53Rk3hSrzxTZkM9hcZYq8xoxlxwyV0d9hrqBTjdU5aWruxdLDJXl_XWKAdfKU6_Is6ofgGanUyLUcmMOKeVc3F-Zd2qmFtCZKYw8eaod5vu8ocWU8NHCkbYWNr6LEnQFaZCb8ZcdjGRQVaRiHSevruPyLAArep3IZemnca868u9J6eAACfvfBSKfHmancIvRG7y9_eo5Q21xX6syvNcNC_HT9fKz87S1nb851PlCwH7PXbpzzGcoER7H2rX0XoHoqKzpOS-IBAItGa5D_K6CgNo7hfYez0pgtjBFySUx9TVH8INpu5dZft2AaF98OVEWjwZldgOLyA-0m4TCtnhM92sMpX4e13kKwxYOqFErCt1NOEfciPP475rPstuLhDe-tXOQabh6jx7NMa2VXIGUz2vIycXX_tKlCfca2NsLcTUkAd77Wm9mbycuvG9oa6w7mi8r2lRTzIl5j9rGlZkPfGrjQo1I2wdJh9QFcl9tXBarjZbhFYvM8eKQsftWl5XPKBSOQH_TGEpfekx9Sq7OSZjs2hcatLXjaj4QGDIh8KEircxTU_9f04Nsze-euIBTzX4IyzeYiCqQsYPIfEMvIcQuIenHNL2wvDeqSsQ4-GNvr7hXRniYEp5y6J91R6pgJ_nqjuOsX5xSG8yAk42BY6KyqPBbbr3UfdnJSY0bVLeViQSq50rMgHFVYKxPjdWfBq0iPbq4uC4Xg47TbSBoOxBoKcClEG4qDYrsf-1EojH7-mvBLlqGYL2tnuZQg0VvgKs6WNuAxQk_6hSSJQ1YS2QXiS2pqm6QBF_RF530Btuk2-f5AjkhPy6tkLTIP_b7ycCXgU56u_UI3eHz2c6mAbCfyQ3iiMYF-qLOQR5rlklHhOAyLFW_zmUIMoQMoUfoTdUqzTSpOZUpDINKKUmUnbogo-RmniwuuBcgj7TSSG47OgyTs0CHC5_VjwA3TGzVsxlWE9n7ALj6C4NUYMp3J7GV0xBZI6-lQAvURofUZtHcsMsuiowNmFWJOZmE4hXsc-dFMgdcxjirRoMd1D5q02XDsZemfQ_veN79m31AM0OsvmcQSJQtqG9NouyNO7o8NGWoFAE7H2wxIwKgREUGQ5Jm5I8kzYk1pcv-BxixDT2kldLP3uiunBzdoRZzGNETjlkL6LVQo1Tz2v0OvhIcmHQji1EJARLMnr-OUsRwCX218ZrGdxNgwExS2_GtU0hMsqAdpQcnOry6RB_2_kO_fVMxT5UPcp47NXvpI0fj2gKYODK2xxjmTzN4pjvQQronvCWNtqP2gLHI1KcJBUkQ-if4QXVcS-Xy0]--></g></svg>