<?xml version="1.0" encoding="us-ascii" standalone="no"?><svg xmlns="http://www.w3.org/2000/svg" xmlns:xlink="http://www.w3.org/1999/xlink" contentStyleType="text/css" height="1101px" preserveAspectRatio="none" style="width:2195px;height:1101px;background:#FFFFFF;" version="1.1" viewBox="0 0 2195 1101" width="2195px" zoomAndPan="magnify"><defs/><g><!--cluster Core--><g id="cluster_Core"><rect fill="#DDDDDD" height="1054" rx="2.5" ry="2.5" style="stroke:#000000;stroke-width:1.5;" width="1691" x="7" y="41.7627"/><text fill="#000000" font-family="sans-serif" font-size="14" font-weight="bold" lengthAdjust="spacing" textLength="34" x="835.5" y="58.8701">Core</text></g><!--cluster Domain--><g id="cluster_Domain"><rect fill="none" height="957" rx="2.5" ry="2.5" style="stroke:#000000;stroke-width:1.5;" width="780" x="287" y="114.7627"/><text fill="#000000" font-family="sans-serif" font-size="14" font-weight="bold" lengthAdjust="spacing" textLength="52" x="651" y="131.8701">Domain</text></g><!--cluster Controller--><g id="cluster_Controller"><rect fill="none" height="252" rx="2.5" ry="2.5" style="stroke:#000000;stroke-width:1.5;" width="583" x="1091" y="86.7627"/><text fill="#000000" font-family="sans-serif" font-size="14" font-weight="bold" lengthAdjust="spacing" textLength="71" x="1347" y="103.8701">Controller</text></g><!--cluster UI--><g id="cluster_UI"><rect fill="none" height="141" rx="2.5" ry="2.5" style="stroke:#000000;stroke-width:1.5;" width="467" x="1722" y="142.2627"/><text fill="#000000" font-family="sans-serif" font-size="14" font-weight="bold" lengthAdjust="spacing" textLength="14" x="1948.5" y="159.3701">UI</text></g><g id="elem_GMN23"><path d="M23.5,220.2627 L23.5,247.5537 L270.5,247.5537 L270.5,230.2627 L260.5,220.2627 L23.5,220.2627 " fill="#FEFFDD" style="stroke:#181818;stroke-width:0.5;"/><path d="M260.5,220.2627 L260.5,230.2627 L270.5,230.2627 L260.5,220.2627 " fill="#FEFFDD" style="stroke:#181818;stroke-width:1.0;"/><text fill="#000000" font-family="sans-serif" font-size="13" lengthAdjust="spacing" textLength="226" x="29.5" y="239.291">- entry is achieved with entry repository</text></g><!--class Entry--><g id="elem_Entry"><rect codeLine="12" fill="#F1F1F1" height="122.4844" id="Entry" rx="2.5" ry="2.5" style="stroke:#181818;stroke-width:0.5;" width="123" x="927.5" y="787.7627"/><ellipse cx="968.6" cy="803.7627" fill="#ADD1B2" rx="11" ry="11" style="stroke:#181818;stroke-width:1.0;"/><path d="M971.3656,799.6377 Q971.5219,799.4189 971.7094,799.3096 Q971.8969,799.2002 972.1156,799.2002 Q972.4906,799.2002 972.725,799.4658 Q972.9594,799.7158 972.9594,800.3252 L972.9594,801.7783 Q972.9594,802.3877 972.725,802.6533 Q972.4906,802.9189 972.1156,802.9189 Q971.7719,802.9189 971.5688,802.7158 Q971.3656,802.5283 971.2563,802.0127 Q971.2094,801.6533 971.0219,801.4658 Q970.6938,801.0908 970.0844,800.8721 Q969.475,800.6533 968.85,800.6533 Q968.0844,800.6533 967.4438,800.9814 Q966.8188,801.3096 966.3188,802.0596 Q965.8344,802.8096 965.8344,803.8408 L965.8344,804.9346 Q965.8344,806.1689 966.725,806.9971 Q967.6156,807.8096 969.2094,807.8096 Q970.1469,807.8096 970.8031,807.5596 Q971.1938,807.4033 971.6156,806.9658 Q971.8813,806.7002 972.0219,806.6221 Q972.1781,806.5439 972.3813,806.5439 Q972.7094,806.5439 972.9594,806.8096 Q973.225,807.0596 973.225,807.4033 Q973.225,807.7471 972.8813,808.1533 Q972.3813,808.7314 971.5844,809.0596 Q970.5063,809.5127 969.2094,809.5127 Q967.6938,809.5127 966.4906,808.8877 Q965.5063,808.3877 964.8188,807.3252 Q964.1313,806.2471 964.1313,804.9658 L964.1313,803.8096 Q964.1313,802.4814 964.7406,801.3408 Q965.3656,800.1846 966.4594,799.5752 Q967.5531,798.9502 968.7875,798.9502 Q969.5219,798.9502 970.1625,799.1221 Q970.8188,799.2783 971.3656,799.6377 Z " fill="#000000"/><text fill="#000000" font-family="sans-serif" font-size="14" lengthAdjust="spacing" textLength="33" x="988.4" y="809.5596">Entry</text><line style="stroke:#181818;stroke-width:0.5;" x1="928.5" x2="1049.5" y1="819.7627" y2="819.7627"/><text fill="#000000" font-family="sans-serif" font-size="14" lengthAdjust="spacing" textLength="89" x="933.5" y="838.8701">-List&lt;Vehicle&gt;</text><line style="stroke:#181818;stroke-width:0.5;" x1="928.5" x2="1049.5" y1="846.3838" y2="846.3838"/><text fill="#000000" font-family="sans-serif" font-size="14" lengthAdjust="spacing" textLength="51" x="933.5" y="865.4912">+Entry()</text><text fill="#000000" font-family="sans-serif" font-size="14" lengthAdjust="spacing" textLength="109" x="933.5" y="884.1123">+setNewVehicle()</text><text fill="#000000" font-family="sans-serif" font-size="14" lengthAdjust="spacing" textLength="111" x="933.5" y="902.7334">+removeVehicle()</text></g><!--class EntryState--><g id="elem_EntryState"><rect codeLine="19" fill="#F1F1F1" height="66.6211" id="EntryState" rx="2.5" ry="2.5" style="stroke:#181818;stroke-width:0.5;" width="98" x="826" y="988.7627"/><ellipse cx="841" cy="1004.7627" fill="#ADD1B2" rx="11" ry="11" style="stroke:#181818;stroke-width:1.0;"/><path d="M843.7656,1000.6377 Q843.9219,1000.4189 844.1094,1000.3096 Q844.2969,1000.2002 844.5156,1000.2002 Q844.8906,1000.2002 845.125,1000.4658 Q845.3594,1000.7158 845.3594,1001.3252 L845.3594,1002.7783 Q845.3594,1003.3877 845.125,1003.6533 Q844.8906,1003.9189 844.5156,1003.9189 Q844.1719,1003.9189 843.9688,1003.7158 Q843.7656,1003.5283 843.6563,1003.0127 Q843.6094,1002.6533 843.4219,1002.4658 Q843.0938,1002.0908 842.4844,1001.8721 Q841.875,1001.6533 841.25,1001.6533 Q840.4844,1001.6533 839.8438,1001.9814 Q839.2188,1002.3096 838.7188,1003.0596 Q838.2344,1003.8096 838.2344,1004.8408 L838.2344,1005.9346 Q838.2344,1007.1689 839.125,1007.9971 Q840.0156,1008.8096 841.6094,1008.8096 Q842.5469,1008.8096 843.2031,1008.5596 Q843.5938,1008.4033 844.0156,1007.9658 Q844.2813,1007.7002 844.4219,1007.6221 Q844.5781,1007.5439 844.7813,1007.5439 Q845.1094,1007.5439 845.3594,1007.8096 Q845.625,1008.0596 845.625,1008.4033 Q845.625,1008.7471 845.2813,1009.1533 Q844.7813,1009.7314 843.9844,1010.0596 Q842.9063,1010.5127 841.6094,1010.5127 Q840.0938,1010.5127 838.8906,1009.8877 Q837.9063,1009.3877 837.2188,1008.3252 Q836.5313,1007.2471 836.5313,1005.9658 L836.5313,1004.8096 Q836.5313,1003.4814 837.1406,1002.3408 Q837.7656,1001.1846 838.8594,1000.5752 Q839.9531,999.9502 841.1875,999.9502 Q841.9219,999.9502 842.5625,1000.1221 Q843.2188,1000.2783 843.7656,1000.6377 Z " fill="#000000"/><text fill="#000000" font-family="sans-serif" font-size="14" lengthAdjust="spacing" textLength="66" x="855" y="1010.5596">EntryState</text><line style="stroke:#181818;stroke-width:0.5;" x1="827" x2="923" y1="1020.7627" y2="1020.7627"/><text fill="#000000" font-family="sans-serif" font-size="14" lengthAdjust="spacing" textLength="78" x="832" y="1039.8701">-Enum State</text><line style="stroke:#181818;stroke-width:0.5;" x1="827" x2="923" y1="1047.3838" y2="1047.3838"/></g><!--class TaskDto--><g id="elem_TaskDto"><rect codeLine="23" fill="#F1F1F1" height="48" id="TaskDto" rx="2.5" ry="2.5" style="stroke:#181818;stroke-width:0.5;" width="85" x="660.5" y="998.2627"/><ellipse cx="675.5" cy="1014.2627" fill="#ADD1B2" rx="11" ry="11" style="stroke:#181818;stroke-width:1.0;"/><path d="M678.2656,1010.1377 Q678.4219,1009.9189 678.6094,1009.8096 Q678.7969,1009.7002 679.0156,1009.7002 Q679.3906,1009.7002 679.625,1009.9658 Q679.8594,1010.2158 679.8594,1010.8252 L679.8594,1012.2783 Q679.8594,1012.8877 679.625,1013.1533 Q679.3906,1013.4189 679.0156,1013.4189 Q678.6719,1013.4189 678.4688,1013.2158 Q678.2656,1013.0283 678.1563,1012.5127 Q678.1094,1012.1533 677.9219,1011.9658 Q677.5938,1011.5908 676.9844,1011.3721 Q676.375,1011.1533 675.75,1011.1533 Q674.9844,1011.1533 674.3438,1011.4814 Q673.7188,1011.8096 673.2188,1012.5596 Q672.7344,1013.3096 672.7344,1014.3408 L672.7344,1015.4346 Q672.7344,1016.6689 673.625,1017.4971 Q674.5156,1018.3096 676.1094,1018.3096 Q677.0469,1018.3096 677.7031,1018.0596 Q678.0938,1017.9033 678.5156,1017.4658 Q678.7813,1017.2002 678.9219,1017.1221 Q679.0781,1017.0439 679.2813,1017.0439 Q679.6094,1017.0439 679.8594,1017.3096 Q680.125,1017.5596 680.125,1017.9033 Q680.125,1018.2471 679.7813,1018.6533 Q679.2813,1019.2314 678.4844,1019.5596 Q677.4063,1020.0127 676.1094,1020.0127 Q674.5938,1020.0127 673.3906,1019.3877 Q672.4063,1018.8877 671.7188,1017.8252 Q671.0313,1016.7471 671.0313,1015.4658 L671.0313,1014.3096 Q671.0313,1012.9814 671.6406,1011.8408 Q672.2656,1010.6846 673.3594,1010.0752 Q674.4531,1009.4502 675.6875,1009.4502 Q676.4219,1009.4502 677.0625,1009.6221 Q677.7188,1009.7783 678.2656,1010.1377 Z " fill="#000000"/><text fill="#000000" font-family="sans-serif" font-size="14" lengthAdjust="spacing" textLength="53" x="689.5" y="1020.0596">TaskDto</text><line style="stroke:#181818;stroke-width:0.5;" x1="661.5" x2="744.5" y1="1030.2627" y2="1030.2627"/><line style="stroke:#181818;stroke-width:0.5;" x1="661.5" x2="744.5" y1="1038.2627" y2="1038.2627"/></g><!--class EntryRepository--><g id="elem_EntryRepository"><rect codeLine="25" fill="#F1F1F1" height="103.8633" id="EntryRepository" rx="2.5" ry="2.5" style="stroke:#181818;stroke-width:0.5;" width="321" x="725.5" y="403.7627"/><ellipse cx="831.25" cy="419.7627" fill="#ADD1B2" rx="11" ry="11" style="stroke:#181818;stroke-width:1.0;"/><path d="M834.0156,415.6377 Q834.1719,415.4189 834.3594,415.3096 Q834.5469,415.2002 834.7656,415.2002 Q835.1406,415.2002 835.375,415.4658 Q835.6094,415.7158 835.6094,416.3252 L835.6094,417.7783 Q835.6094,418.3877 835.375,418.6533 Q835.1406,418.9189 834.7656,418.9189 Q834.4219,418.9189 834.2188,418.7158 Q834.0156,418.5283 833.9063,418.0127 Q833.8594,417.6533 833.6719,417.4658 Q833.3438,417.0908 832.7344,416.8721 Q832.125,416.6533 831.5,416.6533 Q830.7344,416.6533 830.0938,416.9814 Q829.4688,417.3096 828.9688,418.0596 Q828.4844,418.8096 828.4844,419.8408 L828.4844,420.9346 Q828.4844,422.1689 829.375,422.9971 Q830.2656,423.8096 831.8594,423.8096 Q832.7969,423.8096 833.4531,423.5596 Q833.8438,423.4033 834.2656,422.9658 Q834.5313,422.7002 834.6719,422.6221 Q834.8281,422.5439 835.0313,422.5439 Q835.3594,422.5439 835.6094,422.8096 Q835.875,423.0596 835.875,423.4033 Q835.875,423.7471 835.5313,424.1533 Q835.0313,424.7314 834.2344,425.0596 Q833.1563,425.5127 831.8594,425.5127 Q830.3438,425.5127 829.1406,424.8877 Q828.1563,424.3877 827.4688,423.3252 Q826.7813,422.2471 826.7813,420.9658 L826.7813,419.8096 Q826.7813,418.4814 827.3906,417.3408 Q828.0156,416.1846 829.1094,415.5752 Q830.2031,414.9502 831.4375,414.9502 Q832.1719,414.9502 832.8125,415.1221 Q833.4688,415.2783 834.0156,415.6377 Z " fill="#000000"/><text fill="#000000" font-family="sans-serif" font-size="14" lengthAdjust="spacing" textLength="101" x="851.75" y="425.5596">EntryRepository</text><line style="stroke:#181818;stroke-width:0.5;" x1="726.5" x2="1045.5" y1="435.7627" y2="435.7627"/><line style="stroke:#181818;stroke-width:0.5;" x1="726.5" x2="1045.5" y1="443.7627" y2="443.7627"/><text fill="#000000" font-family="sans-serif" font-size="14" lengthAdjust="spacing" textLength="109" x="731.5" y="462.8701">+getAgendaList()</text><text fill="#000000" font-family="sans-serif" font-size="14" lengthAdjust="spacing" textLength="235" x="731.5" y="481.4912">+assignVehicleToEntry(vehicle,entry)</text><text fill="#000000" font-family="sans-serif" font-size="14" lengthAdjust="spacing" textLength="309" x="731.5" y="500.1123">+filterVehiclesNotUseInTime(vehicleList,entryDto)</text></g><!--class AgendaList--><g id="elem_AgendaList"><rect codeLine="32" fill="#F1F1F1" height="48" id="AgendaList" rx="2.5" ry="2.5" style="stroke:#181818;stroke-width:0.5;" width="103" x="734.5" y="623.7627"/><ellipse cx="749.5" cy="639.7627" fill="#ADD1B2" rx="11" ry="11" style="stroke:#181818;stroke-width:1.0;"/><path d="M752.2656,635.6377 Q752.4219,635.4189 752.6094,635.3096 Q752.7969,635.2002 753.0156,635.2002 Q753.3906,635.2002 753.625,635.4658 Q753.8594,635.7158 753.8594,636.3252 L753.8594,637.7783 Q753.8594,638.3877 753.625,638.6533 Q753.3906,638.9189 753.0156,638.9189 Q752.6719,638.9189 752.4688,638.7158 Q752.2656,638.5283 752.1563,638.0127 Q752.1094,637.6533 751.9219,637.4658 Q751.5938,637.0908 750.9844,636.8721 Q750.375,636.6533 749.75,636.6533 Q748.9844,636.6533 748.3438,636.9814 Q747.7188,637.3096 747.2188,638.0596 Q746.7344,638.8096 746.7344,639.8408 L746.7344,640.9346 Q746.7344,642.1689 747.625,642.9971 Q748.5156,643.8096 750.1094,643.8096 Q751.0469,643.8096 751.7031,643.5596 Q752.0938,643.4033 752.5156,642.9658 Q752.7813,642.7002 752.9219,642.6221 Q753.0781,642.5439 753.2813,642.5439 Q753.6094,642.5439 753.8594,642.8096 Q754.125,643.0596 754.125,643.4033 Q754.125,643.7471 753.7813,644.1533 Q753.2813,644.7314 752.4844,645.0596 Q751.4063,645.5127 750.1094,645.5127 Q748.5938,645.5127 747.3906,644.8877 Q746.4063,644.3877 745.7188,643.3252 Q745.0313,642.2471 745.0313,640.9658 L745.0313,639.8096 Q745.0313,638.4814 745.6406,637.3408 Q746.2656,636.1846 747.3594,635.5752 Q748.4531,634.9502 749.6875,634.9502 Q750.4219,634.9502 751.0625,635.1221 Q751.7188,635.2783 752.2656,635.6377 Z " fill="#000000"/><text fill="#000000" font-family="sans-serif" font-size="14" lengthAdjust="spacing" textLength="71" x="763.5" y="645.5596">AgendaList</text><line style="stroke:#181818;stroke-width:0.5;" x1="735.5" x2="836.5" y1="655.7627" y2="655.7627"/><line style="stroke:#181818;stroke-width:0.5;" x1="735.5" x2="836.5" y1="663.7627" y2="663.7627"/></g><g id="elem_GMN9"><path d="M562.5,625.2627 L562.5,669.8447 A0,0 0 0 0 562.5,669.8447 L699.5,669.8447 A0,0 0 0 0 699.5,669.8447 L699.5,635.2627 L689.5,625.2627 L663.98,625.2627 L817.33,507.9327 L655.98,625.2627 L562.5,625.2627 A0,0 0 0 0 562.5,625.2627 " fill="#FEFFDD" style="stroke:#181818;stroke-width:0.5;"/><path d="M689.5,625.2627 L689.5,635.2627 L699.5,635.2627 L689.5,625.2627 " fill="#FEFFDD" style="stroke:#181818;stroke-width:0.5;"/><text fill="#000000" font-family="sans-serif" font-size="13" lengthAdjust="spacing" textLength="116" x="568.5" y="644.291">- used for displaying</text><text fill="#000000" font-family="sans-serif" font-size="13" lengthAdjust="spacing" textLength="85" x="568.5" y="661.582">the agenda list</text></g><!--class VehicleRepository--><g id="elem_VehicleRepository"><rect codeLine="41" fill="#F1F1F1" height="85.2422" id="VehicleRepository" rx="2.5" ry="2.5" style="stroke:#181818;stroke-width:0.5;" width="146" x="381" y="605.2627"/><ellipse cx="396" cy="621.2627" fill="#ADD1B2" rx="11" ry="11" style="stroke:#181818;stroke-width:1.0;"/><path d="M398.7656,617.1377 Q398.9219,616.9189 399.1094,616.8096 Q399.2969,616.7002 399.5156,616.7002 Q399.8906,616.7002 400.125,616.9658 Q400.3594,617.2158 400.3594,617.8252 L400.3594,619.2783 Q400.3594,619.8877 400.125,620.1533 Q399.8906,620.4189 399.5156,620.4189 Q399.1719,620.4189 398.9688,620.2158 Q398.7656,620.0283 398.6563,619.5127 Q398.6094,619.1533 398.4219,618.9658 Q398.0938,618.5908 397.4844,618.3721 Q396.875,618.1533 396.25,618.1533 Q395.4844,618.1533 394.8438,618.4814 Q394.2188,618.8096 393.7188,619.5596 Q393.2344,620.3096 393.2344,621.3408 L393.2344,622.4346 Q393.2344,623.6689 394.125,624.4971 Q395.0156,625.3096 396.6094,625.3096 Q397.5469,625.3096 398.2031,625.0596 Q398.5938,624.9033 399.0156,624.4658 Q399.2813,624.2002 399.4219,624.1221 Q399.5781,624.0439 399.7813,624.0439 Q400.1094,624.0439 400.3594,624.3096 Q400.625,624.5596 400.625,624.9033 Q400.625,625.2471 400.2813,625.6533 Q399.7813,626.2314 398.9844,626.5596 Q397.9063,627.0127 396.6094,627.0127 Q395.0938,627.0127 393.8906,626.3877 Q392.9063,625.8877 392.2188,624.8252 Q391.5313,623.7471 391.5313,622.4658 L391.5313,621.3096 Q391.5313,619.9814 392.1406,618.8408 Q392.7656,617.6846 393.8594,617.0752 Q394.9531,616.4502 396.1875,616.4502 Q396.9219,616.4502 397.5625,616.6221 Q398.2188,616.7783 398.7656,617.1377 Z " fill="#000000"/><text fill="#000000" font-family="sans-serif" font-size="14" lengthAdjust="spacing" textLength="114" x="410" y="627.0596">VehicleRepository</text><line style="stroke:#181818;stroke-width:0.5;" x1="382" x2="526" y1="637.2627" y2="637.2627"/><text fill="#000000" font-family="sans-serif" font-size="14" lengthAdjust="spacing" textLength="89" x="387" y="656.3701">-List&lt;Vehicle&gt;</text><line style="stroke:#181818;stroke-width:0.5;" x1="382" x2="526" y1="663.8838" y2="663.8838"/><text fill="#000000" font-family="sans-serif" font-size="14" lengthAdjust="spacing" textLength="106" x="387" y="682.9912">+getVehicleList()</text></g><!--class Vehicle--><g id="elem_Vehicle"><rect codeLine="47" fill="#F1F1F1" height="48" id="Vehicle" rx="2.5" ry="2.5" style="stroke:#181818;stroke-width:0.5;" width="78" x="332" y="998.2627"/><ellipse cx="347" cy="1014.2627" fill="#ADD1B2" rx="11" ry="11" style="stroke:#181818;stroke-width:1.0;"/><path d="M349.7656,1010.1377 Q349.9219,1009.9189 350.1094,1009.8096 Q350.2969,1009.7002 350.5156,1009.7002 Q350.8906,1009.7002 351.125,1009.9658 Q351.3594,1010.2158 351.3594,1010.8252 L351.3594,1012.2783 Q351.3594,1012.8877 351.125,1013.1533 Q350.8906,1013.4189 350.5156,1013.4189 Q350.1719,1013.4189 349.9688,1013.2158 Q349.7656,1013.0283 349.6563,1012.5127 Q349.6094,1012.1533 349.4219,1011.9658 Q349.0938,1011.5908 348.4844,1011.3721 Q347.875,1011.1533 347.25,1011.1533 Q346.4844,1011.1533 345.8438,1011.4814 Q345.2188,1011.8096 344.7188,1012.5596 Q344.2344,1013.3096 344.2344,1014.3408 L344.2344,1015.4346 Q344.2344,1016.6689 345.125,1017.4971 Q346.0156,1018.3096 347.6094,1018.3096 Q348.5469,1018.3096 349.2031,1018.0596 Q349.5938,1017.9033 350.0156,1017.4658 Q350.2813,1017.2002 350.4219,1017.1221 Q350.5781,1017.0439 350.7813,1017.0439 Q351.1094,1017.0439 351.3594,1017.3096 Q351.625,1017.5596 351.625,1017.9033 Q351.625,1018.2471 351.2813,1018.6533 Q350.7813,1019.2314 349.9844,1019.5596 Q348.9063,1020.0127 347.6094,1020.0127 Q346.0938,1020.0127 344.8906,1019.3877 Q343.9063,1018.8877 343.2188,1017.8252 Q342.5313,1016.7471 342.5313,1015.4658 L342.5313,1014.3096 Q342.5313,1012.9814 343.1406,1011.8408 Q343.7656,1010.6846 344.8594,1010.0752 Q345.9531,1009.4502 347.1875,1009.4502 Q347.9219,1009.4502 348.5625,1009.6221 Q349.2188,1009.7783 349.7656,1010.1377 Z " fill="#000000"/><text fill="#000000" font-family="sans-serif" font-size="14" lengthAdjust="spacing" textLength="46" x="361" y="1020.0596">Vehicle</text><line style="stroke:#181818;stroke-width:0.5;" x1="333" x2="409" y1="1030.2627" y2="1030.2627"/><line style="stroke:#181818;stroke-width:0.5;" x1="333" x2="409" y1="1038.2627" y2="1038.2627"/></g><!--class Repositories--><g id="elem_Repositories"><rect codeLine="51" fill="#F1F1F1" height="122.4844" id="Repositories" rx="2.5" ry="2.5" style="stroke:#181818;stroke-width:0.5;" width="194" x="778" y="172.7627"/><ellipse cx="831.25" cy="188.7627" fill="#ADD1B2" rx="11" ry="11" style="stroke:#181818;stroke-width:1.0;"/><path d="M834.0156,184.6377 Q834.1719,184.4189 834.3594,184.3096 Q834.5469,184.2002 834.7656,184.2002 Q835.1406,184.2002 835.375,184.4658 Q835.6094,184.7158 835.6094,185.3252 L835.6094,186.7783 Q835.6094,187.3877 835.375,187.6533 Q835.1406,187.9189 834.7656,187.9189 Q834.4219,187.9189 834.2188,187.7158 Q834.0156,187.5283 833.9063,187.0127 Q833.8594,186.6533 833.6719,186.4658 Q833.3438,186.0908 832.7344,185.8721 Q832.125,185.6533 831.5,185.6533 Q830.7344,185.6533 830.0938,185.9814 Q829.4688,186.3096 828.9688,187.0596 Q828.4844,187.8096 828.4844,188.8408 L828.4844,189.9346 Q828.4844,191.1689 829.375,191.9971 Q830.2656,192.8096 831.8594,192.8096 Q832.7969,192.8096 833.4531,192.5596 Q833.8438,192.4033 834.2656,191.9658 Q834.5313,191.7002 834.6719,191.6221 Q834.8281,191.5439 835.0313,191.5439 Q835.3594,191.5439 835.6094,191.8096 Q835.875,192.0596 835.875,192.4033 Q835.875,192.7471 835.5313,193.1533 Q835.0313,193.7314 834.2344,194.0596 Q833.1563,194.5127 831.8594,194.5127 Q830.3438,194.5127 829.1406,193.8877 Q828.1563,193.3877 827.4688,192.3252 Q826.7813,191.2471 826.7813,189.9658 L826.7813,188.8096 Q826.7813,187.4814 827.3906,186.3408 Q828.0156,185.1846 829.1094,184.5752 Q830.2031,183.9502 831.4375,183.9502 Q832.1719,183.9502 832.8125,184.1221 Q833.4688,184.2783 834.0156,184.6377 Z " fill="#000000"/><text fill="#000000" font-family="sans-serif" font-size="14" lengthAdjust="spacing" textLength="79" x="851.75" y="194.5596">Repositories</text><line style="stroke:#181818;stroke-width:0.5;" x1="779" x2="971" y1="204.7627" y2="204.7627"/><line style="stroke:#181818;stroke-width:0.5;" x1="779" x2="971" y1="212.7627" y2="212.7627"/><text fill="#000000" font-family="sans-serif" font-size="14" lengthAdjust="spacing" textLength="94" x="784" y="231.8701">-Repositories()</text><text fill="#000000" font-family="sans-serif" font-size="14" lengthAdjust="spacing" textLength="182" x="784" y="250.4912">+getInstance() : Repositories</text><text fill="#000000" font-family="sans-serif" font-size="14" lengthAdjust="spacing" textLength="139" x="784" y="269.1123">+getEntryRepository()</text><text fill="#000000" font-family="sans-serif" font-size="14" lengthAdjust="spacing" textLength="152" x="784" y="287.7334">+getVehicleRepository()</text></g><!--class EntryMapper--><g id="elem_EntryMapper"><rect codeLine="58" fill="#F1F1F1" height="122.4844" id="EntryMapper" rx="2.5" ry="2.5" style="stroke:#181818;stroke-width:0.5;" width="178" x="873" y="586.7627"/><ellipse cx="917.25" cy="602.7627" fill="#ADD1B2" rx="11" ry="11" style="stroke:#181818;stroke-width:1.0;"/><path d="M920.0156,598.6377 Q920.1719,598.4189 920.3594,598.3096 Q920.5469,598.2002 920.7656,598.2002 Q921.1406,598.2002 921.375,598.4658 Q921.6094,598.7158 921.6094,599.3252 L921.6094,600.7783 Q921.6094,601.3877 921.375,601.6533 Q921.1406,601.9189 920.7656,601.9189 Q920.4219,601.9189 920.2188,601.7158 Q920.0156,601.5283 919.9063,601.0127 Q919.8594,600.6533 919.6719,600.4658 Q919.3438,600.0908 918.7344,599.8721 Q918.125,599.6533 917.5,599.6533 Q916.7344,599.6533 916.0938,599.9814 Q915.4688,600.3096 914.9688,601.0596 Q914.4844,601.8096 914.4844,602.8408 L914.4844,603.9346 Q914.4844,605.1689 915.375,605.9971 Q916.2656,606.8096 917.8594,606.8096 Q918.7969,606.8096 919.4531,606.5596 Q919.8438,606.4033 920.2656,605.9658 Q920.5313,605.7002 920.6719,605.6221 Q920.8281,605.5439 921.0313,605.5439 Q921.3594,605.5439 921.6094,605.8096 Q921.875,606.0596 921.875,606.4033 Q921.875,606.7471 921.5313,607.1533 Q921.0313,607.7314 920.2344,608.0596 Q919.1563,608.5127 917.8594,608.5127 Q916.3438,608.5127 915.1406,607.8877 Q914.1563,607.3877 913.4688,606.3252 Q912.7813,605.2471 912.7813,603.9658 L912.7813,602.8096 Q912.7813,601.4814 913.3906,600.3408 Q914.0156,599.1846 915.1094,598.5752 Q916.2031,597.9502 917.4375,597.9502 Q918.1719,597.9502 918.8125,598.1221 Q919.4688,598.2783 920.0156,598.6377 Z " fill="#000000"/><text fill="#000000" font-family="sans-serif" font-size="14" lengthAdjust="spacing" textLength="81" x="937.75" y="608.5596">EntryMapper</text><line style="stroke:#181818;stroke-width:0.5;" x1="874" x2="1050" y1="618.7627" y2="618.7627"/><text fill="#000000" font-family="sans-serif" font-size="14" lengthAdjust="spacing" textLength="98" x="879" y="637.8701">-List&lt;EntryDto&gt;</text><line style="stroke:#181818;stroke-width:0.5;" x1="874" x2="1050" y1="645.3838" y2="645.3838"/><text fill="#000000" font-family="sans-serif" font-size="14" lengthAdjust="spacing" textLength="122" x="879" y="664.4912">+entryDtoToEntry()</text><text fill="#000000" font-family="sans-serif" font-size="14" lengthAdjust="spacing" textLength="122" x="879" y="683.1123">+entryToEntryDto()</text><text fill="#000000" font-family="sans-serif" font-size="14" lengthAdjust="spacing" textLength="166" x="879" y="701.7334">+entryListToEntryDtoList()</text></g><!--class Task--><g id="elem_Task"><rect codeLine="65" fill="#F1F1F1" height="48" id="Task" rx="2.5" ry="2.5" style="stroke:#181818;stroke-width:0.5;" width="63" x="781.5" y="824.7627"/><ellipse cx="796.5" cy="840.7627" fill="#ADD1B2" rx="11" ry="11" style="stroke:#181818;stroke-width:1.0;"/><path d="M799.2656,836.6377 Q799.4219,836.4189 799.6094,836.3096 Q799.7969,836.2002 800.0156,836.2002 Q800.3906,836.2002 800.625,836.4658 Q800.8594,836.7158 800.8594,837.3252 L800.8594,838.7783 Q800.8594,839.3877 800.625,839.6533 Q800.3906,839.9189 800.0156,839.9189 Q799.6719,839.9189 799.4688,839.7158 Q799.2656,839.5283 799.1563,839.0127 Q799.1094,838.6533 798.9219,838.4658 Q798.5938,838.0908 797.9844,837.8721 Q797.375,837.6533 796.75,837.6533 Q795.9844,837.6533 795.3438,837.9814 Q794.7188,838.3096 794.2188,839.0596 Q793.7344,839.8096 793.7344,840.8408 L793.7344,841.9346 Q793.7344,843.1689 794.625,843.9971 Q795.5156,844.8096 797.1094,844.8096 Q798.0469,844.8096 798.7031,844.5596 Q799.0938,844.4033 799.5156,843.9658 Q799.7813,843.7002 799.9219,843.6221 Q800.0781,843.5439 800.2813,843.5439 Q800.6094,843.5439 800.8594,843.8096 Q801.125,844.0596 801.125,844.4033 Q801.125,844.7471 800.7813,845.1533 Q800.2813,845.7314 799.4844,846.0596 Q798.4063,846.5127 797.1094,846.5127 Q795.5938,846.5127 794.3906,845.8877 Q793.4063,845.3877 792.7188,844.3252 Q792.0313,843.2471 792.0313,841.9658 L792.0313,840.8096 Q792.0313,839.4814 792.6406,838.3408 Q793.2656,837.1846 794.3594,836.5752 Q795.4531,835.9502 796.6875,835.9502 Q797.4219,835.9502 798.0625,836.1221 Q798.7188,836.2783 799.2656,836.6377 Z " fill="#000000"/><text fill="#000000" font-family="sans-serif" font-size="14" lengthAdjust="spacing" textLength="31" x="810.5" y="846.5596">Task</text><line style="stroke:#181818;stroke-width:0.5;" x1="782.5" x2="843.5" y1="856.7627" y2="856.7627"/><line style="stroke:#181818;stroke-width:0.5;" x1="782.5" x2="843.5" y1="864.7627" y2="864.7627"/></g><!--class EntryDto--><g id="elem_EntryDto"><rect codeLine="68" fill="#F1F1F1" height="48" id="EntryDto" rx="2.5" ry="2.5" style="stroke:#181818;stroke-width:0.5;" width="87" x="659.5" y="824.7627"/><ellipse cx="674.5" cy="840.7627" fill="#ADD1B2" rx="11" ry="11" style="stroke:#181818;stroke-width:1.0;"/><path d="M677.2656,836.6377 Q677.4219,836.4189 677.6094,836.3096 Q677.7969,836.2002 678.0156,836.2002 Q678.3906,836.2002 678.625,836.4658 Q678.8594,836.7158 678.8594,837.3252 L678.8594,838.7783 Q678.8594,839.3877 678.625,839.6533 Q678.3906,839.9189 678.0156,839.9189 Q677.6719,839.9189 677.4688,839.7158 Q677.2656,839.5283 677.1563,839.0127 Q677.1094,838.6533 676.9219,838.4658 Q676.5938,838.0908 675.9844,837.8721 Q675.375,837.6533 674.75,837.6533 Q673.9844,837.6533 673.3438,837.9814 Q672.7188,838.3096 672.2188,839.0596 Q671.7344,839.8096 671.7344,840.8408 L671.7344,841.9346 Q671.7344,843.1689 672.625,843.9971 Q673.5156,844.8096 675.1094,844.8096 Q676.0469,844.8096 676.7031,844.5596 Q677.0938,844.4033 677.5156,843.9658 Q677.7813,843.7002 677.9219,843.6221 Q678.0781,843.5439 678.2813,843.5439 Q678.6094,843.5439 678.8594,843.8096 Q679.125,844.0596 679.125,844.4033 Q679.125,844.7471 678.7813,845.1533 Q678.2813,845.7314 677.4844,846.0596 Q676.4063,846.5127 675.1094,846.5127 Q673.5938,846.5127 672.3906,845.8877 Q671.4063,845.3877 670.7188,844.3252 Q670.0313,843.2471 670.0313,841.9658 L670.0313,840.8096 Q670.0313,839.4814 670.6406,838.3408 Q671.2656,837.1846 672.3594,836.5752 Q673.4531,835.9502 674.6875,835.9502 Q675.4219,835.9502 676.0625,836.1221 Q676.7188,836.2783 677.2656,836.6377 Z " fill="#000000"/><text fill="#000000" font-family="sans-serif" font-size="14" lengthAdjust="spacing" textLength="55" x="688.5" y="846.5596">EntryDto</text><line style="stroke:#181818;stroke-width:0.5;" x1="660.5" x2="745.5" y1="856.7627" y2="856.7627"/><line style="stroke:#181818;stroke-width:0.5;" x1="660.5" x2="745.5" y1="864.7627" y2="864.7627"/></g><!--class VehicleMapper--><g id="elem_VehicleMapper"><rect codeLine="71" fill="#F1F1F1" height="122.4844" id="VehicleMapper" rx="2.5" ry="2.5" style="stroke:#181818;stroke-width:0.5;" width="203" x="421.5" y="787.7627"/><ellipse cx="471.75" cy="803.7627" fill="#ADD1B2" rx="11" ry="11" style="stroke:#181818;stroke-width:1.0;"/><path d="M474.5156,799.6377 Q474.6719,799.4189 474.8594,799.3096 Q475.0469,799.2002 475.2656,799.2002 Q475.6406,799.2002 475.875,799.4658 Q476.1094,799.7158 476.1094,800.3252 L476.1094,801.7783 Q476.1094,802.3877 475.875,802.6533 Q475.6406,802.9189 475.2656,802.9189 Q474.9219,802.9189 474.7188,802.7158 Q474.5156,802.5283 474.4063,802.0127 Q474.3594,801.6533 474.1719,801.4658 Q473.8438,801.0908 473.2344,800.8721 Q472.625,800.6533 472,800.6533 Q471.2344,800.6533 470.5938,800.9814 Q469.9688,801.3096 469.4688,802.0596 Q468.9844,802.8096 468.9844,803.8408 L468.9844,804.9346 Q468.9844,806.1689 469.875,806.9971 Q470.7656,807.8096 472.3594,807.8096 Q473.2969,807.8096 473.9531,807.5596 Q474.3438,807.4033 474.7656,806.9658 Q475.0313,806.7002 475.1719,806.6221 Q475.3281,806.5439 475.5313,806.5439 Q475.8594,806.5439 476.1094,806.8096 Q476.375,807.0596 476.375,807.4033 Q476.375,807.7471 476.0313,808.1533 Q475.5313,808.7314 474.7344,809.0596 Q473.6563,809.5127 472.3594,809.5127 Q470.8438,809.5127 469.6406,808.8877 Q468.6563,808.3877 467.9688,807.3252 Q467.2813,806.2471 467.2813,804.9658 L467.2813,803.8096 Q467.2813,802.4814 467.8906,801.3408 Q468.5156,800.1846 469.6094,799.5752 Q470.7031,798.9502 471.9375,798.9502 Q472.6719,798.9502 473.3125,799.1221 Q473.9688,799.2783 474.5156,799.6377 Z " fill="#000000"/><text fill="#000000" font-family="sans-serif" font-size="14" lengthAdjust="spacing" textLength="94" x="492.25" y="809.5596">VehicleMapper</text><line style="stroke:#181818;stroke-width:0.5;" x1="422.5" x2="623.5" y1="819.7627" y2="819.7627"/><text fill="#000000" font-family="sans-serif" font-size="14" lengthAdjust="spacing" textLength="111" x="427.5" y="838.8701">-List&lt;VehicleDto&gt;</text><line style="stroke:#181818;stroke-width:0.5;" x1="422.5" x2="623.5" y1="846.3838" y2="846.3838"/><text fill="#000000" font-family="sans-serif" font-size="14" lengthAdjust="spacing" textLength="191" x="427.5" y="865.4912">+vehicleListToVehicleDtoList()</text><text fill="#000000" font-family="sans-serif" font-size="14" lengthAdjust="spacing" textLength="147" x="427.5" y="884.1123">+vehicleToVehicleDto()</text><text fill="#000000" font-family="sans-serif" font-size="14" lengthAdjust="spacing" textLength="147" x="427.5" y="902.7334">+vehicleDtoToVehicle()</text></g><!--class VehicleDto--><g id="elem_VehicleDto"><rect codeLine="78" fill="#F1F1F1" height="48" id="VehicleDto" rx="2.5" ry="2.5" style="stroke:#181818;stroke-width:0.5;" width="100" x="473" y="998.2627"/><ellipse cx="488" cy="1014.2627" fill="#ADD1B2" rx="11" ry="11" style="stroke:#181818;stroke-width:1.0;"/><path d="M490.7656,1010.1377 Q490.9219,1009.9189 491.1094,1009.8096 Q491.2969,1009.7002 491.5156,1009.7002 Q491.8906,1009.7002 492.125,1009.9658 Q492.3594,1010.2158 492.3594,1010.8252 L492.3594,1012.2783 Q492.3594,1012.8877 492.125,1013.1533 Q491.8906,1013.4189 491.5156,1013.4189 Q491.1719,1013.4189 490.9688,1013.2158 Q490.7656,1013.0283 490.6563,1012.5127 Q490.6094,1012.1533 490.4219,1011.9658 Q490.0938,1011.5908 489.4844,1011.3721 Q488.875,1011.1533 488.25,1011.1533 Q487.4844,1011.1533 486.8438,1011.4814 Q486.2188,1011.8096 485.7188,1012.5596 Q485.2344,1013.3096 485.2344,1014.3408 L485.2344,1015.4346 Q485.2344,1016.6689 486.125,1017.4971 Q487.0156,1018.3096 488.6094,1018.3096 Q489.5469,1018.3096 490.2031,1018.0596 Q490.5938,1017.9033 491.0156,1017.4658 Q491.2813,1017.2002 491.4219,1017.1221 Q491.5781,1017.0439 491.7813,1017.0439 Q492.1094,1017.0439 492.3594,1017.3096 Q492.625,1017.5596 492.625,1017.9033 Q492.625,1018.2471 492.2813,1018.6533 Q491.7813,1019.2314 490.9844,1019.5596 Q489.9063,1020.0127 488.6094,1020.0127 Q487.0938,1020.0127 485.8906,1019.3877 Q484.9063,1018.8877 484.2188,1017.8252 Q483.5313,1016.7471 483.5313,1015.4658 L483.5313,1014.3096 Q483.5313,1012.9814 484.1406,1011.8408 Q484.7656,1010.6846 485.8594,1010.0752 Q486.9531,1009.4502 488.1875,1009.4502 Q488.9219,1009.4502 489.5625,1009.6221 Q490.2188,1009.7783 490.7656,1010.1377 Z " fill="#000000"/><text fill="#000000" font-family="sans-serif" font-size="14" lengthAdjust="spacing" textLength="68" x="502" y="1020.0596">VehicleDto</text><line style="stroke:#181818;stroke-width:0.5;" x1="474" x2="572" y1="1030.2627" y2="1030.2627"/><line style="stroke:#181818;stroke-width:0.5;" x1="474" x2="572" y1="1038.2627" y2="1038.2627"/></g><!--class ViewDetailsEntryOnAgendaController--><g id="elem_ViewDetailsEntryOnAgendaController"><rect codeLine="89" fill="#F1F1F1" height="48" id="ViewDetailsEntryOnAgendaController" rx="2.5" ry="2.5" style="stroke:#181818;stroke-width:0.5;" width="267" x="1107.5" y="209.7627"/><ellipse cx="1122.5" cy="225.7627" fill="#ADD1B2" rx="11" ry="11" style="stroke:#181818;stroke-width:1.0;"/><path d="M1125.2656,221.6377 Q1125.4219,221.4189 1125.6094,221.3096 Q1125.7969,221.2002 1126.0156,221.2002 Q1126.3906,221.2002 1126.625,221.4658 Q1126.8594,221.7158 1126.8594,222.3252 L1126.8594,223.7783 Q1126.8594,224.3877 1126.625,224.6533 Q1126.3906,224.9189 1126.0156,224.9189 Q1125.6719,224.9189 1125.4688,224.7158 Q1125.2656,224.5283 1125.1563,224.0127 Q1125.1094,223.6533 1124.9219,223.4658 Q1124.5938,223.0908 1123.9844,222.8721 Q1123.375,222.6533 1122.75,222.6533 Q1121.9844,222.6533 1121.3438,222.9814 Q1120.7188,223.3096 1120.2188,224.0596 Q1119.7344,224.8096 1119.7344,225.8408 L1119.7344,226.9346 Q1119.7344,228.1689 1120.625,228.9971 Q1121.5156,229.8096 1123.1094,229.8096 Q1124.0469,229.8096 1124.7031,229.5596 Q1125.0938,229.4033 1125.5156,228.9658 Q1125.7813,228.7002 1125.9219,228.6221 Q1126.0781,228.5439 1126.2813,228.5439 Q1126.6094,228.5439 1126.8594,228.8096 Q1127.125,229.0596 1127.125,229.4033 Q1127.125,229.7471 1126.7813,230.1533 Q1126.2813,230.7314 1125.4844,231.0596 Q1124.4063,231.5127 1123.1094,231.5127 Q1121.5938,231.5127 1120.3906,230.8877 Q1119.4063,230.3877 1118.7188,229.3252 Q1118.0313,228.2471 1118.0313,226.9658 L1118.0313,225.8096 Q1118.0313,224.4814 1118.6406,223.3408 Q1119.2656,222.1846 1120.3594,221.5752 Q1121.4531,220.9502 1122.6875,220.9502 Q1123.4219,220.9502 1124.0625,221.1221 Q1124.7188,221.2783 1125.2656,221.6377 Z " fill="#000000"/><text fill="#000000" font-family="sans-serif" font-size="14" lengthAdjust="spacing" textLength="235" x="1136.5" y="231.5596">ViewDetailsEntryOnAgendaController</text><line style="stroke:#181818;stroke-width:0.5;" x1="1108.5" x2="1373.5" y1="241.7627" y2="241.7627"/><line style="stroke:#181818;stroke-width:0.5;" x1="1108.5" x2="1373.5" y1="249.7627" y2="249.7627"/></g><!--class AssignedVehicleToEntryController--><g id="elem_AssignedVehicleToEntryController"><rect codeLine="92" fill="#F1F1F1" height="178.3477" id="AssignedVehicleToEntryController" rx="2.5" ry="2.5" style="stroke:#181818;stroke-width:0.5;" width="248" x="1410" y="144.7627"/><ellipse cx="1425" cy="160.7627" fill="#ADD1B2" rx="11" ry="11" style="stroke:#181818;stroke-width:1.0;"/><path d="M1427.7656,156.6377 Q1427.9219,156.4189 1428.1094,156.3096 Q1428.2969,156.2002 1428.5156,156.2002 Q1428.8906,156.2002 1429.125,156.4658 Q1429.3594,156.7158 1429.3594,157.3252 L1429.3594,158.7783 Q1429.3594,159.3877 1429.125,159.6533 Q1428.8906,159.9189 1428.5156,159.9189 Q1428.1719,159.9189 1427.9688,159.7158 Q1427.7656,159.5283 1427.6563,159.0127 Q1427.6094,158.6533 1427.4219,158.4658 Q1427.0938,158.0908 1426.4844,157.8721 Q1425.875,157.6533 1425.25,157.6533 Q1424.4844,157.6533 1423.8438,157.9814 Q1423.2188,158.3096 1422.7188,159.0596 Q1422.2344,159.8096 1422.2344,160.8408 L1422.2344,161.9346 Q1422.2344,163.1689 1423.125,163.9971 Q1424.0156,164.8096 1425.6094,164.8096 Q1426.5469,164.8096 1427.2031,164.5596 Q1427.5938,164.4033 1428.0156,163.9658 Q1428.2813,163.7002 1428.4219,163.6221 Q1428.5781,163.5439 1428.7813,163.5439 Q1429.1094,163.5439 1429.3594,163.8096 Q1429.625,164.0596 1429.625,164.4033 Q1429.625,164.7471 1429.2813,165.1533 Q1428.7813,165.7314 1427.9844,166.0596 Q1426.9063,166.5127 1425.6094,166.5127 Q1424.0938,166.5127 1422.8906,165.8877 Q1421.9063,165.3877 1421.2188,164.3252 Q1420.5313,163.2471 1420.5313,161.9658 L1420.5313,160.8096 Q1420.5313,159.4814 1421.1406,158.3408 Q1421.7656,157.1846 1422.8594,156.5752 Q1423.9531,155.9502 1425.1875,155.9502 Q1425.9219,155.9502 1426.5625,156.1221 Q1427.2188,156.2783 1427.7656,156.6377 Z " fill="#000000"/><text fill="#000000" font-family="sans-serif" font-size="14" lengthAdjust="spacing" textLength="216" x="1439" y="166.5596">AssignedVehicleToEntryController</text><line style="stroke:#181818;stroke-width:0.5;" x1="1411" x2="1657" y1="176.7627" y2="176.7627"/><text fill="#000000" font-family="sans-serif" font-size="14" lengthAdjust="spacing" textLength="210" x="1416" y="195.8701">-EntryRepository entryRepository</text><text fill="#000000" font-family="sans-serif" font-size="14" lengthAdjust="spacing" textLength="235" x="1416" y="214.4912">-VehicleRepository vehicleRepository</text><line style="stroke:#181818;stroke-width:0.5;" x1="1411" x2="1657" y1="222.0049" y2="222.0049"/><text fill="#000000" font-family="sans-serif" font-size="14" lengthAdjust="spacing" textLength="234" x="1416" y="241.1123">+AssignedVehicleToEntryController()</text><text fill="#000000" font-family="sans-serif" font-size="14" lengthAdjust="spacing" textLength="221" x="1416" y="259.7334">+assignVehicleToEntry(vehicleDto)</text><text fill="#000000" font-family="sans-serif" font-size="14" lengthAdjust="spacing" textLength="138" x="1416" y="278.3545">+getEntrysInAgenda()</text><text fill="#000000" font-family="sans-serif" font-size="14" lengthAdjust="spacing" textLength="106" x="1416" y="296.9756">+getVehicleList()</text><text fill="#000000" font-family="sans-serif" font-size="14" lengthAdjust="spacing" textLength="196" x="1416" y="315.5967">-getCollaboratorFromSession()</text></g><!--class ViewDetailsEntryOnAgendaUI--><g id="elem_ViewDetailsEntryOnAgendaUI"><rect codeLine="114" fill="#F1F1F1" height="66.6211" id="ViewDetailsEntryOnAgendaUI" rx="2.5" ry="2.5" style="stroke:#181818;stroke-width:0.5;" width="217" x="1955.5" y="200.2627"/><ellipse cx="1970.5" cy="216.2627" fill="#ADD1B2" rx="11" ry="11" style="stroke:#181818;stroke-width:1.0;"/><path d="M1973.2656,212.1377 Q1973.4219,211.9189 1973.6094,211.8096 Q1973.7969,211.7002 1974.0156,211.7002 Q1974.3906,211.7002 1974.625,211.9658 Q1974.8594,212.2158 1974.8594,212.8252 L1974.8594,214.2783 Q1974.8594,214.8877 1974.625,215.1533 Q1974.3906,215.4189 1974.0156,215.4189 Q1973.6719,215.4189 1973.4688,215.2158 Q1973.2656,215.0283 1973.1563,214.5127 Q1973.1094,214.1533 1972.9219,213.9658 Q1972.5938,213.5908 1971.9844,213.3721 Q1971.375,213.1533 1970.75,213.1533 Q1969.9844,213.1533 1969.3438,213.4814 Q1968.7188,213.8096 1968.2188,214.5596 Q1967.7344,215.3096 1967.7344,216.3408 L1967.7344,217.4346 Q1967.7344,218.6689 1968.625,219.4971 Q1969.5156,220.3096 1971.1094,220.3096 Q1972.0469,220.3096 1972.7031,220.0596 Q1973.0938,219.9033 1973.5156,219.4658 Q1973.7813,219.2002 1973.9219,219.1221 Q1974.0781,219.0439 1974.2813,219.0439 Q1974.6094,219.0439 1974.8594,219.3096 Q1975.125,219.5596 1975.125,219.9033 Q1975.125,220.2471 1974.7813,220.6533 Q1974.2813,221.2314 1973.4844,221.5596 Q1972.4063,222.0127 1971.1094,222.0127 Q1969.5938,222.0127 1968.3906,221.3877 Q1967.4063,220.8877 1966.7188,219.8252 Q1966.0313,218.7471 1966.0313,217.4658 L1966.0313,216.3096 Q1966.0313,214.9814 1966.6406,213.8408 Q1967.2656,212.6846 1968.3594,212.0752 Q1969.4531,211.4502 1970.6875,211.4502 Q1971.4219,211.4502 1972.0625,211.6221 Q1972.7188,211.7783 1973.2656,212.1377 Z " fill="#000000"/><text fill="#000000" font-family="sans-serif" font-size="14" lengthAdjust="spacing" textLength="185" x="1984.5" y="222.0596">ViewDetailsEntryOnAgendaUI</text><line style="stroke:#181818;stroke-width:0.5;" x1="1956.5" x2="2171.5" y1="232.2627" y2="232.2627"/><line style="stroke:#181818;stroke-width:0.5;" x1="1956.5" x2="2171.5" y1="240.2627" y2="240.2627"/><text fill="#000000" font-family="sans-serif" font-size="14" lengthAdjust="spacing" textLength="177" x="1961.5" y="259.3701">+assignVehicleListToEntry()</text></g><!--class AssignVehicleToEntryUI--><g id="elem_AssignVehicleToEntryUI"><rect codeLine="118" fill="#F1F1F1" height="48" id="AssignVehicleToEntryUI" rx="2.5" ry="2.5" style="stroke:#181818;stroke-width:0.5;" width="182" x="1738" y="209.7627"/><ellipse cx="1753" cy="225.7627" fill="#ADD1B2" rx="11" ry="11" style="stroke:#181818;stroke-width:1.0;"/><path d="M1755.7656,221.6377 Q1755.9219,221.4189 1756.1094,221.3096 Q1756.2969,221.2002 1756.5156,221.2002 Q1756.8906,221.2002 1757.125,221.4658 Q1757.3594,221.7158 1757.3594,222.3252 L1757.3594,223.7783 Q1757.3594,224.3877 1757.125,224.6533 Q1756.8906,224.9189 1756.5156,224.9189 Q1756.1719,224.9189 1755.9688,224.7158 Q1755.7656,224.5283 1755.6563,224.0127 Q1755.6094,223.6533 1755.4219,223.4658 Q1755.0938,223.0908 1754.4844,222.8721 Q1753.875,222.6533 1753.25,222.6533 Q1752.4844,222.6533 1751.8438,222.9814 Q1751.2188,223.3096 1750.7188,224.0596 Q1750.2344,224.8096 1750.2344,225.8408 L1750.2344,226.9346 Q1750.2344,228.1689 1751.125,228.9971 Q1752.0156,229.8096 1753.6094,229.8096 Q1754.5469,229.8096 1755.2031,229.5596 Q1755.5938,229.4033 1756.0156,228.9658 Q1756.2813,228.7002 1756.4219,228.6221 Q1756.5781,228.5439 1756.7813,228.5439 Q1757.1094,228.5439 1757.3594,228.8096 Q1757.625,229.0596 1757.625,229.4033 Q1757.625,229.7471 1757.2813,230.1533 Q1756.7813,230.7314 1755.9844,231.0596 Q1754.9063,231.5127 1753.6094,231.5127 Q1752.0938,231.5127 1750.8906,230.8877 Q1749.9063,230.3877 1749.2188,229.3252 Q1748.5313,228.2471 1748.5313,226.9658 L1748.5313,225.8096 Q1748.5313,224.4814 1749.1406,223.3408 Q1749.7656,222.1846 1750.8594,221.5752 Q1751.9531,220.9502 1753.1875,220.9502 Q1753.9219,220.9502 1754.5625,221.1221 Q1755.2188,221.2783 1755.7656,221.6377 Z " fill="#000000"/><text fill="#000000" font-family="sans-serif" font-size="14" lengthAdjust="spacing" textLength="150" x="1767" y="231.5596">AssignVehicleToEntryUI</text><line style="stroke:#181818;stroke-width:0.5;" x1="1739" x2="1919" y1="241.7627" y2="241.7627"/><line style="stroke:#181818;stroke-width:0.5;" x1="1739" x2="1919" y1="249.7627" y2="249.7627"/></g><!--class GSMUser--><g id="elem_GSMUser"><rect codeLine="110" fill="#F1F1F1" height="48" id="GSMUser" rx="2.5" ry="2.5" style="stroke:#181818;stroke-width:0.5;" width="92" x="1714" y="998.2627"/><ellipse cx="1729" cy="1014.2627" fill="#ADD1B2" rx="11" ry="11" style="stroke:#181818;stroke-width:1.0;"/><path d="M1731.7656,1010.1377 Q1731.9219,1009.9189 1732.1094,1009.8096 Q1732.2969,1009.7002 1732.5156,1009.7002 Q1732.8906,1009.7002 1733.125,1009.9658 Q1733.3594,1010.2158 1733.3594,1010.8252 L1733.3594,1012.2783 Q1733.3594,1012.8877 1733.125,1013.1533 Q1732.8906,1013.4189 1732.5156,1013.4189 Q1732.1719,1013.4189 1731.9688,1013.2158 Q1731.7656,1013.0283 1731.6563,1012.5127 Q1731.6094,1012.1533 1731.4219,1011.9658 Q1731.0938,1011.5908 1730.4844,1011.3721 Q1729.875,1011.1533 1729.25,1011.1533 Q1728.4844,1011.1533 1727.8438,1011.4814 Q1727.2188,1011.8096 1726.7188,1012.5596 Q1726.2344,1013.3096 1726.2344,1014.3408 L1726.2344,1015.4346 Q1726.2344,1016.6689 1727.125,1017.4971 Q1728.0156,1018.3096 1729.6094,1018.3096 Q1730.5469,1018.3096 1731.2031,1018.0596 Q1731.5938,1017.9033 1732.0156,1017.4658 Q1732.2813,1017.2002 1732.4219,1017.1221 Q1732.5781,1017.0439 1732.7813,1017.0439 Q1733.1094,1017.0439 1733.3594,1017.3096 Q1733.625,1017.5596 1733.625,1017.9033 Q1733.625,1018.2471 1733.2813,1018.6533 Q1732.7813,1019.2314 1731.9844,1019.5596 Q1730.9063,1020.0127 1729.6094,1020.0127 Q1728.0938,1020.0127 1726.8906,1019.3877 Q1725.9063,1018.8877 1725.2188,1017.8252 Q1724.5313,1016.7471 1724.5313,1015.4658 L1724.5313,1014.3096 Q1724.5313,1012.9814 1725.1406,1011.8408 Q1725.7656,1010.6846 1726.8594,1010.0752 Q1727.9531,1009.4502 1729.1875,1009.4502 Q1729.9219,1009.4502 1730.5625,1009.6221 Q1731.2188,1009.7783 1731.7656,1010.1377 Z " fill="#000000"/><text fill="#000000" font-family="sans-serif" font-size="14" lengthAdjust="spacing" textLength="60" x="1743" y="1020.0596">GSMUser</text><line style="stroke:#181818;stroke-width:0.5;" x1="1715" x2="1805" y1="1030.2627" y2="1030.2627"/><line style="stroke:#181818;stroke-width:0.5;" x1="1715" x2="1805" y1="1038.2627" y2="1038.2627"/></g><!--link GMN23 to AssignedVehicleToEntryController--><g id="link_GMN23_AssignedVehicleToEntryController"><path d="M156.62,220.0127 C188.25,174.8327 287,33.7627 287,33.7627 C287,33.7627 304.5,18.7627 304.5,18.7627 C304.5,18.7627 1374.5,18.7627 1374.5,18.7627 C1374.5,18.7627 1392,33.7627 1392,33.7627 C1392,33.7627 1432.82,91.2527 1470.68,144.5827 " fill="none" id="GMN23-AssignedVehicleToEntryController" style="stroke:#181818;stroke-width:1.0;stroke-dasharray:7.0,7.0;"/></g><!--link Repositories to Repositories--><g id="link_Repositories_Repositories"><path codeLine="121" d="M972.28,210.2427 C992.48,212.7227 1007,220.5627 1007,233.7627 C1007,246.9627 998.4353,254.0716 978.2353,256.5516 " fill="none" id="Repositories-to-Repositories" style="stroke:#181818;stroke-width:1.0;"/><polygon fill="#181818" points="972.28,257.2827,981.7004,260.1562,977.2427,256.6734,980.7255,252.2158,972.28,257.2827" style="stroke:#181818;stroke-width:1.0;"/><text fill="#000000" font-family="sans-serif" font-size="13" lengthAdjust="spacing" textLength="49" x="1013" y="239.291">instance</text></g><!--reverse link AssignVehicleToEntryUI to ViewDetailsEntryOnAgendaUI--><g id="link_AssignVehicleToEntryUI_ViewDetailsEntryOnAgendaUI"><path codeLine="123" d="M1926.27,233.7627 C1935.83,233.7627 1943.25,233.7627 1955.44,233.7627 " fill="none" id="AssignVehicleToEntryUI-backto-ViewDetailsEntryOnAgendaUI" style="stroke:#181818;stroke-width:1.0;stroke-dasharray:7.0,7.0;"/><polygon fill="#181818" points="1920.27,233.7627,1929.27,237.7627,1925.27,233.7627,1929.27,229.7627,1920.27,233.7627" style="stroke:#181818;stroke-width:1.0;"/></g><!--link ViewDetailsEntryOnAgendaUI to ViewDetailsEntryOnAgendaController--><g id="link_ViewDetailsEntryOnAgendaUI_ViewDetailsEntryOnAgendaController"><path codeLine="125" d="M2042.63,199.8327 C2006.68,142.7727 1938,33.7627 1938,33.7627 C1938,33.7627 1920.5,18.7627 1920.5,18.7627 C1920.5,18.7627 1410.5,18.7627 1410.5,18.7627 C1410.5,18.7627 1393,33.7627 1393,33.7627 C1393,33.7627 1303.3904,151.6656 1262.9604,204.8656 " fill="none" id="ViewDetailsEntryOnAgendaUI-to-ViewDetailsEntryOnAgendaController" style="stroke:#181818;stroke-width:1.0;stroke-dasharray:7.0,7.0;"/><polygon fill="#181818" points="1259.33,209.6427,1267.9603,204.8974,1262.3553,205.6618,1261.5909,200.0568,1259.33,209.6427" style="stroke:#181818;stroke-width:1.0;"/></g><!--link AssignVehicleToEntryUI to AssignedVehicleToEntryController--><g id="link_AssignVehicleToEntryUI_AssignedVehicleToEntryController"><path codeLine="128" d="M1737.74,233.7627 C1733.31,233.7627 1730.67,233.7627 1730.67,233.7627 C1730.67,233.7627 1693.3,233.7627 1664.17,233.7627 " fill="none" id="AssignVehicleToEntryUI-to-AssignedVehicleToEntryController" style="stroke:#181818;stroke-width:1.0;stroke-dasharray:7.0,7.0;"/><polygon fill="#181818" points="1658.17,233.7627,1667.17,237.7627,1663.17,233.7627,1667.17,229.7627,1658.17,233.7627" style="stroke:#181818;stroke-width:1.0;"/></g><!--link AssignedVehicleToEntryController to Repositories--><g id="link_AssignedVehicleToEntryController_Repositories"><path codeLine="130" d="M1462.58,144.7427 C1427.22,100.6627 1392,56.7627 1392,56.7627 C1392,56.7627 1091,56.7627 1091,56.7627 C1091,56.7627 1016.7108,117.6397 954.2808,168.7997 " fill="none" id="AssignedVehicleToEntryController-to-Repositories" style="stroke:#181818;stroke-width:1.0;stroke-dasharray:7.0,7.0;"/><polygon fill="#181818" points="949.64,172.6027,959.1365,169.992,953.5073,169.4335,954.0658,163.8043,949.64,172.6027" style="stroke:#181818;stroke-width:1.0;"/><text fill="#000000" font-family="sans-serif" font-size="13" lengthAdjust="spacing" textLength="67" x="1157.5" y="21.791">repositories</text></g><!--link Repositories to EntryRepository--><g id="link_Repositories_EntryRepository"><path codeLine="131" d="M878.01,294.8827 C879.71,328.9727 881.5194,365.1902 883.1494,397.6802 " fill="none" id="Repositories-to-EntryRepository" style="stroke:#181818;stroke-width:1.0;"/><polygon fill="#181818" points="883.45,403.6727,886.994,394.4836,883.1995,398.679,879.0041,394.8844,883.45,403.6727" style="stroke:#181818;stroke-width:1.0;"/><text fill="#000000" font-family="sans-serif" font-size="13" lengthAdjust="spacing" textLength="7" x="870.9503" y="317.3842">1</text><text fill="#000000" font-family="sans-serif" font-size="13" lengthAdjust="spacing" textLength="7" x="875.637" y="392.588">1</text></g><!--link Repositories to VehicleRepository--><g id="link_Repositories_VehicleRepository"><path codeLine="132" d="M820.66,295.0227 C796.75,321.5327 774,346.7627 774,346.7627 C774,346.7627 708,403.7627 708,403.7627 C708,403.7627 574.6256,531.3651 501.9956,600.8451 " fill="none" id="Repositories-to-VehicleRepository" style="stroke:#181818;stroke-width:1.0;"/><polygon fill="#181818" points="497.66,604.9927,506.9285,601.6617,501.273,601.5364,501.3984,595.8809,497.66,604.9927" style="stroke:#181818;stroke-width:1.0;"/><text fill="#000000" font-family="sans-serif" font-size="13" lengthAdjust="spacing" textLength="7" x="806.9722" y="317.1058">1</text><text fill="#000000" font-family="sans-serif" font-size="13" lengthAdjust="spacing" textLength="7" x="497.0605" y="593.8538">1</text></g><!--link AssignedVehicleToEntryController to EntryRepository--><g id="link_AssignedVehicleToEntryController_EntryRepository"><path codeLine="134" d="M1422.11,323.0127 C1404.52,336.8927 1392,346.7627 1392,346.7627 C1392,346.7627 1171,354.7627 1171,354.7627 C1171,354.7627 1107.3417,377.0964 1037.0817,401.7464 " fill="none" id="AssignedVehicleToEntryController-to-EntryRepository" style="stroke:#181818;stroke-width:1.0;stroke-dasharray:7.0,7.0;"/><polygon fill="#181818" points="1031.42,403.7327,1041.2367,404.5276,1036.1381,402.0774,1038.5883,396.9787,1031.42,403.7327" style="stroke:#181818;stroke-width:1.0;"/><text fill="#000000" font-family="sans-serif" font-size="13" lengthAdjust="spacing" textLength="93" x="1172" y="369.791">EntryRepository</text></g><!--link AssignedVehicleToEntryController to EntryMapper--><g id="link_AssignedVehicleToEntryController_EntryMapper"><path codeLine="135" d="M1422.11,323.0127 C1404.52,336.8927 1392,346.7627 1392,346.7627 C1392,346.7627 1178.6909,495.5898 1053.1609,583.1598 " fill="none" id="AssignedVehicleToEntryController-to-EntryMapper" style="stroke:#181818;stroke-width:1.0;stroke-dasharray:7.0,7.0;"/><polygon fill="#181818" points="1048.24,586.5927,1057.91,584.724,1052.3408,583.732,1053.3328,578.1628,1048.24,586.5927" style="stroke:#181818;stroke-width:1.0;"/><text fill="#000000" font-family="sans-serif" font-size="13" lengthAdjust="spacing" textLength="74" x="1306" y="461.291">EntryMapper</text></g><!--link AssignedVehicleToEntryController to VehicleMapper--><g id="link_AssignedVehicleToEntryController_VehicleMapper"><path codeLine="136" d="M1487.12,323.0227 C1444.76,402.7827 1389,507.7627 1389,507.7627 C1389,507.7627 1069,708.7627 1069,708.7627 C1069,708.7627 883,757.7627 883,757.7627 C883,757.7627 642,787.7627 642,787.7627 C642,787.7627 640.4873,788.5209 630.0573,793.7809 " fill="none" id="AssignedVehicleToEntryController-to-VehicleMapper" style="stroke:#181818;stroke-width:1.0;stroke-dasharray:7.0,7.0;"/><polygon fill="#181818" points="624.7,796.4827,634.5371,796.0016,629.1644,794.2312,630.9348,788.8585,624.7,796.4827" style="stroke:#181818;stroke-width:1.0;"/><text fill="#000000" font-family="sans-serif" font-size="13" lengthAdjust="spacing" textLength="86" x="1341" y="552.791">VehicleMapper</text></g><!--link EntryMapper to EntryDto--><g id="link_EntryMapper_EntryDto"><path codeLine="138" d="M918.34,709.0027 C900.07,734.2127 883,757.7627 883,757.7627 C883,757.7627 764,787.7627 764,787.7627 C764,787.7627 747.8873,803.605 730.6873,820.525 " fill="none" id="EntryMapper-to-EntryDto" style="stroke:#181818;stroke-width:1.0;stroke-dasharray:7.0,7.0;"/><polygon fill="#181818" points="726.41,824.7327,735.6311,821.2727,729.9744,821.2263,730.0208,815.5696,726.41,824.7327" style="stroke:#181818;stroke-width:1.0;"/><text fill="#000000" font-family="sans-serif" font-size="13" lengthAdjust="spacing" textLength="7" x="905.8871" y="731.0835">1</text><text fill="#000000" font-family="sans-serif" font-size="13" lengthAdjust="spacing" textLength="5" x="726.7682" y="813.4625">*</text></g><!--link EntryMapper to Entry--><g id="link_EntryMapper_Entry"><path codeLine="139" d="M970.17,709.0127 C973.56,733.9427 976.6636,756.8571 980.0436,781.7771 " fill="none" id="EntryMapper-to-Entry" style="stroke:#181818;stroke-width:1.0;stroke-dasharray:7.0,7.0;"/><polygon fill="#181818" points="980.85,787.7227,983.6041,778.2667,980.178,782.7681,975.6767,779.342,980.85,787.7227" style="stroke:#181818;stroke-width:1.0;"/><text fill="#000000" font-family="sans-serif" font-size="13" lengthAdjust="spacing" textLength="7" x="963.71" y="731.0947">1</text><text fill="#000000" font-family="sans-serif" font-size="13" lengthAdjust="spacing" textLength="5" x="974.6186" y="776.6993">*</text></g><!--link VehicleRepository to Vehicle--><g id="link_VehicleRepository_Vehicle"><path codeLine="141" d="M424.6,690.4627 C395.73,731.4127 356,787.7627 356,787.7627 C356,787.7627 356,909.7627 356,909.7627 C356,909.7627 362.7007,959.5562 367.0907,992.2162 " fill="none" id="VehicleRepository-to-Vehicle" style="stroke:#181818;stroke-width:1.0;"/><polygon fill="#181818" points="367.89,998.1627,370.6554,988.71,367.2239,993.2073,362.7267,989.7758,367.89,998.1627" style="stroke:#181818;stroke-width:1.0;"/><text fill="#000000" font-family="sans-serif" font-size="13" lengthAdjust="spacing" textLength="46" x="357" y="854.291">vehicles</text><text fill="#000000" font-family="sans-serif" font-size="13" lengthAdjust="spacing" textLength="7" x="412.3566" y="712.6549">1</text><text fill="#000000" font-family="sans-serif" font-size="13" lengthAdjust="spacing" textLength="5" x="361.4524" y="986.8746">*</text></g><!--link VehicleMapper to Vehicle--><g id="link_VehicleMapper_Vehicle"><path codeLine="142" d="M469.41,910.2227 C442.57,940.5127 415.6201,970.9228 395.7101,993.3828 " fill="none" id="VehicleMapper-to-Vehicle" style="stroke:#181818;stroke-width:1.0;"/><polygon fill="#181818" points="391.73,997.8727,400.6934,993.7913,395.0467,994.1311,394.7069,988.4845,391.73,997.8727" style="stroke:#181818;stroke-width:1.0;"/><text fill="#000000" font-family="sans-serif" font-size="13" lengthAdjust="spacing" textLength="7" x="455.809" y="932.329">1</text><text fill="#000000" font-family="sans-serif" font-size="13" lengthAdjust="spacing" textLength="5" x="391.1736" y="986.9195">*</text></g><!--link EntryMapper to VehicleMapper--><g id="link_EntryMapper_VehicleMapper"><path codeLine="143" d="M906.64,708.7927 C891.41,725.3027 879,738.7627 879,738.7627 C879,738.7627 869,757.7627 869,757.7627 C869,757.7627 642,787.7627 642,787.7627 C642,787.7627 640.4873,788.5209 630.0573,793.7809 " fill="none" id="EntryMapper-to-VehicleMapper" style="stroke:#181818;stroke-width:1.0;"/><polygon fill="#181818" points="624.7,796.4827,634.5371,796.0016,629.1644,794.2312,630.9348,788.8585,624.7,796.4827" style="stroke:#181818;stroke-width:1.0;"/><text fill="#000000" font-family="sans-serif" font-size="13" lengthAdjust="spacing" textLength="7" x="892.4664" y="731.2832">1</text><text fill="#000000" font-family="sans-serif" font-size="13" lengthAdjust="spacing" textLength="7" x="632.4256" y="789.0404">1</text></g><!--link EntryRepository to AgendaList--><g id="link_EntryRepository_AgendaList"><path codeLine="144" d="M859.07,507.9327 C839.23,545.6327 815.9749,589.8134 800.9349,618.3834 " fill="none" id="EntryRepository-to-AgendaList" style="stroke:#181818;stroke-width:1.0;"/><polygon fill="#181818" points="798.14,623.6927,805.8719,617.5921,800.4691,619.2683,798.7929,613.8655,798.14,623.6927" style="stroke:#181818;stroke-width:1.0;"/><text fill="#000000" font-family="sans-serif" font-size="13" lengthAdjust="spacing" textLength="42" x="842" y="552.791">agenda</text><text fill="#000000" font-family="sans-serif" font-size="13" lengthAdjust="spacing" textLength="7" x="848.1712" y="529.7618">1</text><text fill="#000000" font-family="sans-serif" font-size="13" lengthAdjust="spacing" textLength="7" x="793.354" y="612.4122">1</text></g><!--link AgendaList to Entry--><g id="link_AgendaList_Entry"><path codeLine="145" d="M809.68,671.9827 C838.45,700.1727 883.7555,744.5923 923.5055,783.5623 " fill="none" id="AgendaList-to-Entry" style="stroke:#181818;stroke-width:1.0;"/><polygon fill="#181818" points="927.79,787.7627,924.1636,778.6058,924.2196,784.2624,918.563,784.3184,927.79,787.7627" style="stroke:#181818;stroke-width:1.0;"/><text fill="#000000" font-family="sans-serif" font-size="13" lengthAdjust="spacing" textLength="38" x="894" y="753.791">entry's</text><text fill="#000000" font-family="sans-serif" font-size="13" lengthAdjust="spacing" textLength="7" x="807.3466" y="693.6112">1</text><text fill="#000000" font-family="sans-serif" font-size="13" lengthAdjust="spacing" textLength="5" x="915.0253" y="776.3089">*</text></g><!--link EntryRepository to GSMUser--><g id="link_EntryRepository_GSMUser"><path codeLine="146" d="M1046.54,487.3127 C1103.62,498.1727 1154,507.7627 1154,507.7627 C1154,507.7627 1562,537.7627 1562,537.7627 C1562,537.7627 1708.6262,895.8102 1748.1762,992.3902 " fill="none" id="EntryRepository-to-GSMUser" style="stroke:#181818;stroke-width:1.0;"/><polygon fill="#181818" points="1750.45,997.9427,1750.741,988.0981,1748.5552,993.3156,1743.3377,991.1298,1750.45,997.9427" style="stroke:#181818;stroke-width:1.0;"/><text fill="#000000" font-family="sans-serif" font-size="13" lengthAdjust="spacing" textLength="49" x="1652" y="753.791">employs</text><text fill="#000000" font-family="sans-serif" font-size="13" lengthAdjust="spacing" textLength="5" x="1742.5128" y="987.0066">*</text></g><!--link EntryRepository to EntryMapper--><g id="link_EntryRepository_EntryMapper"><path codeLine="147" d="M906.47,507.9327 C916.18,532.2227 925.6328,555.8314 935.7628,581.1714 " fill="none" id="EntryRepository-to-EntryMapper" style="stroke:#181818;stroke-width:1.0;stroke-dasharray:7.0,7.0;"/><polygon fill="#181818" points="937.99,586.7427,938.3634,576.9009,936.134,582.0999,930.935,579.8705,937.99,586.7427" style="stroke:#181818;stroke-width:1.0;"/></g><!--link VehicleRepository to VehicleMapper--><g id="link_VehicleRepository_VehicleMapper"><path codeLine="148" d="M468.46,690.4827 C478.23,718.6327 489.2945,750.5538 500.1745,781.9338 " fill="none" id="VehicleRepository-to-VehicleMapper" style="stroke:#181818;stroke-width:1.0;stroke-dasharray:7.0,7.0;"/><polygon fill="#181818" points="502.14,787.6027,502.971,777.789,500.5021,782.8786,495.4124,780.4096,502.14,787.6027" style="stroke:#181818;stroke-width:1.0;"/></g><!--link VehicleMapper to VehicleDto--><g id="link_VehicleMapper_VehicleDto"><path codeLine="150" d="M523,910.2227 C523,940.5127 523,969.4127 523,991.8727 " fill="none" id="VehicleMapper-to-VehicleDto" style="stroke:#181818;stroke-width:1.0;"/><polygon fill="#181818" points="523,997.8727,527,988.8727,523,992.8727,519,988.8727,523,997.8727" style="stroke:#181818;stroke-width:1.0;"/><text fill="#000000" font-family="sans-serif" font-size="13" lengthAdjust="spacing" textLength="7" x="515.5953" y="932.329">1</text><text fill="#000000" font-family="sans-serif" font-size="13" lengthAdjust="spacing" textLength="5" x="517.3906" y="986.9195">*</text></g><!--link Entry to GSMUser--><g id="link_Entry_GSMUser"><path codeLine="152" d="M1050.79,863.5027 C1200.69,896.8527 1575.1931,980.1601 1707.7431,1009.6401 " fill="none" id="Entry-to-GSMUser" style="stroke:#181818;stroke-width:1.0;"/><polygon fill="#181818" points="1713.6,1010.9427,1705.6831,1005.0842,1708.7193,1009.8572,1703.9463,1012.8934,1713.6,1010.9427" style="stroke:#181818;stroke-width:1.0;"/><text fill="#000000" font-family="sans-serif" font-size="13" lengthAdjust="spacing" textLength="49" x="1467" y="954.791">employs</text><text fill="#000000" font-family="sans-serif" font-size="13" lengthAdjust="spacing" textLength="5" x="1701.1122" y="1004.9584">*</text></g><!--link Task to Entry--><g id="link_Task_Entry"><path codeLine="153" d="M844.87,848.7627 C867.85,848.7627 893.6,848.7627 921.45,848.7627 " fill="none" id="Task-to-Entry" style="stroke:#181818;stroke-width:1.0;"/><polygon fill="#181818" points="927.45,848.7627,918.45,844.7627,922.45,848.7627,918.45,852.7627,927.45,848.7627" style="stroke:#181818;stroke-width:1.0;"/><text fill="#000000" font-family="sans-serif" font-size="13" lengthAdjust="spacing" textLength="46" x="863" y="841.791">extends</text><text fill="#000000" font-family="sans-serif" font-size="13" lengthAdjust="spacing" textLength="7" x="852.6072" y="843.9635">1</text><text fill="#000000" font-family="sans-serif" font-size="13" lengthAdjust="spacing" textLength="7" x="912.522" y="844.7433">1</text></g><!--link Entry to EntryState--><g id="link_Entry_EntryState"><path codeLine="155" d="M948.81,910.2227 C931.24,936.6527 914.6614,961.5959 899.9514,983.7259 " fill="none" id="Entry-to-EntryState" style="stroke:#181818;stroke-width:1.0;"/><polygon fill="#181818" points="896.63,988.7227,904.9433,983.4418,899.3979,984.5587,898.2809,979.0132,896.63,988.7227" style="stroke:#181818;stroke-width:1.0;"/><text fill="#000000" font-family="sans-serif" font-size="13" lengthAdjust="spacing" textLength="26" x="929" y="954.791">have</text><text fill="#000000" font-family="sans-serif" font-size="13" lengthAdjust="spacing" textLength="7" x="936.7583" y="932.329">1</text><text fill="#000000" font-family="sans-serif" font-size="13" lengthAdjust="spacing" textLength="7" x="893.1993" y="977.5403">1</text></g><!--link EntryDto to EntryState--><g id="link_EntryDto_EntryState"><path codeLine="156" d="M726.2,872.8927 C756.09,902.7027 803.9905,950.4669 837.9405,984.3069 " fill="none" id="EntryDto-to-EntryState" style="stroke:#181818;stroke-width:1.0;"/><polygon fill="#181818" points="842.19,988.5427,838.6396,979.3561,838.6487,985.0129,832.9919,985.0221,842.19,988.5427" style="stroke:#181818;stroke-width:1.0;"/><text fill="#000000" font-family="sans-serif" font-size="13" lengthAdjust="spacing" textLength="26" x="810" y="954.791">have</text><text fill="#000000" font-family="sans-serif" font-size="13" lengthAdjust="spacing" textLength="7" x="724.0019" y="894.91">1</text><text fill="#000000" font-family="sans-serif" font-size="13" lengthAdjust="spacing" textLength="7" x="828.2684" y="977.5867">1</text></g><!--link EntryDto to TaskDto--><g id="link_EntryDto_TaskDto"><path codeLine="157" d="M703,872.8927 C703,905.7127 703,959.4527 703,992.2227 " fill="none" id="EntryDto-to-TaskDto" style="stroke:#181818;stroke-width:1.0;"/><polygon fill="#181818" points="703,998.2227,707,989.2227,703,993.2227,699,989.2227,703,998.2227" style="stroke:#181818;stroke-width:1.0;"/><text fill="#000000" font-family="sans-serif" font-size="13" lengthAdjust="spacing" textLength="7" x="695.1469" y="894.91">1</text><text fill="#000000" font-family="sans-serif" font-size="13" lengthAdjust="spacing" textLength="7" x="695.1031" y="986.9499">1</text></g><!--SRC=[dLRTRzem47_tNs5b3wpjgBPNL5L2fPkGrauQq7St760riIFRm1Zg_xwpuyJEHm4jB-2xd-z-zvaCz1iN1LCifxaKCjqecGCrQWiaQ0gMlh4rpCmX0weWDKoiinYWDsmfzroiwOfbEjPaN80v540BcHtiWGnwb58PIQ9RQSQq7XkZ-ElMm3ILOiR_0lrAo223bQ56KiNN6qENtDBXKX3FaIOFKa52FqtSSmpoYSmP5maz4cUTFWgZ3dYY-0pfJwxDtGjiU9h1lPFTb8ZFL_wamJp3taDggO9SxY18tqbiVcQO0U_YKMnpwWG1D6VwRMBa4INHhTzGICsDTFIydpMOyHh4abcYjNUymjV2Uv_Bal2kF7u1UwgGAvuPK1wfdwLPQ9YAES-Xmbl3vHra50KIt5gQX0XfWBvAOsHEvQhDsATpgs59Lr9XWNIHiGEsXjEO3L3c36BnjI7uZrg3bJDFCDZhhqz8oaiW7sVVYsb9kPJLHZdekkwni4uhsfqAZLsUOadfg04Aa5RayUrE69tEU6950QeHtQFFVTL-LIsgkbx5SYz4TLDkBGLTEosstuuj9hx_cedheUSr4S6eSUOog1iTkgjwC-ZREXTYpmI56uwVBIG-qPmZUvbbe99ZVON3VWA6yKoxs7w9idi3DWfrx8O7bitn2T2wHzf32Rqjtwbv5LyBUNFMyKNZxOQqsOjwwiFjQSMeA4ChVa1Fx5KgXho-uywV0VgImkN_tG-vMxKuukVuUgikBPHhoj8DXnqkW3qt6ozM8GbXvaCjVioUS26fSbxh4Y-coV5CPHTJNwPMjg8vY7jgt9FHnVJeWcxiX-5zSr-CAFSRWP1-8_JkzWHBGav4S7j_GUUI3ntZzRCb8cUx_ROJiOhNNaENV4le45DaVzilW0-1dG6vX1IoQe_VgEFoSZFbNgjCbAVBhZSM8nfed0c9hTjWxPNaEgbNx6a0TaTdUzIfkwvJXsxzz6lIvDC3xdXirS4pRsStHePNFtekNziaaiLEow-fKJdj0zqnM-6gGKTaNcJoq4MsQjMJcKuvoFbis1AKhavGiQ_7ydBKsbR_ns3GkZBGwNxtLOUu3TlvjAEx_u7vxq7o3m00]--></g></svg>