<?xml version="1.0" encoding="us-ascii" standalone="no"?><svg xmlns="http://www.w3.org/2000/svg" xmlns:xlink="http://www.w3.org/1999/xlink" contentStyleType="text/css" height="751px" preserveAspectRatio="none" style="width:1142px;height:751px;background:#FFFFFF;" version="1.1" viewBox="0 0 1142 751" width="1142px" zoomAndPan="magnify"><defs/><g><!--class CollaboratorUser--><g id="elem_CollaboratorUser"><rect codeLine="12" fill="#F1F1F1" height="48" id="CollaboratorUser" rx="2.5" ry="2.5" style="stroke:#181818;stroke-width:0.5;" width="139" x="373" y="696.7627"/><ellipse cx="388" cy="712.7627" fill="#ADD1B2" rx="11" ry="11" style="stroke:#181818;stroke-width:1.0;"/><path d="M390.7656,708.6377 Q390.9219,708.4189 391.1094,708.3096 Q391.2969,708.2002 391.5156,708.2002 Q391.8906,708.2002 392.125,708.4658 Q392.3594,708.7158 392.3594,709.3252 L392.3594,710.7783 Q392.3594,711.3877 392.125,711.6533 Q391.8906,711.9189 391.5156,711.9189 Q391.1719,711.9189 390.9688,711.7158 Q390.7656,711.5283 390.6563,711.0127 Q390.6094,710.6533 390.4219,710.4658 Q390.0938,710.0908 389.4844,709.8721 Q388.875,709.6533 388.25,709.6533 Q387.4844,709.6533 386.8438,709.9814 Q386.2188,710.3096 385.7188,711.0596 Q385.2344,711.8096 385.2344,712.8408 L385.2344,713.9346 Q385.2344,715.1689 386.125,715.9971 Q387.0156,716.8096 388.6094,716.8096 Q389.5469,716.8096 390.2031,716.5596 Q390.5938,716.4033 391.0156,715.9658 Q391.2813,715.7002 391.4219,715.6221 Q391.5781,715.5439 391.7813,715.5439 Q392.1094,715.5439 392.3594,715.8096 Q392.625,716.0596 392.625,716.4033 Q392.625,716.7471 392.2813,717.1533 Q391.7813,717.7314 390.9844,718.0596 Q389.9063,718.5127 388.6094,718.5127 Q387.0938,718.5127 385.8906,717.8877 Q384.9063,717.3877 384.2188,716.3252 Q383.5313,715.2471 383.5313,713.9658 L383.5313,712.8096 Q383.5313,711.4814 384.1406,710.3408 Q384.7656,709.1846 385.8594,708.5752 Q386.9531,707.9502 388.1875,707.9502 Q388.9219,707.9502 389.5625,708.1221 Q390.2188,708.2783 390.7656,708.6377 Z " fill="#000000"/><text fill="#000000" font-family="sans-serif" font-size="14" lengthAdjust="spacing" textLength="107" x="402" y="718.5596">CollaboratorUser</text><line style="stroke:#181818;stroke-width:0.5;" x1="374" x2="511" y1="728.7627" y2="728.7627"/><line style="stroke:#181818;stroke-width:0.5;" x1="374" x2="511" y1="736.7627" y2="736.7627"/></g><!--class Entry--><g id="elem_Entry"><rect codeLine="16" fill="#F1F1F1" height="122.4844" id="Entry" rx="2.5" ry="2.5" style="stroke:#181818;stroke-width:0.5;" width="123" x="301" y="495.7627"/><ellipse cx="342.1" cy="511.7627" fill="#ADD1B2" rx="11" ry="11" style="stroke:#181818;stroke-width:1.0;"/><path d="M344.8656,507.6377 Q345.0219,507.4189 345.2094,507.3096 Q345.3969,507.2002 345.6156,507.2002 Q345.9906,507.2002 346.225,507.4658 Q346.4594,507.7158 346.4594,508.3252 L346.4594,509.7783 Q346.4594,510.3877 346.225,510.6533 Q345.9906,510.9189 345.6156,510.9189 Q345.2719,510.9189 345.0688,510.7158 Q344.8656,510.5283 344.7563,510.0127 Q344.7094,509.6533 344.5219,509.4658 Q344.1938,509.0908 343.5844,508.8721 Q342.975,508.6533 342.35,508.6533 Q341.5844,508.6533 340.9438,508.9814 Q340.3188,509.3096 339.8188,510.0596 Q339.3344,510.8096 339.3344,511.8408 L339.3344,512.9346 Q339.3344,514.1689 340.225,514.9971 Q341.1156,515.8096 342.7094,515.8096 Q343.6469,515.8096 344.3031,515.5596 Q344.6938,515.4033 345.1156,514.9658 Q345.3813,514.7002 345.5219,514.6221 Q345.6781,514.5439 345.8813,514.5439 Q346.2094,514.5439 346.4594,514.8096 Q346.725,515.0596 346.725,515.4033 Q346.725,515.7471 346.3813,516.1533 Q345.8813,516.7314 345.0844,517.0596 Q344.0063,517.5127 342.7094,517.5127 Q341.1938,517.5127 339.9906,516.8877 Q339.0063,516.3877 338.3188,515.3252 Q337.6313,514.2471 337.6313,512.9658 L337.6313,511.8096 Q337.6313,510.4814 338.2406,509.3408 Q338.8656,508.1846 339.9594,507.5752 Q341.0531,506.9502 342.2875,506.9502 Q343.0219,506.9502 343.6625,507.1221 Q344.3188,507.2783 344.8656,507.6377 Z " fill="#000000"/><text fill="#000000" font-family="sans-serif" font-size="14" lengthAdjust="spacing" textLength="33" x="361.9" y="517.5596">Entry</text><line style="stroke:#181818;stroke-width:0.5;" x1="302" x2="423" y1="527.7627" y2="527.7627"/><text fill="#000000" font-family="sans-serif" font-size="14" lengthAdjust="spacing" textLength="89" x="307" y="546.8701">-List&lt;Vehicle&gt;</text><line style="stroke:#181818;stroke-width:0.5;" x1="302" x2="423" y1="554.3838" y2="554.3838"/><text fill="#000000" font-family="sans-serif" font-size="14" lengthAdjust="spacing" textLength="51" x="307" y="573.4912">+Entry()</text><text fill="#000000" font-family="sans-serif" font-size="14" lengthAdjust="spacing" textLength="109" x="307" y="592.1123">+setNewVehicle()</text><text fill="#000000" font-family="sans-serif" font-size="14" lengthAdjust="spacing" textLength="111" x="307" y="610.7334">+removeVehicle()</text></g><!--class Task--><g id="elem_Task"><rect codeLine="23" fill="#F1F1F1" height="48" id="Task" rx="2.5" ry="2.5" style="stroke:#181818;stroke-width:0.5;" width="63" x="155" y="532.7627"/><ellipse cx="170" cy="548.7627" fill="#ADD1B2" rx="11" ry="11" style="stroke:#181818;stroke-width:1.0;"/><path d="M172.7656,544.6377 Q172.9219,544.4189 173.1094,544.3096 Q173.2969,544.2002 173.5156,544.2002 Q173.8906,544.2002 174.125,544.4658 Q174.3594,544.7158 174.3594,545.3252 L174.3594,546.7783 Q174.3594,547.3877 174.125,547.6533 Q173.8906,547.9189 173.5156,547.9189 Q173.1719,547.9189 172.9688,547.7158 Q172.7656,547.5283 172.6563,547.0127 Q172.6094,546.6533 172.4219,546.4658 Q172.0938,546.0908 171.4844,545.8721 Q170.875,545.6533 170.25,545.6533 Q169.4844,545.6533 168.8438,545.9814 Q168.2188,546.3096 167.7188,547.0596 Q167.2344,547.8096 167.2344,548.8408 L167.2344,549.9346 Q167.2344,551.1689 168.125,551.9971 Q169.0156,552.8096 170.6094,552.8096 Q171.5469,552.8096 172.2031,552.5596 Q172.5938,552.4033 173.0156,551.9658 Q173.2813,551.7002 173.4219,551.6221 Q173.5781,551.5439 173.7813,551.5439 Q174.1094,551.5439 174.3594,551.8096 Q174.625,552.0596 174.625,552.4033 Q174.625,552.7471 174.2813,553.1533 Q173.7813,553.7314 172.9844,554.0596 Q171.9063,554.5127 170.6094,554.5127 Q169.0938,554.5127 167.8906,553.8877 Q166.9063,553.3877 166.2188,552.3252 Q165.5313,551.2471 165.5313,549.9658 L165.5313,548.8096 Q165.5313,547.4814 166.1406,546.3408 Q166.7656,545.1846 167.8594,544.5752 Q168.9531,543.9502 170.1875,543.9502 Q170.9219,543.9502 171.5625,544.1221 Q172.2188,544.2783 172.7656,544.6377 Z " fill="#000000"/><text fill="#000000" font-family="sans-serif" font-size="14" lengthAdjust="spacing" textLength="31" x="184" y="554.5596">Task</text><line style="stroke:#181818;stroke-width:0.5;" x1="156" x2="217" y1="564.7627" y2="564.7627"/><line style="stroke:#181818;stroke-width:0.5;" x1="156" x2="217" y1="572.7627" y2="572.7627"/></g><!--class EntryRepository--><g id="elem_EntryRepository"><rect codeLine="27" fill="#F1F1F1" height="122.4844" id="EntryRepository" rx="2.5" ry="2.5" style="stroke:#181818;stroke-width:0.5;" width="321" x="293" y="294.7627"/><ellipse cx="398.75" cy="310.7627" fill="#ADD1B2" rx="11" ry="11" style="stroke:#181818;stroke-width:1.0;"/><path d="M401.5156,306.6377 Q401.6719,306.4189 401.8594,306.3096 Q402.0469,306.2002 402.2656,306.2002 Q402.6406,306.2002 402.875,306.4658 Q403.1094,306.7158 403.1094,307.3252 L403.1094,308.7783 Q403.1094,309.3877 402.875,309.6533 Q402.6406,309.9189 402.2656,309.9189 Q401.9219,309.9189 401.7188,309.7158 Q401.5156,309.5283 401.4063,309.0127 Q401.3594,308.6533 401.1719,308.4658 Q400.8438,308.0908 400.2344,307.8721 Q399.625,307.6533 399,307.6533 Q398.2344,307.6533 397.5938,307.9814 Q396.9688,308.3096 396.4688,309.0596 Q395.9844,309.8096 395.9844,310.8408 L395.9844,311.9346 Q395.9844,313.1689 396.875,313.9971 Q397.7656,314.8096 399.3594,314.8096 Q400.2969,314.8096 400.9531,314.5596 Q401.3438,314.4033 401.7656,313.9658 Q402.0313,313.7002 402.1719,313.6221 Q402.3281,313.5439 402.5313,313.5439 Q402.8594,313.5439 403.1094,313.8096 Q403.375,314.0596 403.375,314.4033 Q403.375,314.7471 403.0313,315.1533 Q402.5313,315.7314 401.7344,316.0596 Q400.6563,316.5127 399.3594,316.5127 Q397.8438,316.5127 396.6406,315.8877 Q395.6563,315.3877 394.9688,314.3252 Q394.2813,313.2471 394.2813,311.9658 L394.2813,310.8096 Q394.2813,309.4814 394.8906,308.3408 Q395.5156,307.1846 396.6094,306.5752 Q397.7031,305.9502 398.9375,305.9502 Q399.6719,305.9502 400.3125,306.1221 Q400.9688,306.2783 401.5156,306.6377 Z " fill="#000000"/><text fill="#000000" font-family="sans-serif" font-size="14" lengthAdjust="spacing" textLength="101" x="419.25" y="316.5596">EntryRepository</text><line style="stroke:#181818;stroke-width:0.5;" x1="294" x2="613" y1="326.7627" y2="326.7627"/><text fill="#000000" font-family="sans-serif" font-size="14" lengthAdjust="spacing" textLength="140" x="299" y="345.8701">-List &lt;Entry&gt; : agenda</text><line style="stroke:#181818;stroke-width:0.5;" x1="294" x2="613" y1="353.3838" y2="353.3838"/><text fill="#000000" font-family="sans-serif" font-size="14" lengthAdjust="spacing" textLength="109" x="299" y="372.4912">+getAgendaList()</text><text fill="#000000" font-family="sans-serif" font-size="14" lengthAdjust="spacing" textLength="235" x="299" y="391.1123">+assignVehicleToEntry(vehicle,entry)</text><text fill="#000000" font-family="sans-serif" font-size="14" lengthAdjust="spacing" textLength="309" x="299" y="409.7334">+filterVehiclesNotUseInTime(vehicleList,entryDto)</text></g><!--class VehicleRepository--><g id="elem_VehicleRepository"><rect codeLine="35" fill="#F1F1F1" height="85.2422" id="VehicleRepository" rx="2.5" ry="2.5" style="stroke:#181818;stroke-width:0.5;" width="146" x="869.5" y="313.2627"/><ellipse cx="884.5" cy="329.2627" fill="#ADD1B2" rx="11" ry="11" style="stroke:#181818;stroke-width:1.0;"/><path d="M887.2656,325.1377 Q887.4219,324.9189 887.6094,324.8096 Q887.7969,324.7002 888.0156,324.7002 Q888.3906,324.7002 888.625,324.9658 Q888.8594,325.2158 888.8594,325.8252 L888.8594,327.2783 Q888.8594,327.8877 888.625,328.1533 Q888.3906,328.4189 888.0156,328.4189 Q887.6719,328.4189 887.4688,328.2158 Q887.2656,328.0283 887.1563,327.5127 Q887.1094,327.1533 886.9219,326.9658 Q886.5938,326.5908 885.9844,326.3721 Q885.375,326.1533 884.75,326.1533 Q883.9844,326.1533 883.3438,326.4814 Q882.7188,326.8096 882.2188,327.5596 Q881.7344,328.3096 881.7344,329.3408 L881.7344,330.4346 Q881.7344,331.6689 882.625,332.4971 Q883.5156,333.3096 885.1094,333.3096 Q886.0469,333.3096 886.7031,333.0596 Q887.0938,332.9033 887.5156,332.4658 Q887.7813,332.2002 887.9219,332.1221 Q888.0781,332.0439 888.2813,332.0439 Q888.6094,332.0439 888.8594,332.3096 Q889.125,332.5596 889.125,332.9033 Q889.125,333.2471 888.7813,333.6533 Q888.2813,334.2314 887.4844,334.5596 Q886.4063,335.0127 885.1094,335.0127 Q883.5938,335.0127 882.3906,334.3877 Q881.4063,333.8877 880.7188,332.8252 Q880.0313,331.7471 880.0313,330.4658 L880.0313,329.3096 Q880.0313,327.9814 880.6406,326.8408 Q881.2656,325.6846 882.3594,325.0752 Q883.4531,324.4502 884.6875,324.4502 Q885.4219,324.4502 886.0625,324.6221 Q886.7188,324.7783 887.2656,325.1377 Z " fill="#000000"/><text fill="#000000" font-family="sans-serif" font-size="14" lengthAdjust="spacing" textLength="114" x="898.5" y="335.0596">VehicleRepository</text><line style="stroke:#181818;stroke-width:0.5;" x1="870.5" x2="1014.5" y1="345.2627" y2="345.2627"/><text fill="#000000" font-family="sans-serif" font-size="14" lengthAdjust="spacing" textLength="89" x="875.5" y="364.3701">-List&lt;Vehicle&gt;</text><line style="stroke:#181818;stroke-width:0.5;" x1="870.5" x2="1014.5" y1="371.8838" y2="371.8838"/><text fill="#000000" font-family="sans-serif" font-size="14" lengthAdjust="spacing" textLength="106" x="875.5" y="390.9912">+getVehicleList()</text></g><!--class Vehicle--><g id="elem_Vehicle"><rect codeLine="41" fill="#F1F1F1" height="66.6211" id="Vehicle" rx="2.5" ry="2.5" style="stroke:#181818;stroke-width:0.5;" width="91" x="915" y="523.2627"/><ellipse cx="935.85" cy="539.2627" fill="#ADD1B2" rx="11" ry="11" style="stroke:#181818;stroke-width:1.0;"/><path d="M938.6156,535.1377 Q938.7719,534.9189 938.9594,534.8096 Q939.1469,534.7002 939.3656,534.7002 Q939.7406,534.7002 939.975,534.9658 Q940.2094,535.2158 940.2094,535.8252 L940.2094,537.2783 Q940.2094,537.8877 939.975,538.1533 Q939.7406,538.4189 939.3656,538.4189 Q939.0219,538.4189 938.8188,538.2158 Q938.6156,538.0283 938.5063,537.5127 Q938.4594,537.1533 938.2719,536.9658 Q937.9438,536.5908 937.3344,536.3721 Q936.725,536.1533 936.1,536.1533 Q935.3344,536.1533 934.6938,536.4814 Q934.0688,536.8096 933.5688,537.5596 Q933.0844,538.3096 933.0844,539.3408 L933.0844,540.4346 Q933.0844,541.6689 933.975,542.4971 Q934.8656,543.3096 936.4594,543.3096 Q937.3969,543.3096 938.0531,543.0596 Q938.4438,542.9033 938.8656,542.4658 Q939.1313,542.2002 939.2719,542.1221 Q939.4281,542.0439 939.6313,542.0439 Q939.9594,542.0439 940.2094,542.3096 Q940.475,542.5596 940.475,542.9033 Q940.475,543.2471 940.1313,543.6533 Q939.6313,544.2314 938.8344,544.5596 Q937.7563,545.0127 936.4594,545.0127 Q934.9438,545.0127 933.7406,544.3877 Q932.7563,543.8877 932.0688,542.8252 Q931.3813,541.7471 931.3813,540.4658 L931.3813,539.3096 Q931.3813,537.9814 931.9906,536.8408 Q932.6156,535.6846 933.7094,535.0752 Q934.8031,534.4502 936.0375,534.4502 Q936.7719,534.4502 937.4125,534.6221 Q938.0688,534.7783 938.6156,535.1377 Z " fill="#000000"/><text fill="#000000" font-family="sans-serif" font-size="14" lengthAdjust="spacing" textLength="46" x="951.15" y="545.0596">Vehicle</text><line style="stroke:#181818;stroke-width:0.5;" x1="916" x2="1005" y1="555.2627" y2="555.2627"/><text fill="#000000" font-family="sans-serif" font-size="14" lengthAdjust="spacing" textLength="79" x="921" y="574.3701">-String email</text><line style="stroke:#181818;stroke-width:0.5;" x1="916" x2="1005" y1="581.8838" y2="581.8838"/></g><!--class Repositories--><g id="elem_Repositories"><rect codeLine="46" fill="#F1F1F1" height="122.4844" id="Repositories" rx="2.5" ry="2.5" style="stroke:#181818;stroke-width:0.5;" width="194" x="845.5" y="74.7627"/><ellipse cx="898.75" cy="90.7627" fill="#ADD1B2" rx="11" ry="11" style="stroke:#181818;stroke-width:1.0;"/><path d="M901.5156,86.6377 Q901.6719,86.4189 901.8594,86.3096 Q902.0469,86.2002 902.2656,86.2002 Q902.6406,86.2002 902.875,86.4658 Q903.1094,86.7158 903.1094,87.3252 L903.1094,88.7783 Q903.1094,89.3877 902.875,89.6533 Q902.6406,89.9189 902.2656,89.9189 Q901.9219,89.9189 901.7188,89.7158 Q901.5156,89.5283 901.4063,89.0127 Q901.3594,88.6533 901.1719,88.4658 Q900.8438,88.0908 900.2344,87.8721 Q899.625,87.6533 899,87.6533 Q898.2344,87.6533 897.5938,87.9814 Q896.9688,88.3096 896.4688,89.0596 Q895.9844,89.8096 895.9844,90.8408 L895.9844,91.9346 Q895.9844,93.1689 896.875,93.9971 Q897.7656,94.8096 899.3594,94.8096 Q900.2969,94.8096 900.9531,94.5596 Q901.3438,94.4033 901.7656,93.9658 Q902.0313,93.7002 902.1719,93.6221 Q902.3281,93.5439 902.5313,93.5439 Q902.8594,93.5439 903.1094,93.8096 Q903.375,94.0596 903.375,94.4033 Q903.375,94.7471 903.0313,95.1533 Q902.5313,95.7314 901.7344,96.0596 Q900.6563,96.5127 899.3594,96.5127 Q897.8438,96.5127 896.6406,95.8877 Q895.6563,95.3877 894.9688,94.3252 Q894.2813,93.2471 894.2813,91.9658 L894.2813,90.8096 Q894.2813,89.4814 894.8906,88.3408 Q895.5156,87.1846 896.6094,86.5752 Q897.7031,85.9502 898.9375,85.9502 Q899.6719,85.9502 900.3125,86.1221 Q900.9688,86.2783 901.5156,86.6377 Z " fill="#000000"/><text fill="#000000" font-family="sans-serif" font-size="14" lengthAdjust="spacing" textLength="79" x="919.25" y="96.5596">Repositories</text><line style="stroke:#181818;stroke-width:0.5;" x1="846.5" x2="1038.5" y1="106.7627" y2="106.7627"/><line style="stroke:#181818;stroke-width:0.5;" x1="846.5" x2="1038.5" y1="114.7627" y2="114.7627"/><text fill="#000000" font-family="sans-serif" font-size="14" lengthAdjust="spacing" textLength="94" x="851.5" y="133.8701">-Repositories()</text><text fill="#000000" font-family="sans-serif" font-size="14" lengthAdjust="spacing" textLength="182" x="851.5" y="152.4912">+getInstance() : Repositories</text><text fill="#000000" font-family="sans-serif" font-size="14" lengthAdjust="spacing" textLength="139" x="851.5" y="171.1123">+getEntryRepository()</text><text fill="#000000" font-family="sans-serif" font-size="14" lengthAdjust="spacing" textLength="152" x="851.5" y="189.7334">+getVehicleRepository()</text></g><!--class AssignedVehicleToEntryController--><g id="elem_AssignedVehicleToEntryController"><rect codeLine="53" fill="#F1F1F1" height="159.7266" id="AssignedVehicleToEntryController" rx="2.5" ry="2.5" style="stroke:#181818;stroke-width:0.5;" width="248" x="279.5" y="55.7627"/><ellipse cx="294.5" cy="71.7627" fill="#ADD1B2" rx="11" ry="11" style="stroke:#181818;stroke-width:1.0;"/><path d="M297.2656,67.6377 Q297.4219,67.4189 297.6094,67.3096 Q297.7969,67.2002 298.0156,67.2002 Q298.3906,67.2002 298.625,67.4658 Q298.8594,67.7158 298.8594,68.3252 L298.8594,69.7783 Q298.8594,70.3877 298.625,70.6533 Q298.3906,70.9189 298.0156,70.9189 Q297.6719,70.9189 297.4688,70.7158 Q297.2656,70.5283 297.1563,70.0127 Q297.1094,69.6533 296.9219,69.4658 Q296.5938,69.0908 295.9844,68.8721 Q295.375,68.6533 294.75,68.6533 Q293.9844,68.6533 293.3438,68.9814 Q292.7188,69.3096 292.2188,70.0596 Q291.7344,70.8096 291.7344,71.8408 L291.7344,72.9346 Q291.7344,74.1689 292.625,74.9971 Q293.5156,75.8096 295.1094,75.8096 Q296.0469,75.8096 296.7031,75.5596 Q297.0938,75.4033 297.5156,74.9658 Q297.7813,74.7002 297.9219,74.6221 Q298.0781,74.5439 298.2813,74.5439 Q298.6094,74.5439 298.8594,74.8096 Q299.125,75.0596 299.125,75.4033 Q299.125,75.7471 298.7813,76.1533 Q298.2813,76.7314 297.4844,77.0596 Q296.4063,77.5127 295.1094,77.5127 Q293.5938,77.5127 292.3906,76.8877 Q291.4063,76.3877 290.7188,75.3252 Q290.0313,74.2471 290.0313,72.9658 L290.0313,71.8096 Q290.0313,70.4814 290.6406,69.3408 Q291.2656,68.1846 292.3594,67.5752 Q293.4531,66.9502 294.6875,66.9502 Q295.4219,66.9502 296.0625,67.1221 Q296.7188,67.2783 297.2656,67.6377 Z " fill="#000000"/><text fill="#000000" font-family="sans-serif" font-size="14" lengthAdjust="spacing" textLength="216" x="308.5" y="77.5596">AssignedVehicleToEntryController</text><line style="stroke:#181818;stroke-width:0.5;" x1="280.5" x2="526.5" y1="87.7627" y2="87.7627"/><text fill="#000000" font-family="sans-serif" font-size="14" lengthAdjust="spacing" textLength="210" x="285.5" y="106.8701">-EntryRepository entryRepository</text><text fill="#000000" font-family="sans-serif" font-size="14" lengthAdjust="spacing" textLength="235" x="285.5" y="125.4912">-VehicleRepository vehicleRepository</text><line style="stroke:#181818;stroke-width:0.5;" x1="280.5" x2="526.5" y1="133.0049" y2="133.0049"/><text fill="#000000" font-family="sans-serif" font-size="14" lengthAdjust="spacing" textLength="234" x="285.5" y="152.1123">+AssignedVehicleToEntryController()</text><text fill="#000000" font-family="sans-serif" font-size="14" lengthAdjust="spacing" textLength="138" x="285.5" y="170.7334">+getEntrysInAgenda()</text><text fill="#000000" font-family="sans-serif" font-size="14" lengthAdjust="spacing" textLength="106" x="285.5" y="189.3545">+getVehicleList()</text><text fill="#000000" font-family="sans-serif" font-size="14" lengthAdjust="spacing" textLength="196" x="285.5" y="207.9756">-getCollaboratorFromSession()</text></g><!--class EntryMapper--><g id="elem_EntryMapper"><rect codeLine="62" fill="#F1F1F1" height="103.8633" id="EntryMapper" rx="2.5" ry="2.5" style="stroke:#181818;stroke-width:0.5;" width="113" x="7" y="504.7627"/><ellipse cx="22" cy="520.7627" fill="#ADD1B2" rx="11" ry="11" style="stroke:#181818;stroke-width:1.0;"/><path d="M24.7656,516.6377 Q24.9219,516.4189 25.1094,516.3096 Q25.2969,516.2002 25.5156,516.2002 Q25.8906,516.2002 26.125,516.4658 Q26.3594,516.7158 26.3594,517.3252 L26.3594,518.7783 Q26.3594,519.3877 26.125,519.6533 Q25.8906,519.9189 25.5156,519.9189 Q25.1719,519.9189 24.9688,519.7158 Q24.7656,519.5283 24.6563,519.0127 Q24.6094,518.6533 24.4219,518.4658 Q24.0938,518.0908 23.4844,517.8721 Q22.875,517.6533 22.25,517.6533 Q21.4844,517.6533 20.8438,517.9814 Q20.2188,518.3096 19.7188,519.0596 Q19.2344,519.8096 19.2344,520.8408 L19.2344,521.9346 Q19.2344,523.1689 20.125,523.9971 Q21.0156,524.8096 22.6094,524.8096 Q23.5469,524.8096 24.2031,524.5596 Q24.5938,524.4033 25.0156,523.9658 Q25.2813,523.7002 25.4219,523.6221 Q25.5781,523.5439 25.7813,523.5439 Q26.1094,523.5439 26.3594,523.8096 Q26.625,524.0596 26.625,524.4033 Q26.625,524.7471 26.2813,525.1533 Q25.7813,525.7314 24.9844,526.0596 Q23.9063,526.5127 22.6094,526.5127 Q21.0938,526.5127 19.8906,525.8877 Q18.9063,525.3877 18.2188,524.3252 Q17.5313,523.2471 17.5313,521.9658 L17.5313,520.8096 Q17.5313,519.4814 18.1406,518.3408 Q18.7656,517.1846 19.8594,516.5752 Q20.9531,515.9502 22.1875,515.9502 Q22.9219,515.9502 23.5625,516.1221 Q24.2188,516.2783 24.7656,516.6377 Z " fill="#000000"/><text fill="#000000" font-family="sans-serif" font-size="14" lengthAdjust="spacing" textLength="81" x="36" y="526.5596">EntryMapper</text><line style="stroke:#181818;stroke-width:0.5;" x1="8" x2="119" y1="536.7627" y2="536.7627"/><text fill="#000000" font-family="sans-serif" font-size="14" lengthAdjust="spacing" textLength="98" x="13" y="555.8701">-List&lt;EntryDto&gt;</text><line style="stroke:#181818;stroke-width:0.5;" x1="8" x2="119" y1="563.3838" y2="563.3838"/><text fill="#000000" font-family="sans-serif" font-size="14" lengthAdjust="spacing" textLength="68" x="13" y="582.4912">+toModel()</text><text fill="#000000" font-family="sans-serif" font-size="14" lengthAdjust="spacing" textLength="52" x="13" y="601.1123">+toDto()</text></g><!--class EntryDto--><g id="elem_EntryDto"><rect codeLine="68" fill="#F1F1F1" height="48" id="EntryDto" rx="2.5" ry="2.5" style="stroke:#181818;stroke-width:0.5;" width="87" x="20" y="696.7627"/><ellipse cx="35" cy="712.7627" fill="#ADD1B2" rx="11" ry="11" style="stroke:#181818;stroke-width:1.0;"/><path d="M37.7656,708.6377 Q37.9219,708.4189 38.1094,708.3096 Q38.2969,708.2002 38.5156,708.2002 Q38.8906,708.2002 39.125,708.4658 Q39.3594,708.7158 39.3594,709.3252 L39.3594,710.7783 Q39.3594,711.3877 39.125,711.6533 Q38.8906,711.9189 38.5156,711.9189 Q38.1719,711.9189 37.9688,711.7158 Q37.7656,711.5283 37.6563,711.0127 Q37.6094,710.6533 37.4219,710.4658 Q37.0938,710.0908 36.4844,709.8721 Q35.875,709.6533 35.25,709.6533 Q34.4844,709.6533 33.8438,709.9814 Q33.2188,710.3096 32.7188,711.0596 Q32.2344,711.8096 32.2344,712.8408 L32.2344,713.9346 Q32.2344,715.1689 33.125,715.9971 Q34.0156,716.8096 35.6094,716.8096 Q36.5469,716.8096 37.2031,716.5596 Q37.5938,716.4033 38.0156,715.9658 Q38.2813,715.7002 38.4219,715.6221 Q38.5781,715.5439 38.7813,715.5439 Q39.1094,715.5439 39.3594,715.8096 Q39.625,716.0596 39.625,716.4033 Q39.625,716.7471 39.2813,717.1533 Q38.7813,717.7314 37.9844,718.0596 Q36.9063,718.5127 35.6094,718.5127 Q34.0938,718.5127 32.8906,717.8877 Q31.9063,717.3877 31.2188,716.3252 Q30.5313,715.2471 30.5313,713.9658 L30.5313,712.8096 Q30.5313,711.4814 31.1406,710.3408 Q31.7656,709.1846 32.8594,708.5752 Q33.9531,707.9502 35.1875,707.9502 Q35.9219,707.9502 36.5625,708.1221 Q37.2188,708.2783 37.7656,708.6377 Z " fill="#000000"/><text fill="#000000" font-family="sans-serif" font-size="14" lengthAdjust="spacing" textLength="55" x="49" y="718.5596">EntryDto</text><line style="stroke:#181818;stroke-width:0.5;" x1="21" x2="106" y1="728.7627" y2="728.7627"/><line style="stroke:#181818;stroke-width:0.5;" x1="21" x2="106" y1="736.7627" y2="736.7627"/></g><!--class VehicleMapper--><g id="elem_VehicleMapper"><rect codeLine="71" fill="#F1F1F1" height="103.8633" id="VehicleMapper" rx="2.5" ry="2.5" style="stroke:#181818;stroke-width:0.5;" width="126" x="753.5" y="504.7627"/><ellipse cx="768.5" cy="520.7627" fill="#ADD1B2" rx="11" ry="11" style="stroke:#181818;stroke-width:1.0;"/><path d="M771.2656,516.6377 Q771.4219,516.4189 771.6094,516.3096 Q771.7969,516.2002 772.0156,516.2002 Q772.3906,516.2002 772.625,516.4658 Q772.8594,516.7158 772.8594,517.3252 L772.8594,518.7783 Q772.8594,519.3877 772.625,519.6533 Q772.3906,519.9189 772.0156,519.9189 Q771.6719,519.9189 771.4688,519.7158 Q771.2656,519.5283 771.1563,519.0127 Q771.1094,518.6533 770.9219,518.4658 Q770.5938,518.0908 769.9844,517.8721 Q769.375,517.6533 768.75,517.6533 Q767.9844,517.6533 767.3438,517.9814 Q766.7188,518.3096 766.2188,519.0596 Q765.7344,519.8096 765.7344,520.8408 L765.7344,521.9346 Q765.7344,523.1689 766.625,523.9971 Q767.5156,524.8096 769.1094,524.8096 Q770.0469,524.8096 770.7031,524.5596 Q771.0938,524.4033 771.5156,523.9658 Q771.7813,523.7002 771.9219,523.6221 Q772.0781,523.5439 772.2813,523.5439 Q772.6094,523.5439 772.8594,523.8096 Q773.125,524.0596 773.125,524.4033 Q773.125,524.7471 772.7813,525.1533 Q772.2813,525.7314 771.4844,526.0596 Q770.4063,526.5127 769.1094,526.5127 Q767.5938,526.5127 766.3906,525.8877 Q765.4063,525.3877 764.7188,524.3252 Q764.0313,523.2471 764.0313,521.9658 L764.0313,520.8096 Q764.0313,519.4814 764.6406,518.3408 Q765.2656,517.1846 766.3594,516.5752 Q767.4531,515.9502 768.6875,515.9502 Q769.4219,515.9502 770.0625,516.1221 Q770.7188,516.2783 771.2656,516.6377 Z " fill="#000000"/><text fill="#000000" font-family="sans-serif" font-size="14" lengthAdjust="spacing" textLength="94" x="782.5" y="526.5596">VehicleMapper</text><line style="stroke:#181818;stroke-width:0.5;" x1="754.5" x2="878.5" y1="536.7627" y2="536.7627"/><text fill="#000000" font-family="sans-serif" font-size="14" lengthAdjust="spacing" textLength="111" x="759.5" y="555.8701">-List&lt;VehicleDto&gt;</text><line style="stroke:#181818;stroke-width:0.5;" x1="754.5" x2="878.5" y1="563.3838" y2="563.3838"/><text fill="#000000" font-family="sans-serif" font-size="14" lengthAdjust="spacing" textLength="68" x="759.5" y="582.4912">+toModel()</text><text fill="#000000" font-family="sans-serif" font-size="14" lengthAdjust="spacing" textLength="52" x="759.5" y="601.1123">+toDto()</text></g><!--class VehicleDto--><g id="elem_VehicleDto"><rect codeLine="77" fill="#F1F1F1" height="48" id="VehicleDto" rx="2.5" ry="2.5" style="stroke:#181818;stroke-width:0.5;" width="100" x="766.5" y="696.7627"/><ellipse cx="781.5" cy="712.7627" fill="#ADD1B2" rx="11" ry="11" style="stroke:#181818;stroke-width:1.0;"/><path d="M784.2656,708.6377 Q784.4219,708.4189 784.6094,708.3096 Q784.7969,708.2002 785.0156,708.2002 Q785.3906,708.2002 785.625,708.4658 Q785.8594,708.7158 785.8594,709.3252 L785.8594,710.7783 Q785.8594,711.3877 785.625,711.6533 Q785.3906,711.9189 785.0156,711.9189 Q784.6719,711.9189 784.4688,711.7158 Q784.2656,711.5283 784.1563,711.0127 Q784.1094,710.6533 783.9219,710.4658 Q783.5938,710.0908 782.9844,709.8721 Q782.375,709.6533 781.75,709.6533 Q780.9844,709.6533 780.3438,709.9814 Q779.7188,710.3096 779.2188,711.0596 Q778.7344,711.8096 778.7344,712.8408 L778.7344,713.9346 Q778.7344,715.1689 779.625,715.9971 Q780.5156,716.8096 782.1094,716.8096 Q783.0469,716.8096 783.7031,716.5596 Q784.0938,716.4033 784.5156,715.9658 Q784.7813,715.7002 784.9219,715.6221 Q785.0781,715.5439 785.2813,715.5439 Q785.6094,715.5439 785.8594,715.8096 Q786.125,716.0596 786.125,716.4033 Q786.125,716.7471 785.7813,717.1533 Q785.2813,717.7314 784.4844,718.0596 Q783.4063,718.5127 782.1094,718.5127 Q780.5938,718.5127 779.3906,717.8877 Q778.4063,717.3877 777.7188,716.3252 Q777.0313,715.2471 777.0313,713.9658 L777.0313,712.8096 Q777.0313,711.4814 777.6406,710.3408 Q778.2656,709.1846 779.3594,708.5752 Q780.4531,707.9502 781.6875,707.9502 Q782.4219,707.9502 783.0625,708.1221 Q783.7188,708.2783 784.2656,708.6377 Z " fill="#000000"/><text fill="#000000" font-family="sans-serif" font-size="14" lengthAdjust="spacing" textLength="68" x="795.5" y="718.5596">VehicleDto</text><line style="stroke:#181818;stroke-width:0.5;" x1="767.5" x2="865.5" y1="728.7627" y2="728.7627"/><line style="stroke:#181818;stroke-width:0.5;" x1="767.5" x2="865.5" y1="736.7627" y2="736.7627"/></g><g id="elem_GMN14"><path d="M563,122.2627 L563,131.7627 L527.68,135.7627 L563,139.7627 L563,149.5537 A0,0 0 0 0 563,149.5537 L810,149.5537 A0,0 0 0 0 810,149.5537 L810,132.2627 L800,122.2627 L563,122.2627 A0,0 0 0 0 563,122.2627 " fill="#FEFFDD" style="stroke:#181818;stroke-width:0.5;"/><path d="M800,122.2627 L800,132.2627 L810,132.2627 L800,122.2627 " fill="#FEFFDD" style="stroke:#181818;stroke-width:0.5;"/><text fill="#000000" font-family="sans-serif" font-size="13" lengthAdjust="spacing" textLength="226" x="569" y="141.291">- entry is achieved with entry repository</text></g><g id="elem_GMN17"><path d="M581,534.2627 L581,578.8447 A0,0 0 0 0 581,578.8447 L718,578.8447 A0,0 0 0 0 718,578.8447 L718,544.2627 L708,534.2627 L632.01,534.2627 L512.84,417.0127 L624.01,534.2627 L581,534.2627 A0,0 0 0 0 581,534.2627 " fill="#FEFFDD" style="stroke:#181818;stroke-width:0.5;"/><path d="M708,534.2627 L708,544.2627 L718,544.2627 L708,534.2627 " fill="#FEFFDD" style="stroke:#181818;stroke-width:0.5;"/><text fill="#000000" font-family="sans-serif" font-size="13" lengthAdjust="spacing" textLength="116" x="587" y="553.291">- used for displaying</text><text fill="#000000" font-family="sans-serif" font-size="13" lengthAdjust="spacing" textLength="72" x="587" y="570.582">the to do list</text></g><!--class AssignedVehicleToEntryUI--><g id="elem_AssignedVehicleToEntryUI"><rect codeLine="90" fill="#F1F1F1" height="48" id="AssignedVehicleToEntryUI" rx="2.5" ry="2.5" style="stroke:#181818;stroke-width:0.5;" width="198" x="46.5" y="111.7627"/><ellipse cx="61.5" cy="127.7627" fill="#ADD1B2" rx="11" ry="11" style="stroke:#181818;stroke-width:1.0;"/><path d="M64.2656,123.6377 Q64.4219,123.4189 64.6094,123.3096 Q64.7969,123.2002 65.0156,123.2002 Q65.3906,123.2002 65.625,123.4658 Q65.8594,123.7158 65.8594,124.3252 L65.8594,125.7783 Q65.8594,126.3877 65.625,126.6533 Q65.3906,126.9189 65.0156,126.9189 Q64.6719,126.9189 64.4688,126.7158 Q64.2656,126.5283 64.1563,126.0127 Q64.1094,125.6533 63.9219,125.4658 Q63.5938,125.0908 62.9844,124.8721 Q62.375,124.6533 61.75,124.6533 Q60.9844,124.6533 60.3438,124.9814 Q59.7188,125.3096 59.2188,126.0596 Q58.7344,126.8096 58.7344,127.8408 L58.7344,128.9346 Q58.7344,130.1689 59.625,130.9971 Q60.5156,131.8096 62.1094,131.8096 Q63.0469,131.8096 63.7031,131.5596 Q64.0938,131.4033 64.5156,130.9658 Q64.7813,130.7002 64.9219,130.6221 Q65.0781,130.5439 65.2813,130.5439 Q65.6094,130.5439 65.8594,130.8096 Q66.125,131.0596 66.125,131.4033 Q66.125,131.7471 65.7813,132.1533 Q65.2813,132.7314 64.4844,133.0596 Q63.4063,133.5127 62.1094,133.5127 Q60.5938,133.5127 59.3906,132.8877 Q58.4063,132.3877 57.7188,131.3252 Q57.0313,130.2471 57.0313,128.9658 L57.0313,127.8096 Q57.0313,126.4814 57.6406,125.3408 Q58.2656,124.1846 59.3594,123.5752 Q60.4531,122.9502 61.6875,122.9502 Q62.4219,122.9502 63.0625,123.1221 Q63.7188,123.2783 64.2656,123.6377 Z " fill="#000000"/><text fill="#000000" font-family="sans-serif" font-size="14" lengthAdjust="spacing" textLength="166" x="75.5" y="133.5596">AssignedVehicleToEntryUI</text><line style="stroke:#181818;stroke-width:0.5;" x1="47.5" x2="243.5" y1="143.7627" y2="143.7627"/><line style="stroke:#181818;stroke-width:0.5;" x1="47.5" x2="243.5" y1="151.7627" y2="151.7627"/></g><!--link Repositories to Repositories--><g id="link_Repositories_Repositories"><path codeLine="93" d="M1039.78,114.4127 C1059.98,116.6627 1074.5,123.7827 1074.5,135.7627 C1074.5,147.7427 1065.9431,154.1985 1045.7431,156.4485 " fill="none" id="Repositories-to-Repositories" style="stroke:#181818;stroke-width:1.0;"/><polygon fill="#181818" points="1039.78,157.1127,1049.1675,160.0918,1044.7493,156.5592,1048.2819,152.141,1039.78,157.1127" style="stroke:#181818;stroke-width:1.0;"/><text fill="#000000" font-family="sans-serif" font-size="13" lengthAdjust="spacing" textLength="49" x="1080.5" y="141.291">instance</text></g><!--link AssignedVehicleToEntryUI to AssignedVehicleToEntryController--><g id="link_AssignedVehicleToEntryUI_AssignedVehicleToEntryController"><path codeLine="96" d="M244.56,135.7627 C253.87,135.7627 260.88,135.7627 273.35,135.7627 " fill="none" id="AssignedVehicleToEntryUI-to-AssignedVehicleToEntryController" style="stroke:#181818;stroke-width:1.0;stroke-dasharray:7.0,7.0;"/><polygon fill="#181818" points="279.35,135.7627,270.35,131.7627,274.35,135.7627,270.35,139.7627,279.35,135.7627" style="stroke:#181818;stroke-width:1.0;"/></g><!--link AssignedVehicleToEntryController to Repositories--><g id="link_AssignedVehicleToEntryController_Repositories"><path codeLine="98" d="M527.52,65.8927 C538.46,59.7327 545.5,55.7627 545.5,55.7627 C545.5,55.7627 652,25.7627 652,25.7627 C652,25.7627 721,25.7627 721,25.7627 C721,25.7627 827.5,55.7627 827.5,55.7627 C827.5,55.7627 834.0846,60.3462 849.8246,71.2962 " fill="none" id="AssignedVehicleToEntryController-to-Repositories" style="stroke:#181818;stroke-width:1.0;stroke-dasharray:7.0,7.0;"/><polygon fill="#181818" points="854.75,74.7227,849.6463,66.2994,850.6455,71.8673,845.0776,72.8666,854.75,74.7227" style="stroke:#181818;stroke-width:1.0;"/><text fill="#000000" font-family="sans-serif" font-size="13" lengthAdjust="spacing" textLength="67" x="653" y="21.791">repositories</text></g><!--link Repositories to EntryRepository--><g id="link_Repositories_EntryRepository"><path codeLine="99" d="M855.05,196.8427 C839.16,207.7527 827.5,215.7627 827.5,215.7627 C827.5,215.7627 721.0741,255.3225 619.6341,293.0225 " fill="none" id="Repositories-to-EntryRepository" style="stroke:#181818;stroke-width:1.0;"/><polygon fill="#181818" points="614.01,295.1127,623.8397,295.7268,618.6968,293.3709,621.0528,288.228,614.01,295.1127" style="stroke:#181818;stroke-width:1.0;"/><text fill="#000000" font-family="sans-serif" font-size="13" lengthAdjust="spacing" textLength="7" x="836.9655" y="219.3393">1</text><text fill="#000000" font-family="sans-serif" font-size="13" lengthAdjust="spacing" textLength="7" x="621.9542" y="288.7869">1</text></g><!--link Repositories to VehicleRepository--><g id="link_Repositories_VehicleRepository"><path codeLine="100" d="M942.5,196.9127 C942.5,233.8327 942.5,274.1927 942.5,307.0927 " fill="none" id="Repositories-to-VehicleRepository" style="stroke:#181818;stroke-width:1.0;"/><polygon fill="#181818" points="942.5,313.0927,946.5,304.0927,942.5,308.0927,938.5,304.0927,942.5,313.0927" style="stroke:#181818;stroke-width:1.0;"/><text fill="#000000" font-family="sans-serif" font-size="13" lengthAdjust="spacing" textLength="7" x="935.0734" y="219.4178">1</text><text fill="#000000" font-family="sans-serif" font-size="13" lengthAdjust="spacing" textLength="7" x="934.9422" y="301.9697">1</text></g><!--link AssignedVehicleToEntryController to EntryRepository--><g id="link_AssignedVehicleToEntryController_EntryRepository"><path codeLine="102" d="M421.62,215.7727 C427.57,241.7327 432.7493,264.2944 438.3293,288.6344 " fill="none" id="AssignedVehicleToEntryController-to-EntryRepository" style="stroke:#181818;stroke-width:1.0;stroke-dasharray:7.0,7.0;"/><polygon fill="#181818" points="439.67,294.4827,441.5578,284.8164,438.5527,289.6091,433.76,286.6041,439.67,294.4827" style="stroke:#181818;stroke-width:1.0;"/><text fill="#000000" font-family="sans-serif" font-size="13" lengthAdjust="spacing" textLength="93" x="432.5" y="260.791">EntryRepository</text></g><!--link AssignedVehicleToEntryController to EntryMapper--><g id="link_AssignedVehicleToEntryController_EntryMapper"><path codeLine="103" d="M301.2,215.9927 C250.3,255.4127 199.5,294.7627 199.5,294.7627 C199.5,294.7627 132.5822,423.1815 92.9822,499.1915 " fill="none" id="AssignedVehicleToEntryController-to-EntryMapper" style="stroke:#181818;stroke-width:1.0;stroke-dasharray:7.0,7.0;"/><polygon fill="#181818" points="90.21,504.5127,97.9158,498.3791,92.5202,500.0784,90.8209,494.6828,90.21,504.5127" style="stroke:#181818;stroke-width:1.0;"/><text fill="#000000" font-family="sans-serif" font-size="13" lengthAdjust="spacing" textLength="74" x="200.5" y="361.291">EntryMapper</text></g><!--link AssignedVehicleToEntryController to VehicleMapper--><g id="link_AssignedVehicleToEntryController_VehicleMapper"><path codeLine="104" d="M517.83,215.9927 C574.72,255.4127 631.5,294.7627 631.5,294.7627 C631.5,294.7627 722.8202,423.6078 776.7002,499.6178 " fill="none" id="AssignedVehicleToEntryController-to-VehicleMapper" style="stroke:#181818;stroke-width:1.0;stroke-dasharray:7.0,7.0;"/><polygon fill="#181818" points="780.17,504.5127,778.2286,494.8571,777.2785,500.4336,771.702,499.4835,780.17,504.5127" style="stroke:#181818;stroke-width:1.0;"/><text fill="#000000" font-family="sans-serif" font-size="13" lengthAdjust="spacing" textLength="86" x="719.5" y="361.291">VehicleMapper</text></g><!--link EntryMapper to EntryDto--><g id="link_EntryMapper_EntryDto"><path codeLine="106" d="M63.5,609.0227 C63.5,638.3127 63.5,667.6327 63.5,690.3827 " fill="none" id="EntryMapper-to-EntryDto" style="stroke:#181818;stroke-width:1.0;"/><polygon fill="#181818" points="63.5,696.3827,67.5,687.3827,63.5,691.3827,59.5,687.3827,63.5,696.3827" style="stroke:#181818;stroke-width:1.0;"/><text fill="#000000" font-family="sans-serif" font-size="13" lengthAdjust="spacing" textLength="7" x="56.0734" y="630.4822">1</text><text fill="#000000" font-family="sans-serif" font-size="13" lengthAdjust="spacing" textLength="5" x="57.8906" y="685.432">*</text></g><!--link VehicleRepository to Vehicle--><g id="link_VehicleRepository_Vehicle"><path codeLine="108" d="M946.27,398.4827 C949.62,435.5227 953.9096,482.9371 956.9896,516.9971 " fill="none" id="VehicleRepository-to-Vehicle" style="stroke:#181818;stroke-width:1.0;"/><polygon fill="#181818" points="957.53,522.9727,960.7032,513.649,957.0797,517.993,952.7357,514.3695,957.53,522.9727" style="stroke:#181818;stroke-width:1.0;"/><text fill="#000000" font-family="sans-serif" font-size="13" lengthAdjust="spacing" textLength="46" x="952.5" y="461.791">vehicles</text><text fill="#000000" font-family="sans-serif" font-size="13" lengthAdjust="spacing" textLength="7" x="939.313" y="420.6781">1</text><text fill="#000000" font-family="sans-serif" font-size="13" lengthAdjust="spacing" textLength="5" x="951.4873" y="512.0033">*</text></g><!--link EntryRepository to Entry--><g id="link_EntryRepository_Entry"><path codeLine="110" d="M425.95,417.0127 C414.55,441.9427 403.8442,465.3457 392.4542,490.2657 " fill="none" id="EntryRepository-to-Entry" style="stroke:#181818;stroke-width:1.0;"/><polygon fill="#181818" points="389.96,495.7227,397.3393,489.2,392.0385,491.1752,390.0633,485.8744,389.96,495.7227" style="stroke:#181818;stroke-width:1.0;"/><text fill="#000000" font-family="sans-serif" font-size="13" lengthAdjust="spacing" textLength="38" x="412.5" y="461.791">entry's</text><text fill="#000000" font-family="sans-serif" font-size="13" lengthAdjust="spacing" textLength="7" x="415.3598" y="439.0947">1</text><text fill="#000000" font-family="sans-serif" font-size="13" lengthAdjust="spacing" textLength="5" x="387.846" y="484.6993">*</text></g><!--link EntryRepository to CollaboratorUser--><g id="link_EntryRepository_CollaboratorUser"><path codeLine="111" d="M457.5,416.7927 C458.6,433.3027 459.5,446.7627 459.5,446.7627 C459.5,446.7627 472.5,647.7627 472.5,647.7627 C472.5,647.7627 472.5,666.7627 472.5,666.7627 C472.5,666.7627 466.6175,677.1722 458.5275,691.4522 " fill="none" id="EntryRepository-to-CollaboratorUser" style="stroke:#181818;stroke-width:1.0;"/><polygon fill="#181818" points="455.57,696.6727,463.4866,690.8137,458.0346,692.3223,456.526,686.8703,455.57,696.6727" style="stroke:#181818;stroke-width:1.0;"/><text fill="#000000" font-family="sans-serif" font-size="13" lengthAdjust="spacing" textLength="49" x="472.5" y="562.291">employs</text><text fill="#000000" font-family="sans-serif" font-size="13" lengthAdjust="spacing" textLength="5" x="453.2786" y="685.3871">*</text></g><!--link EntryRepository to EntryMapper--><g id="link_EntryRepository_EntryMapper"><path codeLine="112" d="M316.74,416.9227 C231.33,454.4927 137.5,495.7627 137.5,495.7627 C137.5,495.7627 134.9285,497.8414 124.9985,505.9014 " fill="none" id="EntryRepository-to-EntryMapper" style="stroke:#181818;stroke-width:1.0;stroke-dasharray:7.0,7.0;"/><polygon fill="#181818" points="120.34,509.6827,129.8487,507.1165,124.2221,506.5316,124.807,500.9051,120.34,509.6827" style="stroke:#181818;stroke-width:1.0;"/></g><!--link VehicleRepository to VehicleMapper--><g id="link_VehicleRepository_VehicleMapper"><path codeLine="113" d="M916.09,398.4827 C896.53,429.3627 872.9908,466.5541 852.1308,499.4841 " fill="none" id="VehicleRepository-to-VehicleMapper" style="stroke:#181818;stroke-width:1.0;stroke-dasharray:7.0,7.0;"/><polygon fill="#181818" points="848.92,504.5527,857.1153,499.0903,851.5957,500.3289,850.3571,494.8093,848.92,504.5527" style="stroke:#181818;stroke-width:1.0;"/></g><!--link VehicleMapper to VehicleDto--><g id="link_VehicleMapper_VehicleDto"><path codeLine="115" d="M816.5,609.0227 C816.5,638.3127 816.5,667.6327 816.5,690.3827 " fill="none" id="VehicleMapper-to-VehicleDto" style="stroke:#181818;stroke-width:1.0;"/><polygon fill="#181818" points="816.5,696.3827,820.5,687.3827,816.5,691.3827,812.5,687.3827,816.5,696.3827" style="stroke:#181818;stroke-width:1.0;"/><text fill="#000000" font-family="sans-serif" font-size="13" lengthAdjust="spacing" textLength="7" x="809.0734" y="630.4822">1</text><text fill="#000000" font-family="sans-serif" font-size="13" lengthAdjust="spacing" textLength="5" x="810.8906" y="685.432">*</text></g><!--link Entry to CollaboratorUser--><g id="link_Entry_CollaboratorUser"><path codeLine="117" d="M392.29,618.0827 C405.79,645.4327 418.302,670.7736 428.402,691.2136 " fill="none" id="Entry-to-CollaboratorUser" style="stroke:#181818;stroke-width:1.0;"/><polygon fill="#181818" points="431.06,696.5927,430.6591,686.752,428.845,692.1101,423.4869,690.296,431.06,696.5927" style="stroke:#181818;stroke-width:1.0;"/><text fill="#000000" font-family="sans-serif" font-size="13" lengthAdjust="spacing" textLength="49" x="415.5" y="662.791">employs</text><text fill="#000000" font-family="sans-serif" font-size="13" lengthAdjust="spacing" textLength="5" x="422.6621" y="685.6932">*</text></g><!--link Task to Entry--><g id="link_Task_Entry"><path codeLine="118" d="M218.37,556.7627 C241.35,556.7627 267.1,556.7627 294.95,556.7627 " fill="none" id="Task-to-Entry" style="stroke:#181818;stroke-width:1.0;"/><polygon fill="#181818" points="300.95,556.7627,291.95,552.7627,295.95,556.7627,291.95,560.7627,300.95,556.7627" style="stroke:#181818;stroke-width:1.0;"/><text fill="#000000" font-family="sans-serif" font-size="13" lengthAdjust="spacing" textLength="46" x="236.5" y="549.791">extends</text><text fill="#000000" font-family="sans-serif" font-size="13" lengthAdjust="spacing" textLength="7" x="226.1072" y="551.9635">1</text><text fill="#000000" font-family="sans-serif" font-size="13" lengthAdjust="spacing" textLength="7" x="286.022" y="552.7433">1</text></g><!--SRC=[bLLDRzim3BthLmYzfFj8iLs38K3HTK20jOUbxLsrcLYeB1eIcouh-jz7sx8jH-wIzP12vECZ-KJAC_-aRQMSAcM95hF2OGcIt3E8mLEfx4bjOKrx0z91HifkJGpmXShnHTkjt2ZZOu_H5cXVWQpGxEk3c4quqH6AA2epoljB8gSVdmbM6Tgr_WFoYn0p0nkIXDBfRK4ortKv6gqGeWcILsYCUaId2Dsz1oTVnLlllBRazcoH_3UNFxMdRmzGwCp0ih5zQX7d7yB90zt2Iu3qLWSbxc2mldNqTye_9Ub-GOLUSpNZnF9RurtAXMHfRQv4ODy2NJQ66jNdP3gzjI7d7RPbxjhZPwXF7NAZ3O4BI7-Bn2gix9qkeSFNn6tCTyAe_10p53mjr53dmy1tdlBqxQxv7daqe5JQHEhqUJJu7XiR- -OvrSfwdhgCvMR1Oj00EL0xZauwYykzRAI5V2pk5V8lpr8pGMrjXzS9utD09Rdaxj0I2ZkMEEwWSVcLRKTZehTeMkQrETw37xpKQ-1iQEF66yuRLLNWHZTz7KQZsmd26yp1z4a9sPaGiUqrcO49zk3v7_uXfDqkYmJX0S3DKHb3ykQsfFPIPOM67UJoHLCHp6wu6zPNrWb2caSamhBESprvtS-UcJRe-2dobL5xdlJ6GmNKprIE_CfvYbZ_DNJtg_Qv6gt6V3bUbONKOHbOYdTvBfR7XH57H_yYoUtYtHlvphwUoJaNM_y_rEfTOB8jfnJ5LHtkuY99UJfDEwGTHNiwBNmqvKmmEWiHi_TDVpphzqM8zB68STr3kkYU41yuty6tdxT5EzCpds0xNFADv92oChXFGmv4cYWuqQ7lQgBpOPD39wVKL7zMMvPek6h_R-ArOat-0W00]--></g></svg>