<?xml version="1.0" encoding="us-ascii" standalone="no"?><svg xmlns="http://www.w3.org/2000/svg" xmlns:xlink="http://www.w3.org/1999/xlink" contentStyleType="text/css" height="1004px" preserveAspectRatio="none" style="width:2364px;height:1004px;background:#FFFFFF;" version="1.1" viewBox="0 0 2364 1004" width="2364px" zoomAndPan="magnify"><defs/><g><rect fill="#FFFFFF" height="817.5664" style="stroke:#181818;stroke-width:1.0;" width="10" x="33.5" y="93.6211"/><rect fill="#FFFFFF" height="79.543" style="stroke:#181818;stroke-width:1.0;" width="10" x="342.5" y="116.9121"/><rect fill="#FFFFFF" height="31.291" style="stroke:#181818;stroke-width:1.0;" width="10" x="342.5" y="227.7461"/><rect fill="#FFFFFF" height="225.3672" style="stroke:#181818;stroke-width:1.0;" width="10" x="553.5" y="269.0371"/><rect fill="#FFFFFF" height="360.2012" style="stroke:#181818;stroke-width:1.0;" width="10" x="553.5" y="551.9863"/><rect fill="#FFFFFF" height="116.834" style="stroke:#181818;stroke-width:1.0;" width="10" x="862.5" y="346.2793"/><rect fill="#FFFFFF" height="328.9102" style="stroke:#181818;stroke-width:1.0;" width="10" x="862.5" y="583.2773"/><rect fill="#FFFFFF" height="235.0371" style="stroke:#181818;stroke-width:1.0;" width="10" x="1238.5" y="677.1504"/><rect fill="#FFFFFF" height="31.291" style="stroke:#181818;stroke-width:1.0;" width="10" x="2034" y="614.5684"/><rect fill="#FFFFFF" height="31.291" style="stroke:#181818;stroke-width:1.0;" width="10" x="2125.5" y="771.0234"/><rect fill="#FFFFFF" height="31.291" style="stroke:#181818;stroke-width:1.0;" width="10" x="2293.5" y="708.4414"/><rect fill="none" height="394.7832" style="stroke:#000000;stroke-width:1.5;" width="2348" x="10" y="509.4043"/><line style="stroke:#181818;stroke-width:0.5;stroke-dasharray:5.0,5.0;" x1="38" x2="38" y1="83.6211" y2="921.1875"/><line style="stroke:#181818;stroke-width:0.5;stroke-dasharray:5.0,5.0;" x1="347" x2="347" y1="83.6211" y2="921.1875"/><line style="stroke:#181818;stroke-width:0.5;stroke-dasharray:5.0,5.0;" x1="558" x2="558" y1="267.5566" y2="921.1875"/><line style="stroke:#181818;stroke-width:0.5;stroke-dasharray:5.0,5.0;" x1="700" x2="700" y1="83.6211" y2="921.1875"/><line style="stroke:#181818;stroke-width:0.5;stroke-dasharray:5.0,5.0;" x1="867" x2="867" y1="311.1777" y2="921.1875"/><line style="stroke:#181818;stroke-width:0.5;stroke-dasharray:5.0,5.0;" x1="1018" x2="1018" y1="83.6211" y2="921.1875"/><line style="stroke:#181818;stroke-width:0.5;stroke-dasharray:5.0,5.0;" x1="1125" x2="1125" y1="83.6211" y2="921.1875"/><line style="stroke:#181818;stroke-width:0.5;stroke-dasharray:5.0,5.0;" x1="1243" x2="1243" y1="83.6211" y2="921.1875"/><line style="stroke:#181818;stroke-width:0.5;stroke-dasharray:5.0,5.0;" x1="1379" x2="1379" y1="83.6211" y2="921.1875"/><line style="stroke:#181818;stroke-width:0.5;stroke-dasharray:5.0,5.0;" x1="1487" x2="1487" y1="83.6211" y2="921.1875"/><line style="stroke:#181818;stroke-width:0.5;stroke-dasharray:5.0,5.0;" x1="1561" x2="1561" y1="83.6211" y2="921.1875"/><line style="stroke:#181818;stroke-width:0.5;stroke-dasharray:5.0,5.0;" x1="1704" x2="1704" y1="83.6211" y2="921.1875"/><line style="stroke:#181818;stroke-width:0.5;stroke-dasharray:5.0,5.0;" x1="1894" x2="1894" y1="83.6211" y2="921.1875"/><line style="stroke:#181818;stroke-width:0.5;stroke-dasharray:5.0,5.0;" x1="2039" x2="2039" y1="83.6211" y2="921.1875"/><line style="stroke:#181818;stroke-width:0.5;stroke-dasharray:5.0,5.0;" x1="2130" x2="2130" y1="83.6211" y2="921.1875"/><line style="stroke:#181818;stroke-width:0.5;stroke-dasharray:5.0,5.0;" x1="2202" x2="2202" y1="83.6211" y2="921.1875"/><line style="stroke:#181818;stroke-width:0.5;stroke-dasharray:5.0,5.0;" x1="2298" x2="2298" y1="83.6211" y2="921.1875"/><text fill="#000000" font-family="sans-serif" font-size="14" lengthAdjust="spacing" textLength="31" x="20" y="80.1074">GSM</text><ellipse cx="38.5" cy="13.5" fill="#E3E3E3" rx="8" ry="8" style="stroke:#181818;stroke-width:0.5;"/><path d="M38.5,21.5 L38.5,48.5 M25.5,29.5 L51.5,29.5 M38.5,48.5 L25.5,63.5 M38.5,48.5 L51.5,63.5 " fill="none" style="stroke:#181818;stroke-width:0.5;"/><text fill="#000000" font-family="sans-serif" font-size="14" lengthAdjust="spacing" textLength="31" x="20" y="935.2949">GSM</text><ellipse cx="38.5" cy="947.3086" fill="#E3E3E3" rx="8" ry="8" style="stroke:#181818;stroke-width:0.5;"/><path d="M38.5,955.3086 L38.5,982.3086 M25.5,963.3086 L51.5,963.3086 M38.5,982.3086 L25.5,997.3086 M38.5,982.3086 L51.5,997.3086 " fill="none" style="stroke:#181818;stroke-width:0.5;"/><rect fill="#E3E3E3" height="32.6211" rx="2.5" ry="2.5" style="stroke:#181818;stroke-width:0.5;" width="79" x="308" y="50"/><text fill="#000000" font-family="sans-serif" font-size="14" lengthAdjust="spacing" textLength="65" x="315" y="72.1074">:AgendaUI</text><rect fill="#E3E3E3" height="32.6211" rx="2.5" ry="2.5" style="stroke:#181818;stroke-width:0.5;" width="79" x="308" y="920.1875"/><text fill="#000000" font-family="sans-serif" font-size="14" lengthAdjust="spacing" textLength="65" x="315" y="942.2949">:AgendaUI</text><rect fill="#E3E3E3" height="32.6211" rx="2.5" ry="2.5" style="stroke:#181818;stroke-width:0.5;" width="135" x="491" y="920.1875"/><text fill="#000000" font-family="sans-serif" font-size="14" lengthAdjust="spacing" textLength="121" x="498" y="942.2949">:ViewDetailsEntryUI</text><rect fill="#E3E3E3" height="32.6211" rx="2.5" ry="2.5" style="stroke:#181818;stroke-width:0.5;" width="129" x="636" y="50"/><text fill="#000000" font-family="sans-serif" font-size="14" lengthAdjust="spacing" textLength="115" x="643" y="72.1074">:AgendaController</text><rect fill="#E3E3E3" height="32.6211" rx="2.5" ry="2.5" style="stroke:#181818;stroke-width:0.5;" width="129" x="636" y="920.1875"/><text fill="#000000" font-family="sans-serif" font-size="14" lengthAdjust="spacing" textLength="115" x="643" y="942.2949">:AgendaController</text><rect fill="#E3E3E3" height="32.6211" rx="2.5" ry="2.5" style="stroke:#181818;stroke-width:0.5;" width="185" x="775" y="920.1875"/><text fill="#000000" font-family="sans-serif" font-size="14" lengthAdjust="spacing" textLength="171" x="782" y="942.2949">:ViewDetailsEntryController</text><rect fill="#E3E3E3" height="32.6211" rx="2.5" ry="2.5" style="stroke:#181818;stroke-width:0.5;" width="97" x="970" y="50"/><text fill="#000000" font-family="sans-serif" font-size="14" lengthAdjust="spacing" textLength="83" x="977" y="72.1074">:Repositories</text><rect fill="#E3E3E3" height="32.6211" rx="2.5" ry="2.5" style="stroke:#181818;stroke-width:0.5;" width="97" x="970" y="920.1875"/><text fill="#000000" font-family="sans-serif" font-size="14" lengthAdjust="spacing" textLength="83" x="977" y="942.2949">:Repositories</text><rect fill="#E3E3E3" height="51.2422" rx="2.5" ry="2.5" style="stroke:#181818;stroke-width:0.5;" width="97" x="1077" y="31.3789"/><text fill="#000000" font-family="sans-serif" font-size="14" lengthAdjust="spacing" textLength="74" x="1088.5" y="53.4863">repositories</text><text fill="#000000" font-family="sans-serif" font-size="14" lengthAdjust="spacing" textLength="83" x="1084" y="72.1074">:Repositories</text><rect fill="#E3E3E3" height="51.2422" rx="2.5" ry="2.5" style="stroke:#181818;stroke-width:0.5;" width="97" x="1077" y="920.1875"/><text fill="#000000" font-family="sans-serif" font-size="14" lengthAdjust="spacing" textLength="74" x="1088.5" y="942.2949">repositories</text><text fill="#000000" font-family="sans-serif" font-size="14" lengthAdjust="spacing" textLength="83" x="1084" y="960.916">:Repositories</text><rect fill="#E3E3E3" height="51.2422" rx="2.5" ry="2.5" style="stroke:#181818;stroke-width:0.5;" width="119" x="1184" y="31.3789"/><text fill="#000000" font-family="sans-serif" font-size="14" lengthAdjust="spacing" textLength="100" x="1193.5" y="53.4863">entryRepository</text><text fill="#000000" font-family="sans-serif" font-size="14" lengthAdjust="spacing" textLength="105" x="1191" y="72.1074">:EntryRepository</text><rect fill="#E3E3E3" height="51.2422" rx="2.5" ry="2.5" style="stroke:#181818;stroke-width:0.5;" width="119" x="1184" y="920.1875"/><text fill="#000000" font-family="sans-serif" font-size="14" lengthAdjust="spacing" textLength="100" x="1193.5" y="942.2949">entryRepository</text><text fill="#000000" font-family="sans-serif" font-size="14" lengthAdjust="spacing" textLength="105" x="1191" y="960.916">:EntryRepository</text><rect fill="#E3E3E3" height="51.2422" rx="2.5" ry="2.5" style="stroke:#181818;stroke-width:0.5;" width="132" x="1313" y="31.3789"/><text fill="#000000" font-family="sans-serif" font-size="14" lengthAdjust="spacing" textLength="112" x="1323" y="53.4863">vehicleRepository</text><text fill="#000000" font-family="sans-serif" font-size="14" lengthAdjust="spacing" textLength="118" x="1320" y="72.1074">:VehicleRepository</text><rect fill="#E3E3E3" height="51.2422" rx="2.5" ry="2.5" style="stroke:#181818;stroke-width:0.5;" width="132" x="1313" y="920.1875"/><text fill="#000000" font-family="sans-serif" font-size="14" lengthAdjust="spacing" textLength="112" x="1323" y="942.2949">vehicleRepository</text><text fill="#000000" font-family="sans-serif" font-size="14" lengthAdjust="spacing" textLength="118" x="1320" y="960.916">:VehicleRepository</text><rect fill="#E3E3E3" height="32.6211" rx="2.5" ry="2.5" style="stroke:#181818;stroke-width:0.5;" width="64" x="1455" y="50"/><text fill="#000000" font-family="sans-serif" font-size="14" lengthAdjust="spacing" textLength="50" x="1462" y="72.1074">:Vehicle</text><rect fill="#E3E3E3" height="32.6211" rx="2.5" ry="2.5" style="stroke:#181818;stroke-width:0.5;" width="64" x="1455" y="920.1875"/><text fill="#000000" font-family="sans-serif" font-size="14" lengthAdjust="spacing" textLength="50" x="1462" y="942.2949">:Vehicle</text><rect fill="#E3E3E3" height="32.6211" rx="2.5" ry="2.5" style="stroke:#181818;stroke-width:0.5;" width="64" x="1529" y="50"/><text fill="#000000" font-family="sans-serif" font-size="14" lengthAdjust="spacing" textLength="50" x="1536" y="72.1074">:Vehicle</text><rect fill="#E3E3E3" height="32.6211" rx="2.5" ry="2.5" style="stroke:#181818;stroke-width:0.5;" width="64" x="1529" y="920.1875"/><text fill="#000000" font-family="sans-serif" font-size="14" lengthAdjust="spacing" textLength="50" x="1536" y="942.2949">:Vehicle</text><rect fill="#E3E3E3" height="32.6211" rx="2.5" ry="2.5" style="stroke:#181818;stroke-width:0.5;" width="202" x="1603" y="50"/><text fill="#000000" font-family="sans-serif" font-size="14" lengthAdjust="spacing" textLength="188" x="1610" y="72.1074">agendaDto : List&lt;VehicleDto&gt;</text><rect fill="#E3E3E3" height="32.6211" rx="2.5" ry="2.5" style="stroke:#181818;stroke-width:0.5;" width="202" x="1603" y="920.1875"/><text fill="#000000" font-family="sans-serif" font-size="14" lengthAdjust="spacing" textLength="188" x="1610" y="942.2949">agendaDto : List&lt;VehicleDto&gt;</text><rect fill="#E3E3E3" height="32.6211" rx="2.5" ry="2.5" style="stroke:#181818;stroke-width:0.5;" width="158" x="1815" y="50"/><text fill="#000000" font-family="sans-serif" font-size="14" lengthAdjust="spacing" textLength="144" x="1822" y="72.1074">agenda : List&lt;Vehicle&gt;</text><rect fill="#E3E3E3" height="32.6211" rx="2.5" ry="2.5" style="stroke:#181818;stroke-width:0.5;" width="158" x="1815" y="920.1875"/><text fill="#000000" font-family="sans-serif" font-size="14" lengthAdjust="spacing" textLength="144" x="1822" y="942.2949">agenda : List&lt;Vehicle&gt;</text><rect fill="#E3E3E3" height="32.6211" rx="2.5" ry="2.5" style="stroke:#181818;stroke-width:0.5;" width="112" x="1983" y="50"/><text fill="#000000" font-family="sans-serif" font-size="14" lengthAdjust="spacing" textLength="98" x="1990" y="72.1074">:VehicleMapper</text><rect fill="#E3E3E3" height="32.6211" rx="2.5" ry="2.5" style="stroke:#181818;stroke-width:0.5;" width="112" x="1983" y="920.1875"/><text fill="#000000" font-family="sans-serif" font-size="14" lengthAdjust="spacing" textLength="98" x="1990" y="942.2949">:VehicleMapper</text><rect fill="#E3E3E3" height="32.6211" rx="2.5" ry="2.5" style="stroke:#181818;stroke-width:0.5;" width="51" x="2105" y="50"/><text fill="#000000" font-family="sans-serif" font-size="14" lengthAdjust="spacing" textLength="37" x="2112" y="72.1074">:Entry</text><rect fill="#E3E3E3" height="32.6211" rx="2.5" ry="2.5" style="stroke:#181818;stroke-width:0.5;" width="51" x="2105" y="920.1875"/><text fill="#000000" font-family="sans-serif" font-size="14" lengthAdjust="spacing" textLength="37" x="2112" y="942.2949">:Entry</text><rect fill="#E3E3E3" height="32.6211" rx="2.5" ry="2.5" style="stroke:#181818;stroke-width:0.5;" width="73" x="2166" y="50"/><text fill="#000000" font-family="sans-serif" font-size="14" lengthAdjust="spacing" textLength="59" x="2173" y="72.1074">:EntryDto</text><rect fill="#E3E3E3" height="32.6211" rx="2.5" ry="2.5" style="stroke:#181818;stroke-width:0.5;" width="73" x="2166" y="920.1875"/><text fill="#000000" font-family="sans-serif" font-size="14" lengthAdjust="spacing" textLength="59" x="2173" y="942.2949">:EntryDto</text><rect fill="#E3E3E3" height="32.6211" rx="2.5" ry="2.5" style="stroke:#181818;stroke-width:0.5;" width="99" x="2249" y="50"/><text fill="#000000" font-family="sans-serif" font-size="14" lengthAdjust="spacing" textLength="85" x="2256" y="72.1074">:EntryMapper</text><rect fill="#E3E3E3" height="32.6211" rx="2.5" ry="2.5" style="stroke:#181818;stroke-width:0.5;" width="99" x="2249" y="920.1875"/><text fill="#000000" font-family="sans-serif" font-size="14" lengthAdjust="spacing" textLength="85" x="2256" y="942.2949">:EntryMapper</text><rect fill="#FFFFFF" height="817.5664" style="stroke:#181818;stroke-width:1.0;" width="10" x="33.5" y="93.6211"/><rect fill="#FFFFFF" height="79.543" style="stroke:#181818;stroke-width:1.0;" width="10" x="342.5" y="116.9121"/><rect fill="#FFFFFF" height="31.291" style="stroke:#181818;stroke-width:1.0;" width="10" x="342.5" y="227.7461"/><rect fill="#FFFFFF" height="225.3672" style="stroke:#181818;stroke-width:1.0;" width="10" x="553.5" y="269.0371"/><rect fill="#FFFFFF" height="360.2012" style="stroke:#181818;stroke-width:1.0;" width="10" x="553.5" y="551.9863"/><rect fill="#FFFFFF" height="116.834" style="stroke:#181818;stroke-width:1.0;" width="10" x="862.5" y="346.2793"/><rect fill="#FFFFFF" height="328.9102" style="stroke:#181818;stroke-width:1.0;" width="10" x="862.5" y="583.2773"/><rect fill="#FFFFFF" height="235.0371" style="stroke:#181818;stroke-width:1.0;" width="10" x="1238.5" y="677.1504"/><rect fill="#FFFFFF" height="31.291" style="stroke:#181818;stroke-width:1.0;" width="10" x="2034" y="614.5684"/><rect fill="#FFFFFF" height="31.291" style="stroke:#181818;stroke-width:1.0;" width="10" x="2125.5" y="771.0234"/><rect fill="#FFFFFF" height="31.291" style="stroke:#181818;stroke-width:1.0;" width="10" x="2293.5" y="708.4414"/><polygon fill="#181818" points="330.5,112.9121,340.5,116.9121,330.5,120.9121,334.5,116.9121" style="stroke:#181818;stroke-width:1.0;"/><line style="stroke:#181818;stroke-width:1.0;" x1="43.5" x2="336.5" y1="116.9121" y2="116.9121"/><text fill="#000000" font-family="sans-serif" font-size="13" font-weight="bold" lengthAdjust="spacing" textLength="7" x="50.5" y="111.6494">1</text><text fill="#000000" font-family="sans-serif" font-size="13" lengthAdjust="spacing" textLength="269" x="61.5" y="111.6494">asks to assign a vehicle to an Entry in Agenda</text><rect fill="none" height="43.252" style="stroke:#000000;stroke-width:1.5;" width="286" x="305" y="124.9121"/><path d="M305,124.9121 L367,124.9121 L367,133.9121 L357,143.9121 L305,143.9121 L305,124.9121 " fill="#EEEEEE" style="stroke:#000000;stroke-width:2.0;"/><text fill="#000000" font-family="sans-serif" font-size="13" font-weight="bold" lengthAdjust="spacing" textLength="17" x="318" y="140.9404">ref</text><text fill="#000000" font-family="sans-serif" font-size="12" lengthAdjust="spacing" textLength="278" x="309" y="160.8613">AgendaUI omitted (JavaFx) / View Entry's in Agenda</text><polygon fill="#181818" points="54.5,192.4551,44.5,196.4551,54.5,200.4551,50.5,196.4551" style="stroke:#181818;stroke-width:1.0;"/><line style="stroke:#181818;stroke-width:1.0;" x1="48.5" x2="346.5" y1="196.4551" y2="196.4551"/><text fill="#000000" font-family="sans-serif" font-size="13" font-weight="bold" lengthAdjust="spacing" textLength="7" x="60.5" y="191.1924">2</text><text fill="#000000" font-family="sans-serif" font-size="13" lengthAdjust="spacing" textLength="244" x="71.5" y="191.1924">show Agenda and wait to select one Entry</text><polygon fill="#181818" points="330.5,223.7461,340.5,227.7461,330.5,231.7461,334.5,227.7461" style="stroke:#181818;stroke-width:1.0;"/><line style="stroke:#181818;stroke-width:1.0;stroke-dasharray:2.0,2.0;" x1="43.5" x2="336.5" y1="227.7461" y2="227.7461"/><text fill="#000000" font-family="sans-serif" font-size="13" font-weight="bold" lengthAdjust="spacing" textLength="7" x="50.5" y="222.4834">3</text><text fill="#000000" font-family="sans-serif" font-size="13" lengthAdjust="spacing" textLength="95" x="61.5" y="222.4834">select one Entry</text><polygon fill="#181818" points="479,255.0371,489,259.0371,479,263.0371,483,259.0371" style="stroke:#181818;stroke-width:1.0;"/><line style="stroke:#181818;stroke-width:1.0;stroke-dasharray:2.0,2.0;" x1="347.5" x2="485" y1="259.0371" y2="259.0371"/><text fill="#000000" font-family="sans-serif" font-size="13" font-weight="bold" lengthAdjust="spacing" textLength="7" x="354.5" y="253.7744">4</text><text fill="#000000" font-family="sans-serif" font-size="13" lengthAdjust="spacing" textLength="36" x="365.5" y="253.7744">create</text><rect fill="#E3E3E3" height="32.6211" rx="2.5" ry="2.5" style="stroke:#181818;stroke-width:0.5;" width="135" x="491" y="235.7461"/><text fill="#000000" font-family="sans-serif" font-size="14" lengthAdjust="spacing" textLength="121" x="498" y="257.8535">:ViewDetailsEntryUI</text><polygon fill="#181818" points="763,298.6582,773,302.6582,763,306.6582,767,302.6582" style="stroke:#181818;stroke-width:1.0;"/><line style="stroke:#181818;stroke-width:1.0;stroke-dasharray:2.0,2.0;" x1="563.5" x2="769" y1="302.6582" y2="302.6582"/><text fill="#000000" font-family="sans-serif" font-size="13" font-weight="bold" lengthAdjust="spacing" textLength="7" x="570.5" y="297.3955">5</text><text fill="#000000" font-family="sans-serif" font-size="13" lengthAdjust="spacing" textLength="93" x="581.5" y="297.3955">create(entryDto)</text><rect fill="#E3E3E3" height="32.6211" rx="2.5" ry="2.5" style="stroke:#181818;stroke-width:0.5;" width="185" x="775" y="279.3672"/><text fill="#000000" font-family="sans-serif" font-size="14" lengthAdjust="spacing" textLength="171" x="782" y="301.4746">:ViewDetailsEntryController</text><polygon fill="#181818" points="850.5,342.2793,860.5,346.2793,850.5,350.2793,854.5,346.2793" style="stroke:#181818;stroke-width:1.0;"/><line style="stroke:#181818;stroke-width:1.0;stroke-dasharray:2.0,2.0;" x1="563.5" x2="856.5" y1="346.2793" y2="346.2793"/><text fill="#000000" font-family="sans-serif" font-size="13" font-weight="bold" lengthAdjust="spacing" textLength="7" x="570.5" y="341.0166">6</text><text fill="#000000" font-family="sans-serif" font-size="13" lengthAdjust="spacing" textLength="149" x="581.5" y="341.0166">getDataNeededToModify()</text><rect fill="none" height="43.252" style="stroke:#000000;stroke-width:1.5;" width="283" x="772" y="354.2793"/><path d="M772,354.2793 L834,354.2793 L834,363.2793 L824,373.2793 L772,373.2793 L772,354.2793 " fill="#EEEEEE" style="stroke:#000000;stroke-width:2.0;"/><text fill="#000000" font-family="sans-serif" font-size="13" font-weight="bold" lengthAdjust="spacing" textLength="17" x="785" y="370.3076">ref</text><text fill="#000000" font-family="sans-serif" font-size="12" lengthAdjust="spacing" textLength="275" x="776" y="390.2285">Get Vehicles Dto List that can be assigned to Entry</text><path d="M804,407.5313 L804,434.5313 L930,434.5313 L930,417.5313 L920,407.5313 L804,407.5313 " fill="#FAFAFA" style="stroke:#181818;stroke-width:0.5;"/><path d="M920,407.5313 L920,417.5313 L930,417.5313 L920,407.5313 " fill="#FAFAFA" style="stroke:#181818;stroke-width:0.5;"/><text fill="#000000" font-family="sans-serif" font-size="13" lengthAdjust="spacing" textLength="105" x="810" y="426.5596">other data omitted</text><polygon fill="#181818" points="574.5,459.1133,564.5,463.1133,574.5,467.1133,570.5,463.1133" style="stroke:#181818;stroke-width:1.0;"/><line style="stroke:#181818;stroke-width:1.0;" x1="568.5" x2="866.5" y1="463.1133" y2="463.1133"/><text fill="#000000" font-family="sans-serif" font-size="13" font-weight="bold" lengthAdjust="spacing" textLength="7" x="580.5" y="457.8506">7</text><text fill="#000000" font-family="sans-serif" font-size="13" lengthAdjust="spacing" textLength="80" x="591.5" y="457.8506">vehicleDtoList</text><polygon fill="#181818" points="54.5,490.4043,44.5,494.4043,54.5,498.4043,50.5,494.4043" style="stroke:#181818;stroke-width:1.0;"/><line style="stroke:#181818;stroke-width:1.0;" x1="48.5" x2="557.5" y1="494.4043" y2="494.4043"/><text fill="#000000" font-family="sans-serif" font-size="13" font-weight="bold" lengthAdjust="spacing" textLength="7" x="60.5" y="489.1416">8</text><text fill="#000000" font-family="sans-serif" font-size="13" lengthAdjust="spacing" textLength="318" x="71.5" y="489.1416">show entry data and wait for selection vehicle to assign</text><path d="M10,509.4043 L83,509.4043 L83,518.6953 L73,528.6953 L10,528.6953 L10,509.4043 " fill="#EEEEEE" style="stroke:#000000;stroke-width:1.5;"/><rect fill="none" height="394.7832" style="stroke:#000000;stroke-width:1.5;" width="2348" x="10" y="509.4043"/><text fill="#000000" font-family="sans-serif" font-size="13" font-weight="bold" lengthAdjust="spacing" textLength="28" x="25" y="524.4326">loop</text><text fill="#000000" font-family="sans-serif" font-size="11" font-weight="bold" lengthAdjust="spacing" textLength="398" x="98" y="523.2744">[For Every vehicle that he want to add to the entry and are disposable to]</text><polygon fill="#181818" points="541.5,547.9863,551.5,551.9863,541.5,555.9863,545.5,551.9863" style="stroke:#181818;stroke-width:1.0;"/><line style="stroke:#181818;stroke-width:1.0;" x1="43.5" x2="547.5" y1="551.9863" y2="551.9863"/><text fill="#000000" font-family="sans-serif" font-size="13" font-weight="bold" lengthAdjust="spacing" textLength="7" x="50.5" y="546.7236">9</text><text fill="#000000" font-family="sans-serif" font-size="13" lengthAdjust="spacing" textLength="274" x="61.5" y="546.7236">select one vehicle and click on button to assign</text><polygon fill="#181818" points="850.5,579.2773,860.5,583.2773,850.5,587.2773,854.5,583.2773" style="stroke:#181818;stroke-width:1.0;"/><line style="stroke:#181818;stroke-width:1.0;" x1="563.5" x2="856.5" y1="583.2773" y2="583.2773"/><text fill="#000000" font-family="sans-serif" font-size="13" font-weight="bold" lengthAdjust="spacing" textLength="14" x="570.5" y="578.0146">10</text><text fill="#000000" font-family="sans-serif" font-size="13" lengthAdjust="spacing" textLength="193" x="588.5" y="578.0146">assignVehicleToEntry(vehicleDto)</text><polygon fill="#181818" points="2022,610.5684,2032,614.5684,2022,618.5684,2026,614.5684" style="stroke:#181818;stroke-width:1.0;"/><line style="stroke:#181818;stroke-width:1.0;" x1="872.5" x2="2028" y1="614.5684" y2="614.5684"/><text fill="#000000" font-family="sans-serif" font-size="13" font-weight="bold" lengthAdjust="spacing" textLength="14" x="879.5" y="609.3057">11</text><text fill="#000000" font-family="sans-serif" font-size="13" lengthAdjust="spacing" textLength="113" x="897.5" y="609.3057">toModel(vehicleDto)</text><polygon fill="#181818" points="883.5,641.8594,873.5,645.8594,883.5,649.8594,879.5,645.8594" style="stroke:#181818;stroke-width:1.0;"/><line style="stroke:#181818;stroke-width:1.0;" x1="877.5" x2="2038" y1="645.8594" y2="645.8594"/><text fill="#000000" font-family="sans-serif" font-size="13" font-weight="bold" lengthAdjust="spacing" textLength="14" x="889.5" y="640.5967">12</text><text fill="#000000" font-family="sans-serif" font-size="13" lengthAdjust="spacing" textLength="39" x="907.5" y="640.5967">vehicle</text><polygon fill="#181818" points="1226.5,673.1504,1236.5,677.1504,1226.5,681.1504,1230.5,677.1504" style="stroke:#181818;stroke-width:1.0;"/><line style="stroke:#181818;stroke-width:1.0;" x1="872.5" x2="1232.5" y1="677.1504" y2="677.1504"/><text fill="#000000" font-family="sans-serif" font-size="13" font-weight="bold" lengthAdjust="spacing" textLength="14" x="879.5" y="671.8877">13</text><text fill="#000000" font-family="sans-serif" font-size="13" lengthAdjust="spacing" textLength="4" x="897.5" y="671.8877">&#160;</text><polygon fill="#181818" points="2281.5,704.4414,2291.5,708.4414,2281.5,712.4414,2285.5,708.4414" style="stroke:#181818;stroke-width:1.0;"/><line style="stroke:#181818;stroke-width:1.0;" x1="1248.5" x2="2287.5" y1="708.4414" y2="708.4414"/><text fill="#000000" font-family="sans-serif" font-size="13" font-weight="bold" lengthAdjust="spacing" textLength="14" x="1255.5" y="703.1787">14</text><text fill="#000000" font-family="sans-serif" font-size="13" lengthAdjust="spacing" textLength="103" x="1273.5" y="703.1787">toModel(entryDto)</text><polygon fill="#181818" points="1259.5,735.7324,1249.5,739.7324,1259.5,743.7324,1255.5,739.7324" style="stroke:#181818;stroke-width:1.0;"/><line style="stroke:#181818;stroke-width:1.0;" x1="1253.5" x2="2297.5" y1="739.7324" y2="739.7324"/><text fill="#000000" font-family="sans-serif" font-size="13" font-weight="bold" lengthAdjust="spacing" textLength="14" x="1265.5" y="734.4697">15</text><text fill="#000000" font-family="sans-serif" font-size="13" lengthAdjust="spacing" textLength="29" x="1283.5" y="734.4697">entry</text><polygon fill="#181818" points="2113.5,767.0234,2123.5,771.0234,2113.5,775.0234,2117.5,771.0234" style="stroke:#181818;stroke-width:1.0;"/><line style="stroke:#181818;stroke-width:1.0;" x1="1248.5" x2="2119.5" y1="771.0234" y2="771.0234"/><text fill="#000000" font-family="sans-serif" font-size="13" font-weight="bold" lengthAdjust="spacing" textLength="14" x="1255.5" y="765.7607">16</text><text fill="#000000" font-family="sans-serif" font-size="13" lengthAdjust="spacing" textLength="133" x="1273.5" y="765.7607">setNewVehicle(vehicle)</text><polygon fill="#181818" points="1259.5,798.3145,1249.5,802.3145,1259.5,806.3145,1255.5,802.3145" style="stroke:#181818;stroke-width:1.0;"/><line style="stroke:#181818;stroke-width:1.0;" x1="1253.5" x2="2129.5" y1="802.3145" y2="802.3145"/><text fill="#000000" font-family="sans-serif" font-size="13" font-weight="bold" lengthAdjust="spacing" textLength="14" x="1265.5" y="797.0518">17</text><text fill="#000000" font-family="sans-serif" font-size="13" lengthAdjust="spacing" textLength="53" x="1283.5" y="797.0518">true/false</text><polygon fill="#181818" points="883.5,829.6055,873.5,833.6055,883.5,837.6055,879.5,833.6055" style="stroke:#181818;stroke-width:1.0;"/><line style="stroke:#181818;stroke-width:1.0;" x1="877.5" x2="1237.5" y1="833.6055" y2="833.6055"/><text fill="#000000" font-family="sans-serif" font-size="13" font-weight="bold" lengthAdjust="spacing" textLength="14" x="889.5" y="828.3428">18</text><text fill="#000000" font-family="sans-serif" font-size="13" lengthAdjust="spacing" textLength="53" x="907.5" y="828.3428">true/false</text><polygon fill="#181818" points="574.5,860.8965,564.5,864.8965,574.5,868.8965,570.5,864.8965" style="stroke:#181818;stroke-width:1.0;"/><line style="stroke:#181818;stroke-width:1.0;" x1="568.5" x2="861.5" y1="864.8965" y2="864.8965"/><text fill="#000000" font-family="sans-serif" font-size="13" font-weight="bold" lengthAdjust="spacing" textLength="14" x="580.5" y="859.6338">19</text><text fill="#000000" font-family="sans-serif" font-size="13" lengthAdjust="spacing" textLength="53" x="598.5" y="859.6338">true/false</text><polygon fill="#181818" points="54.5,892.1875,44.5,896.1875,54.5,900.1875,50.5,896.1875" style="stroke:#181818;stroke-width:1.0;"/><line style="stroke:#181818;stroke-width:1.0;" x1="48.5" x2="552.5" y1="896.1875" y2="896.1875"/><text fill="#000000" font-family="sans-serif" font-size="13" font-weight="bold" lengthAdjust="spacing" textLength="14" x="60.5" y="890.9248">20</text><text fill="#000000" font-family="sans-serif" font-size="13" lengthAdjust="spacing" textLength="140" x="78.5" y="890.9248">show operation success</text><!--SRC=[dLR9JYCn4BtxAqfS4X08YICQ8J5i0h490YSkZhkIjkZO6Tj9oDzFsRsaxUu4X2-GMfvhULLj-odLd1i-WvbMMkH6pn2SMI2pZMREnIUVugjR5mW6XUDgMhGDRCuplP9g2XDUM6ICBvnMYzaO3ME3N6O84wtTM7ynBfmsi7Vp-h07t0BzPOJXf91phXpidPvFKMNyxJQetsuJxRl4rIKwBWjxfPnPDtOdlJ0NcenqKQ09PXUZb_jl07iyKkWNd6ihAGs9DXWrWlMhz9MXt6CNq_BuK5s0v_lpKUo1FfODBZbTnPBWbyXYY2NcKXGOWRodiW3JaQOrAlN1zkdltIiMn07CTbZL9fUZfzYAXxPSEWsdS2-j-rDvaUGiU7hXDzw9QzUlFx07FfzNNQqD7ywVdwzU4lDGr3hNFXt56jITy4frwvuAdtdMooLt6FZEe3hq0uxEYBoK4RUV5gWit5evLS2XQb-GgRBJ81MKlDvWDCWqAcm0hKEmHuJkBpcbgVstGEiiPDnn61gSe44by10ojCB8kPDQ7GBTCD5cnWluKB76eSYL5AI9nDd2yF8_eQtRP-q01iAWZonCNLj1juDUel4nGtBgyGSzauvQ1CCxlkJNN_jm37vMoqeCRAiMRNSIC9PMeIw2pVMgSgAQPh3Yqldwsa07q0fBz0WWmwZ4CNheODt2dJ0HI4-RQ8CT7118MRDjhYUxGejHJm9is5yju25M3DxVOK_MKtINn9H7n0opaNxGcPoiX_lzSPLBCgtDpqx3XH84VdbkqDLhZ0QJUkht0RYSEn0qFcEi1ei8HSfkUtvs0hj-5wFILAXDebHYxNBw5UQnulhle4kyaa84ksmMgY_1hn1RlAfQ2nskH3CLI5McqimLxP5g8cWzHDiiD8B1LYOdB2YqdiCreLrHzTOR9D_R7Eao5OQOPw6rLDGg71y9DmYPjFHTu-DmUv9Aiu5FulcjB_4Oef3YawGmNZZwiczB8Kg0zTIhxdlfN95rf0CNXvkkxPwntiR7dpEwmlc1nU9xrEH36ECdiAqKAjnjosWdQXDrydY1q_uGqpTEP9LY46od29kDrujV1zbMRZBk15cIQrlcVM0zCTB38l3DFUAg8aBTgorH-gT8fF4GlV7vj_jn-GpV4cG7goV2kjCjDBPZwMmpwwuAJM-Zy680kn02hUr-lXbh1UiVJFy1]--></g></svg>