<?xml version="1.0" encoding="us-ascii" standalone="no"?><svg xmlns="http://www.w3.org/2000/svg" xmlns:xlink="http://www.w3.org/1999/xlink" contentStyleType="text/css" height="858px" preserveAspectRatio="none" style="width:1811px;height:858px;background:#FFFFFF;" version="1.1" viewBox="0 0 1811 858" width="1811px" zoomAndPan="magnify"><defs/><g><rect fill="#FFFFFF" height="693.5586" style="stroke:#181818;stroke-width:1.0;" width="10" x="121" y="90.5332"/><rect fill="#FFFFFF" height="31.291" style="stroke:#181818;stroke-width:1.0;" width="10" x="439" y="191.7363"/><rect fill="#FFFFFF" height="31.291" style="stroke:#181818;stroke-width:1.0;" width="10" x="546" y="254.3184"/><rect fill="#FFFFFF" height="112.2031" style="stroke:#181818;stroke-width:1.0;" width="10" x="664" y="316.9004"/><rect fill="#FFFFFF" height="285.4063" style="stroke:#181818;stroke-width:1.0;" width="10" x="1413.5" y="460.3945"/><rect fill="#FFFFFF" height="36.291" style="stroke:#181818;stroke-width:1.0;" width="10" x="1418.5" y="604.5977"/><rect fill="#FFFFFF" height="30" style="stroke:#181818;stroke-width:1.0;" width="10" x="1605.5" y="535.3066"/><rect fill="#FFFFFF" height="30" style="stroke:#181818;stroke-width:1.0;" width="10" x="1757" y="684.5098"/><rect fill="none" height="648.2676" style="stroke:#000000;stroke-width:1.5;" width="1753.5" x="51.5" y="105.5332"/><line style="stroke:#181818;stroke-width:0.5;stroke-dasharray:5.0,5.0;" x1="125.5" x2="125.5" y1="156.6348" y2="802.0918"/><line style="stroke:#181818;stroke-width:0.5;stroke-dasharray:5.0,5.0;" x1="292.5" x2="292.5" y1="57.2422" y2="802.0918"/><line style="stroke:#181818;stroke-width:0.5;stroke-dasharray:5.0,5.0;" x1="443.5" x2="443.5" y1="57.2422" y2="802.0918"/><line style="stroke:#181818;stroke-width:0.5;stroke-dasharray:5.0,5.0;" x1="550.5" x2="550.5" y1="57.2422" y2="802.0918"/><line style="stroke:#181818;stroke-width:0.5;stroke-dasharray:5.0,5.0;" x1="668.5" x2="668.5" y1="57.2422" y2="802.0918"/><line style="stroke:#181818;stroke-width:0.5;stroke-dasharray:5.0,5.0;" x1="804.5" x2="804.5" y1="57.2422" y2="802.0918"/><line style="stroke:#181818;stroke-width:0.5;stroke-dasharray:5.0,5.0;" x1="959.5" x2="959.5" y1="57.2422" y2="802.0918"/><line style="stroke:#181818;stroke-width:0.5;stroke-dasharray:5.0,5.0;" x1="1104.5" x2="1104.5" y1="57.2422" y2="802.0918"/><line style="stroke:#181818;stroke-width:0.5;stroke-dasharray:5.0,5.0;" x1="1195.5" x2="1195.5" y1="57.2422" y2="802.0918"/><line style="stroke:#181818;stroke-width:0.5;stroke-dasharray:5.0,5.0;" x1="1267.5" x2="1267.5" y1="649.4082" y2="802.0918"/><line style="stroke:#181818;stroke-width:0.5;stroke-dasharray:5.0,5.0;" x1="1418" x2="1418" y1="57.2422" y2="802.0918"/><line style="stroke:#181818;stroke-width:0.5;stroke-dasharray:5.0,5.0;" x1="1610" x2="1610" y1="356.7109" y2="802.0918"/><line style="stroke:#181818;stroke-width:0.5;stroke-dasharray:5.0,5.0;" x1="1706" x2="1706" y1="57.2422" y2="802.0918"/><line style="stroke:#181818;stroke-width:0.5;stroke-dasharray:5.0,5.0;" x1="1762" x2="1762" y1="500.2051" y2="802.0918"/><rect fill="#E3E3E3" height="32.6211" rx="2.5" ry="2.5" style="stroke:#181818;stroke-width:0.5;" width="129" x="61.5" y="801.0918"/><text fill="#000000" font-family="sans-serif" font-size="14" lengthAdjust="spacing" textLength="115" x="68.5" y="823.1992">:AgendaController</text><rect fill="#E3E3E3" height="32.6211" rx="2.5" ry="2.5" style="stroke:#181818;stroke-width:0.5;" width="185" x="200.5" y="23.6211"/><text fill="#000000" font-family="sans-serif" font-size="14" lengthAdjust="spacing" textLength="171" x="207.5" y="45.7285">:ViewDetailsEntryController</text><rect fill="#E3E3E3" height="32.6211" rx="2.5" ry="2.5" style="stroke:#181818;stroke-width:0.5;" width="185" x="200.5" y="801.0918"/><text fill="#000000" font-family="sans-serif" font-size="14" lengthAdjust="spacing" textLength="171" x="207.5" y="823.1992">:ViewDetailsEntryController</text><rect fill="#E3E3E3" height="32.6211" rx="2.5" ry="2.5" style="stroke:#181818;stroke-width:0.5;" width="97" x="395.5" y="23.6211"/><text fill="#000000" font-family="sans-serif" font-size="14" lengthAdjust="spacing" textLength="83" x="402.5" y="45.7285">:Repositories</text><rect fill="#E3E3E3" height="32.6211" rx="2.5" ry="2.5" style="stroke:#181818;stroke-width:0.5;" width="97" x="395.5" y="801.0918"/><text fill="#000000" font-family="sans-serif" font-size="14" lengthAdjust="spacing" textLength="83" x="402.5" y="823.1992">:Repositories</text><rect fill="#E3E3E3" height="51.2422" rx="2.5" ry="2.5" style="stroke:#181818;stroke-width:0.5;" width="97" x="502.5" y="5"/><text fill="#000000" font-family="sans-serif" font-size="14" lengthAdjust="spacing" textLength="74" x="514" y="27.1074">repositories</text><text fill="#000000" font-family="sans-serif" font-size="14" lengthAdjust="spacing" textLength="83" x="509.5" y="45.7285">:Repositories</text><rect fill="#E3E3E3" height="51.2422" rx="2.5" ry="2.5" style="stroke:#181818;stroke-width:0.5;" width="97" x="502.5" y="801.0918"/><text fill="#000000" font-family="sans-serif" font-size="14" lengthAdjust="spacing" textLength="74" x="514" y="823.1992">repositories</text><text fill="#000000" font-family="sans-serif" font-size="14" lengthAdjust="spacing" textLength="83" x="509.5" y="841.8203">:Repositories</text><rect fill="#E3E3E3" height="51.2422" rx="2.5" ry="2.5" style="stroke:#181818;stroke-width:0.5;" width="119" x="609.5" y="5"/><text fill="#000000" font-family="sans-serif" font-size="14" lengthAdjust="spacing" textLength="100" x="619" y="27.1074">entryRepository</text><text fill="#000000" font-family="sans-serif" font-size="14" lengthAdjust="spacing" textLength="105" x="616.5" y="45.7285">:EntryRepository</text><rect fill="#E3E3E3" height="51.2422" rx="2.5" ry="2.5" style="stroke:#181818;stroke-width:0.5;" width="119" x="609.5" y="801.0918"/><text fill="#000000" font-family="sans-serif" font-size="14" lengthAdjust="spacing" textLength="100" x="619" y="823.1992">entryRepository</text><text fill="#000000" font-family="sans-serif" font-size="14" lengthAdjust="spacing" textLength="105" x="616.5" y="841.8203">:EntryRepository</text><rect fill="#E3E3E3" height="51.2422" rx="2.5" ry="2.5" style="stroke:#181818;stroke-width:0.5;" width="132" x="738.5" y="5"/><text fill="#000000" font-family="sans-serif" font-size="14" lengthAdjust="spacing" textLength="112" x="748.5" y="27.1074">vehicleRepository</text><text fill="#000000" font-family="sans-serif" font-size="14" lengthAdjust="spacing" textLength="118" x="745.5" y="45.7285">:VehicleRepository</text><rect fill="#E3E3E3" height="51.2422" rx="2.5" ry="2.5" style="stroke:#181818;stroke-width:0.5;" width="132" x="738.5" y="801.0918"/><text fill="#000000" font-family="sans-serif" font-size="14" lengthAdjust="spacing" textLength="112" x="748.5" y="823.1992">vehicleRepository</text><text fill="#000000" font-family="sans-serif" font-size="14" lengthAdjust="spacing" textLength="118" x="745.5" y="841.8203">:VehicleRepository</text><rect fill="#E3E3E3" height="32.6211" rx="2.5" ry="2.5" style="stroke:#181818;stroke-width:0.5;" width="158" x="880.5" y="23.6211"/><text fill="#000000" font-family="sans-serif" font-size="14" lengthAdjust="spacing" textLength="144" x="887.5" y="45.7285">agenda : List&lt;Vehicle&gt;</text><rect fill="#E3E3E3" height="32.6211" rx="2.5" ry="2.5" style="stroke:#181818;stroke-width:0.5;" width="158" x="880.5" y="801.0918"/><text fill="#000000" font-family="sans-serif" font-size="14" lengthAdjust="spacing" textLength="144" x="887.5" y="823.1992">agenda : List&lt;Vehicle&gt;</text><rect fill="#E3E3E3" height="32.6211" rx="2.5" ry="2.5" style="stroke:#181818;stroke-width:0.5;" width="112" x="1048.5" y="23.6211"/><text fill="#000000" font-family="sans-serif" font-size="14" lengthAdjust="spacing" textLength="98" x="1055.5" y="45.7285">:VehicleMapper</text><rect fill="#E3E3E3" height="32.6211" rx="2.5" ry="2.5" style="stroke:#181818;stroke-width:0.5;" width="112" x="1048.5" y="801.0918"/><text fill="#000000" font-family="sans-serif" font-size="14" lengthAdjust="spacing" textLength="98" x="1055.5" y="823.1992">:VehicleMapper</text><rect fill="#E3E3E3" height="32.6211" rx="2.5" ry="2.5" style="stroke:#181818;stroke-width:0.5;" width="51" x="1170.5" y="23.6211"/><text fill="#000000" font-family="sans-serif" font-size="14" lengthAdjust="spacing" textLength="37" x="1177.5" y="45.7285">:Entry</text><rect fill="#E3E3E3" height="32.6211" rx="2.5" ry="2.5" style="stroke:#181818;stroke-width:0.5;" width="51" x="1170.5" y="801.0918"/><text fill="#000000" font-family="sans-serif" font-size="14" lengthAdjust="spacing" textLength="37" x="1177.5" y="823.1992">:Entry</text><rect fill="#E3E3E3" height="32.6211" rx="2.5" ry="2.5" style="stroke:#181818;stroke-width:0.5;" width="73" x="1231.5" y="801.0918"/><text fill="#000000" font-family="sans-serif" font-size="14" lengthAdjust="spacing" textLength="59" x="1238.5" y="823.1992">:EntryDto</text><rect fill="#E3E3E3" height="32.6211" rx="2.5" ry="2.5" style="stroke:#181818;stroke-width:0.5;" width="99" x="1369" y="23.6211"/><text fill="#000000" font-family="sans-serif" font-size="14" lengthAdjust="spacing" textLength="85" x="1376" y="45.7285">:EntryMapper</text><rect fill="#E3E3E3" height="32.6211" rx="2.5" ry="2.5" style="stroke:#181818;stroke-width:0.5;" width="99" x="1369" y="801.0918"/><text fill="#000000" font-family="sans-serif" font-size="14" lengthAdjust="spacing" textLength="85" x="1376" y="823.1992">:EntryMapper</text><rect fill="#E3E3E3" height="32.6211" rx="2.5" ry="2.5" style="stroke:#181818;stroke-width:0.5;" width="145" x="1538" y="801.0918"/><text fill="#000000" font-family="sans-serif" font-size="14" lengthAdjust="spacing" textLength="131" x="1545" y="823.1992">agenda : List&lt;Entry&gt;</text><rect fill="#E3E3E3" height="32.6211" rx="2.5" ry="2.5" style="stroke:#181818;stroke-width:0.5;" width="26" x="1693" y="23.6211"/><text fill="#000000" font-family="sans-serif" font-size="14" lengthAdjust="spacing" textLength="12" x="1700" y="45.7285">UI</text><rect fill="#E3E3E3" height="32.6211" rx="2.5" ry="2.5" style="stroke:#181818;stroke-width:0.5;" width="26" x="1693" y="801.0918"/><text fill="#000000" font-family="sans-serif" font-size="14" lengthAdjust="spacing" textLength="12" x="1700" y="823.1992">UI</text><rect fill="#E3E3E3" height="32.6211" rx="2.5" ry="2.5" style="stroke:#181818;stroke-width:0.5;" width="66" x="1729" y="801.0918"/><text fill="#000000" font-family="sans-serif" font-size="14" lengthAdjust="spacing" textLength="52" x="1736" y="823.1992">ListDTO</text><rect fill="#FFFFFF" height="693.5586" style="stroke:#181818;stroke-width:1.0;" width="10" x="121" y="90.5332"/><rect fill="#FFFFFF" height="31.291" style="stroke:#181818;stroke-width:1.0;" width="10" x="439" y="191.7363"/><rect fill="#FFFFFF" height="31.291" style="stroke:#181818;stroke-width:1.0;" width="10" x="546" y="254.3184"/><rect fill="#FFFFFF" height="112.2031" style="stroke:#181818;stroke-width:1.0;" width="10" x="664" y="316.9004"/><rect fill="#FFFFFF" height="285.4063" style="stroke:#181818;stroke-width:1.0;" width="10" x="1413.5" y="460.3945"/><rect fill="#FFFFFF" height="36.291" style="stroke:#181818;stroke-width:1.0;" width="10" x="1418.5" y="604.5977"/><rect fill="#FFFFFF" height="30" style="stroke:#181818;stroke-width:1.0;" width="10" x="1605.5" y="535.3066"/><rect fill="#FFFFFF" height="30" style="stroke:#181818;stroke-width:1.0;" width="10" x="1757" y="684.5098"/><polygon fill="#181818" points="109,86.5332,119,90.5332,109,94.5332,113,90.5332" style="stroke:#181818;stroke-width:1.0;"/><line style="stroke:#181818;stroke-width:1.0;" x1="0" x2="115" y1="90.5332" y2="90.5332"/><text fill="#000000" font-family="sans-serif" font-size="13" font-weight="bold" lengthAdjust="spacing" textLength="7" x="7" y="85.2705">3</text><text fill="#000000" font-family="sans-serif" font-size="13" lengthAdjust="spacing" textLength="91" x="18" y="85.2705">getAgendaList()</text><path d="M51.5,105.5332 L242.5,105.5332 L242.5,114.8242 L232.5,124.8242 L51.5,124.8242 L51.5,105.5332 " fill="#EEEEEE" style="stroke:#000000;stroke-width:1.5;"/><rect fill="none" height="648.2676" style="stroke:#000000;stroke-width:1.5;" width="1753.5" x="51.5" y="105.5332"/><text fill="#000000" font-family="sans-serif" font-size="13" font-weight="bold" lengthAdjust="spacing" textLength="146" x="66.5" y="120.5615">Get Agenda Entry's List</text><polygon fill="#181818" points="206.5,144.1152,196.5,148.1152,206.5,152.1152,202.5,148.1152" style="stroke:#181818;stroke-width:1.0;"/><line style="stroke:#181818;stroke-width:1.0;" x1="200.5" x2="1705" y1="148.1152" y2="148.1152"/><text fill="#000000" font-family="sans-serif" font-size="13" font-weight="bold" lengthAdjust="spacing" textLength="18" x="212.5" y="142.8525">3.1</text><text fill="#000000" font-family="sans-serif" font-size="13" lengthAdjust="spacing" textLength="36" x="234.5" y="142.8525">create</text><rect fill="#E3E3E3" height="32.6211" rx="2.5" ry="2.5" style="stroke:#181818;stroke-width:0.5;" width="129" x="61.5" y="124.8242"/><text fill="#000000" font-family="sans-serif" font-size="14" lengthAdjust="spacing" textLength="115" x="68.5" y="146.9316">:AgendaController</text><polygon fill="#181818" points="427,187.7363,437,191.7363,427,195.7363,431,191.7363" style="stroke:#181818;stroke-width:1.0;"/><line style="stroke:#181818;stroke-width:1.0;" x1="131" x2="433" y1="191.7363" y2="191.7363"/><text fill="#000000" font-family="sans-serif" font-size="13" font-weight="bold" lengthAdjust="spacing" textLength="18" x="138" y="186.4736">3.2</text><text fill="#000000" font-family="sans-serif" font-size="13" lengthAdjust="spacing" textLength="75" x="160" y="186.4736">getInstance()</text><polygon fill="#181818" points="142,219.0273,132,223.0273,142,227.0273,138,223.0273" style="stroke:#181818;stroke-width:1.0;"/><line style="stroke:#181818;stroke-width:1.0;stroke-dasharray:2.0,2.0;" x1="136" x2="443" y1="223.0273" y2="223.0273"/><text fill="#000000" font-family="sans-serif" font-size="13" font-weight="bold" lengthAdjust="spacing" textLength="18" x="148" y="217.7646">3.3</text><text fill="#000000" font-family="sans-serif" font-size="13" lengthAdjust="spacing" textLength="67" x="170" y="217.7646">repositories</text><polygon fill="#181818" points="534,250.3184,544,254.3184,534,258.3184,538,254.3184" style="stroke:#181818;stroke-width:1.0;"/><line style="stroke:#181818;stroke-width:1.0;" x1="131" x2="540" y1="254.3184" y2="254.3184"/><text fill="#000000" font-family="sans-serif" font-size="13" font-weight="bold" lengthAdjust="spacing" textLength="18" x="138" y="249.0557">3.4</text><text fill="#000000" font-family="sans-serif" font-size="13" lengthAdjust="spacing" textLength="119" x="160" y="249.0557">getEntryRepository()</text><polygon fill="#181818" points="142,281.6094,132,285.6094,142,289.6094,138,285.6094" style="stroke:#181818;stroke-width:1.0;"/><line style="stroke:#181818;stroke-width:1.0;" x1="136" x2="550" y1="285.6094" y2="285.6094"/><text fill="#000000" font-family="sans-serif" font-size="13" font-weight="bold" lengthAdjust="spacing" textLength="18" x="148" y="280.3467">3.5</text><text fill="#000000" font-family="sans-serif" font-size="13" lengthAdjust="spacing" textLength="91" x="170" y="280.3467">entryRepository</text><polygon fill="#181818" points="652,312.9004,662,316.9004,652,320.9004,656,316.9004" style="stroke:#181818;stroke-width:1.0;"/><line style="stroke:#181818;stroke-width:1.0;" x1="131" x2="658" y1="316.9004" y2="316.9004"/><text fill="#000000" font-family="sans-serif" font-size="13" font-weight="bold" lengthAdjust="spacing" textLength="18" x="138" y="311.6377">3.6</text><text fill="#000000" font-family="sans-serif" font-size="13" lengthAdjust="spacing" textLength="91" x="160" y="311.6377">getAgendaList()</text><polygon fill="#181818" points="1526,344.1914,1536,348.1914,1526,352.1914,1530,348.1914" style="stroke:#181818;stroke-width:1.0;"/><line style="stroke:#181818;stroke-width:1.0;" x1="674" x2="1532" y1="348.1914" y2="348.1914"/><text fill="#000000" font-family="sans-serif" font-size="13" font-weight="bold" lengthAdjust="spacing" textLength="18" x="681" y="342.9287">3.7</text><text fill="#000000" font-family="sans-serif" font-size="13" lengthAdjust="spacing" textLength="36" x="703" y="342.9287">create</text><rect fill="#E3E3E3" height="32.6211" rx="2.5" ry="2.5" style="stroke:#181818;stroke-width:0.5;" width="145" x="1538" y="324.9004"/><text fill="#000000" font-family="sans-serif" font-size="14" lengthAdjust="spacing" textLength="131" x="1545" y="347.0078">agenda : List&lt;Entry&gt;</text><path d="M1523,373.5215 L1523,400.5215 L1697,400.5215 L1697,383.5215 L1687,373.5215 L1523,373.5215 " fill="#FAFAFA" style="stroke:#181818;stroke-width:0.5;"/><path d="M1687,373.5215 L1687,383.5215 L1697,383.5215 L1687,373.5215 " fill="#FAFAFA" style="stroke:#181818;stroke-width:0.5;"/><text fill="#000000" font-family="sans-serif" font-size="13" lengthAdjust="spacing" textLength="153" x="1529" y="392.5498">loop to populate is omitted</text><polygon fill="#181818" points="142,425.1035,132,429.1035,142,433.1035,138,429.1035" style="stroke:#181818;stroke-width:1.0;"/><line style="stroke:#181818;stroke-width:1.0;" x1="136" x2="668" y1="429.1035" y2="429.1035"/><text fill="#000000" font-family="sans-serif" font-size="13" font-weight="bold" lengthAdjust="spacing" textLength="18" x="148" y="423.8408">3.8</text><text fill="#000000" font-family="sans-serif" font-size="13" lengthAdjust="spacing" textLength="44" x="170" y="423.8408">Agenda</text><polygon fill="#181818" points="1401.5,456.3945,1411.5,460.3945,1401.5,464.3945,1405.5,460.3945" style="stroke:#181818;stroke-width:1.0;"/><line style="stroke:#181818;stroke-width:1.0;" x1="131" x2="1407.5" y1="460.3945" y2="460.3945"/><text fill="#000000" font-family="sans-serif" font-size="13" font-weight="bold" lengthAdjust="spacing" textLength="18" x="138" y="455.1318">3.9</text><text fill="#000000" font-family="sans-serif" font-size="13" lengthAdjust="spacing" textLength="83" x="160" y="455.1318">toDto(Agenda)</text><polygon fill="#181818" points="1717,487.6855,1727,491.6855,1717,495.6855,1721,491.6855" style="stroke:#181818;stroke-width:1.0;"/><line style="stroke:#181818;stroke-width:1.0;" x1="1423.5" x2="1723" y1="491.6855" y2="491.6855"/><text fill="#000000" font-family="sans-serif" font-size="13" font-weight="bold" lengthAdjust="spacing" textLength="25" x="1430.5" y="486.4229">3.10</text><text fill="#000000" font-family="sans-serif" font-size="13" lengthAdjust="spacing" textLength="44" x="1459.5" y="486.4229">create()</text><rect fill="#E3E3E3" height="32.6211" rx="2.5" ry="2.5" style="stroke:#181818;stroke-width:0.5;" width="66" x="1729" y="468.3945"/><text fill="#000000" font-family="sans-serif" font-size="14" lengthAdjust="spacing" textLength="52" x="1736" y="490.502">ListDTO</text><polygon fill="#181818" points="1593.5,531.3066,1603.5,535.3066,1593.5,539.3066,1597.5,535.3066" style="stroke:#181818;stroke-width:1.0;"/><line style="stroke:#181818;stroke-width:1.0;" x1="1423.5" x2="1599.5" y1="535.3066" y2="535.3066"/><text fill="#000000" font-family="sans-serif" font-size="13" font-weight="bold" lengthAdjust="spacing" textLength="25" x="1430.5" y="530.0439">3.11</text><text fill="#000000" font-family="sans-serif" font-size="13" lengthAdjust="spacing" textLength="74" x="1459.5" y="530.0439">entry = get(i)</text><line style="stroke:#181818;stroke-width:1.0;" x1="1423.5" x2="1470.5" y1="591.5977" y2="591.5977"/><line style="stroke:#181818;stroke-width:1.0;" x1="1470.5" x2="1470.5" y1="591.5977" y2="604.5977"/><line style="stroke:#181818;stroke-width:1.0;" x1="1429.5" x2="1470.5" y1="604.5977" y2="604.5977"/><polygon fill="#181818" points="1439.5,600.5977,1429.5,604.5977,1439.5,608.5977,1435.5,604.5977" style="stroke:#181818;stroke-width:1.0;"/><text fill="#000000" font-family="sans-serif" font-size="13" font-weight="bold" lengthAdjust="spacing" textLength="25" x="1435.5" y="586.335">3.12</text><text fill="#000000" font-family="sans-serif" font-size="13" lengthAdjust="spacing" textLength="139" x="1464.5" y="586.335">entryDto = toDTO(entry)</text><polygon fill="#181818" points="1315.5,636.8887,1305.5,640.8887,1315.5,644.8887,1311.5,640.8887" style="stroke:#181818;stroke-width:1.0;"/><line style="stroke:#181818;stroke-width:1.0;" x1="1309.5" x2="1412.5" y1="640.8887" y2="640.8887"/><text fill="#000000" font-family="sans-serif" font-size="13" font-weight="bold" lengthAdjust="spacing" textLength="25" x="1321.5" y="635.626">3.13</text><text fill="#000000" font-family="sans-serif" font-size="13" lengthAdjust="spacing" textLength="56" x="1350.5" y="635.626">create(...)</text><rect fill="#E3E3E3" height="32.6211" rx="2.5" ry="2.5" style="stroke:#181818;stroke-width:0.5;" width="73" x="1231.5" y="617.5977"/><text fill="#000000" font-family="sans-serif" font-size="14" lengthAdjust="spacing" textLength="59" x="1238.5" y="639.7051">:EntryDto</text><polygon fill="#181818" points="1745,680.5098,1755,684.5098,1745,688.5098,1749,684.5098" style="stroke:#181818;stroke-width:1.0;"/><line style="stroke:#181818;stroke-width:1.0;" x1="1423.5" x2="1751" y1="684.5098" y2="684.5098"/><text fill="#000000" font-family="sans-serif" font-size="13" font-weight="bold" lengthAdjust="spacing" textLength="25" x="1430.5" y="679.2471">3.14</text><text fill="#000000" font-family="sans-serif" font-size="13" lengthAdjust="spacing" textLength="78" x="1459.5" y="679.2471">add(entryDto)</text><polygon fill="#181818" points="142,741.8008,132,745.8008,142,749.8008,138,745.8008" style="stroke:#181818;stroke-width:1.0;"/><line style="stroke:#181818;stroke-width:1.0;" x1="136" x2="1417.5" y1="745.8008" y2="745.8008"/><text fill="#000000" font-family="sans-serif" font-size="13" font-weight="bold" lengthAdjust="spacing" textLength="25" x="148" y="740.5381">3.15</text><text fill="#000000" font-family="sans-serif" font-size="13" lengthAdjust="spacing" textLength="62" x="177" y="740.5381">agendaDto</text><polygon fill="#181818" points="11,780.0918,1,784.0918,11,788.0918,7,784.0918" style="stroke:#181818;stroke-width:1.0;"/><line style="stroke:#181818;stroke-width:1.0;stroke-dasharray:2.0,2.0;" x1="5" x2="125" y1="784.0918" y2="784.0918"/><text fill="#000000" font-family="sans-serif" font-size="13" font-weight="bold" lengthAdjust="spacing" textLength="7" x="17" y="778.8291">4</text><text fill="#000000" font-family="sans-serif" font-size="13" lengthAdjust="spacing" textLength="62" x="28" y="778.8291">agendaDto</text><!--SRC=[pLPBR-8m4BxxLrYzb5O2QHydrAt45hJgYWe4R4zxSPDfi1hio3Pq-VSxjXD8J5IjuXpMbqYJcM- -UThwZOk2ARQZEobaibLo1zIeFH1z-bEmv8rbi3R77AY2n32HvNK5lMMfVESYewyirq08snifzhiNK8HSRtaAz5LAyoB_44BGnF245qmOUZMUP21IzY25KJBFGLrHfkd3PZKFz9uvl4_1C9xh6UeUMom-1oOhAAJcHYeEsYcT1CSrjn4WnwQ9gbdy5fS0o_baqxG0o-MCYqQpfiJP1R8cn06sFCcX0V8SoXpCXRG9n5mgwPZEkJPtfVAzixIIDUHOEaZ3n7gz9rOKPIuhnQV9SZbR1Uek5AUs-FwpxT_KIFTxkbcq_QxvQSDlnk0ipX7Ksef-8OGExrtTKJi3unl9gWrk6egZJuGbXX-O0TzO54-cvBwWFy1GR-TBT5tw8KwdEhyUAq-tj-WhKO1GJPN6SPpGegNTFDL7eN644a2YjCCvHTFMpvqGxMbZEopZ7jFwP7HoaSB7j3k1LfcsS-bJ6qnQR8RTm7U2S9JE3HhiYTWKTkTLfIn8LCiCHIKkt7WT2nooHEAMtR_DuGT7IEGe3xWUB1o2vL8Mr4XQo6AVsm2ufdB7ZTsN_N4lcy6dERO7Bb8Sqmv-5oCt8t613pp3o1ueztida99FMM-yIsebnzxi0RCQIlhDTlw0HmRhxet8Ylgx9owqKo6Xl8mnFgpfPZ5mWl-YfBwSvtgEHgERsDprscn8ZQNfe4fX3wrXNqCzT8U5YGont47-eON1zPLupmj1tRVs0Flg17V3eNUDlclEQq3kRKR-0W00]--></g></svg>