<?xml version="1.0" encoding="us-ascii" standalone="no"?><svg xmlns="http://www.w3.org/2000/svg" xmlns:xlink="http://www.w3.org/1999/xlink" contentStyleType="text/css" height="1855px" preserveAspectRatio="none" style="width:2778px;height:1855px;background:#FFFFFF;" version="1.1" viewBox="0 0 2778 1855" width="2778px" zoomAndPan="magnify"><defs/><g><rect fill="#FFFFFF" height="1668.2891" style="stroke:#181818;stroke-width:1.0;" width="10" x="33.5" y="93.6211"/><rect fill="#FFFFFF" height="185.7461" style="stroke:#181818;stroke-width:1.0;" width="10" x="342.5" y="116.9121"/><rect fill="#FFFFFF" height="31.291" style="stroke:#181818;stroke-width:1.0;" width="10" x="342.5" y="333.9492"/><rect fill="#FFFFFF" height="969.8867" style="stroke:#181818;stroke-width:1.0;" width="10" x="486" y="375.2402"/><rect fill="#FFFFFF" height="360.2012" style="stroke:#181818;stroke-width:1.0;" width="10" x="486" y="1402.709"/><rect fill="#FFFFFF" height="79.543" style="stroke:#181818;stroke-width:1.0;" width="10" x="628" y="191.8242"/><rect fill="#FFFFFF" height="861.3535" style="stroke:#181818;stroke-width:1.0;" width="10" x="795" y="452.4824"/><rect fill="#FFFFFF" height="328.9102" style="stroke:#181818;stroke-width:1.0;" width="10" x="795" y="1434"/><rect fill="#FFFFFF" height="31.291" style="stroke:#181818;stroke-width:1.0;" width="10" x="946" y="483.7734"/><rect fill="#FFFFFF" height="31.291" style="stroke:#181818;stroke-width:1.0;" width="10" x="1053" y="546.3555"/><rect fill="#FFFFFF" height="31.291" style="stroke:#181818;stroke-width:1.0;" width="10" x="1053" y="608.9375"/><rect fill="#FFFFFF" height="92.582" style="stroke:#181818;stroke-width:1.0;" width="10" x="1171" y="815.0137"/><rect fill="#FFFFFF" height="235.0371" style="stroke:#181818;stroke-width:1.0;" width="10" x="1171" y="1527.873"/><rect fill="#FFFFFF" height="112.2031" style="stroke:#181818;stroke-width:1.0;" width="10" x="1306.5" y="671.5195"/><rect fill="#FFFFFF" height="30" style="stroke:#181818;stroke-width:1.0;" width="10" x="1653.5" y="1176.9629"/><rect fill="#FFFFFF" height="30" style="stroke:#181818;stroke-width:1.0;" width="10" x="1843.5" y="1040.0898"/><rect fill="#FFFFFF" height="273.0762" style="stroke:#181818;stroke-width:1.0;" width="10" x="1988.5" y="965.1777"/><rect fill="#FFFFFF" height="36.291" style="stroke:#181818;stroke-width:1.0;" width="10" x="1993.5" y="1109.3809"/><rect fill="#FFFFFF" height="31.291" style="stroke:#181818;stroke-width:1.0;" width="10" x="1988.5" y="1465.291"/><rect fill="#FFFFFF" height="30" style="stroke:#181818;stroke-width:1.0;" width="10" x="2195.5" y="846.3047"/><rect fill="#FFFFFF" height="31.291" style="stroke:#181818;stroke-width:1.0;" width="10" x="2195.5" y="1621.7461"/><rect fill="#FFFFFF" height="31.291" style="stroke:#181818;stroke-width:1.0;" width="10" x="2363.5" y="1559.1641"/><rect fill="none" height="323.6582" style="stroke:#000000;stroke-width:1.5;" width="1508" x="697.5" y="922.5957"/><rect fill="none" height="394.7832" style="stroke:#000000;stroke-width:1.5;" width="2418" x="10" y="1360.127"/><line style="stroke:#181818;stroke-width:0.5;stroke-dasharray:5.0,5.0;" x1="38" x2="38" y1="83.6211" y2="1771.9102"/><line style="stroke:#181818;stroke-width:0.5;stroke-dasharray:5.0,5.0;" x1="347" x2="347" y1="83.6211" y2="1771.9102"/><line style="stroke:#181818;stroke-width:0.5;stroke-dasharray:5.0,5.0;" x1="490.5" x2="490.5" y1="373.7598" y2="1771.9102"/><line style="stroke:#181818;stroke-width:0.5;stroke-dasharray:5.0,5.0;" x1="632.5" x2="632.5" y1="156.7227" y2="1771.9102"/><line style="stroke:#181818;stroke-width:0.5;stroke-dasharray:5.0,5.0;" x1="799.5" x2="799.5" y1="417.3809" y2="1771.9102"/><line style="stroke:#181818;stroke-width:0.5;stroke-dasharray:5.0,5.0;" x1="950.5" x2="950.5" y1="83.6211" y2="1771.9102"/><line style="stroke:#181818;stroke-width:0.5;stroke-dasharray:5.0,5.0;" x1="1057.5" x2="1057.5" y1="83.6211" y2="1771.9102"/><line style="stroke:#181818;stroke-width:0.5;stroke-dasharray:5.0,5.0;" x1="1175.5" x2="1175.5" y1="83.6211" y2="1771.9102"/><line style="stroke:#181818;stroke-width:0.5;stroke-dasharray:5.0,5.0;" x1="1311.5" x2="1311.5" y1="83.6211" y2="1771.9102"/><line style="stroke:#181818;stroke-width:0.5;stroke-dasharray:5.0,5.0;" x1="1419.5" x2="1419.5" y1="83.6211" y2="1771.9102"/><line style="stroke:#181818;stroke-width:0.5;stroke-dasharray:5.0,5.0;" x1="1504.5" x2="1504.5" y1="83.6211" y2="1771.9102"/><line style="stroke:#181818;stroke-width:0.5;stroke-dasharray:5.0,5.0;" x1="1658.5" x2="1658.5" y1="1004.9883" y2="1771.9102"/><line style="stroke:#181818;stroke-width:0.5;stroke-dasharray:5.0,5.0;" x1="1848.5" x2="1848.5" y1="711.3301" y2="1771.9102"/><line style="stroke:#181818;stroke-width:0.5;stroke-dasharray:5.0,5.0;" x1="1993.5" x2="1993.5" y1="83.6211" y2="1771.9102"/><line style="stroke:#181818;stroke-width:0.5;stroke-dasharray:5.0,5.0;" x1="2200" x2="2200" y1="83.6211" y2="1771.9102"/><line style="stroke:#181818;stroke-width:0.5;stroke-dasharray:5.0,5.0;" x1="2272" x2="2272" y1="83.6211" y2="1771.9102"/><line style="stroke:#181818;stroke-width:0.5;stroke-dasharray:5.0,5.0;" x1="2368" x2="2368" y1="83.6211" y2="1771.9102"/><line style="stroke:#181818;stroke-width:0.5;stroke-dasharray:5.0,5.0;" x1="2522" x2="2522" y1="83.6211" y2="1771.9102"/><line style="stroke:#181818;stroke-width:0.5;stroke-dasharray:5.0,5.0;" x1="2699" x2="2699" y1="83.6211" y2="1771.9102"/><text fill="#000000" font-family="sans-serif" font-size="14" lengthAdjust="spacing" textLength="31" x="20" y="80.1074">GSM</text><ellipse cx="38.5" cy="13.5" fill="#E3E3E3" rx="8" ry="8" style="stroke:#181818;stroke-width:0.5;"/><path d="M38.5,21.5 L38.5,48.5 M25.5,29.5 L51.5,29.5 M38.5,48.5 L25.5,63.5 M38.5,48.5 L51.5,63.5 " fill="none" style="stroke:#181818;stroke-width:0.5;"/><text fill="#000000" font-family="sans-serif" font-size="14" lengthAdjust="spacing" textLength="31" x="20" y="1786.0176">GSM</text><ellipse cx="38.5" cy="1798.0313" fill="#E3E3E3" rx="8" ry="8" style="stroke:#181818;stroke-width:0.5;"/><path d="M38.5,1806.0313 L38.5,1833.0313 M25.5,1814.0313 L51.5,1814.0313 M38.5,1833.0313 L25.5,1848.0313 M38.5,1833.0313 L51.5,1848.0313 " fill="none" style="stroke:#181818;stroke-width:0.5;"/><rect fill="#E3E3E3" height="32.6211" rx="2.5" ry="2.5" style="stroke:#181818;stroke-width:0.5;" width="79" x="308" y="50"/><text fill="#000000" font-family="sans-serif" font-size="14" lengthAdjust="spacing" textLength="65" x="315" y="72.1074">:AgendaUI</text><rect fill="#E3E3E3" height="32.6211" rx="2.5" ry="2.5" style="stroke:#181818;stroke-width:0.5;" width="79" x="308" y="1770.9102"/><text fill="#000000" font-family="sans-serif" font-size="14" lengthAdjust="spacing" textLength="65" x="315" y="1793.0176">:AgendaUI</text><rect fill="#E3E3E3" height="32.6211" rx="2.5" ry="2.5" style="stroke:#181818;stroke-width:0.5;" width="135" x="423.5" y="1770.9102"/><text fill="#000000" font-family="sans-serif" font-size="14" lengthAdjust="spacing" textLength="121" x="430.5" y="1793.0176">:ViewDetailsEntryUI</text><rect fill="#E3E3E3" height="32.6211" rx="2.5" ry="2.5" style="stroke:#181818;stroke-width:0.5;" width="129" x="568.5" y="1770.9102"/><text fill="#000000" font-family="sans-serif" font-size="14" lengthAdjust="spacing" textLength="115" x="575.5" y="1793.0176">:AgendaController</text><rect fill="#E3E3E3" height="32.6211" rx="2.5" ry="2.5" style="stroke:#181818;stroke-width:0.5;" width="185" x="707.5" y="1770.9102"/><text fill="#000000" font-family="sans-serif" font-size="14" lengthAdjust="spacing" textLength="171" x="714.5" y="1793.0176">:ViewDetailsEntryController</text><rect fill="#E3E3E3" height="32.6211" rx="2.5" ry="2.5" style="stroke:#181818;stroke-width:0.5;" width="97" x="902.5" y="50"/><text fill="#000000" font-family="sans-serif" font-size="14" lengthAdjust="spacing" textLength="83" x="909.5" y="72.1074">:Repositories</text><rect fill="#E3E3E3" height="32.6211" rx="2.5" ry="2.5" style="stroke:#181818;stroke-width:0.5;" width="97" x="902.5" y="1770.9102"/><text fill="#000000" font-family="sans-serif" font-size="14" lengthAdjust="spacing" textLength="83" x="909.5" y="1793.0176">:Repositories</text><rect fill="#E3E3E3" height="51.2422" rx="2.5" ry="2.5" style="stroke:#181818;stroke-width:0.5;" width="97" x="1009.5" y="31.3789"/><text fill="#000000" font-family="sans-serif" font-size="14" lengthAdjust="spacing" textLength="74" x="1021" y="53.4863">repositories</text><text fill="#000000" font-family="sans-serif" font-size="14" lengthAdjust="spacing" textLength="83" x="1016.5" y="72.1074">:Repositories</text><rect fill="#E3E3E3" height="51.2422" rx="2.5" ry="2.5" style="stroke:#181818;stroke-width:0.5;" width="97" x="1009.5" y="1770.9102"/><text fill="#000000" font-family="sans-serif" font-size="14" lengthAdjust="spacing" textLength="74" x="1021" y="1793.0176">repositories</text><text fill="#000000" font-family="sans-serif" font-size="14" lengthAdjust="spacing" textLength="83" x="1016.5" y="1811.6387">:Repositories</text><rect fill="#E3E3E3" height="51.2422" rx="2.5" ry="2.5" style="stroke:#181818;stroke-width:0.5;" width="119" x="1116.5" y="31.3789"/><text fill="#000000" font-family="sans-serif" font-size="14" lengthAdjust="spacing" textLength="100" x="1126" y="53.4863">entryRepository</text><text fill="#000000" font-family="sans-serif" font-size="14" lengthAdjust="spacing" textLength="105" x="1123.5" y="72.1074">:EntryRepository</text><rect fill="#E3E3E3" height="51.2422" rx="2.5" ry="2.5" style="stroke:#181818;stroke-width:0.5;" width="119" x="1116.5" y="1770.9102"/><text fill="#000000" font-family="sans-serif" font-size="14" lengthAdjust="spacing" textLength="100" x="1126" y="1793.0176">entryRepository</text><text fill="#000000" font-family="sans-serif" font-size="14" lengthAdjust="spacing" textLength="105" x="1123.5" y="1811.6387">:EntryRepository</text><rect fill="#E3E3E3" height="51.2422" rx="2.5" ry="2.5" style="stroke:#181818;stroke-width:0.5;" width="132" x="1245.5" y="31.3789"/><text fill="#000000" font-family="sans-serif" font-size="14" lengthAdjust="spacing" textLength="112" x="1255.5" y="53.4863">vehicleRepository</text><text fill="#000000" font-family="sans-serif" font-size="14" lengthAdjust="spacing" textLength="118" x="1252.5" y="72.1074">:VehicleRepository</text><rect fill="#E3E3E3" height="51.2422" rx="2.5" ry="2.5" style="stroke:#181818;stroke-width:0.5;" width="132" x="1245.5" y="1770.9102"/><text fill="#000000" font-family="sans-serif" font-size="14" lengthAdjust="spacing" textLength="112" x="1255.5" y="1793.0176">vehicleRepository</text><text fill="#000000" font-family="sans-serif" font-size="14" lengthAdjust="spacing" textLength="118" x="1252.5" y="1811.6387">:VehicleRepository</text><rect fill="#E3E3E3" height="32.6211" rx="2.5" ry="2.5" style="stroke:#181818;stroke-width:0.5;" width="64" x="1387.5" y="50"/><text fill="#000000" font-family="sans-serif" font-size="14" lengthAdjust="spacing" textLength="50" x="1394.5" y="72.1074">:Vehicle</text><rect fill="#E3E3E3" height="32.6211" rx="2.5" ry="2.5" style="stroke:#181818;stroke-width:0.5;" width="64" x="1387.5" y="1770.9102"/><text fill="#000000" font-family="sans-serif" font-size="14" lengthAdjust="spacing" textLength="50" x="1394.5" y="1793.0176">:Vehicle</text><rect fill="#E3E3E3" height="32.6211" rx="2.5" ry="2.5" style="stroke:#181818;stroke-width:0.5;" width="86" x="1461.5" y="50"/><text fill="#000000" font-family="sans-serif" font-size="14" lengthAdjust="spacing" textLength="72" x="1468.5" y="72.1074">:VehicleDto</text><rect fill="#E3E3E3" height="32.6211" rx="2.5" ry="2.5" style="stroke:#181818;stroke-width:0.5;" width="86" x="1461.5" y="1770.9102"/><text fill="#000000" font-family="sans-serif" font-size="14" lengthAdjust="spacing" textLength="72" x="1468.5" y="1793.0176">:VehicleDto</text><rect fill="#E3E3E3" height="32.6211" rx="2.5" ry="2.5" style="stroke:#181818;stroke-width:0.5;" width="202" x="1557.5" y="1770.9102"/><text fill="#000000" font-family="sans-serif" font-size="14" lengthAdjust="spacing" textLength="188" x="1564.5" y="1793.0176">agendaDto : List&lt;VehicleDto&gt;</text><rect fill="#E3E3E3" height="32.6211" rx="2.5" ry="2.5" style="stroke:#181818;stroke-width:0.5;" width="158" x="1769.5" y="1770.9102"/><text fill="#000000" font-family="sans-serif" font-size="14" lengthAdjust="spacing" textLength="144" x="1776.5" y="1793.0176">agenda : List&lt;Vehicle&gt;</text><rect fill="#E3E3E3" height="32.6211" rx="2.5" ry="2.5" style="stroke:#181818;stroke-width:0.5;" width="112" x="1937.5" y="50"/><text fill="#000000" font-family="sans-serif" font-size="14" lengthAdjust="spacing" textLength="98" x="1944.5" y="72.1074">:VehicleMapper</text><rect fill="#E3E3E3" height="32.6211" rx="2.5" ry="2.5" style="stroke:#181818;stroke-width:0.5;" width="112" x="1937.5" y="1770.9102"/><text fill="#000000" font-family="sans-serif" font-size="14" lengthAdjust="spacing" textLength="98" x="1944.5" y="1793.0176">:VehicleMapper</text><rect fill="#E3E3E3" height="32.6211" rx="2.5" ry="2.5" style="stroke:#181818;stroke-width:0.5;" width="51" x="2175" y="50"/><text fill="#000000" font-family="sans-serif" font-size="14" lengthAdjust="spacing" textLength="37" x="2182" y="72.1074">:Entry</text><rect fill="#E3E3E3" height="32.6211" rx="2.5" ry="2.5" style="stroke:#181818;stroke-width:0.5;" width="51" x="2175" y="1770.9102"/><text fill="#000000" font-family="sans-serif" font-size="14" lengthAdjust="spacing" textLength="37" x="2182" y="1793.0176">:Entry</text><rect fill="#E3E3E3" height="32.6211" rx="2.5" ry="2.5" style="stroke:#181818;stroke-width:0.5;" width="73" x="2236" y="50"/><text fill="#000000" font-family="sans-serif" font-size="14" lengthAdjust="spacing" textLength="59" x="2243" y="72.1074">:EntryDto</text><rect fill="#E3E3E3" height="32.6211" rx="2.5" ry="2.5" style="stroke:#181818;stroke-width:0.5;" width="73" x="2236" y="1770.9102"/><text fill="#000000" font-family="sans-serif" font-size="14" lengthAdjust="spacing" textLength="59" x="2243" y="1793.0176">:EntryDto</text><rect fill="#E3E3E3" height="32.6211" rx="2.5" ry="2.5" style="stroke:#181818;stroke-width:0.5;" width="99" x="2319" y="50"/><text fill="#000000" font-family="sans-serif" font-size="14" lengthAdjust="spacing" textLength="85" x="2326" y="72.1074">:EntryMapper</text><rect fill="#E3E3E3" height="32.6211" rx="2.5" ry="2.5" style="stroke:#181818;stroke-width:0.5;" width="99" x="2319" y="1770.9102"/><text fill="#000000" font-family="sans-serif" font-size="14" lengthAdjust="spacing" textLength="85" x="2326" y="1793.0176">:EntryMapper</text><rect fill="#E3E3E3" height="32.6211" rx="2.5" ry="2.5" style="stroke:#181818;stroke-width:0.5;" width="189" x="2428" y="50"/><text fill="#000000" font-family="sans-serif" font-size="14" lengthAdjust="spacing" textLength="175" x="2435" y="72.1074">agendaDto : List&lt;EntryDto&gt;</text><rect fill="#E3E3E3" height="32.6211" rx="2.5" ry="2.5" style="stroke:#181818;stroke-width:0.5;" width="189" x="2428" y="1770.9102"/><text fill="#000000" font-family="sans-serif" font-size="14" lengthAdjust="spacing" textLength="175" x="2435" y="1793.0176">agendaDto : List&lt;EntryDto&gt;</text><rect fill="#E3E3E3" height="32.6211" rx="2.5" ry="2.5" style="stroke:#181818;stroke-width:0.5;" width="145" x="2627" y="50"/><text fill="#000000" font-family="sans-serif" font-size="14" lengthAdjust="spacing" textLength="131" x="2634" y="72.1074">agenda : List&lt;Entry&gt;</text><rect fill="#E3E3E3" height="32.6211" rx="2.5" ry="2.5" style="stroke:#181818;stroke-width:0.5;" width="145" x="2627" y="1770.9102"/><text fill="#000000" font-family="sans-serif" font-size="14" lengthAdjust="spacing" textLength="131" x="2634" y="1793.0176">agenda : List&lt;Entry&gt;</text><rect fill="#FFFFFF" height="1668.2891" style="stroke:#181818;stroke-width:1.0;" width="10" x="33.5" y="93.6211"/><rect fill="#FFFFFF" height="185.7461" style="stroke:#181818;stroke-width:1.0;" width="10" x="342.5" y="116.9121"/><rect fill="#FFFFFF" height="31.291" style="stroke:#181818;stroke-width:1.0;" width="10" x="342.5" y="333.9492"/><rect fill="#FFFFFF" height="969.8867" style="stroke:#181818;stroke-width:1.0;" width="10" x="486" y="375.2402"/><rect fill="#FFFFFF" height="360.2012" style="stroke:#181818;stroke-width:1.0;" width="10" x="486" y="1402.709"/><rect fill="#FFFFFF" height="79.543" style="stroke:#181818;stroke-width:1.0;" width="10" x="628" y="191.8242"/><rect fill="#FFFFFF" height="861.3535" style="stroke:#181818;stroke-width:1.0;" width="10" x="795" y="452.4824"/><rect fill="#FFFFFF" height="328.9102" style="stroke:#181818;stroke-width:1.0;" width="10" x="795" y="1434"/><rect fill="#FFFFFF" height="31.291" style="stroke:#181818;stroke-width:1.0;" width="10" x="946" y="483.7734"/><rect fill="#FFFFFF" height="31.291" style="stroke:#181818;stroke-width:1.0;" width="10" x="1053" y="546.3555"/><rect fill="#FFFFFF" height="31.291" style="stroke:#181818;stroke-width:1.0;" width="10" x="1053" y="608.9375"/><rect fill="#FFFFFF" height="92.582" style="stroke:#181818;stroke-width:1.0;" width="10" x="1171" y="815.0137"/><rect fill="#FFFFFF" height="235.0371" style="stroke:#181818;stroke-width:1.0;" width="10" x="1171" y="1527.873"/><rect fill="#FFFFFF" height="112.2031" style="stroke:#181818;stroke-width:1.0;" width="10" x="1306.5" y="671.5195"/><rect fill="#FFFFFF" height="30" style="stroke:#181818;stroke-width:1.0;" width="10" x="1653.5" y="1176.9629"/><rect fill="#FFFFFF" height="30" style="stroke:#181818;stroke-width:1.0;" width="10" x="1843.5" y="1040.0898"/><rect fill="#FFFFFF" height="273.0762" style="stroke:#181818;stroke-width:1.0;" width="10" x="1988.5" y="965.1777"/><rect fill="#FFFFFF" height="36.291" style="stroke:#181818;stroke-width:1.0;" width="10" x="1993.5" y="1109.3809"/><rect fill="#FFFFFF" height="31.291" style="stroke:#181818;stroke-width:1.0;" width="10" x="1988.5" y="1465.291"/><rect fill="#FFFFFF" height="30" style="stroke:#181818;stroke-width:1.0;" width="10" x="2195.5" y="846.3047"/><rect fill="#FFFFFF" height="31.291" style="stroke:#181818;stroke-width:1.0;" width="10" x="2195.5" y="1621.7461"/><rect fill="#FFFFFF" height="31.291" style="stroke:#181818;stroke-width:1.0;" width="10" x="2363.5" y="1559.1641"/><polygon fill="#181818" points="330.5,112.9121,340.5,116.9121,330.5,120.9121,334.5,116.9121" style="stroke:#181818;stroke-width:1.0;"/><line style="stroke:#181818;stroke-width:1.0;" x1="43.5" x2="336.5" y1="116.9121" y2="116.9121"/><text fill="#000000" font-family="sans-serif" font-size="13" font-weight="bold" lengthAdjust="spacing" textLength="7" x="50.5" y="111.6494">1</text><text fill="#000000" font-family="sans-serif" font-size="13" lengthAdjust="spacing" textLength="269" x="61.5" y="111.6494">asks to assign a vehicle to an Entry in Agenda</text><polygon fill="#181818" points="556.5,144.2031,566.5,148.2031,556.5,152.2031,560.5,148.2031" style="stroke:#181818;stroke-width:1.0;"/><line style="stroke:#181818;stroke-width:1.0;" x1="352.5" x2="562.5" y1="148.2031" y2="148.2031"/><text fill="#000000" font-family="sans-serif" font-size="13" font-weight="bold" lengthAdjust="spacing" textLength="7" x="359.5" y="142.9404">2</text><text fill="#000000" font-family="sans-serif" font-size="13" lengthAdjust="spacing" textLength="36" x="370.5" y="142.9404">create</text><rect fill="#E3E3E3" height="32.6211" rx="2.5" ry="2.5" style="stroke:#181818;stroke-width:0.5;" width="129" x="568.5" y="124.9121"/><text fill="#000000" font-family="sans-serif" font-size="14" lengthAdjust="spacing" textLength="115" x="575.5" y="147.0195">:AgendaController</text><polygon fill="#181818" points="616,187.8242,626,191.8242,616,195.8242,620,191.8242" style="stroke:#181818;stroke-width:1.0;"/><line style="stroke:#181818;stroke-width:1.0;" x1="352.5" x2="622" y1="191.8242" y2="191.8242"/><text fill="#000000" font-family="sans-serif" font-size="13" font-weight="bold" lengthAdjust="spacing" textLength="7" x="359.5" y="186.5615">3</text><text fill="#000000" font-family="sans-serif" font-size="13" lengthAdjust="spacing" textLength="91" x="370.5" y="186.5615">getAgendaList()</text><rect fill="none" height="43.252" style="stroke:#000000;stroke-width:1.5;" width="135" x="565.5" y="199.8242"/><path d="M565.5,199.8242 L627.5,199.8242 L627.5,208.8242 L617.5,218.8242 L565.5,218.8242 L565.5,199.8242 " fill="#EEEEEE" style="stroke:#000000;stroke-width:2.0;"/><text fill="#000000" font-family="sans-serif" font-size="13" font-weight="bold" lengthAdjust="spacing" textLength="17" x="578.5" y="215.8525">ref</text><text fill="#000000" font-family="sans-serif" font-size="12" lengthAdjust="spacing" textLength="126" x="570" y="235.7734">Get Agenda Entry's List</text><polygon fill="#181818" points="363.5,267.3672,353.5,271.3672,363.5,275.3672,359.5,271.3672" style="stroke:#181818;stroke-width:1.0;"/><line style="stroke:#181818;stroke-width:1.0;" x1="357.5" x2="632" y1="271.3672" y2="271.3672"/><text fill="#000000" font-family="sans-serif" font-size="13" font-weight="bold" lengthAdjust="spacing" textLength="7" x="369.5" y="266.1045">4</text><text fill="#000000" font-family="sans-serif" font-size="13" lengthAdjust="spacing" textLength="62" x="380.5" y="266.1045">agendaDto</text><polygon fill="#181818" points="54.5,298.6582,44.5,302.6582,54.5,306.6582,50.5,302.6582" style="stroke:#181818;stroke-width:1.0;"/><line style="stroke:#181818;stroke-width:1.0;" x1="48.5" x2="346.5" y1="302.6582" y2="302.6582"/><text fill="#000000" font-family="sans-serif" font-size="13" font-weight="bold" lengthAdjust="spacing" textLength="7" x="60.5" y="297.3955">5</text><text fill="#000000" font-family="sans-serif" font-size="13" lengthAdjust="spacing" textLength="244" x="71.5" y="297.3955">show Agenda and wait to select one Entry</text><polygon fill="#181818" points="330.5,329.9492,340.5,333.9492,330.5,337.9492,334.5,333.9492" style="stroke:#181818;stroke-width:1.0;"/><line style="stroke:#181818;stroke-width:1.0;stroke-dasharray:2.0,2.0;" x1="43.5" x2="336.5" y1="333.9492" y2="333.9492"/><text fill="#000000" font-family="sans-serif" font-size="13" font-weight="bold" lengthAdjust="spacing" textLength="7" x="50.5" y="328.6865">6</text><text fill="#000000" font-family="sans-serif" font-size="13" lengthAdjust="spacing" textLength="95" x="61.5" y="328.6865">select one Entry</text><polygon fill="#181818" points="411.5,361.2402,421.5,365.2402,411.5,369.2402,415.5,365.2402" style="stroke:#181818;stroke-width:1.0;"/><line style="stroke:#181818;stroke-width:1.0;stroke-dasharray:2.0,2.0;" x1="347.5" x2="417.5" y1="365.2402" y2="365.2402"/><text fill="#000000" font-family="sans-serif" font-size="13" font-weight="bold" lengthAdjust="spacing" textLength="7" x="354.5" y="359.9775">7</text><text fill="#000000" font-family="sans-serif" font-size="13" lengthAdjust="spacing" textLength="36" x="365.5" y="359.9775">create</text><rect fill="#E3E3E3" height="32.6211" rx="2.5" ry="2.5" style="stroke:#181818;stroke-width:0.5;" width="135" x="423.5" y="341.9492"/><text fill="#000000" font-family="sans-serif" font-size="14" lengthAdjust="spacing" textLength="121" x="430.5" y="364.0566">:ViewDetailsEntryUI</text><polygon fill="#181818" points="695.5,404.8613,705.5,408.8613,695.5,412.8613,699.5,408.8613" style="stroke:#181818;stroke-width:1.0;"/><line style="stroke:#181818;stroke-width:1.0;stroke-dasharray:2.0,2.0;" x1="496" x2="701.5" y1="408.8613" y2="408.8613"/><text fill="#000000" font-family="sans-serif" font-size="13" font-weight="bold" lengthAdjust="spacing" textLength="7" x="503" y="403.5986">8</text><text fill="#000000" font-family="sans-serif" font-size="13" lengthAdjust="spacing" textLength="93" x="514" y="403.5986">create(entryDto)</text><rect fill="#E3E3E3" height="32.6211" rx="2.5" ry="2.5" style="stroke:#181818;stroke-width:0.5;" width="185" x="707.5" y="385.5703"/><text fill="#000000" font-family="sans-serif" font-size="14" lengthAdjust="spacing" textLength="171" x="714.5" y="407.6777">:ViewDetailsEntryController</text><polygon fill="#181818" points="783,448.4824,793,452.4824,783,456.4824,787,452.4824" style="stroke:#181818;stroke-width:1.0;"/><line style="stroke:#181818;stroke-width:1.0;stroke-dasharray:2.0,2.0;" x1="496" x2="789" y1="452.4824" y2="452.4824"/><text fill="#000000" font-family="sans-serif" font-size="13" font-weight="bold" lengthAdjust="spacing" textLength="7" x="503" y="447.2197">9</text><text fill="#000000" font-family="sans-serif" font-size="13" lengthAdjust="spacing" textLength="149" x="514" y="447.2197">getDataNeededToModify()</text><polygon fill="#181818" points="934,479.7734,944,483.7734,934,487.7734,938,483.7734" style="stroke:#181818;stroke-width:1.0;"/><line style="stroke:#181818;stroke-width:1.0;" x1="805" x2="940" y1="483.7734" y2="483.7734"/><text fill="#000000" font-family="sans-serif" font-size="13" font-weight="bold" lengthAdjust="spacing" textLength="14" x="812" y="478.5107">10</text><text fill="#000000" font-family="sans-serif" font-size="13" lengthAdjust="spacing" textLength="75" x="830" y="478.5107">getInstance()</text><polygon fill="#181818" points="816,511.0645,806,515.0645,816,519.0645,812,515.0645" style="stroke:#181818;stroke-width:1.0;"/><line style="stroke:#181818;stroke-width:1.0;stroke-dasharray:2.0,2.0;" x1="810" x2="950" y1="515.0645" y2="515.0645"/><text fill="#000000" font-family="sans-serif" font-size="13" font-weight="bold" lengthAdjust="spacing" textLength="14" x="822" y="509.8018">11</text><text fill="#000000" font-family="sans-serif" font-size="13" lengthAdjust="spacing" textLength="67" x="840" y="509.8018">repositories</text><polygon fill="#181818" points="1041,542.3555,1051,546.3555,1041,550.3555,1045,546.3555" style="stroke:#181818;stroke-width:1.0;"/><line style="stroke:#181818;stroke-width:1.0;" x1="805" x2="1047" y1="546.3555" y2="546.3555"/><text fill="#000000" font-family="sans-serif" font-size="13" font-weight="bold" lengthAdjust="spacing" textLength="14" x="812" y="541.0928">12</text><text fill="#000000" font-family="sans-serif" font-size="13" lengthAdjust="spacing" textLength="131" x="830" y="541.0928">getVehicleRepository()</text><polygon fill="#181818" points="816,573.6465,806,577.6465,816,581.6465,812,577.6465" style="stroke:#181818;stroke-width:1.0;"/><line style="stroke:#181818;stroke-width:1.0;" x1="810" x2="1057" y1="577.6465" y2="577.6465"/><text fill="#000000" font-family="sans-serif" font-size="13" font-weight="bold" lengthAdjust="spacing" textLength="14" x="822" y="572.3838">13</text><text fill="#000000" font-family="sans-serif" font-size="13" lengthAdjust="spacing" textLength="101" x="840" y="572.3838">vehicleRepository</text><polygon fill="#181818" points="1041,604.9375,1051,608.9375,1041,612.9375,1045,608.9375" style="stroke:#181818;stroke-width:1.0;"/><line style="stroke:#181818;stroke-width:1.0;" x1="805" x2="1047" y1="608.9375" y2="608.9375"/><text fill="#000000" font-family="sans-serif" font-size="13" font-weight="bold" lengthAdjust="spacing" textLength="14" x="812" y="603.6748">14</text><text fill="#000000" font-family="sans-serif" font-size="13" lengthAdjust="spacing" textLength="119" x="830" y="603.6748">getEntryRepository()</text><polygon fill="#181818" points="816,636.2285,806,640.2285,816,644.2285,812,640.2285" style="stroke:#181818;stroke-width:1.0;"/><line style="stroke:#181818;stroke-width:1.0;" x1="810" x2="1057" y1="640.2285" y2="640.2285"/><text fill="#000000" font-family="sans-serif" font-size="13" font-weight="bold" lengthAdjust="spacing" textLength="14" x="822" y="634.9658">15</text><text fill="#000000" font-family="sans-serif" font-size="13" lengthAdjust="spacing" textLength="91" x="840" y="634.9658">entryRepository</text><polygon fill="#181818" points="1294.5,667.5195,1304.5,671.5195,1294.5,675.5195,1298.5,671.5195" style="stroke:#181818;stroke-width:1.0;"/><line style="stroke:#181818;stroke-width:1.0;" x1="805" x2="1300.5" y1="671.5195" y2="671.5195"/><text fill="#000000" font-family="sans-serif" font-size="13" font-weight="bold" lengthAdjust="spacing" textLength="14" x="812" y="666.2568">16</text><text fill="#000000" font-family="sans-serif" font-size="13" lengthAdjust="spacing" textLength="90" x="830" y="666.2568">getVehicleList()</text><polygon fill="#181818" points="1757.5,698.8105,1767.5,702.8105,1757.5,706.8105,1761.5,702.8105" style="stroke:#181818;stroke-width:1.0;"/><line style="stroke:#181818;stroke-width:1.0;" x1="1316.5" x2="1763.5" y1="702.8105" y2="702.8105"/><text fill="#000000" font-family="sans-serif" font-size="13" font-weight="bold" lengthAdjust="spacing" textLength="14" x="1323.5" y="697.5479">17</text><text fill="#000000" font-family="sans-serif" font-size="13" lengthAdjust="spacing" textLength="36" x="1341.5" y="697.5479">create</text><rect fill="#E3E3E3" height="32.6211" rx="2.5" ry="2.5" style="stroke:#181818;stroke-width:0.5;" width="158" x="1769.5" y="679.5195"/><text fill="#000000" font-family="sans-serif" font-size="14" lengthAdjust="spacing" textLength="144" x="1776.5" y="701.627">agenda : List&lt;Vehicle&gt;</text><path d="M1761,728.1406 L1761,755.1406 L1935,755.1406 L1935,738.1406 L1925,728.1406 L1761,728.1406 " fill="#FAFAFA" style="stroke:#181818;stroke-width:0.5;"/><path d="M1925,728.1406 L1925,738.1406 L1935,738.1406 L1925,728.1406 " fill="#FAFAFA" style="stroke:#181818;stroke-width:0.5;"/><text fill="#000000" font-family="sans-serif" font-size="13" lengthAdjust="spacing" textLength="153" x="1767" y="747.1689">loop to populate is omitted</text><polygon fill="#181818" points="816,779.7227,806,783.7227,816,787.7227,812,783.7227" style="stroke:#181818;stroke-width:1.0;"/><line style="stroke:#181818;stroke-width:1.0;" x1="810" x2="1310.5" y1="783.7227" y2="783.7227"/><text fill="#000000" font-family="sans-serif" font-size="13" font-weight="bold" lengthAdjust="spacing" textLength="14" x="822" y="778.46">18</text><text fill="#000000" font-family="sans-serif" font-size="13" lengthAdjust="spacing" textLength="60" x="840" y="778.46">vehicleList</text><polygon fill="#181818" points="1159,811.0137,1169,815.0137,1159,819.0137,1163,815.0137" style="stroke:#181818;stroke-width:1.0;"/><line style="stroke:#181818;stroke-width:1.0;" x1="805" x2="1165" y1="815.0137" y2="815.0137"/><text fill="#000000" font-family="sans-serif" font-size="13" font-weight="bold" lengthAdjust="spacing" textLength="14" x="812" y="809.751">19</text><text fill="#000000" font-family="sans-serif" font-size="13" lengthAdjust="spacing" textLength="276" x="830" y="809.751">filterVehiclesNotUseInTime(entryDto,vehicleList)</text><polygon fill="#181818" points="2183.5,842.3047,2193.5,846.3047,2183.5,850.3047,2187.5,846.3047" style="stroke:#181818;stroke-width:1.0;"/><line style="stroke:#181818;stroke-width:1.0;" x1="1181" x2="2189.5" y1="846.3047" y2="846.3047"/><text fill="#000000" font-family="sans-serif" font-size="13" font-weight="bold" lengthAdjust="spacing" textLength="14" x="1188" y="841.042">20</text><text fill="#000000" font-family="sans-serif" font-size="13" lengthAdjust="spacing" textLength="90" x="1206" y="841.042">getVehicleList()</text><polygon fill="#181818" points="816,903.5957,806,907.5957,816,911.5957,812,907.5957" style="stroke:#181818;stroke-width:1.0;"/><line style="stroke:#181818;stroke-width:1.0;" x1="810" x2="1175" y1="907.5957" y2="907.5957"/><text fill="#000000" font-family="sans-serif" font-size="13" font-weight="bold" lengthAdjust="spacing" textLength="14" x="822" y="902.333">21</text><text fill="#000000" font-family="sans-serif" font-size="13" lengthAdjust="spacing" textLength="60" x="840" y="902.333">vehicleList</text><path d="M697.5,922.5957 L770.5,922.5957 L770.5,931.8867 L760.5,941.8867 L697.5,941.8867 L697.5,922.5957 " fill="#EEEEEE" style="stroke:#000000;stroke-width:1.5;"/><rect fill="none" height="323.6582" style="stroke:#000000;stroke-width:1.5;" width="1508" x="697.5" y="922.5957"/><text fill="#000000" font-family="sans-serif" font-size="13" font-weight="bold" lengthAdjust="spacing" textLength="28" x="712.5" y="937.624">loop</text><text fill="#000000" font-family="sans-serif" font-size="11" font-weight="bold" lengthAdjust="spacing" textLength="104" x="785.5" y="936.4658">[For every Vehicle]</text><polygon fill="#181818" points="1976.5,961.1777,1986.5,965.1777,1976.5,969.1777,1980.5,965.1777" style="stroke:#181818;stroke-width:1.0;"/><line style="stroke:#181818;stroke-width:1.0;" x1="805" x2="1982.5" y1="965.1777" y2="965.1777"/><text fill="#000000" font-family="sans-serif" font-size="13" font-weight="bold" lengthAdjust="spacing" textLength="14" x="812" y="959.915">22</text><text fill="#000000" font-family="sans-serif" font-size="13" lengthAdjust="spacing" textLength="134" x="830" y="959.915">toDTO(vehicleListFilter)</text><polygon fill="#181818" points="1770.5,992.4688,1760.5,996.4688,1770.5,1000.4688,1766.5,996.4688" style="stroke:#181818;stroke-width:1.0;"/><line style="stroke:#181818;stroke-width:1.0;" x1="1764.5" x2="1987.5" y1="996.4688" y2="996.4688"/><text fill="#000000" font-family="sans-serif" font-size="13" font-weight="bold" lengthAdjust="spacing" textLength="14" x="1776.5" y="991.2061">23</text><text fill="#000000" font-family="sans-serif" font-size="13" lengthAdjust="spacing" textLength="36" x="1794.5" y="991.2061">create</text><rect fill="#E3E3E3" height="32.6211" rx="2.5" ry="2.5" style="stroke:#181818;stroke-width:0.5;" width="202" x="1557.5" y="973.1777"/><text fill="#000000" font-family="sans-serif" font-size="14" lengthAdjust="spacing" textLength="188" x="1564.5" y="995.2852">agendaDto : List&lt;VehicleDto&gt;</text><polygon fill="#181818" points="1864.5,1036.0898,1854.5,1040.0898,1864.5,1044.0898,1860.5,1040.0898" style="stroke:#181818;stroke-width:1.0;"/><line style="stroke:#181818;stroke-width:1.0;" x1="1858.5" x2="1987.5" y1="1040.0898" y2="1040.0898"/><text fill="#000000" font-family="sans-serif" font-size="13" font-weight="bold" lengthAdjust="spacing" textLength="14" x="1870.5" y="1034.8271">24</text><text fill="#000000" font-family="sans-serif" font-size="13" lengthAdjust="spacing" textLength="84" x="1888.5" y="1034.8271">vehicle = get(i)</text><line style="stroke:#181818;stroke-width:1.0;" x1="1998.5" x2="2045.5" y1="1096.3809" y2="1096.3809"/><line style="stroke:#181818;stroke-width:1.0;" x1="2045.5" x2="2045.5" y1="1096.3809" y2="1109.3809"/><line style="stroke:#181818;stroke-width:1.0;" x1="2004.5" x2="2045.5" y1="1109.3809" y2="1109.3809"/><polygon fill="#181818" points="2014.5,1105.3809,2004.5,1109.3809,2014.5,1113.3809,2010.5,1109.3809" style="stroke:#181818;stroke-width:1.0;"/><text fill="#000000" font-family="sans-serif" font-size="13" font-weight="bold" lengthAdjust="spacing" textLength="14" x="2010.5" y="1091.1182">25</text><text fill="#000000" font-family="sans-serif" font-size="13" lengthAdjust="spacing" textLength="165" x="2028.5" y="1091.1182">vehicleDTO = toDTO(vehicle)</text><polygon fill="#181818" points="1515.5,1141.6719,1505.5,1145.6719,1515.5,1149.6719,1511.5,1145.6719" style="stroke:#181818;stroke-width:1.0;"/><line style="stroke:#181818;stroke-width:1.0;" x1="1509.5" x2="1987.5" y1="1145.6719" y2="1145.6719"/><text fill="#000000" font-family="sans-serif" font-size="13" font-weight="bold" lengthAdjust="spacing" textLength="14" x="1521.5" y="1140.4092">26</text><text fill="#000000" font-family="sans-serif" font-size="13" lengthAdjust="spacing" textLength="56" x="1539.5" y="1140.4092">create(...)</text><polygon fill="#181818" points="1674.5,1172.9629,1664.5,1176.9629,1674.5,1180.9629,1670.5,1176.9629" style="stroke:#181818;stroke-width:1.0;"/><line style="stroke:#181818;stroke-width:1.0;" x1="1668.5" x2="1987.5" y1="1176.9629" y2="1176.9629"/><text fill="#000000" font-family="sans-serif" font-size="13" font-weight="bold" lengthAdjust="spacing" textLength="14" x="1680.5" y="1171.7002">27</text><text fill="#000000" font-family="sans-serif" font-size="13" lengthAdjust="spacing" textLength="88" x="1698.5" y="1171.7002">add(vehicleDto)</text><polygon fill="#181818" points="816,1234.2539,806,1238.2539,816,1242.2539,812,1238.2539" style="stroke:#181818;stroke-width:1.0;"/><line style="stroke:#181818;stroke-width:1.0;" x1="810" x2="1992.5" y1="1238.2539" y2="1238.2539"/><text fill="#000000" font-family="sans-serif" font-size="13" font-weight="bold" lengthAdjust="spacing" textLength="14" x="822" y="1232.9912">28</text><text fill="#000000" font-family="sans-serif" font-size="13" lengthAdjust="spacing" textLength="80" x="840" y="1232.9912">vehicleDtoList</text><path d="M737,1258.2539 L737,1285.2539 L863,1285.2539 L863,1268.2539 L853,1258.2539 L737,1258.2539 " fill="#FAFAFA" style="stroke:#181818;stroke-width:0.5;"/><path d="M853,1258.2539 L853,1268.2539 L863,1268.2539 L853,1258.2539 " fill="#FAFAFA" style="stroke:#181818;stroke-width:0.5;"/><text fill="#000000" font-family="sans-serif" font-size="13" lengthAdjust="spacing" textLength="105" x="743" y="1277.2822">other data omitted</text><polygon fill="#181818" points="507,1309.8359,497,1313.8359,507,1317.8359,503,1313.8359" style="stroke:#181818;stroke-width:1.0;"/><line style="stroke:#181818;stroke-width:1.0;" x1="501" x2="799" y1="1313.8359" y2="1313.8359"/><text fill="#000000" font-family="sans-serif" font-size="13" font-weight="bold" lengthAdjust="spacing" textLength="14" x="513" y="1308.5732">29</text><text fill="#000000" font-family="sans-serif" font-size="13" lengthAdjust="spacing" textLength="80" x="531" y="1308.5732">vehicleDtoList</text><polygon fill="#181818" points="54.5,1341.127,44.5,1345.127,54.5,1349.127,50.5,1345.127" style="stroke:#181818;stroke-width:1.0;"/><line style="stroke:#181818;stroke-width:1.0;" x1="48.5" x2="490" y1="1345.127" y2="1345.127"/><text fill="#000000" font-family="sans-serif" font-size="13" font-weight="bold" lengthAdjust="spacing" textLength="14" x="60.5" y="1339.8643">30</text><text fill="#000000" font-family="sans-serif" font-size="13" lengthAdjust="spacing" textLength="318" x="78.5" y="1339.8643">show entry data and wait for selection vehicle to assign</text><path d="M10,1360.127 L83,1360.127 L83,1369.418 L73,1379.418 L10,1379.418 L10,1360.127 " fill="#EEEEEE" style="stroke:#000000;stroke-width:1.5;"/><rect fill="none" height="394.7832" style="stroke:#000000;stroke-width:1.5;" width="2418" x="10" y="1360.127"/><text fill="#000000" font-family="sans-serif" font-size="13" font-weight="bold" lengthAdjust="spacing" textLength="28" x="25" y="1375.1553">loop</text><text fill="#000000" font-family="sans-serif" font-size="11" font-weight="bold" lengthAdjust="spacing" textLength="398" x="98" y="1373.9971">[For Every vehicle that he want to add to the entry and are disposable to]</text><polygon fill="#181818" points="474,1398.709,484,1402.709,474,1406.709,478,1402.709" style="stroke:#181818;stroke-width:1.0;"/><line style="stroke:#181818;stroke-width:1.0;" x1="43.5" x2="480" y1="1402.709" y2="1402.709"/><text fill="#000000" font-family="sans-serif" font-size="13" font-weight="bold" lengthAdjust="spacing" textLength="14" x="50.5" y="1397.4463">31</text><text fill="#000000" font-family="sans-serif" font-size="13" lengthAdjust="spacing" textLength="274" x="68.5" y="1397.4463">select one vehicle and click on button to assign</text><polygon fill="#181818" points="783,1430,793,1434,783,1438,787,1434" style="stroke:#181818;stroke-width:1.0;"/><line style="stroke:#181818;stroke-width:1.0;" x1="496" x2="789" y1="1434" y2="1434"/><text fill="#000000" font-family="sans-serif" font-size="13" font-weight="bold" lengthAdjust="spacing" textLength="14" x="503" y="1428.7373">32</text><text fill="#000000" font-family="sans-serif" font-size="13" lengthAdjust="spacing" textLength="193" x="521" y="1428.7373">assignVehicleToEntry(vehicleDto)</text><polygon fill="#181818" points="1976.5,1461.291,1986.5,1465.291,1976.5,1469.291,1980.5,1465.291" style="stroke:#181818;stroke-width:1.0;"/><line style="stroke:#181818;stroke-width:1.0;" x1="805" x2="1982.5" y1="1465.291" y2="1465.291"/><text fill="#000000" font-family="sans-serif" font-size="13" font-weight="bold" lengthAdjust="spacing" textLength="14" x="812" y="1460.0283">33</text><text fill="#000000" font-family="sans-serif" font-size="13" lengthAdjust="spacing" textLength="113" x="830" y="1460.0283">toModel(vehicleDto)</text><polygon fill="#181818" points="816,1492.582,806,1496.582,816,1500.582,812,1496.582" style="stroke:#181818;stroke-width:1.0;"/><line style="stroke:#181818;stroke-width:1.0;" x1="810" x2="1992.5" y1="1496.582" y2="1496.582"/><text fill="#000000" font-family="sans-serif" font-size="13" font-weight="bold" lengthAdjust="spacing" textLength="14" x="822" y="1491.3193">34</text><text fill="#000000" font-family="sans-serif" font-size="13" lengthAdjust="spacing" textLength="39" x="840" y="1491.3193">vehicle</text><polygon fill="#181818" points="1159,1523.873,1169,1527.873,1159,1531.873,1163,1527.873" style="stroke:#181818;stroke-width:1.0;"/><line style="stroke:#181818;stroke-width:1.0;" x1="805" x2="1165" y1="1527.873" y2="1527.873"/><text fill="#000000" font-family="sans-serif" font-size="13" font-weight="bold" lengthAdjust="spacing" textLength="14" x="812" y="1522.6104">35</text><text fill="#000000" font-family="sans-serif" font-size="13" lengthAdjust="spacing" textLength="4" x="830" y="1522.6104">&#160;</text><polygon fill="#181818" points="2351.5,1555.1641,2361.5,1559.1641,2351.5,1563.1641,2355.5,1559.1641" style="stroke:#181818;stroke-width:1.0;"/><line style="stroke:#181818;stroke-width:1.0;" x1="1181" x2="2357.5" y1="1559.1641" y2="1559.1641"/><text fill="#000000" font-family="sans-serif" font-size="13" font-weight="bold" lengthAdjust="spacing" textLength="14" x="1188" y="1553.9014">36</text><text fill="#000000" font-family="sans-serif" font-size="13" lengthAdjust="spacing" textLength="103" x="1206" y="1553.9014">toModel(entryDto)</text><polygon fill="#181818" points="1192,1586.4551,1182,1590.4551,1192,1594.4551,1188,1590.4551" style="stroke:#181818;stroke-width:1.0;"/><line style="stroke:#181818;stroke-width:1.0;" x1="1186" x2="2367.5" y1="1590.4551" y2="1590.4551"/><text fill="#000000" font-family="sans-serif" font-size="13" font-weight="bold" lengthAdjust="spacing" textLength="14" x="1198" y="1585.1924">37</text><text fill="#000000" font-family="sans-serif" font-size="13" lengthAdjust="spacing" textLength="29" x="1216" y="1585.1924">entry</text><polygon fill="#181818" points="2183.5,1617.7461,2193.5,1621.7461,2183.5,1625.7461,2187.5,1621.7461" style="stroke:#181818;stroke-width:1.0;"/><line style="stroke:#181818;stroke-width:1.0;" x1="1181" x2="2189.5" y1="1621.7461" y2="1621.7461"/><text fill="#000000" font-family="sans-serif" font-size="13" font-weight="bold" lengthAdjust="spacing" textLength="14" x="1188" y="1616.4834">38</text><text fill="#000000" font-family="sans-serif" font-size="13" lengthAdjust="spacing" textLength="133" x="1206" y="1616.4834">setNewVehicle(vehicle)</text><polygon fill="#181818" points="1192,1649.0371,1182,1653.0371,1192,1657.0371,1188,1653.0371" style="stroke:#181818;stroke-width:1.0;"/><line style="stroke:#181818;stroke-width:1.0;" x1="1186" x2="2199.5" y1="1653.0371" y2="1653.0371"/><text fill="#000000" font-family="sans-serif" font-size="13" font-weight="bold" lengthAdjust="spacing" textLength="14" x="1198" y="1647.7744">39</text><text fill="#000000" font-family="sans-serif" font-size="13" lengthAdjust="spacing" textLength="53" x="1216" y="1647.7744">true/false</text><polygon fill="#181818" points="816,1680.3281,806,1684.3281,816,1688.3281,812,1684.3281" style="stroke:#181818;stroke-width:1.0;"/><line style="stroke:#181818;stroke-width:1.0;" x1="810" x2="1170" y1="1684.3281" y2="1684.3281"/><text fill="#000000" font-family="sans-serif" font-size="13" font-weight="bold" lengthAdjust="spacing" textLength="14" x="822" y="1679.0654">40</text><text fill="#000000" font-family="sans-serif" font-size="13" lengthAdjust="spacing" textLength="53" x="840" y="1679.0654">true/false</text><polygon fill="#181818" points="507,1711.6191,497,1715.6191,507,1719.6191,503,1715.6191" style="stroke:#181818;stroke-width:1.0;"/><line style="stroke:#181818;stroke-width:1.0;" x1="501" x2="794" y1="1715.6191" y2="1715.6191"/><text fill="#000000" font-family="sans-serif" font-size="13" font-weight="bold" lengthAdjust="spacing" textLength="14" x="513" y="1710.3564">41</text><text fill="#000000" font-family="sans-serif" font-size="13" lengthAdjust="spacing" textLength="53" x="531" y="1710.3564">true/false</text><polygon fill="#181818" points="54.5,1742.9102,44.5,1746.9102,54.5,1750.9102,50.5,1746.9102" style="stroke:#181818;stroke-width:1.0;"/><line style="stroke:#181818;stroke-width:1.0;" x1="48.5" x2="485" y1="1746.9102" y2="1746.9102"/><text fill="#000000" font-family="sans-serif" font-size="13" font-weight="bold" lengthAdjust="spacing" textLength="14" x="60.5" y="1741.6475">42</text><text fill="#000000" font-family="sans-serif" font-size="13" lengthAdjust="spacing" textLength="140" x="78.5" y="1741.6475">show operation success</text><!--SRC=[pLbBJ-Gu4BxxLrXSQ4OCAt54kqZCmAnOqGo2PavpCKbrno9jPsCtlVtljspdPUT1qyck9XV0Bd-kAd_bgZBgbOkCvMnDrrB8ACdb6gZEDq1KDPEnw9Mju4dlKg0vH9g9LTeKK0cBvPQB5LsoL04XRAEbsAnV82VaEE4nqAMK-aN-GrYaPKwF_doQ7r6cAFuaYA5vn3CcD3swk5g1YDdphPr-lWrcVt3ONeDcF5KtGkUxIkwy4-QhH26Pff1RiQ-Bnxjt03jMXD2Fa4d5qGmEoWfL0xidRZo3jljByiQAdw8Dy71tjV1NWD6bniL5D_w8NHUC-H1laF0e1G_aHpXcOLgZeO_Sl9Nz_kMl9qYH0n1tIrrhQGLBgUl5Tr-GsPD1CNf1xxZIlzSBB-rAC_ZEwc1fUrstRdEMPSN1beBpguU7cyT0tFgrDBThhZIofPwRRkpJXT_oG8bPs_6EtNP1BKs8YIl-nZJOY2Aq-F0F-laImmCNClMgAEx9bE8hGHaj26B7XECIvOAwoAanAcGCHd9C6n_2VaPqiya5tWj_Rq1fHMEc6Ptbi8GSH0IdD0OLvJpJN8fJYZiiPRvcAVqf_1aDKI9uX3FUSBp9cVijaagVaAO2nr4EHZCRrw5cbtRuqoVKpOcH7X4KM85sPXjlplnDAljRkpG_j9VADyY7fQfp0LtusVdzk3Z7FdcK9BxwLl7gQ4j2UI8n-AftcE-EJYLoMwh3H4otZ6l32cLZX4e1Jii-T4CCpph3kbAtGP1UY89QUAyt3x1dwVc-Yg6eXRMtUWDu1aK0dWp8EvfS8xll0MA85t8kOxxS3T7bF3Yr0WaXEtA6s-1MACol4GIm-txLzbr9wI14ytLfMpd6n7wTq0xQet5ca-bTkTfaL-VRLg8RwsIRk0-2i4ergDNArcFzw5IRodD1fV7h-2qebARnsYYdjKZcSQyZmNpOU-rwxI2yjgAeVRE8wisT-tv2ehOsApPX4JILCZCP9fFP9ZKcSKNbccjJkP49hGcYQp37xicGYPnVqIM8B5HsoLCDUR6FkfVwMS6jMF1rdQTE6mQD95FOGno45Xg1Tc7bF3dnJJK-ylWCn5Gc_WVickGqR7HzmpORCFHs9MF7qTJlbz1eBR57cJLC_sPfE_A4WxRi8B10rU1IGwr7tsl3EzICe7-O09ZnaKxn6jkH1FEm9ZA-nOt2V7GrUi0ZoYz9ZmOrwfRWxEpiPAop_nSsc_ulZai7soPcChQPPuW92MVW9d92SFUYsLDSlrCSMBjNFw1UAisJEi6_x9DALH-DkiTDIpkrrufEbxPQP- -1mTOkpfJgaM69ISez473iA9iFKlQHYj3Unjxl-UkKTsDJNeMKC4qJmCs4VT70G34_qAc5EaOJbWEDkSASorxixe4frIFQkV-SKMvYCAAKHwyuIbyssZJ7FIPu1f0EVvNdxXONcNiXRLdG6-931p6KmESoXlHzr30eo8SYa-mPQcI_wfXyl8ZjgDnQJgWVW3hnk-w3sk9s2Gz3psLTOBq5j09z3zk22DrPjB-sDH2T-fb_yFpc_bUpRvqyKFysqCZ0fTCdrhugP0RkqPUgJHI1yX-Lt0LB6igQD-z_0G00]--></g></svg>