<?xml version="1.0" encoding="us-ascii" standalone="no"?><svg xmlns="http://www.w3.org/2000/svg" xmlns:xlink="http://www.w3.org/1999/xlink" contentStyleType="text/css" height="1017px" preserveAspectRatio="none" style="width:1635px;height:1017px;background:#FFFFFF;" version="1.1" viewBox="0 0 1635 1017" width="1635px" zoomAndPan="magnify"><defs/><g><!--cluster Domain--><g id="cluster_Domain"><rect fill="none" height="954" rx="2.5" ry="2.5" style="stroke:#000000;stroke-width:1.5;" width="781" x="594" y="57"/><text fill="#000000" font-family="sans-serif" font-size="14" font-weight="bold" lengthAdjust="spacing" textLength="52" x="958.5" y="74.1074">Domain</text></g><!--cluster Controller--><g id="cluster_Controller"><rect fill="none" height="231" rx="2.5" ry="2.5" style="stroke:#000000;stroke-width:1.5;" width="563" x="7" y="29"/><text fill="#000000" font-family="sans-serif" font-size="14" font-weight="bold" lengthAdjust="spacing" textLength="71" x="253" y="46.1074">Controller</text></g><!--cluster UI--><g id="cluster_UI"><rect fill="none" height="120" rx="2.5" ry="2.5" style="stroke:#000000;stroke-width:1.5;" width="230" x="1399" y="84.5"/><text fill="#000000" font-family="sans-serif" font-size="14" font-weight="bold" lengthAdjust="spacing" textLength="14" x="1507" y="101.6074">UI</text></g><!--class Entry--><g id="elem_Entry"><rect codeLine="12" fill="#F1F1F1" height="122.4844" id="Entry" rx="2.5" ry="2.5" style="stroke:#181818;stroke-width:0.5;" width="123" x="1235.5" y="727"/><ellipse cx="1276.6" cy="743" fill="#ADD1B2" rx="11" ry="11" style="stroke:#181818;stroke-width:1.0;"/><path d="M1279.3656,738.875 Q1279.5219,738.6563 1279.7094,738.5469 Q1279.8969,738.4375 1280.1156,738.4375 Q1280.4906,738.4375 1280.725,738.7031 Q1280.9594,738.9531 1280.9594,739.5625 L1280.9594,741.0156 Q1280.9594,741.625 1280.725,741.8906 Q1280.4906,742.1563 1280.1156,742.1563 Q1279.7719,742.1563 1279.5688,741.9531 Q1279.3656,741.7656 1279.2563,741.25 Q1279.2094,740.8906 1279.0219,740.7031 Q1278.6938,740.3281 1278.0844,740.1094 Q1277.475,739.8906 1276.85,739.8906 Q1276.0844,739.8906 1275.4438,740.2188 Q1274.8188,740.5469 1274.3188,741.2969 Q1273.8344,742.0469 1273.8344,743.0781 L1273.8344,744.1719 Q1273.8344,745.4063 1274.725,746.2344 Q1275.6156,747.0469 1277.2094,747.0469 Q1278.1469,747.0469 1278.8031,746.7969 Q1279.1938,746.6406 1279.6156,746.2031 Q1279.8813,745.9375 1280.0219,745.8594 Q1280.1781,745.7813 1280.3813,745.7813 Q1280.7094,745.7813 1280.9594,746.0469 Q1281.225,746.2969 1281.225,746.6406 Q1281.225,746.9844 1280.8813,747.3906 Q1280.3813,747.9688 1279.5844,748.2969 Q1278.5063,748.75 1277.2094,748.75 Q1275.6938,748.75 1274.4906,748.125 Q1273.5063,747.625 1272.8188,746.5625 Q1272.1313,745.4844 1272.1313,744.2031 L1272.1313,743.0469 Q1272.1313,741.7188 1272.7406,740.5781 Q1273.3656,739.4219 1274.4594,738.8125 Q1275.5531,738.1875 1276.7875,738.1875 Q1277.5219,738.1875 1278.1625,738.3594 Q1278.8188,738.5156 1279.3656,738.875 Z " fill="#000000"/><text fill="#000000" font-family="sans-serif" font-size="14" lengthAdjust="spacing" textLength="33" x="1296.4" y="748.7969">Entry</text><line style="stroke:#181818;stroke-width:0.5;" x1="1236.5" x2="1357.5" y1="759" y2="759"/><text fill="#000000" font-family="sans-serif" font-size="14" lengthAdjust="spacing" textLength="89" x="1241.5" y="778.1074">-List&lt;Vehicle&gt;</text><line style="stroke:#181818;stroke-width:0.5;" x1="1236.5" x2="1357.5" y1="785.6211" y2="785.6211"/><text fill="#000000" font-family="sans-serif" font-size="14" lengthAdjust="spacing" textLength="51" x="1241.5" y="804.7285">+Entry()</text><text fill="#000000" font-family="sans-serif" font-size="14" lengthAdjust="spacing" textLength="109" x="1241.5" y="823.3496">+setNewVehicle()</text><text fill="#000000" font-family="sans-serif" font-size="14" lengthAdjust="spacing" textLength="111" x="1241.5" y="841.9707">+removeVehicle()</text></g><!--class EntryState--><g id="elem_EntryState"><rect codeLine="19" fill="#F1F1F1" height="66.6211" id="EntryState" rx="2.5" ry="2.5" style="stroke:#181818;stroke-width:0.5;" width="98" x="1134" y="928"/><ellipse cx="1149" cy="944" fill="#ADD1B2" rx="11" ry="11" style="stroke:#181818;stroke-width:1.0;"/><path d="M1151.7656,939.875 Q1151.9219,939.6563 1152.1094,939.5469 Q1152.2969,939.4375 1152.5156,939.4375 Q1152.8906,939.4375 1153.125,939.7031 Q1153.3594,939.9531 1153.3594,940.5625 L1153.3594,942.0156 Q1153.3594,942.625 1153.125,942.8906 Q1152.8906,943.1563 1152.5156,943.1563 Q1152.1719,943.1563 1151.9688,942.9531 Q1151.7656,942.7656 1151.6563,942.25 Q1151.6094,941.8906 1151.4219,941.7031 Q1151.0938,941.3281 1150.4844,941.1094 Q1149.875,940.8906 1149.25,940.8906 Q1148.4844,940.8906 1147.8438,941.2188 Q1147.2188,941.5469 1146.7188,942.2969 Q1146.2344,943.0469 1146.2344,944.0781 L1146.2344,945.1719 Q1146.2344,946.4063 1147.125,947.2344 Q1148.0156,948.0469 1149.6094,948.0469 Q1150.5469,948.0469 1151.2031,947.7969 Q1151.5938,947.6406 1152.0156,947.2031 Q1152.2813,946.9375 1152.4219,946.8594 Q1152.5781,946.7813 1152.7813,946.7813 Q1153.1094,946.7813 1153.3594,947.0469 Q1153.625,947.2969 1153.625,947.6406 Q1153.625,947.9844 1153.2813,948.3906 Q1152.7813,948.9688 1151.9844,949.2969 Q1150.9063,949.75 1149.6094,949.75 Q1148.0938,949.75 1146.8906,949.125 Q1145.9063,948.625 1145.2188,947.5625 Q1144.5313,946.4844 1144.5313,945.2031 L1144.5313,944.0469 Q1144.5313,942.7188 1145.1406,941.5781 Q1145.7656,940.4219 1146.8594,939.8125 Q1147.9531,939.1875 1149.1875,939.1875 Q1149.9219,939.1875 1150.5625,939.3594 Q1151.2188,939.5156 1151.7656,939.875 Z " fill="#000000"/><text fill="#000000" font-family="sans-serif" font-size="14" lengthAdjust="spacing" textLength="66" x="1163" y="949.7969">EntryState</text><line style="stroke:#181818;stroke-width:0.5;" x1="1135" x2="1231" y1="960" y2="960"/><text fill="#000000" font-family="sans-serif" font-size="14" lengthAdjust="spacing" textLength="78" x="1140" y="979.1074">-Enum State</text><line style="stroke:#181818;stroke-width:0.5;" x1="1135" x2="1231" y1="986.6211" y2="986.6211"/></g><!--class TaskDto--><g id="elem_TaskDto"><rect codeLine="23" fill="#F1F1F1" height="48" id="TaskDto" rx="2.5" ry="2.5" style="stroke:#181818;stroke-width:0.5;" width="85" x="968.5" y="937.5"/><ellipse cx="983.5" cy="953.5" fill="#ADD1B2" rx="11" ry="11" style="stroke:#181818;stroke-width:1.0;"/><path d="M986.2656,949.375 Q986.4219,949.1563 986.6094,949.0469 Q986.7969,948.9375 987.0156,948.9375 Q987.3906,948.9375 987.625,949.2031 Q987.8594,949.4531 987.8594,950.0625 L987.8594,951.5156 Q987.8594,952.125 987.625,952.3906 Q987.3906,952.6563 987.0156,952.6563 Q986.6719,952.6563 986.4688,952.4531 Q986.2656,952.2656 986.1563,951.75 Q986.1094,951.3906 985.9219,951.2031 Q985.5938,950.8281 984.9844,950.6094 Q984.375,950.3906 983.75,950.3906 Q982.9844,950.3906 982.3438,950.7188 Q981.7188,951.0469 981.2188,951.7969 Q980.7344,952.5469 980.7344,953.5781 L980.7344,954.6719 Q980.7344,955.9063 981.625,956.7344 Q982.5156,957.5469 984.1094,957.5469 Q985.0469,957.5469 985.7031,957.2969 Q986.0938,957.1406 986.5156,956.7031 Q986.7813,956.4375 986.9219,956.3594 Q987.0781,956.2813 987.2813,956.2813 Q987.6094,956.2813 987.8594,956.5469 Q988.125,956.7969 988.125,957.1406 Q988.125,957.4844 987.7813,957.8906 Q987.2813,958.4688 986.4844,958.7969 Q985.4063,959.25 984.1094,959.25 Q982.5938,959.25 981.3906,958.625 Q980.4063,958.125 979.7188,957.0625 Q979.0313,955.9844 979.0313,954.7031 L979.0313,953.5469 Q979.0313,952.2188 979.6406,951.0781 Q980.2656,949.9219 981.3594,949.3125 Q982.4531,948.6875 983.6875,948.6875 Q984.4219,948.6875 985.0625,948.8594 Q985.7188,949.0156 986.2656,949.375 Z " fill="#000000"/><text fill="#000000" font-family="sans-serif" font-size="14" lengthAdjust="spacing" textLength="53" x="997.5" y="959.2969">TaskDto</text><line style="stroke:#181818;stroke-width:0.5;" x1="969.5" x2="1052.5" y1="969.5" y2="969.5"/><line style="stroke:#181818;stroke-width:0.5;" x1="969.5" x2="1052.5" y1="977.5" y2="977.5"/></g><!--class EntryRepository--><g id="elem_EntryRepository"><rect codeLine="25" fill="#F1F1F1" height="122.4844" id="EntryRepository" rx="2.5" ry="2.5" style="stroke:#181818;stroke-width:0.5;" width="321" x="869.5" y="325"/><ellipse cx="975.25" cy="341" fill="#ADD1B2" rx="11" ry="11" style="stroke:#181818;stroke-width:1.0;"/><path d="M978.0156,336.875 Q978.1719,336.6563 978.3594,336.5469 Q978.5469,336.4375 978.7656,336.4375 Q979.1406,336.4375 979.375,336.7031 Q979.6094,336.9531 979.6094,337.5625 L979.6094,339.0156 Q979.6094,339.625 979.375,339.8906 Q979.1406,340.1563 978.7656,340.1563 Q978.4219,340.1563 978.2188,339.9531 Q978.0156,339.7656 977.9063,339.25 Q977.8594,338.8906 977.6719,338.7031 Q977.3438,338.3281 976.7344,338.1094 Q976.125,337.8906 975.5,337.8906 Q974.7344,337.8906 974.0938,338.2188 Q973.4688,338.5469 972.9688,339.2969 Q972.4844,340.0469 972.4844,341.0781 L972.4844,342.1719 Q972.4844,343.4063 973.375,344.2344 Q974.2656,345.0469 975.8594,345.0469 Q976.7969,345.0469 977.4531,344.7969 Q977.8438,344.6406 978.2656,344.2031 Q978.5313,343.9375 978.6719,343.8594 Q978.8281,343.7813 979.0313,343.7813 Q979.3594,343.7813 979.6094,344.0469 Q979.875,344.2969 979.875,344.6406 Q979.875,344.9844 979.5313,345.3906 Q979.0313,345.9688 978.2344,346.2969 Q977.1563,346.75 975.8594,346.75 Q974.3438,346.75 973.1406,346.125 Q972.1563,345.625 971.4688,344.5625 Q970.7813,343.4844 970.7813,342.2031 L970.7813,341.0469 Q970.7813,339.7188 971.3906,338.5781 Q972.0156,337.4219 973.1094,336.8125 Q974.2031,336.1875 975.4375,336.1875 Q976.1719,336.1875 976.8125,336.3594 Q977.4688,336.5156 978.0156,336.875 Z " fill="#000000"/><text fill="#000000" font-family="sans-serif" font-size="14" lengthAdjust="spacing" textLength="101" x="995.75" y="346.7969">EntryRepository</text><line style="stroke:#181818;stroke-width:0.5;" x1="870.5" x2="1189.5" y1="357" y2="357"/><text fill="#000000" font-family="sans-serif" font-size="14" lengthAdjust="spacing" textLength="140" x="875.5" y="376.1074">-List &lt;Entry&gt; : agenda</text><line style="stroke:#181818;stroke-width:0.5;" x1="870.5" x2="1189.5" y1="383.6211" y2="383.6211"/><text fill="#000000" font-family="sans-serif" font-size="14" lengthAdjust="spacing" textLength="109" x="875.5" y="402.7285">+getAgendaList()</text><text fill="#000000" font-family="sans-serif" font-size="14" lengthAdjust="spacing" textLength="235" x="875.5" y="421.3496">+assignVehicleToEntry(vehicle,entry)</text><text fill="#000000" font-family="sans-serif" font-size="14" lengthAdjust="spacing" textLength="309" x="875.5" y="439.9707">+filterVehiclesNotUseInTime(vehicleList,entryDto)</text></g><g id="elem_GMN7"><path d="M1081.5,564.5 L1081.5,609.082 A0,0 0 0 0 1081.5,609.082 L1218.5,609.082 A0,0 0 0 0 1218.5,609.082 L1218.5,574.5 L1208.5,564.5 L1140.84,564.5 L1066.33,447.25 L1132.84,564.5 L1081.5,564.5 A0,0 0 0 0 1081.5,564.5 " fill="#FEFFDD" style="stroke:#181818;stroke-width:0.5;"/><path d="M1208.5,564.5 L1208.5,574.5 L1218.5,574.5 L1208.5,564.5 " fill="#FEFFDD" style="stroke:#181818;stroke-width:0.5;"/><text fill="#000000" font-family="sans-serif" font-size="13" lengthAdjust="spacing" textLength="116" x="1087.5" y="583.5283">- used for displaying</text><text fill="#000000" font-family="sans-serif" font-size="13" lengthAdjust="spacing" textLength="85" x="1087.5" y="600.8193">the agenda list</text></g><!--class VehicleRepository--><g id="elem_VehicleRepository"><rect codeLine="39" fill="#F1F1F1" height="85.2422" id="VehicleRepository" rx="2.5" ry="2.5" style="stroke:#181818;stroke-width:0.5;" width="146" x="684" y="544.5"/><ellipse cx="699" cy="560.5" fill="#ADD1B2" rx="11" ry="11" style="stroke:#181818;stroke-width:1.0;"/><path d="M701.7656,556.375 Q701.9219,556.1563 702.1094,556.0469 Q702.2969,555.9375 702.5156,555.9375 Q702.8906,555.9375 703.125,556.2031 Q703.3594,556.4531 703.3594,557.0625 L703.3594,558.5156 Q703.3594,559.125 703.125,559.3906 Q702.8906,559.6563 702.5156,559.6563 Q702.1719,559.6563 701.9688,559.4531 Q701.7656,559.2656 701.6563,558.75 Q701.6094,558.3906 701.4219,558.2031 Q701.0938,557.8281 700.4844,557.6094 Q699.875,557.3906 699.25,557.3906 Q698.4844,557.3906 697.8438,557.7188 Q697.2188,558.0469 696.7188,558.7969 Q696.2344,559.5469 696.2344,560.5781 L696.2344,561.6719 Q696.2344,562.9063 697.125,563.7344 Q698.0156,564.5469 699.6094,564.5469 Q700.5469,564.5469 701.2031,564.2969 Q701.5938,564.1406 702.0156,563.7031 Q702.2813,563.4375 702.4219,563.3594 Q702.5781,563.2813 702.7813,563.2813 Q703.1094,563.2813 703.3594,563.5469 Q703.625,563.7969 703.625,564.1406 Q703.625,564.4844 703.2813,564.8906 Q702.7813,565.4688 701.9844,565.7969 Q700.9063,566.25 699.6094,566.25 Q698.0938,566.25 696.8906,565.625 Q695.9063,565.125 695.2188,564.0625 Q694.5313,562.9844 694.5313,561.7031 L694.5313,560.5469 Q694.5313,559.2188 695.1406,558.0781 Q695.7656,556.9219 696.8594,556.3125 Q697.9531,555.6875 699.1875,555.6875 Q699.9219,555.6875 700.5625,555.8594 Q701.2188,556.0156 701.7656,556.375 Z " fill="#000000"/><text fill="#000000" font-family="sans-serif" font-size="14" lengthAdjust="spacing" textLength="114" x="713" y="566.2969">VehicleRepository</text><line style="stroke:#181818;stroke-width:0.5;" x1="685" x2="829" y1="576.5" y2="576.5"/><text fill="#000000" font-family="sans-serif" font-size="14" lengthAdjust="spacing" textLength="89" x="690" y="595.6074">-List&lt;Vehicle&gt;</text><line style="stroke:#181818;stroke-width:0.5;" x1="685" x2="829" y1="603.1211" y2="603.1211"/><text fill="#000000" font-family="sans-serif" font-size="14" lengthAdjust="spacing" textLength="106" x="690" y="622.2285">+getVehicleList()</text></g><!--class Vehicle--><g id="elem_Vehicle"><rect codeLine="45" fill="#F1F1F1" height="48" id="Vehicle" rx="2.5" ry="2.5" style="stroke:#181818;stroke-width:0.5;" width="78" x="821" y="937.5"/><ellipse cx="836" cy="953.5" fill="#ADD1B2" rx="11" ry="11" style="stroke:#181818;stroke-width:1.0;"/><path d="M838.7656,949.375 Q838.9219,949.1563 839.1094,949.0469 Q839.2969,948.9375 839.5156,948.9375 Q839.8906,948.9375 840.125,949.2031 Q840.3594,949.4531 840.3594,950.0625 L840.3594,951.5156 Q840.3594,952.125 840.125,952.3906 Q839.8906,952.6563 839.5156,952.6563 Q839.1719,952.6563 838.9688,952.4531 Q838.7656,952.2656 838.6563,951.75 Q838.6094,951.3906 838.4219,951.2031 Q838.0938,950.8281 837.4844,950.6094 Q836.875,950.3906 836.25,950.3906 Q835.4844,950.3906 834.8438,950.7188 Q834.2188,951.0469 833.7188,951.7969 Q833.2344,952.5469 833.2344,953.5781 L833.2344,954.6719 Q833.2344,955.9063 834.125,956.7344 Q835.0156,957.5469 836.6094,957.5469 Q837.5469,957.5469 838.2031,957.2969 Q838.5938,957.1406 839.0156,956.7031 Q839.2813,956.4375 839.4219,956.3594 Q839.5781,956.2813 839.7813,956.2813 Q840.1094,956.2813 840.3594,956.5469 Q840.625,956.7969 840.625,957.1406 Q840.625,957.4844 840.2813,957.8906 Q839.7813,958.4688 838.9844,958.7969 Q837.9063,959.25 836.6094,959.25 Q835.0938,959.25 833.8906,958.625 Q832.9063,958.125 832.2188,957.0625 Q831.5313,955.9844 831.5313,954.7031 L831.5313,953.5469 Q831.5313,952.2188 832.1406,951.0781 Q832.7656,949.9219 833.8594,949.3125 Q834.9531,948.6875 836.1875,948.6875 Q836.9219,948.6875 837.5625,948.8594 Q838.2188,949.0156 838.7656,949.375 Z " fill="#000000"/><text fill="#000000" font-family="sans-serif" font-size="14" lengthAdjust="spacing" textLength="46" x="850" y="959.2969">Vehicle</text><line style="stroke:#181818;stroke-width:0.5;" x1="822" x2="898" y1="969.5" y2="969.5"/><line style="stroke:#181818;stroke-width:0.5;" x1="822" x2="898" y1="977.5" y2="977.5"/></g><!--class Repositories--><g id="elem_Repositories"><rect codeLine="49" fill="#F1F1F1" height="122.4844" id="Repositories" rx="2.5" ry="2.5" style="stroke:#181818;stroke-width:0.5;" width="194" x="660" y="94"/><ellipse cx="713.25" cy="110" fill="#ADD1B2" rx="11" ry="11" style="stroke:#181818;stroke-width:1.0;"/><path d="M716.0156,105.875 Q716.1719,105.6563 716.3594,105.5469 Q716.5469,105.4375 716.7656,105.4375 Q717.1406,105.4375 717.375,105.7031 Q717.6094,105.9531 717.6094,106.5625 L717.6094,108.0156 Q717.6094,108.625 717.375,108.8906 Q717.1406,109.1563 716.7656,109.1563 Q716.4219,109.1563 716.2188,108.9531 Q716.0156,108.7656 715.9063,108.25 Q715.8594,107.8906 715.6719,107.7031 Q715.3438,107.3281 714.7344,107.1094 Q714.125,106.8906 713.5,106.8906 Q712.7344,106.8906 712.0938,107.2188 Q711.4688,107.5469 710.9688,108.2969 Q710.4844,109.0469 710.4844,110.0781 L710.4844,111.1719 Q710.4844,112.4063 711.375,113.2344 Q712.2656,114.0469 713.8594,114.0469 Q714.7969,114.0469 715.4531,113.7969 Q715.8438,113.6406 716.2656,113.2031 Q716.5313,112.9375 716.6719,112.8594 Q716.8281,112.7813 717.0313,112.7813 Q717.3594,112.7813 717.6094,113.0469 Q717.875,113.2969 717.875,113.6406 Q717.875,113.9844 717.5313,114.3906 Q717.0313,114.9688 716.2344,115.2969 Q715.1563,115.75 713.8594,115.75 Q712.3438,115.75 711.1406,115.125 Q710.1563,114.625 709.4688,113.5625 Q708.7813,112.4844 708.7813,111.2031 L708.7813,110.0469 Q708.7813,108.7188 709.3906,107.5781 Q710.0156,106.4219 711.1094,105.8125 Q712.2031,105.1875 713.4375,105.1875 Q714.1719,105.1875 714.8125,105.3594 Q715.4688,105.5156 716.0156,105.875 Z " fill="#000000"/><text fill="#000000" font-family="sans-serif" font-size="14" lengthAdjust="spacing" textLength="79" x="733.75" y="115.7969">Repositories</text><line style="stroke:#181818;stroke-width:0.5;" x1="661" x2="853" y1="126" y2="126"/><line style="stroke:#181818;stroke-width:0.5;" x1="661" x2="853" y1="134" y2="134"/><text fill="#000000" font-family="sans-serif" font-size="14" lengthAdjust="spacing" textLength="94" x="666" y="153.1074">-Repositories()</text><text fill="#000000" font-family="sans-serif" font-size="14" lengthAdjust="spacing" textLength="182" x="666" y="171.7285">+getInstance() : Repositories</text><text fill="#000000" font-family="sans-serif" font-size="14" lengthAdjust="spacing" textLength="139" x="666" y="190.3496">+getEntryRepository()</text><text fill="#000000" font-family="sans-serif" font-size="14" lengthAdjust="spacing" textLength="152" x="666" y="208.9707">+getVehicleRepository()</text></g><!--class EntryMapper--><g id="elem_EntryMapper"><rect codeLine="56" fill="#F1F1F1" height="122.4844" id="EntryMapper" rx="2.5" ry="2.5" style="stroke:#181818;stroke-width:0.5;" width="178" x="868" y="526"/><ellipse cx="912.25" cy="542" fill="#ADD1B2" rx="11" ry="11" style="stroke:#181818;stroke-width:1.0;"/><path d="M915.0156,537.875 Q915.1719,537.6563 915.3594,537.5469 Q915.5469,537.4375 915.7656,537.4375 Q916.1406,537.4375 916.375,537.7031 Q916.6094,537.9531 916.6094,538.5625 L916.6094,540.0156 Q916.6094,540.625 916.375,540.8906 Q916.1406,541.1563 915.7656,541.1563 Q915.4219,541.1563 915.2188,540.9531 Q915.0156,540.7656 914.9063,540.25 Q914.8594,539.8906 914.6719,539.7031 Q914.3438,539.3281 913.7344,539.1094 Q913.125,538.8906 912.5,538.8906 Q911.7344,538.8906 911.0938,539.2188 Q910.4688,539.5469 909.9688,540.2969 Q909.4844,541.0469 909.4844,542.0781 L909.4844,543.1719 Q909.4844,544.4063 910.375,545.2344 Q911.2656,546.0469 912.8594,546.0469 Q913.7969,546.0469 914.4531,545.7969 Q914.8438,545.6406 915.2656,545.2031 Q915.5313,544.9375 915.6719,544.8594 Q915.8281,544.7813 916.0313,544.7813 Q916.3594,544.7813 916.6094,545.0469 Q916.875,545.2969 916.875,545.6406 Q916.875,545.9844 916.5313,546.3906 Q916.0313,546.9688 915.2344,547.2969 Q914.1563,547.75 912.8594,547.75 Q911.3438,547.75 910.1406,547.125 Q909.1563,546.625 908.4688,545.5625 Q907.7813,544.4844 907.7813,543.2031 L907.7813,542.0469 Q907.7813,540.7188 908.3906,539.5781 Q909.0156,538.4219 910.1094,537.8125 Q911.2031,537.1875 912.4375,537.1875 Q913.1719,537.1875 913.8125,537.3594 Q914.4688,537.5156 915.0156,537.875 Z " fill="#000000"/><text fill="#000000" font-family="sans-serif" font-size="14" lengthAdjust="spacing" textLength="81" x="932.75" y="547.7969">EntryMapper</text><line style="stroke:#181818;stroke-width:0.5;" x1="869" x2="1045" y1="558" y2="558"/><text fill="#000000" font-family="sans-serif" font-size="14" lengthAdjust="spacing" textLength="98" x="874" y="577.1074">-List&lt;EntryDto&gt;</text><line style="stroke:#181818;stroke-width:0.5;" x1="869" x2="1045" y1="584.6211" y2="584.6211"/><text fill="#000000" font-family="sans-serif" font-size="14" lengthAdjust="spacing" textLength="122" x="874" y="603.7285">+entryDtoToEntry()</text><text fill="#000000" font-family="sans-serif" font-size="14" lengthAdjust="spacing" textLength="122" x="874" y="622.3496">+entryToEntryDto()</text><text fill="#000000" font-family="sans-serif" font-size="14" lengthAdjust="spacing" textLength="166" x="874" y="640.9707">+entryListToEntryDtoList()</text></g><!--class Task--><g id="elem_Task"><rect codeLine="63" fill="#F1F1F1" height="48" id="Task" rx="2.5" ry="2.5" style="stroke:#181818;stroke-width:0.5;" width="63" x="1089.5" y="764"/><ellipse cx="1104.5" cy="780" fill="#ADD1B2" rx="11" ry="11" style="stroke:#181818;stroke-width:1.0;"/><path d="M1107.2656,775.875 Q1107.4219,775.6563 1107.6094,775.5469 Q1107.7969,775.4375 1108.0156,775.4375 Q1108.3906,775.4375 1108.625,775.7031 Q1108.8594,775.9531 1108.8594,776.5625 L1108.8594,778.0156 Q1108.8594,778.625 1108.625,778.8906 Q1108.3906,779.1563 1108.0156,779.1563 Q1107.6719,779.1563 1107.4688,778.9531 Q1107.2656,778.7656 1107.1563,778.25 Q1107.1094,777.8906 1106.9219,777.7031 Q1106.5938,777.3281 1105.9844,777.1094 Q1105.375,776.8906 1104.75,776.8906 Q1103.9844,776.8906 1103.3438,777.2188 Q1102.7188,777.5469 1102.2188,778.2969 Q1101.7344,779.0469 1101.7344,780.0781 L1101.7344,781.1719 Q1101.7344,782.4063 1102.625,783.2344 Q1103.5156,784.0469 1105.1094,784.0469 Q1106.0469,784.0469 1106.7031,783.7969 Q1107.0938,783.6406 1107.5156,783.2031 Q1107.7813,782.9375 1107.9219,782.8594 Q1108.0781,782.7813 1108.2813,782.7813 Q1108.6094,782.7813 1108.8594,783.0469 Q1109.125,783.2969 1109.125,783.6406 Q1109.125,783.9844 1108.7813,784.3906 Q1108.2813,784.9688 1107.4844,785.2969 Q1106.4063,785.75 1105.1094,785.75 Q1103.5938,785.75 1102.3906,785.125 Q1101.4063,784.625 1100.7188,783.5625 Q1100.0313,782.4844 1100.0313,781.2031 L1100.0313,780.0469 Q1100.0313,778.7188 1100.6406,777.5781 Q1101.2656,776.4219 1102.3594,775.8125 Q1103.4531,775.1875 1104.6875,775.1875 Q1105.4219,775.1875 1106.0625,775.3594 Q1106.7188,775.5156 1107.2656,775.875 Z " fill="#000000"/><text fill="#000000" font-family="sans-serif" font-size="14" lengthAdjust="spacing" textLength="31" x="1118.5" y="785.7969">Task</text><line style="stroke:#181818;stroke-width:0.5;" x1="1090.5" x2="1151.5" y1="796" y2="796"/><line style="stroke:#181818;stroke-width:0.5;" x1="1090.5" x2="1151.5" y1="804" y2="804"/></g><!--class EntryDto--><g id="elem_EntryDto"><rect codeLine="66" fill="#F1F1F1" height="48" id="EntryDto" rx="2.5" ry="2.5" style="stroke:#181818;stroke-width:0.5;" width="87" x="967.5" y="764"/><ellipse cx="982.5" cy="780" fill="#ADD1B2" rx="11" ry="11" style="stroke:#181818;stroke-width:1.0;"/><path d="M985.2656,775.875 Q985.4219,775.6563 985.6094,775.5469 Q985.7969,775.4375 986.0156,775.4375 Q986.3906,775.4375 986.625,775.7031 Q986.8594,775.9531 986.8594,776.5625 L986.8594,778.0156 Q986.8594,778.625 986.625,778.8906 Q986.3906,779.1563 986.0156,779.1563 Q985.6719,779.1563 985.4688,778.9531 Q985.2656,778.7656 985.1563,778.25 Q985.1094,777.8906 984.9219,777.7031 Q984.5938,777.3281 983.9844,777.1094 Q983.375,776.8906 982.75,776.8906 Q981.9844,776.8906 981.3438,777.2188 Q980.7188,777.5469 980.2188,778.2969 Q979.7344,779.0469 979.7344,780.0781 L979.7344,781.1719 Q979.7344,782.4063 980.625,783.2344 Q981.5156,784.0469 983.1094,784.0469 Q984.0469,784.0469 984.7031,783.7969 Q985.0938,783.6406 985.5156,783.2031 Q985.7813,782.9375 985.9219,782.8594 Q986.0781,782.7813 986.2813,782.7813 Q986.6094,782.7813 986.8594,783.0469 Q987.125,783.2969 987.125,783.6406 Q987.125,783.9844 986.7813,784.3906 Q986.2813,784.9688 985.4844,785.2969 Q984.4063,785.75 983.1094,785.75 Q981.5938,785.75 980.3906,785.125 Q979.4063,784.625 978.7188,783.5625 Q978.0313,782.4844 978.0313,781.2031 L978.0313,780.0469 Q978.0313,778.7188 978.6406,777.5781 Q979.2656,776.4219 980.3594,775.8125 Q981.4531,775.1875 982.6875,775.1875 Q983.4219,775.1875 984.0625,775.3594 Q984.7188,775.5156 985.2656,775.875 Z " fill="#000000"/><text fill="#000000" font-family="sans-serif" font-size="14" lengthAdjust="spacing" textLength="55" x="996.5" y="785.7969">EntryDto</text><line style="stroke:#181818;stroke-width:0.5;" x1="968.5" x2="1053.5" y1="796" y2="796"/><line style="stroke:#181818;stroke-width:0.5;" x1="968.5" x2="1053.5" y1="804" y2="804"/></g><!--class VehicleMapper--><g id="elem_VehicleMapper"><rect codeLine="69" fill="#F1F1F1" height="122.4844" id="VehicleMapper" rx="2.5" ry="2.5" style="stroke:#181818;stroke-width:0.5;" width="203" x="610.5" y="727"/><ellipse cx="660.75" cy="743" fill="#ADD1B2" rx="11" ry="11" style="stroke:#181818;stroke-width:1.0;"/><path d="M663.5156,738.875 Q663.6719,738.6563 663.8594,738.5469 Q664.0469,738.4375 664.2656,738.4375 Q664.6406,738.4375 664.875,738.7031 Q665.1094,738.9531 665.1094,739.5625 L665.1094,741.0156 Q665.1094,741.625 664.875,741.8906 Q664.6406,742.1563 664.2656,742.1563 Q663.9219,742.1563 663.7188,741.9531 Q663.5156,741.7656 663.4063,741.25 Q663.3594,740.8906 663.1719,740.7031 Q662.8438,740.3281 662.2344,740.1094 Q661.625,739.8906 661,739.8906 Q660.2344,739.8906 659.5938,740.2188 Q658.9688,740.5469 658.4688,741.2969 Q657.9844,742.0469 657.9844,743.0781 L657.9844,744.1719 Q657.9844,745.4063 658.875,746.2344 Q659.7656,747.0469 661.3594,747.0469 Q662.2969,747.0469 662.9531,746.7969 Q663.3438,746.6406 663.7656,746.2031 Q664.0313,745.9375 664.1719,745.8594 Q664.3281,745.7813 664.5313,745.7813 Q664.8594,745.7813 665.1094,746.0469 Q665.375,746.2969 665.375,746.6406 Q665.375,746.9844 665.0313,747.3906 Q664.5313,747.9688 663.7344,748.2969 Q662.6563,748.75 661.3594,748.75 Q659.8438,748.75 658.6406,748.125 Q657.6563,747.625 656.9688,746.5625 Q656.2813,745.4844 656.2813,744.2031 L656.2813,743.0469 Q656.2813,741.7188 656.8906,740.5781 Q657.5156,739.4219 658.6094,738.8125 Q659.7031,738.1875 660.9375,738.1875 Q661.6719,738.1875 662.3125,738.3594 Q662.9688,738.5156 663.5156,738.875 Z " fill="#000000"/><text fill="#000000" font-family="sans-serif" font-size="14" lengthAdjust="spacing" textLength="94" x="681.25" y="748.7969">VehicleMapper</text><line style="stroke:#181818;stroke-width:0.5;" x1="611.5" x2="812.5" y1="759" y2="759"/><text fill="#000000" font-family="sans-serif" font-size="14" lengthAdjust="spacing" textLength="111" x="616.5" y="778.1074">-List&lt;VehicleDto&gt;</text><line style="stroke:#181818;stroke-width:0.5;" x1="611.5" x2="812.5" y1="785.6211" y2="785.6211"/><text fill="#000000" font-family="sans-serif" font-size="14" lengthAdjust="spacing" textLength="191" x="616.5" y="804.7285">+vehicleListToVehicleDtoList()</text><text fill="#000000" font-family="sans-serif" font-size="14" lengthAdjust="spacing" textLength="147" x="616.5" y="823.3496">+vehicleToVehicleDto()</text><text fill="#000000" font-family="sans-serif" font-size="14" lengthAdjust="spacing" textLength="147" x="616.5" y="841.9707">+vehicleDtoToVehicle()</text></g><!--class VehicleDto--><g id="elem_VehicleDto"><rect codeLine="76" fill="#F1F1F1" height="48" id="VehicleDto" rx="2.5" ry="2.5" style="stroke:#181818;stroke-width:0.5;" width="100" x="662" y="937.5"/><ellipse cx="677" cy="953.5" fill="#ADD1B2" rx="11" ry="11" style="stroke:#181818;stroke-width:1.0;"/><path d="M679.7656,949.375 Q679.9219,949.1563 680.1094,949.0469 Q680.2969,948.9375 680.5156,948.9375 Q680.8906,948.9375 681.125,949.2031 Q681.3594,949.4531 681.3594,950.0625 L681.3594,951.5156 Q681.3594,952.125 681.125,952.3906 Q680.8906,952.6563 680.5156,952.6563 Q680.1719,952.6563 679.9688,952.4531 Q679.7656,952.2656 679.6563,951.75 Q679.6094,951.3906 679.4219,951.2031 Q679.0938,950.8281 678.4844,950.6094 Q677.875,950.3906 677.25,950.3906 Q676.4844,950.3906 675.8438,950.7188 Q675.2188,951.0469 674.7188,951.7969 Q674.2344,952.5469 674.2344,953.5781 L674.2344,954.6719 Q674.2344,955.9063 675.125,956.7344 Q676.0156,957.5469 677.6094,957.5469 Q678.5469,957.5469 679.2031,957.2969 Q679.5938,957.1406 680.0156,956.7031 Q680.2813,956.4375 680.4219,956.3594 Q680.5781,956.2813 680.7813,956.2813 Q681.1094,956.2813 681.3594,956.5469 Q681.625,956.7969 681.625,957.1406 Q681.625,957.4844 681.2813,957.8906 Q680.7813,958.4688 679.9844,958.7969 Q678.9063,959.25 677.6094,959.25 Q676.0938,959.25 674.8906,958.625 Q673.9063,958.125 673.2188,957.0625 Q672.5313,955.9844 672.5313,954.7031 L672.5313,953.5469 Q672.5313,952.2188 673.1406,951.0781 Q673.7656,949.9219 674.8594,949.3125 Q675.9531,948.6875 677.1875,948.6875 Q677.9219,948.6875 678.5625,948.8594 Q679.2188,949.0156 679.7656,949.375 Z " fill="#000000"/><text fill="#000000" font-family="sans-serif" font-size="14" lengthAdjust="spacing" textLength="68" x="691" y="959.2969">VehicleDto</text><line style="stroke:#181818;stroke-width:0.5;" x1="663" x2="761" y1="969.5" y2="969.5"/><line style="stroke:#181818;stroke-width:0.5;" x1="663" x2="761" y1="977.5" y2="977.5"/></g><!--class AssignedVehicleToEntryController--><g id="elem_AssignedVehicleToEntryController"><rect codeLine="89" fill="#F1F1F1" height="178.3477" id="AssignedVehicleToEntryController" rx="2.5" ry="2.5" style="stroke:#181818;stroke-width:0.5;" width="248" x="306" y="66"/><ellipse cx="321" cy="82" fill="#ADD1B2" rx="11" ry="11" style="stroke:#181818;stroke-width:1.0;"/><path d="M323.7656,77.875 Q323.9219,77.6563 324.1094,77.5469 Q324.2969,77.4375 324.5156,77.4375 Q324.8906,77.4375 325.125,77.7031 Q325.3594,77.9531 325.3594,78.5625 L325.3594,80.0156 Q325.3594,80.625 325.125,80.8906 Q324.8906,81.1563 324.5156,81.1563 Q324.1719,81.1563 323.9688,80.9531 Q323.7656,80.7656 323.6563,80.25 Q323.6094,79.8906 323.4219,79.7031 Q323.0938,79.3281 322.4844,79.1094 Q321.875,78.8906 321.25,78.8906 Q320.4844,78.8906 319.8438,79.2188 Q319.2188,79.5469 318.7188,80.2969 Q318.2344,81.0469 318.2344,82.0781 L318.2344,83.1719 Q318.2344,84.4063 319.125,85.2344 Q320.0156,86.0469 321.6094,86.0469 Q322.5469,86.0469 323.2031,85.7969 Q323.5938,85.6406 324.0156,85.2031 Q324.2813,84.9375 324.4219,84.8594 Q324.5781,84.7813 324.7813,84.7813 Q325.1094,84.7813 325.3594,85.0469 Q325.625,85.2969 325.625,85.6406 Q325.625,85.9844 325.2813,86.3906 Q324.7813,86.9688 323.9844,87.2969 Q322.9063,87.75 321.6094,87.75 Q320.0938,87.75 318.8906,87.125 Q317.9063,86.625 317.2188,85.5625 Q316.5313,84.4844 316.5313,83.2031 L316.5313,82.0469 Q316.5313,80.7188 317.1406,79.5781 Q317.7656,78.4219 318.8594,77.8125 Q319.9531,77.1875 321.1875,77.1875 Q321.9219,77.1875 322.5625,77.3594 Q323.2188,77.5156 323.7656,77.875 Z " fill="#000000"/><text fill="#000000" font-family="sans-serif" font-size="14" lengthAdjust="spacing" textLength="216" x="335" y="87.7969">AssignedVehicleToEntryController</text><line style="stroke:#181818;stroke-width:0.5;" x1="307" x2="553" y1="98" y2="98"/><text fill="#000000" font-family="sans-serif" font-size="14" lengthAdjust="spacing" textLength="210" x="312" y="117.1074">-EntryRepository entryRepository</text><text fill="#000000" font-family="sans-serif" font-size="14" lengthAdjust="spacing" textLength="235" x="312" y="135.7285">-VehicleRepository vehicleRepository</text><line style="stroke:#181818;stroke-width:0.5;" x1="307" x2="553" y1="143.2422" y2="143.2422"/><text fill="#000000" font-family="sans-serif" font-size="14" lengthAdjust="spacing" textLength="234" x="312" y="162.3496">+AssignedVehicleToEntryController()</text><text fill="#000000" font-family="sans-serif" font-size="14" lengthAdjust="spacing" textLength="221" x="312" y="180.9707">+assignVehicleToEntry(vehicleDto)</text><text fill="#000000" font-family="sans-serif" font-size="14" lengthAdjust="spacing" textLength="138" x="312" y="199.5918">+getEntrysInAgenda()</text><text fill="#000000" font-family="sans-serif" font-size="14" lengthAdjust="spacing" textLength="106" x="312" y="218.2129">+getVehicleList()</text><text fill="#000000" font-family="sans-serif" font-size="14" lengthAdjust="spacing" textLength="196" x="312" y="236.834">-getCollaboratorFromSession()</text></g><g id="elem_GMN21"><path d="M23.5,141.5 L23.5,168.791 A0,0 0 0 0 23.5,168.791 L270.5,168.791 A0,0 0 0 0 270.5,168.791 L270.5,159.5 L305.7,155 L270.5,151.5 L270.5,151.5 L260.5,141.5 L23.5,141.5 A0,0 0 0 0 23.5,141.5 " fill="#FEFFDD" style="stroke:#181818;stroke-width:0.5;"/><path d="M260.5,141.5 L260.5,151.5 L270.5,151.5 L260.5,141.5 " fill="#FEFFDD" style="stroke:#181818;stroke-width:0.5;"/><text fill="#000000" font-family="sans-serif" font-size="13" lengthAdjust="spacing" textLength="226" x="29.5" y="160.5283">- entry is achieved with entry repository</text></g><!--class AssignedVehicleToEntryUI--><g id="elem_AssignedVehicleToEntryUI"><rect codeLine="110" fill="#F1F1F1" height="66.6211" id="AssignedVehicleToEntryUI" rx="2.5" ry="2.5" style="stroke:#181818;stroke-width:0.5;" width="198" x="1415" y="121.5"/><ellipse cx="1430" cy="137.5" fill="#ADD1B2" rx="11" ry="11" style="stroke:#181818;stroke-width:1.0;"/><path d="M1432.7656,133.375 Q1432.9219,133.1563 1433.1094,133.0469 Q1433.2969,132.9375 1433.5156,132.9375 Q1433.8906,132.9375 1434.125,133.2031 Q1434.3594,133.4531 1434.3594,134.0625 L1434.3594,135.5156 Q1434.3594,136.125 1434.125,136.3906 Q1433.8906,136.6563 1433.5156,136.6563 Q1433.1719,136.6563 1432.9688,136.4531 Q1432.7656,136.2656 1432.6563,135.75 Q1432.6094,135.3906 1432.4219,135.2031 Q1432.0938,134.8281 1431.4844,134.6094 Q1430.875,134.3906 1430.25,134.3906 Q1429.4844,134.3906 1428.8438,134.7188 Q1428.2188,135.0469 1427.7188,135.7969 Q1427.2344,136.5469 1427.2344,137.5781 L1427.2344,138.6719 Q1427.2344,139.9063 1428.125,140.7344 Q1429.0156,141.5469 1430.6094,141.5469 Q1431.5469,141.5469 1432.2031,141.2969 Q1432.5938,141.1406 1433.0156,140.7031 Q1433.2813,140.4375 1433.4219,140.3594 Q1433.5781,140.2813 1433.7813,140.2813 Q1434.1094,140.2813 1434.3594,140.5469 Q1434.625,140.7969 1434.625,141.1406 Q1434.625,141.4844 1434.2813,141.8906 Q1433.7813,142.4688 1432.9844,142.7969 Q1431.9063,143.25 1430.6094,143.25 Q1429.0938,143.25 1427.8906,142.625 Q1426.9063,142.125 1426.2188,141.0625 Q1425.5313,139.9844 1425.5313,138.7031 L1425.5313,137.5469 Q1425.5313,136.2188 1426.1406,135.0781 Q1426.7656,133.9219 1427.8594,133.3125 Q1428.9531,132.6875 1430.1875,132.6875 Q1430.9219,132.6875 1431.5625,132.8594 Q1432.2188,133.0156 1432.7656,133.375 Z " fill="#000000"/><text fill="#000000" font-family="sans-serif" font-size="14" lengthAdjust="spacing" textLength="166" x="1444" y="143.2969">AssignedVehicleToEntryUI</text><line style="stroke:#181818;stroke-width:0.5;" x1="1416" x2="1612" y1="153.5" y2="153.5"/><line style="stroke:#181818;stroke-width:0.5;" x1="1416" x2="1612" y1="161.5" y2="161.5"/><text fill="#000000" font-family="sans-serif" font-size="14" lengthAdjust="spacing" textLength="177" x="1421" y="180.6074">+assignVehicleListToEntry()</text></g><!--class GSMUser--><g id="elem_GSMUser"><rect codeLine="83" fill="#F1F1F1" height="48" id="GSMUser" rx="2.5" ry="2.5" style="stroke:#181818;stroke-width:0.5;" width="92" x="1391" y="937.5"/><ellipse cx="1406" cy="953.5" fill="#ADD1B2" rx="11" ry="11" style="stroke:#181818;stroke-width:1.0;"/><path d="M1408.7656,949.375 Q1408.9219,949.1563 1409.1094,949.0469 Q1409.2969,948.9375 1409.5156,948.9375 Q1409.8906,948.9375 1410.125,949.2031 Q1410.3594,949.4531 1410.3594,950.0625 L1410.3594,951.5156 Q1410.3594,952.125 1410.125,952.3906 Q1409.8906,952.6563 1409.5156,952.6563 Q1409.1719,952.6563 1408.9688,952.4531 Q1408.7656,952.2656 1408.6563,951.75 Q1408.6094,951.3906 1408.4219,951.2031 Q1408.0938,950.8281 1407.4844,950.6094 Q1406.875,950.3906 1406.25,950.3906 Q1405.4844,950.3906 1404.8438,950.7188 Q1404.2188,951.0469 1403.7188,951.7969 Q1403.2344,952.5469 1403.2344,953.5781 L1403.2344,954.6719 Q1403.2344,955.9063 1404.125,956.7344 Q1405.0156,957.5469 1406.6094,957.5469 Q1407.5469,957.5469 1408.2031,957.2969 Q1408.5938,957.1406 1409.0156,956.7031 Q1409.2813,956.4375 1409.4219,956.3594 Q1409.5781,956.2813 1409.7813,956.2813 Q1410.1094,956.2813 1410.3594,956.5469 Q1410.625,956.7969 1410.625,957.1406 Q1410.625,957.4844 1410.2813,957.8906 Q1409.7813,958.4688 1408.9844,958.7969 Q1407.9063,959.25 1406.6094,959.25 Q1405.0938,959.25 1403.8906,958.625 Q1402.9063,958.125 1402.2188,957.0625 Q1401.5313,955.9844 1401.5313,954.7031 L1401.5313,953.5469 Q1401.5313,952.2188 1402.1406,951.0781 Q1402.7656,949.9219 1403.8594,949.3125 Q1404.9531,948.6875 1406.1875,948.6875 Q1406.9219,948.6875 1407.5625,948.8594 Q1408.2188,949.0156 1408.7656,949.375 Z " fill="#000000"/><text fill="#000000" font-family="sans-serif" font-size="14" lengthAdjust="spacing" textLength="60" x="1420" y="959.2969">GSMUser</text><line style="stroke:#181818;stroke-width:0.5;" x1="1392" x2="1482" y1="969.5" y2="969.5"/><line style="stroke:#181818;stroke-width:0.5;" x1="1392" x2="1482" y1="977.5" y2="977.5"/></g><!--link Repositories to Repositories--><g id="link_Repositories_Repositories"><path codeLine="115" d="M854.28,131.48 C874.48,133.96 889,141.8 889,155 C889,168.2 880.4353,175.3089 860.2353,177.7889 " fill="none" id="Repositories-to-Repositories" style="stroke:#181818;stroke-width:1.0;"/><polygon fill="#181818" points="854.28,178.52,863.7004,181.3935,859.2427,177.9107,862.7255,173.4531,854.28,178.52" style="stroke:#181818;stroke-width:1.0;"/><text fill="#000000" font-family="sans-serif" font-size="13" lengthAdjust="spacing" textLength="49" x="895" y="160.5283">instance</text></g><!--link AssignedVehicleToEntryUI to AssignedVehicleToEntryController--><g id="link_AssignedVehicleToEntryUI_AssignedVehicleToEntryController"><path codeLine="118" d="M1478.92,121.19 C1437.75,81.49 1375,21 1375,21 C1375,21 1357.5,6 1357.5,6 C1357.5,6 611.5,6 611.5,6 C611.5,6 581.8574,30.3329 543.0974,62.1529 " fill="none" id="AssignedVehicleToEntryUI-to-AssignedVehicleToEntryController" style="stroke:#181818;stroke-width:1.0;stroke-dasharray:7.0,7.0;"/><polygon fill="#181818" points="538.46,65.96,547.9542,63.341,542.3245,62.7874,542.8781,57.1577,538.46,65.96" style="stroke:#181818;stroke-width:1.0;"/></g><!--link AssignedVehicleToEntryController to Repositories--><g id="link_AssignedVehicleToEntryController_Repositories"><path codeLine="120" d="M554.09,155 C589.14,155 620.76,155 653.97,155 " fill="none" id="AssignedVehicleToEntryController-to-Repositories" style="stroke:#181818;stroke-width:1.0;stroke-dasharray:7.0,7.0;"/><polygon fill="#181818" points="659.97,155,650.97,151,654.97,155,650.97,159,659.97,155" style="stroke:#181818;stroke-width:1.0;"/><text fill="#000000" font-family="sans-serif" font-size="13" lengthAdjust="spacing" textLength="67" x="573.5" y="148.0283">repositories</text></g><!--link Repositories to EntryRepository--><g id="link_Repositories_EntryRepository"><path codeLine="121" d="M828.73,216.17 C868.7,249.69 913.7132,287.4539 953.6832,320.9839 " fill="none" id="Repositories-to-EntryRepository" style="stroke:#181818;stroke-width:1.0;"/><polygon fill="#181818" points="958.28,324.84,953.9556,315.9913,954.4494,321.6266,948.8141,322.1203,958.28,324.84" style="stroke:#181818;stroke-width:1.0;"/><text fill="#000000" font-family="sans-serif" font-size="13" lengthAdjust="spacing" textLength="7" x="830.0455" y="238.6776">1</text><text fill="#000000" font-family="sans-serif" font-size="13" lengthAdjust="spacing" textLength="7" x="942.5827" y="313.8027">1</text></g><!--link Repositories to VehicleRepository--><g id="link_Repositories_VehicleRepository"><path codeLine="122" d="M757,216.24 C757,304.77 757,461.76 757,538.27 " fill="none" id="Repositories-to-VehicleRepository" style="stroke:#181818;stroke-width:1.0;"/><polygon fill="#181818" points="757,544.27,761,535.27,757,539.27,753,535.27,757,544.27" style="stroke:#181818;stroke-width:1.0;"/><text fill="#000000" font-family="sans-serif" font-size="13" lengthAdjust="spacing" textLength="7" x="749.5953" y="238.3208">1</text><text fill="#000000" font-family="sans-serif" font-size="13" lengthAdjust="spacing" textLength="7" x="749.4422" y="533.1374">1</text></g><!--link AssignedVehicleToEntryController to EntryRepository--><g id="link_AssignedVehicleToEntryController_EntryRepository"><path codeLine="124" d="M554.3,240.89 C577.17,256.51 594,268 594,268 C594,268 739.1451,306.9447 863.4051,340.2947 " fill="none" id="AssignedVehicleToEntryController-to-EntryRepository" style="stroke:#181818;stroke-width:1.0;stroke-dasharray:7.0,7.0;"/><polygon fill="#181818" points="869.2,341.85,861.5445,335.6538,864.3709,340.5539,859.4708,343.3803,869.2,341.85" style="stroke:#181818;stroke-width:1.0;"/><text fill="#000000" font-family="sans-serif" font-size="13" lengthAdjust="spacing" textLength="93" x="689" y="291.0283">EntryRepository</text></g><!--link AssignedVehicleToEntryController to EntryMapper--><g id="link_AssignedVehicleToEntryController_EntryMapper"><path codeLine="125" d="M534.75,244.1 C636.59,329.75 776,447 776,447 C776,447 824.9918,484.615 873.9018,522.185 " fill="none" id="AssignedVehicleToEntryController-to-EntryMapper" style="stroke:#181818;stroke-width:1.0;stroke-dasharray:7.0,7.0;"/><polygon fill="#181818" points="878.66,525.84,873.9593,517.1853,874.6948,522.7942,869.086,523.5296,878.66,525.84" style="stroke:#181818;stroke-width:1.0;"/><text fill="#000000" font-family="sans-serif" font-size="13" lengthAdjust="spacing" textLength="74" x="777" y="391.5283">EntryMapper</text></g><!--link AssignedVehicleToEntryController to VehicleMapper--><g id="link_AssignedVehicleToEntryController_VehicleMapper"><path codeLine="126" d="M469.36,244.07 C527.52,374.21 632.4822,609.062 682.5422,721.092 " fill="none" id="AssignedVehicleToEntryController-to-VehicleMapper" style="stroke:#181818;stroke-width:1.0;stroke-dasharray:7.0,7.0;"/><polygon fill="#181818" points="684.99,726.57,684.9703,716.7212,682.9502,722.005,677.6663,719.9849,684.99,726.57" style="stroke:#181818;stroke-width:1.0;"/><text fill="#000000" font-family="sans-serif" font-size="13" lengthAdjust="spacing" textLength="86" x="581" y="492.0283">VehicleMapper</text></g><!--link EntryMapper to EntryDto--><g id="link_EntryMapper_EntryDto"><path codeLine="128" d="M973.35,648.25 C983.9,687.14 995.4679,729.7796 1003.1079,757.9196 " fill="none" id="EntryMapper-to-EntryDto" style="stroke:#181818;stroke-width:1.0;stroke-dasharray:7.0,7.0;"/><polygon fill="#181818" points="1004.68,763.71,1006.1821,753.9764,1003.3699,758.8847,998.4616,756.0725,1004.68,763.71" style="stroke:#181818;stroke-width:1.0;"/><text fill="#000000" font-family="sans-serif" font-size="13" lengthAdjust="spacing" textLength="7" x="967.8358" y="670.332">1</text><text fill="#000000" font-family="sans-serif" font-size="13" lengthAdjust="spacing" textLength="5" x="997.5301" y="752.7812">*</text></g><!--link EntryMapper to Entry--><g id="link_EntryMapper_Entry"><path codeLine="129" d="M1046.33,640.28 C1105.85,675.12 1177.3619,716.979 1230.1519,747.879 " fill="none" id="EntryMapper-to-Entry" style="stroke:#181818;stroke-width:1.0;stroke-dasharray:7.0,7.0;"/><polygon fill="#181818" points="1235.33,750.91,1229.5834,742.9114,1231.0149,748.3842,1225.5421,749.8156,1235.33,750.91" style="stroke:#181818;stroke-width:1.0;"/><text fill="#000000" font-family="sans-serif" font-size="13" lengthAdjust="spacing" textLength="7" x="1054.0175" y="641.0087">1</text><text fill="#000000" font-family="sans-serif" font-size="13" lengthAdjust="spacing" textLength="5" x="1222.5093" y="742.3703">*</text></g><!--link VehicleRepository to Vehicle--><g id="link_VehicleRepository_Vehicle"><path codeLine="131" d="M779.2,629.7 C801,670.65 831,727 831,727 C831,727 849.041,872.2457 856.371,931.3057 " fill="none" id="VehicleRepository-to-Vehicle" style="stroke:#181818;stroke-width:1.0;"/><polygon fill="#181818" points="857.11,937.26,859.971,927.8359,856.4942,932.2981,852.032,928.8212,857.11,937.26" style="stroke:#181818;stroke-width:1.0;"/><text fill="#000000" font-family="sans-serif" font-size="13" lengthAdjust="spacing" textLength="46" x="846" y="793.5283">vehicles</text><text fill="#000000" font-family="sans-serif" font-size="13" lengthAdjust="spacing" textLength="7" x="775.1803" y="651.8922">1</text><text fill="#000000" font-family="sans-serif" font-size="13" lengthAdjust="spacing" textLength="5" x="850.7962" y="926.3434">*</text></g><!--link VehicleMapper to Vehicle--><g id="link_VehicleMapper_Vehicle"><path codeLine="132" d="M764.18,849.46 C790.31,879.75 816.5091,910.1083 835.8991,932.5683 " fill="none" id="VehicleMapper-to-Vehicle" style="stroke:#181818;stroke-width:1.0;"/><polygon fill="#181818" points="839.82,937.11,836.9665,927.6836,836.5526,933.3253,830.9109,932.9114,839.82,937.11" style="stroke:#181818;stroke-width:1.0;"/><text fill="#000000" font-family="sans-serif" font-size="13" lengthAdjust="spacing" textLength="7" x="762.8086" y="871.5663">1</text><text fill="#000000" font-family="sans-serif" font-size="13" lengthAdjust="spacing" textLength="5" x="829.2918" y="926.1569">*</text></g><!--link EntryMapper to VehicleMapper--><g id="link_EntryMapper_VehicleMapper"><path codeLine="133" d="M882.83,648.25 C852.12,673.18 821.2572,698.2571 790.5772,723.1771 " fill="none" id="EntryMapper-to-VehicleMapper" style="stroke:#181818;stroke-width:1.0;"/><polygon fill="#181818" points="785.92,726.96,795.4278,724.3905,789.801,723.8076,790.3839,718.1809,785.92,726.96" style="stroke:#181818;stroke-width:1.0;"/><text fill="#000000" font-family="sans-serif" font-size="13" lengthAdjust="spacing" textLength="7" x="866.8494" y="670.332">1</text><text fill="#000000" font-family="sans-serif" font-size="13" lengthAdjust="spacing" textLength="7" x="787.0623" y="715.9366">1</text></g><!--link EntryRepository to Entry--><g id="link_EntryRepository_Entry"><path codeLine="134" d="M1119.16,447.16 C1174.83,484.73 1236,526 1236,526 C1236,526 1263.5441,643.8675 1281.5641,720.9475 " fill="none" id="EntryRepository-to-Entry" style="stroke:#181818;stroke-width:1.0;"/><polygon fill="#181818" points="1282.93,726.79,1284.7762,717.1157,1281.7918,721.9213,1276.9862,718.9369,1282.93,726.79" style="stroke:#181818;stroke-width:1.0;"/><text fill="#000000" font-family="sans-serif" font-size="13" lengthAdjust="spacing" textLength="38" x="1265" y="592.5283">entry's</text><text fill="#000000" font-family="sans-serif" font-size="13" lengthAdjust="spacing" textLength="7" x="1122.5998" y="469.6663">1</text><text fill="#000000" font-family="sans-serif" font-size="13" lengthAdjust="spacing" textLength="5" x="1276.0141" y="715.7469">*</text></g><!--link EntryRepository to GSMUser--><g id="link_EntryRepository_GSMUser"><path codeLine="135" d="M1152.05,447.16 C1228.26,484.73 1312,526 1312,526 C1312,526 1376,727 1376,727 C1376,727 1413.9833,872.3948 1429.4133,931.4548 " fill="none" id="EntryRepository-to-GSMUser" style="stroke:#181818;stroke-width:1.0;"/><polygon fill="#181818" points="1430.93,937.26,1432.5251,927.5412,1429.6661,932.4224,1424.7849,929.5634,1430.93,937.26" style="stroke:#181818;stroke-width:1.0;"/><text fill="#000000" font-family="sans-serif" font-size="13" lengthAdjust="spacing" textLength="49" x="1367" y="693.0283">employs</text><text fill="#000000" font-family="sans-serif" font-size="13" lengthAdjust="spacing" textLength="5" x="1423.8411" y="926.3434">*</text></g><!--link EntryRepository to EntryMapper--><g id="link_EntryRepository_EntryMapper"><path codeLine="136" d="M1007.9,447.25 C998.75,472.18 990.2361,495.4069 981.0961,520.3269 " fill="none" id="EntryRepository-to-EntryMapper" style="stroke:#181818;stroke-width:1.0;stroke-dasharray:7.0,7.0;"/><polygon fill="#181818" points="979.03,525.96,985.8845,518.8878,980.7517,521.2658,978.3737,516.133,979.03,525.96" style="stroke:#181818;stroke-width:1.0;"/></g><!--link VehicleRepository to VehicleMapper--><g id="link_VehicleRepository_VehicleMapper"><path codeLine="137" d="M747.57,629.72 C741.2,657.87 734.0241,689.6079 726.9241,720.9879 " fill="none" id="VehicleRepository-to-VehicleMapper" style="stroke:#181818;stroke-width:1.0;stroke-dasharray:7.0,7.0;"/><polygon fill="#181818" points="725.6,726.84,731.4875,718.9446,726.7034,721.9633,723.6847,717.1792,725.6,726.84" style="stroke:#181818;stroke-width:1.0;"/></g><!--link VehicleMapper to VehicleDto--><g id="link_VehicleMapper_VehicleDto"><path codeLine="139" d="M712,849.46 C712,879.75 712,908.65 712,931.11 " fill="none" id="VehicleMapper-to-VehicleDto" style="stroke:#181818;stroke-width:1.0;"/><polygon fill="#181818" points="712,937.11,716,928.11,712,932.11,708,928.11,712,937.11" style="stroke:#181818;stroke-width:1.0;"/><text fill="#000000" font-family="sans-serif" font-size="13" lengthAdjust="spacing" textLength="7" x="704.5953" y="871.5663">1</text><text fill="#000000" font-family="sans-serif" font-size="13" lengthAdjust="spacing" textLength="5" x="706.3906" y="926.1569">*</text></g><!--link Entry to GSMUser--><g id="link_Entry_GSMUser"><path codeLine="141" d="M1324.63,849.24 C1336.2,874.45 1347,898 1347,898 C1347,898 1373.1819,916.1774 1398.8119,933.9774 " fill="none" id="Entry-to-GSMUser" style="stroke:#181818;stroke-width:1.0;"/><polygon fill="#181818" points="1403.74,937.4,1398.6296,928.9808,1399.6333,934.5479,1394.0662,935.5516,1403.74,937.4" style="stroke:#181818;stroke-width:1.0;"/><text fill="#000000" font-family="sans-serif" font-size="13" lengthAdjust="spacing" textLength="49" x="1348" y="894.0283">employs</text><text fill="#000000" font-family="sans-serif" font-size="13" lengthAdjust="spacing" textLength="5" x="1389.5765" y="926.1119">*</text></g><!--link Task to Entry--><g id="link_Task_Entry"><path codeLine="142" d="M1152.87,788 C1175.85,788 1201.6,788 1229.45,788 " fill="none" id="Task-to-Entry" style="stroke:#181818;stroke-width:1.0;"/><polygon fill="#181818" points="1235.45,788,1226.45,784,1230.45,788,1226.45,792,1235.45,788" style="stroke:#181818;stroke-width:1.0;"/><text fill="#000000" font-family="sans-serif" font-size="13" lengthAdjust="spacing" textLength="46" x="1171" y="781.0283">extends</text><text fill="#000000" font-family="sans-serif" font-size="13" lengthAdjust="spacing" textLength="7" x="1160.6072" y="783.2008">1</text><text fill="#000000" font-family="sans-serif" font-size="13" lengthAdjust="spacing" textLength="7" x="1220.522" y="783.9806">1</text></g><!--link Entry to EntryState--><g id="link_Entry_EntryState"><path codeLine="144" d="M1256.81,849.46 C1239.24,875.89 1222.6614,900.8332 1207.9514,922.9632 " fill="none" id="Entry-to-EntryState" style="stroke:#181818;stroke-width:1.0;"/><polygon fill="#181818" points="1204.63,927.96,1212.9433,922.6791,1207.3979,923.796,1206.2809,918.2505,1204.63,927.96" style="stroke:#181818;stroke-width:1.0;"/><text fill="#000000" font-family="sans-serif" font-size="13" lengthAdjust="spacing" textLength="26" x="1237" y="894.0283">have</text><text fill="#000000" font-family="sans-serif" font-size="13" lengthAdjust="spacing" textLength="7" x="1244.7583" y="871.5663">1</text><text fill="#000000" font-family="sans-serif" font-size="13" lengthAdjust="spacing" textLength="7" x="1201.1993" y="916.7776">1</text></g><!--link EntryDto to EntryState--><g id="link_EntryDto_EntryState"><path codeLine="145" d="M1034.2,812.13 C1064.09,841.94 1111.9905,889.7042 1145.9405,923.5442 " fill="none" id="EntryDto-to-EntryState" style="stroke:#181818;stroke-width:1.0;"/><polygon fill="#181818" points="1150.19,927.78,1146.6396,918.5934,1146.6487,924.2502,1140.9919,924.2594,1150.19,927.78" style="stroke:#181818;stroke-width:1.0;"/><text fill="#000000" font-family="sans-serif" font-size="13" lengthAdjust="spacing" textLength="26" x="1118" y="894.0283">have</text><text fill="#000000" font-family="sans-serif" font-size="13" lengthAdjust="spacing" textLength="7" x="1032.0019" y="834.1474">1</text><text fill="#000000" font-family="sans-serif" font-size="13" lengthAdjust="spacing" textLength="7" x="1136.2684" y="916.824">1</text></g><!--link EntryDto to TaskDto--><g id="link_EntryDto_TaskDto"><path codeLine="146" d="M1011,812.13 C1011,844.95 1011,898.69 1011,931.46 " fill="none" id="EntryDto-to-TaskDto" style="stroke:#181818;stroke-width:1.0;"/><polygon fill="#181818" points="1011,937.46,1015,928.46,1011,932.46,1007,928.46,1011,937.46" style="stroke:#181818;stroke-width:1.0;"/><text fill="#000000" font-family="sans-serif" font-size="13" lengthAdjust="spacing" textLength="7" x="1003.1469" y="834.1474">1</text><text fill="#000000" font-family="sans-serif" font-size="13" lengthAdjust="spacing" textLength="7" x="1003.1031" y="926.1872">1</text></g><!--SRC=[dLPDJnin4BtxLrYvf423sck48Y6WLQJ2eGdSdSqaQx5hhsmdD8tuxnr_xDhx0OdA1JppFFDcvetPiNxbecAAbRIKGcQvaYLGetP0egTYsIlRmi8S2g0ACiF4jaW1EcTh-SR5bcvOeLDFmGMOGmMqaiN17iXum2cLaIIvbHLCwrjZ55_j3CmpAHRyBz1lX8mBs1Xg95LycnkwvfOEbuAGG9AExcN9k1ZH8t5Xw8Cmwe0dYZyJ-ejhS_C2ESyAc3dRbKTykGWd3UO9tWAaiIeevHwYzPsauHU66GWf7iIkfCuGGKkcN- -DFA8bkVKRAgcvaHrwzCPvPtHAiI2nPYHms8AvTGQBQfXXEBuLWTbI-cBs_lWLxAb6RdXXG0MaVfBcMSDSB7a9DTu6zdUGhIkI26c0hgGnigHoqoKUQEyqhEb6AXo8hWfsG2auZyaXr833reRWNzG6hFiIkCHumsEAzRz4dkaGWfaU7MLlQu9oq4r_KsFJGOmx5nfLdU5aiUifA48wbQUtUsNq1FB8gWfKgxg7qEPQXNNRwn5UfFPWH7VRRYD5NxSjLdR73fCWmtRZ1kW5Jq8mqSXIHdTBZFjQXj7VzRaI1nOftd3yx223v-VY4PMgmdIRHR-JM8yi2b2ZOmszTSi0w_OwH6GZXEu2mg2kUuEjY-WWhqucFcjTtTAr1QVdmk_yWDwIpa-i-GupiPLK37dzm8Ty0PXB2jzajyVkzSGjFiKsn7HDeLnJbkKSzhZZRzpamQnY2-9Q-x4r8tgUdnhDypoCfDEPHDYU_pjfBVHarbxmAULXXJ7_XwckPwTB9oSrTDtBhT8Ne-KRVH_H2PArlxjlvuV0dkpE8OMikgAUzbAU7yO_2NK8VphlUkjDmG2jCo5fT5kilJAw73Mlq-S0GlexsRJkicaTfWqxfKcRpm2ubx4pXy2yszqqal_8cFhL6EiUjiRLJnaYowgGXpwoCu21Sdiz9gTBj7trgJwXOlzT-Ck9Ngt_Zy4DrtM0dgJTnmxYShOFlSHq_mCBdqda7m00]--></g></svg>