<?xml version="1.0" encoding="us-ascii" standalone="no"?><svg xmlns="http://www.w3.org/2000/svg" xmlns:xlink="http://www.w3.org/1999/xlink" contentStyleType="text/css" height="1957px" preserveAspectRatio="none" style="width:3027px;height:1957px;background:#FFFFFF;" version="1.1" viewBox="0 0 3027 1957" width="3027px" zoomAndPan="magnify"><defs/><g><rect fill="#FFFFFF" height="1770.541" style="stroke:#181818;stroke-width:1.0;" width="10" x="33.5" y="93.6211"/><rect fill="#FFFFFF" height="185.7461" style="stroke:#181818;stroke-width:1.0;" width="10" x="342.5" y="116.9121"/><rect fill="#FFFFFF" height="31.291" style="stroke:#181818;stroke-width:1.0;" width="10" x="342.5" y="333.9492"/><rect fill="#FFFFFF" height="1072.1387" style="stroke:#181818;stroke-width:1.0;" width="10" x="518.5" y="375.2402"/><rect fill="#FFFFFF" height="344.2012" style="stroke:#181818;stroke-width:1.0;" width="10" x="518.5" y="1504.9609"/><rect fill="#FFFFFF" height="79.543" style="stroke:#181818;stroke-width:1.0;" width="10" x="685" y="191.8242"/><rect fill="#FFFFFF" height="963.6055" style="stroke:#181818;stroke-width:1.0;" width="10" x="852" y="452.4824"/><rect fill="#FFFFFF" height="281.6191" style="stroke:#181818;stroke-width:1.0;" width="10" x="852" y="1536.252"/><rect fill="#FFFFFF" height="31.291" style="stroke:#181818;stroke-width:1.0;" width="10" x="1003" y="483.7734"/><rect fill="#FFFFFF" height="31.291" style="stroke:#181818;stroke-width:1.0;" width="10" x="1110" y="546.3555"/><rect fill="#FFFFFF" height="31.291" style="stroke:#181818;stroke-width:1.0;" width="10" x="1110" y="608.9375"/><rect fill="#FFFFFF" height="202.125" style="stroke:#181818;stroke-width:1.0;" width="10" x="1228" y="815.0137"/><rect fill="#FFFFFF" height="219.0371" style="stroke:#181818;stroke-width:1.0;" width="10" x="1228" y="1567.543"/><rect fill="#FFFFFF" height="112.2031" style="stroke:#181818;stroke-width:1.0;" width="10" x="1363.5" y="671.5195"/><rect fill="#FFFFFF" height="30" style="stroke:#181818;stroke-width:1.0;" width="10" x="1556.5" y="1255.2148"/><rect fill="#FFFFFF" height="30" style="stroke:#181818;stroke-width:1.0;" width="10" x="1710.5" y="1316.5059"/><rect fill="#FFFFFF" height="30" style="stroke:#181818;stroke-width:1.0;" width="10" x="1900.5" y="1193.9238"/><rect fill="#FFFFFF" height="336.3672" style="stroke:#181818;stroke-width:1.0;" width="10" x="2045.5" y="1048.4297"/><rect fill="#FFFFFF" height="127.582" style="stroke:#181818;stroke-width:1.0;" width="10" x="2050.5" y="1157.6328"/><rect fill="#FFFFFF" height="31.291" style="stroke:#181818;stroke-width:1.0;" width="10" x="2045.5" y="1630.125"/><rect fill="#FFFFFF" height="30" style="stroke:#181818;stroke-width:1.0;" width="10" x="2331.5" y="955.8477"/><rect fill="#FFFFFF" height="31.291" style="stroke:#181818;stroke-width:1.0;" width="10" x="2331.5" y="1692.707"/><rect fill="#FFFFFF" height="156.4551" style="stroke:#181818;stroke-width:1.0;" width="10" x="2511.5" y="1598.834"/><rect fill="#FFFFFF" height="30" style="stroke:#181818;stroke-width:1.0;" width="10" x="2967.5" y="846.3047"/><rect fill="none" height="247.4551" style="stroke:#000000;stroke-width:1.5;" width="833" x="1508.5" y="1107.0508"/><rect fill="none" height="394.7832" style="stroke:#000000;stroke-width:1.5;" width="2566" x="10" y="1462.3789"/><line style="stroke:#181818;stroke-width:0.5;stroke-dasharray:5.0,5.0;" x1="38" x2="38" y1="83.6211" y2="1874.1621"/><line style="stroke:#181818;stroke-width:0.5;stroke-dasharray:5.0,5.0;" x1="347" x2="347" y1="83.6211" y2="1874.1621"/><line style="stroke:#181818;stroke-width:0.5;stroke-dasharray:5.0,5.0;" x1="523.5" x2="523.5" y1="373.7598" y2="1874.1621"/><line style="stroke:#181818;stroke-width:0.5;stroke-dasharray:5.0,5.0;" x1="689.5" x2="689.5" y1="156.7227" y2="1874.1621"/><line style="stroke:#181818;stroke-width:0.5;stroke-dasharray:5.0,5.0;" x1="856.5" x2="856.5" y1="417.3809" y2="1874.1621"/><line style="stroke:#181818;stroke-width:0.5;stroke-dasharray:5.0,5.0;" x1="1007.5" x2="1007.5" y1="83.6211" y2="1874.1621"/><line style="stroke:#181818;stroke-width:0.5;stroke-dasharray:5.0,5.0;" x1="1114.5" x2="1114.5" y1="83.6211" y2="1874.1621"/><line style="stroke:#181818;stroke-width:0.5;stroke-dasharray:5.0,5.0;" x1="1232.5" x2="1232.5" y1="83.6211" y2="1874.1621"/><line style="stroke:#181818;stroke-width:0.5;stroke-dasharray:5.0,5.0;" x1="1368.5" x2="1368.5" y1="83.6211" y2="1874.1621"/><line style="stroke:#181818;stroke-width:0.5;stroke-dasharray:5.0,5.0;" x1="1476.5" x2="1476.5" y1="83.6211" y2="1874.1621"/><line style="stroke:#181818;stroke-width:0.5;stroke-dasharray:5.0,5.0;" x1="1561.5" x2="1561.5" y1="83.6211" y2="1874.1621"/><line style="stroke:#181818;stroke-width:0.5;stroke-dasharray:5.0,5.0;" x1="1715.5" x2="1715.5" y1="1088.2402" y2="1874.1621"/><line style="stroke:#181818;stroke-width:0.5;stroke-dasharray:5.0,5.0;" x1="1905.5" x2="1905.5" y1="711.3301" y2="1874.1621"/><line style="stroke:#181818;stroke-width:0.5;stroke-dasharray:5.0,5.0;" x1="2050.5" x2="2050.5" y1="83.6211" y2="1874.1621"/><line style="stroke:#181818;stroke-width:0.5;stroke-dasharray:5.0,5.0;" x1="2336" x2="2336" y1="83.6211" y2="1874.1621"/><line style="stroke:#181818;stroke-width:0.5;stroke-dasharray:5.0,5.0;" x1="2408" x2="2408" y1="83.6211" y2="1874.1621"/><line style="stroke:#181818;stroke-width:0.5;stroke-dasharray:5.0,5.0;" x1="2516" x2="2516" y1="83.6211" y2="1874.1621"/><line style="stroke:#181818;stroke-width:0.5;stroke-dasharray:5.0,5.0;" x1="2670" x2="2670" y1="83.6211" y2="1874.1621"/><line style="stroke:#181818;stroke-width:0.5;stroke-dasharray:5.0,5.0;" x1="2847" x2="2847" y1="83.6211" y2="1874.1621"/><line style="stroke:#181818;stroke-width:0.5;stroke-dasharray:5.0,5.0;" x1="2972" x2="2972" y1="83.6211" y2="1874.1621"/><text fill="#000000" font-family="sans-serif" font-size="14" lengthAdjust="spacing" textLength="31" x="20" y="80.1074">GSM</text><ellipse cx="38.5" cy="13.5" fill="#E3E3E3" rx="8" ry="8" style="stroke:#181818;stroke-width:0.5;"/><path d="M38.5,21.5 L38.5,48.5 M25.5,29.5 L51.5,29.5 M38.5,48.5 L25.5,63.5 M38.5,48.5 L51.5,63.5 " fill="none" style="stroke:#181818;stroke-width:0.5;"/><text fill="#000000" font-family="sans-serif" font-size="14" lengthAdjust="spacing" textLength="31" x="20" y="1888.2695">GSM</text><ellipse cx="38.5" cy="1900.2832" fill="#E3E3E3" rx="8" ry="8" style="stroke:#181818;stroke-width:0.5;"/><path d="M38.5,1908.2832 L38.5,1935.2832 M25.5,1916.2832 L51.5,1916.2832 M38.5,1935.2832 L25.5,1950.2832 M38.5,1935.2832 L51.5,1950.2832 " fill="none" style="stroke:#181818;stroke-width:0.5;"/><rect fill="#E3E3E3" height="32.6211" rx="2.5" ry="2.5" style="stroke:#181818;stroke-width:0.5;" width="79" x="308" y="50"/><text fill="#000000" font-family="sans-serif" font-size="14" lengthAdjust="spacing" textLength="65" x="315" y="72.1074">:AgendaUI</text><rect fill="#E3E3E3" height="32.6211" rx="2.5" ry="2.5" style="stroke:#181818;stroke-width:0.5;" width="79" x="308" y="1873.1621"/><text fill="#000000" font-family="sans-serif" font-size="14" lengthAdjust="spacing" textLength="65" x="315" y="1895.2695">:AgendaUI</text><rect fill="#E3E3E3" height="32.6211" rx="2.5" ry="2.5" style="stroke:#181818;stroke-width:0.5;" width="184" x="431.5" y="1873.1621"/><text fill="#000000" font-family="sans-serif" font-size="14" lengthAdjust="spacing" textLength="170" x="438.5" y="1895.2695">:ViewDetailsEntryAgendaUI</text><rect fill="#E3E3E3" height="32.6211" rx="2.5" ry="2.5" style="stroke:#181818;stroke-width:0.5;" width="129" x="625.5" y="1873.1621"/><text fill="#000000" font-family="sans-serif" font-size="14" lengthAdjust="spacing" textLength="115" x="632.5" y="1895.2695">:AgendaController</text><rect fill="#E3E3E3" height="32.6211" rx="2.5" ry="2.5" style="stroke:#181818;stroke-width:0.5;" width="185" x="764.5" y="1873.1621"/><text fill="#000000" font-family="sans-serif" font-size="14" lengthAdjust="spacing" textLength="171" x="771.5" y="1895.2695">:ViewDetailsEntryController</text><rect fill="#E3E3E3" height="32.6211" rx="2.5" ry="2.5" style="stroke:#181818;stroke-width:0.5;" width="97" x="959.5" y="50"/><text fill="#000000" font-family="sans-serif" font-size="14" lengthAdjust="spacing" textLength="83" x="966.5" y="72.1074">:Repositories</text><rect fill="#E3E3E3" height="32.6211" rx="2.5" ry="2.5" style="stroke:#181818;stroke-width:0.5;" width="97" x="959.5" y="1873.1621"/><text fill="#000000" font-family="sans-serif" font-size="14" lengthAdjust="spacing" textLength="83" x="966.5" y="1895.2695">:Repositories</text><rect fill="#E3E3E3" height="51.2422" rx="2.5" ry="2.5" style="stroke:#181818;stroke-width:0.5;" width="97" x="1066.5" y="31.3789"/><text fill="#000000" font-family="sans-serif" font-size="14" lengthAdjust="spacing" textLength="74" x="1078" y="53.4863">repositories</text><text fill="#000000" font-family="sans-serif" font-size="14" lengthAdjust="spacing" textLength="83" x="1073.5" y="72.1074">:Repositories</text><rect fill="#E3E3E3" height="51.2422" rx="2.5" ry="2.5" style="stroke:#181818;stroke-width:0.5;" width="97" x="1066.5" y="1873.1621"/><text fill="#000000" font-family="sans-serif" font-size="14" lengthAdjust="spacing" textLength="74" x="1078" y="1895.2695">repositories</text><text fill="#000000" font-family="sans-serif" font-size="14" lengthAdjust="spacing" textLength="83" x="1073.5" y="1913.8906">:Repositories</text><rect fill="#E3E3E3" height="51.2422" rx="2.5" ry="2.5" style="stroke:#181818;stroke-width:0.5;" width="119" x="1173.5" y="31.3789"/><text fill="#000000" font-family="sans-serif" font-size="14" lengthAdjust="spacing" textLength="100" x="1183" y="53.4863">entryRepository</text><text fill="#000000" font-family="sans-serif" font-size="14" lengthAdjust="spacing" textLength="105" x="1180.5" y="72.1074">:EntryRepository</text><rect fill="#E3E3E3" height="51.2422" rx="2.5" ry="2.5" style="stroke:#181818;stroke-width:0.5;" width="119" x="1173.5" y="1873.1621"/><text fill="#000000" font-family="sans-serif" font-size="14" lengthAdjust="spacing" textLength="100" x="1183" y="1895.2695">entryRepository</text><text fill="#000000" font-family="sans-serif" font-size="14" lengthAdjust="spacing" textLength="105" x="1180.5" y="1913.8906">:EntryRepository</text><rect fill="#E3E3E3" height="51.2422" rx="2.5" ry="2.5" style="stroke:#181818;stroke-width:0.5;" width="132" x="1302.5" y="31.3789"/><text fill="#000000" font-family="sans-serif" font-size="14" lengthAdjust="spacing" textLength="112" x="1312.5" y="53.4863">vehicleRepository</text><text fill="#000000" font-family="sans-serif" font-size="14" lengthAdjust="spacing" textLength="118" x="1309.5" y="72.1074">:VehicleRepository</text><rect fill="#E3E3E3" height="51.2422" rx="2.5" ry="2.5" style="stroke:#181818;stroke-width:0.5;" width="132" x="1302.5" y="1873.1621"/><text fill="#000000" font-family="sans-serif" font-size="14" lengthAdjust="spacing" textLength="112" x="1312.5" y="1895.2695">vehicleRepository</text><text fill="#000000" font-family="sans-serif" font-size="14" lengthAdjust="spacing" textLength="118" x="1309.5" y="1913.8906">:VehicleRepository</text><rect fill="#E3E3E3" height="32.6211" rx="2.5" ry="2.5" style="stroke:#181818;stroke-width:0.5;" width="64" x="1444.5" y="50"/><text fill="#000000" font-family="sans-serif" font-size="14" lengthAdjust="spacing" textLength="50" x="1451.5" y="72.1074">:Vehicle</text><rect fill="#E3E3E3" height="32.6211" rx="2.5" ry="2.5" style="stroke:#181818;stroke-width:0.5;" width="64" x="1444.5" y="1873.1621"/><text fill="#000000" font-family="sans-serif" font-size="14" lengthAdjust="spacing" textLength="50" x="1451.5" y="1895.2695">:Vehicle</text><rect fill="#E3E3E3" height="32.6211" rx="2.5" ry="2.5" style="stroke:#181818;stroke-width:0.5;" width="86" x="1518.5" y="50"/><text fill="#000000" font-family="sans-serif" font-size="14" lengthAdjust="spacing" textLength="72" x="1525.5" y="72.1074">:VehicleDto</text><rect fill="#E3E3E3" height="32.6211" rx="2.5" ry="2.5" style="stroke:#181818;stroke-width:0.5;" width="86" x="1518.5" y="1873.1621"/><text fill="#000000" font-family="sans-serif" font-size="14" lengthAdjust="spacing" textLength="72" x="1525.5" y="1895.2695">:VehicleDto</text><rect fill="#E3E3E3" height="32.6211" rx="2.5" ry="2.5" style="stroke:#181818;stroke-width:0.5;" width="202" x="1614.5" y="1873.1621"/><text fill="#000000" font-family="sans-serif" font-size="14" lengthAdjust="spacing" textLength="188" x="1621.5" y="1895.2695">agendaDto : List&lt;VehicleDto&gt;</text><rect fill="#E3E3E3" height="32.6211" rx="2.5" ry="2.5" style="stroke:#181818;stroke-width:0.5;" width="158" x="1826.5" y="1873.1621"/><text fill="#000000" font-family="sans-serif" font-size="14" lengthAdjust="spacing" textLength="144" x="1833.5" y="1895.2695">agenda : List&lt;Vehicle&gt;</text><rect fill="#E3E3E3" height="32.6211" rx="2.5" ry="2.5" style="stroke:#181818;stroke-width:0.5;" width="112" x="1994.5" y="50"/><text fill="#000000" font-family="sans-serif" font-size="14" lengthAdjust="spacing" textLength="98" x="2001.5" y="72.1074">:VehicleMapper</text><rect fill="#E3E3E3" height="32.6211" rx="2.5" ry="2.5" style="stroke:#181818;stroke-width:0.5;" width="112" x="1994.5" y="1873.1621"/><text fill="#000000" font-family="sans-serif" font-size="14" lengthAdjust="spacing" textLength="98" x="2001.5" y="1895.2695">:VehicleMapper</text><rect fill="#E3E3E3" height="32.6211" rx="2.5" ry="2.5" style="stroke:#181818;stroke-width:0.5;" width="51" x="2311" y="50"/><text fill="#000000" font-family="sans-serif" font-size="14" lengthAdjust="spacing" textLength="37" x="2318" y="72.1074">:Entry</text><rect fill="#E3E3E3" height="32.6211" rx="2.5" ry="2.5" style="stroke:#181818;stroke-width:0.5;" width="51" x="2311" y="1873.1621"/><text fill="#000000" font-family="sans-serif" font-size="14" lengthAdjust="spacing" textLength="37" x="2318" y="1895.2695">:Entry</text><rect fill="#E3E3E3" height="32.6211" rx="2.5" ry="2.5" style="stroke:#181818;stroke-width:0.5;" width="73" x="2372" y="50"/><text fill="#000000" font-family="sans-serif" font-size="14" lengthAdjust="spacing" textLength="59" x="2379" y="72.1074">:EntryDto</text><rect fill="#E3E3E3" height="32.6211" rx="2.5" ry="2.5" style="stroke:#181818;stroke-width:0.5;" width="73" x="2372" y="1873.1621"/><text fill="#000000" font-family="sans-serif" font-size="14" lengthAdjust="spacing" textLength="59" x="2379" y="1895.2695">:EntryDto</text><rect fill="#E3E3E3" height="32.6211" rx="2.5" ry="2.5" style="stroke:#181818;stroke-width:0.5;" width="99" x="2467" y="50"/><text fill="#000000" font-family="sans-serif" font-size="14" lengthAdjust="spacing" textLength="85" x="2474" y="72.1074">:EntryMapper</text><rect fill="#E3E3E3" height="32.6211" rx="2.5" ry="2.5" style="stroke:#181818;stroke-width:0.5;" width="99" x="2467" y="1873.1621"/><text fill="#000000" font-family="sans-serif" font-size="14" lengthAdjust="spacing" textLength="85" x="2474" y="1895.2695">:EntryMapper</text><rect fill="#E3E3E3" height="32.6211" rx="2.5" ry="2.5" style="stroke:#181818;stroke-width:0.5;" width="189" x="2576" y="50"/><text fill="#000000" font-family="sans-serif" font-size="14" lengthAdjust="spacing" textLength="175" x="2583" y="72.1074">agendaDto : List&lt;EntryDto&gt;</text><rect fill="#E3E3E3" height="32.6211" rx="2.5" ry="2.5" style="stroke:#181818;stroke-width:0.5;" width="189" x="2576" y="1873.1621"/><text fill="#000000" font-family="sans-serif" font-size="14" lengthAdjust="spacing" textLength="175" x="2583" y="1895.2695">agendaDto : List&lt;EntryDto&gt;</text><rect fill="#E3E3E3" height="32.6211" rx="2.5" ry="2.5" style="stroke:#181818;stroke-width:0.5;" width="145" x="2775" y="50"/><text fill="#000000" font-family="sans-serif" font-size="14" lengthAdjust="spacing" textLength="131" x="2782" y="72.1074">agenda : List&lt;Entry&gt;</text><rect fill="#E3E3E3" height="32.6211" rx="2.5" ry="2.5" style="stroke:#181818;stroke-width:0.5;" width="145" x="2775" y="1873.1621"/><text fill="#000000" font-family="sans-serif" font-size="14" lengthAdjust="spacing" textLength="131" x="2782" y="1895.2695">agenda : List&lt;Entry&gt;</text><rect fill="#E3E3E3" height="32.6211" rx="2.5" ry="2.5" style="stroke:#181818;stroke-width:0.5;" width="85" x="2930" y="50"/><text fill="#000000" font-family="sans-serif" font-size="14" lengthAdjust="spacing" textLength="71" x="2937" y="72.1074">AgendaList</text><rect fill="#E3E3E3" height="32.6211" rx="2.5" ry="2.5" style="stroke:#181818;stroke-width:0.5;" width="85" x="2930" y="1873.1621"/><text fill="#000000" font-family="sans-serif" font-size="14" lengthAdjust="spacing" textLength="71" x="2937" y="1895.2695">AgendaList</text><rect fill="#FFFFFF" height="1770.541" style="stroke:#181818;stroke-width:1.0;" width="10" x="33.5" y="93.6211"/><rect fill="#FFFFFF" height="185.7461" style="stroke:#181818;stroke-width:1.0;" width="10" x="342.5" y="116.9121"/><rect fill="#FFFFFF" height="31.291" style="stroke:#181818;stroke-width:1.0;" width="10" x="342.5" y="333.9492"/><rect fill="#FFFFFF" height="1072.1387" style="stroke:#181818;stroke-width:1.0;" width="10" x="518.5" y="375.2402"/><rect fill="#FFFFFF" height="344.2012" style="stroke:#181818;stroke-width:1.0;" width="10" x="518.5" y="1504.9609"/><rect fill="#FFFFFF" height="79.543" style="stroke:#181818;stroke-width:1.0;" width="10" x="685" y="191.8242"/><rect fill="#FFFFFF" height="963.6055" style="stroke:#181818;stroke-width:1.0;" width="10" x="852" y="452.4824"/><rect fill="#FFFFFF" height="281.6191" style="stroke:#181818;stroke-width:1.0;" width="10" x="852" y="1536.252"/><rect fill="#FFFFFF" height="31.291" style="stroke:#181818;stroke-width:1.0;" width="10" x="1003" y="483.7734"/><rect fill="#FFFFFF" height="31.291" style="stroke:#181818;stroke-width:1.0;" width="10" x="1110" y="546.3555"/><rect fill="#FFFFFF" height="31.291" style="stroke:#181818;stroke-width:1.0;" width="10" x="1110" y="608.9375"/><rect fill="#FFFFFF" height="202.125" style="stroke:#181818;stroke-width:1.0;" width="10" x="1228" y="815.0137"/><rect fill="#FFFFFF" height="219.0371" style="stroke:#181818;stroke-width:1.0;" width="10" x="1228" y="1567.543"/><rect fill="#FFFFFF" height="112.2031" style="stroke:#181818;stroke-width:1.0;" width="10" x="1363.5" y="671.5195"/><rect fill="#FFFFFF" height="30" style="stroke:#181818;stroke-width:1.0;" width="10" x="1556.5" y="1255.2148"/><rect fill="#FFFFFF" height="30" style="stroke:#181818;stroke-width:1.0;" width="10" x="1710.5" y="1316.5059"/><rect fill="#FFFFFF" height="30" style="stroke:#181818;stroke-width:1.0;" width="10" x="1900.5" y="1193.9238"/><rect fill="#FFFFFF" height="336.3672" style="stroke:#181818;stroke-width:1.0;" width="10" x="2045.5" y="1048.4297"/><rect fill="#FFFFFF" height="127.582" style="stroke:#181818;stroke-width:1.0;" width="10" x="2050.5" y="1157.6328"/><rect fill="#FFFFFF" height="31.291" style="stroke:#181818;stroke-width:1.0;" width="10" x="2045.5" y="1630.125"/><rect fill="#FFFFFF" height="30" style="stroke:#181818;stroke-width:1.0;" width="10" x="2331.5" y="955.8477"/><rect fill="#FFFFFF" height="31.291" style="stroke:#181818;stroke-width:1.0;" width="10" x="2331.5" y="1692.707"/><rect fill="#FFFFFF" height="156.4551" style="stroke:#181818;stroke-width:1.0;" width="10" x="2511.5" y="1598.834"/><rect fill="#FFFFFF" height="30" style="stroke:#181818;stroke-width:1.0;" width="10" x="2967.5" y="846.3047"/><polygon fill="#181818" points="330.5,112.9121,340.5,116.9121,330.5,120.9121,334.5,116.9121" style="stroke:#181818;stroke-width:1.0;"/><line style="stroke:#181818;stroke-width:1.0;" x1="43.5" x2="336.5" y1="116.9121" y2="116.9121"/><text fill="#000000" font-family="sans-serif" font-size="13" font-weight="bold" lengthAdjust="spacing" textLength="7" x="50.5" y="111.6494">1</text><text fill="#000000" font-family="sans-serif" font-size="13" lengthAdjust="spacing" textLength="269" x="61.5" y="111.6494">asks to assign a vehicle to an Entry in Agenda</text><polygon fill="#181818" points="613.5,144.2031,623.5,148.2031,613.5,152.2031,617.5,148.2031" style="stroke:#181818;stroke-width:1.0;"/><line style="stroke:#181818;stroke-width:1.0;" x1="352.5" x2="619.5" y1="148.2031" y2="148.2031"/><text fill="#000000" font-family="sans-serif" font-size="13" font-weight="bold" lengthAdjust="spacing" textLength="7" x="359.5" y="142.9404">2</text><text fill="#000000" font-family="sans-serif" font-size="13" lengthAdjust="spacing" textLength="44" x="370.5" y="142.9404">create()</text><rect fill="#E3E3E3" height="32.6211" rx="2.5" ry="2.5" style="stroke:#181818;stroke-width:0.5;" width="129" x="625.5" y="124.9121"/><text fill="#000000" font-family="sans-serif" font-size="14" lengthAdjust="spacing" textLength="115" x="632.5" y="147.0195">:AgendaController</text><polygon fill="#181818" points="673,187.8242,683,191.8242,673,195.8242,677,191.8242" style="stroke:#181818;stroke-width:1.0;"/><line style="stroke:#181818;stroke-width:1.0;" x1="352.5" x2="679" y1="191.8242" y2="191.8242"/><text fill="#000000" font-family="sans-serif" font-size="13" font-weight="bold" lengthAdjust="spacing" textLength="7" x="359.5" y="186.5615">3</text><text fill="#000000" font-family="sans-serif" font-size="13" lengthAdjust="spacing" textLength="91" x="370.5" y="186.5615">getAgendaList()</text><rect fill="none" height="43.252" style="stroke:#000000;stroke-width:1.5;" width="135" x="622.5" y="199.8242"/><path d="M622.5,199.8242 L684.5,199.8242 L684.5,208.8242 L674.5,218.8242 L622.5,218.8242 L622.5,199.8242 " fill="#EEEEEE" style="stroke:#000000;stroke-width:2.0;"/><text fill="#000000" font-family="sans-serif" font-size="13" font-weight="bold" lengthAdjust="spacing" textLength="17" x="635.5" y="215.8525">ref</text><text fill="#000000" font-family="sans-serif" font-size="12" lengthAdjust="spacing" textLength="126" x="627" y="235.7734">Get Agenda Entry's List</text><polygon fill="#181818" points="363.5,267.3672,353.5,271.3672,363.5,275.3672,359.5,271.3672" style="stroke:#181818;stroke-width:1.0;"/><line style="stroke:#181818;stroke-width:1.0;" x1="357.5" x2="689" y1="271.3672" y2="271.3672"/><text fill="#000000" font-family="sans-serif" font-size="13" font-weight="bold" lengthAdjust="spacing" textLength="7" x="369.5" y="266.1045">4</text><text fill="#000000" font-family="sans-serif" font-size="13" lengthAdjust="spacing" textLength="62" x="380.5" y="266.1045">agendaDto</text><polygon fill="#181818" points="54.5,298.6582,44.5,302.6582,54.5,306.6582,50.5,302.6582" style="stroke:#181818;stroke-width:1.0;"/><line style="stroke:#181818;stroke-width:1.0;" x1="48.5" x2="346.5" y1="302.6582" y2="302.6582"/><text fill="#000000" font-family="sans-serif" font-size="13" font-weight="bold" lengthAdjust="spacing" textLength="7" x="60.5" y="297.3955">5</text><text fill="#000000" font-family="sans-serif" font-size="13" lengthAdjust="spacing" textLength="244" x="71.5" y="297.3955">show Agenda and wait to select one Entry</text><polygon fill="#181818" points="330.5,329.9492,340.5,333.9492,330.5,337.9492,334.5,333.9492" style="stroke:#181818;stroke-width:1.0;"/><line style="stroke:#181818;stroke-width:1.0;stroke-dasharray:2.0,2.0;" x1="43.5" x2="336.5" y1="333.9492" y2="333.9492"/><text fill="#000000" font-family="sans-serif" font-size="13" font-weight="bold" lengthAdjust="spacing" textLength="7" x="50.5" y="328.6865">6</text><text fill="#000000" font-family="sans-serif" font-size="13" lengthAdjust="spacing" textLength="95" x="61.5" y="328.6865">select one Entry</text><polygon fill="#181818" points="419.5,361.2402,429.5,365.2402,419.5,369.2402,423.5,365.2402" style="stroke:#181818;stroke-width:1.0;"/><line style="stroke:#181818;stroke-width:1.0;stroke-dasharray:2.0,2.0;" x1="347.5" x2="425.5" y1="365.2402" y2="365.2402"/><text fill="#000000" font-family="sans-serif" font-size="13" font-weight="bold" lengthAdjust="spacing" textLength="7" x="354.5" y="359.9775">7</text><text fill="#000000" font-family="sans-serif" font-size="13" lengthAdjust="spacing" textLength="44" x="365.5" y="359.9775">create()</text><rect fill="#E3E3E3" height="32.6211" rx="2.5" ry="2.5" style="stroke:#181818;stroke-width:0.5;" width="184" x="431.5" y="341.9492"/><text fill="#000000" font-family="sans-serif" font-size="14" lengthAdjust="spacing" textLength="170" x="438.5" y="364.0566">:ViewDetailsEntryAgendaUI</text><polygon fill="#181818" points="752.5,404.8613,762.5,408.8613,752.5,412.8613,756.5,408.8613" style="stroke:#181818;stroke-width:1.0;"/><line style="stroke:#181818;stroke-width:1.0;stroke-dasharray:2.0,2.0;" x1="528.5" x2="758.5" y1="408.8613" y2="408.8613"/><text fill="#000000" font-family="sans-serif" font-size="13" font-weight="bold" lengthAdjust="spacing" textLength="7" x="535.5" y="403.5986">8</text><text fill="#000000" font-family="sans-serif" font-size="13" lengthAdjust="spacing" textLength="93" x="546.5" y="403.5986">create(entryDto)</text><rect fill="#E3E3E3" height="32.6211" rx="2.5" ry="2.5" style="stroke:#181818;stroke-width:0.5;" width="185" x="764.5" y="385.5703"/><text fill="#000000" font-family="sans-serif" font-size="14" lengthAdjust="spacing" textLength="171" x="771.5" y="407.6777">:ViewDetailsEntryController</text><polygon fill="#181818" points="840,448.4824,850,452.4824,840,456.4824,844,452.4824" style="stroke:#181818;stroke-width:1.0;"/><line style="stroke:#181818;stroke-width:1.0;stroke-dasharray:2.0,2.0;" x1="528.5" x2="846" y1="452.4824" y2="452.4824"/><text fill="#000000" font-family="sans-serif" font-size="13" font-weight="bold" lengthAdjust="spacing" textLength="7" x="535.5" y="447.2197">9</text><text fill="#000000" font-family="sans-serif" font-size="13" lengthAdjust="spacing" textLength="190" x="546.5" y="447.2197">getVehicleListPossibleForEntry()</text><polygon fill="#181818" points="991,479.7734,1001,483.7734,991,487.7734,995,483.7734" style="stroke:#181818;stroke-width:1.0;"/><line style="stroke:#181818;stroke-width:1.0;" x1="862" x2="997" y1="483.7734" y2="483.7734"/><text fill="#000000" font-family="sans-serif" font-size="13" font-weight="bold" lengthAdjust="spacing" textLength="14" x="869" y="478.5107">10</text><text fill="#000000" font-family="sans-serif" font-size="13" lengthAdjust="spacing" textLength="75" x="887" y="478.5107">getInstance()</text><polygon fill="#181818" points="873,511.0645,863,515.0645,873,519.0645,869,515.0645" style="stroke:#181818;stroke-width:1.0;"/><line style="stroke:#181818;stroke-width:1.0;stroke-dasharray:2.0,2.0;" x1="867" x2="1007" y1="515.0645" y2="515.0645"/><text fill="#000000" font-family="sans-serif" font-size="13" font-weight="bold" lengthAdjust="spacing" textLength="14" x="879" y="509.8018">11</text><text fill="#000000" font-family="sans-serif" font-size="13" lengthAdjust="spacing" textLength="67" x="897" y="509.8018">repositories</text><polygon fill="#181818" points="1098,542.3555,1108,546.3555,1098,550.3555,1102,546.3555" style="stroke:#181818;stroke-width:1.0;"/><line style="stroke:#181818;stroke-width:1.0;" x1="862" x2="1104" y1="546.3555" y2="546.3555"/><text fill="#000000" font-family="sans-serif" font-size="13" font-weight="bold" lengthAdjust="spacing" textLength="14" x="869" y="541.0928">12</text><text fill="#000000" font-family="sans-serif" font-size="13" lengthAdjust="spacing" textLength="131" x="887" y="541.0928">getVehicleRepository()</text><polygon fill="#181818" points="873,573.6465,863,577.6465,873,581.6465,869,577.6465" style="stroke:#181818;stroke-width:1.0;"/><line style="stroke:#181818;stroke-width:1.0;" x1="867" x2="1114" y1="577.6465" y2="577.6465"/><text fill="#000000" font-family="sans-serif" font-size="13" font-weight="bold" lengthAdjust="spacing" textLength="14" x="879" y="572.3838">13</text><text fill="#000000" font-family="sans-serif" font-size="13" lengthAdjust="spacing" textLength="101" x="897" y="572.3838">vehicleRepository</text><polygon fill="#181818" points="1098,604.9375,1108,608.9375,1098,612.9375,1102,608.9375" style="stroke:#181818;stroke-width:1.0;"/><line style="stroke:#181818;stroke-width:1.0;" x1="862" x2="1104" y1="608.9375" y2="608.9375"/><text fill="#000000" font-family="sans-serif" font-size="13" font-weight="bold" lengthAdjust="spacing" textLength="14" x="869" y="603.6748">14</text><text fill="#000000" font-family="sans-serif" font-size="13" lengthAdjust="spacing" textLength="119" x="887" y="603.6748">getEntryRepository()</text><polygon fill="#181818" points="873,636.2285,863,640.2285,873,644.2285,869,640.2285" style="stroke:#181818;stroke-width:1.0;"/><line style="stroke:#181818;stroke-width:1.0;" x1="867" x2="1114" y1="640.2285" y2="640.2285"/><text fill="#000000" font-family="sans-serif" font-size="13" font-weight="bold" lengthAdjust="spacing" textLength="14" x="879" y="634.9658">15</text><text fill="#000000" font-family="sans-serif" font-size="13" lengthAdjust="spacing" textLength="91" x="897" y="634.9658">entryRepository</text><polygon fill="#181818" points="1351.5,667.5195,1361.5,671.5195,1351.5,675.5195,1355.5,671.5195" style="stroke:#181818;stroke-width:1.0;"/><line style="stroke:#181818;stroke-width:1.0;" x1="862" x2="1357.5" y1="671.5195" y2="671.5195"/><text fill="#000000" font-family="sans-serif" font-size="13" font-weight="bold" lengthAdjust="spacing" textLength="14" x="869" y="666.2568">16</text><text fill="#000000" font-family="sans-serif" font-size="13" lengthAdjust="spacing" textLength="90" x="887" y="666.2568">getVehicleList()</text><polygon fill="#181818" points="1814.5,698.8105,1824.5,702.8105,1814.5,706.8105,1818.5,702.8105" style="stroke:#181818;stroke-width:1.0;"/><line style="stroke:#181818;stroke-width:1.0;" x1="1373.5" x2="1820.5" y1="702.8105" y2="702.8105"/><text fill="#000000" font-family="sans-serif" font-size="13" font-weight="bold" lengthAdjust="spacing" textLength="14" x="1380.5" y="697.5479">17</text><text fill="#000000" font-family="sans-serif" font-size="13" lengthAdjust="spacing" textLength="44" x="1398.5" y="697.5479">create()</text><rect fill="#E3E3E3" height="32.6211" rx="2.5" ry="2.5" style="stroke:#181818;stroke-width:0.5;" width="158" x="1826.5" y="679.5195"/><text fill="#000000" font-family="sans-serif" font-size="14" lengthAdjust="spacing" textLength="144" x="1833.5" y="701.627">agenda : List&lt;Vehicle&gt;</text><path d="M1818,728.1406 L1818,755.1406 L1992,755.1406 L1992,738.1406 L1982,728.1406 L1818,728.1406 " fill="#FAFAFA" style="stroke:#181818;stroke-width:0.5;"/><path d="M1982,728.1406 L1982,738.1406 L1992,738.1406 L1982,728.1406 " fill="#FAFAFA" style="stroke:#181818;stroke-width:0.5;"/><text fill="#000000" font-family="sans-serif" font-size="13" lengthAdjust="spacing" textLength="153" x="1824" y="747.1689">loop to populate is omitted</text><polygon fill="#181818" points="873,779.7227,863,783.7227,873,787.7227,869,783.7227" style="stroke:#181818;stroke-width:1.0;"/><line style="stroke:#181818;stroke-width:1.0;" x1="867" x2="1367.5" y1="783.7227" y2="783.7227"/><text fill="#000000" font-family="sans-serif" font-size="13" font-weight="bold" lengthAdjust="spacing" textLength="14" x="879" y="778.46">18</text><text fill="#000000" font-family="sans-serif" font-size="13" lengthAdjust="spacing" textLength="60" x="897" y="778.46">vehicleList</text><polygon fill="#181818" points="1216,811.0137,1226,815.0137,1216,819.0137,1220,815.0137" style="stroke:#181818;stroke-width:1.0;"/><line style="stroke:#181818;stroke-width:1.0;" x1="862" x2="1222" y1="815.0137" y2="815.0137"/><text fill="#000000" font-family="sans-serif" font-size="13" font-weight="bold" lengthAdjust="spacing" textLength="14" x="869" y="809.751">19</text><text fill="#000000" font-family="sans-serif" font-size="13" lengthAdjust="spacing" textLength="91" x="887" y="809.751">getAgendaList()</text><polygon fill="#181818" points="2955.5,842.3047,2965.5,846.3047,2955.5,850.3047,2959.5,846.3047" style="stroke:#181818;stroke-width:1.0;"/><line style="stroke:#181818;stroke-width:1.0;" x1="1238" x2="2961.5" y1="846.3047" y2="846.3047"/><text fill="#000000" font-family="sans-serif" font-size="13" font-weight="bold" lengthAdjust="spacing" textLength="14" x="1245" y="841.042">20</text><text fill="#000000" font-family="sans-serif" font-size="13" lengthAdjust="spacing" textLength="276" x="1263" y="841.042">filterVehiclesNotUseInTime(entryDto,vehicleList)</text><rect fill="none" height="43.252" style="stroke:#000000;stroke-width:1.5;" width="94" x="2927" y="884.3047"/><path d="M2927,884.3047 L2989,884.3047 L2989,893.3047 L2979,903.3047 L2927,903.3047 L2927,884.3047 " fill="#EEEEEE" style="stroke:#000000;stroke-width:2.0;"/><text fill="#000000" font-family="sans-serif" font-size="13" font-weight="bold" lengthAdjust="spacing" textLength="17" x="2940" y="900.333">ref</text><text fill="#000000" font-family="sans-serif" font-size="12" lengthAdjust="spacing" textLength="86" x="2931" y="920.2539">method omitted</text><polygon fill="#181818" points="2319.5,951.8477,2329.5,955.8477,2319.5,959.8477,2323.5,955.8477" style="stroke:#181818;stroke-width:1.0;"/><line style="stroke:#181818;stroke-width:1.0;" x1="1238" x2="2325.5" y1="955.8477" y2="955.8477"/><text fill="#000000" font-family="sans-serif" font-size="13" font-weight="bold" lengthAdjust="spacing" textLength="14" x="1245" y="950.585">21</text><text fill="#000000" font-family="sans-serif" font-size="13" lengthAdjust="spacing" textLength="90" x="1263" y="950.585">getVehicleList()</text><polygon fill="#181818" points="873,1013.1387,863,1017.1387,873,1021.1387,869,1017.1387" style="stroke:#181818;stroke-width:1.0;"/><line style="stroke:#181818;stroke-width:1.0;" x1="867" x2="1232" y1="1017.1387" y2="1017.1387"/><text fill="#000000" font-family="sans-serif" font-size="13" font-weight="bold" lengthAdjust="spacing" textLength="14" x="879" y="1011.876">22</text><text fill="#000000" font-family="sans-serif" font-size="13" lengthAdjust="spacing" textLength="60" x="897" y="1011.876">vehicleList</text><polygon fill="#181818" points="2033.5,1044.4297,2043.5,1048.4297,2033.5,1052.4297,2037.5,1048.4297" style="stroke:#181818;stroke-width:1.0;"/><line style="stroke:#181818;stroke-width:1.0;" x1="862" x2="2039.5" y1="1048.4297" y2="1048.4297"/><text fill="#000000" font-family="sans-serif" font-size="13" font-weight="bold" lengthAdjust="spacing" textLength="14" x="869" y="1043.167">23</text><text fill="#000000" font-family="sans-serif" font-size="13" lengthAdjust="spacing" textLength="134" x="887" y="1043.167">toDTO(vehicleListFilter)</text><polygon fill="#181818" points="1827.5,1075.7207,1817.5,1079.7207,1827.5,1083.7207,1823.5,1079.7207" style="stroke:#181818;stroke-width:1.0;"/><line style="stroke:#181818;stroke-width:1.0;" x1="1821.5" x2="2044.5" y1="1079.7207" y2="1079.7207"/><text fill="#000000" font-family="sans-serif" font-size="13" font-weight="bold" lengthAdjust="spacing" textLength="14" x="1833.5" y="1074.458">24</text><text fill="#000000" font-family="sans-serif" font-size="13" lengthAdjust="spacing" textLength="44" x="1851.5" y="1074.458">create()</text><rect fill="#E3E3E3" height="32.6211" rx="2.5" ry="2.5" style="stroke:#181818;stroke-width:0.5;" width="202" x="1614.5" y="1056.4297"/><text fill="#000000" font-family="sans-serif" font-size="14" lengthAdjust="spacing" textLength="188" x="1621.5" y="1078.5371">agendaDto : List&lt;VehicleDto&gt;</text><path d="M1508.5,1107.0508 L1581.5,1107.0508 L1581.5,1116.3418 L1571.5,1126.3418 L1508.5,1126.3418 L1508.5,1107.0508 " fill="#EEEEEE" style="stroke:#000000;stroke-width:1.5;"/><rect fill="none" height="247.4551" style="stroke:#000000;stroke-width:1.5;" width="833" x="1508.5" y="1107.0508"/><text fill="#000000" font-family="sans-serif" font-size="13" font-weight="bold" lengthAdjust="spacing" textLength="28" x="1523.5" y="1122.0791">loop</text><text fill="#000000" font-family="sans-serif" font-size="11" font-weight="bold" lengthAdjust="spacing" textLength="104" x="1596.5" y="1120.9209">[For every Vehicle]</text><line style="stroke:#181818;stroke-width:1.0;" x1="2055.5" x2="2102.5" y1="1144.6328" y2="1144.6328"/><line style="stroke:#181818;stroke-width:1.0;" x1="2102.5" x2="2102.5" y1="1144.6328" y2="1157.6328"/><line style="stroke:#181818;stroke-width:1.0;" x1="2061.5" x2="2102.5" y1="1157.6328" y2="1157.6328"/><polygon fill="#181818" points="2071.5,1153.6328,2061.5,1157.6328,2071.5,1161.6328,2067.5,1157.6328" style="stroke:#181818;stroke-width:1.0;"/><text fill="#000000" font-family="sans-serif" font-size="13" font-weight="bold" lengthAdjust="spacing" textLength="14" x="2067.5" y="1139.3701">25</text><text fill="#000000" font-family="sans-serif" font-size="13" lengthAdjust="spacing" textLength="244" x="2085.5" y="1139.3701">vehicleDTO = vehicleToVehicleDto(vehicle)</text><polygon fill="#181818" points="1921.5,1189.9238,1911.5,1193.9238,1921.5,1197.9238,1917.5,1193.9238" style="stroke:#181818;stroke-width:1.0;"/><line style="stroke:#181818;stroke-width:1.0;" x1="1915.5" x2="2049.5" y1="1193.9238" y2="1193.9238"/><text fill="#000000" font-family="sans-serif" font-size="13" font-weight="bold" lengthAdjust="spacing" textLength="14" x="1927.5" y="1188.6611">26</text><text fill="#000000" font-family="sans-serif" font-size="13" lengthAdjust="spacing" textLength="84" x="1945.5" y="1188.6611">vehicle = get(i)</text><polygon fill="#181818" points="1577.5,1251.2148,1567.5,1255.2148,1577.5,1259.2148,1573.5,1255.2148" style="stroke:#181818;stroke-width:1.0;"/><line style="stroke:#181818;stroke-width:1.0;" x1="1571.5" x2="2049.5" y1="1255.2148" y2="1255.2148"/><text fill="#000000" font-family="sans-serif" font-size="13" font-weight="bold" lengthAdjust="spacing" textLength="14" x="1583.5" y="1249.9521">27</text><text fill="#000000" font-family="sans-serif" font-size="13" lengthAdjust="spacing" textLength="56" x="1601.5" y="1249.9521">create(...)</text><polygon fill="#181818" points="1731.5,1312.5059,1721.5,1316.5059,1731.5,1320.5059,1727.5,1316.5059" style="stroke:#181818;stroke-width:1.0;"/><line style="stroke:#181818;stroke-width:1.0;" x1="1725.5" x2="2044.5" y1="1316.5059" y2="1316.5059"/><text fill="#000000" font-family="sans-serif" font-size="13" font-weight="bold" lengthAdjust="spacing" textLength="14" x="1737.5" y="1311.2432">28</text><text fill="#000000" font-family="sans-serif" font-size="13" lengthAdjust="spacing" textLength="88" x="1755.5" y="1311.2432">add(vehicleDto)</text><polygon fill="#181818" points="873,1380.7969,863,1384.7969,873,1388.7969,869,1384.7969" style="stroke:#181818;stroke-width:1.0;"/><line style="stroke:#181818;stroke-width:1.0;" x1="867" x2="2049.5" y1="1384.7969" y2="1384.7969"/><text fill="#000000" font-family="sans-serif" font-size="13" font-weight="bold" lengthAdjust="spacing" textLength="14" x="879" y="1379.5342">29</text><text fill="#000000" font-family="sans-serif" font-size="13" lengthAdjust="spacing" textLength="80" x="897" y="1379.5342">vehicleDtoList</text><polygon fill="#181818" points="539.5,1412.0879,529.5,1416.0879,539.5,1420.0879,535.5,1416.0879" style="stroke:#181818;stroke-width:1.0;"/><line style="stroke:#181818;stroke-width:1.0;" x1="533.5" x2="856" y1="1416.0879" y2="1416.0879"/><text fill="#000000" font-family="sans-serif" font-size="13" font-weight="bold" lengthAdjust="spacing" textLength="14" x="545.5" y="1410.8252">30</text><text fill="#000000" font-family="sans-serif" font-size="13" lengthAdjust="spacing" textLength="80" x="563.5" y="1410.8252">vehicleDtoList</text><polygon fill="#181818" points="54.5,1443.3789,44.5,1447.3789,54.5,1451.3789,50.5,1447.3789" style="stroke:#181818;stroke-width:1.0;"/><line style="stroke:#181818;stroke-width:1.0;" x1="48.5" x2="522.5" y1="1447.3789" y2="1447.3789"/><text fill="#000000" font-family="sans-serif" font-size="13" font-weight="bold" lengthAdjust="spacing" textLength="14" x="60.5" y="1442.1162">31</text><text fill="#000000" font-family="sans-serif" font-size="13" lengthAdjust="spacing" textLength="318" x="78.5" y="1442.1162">show entry data and wait for selection vehicle to assign</text><path d="M10,1462.3789 L83,1462.3789 L83,1471.6699 L73,1481.6699 L10,1481.6699 L10,1462.3789 " fill="#EEEEEE" style="stroke:#000000;stroke-width:1.5;"/><rect fill="none" height="394.7832" style="stroke:#000000;stroke-width:1.5;" width="2566" x="10" y="1462.3789"/><text fill="#000000" font-family="sans-serif" font-size="13" font-weight="bold" lengthAdjust="spacing" textLength="28" x="25" y="1477.4072">loop</text><text fill="#000000" font-family="sans-serif" font-size="11" font-weight="bold" lengthAdjust="spacing" textLength="398" x="98" y="1476.249">[For Every vehicle that he want to add to the entry and are disposable to]</text><polygon fill="#181818" points="506.5,1500.9609,516.5,1504.9609,506.5,1508.9609,510.5,1504.9609" style="stroke:#181818;stroke-width:1.0;"/><line style="stroke:#181818;stroke-width:1.0;" x1="43.5" x2="512.5" y1="1504.9609" y2="1504.9609"/><text fill="#000000" font-family="sans-serif" font-size="13" font-weight="bold" lengthAdjust="spacing" textLength="14" x="50.5" y="1499.6982">32</text><text fill="#000000" font-family="sans-serif" font-size="13" lengthAdjust="spacing" textLength="274" x="68.5" y="1499.6982">select one vehicle and click on button to assign</text><polygon fill="#181818" points="840,1532.252,850,1536.252,840,1540.252,844,1536.252" style="stroke:#181818;stroke-width:1.0;"/><line style="stroke:#181818;stroke-width:1.0;" x1="528.5" x2="846" y1="1536.252" y2="1536.252"/><text fill="#000000" font-family="sans-serif" font-size="13" font-weight="bold" lengthAdjust="spacing" textLength="14" x="535.5" y="1530.9893">33</text><text fill="#000000" font-family="sans-serif" font-size="13" lengthAdjust="spacing" textLength="246" x="553.5" y="1530.9893">assignVehicleToEntry(vehicleDto,entryDto)</text><polygon fill="#181818" points="1216,1563.543,1226,1567.543,1216,1571.543,1220,1567.543" style="stroke:#181818;stroke-width:1.0;"/><line style="stroke:#181818;stroke-width:1.0;" x1="862" x2="1222" y1="1567.543" y2="1567.543"/><text fill="#000000" font-family="sans-serif" font-size="13" font-weight="bold" lengthAdjust="spacing" textLength="14" x="869" y="1562.2803">34</text><text fill="#000000" font-family="sans-serif" font-size="13" lengthAdjust="spacing" textLength="246" x="887" y="1562.2803">assignVehicleToEntry(vehicleDto,entryDto)</text><polygon fill="#181818" points="2499.5,1594.834,2509.5,1598.834,2499.5,1602.834,2503.5,1598.834" style="stroke:#181818;stroke-width:1.0;"/><line style="stroke:#181818;stroke-width:1.0;" x1="1238" x2="2505.5" y1="1598.834" y2="1598.834"/><text fill="#000000" font-family="sans-serif" font-size="13" font-weight="bold" lengthAdjust="spacing" textLength="14" x="1245" y="1593.5713">35</text><text fill="#000000" font-family="sans-serif" font-size="13" lengthAdjust="spacing" textLength="151" x="1263" y="1593.5713">entryDtoToEntry(entryDto)</text><polygon fill="#181818" points="2066.5,1626.125,2056.5,1630.125,2066.5,1634.125,2062.5,1630.125" style="stroke:#181818;stroke-width:1.0;"/><line style="stroke:#181818;stroke-width:1.0;" x1="2060.5" x2="2510.5" y1="1630.125" y2="1630.125"/><text fill="#000000" font-family="sans-serif" font-size="13" font-weight="bold" lengthAdjust="spacing" textLength="14" x="2072.5" y="1624.8623">36</text><text fill="#000000" font-family="sans-serif" font-size="13" lengthAdjust="spacing" textLength="183" x="2090.5" y="1624.8623">vehicleDtoToVehicle(vehicleDto)</text><polygon fill="#181818" points="2499.5,1657.416,2509.5,1661.416,2499.5,1665.416,2503.5,1661.416" style="stroke:#181818;stroke-width:1.0;"/><line style="stroke:#181818;stroke-width:1.0;" x1="2050.5" x2="2505.5" y1="1661.416" y2="1661.416"/><text fill="#000000" font-family="sans-serif" font-size="13" font-weight="bold" lengthAdjust="spacing" textLength="14" x="2057.5" y="1656.1533">37</text><text fill="#000000" font-family="sans-serif" font-size="13" lengthAdjust="spacing" textLength="39" x="2075.5" y="1656.1533">vehicle</text><polygon fill="#181818" points="2352.5,1688.707,2342.5,1692.707,2352.5,1696.707,2348.5,1692.707" style="stroke:#181818;stroke-width:1.0;"/><line style="stroke:#181818;stroke-width:1.0;" x1="2346.5" x2="2510.5" y1="1692.707" y2="1692.707"/><text fill="#000000" font-family="sans-serif" font-size="13" font-weight="bold" lengthAdjust="spacing" textLength="14" x="2358.5" y="1687.4443">38</text><text fill="#000000" font-family="sans-serif" font-size="13" lengthAdjust="spacing" textLength="133" x="2376.5" y="1687.4443">setNewVehicle(vehicle)</text><polygon fill="#181818" points="2499.5,1719.998,2509.5,1723.998,2499.5,1727.998,2503.5,1723.998" style="stroke:#181818;stroke-width:1.0;"/><line style="stroke:#181818;stroke-width:1.0;" x1="2336.5" x2="2505.5" y1="1723.998" y2="1723.998"/><text fill="#000000" font-family="sans-serif" font-size="13" font-weight="bold" lengthAdjust="spacing" textLength="14" x="2343.5" y="1718.7354">39</text><text fill="#000000" font-family="sans-serif" font-size="13" lengthAdjust="spacing" textLength="53" x="2361.5" y="1718.7354">true/false</text><polygon fill="#181818" points="1249,1751.2891,1239,1755.2891,1249,1759.2891,1245,1755.2891" style="stroke:#181818;stroke-width:1.0;"/><line style="stroke:#181818;stroke-width:1.0;" x1="1243" x2="2515.5" y1="1755.2891" y2="1755.2891"/><text fill="#000000" font-family="sans-serif" font-size="13" font-weight="bold" lengthAdjust="spacing" textLength="14" x="1255" y="1750.0264">40</text><text fill="#000000" font-family="sans-serif" font-size="13" lengthAdjust="spacing" textLength="29" x="1273" y="1750.0264">entry</text><polygon fill="#181818" points="873,1782.5801,863,1786.5801,873,1790.5801,869,1786.5801" style="stroke:#181818;stroke-width:1.0;"/><line style="stroke:#181818;stroke-width:1.0;" x1="867" x2="1232" y1="1786.5801" y2="1786.5801"/><text fill="#000000" font-family="sans-serif" font-size="13" font-weight="bold" lengthAdjust="spacing" textLength="14" x="879" y="1781.3174">41</text><text fill="#000000" font-family="sans-serif" font-size="13" lengthAdjust="spacing" textLength="53" x="897" y="1781.3174">true/false</text><polygon fill="#181818" points="539.5,1813.8711,529.5,1817.8711,539.5,1821.8711,535.5,1817.8711" style="stroke:#181818;stroke-width:1.0;"/><line style="stroke:#181818;stroke-width:1.0;" x1="533.5" x2="856" y1="1817.8711" y2="1817.8711"/><text fill="#000000" font-family="sans-serif" font-size="13" font-weight="bold" lengthAdjust="spacing" textLength="14" x="545.5" y="1812.6084">42</text><text fill="#000000" font-family="sans-serif" font-size="13" lengthAdjust="spacing" textLength="53" x="563.5" y="1812.6084">true/false</text><polygon fill="#181818" points="54.5,1845.1621,44.5,1849.1621,54.5,1853.1621,50.5,1849.1621" style="stroke:#181818;stroke-width:1.0;"/><line style="stroke:#181818;stroke-width:1.0;" x1="48.5" x2="522.5" y1="1849.1621" y2="1849.1621"/><text fill="#000000" font-family="sans-serif" font-size="13" font-weight="bold" lengthAdjust="spacing" textLength="14" x="60.5" y="1843.8994">43</text><text fill="#000000" font-family="sans-serif" font-size="13" lengthAdjust="spacing" textLength="140" x="78.5" y="1843.8994">show operation success</text><!--SRC=[rLbBK-Cu4BxhLwYu4AOOjYf7QfSgTc2ss88P2WAdkIXs9r7XI5vBWUNVRqloIxBZPEqCoVW2aLlTNp_LQgiNBbAMiILTIY6ZHIQNG7Ms0gBADocBNjWS7lLx0ZI3I3CnJ-e4Qi5Y-SR5dCvOee0Gjj9Ih9PJo0WvNl0Ow4nAFPN_4XPfcT6ZlnxlZYXJ5FyIvA5vn5CcD3qwlvo3YDdJZNtzT1EyVURmTWMQyKHT2vsz1zJZLcPV99BA987CadsPFDnkODko8sJz0AbK79NXe2nHkV3-o8rzq0B-bgosuuTeChY_lPpuEy1WgVZYfcj_nUuBrdmMhx3WKG8Ua-TmpR9fh8OsSkyjxVS__tw412C1udQgAoqjOK5rDVdk4pBh6IIZv_IMA_rxjV72xZIB6tO7Mvlxsh7TiJJD7LiGtbtUtry_1EJMheMwRUyA9HlmtEkQd3R-3GiKF2izDkXjDrJKX9ZiugzCWyqhGlC7Vz3F5vWUk96f5qLH9bEApmLbD0yGkoPSB54kgCkSYaV96LEI7DFQWsm_8tSZv1ohmpyhK5hHc6b6HndC80CHmIcDGKKPJpMNufIYX9dCbYoXFuJ_HaEq43p2DzvolCgO-o-IIf-GEe3ZA0E3pEPrYEp2Bd_wXDWSsUY4h252aZbefxYnvyWNKrgW8QV-eCPKlaBMJLLw1dHkQMVvuzoJw-YHalZmBV3IkKL8UIGn-D1Rr7VEKmlvLi1X8gPlZ6iJ5yfc2PK27Cfrt4reUDgPk2kmTJ9Poo8FBgpilWlNR1vl2mr9BMDRsUki8K_2amvw5oXvDJ7-kfUOJTC4lihCwjOLEUF0WJbBvDroW3X9DqBXaHk5Uc_xbEBRJgXU7CtJXhQqa2a4rUdMIqRDUJl3NPhQ7BMU5oiHGuriJ_5UB2oeMemrZkwXTdJGTcMveEqu7Bi5NTDkh3R8Q8qWQrIGeTPhDc-z-3M18lfwHzLna6xx28buxH5PPuni4obJSzoaCbqbHYckg5noRHeviaDzWlpgF72tZ94TcRyCc22tDdGc_pjQmXj3BsuXHeHT8KJ4Cvveo7BBg6zIFocu4HE-h0xPqveB1gfKYUx5fspRF1MMe1SoBeDmO93K8ExAu7WnsNafCPUTWPeQ5hjIyITaQoFyXoMhVub4g5hYnMrK0_pLfi90lmHtrTwDMuydq30u4r3Pu5ZeWSqMV-oVAM0MlXS5zIELRDMpuTlSgwWp_QFuCP7LyA9m-ya7Gp-4CDaKA9Nvq7POj4RyewqqsBhUTEdNm5uhV1xwWyajaqjbzJWxEzjxwfYn6zcRa-eezWvYBrLaytbZPbrnNDHQEwuvW8AmLu_j08YPBkxRqK6xXwxjtV4TJYAKhQ8P8-v4js2cEmw0sN6bDzQrLoutbIz7kpDijznObalXVGYm7mS8NJjCzUUiLVDsRPktajE2QRe052Ri71bJrlpHkEJW62Gi0nfpXSqucrhfWIhbnuknFqGkX1WUKSAZ5robqvKsSyWrAdWAa1Px5S7dDZyNtPsRwLPUEws6n9rZNhBbtNwWkCxRVCkDgknb2xw5o0roMbDWYrRP2CYLswfYhyqzidqP2K6G7gbEslLqTsu5-Xky1MfjeLFdrTYmheCtt-5_Sv_K-zowAypDc8Ek3pcb1JQ5Kf4mQu1stRaxwkDcRYqrhrdoP0hkeo5LgoW2fSYMzSnzPICr2lCvzJy0]--></g></svg>