<?xml version="1.0" encoding="us-ascii" standalone="no"?><svg xmlns="http://www.w3.org/2000/svg" xmlns:xlink="http://www.w3.org/1999/xlink" contentStyleType="text/css" height="515px" preserveAspectRatio="none" style="width:1011px;height:515px;background:#FFFFFF;" version="1.1" viewBox="0 0 1011 515" width="1011px" zoomAndPan="magnify"><defs/><g><rect fill="#FFFFFF" height="361.2832" style="stroke:#181818;stroke-width:1.0;" width="10" x="233" y="84.2871"/><rect fill="#FFFFFF" height="29.3105" style="stroke:#181818;stroke-width:1.0;" width="10" x="431" y="155.9082"/><rect fill="#FFFFFF" height="29.3105" style="stroke:#181818;stroke-width:1.0;" width="10" x="544" y="214.5293"/><rect fill="#FFFFFF" height="172.4199" style="stroke:#181818;stroke-width:1.0;" width="10" x="693" y="243.8398"/><rect fill="#FFFFFF" height="28" style="stroke:#181818;stroke-width:1.0;" width="10" x="698" y="351.9492"/><line style="stroke:#181818;stroke-width:0.5;stroke-dasharray:5.0,5.0;" x1="238" x2="238" y1="52.9766" y2="463.5703"/><line style="stroke:#181818;stroke-width:0.5;stroke-dasharray:5.0,5.0;" x1="435.5" x2="435.5" y1="52.9766" y2="463.5703"/><line style="stroke:#181818;stroke-width:0.5;stroke-dasharray:5.0,5.0;" x1="548.5" x2="548.5" y1="52.9766" y2="463.5703"/><line style="stroke:#181818;stroke-width:0.5;stroke-dasharray:5.0,5.0;" x1="697.5" x2="697.5" y1="52.9766" y2="463.5703"/><line style="stroke:#181818;stroke-width:0.5;stroke-dasharray:5.0,5.0;" x1="956" x2="956" y1="311.8945" y2="463.5703"/><rect fill="#E3E3E3" height="30.4883" rx="2.5" ry="2.5" style="stroke:#181818;stroke-width:0.5;" width="110" x="183" y="21.4883"/><text fill="#000000" font-family="sans-serif" font-size="14" lengthAdjust="spacing" textLength="96" x="190" y="42.0234">:JobController</text><rect fill="#E3E3E3" height="30.4883" rx="2.5" ry="2.5" style="stroke:#181818;stroke-width:0.5;" width="110" x="183" y="462.5703"/><text fill="#000000" font-family="sans-serif" font-size="14" lengthAdjust="spacing" textLength="96" x="190" y="483.1055">:JobController</text><rect fill="#E3E3E3" height="30.4883" rx="2.5" ry="2.5" style="stroke:#181818;stroke-width:0.5;" width="103" x="384.5" y="21.4883"/><text fill="#000000" font-family="sans-serif" font-size="14" lengthAdjust="spacing" textLength="89" x="391.5" y="42.0234">:Repositories</text><rect fill="#E3E3E3" height="30.4883" rx="2.5" ry="2.5" style="stroke:#181818;stroke-width:0.5;" width="103" x="384.5" y="462.5703"/><text fill="#000000" font-family="sans-serif" font-size="14" lengthAdjust="spacing" textLength="89" x="391.5" y="483.1055">:Repositories</text><rect fill="#E3E3E3" height="46.9766" rx="2.5" ry="2.5" style="stroke:#181818;stroke-width:0.5;" width="103" x="497.5" y="5"/><text fill="#000000" font-family="sans-serif" font-size="14" lengthAdjust="spacing" textLength="82" x="508" y="25.5352">repositories</text><text fill="#000000" font-family="sans-serif" font-size="14" lengthAdjust="spacing" textLength="89" x="504.5" y="42.0234">:Repositories</text><rect fill="#E3E3E3" height="46.9766" rx="2.5" ry="2.5" style="stroke:#181818;stroke-width:0.5;" width="103" x="497.5" y="462.5703"/><text fill="#000000" font-family="sans-serif" font-size="14" lengthAdjust="spacing" textLength="82" x="508" y="483.1055">repositories</text><text fill="#000000" font-family="sans-serif" font-size="14" lengthAdjust="spacing" textLength="89" x="504.5" y="499.5938">:Repositories</text><rect fill="#E3E3E3" height="46.9766" rx="2.5" ry="2.5" style="stroke:#181818;stroke-width:0.5;" width="175" x="610.5" y="5"/><text fill="#000000" font-family="sans-serif" font-size="14" lengthAdjust="spacing" textLength="161" x="617.5" y="25.5352">jobCategoryRepository:</text><text fill="#000000" font-family="sans-serif" font-size="14" lengthAdjust="spacing" textLength="157" x="619.5" y="42.0234">JobCategoryRepository</text><rect fill="#E3E3E3" height="46.9766" rx="2.5" ry="2.5" style="stroke:#181818;stroke-width:0.5;" width="175" x="610.5" y="462.5703"/><text fill="#000000" font-family="sans-serif" font-size="14" lengthAdjust="spacing" textLength="161" x="617.5" y="483.1055">jobCategoryRepository:</text><text fill="#000000" font-family="sans-serif" font-size="14" lengthAdjust="spacing" textLength="157" x="619.5" y="499.5938">JobCategoryRepository</text><rect fill="#E3E3E3" height="30.4883" rx="2.5" ry="2.5" style="stroke:#181818;stroke-width:0.5;" width="98" x="907" y="462.5703"/><text fill="#000000" font-family="sans-serif" font-size="14" lengthAdjust="spacing" textLength="84" x="914" y="483.1055">JobCategory</text><rect fill="#FFFFFF" height="361.2832" style="stroke:#181818;stroke-width:1.0;" width="10" x="233" y="84.2871"/><rect fill="#FFFFFF" height="29.3105" style="stroke:#181818;stroke-width:1.0;" width="10" x="431" y="155.9082"/><rect fill="#FFFFFF" height="29.3105" style="stroke:#181818;stroke-width:1.0;" width="10" x="544" y="214.5293"/><rect fill="#FFFFFF" height="172.4199" style="stroke:#181818;stroke-width:1.0;" width="10" x="693" y="243.8398"/><rect fill="#FFFFFF" height="28" style="stroke:#181818;stroke-width:1.0;" width="10" x="698" y="351.9492"/><polygon fill="#181818" points="221,80.2871,231,84.2871,221,88.2871,225,84.2871" style="stroke:#181818;stroke-width:1.0;"/><line style="stroke:#181818;stroke-width:1.0;" x1="0" x2="227" y1="84.2871" y2="84.2871"/><text fill="#000000" font-family="sans-serif" font-size="13" font-weight="bold" lengthAdjust="spacing" textLength="9" x="7" y="79.5449">5</text><text fill="#000000" font-family="sans-serif" font-size="13" lengthAdjust="spacing" textLength="201" x="20" y="79.5449">registerJobCategories(job name)</text><line style="stroke:#181818;stroke-width:1.0;" x1="243" x2="285" y1="113.5977" y2="113.5977"/><line style="stroke:#181818;stroke-width:1.0;" x1="285" x2="285" y1="113.5977" y2="126.5977"/><line style="stroke:#181818;stroke-width:1.0;" x1="244" x2="285" y1="126.5977" y2="126.5977"/><polygon fill="#181818" points="254,122.5977,244,126.5977,254,130.5977,250,126.5977" style="stroke:#181818;stroke-width:1.0;"/><text fill="#000000" font-family="sans-serif" font-size="13" font-weight="bold" lengthAdjust="spacing" textLength="9" x="250" y="108.8555">6</text><text fill="#000000" font-family="sans-serif" font-size="13" lengthAdjust="spacing" textLength="161" x="263" y="108.8555">verifyJobName(job name))</text><polygon fill="#181818" points="419,151.9082,429,155.9082,419,159.9082,423,155.9082" style="stroke:#181818;stroke-width:1.0;"/><line style="stroke:#181818;stroke-width:1.0;" x1="243" x2="425" y1="155.9082" y2="155.9082"/><text fill="#000000" font-family="sans-serif" font-size="13" font-weight="bold" lengthAdjust="spacing" textLength="9" x="250" y="151.166">7</text><text fill="#000000" font-family="sans-serif" font-size="13" lengthAdjust="spacing" textLength="81" x="263" y="151.166">getInstance()</text><polygon fill="#181818" points="254,181.2188,244,185.2188,254,189.2188,250,185.2188" style="stroke:#181818;stroke-width:1.0;"/><line style="stroke:#181818;stroke-width:1.0;stroke-dasharray:2.0,2.0;" x1="248" x2="435" y1="185.2188" y2="185.2188"/><text fill="#000000" font-family="sans-serif" font-size="13" font-weight="bold" lengthAdjust="spacing" textLength="9" x="260" y="180.4766">8</text><text fill="#000000" font-family="sans-serif" font-size="13" lengthAdjust="spacing" textLength="75" x="273" y="180.4766">repositories</text><polygon fill="#181818" points="532,210.5293,542,214.5293,532,218.5293,536,214.5293" style="stroke:#181818;stroke-width:1.0;"/><line style="stroke:#181818;stroke-width:1.0;" x1="243" x2="538" y1="214.5293" y2="214.5293"/><text fill="#000000" font-family="sans-serif" font-size="13" font-weight="bold" lengthAdjust="spacing" textLength="9" x="250" y="209.7871">9</text><text fill="#000000" font-family="sans-serif" font-size="13" lengthAdjust="spacing" textLength="171" x="263" y="209.7871">getJobCategoryRepository()</text><polygon fill="#181818" points="254,239.8398,244,243.8398,254,247.8398,250,243.8398" style="stroke:#181818;stroke-width:1.0;"/><line style="stroke:#181818;stroke-width:1.0;stroke-dasharray:2.0,2.0;" x1="248" x2="548" y1="243.8398" y2="243.8398"/><text fill="#000000" font-family="sans-serif" font-size="13" font-weight="bold" lengthAdjust="spacing" textLength="18" x="260" y="239.0977">10</text><text fill="#000000" font-family="sans-serif" font-size="13" lengthAdjust="spacing" textLength="143" x="282" y="239.0977">jobCategoryRepository</text><polygon fill="#181818" points="681,269.1504,691,273.1504,681,277.1504,685,273.1504" style="stroke:#181818;stroke-width:1.0;"/><line style="stroke:#181818;stroke-width:1.0;" x1="243" x2="687" y1="273.1504" y2="273.1504"/><text fill="#000000" font-family="sans-serif" font-size="13" font-weight="bold" lengthAdjust="spacing" textLength="18" x="250" y="268.4082">11</text><text fill="#000000" font-family="sans-serif" font-size="13" lengthAdjust="spacing" textLength="194" x="272" y="268.4082">registerJobCategory (job name)</text><polygon fill="#181818" points="895,298.4609,905,302.4609,895,306.4609,899,302.4609" style="stroke:#181818;stroke-width:1.0;"/><line style="stroke:#181818;stroke-width:1.0;" x1="703" x2="901" y1="302.4609" y2="302.4609"/><text fill="#000000" font-family="sans-serif" font-size="13" font-weight="bold" lengthAdjust="spacing" textLength="18" x="710" y="297.7188">12</text><text fill="#000000" font-family="sans-serif" font-size="13" lengthAdjust="spacing" textLength="118" x="732" y="297.7188">JobCategory(name)</text><rect fill="#E3E3E3" height="30.4883" rx="2.5" ry="2.5" style="stroke:#181818;stroke-width:0.5;" width="98" x="907" y="281.1504"/><text fill="#000000" font-family="sans-serif" font-size="14" lengthAdjust="spacing" textLength="84" x="914" y="301.6855">JobCategory</text><line style="stroke:#181818;stroke-width:1.0;" x1="708" x2="750" y1="343.9492" y2="343.9492"/><line style="stroke:#181818;stroke-width:1.0;" x1="750" x2="750" y1="343.9492" y2="356.9492"/><line style="stroke:#181818;stroke-width:1.0;" x1="709" x2="750" y1="356.9492" y2="356.9492"/><polygon fill="#181818" points="719,352.9492,709,356.9492,719,360.9492,715,356.9492" style="stroke:#181818;stroke-width:1.0;"/><text fill="#000000" font-family="sans-serif" font-size="13" font-weight="bold" lengthAdjust="spacing" textLength="18" x="715" y="339.207">13</text><text fill="#000000" font-family="sans-serif" font-size="13" lengthAdjust="spacing" textLength="212" x="737" y="339.207">verifyIfExistAndSave(jobCategory)</text><polygon fill="#181818" points="254,412.2598,244,416.2598,254,420.2598,250,416.2598" style="stroke:#181818;stroke-width:1.0;"/><line style="stroke:#181818;stroke-width:1.0;" x1="248" x2="697" y1="416.2598" y2="416.2598"/><text fill="#000000" font-family="sans-serif" font-size="13" font-weight="bold" lengthAdjust="spacing" textLength="18" x="260" y="411.5176">14</text><text fill="#000000" font-family="sans-serif" font-size="13" lengthAdjust="spacing" textLength="99" x="282" y="411.5176">jobCategoryList</text><polygon fill="#181818" points="11,441.5703,1,445.5703,11,449.5703,7,445.5703" style="stroke:#181818;stroke-width:1.0;"/><line style="stroke:#181818;stroke-width:1.0;stroke-dasharray:2.0,2.0;" x1="5" x2="237" y1="445.5703" y2="445.5703"/><text fill="#000000" font-family="sans-serif" font-size="13" font-weight="bold" lengthAdjust="spacing" textLength="18" x="17" y="440.8281">15</text><text fill="#000000" font-family="sans-serif" font-size="13" lengthAdjust="spacing" textLength="76" x="39" y="440.8281">jobCategory</text><!--SRC=[dLGxRy8m4DxzAomcGChGWGwegeHG1n2gAc1aCU48BeaTsOOs_xuN1uZJ79JYBUVx7lU8xLwgN1YHyKmh7U-Cpe0xSm1cBpUvYFSYWOKhKk06OYTKaeO9TYSs-akgX6z5Qe4n33iPormenpl3gLwFjN96focO3XUMZvVpsQ-aEUJQIgUD1EjpBe5Y8KizfrKJOWB4IhK9FcQZPHFnYKQ4WmGvQ_RXIasfkESWRnWJ1tHpoDPW-815hxuUFiJU9D8wC3KAlNHHbIkHGQ-1UsQC1qV4JXuHKxKclF7SjSOHZDmMgF2Eb3KtaZTG8PBe918bu2RAuYnZwFPQs8iVQWojxF9GAj79TzcQUZej-0R-9tSkh9nmLGavfrjb-UKWw_2ajN5oPsvLK35VLxwoKgINSw4aXbouWWVxHb7IL4sDVX-vW-_kQNqVvMjuhXPuidtxHkiZjLc8ez_ZSp9j-w_stHZ8dOYhXPn-lC3Y39q_eEWXmHFmDF2HboWYD1WB2FsZm7u0]--></g></svg>