<?xml version="1.0" encoding="us-ascii" standalone="no"?><svg xmlns="http://www.w3.org/2000/svg" xmlns:xlink="http://www.w3.org/1999/xlink" contentStyleType="text/css" height="616px" preserveAspectRatio="none" style="width:946px;height:616px;background:#FFFFFF;" version="1.1" viewBox="0 0 946 616" width="946px" zoomAndPan="magnify"><defs/><g><!--class ApplicationSession--><g id="elem_ApplicationSession"><rect codeLine="11" fill="#F1F1F1" height="80.9766" id="ApplicationSession" rx="2.5" ry="2.5" style="stroke:#181818;stroke-width:0.5;" width="162" x="539" y="245.44"/><ellipse cx="554" cy="261.44" fill="#ADD1B2" rx="11" ry="11" style="stroke:#181818;stroke-width:1.0;"/><path d="M556.9731,267.0831 Q556.3921,267.3819 555.7529,267.5313 Q555.1138,267.6807 554.4082,267.6807 Q551.9014,267.6807 550.5815,266.0289 Q549.2617,264.377 549.2617,261.2559 Q549.2617,258.1265 550.5815,256.4747 Q551.9014,254.8228 554.4082,254.8228 Q555.1138,254.8228 555.7612,254.9722 Q556.4087,255.1216 556.9731,255.4205 L556.9731,258.1431 Q556.3423,257.5621 555.7488,257.2923 Q555.1553,257.0225 554.5244,257.0225 Q553.1797,257.0225 552.4949,258.0892 Q551.8101,259.1558 551.8101,261.2559 Q551.8101,263.3477 552.4949,264.4144 Q553.1797,265.481 554.5244,265.481 Q555.1553,265.481 555.7488,265.2112 Q556.3423,264.9415 556.9731,264.3604 Z " fill="#000000"/><text fill="#000000" font-family="sans-serif" font-size="14" lengthAdjust="spacing" textLength="130" x="568" y="266.731">ApplicationSession</text><line style="stroke:#181818;stroke-width:0.5;" x1="540" x2="700" y1="277.44" y2="277.44"/><line style="stroke:#181818;stroke-width:0.5;" x1="540" x2="700" y1="285.44" y2="285.44"/><text fill="#000000" font-family="sans-serif" font-size="14" lengthAdjust="spacing" textLength="140" x="545" y="302.9752">+static getInstance()</text><text fill="#000000" font-family="sans-serif" font-size="14" lengthAdjust="spacing" textLength="148" x="545" y="319.4634">+getCurrentSession()</text></g><!--class UserSession--><g id="elem_UserSession"><rect codeLine="16" fill="#F1F1F1" height="48" id="UserSession" rx="2.5" ry="2.5" style="stroke:#181818;stroke-width:0.5;" width="115" x="700.5" y="419.9"/><ellipse cx="715.5" cy="435.9" fill="#ADD1B2" rx="11" ry="11" style="stroke:#181818;stroke-width:1.0;"/><path d="M718.4731,441.5431 Q717.8921,441.8419 717.2529,441.9913 Q716.6138,442.1407 715.9082,442.1407 Q713.4014,442.1407 712.0815,440.4889 Q710.7617,438.837 710.7617,435.7159 Q710.7617,432.5865 712.0815,430.9347 Q713.4014,429.2828 715.9082,429.2828 Q716.6138,429.2828 717.2612,429.4322 Q717.9087,429.5816 718.4731,429.8805 L718.4731,432.6031 Q717.8423,432.0221 717.2488,431.7523 Q716.6553,431.4825 716.0244,431.4825 Q714.6797,431.4825 713.9949,432.5492 Q713.3101,433.6158 713.3101,435.7159 Q713.3101,437.8077 713.9949,438.8744 Q714.6797,439.941 716.0244,439.941 Q716.6553,439.941 717.2488,439.6712 Q717.8423,439.4015 718.4731,438.8204 Z " fill="#000000"/><text fill="#000000" font-family="sans-serif" font-size="14" lengthAdjust="spacing" textLength="83" x="729.5" y="441.191">UserSession</text><line style="stroke:#181818;stroke-width:0.5;" x1="701.5" x2="814.5" y1="451.9" y2="451.9"/><line style="stroke:#181818;stroke-width:0.5;" x1="701.5" x2="814.5" y1="459.9" y2="459.9"/></g><!--class HRM--><g id="elem_HRM"><rect codeLine="19" fill="#F1F1F1" height="48" id="HRM" rx="2.5" ry="2.5" style="stroke:#181818;stroke-width:0.5;" width="63" x="115.5" y="561.39"/><ellipse cx="130.5" cy="577.39" fill="#ADD1B2" rx="11" ry="11" style="stroke:#181818;stroke-width:1.0;"/><path d="M133.4731,583.0331 Q132.8921,583.3319 132.2529,583.4813 Q131.6138,583.6307 130.9082,583.6307 Q128.4014,583.6307 127.0815,581.9789 Q125.7617,580.327 125.7617,577.2059 Q125.7617,574.0765 127.0815,572.4247 Q128.4014,570.7728 130.9082,570.7728 Q131.6138,570.7728 132.2612,570.9222 Q132.9087,571.0716 133.4731,571.3705 L133.4731,574.0931 Q132.8423,573.5121 132.2488,573.2423 Q131.6553,572.9725 131.0244,572.9725 Q129.6797,572.9725 128.9949,574.0392 Q128.3101,575.1058 128.3101,577.2059 Q128.3101,579.2977 128.9949,580.3644 Q129.6797,581.431 131.0244,581.431 Q131.6553,581.431 132.2488,581.1612 Q132.8423,580.8915 133.4731,580.3104 Z " fill="#000000"/><text fill="#000000" font-family="sans-serif" font-size="14" lengthAdjust="spacing" textLength="31" x="144.5" y="582.681">HRM</text><line style="stroke:#181818;stroke-width:0.5;" x1="116.5" x2="177.5" y1="593.39" y2="593.39"/><line style="stroke:#181818;stroke-width:0.5;" x1="116.5" x2="177.5" y1="601.39" y2="601.39"/></g><!--class JobCategory--><g id="elem_JobCategory"><rect codeLine="22" fill="#F1F1F1" height="80.9766" id="JobCategory" rx="2.5" ry="2.5" style="stroke:#181818;stroke-width:0.5;" width="155" x="397.5" y="403.41"/><ellipse cx="430.05" cy="419.41" fill="#ADD1B2" rx="11" ry="11" style="stroke:#181818;stroke-width:1.0;"/><path d="M433.0231,425.0531 Q432.4421,425.3519 431.8029,425.5013 Q431.1638,425.6507 430.4582,425.6507 Q427.9514,425.6507 426.6315,423.9989 Q425.3117,422.347 425.3117,419.2259 Q425.3117,416.0965 426.6315,414.4447 Q427.9514,412.7928 430.4582,412.7928 Q431.1638,412.7928 431.8112,412.9422 Q432.4587,413.0916 433.0231,413.3905 L433.0231,416.1131 Q432.3923,415.5321 431.7988,415.2623 Q431.2053,414.9925 430.5744,414.9925 Q429.2297,414.9925 428.5449,416.0592 Q427.8601,417.1258 427.8601,419.2259 Q427.8601,421.3177 428.5449,422.3844 Q429.2297,423.451 430.5744,423.451 Q431.2053,423.451 431.7988,423.1812 Q432.3923,422.9115 433.0231,422.3304 Z " fill="#000000"/><text fill="#000000" font-family="sans-serif" font-size="14" lengthAdjust="spacing" textLength="84" x="447.95" y="424.701">JobCategory</text><line style="stroke:#181818;stroke-width:0.5;" x1="398.5" x2="551.5" y1="435.41" y2="435.41"/><text fill="#000000" font-family="sans-serif" font-size="14" lengthAdjust="spacing" textLength="91" x="403.5" y="452.9452">-String name</text><line style="stroke:#181818;stroke-width:0.5;" x1="398.5" x2="551.5" y1="459.8983" y2="459.8983"/><text fill="#000000" font-family="sans-serif" font-size="14" lengthAdjust="spacing" textLength="143" x="403.5" y="477.4334">+JobCategory(name)</text></g><!--class JobCategoryRepository--><g id="elem_JobCategoryRepository"><rect codeLine="29" fill="#F1F1F1" height="80.9766" id="JobCategoryRepository" rx="2.5" ry="2.5" style="stroke:#181818;stroke-width:0.5;" width="189" x="179.5" y="245.44"/><ellipse cx="194.5" cy="261.44" fill="#ADD1B2" rx="11" ry="11" style="stroke:#181818;stroke-width:1.0;"/><path d="M197.4731,267.0831 Q196.8921,267.3819 196.2529,267.5313 Q195.6138,267.6807 194.9082,267.6807 Q192.4014,267.6807 191.0815,266.0289 Q189.7617,264.377 189.7617,261.2559 Q189.7617,258.1265 191.0815,256.4747 Q192.4014,254.8228 194.9082,254.8228 Q195.6138,254.8228 196.2612,254.9722 Q196.9087,255.1216 197.4731,255.4205 L197.4731,258.1431 Q196.8423,257.5621 196.2488,257.2923 Q195.6553,257.0225 195.0244,257.0225 Q193.6797,257.0225 192.9949,258.0892 Q192.3101,259.1558 192.3101,261.2559 Q192.3101,263.3477 192.9949,264.4144 Q193.6797,265.481 195.0244,265.481 Q195.6553,265.481 196.2488,265.2112 Q196.8423,264.9415 197.4731,264.3604 Z " fill="#000000"/><text fill="#000000" font-family="sans-serif" font-size="14" lengthAdjust="spacing" textLength="157" x="208.5" y="266.731">JobCategoryRepository</text><line style="stroke:#181818;stroke-width:0.5;" x1="180.5" x2="367.5" y1="277.44" y2="277.44"/><text fill="#000000" font-family="sans-serif" font-size="14" lengthAdjust="spacing" textLength="141" x="185.5" y="294.9752">-List &lt;JobCategory&gt;</text><line style="stroke:#181818;stroke-width:0.5;" x1="180.5" x2="367.5" y1="301.9283" y2="301.9283"/><text fill="#000000" font-family="sans-serif" font-size="14" lengthAdjust="spacing" textLength="150" x="185.5" y="319.4634">+getJobCategoryList()</text></g><!--class Repositories--><g id="elem_Repositories"><rect codeLine="35" fill="#F1F1F1" height="97.4648" id="Repositories" rx="2.5" ry="2.5" style="stroke:#181818;stroke-width:0.5;" width="212" x="168" y="117.97"/><ellipse cx="227.25" cy="133.97" fill="#ADD1B2" rx="11" ry="11" style="stroke:#181818;stroke-width:1.0;"/><path d="M230.2231,139.6131 Q229.6421,139.9119 229.0029,140.0613 Q228.3638,140.2107 227.6582,140.2107 Q225.1514,140.2107 223.8315,138.5589 Q222.5117,136.907 222.5117,133.7859 Q222.5117,130.6565 223.8315,129.0047 Q225.1514,127.3528 227.6582,127.3528 Q228.3638,127.3528 229.0112,127.5022 Q229.6587,127.6516 230.2231,127.9505 L230.2231,130.6731 Q229.5923,130.0921 228.9988,129.8223 Q228.4053,129.5525 227.7744,129.5525 Q226.4297,129.5525 225.7449,130.6192 Q225.0601,131.6858 225.0601,133.7859 Q225.0601,135.8777 225.7449,136.9444 Q226.4297,138.011 227.7744,138.011 Q228.4053,138.011 228.9988,137.7412 Q229.5923,137.4715 230.2231,136.8904 Z " fill="#000000"/><text fill="#000000" font-family="sans-serif" font-size="14" lengthAdjust="spacing" textLength="85" x="247.75" y="139.261">Repositories</text><line style="stroke:#181818;stroke-width:0.5;" x1="169" x2="379" y1="149.97" y2="149.97"/><line style="stroke:#181818;stroke-width:0.5;" x1="169" x2="379" y1="157.97" y2="157.97"/><text fill="#000000" font-family="sans-serif" font-size="14" lengthAdjust="spacing" textLength="103" x="174" y="175.5052">-Repositories()</text><text fill="#000000" font-family="sans-serif" font-size="14" lengthAdjust="spacing" textLength="194" x="174" y="191.9934">+getInstance() : repositories</text><text fill="#000000" font-family="sans-serif" font-size="14" lengthAdjust="spacing" textLength="200" x="174" y="208.4817">+getJobCategoryRepository()</text></g><!--class RegisterJobCategoryController--><g id="elem_RegisterJobCategoryController"><rect codeLine="42" fill="#F1F1F1" height="80.9766" id="RegisterJobCategoryController" rx="2.5" ry="2.5" style="stroke:#181818;stroke-width:0.5;" width="293" x="339.5" y="7"/><ellipse cx="377.45" cy="23" fill="#ADD1B2" rx="11" ry="11" style="stroke:#181818;stroke-width:1.0;"/><path d="M380.4231,28.6431 Q379.8421,28.9419 379.2029,29.0913 Q378.5638,29.2407 377.8582,29.2407 Q375.3514,29.2407 374.0315,27.5889 Q372.7117,25.937 372.7117,22.8159 Q372.7117,19.6865 374.0315,18.0347 Q375.3514,16.3828 377.8582,16.3828 Q378.5638,16.3828 379.2112,16.5322 Q379.8587,16.6816 380.4231,16.9805 L380.4231,19.7031 Q379.7923,19.1221 379.1988,18.8523 Q378.6053,18.5825 377.9744,18.5825 Q376.6297,18.5825 375.9449,19.6492 Q375.2601,20.7158 375.2601,22.8159 Q375.2601,24.9077 375.9449,25.9744 Q376.6297,27.041 377.9744,27.041 Q378.6053,27.041 379.1988,26.7712 Q379.7923,26.5015 380.4231,25.9204 Z " fill="#000000"/><text fill="#000000" font-family="sans-serif" font-size="14" lengthAdjust="spacing" textLength="210" x="396.55" y="28.291">RegisterJobCategoryController</text><line style="stroke:#181818;stroke-width:0.5;" x1="340.5" x2="631.5" y1="39" y2="39"/><line style="stroke:#181818;stroke-width:0.5;" x1="340.5" x2="631.5" y1="47" y2="47"/><text fill="#000000" font-family="sans-serif" font-size="14" lengthAdjust="spacing" textLength="281" x="345.5" y="64.5352">+registerJobCategory(jobCategoryName)</text><text fill="#000000" font-family="sans-serif" font-size="14" lengthAdjust="spacing" textLength="162" x="345.5" y="81.0234">+getJobCategoriesList()</text></g><g id="elem_GMN9"><path d="M667,27.17 L667,43.48 L632.82,47.48 L667,51.48 L667,67.7911 A0,0 0 0 0 667,67.7911 L939,67.7911 A0,0 0 0 0 939,67.7911 L939,37.17 L929,27.17 L667,27.17 A0,0 0 0 0 667,27.17 " fill="#FEFFDD" style="stroke:#181818;stroke-width:0.5;"/><path d="M929,27.17 L929,37.17 L939,37.17 L929,27.17 " fill="#FEFFDD" style="stroke:#181818;stroke-width:0.5;"/><text fill="#000000" font-family="sans-serif" font-size="13" lengthAdjust="spacing" textLength="88" x="673" y="44.7384">- jobCategory</text><text fill="#000000" font-family="sans-serif" font-size="13" lengthAdjust="spacing" textLength="251" x="673" y="60.0489">is achieved with job category repository</text></g><g id="elem_GMN12"><path d="M208,423.59 L208,464.2111 A0,0 0 0 0 208,464.2111 L362,464.2111 A0,0 0 0 0 362,464.2111 L362,433.59 L352,423.59 L287.61,423.59 L276.8,326.69 L279.61,423.59 L208,423.59 A0,0 0 0 0 208,423.59 " fill="#FEFFDD" style="stroke:#181818;stroke-width:0.5;"/><path d="M352,423.59 L352,433.59 L362,433.59 L352,423.59 " fill="#FEFFDD" style="stroke:#181818;stroke-width:0.5;"/><text fill="#000000" font-family="sans-serif" font-size="13" lengthAdjust="spacing" textLength="133" x="214" y="441.1584">- used for displaying</text><text fill="#000000" font-family="sans-serif" font-size="13" lengthAdjust="spacing" textLength="126" x="214" y="456.4689">the job category list</text></g><!--class RegisterJobCategoryUI--><g id="elem_RegisterJobCategoryUI"><rect codeLine="58" fill="#F1F1F1" height="48" id="RegisterJobCategoryUI" rx="2.5" ry="2.5" style="stroke:#181818;stroke-width:0.5;" width="186" x="119" y="23.48"/><ellipse cx="134" cy="39.48" fill="#ADD1B2" rx="11" ry="11" style="stroke:#181818;stroke-width:1.0;"/><path d="M136.9731,45.1231 Q136.3921,45.4219 135.7529,45.5713 Q135.1138,45.7207 134.4082,45.7207 Q131.9014,45.7207 130.5815,44.0689 Q129.2617,42.417 129.2617,39.2959 Q129.2617,36.1665 130.5815,34.5147 Q131.9014,32.8628 134.4082,32.8628 Q135.1138,32.8628 135.7612,33.0122 Q136.4087,33.1616 136.9731,33.4605 L136.9731,36.1831 Q136.3423,35.6021 135.7488,35.3323 Q135.1553,35.0625 134.5244,35.0625 Q133.1797,35.0625 132.4949,36.1292 Q131.8101,37.1958 131.8101,39.2959 Q131.8101,41.3877 132.4949,42.4544 Q133.1797,43.521 134.5244,43.521 Q135.1553,43.521 135.7488,43.2512 Q136.3423,42.9815 136.9731,42.4004 Z " fill="#000000"/><text fill="#000000" font-family="sans-serif" font-size="14" lengthAdjust="spacing" textLength="154" x="148" y="44.771">RegisterJobCategoryUI</text><line style="stroke:#181818;stroke-width:0.5;" x1="120" x2="304" y1="55.48" y2="55.48"/><line style="stroke:#181818;stroke-width:0.5;" x1="120" x2="304" y1="63.48" y2="63.48"/></g><!--link Repositories to Repositories--><g id="link_Repositories_Repositories"><path codeLine="61" d="M380.37,145.42 C400.66,147.97 415,155.06 415,166.7 C415,178.35 406.6132,184.6918 386.3232,187.2418 " fill="none" id="Repositories-to-Repositories" style="stroke:#181818;stroke-width:1.0;"/><polygon fill="#181818" points="380.37,187.99,389.7985,190.8365,385.331,187.3665,388.801,182.8989,380.37,187.99" style="stroke:#181818;stroke-width:1.0;"/><text fill="#000000" font-family="sans-serif" font-size="13" lengthAdjust="spacing" textLength="53" x="421" y="171.7684">instance</text></g><!--link ApplicationSession to ApplicationSession--><g id="link_ApplicationSession_ApplicationSession"><path codeLine="62" d="M701.31,271.35 C721.2,272.43 736,277.29 736,285.93 C736,294.56 727.1912,299.0947 707.3012,300.1747 " fill="none" id="ApplicationSession-to-ApplicationSession" style="stroke:#181818;stroke-width:1.0;"/><polygon fill="#181818" points="701.31,300.5,710.5136,304.0061,706.3026,300.2289,710.0799,296.0179,701.31,300.5" style="stroke:#181818;stroke-width:1.0;"/><text fill="#000000" font-family="sans-serif" font-size="13" lengthAdjust="spacing" textLength="53" x="742" y="290.9984">instance</text></g><!--link RegisterJobCategoryUI to RegisterJobCategoryController--><g id="link_RegisterJobCategoryUI_RegisterJobCategoryController"><path codeLine="64" d="M305.24,47.48 C310.16,47.48 317.96,47.48 333.3,47.48 " fill="none" id="RegisterJobCategoryUI-to-RegisterJobCategoryController" style="stroke:#181818;stroke-width:1.0;stroke-dasharray:7.0,7.0;"/><polygon fill="#181818" points="339.3,47.48,330.3,43.48,334.3,47.48,330.3,51.48,339.3,47.48" style="stroke:#181818;stroke-width:1.0;"/></g><!--link RegisterJobCategoryController to Repositories--><g id="link_RegisterJobCategoryController_Repositories"><path codeLine="66" d="M413.93,88.33 C396.89,97.76 383.7811,105.0073 366.1611,114.7473 " fill="none" id="RegisterJobCategoryController-to-Repositories" style="stroke:#181818;stroke-width:1.0;stroke-dasharray:7.0,7.0;"/><polygon fill="#181818" points="360.91,117.65,370.7218,116.7967,365.2859,115.2311,366.8515,109.7952,360.91,117.65" style="stroke:#181818;stroke-width:1.0;"/><text fill="#000000" font-family="sans-serif" font-size="13" lengthAdjust="spacing" textLength="75" x="388.42" y="116.5584">repositories</text></g><!--link Repositories to JobCategoryRepository--><g id="link_Repositories_JobCategoryRepository"><path codeLine="68" d="M274,215.72 C274,225.46 274,229.6 274,239.02 " fill="none" id="Repositories-to-JobCategoryRepository" style="stroke:#181818;stroke-width:1.0;"/><polygon fill="#181818" points="274,245.02,278,236.02,274,240.02,270,236.02,274,245.02" style="stroke:#181818;stroke-width:1.0;"/><text fill="#000000" font-family="sans-serif" font-size="13" lengthAdjust="spacing" textLength="8" x="265.2282" y="236.0726">1</text></g><!--link RegisterJobCategoryController to JobCategory--><g id="link_RegisterJobCategoryController_JobCategory"><path codeLine="69" d="M484.89,88.11 C482.79,163.61 478.3872,321.3023 476.2772,397.0123 " fill="none" id="RegisterJobCategoryController-to-JobCategory" style="stroke:#181818;stroke-width:1.0;stroke-dasharray:7.0,7.0;"/><polygon fill="#181818" points="476.11,403.01,480.3592,394.1249,476.2493,398.0119,472.3623,393.9021,476.11,403.01" style="stroke:#181818;stroke-width:1.0;"/></g><!--link RegisterJobCategoryController to JobCategoryRepository--><g id="link_RegisterJobCategoryController_JobCategoryRepository"><path codeLine="70" d="M339.24,83.82 C328.64,86.37 322,87.97 322,87.97 C322,87.97 6,117.97 6,117.97 C6,117.97 6,215.44 6,215.44 C6,215.44 96.232,238.8341 173.332,258.8241 " fill="none" id="RegisterJobCategoryController-to-JobCategoryRepository" style="stroke:#181818;stroke-width:1.0;stroke-dasharray:7.0,7.0;"/><polygon fill="#181818" points="179.14,260.33,171.432,254.1992,174.3,259.0751,169.4242,261.9432,179.14,260.33" style="stroke:#181818;stroke-width:1.0;"/><text fill="#000000" font-family="sans-serif" font-size="13" lengthAdjust="spacing" textLength="143" x="7" y="171.7684">JobCategoryRepository</text></g><!--link ApplicationSession to UserSession--><g id="link_ApplicationSession_UserSession"><path codeLine="73" d="M655.18,326.69 C681.21,356.11 711.8038,390.6867 733.4838,415.1867 " fill="none" id="ApplicationSession-to-UserSession" style="stroke:#181818;stroke-width:1.0;"/><polygon fill="#181818" points="737.46,419.68,734.4913,410.2892,734.1465,415.9355,728.5002,415.5907,737.46,419.68" style="stroke:#181818;stroke-width:1.0;"/><text fill="#000000" font-family="sans-serif" font-size="13" lengthAdjust="spacing" textLength="75" x="695" y="369.9784">userSession</text><text fill="#000000" font-family="sans-serif" font-size="13" lengthAdjust="spacing" textLength="8" x="723.1716" y="409.1599">1</text></g><!--link RegisterJobCategoryController to ApplicationSession--><g id="link_RegisterJobCategoryController_ApplicationSession"><path codeLine="75" d="M508.58,88.33 C533.34,132.02 569.8816,196.49 594.5916,240.09 " fill="none" id="RegisterJobCategoryController-to-ApplicationSession" style="stroke:#181818;stroke-width:1.0;stroke-dasharray:7.0,7.0;"/><polygon fill="#181818" points="597.55,245.31,596.5924,235.5078,595.0847,240.96,589.6325,239.4523,597.55,245.31" style="stroke:#181818;stroke-width:1.0;"/></g><!--link RegisterJobCategoryController to UserSession--><g id="link_RegisterJobCategoryController_UserSession"><path codeLine="76" d="M549.95,88.34 C642.28,145.89 802,245.44 802,245.44 C802,245.44 802,326.41 802,326.41 C802,326.41 781.7598,379.9969 768.9198,413.9969 " fill="none" id="RegisterJobCategoryController-to-UserSession" style="stroke:#181818;stroke-width:1.0;stroke-dasharray:7.0,7.0;"/><polygon fill="#181818" points="766.8,419.61,773.7217,412.6036,768.5665,414.9324,766.2376,409.7772,766.8,419.61" style="stroke:#181818;stroke-width:1.0;"/></g><!--link JobCategoryRepository to JobCategory--><g id="link_JobCategoryRepository_JobCategory"><path codeLine="78" d="M319.27,326.88 C344.95,349.54 372,373.41 372,373.41 C372,373.41 387.9957,384.2049 411.0057,399.7249 " fill="none" id="JobCategoryRepository-to-JobCategory" style="stroke:#181818;stroke-width:1.0;"/><polygon fill="#181818" points="415.98,403.08,410.7553,394.7312,411.8348,400.2841,406.2819,401.3635,415.98,403.08" style="stroke:#181818;stroke-width:1.0;"/><text fill="#000000" font-family="sans-serif" font-size="13" lengthAdjust="spacing" textLength="86" x="373" y="369.9784">jobCategory's</text><text fill="#000000" font-family="sans-serif" font-size="13" lengthAdjust="spacing" textLength="8" x="317.5895" y="346.8913">1</text><text fill="#000000" font-family="sans-serif" font-size="13" lengthAdjust="spacing" textLength="6" x="399.7079" y="392.6714">*</text></g><!--link JobCategory to HRM--><g id="link_JobCategory_HRM"><path codeLine="80" d="M397.27,477.96 C327.55,507.61 234.2918,547.2727 184.2318,568.5527 " fill="none" id="JobCategory-to-HRM" style="stroke:#181818;stroke-width:1.0;"/><polygon fill="#181818" points="178.71,570.9,188.5576,571.0603,183.3115,568.9439,185.4279,563.6979,178.71,570.9" style="stroke:#181818;stroke-width:1.0;"/><text fill="#000000" font-family="sans-serif" font-size="13" lengthAdjust="spacing" textLength="60" x="312" y="527.9584">createdBy</text></g><!--link JobCategoryRepository to HRM--><g id="link_JobCategoryRepository_HRM"><path codeLine="82" d="M226.55,326.69 C186.29,360.43 135,403.41 135,403.41 C135,403.41 135,484.39 135,484.39 C135,484.39 139.9243,525.4328 143.4743,554.9828 " fill="none" id="JobCategoryRepository-to-HRM" style="stroke:#181818;stroke-width:1.0;"/><polygon fill="#181818" points="144.19,560.94,147.0879,551.5271,143.5936,555.9757,139.1451,552.4814,144.19,560.94" style="stroke:#181818;stroke-width:1.0;"/><text fill="#000000" font-family="sans-serif" font-size="13" lengthAdjust="spacing" textLength="53" x="136" y="448.9684">employs</text><text fill="#000000" font-family="sans-serif" font-size="13" lengthAdjust="spacing" textLength="6" x="136.7738" y="550.7584">*</text></g><!--SRC=[bLHDZzCm4BtxLupsqW9Q1DSALLfweGWujEeFSDrfOjRnHFQ4LK3yT-p4JHmrtLroIJmVxps_iRFmZzhMqiaAAhAaIaSL0hi6nPYffNgK1UwvDGWE5KjRcBp0b_94JzeMS9R6vncZBN9R8zHashWGYvaaEIQHTIaZlNzWTlhOC6uLsRt-ZV11Y8N1CmCJE5sK32STvMYoGdGzy53NHYiPGtlqFhp-20ZFE_0SeWeAvAqDtrRXyarAXTYcSGujfvwG-Nj1F7Xq0zGG_RBx3jdoAnqtah4Wrq9FU0_x83yuOcM5YIUhMiPmnp83iSEQlEOSx9ls39-oclMeFOl6ibvyGXsWDFe1B0_c9ep6m2hCUIoQvHfL1epHYXqMGGIwh793bXqPW-uo37TTjFmvVl_ep9aX3LhI5YEX9SPq4EZyF77QUSRHHRG7gKgDl_04JvhBM03gCid1WbQWFK6aIwH7OgOgiiuQajWQ7s3FvC8nzRMHRJWENOPBd1AP83oZk6daOTiVkibKxzVJAQz0fpcAwziGgsUYMO-Ovts_Vi5WyMowxv-ed1omgotTVRoxuUqBF84eo_nVTNRnLZVOnQofIN3shmW0pRWIhz1nZVkAfaFECR-JAAmJ-7RYQ12OtOQ5dxHt3V4VjmBbC0HFdzjR-1VilXohsb3hnJy0]--></g></svg>