<?xml version="1.0" encoding="us-ascii" standalone="no"?><svg xmlns="http://www.w3.org/2000/svg" xmlns:xlink="http://www.w3.org/1999/xlink" contentStyleType="text/css" height="459px" preserveAspectRatio="none" style="width:1045px;height:459px;background:#FFFFFF;" version="1.1" viewBox="0 0 1045 459" width="1045px" zoomAndPan="magnify"><defs/><g><rect fill="#FFFFFF" height="269.1055" style="stroke:#181818;stroke-width:1.0;" width="10" x="18.5" y="91.4883"/><rect fill="#FFFFFF" height="247.7949" style="stroke:#181818;stroke-width:1.0;" width="10" x="266.5" y="112.7988"/><rect fill="#FFFFFF" height="73.7539" style="stroke:#181818;stroke-width:1.0;" width="10" x="509.5" y="242.2188"/><line style="stroke:#181818;stroke-width:0.5;stroke-dasharray:5.0,5.0;" x1="23" x2="23" y1="81.4883" y2="378.5938"/><line style="stroke:#181818;stroke-width:0.5;stroke-dasharray:5.0,5.0;" x1="271.5" x2="271.5" y1="81.4883" y2="378.5938"/><line style="stroke:#181818;stroke-width:0.5;stroke-dasharray:5.0,5.0;" x1="514.5" x2="514.5" y1="151.543" y2="378.5938"/><line style="stroke:#181818;stroke-width:0.5;stroke-dasharray:5.0,5.0;" x1="689.5" x2="689.5" y1="81.4883" y2="378.5938"/><line style="stroke:#181818;stroke-width:0.5;stroke-dasharray:5.0,5.0;" x1="802.5" x2="802.5" y1="81.4883" y2="378.5938"/><line style="stroke:#181818;stroke-width:0.5;stroke-dasharray:5.0,5.0;" x1="951.5" x2="951.5" y1="81.4883" y2="378.5938"/><text fill="#000000" font-family="sans-serif" font-size="14" lengthAdjust="spacing" textLength="31" x="5" y="78.5352">HRM</text><ellipse cx="23.5" cy="13.5" fill="#E3E3E3" rx="8" ry="8" style="stroke:#181818;stroke-width:0.5;"/><path d="M23.5,21.5 L23.5,48.5 M10.5,29.5 L36.5,29.5 M23.5,48.5 L10.5,63.5 M23.5,48.5 L36.5,63.5 " fill="none" style="stroke:#181818;stroke-width:0.5;"/><text fill="#000000" font-family="sans-serif" font-size="14" lengthAdjust="spacing" textLength="31" x="5" y="391.1289">HRM</text><ellipse cx="23.5" cy="402.582" fill="#E3E3E3" rx="8" ry="8" style="stroke:#181818;stroke-width:0.5;"/><path d="M23.5,410.582 L23.5,437.582 M10.5,418.582 L36.5,418.582 M23.5,437.582 L10.5,452.582 M23.5,437.582 L36.5,452.582 " fill="none" style="stroke:#181818;stroke-width:0.5;"/><rect fill="#E3E3E3" height="30.4883" rx="2.5" ry="2.5" style="stroke:#181818;stroke-width:0.5;" width="172" x="185.5" y="50"/><text fill="#000000" font-family="sans-serif" font-size="14" lengthAdjust="spacing" textLength="158" x="192.5" y="70.5352">:RegisterJobCategoryUI</text><rect fill="#E3E3E3" height="30.4883" rx="2.5" ry="2.5" style="stroke:#181818;stroke-width:0.5;" width="172" x="185.5" y="377.5938"/><text fill="#000000" font-family="sans-serif" font-size="14" lengthAdjust="spacing" textLength="158" x="192.5" y="398.1289">:RegisterJobCategoryUI</text><rect fill="#E3E3E3" height="30.4883" rx="2.5" ry="2.5" style="stroke:#181818;stroke-width:0.5;" width="228" x="400.5" y="377.5938"/><text fill="#000000" font-family="sans-serif" font-size="14" lengthAdjust="spacing" textLength="214" x="407.5" y="398.1289">:RegisterJobCategoryController</text><rect fill="#E3E3E3" height="30.4883" rx="2.5" ry="2.5" style="stroke:#181818;stroke-width:0.5;" width="103" x="638.5" y="50"/><text fill="#000000" font-family="sans-serif" font-size="14" lengthAdjust="spacing" textLength="89" x="645.5" y="70.5352">:Repositories</text><rect fill="#E3E3E3" height="30.4883" rx="2.5" ry="2.5" style="stroke:#181818;stroke-width:0.5;" width="103" x="638.5" y="377.5938"/><text fill="#000000" font-family="sans-serif" font-size="14" lengthAdjust="spacing" textLength="89" x="645.5" y="398.1289">:Repositories</text><rect fill="#E3E3E3" height="46.9766" rx="2.5" ry="2.5" style="stroke:#181818;stroke-width:0.5;" width="103" x="751.5" y="33.5117"/><text fill="#000000" font-family="sans-serif" font-size="14" lengthAdjust="spacing" textLength="82" x="762" y="54.0469">repositories</text><text fill="#000000" font-family="sans-serif" font-size="14" lengthAdjust="spacing" textLength="89" x="758.5" y="70.5352">:Repositories</text><rect fill="#E3E3E3" height="46.9766" rx="2.5" ry="2.5" style="stroke:#181818;stroke-width:0.5;" width="103" x="751.5" y="377.5938"/><text fill="#000000" font-family="sans-serif" font-size="14" lengthAdjust="spacing" textLength="82" x="762" y="398.1289">repositories</text><text fill="#000000" font-family="sans-serif" font-size="14" lengthAdjust="spacing" textLength="89" x="758.5" y="414.6172">:Repositories</text><rect fill="#E3E3E3" height="46.9766" rx="2.5" ry="2.5" style="stroke:#181818;stroke-width:0.5;" width="175" x="864.5" y="33.5117"/><text fill="#000000" font-family="sans-serif" font-size="14" lengthAdjust="spacing" textLength="161" x="871.5" y="54.0469">jobCategoryRepository:</text><text fill="#000000" font-family="sans-serif" font-size="14" lengthAdjust="spacing" textLength="157" x="873.5" y="70.5352">JobCategoryRepository</text><rect fill="#E3E3E3" height="46.9766" rx="2.5" ry="2.5" style="stroke:#181818;stroke-width:0.5;" width="175" x="864.5" y="377.5938"/><text fill="#000000" font-family="sans-serif" font-size="14" lengthAdjust="spacing" textLength="161" x="871.5" y="398.1289">jobCategoryRepository:</text><text fill="#000000" font-family="sans-serif" font-size="14" lengthAdjust="spacing" textLength="157" x="873.5" y="414.6172">JobCategoryRepository</text><rect fill="#FFFFFF" height="269.1055" style="stroke:#181818;stroke-width:1.0;" width="10" x="18.5" y="91.4883"/><rect fill="#FFFFFF" height="247.7949" style="stroke:#181818;stroke-width:1.0;" width="10" x="266.5" y="112.7988"/><rect fill="#FFFFFF" height="73.7539" style="stroke:#181818;stroke-width:1.0;" width="10" x="509.5" y="242.2188"/><polygon fill="#181818" points="254.5,108.7988,264.5,112.7988,254.5,116.7988,258.5,112.7988" style="stroke:#181818;stroke-width:1.0;"/><line style="stroke:#181818;stroke-width:1.0;" x1="28.5" x2="260.5" y1="112.7988" y2="112.7988"/><text fill="#000000" font-family="sans-serif" font-size="13" font-weight="bold" lengthAdjust="spacing" textLength="9" x="35.5" y="108.0566">1</text><text fill="#000000" font-family="sans-serif" font-size="13" lengthAdjust="spacing" textLength="162" x="48.5" y="108.0566">asks to register a new job</text><polygon fill="#181818" points="388.5,138.1094,398.5,142.1094,388.5,146.1094,392.5,142.1094" style="stroke:#181818;stroke-width:1.0;"/><line style="stroke:#181818;stroke-width:1.0;" x1="276.5" x2="394.5" y1="142.1094" y2="142.1094"/><text fill="#000000" font-family="sans-serif" font-size="13" font-weight="bold" lengthAdjust="spacing" textLength="9" x="283.5" y="137.3672">2</text><text fill="#000000" font-family="sans-serif" font-size="13" lengthAdjust="spacing" textLength="38" x="296.5" y="137.3672">create</text><rect fill="#E3E3E3" height="30.4883" rx="2.5" ry="2.5" style="stroke:#181818;stroke-width:0.5;" width="228" x="400.5" y="120.7988"/><text fill="#000000" font-family="sans-serif" font-size="14" lengthAdjust="spacing" textLength="214" x="407.5" y="141.334">:RegisterJobCategoryController</text><polygon fill="#181818" points="39.5,179.5977,29.5,183.5977,39.5,187.5977,35.5,183.5977" style="stroke:#181818;stroke-width:1.0;"/><line style="stroke:#181818;stroke-width:1.0;" x1="33.5" x2="265.5" y1="183.5977" y2="183.5977"/><text fill="#000000" font-family="sans-serif" font-size="13" font-weight="bold" lengthAdjust="spacing" textLength="9" x="45.5" y="178.8555">3</text><text fill="#000000" font-family="sans-serif" font-size="13" lengthAdjust="spacing" textLength="151" x="58.5" y="178.8555">requests data(job name)</text><polygon fill="#181818" points="254.5,208.9082,264.5,212.9082,254.5,216.9082,258.5,212.9082" style="stroke:#181818;stroke-width:1.0;"/><line style="stroke:#181818;stroke-width:1.0;" x1="28.5" x2="260.5" y1="212.9082" y2="212.9082"/><text fill="#000000" font-family="sans-serif" font-size="13" font-weight="bold" lengthAdjust="spacing" textLength="9" x="35.5" y="208.166">4</text><text fill="#000000" font-family="sans-serif" font-size="13" lengthAdjust="spacing" textLength="201" x="48.5" y="208.166">types requested data (job name)</text><polygon fill="#181818" points="497.5,238.2188,507.5,242.2188,497.5,246.2188,501.5,242.2188" style="stroke:#181818;stroke-width:1.0;"/><line style="stroke:#181818;stroke-width:1.0;" x1="276.5" x2="503.5" y1="242.2188" y2="242.2188"/><text fill="#000000" font-family="sans-serif" font-size="13" font-weight="bold" lengthAdjust="spacing" textLength="9" x="283.5" y="237.4766">5</text><text fill="#000000" font-family="sans-serif" font-size="13" lengthAdjust="spacing" textLength="201" x="296.5" y="237.4766">registerJobCategories(job name)</text><rect fill="none" height="39.4434" style="stroke:#000000;stroke-width:1.5;" width="234" x="397.5" y="250.2188"/><path d="M397.5,250.2188 L461.5,250.2188 L461.5,257.2188 L451.5,267.2188 L397.5,267.2188 L397.5,250.2188 " fill="#EEEEEE" style="stroke:#000000;stroke-width:2.0;"/><text fill="#000000" font-family="sans-serif" font-size="13" font-weight="bold" lengthAdjust="spacing" textLength="19" x="410.5" y="264.7871">ref</text><text fill="#000000" font-family="sans-serif" font-size="12" lengthAdjust="spacing" textLength="132" x="448.5" y="282.8203">Register a JobCategory</text><polygon fill="#181818" points="287.5,311.9727,277.5,315.9727,287.5,319.9727,283.5,315.9727" style="stroke:#181818;stroke-width:1.0;"/><line style="stroke:#181818;stroke-width:1.0;stroke-dasharray:2.0,2.0;" x1="281.5" x2="513.5" y1="315.9727" y2="315.9727"/><text fill="#000000" font-family="sans-serif" font-size="13" font-weight="bold" lengthAdjust="spacing" textLength="9" x="293.5" y="311.2305">6</text><text fill="#000000" font-family="sans-serif" font-size="13" lengthAdjust="spacing" textLength="99" x="306.5" y="311.2305">jobCategoryList</text><polygon fill="#181818" points="34.5,356.5938,24.5,360.5938,34.5,364.5938,30.5,360.5938" style="stroke:#181818;stroke-width:1.0;"/><line style="stroke:#181818;stroke-width:1.0;stroke-dasharray:2.0,2.0;" x1="28.5" x2="270.5" y1="360.5938" y2="360.5938"/><text fill="#000000" font-family="sans-serif" font-size="13" font-weight="bold" lengthAdjust="spacing" textLength="9" x="40.5" y="348.1963">7</text><text fill="#000000" font-family="sans-serif" font-size="13" lengthAdjust="spacing" textLength="197" x="53.5" y="340.541">displays operation success and</text><text fill="#000000" font-family="sans-serif" font-size="13" lengthAdjust="spacing" textLength="136" x="57.5" y="355.8516">show jobCategoryList</text><!--SRC=[XL9DRzim3BthLn2vf2kQFv13WI6NjSY08MrlkJ0oOsknHK-Kc_dVZtRIM8uJZ1TR9D_ZuuSSdAynO0KLUxP5u8eWXeQCN28rsWFcz1RRaY2GZUZpCasG0ZC-Ef_37aiXOx29x9jgHy6OUU4oWZrptF5VWpPoWDcFpSyPe81-ZN94PrsDFi9ikQ7SIQJmohiLHievj1ylVUx7o_zJL-nZuBAaq4DMxvlr15IpE1NXIFgSYwDzSrrVgdmC2GbYwwS4lzRVtyU8tuEWWNsvzQ-t_3t7pOWntRZSfmRwGHaucpvWyQm3WQM23mAHTI-dOG22foEeX27_mg8ZD7D8J2aMojGHBfNYJqCI1JAC20-1zXJ8Mtg2ZCG6LqV7_Wd0-Js72alO-d4aaYsyinePkRCcuEdFiiHl9XKmju4wPVschfKzz-x7HzLsIXjQEiTl27_Gri5ZHKcXT62nhKc-89ITcnr0TrJqPQxlJK_W7l8oyxwpKQWp7IxmfwvhqdXgcs6foOLCqibd7U6qIYzyyTLvSfPhfHrbPtGbsDmzayn9NM8hm3MT5WlIM4iYW2f4Zq8AFjwibbJfJZ5vTlVz3m00]--></g></svg>