<?xml version="1.0" encoding="us-ascii" standalone="no"?><svg xmlns="http://www.w3.org/2000/svg" xmlns:xlink="http://www.w3.org/1999/xlink" contentStyleType="text/css" height="352px" preserveAspectRatio="none" style="width:439px;height:352px;background:#FFFFFF;" version="1.1" viewBox="0 0 439 352" width="439px" zoomAndPan="magnify"><defs/><g><!--class ApplicationSession--><g id="elem_ApplicationSession"><rect codeLine="3" fill="#F1F1F1" height="85.2422" id="ApplicationSession" rx="2.5" ry="2.5" style="stroke:#181818;stroke-width:0.5;" width="151" x="7" y="260"/><ellipse cx="22" cy="276" fill="#ADD1B2" rx="11" ry="11" style="stroke:#181818;stroke-width:1.0;"/><path d="M24.7656,271.875 Q24.9219,271.6563 25.1094,271.5469 Q25.2969,271.4375 25.5156,271.4375 Q25.8906,271.4375 26.125,271.7031 Q26.3594,271.9531 26.3594,272.5625 L26.3594,274.0156 Q26.3594,274.625 26.125,274.8906 Q25.8906,275.1563 25.5156,275.1563 Q25.1719,275.1563 24.9688,274.9531 Q24.7656,274.7656 24.6563,274.25 Q24.6094,273.8906 24.4219,273.7031 Q24.0938,273.3281 23.4844,273.1094 Q22.875,272.8906 22.25,272.8906 Q21.4844,272.8906 20.8438,273.2188 Q20.2188,273.5469 19.7188,274.2969 Q19.2344,275.0469 19.2344,276.0781 L19.2344,277.1719 Q19.2344,278.4063 20.125,279.2344 Q21.0156,280.0469 22.6094,280.0469 Q23.5469,280.0469 24.2031,279.7969 Q24.5938,279.6406 25.0156,279.2031 Q25.2813,278.9375 25.4219,278.8594 Q25.5781,278.7813 25.7813,278.7813 Q26.1094,278.7813 26.3594,279.0469 Q26.625,279.2969 26.625,279.6406 Q26.625,279.9844 26.2813,280.3906 Q25.7813,280.9688 24.9844,281.2969 Q23.9063,281.75 22.6094,281.75 Q21.0938,281.75 19.8906,281.125 Q18.9063,280.625 18.2188,279.5625 Q17.5313,278.4844 17.5313,277.2031 L17.5313,276.0469 Q17.5313,274.7188 18.1406,273.5781 Q18.7656,272.4219 19.8594,271.8125 Q20.9531,271.1875 22.1875,271.1875 Q22.9219,271.1875 23.5625,271.3594 Q24.2188,271.5156 24.7656,271.875 Z " fill="#000000"/><text fill="#000000" font-family="sans-serif" font-size="14" lengthAdjust="spacing" textLength="119" x="36" y="281.7969">ApplicationSession</text><line style="stroke:#181818;stroke-width:0.5;" x1="8" x2="157" y1="292" y2="292"/><line style="stroke:#181818;stroke-width:0.5;" x1="8" x2="157" y1="300" y2="300"/><text fill="#000000" font-family="sans-serif" font-size="14" lengthAdjust="spacing" textLength="128" x="13" y="319.1074">+static getInstance()</text><text fill="#000000" font-family="sans-serif" font-size="14" lengthAdjust="spacing" textLength="136" x="13" y="337.7285">+getCurrentSession()</text></g><!--class UserSession--><g id="elem_UserSession"><rect codeLine="9" fill="#F1F1F1" height="66.6211" id="UserSession" rx="2.5" ry="2.5" style="stroke:#181818;stroke-width:0.5;" width="239" x="193" y="269"/><ellipse cx="268.75" cy="285" fill="#ADD1B2" rx="11" ry="11" style="stroke:#181818;stroke-width:1.0;"/><path d="M271.5156,280.875 Q271.6719,280.6563 271.8594,280.5469 Q272.0469,280.4375 272.2656,280.4375 Q272.6406,280.4375 272.875,280.7031 Q273.1094,280.9531 273.1094,281.5625 L273.1094,283.0156 Q273.1094,283.625 272.875,283.8906 Q272.6406,284.1563 272.2656,284.1563 Q271.9219,284.1563 271.7188,283.9531 Q271.5156,283.7656 271.4063,283.25 Q271.3594,282.8906 271.1719,282.7031 Q270.8438,282.3281 270.2344,282.1094 Q269.625,281.8906 269,281.8906 Q268.2344,281.8906 267.5938,282.2188 Q266.9688,282.5469 266.4688,283.2969 Q265.9844,284.0469 265.9844,285.0781 L265.9844,286.1719 Q265.9844,287.4063 266.875,288.2344 Q267.7656,289.0469 269.3594,289.0469 Q270.2969,289.0469 270.9531,288.7969 Q271.3438,288.6406 271.7656,288.2031 Q272.0313,287.9375 272.1719,287.8594 Q272.3281,287.7813 272.5313,287.7813 Q272.8594,287.7813 273.1094,288.0469 Q273.375,288.2969 273.375,288.6406 Q273.375,288.9844 273.0313,289.3906 Q272.5313,289.9688 271.7344,290.2969 Q270.6563,290.75 269.3594,290.75 Q267.8438,290.75 266.6406,290.125 Q265.6563,289.625 264.9688,288.5625 Q264.2813,287.4844 264.2813,286.2031 L264.2813,285.0469 Q264.2813,283.7188 264.8906,282.5781 Q265.5156,281.4219 266.6094,280.8125 Q267.7031,280.1875 268.9375,280.1875 Q269.6719,280.1875 270.3125,280.3594 Q270.9688,280.5156 271.5156,280.875 Z " fill="#000000"/><text fill="#000000" font-family="sans-serif" font-size="14" lengthAdjust="spacing" textLength="79" x="289.25" y="290.7969">UserSession</text><line style="stroke:#181818;stroke-width:0.5;" x1="194" x2="431" y1="301" y2="301"/><line style="stroke:#181818;stroke-width:0.5;" x1="194" x2="431" y1="309" y2="309"/><text fill="#000000" font-family="sans-serif" font-size="14" lengthAdjust="spacing" textLength="227" x="199" y="328.1074">+isLoggedInWithRole(USER_ROLE)</text></g><!--class AuthenticationController--><g id="elem_AuthenticationController"><rect codeLine="14" fill="#F1F1F1" height="85.2422" id="AuthenticationController" rx="2.5" ry="2.5" style="stroke:#181818;stroke-width:0.5;" width="184" x="105.5" y="115"/><ellipse cx="120.5" cy="131" fill="#ADD1B2" rx="11" ry="11" style="stroke:#181818;stroke-width:1.0;"/><path d="M123.2656,126.875 Q123.4219,126.6563 123.6094,126.5469 Q123.7969,126.4375 124.0156,126.4375 Q124.3906,126.4375 124.625,126.7031 Q124.8594,126.9531 124.8594,127.5625 L124.8594,129.0156 Q124.8594,129.625 124.625,129.8906 Q124.3906,130.1563 124.0156,130.1563 Q123.6719,130.1563 123.4688,129.9531 Q123.2656,129.7656 123.1563,129.25 Q123.1094,128.8906 122.9219,128.7031 Q122.5938,128.3281 121.9844,128.1094 Q121.375,127.8906 120.75,127.8906 Q119.9844,127.8906 119.3438,128.2188 Q118.7188,128.5469 118.2188,129.2969 Q117.7344,130.0469 117.7344,131.0781 L117.7344,132.1719 Q117.7344,133.4063 118.625,134.2344 Q119.5156,135.0469 121.1094,135.0469 Q122.0469,135.0469 122.7031,134.7969 Q123.0938,134.6406 123.5156,134.2031 Q123.7813,133.9375 123.9219,133.8594 Q124.0781,133.7813 124.2813,133.7813 Q124.6094,133.7813 124.8594,134.0469 Q125.125,134.2969 125.125,134.6406 Q125.125,134.9844 124.7813,135.3906 Q124.2813,135.9688 123.4844,136.2969 Q122.4063,136.75 121.1094,136.75 Q119.5938,136.75 118.3906,136.125 Q117.4063,135.625 116.7188,134.5625 Q116.0313,133.4844 116.0313,132.2031 L116.0313,131.0469 Q116.0313,129.7188 116.6406,128.5781 Q117.2656,127.4219 118.3594,126.8125 Q119.4531,126.1875 120.6875,126.1875 Q121.4219,126.1875 122.0625,126.3594 Q122.7188,126.5156 123.2656,126.875 Z " fill="#000000"/><text fill="#000000" font-family="sans-serif" font-size="14" lengthAdjust="spacing" textLength="152" x="134.5" y="136.7969">AuthenticationController</text><line style="stroke:#181818;stroke-width:0.5;" x1="106.5" x2="288.5" y1="147" y2="147"/><line style="stroke:#181818;stroke-width:0.5;" x1="106.5" x2="288.5" y1="155" y2="155"/><text fill="#000000" font-family="sans-serif" font-size="14" lengthAdjust="spacing" textLength="160" x="111.5" y="174.1074">+{NameOfUC}Controller()</text><text fill="#000000" font-family="sans-serif" font-size="14" lengthAdjust="spacing" textLength="85" x="111.5" y="192.7285">+methodX(...)</text></g><!--class {NameOfUC}UI--><g id="elem_{NameOfUC}UI"><rect codeLine="19" fill="#F1F1F1" height="48" id="{NameOfUC}UI" rx="2.5" ry="2.5" style="stroke:#181818;stroke-width:0.5;" width="124" x="135.5" y="7"/><ellipse cx="150.5" cy="23" fill="#ADD1B2" rx="11" ry="11" style="stroke:#181818;stroke-width:1.0;"/><path d="M153.2656,18.875 Q153.4219,18.6563 153.6094,18.5469 Q153.7969,18.4375 154.0156,18.4375 Q154.3906,18.4375 154.625,18.7031 Q154.8594,18.9531 154.8594,19.5625 L154.8594,21.0156 Q154.8594,21.625 154.625,21.8906 Q154.3906,22.1563 154.0156,22.1563 Q153.6719,22.1563 153.4688,21.9531 Q153.2656,21.7656 153.1563,21.25 Q153.1094,20.8906 152.9219,20.7031 Q152.5938,20.3281 151.9844,20.1094 Q151.375,19.8906 150.75,19.8906 Q149.9844,19.8906 149.3438,20.2188 Q148.7188,20.5469 148.2188,21.2969 Q147.7344,22.0469 147.7344,23.0781 L147.7344,24.1719 Q147.7344,25.4063 148.625,26.2344 Q149.5156,27.0469 151.1094,27.0469 Q152.0469,27.0469 152.7031,26.7969 Q153.0938,26.6406 153.5156,26.2031 Q153.7813,25.9375 153.9219,25.8594 Q154.0781,25.7813 154.2813,25.7813 Q154.6094,25.7813 154.8594,26.0469 Q155.125,26.2969 155.125,26.6406 Q155.125,26.9844 154.7813,27.3906 Q154.2813,27.9688 153.4844,28.2969 Q152.4063,28.75 151.1094,28.75 Q149.5938,28.75 148.3906,28.125 Q147.4063,27.625 146.7188,26.5625 Q146.0313,25.4844 146.0313,24.2031 L146.0313,23.0469 Q146.0313,21.7188 146.6406,20.5781 Q147.2656,19.4219 148.3594,18.8125 Q149.4531,18.1875 150.6875,18.1875 Q151.4219,18.1875 152.0625,18.3594 Q152.7188,18.5156 153.2656,18.875 Z " fill="#000000"/><text fill="#000000" font-family="sans-serif" font-size="14" lengthAdjust="spacing" textLength="92" x="164.5" y="28.7969">{NameOfUC}UI</text><line style="stroke:#181818;stroke-width:0.5;" x1="136.5" x2="258.5" y1="39" y2="39"/><line style="stroke:#181818;stroke-width:0.5;" x1="136.5" x2="258.5" y1="47" y2="47"/></g><!--link {NameOfUC}UI to AuthenticationController--><g id="link_{NameOfUC}UI_AuthenticationController"><path codeLine="22" d="M197.5,55.13 C197.5,71.86 197.5,88.94 197.5,108.86 " fill="none" id="{NameOfUC}UI-to-AuthenticationController" style="stroke:#181818;stroke-width:1.0;stroke-dasharray:7.0,7.0;"/><polygon fill="#181818" points="197.5,114.86,201.5,105.86,197.5,109.86,193.5,105.86,197.5,114.86" style="stroke:#181818;stroke-width:1.0;"/></g><!--link AuthenticationController to ApplicationSession--><g id="link_AuthenticationController_ApplicationSession"><path codeLine="23" d="M163.93,200.25 C148.81,219.04 134.7709,236.505 119.6709,255.275 " fill="none" id="AuthenticationController-to-ApplicationSession" style="stroke:#181818;stroke-width:1.0;stroke-dasharray:7.0,7.0;"/><polygon fill="#181818" points="115.91,259.95,124.668,255.4448,119.0441,256.0542,118.4347,250.4302,115.91,259.95" style="stroke:#181818;stroke-width:1.0;"/></g><!--link AuthenticationController to UserSession--><g id="link_AuthenticationController_UserSession"><path codeLine="24" d="M231.07,200.25 C248.57,222.01 265.9203,243.574 282.2503,263.884 " fill="none" id="AuthenticationController-to-UserSession" style="stroke:#181818;stroke-width:1.0;stroke-dasharray:7.0,7.0;"/><polygon fill="#181818" points="286.01,268.56,283.4878,259.0396,282.8769,264.6633,277.2532,264.0525,286.01,268.56" style="stroke:#181818;stroke-width:1.0;"/></g><!--SRC=[XP312i8m44Jl-OhWgI84lq0enKD152f5RnBZsWRJf2JRYwN_xaOKguYUTfd9l0mRBjgsqik6AoD3I16zFdO8kN9sgw_0vupT7PwshT5AeYO3Gg31UiRvB21fYbU0kQNTAaYcKISXwxm7Yu_d90zFM1d0lr5qMBcgWbDkTnhhmXb8oksoE1IRrNAKcwGTreHy5CcSHU-C0J_X4KCWtgzb0vjpcGqlzzuecWrWxKxxH0WnfhuoPHv9v7neGYn-VCv-z8h9BxVxanWVw0O0]--></g></svg>