<?xml version="1.0" encoding="us-ascii" standalone="no"?><svg xmlns="http://www.w3.org/2000/svg" xmlns:xlink="http://www.w3.org/1999/xlink" contentStyleType="text/css" height="176px" preserveAspectRatio="none" style="width:219px;height:176px;background:#FFFFFF;" version="1.1" viewBox="0 0 219 176" width="219.5px" zoomAndPan="magnify"><defs/><g><!--class ApplicationSession--><g id="elem_ApplicationSession"><rect codeLine="3" fill="#F1F1F1" height="42.6211" id="ApplicationSession" rx="1.25" ry="1.25" style="stroke:#181818;stroke-width:0.25;" width="75.5" x="3.5" y="130"/><ellipse cx="11" cy="138" fill="#ADD1B2" rx="5.5" ry="5.5" style="stroke:#181818;stroke-width:0.5;"/><path d="M12.3828,135.9375 Q12.4609,135.8281 12.5547,135.7734 Q12.6484,135.7188 12.7578,135.7188 Q12.9453,135.7188 13.0625,135.8516 Q13.1797,135.9766 13.1797,136.2813 L13.1797,137.0078 Q13.1797,137.3125 13.0625,137.4453 Q12.9453,137.5781 12.7578,137.5781 Q12.5859,137.5781 12.4844,137.4766 Q12.3828,137.3828 12.3281,137.125 Q12.3047,136.9453 12.2109,136.8516 Q12.0469,136.6641 11.7422,136.5547 Q11.4375,136.4453 11.125,136.4453 Q10.7422,136.4453 10.4219,136.6094 Q10.1094,136.7734 9.8594,137.1484 Q9.6172,137.5234 9.6172,138.0391 L9.6172,138.5859 Q9.6172,139.2031 10.0625,139.6172 Q10.5078,140.0234 11.3047,140.0234 Q11.7734,140.0234 12.1016,139.8984 Q12.2969,139.8203 12.5078,139.6016 Q12.6406,139.4688 12.7109,139.4297 Q12.7891,139.3906 12.8906,139.3906 Q13.0547,139.3906 13.1797,139.5234 Q13.3125,139.6484 13.3125,139.8203 Q13.3125,139.9922 13.1406,140.1953 Q12.8906,140.4844 12.4922,140.6484 Q11.9531,140.875 11.3047,140.875 Q10.5469,140.875 9.9453,140.5625 Q9.4531,140.3125 9.1094,139.7813 Q8.7656,139.2422 8.7656,138.6016 L8.7656,138.0234 Q8.7656,137.3594 9.0703,136.7891 Q9.3828,136.2109 9.9297,135.9063 Q10.4766,135.5938 11.0938,135.5938 Q11.4609,135.5938 11.7813,135.6797 Q12.1094,135.7578 12.3828,135.9375 Z " fill="#000000"/><text fill="#000000" font-family="sans-serif" font-size="7" lengthAdjust="spacing" textLength="59.5" x="18" y="140.8984">ApplicationSession</text><line style="stroke:#181818;stroke-width:0.25;" x1="4" x2="78.5" y1="146" y2="146"/><line style="stroke:#181818;stroke-width:0.25;" x1="4" x2="78.5" y1="150" y2="150"/><text fill="#000000" font-family="sans-serif" font-size="7" lengthAdjust="spacing" textLength="64" x="6.5" y="159.5537">+static getInstance()</text><text fill="#000000" font-family="sans-serif" font-size="7" lengthAdjust="spacing" textLength="68" x="6.5" y="168.8643">+getCurrentSession()</text></g><!--class UserSession--><g id="elem_UserSession"><rect codeLine="9" fill="#F1F1F1" height="33.3105" id="UserSession" rx="1.25" ry="1.25" style="stroke:#181818;stroke-width:0.25;" width="119.5" x="96.5" y="134.5"/><ellipse cx="134.375" cy="142.5" fill="#ADD1B2" rx="5.5" ry="5.5" style="stroke:#181818;stroke-width:0.5;"/><path d="M135.7578,140.4375 Q135.8359,140.3281 135.9297,140.2734 Q136.0234,140.2188 136.1328,140.2188 Q136.3203,140.2188 136.4375,140.3516 Q136.5547,140.4766 136.5547,140.7813 L136.5547,141.5078 Q136.5547,141.8125 136.4375,141.9453 Q136.3203,142.0781 136.1328,142.0781 Q135.9609,142.0781 135.8594,141.9766 Q135.7578,141.8828 135.7031,141.625 Q135.6797,141.4453 135.5859,141.3516 Q135.4219,141.1641 135.1172,141.0547 Q134.8125,140.9453 134.5,140.9453 Q134.1172,140.9453 133.7969,141.1094 Q133.4844,141.2734 133.2344,141.6484 Q132.9922,142.0234 132.9922,142.5391 L132.9922,143.0859 Q132.9922,143.7031 133.4375,144.1172 Q133.8828,144.5234 134.6797,144.5234 Q135.1484,144.5234 135.4766,144.3984 Q135.6719,144.3203 135.8828,144.1016 Q136.0156,143.9688 136.0859,143.9297 Q136.1641,143.8906 136.2656,143.8906 Q136.4297,143.8906 136.5547,144.0234 Q136.6875,144.1484 136.6875,144.3203 Q136.6875,144.4922 136.5156,144.6953 Q136.2656,144.9844 135.8672,145.1484 Q135.3281,145.375 134.6797,145.375 Q133.9219,145.375 133.3203,145.0625 Q132.8281,144.8125 132.4844,144.2813 Q132.1406,143.7422 132.1406,143.1016 L132.1406,142.5234 Q132.1406,141.8594 132.4453,141.2891 Q132.7578,140.7109 133.3047,140.4063 Q133.8516,140.0938 134.4688,140.0938 Q134.8359,140.0938 135.1563,140.1797 Q135.4844,140.2578 135.7578,140.4375 Z " fill="#000000"/><text fill="#000000" font-family="sans-serif" font-size="7" lengthAdjust="spacing" textLength="39.5" x="144.625" y="145.3984">UserSession</text><line style="stroke:#181818;stroke-width:0.25;" x1="97" x2="215.5" y1="150.5" y2="150.5"/><line style="stroke:#181818;stroke-width:0.25;" x1="97" x2="215.5" y1="154.5" y2="154.5"/><text fill="#000000" font-family="sans-serif" font-size="7" lengthAdjust="spacing" textLength="113.5" x="99.5" y="164.0537">+isLoggedInWithRole(USER_ROLE)</text></g><!--class {NameOfUC}Controller--><g id="elem_{NameOfUC}Controller"><rect codeLine="14" fill="#F1F1F1" height="42.6211" id="{NameOfUC}Controller" rx="1.25" ry="1.25" style="stroke:#181818;stroke-width:0.25;" width="87" x="55.25" y="57.5"/><ellipse cx="62.75" cy="65.5" fill="#ADD1B2" rx="5.5" ry="5.5" style="stroke:#181818;stroke-width:0.5;"/><path d="M64.1328,63.4375 Q64.2109,63.3281 64.3047,63.2734 Q64.3984,63.2188 64.5078,63.2188 Q64.6953,63.2188 64.8125,63.3516 Q64.9297,63.4766 64.9297,63.7813 L64.9297,64.5078 Q64.9297,64.8125 64.8125,64.9453 Q64.6953,65.0781 64.5078,65.0781 Q64.3359,65.0781 64.2344,64.9766 Q64.1328,64.8828 64.0781,64.625 Q64.0547,64.4453 63.9609,64.3516 Q63.7969,64.1641 63.4922,64.0547 Q63.1875,63.9453 62.875,63.9453 Q62.4922,63.9453 62.1719,64.1094 Q61.8594,64.2734 61.6094,64.6484 Q61.3672,65.0234 61.3672,65.5391 L61.3672,66.0859 Q61.3672,66.7031 61.8125,67.1172 Q62.2578,67.5234 63.0547,67.5234 Q63.5234,67.5234 63.8516,67.3984 Q64.0469,67.3203 64.2578,67.1016 Q64.3906,66.9688 64.4609,66.9297 Q64.5391,66.8906 64.6406,66.8906 Q64.8047,66.8906 64.9297,67.0234 Q65.0625,67.1484 65.0625,67.3203 Q65.0625,67.4922 64.8906,67.6953 Q64.6406,67.9844 64.2422,68.1484 Q63.7031,68.375 63.0547,68.375 Q62.2969,68.375 61.6953,68.0625 Q61.2031,67.8125 60.8594,67.2813 Q60.5156,66.7422 60.5156,66.1016 L60.5156,65.5234 Q60.5156,64.8594 60.8203,64.2891 Q61.1328,63.7109 61.6797,63.4063 Q62.2266,63.0938 62.8438,63.0938 Q63.2109,63.0938 63.5313,63.1797 Q63.8594,63.2578 64.1328,63.4375 Z " fill="#000000"/><text fill="#000000" font-family="sans-serif" font-size="7" lengthAdjust="spacing" textLength="71" x="69.75" y="68.3984">{NameOfUC}Controller</text><line style="stroke:#181818;stroke-width:0.25;" x1="55.75" x2="141.75" y1="73.5" y2="73.5"/><line style="stroke:#181818;stroke-width:0.25;" x1="55.75" x2="141.75" y1="77.5" y2="77.5"/><text fill="#000000" font-family="sans-serif" font-size="7" lengthAdjust="spacing" textLength="80" x="58.25" y="87.0537">+{NameOfUC}Controller()</text><text fill="#000000" font-family="sans-serif" font-size="7" lengthAdjust="spacing" textLength="42.5" x="58.25" y="96.3643">+methodX(...)</text></g><!--class {NameOfUC}UI--><g id="elem_{NameOfUC}UI"><rect codeLine="19" fill="#F1F1F1" height="24" id="{NameOfUC}UI" rx="1.25" ry="1.25" style="stroke:#181818;stroke-width:0.25;" width="62" x="67.75" y="3.5"/><ellipse cx="75.25" cy="11.5" fill="#ADD1B2" rx="5.5" ry="5.5" style="stroke:#181818;stroke-width:0.5;"/><path d="M76.6328,9.4375 Q76.7109,9.3281 76.8047,9.2734 Q76.8984,9.2188 77.0078,9.2188 Q77.1953,9.2188 77.3125,9.3516 Q77.4297,9.4766 77.4297,9.7813 L77.4297,10.5078 Q77.4297,10.8125 77.3125,10.9453 Q77.1953,11.0781 77.0078,11.0781 Q76.8359,11.0781 76.7344,10.9766 Q76.6328,10.8828 76.5781,10.625 Q76.5547,10.4453 76.4609,10.3516 Q76.2969,10.1641 75.9922,10.0547 Q75.6875,9.9453 75.375,9.9453 Q74.9922,9.9453 74.6719,10.1094 Q74.3594,10.2734 74.1094,10.6484 Q73.8672,11.0234 73.8672,11.5391 L73.8672,12.0859 Q73.8672,12.7031 74.3125,13.1172 Q74.7578,13.5234 75.5547,13.5234 Q76.0234,13.5234 76.3516,13.3984 Q76.5469,13.3203 76.7578,13.1016 Q76.8906,12.9688 76.9609,12.9297 Q77.0391,12.8906 77.1406,12.8906 Q77.3047,12.8906 77.4297,13.0234 Q77.5625,13.1484 77.5625,13.3203 Q77.5625,13.4922 77.3906,13.6953 Q77.1406,13.9844 76.7422,14.1484 Q76.2031,14.375 75.5547,14.375 Q74.7969,14.375 74.1953,14.0625 Q73.7031,13.8125 73.3594,13.2813 Q73.0156,12.7422 73.0156,12.1016 L73.0156,11.5234 Q73.0156,10.8594 73.3203,10.2891 Q73.6328,9.7109 74.1797,9.4063 Q74.7266,9.0938 75.3438,9.0938 Q75.7109,9.0938 76.0313,9.1797 Q76.3594,9.2578 76.6328,9.4375 Z " fill="#000000"/><text fill="#000000" font-family="sans-serif" font-size="7" lengthAdjust="spacing" textLength="46" x="82.25" y="14.3984">{NameOfUC}UI</text><line style="stroke:#181818;stroke-width:0.25;" x1="68.25" x2="129.25" y1="19.5" y2="19.5"/><line style="stroke:#181818;stroke-width:0.25;" x1="68.25" x2="129.25" y1="23.5" y2="23.5"/></g><!--link {NameOfUC}UI to {NameOfUC}Controller--><g id="link_{NameOfUC}UI_{NameOfUC}Controller"><path codeLine="22" d="M98.75,27.565 C98.75,35.93 98.75,44.47 98.75,54.43 " fill="none" id="{NameOfUC}UI-to-{NameOfUC}Controller" style="stroke:#181818;stroke-width:0.5;stroke-dasharray:7.0,7.0;"/><polygon fill="#181818" points="98.75,57.43,100.75,52.93,98.75,54.93,96.75,52.93,98.75,57.43" style="stroke:#181818;stroke-width:0.5;"/></g><!--link {NameOfUC}Controller to ApplicationSession--><g id="link_{NameOfUC}Controller_ApplicationSession"><path codeLine="23" d="M81.965,100.125 C74.405,109.52 67.3855,118.2525 59.8355,127.6375 " fill="none" id="{NameOfUC}Controller-to-ApplicationSession" style="stroke:#181818;stroke-width:0.5;stroke-dasharray:7.0,7.0;"/><polygon fill="#181818" points="57.955,129.975,62.334,127.7224,59.522,128.0271,59.2174,125.2151,57.955,129.975" style="stroke:#181818;stroke-width:0.5;"/></g><!--link {NameOfUC}Controller to UserSession--><g id="link_{NameOfUC}Controller_UserSession"><path codeLine="24" d="M115.535,100.125 C124.285,111.005 132.9602,121.787 141.1252,131.942 " fill="none" id="{NameOfUC}Controller-to-UserSession" style="stroke:#181818;stroke-width:0.5;stroke-dasharray:7.0,7.0;"/><polygon fill="#181818" points="143.005,134.28,141.7439,129.5198,141.4385,132.3317,138.6266,132.0262,143.005,134.28" style="stroke:#181818;stroke-width:0.5;"/></g><!--SRC=[VP312i8m38RlVOgoqqGeFe4mnWw3uM1Zw4rg5xTYruuskoY-kwqeg6oUMlul-HBYBbAFtFA12iMTIn2jF4q8kJ2wbbUW6qAUX2RZgAJWA3q0v_n3ReJIjKEV2Te1vjh_jO1u5N8Vf9EreF5LxkFxMzOui5yMwGhJTT3cUY-nhuo2kAcpwbYLHVRH5zrsV83otAJtr6YqHYcm4GqABw5pzBbDW0DWRzf3p1YRDpPvC7doap6sNHXC5lO97JFt-bFzUP07]--></g></svg>