<?xml version="1.0" encoding="us-ascii" standalone="no"?><svg xmlns="http://www.w3.org/2000/svg" xmlns:xlink="http://www.w3.org/1999/xlink" contentStyleType="text/css" height="279px" preserveAspectRatio="none" style="width:391px;height:279px;background:#FFFFFF;" version="1.1" viewBox="0 0 391 279" width="391px" zoomAndPan="magnify"><defs/><g><rect fill="#FFFFFF" height="212.6006" style="stroke:#181818;stroke-width:0.5;" width="5" x="135.5" y="33.6211"/><rect fill="#FFFFFF" height="18.1455" style="stroke:#181818;stroke-width:0.5;" width="5" x="138" y="171.9307"/><rect fill="#FFFFFF" height="15.6455" style="stroke:#181818;stroke-width:0.5;" width="5" x="213.75" y="60.9121"/><rect fill="#FFFFFF" height="15.6455" style="stroke:#181818;stroke-width:0.5;" width="5" x="286.25" y="92.2031"/><rect fill="#FFFFFF" height="15.6455" style="stroke:#181818;stroke-width:0.5;" width="5" x="352.75" y="123.4941"/><rect fill="none" height="96.082" style="stroke:#000000;stroke-width:0.75;" width="382" x="5.5" y="146.6396"/><line style="stroke:#181818;stroke-width:0.25;stroke-dasharray:5.0,5.0;" x1="138" x2="138" y1="28.6211" y2="251.2217"/><line style="stroke:#181818;stroke-width:0.25;stroke-dasharray:5.0,5.0;" x1="216" x2="216" y1="28.6211" y2="251.2217"/><line style="stroke:#181818;stroke-width:0.25;stroke-dasharray:5.0,5.0;" x1="288.5" x2="288.5" y1="28.6211" y2="251.2217"/><line style="stroke:#181818;stroke-width:0.25;stroke-dasharray:5.0,5.0;" x1="355" x2="355" y1="28.6211" y2="251.2217"/><rect fill="#E3E3E3" height="16.3105" rx="1.25" ry="1.25" style="stroke:#181818;stroke-width:0.25;" width="80" x="98" y="11.8105"/><text fill="#000000" font-family="sans-serif" font-size="7" lengthAdjust="spacing" textLength="73" x="101.5" y="22.8643">:{NameOfUC}Controller</text><rect fill="#E3E3E3" height="16.3105" rx="1.25" ry="1.25" style="stroke:#181818;stroke-width:0.25;" width="80" x="98" y="250.7217"/><text fill="#000000" font-family="sans-serif" font-size="7" lengthAdjust="spacing" textLength="73" x="101.5" y="261.7754">:{NameOfUC}Controller</text><rect fill="#E3E3E3" height="16.3105" rx="1.25" ry="1.25" style="stroke:#181818;stroke-width:0.25;" width="66.5" x="183" y="11.8105"/><text fill="#000000" font-family="sans-serif" font-size="7" lengthAdjust="spacing" textLength="59.5" x="186.5" y="22.8643">ApplicationSession</text><rect fill="#E3E3E3" height="16.3105" rx="1.25" ry="1.25" style="stroke:#181818;stroke-width:0.25;" width="66.5" x="183" y="250.7217"/><text fill="#000000" font-family="sans-serif" font-size="7" lengthAdjust="spacing" textLength="59.5" x="186.5" y="261.7754">ApplicationSession</text><rect fill="#E3E3E3" height="25.6211" rx="1.25" ry="1.25" style="stroke:#181818;stroke-width:0.25;" width="68.5" x="254.5" y="2.5"/><text fill="#000000" font-family="sans-serif" font-size="7" lengthAdjust="spacing" textLength="37" x="270.25" y="13.5537">appSession</text><text fill="#000000" font-family="sans-serif" font-size="7" lengthAdjust="spacing" textLength="61.5" x="258" y="22.8643">:ApplicationSession</text><rect fill="#E3E3E3" height="25.6211" rx="1.25" ry="1.25" style="stroke:#181818;stroke-width:0.25;" width="68.5" x="254.5" y="250.7217"/><text fill="#000000" font-family="sans-serif" font-size="7" lengthAdjust="spacing" textLength="37" x="270.25" y="261.7754">appSession</text><text fill="#000000" font-family="sans-serif" font-size="7" lengthAdjust="spacing" textLength="61.5" x="258" y="271.0859">:ApplicationSession</text><rect fill="#E3E3E3" height="25.6211" rx="1.25" ry="1.25" style="stroke:#181818;stroke-width:0.25;" width="54.5" x="328" y="2.5"/><text fill="#000000" font-family="sans-serif" font-size="7" lengthAdjust="spacing" textLength="47.5" x="331.5" y="13.5537">currentSession</text><text fill="#000000" font-family="sans-serif" font-size="7" lengthAdjust="spacing" textLength="41.5" x="334.5" y="22.8643">:UserSession</text><rect fill="#E3E3E3" height="25.6211" rx="1.25" ry="1.25" style="stroke:#181818;stroke-width:0.25;" width="54.5" x="328" y="250.7217"/><text fill="#000000" font-family="sans-serif" font-size="7" lengthAdjust="spacing" textLength="47.5" x="331.5" y="261.7754">currentSession</text><text fill="#000000" font-family="sans-serif" font-size="7" lengthAdjust="spacing" textLength="41.5" x="334.5" y="271.0859">:UserSession</text><rect fill="#FFFFFF" height="212.6006" style="stroke:#181818;stroke-width:0.5;" width="5" x="135.5" y="33.6211"/><rect fill="#FFFFFF" height="18.1455" style="stroke:#181818;stroke-width:0.5;" width="5" x="138" y="171.9307"/><rect fill="#FFFFFF" height="15.6455" style="stroke:#181818;stroke-width:0.5;" width="5" x="213.75" y="60.9121"/><rect fill="#FFFFFF" height="15.6455" style="stroke:#181818;stroke-width:0.5;" width="5" x="286.25" y="92.2031"/><rect fill="#FFFFFF" height="15.6455" style="stroke:#181818;stroke-width:0.5;" width="5" x="352.75" y="123.4941"/><ellipse cx="3.75" cy="44.8916" fill="none" rx="2" ry="2" style="stroke:#181818;stroke-width:0.75;"/><polygon fill="#181818" points="129.5,43.2666,134.5,45.2666,129.5,47.2666,131.5,45.2666" style="stroke:#181818;stroke-width:0.5;"/><line style="stroke:#181818;stroke-width:0.5;" x1="6" x2="132.5" y1="45.2666" y2="45.2666"/><text fill="#000000" font-family="sans-serif" font-size="6.5" font-weight="bold" lengthAdjust="spacing" textLength="3.5" x="7.5" y="42.6353">1</text><text fill="#000000" font-family="sans-serif" font-size="6.5" lengthAdjust="spacing" textLength="22" x="13" y="42.6353">create()</text><polygon fill="#181818" points="207.75,58.9121,212.75,60.9121,207.75,62.9121,209.75,60.9121" style="stroke:#181818;stroke-width:0.5;"/><line style="stroke:#181818;stroke-width:0.5;" x1="140.5" x2="210.75" y1="60.9121" y2="60.9121"/><text fill="#000000" font-family="sans-serif" font-size="6.5" font-weight="bold" lengthAdjust="spacing" textLength="3.5" x="144" y="58.2808">2</text><text fill="#000000" font-family="sans-serif" font-size="6.5" lengthAdjust="spacing" textLength="37.5" x="149.5" y="58.2808">getinstance()</text><polygon fill="#181818" points="146,74.5576,141,76.5576,146,78.5576,144,76.5576" style="stroke:#181818;stroke-width:0.5;"/><line style="stroke:#181818;stroke-width:0.5;stroke-dasharray:2.0,2.0;" x1="143" x2="215.75" y1="76.5576" y2="76.5576"/><text fill="#000000" font-family="sans-serif" font-size="6.5" font-weight="bold" lengthAdjust="spacing" textLength="3.5" x="149" y="73.9263">3</text><text fill="#000000" font-family="sans-serif" font-size="6.5" lengthAdjust="spacing" textLength="34" x="154.5" y="73.9263">appSession</text><polygon fill="#181818" points="280.25,90.2031,285.25,92.2031,280.25,94.2031,282.25,92.2031" style="stroke:#181818;stroke-width:0.5;"/><line style="stroke:#181818;stroke-width:0.5;" x1="140.5" x2="283.25" y1="92.2031" y2="92.2031"/><text fill="#000000" font-family="sans-serif" font-size="6.5" font-weight="bold" lengthAdjust="spacing" textLength="3.5" x="144" y="89.5718">4</text><text fill="#000000" font-family="sans-serif" font-size="6.5" lengthAdjust="spacing" textLength="57.5" x="149.5" y="89.5718">getCurrentSession()</text><polygon fill="#181818" points="146,105.8486,141,107.8486,146,109.8486,144,107.8486" style="stroke:#181818;stroke-width:0.5;"/><line style="stroke:#181818;stroke-width:0.5;stroke-dasharray:2.0,2.0;" x1="143" x2="288.25" y1="107.8486" y2="107.8486"/><text fill="#000000" font-family="sans-serif" font-size="6.5" font-weight="bold" lengthAdjust="spacing" textLength="3.5" x="149" y="105.2173">5</text><text fill="#000000" font-family="sans-serif" font-size="6.5" lengthAdjust="spacing" textLength="43.5" x="154.5" y="105.2173">currentSession</text><polygon fill="#181818" points="346.75,121.4941,351.75,123.4941,346.75,125.4941,348.75,123.4941" style="stroke:#181818;stroke-width:0.5;"/><line style="stroke:#181818;stroke-width:0.5;" x1="140.5" x2="349.75" y1="123.4941" y2="123.4941"/><text fill="#000000" font-family="sans-serif" font-size="6.5" font-weight="bold" lengthAdjust="spacing" textLength="3.5" x="144" y="120.8628">6</text><text fill="#000000" font-family="sans-serif" font-size="6.5" lengthAdjust="spacing" textLength="100.5" x="149.5" y="120.8628">isLoggedInWithRole(USER_ROLE)</text><polygon fill="#181818" points="146,137.1396,141,139.1396,146,141.1396,144,139.1396" style="stroke:#181818;stroke-width:0.5;"/><line style="stroke:#181818;stroke-width:0.5;stroke-dasharray:2.0,2.0;" x1="143" x2="354.75" y1="139.1396" y2="139.1396"/><text fill="#000000" font-family="sans-serif" font-size="6.5" font-weight="bold" lengthAdjust="spacing" textLength="3.5" x="149" y="136.5083">7</text><text fill="#000000" font-family="sans-serif" font-size="6.5" lengthAdjust="spacing" textLength="20.5" x="154.5" y="136.5083">answer</text><path d="M5.5,146.6396 L36,146.6396 L36,151.2852 L31,156.2852 L5.5,156.2852 L5.5,146.6396 " fill="#EEEEEE" style="stroke:#000000;stroke-width:0.75;"/><rect fill="none" height="96.082" style="stroke:#000000;stroke-width:0.75;" width="382" x="5.5" y="146.6396"/><text fill="#000000" font-family="sans-serif" font-size="6.5" font-weight="bold" lengthAdjust="spacing" textLength="8" x="13" y="154.1538">alt</text><text fill="#000000" font-family="sans-serif" font-size="5.5" font-weight="bold" lengthAdjust="spacing" textLength="42.5" x="43.5" y="153.5747">[answer = true]</text><line style="stroke:#181818;stroke-width:0.5;" x1="140.5" x2="164" y1="165.4307" y2="165.4307"/><line style="stroke:#181818;stroke-width:0.5;" x1="164" x2="164" y1="165.4307" y2="171.9307"/><line style="stroke:#181818;stroke-width:0.5;" x1="143.5" x2="164" y1="171.9307" y2="171.9307"/><polygon fill="#181818" points="148.5,169.9307,143.5,171.9307,148.5,173.9307,146.5,171.9307" style="stroke:#181818;stroke-width:0.5;"/><text fill="#000000" font-family="sans-serif" font-size="6.5" font-weight="bold" lengthAdjust="spacing" textLength="3.5" x="146.5" y="162.7993">8</text><text fill="#000000" font-family="sans-serif" font-size="6.5" lengthAdjust="spacing" textLength="49.5" x="152" y="162.7993">doesOtherThing()</text><ellipse cx="3.75" cy="189.7012" fill="none" rx="2" ry="2" style="stroke:#181818;stroke-width:0.75;"/><polygon fill="#181818" points="12.25,188.0762,7.25,190.0762,12.25,192.0762,10.25,190.0762" style="stroke:#181818;stroke-width:0.5;"/><line style="stroke:#181818;stroke-width:0.5;stroke-dasharray:2.0,2.0;" x1="11.25" x2="135" y1="190.0762" y2="190.0762"/><text fill="#000000" font-family="sans-serif" font-size="6.5" font-weight="bold" lengthAdjust="spacing" textLength="3.5" x="12.5" y="187.4448">9</text><text fill="#000000" font-family="sans-serif" font-size="6.5" lengthAdjust="spacing" textLength="7" x="18" y="187.4448">ok</text><polygon fill="#FFFFFF" points="349.25,195.0762,354.25,197.0762,349.25,199.0762,351.25,197.0762" style="stroke:#FFFFFF;stroke-width:0.5;"/><line style="stroke:#FFFFFF;stroke-width:0.5;" x1="140.5" x2="352.25" y1="197.0762" y2="197.0762"/><line style="stroke:#000000;stroke-width:0.5;stroke-dasharray:2.0,2.0;" x1="5.5" x2="387.5" y1="201.5762" y2="201.5762"/><ellipse cx="3.75" cy="225.8467" fill="none" rx="2" ry="2" style="stroke:#181818;stroke-width:0.75;"/><polygon fill="#181818" points="12.25,224.2217,7.25,226.2217,12.25,228.2217,10.25,226.2217" style="stroke:#181818;stroke-width:0.5;"/><line style="stroke:#181818;stroke-width:0.5;stroke-dasharray:2.0,2.0;" x1="11.25" x2="135" y1="226.2217" y2="226.2217"/><text fill="#000000" font-family="sans-serif" font-size="6.5" font-weight="bold" lengthAdjust="spacing" textLength="7" x="12.5" y="223.5903">10</text><text fill="#000000" font-family="sans-serif" font-size="6.5" lengthAdjust="spacing" textLength="113" x="21.5" y="223.5903">illegalStateException("Not Authorized")</text><!--SRC=[XPF1Zfim48RlVWehFJHxo0j4RQK8vO0K9IlOg8Uqghnc0bQC1zb3istJTw-140oRgBw0xF__-MRmk9CobR2Yv2KQb8N54ZZP6fYxdLH2daGEAVtIm2r84YRNeS0L8iEpCZa_2ks0CL4Jchfy1SlOnq9bm8-8z8flp1j8ILK9Gtos_BCL9UoE- -XlX8OiQWrsneNZqKko6MjNLQML5AJGfE2SVxJ2rVDpkaxJUBUDndfHLLVTDxFyhpaUcsLjBHWQ0lOEREYCzidLwOkLf7uAWWxwW8ilxHjVScd1xy-V6FUhtVDd0R6Nv43AEDzHsUjkSM5fxKcpGlTY-D9GRQlCu77AUuwuuuX6HJ-cYU_Hn27Dk7sFYU8nqT1Kdw7S1lCSijXyLLGag66-JzV9ZsItMK_Gmf_HamLPOPkCE_ixEG6Q-eMcgv9_xcRXbjgJTd4PWjjH0VQby9V_sh4nMdCbUB0E-6cnwFrukfs5EA5dc2Jk2Ai9oU73kL04tyFUtRDQS7NPbG7DWFQIo-N2xf8fFucvq2bveFMRXAePdVbiYyHNDHLerM_8Pa_lWi1aJViOczRp3m00]--></g></svg>