<?xml version="1.0" encoding="us-ascii" standalone="no"?><svg xmlns="http://www.w3.org/2000/svg" xmlns:xlink="http://www.w3.org/1999/xlink" contentStyleType="text/css" height="440.5px" preserveAspectRatio="none" style="width:484px;height:440px;background:#FFFFFF;" version="1.1" viewBox="0 0 484 440" width="484px" zoomAndPan="magnify"><defs/><g><rect fill="#FFFFFF" height="347.4102" style="stroke:#181818;stroke-width:0.5;" width="5" x="16.25" y="46.8105"/><rect fill="#FFFFFF" height="148.4941" style="stroke:#181818;stroke-width:0.5;" width="5" x="85.75" y="58.4561"/><rect fill="#FFFFFF" height="16.8105" style="stroke:#181818;stroke-width:0.5;" width="5" x="151.25" y="79.1016"/><rect fill="#FFFFFF" height="30.6455" style="stroke:#181818;stroke-width:0.5;" width="5" x="151.25" y="191.9502"/><rect fill="#FFFFFF" height="110.334" style="stroke:#181818;stroke-width:0.5;" width="5" x="151.25" y="263.8867"/><rect fill="#FFFFFF" height="75.3926" style="stroke:#181818;stroke-width:0.5;" width="5" x="229.25" y="100.9121"/><rect fill="#FFFFFF" height="79.043" style="stroke:#181818;stroke-width:0.5;" width="5" x="229.25" y="279.5322"/><rect fill="#FFFFFF" height="21.4683" style="stroke:#181818;stroke-width:0.5;" width="5" x="307.5" y="123.5454"/><rect fill="#FFFFFF" height="47.752" style="stroke:#181818;stroke-width:0.5;" width="5" x="307.5" y="295.1777"/><rect fill="#FFFFFF" height="15.6455" style="stroke:#181818;stroke-width:0.5;" width="5" x="380" y="160.6592"/><rect fill="none" height="148.125" style="stroke:#000000;stroke-width:0.75;" width="476.25" x="5" y="242.5957"/><line style="stroke:#181818;stroke-width:0.25;stroke-dasharray:5.0,5.0;" x1="18.5" x2="18.5" y1="41.8105" y2="399.2207"/><line style="stroke:#181818;stroke-width:0.25;stroke-dasharray:5.0,5.0;" x1="88" x2="88" y1="41.8105" y2="399.2207"/><line style="stroke:#181818;stroke-width:0.25;stroke-dasharray:5.0,5.0;" x1="153.75" x2="153.75" y1="78.3613" y2="399.2207"/><line style="stroke:#181818;stroke-width:0.25;stroke-dasharray:5.0,5.0;" x1="231.75" x2="231.75" y1="100.1719" y2="399.2207"/><line style="stroke:#181818;stroke-width:0.25;stroke-dasharray:5.0,5.0;" x1="309.75" x2="309.75" y1="41.8105" y2="399.2207"/><line style="stroke:#181818;stroke-width:0.25;stroke-dasharray:5.0,5.0;" x1="382.25" x2="382.25" y1="41.8105" y2="399.2207"/><line style="stroke:#181818;stroke-width:0.25;stroke-dasharray:5.0,5.0;" x1="448.75" x2="448.75" y1="41.8105" y2="399.2207"/><text fill="#000000" font-family="sans-serif" font-size="7" lengthAdjust="spacing" textLength="14.5" x="10" y="40.0537">User</text><ellipse cx="18.75" cy="6.75" fill="#E3E3E3" rx="4" ry="4" style="stroke:#181818;stroke-width:0.25;"/><path d="M18.75,10.75 L18.75,24.25 M12.25,14.75 L25.25,14.75 M18.75,24.25 L12.25,31.75 M18.75,24.25 L25.25,31.75 " fill="none" style="stroke:#181818;stroke-width:0.25;"/><text fill="#000000" font-family="sans-serif" font-size="7" lengthAdjust="spacing" textLength="14.5" x="10" y="406.2744">User</text><ellipse cx="18.75" cy="412.2813" fill="#E3E3E3" rx="4" ry="4" style="stroke:#181818;stroke-width:0.25;"/><path d="M18.75,416.2813 L18.75,429.7813 M12.25,420.2813 L25.25,420.2813 M18.75,429.7813 L12.25,437.2813 M18.75,429.7813 L25.25,437.2813 " fill="none" style="stroke:#181818;stroke-width:0.25;"/><rect fill="#E3E3E3" height="16.3105" rx="1.25" ry="1.25" style="stroke:#181818;stroke-width:0.25;" width="47.5" x="64.5" y="25"/><text fill="#000000" font-family="sans-serif" font-size="7" lengthAdjust="spacing" textLength="40.5" x="68" y="36.0537">:MainMenuUI</text><rect fill="#E3E3E3" height="16.3105" rx="1.25" ry="1.25" style="stroke:#181818;stroke-width:0.25;" width="47.5" x="64.5" y="398.7207"/><text fill="#000000" font-family="sans-serif" font-size="7" lengthAdjust="spacing" textLength="40.5" x="68" y="409.7744">:MainMenuUI</text><rect fill="#E3E3E3" height="16.3105" rx="1.25" ry="1.25" style="stroke:#181818;stroke-width:0.25;" width="55" x="126.25" y="398.7207"/><text fill="#000000" font-family="sans-serif" font-size="7" lengthAdjust="spacing" textLength="48" x="129.75" y="409.7744">:{NameOfUC}UI</text><rect fill="#E3E3E3" height="16.3105" rx="1.25" ry="1.25" style="stroke:#181818;stroke-width:0.25;" width="80" x="191.75" y="398.7207"/><text fill="#000000" font-family="sans-serif" font-size="7" lengthAdjust="spacing" textLength="73" x="195.25" y="409.7744">:{NameOfUC}Controller</text><rect fill="#E3E3E3" height="16.3105" rx="1.25" ry="1.25" style="stroke:#181818;stroke-width:0.25;" width="66.5" x="276.75" y="25"/><text fill="#000000" font-family="sans-serif" font-size="7" lengthAdjust="spacing" textLength="59.5" x="280.25" y="36.0537">ApplicationSession</text><rect fill="#E3E3E3" height="16.3105" rx="1.25" ry="1.25" style="stroke:#181818;stroke-width:0.25;" width="66.5" x="276.75" y="398.7207"/><text fill="#000000" font-family="sans-serif" font-size="7" lengthAdjust="spacing" textLength="59.5" x="280.25" y="409.7744">ApplicationSession</text><rect fill="#E3E3E3" height="25.6211" rx="1.25" ry="1.25" style="stroke:#181818;stroke-width:0.25;" width="68.5" x="348.25" y="15.6895"/><text fill="#000000" font-family="sans-serif" font-size="7" lengthAdjust="spacing" textLength="37" x="364" y="26.7432">appSession</text><text fill="#000000" font-family="sans-serif" font-size="7" lengthAdjust="spacing" textLength="61.5" x="351.75" y="36.0537">:ApplicationSession</text><rect fill="#E3E3E3" height="25.6211" rx="1.25" ry="1.25" style="stroke:#181818;stroke-width:0.25;" width="68.5" x="348.25" y="398.7207"/><text fill="#000000" font-family="sans-serif" font-size="7" lengthAdjust="spacing" textLength="37" x="364" y="409.7744">appSession</text><text fill="#000000" font-family="sans-serif" font-size="7" lengthAdjust="spacing" textLength="61.5" x="351.75" y="419.085">:ApplicationSession</text><rect fill="#E3E3E3" height="25.6211" rx="1.25" ry="1.25" style="stroke:#181818;stroke-width:0.25;" width="54.5" x="421.75" y="15.6895"/><text fill="#000000" font-family="sans-serif" font-size="7" lengthAdjust="spacing" textLength="47.5" x="425.25" y="26.7432">currentSession</text><text fill="#000000" font-family="sans-serif" font-size="7" lengthAdjust="spacing" textLength="41.5" x="428.25" y="36.0537">:UserSession</text><rect fill="#E3E3E3" height="25.6211" rx="1.25" ry="1.25" style="stroke:#181818;stroke-width:0.25;" width="54.5" x="421.75" y="398.7207"/><text fill="#000000" font-family="sans-serif" font-size="7" lengthAdjust="spacing" textLength="47.5" x="425.25" y="409.7744">currentSession</text><text fill="#000000" font-family="sans-serif" font-size="7" lengthAdjust="spacing" textLength="41.5" x="428.25" y="419.085">:UserSession</text><rect fill="#FFFFFF" height="347.4102" style="stroke:#181818;stroke-width:0.5;" width="5" x="16.25" y="46.8105"/><rect fill="#FFFFFF" height="148.4941" style="stroke:#181818;stroke-width:0.5;" width="5" x="85.75" y="58.4561"/><rect fill="#FFFFFF" height="16.8105" style="stroke:#181818;stroke-width:0.5;" width="5" x="151.25" y="79.1016"/><rect fill="#FFFFFF" height="30.6455" style="stroke:#181818;stroke-width:0.5;" width="5" x="151.25" y="191.9502"/><rect fill="#FFFFFF" height="110.334" style="stroke:#181818;stroke-width:0.5;" width="5" x="151.25" y="263.8867"/><rect fill="#FFFFFF" height="75.3926" style="stroke:#181818;stroke-width:0.5;" width="5" x="229.25" y="100.9121"/><rect fill="#FFFFFF" height="79.043" style="stroke:#181818;stroke-width:0.5;" width="5" x="229.25" y="279.5322"/><rect fill="#FFFFFF" height="21.4683" style="stroke:#181818;stroke-width:0.5;" width="5" x="307.5" y="123.5454"/><rect fill="#FFFFFF" height="47.752" style="stroke:#181818;stroke-width:0.5;" width="5" x="307.5" y="295.1777"/><rect fill="#FFFFFF" height="15.6455" style="stroke:#181818;stroke-width:0.5;" width="5" x="380" y="160.6592"/><polygon fill="#181818" points="79.75,56.4561,84.75,58.4561,79.75,60.4561,81.75,58.4561" style="stroke:#181818;stroke-width:0.5;"/><line style="stroke:#181818;stroke-width:0.5;" x1="21.25" x2="82.75" y1="58.4561" y2="58.4561"/><text fill="#000000" font-family="sans-serif" font-size="6.5" font-weight="bold" lengthAdjust="spacing" textLength="3.5" x="24.75" y="55.8247">1</text><text fill="#000000" font-family="sans-serif" font-size="6.5" lengthAdjust="spacing" textLength="49.5" x="30.25" y="55.8247">selects an option</text><polygon fill="#181818" points="120.25,72.1016,125.25,74.1016,120.25,76.1016,122.25,74.1016" style="stroke:#181818;stroke-width:0.5;"/><line style="stroke:#181818;stroke-width:0.5;stroke-dasharray:2.0,2.0;" x1="90.75" x2="123.25" y1="74.1016" y2="74.1016"/><text fill="#000000" font-family="sans-serif" font-size="6.5" font-weight="bold" lengthAdjust="spacing" textLength="3.5" x="94.25" y="71.4702">2</text><text fill="#000000" font-family="sans-serif" font-size="6.5" lengthAdjust="spacing" textLength="18" x="99.75" y="71.4702">create</text><rect fill="#E3E3E3" height="16.3105" rx="1.25" ry="1.25" style="stroke:#181818;stroke-width:0.25;" width="55" x="126.25" y="62.4561"/><text fill="#000000" font-family="sans-serif" font-size="7" lengthAdjust="spacing" textLength="48" x="129.75" y="73.5098">:{NameOfUC}UI</text><polygon fill="#181818" points="185.75,93.9121,190.75,95.9121,185.75,97.9121,187.75,95.9121" style="stroke:#181818;stroke-width:0.5;"/><line style="stroke:#181818;stroke-width:0.5;stroke-dasharray:2.0,2.0;" x1="153.75" x2="188.75" y1="95.9121" y2="95.9121"/><text fill="#000000" font-family="sans-serif" font-size="6.5" font-weight="bold" lengthAdjust="spacing" textLength="3.5" x="157.25" y="93.2808">3</text><text fill="#000000" font-family="sans-serif" font-size="6.5" lengthAdjust="spacing" textLength="18" x="162.75" y="93.2808">create</text><rect fill="#E3E3E3" height="16.3105" rx="1.25" ry="1.25" style="stroke:#181818;stroke-width:0.25;" width="80" x="191.75" y="84.2666"/><text fill="#000000" font-family="sans-serif" font-size="7" lengthAdjust="spacing" textLength="73" x="195.25" y="95.3203">:{NameOfUC}Controller</text><polygon fill="#181818" points="301.5,121.5454,306.5,123.5454,301.5,125.5454,303.5,123.5454" style="stroke:#181818;stroke-width:0.5;"/><line style="stroke:#181818;stroke-width:0.5;" x1="234.25" x2="304.5" y1="123.5454" y2="123.5454"/><text fill="#000000" font-family="sans-serif" font-size="6.5" font-weight="bold" lengthAdjust="spacing" textLength="3.5" x="237.75" y="120.9141">4</text><text fill="#000000" font-family="sans-serif" font-size="6.5" lengthAdjust="spacing" textLength="37.5" x="243.25" y="120.9141">getinstance()</text><path d="M315,108.5771 L315,130.5771 L378.5,130.5771 L378.5,113.5771 L373.5,108.5771 L315,108.5771 " fill="#FAFAFA" style="stroke:#181818;stroke-width:0.25;"/><path d="M373.5,108.5771 L373.5,113.5771 L378.5,113.5771 L373.5,108.5771 " fill="#FAFAFA" style="stroke:#181818;stroke-width:0.25;"/><text fill="#000000" font-family="sans-serif" font-size="6.5" lengthAdjust="spacing" textLength="39.5" x="318" y="118.0913">static method</text><text fill="#000000" font-family="sans-serif" font-size="6.5" lengthAdjust="spacing" textLength="53" x="318" y="126.7368">(Singleton pattern)</text><polygon fill="#181818" points="239.75,143.0137,234.75,145.0137,239.75,147.0137,237.75,145.0137" style="stroke:#181818;stroke-width:0.5;"/><line style="stroke:#181818;stroke-width:0.5;stroke-dasharray:2.0,2.0;" x1="236.75" x2="309.5" y1="145.0137" y2="145.0137"/><text fill="#000000" font-family="sans-serif" font-size="6.5" font-weight="bold" lengthAdjust="spacing" textLength="3.5" x="242.75" y="142.3823">5</text><text fill="#000000" font-family="sans-serif" font-size="6.5" lengthAdjust="spacing" textLength="34" x="248.25" y="142.3823">appSession</text><polygon fill="#181818" points="374,158.6592,379,160.6592,374,162.6592,376,160.6592" style="stroke:#181818;stroke-width:0.5;"/><line style="stroke:#181818;stroke-width:0.5;" x1="234.25" x2="377" y1="160.6592" y2="160.6592"/><text fill="#000000" font-family="sans-serif" font-size="6.5" font-weight="bold" lengthAdjust="spacing" textLength="3.5" x="237.75" y="158.0278">6</text><text fill="#000000" font-family="sans-serif" font-size="6.5" lengthAdjust="spacing" textLength="57.5" x="243.25" y="158.0278">getCurrentSession()</text><polygon fill="#181818" points="237.25,174.3047,232.25,176.3047,237.25,178.3047,235.25,176.3047" style="stroke:#181818;stroke-width:0.5;"/><line style="stroke:#181818;stroke-width:0.5;stroke-dasharray:2.0,2.0;" x1="234.25" x2="382" y1="176.3047" y2="176.3047"/><text fill="#000000" font-family="sans-serif" font-size="6.5" font-weight="bold" lengthAdjust="spacing" textLength="3.5" x="240.25" y="173.6733">7</text><text fill="#000000" font-family="sans-serif" font-size="6.5" lengthAdjust="spacing" textLength="43.5" x="245.75" y="173.6733">currentSession</text><polygon fill="#181818" points="145.25,189.9502,150.25,191.9502,145.25,193.9502,147.25,191.9502" style="stroke:#181818;stroke-width:0.5;"/><line style="stroke:#181818;stroke-width:0.5;" x1="90.75" x2="148.25" y1="191.9502" y2="191.9502"/><text fill="#000000" font-family="sans-serif" font-size="6.5" font-weight="bold" lengthAdjust="spacing" textLength="3.5" x="94.25" y="189.3188">8</text><text fill="#000000" font-family="sans-serif" font-size="6.5" lengthAdjust="spacing" textLength="13" x="99.75" y="189.3188">run()</text><polygon fill="#181818" points="26.75,220.5957,21.75,222.5957,26.75,224.5957,24.75,222.5957" style="stroke:#181818;stroke-width:0.5;"/><line style="stroke:#181818;stroke-width:0.5;stroke-dasharray:2.0,2.0;" x1="23.75" x2="153.25" y1="222.5957" y2="222.5957"/><text fill="#000000" font-family="sans-serif" font-size="6.5" font-weight="bold" lengthAdjust="spacing" textLength="3.5" x="29.75" y="219.9644">9</text><text fill="#000000" font-family="sans-serif" font-size="6.5" lengthAdjust="spacing" textLength="57" x="35.25" y="219.9644">requests something</text><path d="M5,242.5957 L41.5,242.5957 L41.5,247.2412 L36.5,252.2412 L5,252.2412 L5,242.5957 " fill="#EEEEEE" style="stroke:#000000;stroke-width:0.75;"/><rect fill="none" height="148.125" style="stroke:#000000;stroke-width:0.75;" width="476.25" x="5" y="242.5957"/><text fill="#000000" font-family="sans-serif" font-size="6.5" font-weight="bold" lengthAdjust="spacing" textLength="14" x="12.5" y="250.1099">loop</text><polygon fill="#181818" points="145.25,261.8867,150.25,263.8867,145.25,265.8867,147.25,263.8867" style="stroke:#181818;stroke-width:0.5;"/><line style="stroke:#181818;stroke-width:0.5;" x1="21.25" x2="148.25" y1="263.8867" y2="263.8867"/><text fill="#000000" font-family="sans-serif" font-size="6.5" font-weight="bold" lengthAdjust="spacing" textLength="7" x="24.75" y="261.2554">10</text><text fill="#000000" font-family="sans-serif" font-size="6.5" lengthAdjust="spacing" textLength="46" x="33.75" y="261.2554">does something</text><polygon fill="#181818" points="223.25,277.5322,228.25,279.5322,223.25,281.5322,225.25,279.5322" style="stroke:#181818;stroke-width:0.5;"/><line style="stroke:#181818;stroke-width:0.5;" x1="156.25" x2="226.25" y1="279.5322" y2="279.5322"/><text fill="#000000" font-family="sans-serif" font-size="6.5" font-weight="bold" lengthAdjust="spacing" textLength="7" x="159.75" y="276.9009">11</text><text fill="#000000" font-family="sans-serif" font-size="6.5" lengthAdjust="spacing" textLength="35" x="168.75" y="276.9009">methodX(...)</text><polygon fill="#181818" points="301.5,293.1777,306.5,295.1777,301.5,297.1777,303.5,295.1777" style="stroke:#181818;stroke-width:0.5;"/><line style="stroke:#181818;stroke-width:0.5;" x1="234.25" x2="304.5" y1="295.1777" y2="295.1777"/><text fill="#000000" font-family="sans-serif" font-size="6.5" font-weight="bold" lengthAdjust="spacing" textLength="7" x="237.75" y="292.5464">12</text><text fill="#000000" font-family="sans-serif" font-size="6.5" lengthAdjust="spacing" textLength="36" x="246.75" y="292.5464">methodY(...)</text><rect fill="none" height="29.6064" style="stroke:#000000;stroke-width:0.75;" width="202.5" x="275.25" y="299.1777"/><path d="M275.25,299.1777 L306.25,299.1777 L306.25,303.6777 L301.25,308.6777 L275.25,308.6777 L275.25,299.1777 " fill="#EEEEEE" style="stroke:#000000;stroke-width:1.0;"/><text fill="#000000" font-family="sans-serif" font-size="6.5" font-weight="bold" lengthAdjust="spacing" textLength="8.5" x="281.75" y="307.1919">ref</text><text fill="#000000" font-family="sans-serif" font-size="6" lengthAdjust="spacing" textLength="1.5" x="375.75" y="317.1523">&#160;</text><text fill="#000000" font-family="sans-serif" font-size="6" lengthAdjust="spacing" textLength="1.5" x="375.75" y="325.1328">&#160;</text><polygon fill="#181818" points="239.75,340.9297,234.75,342.9297,239.75,344.9297,237.75,342.9297" style="stroke:#181818;stroke-width:0.5;"/><line style="stroke:#181818;stroke-width:0.5;stroke-dasharray:2.0,2.0;" x1="236.75" x2="309.5" y1="342.9297" y2="342.9297"/><text fill="#000000" font-family="sans-serif" font-size="6.5" font-weight="bold" lengthAdjust="spacing" textLength="7" x="242.75" y="340.2983">13</text><text fill="#000000" font-family="sans-serif" font-size="6.5" lengthAdjust="spacing" textLength="20.5" x="251.75" y="340.2983">answer</text><polygon fill="#181818" points="161.75,356.5752,156.75,358.5752,161.75,360.5752,159.75,358.5752" style="stroke:#181818;stroke-width:0.5;"/><line style="stroke:#181818;stroke-width:0.5;stroke-dasharray:2.0,2.0;" x1="158.75" x2="231.25" y1="358.5752" y2="358.5752"/><text fill="#000000" font-family="sans-serif" font-size="6.5" font-weight="bold" lengthAdjust="spacing" textLength="7" x="164.75" y="355.9438">14</text><text fill="#000000" font-family="sans-serif" font-size="6.5" lengthAdjust="spacing" textLength="20.5" x="173.75" y="355.9438">answer</text><polygon fill="#181818" points="26.75,372.2207,21.75,374.2207,26.75,376.2207,24.75,374.2207" style="stroke:#181818;stroke-width:0.5;"/><line style="stroke:#181818;stroke-width:0.5;stroke-dasharray:2.0,2.0;" x1="23.75" x2="153.25" y1="374.2207" y2="374.2207"/><text fill="#000000" font-family="sans-serif" font-size="6.5" font-weight="bold" lengthAdjust="spacing" textLength="7" x="29.75" y="371.5894">15</text><text fill="#000000" font-family="sans-serif" font-size="6.5" lengthAdjust="spacing" textLength="90.5" x="38.75" y="371.5894">answers/requests another thing</text><!--SRC=[bLN1Zfim4Btp5LOkJLQxwJs7IX7A0Qd9haAHMgaNBqp0Mh2fRNPRDVttZWqXTe1DrXUGvytpyEQDKI-CrrJIYbI2YxIGeWAYPGE1wYCrJLze3h7-KmAHa6hAyz85g89cuetnd1negI08QAC5Rwfda47mgM0Pa8CG-bdy3cYgXIIpH86S4Qf84c_s0R9ebhAQSarcgorbV0kyIIABs6vsoGNYxuvMy7X8mdyT9Wbtw-qcYIPneU1QYhBiJWs_xR_ws7LTboobcWaUWrBuiC3rqrEyYUFeSHVwU5hN7UudNrrDlYWiRQG4hiy4HWutCqpsNMPW56ElL4ChLK1mcJVoyCLAGrP4GObDKOHo8cfJX0NrULP0ksMMpNd0v9DcTtT8aKf0Q0ywdtaIjW_PyxjTosEq7EF8u1sMFcGxuP6R7VDnZlH8deDcNA7pKfWl_0Gka4UolD3UjbcOWAgJ2dGXia5q7ZDZPBGgMbnha7pXOO1dbjm_hY_TzSQ0swt-f19-njasVeeZrYJjK9Ye5IRqx7GfpmXnz5wzaLklxzJh9JlCJjnlSkl0im7n6DcOigVTTy7dEthWI3iUI0g_6b0u5qeO0s2llPJZyNZTgwKGTOywZPrJU2PWZF_c-Uc5RYtwVRvSBXVZxHjEolIqj6m_Xcot6zWi2GSYNa6wo7kdsVVkFJNAO4O8MKPZKoF2rHl-DoxHjqp8MH2_IoEKa-wSSbFBeJxthg9uDHIepSUTTHB6cYjm4UQ6_my0]--></g></svg>