<?xml version="1.0" encoding="us-ascii" standalone="no"?><svg xmlns="http://www.w3.org/2000/svg" xmlns:xlink="http://www.w3.org/1999/xlink" contentStyleType="text/css" height="558px" preserveAspectRatio="none" style="width:787px;height:558px;background:#FFFFFF;" version="1.1" viewBox="0 0 787 558" width="787px" zoomAndPan="magnify"><defs/><g><rect fill="#FFFFFF" height="425.2012" style="stroke:#181818;stroke-width:1.0;" width="10" x="271" y="67.2422"/><rect fill="#FFFFFF" height="36.291" style="stroke:#181818;stroke-width:1.0;" width="10" x="276" y="343.8613"/><rect fill="#FFFFFF" height="31.291" style="stroke:#181818;stroke-width:1.0;" width="10" x="432.5" y="121.8242"/><rect fill="#FFFFFF" height="31.291" style="stroke:#181818;stroke-width:1.0;" width="10" x="577.5" y="184.4063"/><rect fill="#FFFFFF" height="31.291" style="stroke:#181818;stroke-width:1.0;" width="10" x="710.5" y="246.9883"/><rect fill="none" height="192.1641" style="stroke:#000000;stroke-width:1.5;" width="769" x="11" y="293.2793"/><line style="stroke:#181818;stroke-width:0.5;stroke-dasharray:5.0,5.0;" x1="276" x2="276" y1="57.2422" y2="502.4434"/><line style="stroke:#181818;stroke-width:0.5;stroke-dasharray:5.0,5.0;" x1="437" x2="437" y1="57.2422" y2="502.4434"/><line style="stroke:#181818;stroke-width:0.5;stroke-dasharray:5.0,5.0;" x1="582" x2="582" y1="57.2422" y2="502.4434"/><line style="stroke:#181818;stroke-width:0.5;stroke-dasharray:5.0,5.0;" x1="715" x2="715" y1="57.2422" y2="502.4434"/><rect fill="#E3E3E3" height="32.6211" rx="2.5" ry="2.5" style="stroke:#181818;stroke-width:0.5;" width="170" x="191" y="23.6211"/><text fill="#000000" font-family="sans-serif" font-size="14" lengthAdjust="spacing" textLength="156" x="198" y="45.7285">:AuthenticationController</text><rect fill="#E3E3E3" height="32.6211" rx="2.5" ry="2.5" style="stroke:#181818;stroke-width:0.5;" width="170" x="191" y="501.4434"/><text fill="#000000" font-family="sans-serif" font-size="14" lengthAdjust="spacing" textLength="156" x="198" y="523.5508">:AuthenticationController</text><rect fill="#E3E3E3" height="32.6211" rx="2.5" ry="2.5" style="stroke:#181818;stroke-width:0.5;" width="133" x="371" y="23.6211"/><text fill="#000000" font-family="sans-serif" font-size="14" lengthAdjust="spacing" textLength="119" x="378" y="45.7285">ApplicationSession</text><rect fill="#E3E3E3" height="32.6211" rx="2.5" ry="2.5" style="stroke:#181818;stroke-width:0.5;" width="133" x="371" y="501.4434"/><text fill="#000000" font-family="sans-serif" font-size="14" lengthAdjust="spacing" textLength="119" x="378" y="523.5508">ApplicationSession</text><rect fill="#E3E3E3" height="51.2422" rx="2.5" ry="2.5" style="stroke:#181818;stroke-width:0.5;" width="137" x="514" y="5"/><text fill="#000000" font-family="sans-serif" font-size="14" lengthAdjust="spacing" textLength="74" x="545.5" y="27.1074">appSession</text><text fill="#000000" font-family="sans-serif" font-size="14" lengthAdjust="spacing" textLength="123" x="521" y="45.7285">:ApplicationSession</text><rect fill="#E3E3E3" height="51.2422" rx="2.5" ry="2.5" style="stroke:#181818;stroke-width:0.5;" width="137" x="514" y="501.4434"/><text fill="#000000" font-family="sans-serif" font-size="14" lengthAdjust="spacing" textLength="74" x="545.5" y="523.5508">appSession</text><text fill="#000000" font-family="sans-serif" font-size="14" lengthAdjust="spacing" textLength="123" x="521" y="542.1719">:ApplicationSession</text><rect fill="#E3E3E3" height="51.2422" rx="2.5" ry="2.5" style="stroke:#181818;stroke-width:0.5;" width="109" x="661" y="5"/><text fill="#000000" font-family="sans-serif" font-size="14" lengthAdjust="spacing" textLength="95" x="668" y="27.1074">currentSession</text><text fill="#000000" font-family="sans-serif" font-size="14" lengthAdjust="spacing" textLength="83" x="674" y="45.7285">:UserSession</text><rect fill="#E3E3E3" height="51.2422" rx="2.5" ry="2.5" style="stroke:#181818;stroke-width:0.5;" width="109" x="661" y="501.4434"/><text fill="#000000" font-family="sans-serif" font-size="14" lengthAdjust="spacing" textLength="95" x="668" y="523.5508">currentSession</text><text fill="#000000" font-family="sans-serif" font-size="14" lengthAdjust="spacing" textLength="83" x="674" y="542.1719">:UserSession</text><rect fill="#FFFFFF" height="425.2012" style="stroke:#181818;stroke-width:1.0;" width="10" x="271" y="67.2422"/><rect fill="#FFFFFF" height="36.291" style="stroke:#181818;stroke-width:1.0;" width="10" x="276" y="343.8613"/><rect fill="#FFFFFF" height="31.291" style="stroke:#181818;stroke-width:1.0;" width="10" x="432.5" y="121.8242"/><rect fill="#FFFFFF" height="31.291" style="stroke:#181818;stroke-width:1.0;" width="10" x="577.5" y="184.4063"/><rect fill="#FFFFFF" height="31.291" style="stroke:#181818;stroke-width:1.0;" width="10" x="710.5" y="246.9883"/><ellipse cx="7.5" cy="89.7832" fill="none" rx="4" ry="4" style="stroke:#181818;stroke-width:1.5;"/><polygon fill="#181818" points="259,86.5332,269,90.5332,259,94.5332,263,90.5332" style="stroke:#181818;stroke-width:1.0;"/><line style="stroke:#181818;stroke-width:1.0;" x1="12" x2="265" y1="90.5332" y2="90.5332"/><text fill="#000000" font-family="sans-serif" font-size="13" font-weight="bold" lengthAdjust="spacing" textLength="7" x="15" y="85.2705">1</text><text fill="#000000" font-family="sans-serif" font-size="13" lengthAdjust="spacing" textLength="44" x="26" y="85.2705">create()</text><polygon fill="#181818" points="420.5,117.8242,430.5,121.8242,420.5,125.8242,424.5,121.8242" style="stroke:#181818;stroke-width:1.0;"/><line style="stroke:#181818;stroke-width:1.0;" x1="281" x2="426.5" y1="121.8242" y2="121.8242"/><text fill="#000000" font-family="sans-serif" font-size="13" font-weight="bold" lengthAdjust="spacing" textLength="7" x="288" y="116.5615">2</text><text fill="#000000" font-family="sans-serif" font-size="13" lengthAdjust="spacing" textLength="75" x="299" y="116.5615">getinstance()</text><polygon fill="#181818" points="292,149.1152,282,153.1152,292,157.1152,288,153.1152" style="stroke:#181818;stroke-width:1.0;"/><line style="stroke:#181818;stroke-width:1.0;stroke-dasharray:2.0,2.0;" x1="286" x2="436.5" y1="153.1152" y2="153.1152"/><text fill="#000000" font-family="sans-serif" font-size="13" font-weight="bold" lengthAdjust="spacing" textLength="7" x="298" y="147.8525">3</text><text fill="#000000" font-family="sans-serif" font-size="13" lengthAdjust="spacing" textLength="68" x="309" y="147.8525">appSession</text><polygon fill="#181818" points="565.5,180.4063,575.5,184.4063,565.5,188.4063,569.5,184.4063" style="stroke:#181818;stroke-width:1.0;"/><line style="stroke:#181818;stroke-width:1.0;" x1="281" x2="571.5" y1="184.4063" y2="184.4063"/><text fill="#000000" font-family="sans-serif" font-size="13" font-weight="bold" lengthAdjust="spacing" textLength="7" x="288" y="179.1436">4</text><text fill="#000000" font-family="sans-serif" font-size="13" lengthAdjust="spacing" textLength="115" x="299" y="179.1436">getCurrentSession()</text><polygon fill="#181818" points="292,211.6973,282,215.6973,292,219.6973,288,215.6973" style="stroke:#181818;stroke-width:1.0;"/><line style="stroke:#181818;stroke-width:1.0;stroke-dasharray:2.0,2.0;" x1="286" x2="581.5" y1="215.6973" y2="215.6973"/><text fill="#000000" font-family="sans-serif" font-size="13" font-weight="bold" lengthAdjust="spacing" textLength="7" x="298" y="210.4346">5</text><text fill="#000000" font-family="sans-serif" font-size="13" lengthAdjust="spacing" textLength="87" x="309" y="210.4346">currentSession</text><polygon fill="#181818" points="698.5,242.9883,708.5,246.9883,698.5,250.9883,702.5,246.9883" style="stroke:#181818;stroke-width:1.0;"/><line style="stroke:#181818;stroke-width:1.0;" x1="281" x2="704.5" y1="246.9883" y2="246.9883"/><text fill="#000000" font-family="sans-serif" font-size="13" font-weight="bold" lengthAdjust="spacing" textLength="7" x="288" y="241.7256">6</text><text fill="#000000" font-family="sans-serif" font-size="13" lengthAdjust="spacing" textLength="201" x="299" y="241.7256">isLoggedInWithRole(USER_ROLE)</text><polygon fill="#181818" points="292,274.2793,282,278.2793,292,282.2793,288,278.2793" style="stroke:#181818;stroke-width:1.0;"/><line style="stroke:#181818;stroke-width:1.0;stroke-dasharray:2.0,2.0;" x1="286" x2="714.5" y1="278.2793" y2="278.2793"/><text fill="#000000" font-family="sans-serif" font-size="13" font-weight="bold" lengthAdjust="spacing" textLength="7" x="298" y="273.0166">7</text><text fill="#000000" font-family="sans-serif" font-size="13" lengthAdjust="spacing" textLength="41" x="309" y="273.0166">answer</text><path d="M11,293.2793 L72,293.2793 L72,302.5703 L62,312.5703 L11,312.5703 L11,293.2793 " fill="#EEEEEE" style="stroke:#000000;stroke-width:1.5;"/><rect fill="none" height="192.1641" style="stroke:#000000;stroke-width:1.5;" width="769" x="11" y="293.2793"/><text fill="#000000" font-family="sans-serif" font-size="13" font-weight="bold" lengthAdjust="spacing" textLength="16" x="26" y="308.3076">alt</text><text fill="#000000" font-family="sans-serif" font-size="11" font-weight="bold" lengthAdjust="spacing" textLength="85" x="87" y="307.1494">[answer = true]</text><line style="stroke:#181818;stroke-width:1.0;" x1="281" x2="328" y1="330.8613" y2="330.8613"/><line style="stroke:#181818;stroke-width:1.0;" x1="328" x2="328" y1="330.8613" y2="343.8613"/><line style="stroke:#181818;stroke-width:1.0;" x1="287" x2="328" y1="343.8613" y2="343.8613"/><polygon fill="#181818" points="297,339.8613,287,343.8613,297,347.8613,293,343.8613" style="stroke:#181818;stroke-width:1.0;"/><text fill="#000000" font-family="sans-serif" font-size="13" font-weight="bold" lengthAdjust="spacing" textLength="7" x="293" y="325.5986">8</text><text fill="#000000" font-family="sans-serif" font-size="13" lengthAdjust="spacing" textLength="99" x="304" y="325.5986">doesOtherThing()</text><ellipse cx="7.5" cy="379.4023" fill="none" rx="4" ry="4" style="stroke:#181818;stroke-width:1.5;"/><polygon fill="#181818" points="24.5,376.1523,14.5,380.1523,24.5,384.1523,20.5,380.1523" style="stroke:#181818;stroke-width:1.0;"/><line style="stroke:#181818;stroke-width:1.0;stroke-dasharray:2.0,2.0;" x1="22.5" x2="270" y1="380.1523" y2="380.1523"/><text fill="#000000" font-family="sans-serif" font-size="13" font-weight="bold" lengthAdjust="spacing" textLength="7" x="25" y="374.8896">9</text><text fill="#000000" font-family="sans-serif" font-size="13" lengthAdjust="spacing" textLength="14" x="36" y="374.8896">ok</text><polygon fill="#FFFFFF" points="703.5,390.1523,713.5,394.1523,703.5,398.1523,707.5,394.1523" style="stroke:#FFFFFF;stroke-width:1.0;"/><line style="stroke:#FFFFFF;stroke-width:1.0;" x1="281" x2="709.5" y1="394.1523" y2="394.1523"/><line style="stroke:#000000;stroke-width:1.0;stroke-dasharray:2.0,2.0;" x1="11" x2="780" y1="403.1523" y2="403.1523"/><ellipse cx="7.5" cy="451.6934" fill="none" rx="4" ry="4" style="stroke:#181818;stroke-width:1.5;"/><polygon fill="#181818" points="24.5,448.4434,14.5,452.4434,24.5,456.4434,20.5,452.4434" style="stroke:#181818;stroke-width:1.0;"/><line style="stroke:#181818;stroke-width:1.0;stroke-dasharray:2.0,2.0;" x1="22.5" x2="270" y1="452.4434" y2="452.4434"/><text fill="#000000" font-family="sans-serif" font-size="13" font-weight="bold" lengthAdjust="spacing" textLength="14" x="25" y="447.1807">10</text><text fill="#000000" font-family="sans-serif" font-size="13" lengthAdjust="spacing" textLength="226" x="43" y="447.1807">illegalStateException("Not Authorized")</text><!--SRC=[XPDDRjim48NtF0NXBkeiV04ZAM08NWWmua2AqOLR50mraGXJ784SrMdXmvVwioZ5HhcHGBxtzCs8uqxALCAAafTeK1OMI-1aQs3kUb89UH8vfFH70xSWIPXSXm9NY0pFokJyNMW7Z8cQqDJb6rZ6lXOg0_wEI6_umRo1b5ILCCGNwqrD1HY_8KYXYT2GHQt1BhXmF7fDTbFzfgfqhqt1EVzeXPkNbtIRfl7-EPhgHLNrkXzc_LzpF3NBsbhFDWOS7DZG6HsItkaBbgH-2u8E-eYhR-qRNtDfmUyl7nZtgztpPm6nb-H0oZZVLJdehd5XQUr9iqBtQlpIM6shpE1-ocUEkEE89aNVfublqSGXpRHzzudYAT7OL9-Xt0xp7BBOV5TK9AXXUKYtoQzalzlEqCAVCP05MM6RZ3lxUpa3clk5fbx9dxfvkAOEf5rSXk3s_XRRry8FGD-nALfp9NYmZlYuMWr-F5tFGfpGCquJTuJLZEJuvLmeWfzXxsvPBRYwxCg0PaW7oULoOJV9b9_4NEYKFD3sGqBLZCvoyOp4cxb5g_v2jdZu50GcQzh7sBoUVm00]--></g></svg>