<?xml version="1.0" encoding="us-ascii" standalone="no"?><svg xmlns="http://www.w3.org/2000/svg" xmlns:xlink="http://www.w3.org/1999/xlink" contentStyleType="text/css" height="1112px" preserveAspectRatio="none" style="width:2056px;height:1112px;background:#FFFFFF;" version="1.1" viewBox="0 0 2056 1112" width="2056px" zoomAndPan="magnify"><defs/><g><rect fill="#FFFFFF" height="931.2813" style="stroke:#181818;stroke-width:1.0;" width="10" x="45" y="91.2969"/><rect fill="#FFFFFF" height="361.7578" style="stroke:#181818;stroke-width:1.0;" width="10" x="373" y="112.4297"/><rect fill="#FFFFFF" height="277.1953" style="stroke:#181818;stroke-width:1.0;" width="10" x="373" y="503.3203"/><rect fill="#FFFFFF" height="203.9297" style="stroke:#181818;stroke-width:1.0;" width="10" x="373" y="809.6484"/><rect fill="#FFFFFF" height="262.1953" style="stroke:#181818;stroke-width:1.0;" width="10" x="653" y="182.8594"/><rect fill="#FFFFFF" height="218.9297" style="stroke:#181818;stroke-width:1.0;" width="10" x="653" y="532.4531"/><rect fill="#FFFFFF" height="145.6641" style="stroke:#181818;stroke-width:1.0;" width="10" x="653" y="838.7813"/><rect fill="#FFFFFF" height="29.1328" style="stroke:#181818;stroke-width:1.0;" width="10" x="1035" y="211.9922"/><rect fill="#FFFFFF" height="29.1328" style="stroke:#181818;stroke-width:1.0;" width="10" x="1189.5" y="270.2578"/><rect fill="#FFFFFF" height="29.1328" style="stroke:#181818;stroke-width:1.0;" width="10" x="1189.5" y="328.5234"/><rect fill="#FFFFFF" height="29.1328" style="stroke:#181818;stroke-width:1.0;" width="10" x="1459" y="386.7891"/><rect fill="#FFFFFF" height="29.1328" style="stroke:#181818;stroke-width:1.0;" width="10" x="1459" y="561.5859"/><rect fill="#FFFFFF" height="87.3984" style="stroke:#181818;stroke-width:1.0;" width="10" x="1459" y="867.9141"/><rect fill="#FFFFFF" height="29.1328" style="stroke:#181818;stroke-width:1.0;" width="10" x="1743.5" y="619.8516"/><rect fill="#FFFFFF" height="29.1328" style="stroke:#181818;stroke-width:1.0;" width="10" x="1954" y="897.0469"/><rect fill="none" height="59.2656" style="stroke:#000000;stroke-width:1.5;" width="475" x="565" y="663.9844"/><line style="stroke:#181818;stroke-width:0.5;stroke-dasharray:5.0,5.0;" x1="50" x2="50" y1="81.2969" y2="1031.5781"/><line style="stroke:#181818;stroke-width:0.5;stroke-dasharray:5.0,5.0;" x1="377.5" x2="377.5" y1="81.2969" y2="1031.5781"/><line style="stroke:#181818;stroke-width:0.5;stroke-dasharray:5.0,5.0;" x1="658" x2="658" y1="151.0781" y2="1031.5781"/><line style="stroke:#181818;stroke-width:0.5;stroke-dasharray:5.0,5.0;" x1="1039.5" x2="1039.5" y1="81.2969" y2="1031.5781"/><line style="stroke:#181818;stroke-width:0.5;stroke-dasharray:5.0,5.0;" x1="1194.5" x2="1194.5" y1="81.2969" y2="1031.5781"/><line style="stroke:#181818;stroke-width:0.5;stroke-dasharray:5.0,5.0;" x1="1463.5" x2="1463.5" y1="81.2969" y2="1031.5781"/><line style="stroke:#181818;stroke-width:0.5;stroke-dasharray:5.0,5.0;" x1="1748.5" x2="1748.5" y1="81.2969" y2="1031.5781"/><line style="stroke:#181818;stroke-width:0.5;stroke-dasharray:5.0,5.0;" x1="1958.5" x2="1958.5" y1="81.2969" y2="1031.5781"/><text fill="#000000" font-family="sans-serif" font-size="14" lengthAdjust="spacing" textLength="84" x="5" y="77.9951">HR Manager</text><ellipse cx="50" cy="13.5" fill="#E3E3E3" rx="8" ry="8" style="stroke:#181818;stroke-width:0.5;"/><path d="M50,21.5 L50,48.5 M37,29.5 L63,29.5 M50,48.5 L37,63.5 M50,48.5 L63,63.5 " fill="none" style="stroke:#181818;stroke-width:0.5;"/><text fill="#000000" font-family="sans-serif" font-size="14" lengthAdjust="spacing" textLength="84" x="5" y="1043.5732">HR Manager</text><ellipse cx="50" cy="1055.375" fill="#E3E3E3" rx="8" ry="8" style="stroke:#181818;stroke-width:0.5;"/><path d="M50,1063.375 L50,1090.375 M37,1071.375 L63,1071.375 M50,1090.375 L37,1105.375 M50,1090.375 L63,1105.375 " fill="none" style="stroke:#181818;stroke-width:0.5;"/><rect fill="#E3E3E3" height="30.2969" rx="2.5" ry="2.5" style="stroke:#181818;stroke-width:0.5;" width="107" x="324.5" y="50"/><text fill="#000000" font-family="sans-serif" font-size="14" lengthAdjust="spacing" textLength="93" x="331.5" y="69.9951">AssignSkillsUI</text><rect fill="#E3E3E3" height="30.2969" rx="2.5" ry="2.5" style="stroke:#181818;stroke-width:0.5;" width="107" x="324.5" y="1030.5781"/><text fill="#000000" font-family="sans-serif" font-size="14" lengthAdjust="spacing" textLength="93" x="331.5" y="1050.5732">AssignSkillsUI</text><rect fill="#E3E3E3" height="30.2969" rx="2.5" ry="2.5" style="stroke:#181818;stroke-width:0.5;" width="166" x="575" y="1030.5781"/><text fill="#000000" font-family="sans-serif" font-size="14" lengthAdjust="spacing" textLength="152" x="582" y="1050.5732">:AssignSkillsController</text><rect fill="#E3E3E3" height="30.2969" rx="2.5" ry="2.5" style="stroke:#181818;stroke-width:0.5;" width="101" x="989.5" y="50"/><text fill="#000000" font-family="sans-serif" font-size="14" lengthAdjust="spacing" textLength="87" x="996.5" y="69.9951">Repositories</text><rect fill="#E3E3E3" height="30.2969" rx="2.5" ry="2.5" style="stroke:#181818;stroke-width:0.5;" width="101" x="989.5" y="1030.5781"/><text fill="#000000" font-family="sans-serif" font-size="14" lengthAdjust="spacing" textLength="87" x="996.5" y="1050.5732">Repositories</text><rect fill="#E3E3E3" height="30.2969" rx="2.5" ry="2.5" style="stroke:#181818;stroke-width:0.5;" width="188" x="1100.5" y="50"/><text fill="#000000" font-family="sans-serif" font-size="14" lengthAdjust="spacing" textLength="174" x="1107.5" y="69.9951">repositories:Repositories</text><rect fill="#E3E3E3" height="30.2969" rx="2.5" ry="2.5" style="stroke:#181818;stroke-width:0.5;" width="188" x="1100.5" y="1030.5781"/><text fill="#000000" font-family="sans-serif" font-size="14" lengthAdjust="spacing" textLength="174" x="1107.5" y="1050.5732">repositories:Repositories</text><rect fill="#E3E3E3" height="30.2969" rx="2.5" ry="2.5" style="stroke:#181818;stroke-width:0.5;" width="331" x="1298.5" y="50"/><text fill="#000000" font-family="sans-serif" font-size="14" lengthAdjust="spacing" textLength="317" x="1305.5" y="69.9951">collaboratorRepository:CollaboratorRepository</text><rect fill="#E3E3E3" height="30.2969" rx="2.5" ry="2.5" style="stroke:#181818;stroke-width:0.5;" width="331" x="1298.5" y="1030.5781"/><text fill="#000000" font-family="sans-serif" font-size="14" lengthAdjust="spacing" textLength="317" x="1305.5" y="1050.5732">collaboratorRepository:CollaboratorRepository</text><rect fill="#E3E3E3" height="30.2969" rx="2.5" ry="2.5" style="stroke:#181818;stroke-width:0.5;" width="218" x="1639.5" y="50"/><text fill="#000000" font-family="sans-serif" font-size="14" lengthAdjust="spacing" textLength="204" x="1646.5" y="69.9951">skillRepository:SkillRepository</text><rect fill="#E3E3E3" height="30.2969" rx="2.5" ry="2.5" style="stroke:#181818;stroke-width:0.5;" width="218" x="1639.5" y="1030.5781"/><text fill="#000000" font-family="sans-serif" font-size="14" lengthAdjust="spacing" textLength="204" x="1646.5" y="1050.5732">skillRepository:SkillRepository</text><rect fill="#E3E3E3" height="30.2969" rx="2.5" ry="2.5" style="stroke:#181818;stroke-width:0.5;" width="183" x="1867.5" y="50"/><text fill="#000000" font-family="sans-serif" font-size="14" lengthAdjust="spacing" textLength="169" x="1874.5" y="69.9951">collaborator:Collaborator</text><rect fill="#E3E3E3" height="30.2969" rx="2.5" ry="2.5" style="stroke:#181818;stroke-width:0.5;" width="183" x="1867.5" y="1030.5781"/><text fill="#000000" font-family="sans-serif" font-size="14" lengthAdjust="spacing" textLength="169" x="1874.5" y="1050.5732">collaborator:Collaborator</text><rect fill="#FFFFFF" height="931.2813" style="stroke:#181818;stroke-width:1.0;" width="10" x="45" y="91.2969"/><rect fill="#FFFFFF" height="361.7578" style="stroke:#181818;stroke-width:1.0;" width="10" x="373" y="112.4297"/><rect fill="#FFFFFF" height="277.1953" style="stroke:#181818;stroke-width:1.0;" width="10" x="373" y="503.3203"/><rect fill="#FFFFFF" height="203.9297" style="stroke:#181818;stroke-width:1.0;" width="10" x="373" y="809.6484"/><rect fill="#FFFFFF" height="262.1953" style="stroke:#181818;stroke-width:1.0;" width="10" x="653" y="182.8594"/><rect fill="#FFFFFF" height="218.9297" style="stroke:#181818;stroke-width:1.0;" width="10" x="653" y="532.4531"/><rect fill="#FFFFFF" height="145.6641" style="stroke:#181818;stroke-width:1.0;" width="10" x="653" y="838.7813"/><rect fill="#FFFFFF" height="29.1328" style="stroke:#181818;stroke-width:1.0;" width="10" x="1035" y="211.9922"/><rect fill="#FFFFFF" height="29.1328" style="stroke:#181818;stroke-width:1.0;" width="10" x="1189.5" y="270.2578"/><rect fill="#FFFFFF" height="29.1328" style="stroke:#181818;stroke-width:1.0;" width="10" x="1189.5" y="328.5234"/><rect fill="#FFFFFF" height="29.1328" style="stroke:#181818;stroke-width:1.0;" width="10" x="1459" y="386.7891"/><rect fill="#FFFFFF" height="29.1328" style="stroke:#181818;stroke-width:1.0;" width="10" x="1459" y="561.5859"/><rect fill="#FFFFFF" height="87.3984" style="stroke:#181818;stroke-width:1.0;" width="10" x="1459" y="867.9141"/><rect fill="#FFFFFF" height="29.1328" style="stroke:#181818;stroke-width:1.0;" width="10" x="1743.5" y="619.8516"/><rect fill="#FFFFFF" height="29.1328" style="stroke:#181818;stroke-width:1.0;" width="10" x="1954" y="897.0469"/><polygon fill="#181818" points="361,108.4297,371,112.4297,361,116.4297,365,112.4297" style="stroke:#181818;stroke-width:1.0;"/><line style="stroke:#181818;stroke-width:1.0;" x1="55" x2="367" y1="112.4297" y2="112.4297"/><text fill="#000000" font-family="sans-serif" font-size="13" font-weight="bold" lengthAdjust="spacing" textLength="9" x="62" y="107.3638">1</text><text fill="#000000" font-family="sans-serif" font-size="13" lengthAdjust="spacing" textLength="286" x="75" y="107.3638">Asks to assign skills to a specific collaborator</text><polygon fill="#181818" points="563,137.5625,573,141.5625,563,145.5625,567,141.5625" style="stroke:#181818;stroke-width:1.0;"/><line style="stroke:#181818;stroke-width:1.0;" x1="383" x2="569" y1="141.5625" y2="141.5625"/><text fill="#000000" font-family="sans-serif" font-size="13" font-weight="bold" lengthAdjust="spacing" textLength="9" x="390" y="136.4966">2</text><text fill="#000000" font-family="sans-serif" font-size="13" lengthAdjust="spacing" textLength="41" x="403" y="136.4966">create</text><rect fill="#E3E3E3" height="30.2969" rx="2.5" ry="2.5" style="stroke:#181818;stroke-width:0.5;" width="166" x="575" y="120.4297"/><text fill="#000000" font-family="sans-serif" font-size="14" lengthAdjust="spacing" textLength="152" x="582" y="140.4248">:AssignSkillsController</text><polygon fill="#181818" points="641,178.8594,651,182.8594,641,186.8594,645,182.8594" style="stroke:#181818;stroke-width:1.0;"/><line style="stroke:#181818;stroke-width:1.0;" x1="383" x2="647" y1="182.8594" y2="182.8594"/><text fill="#000000" font-family="sans-serif" font-size="13" font-weight="bold" lengthAdjust="spacing" textLength="9" x="390" y="177.7935">3</text><text fill="#000000" font-family="sans-serif" font-size="13" lengthAdjust="spacing" textLength="201" x="403" y="177.7935">getDataNeededToAssignSkills()</text><polygon fill="#181818" points="1023,207.9922,1033,211.9922,1023,215.9922,1027,211.9922" style="stroke:#181818;stroke-width:1.0;"/><line style="stroke:#181818;stroke-width:1.0;" x1="663" x2="1029" y1="211.9922" y2="211.9922"/><text fill="#000000" font-family="sans-serif" font-size="13" font-weight="bold" lengthAdjust="spacing" textLength="9" x="670" y="206.9263">4</text><text fill="#000000" font-family="sans-serif" font-size="13" lengthAdjust="spacing" textLength="85" x="683" y="206.9263">getInstance()</text><polygon fill="#181818" points="674,237.125,664,241.125,674,245.125,670,241.125" style="stroke:#181818;stroke-width:1.0;"/><line style="stroke:#181818;stroke-width:1.0;stroke-dasharray:2.0,2.0;" x1="668" x2="1039" y1="241.125" y2="241.125"/><text fill="#000000" font-family="sans-serif" font-size="13" font-weight="bold" lengthAdjust="spacing" textLength="9" x="680" y="236.0591">5</text><text fill="#000000" font-family="sans-serif" font-size="13" lengthAdjust="spacing" textLength="75" x="693" y="236.0591">repositories</text><polygon fill="#181818" points="1177.5,266.2578,1187.5,270.2578,1177.5,274.2578,1181.5,270.2578" style="stroke:#181818;stroke-width:1.0;"/><line style="stroke:#181818;stroke-width:1.0;" x1="663" x2="1183.5" y1="270.2578" y2="270.2578"/><text fill="#000000" font-family="sans-serif" font-size="13" font-weight="bold" lengthAdjust="spacing" textLength="9" x="670" y="265.1919">6</text><text fill="#000000" font-family="sans-serif" font-size="13" lengthAdjust="spacing" textLength="123" x="683" y="265.1919">getSkillRepository()</text><polygon fill="#181818" points="674,295.3906,664,299.3906,674,303.3906,670,299.3906" style="stroke:#181818;stroke-width:1.0;"/><line style="stroke:#181818;stroke-width:1.0;stroke-dasharray:2.0,2.0;" x1="668" x2="1193.5" y1="299.3906" y2="299.3906"/><text fill="#000000" font-family="sans-serif" font-size="13" font-weight="bold" lengthAdjust="spacing" textLength="9" x="680" y="294.3247">7</text><text fill="#000000" font-family="sans-serif" font-size="13" lengthAdjust="spacing" textLength="90" x="693" y="294.3247">skillRepository</text><polygon fill="#181818" points="1177.5,324.5234,1187.5,328.5234,1177.5,332.5234,1181.5,328.5234" style="stroke:#181818;stroke-width:1.0;"/><line style="stroke:#181818;stroke-width:1.0;" x1="663" x2="1183.5" y1="328.5234" y2="328.5234"/><text fill="#000000" font-family="sans-serif" font-size="13" font-weight="bold" lengthAdjust="spacing" textLength="9" x="670" y="323.4575">8</text><text fill="#000000" font-family="sans-serif" font-size="13" lengthAdjust="spacing" textLength="176" x="683" y="323.4575">getCollaboratorRepository()</text><polygon fill="#181818" points="674,353.6563,664,357.6563,674,361.6563,670,357.6563" style="stroke:#181818;stroke-width:1.0;"/><line style="stroke:#181818;stroke-width:1.0;stroke-dasharray:2.0,2.0;" x1="668" x2="1193.5" y1="357.6563" y2="357.6563"/><text fill="#000000" font-family="sans-serif" font-size="13" font-weight="bold" lengthAdjust="spacing" textLength="9" x="680" y="352.5903">9</text><text fill="#000000" font-family="sans-serif" font-size="13" lengthAdjust="spacing" textLength="143" x="693" y="352.5903">collaboratorRepository</text><polygon fill="#181818" points="1447,382.7891,1457,386.7891,1447,390.7891,1451,386.7891" style="stroke:#181818;stroke-width:1.0;"/><line style="stroke:#181818;stroke-width:1.0;" x1="663" x2="1453" y1="386.7891" y2="386.7891"/><text fill="#000000" font-family="sans-serif" font-size="13" font-weight="bold" lengthAdjust="spacing" textLength="18" x="670" y="381.7231">10</text><text fill="#000000" font-family="sans-serif" font-size="13" lengthAdjust="spacing" textLength="131" x="692" y="381.7231">getCollaboratorList()</text><polygon fill="#181818" points="674,411.9219,664,415.9219,674,419.9219,670,415.9219" style="stroke:#181818;stroke-width:1.0;"/><line style="stroke:#181818;stroke-width:1.0;stroke-dasharray:2.0,2.0;" x1="668" x2="1463" y1="415.9219" y2="415.9219"/><text fill="#000000" font-family="sans-serif" font-size="13" font-weight="bold" lengthAdjust="spacing" textLength="18" x="680" y="410.856">11</text><text fill="#000000" font-family="sans-serif" font-size="13" lengthAdjust="spacing" textLength="98" x="702" y="410.856">collaboratorList</text><polygon fill="#181818" points="394,441.0547,384,445.0547,394,449.0547,390,445.0547" style="stroke:#181818;stroke-width:1.0;"/><line style="stroke:#181818;stroke-width:1.0;stroke-dasharray:2.0,2.0;" x1="388" x2="657" y1="445.0547" y2="445.0547"/><text fill="#000000" font-family="sans-serif" font-size="13" font-weight="bold" lengthAdjust="spacing" textLength="18" x="400" y="439.9888">12</text><text fill="#000000" font-family="sans-serif" font-size="13" lengthAdjust="spacing" textLength="98" x="422" y="439.9888">collaboratorList</text><polygon fill="#181818" points="66,470.1875,56,474.1875,66,478.1875,62,474.1875" style="stroke:#181818;stroke-width:1.0;"/><line style="stroke:#181818;stroke-width:1.0;stroke-dasharray:2.0,2.0;" x1="60" x2="377" y1="474.1875" y2="474.1875"/><text fill="#000000" font-family="sans-serif" font-size="13" font-weight="bold" lengthAdjust="spacing" textLength="18" x="72" y="469.1216">13</text><text fill="#000000" font-family="sans-serif" font-size="13" lengthAdjust="spacing" textLength="157" x="94" y="469.1216">Displays Collaborator list</text><polygon fill="#181818" points="361,499.3203,371,503.3203,361,507.3203,365,503.3203" style="stroke:#181818;stroke-width:1.0;"/><line style="stroke:#181818;stroke-width:1.0;" x1="55" x2="367" y1="503.3203" y2="503.3203"/><text fill="#000000" font-family="sans-serif" font-size="13" font-weight="bold" lengthAdjust="spacing" textLength="18" x="62" y="498.2544">14</text><text fill="#000000" font-family="sans-serif" font-size="13" lengthAdjust="spacing" textLength="129" x="84" y="498.2544">Selects Collaborator</text><polygon fill="#181818" points="641,528.4531,651,532.4531,641,536.4531,645,532.4531" style="stroke:#181818;stroke-width:1.0;"/><line style="stroke:#181818;stroke-width:1.0;" x1="383" x2="647" y1="532.4531" y2="532.4531"/><text fill="#000000" font-family="sans-serif" font-size="13" font-weight="bold" lengthAdjust="spacing" textLength="18" x="390" y="527.3872">15</text><text fill="#000000" font-family="sans-serif" font-size="13" lengthAdjust="spacing" textLength="218" x="412" y="527.3872">getAvailableSkillsList(collaborator)</text><polygon fill="#181818" points="1447,557.5859,1457,561.5859,1447,565.5859,1451,561.5859" style="stroke:#181818;stroke-width:1.0;"/><line style="stroke:#181818;stroke-width:1.0;" x1="663" x2="1453" y1="561.5859" y2="561.5859"/><text fill="#000000" font-family="sans-serif" font-size="13" font-weight="bold" lengthAdjust="spacing" textLength="18" x="670" y="556.52">16</text><text fill="#000000" font-family="sans-serif" font-size="13" lengthAdjust="spacing" textLength="239" x="692" y="556.52">getCollaboratorSkillsList(collaborator)</text><polygon fill="#181818" points="674,586.7188,664,590.7188,674,594.7188,670,590.7188" style="stroke:#181818;stroke-width:1.0;"/><line style="stroke:#181818;stroke-width:1.0;stroke-dasharray:2.0,2.0;" x1="668" x2="1463" y1="590.7188" y2="590.7188"/><text fill="#000000" font-family="sans-serif" font-size="13" font-weight="bold" lengthAdjust="spacing" textLength="18" x="680" y="585.6528">17</text><text fill="#000000" font-family="sans-serif" font-size="13" lengthAdjust="spacing" textLength="132" x="702" y="585.6528">CollaboratorSkillsList</text><polygon fill="#181818" points="1731.5,615.8516,1741.5,619.8516,1731.5,623.8516,1735.5,619.8516" style="stroke:#181818;stroke-width:1.0;"/><line style="stroke:#181818;stroke-width:1.0;" x1="663" x2="1737.5" y1="619.8516" y2="619.8516"/><text fill="#000000" font-family="sans-serif" font-size="13" font-weight="bold" lengthAdjust="spacing" textLength="18" x="670" y="614.7856">18</text><text fill="#000000" font-family="sans-serif" font-size="13" lengthAdjust="spacing" textLength="78" x="692" y="614.7856">getAllSkills()</text><polygon fill="#181818" points="674,644.9844,664,648.9844,674,652.9844,670,648.9844" style="stroke:#181818;stroke-width:1.0;"/><line style="stroke:#181818;stroke-width:1.0;stroke-dasharray:2.0,2.0;" x1="668" x2="1747.5" y1="648.9844" y2="648.9844"/><text fill="#000000" font-family="sans-serif" font-size="13" font-weight="bold" lengthAdjust="spacing" textLength="18" x="680" y="643.9185">19</text><text fill="#000000" font-family="sans-serif" font-size="13" lengthAdjust="spacing" textLength="68" x="702" y="643.9185">allSkillsList</text><path d="M565,663.9844 L642,663.9844 L642,671.1172 L632,681.1172 L565,681.1172 L565,663.9844 " fill="#EEEEEE" style="stroke:#000000;stroke-width:1.5;"/><rect fill="none" height="59.2656" style="stroke:#000000;stroke-width:1.5;" width="475" x="565" y="663.9844"/><text fill="#000000" font-family="sans-serif" font-size="13" font-weight="bold" lengthAdjust="spacing" textLength="32" x="580" y="677.0513">loop</text><text fill="#000000" font-family="sans-serif" font-size="11" font-weight="bold" lengthAdjust="spacing" textLength="292" x="657" y="676.1948">[over each Skill not assigned to Collaborator]</text><line style="stroke:#181818;stroke-width:1.0;" x1="663" x2="705" y1="702.25" y2="702.25"/><line style="stroke:#181818;stroke-width:1.0;" x1="705" x2="705" y1="702.25" y2="715.25"/><line style="stroke:#181818;stroke-width:1.0;" x1="664" x2="705" y1="715.25" y2="715.25"/><polygon fill="#181818" points="674,711.25,664,715.25,674,719.25,670,715.25" style="stroke:#181818;stroke-width:1.0;"/><text fill="#000000" font-family="sans-serif" font-size="13" font-weight="bold" lengthAdjust="spacing" textLength="18" x="670" y="697.1841">20</text><text fill="#000000" font-family="sans-serif" font-size="13" lengthAdjust="spacing" textLength="336" x="692" y="697.1841">filterAssignedSkills(CollaboratorSkillsList, allSkillsList)</text><polygon fill="#181818" points="394,747.3828,384,751.3828,394,755.3828,390,751.3828" style="stroke:#181818;stroke-width:1.0;"/><line style="stroke:#181818;stroke-width:1.0;stroke-dasharray:2.0,2.0;" x1="388" x2="657" y1="751.3828" y2="751.3828"/><text fill="#000000" font-family="sans-serif" font-size="13" font-weight="bold" lengthAdjust="spacing" textLength="18" x="400" y="746.3169">21</text><text fill="#000000" font-family="sans-serif" font-size="13" lengthAdjust="spacing" textLength="110" x="422" y="746.3169">availableSkillsList</text><polygon fill="#181818" points="66,776.5156,56,780.5156,66,784.5156,62,780.5156" style="stroke:#181818;stroke-width:1.0;"/><line style="stroke:#181818;stroke-width:1.0;stroke-dasharray:2.0,2.0;" x1="60" x2="377" y1="780.5156" y2="780.5156"/><text fill="#000000" font-family="sans-serif" font-size="13" font-weight="bold" lengthAdjust="spacing" textLength="18" x="72" y="775.4497">22</text><text fill="#000000" font-family="sans-serif" font-size="13" lengthAdjust="spacing" textLength="213" x="94" y="775.4497">Displays Available Skills to Assign</text><polygon fill="#181818" points="361,805.6484,371,809.6484,361,813.6484,365,809.6484" style="stroke:#181818;stroke-width:1.0;"/><line style="stroke:#181818;stroke-width:1.0;" x1="55" x2="367" y1="809.6484" y2="809.6484"/><text fill="#000000" font-family="sans-serif" font-size="13" font-weight="bold" lengthAdjust="spacing" textLength="18" x="62" y="804.5825">23</text><text fill="#000000" font-family="sans-serif" font-size="13" lengthAdjust="spacing" textLength="161" x="84" y="804.5825">Selects Skill and Submits</text><polygon fill="#181818" points="641,834.7813,651,838.7813,641,842.7813,645,838.7813" style="stroke:#181818;stroke-width:1.0;"/><line style="stroke:#181818;stroke-width:1.0;" x1="383" x2="647" y1="838.7813" y2="838.7813"/><text fill="#000000" font-family="sans-serif" font-size="13" font-weight="bold" lengthAdjust="spacing" textLength="18" x="390" y="833.7153">24</text><text fill="#000000" font-family="sans-serif" font-size="13" lengthAdjust="spacing" textLength="229" x="412" y="833.7153">assignSkills(collaborator, skillName)</text><polygon fill="#181818" points="1447,863.9141,1457,867.9141,1447,871.9141,1451,867.9141" style="stroke:#181818;stroke-width:1.0;"/><line style="stroke:#181818;stroke-width:1.0;" x1="663" x2="1453" y1="867.9141" y2="867.9141"/><text fill="#000000" font-family="sans-serif" font-size="13" font-weight="bold" lengthAdjust="spacing" textLength="18" x="670" y="862.8481">25</text><text fill="#000000" font-family="sans-serif" font-size="13" lengthAdjust="spacing" textLength="315" x="692" y="862.8481">assignSkillToCollaborator(collaborator, skillName)</text><polygon fill="#181818" points="1942,893.0469,1952,897.0469,1942,901.0469,1946,897.0469" style="stroke:#181818;stroke-width:1.0;"/><line style="stroke:#181818;stroke-width:1.0;" x1="1469" x2="1948" y1="897.0469" y2="897.0469"/><text fill="#000000" font-family="sans-serif" font-size="13" font-weight="bold" lengthAdjust="spacing" textLength="18" x="1476" y="891.981">26</text><text fill="#000000" font-family="sans-serif" font-size="13" lengthAdjust="spacing" textLength="138" x="1498" y="891.981">assignSkill(skillName)</text><polygon fill="#181818" points="1480,922.1797,1470,926.1797,1480,930.1797,1476,926.1797" style="stroke:#181818;stroke-width:1.0;"/><line style="stroke:#181818;stroke-width:1.0;stroke-dasharray:2.0,2.0;" x1="1474" x2="1958" y1="926.1797" y2="926.1797"/><text fill="#000000" font-family="sans-serif" font-size="13" font-weight="bold" lengthAdjust="spacing" textLength="18" x="1486" y="921.1138">27</text><text fill="#000000" font-family="sans-serif" font-size="13" lengthAdjust="spacing" textLength="26" x="1508" y="921.1138">true</text><polygon fill="#181818" points="674,951.3125,664,955.3125,674,959.3125,670,955.3125" style="stroke:#181818;stroke-width:1.0;"/><line style="stroke:#181818;stroke-width:1.0;stroke-dasharray:2.0,2.0;" x1="668" x2="1463" y1="955.3125" y2="955.3125"/><text fill="#000000" font-family="sans-serif" font-size="13" font-weight="bold" lengthAdjust="spacing" textLength="18" x="680" y="950.2466">28</text><text fill="#000000" font-family="sans-serif" font-size="13" lengthAdjust="spacing" textLength="26" x="702" y="950.2466">true</text><polygon fill="#181818" points="394,980.4453,384,984.4453,394,988.4453,390,984.4453" style="stroke:#181818;stroke-width:1.0;"/><line style="stroke:#181818;stroke-width:1.0;stroke-dasharray:2.0,2.0;" x1="388" x2="657" y1="984.4453" y2="984.4453"/><text fill="#000000" font-family="sans-serif" font-size="13" font-weight="bold" lengthAdjust="spacing" textLength="18" x="400" y="979.3794">29</text><text fill="#000000" font-family="sans-serif" font-size="13" lengthAdjust="spacing" textLength="26" x="422" y="979.3794">true</text><polygon fill="#181818" points="66,1009.5781,56,1013.5781,66,1017.5781,62,1013.5781" style="stroke:#181818;stroke-width:1.0;"/><line style="stroke:#181818;stroke-width:1.0;stroke-dasharray:2.0,2.0;" x1="60" x2="377" y1="1013.5781" y2="1013.5781"/><text fill="#000000" font-family="sans-serif" font-size="13" font-weight="bold" lengthAdjust="spacing" textLength="18" x="72" y="1008.5122">30</text><text fill="#000000" font-family="sans-serif" font-size="13" lengthAdjust="spacing" textLength="238" x="94" y="1008.5122">Displays Operation Success Message</text><!--SRC=[dLRRRk8m47ttLrXzQglo0pmWeNQb8csx4hGVO9m1B1mxiWqh_dudTaZ6IRXqUK34ddFcPERCj7wlJ2MSA7bfZPKxPqlWmHs0-VQc4d8ljh0A9mtSWGp2R3KDy3jHsB_ARFb6Q0-CYKEmvb2kmU5l6QpZ3-zB_Y4CqhW7BZn_NpPF32c2ageI9l27kVTgQrPxfRN_NiJ8xqKUCgKnhzO4PxLkMBj7beEMK5clK8W27oFZGHxZICnq08Yt8oY9wSJQEe6nBUWqVHqzZao_oge-oMby_Je4lygV8x0zOvSbP8cRcdG7iHlgA0AG1h3s9v_CiDnyokT-xtcm2AzBpQEuTC1z1L9jbEGqQqUBtM98WKHTBvwVaL8wmFlX9Lvj8Ro983u12YY-BEtlurD7JPjByCWMwvI85iQZFILGOEeQIr6JVdRQTbP07vLdwboGqlNQHBCImp026-JlTPvAe1JNTOpRxN_aZFlvFbMDiuUIVYiVg9Zp2B0puggC6aq5j6YQ_MpTQq3ge6X417Ncd_8tvIijJldCSDrZgIq-79aLQDoClN6xEXQfJFEZK0ZGa0mVAqNVuQu1k5ZuswItMp7ETxCXisvVDM-gzN2eoKxhmWSIn1dQpqpWsjgAsoF6u_KktN1ZGxF4eAZtLzOTZfzSSPPqetG0Ds_GZVJnOhpa2fyOc6BSdcBOxaiElMRGrZNfFUDkJahlTsgga305NntMfGh-fbq5tSpKJozfYtsA4dxeLqBvPMbnx-1lRTTvTvQFRiR_EAwH_dNCm9DCQFoVAEiK1LwUdZxkwl8Q9hdF3dygG27A6cobbE0z_y0lZEgxuHy0]--></g></svg>