<?xml version="1.0" encoding="us-ascii" standalone="no"?><svg xmlns="http://www.w3.org/2000/svg" xmlns:xlink="http://www.w3.org/1999/xlink" contentStyleType="text/css" height="705px" preserveAspectRatio="none" style="width:795px;height:705px;background:#FFFFFF;" version="1.1" viewBox="0 0 795 705" width="795px" zoomAndPan="magnify"><defs/><g><rect fill="#FFFFFF" height="524.1953" style="stroke:#181818;stroke-width:1.0;" width="10" x="45" y="91.2969"/><rect fill="#FFFFFF" height="172.7969" style="stroke:#181818;stroke-width:1.0;" width="10" x="379" y="112.4297"/><rect fill="#FFFFFF" height="131.5" style="stroke:#181818;stroke-width:1.0;" width="10" x="379" y="314.3594"/><rect fill="#FFFFFF" height="131.5" style="stroke:#181818;stroke-width:1.0;" width="10" x="379" y="474.9922"/><rect fill="#FFFFFF" height="73.2344" style="stroke:#181818;stroke-width:1.0;" width="10" x="659" y="182.8594"/><rect fill="#FFFFFF" height="73.2344" style="stroke:#181818;stroke-width:1.0;" width="10" x="659" y="343.4922"/><rect fill="#FFFFFF" height="73.2344" style="stroke:#181818;stroke-width:1.0;" width="10" x="659" y="504.125"/><line style="stroke:#181818;stroke-width:0.5;stroke-dasharray:5.0,5.0;" x1="50" x2="50" y1="81.2969" y2="624.4922"/><line style="stroke:#181818;stroke-width:0.5;stroke-dasharray:5.0,5.0;" x1="383.5" x2="383.5" y1="81.2969" y2="624.4922"/><line style="stroke:#181818;stroke-width:0.5;stroke-dasharray:5.0,5.0;" x1="664" x2="664" y1="151.0781" y2="624.4922"/><text fill="#000000" font-family="sans-serif" font-size="14" lengthAdjust="spacing" textLength="84" x="5" y="77.9951">HR Manager</text><ellipse cx="50" cy="13.5" fill="#E3E3E3" rx="8" ry="8" style="stroke:#181818;stroke-width:0.5;"/><path d="M50,21.5 L50,48.5 M37,29.5 L63,29.5 M50,48.5 L37,63.5 M50,48.5 L63,63.5 " fill="none" style="stroke:#181818;stroke-width:0.5;"/><text fill="#000000" font-family="sans-serif" font-size="14" lengthAdjust="spacing" textLength="84" x="5" y="636.4873">HR Manager</text><ellipse cx="50" cy="648.2891" fill="#E3E3E3" rx="8" ry="8" style="stroke:#181818;stroke-width:0.5;"/><path d="M50,656.2891 L50,683.2891 M37,664.2891 L63,664.2891 M50,683.2891 L37,698.2891 M50,683.2891 L63,698.2891 " fill="none" style="stroke:#181818;stroke-width:0.5;"/><rect fill="#E3E3E3" height="30.2969" rx="2.5" ry="2.5" style="stroke:#181818;stroke-width:0.5;" width="107" x="330.5" y="50"/><text fill="#000000" font-family="sans-serif" font-size="14" lengthAdjust="spacing" textLength="93" x="337.5" y="69.9951">AssignSkillsUI</text><rect fill="#E3E3E3" height="30.2969" rx="2.5" ry="2.5" style="stroke:#181818;stroke-width:0.5;" width="107" x="330.5" y="623.4922"/><text fill="#000000" font-family="sans-serif" font-size="14" lengthAdjust="spacing" textLength="93" x="337.5" y="643.4873">AssignSkillsUI</text><rect fill="#E3E3E3" height="30.2969" rx="2.5" ry="2.5" style="stroke:#181818;stroke-width:0.5;" width="166" x="581" y="623.4922"/><text fill="#000000" font-family="sans-serif" font-size="14" lengthAdjust="spacing" textLength="152" x="588" y="643.4873">:AssignSkillsController</text><rect fill="#FFFFFF" height="524.1953" style="stroke:#181818;stroke-width:1.0;" width="10" x="45" y="91.2969"/><rect fill="#FFFFFF" height="172.7969" style="stroke:#181818;stroke-width:1.0;" width="10" x="379" y="112.4297"/><rect fill="#FFFFFF" height="131.5" style="stroke:#181818;stroke-width:1.0;" width="10" x="379" y="314.3594"/><rect fill="#FFFFFF" height="131.5" style="stroke:#181818;stroke-width:1.0;" width="10" x="379" y="474.9922"/><rect fill="#FFFFFF" height="73.2344" style="stroke:#181818;stroke-width:1.0;" width="10" x="659" y="182.8594"/><rect fill="#FFFFFF" height="73.2344" style="stroke:#181818;stroke-width:1.0;" width="10" x="659" y="343.4922"/><rect fill="#FFFFFF" height="73.2344" style="stroke:#181818;stroke-width:1.0;" width="10" x="659" y="504.125"/><polygon fill="#181818" points="367,108.4297,377,112.4297,367,116.4297,371,112.4297" style="stroke:#181818;stroke-width:1.0;"/><line style="stroke:#181818;stroke-width:1.0;" x1="55" x2="373" y1="112.4297" y2="112.4297"/><text fill="#000000" font-family="sans-serif" font-size="13" font-weight="bold" lengthAdjust="spacing" textLength="9" x="62" y="107.3638">1</text><text fill="#000000" font-family="sans-serif" font-size="13" lengthAdjust="spacing" textLength="286" x="75" y="107.3638">Asks to assign skills to a specific collaborator</text><polygon fill="#181818" points="569,137.5625,579,141.5625,569,145.5625,573,141.5625" style="stroke:#181818;stroke-width:1.0;"/><line style="stroke:#181818;stroke-width:1.0;" x1="389" x2="575" y1="141.5625" y2="141.5625"/><text fill="#000000" font-family="sans-serif" font-size="13" font-weight="bold" lengthAdjust="spacing" textLength="9" x="396" y="136.4966">2</text><text fill="#000000" font-family="sans-serif" font-size="13" lengthAdjust="spacing" textLength="41" x="409" y="136.4966">create</text><rect fill="#E3E3E3" height="30.2969" rx="2.5" ry="2.5" style="stroke:#181818;stroke-width:0.5;" width="166" x="581" y="120.4297"/><text fill="#000000" font-family="sans-serif" font-size="14" lengthAdjust="spacing" textLength="152" x="588" y="140.4248">:AssignSkillsController</text><polygon fill="#181818" points="647,178.8594,657,182.8594,647,186.8594,651,182.8594" style="stroke:#181818;stroke-width:1.0;"/><line style="stroke:#181818;stroke-width:1.0;" x1="389" x2="653" y1="182.8594" y2="182.8594"/><text fill="#000000" font-family="sans-serif" font-size="13" font-weight="bold" lengthAdjust="spacing" textLength="9" x="396" y="177.7935">3</text><text fill="#000000" font-family="sans-serif" font-size="13" lengthAdjust="spacing" textLength="201" x="409" y="177.7935">getDataNeededToAssignSkills()</text><rect fill="none" height="39.1016" style="stroke:#000000;stroke-width:1.5;" width="172" x="578" y="190.8594"/><path d="M578,190.8594 L644,190.8594 L644,197.8594 L634,207.8594 L578,207.8594 L578,190.8594 " fill="#EEEEEE" style="stroke:#000000;stroke-width:2.0;"/><text fill="#000000" font-family="sans-serif" font-size="13" font-weight="bold" lengthAdjust="spacing" textLength="21" x="591" y="204.9263">ref</text><text fill="#000000" font-family="sans-serif" font-size="12" lengthAdjust="spacing" textLength="128" x="600" y="222.998">Get Collaborator List</text><polygon fill="#181818" points="400,252.0938,390,256.0938,400,260.0938,396,256.0938" style="stroke:#181818;stroke-width:1.0;"/><line style="stroke:#181818;stroke-width:1.0;stroke-dasharray:2.0,2.0;" x1="394" x2="663" y1="256.0938" y2="256.0938"/><text fill="#000000" font-family="sans-serif" font-size="13" font-weight="bold" lengthAdjust="spacing" textLength="9" x="406" y="251.0278">4</text><text fill="#000000" font-family="sans-serif" font-size="13" lengthAdjust="spacing" textLength="98" x="419" y="251.0278">collaboratorList</text><polygon fill="#181818" points="66,281.2266,56,285.2266,66,289.2266,62,285.2266" style="stroke:#181818;stroke-width:1.0;"/><line style="stroke:#181818;stroke-width:1.0;stroke-dasharray:2.0,2.0;" x1="60" x2="383" y1="285.2266" y2="285.2266"/><text fill="#000000" font-family="sans-serif" font-size="13" font-weight="bold" lengthAdjust="spacing" textLength="9" x="72" y="280.1606">5</text><text fill="#000000" font-family="sans-serif" font-size="13" lengthAdjust="spacing" textLength="157" x="85" y="280.1606">Displays Collaborator list</text><polygon fill="#181818" points="367,310.3594,377,314.3594,367,318.3594,371,314.3594" style="stroke:#181818;stroke-width:1.0;"/><line style="stroke:#181818;stroke-width:1.0;" x1="55" x2="373" y1="314.3594" y2="314.3594"/><text fill="#000000" font-family="sans-serif" font-size="13" font-weight="bold" lengthAdjust="spacing" textLength="9" x="62" y="309.2935">6</text><text fill="#000000" font-family="sans-serif" font-size="13" lengthAdjust="spacing" textLength="129" x="75" y="309.2935">Selects Collaborator</text><polygon fill="#181818" points="647,339.4922,657,343.4922,647,347.4922,651,343.4922" style="stroke:#181818;stroke-width:1.0;"/><line style="stroke:#181818;stroke-width:1.0;" x1="389" x2="653" y1="343.4922" y2="343.4922"/><text fill="#000000" font-family="sans-serif" font-size="13" font-weight="bold" lengthAdjust="spacing" textLength="9" x="396" y="338.4263">7</text><text fill="#000000" font-family="sans-serif" font-size="13" lengthAdjust="spacing" textLength="218" x="409" y="338.4263">getAvailableSkillsList(collaborator)</text><rect fill="none" height="39.1016" style="stroke:#000000;stroke-width:1.5;" width="211" x="578" y="351.4922"/><path d="M578,351.4922 L644,351.4922 L644,358.4922 L634,368.4922 L578,368.4922 L578,351.4922 " fill="#EEEEEE" style="stroke:#000000;stroke-width:2.0;"/><text fill="#000000" font-family="sans-serif" font-size="13" font-weight="bold" lengthAdjust="spacing" textLength="21" x="591" y="365.5591">ref</text><text fill="#000000" font-family="sans-serif" font-size="12" lengthAdjust="spacing" textLength="203" x="582" y="383.6309">Get Available Skills to Assign List</text><polygon fill="#181818" points="400,412.7266,390,416.7266,400,420.7266,396,416.7266" style="stroke:#181818;stroke-width:1.0;"/><line style="stroke:#181818;stroke-width:1.0;stroke-dasharray:2.0,2.0;" x1="394" x2="663" y1="416.7266" y2="416.7266"/><text fill="#000000" font-family="sans-serif" font-size="13" font-weight="bold" lengthAdjust="spacing" textLength="9" x="406" y="411.6606">8</text><text fill="#000000" font-family="sans-serif" font-size="13" lengthAdjust="spacing" textLength="110" x="419" y="411.6606">availableSkillsList</text><polygon fill="#181818" points="66,441.8594,56,445.8594,66,449.8594,62,445.8594" style="stroke:#181818;stroke-width:1.0;"/><line style="stroke:#181818;stroke-width:1.0;stroke-dasharray:2.0,2.0;" x1="60" x2="383" y1="445.8594" y2="445.8594"/><text fill="#000000" font-family="sans-serif" font-size="13" font-weight="bold" lengthAdjust="spacing" textLength="9" x="72" y="440.7935">9</text><text fill="#000000" font-family="sans-serif" font-size="13" lengthAdjust="spacing" textLength="213" x="85" y="440.7935">Displays Available Skills to Assign</text><polygon fill="#181818" points="367,470.9922,377,474.9922,367,478.9922,371,474.9922" style="stroke:#181818;stroke-width:1.0;"/><line style="stroke:#181818;stroke-width:1.0;" x1="55" x2="373" y1="474.9922" y2="474.9922"/><text fill="#000000" font-family="sans-serif" font-size="13" font-weight="bold" lengthAdjust="spacing" textLength="18" x="62" y="469.9263">10</text><text fill="#000000" font-family="sans-serif" font-size="13" lengthAdjust="spacing" textLength="283" x="84" y="469.9263">Confirms Skill Assignment for Selected Skills</text><polygon fill="#181818" points="647,500.125,657,504.125,647,508.125,651,504.125" style="stroke:#181818;stroke-width:1.0;"/><line style="stroke:#181818;stroke-width:1.0;" x1="389" x2="653" y1="504.125" y2="504.125"/><text fill="#000000" font-family="sans-serif" font-size="13" font-weight="bold" lengthAdjust="spacing" textLength="18" x="396" y="499.0591">11</text><text fill="#000000" font-family="sans-serif" font-size="13" lengthAdjust="spacing" textLength="229" x="418" y="499.0591">assignSkills(collaborator, skillName)</text><rect fill="none" height="39.1016" style="stroke:#000000;stroke-width:1.5;" width="172" x="578" y="512.125"/><path d="M578,512.125 L644,512.125 L644,519.125 L634,529.125 L578,529.125 L578,512.125 " fill="#EEEEEE" style="stroke:#000000;stroke-width:2.0;"/><text fill="#000000" font-family="sans-serif" font-size="13" font-weight="bold" lengthAdjust="spacing" textLength="21" x="591" y="526.1919">ref</text><text fill="#000000" font-family="sans-serif" font-size="12" lengthAdjust="spacing" textLength="69" x="629.5" y="544.2637">Assign Skill</text><polygon fill="#181818" points="400,573.3594,390,577.3594,400,581.3594,396,577.3594" style="stroke:#181818;stroke-width:1.0;"/><line style="stroke:#181818;stroke-width:1.0;stroke-dasharray:2.0,2.0;" x1="394" x2="663" y1="577.3594" y2="577.3594"/><text fill="#000000" font-family="sans-serif" font-size="13" font-weight="bold" lengthAdjust="spacing" textLength="18" x="406" y="572.2935">12</text><text fill="#000000" font-family="sans-serif" font-size="13" lengthAdjust="spacing" textLength="26" x="428" y="572.2935">true</text><polygon fill="#181818" points="66,602.4922,56,606.4922,66,610.4922,62,606.4922" style="stroke:#181818;stroke-width:1.0;"/><line style="stroke:#181818;stroke-width:1.0;stroke-dasharray:2.0,2.0;" x1="60" x2="383" y1="606.4922" y2="606.4922"/><text fill="#000000" font-family="sans-serif" font-size="13" font-weight="bold" lengthAdjust="spacing" textLength="18" x="72" y="601.4263">13</text><text fill="#000000" font-family="sans-serif" font-size="13" lengthAdjust="spacing" textLength="238" x="94" y="601.4263">Displays Operation Success Message</text><!--SRC=[xLTDRziu4BtpLmnoYLtKRP9D5wqEHRD9sgI8kqLiTy-CJ3j4A54WAHVvznrIiZIKP3Te3xlODeT08kVZSTwy4MqVP5vmmpF8TAxJUwCp0SwKWjbcf-3f0r-BcNjK0en87S_NYXhOUxxKNsM-XXLNLZ36IwVpChiJ1fzJfmqSNDt2bESOnXm0jt1rMxyn3E5aAWkUEpWuirQkyzc3LCekheFbuZesIQZDkSwTqKhLKTjNnWuXShiLXROIeKXXWsrOw5ePOfNqNCBke5-AIVcTDXoj6xV7v7nmESIwp0g_qWra_R58X5dy7boRDROFHfIyhawx47YH6-u4eO8rZp1vYuM71CxiWmMdqTqN7GAyQW5i8LAvaYdGh6rOv8rX20pKilBi6OPCZS3z_YPkhOMxu8v_4c8fbdDDcHwDsz2KPYDMe3VeJHO_21ST5cwaTKpaIsHmnTZBGqQo8ePGtohzTMwnlLD1qrMCiyfgqiLCMuOjHTShpjHsK9MkGo_DIfgD4RTU_ax7K0Wqn7uSmutw8t26bV0qLBKc-f0yVnJCLZniwx4NHc2V0DWw7RvaB8QmxVfzthJvGW-ZKwkR12waBHH_ZEK6gXF5gwEljfbGE5uxIjshgAfMPnikqK69IYkXNFGCExIpKpnDl6hM1C5NOloUb28AXs2T3yFwFgFKiOqtm6ktgngDrQ2KwayKCb9Rynu4ldNjPYRkIkkYgYbktrSxa6jNJr2nzBMC-0NyYn57ILTIEM7EQkyQ-d0ndiS8no6qvyftUZVDjkTudwHWkwFb_TQ-hj_TEjselftzKby6c6ybJLP_wMhtJE0NReLIgaI2XQmIX1Yze0CwuVHhGjNnl9gXdtWcnd6qxi67zEBNQss4s4tHlK3yCsgaJt6h4m9hhYclJyJOT7rORkJpDfu_KPxHxlFI6qA5cWIPHC33BR7NAJH0ZAZBnv0_7Ssx6dOuxzCxzEz283wfaQyoJOMrCCL_Q3NKe67j7T9PPegHA-__xRRyAzy7Vry2VkuIyFlJyczyMlwBy_6pmg6pcDu07iJw2CSlJevEJb_yCPhVb_1UtC7nApX-avmU9KUlu9_BEVZjCHjz-7opEG6hIvCAM6AV67bNUWnZzX6x26xBtCbC9E3VHlFf66QNsqMup3VIwC0Y-_XbMXd1bNQpGhjW_EVfv2_fa5xZA_nboYx4YfVAeMkgbpYA4rZCtqzUiniSrYKUDS4our301FWR71QpRm00]--></g></svg>