<?xml version="1.0" encoding="us-ascii" standalone="no"?><svg xmlns="http://www.w3.org/2000/svg" xmlns:xlink="http://www.w3.org/1999/xlink" contentStyleType="text/css" height="370px" preserveAspectRatio="none" style="width:1051px;height:370px;background:#FFFFFF;" version="1.1" viewBox="0 0 1051 370" width="1051px" zoomAndPan="magnify"><defs/><g><rect fill="#FFFFFF" height="250.0625" style="stroke:#181818;stroke-width:1.0;" width="10" x="250" y="67.4297"/><rect fill="#FFFFFF" height="29.1328" style="stroke:#181818;stroke-width:1.0;" width="10" x="637" y="120.6953"/><rect fill="#FFFFFF" height="29.1328" style="stroke:#181818;stroke-width:1.0;" width="10" x="921.5" y="178.9609"/><rect fill="none" height="206.9297" style="stroke:#000000;stroke-width:1.5;" width="893.5" x="152" y="82.4297"/><rect fill="none" height="59.2656" style="stroke:#000000;stroke-width:1.5;" width="480" x="162" y="223.0938"/><line style="stroke:#181818;stroke-width:0.5;stroke-dasharray:5.0,5.0;" x1="255" x2="255" y1="36.2969" y2="335.4922"/><line style="stroke:#181818;stroke-width:0.5;stroke-dasharray:5.0,5.0;" x1="641.5" x2="641.5" y1="36.2969" y2="335.4922"/><line style="stroke:#181818;stroke-width:0.5;stroke-dasharray:5.0,5.0;" x1="926.5" x2="926.5" y1="36.2969" y2="335.4922"/><rect fill="#E3E3E3" height="30.2969" rx="2.5" ry="2.5" style="stroke:#181818;stroke-width:0.5;" width="166" x="172" y="5"/><text fill="#000000" font-family="sans-serif" font-size="14" lengthAdjust="spacing" textLength="152" x="179" y="24.9951">:AssignSkillsController</text><rect fill="#E3E3E3" height="30.2969" rx="2.5" ry="2.5" style="stroke:#181818;stroke-width:0.5;" width="166" x="172" y="334.4922"/><text fill="#000000" font-family="sans-serif" font-size="14" lengthAdjust="spacing" textLength="152" x="179" y="354.4873">:AssignSkillsController</text><rect fill="#E3E3E3" height="30.2969" rx="2.5" ry="2.5" style="stroke:#181818;stroke-width:0.5;" width="331" x="476.5" y="5"/><text fill="#000000" font-family="sans-serif" font-size="14" lengthAdjust="spacing" textLength="317" x="483.5" y="24.9951">collaboratorRepository:CollaboratorRepository</text><rect fill="#E3E3E3" height="30.2969" rx="2.5" ry="2.5" style="stroke:#181818;stroke-width:0.5;" width="331" x="476.5" y="334.4922"/><text fill="#000000" font-family="sans-serif" font-size="14" lengthAdjust="spacing" textLength="317" x="483.5" y="354.4873">collaboratorRepository:CollaboratorRepository</text><rect fill="#E3E3E3" height="30.2969" rx="2.5" ry="2.5" style="stroke:#181818;stroke-width:0.5;" width="218" x="817.5" y="5"/><text fill="#000000" font-family="sans-serif" font-size="14" lengthAdjust="spacing" textLength="204" x="824.5" y="24.9951">skillRepository:SkillRepository</text><rect fill="#E3E3E3" height="30.2969" rx="2.5" ry="2.5" style="stroke:#181818;stroke-width:0.5;" width="218" x="817.5" y="334.4922"/><text fill="#000000" font-family="sans-serif" font-size="14" lengthAdjust="spacing" textLength="204" x="824.5" y="354.4873">skillRepository:SkillRepository</text><rect fill="#FFFFFF" height="250.0625" style="stroke:#181818;stroke-width:1.0;" width="10" x="250" y="67.4297"/><rect fill="#FFFFFF" height="29.1328" style="stroke:#181818;stroke-width:1.0;" width="10" x="637" y="120.6953"/><rect fill="#FFFFFF" height="29.1328" style="stroke:#181818;stroke-width:1.0;" width="10" x="921.5" y="178.9609"/><polygon fill="#181818" points="238,63.4297,248,67.4297,238,71.4297,242,67.4297" style="stroke:#181818;stroke-width:1.0;"/><line style="stroke:#181818;stroke-width:1.0;" x1="0" x2="244" y1="67.4297" y2="67.4297"/><text fill="#000000" font-family="sans-serif" font-size="13" font-weight="bold" lengthAdjust="spacing" textLength="9" x="7" y="62.3638">7</text><text fill="#000000" font-family="sans-serif" font-size="13" lengthAdjust="spacing" textLength="218" x="20" y="62.3638">getAvailableSkillsList(collaborator)</text><path d="M152,82.4297 L369,82.4297 L369,89.5625 L359,99.5625 L152,99.5625 L152,82.4297 " fill="#EEEEEE" style="stroke:#000000;stroke-width:1.5;"/><rect fill="none" height="206.9297" style="stroke:#000000;stroke-width:1.5;" width="893.5" x="152" y="82.4297"/><text fill="#000000" font-family="sans-serif" font-size="13" font-weight="bold" lengthAdjust="spacing" textLength="172" x="167" y="95.4966">Get Available Skills List</text><polygon fill="#181818" points="625,116.6953,635,120.6953,625,124.6953,629,120.6953" style="stroke:#181818;stroke-width:1.0;"/><line style="stroke:#181818;stroke-width:1.0;" x1="260" x2="631" y1="120.6953" y2="120.6953"/><text fill="#000000" font-family="sans-serif" font-size="13" font-weight="bold" lengthAdjust="spacing" textLength="23" x="267" y="115.6294">7.1</text><text fill="#000000" font-family="sans-serif" font-size="13" lengthAdjust="spacing" textLength="220" x="294" y="115.6294">getAvailableSkillsList(Collaborator)</text><polygon fill="#181818" points="271,145.8281,261,149.8281,271,153.8281,267,149.8281" style="stroke:#181818;stroke-width:1.0;"/><line style="stroke:#181818;stroke-width:1.0;stroke-dasharray:2.0,2.0;" x1="265" x2="641" y1="149.8281" y2="149.8281"/><text fill="#000000" font-family="sans-serif" font-size="13" font-weight="bold" lengthAdjust="spacing" textLength="23" x="277" y="144.7622">7.2</text><text fill="#000000" font-family="sans-serif" font-size="13" lengthAdjust="spacing" textLength="132" x="304" y="144.7622">CollaboratorSkillsList</text><polygon fill="#181818" points="909.5,174.9609,919.5,178.9609,909.5,182.9609,913.5,178.9609" style="stroke:#181818;stroke-width:1.0;"/><line style="stroke:#181818;stroke-width:1.0;" x1="260" x2="915.5" y1="178.9609" y2="178.9609"/><text fill="#000000" font-family="sans-serif" font-size="13" font-weight="bold" lengthAdjust="spacing" textLength="23" x="267" y="173.895">7.3</text><text fill="#000000" font-family="sans-serif" font-size="13" lengthAdjust="spacing" textLength="78" x="294" y="173.895">getAllSkills()</text><polygon fill="#181818" points="271,204.0938,261,208.0938,271,212.0938,267,208.0938" style="stroke:#181818;stroke-width:1.0;"/><line style="stroke:#181818;stroke-width:1.0;stroke-dasharray:2.0,2.0;" x1="265" x2="925.5" y1="208.0938" y2="208.0938"/><text fill="#000000" font-family="sans-serif" font-size="13" font-weight="bold" lengthAdjust="spacing" textLength="23" x="277" y="203.0278">7.4</text><text fill="#000000" font-family="sans-serif" font-size="13" lengthAdjust="spacing" textLength="68" x="304" y="203.0278">allSkillsList</text><path d="M162,223.0938 L239,223.0938 L239,230.2266 L229,240.2266 L162,240.2266 L162,223.0938 " fill="#EEEEEE" style="stroke:#000000;stroke-width:1.5;"/><rect fill="none" height="59.2656" style="stroke:#000000;stroke-width:1.5;" width="480" x="162" y="223.0938"/><text fill="#000000" font-family="sans-serif" font-size="13" font-weight="bold" lengthAdjust="spacing" textLength="32" x="177" y="236.1606">loop</text><text fill="#000000" font-family="sans-serif" font-size="11" font-weight="bold" lengthAdjust="spacing" textLength="292" x="254" y="235.3042">[over each Skill not assigned to Collaborator]</text><line style="stroke:#181818;stroke-width:1.0;" x1="260" x2="302" y1="261.3594" y2="261.3594"/><line style="stroke:#181818;stroke-width:1.0;" x1="302" x2="302" y1="261.3594" y2="274.3594"/><line style="stroke:#181818;stroke-width:1.0;" x1="261" x2="302" y1="274.3594" y2="274.3594"/><polygon fill="#181818" points="271,270.3594,261,274.3594,271,278.3594,267,274.3594" style="stroke:#181818;stroke-width:1.0;"/><text fill="#000000" font-family="sans-serif" font-size="13" font-weight="bold" lengthAdjust="spacing" textLength="23" x="267" y="256.2935">7.5</text><text fill="#000000" font-family="sans-serif" font-size="13" lengthAdjust="spacing" textLength="336" x="294" y="256.2935">filterAssignedSkills(CollaboratorSkillsList, allSkillsList)</text><polygon fill="#181818" points="11,313.4922,1,317.4922,11,321.4922,7,317.4922" style="stroke:#181818;stroke-width:1.0;"/><line style="stroke:#181818;stroke-width:1.0;stroke-dasharray:2.0,2.0;" x1="5" x2="254" y1="317.4922" y2="317.4922"/><text fill="#000000" font-family="sans-serif" font-size="13" font-weight="bold" lengthAdjust="spacing" textLength="9" x="17" y="312.4263">8</text><text fill="#000000" font-family="sans-serif" font-size="13" lengthAdjust="spacing" textLength="110" x="30" y="312.4263">availableSkillsList</text><!--SRC=[TLD1ReCm4Bpx5QjScagbKa-jK5KfYgfUUcfUuC26M35UP2-fyllQGC06YiI1zSpipAvn5sKQQMKDDHagpfPg1BOj2ZUUDBAuo0eFVDC85WkMfj8nm9rbIR_AL72Isg4GicKoRNr4AuI7i2fK8mt39jyvfofpk2YjtPuCMz8QxGQaW-bJY0T8Q3_Oa5DCLg7hi5rXZh8HAbzGkjEUbx0Atr8UoKgF7KctVBzQxfG-woPKKXaN8aNyG_hT4SVQ8c1i8cazJ6OgnCE5Lo6oZsXma4E5lBjAvV4Q-p5_AyVRkC5Z8l7yuYKBLbV96E-WijGsy8KCeruVm45G5E2VgBFtCSpbVnFxn4GG61lVPzfLxqBPF5miCEbsd1BNjLABumO6arhtCjkPdMXJeJxH5fRaNMBDoKn64pL0Ly_pa7D_2eROxpZy5LW2Kxfi69uqHMBWf3IZtGqAGvprGJsbRllCQ4eHtlXIl8dtB8lRXA3BXOeeQdHp_W00]--></g></svg>