<?xml version="1.0" encoding="us-ascii" standalone="no"?><svg xmlns="http://www.w3.org/2000/svg" xmlns:xlink="http://www.w3.org/1999/xlink" contentStyleType="text/css" height="632px" preserveAspectRatio="none" style="width:800px;height:632px;background:#FFFFFF;" version="1.1" viewBox="0 0 800 632" width="800px" zoomAndPan="magnify"><defs/><g><!--class ApplicationSession--><g id="elem_ApplicationSession"><rect codeLine="11" fill="#F1F1F1" height="80.9766" id="ApplicationSession" rx="2.5" ry="2.5" style="stroke:#181818;stroke-width:0.5;" width="162" x="484" y="261.93"/><ellipse cx="499" cy="277.93" fill="#ADD1B2" rx="11" ry="11" style="stroke:#181818;stroke-width:1.0;"/><path d="M501.9731,283.5731 Q501.3921,283.8719 500.7529,284.0213 Q500.1138,284.1707 499.4082,284.1707 Q496.9014,284.1707 495.5815,282.5189 Q494.2617,280.867 494.2617,277.7459 Q494.2617,274.6165 495.5815,272.9647 Q496.9014,271.3128 499.4082,271.3128 Q500.1138,271.3128 500.7612,271.4622 Q501.4087,271.6116 501.9731,271.9105 L501.9731,274.6331 Q501.3423,274.0521 500.7488,273.7823 Q500.1553,273.5125 499.5244,273.5125 Q498.1797,273.5125 497.4949,274.5792 Q496.8101,275.6458 496.8101,277.7459 Q496.8101,279.8377 497.4949,280.9044 Q498.1797,281.971 499.5244,281.971 Q500.1553,281.971 500.7488,281.7012 Q501.3423,281.4315 501.9731,280.8504 Z " fill="#000000"/><text fill="#000000" font-family="sans-serif" font-size="14" lengthAdjust="spacing" textLength="130" x="513" y="283.221">ApplicationSession</text><line style="stroke:#181818;stroke-width:0.5;" x1="485" x2="645" y1="293.93" y2="293.93"/><line style="stroke:#181818;stroke-width:0.5;" x1="485" x2="645" y1="301.93" y2="301.93"/><text fill="#000000" font-family="sans-serif" font-size="14" lengthAdjust="spacing" textLength="140" x="490" y="319.4652">+static getInstance()</text><text fill="#000000" font-family="sans-serif" font-size="14" lengthAdjust="spacing" textLength="148" x="490" y="335.9534">+getCurrentSession()</text></g><!--class UserSession--><g id="elem_UserSession"><rect codeLine="16" fill="#F1F1F1" height="48" id="UserSession" rx="2.5" ry="2.5" style="stroke:#181818;stroke-width:0.5;" width="115" x="645.5" y="436.39"/><ellipse cx="660.5" cy="452.39" fill="#ADD1B2" rx="11" ry="11" style="stroke:#181818;stroke-width:1.0;"/><path d="M663.4731,458.0331 Q662.8921,458.3319 662.2529,458.4813 Q661.6138,458.6307 660.9082,458.6307 Q658.4014,458.6307 657.0815,456.9789 Q655.7617,455.327 655.7617,452.2059 Q655.7617,449.0765 657.0815,447.4247 Q658.4014,445.7728 660.9082,445.7728 Q661.6138,445.7728 662.2612,445.9222 Q662.9087,446.0716 663.4731,446.3705 L663.4731,449.0931 Q662.8423,448.5121 662.2488,448.2423 Q661.6553,447.9725 661.0244,447.9725 Q659.6797,447.9725 658.9949,449.0392 Q658.3101,450.1058 658.3101,452.2059 Q658.3101,454.2977 658.9949,455.3644 Q659.6797,456.431 661.0244,456.431 Q661.6553,456.431 662.2488,456.1612 Q662.8423,455.8915 663.4731,455.3104 Z " fill="#000000"/><text fill="#000000" font-family="sans-serif" font-size="14" lengthAdjust="spacing" textLength="83" x="674.5" y="457.681">UserSession</text><line style="stroke:#181818;stroke-width:0.5;" x1="646.5" x2="759.5" y1="468.39" y2="468.39"/><line style="stroke:#181818;stroke-width:0.5;" x1="646.5" x2="759.5" y1="476.39" y2="476.39"/></g><!--class HRM--><g id="elem_HRM"><rect codeLine="19" fill="#F1F1F1" height="48" id="HRM" rx="2.5" ry="2.5" style="stroke:#181818;stroke-width:0.5;" width="63" x="75.5" y="577.88"/><ellipse cx="90.5" cy="593.88" fill="#ADD1B2" rx="11" ry="11" style="stroke:#181818;stroke-width:1.0;"/><path d="M93.4731,599.5231 Q92.8921,599.8219 92.2529,599.9713 Q91.6138,600.1207 90.9082,600.1207 Q88.4014,600.1207 87.0815,598.4689 Q85.7617,596.817 85.7617,593.6959 Q85.7617,590.5665 87.0815,588.9147 Q88.4014,587.2628 90.9082,587.2628 Q91.6138,587.2628 92.2612,587.4122 Q92.9087,587.5616 93.4731,587.8605 L93.4731,590.5831 Q92.8423,590.0021 92.2488,589.7323 Q91.6553,589.4625 91.0244,589.4625 Q89.6797,589.4625 88.9949,590.5292 Q88.3101,591.5958 88.3101,593.6959 Q88.3101,595.7877 88.9949,596.8544 Q89.6797,597.921 91.0244,597.921 Q91.6553,597.921 92.2488,597.6512 Q92.8423,597.3815 93.4731,596.8004 Z " fill="#000000"/><text fill="#000000" font-family="sans-serif" font-size="14" lengthAdjust="spacing" textLength="31" x="104.5" y="599.171">HRM</text><line style="stroke:#181818;stroke-width:0.5;" x1="76.5" x2="137.5" y1="609.88" y2="609.88"/><line style="stroke:#181818;stroke-width:0.5;" x1="76.5" x2="137.5" y1="617.88" y2="617.88"/></g><!--class Skill--><g id="elem_Skill"><rect codeLine="22" fill="#F1F1F1" height="80.9766" id="Skill" rx="2.5" ry="2.5" style="stroke:#181818;stroke-width:0.5;" width="103" x="357.5" y="419.9"/><ellipse cx="391.85" cy="435.9" fill="#ADD1B2" rx="11" ry="11" style="stroke:#181818;stroke-width:1.0;"/><path d="M394.8231,441.5431 Q394.2421,441.8419 393.6029,441.9913 Q392.9638,442.1407 392.2582,442.1407 Q389.7514,442.1407 388.4315,440.4889 Q387.1117,438.837 387.1117,435.7159 Q387.1117,432.5865 388.4315,430.9347 Q389.7514,429.2828 392.2582,429.2828 Q392.9638,429.2828 393.6112,429.4322 Q394.2587,429.5816 394.8231,429.8805 L394.8231,432.6031 Q394.1923,432.0221 393.5988,431.7523 Q393.0053,431.4825 392.3744,431.4825 Q391.0297,431.4825 390.3449,432.5492 Q389.6601,433.6158 389.6601,435.7159 Q389.6601,437.8077 390.3449,438.8744 Q391.0297,439.941 392.3744,439.941 Q393.0053,439.941 393.5988,439.6712 Q394.1923,439.4015 394.8231,438.8204 Z " fill="#000000"/><text fill="#000000" font-family="sans-serif" font-size="14" lengthAdjust="spacing" textLength="28" x="410.15" y="441.191">Skill</text><line style="stroke:#181818;stroke-width:0.5;" x1="358.5" x2="459.5" y1="451.9" y2="451.9"/><text fill="#000000" font-family="sans-serif" font-size="14" lengthAdjust="spacing" textLength="91" x="363.5" y="469.4352">-String name</text><line style="stroke:#181818;stroke-width:0.5;" x1="358.5" x2="459.5" y1="476.3883" y2="476.3883"/><text fill="#000000" font-family="sans-serif" font-size="14" lengthAdjust="spacing" textLength="87" x="363.5" y="493.9234">+Skill(name)</text></g><!--class skillRepository--><g id="elem_skillRepository"><rect codeLine="29" fill="#F1F1F1" height="80.9766" id="skillRepository" rx="2.5" ry="2.5" style="stroke:#181818;stroke-width:0.5;" width="132" x="156" y="261.93"/><ellipse cx="171" cy="277.93" fill="#ADD1B2" rx="11" ry="11" style="stroke:#181818;stroke-width:1.0;"/><path d="M173.9731,283.5731 Q173.3921,283.8719 172.7529,284.0213 Q172.1138,284.1707 171.4082,284.1707 Q168.9014,284.1707 167.5815,282.5189 Q166.2617,280.867 166.2617,277.7459 Q166.2617,274.6165 167.5815,272.9647 Q168.9014,271.3128 171.4082,271.3128 Q172.1138,271.3128 172.7612,271.4622 Q173.4087,271.6116 173.9731,271.9105 L173.9731,274.6331 Q173.3423,274.0521 172.7488,273.7823 Q172.1553,273.5125 171.5244,273.5125 Q170.1797,273.5125 169.4949,274.5792 Q168.8101,275.6458 168.8101,277.7459 Q168.8101,279.8377 169.4949,280.9044 Q170.1797,281.971 171.5244,281.971 Q172.1553,281.971 172.7488,281.7012 Q173.3423,281.4315 173.9731,280.8504 Z " fill="#000000"/><text fill="#000000" font-family="sans-serif" font-size="14" lengthAdjust="spacing" textLength="100" x="185" y="283.221">skillRepository</text><line style="stroke:#181818;stroke-width:0.5;" x1="157" x2="287" y1="293.93" y2="293.93"/><text fill="#000000" font-family="sans-serif" font-size="14" lengthAdjust="spacing" textLength="85" x="162" y="311.4652">-List &lt;Skill&gt;</text><line style="stroke:#181818;stroke-width:0.5;" x1="157" x2="287" y1="318.4183" y2="318.4183"/><text fill="#000000" font-family="sans-serif" font-size="14" lengthAdjust="spacing" textLength="94" x="162" y="335.9534">+getSkillList()</text></g><!--class Repositories--><g id="elem_Repositories"><rect codeLine="35" fill="#F1F1F1" height="97.4648" id="Repositories" rx="2.5" ry="2.5" style="stroke:#181818;stroke-width:0.5;" width="206" x="119" y="134.46"/><ellipse cx="175.25" cy="150.46" fill="#ADD1B2" rx="11" ry="11" style="stroke:#181818;stroke-width:1.0;"/><path d="M178.2231,156.1031 Q177.6421,156.4019 177.0029,156.5513 Q176.3638,156.7007 175.6582,156.7007 Q173.1514,156.7007 171.8315,155.0489 Q170.5117,153.397 170.5117,150.2759 Q170.5117,147.1465 171.8315,145.4947 Q173.1514,143.8428 175.6582,143.8428 Q176.3638,143.8428 177.0112,143.9922 Q177.6587,144.1416 178.2231,144.4405 L178.2231,147.1631 Q177.5923,146.5821 176.9988,146.3123 Q176.4053,146.0425 175.7744,146.0425 Q174.4297,146.0425 173.7449,147.1092 Q173.0601,148.1758 173.0601,150.2759 Q173.0601,152.3677 173.7449,153.4344 Q174.4297,154.501 175.7744,154.501 Q176.4053,154.501 176.9988,154.2312 Q177.5923,153.9615 178.2231,153.3804 Z " fill="#000000"/><text fill="#000000" font-family="sans-serif" font-size="14" lengthAdjust="spacing" textLength="85" x="195.75" y="155.751">Repositories</text><line style="stroke:#181818;stroke-width:0.5;" x1="120" x2="324" y1="166.46" y2="166.46"/><line style="stroke:#181818;stroke-width:0.5;" x1="120" x2="324" y1="174.46" y2="174.46"/><text fill="#000000" font-family="sans-serif" font-size="14" lengthAdjust="spacing" textLength="103" x="125" y="191.9952">-Repositories()</text><text fill="#000000" font-family="sans-serif" font-size="14" lengthAdjust="spacing" textLength="194" x="125" y="208.4834">+getInstance() : repositories</text><text fill="#000000" font-family="sans-serif" font-size="14" lengthAdjust="spacing" textLength="144" x="125" y="224.9717">+getSkillRepository()</text></g><!--class RegisterSkillController--><g id="elem_RegisterSkillController"><rect codeLine="42" fill="#F1F1F1" height="97.4648" id="RegisterSkillController" rx="2.5" ry="2.5" style="stroke:#181818;stroke-width:0.5;" width="214" x="324" y="7"/><ellipse cx="351.6" cy="23" fill="#ADD1B2" rx="11" ry="11" style="stroke:#181818;stroke-width:1.0;"/><path d="M354.5731,28.6431 Q353.9921,28.9419 353.3529,29.0913 Q352.7138,29.2407 352.0082,29.2407 Q349.5014,29.2407 348.1815,27.5889 Q346.8617,25.937 346.8617,22.8159 Q346.8617,19.6865 348.1815,18.0347 Q349.5014,16.3828 352.0082,16.3828 Q352.7138,16.3828 353.3612,16.5322 Q354.0087,16.6816 354.5731,16.9805 L354.5731,19.7031 Q353.9423,19.1221 353.3488,18.8523 Q352.7553,18.5825 352.1244,18.5825 Q350.7797,18.5825 350.0949,19.6492 Q349.4101,20.7158 349.4101,22.8159 Q349.4101,24.9077 350.0949,25.9744 Q350.7797,27.041 352.1244,27.041 Q352.7553,27.041 353.3488,26.7712 Q353.9423,26.5015 354.5731,25.9204 Z " fill="#000000"/><text fill="#000000" font-family="sans-serif" font-size="14" lengthAdjust="spacing" textLength="154" x="368.4" y="28.291">RegisterSkillController</text><line style="stroke:#181818;stroke-width:0.5;" x1="325" x2="537" y1="39" y2="39"/><text fill="#000000" font-family="sans-serif" font-size="14" lengthAdjust="spacing" textLength="134" x="330" y="56.5352">+getSkillRepository</text><line style="stroke:#181818;stroke-width:0.5;" x1="325" x2="537" y1="63.4883" y2="63.4883"/><text fill="#000000" font-family="sans-serif" font-size="14" lengthAdjust="spacing" textLength="202" x="330" y="81.0234">+registerSkill(skillRepository)</text><text fill="#000000" font-family="sans-serif" font-size="14" lengthAdjust="spacing" textLength="98" x="330" y="97.5117">+getJSkillList()</text></g><g id="elem_GMN9"><path d="M572.5,35.42 L572.5,51.73 L538.4,55.73 L572.5,59.73 L572.5,76.0411 A0,0 0 0 0 572.5,76.0411 L793.5,76.0411 A0,0 0 0 0 793.5,76.0411 L793.5,45.42 L783.5,35.42 L572.5,35.42 A0,0 0 0 0 572.5,35.42 " fill="#FEFFDD" style="stroke:#181818;stroke-width:0.5;"/><path d="M783.5,35.42 L783.5,45.42 L793.5,45.42 L783.5,35.42 " fill="#FEFFDD" style="stroke:#181818;stroke-width:0.5;"/><text fill="#000000" font-family="sans-serif" font-size="13" lengthAdjust="spacing" textLength="75" x="578.5" y="52.9884">- skillName</text><text fill="#000000" font-family="sans-serif" font-size="13" lengthAdjust="spacing" textLength="200" x="578.5" y="68.2989">is achieved with skill repository</text></g><g id="elem_GMN12"><path d="M168,440.08 L168,480.7011 A0,0 0 0 0 168,480.7011 L322,480.7011 A0,0 0 0 0 322,480.7011 L322,450.08 L312,440.08 L246.09,440.08 L227.86,343.18 L238.09,440.08 L168,440.08 A0,0 0 0 0 168,440.08 " fill="#FEFFDD" style="stroke:#181818;stroke-width:0.5;"/><path d="M312,440.08 L312,450.08 L322,450.08 L312,440.08 " fill="#FEFFDD" style="stroke:#181818;stroke-width:0.5;"/><text fill="#000000" font-family="sans-serif" font-size="13" lengthAdjust="spacing" textLength="133" x="174" y="457.6484">- used for displaying</text><text fill="#000000" font-family="sans-serif" font-size="13" lengthAdjust="spacing" textLength="75" x="174" y="472.9589">the skill list</text></g><!--class RegisterSkillUI--><g id="elem_RegisterSkillUI"><rect codeLine="58" fill="#F1F1F1" height="48" id="RegisterSkillUI" rx="2.5" ry="2.5" style="stroke:#181818;stroke-width:0.5;" width="130" x="159" y="31.73"/><ellipse cx="174" cy="47.73" fill="#ADD1B2" rx="11" ry="11" style="stroke:#181818;stroke-width:1.0;"/><path d="M176.9731,53.3731 Q176.3921,53.6719 175.7529,53.8213 Q175.1138,53.9707 174.4082,53.9707 Q171.9014,53.9707 170.5815,52.3189 Q169.2617,50.667 169.2617,47.5459 Q169.2617,44.4165 170.5815,42.7647 Q171.9014,41.1128 174.4082,41.1128 Q175.1138,41.1128 175.7612,41.2622 Q176.4087,41.4116 176.9731,41.7105 L176.9731,44.4331 Q176.3423,43.8521 175.7488,43.5823 Q175.1553,43.3125 174.5244,43.3125 Q173.1797,43.3125 172.4949,44.3792 Q171.8101,45.4458 171.8101,47.5459 Q171.8101,49.6377 172.4949,50.7044 Q173.1797,51.771 174.5244,51.771 Q175.1553,51.771 175.7488,51.5012 Q176.3423,51.2315 176.9731,50.6504 Z " fill="#000000"/><text fill="#000000" font-family="sans-serif" font-size="14" lengthAdjust="spacing" textLength="98" x="188" y="53.021">RegisterSkillUI</text><line style="stroke:#181818;stroke-width:0.5;" x1="160" x2="288" y1="63.73" y2="63.73"/><line style="stroke:#181818;stroke-width:0.5;" x1="160" x2="288" y1="71.73" y2="71.73"/></g><!--link Repositories to Repositories--><g id="link_Repositories_Repositories"><path codeLine="61" d="M325.21,161.8 C345.54,164.25 360,171.38 360,183.19 C360,195.01 351.4969,201.4221 331.1669,203.8721 " fill="none" id="Repositories-to-Repositories" style="stroke:#181818;stroke-width:1.0;"/><polygon fill="#181818" points="325.21,204.59,334.6239,207.4845,330.1741,203.9918,333.6668,199.5419,325.21,204.59" style="stroke:#181818;stroke-width:1.0;"/><text fill="#000000" font-family="sans-serif" font-size="13" lengthAdjust="spacing" textLength="53" x="366" y="188.2584">instance</text></g><!--link ApplicationSession to ApplicationSession--><g id="link_ApplicationSession_ApplicationSession"><path codeLine="62" d="M646.31,287.84 C666.2,288.92 681,293.78 681,302.42 C681,311.05 672.1912,315.5847 652.3012,316.6647 " fill="none" id="ApplicationSession-to-ApplicationSession" style="stroke:#181818;stroke-width:1.0;"/><polygon fill="#181818" points="646.31,316.99,655.5136,320.4961,651.3026,316.7189,655.0799,312.5079,646.31,316.99" style="stroke:#181818;stroke-width:1.0;"/><text fill="#000000" font-family="sans-serif" font-size="13" lengthAdjust="spacing" textLength="53" x="687" y="307.4884">instance</text></g><!--link RegisterSkillUI to RegisterSkillController--><g id="link_RegisterSkillUI_RegisterSkillController"><path codeLine="64" d="M289.29,55.73 C291.64,55.73 293,55.73 293,55.73 C293,55.73 301.91,55.73 317.87,55.73 " fill="none" id="RegisterSkillUI-to-RegisterSkillController" style="stroke:#181818;stroke-width:1.0;stroke-dasharray:7.0,7.0;"/><polygon fill="#181818" points="323.87,55.73,314.87,51.73,318.87,55.73,314.87,59.73,323.87,55.73" style="stroke:#181818;stroke-width:1.0;"/></g><!--link RegisterSkillController to Repositories--><g id="link_RegisterSkillController_Repositories"><path codeLine="66" d="M350.79,104.88 C334.91,114.42 323.3741,121.3416 307.4841,130.8816 " fill="none" id="RegisterSkillController-to-Repositories" style="stroke:#181818;stroke-width:1.0;stroke-dasharray:7.0,7.0;"/><polygon fill="#181818" points="302.34,133.97,312.1151,132.7668,306.6268,131.3963,307.9972,125.908,302.34,133.97" style="stroke:#181818;stroke-width:1.0;"/><text fill="#000000" font-family="sans-serif" font-size="13" lengthAdjust="spacing" textLength="75" x="327.57" y="132.9884">repositories</text></g><!--link Repositories to skillRepository--><g id="link_Repositories_skillRepository"><path codeLine="68" d="M222,232.21 C222,241.95 222,246.09 222,255.51 " fill="none" id="Repositories-to-skillRepository" style="stroke:#181818;stroke-width:1.0;"/><polygon fill="#181818" points="222,261.51,226,252.51,222,256.51,218,252.51,222,261.51" style="stroke:#181818;stroke-width:1.0;"/><text fill="#000000" font-family="sans-serif" font-size="13" lengthAdjust="spacing" textLength="8" x="213.2282" y="252.5626">1</text></g><!--link RegisterSkillController to Skill--><g id="link_RegisterSkillController_Skill"><path codeLine="69" d="M428.37,104.9 C423.98,185.27 415.5677,339.219 411.4977,413.619 " fill="none" id="RegisterSkillController-to-Skill" style="stroke:#181818;stroke-width:1.0;stroke-dasharray:7.0,7.0;"/><polygon fill="#181818" points="411.17,419.61,415.6556,410.8419,411.4431,414.6175,407.6676,410.4049,411.17,419.61" style="stroke:#181818;stroke-width:1.0;"/></g><!--link RegisterSkillController to skillRepository--><g id="link_RegisterSkillController_skillRepository"><path codeLine="70" d="M323.72,98.02 C313.59,101.93 307,104.46 307,104.46 C307,104.46 6,134.46 6,134.46 C6,134.46 6,231.93 6,231.93 C6,231.93 86.5182,257.8329 150.0082,278.2529 " fill="none" id="RegisterSkillController-to-skillRepository" style="stroke:#181818;stroke-width:1.0;stroke-dasharray:7.0,7.0;"/><polygon fill="#181818" points="155.72,280.09,148.377,273.5265,150.9601,278.5591,145.9275,281.1423,155.72,280.09" style="stroke:#181818;stroke-width:1.0;"/><text fill="#000000" font-family="sans-serif" font-size="13" lengthAdjust="spacing" textLength="94" x="7" y="188.2584">skillRepository</text></g><!--link ApplicationSession to UserSession--><g id="link_ApplicationSession_UserSession"><path codeLine="73" d="M600.18,343.18 C626.21,372.6 656.8038,407.1767 678.4838,431.6767 " fill="none" id="ApplicationSession-to-UserSession" style="stroke:#181818;stroke-width:1.0;"/><polygon fill="#181818" points="682.46,436.17,679.4913,426.7792,679.1465,432.4255,673.5002,432.0807,682.46,436.17" style="stroke:#181818;stroke-width:1.0;"/><text fill="#000000" font-family="sans-serif" font-size="13" lengthAdjust="spacing" textLength="75" x="639" y="386.4684">userSession</text><text fill="#000000" font-family="sans-serif" font-size="13" lengthAdjust="spacing" textLength="8" x="668.1716" y="425.6499">1</text></g><!--link RegisterSkillController to ApplicationSession--><g id="link_RegisterSkillController_ApplicationSession"><path codeLine="75" d="M457.31,104.78 C482.39,150.57 516.8182,213.4374 540.2882,256.2974 " fill="none" id="RegisterSkillController-to-ApplicationSession" style="stroke:#181818;stroke-width:1.0;stroke-dasharray:7.0,7.0;"/><polygon fill="#181818" points="543.17,261.56,542.3557,251.7449,540.7685,257.1745,535.3389,255.5873,543.17,261.56" style="stroke:#181818;stroke-width:1.0;"/></g><!--link RegisterSkillController to UserSession--><g id="link_RegisterSkillController_UserSession"><path codeLine="76" d="M505.09,104.84 C598.49,165.49 747,261.93 747,261.93 C747,261.93 747,342.9 747,342.9 C747,342.9 726.7598,396.4869 713.9198,430.4869 " fill="none" id="RegisterSkillController-to-UserSession" style="stroke:#181818;stroke-width:1.0;stroke-dasharray:7.0,7.0;"/><polygon fill="#181818" points="711.8,436.1,718.7217,429.0936,713.5665,431.4224,711.2376,426.2672,711.8,436.1" style="stroke:#181818;stroke-width:1.0;"/></g><!--link skillRepository to Skill--><g id="link_skillRepository_Skill"><path codeLine="78" d="M269.67,343.18 C297.7,366.55 328.4122,392.1771 356.4822,415.5871 " fill="none" id="skillRepository-to-Skill" style="stroke:#181818;stroke-width:1.0;"/><polygon fill="#181818" points="361.09,419.43,356.7402,410.5938,357.2501,416.2276,351.6163,416.7376,361.09,419.43" style="stroke:#181818;stroke-width:1.0;"/><text fill="#000000" font-family="sans-serif" font-size="13" lengthAdjust="spacing" textLength="34" x="323" y="386.4684">Skills</text><text fill="#000000" font-family="sans-serif" font-size="13" lengthAdjust="spacing" textLength="8" x="268.6299" y="363.4648">1</text><text fill="#000000" font-family="sans-serif" font-size="13" lengthAdjust="spacing" textLength="6" x="346.9762" y="409.3001">*</text></g><!--link Skill to HRM--><g id="link_Skill_HRM"><path codeLine="80" d="M357.06,491.12 C347.25,496.73 340,500.88 340,500.88 C340,500.88 208.2335,557.4334 144.4235,584.8234 " fill="none" id="Skill-to-HRM" style="stroke:#181818;stroke-width:1.0;"/><polygon fill="#181818" points="138.91,587.19,148.7581,587.3157,143.5046,585.2178,145.6025,579.9643,138.91,587.19" style="stroke:#181818;stroke-width:1.0;"/><text fill="#000000" font-family="sans-serif" font-size="13" lengthAdjust="spacing" textLength="60" x="266" y="544.4484">createdBy</text></g><!--link skillRepository to HRM--><g id="link_skillRepository_HRM"><path codeLine="82" d="M178.65,343.18 C141.86,376.92 95,419.9 95,419.9 C95,419.9 95,500.88 95,500.88 C95,500.88 99.9243,541.9228 103.4743,571.4728 " fill="none" id="skillRepository-to-HRM" style="stroke:#181818;stroke-width:1.0;"/><polygon fill="#181818" points="104.19,577.43,107.0879,568.0171,103.5936,572.4657,99.1451,568.9714,104.19,577.43" style="stroke:#181818;stroke-width:1.0;"/><text fill="#000000" font-family="sans-serif" font-size="13" lengthAdjust="spacing" textLength="53" x="96" y="465.4584">employs</text><text fill="#000000" font-family="sans-serif" font-size="13" lengthAdjust="spacing" textLength="6" x="96.7738" y="567.2484">*</text></g><!--SRC=[VLJ1Zfim4BtxAqQv96srLNj5LQJjNfggxI4e7-252LWnDhA7hcZLVwzjJ70W91VYUJFllPanREr5g9ORta2ZbIvgeni4CXso2MbvSU4LvjHB18C5SLN9DC7MlDHlGbLmvjAcY1GAgMyHMYrxVs3REw0sf5bILKXkxJEH4QyTuQ7GAXT_43unjfLu9Y0DHbGrGIcy7Q4LOw46djjMYeBxK8xMkiTV1kxt0IovQ04Lqa6v_wh0tRi8kTXBPmmgYZKE-JSodYoQAzKr-ktu4v9ZVX5ImY3r1BapxcQXU8DH8U0x7mZCOvdruIEssWhIfhyI_12Mu4iesayUmzb3Wxt8SIqNQAy4QJ1jSseTChV9AMccCdborLERHwoSl9k7ptdHYeoM4iquOfF2krbpYOllQIThmbvLQSAuQNrUKuyj1xbVuyY51LxK0dzZ2M-2wW6UMkuPgX8yVrHvrKIwyJ8ptv6-iuxfh8sxShQLl7SB3WZL6BcbCvUmtfdOwJ3ScPkLFUrlLvY1Y4jYoylii-z4anesL_ouNnqSMm66cXjFDtTbqS3cysOnjbLkHnvY3pFcRqQsu6TtnnFD92-jA-sc4tkekcHyc7vAUUUElOrWv_qcVXwouUdc5vuUz9-H30g3dB3ysYzPHeOX4PjMwjwo_m00]--></g></svg>