<?xml version="1.0" encoding="us-ascii" standalone="no"?><svg xmlns="http://www.w3.org/2000/svg" xmlns:xlink="http://www.w3.org/1999/xlink" contentStyleType="text/css" height="733px" preserveAspectRatio="none" style="width:1192px;height:733px;background:#FFFFFF;" version="1.1" viewBox="0 0 1192 733" width="1192px" zoomAndPan="magnify"><defs/><g><rect fill="#FFFFFF" height="543.123" style="stroke:#181818;stroke-width:1.0;" width="10" x="18.5" y="91.4883"/><rect fill="#FFFFFF" height="521.8125" style="stroke:#181818;stroke-width:1.0;" width="10" x="275.5" y="112.7988"/><rect fill="#FFFFFF" height="347.7715" style="stroke:#181818;stroke-width:1.0;" width="10" x="465.5" y="242.2188"/><rect fill="#FFFFFF" height="29.3105" style="stroke:#181818;stroke-width:1.0;" width="10" x="677.5" y="313.8398"/><rect fill="#FFFFFF" height="29.3105" style="stroke:#181818;stroke-width:1.0;" width="10" x="790.5" y="372.4609"/><rect fill="#FFFFFF" height="241.8398" style="stroke:#181818;stroke-width:1.0;" width="10" x="911" y="401.7715"/><line style="stroke:#181818;stroke-width:0.5;stroke-dasharray:5.0,5.0;" x1="23" x2="23" y1="81.4883" y2="652.6113"/><line style="stroke:#181818;stroke-width:0.5;stroke-dasharray:5.0,5.0;" x1="280.5" x2="280.5" y1="81.4883" y2="652.6113"/><line style="stroke:#181818;stroke-width:0.5;stroke-dasharray:5.0,5.0;" x1="470.5" x2="470.5" y1="151.543" y2="652.6113"/><line style="stroke:#181818;stroke-width:0.5;stroke-dasharray:5.0,5.0;" x1="682" x2="682" y1="81.4883" y2="652.6113"/><line style="stroke:#181818;stroke-width:0.5;stroke-dasharray:5.0,5.0;" x1="795" x2="795" y1="81.4883" y2="652.6113"/><line style="stroke:#181818;stroke-width:0.5;stroke-dasharray:5.0,5.0;" x1="916" x2="916" y1="81.4883" y2="652.6113"/><line style="stroke:#181818;stroke-width:0.5;stroke-dasharray:5.0,5.0;" x1="1163" x2="1163" y1="478.0703" y2="652.6113"/><text fill="#000000" font-family="sans-serif" font-size="14" lengthAdjust="spacing" textLength="31" x="5" y="78.5352">HRM</text><ellipse cx="23.5" cy="13.5" fill="#E3E3E3" rx="8" ry="8" style="stroke:#181818;stroke-width:0.5;"/><path d="M23.5,21.5 L23.5,48.5 M10.5,29.5 L36.5,29.5 M23.5,48.5 L10.5,63.5 M23.5,48.5 L36.5,63.5 " fill="none" style="stroke:#181818;stroke-width:0.5;"/><text fill="#000000" font-family="sans-serif" font-size="14" lengthAdjust="spacing" textLength="31" x="5" y="665.1465">HRM</text><ellipse cx="23.5" cy="676.5996" fill="#E3E3E3" rx="8" ry="8" style="stroke:#181818;stroke-width:0.5;"/><path d="M23.5,684.5996 L23.5,711.5996 M10.5,692.5996 L36.5,692.5996 M23.5,711.5996 L10.5,726.5996 M23.5,711.5996 L36.5,726.5996 " fill="none" style="stroke:#181818;stroke-width:0.5;"/><rect fill="#E3E3E3" height="30.4883" rx="2.5" ry="2.5" style="stroke:#181818;stroke-width:0.5;" width="116" x="222.5" y="50"/><text fill="#000000" font-family="sans-serif" font-size="14" lengthAdjust="spacing" textLength="102" x="229.5" y="70.5352">:RegisterSkillUI</text><rect fill="#E3E3E3" height="30.4883" rx="2.5" ry="2.5" style="stroke:#181818;stroke-width:0.5;" width="116" x="222.5" y="651.6113"/><text fill="#000000" font-family="sans-serif" font-size="14" lengthAdjust="spacing" textLength="102" x="229.5" y="672.1465">:RegisterSkillUI</text><rect fill="#E3E3E3" height="30.4883" rx="2.5" ry="2.5" style="stroke:#181818;stroke-width:0.5;" width="172" x="384.5" y="651.6113"/><text fill="#000000" font-family="sans-serif" font-size="14" lengthAdjust="spacing" textLength="158" x="391.5" y="672.1465">:RegisterSkillController</text><rect fill="#E3E3E3" height="30.4883" rx="2.5" ry="2.5" style="stroke:#181818;stroke-width:0.5;" width="103" x="631" y="50"/><text fill="#000000" font-family="sans-serif" font-size="14" lengthAdjust="spacing" textLength="89" x="638" y="70.5352">:Repositories</text><rect fill="#E3E3E3" height="30.4883" rx="2.5" ry="2.5" style="stroke:#181818;stroke-width:0.5;" width="103" x="631" y="651.6113"/><text fill="#000000" font-family="sans-serif" font-size="14" lengthAdjust="spacing" textLength="89" x="638" y="672.1465">:Repositories</text><rect fill="#E3E3E3" height="46.9766" rx="2.5" ry="2.5" style="stroke:#181818;stroke-width:0.5;" width="103" x="744" y="33.5117"/><text fill="#000000" font-family="sans-serif" font-size="14" lengthAdjust="spacing" textLength="82" x="754.5" y="54.0469">repositories</text><text fill="#000000" font-family="sans-serif" font-size="14" lengthAdjust="spacing" textLength="89" x="751" y="70.5352">:Repositories</text><rect fill="#E3E3E3" height="46.9766" rx="2.5" ry="2.5" style="stroke:#181818;stroke-width:0.5;" width="103" x="744" y="651.6113"/><text fill="#000000" font-family="sans-serif" font-size="14" lengthAdjust="spacing" textLength="82" x="754.5" y="672.1465">repositories</text><text fill="#000000" font-family="sans-serif" font-size="14" lengthAdjust="spacing" textLength="89" x="751" y="688.6348">:Repositories</text><rect fill="#E3E3E3" height="46.9766" rx="2.5" ry="2.5" style="stroke:#181818;stroke-width:0.5;" width="118" x="857" y="33.5117"/><text fill="#000000" font-family="sans-serif" font-size="14" lengthAdjust="spacing" textLength="104" x="864" y="54.0469">skillRepository:</text><text fill="#000000" font-family="sans-serif" font-size="14" lengthAdjust="spacing" textLength="101" x="865.5" y="70.5352">SkillRepository</text><rect fill="#E3E3E3" height="46.9766" rx="2.5" ry="2.5" style="stroke:#181818;stroke-width:0.5;" width="118" x="857" y="651.6113"/><text fill="#000000" font-family="sans-serif" font-size="14" lengthAdjust="spacing" textLength="104" x="864" y="672.1465">skillRepository:</text><text fill="#000000" font-family="sans-serif" font-size="14" lengthAdjust="spacing" textLength="101" x="865.5" y="688.6348">SkillRepository</text><rect fill="#E3E3E3" height="46.9766" rx="2.5" ry="2.5" style="stroke:#181818;stroke-width:0.5;" width="46" x="1140" y="651.6113"/><text fill="#000000" font-family="sans-serif" font-size="14" lengthAdjust="spacing" textLength="32" x="1147" y="672.1465">Skill:</text><text fill="#000000" font-family="sans-serif" font-size="14" lengthAdjust="spacing" textLength="28" x="1149" y="688.6348">Skill</text><rect fill="#FFFFFF" height="543.123" style="stroke:#181818;stroke-width:1.0;" width="10" x="18.5" y="91.4883"/><rect fill="#FFFFFF" height="521.8125" style="stroke:#181818;stroke-width:1.0;" width="10" x="275.5" y="112.7988"/><rect fill="#FFFFFF" height="347.7715" style="stroke:#181818;stroke-width:1.0;" width="10" x="465.5" y="242.2188"/><rect fill="#FFFFFF" height="29.3105" style="stroke:#181818;stroke-width:1.0;" width="10" x="677.5" y="313.8398"/><rect fill="#FFFFFF" height="29.3105" style="stroke:#181818;stroke-width:1.0;" width="10" x="790.5" y="372.4609"/><rect fill="#FFFFFF" height="241.8398" style="stroke:#181818;stroke-width:1.0;" width="10" x="911" y="401.7715"/><polygon fill="#181818" points="263.5,108.7988,273.5,112.7988,263.5,116.7988,267.5,112.7988" style="stroke:#181818;stroke-width:1.0;"/><line style="stroke:#181818;stroke-width:1.0;" x1="28.5" x2="269.5" y1="112.7988" y2="112.7988"/><text fill="#000000" font-family="sans-serif" font-size="13" font-weight="bold" lengthAdjust="spacing" textLength="9" x="35.5" y="108.0566">1</text><text fill="#000000" font-family="sans-serif" font-size="13" lengthAdjust="spacing" textLength="169" x="48.5" y="108.0566">asks to register a new skill</text><polygon fill="#181818" points="372.5,138.1094,382.5,142.1094,372.5,146.1094,376.5,142.1094" style="stroke:#181818;stroke-width:1.0;"/><line style="stroke:#181818;stroke-width:1.0;" x1="285.5" x2="378.5" y1="142.1094" y2="142.1094"/><text fill="#000000" font-family="sans-serif" font-size="13" font-weight="bold" lengthAdjust="spacing" textLength="9" x="292.5" y="137.3672">2</text><text fill="#000000" font-family="sans-serif" font-size="13" lengthAdjust="spacing" textLength="38" x="305.5" y="137.3672">create</text><rect fill="#E3E3E3" height="30.4883" rx="2.5" ry="2.5" style="stroke:#181818;stroke-width:0.5;" width="172" x="384.5" y="120.7988"/><text fill="#000000" font-family="sans-serif" font-size="14" lengthAdjust="spacing" textLength="158" x="391.5" y="141.334">:RegisterSkillController</text><polygon fill="#181818" points="39.5,179.5977,29.5,183.5977,39.5,187.5977,35.5,183.5977" style="stroke:#181818;stroke-width:1.0;"/><line style="stroke:#181818;stroke-width:1.0;" x1="33.5" x2="274.5" y1="183.5977" y2="183.5977"/><text fill="#000000" font-family="sans-serif" font-size="13" font-weight="bold" lengthAdjust="spacing" textLength="9" x="45.5" y="178.8555">3</text><text fill="#000000" font-family="sans-serif" font-size="13" lengthAdjust="spacing" textLength="158" x="58.5" y="178.8555">requests data(skill name)</text><polygon fill="#181818" points="263.5,208.9082,273.5,212.9082,263.5,216.9082,267.5,212.9082" style="stroke:#181818;stroke-width:1.0;"/><line style="stroke:#181818;stroke-width:1.0;" x1="28.5" x2="269.5" y1="212.9082" y2="212.9082"/><text fill="#000000" font-family="sans-serif" font-size="13" font-weight="bold" lengthAdjust="spacing" textLength="9" x="35.5" y="208.166">4</text><text fill="#000000" font-family="sans-serif" font-size="13" lengthAdjust="spacing" textLength="208" x="48.5" y="208.166">types requested data (skill name)</text><polygon fill="#181818" points="453.5,238.2188,463.5,242.2188,453.5,246.2188,457.5,242.2188" style="stroke:#181818;stroke-width:1.0;"/><line style="stroke:#181818;stroke-width:1.0;" x1="285.5" x2="459.5" y1="242.2188" y2="242.2188"/><text fill="#000000" font-family="sans-serif" font-size="13" font-weight="bold" lengthAdjust="spacing" textLength="9" x="292.5" y="237.4766">5</text><text fill="#000000" font-family="sans-serif" font-size="13" lengthAdjust="spacing" textLength="148" x="305.5" y="237.4766">registerSkill(skill name)</text><line style="stroke:#181818;stroke-width:1.0;" x1="475.5" x2="517.5" y1="271.5293" y2="271.5293"/><line style="stroke:#181818;stroke-width:1.0;" x1="517.5" x2="517.5" y1="271.5293" y2="284.5293"/><line style="stroke:#181818;stroke-width:1.0;" x1="476.5" x2="517.5" y1="284.5293" y2="284.5293"/><polygon fill="#181818" points="486.5,280.5293,476.5,284.5293,486.5,288.5293,482.5,284.5293" style="stroke:#181818;stroke-width:1.0;"/><text fill="#000000" font-family="sans-serif" font-size="13" font-weight="bold" lengthAdjust="spacing" textLength="9" x="482.5" y="266.7871">6</text><text fill="#000000" font-family="sans-serif" font-size="13" lengthAdjust="spacing" textLength="175" x="495.5" y="266.7871">verifySkillName(skill name))</text><polygon fill="#181818" points="665.5,309.8398,675.5,313.8398,665.5,317.8398,669.5,313.8398" style="stroke:#181818;stroke-width:1.0;"/><line style="stroke:#181818;stroke-width:1.0;" x1="475.5" x2="671.5" y1="313.8398" y2="313.8398"/><text fill="#000000" font-family="sans-serif" font-size="13" font-weight="bold" lengthAdjust="spacing" textLength="9" x="482.5" y="309.0977">7</text><text fill="#000000" font-family="sans-serif" font-size="13" lengthAdjust="spacing" textLength="81" x="495.5" y="309.0977">getInstance()</text><polygon fill="#181818" points="486.5,339.1504,476.5,343.1504,486.5,347.1504,482.5,343.1504" style="stroke:#181818;stroke-width:1.0;"/><line style="stroke:#181818;stroke-width:1.0;stroke-dasharray:2.0,2.0;" x1="480.5" x2="681.5" y1="343.1504" y2="343.1504"/><text fill="#000000" font-family="sans-serif" font-size="13" font-weight="bold" lengthAdjust="spacing" textLength="9" x="492.5" y="338.4082">8</text><text fill="#000000" font-family="sans-serif" font-size="13" lengthAdjust="spacing" textLength="75" x="505.5" y="338.4082">repositories</text><polygon fill="#181818" points="778.5,368.4609,788.5,372.4609,778.5,376.4609,782.5,372.4609" style="stroke:#181818;stroke-width:1.0;"/><line style="stroke:#181818;stroke-width:1.0;" x1="475.5" x2="784.5" y1="372.4609" y2="372.4609"/><text fill="#000000" font-family="sans-serif" font-size="13" font-weight="bold" lengthAdjust="spacing" textLength="9" x="482.5" y="367.7188">9</text><text fill="#000000" font-family="sans-serif" font-size="13" lengthAdjust="spacing" textLength="122" x="495.5" y="367.7188">getSkillRepository()</text><polygon fill="#181818" points="486.5,397.7715,476.5,401.7715,486.5,405.7715,482.5,401.7715" style="stroke:#181818;stroke-width:1.0;"/><line style="stroke:#181818;stroke-width:1.0;stroke-dasharray:2.0,2.0;" x1="480.5" x2="794.5" y1="401.7715" y2="401.7715"/><text fill="#000000" font-family="sans-serif" font-size="13" font-weight="bold" lengthAdjust="spacing" textLength="18" x="492.5" y="397.0293">10</text><text fill="#000000" font-family="sans-serif" font-size="13" lengthAdjust="spacing" textLength="94" x="514.5" y="397.0293">skillRepository</text><polygon fill="#181818" points="899,427.082,909,431.082,899,435.082,903,431.082" style="stroke:#181818;stroke-width:1.0;"/><line style="stroke:#181818;stroke-width:1.0;" x1="475.5" x2="905" y1="431.082" y2="431.082"/><text fill="#000000" font-family="sans-serif" font-size="13" font-weight="bold" lengthAdjust="spacing" textLength="18" x="482.5" y="426.3398">11</text><text fill="#000000" font-family="sans-serif" font-size="13" lengthAdjust="spacing" textLength="152" x="504.5" y="426.3398">registerSkill (skill name)</text><polygon fill="#181818" points="1128,456.3926,1138,460.3926,1128,464.3926,1132,460.3926" style="stroke:#181818;stroke-width:1.0;"/><line style="stroke:#181818;stroke-width:1.0;" x1="921" x2="1134" y1="460.3926" y2="460.3926"/><text fill="#000000" font-family="sans-serif" font-size="13" font-weight="bold" lengthAdjust="spacing" textLength="18" x="928" y="455.6504">12</text><text fill="#000000" font-family="sans-serif" font-size="13" lengthAdjust="spacing" textLength="46" x="950" y="455.6504">create()</text><rect fill="#E3E3E3" height="46.9766" rx="2.5" ry="2.5" style="stroke:#181818;stroke-width:0.5;" width="46" x="1140" y="439.082"/><text fill="#000000" font-family="sans-serif" font-size="14" lengthAdjust="spacing" textLength="32" x="1147" y="459.6172">Skill:</text><text fill="#000000" font-family="sans-serif" font-size="14" lengthAdjust="spacing" textLength="28" x="1149" y="476.1055">Skill</text><line style="stroke:#181818;stroke-width:1.0;" x1="921" x2="963" y1="518.3691" y2="518.3691"/><line style="stroke:#181818;stroke-width:1.0;" x1="963" x2="963" y1="518.3691" y2="531.3691"/><line style="stroke:#181818;stroke-width:1.0;" x1="922" x2="963" y1="531.3691" y2="531.3691"/><polygon fill="#181818" points="932,527.3691,922,531.3691,932,535.3691,928,531.3691" style="stroke:#181818;stroke-width:1.0;"/><text fill="#000000" font-family="sans-serif" font-size="13" font-weight="bold" lengthAdjust="spacing" textLength="18" x="928" y="513.627">13</text><text fill="#000000" font-family="sans-serif" font-size="13" lengthAdjust="spacing" textLength="201" x="950" y="513.627">verifyIfExistAndSave(skill name)</text><polygon fill="#181818" points="486.5,556.6797,476.5,560.6797,486.5,564.6797,482.5,560.6797" style="stroke:#181818;stroke-width:1.0;"/><line style="stroke:#181818;stroke-width:1.0;" x1="480.5" x2="910" y1="560.6797" y2="560.6797"/><text fill="#000000" font-family="sans-serif" font-size="13" font-weight="bold" lengthAdjust="spacing" textLength="18" x="492.5" y="555.9375">14</text><text fill="#000000" font-family="sans-serif" font-size="13" lengthAdjust="spacing" textLength="50" x="514.5" y="555.9375">skillList</text><polygon fill="#181818" points="296.5,585.9902,286.5,589.9902,296.5,593.9902,292.5,589.9902" style="stroke:#181818;stroke-width:1.0;"/><line style="stroke:#181818;stroke-width:1.0;stroke-dasharray:2.0,2.0;" x1="290.5" x2="469.5" y1="589.9902" y2="589.9902"/><text fill="#000000" font-family="sans-serif" font-size="13" font-weight="bold" lengthAdjust="spacing" textLength="18" x="302.5" y="585.248">15</text><text fill="#000000" font-family="sans-serif" font-size="13" lengthAdjust="spacing" textLength="50" x="324.5" y="585.248">skillList</text><polygon fill="#181818" points="34.5,630.6113,24.5,634.6113,34.5,638.6113,30.5,634.6113" style="stroke:#181818;stroke-width:1.0;"/><line style="stroke:#181818;stroke-width:1.0;stroke-dasharray:2.0,2.0;" x1="28.5" x2="279.5" y1="634.6113" y2="634.6113"/><text fill="#000000" font-family="sans-serif" font-size="13" font-weight="bold" lengthAdjust="spacing" textLength="18" x="40.5" y="622.2139">16</text><text fill="#000000" font-family="sans-serif" font-size="13" lengthAdjust="spacing" textLength="197" x="62.5" y="614.5586">displays operation success and</text><text fill="#000000" font-family="sans-serif" font-size="13" lengthAdjust="spacing" textLength="87" x="66.5" y="629.8691">show skillList</text><!--SRC=[bLHDR-8m4BtxLuouGAlo1pXKgggL5ecjLj3UkBZE12mIE_KuKFxzsWv9d2_KzIM9_TwRDvCPqqcgWXkUGwwL5aUZSmHhIcJKd1HSdFW1T_QQ8HWKbgj35WFeo1DzaUe0ASy86UEbrQhCFz4mDZ_A127LsdxgRyQ5rGPclxT_Pi09t9Cv3Ik5BBYoC5jjyI39ejcTP9Pzh0FgOtqFzAgLDJhBq0Jmw_jsCu0NcgGBB942fjcuxgJFnRdjKap4sAkXmD_DotkNGTvAgxlQgrrt9_1wgAv48DJ400zlZFcgoJEt6Eh5uBRS1ooVNNLWvS0d0glTxwag0nmKNgfuBQFHSHLbSuYM4rawBI-vSY9V9P8bIBZbi32Oea4by0aI965aOQLMJm1IfThaF8EzwfvO54SbXJlfR2UbuTMRq6GVM6nWBWnwP-7tzPqzX-t7H-UjWhKftSv7Z2z2yg1uZb6ek6ZsMY3L94nkwSQq2ISXLDI2qvocueEyWawhTqOZqsjGUtCoiQAJx31ZzaWdEx43shKYDwS25my3RkDfR0m6QB_6eYnltdqfskaOq1Fylt1rOdx2ganwStGleJ2Mena4kTPoVmxlkAuqfsFsfSRZrsdrqFr6kjDzzUehED50ZQPZyNFgq4_LYElqrxUpzQAI7JzZrzL8YYFAjxuE9nidDTd4zJIso8a_4KPeE9BDz2UIYenV2NI1rKK3L0g1HC1LuYyfEkfBBqwaxo_5wDFVjVy0]--></g></svg>