<?xml version="1.0" encoding="us-ascii" standalone="no"?><svg xmlns="http://www.w3.org/2000/svg" xmlns:xlink="http://www.w3.org/1999/xlink" contentStyleType="text/css" height="1947px" preserveAspectRatio="none" style="width:2383px;height:1947px;background:#FFFFFF;" version="1.1" viewBox="0 0 2383 1947" width="2383px" zoomAndPan="magnify"><defs/><g><rect fill="#FFFFFF" height="1753.1621" style="stroke:#181818;stroke-width:1.0;" width="10" x="18.5" y="93.6211"/><rect fill="#FFFFFF" height="1729.8711" style="stroke:#181818;stroke-width:1.0;" width="10" x="357.5" y="116.9121"/><rect fill="#FFFFFF" height="1697.5801" style="stroke:#181818;stroke-width:1.0;" width="10" x="562.5" y="158.2031"/><rect fill="#FFFFFF" height="31.291" style="stroke:#181818;stroke-width:1.0;" width="10" x="703" y="191.8242"/><rect fill="#FFFFFF" height="31.291" style="stroke:#181818;stroke-width:1.0;" width="10" x="810" y="254.4063"/><rect fill="#FFFFFF" height="31.291" style="stroke:#181818;stroke-width:1.0;" width="10" x="810" y="316.9883"/><rect fill="#FFFFFF" height="92.582" style="stroke:#181818;stroke-width:1.0;" width="10" x="957" y="379.5703"/><rect fill="#FFFFFF" height="31.291" style="stroke:#181818;stroke-width:1.0;" width="10" x="1114.5" y="1258.2148"/><rect fill="#FFFFFF" height="31.291" style="stroke:#181818;stroke-width:1.0;" width="10" x="1332" y="945.3047"/><rect fill="#FFFFFF" height="556.2773" style="stroke:#181818;stroke-width:1.0;" width="10" x="1392" y="1299.5059"/><rect fill="#FFFFFF" height="285.4063" style="stroke:#181818;stroke-width:1.0;" width="10" x="1650.5" y="503.4434"/><rect fill="#FFFFFF" height="36.291" style="stroke:#181818;stroke-width:1.0;" width="10" x="1655.5" y="647.6465"/><rect fill="#FFFFFF" height="30" style="stroke:#181818;stroke-width:1.0;" width="10" x="1911.5" y="727.5586"/><rect fill="#FFFFFF" height="30" style="stroke:#181818;stroke-width:1.0;" width="10" x="2148" y="410.8613"/><rect fill="#FFFFFF" height="30" style="stroke:#181818;stroke-width:1.0;" width="10" x="2148" y="578.3555"/><rect fill="#FFFFFF" height="344.2012" style="stroke:#181818;stroke-width:1.0;" width="10" x="2306.5" y="1333.127"/><line style="stroke:#181818;stroke-width:0.5;stroke-dasharray:5.0,5.0;" x1="23" x2="23" y1="83.6211" y2="1864.7832"/><line style="stroke:#181818;stroke-width:0.5;stroke-dasharray:5.0,5.0;" x1="362.5" x2="362.5" y1="83.6211" y2="1864.7832"/><line style="stroke:#181818;stroke-width:0.5;stroke-dasharray:5.0,5.0;" x1="567.5" x2="567.5" y1="156.7227" y2="1864.7832"/><line style="stroke:#181818;stroke-width:0.5;stroke-dasharray:5.0,5.0;" x1="707.5" x2="707.5" y1="83.6211" y2="1864.7832"/><line style="stroke:#181818;stroke-width:0.5;stroke-dasharray:5.0,5.0;" x1="814.5" x2="814.5" y1="83.6211" y2="1864.7832"/><line style="stroke:#181818;stroke-width:0.5;stroke-dasharray:5.0,5.0;" x1="961.5" x2="961.5" y1="83.6211" y2="1864.7832"/><line style="stroke:#181818;stroke-width:0.5;stroke-dasharray:5.0,5.0;" x1="1119.5" x2="1119.5" y1="83.6211" y2="1864.7832"/><line style="stroke:#181818;stroke-width:0.5;stroke-dasharray:5.0,5.0;" x1="1253.5" x2="1253.5" y1="83.6211" y2="1864.7832"/><line style="stroke:#181818;stroke-width:0.5;stroke-dasharray:5.0,5.0;" x1="1336.5" x2="1336.5" y1="83.6211" y2="1864.7832"/><line style="stroke:#181818;stroke-width:0.5;stroke-dasharray:5.0,5.0;" x1="1396.5" x2="1396.5" y1="1298.0254" y2="1864.7832"/><line style="stroke:#181818;stroke-width:0.5;stroke-dasharray:5.0,5.0;" x1="1492.5" x2="1492.5" y1="692.457" y2="1864.7832"/><line style="stroke:#181818;stroke-width:0.5;stroke-dasharray:5.0,5.0;" x1="1655.5" x2="1655.5" y1="83.6211" y2="1864.7832"/><line style="stroke:#181818;stroke-width:0.5;stroke-dasharray:5.0,5.0;" x1="1916" x2="1916" y1="543.2539" y2="1864.7832"/><line style="stroke:#181818;stroke-width:0.5;stroke-dasharray:5.0,5.0;" x1="2153" x2="2153" y1="83.6211" y2="1864.7832"/><line style="stroke:#181818;stroke-width:0.5;stroke-dasharray:5.0,5.0;" x1="2311" x2="2311" y1="83.6211" y2="1864.7832"/><text fill="#000000" font-family="sans-serif" font-size="14" lengthAdjust="spacing" textLength="31" x="5" y="80.1074">GSM</text><ellipse cx="23.5" cy="13.5" fill="#E3E3E3" rx="8" ry="8" style="stroke:#181818;stroke-width:0.5;"/><path d="M23.5,21.5 L23.5,48.5 M10.5,29.5 L36.5,29.5 M23.5,48.5 L10.5,63.5 M23.5,48.5 L36.5,63.5 " fill="none" style="stroke:#181818;stroke-width:0.5;"/><text fill="#000000" font-family="sans-serif" font-size="14" lengthAdjust="spacing" textLength="31" x="5" y="1878.8906">GSM</text><ellipse cx="23.5" cy="1890.9043" fill="#E3E3E3" rx="8" ry="8" style="stroke:#181818;stroke-width:0.5;"/><path d="M23.5,1898.9043 L23.5,1925.9043 M10.5,1906.9043 L36.5,1906.9043 M23.5,1925.9043 L10.5,1940.9043 M23.5,1925.9043 L36.5,1940.9043 " fill="none" style="stroke:#181818;stroke-width:0.5;"/><rect fill="#E3E3E3" height="32.6211" rx="2.5" ry="2.5" style="stroke:#181818;stroke-width:0.5;" width="114" x="305.5" y="50"/><text fill="#000000" font-family="sans-serif" font-size="14" lengthAdjust="spacing" textLength="100" x="312.5" y="72.1074">:RegisterTaskUI</text><rect fill="#E3E3E3" height="32.6211" rx="2.5" ry="2.5" style="stroke:#181818;stroke-width:0.5;" width="114" x="305.5" y="1863.7832"/><text fill="#000000" font-family="sans-serif" font-size="14" lengthAdjust="spacing" textLength="100" x="312.5" y="1885.8906">:RegisterTaskUI</text><rect fill="#E3E3E3" height="32.6211" rx="2.5" ry="2.5" style="stroke:#181818;stroke-width:0.5;" width="164" x="485.5" y="1863.7832"/><text fill="#000000" font-family="sans-serif" font-size="14" lengthAdjust="spacing" textLength="150" x="492.5" y="1885.8906">:RegisterTaskController</text><rect fill="#E3E3E3" height="32.6211" rx="2.5" ry="2.5" style="stroke:#181818;stroke-width:0.5;" width="97" x="659.5" y="50"/><text fill="#000000" font-family="sans-serif" font-size="14" lengthAdjust="spacing" textLength="83" x="666.5" y="72.1074">:Repositories</text><rect fill="#E3E3E3" height="32.6211" rx="2.5" ry="2.5" style="stroke:#181818;stroke-width:0.5;" width="97" x="659.5" y="1863.7832"/><text fill="#000000" font-family="sans-serif" font-size="14" lengthAdjust="spacing" textLength="83" x="666.5" y="1885.8906">:Repositories</text><rect fill="#E3E3E3" height="51.2422" rx="2.5" ry="2.5" style="stroke:#181818;stroke-width:0.5;" width="97" x="766.5" y="31.3789"/><text fill="#000000" font-family="sans-serif" font-size="14" lengthAdjust="spacing" textLength="74" x="778" y="53.4863">repositories</text><text fill="#000000" font-family="sans-serif" font-size="14" lengthAdjust="spacing" textLength="83" x="773.5" y="72.1074">:Repositories</text><rect fill="#E3E3E3" height="51.2422" rx="2.5" ry="2.5" style="stroke:#181818;stroke-width:0.5;" width="97" x="766.5" y="1863.7832"/><text fill="#000000" font-family="sans-serif" font-size="14" lengthAdjust="spacing" textLength="74" x="778" y="1885.8906">repositories</text><text fill="#000000" font-family="sans-serif" font-size="14" lengthAdjust="spacing" textLength="83" x="773.5" y="1904.5117">:Repositories</text><rect fill="#E3E3E3" height="51.2422" rx="2.5" ry="2.5" style="stroke:#181818;stroke-width:0.5;" width="177" x="873.5" y="31.3789"/><text fill="#000000" font-family="sans-serif" font-size="14" lengthAdjust="spacing" textLength="159" x="882.5" y="53.4863">GreenSpaceRepositories</text><text fill="#000000" font-family="sans-serif" font-size="14" lengthAdjust="spacing" textLength="163" x="880.5" y="72.1074">:GreenSpaceRepositories</text><rect fill="#E3E3E3" height="51.2422" rx="2.5" ry="2.5" style="stroke:#181818;stroke-width:0.5;" width="177" x="873.5" y="1863.7832"/><text fill="#000000" font-family="sans-serif" font-size="14" lengthAdjust="spacing" textLength="159" x="882.5" y="1885.8906">GreenSpaceRepositories</text><text fill="#000000" font-family="sans-serif" font-size="14" lengthAdjust="spacing" textLength="163" x="880.5" y="1904.5117">:GreenSpaceRepositories</text><rect fill="#E3E3E3" height="51.2422" rx="2.5" ry="2.5" style="stroke:#181818;stroke-width:0.5;" width="118" x="1060.5" y="31.3789"/><text fill="#000000" font-family="sans-serif" font-size="14" lengthAdjust="spacing" textLength="104" x="1067.5" y="53.4863">entryRepository:</text><text fill="#000000" font-family="sans-serif" font-size="14" lengthAdjust="spacing" textLength="101" x="1069" y="72.1074">EntryRepository</text><rect fill="#E3E3E3" height="51.2422" rx="2.5" ry="2.5" style="stroke:#181818;stroke-width:0.5;" width="118" x="1060.5" y="1863.7832"/><text fill="#000000" font-family="sans-serif" font-size="14" lengthAdjust="spacing" textLength="104" x="1067.5" y="1885.8906">entryRepository:</text><text fill="#000000" font-family="sans-serif" font-size="14" lengthAdjust="spacing" textLength="101" x="1069" y="1904.5117">EntryRepository</text><rect fill="#E3E3E3" height="51.2422" rx="2.5" ry="2.5" style="stroke:#181818;stroke-width:0.5;" width="98" x="1204.5" y="31.3789"/><text fill="#000000" font-family="sans-serif" font-size="14" lengthAdjust="spacing" textLength="80" x="1213.5" y="53.4863">GreenSpace</text><text fill="#000000" font-family="sans-serif" font-size="14" lengthAdjust="spacing" textLength="84" x="1211.5" y="72.1074">:GreenSpace</text><rect fill="#E3E3E3" height="51.2422" rx="2.5" ry="2.5" style="stroke:#181818;stroke-width:0.5;" width="98" x="1204.5" y="1863.7832"/><text fill="#000000" font-family="sans-serif" font-size="14" lengthAdjust="spacing" textLength="80" x="1213.5" y="1885.8906">GreenSpace</text><text fill="#000000" font-family="sans-serif" font-size="14" lengthAdjust="spacing" textLength="84" x="1211.5" y="1904.5117">:GreenSpace</text><rect fill="#E3E3E3" height="51.2422" rx="2.5" ry="2.5" style="stroke:#181818;stroke-width:0.5;" width="49" x="1312.5" y="31.3789"/><text fill="#000000" font-family="sans-serif" font-size="14" lengthAdjust="spacing" textLength="35" x="1319.5" y="53.4863">Task:</text><text fill="#000000" font-family="sans-serif" font-size="14" lengthAdjust="spacing" textLength="31" x="1321.5" y="72.1074">Task</text><rect fill="#E3E3E3" height="51.2422" rx="2.5" ry="2.5" style="stroke:#181818;stroke-width:0.5;" width="49" x="1312.5" y="1863.7832"/><text fill="#000000" font-family="sans-serif" font-size="14" lengthAdjust="spacing" textLength="35" x="1319.5" y="1885.8906">Task:</text><text fill="#000000" font-family="sans-serif" font-size="14" lengthAdjust="spacing" textLength="31" x="1321.5" y="1904.5117">Task</text><rect fill="#E3E3E3" height="32.6211" rx="2.5" ry="2.5" style="stroke:#181818;stroke-width:0.5;" width="51" x="1371.5" y="1863.7832"/><text fill="#000000" font-family="sans-serif" font-size="14" lengthAdjust="spacing" textLength="37" x="1378.5" y="1885.8906">:Entry</text><rect fill="#E3E3E3" height="32.6211" rx="2.5" ry="2.5" style="stroke:#181818;stroke-width:0.5;" width="120" x="1432.5" y="1863.7832"/><text fill="#000000" font-family="sans-serif" font-size="14" lengthAdjust="spacing" textLength="106" x="1439.5" y="1885.8906">:GreenSpaceDto</text><rect fill="#E3E3E3" height="32.6211" rx="2.5" ry="2.5" style="stroke:#181818;stroke-width:0.5;" width="146" x="1582.5" y="50"/><text fill="#000000" font-family="sans-serif" font-size="14" lengthAdjust="spacing" textLength="132" x="1589.5" y="72.1074">:GreenSpaceMapper</text><rect fill="#E3E3E3" height="32.6211" rx="2.5" ry="2.5" style="stroke:#181818;stroke-width:0.5;" width="146" x="1582.5" y="1863.7832"/><text fill="#000000" font-family="sans-serif" font-size="14" lengthAdjust="spacing" textLength="132" x="1589.5" y="1885.8906">:GreenSpaceMapper</text><rect fill="#E3E3E3" height="32.6211" rx="2.5" ry="2.5" style="stroke:#181818;stroke-width:0.5;" width="287" x="1773" y="1863.7832"/><text fill="#000000" font-family="sans-serif" font-size="14" lengthAdjust="spacing" textLength="273" x="1780" y="1885.8906">greenSpaceListDto : List&lt;GreenSpaceDto&gt;</text><rect fill="#E3E3E3" height="32.6211" rx="2.5" ry="2.5" style="stroke:#181818;stroke-width:0.5;" width="166" x="2070" y="50"/><text fill="#000000" font-family="sans-serif" font-size="14" lengthAdjust="spacing" textLength="152" x="2077" y="72.1074">List : List&lt;GreenSpace&gt;</text><rect fill="#E3E3E3" height="32.6211" rx="2.5" ry="2.5" style="stroke:#181818;stroke-width:0.5;" width="166" x="2070" y="1863.7832"/><text fill="#000000" font-family="sans-serif" font-size="14" lengthAdjust="spacing" textLength="152" x="2077" y="1885.8906">List : List&lt;GreenSpace&gt;</text><rect fill="#E3E3E3" height="32.6211" rx="2.5" ry="2.5" style="stroke:#181818;stroke-width:0.5;" width="131" x="2246" y="50"/><text fill="#000000" font-family="sans-serif" font-size="14" lengthAdjust="spacing" textLength="117" x="2253" y="72.1074">entryDto: EntryDto</text><rect fill="#E3E3E3" height="32.6211" rx="2.5" ry="2.5" style="stroke:#181818;stroke-width:0.5;" width="131" x="2246" y="1863.7832"/><text fill="#000000" font-family="sans-serif" font-size="14" lengthAdjust="spacing" textLength="117" x="2253" y="1885.8906">entryDto: EntryDto</text><rect fill="#FFFFFF" height="1753.1621" style="stroke:#181818;stroke-width:1.0;" width="10" x="18.5" y="93.6211"/><rect fill="#FFFFFF" height="1729.8711" style="stroke:#181818;stroke-width:1.0;" width="10" x="357.5" y="116.9121"/><rect fill="#FFFFFF" height="1697.5801" style="stroke:#181818;stroke-width:1.0;" width="10" x="562.5" y="158.2031"/><rect fill="#FFFFFF" height="31.291" style="stroke:#181818;stroke-width:1.0;" width="10" x="703" y="191.8242"/><rect fill="#FFFFFF" height="31.291" style="stroke:#181818;stroke-width:1.0;" width="10" x="810" y="254.4063"/><rect fill="#FFFFFF" height="31.291" style="stroke:#181818;stroke-width:1.0;" width="10" x="810" y="316.9883"/><rect fill="#FFFFFF" height="92.582" style="stroke:#181818;stroke-width:1.0;" width="10" x="957" y="379.5703"/><rect fill="#FFFFFF" height="31.291" style="stroke:#181818;stroke-width:1.0;" width="10" x="1114.5" y="1258.2148"/><rect fill="#FFFFFF" height="31.291" style="stroke:#181818;stroke-width:1.0;" width="10" x="1332" y="945.3047"/><rect fill="#FFFFFF" height="556.2773" style="stroke:#181818;stroke-width:1.0;" width="10" x="1392" y="1299.5059"/><rect fill="#FFFFFF" height="285.4063" style="stroke:#181818;stroke-width:1.0;" width="10" x="1650.5" y="503.4434"/><rect fill="#FFFFFF" height="36.291" style="stroke:#181818;stroke-width:1.0;" width="10" x="1655.5" y="647.6465"/><rect fill="#FFFFFF" height="30" style="stroke:#181818;stroke-width:1.0;" width="10" x="1911.5" y="727.5586"/><rect fill="#FFFFFF" height="30" style="stroke:#181818;stroke-width:1.0;" width="10" x="2148" y="410.8613"/><rect fill="#FFFFFF" height="30" style="stroke:#181818;stroke-width:1.0;" width="10" x="2148" y="578.3555"/><rect fill="#FFFFFF" height="344.2012" style="stroke:#181818;stroke-width:1.0;" width="10" x="2306.5" y="1333.127"/><polygon fill="#181818" points="345.5,112.9121,355.5,116.9121,345.5,120.9121,349.5,116.9121" style="stroke:#181818;stroke-width:1.0;"/><line style="stroke:#181818;stroke-width:1.0;" x1="28.5" x2="351.5" y1="116.9121" y2="116.9121"/><text fill="#000000" font-family="sans-serif" font-size="13" font-weight="bold" lengthAdjust="spacing" textLength="7" x="35.5" y="111.6494">1</text><text fill="#000000" font-family="sans-serif" font-size="13" lengthAdjust="spacing" textLength="232" x="46.5" y="111.6494">ask to add a new entry to the To-Do List</text><polygon fill="#181818" points="473.5,144.2031,483.5,148.2031,473.5,152.2031,477.5,148.2031" style="stroke:#181818;stroke-width:1.0;"/><line style="stroke:#181818;stroke-width:1.0;" x1="367.5" x2="479.5" y1="148.2031" y2="148.2031"/><text fill="#000000" font-family="sans-serif" font-size="13" font-weight="bold" lengthAdjust="spacing" textLength="7" x="374.5" y="142.9404">2</text><text fill="#000000" font-family="sans-serif" font-size="13" lengthAdjust="spacing" textLength="44" x="385.5" y="142.9404">create()</text><rect fill="#E3E3E3" height="32.6211" rx="2.5" ry="2.5" style="stroke:#181818;stroke-width:0.5;" width="164" x="485.5" y="124.9121"/><text fill="#000000" font-family="sans-serif" font-size="14" lengthAdjust="spacing" textLength="150" x="492.5" y="147.0195">:RegisterTaskController</text><polygon fill="#181818" points="691,187.8242,701,191.8242,691,195.8242,695,191.8242" style="stroke:#181818;stroke-width:1.0;"/><line style="stroke:#181818;stroke-width:1.0;" x1="572.5" x2="697" y1="191.8242" y2="191.8242"/><text fill="#000000" font-family="sans-serif" font-size="13" font-weight="bold" lengthAdjust="spacing" textLength="7" x="579.5" y="186.5615">3</text><text fill="#000000" font-family="sans-serif" font-size="13" lengthAdjust="spacing" textLength="75" x="590.5" y="186.5615">getInstance()</text><polygon fill="#181818" points="583.5,219.1152,573.5,223.1152,583.5,227.1152,579.5,223.1152" style="stroke:#181818;stroke-width:1.0;"/><line style="stroke:#181818;stroke-width:1.0;stroke-dasharray:2.0,2.0;" x1="577.5" x2="707" y1="223.1152" y2="223.1152"/><text fill="#000000" font-family="sans-serif" font-size="13" font-weight="bold" lengthAdjust="spacing" textLength="7" x="589.5" y="217.8525">4</text><text fill="#000000" font-family="sans-serif" font-size="13" lengthAdjust="spacing" textLength="67" x="600.5" y="217.8525">repositories</text><polygon fill="#181818" points="798,250.4063,808,254.4063,798,258.4063,802,254.4063" style="stroke:#181818;stroke-width:1.0;"/><line style="stroke:#181818;stroke-width:1.0;" x1="572.5" x2="804" y1="254.4063" y2="254.4063"/><text fill="#000000" font-family="sans-serif" font-size="13" font-weight="bold" lengthAdjust="spacing" textLength="7" x="579.5" y="249.1436">5</text><text fill="#000000" font-family="sans-serif" font-size="13" lengthAdjust="spacing" textLength="119" x="590.5" y="249.1436">getEntryRepository()</text><polygon fill="#181818" points="583.5,281.6973,573.5,285.6973,583.5,289.6973,579.5,285.6973" style="stroke:#181818;stroke-width:1.0;"/><line style="stroke:#181818;stroke-width:1.0;stroke-dasharray:2.0,2.0;" x1="577.5" x2="814" y1="285.6973" y2="285.6973"/><text fill="#000000" font-family="sans-serif" font-size="13" font-weight="bold" lengthAdjust="spacing" textLength="7" x="589.5" y="280.4346">6</text><text fill="#000000" font-family="sans-serif" font-size="13" lengthAdjust="spacing" textLength="91" x="600.5" y="280.4346">entryRepository</text><polygon fill="#181818" points="798,312.9883,808,316.9883,798,320.9883,802,316.9883" style="stroke:#181818;stroke-width:1.0;"/><line style="stroke:#181818;stroke-width:1.0;" x1="572.5" x2="804" y1="316.9883" y2="316.9883"/><text fill="#000000" font-family="sans-serif" font-size="13" font-weight="bold" lengthAdjust="spacing" textLength="7" x="579.5" y="311.7256">7</text><text fill="#000000" font-family="sans-serif" font-size="13" lengthAdjust="spacing" textLength="170" x="590.5" y="311.7256">getGreenSpaceRepositories()</text><polygon fill="#181818" points="583.5,344.2793,573.5,348.2793,583.5,352.2793,579.5,348.2793" style="stroke:#181818;stroke-width:1.0;"/><line style="stroke:#181818;stroke-width:1.0;stroke-dasharray:2.0,2.0;" x1="577.5" x2="814" y1="348.2793" y2="348.2793"/><text fill="#000000" font-family="sans-serif" font-size="13" font-weight="bold" lengthAdjust="spacing" textLength="7" x="589.5" y="343.0166">8</text><text fill="#000000" font-family="sans-serif" font-size="13" lengthAdjust="spacing" textLength="131" x="600.5" y="343.0166">greenSpaceRepository</text><polygon fill="#181818" points="945,375.5703,955,379.5703,945,383.5703,949,379.5703" style="stroke:#181818;stroke-width:1.0;"/><line style="stroke:#181818;stroke-width:1.0;" x1="572.5" x2="951" y1="379.5703" y2="379.5703"/><text fill="#000000" font-family="sans-serif" font-size="13" font-weight="bold" lengthAdjust="spacing" textLength="7" x="579.5" y="374.3076">9</text><text fill="#000000" font-family="sans-serif" font-size="13" lengthAdjust="spacing" textLength="119" x="590.5" y="374.3076">getGreenSpaceList()</text><polygon fill="#181818" points="2136,406.8613,2146,410.8613,2136,414.8613,2140,410.8613" style="stroke:#181818;stroke-width:1.0;"/><line style="stroke:#181818;stroke-width:1.0;" x1="967" x2="2142" y1="410.8613" y2="410.8613"/><text fill="#000000" font-family="sans-serif" font-size="13" font-weight="bold" lengthAdjust="spacing" textLength="14" x="974" y="405.5986">10</text><text fill="#000000" font-family="sans-serif" font-size="13" lengthAdjust="spacing" textLength="44" x="992" y="405.5986">create()</text><polygon fill="#181818" points="583.5,468.1523,573.5,472.1523,583.5,476.1523,579.5,472.1523" style="stroke:#181818;stroke-width:1.0;"/><line style="stroke:#181818;stroke-width:1.0;stroke-dasharray:2.0,2.0;" x1="577.5" x2="961" y1="472.1523" y2="472.1523"/><text fill="#000000" font-family="sans-serif" font-size="13" font-weight="bold" lengthAdjust="spacing" textLength="14" x="589.5" y="466.8896">11</text><text fill="#000000" font-family="sans-serif" font-size="13" lengthAdjust="spacing" textLength="90" x="607.5" y="466.8896">greenSpaceList</text><polygon fill="#181818" points="1638.5,499.4434,1648.5,503.4434,1638.5,507.4434,1642.5,503.4434" style="stroke:#181818;stroke-width:1.0;"/><line style="stroke:#181818;stroke-width:1.0;" x1="572.5" x2="1644.5" y1="503.4434" y2="503.4434"/><text fill="#000000" font-family="sans-serif" font-size="13" font-weight="bold" lengthAdjust="spacing" textLength="14" x="579.5" y="498.1807">12</text><text fill="#000000" font-family="sans-serif" font-size="13" lengthAdjust="spacing" textLength="129" x="597.5" y="498.1807">toDto(greenSpaceList)</text><polygon fill="#181818" points="1761,530.7344,1771,534.7344,1761,538.7344,1765,534.7344" style="stroke:#181818;stroke-width:1.0;"/><line style="stroke:#181818;stroke-width:1.0;" x1="1660.5" x2="1767" y1="534.7344" y2="534.7344"/><text fill="#000000" font-family="sans-serif" font-size="13" font-weight="bold" lengthAdjust="spacing" textLength="14" x="1667.5" y="529.4717">13</text><text fill="#000000" font-family="sans-serif" font-size="13" lengthAdjust="spacing" textLength="44" x="1685.5" y="529.4717">create()</text><rect fill="#E3E3E3" height="32.6211" rx="2.5" ry="2.5" style="stroke:#181818;stroke-width:0.5;" width="287" x="1773" y="511.4434"/><text fill="#000000" font-family="sans-serif" font-size="14" lengthAdjust="spacing" textLength="273" x="1780" y="533.5508">greenSpaceListDto : List&lt;GreenSpaceDto&gt;</text><polygon fill="#181818" points="2136,574.3555,2146,578.3555,2136,582.3555,2140,578.3555" style="stroke:#181818;stroke-width:1.0;"/><line style="stroke:#181818;stroke-width:1.0;" x1="1660.5" x2="2142" y1="578.3555" y2="578.3555"/><text fill="#000000" font-family="sans-serif" font-size="13" font-weight="bold" lengthAdjust="spacing" textLength="14" x="1667.5" y="573.0928">14</text><text fill="#000000" font-family="sans-serif" font-size="13" lengthAdjust="spacing" textLength="114" x="1685.5" y="573.0928">greenSpace = get(i)</text><line style="stroke:#181818;stroke-width:1.0;" x1="1660.5" x2="1707.5" y1="634.6465" y2="634.6465"/><line style="stroke:#181818;stroke-width:1.0;" x1="1707.5" x2="1707.5" y1="634.6465" y2="647.6465"/><line style="stroke:#181818;stroke-width:1.0;" x1="1666.5" x2="1707.5" y1="647.6465" y2="647.6465"/><polygon fill="#181818" points="1676.5,643.6465,1666.5,647.6465,1676.5,651.6465,1672.5,647.6465" style="stroke:#181818;stroke-width:1.0;"/><text fill="#000000" font-family="sans-serif" font-size="13" font-weight="bold" lengthAdjust="spacing" textLength="14" x="1672.5" y="629.3838">15</text><text fill="#000000" font-family="sans-serif" font-size="13" lengthAdjust="spacing" textLength="219" x="1690.5" y="629.3838">greenSpaceDto = toDTO(greenSpace)</text><polygon fill="#181818" points="1563.5,679.9375,1553.5,683.9375,1563.5,687.9375,1559.5,683.9375" style="stroke:#181818;stroke-width:1.0;"/><line style="stroke:#181818;stroke-width:1.0;" x1="1557.5" x2="1649.5" y1="683.9375" y2="683.9375"/><text fill="#000000" font-family="sans-serif" font-size="13" font-weight="bold" lengthAdjust="spacing" textLength="14" x="1569.5" y="678.6748">16</text><text fill="#000000" font-family="sans-serif" font-size="13" lengthAdjust="spacing" textLength="56" x="1587.5" y="678.6748">create(...)</text><rect fill="#E3E3E3" height="32.6211" rx="2.5" ry="2.5" style="stroke:#181818;stroke-width:0.5;" width="120" x="1432.5" y="660.6465"/><text fill="#000000" font-family="sans-serif" font-size="14" lengthAdjust="spacing" textLength="106" x="1439.5" y="682.7539">:GreenSpaceDto</text><polygon fill="#181818" points="1899.5,723.5586,1909.5,727.5586,1899.5,731.5586,1903.5,727.5586" style="stroke:#181818;stroke-width:1.0;"/><line style="stroke:#181818;stroke-width:1.0;" x1="1660.5" x2="1905.5" y1="727.5586" y2="727.5586"/><text fill="#000000" font-family="sans-serif" font-size="13" font-weight="bold" lengthAdjust="spacing" textLength="14" x="1667.5" y="722.2959">17</text><text fill="#000000" font-family="sans-serif" font-size="13" lengthAdjust="spacing" textLength="118" x="1685.5" y="722.2959">add(greenSpaceDto)</text><polygon fill="#181818" points="583.5,784.8496,573.5,788.8496,583.5,792.8496,579.5,788.8496" style="stroke:#181818;stroke-width:1.0;"/><line style="stroke:#181818;stroke-width:1.0;stroke-dasharray:2.0,2.0;" x1="577.5" x2="1654.5" y1="788.8496" y2="788.8496"/><text fill="#000000" font-family="sans-serif" font-size="13" font-weight="bold" lengthAdjust="spacing" textLength="14" x="589.5" y="783.5869">18</text><text fill="#000000" font-family="sans-serif" font-size="13" lengthAdjust="spacing" textLength="110" x="607.5" y="783.5869">greenSpaceListDto</text><polygon fill="#181818" points="378.5,816.1406,368.5,820.1406,378.5,824.1406,374.5,820.1406" style="stroke:#181818;stroke-width:1.0;"/><line style="stroke:#181818;stroke-width:1.0;stroke-dasharray:2.0,2.0;" x1="372.5" x2="561.5" y1="820.1406" y2="820.1406"/><text fill="#000000" font-family="sans-serif" font-size="13" font-weight="bold" lengthAdjust="spacing" textLength="14" x="384.5" y="814.8779">19</text><text fill="#000000" font-family="sans-serif" font-size="13" lengthAdjust="spacing" textLength="110" x="402.5" y="814.8779">greenSpaceListDto</text><polygon fill="#181818" points="39.5,847.4316,29.5,851.4316,39.5,855.4316,35.5,851.4316" style="stroke:#181818;stroke-width:1.0;"/><line style="stroke:#181818;stroke-width:1.0;stroke-dasharray:2.0,2.0;" x1="33.5" x2="356.5" y1="851.4316" y2="851.4316"/><text fill="#000000" font-family="sans-serif" font-size="13" font-weight="bold" lengthAdjust="spacing" textLength="14" x="45.5" y="846.1689">20</text><text fill="#000000" font-family="sans-serif" font-size="13" lengthAdjust="spacing" textLength="251" x="63.5" y="846.1689">show greenspace list and ask to select one</text><polygon fill="#181818" points="345.5,878.7227,355.5,882.7227,345.5,886.7227,349.5,882.7227" style="stroke:#181818;stroke-width:1.0;"/><line style="stroke:#181818;stroke-width:1.0;" x1="28.5" x2="351.5" y1="882.7227" y2="882.7227"/><text fill="#000000" font-family="sans-serif" font-size="13" font-weight="bold" lengthAdjust="spacing" textLength="14" x="35.5" y="877.46">21</text><text fill="#000000" font-family="sans-serif" font-size="13" lengthAdjust="spacing" textLength="117" x="53.5" y="877.46">selects green space</text><polygon fill="#181818" points="550.5,910.0137,560.5,914.0137,550.5,918.0137,554.5,914.0137" style="stroke:#181818;stroke-width:1.0;"/><line style="stroke:#181818;stroke-width:1.0;" x1="367.5" x2="556.5" y1="914.0137" y2="914.0137"/><text fill="#000000" font-family="sans-serif" font-size="13" font-weight="bold" lengthAdjust="spacing" textLength="14" x="374.5" y="908.751">22</text><text fill="#000000" font-family="sans-serif" font-size="13" lengthAdjust="spacing" textLength="115" x="392.5" y="908.751">getDegreeUrgency()</text><polygon fill="#181818" points="1320,941.3047,1330,945.3047,1320,949.3047,1324,945.3047" style="stroke:#181818;stroke-width:1.0;"/><line style="stroke:#181818;stroke-width:1.0;" x1="572.5" x2="1326" y1="945.3047" y2="945.3047"/><text fill="#000000" font-family="sans-serif" font-size="13" font-weight="bold" lengthAdjust="spacing" textLength="14" x="579.5" y="940.042">23</text><text fill="#000000" font-family="sans-serif" font-size="13" lengthAdjust="spacing" textLength="170" x="597.5" y="940.042">getEnumDegreeUrgencyList()</text><polygon fill="#181818" points="583.5,972.5957,573.5,976.5957,583.5,980.5957,579.5,976.5957" style="stroke:#181818;stroke-width:1.0;"/><line style="stroke:#181818;stroke-width:1.0;stroke-dasharray:2.0,2.0;" x1="577.5" x2="1336" y1="976.5957" y2="976.5957"/><text fill="#000000" font-family="sans-serif" font-size="13" font-weight="bold" lengthAdjust="spacing" textLength="14" x="589.5" y="971.333">24</text><text fill="#000000" font-family="sans-serif" font-size="13" lengthAdjust="spacing" textLength="142" x="607.5" y="971.333">enumDegreeUrgencyList</text><polygon fill="#181818" points="378.5,1003.8867,368.5,1007.8867,378.5,1011.8867,374.5,1007.8867" style="stroke:#181818;stroke-width:1.0;"/><line style="stroke:#181818;stroke-width:1.0;stroke-dasharray:2.0,2.0;" x1="372.5" x2="561.5" y1="1007.8867" y2="1007.8867"/><text fill="#000000" font-family="sans-serif" font-size="13" font-weight="bold" lengthAdjust="spacing" textLength="14" x="384.5" y="1002.624">25</text><text fill="#000000" font-family="sans-serif" font-size="13" lengthAdjust="spacing" textLength="142" x="402.5" y="1002.624">enumDegreeUrgencyList</text><polygon fill="#181818" points="39.5,1035.1777,29.5,1039.1777,39.5,1043.1777,35.5,1039.1777" style="stroke:#181818;stroke-width:1.0;"/><line style="stroke:#181818;stroke-width:1.0;stroke-dasharray:2.0,2.0;" x1="33.5" x2="356.5" y1="1039.1777" y2="1039.1777"/><text fill="#000000" font-family="sans-serif" font-size="13" font-weight="bold" lengthAdjust="spacing" textLength="14" x="45.5" y="1033.915">26</text><text fill="#000000" font-family="sans-serif" font-size="13" lengthAdjust="spacing" textLength="287" x="63.5" y="1033.915">show degree of urgency list and ask to select one</text><polygon fill="#181818" points="345.5,1066.4688,355.5,1070.4688,345.5,1074.4688,349.5,1070.4688" style="stroke:#181818;stroke-width:1.0;"/><line style="stroke:#181818;stroke-width:1.0;" x1="28.5" x2="351.5" y1="1070.4688" y2="1070.4688"/><text fill="#000000" font-family="sans-serif" font-size="13" font-weight="bold" lengthAdjust="spacing" textLength="14" x="35.5" y="1065.2061">27</text><text fill="#000000" font-family="sans-serif" font-size="13" lengthAdjust="spacing" textLength="157" x="53.5" y="1065.2061">selects the urgency degree</text><polygon fill="#181818" points="39.5,1097.7598,29.5,1101.7598,39.5,1105.7598,35.5,1101.7598" style="stroke:#181818;stroke-width:1.0;"/><line style="stroke:#181818;stroke-width:1.0;stroke-dasharray:2.0,2.0;" x1="33.5" x2="356.5" y1="1101.7598" y2="1101.7598"/><text fill="#000000" font-family="sans-serif" font-size="13" font-weight="bold" lengthAdjust="spacing" textLength="14" x="45.5" y="1096.4971">28</text><text fill="#000000" font-family="sans-serif" font-size="13" lengthAdjust="spacing" textLength="194" x="63.5" y="1096.4971">requests data (expected duration)</text><polygon fill="#181818" points="345.5,1129.0508,355.5,1133.0508,345.5,1137.0508,349.5,1133.0508" style="stroke:#181818;stroke-width:1.0;"/><line style="stroke:#181818;stroke-width:1.0;" x1="28.5" x2="351.5" y1="1133.0508" y2="1133.0508"/><text fill="#000000" font-family="sans-serif" font-size="13" font-weight="bold" lengthAdjust="spacing" textLength="14" x="35.5" y="1127.7881">29</text><text fill="#000000" font-family="sans-serif" font-size="13" lengthAdjust="spacing" textLength="61" x="53.5" y="1127.7881">types data</text><polygon fill="#181818" points="39.5,1160.3418,29.5,1164.3418,39.5,1168.3418,35.5,1164.3418" style="stroke:#181818;stroke-width:1.0;"/><line style="stroke:#181818;stroke-width:1.0;stroke-dasharray:2.0,2.0;" x1="33.5" x2="356.5" y1="1164.3418" y2="1164.3418"/><text fill="#000000" font-family="sans-serif" font-size="13" font-weight="bold" lengthAdjust="spacing" textLength="14" x="45.5" y="1159.0791">30</text><text fill="#000000" font-family="sans-serif" font-size="13" lengthAdjust="spacing" textLength="205" x="63.5" y="1159.0791">show data and request confirmation</text><polygon fill="#181818" points="345.5,1191.6328,355.5,1195.6328,345.5,1199.6328,349.5,1195.6328" style="stroke:#181818;stroke-width:1.0;"/><line style="stroke:#181818;stroke-width:1.0;" x1="28.5" x2="351.5" y1="1195.6328" y2="1195.6328"/><text fill="#000000" font-family="sans-serif" font-size="13" font-weight="bold" lengthAdjust="spacing" textLength="14" x="35.5" y="1190.3701">31</text><text fill="#000000" font-family="sans-serif" font-size="13" lengthAdjust="spacing" textLength="78" x="53.5" y="1190.3701">confirms data</text><polygon fill="#181818" points="550.5,1222.9238,560.5,1226.9238,550.5,1230.9238,554.5,1226.9238" style="stroke:#181818;stroke-width:1.0;"/><line style="stroke:#181818;stroke-width:1.0;" x1="367.5" x2="556.5" y1="1226.9238" y2="1226.9238"/><text fill="#000000" font-family="sans-serif" font-size="13" font-weight="bold" lengthAdjust="spacing" textLength="14" x="374.5" y="1221.6611">32</text><text fill="#000000" font-family="sans-serif" font-size="13" lengthAdjust="spacing" textLength="153" x="392.5" y="1221.6611">registerNewTask(entryDto)</text><polygon fill="#181818" points="1102.5,1254.2148,1112.5,1258.2148,1102.5,1262.2148,1106.5,1258.2148" style="stroke:#181818;stroke-width:1.0;"/><line style="stroke:#181818;stroke-width:1.0;" x1="572.5" x2="1108.5" y1="1258.2148" y2="1258.2148"/><text fill="#000000" font-family="sans-serif" font-size="13" font-weight="bold" lengthAdjust="spacing" textLength="14" x="579.5" y="1252.9521">33</text><text fill="#000000" font-family="sans-serif" font-size="13" lengthAdjust="spacing" textLength="153" x="597.5" y="1252.9521">registerNewTask(entryDto)</text><polygon fill="#181818" points="1359.5,1285.5059,1369.5,1289.5059,1359.5,1293.5059,1363.5,1289.5059" style="stroke:#181818;stroke-width:1.0;"/><line style="stroke:#181818;stroke-width:1.0;" x1="1119.5" x2="1365.5" y1="1289.5059" y2="1289.5059"/><text fill="#000000" font-family="sans-serif" font-size="13" font-weight="bold" lengthAdjust="spacing" textLength="14" x="1126.5" y="1284.2432">34</text><text fill="#000000" font-family="sans-serif" font-size="13" lengthAdjust="spacing" textLength="93" x="1144.5" y="1284.2432">create(entryDto)</text><rect fill="#E3E3E3" height="32.6211" rx="2.5" ry="2.5" style="stroke:#181818;stroke-width:0.5;" width="51" x="1371.5" y="1266.2148"/><text fill="#000000" font-family="sans-serif" font-size="14" lengthAdjust="spacing" textLength="37" x="1378.5" y="1288.3223">:Entry</text><polygon fill="#181818" points="2294.5,1329.127,2304.5,1333.127,2294.5,1337.127,2298.5,1333.127" style="stroke:#181818;stroke-width:1.0;"/><line style="stroke:#181818;stroke-width:1.0;" x1="1402" x2="2300.5" y1="1333.127" y2="1333.127"/><text fill="#000000" font-family="sans-serif" font-size="13" font-weight="bold" lengthAdjust="spacing" textLength="14" x="1409" y="1327.8643">35</text><text fill="#000000" font-family="sans-serif" font-size="13" lengthAdjust="spacing" textLength="190" x="1427" y="1327.8643">stateOfEntry = getStateOfEntry()</text><polygon fill="#181818" points="1413,1360.418,1403,1364.418,1413,1368.418,1409,1364.418" style="stroke:#181818;stroke-width:1.0;"/><line style="stroke:#181818;stroke-width:1.0;stroke-dasharray:2.0,2.0;" x1="1407" x2="2305.5" y1="1364.418" y2="1364.418"/><text fill="#000000" font-family="sans-serif" font-size="13" font-weight="bold" lengthAdjust="spacing" textLength="14" x="1419" y="1359.1553">36</text><text fill="#000000" font-family="sans-serif" font-size="13" lengthAdjust="spacing" textLength="73" x="1437" y="1359.1553">stateOfEntry</text><polygon fill="#181818" points="2294.5,1391.709,2304.5,1395.709,2294.5,1399.709,2298.5,1395.709" style="stroke:#181818;stroke-width:1.0;"/><line style="stroke:#181818;stroke-width:1.0;" x1="1402" x2="2300.5" y1="1395.709" y2="1395.709"/><text fill="#000000" font-family="sans-serif" font-size="13" font-weight="bold" lengthAdjust="spacing" textLength="14" x="1409" y="1390.4463">37</text><text fill="#000000" font-family="sans-serif" font-size="13" lengthAdjust="spacing" textLength="183" x="1427" y="1390.4463">greenSpace = getGreenSpace()</text><polygon fill="#181818" points="1413,1423,1403,1427,1413,1431,1409,1427" style="stroke:#181818;stroke-width:1.0;"/><line style="stroke:#181818;stroke-width:1.0;stroke-dasharray:2.0,2.0;" x1="1407" x2="2305.5" y1="1427" y2="1427"/><text fill="#000000" font-family="sans-serif" font-size="13" font-weight="bold" lengthAdjust="spacing" textLength="14" x="1419" y="1421.7373">38</text><text fill="#000000" font-family="sans-serif" font-size="13" lengthAdjust="spacing" textLength="69" x="1437" y="1421.7373">greenSpace</text><polygon fill="#181818" points="2294.5,1454.291,2304.5,1458.291,2294.5,1462.291,2298.5,1458.291" style="stroke:#181818;stroke-width:1.0;"/><line style="stroke:#181818;stroke-width:1.0;" x1="1402" x2="2300.5" y1="1458.291" y2="1458.291"/><text fill="#000000" font-family="sans-serif" font-size="13" font-weight="bold" lengthAdjust="spacing" textLength="14" x="1409" y="1453.0283">39</text><text fill="#000000" font-family="sans-serif" font-size="13" lengthAdjust="spacing" textLength="175" x="1427" y="1453.0283">titleOfEntry = getTitleOfEntry()</text><polygon fill="#181818" points="1413,1485.582,1403,1489.582,1413,1493.582,1409,1489.582" style="stroke:#181818;stroke-width:1.0;"/><line style="stroke:#181818;stroke-width:1.0;stroke-dasharray:2.0,2.0;" x1="1407" x2="2305.5" y1="1489.582" y2="1489.582"/><text fill="#000000" font-family="sans-serif" font-size="13" font-weight="bold" lengthAdjust="spacing" textLength="14" x="1419" y="1484.3193">40</text><text fill="#000000" font-family="sans-serif" font-size="13" lengthAdjust="spacing" textLength="65" x="1437" y="1484.3193">titleOfEntry</text><polygon fill="#181818" points="2294.5,1516.873,2304.5,1520.873,2294.5,1524.873,2298.5,1520.873" style="stroke:#181818;stroke-width:1.0;"/><line style="stroke:#181818;stroke-width:1.0;" x1="1402" x2="2300.5" y1="1520.873" y2="1520.873"/><text fill="#000000" font-family="sans-serif" font-size="13" font-weight="bold" lengthAdjust="spacing" textLength="14" x="1409" y="1515.6104">41</text><text fill="#000000" font-family="sans-serif" font-size="13" lengthAdjust="spacing" textLength="258" x="1427" y="1515.6104">descriptionOfEntry = getDescriptionOfEntry()</text><polygon fill="#181818" points="1413,1548.1641,1403,1552.1641,1413,1556.1641,1409,1552.1641" style="stroke:#181818;stroke-width:1.0;"/><line style="stroke:#181818;stroke-width:1.0;stroke-dasharray:2.0,2.0;" x1="1407" x2="2305.5" y1="1552.1641" y2="1552.1641"/><text fill="#000000" font-family="sans-serif" font-size="13" font-weight="bold" lengthAdjust="spacing" textLength="14" x="1419" y="1546.9014">42</text><text fill="#000000" font-family="sans-serif" font-size="13" lengthAdjust="spacing" textLength="107" x="1437" y="1546.9014">descriptionOfEntry</text><polygon fill="#181818" points="2294.5,1579.4551,2304.5,1583.4551,2294.5,1587.4551,2298.5,1583.4551" style="stroke:#181818;stroke-width:1.0;"/><line style="stroke:#181818;stroke-width:1.0;" x1="1402" x2="2300.5" y1="1583.4551" y2="1583.4551"/><text fill="#000000" font-family="sans-serif" font-size="13" font-weight="bold" lengthAdjust="spacing" textLength="14" x="1409" y="1578.1924">43</text><text fill="#000000" font-family="sans-serif" font-size="13" lengthAdjust="spacing" textLength="392" x="1427" y="1578.1924">approximateExpectedDuration = getApproximateExpectedDuration()</text><polygon fill="#181818" points="1413,1610.7461,1403,1614.7461,1413,1618.7461,1409,1614.7461" style="stroke:#181818;stroke-width:1.0;"/><line style="stroke:#181818;stroke-width:1.0;stroke-dasharray:2.0,2.0;" x1="1407" x2="2305.5" y1="1614.7461" y2="1614.7461"/><text fill="#000000" font-family="sans-serif" font-size="13" font-weight="bold" lengthAdjust="spacing" textLength="14" x="1419" y="1609.4834">44</text><text fill="#000000" font-family="sans-serif" font-size="13" lengthAdjust="spacing" textLength="174" x="1437" y="1609.4834">approximateExpectedDuration</text><polygon fill="#181818" points="2294.5,1642.0371,2304.5,1646.0371,2294.5,1650.0371,2298.5,1646.0371" style="stroke:#181818;stroke-width:1.0;"/><line style="stroke:#181818;stroke-width:1.0;" x1="1402" x2="2300.5" y1="1646.0371" y2="1646.0371"/><text fill="#000000" font-family="sans-serif" font-size="13" font-weight="bold" lengthAdjust="spacing" textLength="14" x="1409" y="1640.7744">45</text><text fill="#000000" font-family="sans-serif" font-size="13" lengthAdjust="spacing" textLength="231" x="1427" y="1640.7744">degreeOfUrgency = getDegreeUrgency()</text><polygon fill="#181818" points="1413,1673.3281,1403,1677.3281,1413,1681.3281,1409,1677.3281" style="stroke:#181818;stroke-width:1.0;"/><line style="stroke:#181818;stroke-width:1.0;stroke-dasharray:2.0,2.0;" x1="1407" x2="2310.5" y1="1677.3281" y2="1677.3281"/><text fill="#000000" font-family="sans-serif" font-size="13" font-weight="bold" lengthAdjust="spacing" textLength="14" x="1419" y="1672.0654">46</text><text fill="#000000" font-family="sans-serif" font-size="13" lengthAdjust="spacing" textLength="100" x="1437" y="1672.0654">degreeOfUrgency</text><polygon fill="#181818" points="1130.5,1704.6191,1120.5,1708.6191,1130.5,1712.6191,1126.5,1708.6191" style="stroke:#181818;stroke-width:1.0;"/><line style="stroke:#181818;stroke-width:1.0;stroke-dasharray:2.0,2.0;" x1="1124.5" x2="1391" y1="1708.6191" y2="1708.6191"/><text fill="#000000" font-family="sans-serif" font-size="13" font-weight="bold" lengthAdjust="spacing" textLength="14" x="1136.5" y="1703.3564">47</text><text fill="#000000" font-family="sans-serif" font-size="13" lengthAdjust="spacing" textLength="53" x="1154.5" y="1703.3564">true/false</text><line style="stroke:#181818;stroke-width:1.0;" x1="1119.5" x2="1161.5" y1="1739.9102" y2="1739.9102"/><line style="stroke:#181818;stroke-width:1.0;" x1="1161.5" x2="1161.5" y1="1739.9102" y2="1752.9102"/><line style="stroke:#181818;stroke-width:1.0;" x1="1120.5" x2="1161.5" y1="1752.9102" y2="1752.9102"/><polygon fill="#181818" points="1130.5,1748.9102,1120.5,1752.9102,1130.5,1756.9102,1126.5,1752.9102" style="stroke:#181818;stroke-width:1.0;"/><text fill="#000000" font-family="sans-serif" font-size="13" font-weight="bold" lengthAdjust="spacing" textLength="14" x="1126.5" y="1734.6475">48</text><text fill="#000000" font-family="sans-serif" font-size="13" lengthAdjust="spacing" textLength="102" x="1144.5" y="1734.6475">verifyIfExist(entry)</text><polygon fill="#181818" points="583.5,1780.2012,573.5,1784.2012,583.5,1788.2012,579.5,1784.2012" style="stroke:#181818;stroke-width:1.0;"/><line style="stroke:#181818;stroke-width:1.0;stroke-dasharray:2.0,2.0;" x1="577.5" x2="1118.5" y1="1784.2012" y2="1784.2012"/><text fill="#000000" font-family="sans-serif" font-size="13" font-weight="bold" lengthAdjust="spacing" textLength="14" x="589.5" y="1778.9385">49</text><text fill="#000000" font-family="sans-serif" font-size="13" lengthAdjust="spacing" textLength="53" x="607.5" y="1778.9385">true/false</text><polygon fill="#181818" points="378.5,1811.4922,368.5,1815.4922,378.5,1819.4922,374.5,1815.4922" style="stroke:#181818;stroke-width:1.0;"/><line style="stroke:#181818;stroke-width:1.0;stroke-dasharray:2.0,2.0;" x1="372.5" x2="561.5" y1="1815.4922" y2="1815.4922"/><text fill="#000000" font-family="sans-serif" font-size="13" font-weight="bold" lengthAdjust="spacing" textLength="14" x="384.5" y="1810.2295">50</text><text fill="#000000" font-family="sans-serif" font-size="13" lengthAdjust="spacing" textLength="53" x="402.5" y="1810.2295">true/false</text><polygon fill="#181818" points="34.5,1842.7832,24.5,1846.7832,34.5,1850.7832,30.5,1846.7832" style="stroke:#181818;stroke-width:1.0;"/><line style="stroke:#181818;stroke-width:1.0;stroke-dasharray:2.0,2.0;" x1="28.5" x2="361.5" y1="1846.7832" y2="1846.7832"/><text fill="#000000" font-family="sans-serif" font-size="13" font-weight="bold" lengthAdjust="spacing" textLength="14" x="40.5" y="1841.5205">51</text><text fill="#000000" font-family="sans-serif" font-size="13" lengthAdjust="spacing" textLength="158" x="58.5" y="1841.5205">displays operation success</text><!--SRC=[dLTBKzim4BxxLsYuD646UlSKPYZ9TEX0mv1muoBiJT3WIAwa5FBlkolv9LisfLo8LhlVFhJxIJQlGfPSyptRAwco5wtsmAm-G6AQdP9dhtm7QtiiW6d8B9UxegjWNdYkteJSiIql32G9FrWb3_jdq4dovKNamBPAsMVrdl3CAirEVgplJXWt3FydY6559aekBJj97s0dZ0MzuURrySOfFTvCw5mhQRKg2j1EzthpS3lGBfKHw5Q0SJgDuBWMb0d66fheZiMJ70BStrvjGeiV6a2kiL3m4Dh6DtpkqQqG5p2vOnjl-YINeSGXzMHZeGNXz488RQYmw8l-EJtwqQkgy-asLzz_zlPQs8LLJcUnMOtgtF6oh4xlxkh-VlaGQkuQnLiyT0HaAQDVtm8lbyxUQVHTaN1eqnf4Aew0gQzgdK2zI19gOV67Mt3Dcx3g3nVix19x5LrXjHZ6oVESSIRXZJbG4jaNO1jrjb3USstSG6AhDqA4Ga1gwDDJ1CqqeCPiFZHoFT-8QKM6aIv7b1tO6sbmWhCeL6mq6gqOubaLOigwGzEOvF1lq7NGD5ako5vBns9rKzY8QTM9fZSuiO12-q44yV7yT22x8Smdeea7qOkFMYaMrmZ1j2qRtIUtX3ZLSK7pTf9myW_n8xKP0_meXRfEdZXI736SqLc86uc_ufbcmw_hp951meaRqMFT3DW57SfC_7UrMkpgLnUTQE-2ijkiEjbzAZEVLPlM-VdvF1RLXxKXWilpMH3SIDR4nIE9qzR0HzKPhDyQHBp_4Ahl1iV2COI0MMcurdSflbtKczSrxXWBEbWkyvh43HJuuc5AGeJhqshRU0Jc868Cxfbt0QJsg7SWCwAqOH-xYzVpts4Vg8yDkRkQMo1Q1ZGOWOcLqiD42nd762zcxdIPshA3r__Vcj9bMKDuqBXN3RyFOD0WvvQp6RoNQ0uvom-QMw7aFEh57alm9bEv4295NlbWcP9ReVSEDmfRASIGsvlIFrz_mHkLVLO_EUR3VkXTWrEsWyxelmeRZTu6-S4ttEbfGmr3q4wdB4TkraQ1teED51TD7kvLXMyF2wkj4tZEN7Saix4yWlcj9Uwmq4E8Ek6yJzVjzT9b-I5yQpS1ReKjmims7ScqWwxjX8iSJAP5ISqNE5eCvDFkXZWJJl5vhjMxm9w7PJLQYsgolFUhSONfC2QG9uj0nx7QLcnKLw17hLF91_QZFHwqd8iYDf3qhVor-koT6B2-A6L_G8ljyMQxV2TcToCtdu1es2FcCE3hc49BREWv5wOi-D4mXTzT_XpD8Sl0cCv5qga6VfJ4dcRuzVCN]--></g></svg>