<?xml version="1.0" encoding="us-ascii" standalone="no"?><svg xmlns="http://www.w3.org/2000/svg" xmlns:xlink="http://www.w3.org/1999/xlink" contentStyleType="text/css" height="868px" preserveAspectRatio="none" style="width:1735px;height:868px;background:#FFFFFF;" version="1.1" viewBox="0 0 1735 868" width="1735px" zoomAndPan="magnify"><defs/><g><rect fill="#FFFFFF" height="712.2285" style="stroke:#181818;stroke-width:1.0;" width="10" x="262" y="90.5332"/><rect fill="#FFFFFF" height="670.9375" style="stroke:#181818;stroke-width:1.0;" width="10" x="428" y="131.8242"/><rect fill="#FFFFFF" height="31.291" style="stroke:#181818;stroke-width:1.0;" width="10" x="568.5" y="165.4453"/><rect fill="#FFFFFF" height="31.291" style="stroke:#181818;stroke-width:1.0;" width="10" x="675.5" y="228.0273"/><rect fill="#FFFFFF" height="31.291" style="stroke:#181818;stroke-width:1.0;" width="10" x="675.5" y="290.6094"/><rect fill="#FFFFFF" height="92.582" style="stroke:#181818;stroke-width:1.0;" width="10" x="822.5" y="353.1914"/><rect fill="#FFFFFF" height="285.4063" style="stroke:#181818;stroke-width:1.0;" width="10" x="1144" y="477.0645"/><rect fill="#FFFFFF" height="36.291" style="stroke:#181818;stroke-width:1.0;" width="10" x="1149" y="621.2676"/><rect fill="#FFFFFF" height="30" style="stroke:#181818;stroke-width:1.0;" width="10" x="1405" y="701.1797"/><rect fill="#FFFFFF" height="30" style="stroke:#181818;stroke-width:1.0;" width="10" x="1641.5" y="384.4824"/><rect fill="#FFFFFF" height="30" style="stroke:#181818;stroke-width:1.0;" width="10" x="1641.5" y="551.9766"/><line style="stroke:#181818;stroke-width:0.5;stroke-dasharray:5.0,5.0;" x1="267" x2="267" y1="57.2422" y2="811.7617"/><line style="stroke:#181818;stroke-width:0.5;stroke-dasharray:5.0,5.0;" x1="433" x2="433" y1="130.3438" y2="811.7617"/><line style="stroke:#181818;stroke-width:0.5;stroke-dasharray:5.0,5.0;" x1="573" x2="573" y1="57.2422" y2="811.7617"/><line style="stroke:#181818;stroke-width:0.5;stroke-dasharray:5.0,5.0;" x1="680" x2="680" y1="57.2422" y2="811.7617"/><line style="stroke:#181818;stroke-width:0.5;stroke-dasharray:5.0,5.0;" x1="827" x2="827" y1="57.2422" y2="811.7617"/><line style="stroke:#181818;stroke-width:0.5;stroke-dasharray:5.0,5.0;" x1="986" x2="986" y1="666.0781" y2="811.7617"/><line style="stroke:#181818;stroke-width:0.5;stroke-dasharray:5.0,5.0;" x1="1149" x2="1149" y1="57.2422" y2="811.7617"/><line style="stroke:#181818;stroke-width:0.5;stroke-dasharray:5.0,5.0;" x1="1409.5" x2="1409.5" y1="516.875" y2="811.7617"/><line style="stroke:#181818;stroke-width:0.5;stroke-dasharray:5.0,5.0;" x1="1646.5" x2="1646.5" y1="57.2422" y2="811.7617"/><rect fill="#E3E3E3" height="32.6211" rx="2.5" ry="2.5" style="stroke:#181818;stroke-width:0.5;" width="114" x="210" y="23.6211"/><text fill="#000000" font-family="sans-serif" font-size="14" lengthAdjust="spacing" textLength="100" x="217" y="45.7285">:RegisterTaskUI</text><rect fill="#E3E3E3" height="32.6211" rx="2.5" ry="2.5" style="stroke:#181818;stroke-width:0.5;" width="114" x="210" y="810.7617"/><text fill="#000000" font-family="sans-serif" font-size="14" lengthAdjust="spacing" textLength="100" x="217" y="832.8691">:RegisterTaskUI</text><rect fill="#E3E3E3" height="32.6211" rx="2.5" ry="2.5" style="stroke:#181818;stroke-width:0.5;" width="164" x="351" y="810.7617"/><text fill="#000000" font-family="sans-serif" font-size="14" lengthAdjust="spacing" textLength="150" x="358" y="832.8691">:RegisterTaskController</text><rect fill="#E3E3E3" height="32.6211" rx="2.5" ry="2.5" style="stroke:#181818;stroke-width:0.5;" width="97" x="525" y="23.6211"/><text fill="#000000" font-family="sans-serif" font-size="14" lengthAdjust="spacing" textLength="83" x="532" y="45.7285">:Repositories</text><rect fill="#E3E3E3" height="32.6211" rx="2.5" ry="2.5" style="stroke:#181818;stroke-width:0.5;" width="97" x="525" y="810.7617"/><text fill="#000000" font-family="sans-serif" font-size="14" lengthAdjust="spacing" textLength="83" x="532" y="832.8691">:Repositories</text><rect fill="#E3E3E3" height="51.2422" rx="2.5" ry="2.5" style="stroke:#181818;stroke-width:0.5;" width="97" x="632" y="5"/><text fill="#000000" font-family="sans-serif" font-size="14" lengthAdjust="spacing" textLength="74" x="643.5" y="27.1074">repositories</text><text fill="#000000" font-family="sans-serif" font-size="14" lengthAdjust="spacing" textLength="83" x="639" y="45.7285">:Repositories</text><rect fill="#E3E3E3" height="51.2422" rx="2.5" ry="2.5" style="stroke:#181818;stroke-width:0.5;" width="97" x="632" y="810.7617"/><text fill="#000000" font-family="sans-serif" font-size="14" lengthAdjust="spacing" textLength="74" x="643.5" y="832.8691">repositories</text><text fill="#000000" font-family="sans-serif" font-size="14" lengthAdjust="spacing" textLength="83" x="639" y="851.4902">:Repositories</text><rect fill="#E3E3E3" height="51.2422" rx="2.5" ry="2.5" style="stroke:#181818;stroke-width:0.5;" width="177" x="739" y="5"/><text fill="#000000" font-family="sans-serif" font-size="14" lengthAdjust="spacing" textLength="159" x="748" y="27.1074">GreenSpaceRepositories</text><text fill="#000000" font-family="sans-serif" font-size="14" lengthAdjust="spacing" textLength="163" x="746" y="45.7285">:GreenSpaceRepositories</text><rect fill="#E3E3E3" height="51.2422" rx="2.5" ry="2.5" style="stroke:#181818;stroke-width:0.5;" width="177" x="739" y="810.7617"/><text fill="#000000" font-family="sans-serif" font-size="14" lengthAdjust="spacing" textLength="159" x="748" y="832.8691">GreenSpaceRepositories</text><text fill="#000000" font-family="sans-serif" font-size="14" lengthAdjust="spacing" textLength="163" x="746" y="851.4902">:GreenSpaceRepositories</text><rect fill="#E3E3E3" height="32.6211" rx="2.5" ry="2.5" style="stroke:#181818;stroke-width:0.5;" width="120" x="926" y="810.7617"/><text fill="#000000" font-family="sans-serif" font-size="14" lengthAdjust="spacing" textLength="106" x="933" y="832.8691">:GreenSpaceDto</text><rect fill="#E3E3E3" height="32.6211" rx="2.5" ry="2.5" style="stroke:#181818;stroke-width:0.5;" width="146" x="1076" y="23.6211"/><text fill="#000000" font-family="sans-serif" font-size="14" lengthAdjust="spacing" textLength="132" x="1083" y="45.7285">:GreenSpaceMapper</text><rect fill="#E3E3E3" height="32.6211" rx="2.5" ry="2.5" style="stroke:#181818;stroke-width:0.5;" width="146" x="1076" y="810.7617"/><text fill="#000000" font-family="sans-serif" font-size="14" lengthAdjust="spacing" textLength="132" x="1083" y="832.8691">:GreenSpaceMapper</text><rect fill="#E3E3E3" height="32.6211" rx="2.5" ry="2.5" style="stroke:#181818;stroke-width:0.5;" width="287" x="1266.5" y="810.7617"/><text fill="#000000" font-family="sans-serif" font-size="14" lengthAdjust="spacing" textLength="273" x="1273.5" y="832.8691">greenSpaceListDto : List&lt;GreenSpaceDto&gt;</text><rect fill="#E3E3E3" height="32.6211" rx="2.5" ry="2.5" style="stroke:#181818;stroke-width:0.5;" width="166" x="1563.5" y="23.6211"/><text fill="#000000" font-family="sans-serif" font-size="14" lengthAdjust="spacing" textLength="152" x="1570.5" y="45.7285">List : List&lt;GreenSpace&gt;</text><rect fill="#E3E3E3" height="32.6211" rx="2.5" ry="2.5" style="stroke:#181818;stroke-width:0.5;" width="166" x="1563.5" y="810.7617"/><text fill="#000000" font-family="sans-serif" font-size="14" lengthAdjust="spacing" textLength="152" x="1570.5" y="832.8691">List : List&lt;GreenSpace&gt;</text><rect fill="#FFFFFF" height="712.2285" style="stroke:#181818;stroke-width:1.0;" width="10" x="262" y="90.5332"/><rect fill="#FFFFFF" height="670.9375" style="stroke:#181818;stroke-width:1.0;" width="10" x="428" y="131.8242"/><rect fill="#FFFFFF" height="31.291" style="stroke:#181818;stroke-width:1.0;" width="10" x="568.5" y="165.4453"/><rect fill="#FFFFFF" height="31.291" style="stroke:#181818;stroke-width:1.0;" width="10" x="675.5" y="228.0273"/><rect fill="#FFFFFF" height="31.291" style="stroke:#181818;stroke-width:1.0;" width="10" x="675.5" y="290.6094"/><rect fill="#FFFFFF" height="92.582" style="stroke:#181818;stroke-width:1.0;" width="10" x="822.5" y="353.1914"/><rect fill="#FFFFFF" height="285.4063" style="stroke:#181818;stroke-width:1.0;" width="10" x="1144" y="477.0645"/><rect fill="#FFFFFF" height="36.291" style="stroke:#181818;stroke-width:1.0;" width="10" x="1149" y="621.2676"/><rect fill="#FFFFFF" height="30" style="stroke:#181818;stroke-width:1.0;" width="10" x="1405" y="701.1797"/><rect fill="#FFFFFF" height="30" style="stroke:#181818;stroke-width:1.0;" width="10" x="1641.5" y="384.4824"/><rect fill="#FFFFFF" height="30" style="stroke:#181818;stroke-width:1.0;" width="10" x="1641.5" y="551.9766"/><polygon fill="#181818" points="250,86.5332,260,90.5332,250,94.5332,254,90.5332" style="stroke:#181818;stroke-width:1.0;"/><line style="stroke:#181818;stroke-width:1.0;" x1="0" x2="256" y1="90.5332" y2="90.5332"/><text fill="#000000" font-family="sans-serif" font-size="13" font-weight="bold" lengthAdjust="spacing" textLength="7" x="7" y="85.2705">1</text><text fill="#000000" font-family="sans-serif" font-size="13" lengthAdjust="spacing" textLength="232" x="18" y="85.2705">ask to add a new entry to the To-Do List</text><polygon fill="#181818" points="339,117.8242,349,121.8242,339,125.8242,343,121.8242" style="stroke:#181818;stroke-width:1.0;"/><line style="stroke:#181818;stroke-width:1.0;" x1="272" x2="345" y1="121.8242" y2="121.8242"/><text fill="#000000" font-family="sans-serif" font-size="13" font-weight="bold" lengthAdjust="spacing" textLength="7" x="279" y="116.5615">2</text><text fill="#000000" font-family="sans-serif" font-size="13" lengthAdjust="spacing" textLength="44" x="290" y="116.5615">create()</text><rect fill="#E3E3E3" height="32.6211" rx="2.5" ry="2.5" style="stroke:#181818;stroke-width:0.5;" width="164" x="351" y="98.5332"/><text fill="#000000" font-family="sans-serif" font-size="14" lengthAdjust="spacing" textLength="150" x="358" y="120.6406">:RegisterTaskController</text><polygon fill="#181818" points="556.5,161.4453,566.5,165.4453,556.5,169.4453,560.5,165.4453" style="stroke:#181818;stroke-width:1.0;"/><line style="stroke:#181818;stroke-width:1.0;" x1="438" x2="562.5" y1="165.4453" y2="165.4453"/><text fill="#000000" font-family="sans-serif" font-size="13" font-weight="bold" lengthAdjust="spacing" textLength="7" x="445" y="160.1826">3</text><text fill="#000000" font-family="sans-serif" font-size="13" lengthAdjust="spacing" textLength="75" x="456" y="160.1826">getInstance()</text><polygon fill="#181818" points="449,192.7363,439,196.7363,449,200.7363,445,196.7363" style="stroke:#181818;stroke-width:1.0;"/><line style="stroke:#181818;stroke-width:1.0;stroke-dasharray:2.0,2.0;" x1="443" x2="572.5" y1="196.7363" y2="196.7363"/><text fill="#000000" font-family="sans-serif" font-size="13" font-weight="bold" lengthAdjust="spacing" textLength="7" x="455" y="191.4736">4</text><text fill="#000000" font-family="sans-serif" font-size="13" lengthAdjust="spacing" textLength="67" x="466" y="191.4736">repositories</text><polygon fill="#181818" points="663.5,224.0273,673.5,228.0273,663.5,232.0273,667.5,228.0273" style="stroke:#181818;stroke-width:1.0;"/><line style="stroke:#181818;stroke-width:1.0;" x1="438" x2="669.5" y1="228.0273" y2="228.0273"/><text fill="#000000" font-family="sans-serif" font-size="13" font-weight="bold" lengthAdjust="spacing" textLength="7" x="445" y="222.7646">5</text><text fill="#000000" font-family="sans-serif" font-size="13" lengthAdjust="spacing" textLength="119" x="456" y="222.7646">getEntryRepository()</text><polygon fill="#181818" points="449,255.3184,439,259.3184,449,263.3184,445,259.3184" style="stroke:#181818;stroke-width:1.0;"/><line style="stroke:#181818;stroke-width:1.0;stroke-dasharray:2.0,2.0;" x1="443" x2="679.5" y1="259.3184" y2="259.3184"/><text fill="#000000" font-family="sans-serif" font-size="13" font-weight="bold" lengthAdjust="spacing" textLength="7" x="455" y="254.0557">6</text><text fill="#000000" font-family="sans-serif" font-size="13" lengthAdjust="spacing" textLength="91" x="466" y="254.0557">entryRepository</text><polygon fill="#181818" points="663.5,286.6094,673.5,290.6094,663.5,294.6094,667.5,290.6094" style="stroke:#181818;stroke-width:1.0;"/><line style="stroke:#181818;stroke-width:1.0;" x1="438" x2="669.5" y1="290.6094" y2="290.6094"/><text fill="#000000" font-family="sans-serif" font-size="13" font-weight="bold" lengthAdjust="spacing" textLength="7" x="445" y="285.3467">7</text><text fill="#000000" font-family="sans-serif" font-size="13" lengthAdjust="spacing" textLength="170" x="456" y="285.3467">getGreenSpaceRepositories()</text><polygon fill="#181818" points="449,317.9004,439,321.9004,449,325.9004,445,321.9004" style="stroke:#181818;stroke-width:1.0;"/><line style="stroke:#181818;stroke-width:1.0;stroke-dasharray:2.0,2.0;" x1="443" x2="679.5" y1="321.9004" y2="321.9004"/><text fill="#000000" font-family="sans-serif" font-size="13" font-weight="bold" lengthAdjust="spacing" textLength="7" x="455" y="316.6377">8</text><text fill="#000000" font-family="sans-serif" font-size="13" lengthAdjust="spacing" textLength="131" x="466" y="316.6377">greenSpaceRepository</text><polygon fill="#181818" points="810.5,349.1914,820.5,353.1914,810.5,357.1914,814.5,353.1914" style="stroke:#181818;stroke-width:1.0;"/><line style="stroke:#181818;stroke-width:1.0;" x1="438" x2="816.5" y1="353.1914" y2="353.1914"/><text fill="#000000" font-family="sans-serif" font-size="13" font-weight="bold" lengthAdjust="spacing" textLength="7" x="445" y="347.9287">9</text><text fill="#000000" font-family="sans-serif" font-size="13" lengthAdjust="spacing" textLength="119" x="456" y="347.9287">getGreenSpaceList()</text><polygon fill="#181818" points="1629.5,380.4824,1639.5,384.4824,1629.5,388.4824,1633.5,384.4824" style="stroke:#181818;stroke-width:1.0;"/><line style="stroke:#181818;stroke-width:1.0;" x1="832.5" x2="1635.5" y1="384.4824" y2="384.4824"/><text fill="#000000" font-family="sans-serif" font-size="13" font-weight="bold" lengthAdjust="spacing" textLength="14" x="839.5" y="379.2197">10</text><text fill="#000000" font-family="sans-serif" font-size="13" lengthAdjust="spacing" textLength="44" x="857.5" y="379.2197">create()</text><polygon fill="#181818" points="449,441.7734,439,445.7734,449,449.7734,445,445.7734" style="stroke:#181818;stroke-width:1.0;"/><line style="stroke:#181818;stroke-width:1.0;stroke-dasharray:2.0,2.0;" x1="443" x2="826.5" y1="445.7734" y2="445.7734"/><text fill="#000000" font-family="sans-serif" font-size="13" font-weight="bold" lengthAdjust="spacing" textLength="14" x="455" y="440.5107">11</text><text fill="#000000" font-family="sans-serif" font-size="13" lengthAdjust="spacing" textLength="90" x="473" y="440.5107">greenSpaceList</text><polygon fill="#181818" points="1132,473.0645,1142,477.0645,1132,481.0645,1136,477.0645" style="stroke:#181818;stroke-width:1.0;"/><line style="stroke:#181818;stroke-width:1.0;" x1="438" x2="1138" y1="477.0645" y2="477.0645"/><text fill="#000000" font-family="sans-serif" font-size="13" font-weight="bold" lengthAdjust="spacing" textLength="14" x="445" y="471.8018">12</text><text fill="#000000" font-family="sans-serif" font-size="13" lengthAdjust="spacing" textLength="129" x="463" y="471.8018">toDto(greenSpaceList)</text><polygon fill="#181818" points="1254.5,504.3555,1264.5,508.3555,1254.5,512.3555,1258.5,508.3555" style="stroke:#181818;stroke-width:1.0;"/><line style="stroke:#181818;stroke-width:1.0;" x1="1154" x2="1260.5" y1="508.3555" y2="508.3555"/><text fill="#000000" font-family="sans-serif" font-size="13" font-weight="bold" lengthAdjust="spacing" textLength="14" x="1161" y="503.0928">13</text><text fill="#000000" font-family="sans-serif" font-size="13" lengthAdjust="spacing" textLength="44" x="1179" y="503.0928">create()</text><rect fill="#E3E3E3" height="32.6211" rx="2.5" ry="2.5" style="stroke:#181818;stroke-width:0.5;" width="287" x="1266.5" y="485.0645"/><text fill="#000000" font-family="sans-serif" font-size="14" lengthAdjust="spacing" textLength="273" x="1273.5" y="507.1719">greenSpaceListDto : List&lt;GreenSpaceDto&gt;</text><polygon fill="#181818" points="1629.5,547.9766,1639.5,551.9766,1629.5,555.9766,1633.5,551.9766" style="stroke:#181818;stroke-width:1.0;"/><line style="stroke:#181818;stroke-width:1.0;" x1="1154" x2="1635.5" y1="551.9766" y2="551.9766"/><text fill="#000000" font-family="sans-serif" font-size="13" font-weight="bold" lengthAdjust="spacing" textLength="14" x="1161" y="546.7139">14</text><text fill="#000000" font-family="sans-serif" font-size="13" lengthAdjust="spacing" textLength="114" x="1179" y="546.7139">greenSpace = get(i)</text><line style="stroke:#181818;stroke-width:1.0;" x1="1154" x2="1201" y1="608.2676" y2="608.2676"/><line style="stroke:#181818;stroke-width:1.0;" x1="1201" x2="1201" y1="608.2676" y2="621.2676"/><line style="stroke:#181818;stroke-width:1.0;" x1="1160" x2="1201" y1="621.2676" y2="621.2676"/><polygon fill="#181818" points="1170,617.2676,1160,621.2676,1170,625.2676,1166,621.2676" style="stroke:#181818;stroke-width:1.0;"/><text fill="#000000" font-family="sans-serif" font-size="13" font-weight="bold" lengthAdjust="spacing" textLength="14" x="1166" y="603.0049">15</text><text fill="#000000" font-family="sans-serif" font-size="13" lengthAdjust="spacing" textLength="219" x="1184" y="603.0049">greenSpaceDto = toDTO(greenSpace)</text><polygon fill="#181818" points="1057,653.5586,1047,657.5586,1057,661.5586,1053,657.5586" style="stroke:#181818;stroke-width:1.0;"/><line style="stroke:#181818;stroke-width:1.0;" x1="1051" x2="1143" y1="657.5586" y2="657.5586"/><text fill="#000000" font-family="sans-serif" font-size="13" font-weight="bold" lengthAdjust="spacing" textLength="14" x="1063" y="652.2959">16</text><text fill="#000000" font-family="sans-serif" font-size="13" lengthAdjust="spacing" textLength="56" x="1081" y="652.2959">create(...)</text><rect fill="#E3E3E3" height="32.6211" rx="2.5" ry="2.5" style="stroke:#181818;stroke-width:0.5;" width="120" x="926" y="634.2676"/><text fill="#000000" font-family="sans-serif" font-size="14" lengthAdjust="spacing" textLength="106" x="933" y="656.375">:GreenSpaceDto</text><polygon fill="#181818" points="1393,697.1797,1403,701.1797,1393,705.1797,1397,701.1797" style="stroke:#181818;stroke-width:1.0;"/><line style="stroke:#181818;stroke-width:1.0;" x1="1154" x2="1399" y1="701.1797" y2="701.1797"/><text fill="#000000" font-family="sans-serif" font-size="13" font-weight="bold" lengthAdjust="spacing" textLength="14" x="1161" y="695.917">17</text><text fill="#000000" font-family="sans-serif" font-size="13" lengthAdjust="spacing" textLength="118" x="1179" y="695.917">add(greenSpaceDto)</text><polygon fill="#181818" points="449,758.4707,439,762.4707,449,766.4707,445,762.4707" style="stroke:#181818;stroke-width:1.0;"/><line style="stroke:#181818;stroke-width:1.0;stroke-dasharray:2.0,2.0;" x1="443" x2="1148" y1="762.4707" y2="762.4707"/><text fill="#000000" font-family="sans-serif" font-size="13" font-weight="bold" lengthAdjust="spacing" textLength="14" x="455" y="757.208">18</text><text fill="#000000" font-family="sans-serif" font-size="13" lengthAdjust="spacing" textLength="110" x="473" y="757.208">greenSpaceListDto</text><polygon fill="#181818" points="283,789.7617,273,793.7617,283,797.7617,279,793.7617" style="stroke:#181818;stroke-width:1.0;"/><line style="stroke:#181818;stroke-width:1.0;stroke-dasharray:2.0,2.0;" x1="277" x2="427" y1="793.7617" y2="793.7617"/><text fill="#000000" font-family="sans-serif" font-size="13" font-weight="bold" lengthAdjust="spacing" textLength="14" x="289" y="788.499">19</text><text fill="#000000" font-family="sans-serif" font-size="13" lengthAdjust="spacing" textLength="110" x="307" y="788.499">greenSpaceListDto</text><!--SRC=[dLHDR-8m4BtdLunwefNW1w2sKbMg2ecg2DBRNhp9R8W8TcIRhVZtE-C49oPEMpQds7xl-Ss7n-nBMGij3d1GKcKxhGu8LXynCVwa5jbU5BYrfmf1OsQ5BAe-mEn4hZvBMS0VKHbC4d6qIXuFlr4d2K5icPMra1PkvXiiIcDHfyBiFvOt80nyBB_0F2jfjQegr0xxd6vM0tIjJ6cLBj4uZDyuRKisIbP2YkunVicXm7hrb8QCLuqejvG7t8JS-85JYHzTcEz02wiSRP6-ZsBUH5stYNXxMgzVDY6oyC0LvOy4OGxyTn_SykZu3d5v5MyEEHqXIQ3zfezKDe9IXO3k4NaE0YH-0bAvJhnbTmYfcYvKmpmJHMRBly8YLzrlaXG9SctlxaWqqqY8oUsGvChljtd5n4Z1IQL0kvI6UZMBIiMwnADYYjFMuXpw_UCfEVvC-coQcyoPVE6CTPIOLzUGVfjNFJSOycE6Glx0GRnJhpPI36MkS1CtSU6FModcQ-IjUM3ydAzbnQywBcZUNX3XSnZJZ-HcJF2x4CvvQXx-d9uOlUL9g1lntyu9Vz2ipv7J10XVt0WE-X700nTbKlvtjZhjzg-lpcFhWQDBttlHNHLP4rKNrcmskusv-ZOtFE3oV1AO6ucQP-b8u7mqkAFj3BXi3RhX9rQRRd1JEARm3m00]--></g></svg>