<?xml version="1.0" encoding="us-ascii" standalone="no"?><svg xmlns="http://www.w3.org/2000/svg" xmlns:xlink="http://www.w3.org/1999/xlink" contentStyleType="text/css" height="608px" preserveAspectRatio="none" style="width:962px;height:608px;background:#FFFFFF;" version="1.1" viewBox="0 0 962 608" width="962px" zoomAndPan="magnify"><defs/><g><!--class ApplicationSession--><g id="elem_ApplicationSession"><rect codeLine="11" fill="#F1F1F1" height="85.2422" id="ApplicationSession" rx="2.5" ry="2.5" style="stroke:#181818;stroke-width:0.5;" width="151" x="83" y="252.5"/><ellipse cx="98" cy="268.5" fill="#ADD1B2" rx="11" ry="11" style="stroke:#181818;stroke-width:1.0;"/><path d="M100.7656,264.375 Q100.9219,264.1563 101.1094,264.0469 Q101.2969,263.9375 101.5156,263.9375 Q101.8906,263.9375 102.125,264.2031 Q102.3594,264.4531 102.3594,265.0625 L102.3594,266.5156 Q102.3594,267.125 102.125,267.3906 Q101.8906,267.6563 101.5156,267.6563 Q101.1719,267.6563 100.9688,267.4531 Q100.7656,267.2656 100.6563,266.75 Q100.6094,266.3906 100.4219,266.2031 Q100.0938,265.8281 99.4844,265.6094 Q98.875,265.3906 98.25,265.3906 Q97.4844,265.3906 96.8438,265.7188 Q96.2188,266.0469 95.7188,266.7969 Q95.2344,267.5469 95.2344,268.5781 L95.2344,269.6719 Q95.2344,270.9063 96.125,271.7344 Q97.0156,272.5469 98.6094,272.5469 Q99.5469,272.5469 100.2031,272.2969 Q100.5938,272.1406 101.0156,271.7031 Q101.2813,271.4375 101.4219,271.3594 Q101.5781,271.2813 101.7813,271.2813 Q102.1094,271.2813 102.3594,271.5469 Q102.625,271.7969 102.625,272.1406 Q102.625,272.4844 102.2813,272.8906 Q101.7813,273.4688 100.9844,273.7969 Q99.9063,274.25 98.6094,274.25 Q97.0938,274.25 95.8906,273.625 Q94.9063,273.125 94.2188,272.0625 Q93.5313,270.9844 93.5313,269.7031 L93.5313,268.5469 Q93.5313,267.2188 94.1406,266.0781 Q94.7656,264.9219 95.8594,264.3125 Q96.9531,263.6875 98.1875,263.6875 Q98.9219,263.6875 99.5625,263.8594 Q100.2188,264.0156 100.7656,264.375 Z " fill="#000000"/><text fill="#000000" font-family="sans-serif" font-size="14" lengthAdjust="spacing" textLength="119" x="112" y="274.2969">ApplicationSession</text><line style="stroke:#181818;stroke-width:0.5;" x1="84" x2="233" y1="284.5" y2="284.5"/><line style="stroke:#181818;stroke-width:0.5;" x1="84" x2="233" y1="292.5" y2="292.5"/><text fill="#000000" font-family="sans-serif" font-size="14" lengthAdjust="spacing" textLength="128" x="89" y="311.6074">+static getInstance()</text><text fill="#000000" font-family="sans-serif" font-size="14" lengthAdjust="spacing" textLength="136" x="89" y="330.2285">+getCurrentSession()</text></g><!--class UserSession--><g id="elem_UserSession"><rect codeLine="16" fill="#F1F1F1" height="48" id="UserSession" rx="2.5" ry="2.5" style="stroke:#181818;stroke-width:0.5;" width="111" x="7" y="426"/><ellipse cx="22" cy="442" fill="#ADD1B2" rx="11" ry="11" style="stroke:#181818;stroke-width:1.0;"/><path d="M24.7656,437.875 Q24.9219,437.6563 25.1094,437.5469 Q25.2969,437.4375 25.5156,437.4375 Q25.8906,437.4375 26.125,437.7031 Q26.3594,437.9531 26.3594,438.5625 L26.3594,440.0156 Q26.3594,440.625 26.125,440.8906 Q25.8906,441.1563 25.5156,441.1563 Q25.1719,441.1563 24.9688,440.9531 Q24.7656,440.7656 24.6563,440.25 Q24.6094,439.8906 24.4219,439.7031 Q24.0938,439.3281 23.4844,439.1094 Q22.875,438.8906 22.25,438.8906 Q21.4844,438.8906 20.8438,439.2188 Q20.2188,439.5469 19.7188,440.2969 Q19.2344,441.0469 19.2344,442.0781 L19.2344,443.1719 Q19.2344,444.4063 20.125,445.2344 Q21.0156,446.0469 22.6094,446.0469 Q23.5469,446.0469 24.2031,445.7969 Q24.5938,445.6406 25.0156,445.2031 Q25.2813,444.9375 25.4219,444.8594 Q25.5781,444.7813 25.7813,444.7813 Q26.1094,444.7813 26.3594,445.0469 Q26.625,445.2969 26.625,445.6406 Q26.625,445.9844 26.2813,446.3906 Q25.7813,446.9688 24.9844,447.2969 Q23.9063,447.75 22.6094,447.75 Q21.0938,447.75 19.8906,447.125 Q18.9063,446.625 18.2188,445.5625 Q17.5313,444.4844 17.5313,443.2031 L17.5313,442.0469 Q17.5313,440.7188 18.1406,439.5781 Q18.7656,438.4219 19.8594,437.8125 Q20.9531,437.1875 22.1875,437.1875 Q22.9219,437.1875 23.5625,437.3594 Q24.2188,437.5156 24.7656,437.875 Z " fill="#000000"/><text fill="#000000" font-family="sans-serif" font-size="14" lengthAdjust="spacing" textLength="79" x="36" y="447.7969">UserSession</text><line style="stroke:#181818;stroke-width:0.5;" x1="8" x2="117" y1="458" y2="458"/><line style="stroke:#181818;stroke-width:0.5;" x1="8" x2="117" y1="466" y2="466"/></g><!--class Task--><g id="elem_Task"><rect codeLine="19" fill="#F1F1F1" height="48" id="Task" rx="2.5" ry="2.5" style="stroke:#181818;stroke-width:0.5;" width="63" x="480" y="426"/><ellipse cx="495" cy="442" fill="#ADD1B2" rx="11" ry="11" style="stroke:#181818;stroke-width:1.0;"/><path d="M497.7656,437.875 Q497.9219,437.6563 498.1094,437.5469 Q498.2969,437.4375 498.5156,437.4375 Q498.8906,437.4375 499.125,437.7031 Q499.3594,437.9531 499.3594,438.5625 L499.3594,440.0156 Q499.3594,440.625 499.125,440.8906 Q498.8906,441.1563 498.5156,441.1563 Q498.1719,441.1563 497.9688,440.9531 Q497.7656,440.7656 497.6563,440.25 Q497.6094,439.8906 497.4219,439.7031 Q497.0938,439.3281 496.4844,439.1094 Q495.875,438.8906 495.25,438.8906 Q494.4844,438.8906 493.8438,439.2188 Q493.2188,439.5469 492.7188,440.2969 Q492.2344,441.0469 492.2344,442.0781 L492.2344,443.1719 Q492.2344,444.4063 493.125,445.2344 Q494.0156,446.0469 495.6094,446.0469 Q496.5469,446.0469 497.2031,445.7969 Q497.5938,445.6406 498.0156,445.2031 Q498.2813,444.9375 498.4219,444.8594 Q498.5781,444.7813 498.7813,444.7813 Q499.1094,444.7813 499.3594,445.0469 Q499.625,445.2969 499.625,445.6406 Q499.625,445.9844 499.2813,446.3906 Q498.7813,446.9688 497.9844,447.2969 Q496.9063,447.75 495.6094,447.75 Q494.0938,447.75 492.8906,447.125 Q491.9063,446.625 491.2188,445.5625 Q490.5313,444.4844 490.5313,443.2031 L490.5313,442.0469 Q490.5313,440.7188 491.1406,439.5781 Q491.7656,438.4219 492.8594,437.8125 Q493.9531,437.1875 495.1875,437.1875 Q495.9219,437.1875 496.5625,437.3594 Q497.2188,437.5156 497.7656,437.875 Z " fill="#000000"/><text fill="#000000" font-family="sans-serif" font-size="14" lengthAdjust="spacing" textLength="31" x="509" y="447.7969">Task</text><line style="stroke:#181818;stroke-width:0.5;" x1="481" x2="542" y1="458" y2="458"/><line style="stroke:#181818;stroke-width:0.5;" x1="481" x2="542" y1="466" y2="466"/></g><!--class GreenSpaceRepository--><g id="elem_GreenSpaceRepository"><rect codeLine="23" fill="#F1F1F1" height="48" id="GreenSpaceRepository" rx="2.5" ry="2.5" style="stroke:#181818;stroke-width:0.5;" width="180" x="559.5" y="116"/><ellipse cx="574.5" cy="132" fill="#ADD1B2" rx="11" ry="11" style="stroke:#181818;stroke-width:1.0;"/><path d="M577.2656,127.875 Q577.4219,127.6563 577.6094,127.5469 Q577.7969,127.4375 578.0156,127.4375 Q578.3906,127.4375 578.625,127.7031 Q578.8594,127.9531 578.8594,128.5625 L578.8594,130.0156 Q578.8594,130.625 578.625,130.8906 Q578.3906,131.1563 578.0156,131.1563 Q577.6719,131.1563 577.4688,130.9531 Q577.2656,130.7656 577.1563,130.25 Q577.1094,129.8906 576.9219,129.7031 Q576.5938,129.3281 575.9844,129.1094 Q575.375,128.8906 574.75,128.8906 Q573.9844,128.8906 573.3438,129.2188 Q572.7188,129.5469 572.2188,130.2969 Q571.7344,131.0469 571.7344,132.0781 L571.7344,133.1719 Q571.7344,134.4063 572.625,135.2344 Q573.5156,136.0469 575.1094,136.0469 Q576.0469,136.0469 576.7031,135.7969 Q577.0938,135.6406 577.5156,135.2031 Q577.7813,134.9375 577.9219,134.8594 Q578.0781,134.7813 578.2813,134.7813 Q578.6094,134.7813 578.8594,135.0469 Q579.125,135.2969 579.125,135.6406 Q579.125,135.9844 578.7813,136.3906 Q578.2813,136.9688 577.4844,137.2969 Q576.4063,137.75 575.1094,137.75 Q573.5938,137.75 572.3906,137.125 Q571.4063,136.625 570.7188,135.5625 Q570.0313,134.4844 570.0313,133.2031 L570.0313,132.0469 Q570.0313,130.7188 570.6406,129.5781 Q571.2656,128.4219 572.3594,127.8125 Q573.4531,127.1875 574.6875,127.1875 Q575.4219,127.1875 576.0625,127.3594 Q576.7188,127.5156 577.2656,127.875 Z " fill="#000000"/><text fill="#000000" font-family="sans-serif" font-size="14" lengthAdjust="spacing" textLength="148" x="588.5" y="137.7969">GreenSpaceRepository</text><line style="stroke:#181818;stroke-width:0.5;" x1="560.5" x2="738.5" y1="148" y2="148"/><line style="stroke:#181818;stroke-width:0.5;" x1="560.5" x2="738.5" y1="156" y2="156"/></g><!--class entryRepository--><g id="elem_entryRepository"><rect codeLine="27" fill="#F1F1F1" height="48" id="entryRepository" rx="2.5" ry="2.5" style="stroke:#181818;stroke-width:0.5;" width="132" x="823.5" y="271"/><ellipse cx="838.5" cy="287" fill="#ADD1B2" rx="11" ry="11" style="stroke:#181818;stroke-width:1.0;"/><path d="M841.2656,282.875 Q841.4219,282.6563 841.6094,282.5469 Q841.7969,282.4375 842.0156,282.4375 Q842.3906,282.4375 842.625,282.7031 Q842.8594,282.9531 842.8594,283.5625 L842.8594,285.0156 Q842.8594,285.625 842.625,285.8906 Q842.3906,286.1563 842.0156,286.1563 Q841.6719,286.1563 841.4688,285.9531 Q841.2656,285.7656 841.1563,285.25 Q841.1094,284.8906 840.9219,284.7031 Q840.5938,284.3281 839.9844,284.1094 Q839.375,283.8906 838.75,283.8906 Q837.9844,283.8906 837.3438,284.2188 Q836.7188,284.5469 836.2188,285.2969 Q835.7344,286.0469 835.7344,287.0781 L835.7344,288.1719 Q835.7344,289.4063 836.625,290.2344 Q837.5156,291.0469 839.1094,291.0469 Q840.0469,291.0469 840.7031,290.7969 Q841.0938,290.6406 841.5156,290.2031 Q841.7813,289.9375 841.9219,289.8594 Q842.0781,289.7813 842.2813,289.7813 Q842.6094,289.7813 842.8594,290.0469 Q843.125,290.2969 843.125,290.6406 Q843.125,290.9844 842.7813,291.3906 Q842.2813,291.9688 841.4844,292.2969 Q840.4063,292.75 839.1094,292.75 Q837.5938,292.75 836.3906,292.125 Q835.4063,291.625 834.7188,290.5625 Q834.0313,289.4844 834.0313,288.2031 L834.0313,287.0469 Q834.0313,285.7188 834.6406,284.5781 Q835.2656,283.4219 836.3594,282.8125 Q837.4531,282.1875 838.6875,282.1875 Q839.4219,282.1875 840.0625,282.3594 Q840.7188,282.5156 841.2656,282.875 Z " fill="#000000"/><text fill="#000000" font-family="sans-serif" font-size="14" lengthAdjust="spacing" textLength="100" x="852.5" y="292.7969">entryRepository</text><line style="stroke:#181818;stroke-width:0.5;" x1="824.5" x2="954.5" y1="303" y2="303"/><line style="stroke:#181818;stroke-width:0.5;" x1="824.5" x2="954.5" y1="311" y2="311"/></g><!--class Repositories--><g id="elem_Repositories"><rect codeLine="32" fill="#F1F1F1" height="103.8633" id="Repositories" rx="2.5" ry="2.5" style="stroke:#181818;stroke-width:0.5;" width="290" x="419.5" y="243"/><ellipse cx="520.75" cy="259" fill="#ADD1B2" rx="11" ry="11" style="stroke:#181818;stroke-width:1.0;"/><path d="M523.5156,254.875 Q523.6719,254.6563 523.8594,254.5469 Q524.0469,254.4375 524.2656,254.4375 Q524.6406,254.4375 524.875,254.7031 Q525.1094,254.9531 525.1094,255.5625 L525.1094,257.0156 Q525.1094,257.625 524.875,257.8906 Q524.6406,258.1563 524.2656,258.1563 Q523.9219,258.1563 523.7188,257.9531 Q523.5156,257.7656 523.4063,257.25 Q523.3594,256.8906 523.1719,256.7031 Q522.8438,256.3281 522.2344,256.1094 Q521.625,255.8906 521,255.8906 Q520.2344,255.8906 519.5938,256.2188 Q518.9688,256.5469 518.4688,257.2969 Q517.9844,258.0469 517.9844,259.0781 L517.9844,260.1719 Q517.9844,261.4063 518.875,262.2344 Q519.7656,263.0469 521.3594,263.0469 Q522.2969,263.0469 522.9531,262.7969 Q523.3438,262.6406 523.7656,262.2031 Q524.0313,261.9375 524.1719,261.8594 Q524.3281,261.7813 524.5313,261.7813 Q524.8594,261.7813 525.1094,262.0469 Q525.375,262.2969 525.375,262.6406 Q525.375,262.9844 525.0313,263.3906 Q524.5313,263.9688 523.7344,264.2969 Q522.6563,264.75 521.3594,264.75 Q519.8438,264.75 518.6406,264.125 Q517.6563,263.625 516.9688,262.5625 Q516.2813,261.4844 516.2813,260.2031 L516.2813,259.0469 Q516.2813,257.7188 516.8906,256.5781 Q517.5156,255.4219 518.6094,254.8125 Q519.7031,254.1875 520.9375,254.1875 Q521.6719,254.1875 522.3125,254.3594 Q522.9688,254.5156 523.5156,254.875 Z " fill="#000000"/><text fill="#000000" font-family="sans-serif" font-size="14" lengthAdjust="spacing" textLength="79" x="541.25" y="264.7969">Repositories</text><line style="stroke:#181818;stroke-width:0.5;" x1="420.5" x2="708.5" y1="275" y2="275"/><line style="stroke:#181818;stroke-width:0.5;" x1="420.5" x2="708.5" y1="283" y2="283"/><text fill="#000000" font-family="sans-serif" font-size="14" lengthAdjust="spacing" textLength="94" x="425.5" y="302.1074">-Repositories()</text><text fill="#000000" font-family="sans-serif" font-size="14" lengthAdjust="spacing" textLength="182" x="425.5" y="320.7285">+getInstance() : Repositories</text><text fill="#000000" font-family="sans-serif" font-size="14" lengthAdjust="spacing" textLength="278" x="425.5" y="339.3496">+getVehicleRepository() : VehicleRepository</text></g><!--class RegisterTaskController--><g id="elem_RegisterTaskController"><rect codeLine="38" fill="#F1F1F1" height="48" id="RegisterTaskController" rx="2.5" ry="2.5" style="stroke:#181818;stroke-width:0.5;" width="178" x="277.5" y="116"/><ellipse cx="292.5" cy="132" fill="#ADD1B2" rx="11" ry="11" style="stroke:#181818;stroke-width:1.0;"/><path d="M295.2656,127.875 Q295.4219,127.6563 295.6094,127.5469 Q295.7969,127.4375 296.0156,127.4375 Q296.3906,127.4375 296.625,127.7031 Q296.8594,127.9531 296.8594,128.5625 L296.8594,130.0156 Q296.8594,130.625 296.625,130.8906 Q296.3906,131.1563 296.0156,131.1563 Q295.6719,131.1563 295.4688,130.9531 Q295.2656,130.7656 295.1563,130.25 Q295.1094,129.8906 294.9219,129.7031 Q294.5938,129.3281 293.9844,129.1094 Q293.375,128.8906 292.75,128.8906 Q291.9844,128.8906 291.3438,129.2188 Q290.7188,129.5469 290.2188,130.2969 Q289.7344,131.0469 289.7344,132.0781 L289.7344,133.1719 Q289.7344,134.4063 290.625,135.2344 Q291.5156,136.0469 293.1094,136.0469 Q294.0469,136.0469 294.7031,135.7969 Q295.0938,135.6406 295.5156,135.2031 Q295.7813,134.9375 295.9219,134.8594 Q296.0781,134.7813 296.2813,134.7813 Q296.6094,134.7813 296.8594,135.0469 Q297.125,135.2969 297.125,135.6406 Q297.125,135.9844 296.7813,136.3906 Q296.2813,136.9688 295.4844,137.2969 Q294.4063,137.75 293.1094,137.75 Q291.5938,137.75 290.3906,137.125 Q289.4063,136.625 288.7188,135.5625 Q288.0313,134.4844 288.0313,133.2031 L288.0313,132.0469 Q288.0313,130.7188 288.6406,129.5781 Q289.2656,128.4219 290.3594,127.8125 Q291.4531,127.1875 292.6875,127.1875 Q293.4219,127.1875 294.0625,127.3594 Q294.7188,127.5156 295.2656,127.875 Z " fill="#000000"/><text fill="#000000" font-family="sans-serif" font-size="14" lengthAdjust="spacing" textLength="146" x="306.5" y="137.7969">RegisterTaskController</text><line style="stroke:#181818;stroke-width:0.5;" x1="278.5" x2="454.5" y1="148" y2="148"/><line style="stroke:#181818;stroke-width:0.5;" x1="278.5" x2="454.5" y1="156" y2="156"/></g><!--class GreenSpace--><g id="elem_GreenSpace"><rect codeLine="43" fill="#F1F1F1" height="48" id="GreenSpace" rx="2.5" ry="2.5" style="stroke:#181818;stroke-width:0.5;" width="112" x="593.5" y="7"/><ellipse cx="608.5" cy="23" fill="#ADD1B2" rx="11" ry="11" style="stroke:#181818;stroke-width:1.0;"/><path d="M611.2656,18.875 Q611.4219,18.6563 611.6094,18.5469 Q611.7969,18.4375 612.0156,18.4375 Q612.3906,18.4375 612.625,18.7031 Q612.8594,18.9531 612.8594,19.5625 L612.8594,21.0156 Q612.8594,21.625 612.625,21.8906 Q612.3906,22.1563 612.0156,22.1563 Q611.6719,22.1563 611.4688,21.9531 Q611.2656,21.7656 611.1563,21.25 Q611.1094,20.8906 610.9219,20.7031 Q610.5938,20.3281 609.9844,20.1094 Q609.375,19.8906 608.75,19.8906 Q607.9844,19.8906 607.3438,20.2188 Q606.7188,20.5469 606.2188,21.2969 Q605.7344,22.0469 605.7344,23.0781 L605.7344,24.1719 Q605.7344,25.4063 606.625,26.2344 Q607.5156,27.0469 609.1094,27.0469 Q610.0469,27.0469 610.7031,26.7969 Q611.0938,26.6406 611.5156,26.2031 Q611.7813,25.9375 611.9219,25.8594 Q612.0781,25.7813 612.2813,25.7813 Q612.6094,25.7813 612.8594,26.0469 Q613.125,26.2969 613.125,26.6406 Q613.125,26.9844 612.7813,27.3906 Q612.2813,27.9688 611.4844,28.2969 Q610.4063,28.75 609.1094,28.75 Q607.5938,28.75 606.3906,28.125 Q605.4063,27.625 604.7188,26.5625 Q604.0313,25.4844 604.0313,24.2031 L604.0313,23.0469 Q604.0313,21.7188 604.6406,20.5781 Q605.2656,19.4219 606.3594,18.8125 Q607.4531,18.1875 608.6875,18.1875 Q609.4219,18.1875 610.0625,18.3594 Q610.7188,18.5156 611.2656,18.875 Z " fill="#000000"/><text fill="#000000" font-family="sans-serif" font-size="14" lengthAdjust="spacing" textLength="80" x="622.5" y="28.7969">GreenSpace</text><line style="stroke:#181818;stroke-width:0.5;" x1="594.5" x2="704.5" y1="39" y2="39"/><line style="stroke:#181818;stroke-width:0.5;" x1="594.5" x2="704.5" y1="47" y2="47"/></g><!--class RegisterTaskUI--><g id="elem_RegisterTaskUI"><rect fill="#F1F1F1" height="48" id="RegisterTaskUI" rx="2.5" ry="2.5" style="stroke:#181818;stroke-width:0.5;" width="128" x="302.5" y="7"/><ellipse cx="317.5" cy="23" fill="#ADD1B2" rx="11" ry="11" style="stroke:#181818;stroke-width:1.0;"/><path d="M320.2656,18.875 Q320.4219,18.6563 320.6094,18.5469 Q320.7969,18.4375 321.0156,18.4375 Q321.3906,18.4375 321.625,18.7031 Q321.8594,18.9531 321.8594,19.5625 L321.8594,21.0156 Q321.8594,21.625 321.625,21.8906 Q321.3906,22.1563 321.0156,22.1563 Q320.6719,22.1563 320.4688,21.9531 Q320.2656,21.7656 320.1563,21.25 Q320.1094,20.8906 319.9219,20.7031 Q319.5938,20.3281 318.9844,20.1094 Q318.375,19.8906 317.75,19.8906 Q316.9844,19.8906 316.3438,20.2188 Q315.7188,20.5469 315.2188,21.2969 Q314.7344,22.0469 314.7344,23.0781 L314.7344,24.1719 Q314.7344,25.4063 315.625,26.2344 Q316.5156,27.0469 318.1094,27.0469 Q319.0469,27.0469 319.7031,26.7969 Q320.0938,26.6406 320.5156,26.2031 Q320.7813,25.9375 320.9219,25.8594 Q321.0781,25.7813 321.2813,25.7813 Q321.6094,25.7813 321.8594,26.0469 Q322.125,26.2969 322.125,26.6406 Q322.125,26.9844 321.7813,27.3906 Q321.2813,27.9688 320.4844,28.2969 Q319.4063,28.75 318.1094,28.75 Q316.5938,28.75 315.3906,28.125 Q314.4063,27.625 313.7188,26.5625 Q313.0313,25.4844 313.0313,24.2031 L313.0313,23.0469 Q313.0313,21.7188 313.6406,20.5781 Q314.2656,19.4219 315.3594,18.8125 Q316.4531,18.1875 317.6875,18.1875 Q318.4219,18.1875 319.0625,18.3594 Q319.7188,18.5156 320.2656,18.875 Z " fill="#000000"/><text fill="#000000" font-family="sans-serif" font-size="14" lengthAdjust="spacing" textLength="96" x="331.5" y="28.7969">RegisterTaskUI</text><line style="stroke:#181818;stroke-width:0.5;" x1="303.5" x2="429.5" y1="39" y2="39"/><line style="stroke:#181818;stroke-width:0.5;" x1="303.5" x2="429.5" y1="47" y2="47"/></g><!--class GSM--><g id="elem_GSM"><rect fill="#F1F1F1" height="48" id="GSM" rx="2.5" ry="2.5" style="stroke:#181818;stroke-width:0.5;" width="63" x="480" y="553"/><ellipse cx="495" cy="569" fill="#ADD1B2" rx="11" ry="11" style="stroke:#181818;stroke-width:1.0;"/><path d="M497.7656,564.875 Q497.9219,564.6563 498.1094,564.5469 Q498.2969,564.4375 498.5156,564.4375 Q498.8906,564.4375 499.125,564.7031 Q499.3594,564.9531 499.3594,565.5625 L499.3594,567.0156 Q499.3594,567.625 499.125,567.8906 Q498.8906,568.1563 498.5156,568.1563 Q498.1719,568.1563 497.9688,567.9531 Q497.7656,567.7656 497.6563,567.25 Q497.6094,566.8906 497.4219,566.7031 Q497.0938,566.3281 496.4844,566.1094 Q495.875,565.8906 495.25,565.8906 Q494.4844,565.8906 493.8438,566.2188 Q493.2188,566.5469 492.7188,567.2969 Q492.2344,568.0469 492.2344,569.0781 L492.2344,570.1719 Q492.2344,571.4063 493.125,572.2344 Q494.0156,573.0469 495.6094,573.0469 Q496.5469,573.0469 497.2031,572.7969 Q497.5938,572.6406 498.0156,572.2031 Q498.2813,571.9375 498.4219,571.8594 Q498.5781,571.7813 498.7813,571.7813 Q499.1094,571.7813 499.3594,572.0469 Q499.625,572.2969 499.625,572.6406 Q499.625,572.9844 499.2813,573.3906 Q498.7813,573.9688 497.9844,574.2969 Q496.9063,574.75 495.6094,574.75 Q494.0938,574.75 492.8906,574.125 Q491.9063,573.625 491.2188,572.5625 Q490.5313,571.4844 490.5313,570.2031 L490.5313,569.0469 Q490.5313,567.7188 491.1406,566.5781 Q491.7656,565.4219 492.8594,564.8125 Q493.9531,564.1875 495.1875,564.1875 Q495.9219,564.1875 496.5625,564.3594 Q497.2188,564.5156 497.7656,564.875 Z " fill="#000000"/><text fill="#000000" font-family="sans-serif" font-size="14" lengthAdjust="spacing" textLength="31" x="509" y="574.7969">GSM</text><line style="stroke:#181818;stroke-width:0.5;" x1="481" x2="542" y1="585" y2="585"/><line style="stroke:#181818;stroke-width:0.5;" x1="481" x2="542" y1="593" y2="593"/></g><!--link ApplicationSession to ApplicationSession--><g id="link_ApplicationSession_ApplicationSession"><path codeLine="47" d="M234.16,278.29 C254,279.28 269,284.85 269,295 C269,305.15 259.9925,310.421 240.1525,311.411 " fill="none" id="ApplicationSession-to-ApplicationSession" style="stroke:#181818;stroke-width:1.0;"/><polygon fill="#181818" points="234.16,311.71,243.3482,315.2565,239.1538,311.4608,242.9495,307.2664,234.16,311.71" style="stroke:#181818;stroke-width:1.0;"/><text fill="#000000" font-family="sans-serif" font-size="13" lengthAdjust="spacing" textLength="49" x="275" y="300.5283">instance</text></g><!--link ApplicationSession to UserSession--><g id="link_ApplicationSession_UserSession"><path codeLine="48" d="M132.27,337.81 C114.5,366.12 94.8794,397.3979 80.2694,420.6779 " fill="none" id="ApplicationSession-to-UserSession" style="stroke:#181818;stroke-width:1.0;"/><polygon fill="#181818" points="77.08,425.76,85.2522,420.2631,79.7378,421.5249,78.476,416.0106,77.08,425.76" style="stroke:#181818;stroke-width:1.0;"/><text fill="#000000" font-family="sans-serif" font-size="13" lengthAdjust="spacing" textLength="72" x="109.5" y="392.0283">userSession</text><text fill="#000000" font-family="sans-serif" font-size="13" lengthAdjust="spacing" textLength="7" x="72.7808" y="414.8434">1</text></g><!--link GreenSpace to GreenSpaceRepository--><g id="link_GreenSpace_GreenSpaceRepository"><path codeLine="50" d="M649.5,55.22 C649.5,73.16 649.5,91.89 649.5,109.83 " fill="none" id="GreenSpace-to-GreenSpaceRepository" style="stroke:#181818;stroke-width:1.0;"/><polygon fill="#181818" points="649.5,115.83,653.5,106.83,649.5,110.83,645.5,106.83,649.5,115.83" style="stroke:#181818;stroke-width:1.0;"/></g><!--link RegisterTaskUI to RegisterTaskController--><g id="link_RegisterTaskUI_RegisterTaskController"><path codeLine="52" d="M366.5,55.22 C366.5,73.16 366.5,91.89 366.5,109.83 " fill="none" id="RegisterTaskUI-to-RegisterTaskController" style="stroke:#181818;stroke-width:1.0;"/><polygon fill="#181818" points="366.5,115.83,370.5,106.83,366.5,110.83,362.5,106.83,366.5,115.83" style="stroke:#181818;stroke-width:1.0;"/><text fill="#000000" font-family="sans-serif" font-size="13" lengthAdjust="spacing" textLength="7" x="358.6906" y="76.8485">1</text><text fill="#000000" font-family="sans-serif" font-size="13" lengthAdjust="spacing" textLength="7" x="358.6469" y="104.9305">1</text></g><!--link RegisterTaskController to Repositories--><g id="link_RegisterTaskController_Repositories"><path codeLine="55" d="M384.21,164.18 C400.28,185.23 421.5,213 421.5,213 C421.5,213 440.5692,223.8031 469.1192,239.9731 " fill="none" id="RegisterTaskController-to-Repositories" style="stroke:#181818;stroke-width:1.0;stroke-dasharray:7.0,7.0;"/><polygon fill="#181818" points="474.34,242.93,468.4801,235.0141,469.9893,240.4659,464.5375,241.9751,474.34,242.93" style="stroke:#181818;stroke-width:1.0;"/><text fill="#000000" font-family="sans-serif" font-size="13" lengthAdjust="spacing" textLength="67" x="422.5" y="209.0283">repositories</text></g><!--link RegisterTaskController to Task--><g id="link_RegisterTaskController_Task"><path codeLine="57" d="M370.45,164.23 C379.6,218.1 401.5,347 401.5,347 C401.5,347 449.6798,391.681 482.1398,421.771 " fill="none" id="RegisterTaskController-to-Task" style="stroke:#181818;stroke-width:1.0;stroke-dasharray:7.0,7.0;"/><polygon fill="#181818" points="486.54,425.85,482.659,416.7981,482.8731,422.4509,477.2203,422.665,486.54,425.85" style="stroke:#181818;stroke-width:1.0;"/></g><!--link RegisterTaskController to entryRepository--><g id="link_RegisterTaskController_entryRepository"><path codeLine="58" d="M455.54,161.64 C584.11,191.45 806.5,243 806.5,243 C806.5,243 824.808,254.2488 846.778,267.7488 " fill="none" id="RegisterTaskController-to-entryRepository" style="stroke:#181818;stroke-width:1.0;stroke-dasharray:7.0,7.0;"/><polygon fill="#181818" points="851.89,270.89,846.3161,262.7702,847.63,268.2723,842.1278,269.5862,851.89,270.89" style="stroke:#181818;stroke-width:1.0;"/><text fill="#000000" font-family="sans-serif" font-size="13" lengthAdjust="spacing" textLength="91" x="676.5" y="209.0283">entryRepository</text></g><!--link RegisterTaskController to ApplicationSession--><g id="link_RegisterTaskController_ApplicationSession"><path codeLine="59" d="M334.91,164.24 C303.2,187.56 258.5035,220.4451 219.9835,248.7751 " fill="none" id="RegisterTaskController-to-ApplicationSession" style="stroke:#181818;stroke-width:1.0;stroke-dasharray:7.0,7.0;"/><polygon fill="#181818" points="215.15,252.33,224.7702,250.22,219.1779,249.3676,220.0304,243.7753,215.15,252.33" style="stroke:#181818;stroke-width:1.0;"/></g><!--link RegisterTaskController to UserSession--><g id="link_RegisterTaskController_UserSession"><path codeLine="60" d="M298.57,164.02 C209.8,194.1 65.5,243 65.5,243 C65.5,243 63.7069,365.9006 62.9269,419.7706 " fill="none" id="RegisterTaskController-to-UserSession" style="stroke:#181818;stroke-width:1.0;stroke-dasharray:7.0,7.0;"/><polygon fill="#181818" points="62.84,425.77,66.9699,416.8289,62.9124,420.7705,58.9707,416.713,62.84,425.77" style="stroke:#181818;stroke-width:1.0;"/></g><!--link Repositories to Repositories--><g id="link_Repositories_Repositories"><path codeLine="63" d="M709.63,279.81 C730.48,282.25 744.5,287.31 744.5,295 C744.5,302.69 736.4393,307.0526 715.5893,309.4926 " fill="none" id="Repositories-to-Repositories" style="stroke:#181818;stroke-width:1.0;"/><polygon fill="#181818" points="709.63,310.19,719.0339,313.1168,714.5961,309.6088,718.1041,305.171,709.63,310.19" style="stroke:#181818;stroke-width:1.0;"/><text fill="#000000" font-family="sans-serif" font-size="13" lengthAdjust="spacing" textLength="49" x="750.5" y="300.5283">instance</text></g><!--link Repositories to entryRepository--><g id="link_Repositories_entryRepository"><path codeLine="64" d="M709.51,295 C740.94,295 781.17,295 781.17,295 C781.17,295 794.81,295 817.36,295 " fill="none" id="Repositories-to-entryRepository" style="stroke:#181818;stroke-width:1.0;"/><polygon fill="#181818" points="823.36,295,814.36,291,818.36,295,814.36,299,823.36,295" style="stroke:#181818;stroke-width:1.0;"/><text fill="#000000" font-family="sans-serif" font-size="13" lengthAdjust="spacing" textLength="7" x="808.3079" y="291.0623">1</text></g><!--link entryRepository to Task--><g id="link_entryRepository_Task"><path codeLine="66" d="M851.89,319.11 C829.92,332.61 806.5,347 806.5,347 C806.5,347 624.8407,409.8095 548.7407,436.1195 " fill="none" id="entryRepository-to-Task" style="stroke:#181818;stroke-width:1.0;"/><polygon fill="#181818" points="543.07,438.08,552.883,438.9197,547.7956,436.4462,550.269,431.3588,543.07,438.08" style="stroke:#181818;stroke-width:1.0;"/><text fill="#000000" font-family="sans-serif" font-size="13" lengthAdjust="spacing" textLength="35" x="719.5" y="392.0283">Tasks</text><text fill="#000000" font-family="sans-serif" font-size="13" lengthAdjust="spacing" textLength="7" x="834.8694" y="341.1225">1</text><text fill="#000000" font-family="sans-serif" font-size="13" lengthAdjust="spacing" textLength="5" x="550.9487" y="430.4198">*</text></g><!--link GreenSpaceRepository to Repositories--><g id="link_GreenSpaceRepository_Repositories"><path codeLine="67" d="M642.42,164.18 C635.99,185.23 627.5,213 627.5,213 C627.5,213 620.5838,221.894 608.0838,237.964 " fill="none" id="GreenSpaceRepository-to-Repositories" style="stroke:#181818;stroke-width:1.0;"/><polygon fill="#181818" points="604.4,242.7,613.0831,238.052,607.4699,238.7534,606.7685,233.1402,604.4,242.7" style="stroke:#181818;stroke-width:1.0;"/></g><!--link Task to GSM--><g id="link_Task_GSM"><path codeLine="69" d="M511.5,474.22 C511.5,496.67 511.5,524.5 511.5,546.91 " fill="none" id="Task-to-GSM" style="stroke:#181818;stroke-width:1.0;"/><polygon fill="#181818" points="511.5,552.91,515.5,543.91,511.5,547.91,507.5,543.91,511.5,552.91" style="stroke:#181818;stroke-width:1.0;"/><text fill="#000000" font-family="sans-serif" font-size="13" lengthAdjust="spacing" textLength="59" x="512.5" y="519.0283">createdBy</text></g><!--SRC=[VLCxRy8m4DxlLvnOw4DKxPe1YJ9K35r8wUwQ8rWOEx8FLIdgVwyJGfnNoPBaUrpkktEc_g1CBfmuuj4QA_VE7WdPdGWYamjv41cbN6X2HvA5oNHRuFTYQx-LoN0dj6ypMXdY8YVChIxA5vYEaDQnXPPBQk7zWjcfhnFJIbgJgX_2Pu2ffXqZMtGgspDkLTcEiWQWyk0YpxMIeeHIyZxSpe3XUaJF0PMO4QzCU3QIxkvhAc3BatDakFO4vlTQSUF9DQKQz4Fu0vuX0c-EoAHXKhIct7h5rXMLlkP3SLT4glRMP8ChydXfkBnc7Q9kjsavni2a8-pAFcclf6vrLUa7Q4oofanv9bT6NDhGjjMQNAVV6FO23wUEi_d8BiA7LTtrg2UO9Y-JziY3unJV0EANA_NOr07Q2JQhgkIrz7Wuw7eYWK_pxdAISFvRa_xN5dmbT8llduYaZzmo3wTtIxrfZn0wWMQ3WCs6-hfoVlqMeP-Y6VR3vFAJ9DNDmzYgAcNdw48fhZQRlWUhT2IOjgy5_040]--></g></svg>