<?xml version="1.0" encoding="us-ascii" standalone="no"?><svg xmlns="http://www.w3.org/2000/svg" xmlns:xlink="http://www.w3.org/1999/xlink" contentStyleType="text/css" height="1097px" preserveAspectRatio="none" style="width:2298px;height:1097px;background:#FFFFFF;" version="1.1" viewBox="0 0 2298 1097" width="2298px" zoomAndPan="magnify"><defs/><g><rect fill="#FFFFFF" height="932.7695" style="stroke:#181818;stroke-width:1.0;" width="10" x="317" y="90.5332"/><rect fill="#FFFFFF" height="910.4785" style="stroke:#181818;stroke-width:1.0;" width="10" x="522" y="121.8242"/><rect fill="#FFFFFF" height="910.4785" style="stroke:#181818;stroke-width:1.0;" width="10" x="1074" y="121.8242"/><rect fill="#FFFFFF" height="31.291" style="stroke:#181818;stroke-width:1.0;" width="10" x="1301.5" y="153.1152"/><rect fill="#FFFFFF" height="524.9863" style="stroke:#181818;stroke-width:1.0;" width="10" x="1361.5" y="507.3164"/><rect fill="#FFFFFF" height="344.2012" style="stroke:#181818;stroke-width:1.0;" width="10" x="2221.5" y="540.9375"/><line style="stroke:#181818;stroke-width:0.5;stroke-dasharray:5.0,5.0;" x1="322" x2="322" y1="57.2422" y2="1041.3027"/><line style="stroke:#181818;stroke-width:0.5;stroke-dasharray:5.0,5.0;" x1="527" x2="527" y1="57.2422" y2="1041.3027"/><line style="stroke:#181818;stroke-width:0.5;stroke-dasharray:5.0,5.0;" x1="667" x2="667" y1="57.2422" y2="1041.3027"/><line style="stroke:#181818;stroke-width:0.5;stroke-dasharray:5.0,5.0;" x1="774" x2="774" y1="57.2422" y2="1041.3027"/><line style="stroke:#181818;stroke-width:0.5;stroke-dasharray:5.0,5.0;" x1="921" x2="921" y1="57.2422" y2="1041.3027"/><line style="stroke:#181818;stroke-width:0.5;stroke-dasharray:5.0,5.0;" x1="1079" x2="1079" y1="57.2422" y2="1041.3027"/><line style="stroke:#181818;stroke-width:0.5;stroke-dasharray:5.0,5.0;" x1="1223" x2="1223" y1="57.2422" y2="1041.3027"/><line style="stroke:#181818;stroke-width:0.5;stroke-dasharray:5.0,5.0;" x1="1306" x2="1306" y1="57.2422" y2="1041.3027"/><line style="stroke:#181818;stroke-width:0.5;stroke-dasharray:5.0,5.0;" x1="1366" x2="1366" y1="505.8359" y2="1041.3027"/><line style="stroke:#181818;stroke-width:0.5;stroke-dasharray:5.0,5.0;" x1="1462" x2="1462" y1="57.2422" y2="1041.3027"/><line style="stroke:#181818;stroke-width:0.5;stroke-dasharray:5.0,5.0;" x1="1605" x2="1605" y1="57.2422" y2="1041.3027"/><line style="stroke:#181818;stroke-width:0.5;stroke-dasharray:5.0,5.0;" x1="1831" x2="1831" y1="57.2422" y2="1041.3027"/><line style="stroke:#181818;stroke-width:0.5;stroke-dasharray:5.0,5.0;" x1="2068" x2="2068" y1="57.2422" y2="1041.3027"/><line style="stroke:#181818;stroke-width:0.5;stroke-dasharray:5.0,5.0;" x1="2226" x2="2226" y1="57.2422" y2="1041.3027"/><rect fill="#E3E3E3" height="32.6211" rx="2.5" ry="2.5" style="stroke:#181818;stroke-width:0.5;" width="114" x="265" y="23.6211"/><text fill="#000000" font-family="sans-serif" font-size="14" lengthAdjust="spacing" textLength="100" x="272" y="45.7285">:RegisterTaskUI</text><rect fill="#E3E3E3" height="32.6211" rx="2.5" ry="2.5" style="stroke:#181818;stroke-width:0.5;" width="114" x="265" y="1040.3027"/><text fill="#000000" font-family="sans-serif" font-size="14" lengthAdjust="spacing" textLength="100" x="272" y="1062.4102">:RegisterTaskUI</text><rect fill="#E3E3E3" height="32.6211" rx="2.5" ry="2.5" style="stroke:#181818;stroke-width:0.5;" width="164" x="445" y="23.6211"/><text fill="#000000" font-family="sans-serif" font-size="14" lengthAdjust="spacing" textLength="150" x="452" y="45.7285">:RegisterTaskController</text><rect fill="#E3E3E3" height="32.6211" rx="2.5" ry="2.5" style="stroke:#181818;stroke-width:0.5;" width="164" x="445" y="1040.3027"/><text fill="#000000" font-family="sans-serif" font-size="14" lengthAdjust="spacing" textLength="150" x="452" y="1062.4102">:RegisterTaskController</text><rect fill="#E3E3E3" height="32.6211" rx="2.5" ry="2.5" style="stroke:#181818;stroke-width:0.5;" width="97" x="619" y="23.6211"/><text fill="#000000" font-family="sans-serif" font-size="14" lengthAdjust="spacing" textLength="83" x="626" y="45.7285">:Repositories</text><rect fill="#E3E3E3" height="32.6211" rx="2.5" ry="2.5" style="stroke:#181818;stroke-width:0.5;" width="97" x="619" y="1040.3027"/><text fill="#000000" font-family="sans-serif" font-size="14" lengthAdjust="spacing" textLength="83" x="626" y="1062.4102">:Repositories</text><rect fill="#E3E3E3" height="51.2422" rx="2.5" ry="2.5" style="stroke:#181818;stroke-width:0.5;" width="97" x="726" y="5"/><text fill="#000000" font-family="sans-serif" font-size="14" lengthAdjust="spacing" textLength="74" x="737.5" y="27.1074">repositories</text><text fill="#000000" font-family="sans-serif" font-size="14" lengthAdjust="spacing" textLength="83" x="733" y="45.7285">:Repositories</text><rect fill="#E3E3E3" height="51.2422" rx="2.5" ry="2.5" style="stroke:#181818;stroke-width:0.5;" width="97" x="726" y="1040.3027"/><text fill="#000000" font-family="sans-serif" font-size="14" lengthAdjust="spacing" textLength="74" x="737.5" y="1062.4102">repositories</text><text fill="#000000" font-family="sans-serif" font-size="14" lengthAdjust="spacing" textLength="83" x="733" y="1081.0313">:Repositories</text><rect fill="#E3E3E3" height="51.2422" rx="2.5" ry="2.5" style="stroke:#181818;stroke-width:0.5;" width="177" x="833" y="5"/><text fill="#000000" font-family="sans-serif" font-size="14" lengthAdjust="spacing" textLength="159" x="842" y="27.1074">GreenSpaceRepositories</text><text fill="#000000" font-family="sans-serif" font-size="14" lengthAdjust="spacing" textLength="163" x="840" y="45.7285">:GreenSpaceRepositories</text><rect fill="#E3E3E3" height="51.2422" rx="2.5" ry="2.5" style="stroke:#181818;stroke-width:0.5;" width="177" x="833" y="1040.3027"/><text fill="#000000" font-family="sans-serif" font-size="14" lengthAdjust="spacing" textLength="159" x="842" y="1062.4102">GreenSpaceRepositories</text><text fill="#000000" font-family="sans-serif" font-size="14" lengthAdjust="spacing" textLength="163" x="840" y="1081.0313">:GreenSpaceRepositories</text><rect fill="#E3E3E3" height="51.2422" rx="2.5" ry="2.5" style="stroke:#181818;stroke-width:0.5;" width="118" x="1020" y="5"/><text fill="#000000" font-family="sans-serif" font-size="14" lengthAdjust="spacing" textLength="104" x="1027" y="27.1074">entryRepository:</text><text fill="#000000" font-family="sans-serif" font-size="14" lengthAdjust="spacing" textLength="101" x="1028.5" y="45.7285">EntryRepository</text><rect fill="#E3E3E3" height="51.2422" rx="2.5" ry="2.5" style="stroke:#181818;stroke-width:0.5;" width="118" x="1020" y="1040.3027"/><text fill="#000000" font-family="sans-serif" font-size="14" lengthAdjust="spacing" textLength="104" x="1027" y="1062.4102">entryRepository:</text><text fill="#000000" font-family="sans-serif" font-size="14" lengthAdjust="spacing" textLength="101" x="1028.5" y="1081.0313">EntryRepository</text><rect fill="#E3E3E3" height="51.2422" rx="2.5" ry="2.5" style="stroke:#181818;stroke-width:0.5;" width="98" x="1174" y="5"/><text fill="#000000" font-family="sans-serif" font-size="14" lengthAdjust="spacing" textLength="80" x="1183" y="27.1074">GreenSpace</text><text fill="#000000" font-family="sans-serif" font-size="14" lengthAdjust="spacing" textLength="84" x="1181" y="45.7285">:GreenSpace</text><rect fill="#E3E3E3" height="51.2422" rx="2.5" ry="2.5" style="stroke:#181818;stroke-width:0.5;" width="98" x="1174" y="1040.3027"/><text fill="#000000" font-family="sans-serif" font-size="14" lengthAdjust="spacing" textLength="80" x="1183" y="1062.4102">GreenSpace</text><text fill="#000000" font-family="sans-serif" font-size="14" lengthAdjust="spacing" textLength="84" x="1181" y="1081.0313">:GreenSpace</text><rect fill="#E3E3E3" height="51.2422" rx="2.5" ry="2.5" style="stroke:#181818;stroke-width:0.5;" width="49" x="1282" y="5"/><text fill="#000000" font-family="sans-serif" font-size="14" lengthAdjust="spacing" textLength="35" x="1289" y="27.1074">Task:</text><text fill="#000000" font-family="sans-serif" font-size="14" lengthAdjust="spacing" textLength="31" x="1291" y="45.7285">Task</text><rect fill="#E3E3E3" height="51.2422" rx="2.5" ry="2.5" style="stroke:#181818;stroke-width:0.5;" width="49" x="1282" y="1040.3027"/><text fill="#000000" font-family="sans-serif" font-size="14" lengthAdjust="spacing" textLength="35" x="1289" y="1062.4102">Task:</text><text fill="#000000" font-family="sans-serif" font-size="14" lengthAdjust="spacing" textLength="31" x="1291" y="1081.0313">Task</text><rect fill="#E3E3E3" height="32.6211" rx="2.5" ry="2.5" style="stroke:#181818;stroke-width:0.5;" width="51" x="1341" y="1040.3027"/><text fill="#000000" font-family="sans-serif" font-size="14" lengthAdjust="spacing" textLength="37" x="1348" y="1062.4102">:Entry</text><rect fill="#E3E3E3" height="32.6211" rx="2.5" ry="2.5" style="stroke:#181818;stroke-width:0.5;" width="120" x="1402" y="23.6211"/><text fill="#000000" font-family="sans-serif" font-size="14" lengthAdjust="spacing" textLength="106" x="1409" y="45.7285">:GreenSpaceDto</text><rect fill="#E3E3E3" height="32.6211" rx="2.5" ry="2.5" style="stroke:#181818;stroke-width:0.5;" width="120" x="1402" y="1040.3027"/><text fill="#000000" font-family="sans-serif" font-size="14" lengthAdjust="spacing" textLength="106" x="1409" y="1062.4102">:GreenSpaceDto</text><rect fill="#E3E3E3" height="32.6211" rx="2.5" ry="2.5" style="stroke:#181818;stroke-width:0.5;" width="146" x="1532" y="23.6211"/><text fill="#000000" font-family="sans-serif" font-size="14" lengthAdjust="spacing" textLength="132" x="1539" y="45.7285">:GreenSpaceMapper</text><rect fill="#E3E3E3" height="32.6211" rx="2.5" ry="2.5" style="stroke:#181818;stroke-width:0.5;" width="146" x="1532" y="1040.3027"/><text fill="#000000" font-family="sans-serif" font-size="14" lengthAdjust="spacing" textLength="132" x="1539" y="1062.4102">:GreenSpaceMapper</text><rect fill="#E3E3E3" height="32.6211" rx="2.5" ry="2.5" style="stroke:#181818;stroke-width:0.5;" width="287" x="1688" y="23.6211"/><text fill="#000000" font-family="sans-serif" font-size="14" lengthAdjust="spacing" textLength="273" x="1695" y="45.7285">greenSpaceListDto : List&lt;GreenSpaceDto&gt;</text><rect fill="#E3E3E3" height="32.6211" rx="2.5" ry="2.5" style="stroke:#181818;stroke-width:0.5;" width="287" x="1688" y="1040.3027"/><text fill="#000000" font-family="sans-serif" font-size="14" lengthAdjust="spacing" textLength="273" x="1695" y="1062.4102">greenSpaceListDto : List&lt;GreenSpaceDto&gt;</text><rect fill="#E3E3E3" height="32.6211" rx="2.5" ry="2.5" style="stroke:#181818;stroke-width:0.5;" width="166" x="1985" y="23.6211"/><text fill="#000000" font-family="sans-serif" font-size="14" lengthAdjust="spacing" textLength="152" x="1992" y="45.7285">List : List&lt;GreenSpace&gt;</text><rect fill="#E3E3E3" height="32.6211" rx="2.5" ry="2.5" style="stroke:#181818;stroke-width:0.5;" width="166" x="1985" y="1040.3027"/><text fill="#000000" font-family="sans-serif" font-size="14" lengthAdjust="spacing" textLength="152" x="1992" y="1062.4102">List : List&lt;GreenSpace&gt;</text><rect fill="#E3E3E3" height="32.6211" rx="2.5" ry="2.5" style="stroke:#181818;stroke-width:0.5;" width="131" x="2161" y="23.6211"/><text fill="#000000" font-family="sans-serif" font-size="14" lengthAdjust="spacing" textLength="117" x="2168" y="45.7285">entryDto: EntryDto</text><rect fill="#E3E3E3" height="32.6211" rx="2.5" ry="2.5" style="stroke:#181818;stroke-width:0.5;" width="131" x="2161" y="1040.3027"/><text fill="#000000" font-family="sans-serif" font-size="14" lengthAdjust="spacing" textLength="117" x="2168" y="1062.4102">entryDto: EntryDto</text><rect fill="#FFFFFF" height="932.7695" style="stroke:#181818;stroke-width:1.0;" width="10" x="317" y="90.5332"/><rect fill="#FFFFFF" height="910.4785" style="stroke:#181818;stroke-width:1.0;" width="10" x="522" y="121.8242"/><rect fill="#FFFFFF" height="910.4785" style="stroke:#181818;stroke-width:1.0;" width="10" x="1074" y="121.8242"/><rect fill="#FFFFFF" height="31.291" style="stroke:#181818;stroke-width:1.0;" width="10" x="1301.5" y="153.1152"/><rect fill="#FFFFFF" height="524.9863" style="stroke:#181818;stroke-width:1.0;" width="10" x="1361.5" y="507.3164"/><rect fill="#FFFFFF" height="344.2012" style="stroke:#181818;stroke-width:1.0;" width="10" x="2221.5" y="540.9375"/><polygon fill="#181818" points="305,86.5332,315,90.5332,305,94.5332,309,90.5332" style="stroke:#181818;stroke-width:1.0;"/><line style="stroke:#181818;stroke-width:1.0;" x1="0" x2="311" y1="90.5332" y2="90.5332"/><text fill="#000000" font-family="sans-serif" font-size="13" font-weight="bold" lengthAdjust="spacing" textLength="7" x="7" y="85.2705">1</text><text fill="#000000" font-family="sans-serif" font-size="13" lengthAdjust="spacing" textLength="117" x="18" y="85.2705">selects green space</text><polygon fill="#181818" points="510,117.8242,520,121.8242,510,125.8242,514,121.8242" style="stroke:#181818;stroke-width:1.0;"/><line style="stroke:#181818;stroke-width:1.0;" x1="327" x2="516" y1="121.8242" y2="121.8242"/><text fill="#000000" font-family="sans-serif" font-size="13" font-weight="bold" lengthAdjust="spacing" textLength="7" x="334" y="116.5615">2</text><text fill="#000000" font-family="sans-serif" font-size="13" lengthAdjust="spacing" textLength="115" x="345" y="116.5615">getDegreeUrgency()</text><polygon fill="#181818" points="1289.5,149.1152,1299.5,153.1152,1289.5,157.1152,1293.5,153.1152" style="stroke:#181818;stroke-width:1.0;"/><line style="stroke:#181818;stroke-width:1.0;" x1="532" x2="1295.5" y1="153.1152" y2="153.1152"/><text fill="#000000" font-family="sans-serif" font-size="13" font-weight="bold" lengthAdjust="spacing" textLength="7" x="539" y="147.8525">3</text><text fill="#000000" font-family="sans-serif" font-size="13" lengthAdjust="spacing" textLength="170" x="550" y="147.8525">getEnumDegreeUrgencyList()</text><polygon fill="#181818" points="543,180.4063,533,184.4063,543,188.4063,539,184.4063" style="stroke:#181818;stroke-width:1.0;"/><line style="stroke:#181818;stroke-width:1.0;stroke-dasharray:2.0,2.0;" x1="537" x2="1305.5" y1="184.4063" y2="184.4063"/><text fill="#000000" font-family="sans-serif" font-size="13" font-weight="bold" lengthAdjust="spacing" textLength="7" x="549" y="179.1436">4</text><text fill="#000000" font-family="sans-serif" font-size="13" lengthAdjust="spacing" textLength="142" x="560" y="179.1436">enumDegreeUrgencyList</text><polygon fill="#181818" points="338,211.6973,328,215.6973,338,219.6973,334,215.6973" style="stroke:#181818;stroke-width:1.0;"/><line style="stroke:#181818;stroke-width:1.0;stroke-dasharray:2.0,2.0;" x1="332" x2="521" y1="215.6973" y2="215.6973"/><text fill="#000000" font-family="sans-serif" font-size="13" font-weight="bold" lengthAdjust="spacing" textLength="7" x="344" y="210.4346">5</text><text fill="#000000" font-family="sans-serif" font-size="13" lengthAdjust="spacing" textLength="142" x="355" y="210.4346">enumDegreeUrgencyList</text><polygon fill="#181818" points="11,242.9883,1,246.9883,11,250.9883,7,246.9883" style="stroke:#181818;stroke-width:1.0;"/><line style="stroke:#181818;stroke-width:1.0;stroke-dasharray:2.0,2.0;" x1="5" x2="316" y1="246.9883" y2="246.9883"/><text fill="#000000" font-family="sans-serif" font-size="13" font-weight="bold" lengthAdjust="spacing" textLength="7" x="17" y="241.7256">6</text><text fill="#000000" font-family="sans-serif" font-size="13" lengthAdjust="spacing" textLength="287" x="28" y="241.7256">show degree of urgency list and ask to select one</text><polygon fill="#181818" points="305,274.2793,315,278.2793,305,282.2793,309,278.2793" style="stroke:#181818;stroke-width:1.0;"/><line style="stroke:#181818;stroke-width:1.0;" x1="0" x2="311" y1="278.2793" y2="278.2793"/><text fill="#000000" font-family="sans-serif" font-size="13" font-weight="bold" lengthAdjust="spacing" textLength="7" x="7" y="273.0166">7</text><text fill="#000000" font-family="sans-serif" font-size="13" lengthAdjust="spacing" textLength="157" x="18" y="273.0166">selects the urgency degree</text><polygon fill="#181818" points="11,305.5703,1,309.5703,11,313.5703,7,309.5703" style="stroke:#181818;stroke-width:1.0;"/><line style="stroke:#181818;stroke-width:1.0;stroke-dasharray:2.0,2.0;" x1="5" x2="316" y1="309.5703" y2="309.5703"/><text fill="#000000" font-family="sans-serif" font-size="13" font-weight="bold" lengthAdjust="spacing" textLength="7" x="17" y="304.3076">8</text><text fill="#000000" font-family="sans-serif" font-size="13" lengthAdjust="spacing" textLength="194" x="28" y="304.3076">requests data (expected duration)</text><polygon fill="#181818" points="305,336.8613,315,340.8613,305,344.8613,309,340.8613" style="stroke:#181818;stroke-width:1.0;"/><line style="stroke:#181818;stroke-width:1.0;" x1="0" x2="311" y1="340.8613" y2="340.8613"/><text fill="#000000" font-family="sans-serif" font-size="13" font-weight="bold" lengthAdjust="spacing" textLength="7" x="7" y="335.5986">9</text><text fill="#000000" font-family="sans-serif" font-size="13" lengthAdjust="spacing" textLength="61" x="18" y="335.5986">types data</text><polygon fill="#181818" points="11,368.1523,1,372.1523,11,376.1523,7,372.1523" style="stroke:#181818;stroke-width:1.0;"/><line style="stroke:#181818;stroke-width:1.0;stroke-dasharray:2.0,2.0;" x1="5" x2="316" y1="372.1523" y2="372.1523"/><text fill="#000000" font-family="sans-serif" font-size="13" font-weight="bold" lengthAdjust="spacing" textLength="14" x="17" y="366.8896">10</text><text fill="#000000" font-family="sans-serif" font-size="13" lengthAdjust="spacing" textLength="205" x="35" y="366.8896">show data and request confirmation</text><polygon fill="#181818" points="305,399.4434,315,403.4434,305,407.4434,309,403.4434" style="stroke:#181818;stroke-width:1.0;"/><line style="stroke:#181818;stroke-width:1.0;" x1="0" x2="311" y1="403.4434" y2="403.4434"/><text fill="#000000" font-family="sans-serif" font-size="13" font-weight="bold" lengthAdjust="spacing" textLength="14" x="7" y="398.1807">11</text><text fill="#000000" font-family="sans-serif" font-size="13" lengthAdjust="spacing" textLength="78" x="25" y="398.1807">confirms data</text><polygon fill="#181818" points="510,430.7344,520,434.7344,510,438.7344,514,434.7344" style="stroke:#181818;stroke-width:1.0;"/><line style="stroke:#181818;stroke-width:1.0;" x1="327" x2="516" y1="434.7344" y2="434.7344"/><text fill="#000000" font-family="sans-serif" font-size="13" font-weight="bold" lengthAdjust="spacing" textLength="14" x="334" y="429.4717">12</text><text fill="#000000" font-family="sans-serif" font-size="13" lengthAdjust="spacing" textLength="153" x="352" y="429.4717">registerNewTask(entryDto)</text><polygon fill="#181818" points="1062,462.0254,1072,466.0254,1062,470.0254,1066,466.0254" style="stroke:#181818;stroke-width:1.0;"/><line style="stroke:#181818;stroke-width:1.0;" x1="532" x2="1068" y1="466.0254" y2="466.0254"/><text fill="#000000" font-family="sans-serif" font-size="13" font-weight="bold" lengthAdjust="spacing" textLength="14" x="539" y="460.7627">13</text><text fill="#000000" font-family="sans-serif" font-size="13" lengthAdjust="spacing" textLength="153" x="557" y="460.7627">registerNewTask(entryDto)</text><polygon fill="#181818" points="1329,493.3164,1339,497.3164,1329,501.3164,1333,497.3164" style="stroke:#181818;stroke-width:1.0;"/><line style="stroke:#181818;stroke-width:1.0;" x1="1084" x2="1335" y1="497.3164" y2="497.3164"/><text fill="#000000" font-family="sans-serif" font-size="13" font-weight="bold" lengthAdjust="spacing" textLength="14" x="1091" y="492.0537">14</text><text fill="#000000" font-family="sans-serif" font-size="13" lengthAdjust="spacing" textLength="93" x="1109" y="492.0537">create(entryDto)</text><rect fill="#E3E3E3" height="32.6211" rx="2.5" ry="2.5" style="stroke:#181818;stroke-width:0.5;" width="51" x="1341" y="474.0254"/><text fill="#000000" font-family="sans-serif" font-size="14" lengthAdjust="spacing" textLength="37" x="1348" y="496.1328">:Entry</text><polygon fill="#181818" points="2209.5,536.9375,2219.5,540.9375,2209.5,544.9375,2213.5,540.9375" style="stroke:#181818;stroke-width:1.0;"/><line style="stroke:#181818;stroke-width:1.0;" x1="1371.5" x2="2215.5" y1="540.9375" y2="540.9375"/><text fill="#000000" font-family="sans-serif" font-size="13" font-weight="bold" lengthAdjust="spacing" textLength="14" x="1378.5" y="535.6748">15</text><text fill="#000000" font-family="sans-serif" font-size="13" lengthAdjust="spacing" textLength="190" x="1396.5" y="535.6748">stateOfEntry = getStateOfEntry()</text><polygon fill="#181818" points="1382.5,568.2285,1372.5,572.2285,1382.5,576.2285,1378.5,572.2285" style="stroke:#181818;stroke-width:1.0;"/><line style="stroke:#181818;stroke-width:1.0;stroke-dasharray:2.0,2.0;" x1="1376.5" x2="2220.5" y1="572.2285" y2="572.2285"/><text fill="#000000" font-family="sans-serif" font-size="13" font-weight="bold" lengthAdjust="spacing" textLength="14" x="1388.5" y="566.9658">16</text><text fill="#000000" font-family="sans-serif" font-size="13" lengthAdjust="spacing" textLength="73" x="1406.5" y="566.9658">stateOfEntry</text><polygon fill="#181818" points="2209.5,599.5195,2219.5,603.5195,2209.5,607.5195,2213.5,603.5195" style="stroke:#181818;stroke-width:1.0;"/><line style="stroke:#181818;stroke-width:1.0;" x1="1371.5" x2="2215.5" y1="603.5195" y2="603.5195"/><text fill="#000000" font-family="sans-serif" font-size="13" font-weight="bold" lengthAdjust="spacing" textLength="14" x="1378.5" y="598.2568">17</text><text fill="#000000" font-family="sans-serif" font-size="13" lengthAdjust="spacing" textLength="183" x="1396.5" y="598.2568">greenSpace = getGreenSpace()</text><polygon fill="#181818" points="1382.5,630.8105,1372.5,634.8105,1382.5,638.8105,1378.5,634.8105" style="stroke:#181818;stroke-width:1.0;"/><line style="stroke:#181818;stroke-width:1.0;stroke-dasharray:2.0,2.0;" x1="1376.5" x2="2220.5" y1="634.8105" y2="634.8105"/><text fill="#000000" font-family="sans-serif" font-size="13" font-weight="bold" lengthAdjust="spacing" textLength="14" x="1388.5" y="629.5479">18</text><text fill="#000000" font-family="sans-serif" font-size="13" lengthAdjust="spacing" textLength="69" x="1406.5" y="629.5479">greenSpace</text><polygon fill="#181818" points="2209.5,662.1016,2219.5,666.1016,2209.5,670.1016,2213.5,666.1016" style="stroke:#181818;stroke-width:1.0;"/><line style="stroke:#181818;stroke-width:1.0;" x1="1371.5" x2="2215.5" y1="666.1016" y2="666.1016"/><text fill="#000000" font-family="sans-serif" font-size="13" font-weight="bold" lengthAdjust="spacing" textLength="14" x="1378.5" y="660.8389">19</text><text fill="#000000" font-family="sans-serif" font-size="13" lengthAdjust="spacing" textLength="175" x="1396.5" y="660.8389">titleOfEntry = getTitleOfEntry()</text><polygon fill="#181818" points="1382.5,693.3926,1372.5,697.3926,1382.5,701.3926,1378.5,697.3926" style="stroke:#181818;stroke-width:1.0;"/><line style="stroke:#181818;stroke-width:1.0;stroke-dasharray:2.0,2.0;" x1="1376.5" x2="2220.5" y1="697.3926" y2="697.3926"/><text fill="#000000" font-family="sans-serif" font-size="13" font-weight="bold" lengthAdjust="spacing" textLength="14" x="1388.5" y="692.1299">20</text><text fill="#000000" font-family="sans-serif" font-size="13" lengthAdjust="spacing" textLength="65" x="1406.5" y="692.1299">titleOfEntry</text><polygon fill="#181818" points="2209.5,724.6836,2219.5,728.6836,2209.5,732.6836,2213.5,728.6836" style="stroke:#181818;stroke-width:1.0;"/><line style="stroke:#181818;stroke-width:1.0;" x1="1371.5" x2="2215.5" y1="728.6836" y2="728.6836"/><text fill="#000000" font-family="sans-serif" font-size="13" font-weight="bold" lengthAdjust="spacing" textLength="14" x="1378.5" y="723.4209">21</text><text fill="#000000" font-family="sans-serif" font-size="13" lengthAdjust="spacing" textLength="258" x="1396.5" y="723.4209">descriptionOfEntry = getDescriptionOfEntry()</text><polygon fill="#181818" points="1382.5,755.9746,1372.5,759.9746,1382.5,763.9746,1378.5,759.9746" style="stroke:#181818;stroke-width:1.0;"/><line style="stroke:#181818;stroke-width:1.0;stroke-dasharray:2.0,2.0;" x1="1376.5" x2="2220.5" y1="759.9746" y2="759.9746"/><text fill="#000000" font-family="sans-serif" font-size="13" font-weight="bold" lengthAdjust="spacing" textLength="14" x="1388.5" y="754.7119">22</text><text fill="#000000" font-family="sans-serif" font-size="13" lengthAdjust="spacing" textLength="107" x="1406.5" y="754.7119">descriptionOfEntry</text><polygon fill="#181818" points="2209.5,787.2656,2219.5,791.2656,2209.5,795.2656,2213.5,791.2656" style="stroke:#181818;stroke-width:1.0;"/><line style="stroke:#181818;stroke-width:1.0;" x1="1371.5" x2="2215.5" y1="791.2656" y2="791.2656"/><text fill="#000000" font-family="sans-serif" font-size="13" font-weight="bold" lengthAdjust="spacing" textLength="14" x="1378.5" y="786.0029">23</text><text fill="#000000" font-family="sans-serif" font-size="13" lengthAdjust="spacing" textLength="392" x="1396.5" y="786.0029">approximateExpectedDuration = getApproximateExpectedDuration()</text><polygon fill="#181818" points="1382.5,818.5566,1372.5,822.5566,1382.5,826.5566,1378.5,822.5566" style="stroke:#181818;stroke-width:1.0;"/><line style="stroke:#181818;stroke-width:1.0;stroke-dasharray:2.0,2.0;" x1="1376.5" x2="2220.5" y1="822.5566" y2="822.5566"/><text fill="#000000" font-family="sans-serif" font-size="13" font-weight="bold" lengthAdjust="spacing" textLength="14" x="1388.5" y="817.2939">24</text><text fill="#000000" font-family="sans-serif" font-size="13" lengthAdjust="spacing" textLength="174" x="1406.5" y="817.2939">approximateExpectedDuration</text><polygon fill="#181818" points="2209.5,849.8477,2219.5,853.8477,2209.5,857.8477,2213.5,853.8477" style="stroke:#181818;stroke-width:1.0;"/><line style="stroke:#181818;stroke-width:1.0;" x1="1371.5" x2="2215.5" y1="853.8477" y2="853.8477"/><text fill="#000000" font-family="sans-serif" font-size="13" font-weight="bold" lengthAdjust="spacing" textLength="14" x="1378.5" y="848.585">25</text><text fill="#000000" font-family="sans-serif" font-size="13" lengthAdjust="spacing" textLength="231" x="1396.5" y="848.585">degreeOfUrgency = getDegreeUrgency()</text><polygon fill="#181818" points="1382.5,881.1387,1372.5,885.1387,1382.5,889.1387,1378.5,885.1387" style="stroke:#181818;stroke-width:1.0;"/><line style="stroke:#181818;stroke-width:1.0;stroke-dasharray:2.0,2.0;" x1="1376.5" x2="2225.5" y1="885.1387" y2="885.1387"/><text fill="#000000" font-family="sans-serif" font-size="13" font-weight="bold" lengthAdjust="spacing" textLength="14" x="1388.5" y="879.876">26</text><text fill="#000000" font-family="sans-serif" font-size="13" lengthAdjust="spacing" textLength="100" x="1406.5" y="879.876">degreeOfUrgency</text><polygon fill="#181818" points="1095,912.4297,1085,916.4297,1095,920.4297,1091,916.4297" style="stroke:#181818;stroke-width:1.0;"/><line style="stroke:#181818;stroke-width:1.0;stroke-dasharray:2.0,2.0;" x1="1089" x2="1360.5" y1="916.4297" y2="916.4297"/><text fill="#000000" font-family="sans-serif" font-size="13" font-weight="bold" lengthAdjust="spacing" textLength="14" x="1101" y="911.167">27</text><text fill="#000000" font-family="sans-serif" font-size="13" lengthAdjust="spacing" textLength="53" x="1119" y="911.167">true/false</text><line style="stroke:#181818;stroke-width:1.0;" x1="1084" x2="1126" y1="947.7207" y2="947.7207"/><line style="stroke:#181818;stroke-width:1.0;" x1="1126" x2="1126" y1="947.7207" y2="960.7207"/><line style="stroke:#181818;stroke-width:1.0;" x1="1085" x2="1126" y1="960.7207" y2="960.7207"/><polygon fill="#181818" points="1095,956.7207,1085,960.7207,1095,964.7207,1091,960.7207" style="stroke:#181818;stroke-width:1.0;"/><text fill="#000000" font-family="sans-serif" font-size="13" font-weight="bold" lengthAdjust="spacing" textLength="14" x="1091" y="942.458">28</text><text fill="#000000" font-family="sans-serif" font-size="13" lengthAdjust="spacing" textLength="102" x="1109" y="942.458">verifyIfExist(entry)</text><polygon fill="#181818" points="543,988.0117,533,992.0117,543,996.0117,539,992.0117" style="stroke:#181818;stroke-width:1.0;"/><line style="stroke:#181818;stroke-width:1.0;stroke-dasharray:2.0,2.0;" x1="537" x2="1073" y1="992.0117" y2="992.0117"/><text fill="#000000" font-family="sans-serif" font-size="13" font-weight="bold" lengthAdjust="spacing" textLength="14" x="549" y="986.749">29</text><text fill="#000000" font-family="sans-serif" font-size="13" lengthAdjust="spacing" textLength="53" x="567" y="986.749">true/false</text><polygon fill="#181818" points="333,1019.3027,323,1023.3027,333,1027.3027,329,1023.3027" style="stroke:#181818;stroke-width:1.0;"/><line style="stroke:#181818;stroke-width:1.0;stroke-dasharray:2.0,2.0;" x1="327" x2="521" y1="1023.3027" y2="1023.3027"/><text fill="#000000" font-family="sans-serif" font-size="13" font-weight="bold" lengthAdjust="spacing" textLength="14" x="339" y="1018.04">30</text><text fill="#000000" font-family="sans-serif" font-size="13" lengthAdjust="spacing" textLength="53" x="357" y="1018.04">true/false</text><!--SRC=[xLPDR-Cs4BthLmpsKdi1RvCqAL1XksWsTWjdxThmn_Qo5qOQsKHaKgMe9Fxt7LAo9T7IsaNHcto9Cvnvxt4uCvxqcOk4ARQ3dHGos2gvGz0gGoyzdYGiU6ORNEfzZA0mq4niugf3kcMXVELY0n6BK_GybcafijqJAi_xOSj3X4XA_IJVF0hGFE094nhU-GlSy5IZMh7qUJr-1oo5zVWxFWzIQ2NZ69NrVLWj9YVUYKovbefZQdsEXlsI6zaah1wYAX7Vn2d0V7A_gaVyeH35ahA2Ytfiyu55QJwguo9TRb_gzR-9KTrYaHnRcxIQ74T2FSOabhZC7-jdlZXPjPpsSFRvqJahOOTQMf_XQjRgCsL9KhpUz7u-7otgdfkZuuGUdG311_FjOutbaust7YwLCPx6b04D6IT0Fy_guGA7VpmFyi_W4zMb3od6LFqfM9MGsbH2xSC2pL-OHbF6pj5wR61CoPA-3UeX6fYrsg08zhr-6v2jyPOpjnGSFyj5dFQ13UM8Uh96QpBIJcqBmGKrHXWKD_41co2Ta10To2QPHOgRyPo8ZuE1IISzo5Q-4hnn1nb1beT0R8g0YH2CLggX_Dr02dIHd8VLMpo2vB0jrCIjyEyCKmeAcMRGmxU48324C5DCSodwBLnwds0Ur8nzk9L1DNSeU22G8k9gPx5Re0kNPlIo_epsVAR-YQ_cHNg7FkYtbP1JQVy2mOaqO3H3thydjGgf92gHBMLeHevpHgQZAjk-gIRFMMGDyAkfzMN5qbxY9vrULMt6po3NMsSuAwSSOxcOSXBr-kUfokYpH9hhk7xlLSLo2LaLuInTY6cWU69Ai4OwFB5VGdsATbO0_Nee-SQf2t1KDDomwBTSoNsxmoMIleD_GNBCmysYOd0TCbEVyXSafORIFahRIjVgQcfPizNzM2nePtlKDVdmWef7-t4qUZC_6hPhppVxSUAqazV6VyMjzUBbJ-jlAC9i5tkLLVJ_scAxlRNRMxkzjTjRkxsrsrkxlRNRMxkzjTjR__lUEe_fvtmzdHYHgQc5wmytLpUt7txghROP_8vFS7q7rx_ujrV-rHtyDLg1EUvxlUbu1QdC53LgIDTI_2dBP_SZUs6mo8JcE_HXbg1u77uv6EYUBrn9iQCiU8zVfwN3pxU3prp34XKfWQzJRuWHos9D4O4CQG7ruI6vlhcxyIQqDcUqH_kGQEz1PYPpFinN_m00]--></g></svg>