<?xml version="1.0" encoding="us-ascii" standalone="no"?><svg xmlns="http://www.w3.org/2000/svg" xmlns:xlink="http://www.w3.org/1999/xlink" contentStyleType="text/css" height="528px" preserveAspectRatio="none" style="width:482px;height:528px;background:#FFFFFF;" version="1.1" viewBox="0 0 482 528" width="482px" zoomAndPan="magnify"><defs/><g><text fill="#000000" font-family="sans-serif" font-size="14" font-weight="bold" lengthAdjust="spacing" textLength="363" x="61" y="28.5352">System Sequence Diagram (SSD) - Alternative One</text><rect fill="#FFFFFF" height="309.1055" style="stroke:#181818;stroke-width:1.0;" width="10" x="18" y="128.9766"/><rect fill="#FFFFFF" height="29.3105" style="stroke:#181818;stroke-width:1.0;" width="10" x="315" y="150.2871"/><rect fill="#FFFFFF" height="29.3105" style="stroke:#181818;stroke-width:1.0;" width="10" x="315" y="208.9082"/><rect fill="#FFFFFF" height="102.9316" style="stroke:#181818;stroke-width:1.0;" width="10" x="315" y="267.5293"/><rect fill="#FFFFFF" height="29.3105" style="stroke:#181818;stroke-width:1.0;" width="10" x="315" y="399.7715"/><rect fill="none" height="59.6211" style="stroke:#000000;stroke-width:1.5;" width="199" x="277" y="282.5293"/><line style="stroke:#181818;stroke-width:0.5;stroke-dasharray:5.0,5.0;" x1="23" x2="23" y1="118.9766" y2="447.082"/><line style="stroke:#181818;stroke-width:0.5;stroke-dasharray:5.0,5.0;" x1="320" x2="320" y1="118.9766" y2="447.082"/><text fill="#000000" font-family="sans-serif" font-size="14" lengthAdjust="spacing" textLength="30" x="5" y="116.0234">GSM</text><ellipse cx="23" cy="50.9883" fill="#E3E3E3" rx="8" ry="8" style="stroke:#181818;stroke-width:0.5;"/><path d="M23,58.9883 L23,85.9883 M10,66.9883 L36,66.9883 M23,85.9883 L10,100.9883 M23,85.9883 L36,100.9883 " fill="none" style="stroke:#181818;stroke-width:0.5;"/><text fill="#000000" font-family="sans-serif" font-size="14" lengthAdjust="spacing" textLength="30" x="5" y="459.6172">GSM</text><ellipse cx="23" cy="471.0703" fill="#E3E3E3" rx="8" ry="8" style="stroke:#181818;stroke-width:0.5;"/><path d="M23,479.0703 L23,506.0703 M10,487.0703 L36,487.0703 M23,506.0703 L10,521.0703 M23,506.0703 L36,521.0703 " fill="none" style="stroke:#181818;stroke-width:0.5;"/><rect fill="#E3E3E3" height="30.4883" rx="2.5" ry="2.5" style="stroke:#181818;stroke-width:0.5;" width="66" x="287" y="87.4883"/><text fill="#000000" font-family="sans-serif" font-size="14" lengthAdjust="spacing" textLength="52" x="294" y="108.0234">:System</text><rect fill="#E3E3E3" height="30.4883" rx="2.5" ry="2.5" style="stroke:#181818;stroke-width:0.5;" width="66" x="287" y="446.082"/><text fill="#000000" font-family="sans-serif" font-size="14" lengthAdjust="spacing" textLength="52" x="294" y="466.6172">:System</text><rect fill="#FFFFFF" height="309.1055" style="stroke:#181818;stroke-width:1.0;" width="10" x="18" y="128.9766"/><rect fill="#FFFFFF" height="29.3105" style="stroke:#181818;stroke-width:1.0;" width="10" x="315" y="150.2871"/><rect fill="#FFFFFF" height="29.3105" style="stroke:#181818;stroke-width:1.0;" width="10" x="315" y="208.9082"/><rect fill="#FFFFFF" height="102.9316" style="stroke:#181818;stroke-width:1.0;" width="10" x="315" y="267.5293"/><rect fill="#FFFFFF" height="29.3105" style="stroke:#181818;stroke-width:1.0;" width="10" x="315" y="399.7715"/><polygon fill="#181818" points="303,146.2871,313,150.2871,303,154.2871,307,150.2871" style="stroke:#181818;stroke-width:1.0;"/><line style="stroke:#181818;stroke-width:1.0;" x1="28" x2="309" y1="150.2871" y2="150.2871"/><text fill="#000000" font-family="sans-serif" font-size="13" font-weight="bold" lengthAdjust="spacing" textLength="9" x="35" y="145.5449">1</text><text fill="#000000" font-family="sans-serif" font-size="13" lengthAdjust="spacing" textLength="255" x="48" y="145.5449">asks to postpone an entry in the Agenda</text><polygon fill="#181818" points="39,175.5977,29,179.5977,39,183.5977,35,179.5977" style="stroke:#181818;stroke-width:1.0;"/><line style="stroke:#181818;stroke-width:1.0;stroke-dasharray:2.0,2.0;" x1="33" x2="319" y1="179.5977" y2="179.5977"/><text fill="#000000" font-family="sans-serif" font-size="13" font-weight="bold" lengthAdjust="spacing" textLength="9" x="45" y="174.8555">2</text><text fill="#000000" font-family="sans-serif" font-size="13" lengthAdjust="spacing" textLength="131" x="58" y="174.8555">show Agenda entries</text><polygon fill="#181818" points="303,204.9082,313,208.9082,303,212.9082,307,208.9082" style="stroke:#181818;stroke-width:1.0;"/><line style="stroke:#181818;stroke-width:1.0;" x1="28" x2="309" y1="208.9082" y2="208.9082"/><text fill="#000000" font-family="sans-serif" font-size="13" font-weight="bold" lengthAdjust="spacing" textLength="9" x="35" y="204.166">3</text><text fill="#000000" font-family="sans-serif" font-size="13" lengthAdjust="spacing" textLength="150" x="48" y="204.166">selects an Agenda entry</text><polygon fill="#181818" points="39,234.2188,29,238.2188,39,242.2188,35,238.2188" style="stroke:#181818;stroke-width:1.0;"/><line style="stroke:#181818;stroke-width:1.0;stroke-dasharray:2.0,2.0;" x1="33" x2="319" y1="238.2188" y2="238.2188"/><text fill="#000000" font-family="sans-serif" font-size="13" font-weight="bold" lengthAdjust="spacing" textLength="9" x="45" y="233.4766">4</text><text fill="#000000" font-family="sans-serif" font-size="13" lengthAdjust="spacing" textLength="166" x="58" y="233.4766">requests data (future date)</text><polygon fill="#181818" points="303,263.5293,313,267.5293,303,271.5293,307,267.5293" style="stroke:#181818;stroke-width:1.0;"/><line style="stroke:#181818;stroke-width:1.0;" x1="28" x2="309" y1="267.5293" y2="267.5293"/><text fill="#000000" font-family="sans-serif" font-size="13" font-weight="bold" lengthAdjust="spacing" textLength="9" x="35" y="262.7871">5</text><text fill="#000000" font-family="sans-serif" font-size="13" lengthAdjust="spacing" textLength="131" x="48" y="262.7871">types requested data</text><path d="M277,282.5293 L339,282.5293 L339,289.8398 L329,299.8398 L277,299.8398 L277,282.5293 " fill="#EEEEEE" style="stroke:#000000;stroke-width:1.5;"/><rect fill="none" height="59.6211" style="stroke:#000000;stroke-width:1.5;" width="199" x="277" y="282.5293"/><text fill="#000000" font-family="sans-serif" font-size="13" font-weight="bold" lengthAdjust="spacing" textLength="17" x="292" y="296.0977">alt</text><text fill="#000000" font-family="sans-serif" font-size="11" font-weight="bold" lengthAdjust="spacing" textLength="117" x="354" y="295.1641">[System Verification]</text><line style="stroke:#181818;stroke-width:1.0;stroke-dasharray:2.0,2.0;" x1="325" x2="367" y1="321.1504" y2="321.1504"/><line style="stroke:#181818;stroke-width:1.0;stroke-dasharray:2.0,2.0;" x1="367" x2="367" y1="321.1504" y2="334.1504"/><line style="stroke:#181818;stroke-width:1.0;stroke-dasharray:2.0,2.0;" x1="326" x2="367" y1="334.1504" y2="334.1504"/><polygon fill="#181818" points="336,330.1504,326,334.1504,336,338.1504,332,334.1504" style="stroke:#181818;stroke-width:1.0;"/><text fill="#000000" font-family="sans-serif" font-size="13" font-weight="bold" lengthAdjust="spacing" textLength="9" x="332" y="316.4082">6</text><text fill="#000000" font-family="sans-serif" font-size="13" lengthAdjust="spacing" textLength="66" x="345" y="316.4082">verify data</text><polygon fill="#181818" points="39,366.4609,29,370.4609,39,374.4609,35,370.4609" style="stroke:#181818;stroke-width:1.0;"/><line style="stroke:#181818;stroke-width:1.0;stroke-dasharray:2.0,2.0;" x1="33" x2="319" y1="370.4609" y2="370.4609"/><text fill="#000000" font-family="sans-serif" font-size="13" font-weight="bold" lengthAdjust="spacing" textLength="9" x="45" y="365.7188">7</text><text fill="#000000" font-family="sans-serif" font-size="13" lengthAdjust="spacing" textLength="139" x="58" y="365.7188">requests confirmation</text><polygon fill="#181818" points="303,395.7715,313,399.7715,303,403.7715,307,399.7715" style="stroke:#181818;stroke-width:1.0;"/><line style="stroke:#181818;stroke-width:1.0;" x1="28" x2="309" y1="399.7715" y2="399.7715"/><text fill="#000000" font-family="sans-serif" font-size="13" font-weight="bold" lengthAdjust="spacing" textLength="9" x="35" y="395.0293">8</text><text fill="#000000" font-family="sans-serif" font-size="13" lengthAdjust="spacing" textLength="87" x="48" y="395.0293">confirms data</text><polygon fill="#181818" points="39,425.082,29,429.082,39,433.082,35,429.082" style="stroke:#181818;stroke-width:1.0;"/><line style="stroke:#181818;stroke-width:1.0;stroke-dasharray:2.0,2.0;" x1="33" x2="319" y1="429.082" y2="429.082"/><text fill="#000000" font-family="sans-serif" font-size="13" font-weight="bold" lengthAdjust="spacing" textLength="9" x="45" y="424.3398">9</text><text fill="#000000" font-family="sans-serif" font-size="13" lengthAdjust="spacing" textLength="170" x="58" y="424.3398">displays operation success</text><!--SRC=[bP71Ri8m38RlVGgB4nnu0GwJa91sGZjKsjsaRebedInsG7txfQK1DXKaSd8K_z__sv6JPOy1E-WSEtCChYFG4AcGsuj7SyA6IkrRWa16aPlsiK6EMBcBvGPgR8MAGgscrh8NfGvA-ed4Xc1diHdQbsMvMy4QjgrIO5Hx9lZY9CEeZcDte91geox0uhFSBm05ziWfGYYIeLfZFRB2OdDr61kkvQYpPrJA2YWAI2VVrXyvrYQfJWBgm3jHxvW06OWrz60Pz4YmROWh7FKtRFQ1wKoqTG9dZqrQYBjCwf5eIKP1HNEShFiJJgXDcvOXqmEeVnvcDaWOTYy9Kw4YBEkeCT1meTMBGFE9jFSacKZLYBojOHQ3hMRvDmLRMvC-s_7_k5EPBCv3LtydfxbVRlfnGkEujg6xExmpsoIMk_Lx7rvPyIts0ivJ62E0H6D8dltxBm00]--></g></svg>