<?xml version="1.0" encoding="us-ascii" standalone="no"?><svg xmlns="http://www.w3.org/2000/svg" xmlns:xlink="http://www.w3.org/1999/xlink" contentStyleType="text/css" height="839px" preserveAspectRatio="none" style="width:1135px;height:839px;background:#FFFFFF;" version="1.1" viewBox="0 0 1135 839" width="1135px" zoomAndPan="magnify"><defs/><g><!--class ApplicationSession--><g id="elem_ApplicationSession"><rect codeLine="12" fill="#F1F1F1" height="80.5938" id="ApplicationSession" rx="2.5" ry="2.5" style="stroke:#181818;stroke-width:0.5;" width="164" x="207.5" y="290"/><ellipse cx="223.4" cy="306" fill="#ADD1B2" rx="11" ry="11" style="stroke:#181818;stroke-width:1.0;"/><path d="M226.3688,311.6406 Q225.7906,311.9375 225.15,312.0781 Q224.5094,312.2344 223.8063,312.2344 Q221.3063,312.2344 219.9781,310.5938 Q218.6656,308.9375 218.6656,305.8125 Q218.6656,302.6875 219.9781,301.0313 Q221.3063,299.375 223.8063,299.375 Q224.5094,299.375 225.15,299.5313 Q225.8063,299.6875 226.3688,299.9844 L226.3688,302.7031 Q225.7438,302.125 225.15,301.8594 Q224.5563,301.5781 223.9313,301.5781 Q222.5875,301.5781 221.9,302.6563 Q221.2125,303.7188 221.2125,305.8125 Q221.2125,307.9063 221.9,308.9844 Q222.5875,310.0469 223.9313,310.0469 Q224.5563,310.0469 225.15,309.7813 Q225.7438,309.5 226.3688,308.9219 L226.3688,311.6406 Z " fill="#000000"/><text fill="#000000" font-family="sans-serif" font-size="14" lengthAdjust="spacing" textLength="130" x="237.6" y="310.8467">ApplicationSession</text><line style="stroke:#181818;stroke-width:0.5;" x1="208.5" x2="370.5" y1="322" y2="322"/><line style="stroke:#181818;stroke-width:0.5;" x1="208.5" x2="370.5" y1="330" y2="330"/><text fill="#000000" font-family="sans-serif" font-size="14" lengthAdjust="spacing" textLength="145" x="213.5" y="346.9951">+static getInstance()</text><text fill="#000000" font-family="sans-serif" font-size="14" lengthAdjust="spacing" textLength="152" x="213.5" y="363.292">+getCurrentSession()</text></g><!--class UserSession--><g id="elem_UserSession"><rect codeLine="18" fill="#F1F1F1" height="48" id="UserSession" rx="2.5" ry="2.5" style="stroke:#181818;stroke-width:0.5;" width="119" x="139" y="537.5"/><ellipse cx="154" cy="553.5" fill="#ADD1B2" rx="11" ry="11" style="stroke:#181818;stroke-width:1.0;"/><path d="M156.9688,559.1406 Q156.3906,559.4375 155.75,559.5781 Q155.1094,559.7344 154.4063,559.7344 Q151.9063,559.7344 150.5781,558.0938 Q149.2656,556.4375 149.2656,553.3125 Q149.2656,550.1875 150.5781,548.5313 Q151.9063,546.875 154.4063,546.875 Q155.1094,546.875 155.75,547.0313 Q156.4063,547.1875 156.9688,547.4844 L156.9688,550.2031 Q156.3438,549.625 155.75,549.3594 Q155.1563,549.0781 154.5313,549.0781 Q153.1875,549.0781 152.5,550.1563 Q151.8125,551.2188 151.8125,553.3125 Q151.8125,555.4063 152.5,556.4844 Q153.1875,557.5469 154.5313,557.5469 Q155.1563,557.5469 155.75,557.2813 Q156.3438,557 156.9688,556.4219 L156.9688,559.1406 Z " fill="#000000"/><text fill="#000000" font-family="sans-serif" font-size="14" lengthAdjust="spacing" textLength="87" x="168" y="558.3467">UserSession</text><line style="stroke:#181818;stroke-width:0.5;" x1="140" x2="257" y1="569.5" y2="569.5"/><line style="stroke:#181818;stroke-width:0.5;" x1="140" x2="257" y1="577.5" y2="577.5"/></g><!--class VFM--><g id="elem_VFM"><rect codeLine="22" fill="#F1F1F1" height="80.5938" id="VFM" rx="2.5" ry="2.5" style="stroke:#181818;stroke-width:0.5;" width="84" x="674.5" y="752"/><ellipse cx="699.85" cy="768" fill="#ADD1B2" rx="11" ry="11" style="stroke:#181818;stroke-width:1.0;"/><path d="M702.8188,773.6406 Q702.2406,773.9375 701.6,774.0781 Q700.9594,774.2344 700.2563,774.2344 Q697.7563,774.2344 696.4281,772.5938 Q695.1156,770.9375 695.1156,767.8125 Q695.1156,764.6875 696.4281,763.0313 Q697.7563,761.375 700.2563,761.375 Q700.9594,761.375 701.6,761.5313 Q702.2563,761.6875 702.8188,761.9844 L702.8188,764.7031 Q702.1938,764.125 701.6,763.8594 Q701.0063,763.5781 700.3813,763.5781 Q699.0375,763.5781 698.35,764.6563 Q697.6625,765.7188 697.6625,767.8125 Q697.6625,769.9063 698.35,770.9844 Q699.0375,772.0469 700.3813,772.0469 Q701.0063,772.0469 701.6,771.7813 Q702.1938,771.5 702.8188,770.9219 L702.8188,773.6406 Z " fill="#000000"/><text fill="#000000" font-family="sans-serif" font-size="14" lengthAdjust="spacing" textLength="29" x="716.15" y="772.8467">VFM</text><line style="stroke:#181818;stroke-width:0.5;" x1="675.5" x2="757.5" y1="784" y2="784"/><text fill="#000000" font-family="sans-serif" font-size="14" lengthAdjust="spacing" textLength="41" x="680.5" y="800.9951">-email</text><text fill="#000000" font-family="sans-serif" font-size="14" lengthAdjust="spacing" textLength="72" x="680.5" y="817.292">-password</text><line style="stroke:#181818;stroke-width:0.5;" x1="675.5" x2="757.5" y1="824.5938" y2="824.5938"/></g><!--class Vehicle--><g id="elem_Vehicle"><rect codeLine="27" fill="#F1F1F1" height="227.2656" id="Vehicle" rx="2.5" ry="2.5" style="stroke:#181818;stroke-width:0.5;" width="823" x="305" y="448"/><ellipse cx="687.25" cy="464" fill="#ADD1B2" rx="11" ry="11" style="stroke:#181818;stroke-width:1.0;"/><path d="M690.2188,469.6406 Q689.6406,469.9375 689,470.0781 Q688.3594,470.2344 687.6563,470.2344 Q685.1563,470.2344 683.8281,468.5938 Q682.5156,466.9375 682.5156,463.8125 Q682.5156,460.6875 683.8281,459.0313 Q685.1563,457.375 687.6563,457.375 Q688.3594,457.375 689,457.5313 Q689.6563,457.6875 690.2188,457.9844 L690.2188,460.7031 Q689.5938,460.125 689,459.8594 Q688.4063,459.5781 687.7813,459.5781 Q686.4375,459.5781 685.75,460.6563 Q685.0625,461.7188 685.0625,463.8125 Q685.0625,465.9063 685.75,466.9844 Q686.4375,468.0469 687.7813,468.0469 Q688.4063,468.0469 689,467.7813 Q689.5938,467.5 690.2188,466.9219 L690.2188,469.6406 Z " fill="#000000"/><text fill="#000000" font-family="sans-serif" font-size="14" lengthAdjust="spacing" textLength="50" x="707.75" y="468.8467">Vehicle</text><line style="stroke:#181818;stroke-width:0.5;" x1="306" x2="1127" y1="480" y2="480"/><text fill="#000000" font-family="sans-serif" font-size="14" lengthAdjust="spacing" textLength="94" x="311" y="496.9951">-brand: String</text><text fill="#000000" font-family="sans-serif" font-size="14" lengthAdjust="spacing" textLength="97" x="311" y="513.292">-model: String</text><text fill="#000000" font-family="sans-serif" font-size="14" lengthAdjust="spacing" textLength="65" x="311" y="529.5889">-plate: int</text><text fill="#000000" font-family="sans-serif" font-size="14" lengthAdjust="spacing" textLength="84" x="311" y="545.8857">-type: String</text><text fill="#000000" font-family="sans-serif" font-size="14" lengthAdjust="spacing" textLength="58" x="311" y="562.1826">-tare: int</text><text fill="#000000" font-family="sans-serif" font-size="14" lengthAdjust="spacing" textLength="141" x="311" y="578.4795">-grossWeight: String</text><text fill="#000000" font-family="sans-serif" font-size="14" lengthAdjust="spacing" textLength="111" x="311" y="594.7764">-currenteKM: int</text><text fill="#000000" font-family="sans-serif" font-size="14" lengthAdjust="spacing" textLength="133" x="311" y="611.0732">-registerDate: Date</text><text fill="#000000" font-family="sans-serif" font-size="14" lengthAdjust="spacing" textLength="154" x="311" y="627.3701">-acquisitionDate: Date</text><text fill="#000000" font-family="sans-serif" font-size="14" lengthAdjust="spacing" textLength="166" x="311" y="643.667">-frequencyCheckKm: int</text><line style="stroke:#181818;stroke-width:0.5;" x1="306" x2="1127" y1="650.9688" y2="650.9688"/><text fill="#000000" font-family="sans-serif" font-size="14" lengthAdjust="spacing" textLength="811" x="311" y="667.9639">+Vehicle(brand, model, plate, type, tare, grossWeight, currenteKM, registerDate, acquisitionDate, checkupFrequency)</text></g><!--class VehicleRepository--><g id="elem_VehicleRepository"><rect codeLine="44" fill="#F1F1F1" height="80.5938" id="VehicleRepository" rx="2.5" ry="2.5" style="stroke:#181818;stroke-width:0.5;" width="522" x="455.5" y="290"/><ellipse cx="650.25" cy="306" fill="#ADD1B2" rx="11" ry="11" style="stroke:#181818;stroke-width:1.0;"/><path d="M653.2188,311.6406 Q652.6406,311.9375 652,312.0781 Q651.3594,312.2344 650.6563,312.2344 Q648.1563,312.2344 646.8281,310.5938 Q645.5156,308.9375 645.5156,305.8125 Q645.5156,302.6875 646.8281,301.0313 Q648.1563,299.375 650.6563,299.375 Q651.3594,299.375 652,299.5313 Q652.6563,299.6875 653.2188,299.9844 L653.2188,302.7031 Q652.5938,302.125 652,301.8594 Q651.4063,301.5781 650.7813,301.5781 Q649.4375,301.5781 648.75,302.6563 Q648.0625,303.7188 648.0625,305.8125 Q648.0625,307.9063 648.75,308.9844 Q649.4375,310.0469 650.7813,310.0469 Q651.4063,310.0469 652,309.7813 Q652.5938,309.5 653.2188,308.9219 L653.2188,311.6406 Z " fill="#000000"/><text fill="#000000" font-family="sans-serif" font-size="14" lengthAdjust="spacing" textLength="124" x="670.75" y="310.8467">VehicleRepository</text><line style="stroke:#181818;stroke-width:0.5;" x1="456.5" x2="976.5" y1="322" y2="322"/><line style="stroke:#181818;stroke-width:0.5;" x1="456.5" x2="976.5" y1="330" y2="330"/><text fill="#000000" font-family="sans-serif" font-size="14" lengthAdjust="spacing" textLength="468" x="461.5" y="346.9951">+registerVehicle(brand, model, type, tare, gross weight, current km,</text><text fill="#000000" font-family="sans-serif" font-size="14" lengthAdjust="spacing" textLength="510" x="461.5" y="363.292">register date, acquisition date, maintenance/check-up frequency (in kms))</text></g><!--class Repositories--><g id="elem_Repositories"><rect codeLine="50" fill="#F1F1F1" height="96.8906" id="Repositories" rx="2.5" ry="2.5" style="stroke:#181818;stroke-width:0.5;" width="318" x="569.5" y="124"/><ellipse cx="680.75" cy="140" fill="#ADD1B2" rx="11" ry="11" style="stroke:#181818;stroke-width:1.0;"/><path d="M683.7188,145.6406 Q683.1406,145.9375 682.5,146.0781 Q681.8594,146.2344 681.1563,146.2344 Q678.6563,146.2344 677.3281,144.5938 Q676.0156,142.9375 676.0156,139.8125 Q676.0156,136.6875 677.3281,135.0313 Q678.6563,133.375 681.1563,133.375 Q681.8594,133.375 682.5,133.5313 Q683.1563,133.6875 683.7188,133.9844 L683.7188,136.7031 Q683.0938,136.125 682.5,135.8594 Q681.9063,135.5781 681.2813,135.5781 Q679.9375,135.5781 679.25,136.6563 Q678.5625,137.7188 678.5625,139.8125 Q678.5625,141.9063 679.25,142.9844 Q679.9375,144.0469 681.2813,144.0469 Q681.9063,144.0469 682.5,143.7813 Q683.0938,143.5 683.7188,142.9219 L683.7188,145.6406 Z " fill="#000000"/><text fill="#000000" font-family="sans-serif" font-size="14" lengthAdjust="spacing" textLength="87" x="701.25" y="144.8467">Repositories</text><line style="stroke:#181818;stroke-width:0.5;" x1="570.5" x2="886.5" y1="156" y2="156"/><line style="stroke:#181818;stroke-width:0.5;" x1="570.5" x2="886.5" y1="164" y2="164"/><text fill="#000000" font-family="sans-serif" font-size="14" lengthAdjust="spacing" textLength="102" x="575.5" y="180.9951">-Repositories()</text><text fill="#000000" font-family="sans-serif" font-size="14" lengthAdjust="spacing" textLength="204" x="575.5" y="197.292">+getInstance() : Repositories</text><text fill="#000000" font-family="sans-serif" font-size="14" lengthAdjust="spacing" textLength="306" x="575.5" y="213.5889">+getVehicleRepository() : VehicleRepository</text></g><!--class RegisterVehicleController--><g id="elem_RegisterVehicleController"><rect codeLine="56" fill="#F1F1F1" height="113.1875" id="RegisterVehicleController" rx="2.5" ry="2.5" style="stroke:#181818;stroke-width:0.5;" width="527" x="7" y="116"/><ellipse cx="178.75" cy="132" fill="#ADD1B2" rx="11" ry="11" style="stroke:#181818;stroke-width:1.0;"/><path d="M181.7188,137.6406 Q181.1406,137.9375 180.5,138.0781 Q179.8594,138.2344 179.1563,138.2344 Q176.6563,138.2344 175.3281,136.5938 Q174.0156,134.9375 174.0156,131.8125 Q174.0156,128.6875 175.3281,127.0313 Q176.6563,125.375 179.1563,125.375 Q179.8594,125.375 180.5,125.5313 Q181.1563,125.6875 181.7188,125.9844 L181.7188,128.7031 Q181.0938,128.125 180.5,127.8594 Q179.9063,127.5781 179.2813,127.5781 Q177.9375,127.5781 177.25,128.6563 Q176.5625,129.7188 176.5625,131.8125 Q176.5625,133.9063 177.25,134.9844 Q177.9375,136.0469 179.2813,136.0469 Q179.9063,136.0469 180.5,135.7813 Q181.0938,135.5 181.7188,134.9219 L181.7188,137.6406 Z " fill="#000000"/><text fill="#000000" font-family="sans-serif" font-size="14" lengthAdjust="spacing" textLength="175" x="199.25" y="136.8467">RegisterVehicleController</text><line style="stroke:#181818;stroke-width:0.5;" x1="8" x2="533" y1="148" y2="148"/><text fill="#000000" font-family="sans-serif" font-size="14" lengthAdjust="spacing" textLength="255" x="13" y="164.9951">-VehicleRepository vehicleRepository</text><line style="stroke:#181818;stroke-width:0.5;" x1="8" x2="533" y1="172.2969" y2="172.2969"/><text fill="#000000" font-family="sans-serif" font-size="14" lengthAdjust="spacing" textLength="197" x="13" y="189.292">+RegisterVehicleController()</text><text fill="#000000" font-family="sans-serif" font-size="14" lengthAdjust="spacing" textLength="468" x="13" y="205.5889">+registerVehicle(brand, model, type, tare, gross weight, current km,</text><text fill="#000000" font-family="sans-serif" font-size="14" lengthAdjust="spacing" textLength="515" x="13" y="221.8857">register date, acquisition date, maintenance/check-up frequency (in kms)))</text></g><!--class RegisterVehicleUI--><g id="elem_RegisterVehicleUI"><rect fill="#F1F1F1" height="48" id="RegisterVehicleUI" rx="2.5" ry="2.5" style="stroke:#181818;stroke-width:0.5;" width="153" x="194" y="7"/><ellipse cx="209" cy="23" fill="#ADD1B2" rx="11" ry="11" style="stroke:#181818;stroke-width:1.0;"/><path d="M211.9688,28.6406 Q211.3906,28.9375 210.75,29.0781 Q210.1094,29.2344 209.4063,29.2344 Q206.9063,29.2344 205.5781,27.5938 Q204.2656,25.9375 204.2656,22.8125 Q204.2656,19.6875 205.5781,18.0313 Q206.9063,16.375 209.4063,16.375 Q210.1094,16.375 210.75,16.5313 Q211.4063,16.6875 211.9688,16.9844 L211.9688,19.7031 Q211.3438,19.125 210.75,18.8594 Q210.1563,18.5781 209.5313,18.5781 Q208.1875,18.5781 207.5,19.6563 Q206.8125,20.7188 206.8125,22.8125 Q206.8125,24.9063 207.5,25.9844 Q208.1875,27.0469 209.5313,27.0469 Q210.1563,27.0469 210.75,26.7813 Q211.3438,26.5 211.9688,25.9219 L211.9688,28.6406 Z " fill="#000000"/><text fill="#000000" font-family="sans-serif" font-size="14" lengthAdjust="spacing" textLength="121" x="223" y="27.8467">RegisterVehicleUI</text><line style="stroke:#181818;stroke-width:0.5;" x1="195" x2="346" y1="39" y2="39"/><line style="stroke:#181818;stroke-width:0.5;" x1="195" x2="346" y1="47" y2="47"/></g><!--link Repositories to VehicleRepository--><g id="link_Repositories_VehicleRepository"><path codeLine="62" d="M724.83,221.15 C723.15,243.11 721.6182,262.8775 720.0182,283.7675 " fill="none" id="Repositories-to-VehicleRepository" style="stroke:#181818;stroke-width:1.0;"/><polygon fill="#181818" points="719.56,289.75,724.2356,281.0818,719.9418,284.7646,716.259,280.4708,719.56,289.75" style="stroke:#181818;stroke-width:1.0;"/><text fill="#000000" font-family="sans-serif" font-size="13" lengthAdjust="spacing" textLength="8" x="715.7514" y="241.13">1</text><text fill="#000000" font-family="sans-serif" font-size="13" lengthAdjust="spacing" textLength="8" x="711.4043" y="278.8701">1</text></g><!--link Repositories to Repositories--><g id="link_Repositories_Repositories"><path codeLine="63" d="M887.58,158.28 C908.58,160.71 922.5,165.45 922.5,172.5 C922.5,179.55 914.5402,183.6003 893.5402,186.0303 " fill="none" id="Repositories-to-Repositories" style="stroke:#181818;stroke-width:1.0;"/><polygon fill="#181818" points="887.58,186.72,896.9801,189.659,892.5469,186.1453,896.0606,181.712,887.58,186.72" style="stroke:#181818;stroke-width:1.0;"/><text fill="#000000" font-family="sans-serif" font-size="13" lengthAdjust="spacing" textLength="54" x="928.5" y="177.0669">instance</text></g><!--link ApplicationSession to ApplicationSession--><g id="link_ApplicationSession_ApplicationSession"><path codeLine="65" d="M371.51,317.58 C391.57,318.54 406.5,322.84 406.5,330.5 C406.5,338.16 397.5631,342.1732 377.5031,343.1332 " fill="none" id="ApplicationSession-to-ApplicationSession" style="stroke:#181818;stroke-width:1.0;"/><polygon fill="#181818" points="371.51,343.42,380.6909,346.9852,376.5043,343.181,380.3085,338.9944,371.51,343.42" style="stroke:#181818;stroke-width:1.0;"/></g><!--link ApplicationSession to UserSession--><g id="link_ApplicationSession_UserSession"><path codeLine="66" d="M273.75,371.13 C254.68,419.13 225.3965,492.8244 209.8965,531.8144 " fill="none" id="ApplicationSession-to-UserSession" style="stroke:#181818;stroke-width:1.0;"/><polygon fill="#181818" points="207.68,537.39,214.7218,530.5043,209.5271,532.7437,207.2877,527.549,207.68,537.39" style="stroke:#181818;stroke-width:1.0;"/><text fill="#000000" font-family="sans-serif" font-size="13" lengthAdjust="spacing" textLength="78" x="261.5" y="414.0669">userSession</text><text fill="#000000" font-family="sans-serif" font-size="13" lengthAdjust="spacing" textLength="8" x="201.0074" y="526.3738">1</text></g><!--link RegisterVehicleUI to RegisterVehicleController--><g id="link_RegisterVehicleUI_RegisterVehicleController"><path codeLine="68" d="M270.5,55.04 C270.5,71.6 270.5,88.66 270.5,109.9 " fill="none" id="RegisterVehicleUI-to-RegisterVehicleController" style="stroke:#181818;stroke-width:1.0;"/><polygon fill="#181818" points="270.5,115.9,274.5,106.9,270.5,110.9,266.5,106.9,270.5,115.9" style="stroke:#181818;stroke-width:1.0;"/><text fill="#000000" font-family="sans-serif" font-size="13" lengthAdjust="spacing" textLength="8" x="261.475" y="75.206">1</text><text fill="#000000" font-family="sans-serif" font-size="13" lengthAdjust="spacing" textLength="8" x="261.9875" y="104.7506">1</text></g><!--link RegisterVehicleController to Repositories--><g id="link_RegisterVehicleController_Repositories"><path codeLine="70" d="M534.12,172.5 C549.28,172.5 556.14,172.5 563.42,172.5 " fill="none" id="RegisterVehicleController-to-Repositories" style="stroke:#181818;stroke-width:1.0;stroke-dasharray:7.0,7.0;"/><polygon fill="#181818" points="569.42,172.5,560.42,168.5,564.42,172.5,560.42,176.5,569.42,172.5" style="stroke:#181818;stroke-width:1.0;"/></g><!--link RegisterVehicleController to ApplicationSession--><g id="link_RegisterVehicleController_ApplicationSession"><path codeLine="71" d="M277.31,229.38 C279.73,249.31 281.6946,265.394 283.9246,283.704 " fill="none" id="RegisterVehicleController-to-ApplicationSession" style="stroke:#181818;stroke-width:1.0;stroke-dasharray:7.0,7.0;"/><polygon fill="#181818" points="284.65,289.66,287.5326,280.2424,284.0455,284.6967,279.5913,281.2096,284.65,289.66" style="stroke:#181818;stroke-width:1.0;"/></g><!--link RegisterVehicleController to UserSession--><g id="link_RegisterVehicleController_UserSession"><path codeLine="72" d="M231.9,229.02 C211.04,259.03 189.5,290 189.5,290 C189.5,290 189.5,371 189.5,371 C189.5,371 194.7046,480.6668 197.1146,531.2668 " fill="none" id="RegisterVehicleController-to-UserSession" style="stroke:#181818;stroke-width:1.0;stroke-dasharray:7.0,7.0;"/><polygon fill="#181818" points="197.4,537.26,200.9673,528.0799,197.1621,532.2657,192.9764,528.4605,197.4,537.26" style="stroke:#181818;stroke-width:1.0;"/></g><!--link RegisterVehicleController to VehicleRepository--><g id="link_RegisterVehicleController_VehicleRepository"><path codeLine="73" d="M429.31,229.05 C486.88,249.18 545.0164,269.5192 597.8264,287.9892 " fill="none" id="RegisterVehicleController-to-VehicleRepository" style="stroke:#181818;stroke-width:1.0;"/><polygon fill="#181818" points="603.49,289.97,596.3151,283.223,598.7703,288.3193,593.6741,290.7745,603.49,289.97" style="stroke:#181818;stroke-width:1.0;"/><text fill="#000000" font-family="sans-serif" font-size="13" lengthAdjust="spacing" textLength="8" x="441.145" y="249.3198">1</text><text fill="#000000" font-family="sans-serif" font-size="13" lengthAdjust="spacing" textLength="8" x="575.3789" y="278.8281">1</text></g><!--link Vehicle to VFM--><g id="link_Vehicle_VFM"><path codeLine="75" d="M716.5,675.32 C716.5,702.87 716.5,724.55 716.5,745.97 " fill="none" id="Vehicle-to-VFM" style="stroke:#181818;stroke-width:1.0;"/><polygon fill="#181818" points="716.5,751.97,720.5,742.97,716.5,746.97,712.5,742.97,716.5,751.97" style="stroke:#181818;stroke-width:1.0;"/><text fill="#000000" font-family="sans-serif" font-size="13" lengthAdjust="spacing" textLength="65" x="717.5" y="718.0669">createdBy</text></g><!--link VehicleRepository to Vehicle--><g id="link_VehicleRepository_Vehicle"><path codeLine="77" d="M716.5,371.13 C716.5,392.51 716.5,414.08 716.5,441.55 " fill="none" id="VehicleRepository-to-Vehicle" style="stroke:#181818;stroke-width:1.0;"/><polygon fill="#181818" points="716.5,447.55,720.5,438.55,716.5,442.55,712.5,438.55,716.5,447.55" style="stroke:#181818;stroke-width:1.0;"/><text fill="#000000" font-family="sans-serif" font-size="13" lengthAdjust="spacing" textLength="51" x="717.5" y="414.0669">vehicles</text><text fill="#000000" font-family="sans-serif" font-size="13" lengthAdjust="spacing" textLength="8" x="707.8875" y="390.6081">1</text><text fill="#000000" font-family="sans-serif" font-size="13" lengthAdjust="spacing" textLength="7" x="709.2758" y="436.8322">*</text></g><!--SRC=[pLGzRzim4DtvAmvPRBTosguU0YGE0XX1bXXfbouCTPO9KoH3KZNSel-z9FL5IRRdUh2bktUFxzwTERC7BZKrj8HIISNsHfK8pbH8-eocx40BtBgJG33879M5I05sJtDrvBA07HKspGWkqPqqWbRY55x8x4nI6QT8KiK4jVRUESFVAuSRfkIM_qRuIiXCuCw1Ks1uiNUGyo27Aqb8h85xhGLdD8IsQ6t8_27WFv_1EXzcKA3RIFyi6SuNJSh7rfKnA5rJv3D_MyetYwRdwiBVdrwWfbu2bfIBvbdxv56PF47YdZFlN8j-DrJcAzZwzcJHn4gLenZ5jA0ELy2bQmB1gn76KJE054PP-mE3EICagnl4vvSKRx3Wrg5vZ4U5xoP1sKV5BGz6Jd8xWnyLIdPQxv4TdikQiF6owNOUkypgnhAwbonsa4NHMIerIzHb0qtPM8Y7XaCh_TIAYACQUVsAMlaQPKxGZhzbFQzl8WoEGsLmA3FuALiMoCVYceZV1D-63Elr9IfTLhet3EPSUYQxM92ekXRTgULekor9W-cYziiBgm6eXqnCYDX9jD_Grw4tQoMTKKBuDbirKrz_JUZgyozoTKtyPvE8-pCOmSst6rWkx-BlrBK1rAC6x-6lKC-7aEbT55dFN54NaE7yvFRnv5Lo5v6Hqs-RWV2BSvWK9kE-7RPp3NbxjfFh1UbLUXbvtNxINgS14YxX5J23VkBvGvzCzhHZ-zIn-P9cUotv1m00]--></g></svg>