<?xml version="1.0" encoding="us-ascii" standalone="no"?><svg xmlns="http://www.w3.org/2000/svg" xmlns:xlink="http://www.w3.org/1999/xlink" contentStyleType="text/css" height="1363px" preserveAspectRatio="none" style="width:1775px;height:1363px;background:#FFFFFF;" version="1.1" viewBox="0 0 1775 1363" width="1775px" zoomAndPan="magnify"><defs/><g><!--class ApplicationSession--><g id="elem_ApplicationSession"><rect codeLine="11" fill="#F1F1F1" height="85.2422" id="ApplicationSession" rx="2.5" ry="2.5" style="stroke:#181818;stroke-width:0.5;" width="151" x="160.5" y="368.7627"/><ellipse cx="175.5" cy="384.7627" fill="#ADD1B2" rx="11" ry="11" style="stroke:#181818;stroke-width:1.0;"/><path d="M178.2656,380.6377 Q178.4219,380.4189 178.6094,380.3096 Q178.7969,380.2002 179.0156,380.2002 Q179.3906,380.2002 179.625,380.4658 Q179.8594,380.7158 179.8594,381.3252 L179.8594,382.7783 Q179.8594,383.3877 179.625,383.6533 Q179.3906,383.9189 179.0156,383.9189 Q178.6719,383.9189 178.4688,383.7158 Q178.2656,383.5283 178.1563,383.0127 Q178.1094,382.6533 177.9219,382.4658 Q177.5938,382.0908 176.9844,381.8721 Q176.375,381.6533 175.75,381.6533 Q174.9844,381.6533 174.3438,381.9814 Q173.7188,382.3096 173.2188,383.0596 Q172.7344,383.8096 172.7344,384.8408 L172.7344,385.9346 Q172.7344,387.1689 173.625,387.9971 Q174.5156,388.8096 176.1094,388.8096 Q177.0469,388.8096 177.7031,388.5596 Q178.0938,388.4033 178.5156,387.9658 Q178.7813,387.7002 178.9219,387.6221 Q179.0781,387.5439 179.2813,387.5439 Q179.6094,387.5439 179.8594,387.8096 Q180.125,388.0596 180.125,388.4033 Q180.125,388.7471 179.7813,389.1533 Q179.2813,389.7314 178.4844,390.0596 Q177.4063,390.5127 176.1094,390.5127 Q174.5938,390.5127 173.3906,389.8877 Q172.4063,389.3877 171.7188,388.3252 Q171.0313,387.2471 171.0313,385.9658 L171.0313,384.8096 Q171.0313,383.4814 171.6406,382.3408 Q172.2656,381.1846 173.3594,380.5752 Q174.4531,379.9502 175.6875,379.9502 Q176.4219,379.9502 177.0625,380.1221 Q177.7188,380.2783 178.2656,380.6377 Z " fill="#000000"/><text fill="#000000" font-family="sans-serif" font-size="14" lengthAdjust="spacing" textLength="119" x="189.5" y="390.5596">ApplicationSession</text><line style="stroke:#181818;stroke-width:0.5;" x1="161.5" x2="310.5" y1="400.7627" y2="400.7627"/><line style="stroke:#181818;stroke-width:0.5;" x1="161.5" x2="310.5" y1="408.7627" y2="408.7627"/><text fill="#000000" font-family="sans-serif" font-size="14" lengthAdjust="spacing" textLength="128" x="166.5" y="427.8701">+static getInstance()</text><text fill="#000000" font-family="sans-serif" font-size="14" lengthAdjust="spacing" textLength="136" x="166.5" y="446.4912">+getCurrentSession()</text></g><!--class UserSession--><g id="elem_UserSession"><rect codeLine="16" fill="#F1F1F1" height="48" id="UserSession" rx="2.5" ry="2.5" style="stroke:#181818;stroke-width:0.5;" width="111" x="312.5" y="653.7627"/><ellipse cx="327.5" cy="669.7627" fill="#ADD1B2" rx="11" ry="11" style="stroke:#181818;stroke-width:1.0;"/><path d="M330.2656,665.6377 Q330.4219,665.4189 330.6094,665.3096 Q330.7969,665.2002 331.0156,665.2002 Q331.3906,665.2002 331.625,665.4658 Q331.8594,665.7158 331.8594,666.3252 L331.8594,667.7783 Q331.8594,668.3877 331.625,668.6533 Q331.3906,668.9189 331.0156,668.9189 Q330.6719,668.9189 330.4688,668.7158 Q330.2656,668.5283 330.1563,668.0127 Q330.1094,667.6533 329.9219,667.4658 Q329.5938,667.0908 328.9844,666.8721 Q328.375,666.6533 327.75,666.6533 Q326.9844,666.6533 326.3438,666.9814 Q325.7188,667.3096 325.2188,668.0596 Q324.7344,668.8096 324.7344,669.8408 L324.7344,670.9346 Q324.7344,672.1689 325.625,672.9971 Q326.5156,673.8096 328.1094,673.8096 Q329.0469,673.8096 329.7031,673.5596 Q330.0938,673.4033 330.5156,672.9658 Q330.7813,672.7002 330.9219,672.6221 Q331.0781,672.5439 331.2813,672.5439 Q331.6094,672.5439 331.8594,672.8096 Q332.125,673.0596 332.125,673.4033 Q332.125,673.7471 331.7813,674.1533 Q331.2813,674.7314 330.4844,675.0596 Q329.4063,675.5127 328.1094,675.5127 Q326.5938,675.5127 325.3906,674.8877 Q324.4063,674.3877 323.7188,673.3252 Q323.0313,672.2471 323.0313,670.9658 L323.0313,669.8096 Q323.0313,668.4814 323.6406,667.3408 Q324.2656,666.1846 325.3594,665.5752 Q326.4531,664.9502 327.6875,664.9502 Q328.4219,664.9502 329.0625,665.1221 Q329.7188,665.2783 330.2656,665.6377 Z " fill="#000000"/><text fill="#000000" font-family="sans-serif" font-size="14" lengthAdjust="spacing" textLength="79" x="341.5" y="675.5596">UserSession</text><line style="stroke:#181818;stroke-width:0.5;" x1="313.5" x2="422.5" y1="685.7627" y2="685.7627"/><line style="stroke:#181818;stroke-width:0.5;" x1="313.5" x2="422.5" y1="693.7627" y2="693.7627"/></g><!--class HRM--><g id="elem_HRM"><rect codeLine="19" fill="#F1F1F1" height="48" id="HRM" rx="2.5" ry="2.5" style="stroke:#181818;stroke-width:0.5;" width="62" x="1252" y="994.7627"/><ellipse cx="1267" cy="1010.7627" fill="#ADD1B2" rx="11" ry="11" style="stroke:#181818;stroke-width:1.0;"/><path d="M1269.7656,1006.6377 Q1269.9219,1006.4189 1270.1094,1006.3096 Q1270.2969,1006.2002 1270.5156,1006.2002 Q1270.8906,1006.2002 1271.125,1006.4658 Q1271.3594,1006.7158 1271.3594,1007.3252 L1271.3594,1008.7783 Q1271.3594,1009.3877 1271.125,1009.6533 Q1270.8906,1009.9189 1270.5156,1009.9189 Q1270.1719,1009.9189 1269.9688,1009.7158 Q1269.7656,1009.5283 1269.6563,1009.0127 Q1269.6094,1008.6533 1269.4219,1008.4658 Q1269.0938,1008.0908 1268.4844,1007.8721 Q1267.875,1007.6533 1267.25,1007.6533 Q1266.4844,1007.6533 1265.8438,1007.9814 Q1265.2188,1008.3096 1264.7188,1009.0596 Q1264.2344,1009.8096 1264.2344,1010.8408 L1264.2344,1011.9346 Q1264.2344,1013.1689 1265.125,1013.9971 Q1266.0156,1014.8096 1267.6094,1014.8096 Q1268.5469,1014.8096 1269.2031,1014.5596 Q1269.5938,1014.4033 1270.0156,1013.9658 Q1270.2813,1013.7002 1270.4219,1013.6221 Q1270.5781,1013.5439 1270.7813,1013.5439 Q1271.1094,1013.5439 1271.3594,1013.8096 Q1271.625,1014.0596 1271.625,1014.4033 Q1271.625,1014.7471 1271.2813,1015.1533 Q1270.7813,1015.7314 1269.9844,1016.0596 Q1268.9063,1016.5127 1267.6094,1016.5127 Q1266.0938,1016.5127 1264.8906,1015.8877 Q1263.9063,1015.3877 1263.2188,1014.3252 Q1262.5313,1013.2471 1262.5313,1011.9658 L1262.5313,1010.8096 Q1262.5313,1009.4814 1263.1406,1008.3408 Q1263.7656,1007.1846 1264.8594,1006.5752 Q1265.9531,1005.9502 1267.1875,1005.9502 Q1267.9219,1005.9502 1268.5625,1006.1221 Q1269.2188,1006.2783 1269.7656,1006.6377 Z " fill="#000000"/><text fill="#000000" font-family="sans-serif" font-size="14" lengthAdjust="spacing" textLength="30" x="1281" y="1016.5596">HRM</text><line style="stroke:#181818;stroke-width:0.5;" x1="1253" x2="1313" y1="1026.7627" y2="1026.7627"/><line style="stroke:#181818;stroke-width:0.5;" x1="1253" x2="1313" y1="1034.7627" y2="1034.7627"/></g><!--class Collaborator--><g id="elem_Collaborator"><rect codeLine="22" fill="#F1F1F1" height="345.9375" id="Collaborator" rx="2.5" ry="2.5" style="stroke:#181818;stroke-width:0.5;" width="451" x="482.5" y="845.7627"/><ellipse cx="664.75" cy="861.7627" fill="#ADD1B2" rx="11" ry="11" style="stroke:#181818;stroke-width:1.0;"/><path d="M667.5156,857.6377 Q667.6719,857.4189 667.8594,857.3096 Q668.0469,857.2002 668.2656,857.2002 Q668.6406,857.2002 668.875,857.4658 Q669.1094,857.7158 669.1094,858.3252 L669.1094,859.7783 Q669.1094,860.3877 668.875,860.6533 Q668.6406,860.9189 668.2656,860.9189 Q667.9219,860.9189 667.7188,860.7158 Q667.5156,860.5283 667.4063,860.0127 Q667.3594,859.6533 667.1719,859.4658 Q666.8438,859.0908 666.2344,858.8721 Q665.625,858.6533 665,858.6533 Q664.2344,858.6533 663.5938,858.9814 Q662.9688,859.3096 662.4688,860.0596 Q661.9844,860.8096 661.9844,861.8408 L661.9844,862.9346 Q661.9844,864.1689 662.875,864.9971 Q663.7656,865.8096 665.3594,865.8096 Q666.2969,865.8096 666.9531,865.5596 Q667.3438,865.4033 667.7656,864.9658 Q668.0313,864.7002 668.1719,864.6221 Q668.3281,864.5439 668.5313,864.5439 Q668.8594,864.5439 669.1094,864.8096 Q669.375,865.0596 669.375,865.4033 Q669.375,865.7471 669.0313,866.1533 Q668.5313,866.7314 667.7344,867.0596 Q666.6563,867.5127 665.3594,867.5127 Q663.8438,867.5127 662.6406,866.8877 Q661.6563,866.3877 660.9688,865.3252 Q660.2813,864.2471 660.2813,862.9658 L660.2813,861.8096 Q660.2813,860.4814 660.8906,859.3408 Q661.5156,858.1846 662.6094,857.5752 Q663.7031,856.9502 664.9375,856.9502 Q665.6719,856.9502 666.3125,857.1221 Q666.9688,857.2783 667.5156,857.6377 Z " fill="#000000"/><text fill="#000000" font-family="sans-serif" font-size="14" lengthAdjust="spacing" textLength="78" x="685.25" y="867.5596">Collaborator</text><line style="stroke:#181818;stroke-width:0.5;" x1="483.5" x2="932.5" y1="877.7627" y2="877.7627"/><text fill="#000000" font-family="sans-serif" font-size="14" lengthAdjust="spacing" textLength="40" x="488.5" y="896.8701">-name</text><text fill="#000000" font-family="sans-serif" font-size="14" lengthAdjust="spacing" textLength="104" x="488.5" y="915.4912">-date of birthday</text><text fill="#000000" font-family="sans-serif" font-size="14" lengthAdjust="spacing" textLength="100" x="488.5" y="934.1123">-admission data</text><text fill="#000000" font-family="sans-serif" font-size="14" lengthAdjust="spacing" textLength="148" x="488.5" y="952.7334">-address street zipcode</text><text fill="#000000" font-family="sans-serif" font-size="14" lengthAdjust="spacing" textLength="122" x="488.5" y="971.3545">-address city, email</text><text fill="#000000" font-family="sans-serif" font-size="14" lengthAdjust="spacing" textLength="97" x="488.5" y="989.9756">-phone number</text><text fill="#000000" font-family="sans-serif" font-size="14" lengthAdjust="spacing" textLength="60" x="488.5" y="1008.5967">-docType</text><text fill="#000000" font-family="sans-serif" font-size="14" lengthAdjust="spacing" textLength="90" x="488.5" y="1027.2178">-docIDNumber</text><text fill="#000000" font-family="sans-serif" font-size="14" lengthAdjust="spacing" textLength="82" x="488.5" y="1045.8389">-jobCategory</text><text fill="#000000" font-family="sans-serif" font-size="14" lengthAdjust="spacing" textLength="119" x="488.5" y="1064.46">-StatusType status</text><text fill="#000000" font-family="sans-serif" font-size="14" lengthAdjust="spacing" textLength="4" x="488.5" y="1083.0811">&#160;</text><text fill="#000000" font-family="sans-serif" font-size="14" lengthAdjust="spacing" textLength="248" x="488.5" y="1101.7021">-Enum StatusType={Activate,NotActive}</text><line style="stroke:#181818;stroke-width:0.5;" x1="483.5" x2="932.5" y1="1109.2158" y2="1109.2158"/><text fill="#000000" font-family="sans-serif" font-size="14" lengthAdjust="spacing" textLength="439" x="488.5" y="1128.3232">+Collaborator(name, date of birthday, admission data, address street,</text><text fill="#000000" font-family="sans-serif" font-size="14" lengthAdjust="spacing" textLength="340" x="492.5" y="1146.9443">zipcode, address city, email, phone number, docType,</text><text fill="#000000" font-family="sans-serif" font-size="14" lengthAdjust="spacing" textLength="318" x="492.5" y="1165.5654">docIDNumber, jobCategory, StatusType NotActive)</text><text fill="#000000" font-family="sans-serif" font-size="14" lengthAdjust="spacing" textLength="107" x="488.5" y="1184.1865">+activateStatus()</text></g><!--class Skill--><g id="elem_Skill"><rect codeLine="40" fill="#F1F1F1" height="85.2422" id="Skill" rx="2.5" ry="2.5" style="stroke:#181818;stroke-width:0.5;" width="93" x="1017.5" y="1270.7627"/><ellipse cx="1048.7" cy="1286.7627" fill="#ADD1B2" rx="11" ry="11" style="stroke:#181818;stroke-width:1.0;"/><path d="M1051.4656,1282.6377 Q1051.6219,1282.4189 1051.8094,1282.3096 Q1051.9969,1282.2002 1052.2156,1282.2002 Q1052.5906,1282.2002 1052.825,1282.4658 Q1053.0594,1282.7158 1053.0594,1283.3252 L1053.0594,1284.7783 Q1053.0594,1285.3877 1052.825,1285.6533 Q1052.5906,1285.9189 1052.2156,1285.9189 Q1051.8719,1285.9189 1051.6688,1285.7158 Q1051.4656,1285.5283 1051.3563,1285.0127 Q1051.3094,1284.6533 1051.1219,1284.4658 Q1050.7938,1284.0908 1050.1844,1283.8721 Q1049.575,1283.6533 1048.95,1283.6533 Q1048.1844,1283.6533 1047.5438,1283.9814 Q1046.9188,1284.3096 1046.4188,1285.0596 Q1045.9344,1285.8096 1045.9344,1286.8408 L1045.9344,1287.9346 Q1045.9344,1289.1689 1046.825,1289.9971 Q1047.7156,1290.8096 1049.3094,1290.8096 Q1050.2469,1290.8096 1050.9031,1290.5596 Q1051.2938,1290.4033 1051.7156,1289.9658 Q1051.9813,1289.7002 1052.1219,1289.6221 Q1052.2781,1289.5439 1052.4813,1289.5439 Q1052.8094,1289.5439 1053.0594,1289.8096 Q1053.325,1290.0596 1053.325,1290.4033 Q1053.325,1290.7471 1052.9813,1291.1533 Q1052.4813,1291.7314 1051.6844,1292.0596 Q1050.6063,1292.5127 1049.3094,1292.5127 Q1047.7938,1292.5127 1046.5906,1291.8877 Q1045.6063,1291.3877 1044.9188,1290.3252 Q1044.2313,1289.2471 1044.2313,1287.9658 L1044.2313,1286.8096 Q1044.2313,1285.4814 1044.8406,1284.3408 Q1045.4656,1283.1846 1046.5594,1282.5752 Q1047.6531,1281.9502 1048.8875,1281.9502 Q1049.6219,1281.9502 1050.2625,1282.1221 Q1050.9188,1282.2783 1051.4656,1282.6377 Z " fill="#000000"/><text fill="#000000" font-family="sans-serif" font-size="14" lengthAdjust="spacing" textLength="25" x="1066.3" y="1292.5596">Skill</text><line style="stroke:#181818;stroke-width:0.5;" x1="1018.5" x2="1109.5" y1="1302.7627" y2="1302.7627"/><text fill="#000000" font-family="sans-serif" font-size="14" lengthAdjust="spacing" textLength="81" x="1023.5" y="1321.8701">-String name</text><line style="stroke:#181818;stroke-width:0.5;" x1="1018.5" x2="1109.5" y1="1329.3838" y2="1329.3838"/><text fill="#000000" font-family="sans-serif" font-size="14" lengthAdjust="spacing" textLength="78" x="1023.5" y="1348.4912">+Skill(name)</text></g><!--class CollaboratorRepository--><g id="elem_CollaboratorRepository"><rect codeLine="45" fill="#F1F1F1" height="85.2422" id="CollaboratorRepository" rx="2.5" ry="2.5" style="stroke:#181818;stroke-width:0.5;" width="231" x="497.5" y="368.7627"/><ellipse cx="536.35" cy="384.7627" fill="#ADD1B2" rx="11" ry="11" style="stroke:#181818;stroke-width:1.0;"/><path d="M539.1156,380.6377 Q539.2719,380.4189 539.4594,380.3096 Q539.6469,380.2002 539.8656,380.2002 Q540.2406,380.2002 540.475,380.4658 Q540.7094,380.7158 540.7094,381.3252 L540.7094,382.7783 Q540.7094,383.3877 540.475,383.6533 Q540.2406,383.9189 539.8656,383.9189 Q539.5219,383.9189 539.3188,383.7158 Q539.1156,383.5283 539.0063,383.0127 Q538.9594,382.6533 538.7719,382.4658 Q538.4438,382.0908 537.8344,381.8721 Q537.225,381.6533 536.6,381.6533 Q535.8344,381.6533 535.1938,381.9814 Q534.5688,382.3096 534.0688,383.0596 Q533.5844,383.8096 533.5844,384.8408 L533.5844,385.9346 Q533.5844,387.1689 534.475,387.9971 Q535.3656,388.8096 536.9594,388.8096 Q537.8969,388.8096 538.5531,388.5596 Q538.9438,388.4033 539.3656,387.9658 Q539.6313,387.7002 539.7719,387.6221 Q539.9281,387.5439 540.1313,387.5439 Q540.4594,387.5439 540.7094,387.8096 Q540.975,388.0596 540.975,388.4033 Q540.975,388.7471 540.6313,389.1533 Q540.1313,389.7314 539.3344,390.0596 Q538.2563,390.5127 536.9594,390.5127 Q535.4438,390.5127 534.2406,389.8877 Q533.2563,389.3877 532.5688,388.3252 Q531.8813,387.2471 531.8813,385.9658 L531.8813,384.8096 Q531.8813,383.4814 532.4906,382.3408 Q533.1156,381.1846 534.2094,380.5752 Q535.3031,379.9502 536.5375,379.9502 Q537.2719,379.9502 537.9125,380.1221 Q538.5688,380.2783 539.1156,380.6377 Z " fill="#000000"/><text fill="#000000" font-family="sans-serif" font-size="14" lengthAdjust="spacing" textLength="146" x="555.65" y="390.5596">CollaboratorRepository</text><line style="stroke:#181818;stroke-width:0.5;" x1="498.5" x2="727.5" y1="400.7627" y2="400.7627"/><line style="stroke:#181818;stroke-width:0.5;" x1="498.5" x2="727.5" y1="408.7627" y2="408.7627"/><text fill="#000000" font-family="sans-serif" font-size="14" lengthAdjust="spacing" textLength="209" x="503.5" y="427.8701">+getCollaboratorNotActivateList()</text><text fill="#000000" font-family="sans-serif" font-size="14" lengthAdjust="spacing" textLength="219" x="503.5" y="446.4912">+activateCollaboratorsTeam(team)</text></g><!--class TeamRepository--><g id="elem_TeamRepository"><rect codeLine="50" fill="#F1F1F1" height="196.9688" id="TeamRepository" rx="2.5" ry="2.5" style="stroke:#181818;stroke-width:0.5;" width="811" x="763.5" y="312.7627"/><ellipse cx="1112.75" cy="328.7627" fill="#ADD1B2" rx="11" ry="11" style="stroke:#181818;stroke-width:1.0;"/><path d="M1115.5156,324.6377 Q1115.6719,324.4189 1115.8594,324.3096 Q1116.0469,324.2002 1116.2656,324.2002 Q1116.6406,324.2002 1116.875,324.4658 Q1117.1094,324.7158 1117.1094,325.3252 L1117.1094,326.7783 Q1117.1094,327.3877 1116.875,327.6533 Q1116.6406,327.9189 1116.2656,327.9189 Q1115.9219,327.9189 1115.7188,327.7158 Q1115.5156,327.5283 1115.4063,327.0127 Q1115.3594,326.6533 1115.1719,326.4658 Q1114.8438,326.0908 1114.2344,325.8721 Q1113.625,325.6533 1113,325.6533 Q1112.2344,325.6533 1111.5938,325.9814 Q1110.9688,326.3096 1110.4688,327.0596 Q1109.9844,327.8096 1109.9844,328.8408 L1109.9844,329.9346 Q1109.9844,331.1689 1110.875,331.9971 Q1111.7656,332.8096 1113.3594,332.8096 Q1114.2969,332.8096 1114.9531,332.5596 Q1115.3438,332.4033 1115.7656,331.9658 Q1116.0313,331.7002 1116.1719,331.6221 Q1116.3281,331.5439 1116.5313,331.5439 Q1116.8594,331.5439 1117.1094,331.8096 Q1117.375,332.0596 1117.375,332.4033 Q1117.375,332.7471 1117.0313,333.1533 Q1116.5313,333.7314 1115.7344,334.0596 Q1114.6563,334.5127 1113.3594,334.5127 Q1111.8438,334.5127 1110.6406,333.8877 Q1109.6563,333.3877 1108.9688,332.3252 Q1108.2813,331.2471 1108.2813,329.9658 L1108.2813,328.8096 Q1108.2813,327.4814 1108.8906,326.3408 Q1109.5156,325.1846 1110.6094,324.5752 Q1111.7031,323.9502 1112.9375,323.9502 Q1113.6719,323.9502 1114.3125,324.1221 Q1114.9688,324.2783 1115.5156,324.6377 Z " fill="#000000"/><text fill="#000000" font-family="sans-serif" font-size="14" lengthAdjust="spacing" textLength="104" x="1133.25" y="334.5596">TeamRepository</text><line style="stroke:#181818;stroke-width:0.5;" x1="764.5" x2="1573.5" y1="344.7627" y2="344.7627"/><line style="stroke:#181818;stroke-width:0.5;" x1="764.5" x2="1573.5" y1="352.7627" y2="352.7627"/><text fill="#000000" font-family="sans-serif" font-size="14" lengthAdjust="spacing" textLength="115" x="769.5" y="371.8701">+saveTeam(team)</text><text fill="#000000" font-family="sans-serif" font-size="14" lengthAdjust="spacing" textLength="152" x="769.5" y="390.4912">+getSkillListTeam(team)</text><text fill="#000000" font-family="sans-serif" font-size="14" lengthAdjust="spacing" textLength="156" x="769.5" y="409.1123">+getMaxSizeTeam(team)</text><text fill="#000000" font-family="sans-serif" font-size="14" lengthAdjust="spacing" textLength="153" x="769.5" y="427.7334">+getMinSizeTeam(team)</text><text fill="#000000" font-family="sans-serif" font-size="14" lengthAdjust="spacing" textLength="799" x="769.5" y="446.3545">+generateTeamBySkillSetAndSize(minSizeTeam,maxSizeTeam,skillsSelected, collaboratorStatusNotActivateList,collabsPerSkill)</text><text fill="#000000" font-family="sans-serif" font-size="14" lengthAdjust="spacing" textLength="96" x="769.5" y="464.9756">+getTeamList()</text><text fill="#000000" font-family="sans-serif" font-size="14" lengthAdjust="spacing" textLength="414" x="769.5" y="483.5967">-validateCollaboratorForTeam(maxSizeTeam,skillSet,collaborator)</text><text fill="#000000" font-family="sans-serif" font-size="14" lengthAdjust="spacing" textLength="403" x="769.5" y="502.2178">+validateCollaboratorAddBySkill(collaboratorsNotActivate, team)</text></g><!--class Team--><g id="elem_Team"><rect codeLine="62" fill="#F1F1F1" height="178.3477" id="Team" rx="2.5" ry="2.5" style="stroke:#181818;stroke-width:0.5;" width="438" x="845" y="588.7627"/><ellipse cx="1041.75" cy="604.7627" fill="#ADD1B2" rx="11" ry="11" style="stroke:#181818;stroke-width:1.0;"/><path d="M1044.5156,600.6377 Q1044.6719,600.4189 1044.8594,600.3096 Q1045.0469,600.2002 1045.2656,600.2002 Q1045.6406,600.2002 1045.875,600.4658 Q1046.1094,600.7158 1046.1094,601.3252 L1046.1094,602.7783 Q1046.1094,603.3877 1045.875,603.6533 Q1045.6406,603.9189 1045.2656,603.9189 Q1044.9219,603.9189 1044.7188,603.7158 Q1044.5156,603.5283 1044.4063,603.0127 Q1044.3594,602.6533 1044.1719,602.4658 Q1043.8438,602.0908 1043.2344,601.8721 Q1042.625,601.6533 1042,601.6533 Q1041.2344,601.6533 1040.5938,601.9814 Q1039.9688,602.3096 1039.4688,603.0596 Q1038.9844,603.8096 1038.9844,604.8408 L1038.9844,605.9346 Q1038.9844,607.1689 1039.875,607.9971 Q1040.7656,608.8096 1042.3594,608.8096 Q1043.2969,608.8096 1043.9531,608.5596 Q1044.3438,608.4033 1044.7656,607.9658 Q1045.0313,607.7002 1045.1719,607.6221 Q1045.3281,607.5439 1045.5313,607.5439 Q1045.8594,607.5439 1046.1094,607.8096 Q1046.375,608.0596 1046.375,608.4033 Q1046.375,608.7471 1046.0313,609.1533 Q1045.5313,609.7314 1044.7344,610.0596 Q1043.6563,610.5127 1042.3594,610.5127 Q1040.8438,610.5127 1039.6406,609.8877 Q1038.6563,609.3877 1037.9688,608.3252 Q1037.2813,607.2471 1037.2813,605.9658 L1037.2813,604.8096 Q1037.2813,603.4814 1037.8906,602.3408 Q1038.5156,601.1846 1039.6094,600.5752 Q1040.7031,599.9502 1041.9375,599.9502 Q1042.6719,599.9502 1043.3125,600.1221 Q1043.9688,600.2783 1044.5156,600.6377 Z " fill="#000000"/><text fill="#000000" font-family="sans-serif" font-size="14" lengthAdjust="spacing" textLength="36" x="1062.25" y="610.5596">Team</text><line style="stroke:#181818;stroke-width:0.5;" x1="846" x2="1282" y1="620.7627" y2="620.7627"/><text fill="#000000" font-family="sans-serif" font-size="14" lengthAdjust="spacing" textLength="140" x="851" y="639.8701">-Integer maxSizeTeam</text><text fill="#000000" font-family="sans-serif" font-size="14" lengthAdjust="spacing" textLength="137" x="851" y="658.4912">-Integer minSizeTeam</text><line style="stroke:#181818;stroke-width:0.5;" x1="846" x2="1282" y1="666.0049" y2="666.0049"/><text fill="#000000" font-family="sans-serif" font-size="14" lengthAdjust="spacing" textLength="426" x="851" y="685.1123">+Team(maxSizeTeam,minSizeTeam,collaboratorsList,skillsSelected)</text><text fill="#000000" font-family="sans-serif" font-size="14" lengthAdjust="spacing" textLength="96" x="851" y="703.7334">+getTeamList()</text><text fill="#000000" font-family="sans-serif" font-size="14" lengthAdjust="spacing" textLength="89" x="851" y="722.3545">+getMaxSize()</text><text fill="#000000" font-family="sans-serif" font-size="14" lengthAdjust="spacing" textLength="86" x="851" y="740.9756">+getMinSize()</text><text fill="#000000" font-family="sans-serif" font-size="14" lengthAdjust="spacing" textLength="308" x="851" y="759.5967">+Optional &lt;Team&gt; addCollaborator(collaborator)</text></g><!--class Repositories--><g id="elem_Repositories"><rect codeLine="73" fill="#F1F1F1" height="141.1055" id="Repositories" rx="2.5" ry="2.5" style="stroke:#181818;stroke-width:0.5;" width="196" x="1092" y="74.2627"/><ellipse cx="1146.25" cy="90.2627" fill="#ADD1B2" rx="11" ry="11" style="stroke:#181818;stroke-width:1.0;"/><path d="M1149.0156,86.1377 Q1149.1719,85.9189 1149.3594,85.8096 Q1149.5469,85.7002 1149.7656,85.7002 Q1150.1406,85.7002 1150.375,85.9658 Q1150.6094,86.2158 1150.6094,86.8252 L1150.6094,88.2783 Q1150.6094,88.8877 1150.375,89.1533 Q1150.1406,89.4189 1149.7656,89.4189 Q1149.4219,89.4189 1149.2188,89.2158 Q1149.0156,89.0283 1148.9063,88.5127 Q1148.8594,88.1533 1148.6719,87.9658 Q1148.3438,87.5908 1147.7344,87.3721 Q1147.125,87.1533 1146.5,87.1533 Q1145.7344,87.1533 1145.0938,87.4814 Q1144.4688,87.8096 1143.9688,88.5596 Q1143.4844,89.3096 1143.4844,90.3408 L1143.4844,91.4346 Q1143.4844,92.6689 1144.375,93.4971 Q1145.2656,94.3096 1146.8594,94.3096 Q1147.7969,94.3096 1148.4531,94.0596 Q1148.8438,93.9033 1149.2656,93.4658 Q1149.5313,93.2002 1149.6719,93.1221 Q1149.8281,93.0439 1150.0313,93.0439 Q1150.3594,93.0439 1150.6094,93.3096 Q1150.875,93.5596 1150.875,93.9033 Q1150.875,94.2471 1150.5313,94.6533 Q1150.0313,95.2314 1149.2344,95.5596 Q1148.1563,96.0127 1146.8594,96.0127 Q1145.3438,96.0127 1144.1406,95.3877 Q1143.1563,94.8877 1142.4688,93.8252 Q1141.7813,92.7471 1141.7813,91.4658 L1141.7813,90.3096 Q1141.7813,88.9814 1142.3906,87.8408 Q1143.0156,86.6846 1144.1094,86.0752 Q1145.2031,85.4502 1146.4375,85.4502 Q1147.1719,85.4502 1147.8125,85.6221 Q1148.4688,85.7783 1149.0156,86.1377 Z " fill="#000000"/><text fill="#000000" font-family="sans-serif" font-size="14" lengthAdjust="spacing" textLength="79" x="1166.75" y="96.0596">Repositories</text><line style="stroke:#181818;stroke-width:0.5;" x1="1093" x2="1287" y1="106.2627" y2="106.2627"/><line style="stroke:#181818;stroke-width:0.5;" x1="1093" x2="1287" y1="114.2627" y2="114.2627"/><text fill="#000000" font-family="sans-serif" font-size="14" lengthAdjust="spacing" textLength="94" x="1098" y="133.3701">-Repositories()</text><text fill="#000000" font-family="sans-serif" font-size="14" lengthAdjust="spacing" textLength="182" x="1098" y="151.9912">+getInstance() : Repositories</text><text fill="#000000" font-family="sans-serif" font-size="14" lengthAdjust="spacing" textLength="131" x="1098" y="170.6123">+getSkillRepository()</text><text fill="#000000" font-family="sans-serif" font-size="14" lengthAdjust="spacing" textLength="184" x="1098" y="189.2334">+getCollaboratorRepository()</text><text fill="#000000" font-family="sans-serif" font-size="14" lengthAdjust="spacing" textLength="142" x="1098" y="207.8545">+getTeamRepository()</text></g><!--class GenerateTeamController--><g id="elem_GenerateTeamController"><rect codeLine="81" fill="#F1F1F1" height="178.3477" id="GenerateTeamController" rx="2.5" ry="2.5" style="stroke:#181818;stroke-width:0.5;" width="639" x="182.5" y="55.7627"/><ellipse cx="418.75" cy="71.7627" fill="#ADD1B2" rx="11" ry="11" style="stroke:#181818;stroke-width:1.0;"/><path d="M421.5156,67.6377 Q421.6719,67.4189 421.8594,67.3096 Q422.0469,67.2002 422.2656,67.2002 Q422.6406,67.2002 422.875,67.4658 Q423.1094,67.7158 423.1094,68.3252 L423.1094,69.7783 Q423.1094,70.3877 422.875,70.6533 Q422.6406,70.9189 422.2656,70.9189 Q421.9219,70.9189 421.7188,70.7158 Q421.5156,70.5283 421.4063,70.0127 Q421.3594,69.6533 421.1719,69.4658 Q420.8438,69.0908 420.2344,68.8721 Q419.625,68.6533 419,68.6533 Q418.2344,68.6533 417.5938,68.9814 Q416.9688,69.3096 416.4688,70.0596 Q415.9844,70.8096 415.9844,71.8408 L415.9844,72.9346 Q415.9844,74.1689 416.875,74.9971 Q417.7656,75.8096 419.3594,75.8096 Q420.2969,75.8096 420.9531,75.5596 Q421.3438,75.4033 421.7656,74.9658 Q422.0313,74.7002 422.1719,74.6221 Q422.3281,74.5439 422.5313,74.5439 Q422.8594,74.5439 423.1094,74.8096 Q423.375,75.0596 423.375,75.4033 Q423.375,75.7471 423.0313,76.1533 Q422.5313,76.7314 421.7344,77.0596 Q420.6563,77.5127 419.3594,77.5127 Q417.8438,77.5127 416.6406,76.8877 Q415.6563,76.3877 414.9688,75.3252 Q414.2813,74.2471 414.2813,72.9658 L414.2813,71.8096 Q414.2813,70.4814 414.8906,69.3408 Q415.5156,68.1846 416.6094,67.5752 Q417.7031,66.9502 418.9375,66.9502 Q419.6719,66.9502 420.3125,67.1221 Q420.9688,67.2783 421.5156,67.6377 Z " fill="#000000"/><text fill="#000000" font-family="sans-serif" font-size="14" lengthAdjust="spacing" textLength="158" x="439.25" y="77.5596">GenerateTeamController</text><line style="stroke:#181818;stroke-width:0.5;" x1="183.5" x2="820.5" y1="87.7627" y2="87.7627"/><line style="stroke:#181818;stroke-width:0.5;" x1="183.5" x2="820.5" y1="95.7627" y2="95.7627"/><text fill="#000000" font-family="sans-serif" font-size="14" lengthAdjust="spacing" textLength="176" x="188.5" y="114.8701">+GenerateTeamController()</text><text fill="#000000" font-family="sans-serif" font-size="14" lengthAdjust="spacing" textLength="85" x="188.5" y="133.4912">+getSkillList()</text><text fill="#000000" font-family="sans-serif" font-size="14" lengthAdjust="spacing" textLength="216" x="188.5" y="152.1123">+getCollaboratorsNotActivateList()</text><text fill="#000000" font-family="sans-serif" font-size="14" lengthAdjust="spacing" textLength="627" x="188.5" y="170.7334">+generateTeam(minSizeTeam,maxSizeTeam,skillsSelected,collaboratorsNotActivate,collabsPerSkill)</text><text fill="#000000" font-family="sans-serif" font-size="14" lengthAdjust="spacing" textLength="506" x="188.5" y="189.3545">+addCollaboratorToTeam(indexCollaborator, collaboratorsNotActivateList, team)</text><text fill="#000000" font-family="sans-serif" font-size="14" lengthAdjust="spacing" textLength="148" x="188.5" y="207.9756">-getHRMFromSession()</text><text fill="#000000" font-family="sans-serif" font-size="14" lengthAdjust="spacing" textLength="115" x="188.5" y="226.5967">+saveTeam(team)</text></g><!--class SkillRepository--><g id="elem_SkillRepository"><rect codeLine="91" fill="#F1F1F1" height="66.6211" id="SkillRepository" rx="2.5" ry="2.5" style="stroke:#181818;stroke-width:0.5;" width="125" x="1609.5" y="377.7627"/><ellipse cx="1624.5" cy="393.7627" fill="#ADD1B2" rx="11" ry="11" style="stroke:#181818;stroke-width:1.0;"/><path d="M1627.2656,389.6377 Q1627.4219,389.4189 1627.6094,389.3096 Q1627.7969,389.2002 1628.0156,389.2002 Q1628.3906,389.2002 1628.625,389.4658 Q1628.8594,389.7158 1628.8594,390.3252 L1628.8594,391.7783 Q1628.8594,392.3877 1628.625,392.6533 Q1628.3906,392.9189 1628.0156,392.9189 Q1627.6719,392.9189 1627.4688,392.7158 Q1627.2656,392.5283 1627.1563,392.0127 Q1627.1094,391.6533 1626.9219,391.4658 Q1626.5938,391.0908 1625.9844,390.8721 Q1625.375,390.6533 1624.75,390.6533 Q1623.9844,390.6533 1623.3438,390.9814 Q1622.7188,391.3096 1622.2188,392.0596 Q1621.7344,392.8096 1621.7344,393.8408 L1621.7344,394.9346 Q1621.7344,396.1689 1622.625,396.9971 Q1623.5156,397.8096 1625.1094,397.8096 Q1626.0469,397.8096 1626.7031,397.5596 Q1627.0938,397.4033 1627.5156,396.9658 Q1627.7813,396.7002 1627.9219,396.6221 Q1628.0781,396.5439 1628.2813,396.5439 Q1628.6094,396.5439 1628.8594,396.8096 Q1629.125,397.0596 1629.125,397.4033 Q1629.125,397.7471 1628.7813,398.1533 Q1628.2813,398.7314 1627.4844,399.0596 Q1626.4063,399.5127 1625.1094,399.5127 Q1623.5938,399.5127 1622.3906,398.8877 Q1621.4063,398.3877 1620.7188,397.3252 Q1620.0313,396.2471 1620.0313,394.9658 L1620.0313,393.8096 Q1620.0313,392.4814 1620.6406,391.3408 Q1621.2656,390.1846 1622.3594,389.5752 Q1623.4531,388.9502 1624.6875,388.9502 Q1625.4219,388.9502 1626.0625,389.1221 Q1626.7188,389.2783 1627.2656,389.6377 Z " fill="#000000"/><text fill="#000000" font-family="sans-serif" font-size="14" lengthAdjust="spacing" textLength="93" x="1638.5" y="399.5596">SkillRepository</text><line style="stroke:#181818;stroke-width:0.5;" x1="1610.5" x2="1733.5" y1="409.7627" y2="409.7627"/><line style="stroke:#181818;stroke-width:0.5;" x1="1610.5" x2="1733.5" y1="417.7627" y2="417.7627"/><text fill="#000000" font-family="sans-serif" font-size="14" lengthAdjust="spacing" textLength="85" x="1615.5" y="436.8701">+getSkillList()</text></g><g id="elem_GMN13"><path d="M857,105.2627 L857,140.7627 L821.56,144.7627 L857,148.7627 L857,184.4268 A0,0 0 0 0 857,184.4268 L1057,184.4268 A0,0 0 0 0 1057,184.4268 L1057,115.2627 L1047,105.2627 L857,105.2627 A0,0 0 0 0 857,105.2627 " fill="#FEFFDD" style="stroke:#181818;stroke-width:0.5;"/><path d="M1047,105.2627 L1047,115.2627 L1057,115.2627 L1047,105.2627 " fill="#FEFFDD" style="stroke:#181818;stroke-width:0.5;"/><text fill="#000000" font-family="sans-serif" font-size="13" lengthAdjust="spacing" textLength="133" x="863" y="124.291">- userEmail is obtained</text><text fill="#000000" font-family="sans-serif" font-size="13" lengthAdjust="spacing" textLength="125" x="863" y="141.582">from the user session</text><text fill="#000000" font-family="sans-serif" font-size="13" lengthAdjust="spacing" textLength="52" x="863" y="158.873">- skillList</text><text fill="#000000" font-family="sans-serif" font-size="13" lengthAdjust="spacing" textLength="179" x="863" y="176.1641">is achieved with skill repository</text></g><g id="elem_GMN16"><path d="M1631.5,655.2627 L1631.5,699.8447 A0,0 0 0 0 1631.5,699.8447 L1768.5,699.8447 A0,0 0 0 0 1768.5,699.8447 L1768.5,665.2627 L1758.5,655.2627 L1701.72,655.2627 L1675.46,444.9627 L1693.72,655.2627 L1631.5,655.2627 A0,0 0 0 0 1631.5,655.2627 " fill="#FEFFDD" style="stroke:#181818;stroke-width:0.5;"/><path d="M1758.5,655.2627 L1758.5,665.2627 L1768.5,665.2627 L1758.5,655.2627 " fill="#FEFFDD" style="stroke:#181818;stroke-width:0.5;"/><text fill="#000000" font-family="sans-serif" font-size="13" lengthAdjust="spacing" textLength="116" x="1637.5" y="674.291">- used for displaying</text><text fill="#000000" font-family="sans-serif" font-size="13" lengthAdjust="spacing" textLength="114" x="1637.5" y="691.582">the job category list</text></g><!--class GenerateTeamUI--><g id="elem_GenerateTeamUI"><rect codeLine="107" fill="#F1F1F1" height="48" id="GenerateTeamUI" rx="2.5" ry="2.5" style="stroke:#181818;stroke-width:0.5;" width="140" x="7" y="120.7627"/><ellipse cx="22" cy="136.7627" fill="#ADD1B2" rx="11" ry="11" style="stroke:#181818;stroke-width:1.0;"/><path d="M24.7656,132.6377 Q24.9219,132.4189 25.1094,132.3096 Q25.2969,132.2002 25.5156,132.2002 Q25.8906,132.2002 26.125,132.4658 Q26.3594,132.7158 26.3594,133.3252 L26.3594,134.7783 Q26.3594,135.3877 26.125,135.6533 Q25.8906,135.9189 25.5156,135.9189 Q25.1719,135.9189 24.9688,135.7158 Q24.7656,135.5283 24.6563,135.0127 Q24.6094,134.6533 24.4219,134.4658 Q24.0938,134.0908 23.4844,133.8721 Q22.875,133.6533 22.25,133.6533 Q21.4844,133.6533 20.8438,133.9814 Q20.2188,134.3096 19.7188,135.0596 Q19.2344,135.8096 19.2344,136.8408 L19.2344,137.9346 Q19.2344,139.1689 20.125,139.9971 Q21.0156,140.8096 22.6094,140.8096 Q23.5469,140.8096 24.2031,140.5596 Q24.5938,140.4033 25.0156,139.9658 Q25.2813,139.7002 25.4219,139.6221 Q25.5781,139.5439 25.7813,139.5439 Q26.1094,139.5439 26.3594,139.8096 Q26.625,140.0596 26.625,140.4033 Q26.625,140.7471 26.2813,141.1533 Q25.7813,141.7314 24.9844,142.0596 Q23.9063,142.5127 22.6094,142.5127 Q21.0938,142.5127 19.8906,141.8877 Q18.9063,141.3877 18.2188,140.3252 Q17.5313,139.2471 17.5313,137.9658 L17.5313,136.8096 Q17.5313,135.4814 18.1406,134.3408 Q18.7656,133.1846 19.8594,132.5752 Q20.9531,131.9502 22.1875,131.9502 Q22.9219,131.9502 23.5625,132.1221 Q24.2188,132.2783 24.7656,132.6377 Z " fill="#000000"/><text fill="#000000" font-family="sans-serif" font-size="14" lengthAdjust="spacing" textLength="108" x="36" y="142.5596">GenerateTeamUI</text><line style="stroke:#181818;stroke-width:0.5;" x1="8" x2="146" y1="152.7627" y2="152.7627"/><line style="stroke:#181818;stroke-width:0.5;" x1="8" x2="146" y1="160.7627" y2="160.7627"/></g><!--link Repositories to Repositories--><g id="link_Repositories_Repositories"><path codeLine="110" d="M1288.02,121.6027 C1308.37,124.0427 1323,131.7627 1323,144.7627 C1323,157.7627 1314.3273,164.7684 1293.9773,167.2084 " fill="none" id="Repositories-to-Repositories" style="stroke:#181818;stroke-width:1.0;"/><polygon fill="#181818" points="1288.02,167.9227,1297.4322,170.8228,1292.9844,167.3275,1296.4798,162.8797,1288.02,167.9227" style="stroke:#181818;stroke-width:1.0;"/><text fill="#000000" font-family="sans-serif" font-size="13" lengthAdjust="spacing" textLength="49" x="1329" y="150.291">instance</text></g><!--link ApplicationSession to ApplicationSession--><g id="link_ApplicationSession_ApplicationSession"><path codeLine="111" d="M311.66,385.6327 C331.5,387.1527 346.5,395.6927 346.5,411.2627 C346.5,426.8327 337.4825,434.9144 317.6425,436.4344 " fill="none" id="ApplicationSession-to-ApplicationSession" style="stroke:#181818;stroke-width:1.0;"/><polygon fill="#181818" points="311.66,436.8927,320.9393,440.1935,316.6454,436.5108,320.3281,432.2169,311.66,436.8927" style="stroke:#181818;stroke-width:1.0;"/><text fill="#000000" font-family="sans-serif" font-size="13" lengthAdjust="spacing" textLength="49" x="352.5" y="416.791">instance</text></g><!--link GenerateTeamUI to GenerateTeamController--><g id="link_GenerateTeamUI_GenerateTeamController"><path codeLine="113" d="M147,144.7627 C159.27,144.7627 165.57,144.7627 176.44,144.7627 " fill="none" id="GenerateTeamUI-to-GenerateTeamController" style="stroke:#181818;stroke-width:1.0;stroke-dasharray:7.0,7.0;"/><polygon fill="#181818" points="182.44,144.7627,173.44,140.7627,177.44,144.7627,173.44,148.7627,182.44,144.7627" style="stroke:#181818;stroke-width:1.0;"/></g><!--link GenerateTeamController to Repositories--><g id="link_GenerateTeamController_Repositories"><path codeLine="115" d="M821.51,55.8627 C879.75,39.6527 922.5,27.7627 922.5,27.7627 C922.5,27.7627 991.5,27.7627 991.5,27.7627 C991.5,27.7627 1075,55.7627 1075,55.7627 C1075,55.7627 1080.1244,59.7313 1094.0844,70.5313 " fill="none" id="GenerateTeamController-to-Repositories" style="stroke:#181818;stroke-width:1.0;stroke-dasharray:7.0,7.0;"/><polygon fill="#181818" points="1098.83,74.2027,1094.1592,65.5319,1094.8753,71.1432,1089.264,71.8593,1098.83,74.2027" style="stroke:#181818;stroke-width:1.0;"/><text fill="#000000" font-family="sans-serif" font-size="13" lengthAdjust="spacing" textLength="67" x="923.5" y="21.791">repositories</text></g><!--link Repositories to CollaboratorRepository--><g id="link_Repositories_CollaboratorRepository"><path codeLine="117" d="M1099.11,215.3127 C1085,226.1127 1075,233.7627 1075,233.7627 C1075,233.7627 965,282.7627 965,282.7627 C965,282.7627 746,312.7627 746,312.7627 C746,312.7627 710.7791,338.5854 674.6291,365.0854 " fill="none" id="Repositories-to-CollaboratorRepository" style="stroke:#181818;stroke-width:1.0;"/><polygon fill="#181818" points="669.79,368.6327,679.4135,366.5378,673.8226,365.6766,674.6837,360.0857,669.79,368.6327" style="stroke:#181818;stroke-width:1.0;"/><text fill="#000000" font-family="sans-serif" font-size="13" lengthAdjust="spacing" textLength="7" x="671.2831" y="357.5161">1</text></g><!--link Repositories to SkillRepository--><g id="link_Repositories_SkillRepository"><path codeLine="118" d="M1288.08,186.5127 C1407.09,235.9427 1592,312.7627 1592,312.7627 C1592,312.7627 1618.0938,344.5645 1641.3338,372.8845 " fill="none" id="Repositories-to-SkillRepository" style="stroke:#181818;stroke-width:1.0;"/><polygon fill="#181818" points="1645.14,377.5227,1642.5228,368.0279,1641.9682,373.6575,1636.3386,373.1029,1645.14,377.5227" style="stroke:#181818;stroke-width:1.0;"/><text fill="#000000" font-family="sans-serif" font-size="13" lengthAdjust="spacing" textLength="7" x="1632.3526" y="366.5629">1</text></g><!--link Repositories to TeamRepository--><g id="link_Repositories_TeamRepository"><path codeLine="119" d="M1184.46,215.6027 C1182.1,245.2927 1179.7855,274.4516 1177.2255,306.6516 " fill="none" id="Repositories-to-TeamRepository" style="stroke:#181818;stroke-width:1.0;"/><polygon fill="#181818" points="1176.75,312.6327,1181.4507,303.978,1177.1463,307.6484,1173.4759,303.344,1176.75,312.6327" style="stroke:#181818;stroke-width:1.0;"/><text fill="#000000" font-family="sans-serif" font-size="13" lengthAdjust="spacing" textLength="7" x="1170.0754" y="301.4712">1</text></g><!--link GenerateTeamController to CollaboratorRepository--><g id="link_GenerateTeamController_CollaboratorRepository"><path codeLine="121" d="M600.69,233.9827 C619.79,251.0627 634,263.7627 634,263.7627 C634,263.7627 634,282.7627 634,282.7627 C634,282.7627 626.9745,325.4124 620.8545,362.5924 " fill="none" id="GenerateTeamController-to-CollaboratorRepository" style="stroke:#181818;stroke-width:1.0;stroke-dasharray:7.0,7.0;"/><polygon fill="#181818" points="619.88,368.5127,625.2887,360.2819,620.6921,363.5791,617.3949,358.9825,619.88,368.5127" style="stroke:#181818;stroke-width:1.0;"/><text fill="#000000" font-family="sans-serif" font-size="13" lengthAdjust="spacing" textLength="131" x="635" y="278.791">CollaboratorRepository</text></g><!--link GenerateTeamController to CollaboratorRepository--><g id="link_GenerateTeamController_CollaboratorRepository"><path codeLine="126" d="M496.77,233.9827 C495.75,251.0627 495,263.7627 495,263.7627 C495,263.7627 495,282.7627 495,282.7627 C495,282.7627 535.8746,326.9292 570.2846,364.1092 " fill="none" id="GenerateTeamController-to-CollaboratorRepository-1" style="stroke:#181818;stroke-width:1.0;stroke-dasharray:7.0,7.0;"/><polygon fill="#181818" points="574.36,368.5127,571.1825,359.1905,570.9638,364.8431,565.3112,364.6244,574.36,368.5127" style="stroke:#181818;stroke-width:1.0;"/><text fill="#000000" font-family="sans-serif" font-size="13" lengthAdjust="spacing" textLength="129" x="496" y="278.791">collaboratorRepository</text><text fill="#000000" font-family="sans-serif" font-size="13" lengthAdjust="spacing" textLength="7" x="560.6439" y="357.3769">1</text></g><!--link GenerateTeamController to SkillRepository--><g id="link_GenerateTeamController_SkillRepository"><path codeLine="122" d="M821.82,229.2827 C832.7,232.1227 839,233.7627 839,233.7627 C839,233.7627 1592,312.7627 1592,312.7627 C1592,312.7627 1618.0938,344.5645 1641.3338,372.8845 " fill="none" id="GenerateTeamController-to-SkillRepository" style="stroke:#181818;stroke-width:1.0;stroke-dasharray:7.0,7.0;"/><polygon fill="#181818" points="1645.14,377.5227,1642.5228,368.0279,1641.9682,373.6575,1636.3386,373.1029,1645.14,377.5227" style="stroke:#181818;stroke-width:1.0;"/><text fill="#000000" font-family="sans-serif" font-size="13" lengthAdjust="spacing" textLength="87" x="1306" y="278.791">SkillRepository</text></g><!--link GenerateTeamController to TeamRepository--><g id="link_GenerateTeamController_TeamRepository"><path codeLine="123" d="M724.1,233.8327 C787.86,259.1227 852.1824,284.6312 917.3024,310.4512 " fill="none" id="GenerateTeamController-to-TeamRepository" style="stroke:#181818;stroke-width:1.0;stroke-dasharray:7.0,7.0;"/><polygon fill="#181818" points="922.88,312.6627,915.988,305.6271,918.232,310.8198,913.0393,313.0638,922.88,312.6627" style="stroke:#181818;stroke-width:1.0;"/><text fill="#000000" font-family="sans-serif" font-size="13" lengthAdjust="spacing" textLength="94" x="837" y="278.791">TeamRepository</text></g><!--link GenerateTeamController to ApplicationSession--><g id="link_GenerateTeamController_ApplicationSession"><path codeLine="127" d="M413.43,233.8327 C367.78,279.2227 318.5155,328.223 282.2755,364.243 " fill="none" id="GenerateTeamController-to-ApplicationSession" style="stroke:#181818;stroke-width:1.0;stroke-dasharray:7.0,7.0;"/><polygon fill="#181818" points="278.02,368.4727,287.2231,364.9652,281.5663,364.9479,281.5835,359.2911,278.02,368.4727" style="stroke:#181818;stroke-width:1.0;"/></g><!--link GenerateTeamController to UserSession--><g id="link_GenerateTeamController_UserSession"><path codeLine="128" d="M479.72,234.0427 C448.09,359.3827 393.458,575.865 375.308,647.795 " fill="none" id="GenerateTeamController-to-UserSession" style="stroke:#181818;stroke-width:1.0;stroke-dasharray:7.0,7.0;"/><polygon fill="#181818" points="373.84,653.6127,379.9204,645.8649,375.0633,648.7647,372.1635,643.9076,373.84,653.6127" style="stroke:#181818;stroke-width:1.0;"/></g><!--link CollaboratorRepository to Collaborator--><g id="link_CollaboratorRepository_Collaborator"><path codeLine="130" d="M616.18,453.9727 C623.31,547.6827 640,766.7627 640,766.7627 C640,766.7627 647.8906,795.9016 659.7606,839.7016 " fill="none" id="CollaboratorRepository-to-Collaborator" style="stroke:#181818;stroke-width:1.0;"/><polygon fill="#181818" points="661.33,845.4927,662.8366,835.7598,660.0222,840.6668,655.1151,837.8523,661.33,845.4927" style="stroke:#181818;stroke-width:1.0;"/><text fill="#000000" font-family="sans-serif" font-size="13" lengthAdjust="spacing" textLength="74" x="641" y="683.291">collaborators</text><text fill="#000000" font-family="sans-serif" font-size="13" lengthAdjust="spacing" textLength="7" x="609.129" y="476.1665">1</text><text fill="#000000" font-family="sans-serif" font-size="13" lengthAdjust="spacing" textLength="5" x="654.102" y="834.2926">*</text></g><!--link TeamRepository to Team--><g id="link_TeamRepository_Team"><path codeLine="131" d="M1130.2,510.0027 C1119.98,535.7527 1111.2235,557.8059 1101.2135,583.0259 " fill="none" id="TeamRepository-to-Team" style="stroke:#181818;stroke-width:1.0;"/><polygon fill="#181818" points="1099,588.6027,1106.0381,581.7132,1100.8446,583.9554,1098.6023,578.7619,1099,588.6027" style="stroke:#181818;stroke-width:1.0;"/><text fill="#000000" font-family="sans-serif" font-size="13" lengthAdjust="spacing" textLength="36" x="1117" y="554.791">teams</text><text fill="#000000" font-family="sans-serif" font-size="13" lengthAdjust="spacing" textLength="7" x="1120.0936" y="531.9183">1</text><text fill="#000000" font-family="sans-serif" font-size="13" lengthAdjust="spacing" textLength="5" x="1096.6914" y="577.5412">*</text></g><!--link SkillRepository to Skill--><g id="link_SkillRepository_Skill"><path codeLine="132" d="M1661.23,445.0427 C1644.45,496.0927 1614,588.7627 1614,588.7627 C1614,588.7627 1556,766.7627 1556,766.7627 C1556,766.7627 1332,1191.7627 1332,1191.7627 C1332,1191.7627 1192.9425,1254.2926 1116.1525,1288.8126 " fill="none" id="SkillRepository-to-Skill" style="stroke:#181818;stroke-width:1.0;"/><polygon fill="#181818" points="1110.68,1291.2727,1120.5288,1291.2309,1115.2404,1289.2226,1117.2487,1283.9343,1110.68,1291.2727" style="stroke:#181818;stroke-width:1.0;"/><text fill="#000000" font-family="sans-serif" font-size="13" lengthAdjust="spacing" textLength="30" x="1539" y="811.791">skills</text><text fill="#000000" font-family="sans-serif" font-size="13" lengthAdjust="spacing" textLength="7" x="1651.7773" y="466.3955">1</text><text fill="#000000" font-family="sans-serif" font-size="13" lengthAdjust="spacing" textLength="5" x="1118.5181" y="1283.4456">*</text></g><!--link Team to HRM--><g id="link_Team_HRM"><path codeLine="134" d="M1120.97,766.9427 C1170.27,843.2627 1234.9348,943.3525 1264.7148,989.4625 " fill="none" id="Team-to-HRM" style="stroke:#181818;stroke-width:1.0;"/><polygon fill="#181818" points="1267.97,994.5027,1266.4473,984.7723,1265.2573,990.3025,1259.7271,989.1125,1267.97,994.5027" style="stroke:#181818;stroke-width:1.0;"/><text fill="#000000" font-family="sans-serif" font-size="13" lengthAdjust="spacing" textLength="73" x="1148" y="811.791">generatedBy</text></g><!--link Team to Collaborator--><g id="link_Team_Collaborator"><path codeLine="135" d="M971.39,766.9427 C945.95,791.1727 921.8054,814.1654 893.2054,841.3954 " fill="none" id="Team-to-Collaborator" style="stroke:#181818;stroke-width:1.0;"/><polygon fill="#181818" points="888.86,845.5327,898.1364,842.2237,892.4812,842.085,892.62,836.4298,888.86,845.5327" style="stroke:#181818;stroke-width:1.0;"/><text fill="#000000" font-family="sans-serif" font-size="13" lengthAdjust="spacing" textLength="26" x="939" y="811.791">have</text><text fill="#000000" font-family="sans-serif" font-size="13" lengthAdjust="spacing" textLength="7" x="956.4309" y="789.0578">1</text><text fill="#000000" font-family="sans-serif" font-size="13" lengthAdjust="spacing" textLength="20" x="876.6021" y="834.3344">1..*</text></g><!--link Team to Skill--><g id="link_Team_Skill"><path codeLine="136" d="M1064,766.8527 C1064,905.3927 1064,1162.8927 1064,1264.6927 " fill="none" id="Team-to-Skill" style="stroke:#181818;stroke-width:1.0;"/><polygon fill="#181818" points="1064,1270.6927,1068,1261.6927,1064,1265.6927,1060,1261.6927,1064,1270.6927" style="stroke:#181818;stroke-width:1.0;"/><text fill="#000000" font-family="sans-serif" font-size="13" lengthAdjust="spacing" textLength="81" x="1065" y="1024.291">skillsRequired</text><text fill="#000000" font-family="sans-serif" font-size="13" lengthAdjust="spacing" textLength="7" x="1056.6992" y="789.2652">1</text><text fill="#000000" font-family="sans-serif" font-size="13" lengthAdjust="spacing" textLength="5" x="1058.6016" y="1259.5856">*</text></g><!--link Collaborator to Skill--><g id="link_Collaborator_Skill"><path codeLine="137" d="M917.4,1191.8127 C955.04,1222.7327 986.1034,1248.2646 1012.8534,1270.2346 " fill="none" id="Collaborator-to-Skill" style="stroke:#181818;stroke-width:1.0;"/><polygon fill="#181818" points="1017.49,1274.0427,1013.0738,1265.2395,1013.6261,1270.8693,1007.9963,1271.4216,1017.49,1274.0427" style="stroke:#181818;stroke-width:1.0;"/><text fill="#000000" font-family="sans-serif" font-size="13" lengthAdjust="spacing" textLength="26" x="969" y="1236.791">have</text><text fill="#000000" font-family="sans-serif" font-size="13" lengthAdjust="spacing" textLength="7" x="919.0864" y="1213.5076">1</text><text fill="#000000" font-family="sans-serif" font-size="13" lengthAdjust="spacing" textLength="5" x="1004.3727" y="1263.1714">*</text></g><!--link ApplicationSession to UserSession--><g id="link_ApplicationSession_UserSession"><path codeLine="139" d="M256.77,453.8827 C284.87,510.1827 331.361,603.344 353.691,648.094 " fill="none" id="ApplicationSession-to-UserSession" style="stroke:#181818;stroke-width:1.0;"/><polygon fill="#181818" points="356.37,653.4627,355.9307,643.6236,354.1375,648.9888,348.7724,647.1956,356.37,653.4627" style="stroke:#181818;stroke-width:1.0;"/><text fill="#000000" font-family="sans-serif" font-size="13" lengthAdjust="spacing" textLength="72" x="307" y="554.791">userSession</text><text fill="#000000" font-family="sans-serif" font-size="13" lengthAdjust="spacing" textLength="7" x="345.6821" y="642.5315">1</text></g><!--link TeamRepository to HRM--><g id="link_TeamRepository_HRM"><path codeLine="141" d="M1241.95,509.8027 C1272.48,550.6227 1301,588.7627 1301,588.7627 C1301,588.7627 1301,766.7627 1301,766.7627 C1301,766.7627 1289.5495,926.4781 1285.0895,988.6181 " fill="none" id="TeamRepository-to-HRM" style="stroke:#181818;stroke-width:1.0;"/><polygon fill="#181818" points="1284.66,994.6027,1289.294,985.9121,1285.0179,989.6155,1281.3146,985.3394,1284.66,994.6027" style="stroke:#181818;stroke-width:1.0;"/><text fill="#000000" font-family="sans-serif" font-size="13" lengthAdjust="spacing" textLength="49" x="1302" y="683.291">employs</text><text fill="#000000" font-family="sans-serif" font-size="13" lengthAdjust="spacing" textLength="5" x="1279.4448" y="983.2992">*</text></g><!--link SkillRepository to HRM--><g id="link_SkillRepository_HRM"><path codeLine="142" d="M1645.14,445.0027 C1621.9,473.3227 1592,509.7627 1592,509.7627 C1592,509.7627 1552,539.7627 1552,539.7627 C1552,539.7627 1501,588.7627 1501,588.7627 C1501,588.7627 1342.718,900.2437 1297.438,989.3537 " fill="none" id="SkillRepository-to-HRM" style="stroke:#181818;stroke-width:1.0;"/><polygon fill="#181818" points="1294.72,994.7027,1302.3631,988.4912,1296.985,990.2452,1295.231,984.8671,1294.72,994.7027" style="stroke:#181818;stroke-width:1.0;"/><text fill="#000000" font-family="sans-serif" font-size="13" lengthAdjust="spacing" textLength="49" x="1502" y="683.291">employs</text><text fill="#000000" font-family="sans-serif" font-size="13" lengthAdjust="spacing" textLength="5" x="1292.0826" y="983.4248">*</text></g><!--link CollaboratorRepository to HRM--><g id="link_CollaboratorRepository_HRM"><path codeLine="143" d="M638.36,454.0927 C670,506.2827 720,588.7627 720,588.7627 C720,588.7627 776,766.7627 776,766.7627 C776,766.7627 1155,845.7627 1155,845.7627 C1155,845.7627 1227.2179,942.7993 1262.1579,989.7493 " fill="none" id="CollaboratorRepository-to-HRM" style="stroke:#181818;stroke-width:1.0;"/><polygon fill="#181818" points="1265.74,994.5627,1263.5758,984.9546,1262.7549,990.5515,1257.1579,989.7307,1265.74,994.5627" style="stroke:#181818;stroke-width:1.0;"/><text fill="#000000" font-family="sans-serif" font-size="13" lengthAdjust="spacing" textLength="49" x="777" y="683.291">employs</text><text fill="#000000" font-family="sans-serif" font-size="13" lengthAdjust="spacing" textLength="5" x="1255.9235" y="983.6559">*</text></g><!--SRC=[bLTBSzis4BxZLs1oCTFGdkQgQJsZkachcIRjMCwj5uXOYQX9W0KW9ued_pqBFfSWw6bra4ZiwziFkrZeoZqgtGWhQbuRROhIcXgujsTWawGHnQCumTvVAk0M2Y_qgQ8AhXJIV5Rwn8-YSbHIAGt-qW1lJ7K9B-mg8JJM6qQiYaeuj_NUgiFPmwumUg- -0l-HiQiAZfvxmwqwbPvB5U0eenbhRVYsQIfLYB2q1-Vmvvbn_BpXpkDgmK_WTngVTG7Pwrw4QtTdQq7xtWObtmQFdnpOqTMu-llz1qvUxqnLYOEnmXlBkuZNN8iQ-aSfF6Pvv0TbVId5fLyMibQjvw0WnaLfCHu2jW2UVrLDOIH4maBvIywX5ghg9KrfD71zhWzWXwYcU41wfxVThn-f_1zpk4DW9sC7G7iawUo2KSlNsR5Uy0uT4-dFprka_GcDyu_6jy_mZVLqKZAoG4A-o3-FKi-ZhFE_zP1udievdwMR3va6Cv9cJZFCQN8ZwA44H9zEfqFtV_-egchSqptM99RvkBLlEdcRvkjqFTn3Ovp2Xmj_9WL7D0Oq6FyFvNmMWwAwxW54dNdy8k72MYAC4qz0rCVOBUGGAINy8Bw4PakAb5uHQK1mhU2NI-jz3twhPT3EwiaghoVdkGjwRWyLTZ38d1SaosuR8bxoJiFzXGqPR0cou91GTysVHALaHDrxOrle2n08DgVH1ySf9rif-nGpQaAnvdpS7h8_VGNjD9OZM4v0H8A9hXx60ZHbT0QYPMdEwpf9TBUpvIwFItysuJGL5VyfEBWDxJZhy3bpKz9ZGIfmO__GHHfqEfFvPgOKLUrKvRFJEzbkMPJxJ3Bspc-aUE-CzXPzWHrxA2tEKjsqXiYjzJVjc__Q9gj5jz8SqMuzc3QOqXA-qFLv-oqwZq_jVXtIm_7t7cyAqxXC7ZZpCtIY_pbD7gfhWtEY6-quBTBSzoZEE9VVXLd0bUFcu0LU9cGhEo8oxajeLRZhCFPMReZNlgEbA4e5Jo3vP-NBJenNd04f0orv0DL3EnZlqJbYYrAQG4b-n3k0LAwfn0LdHIi9Q70MyQ8VHdZrGGYJysKfVjfrzujP5rtVphjgmrNVDsnvyGdQYLLYmwA0DxThbBELBhbP0BAqToFq2EZLsrShmp6j6zESL9etzpfOHBioc3The5vm5K537p7O5uoZYRrPvF2IyJg9wAZutuaiY-GbRN8VPcm5HG3ORiuFSw0HFCSY6gXT4A5-E4aSYxccYjq5RTFrBjPSQnY4uOw-6GzP7DkTQBHzUtEpn5VY4HRfBMBSmxzd_ECXP-adzLjloTxiIvUmYUfdoct4pU2womhgfZAN9J5fhPLjIYkpxm00]--></g></svg>