<?xml version="1.0" encoding="us-ascii" standalone="no"?><svg xmlns="http://www.w3.org/2000/svg" xmlns:xlink="http://www.w3.org/1999/xlink" contentStyleType="text/css" height="475px" preserveAspectRatio="none" style="width:1515px;height:475px;background:#FFFFFF;" version="1.1" viewBox="0 0 1515 475" width="1515px" zoomAndPan="magnify"><defs/><g><rect fill="#FFFFFF" height="357.2402" style="stroke:#181818;stroke-width:1.0;" width="10" x="474" y="71.9121"/><rect fill="#FFFFFF" height="259.3672" style="stroke:#181818;stroke-width:1.0;" width="10" x="962" y="129.4941"/><rect fill="#FFFFFF" height="104.873" style="stroke:#181818;stroke-width:1.0;" width="10" x="967" y="238.6973"/><rect fill="#FFFFFF" height="31.291" style="stroke:#181818;stroke-width:1.0;" width="10" x="1467" y="274.9883"/><rect fill="none" height="170.4551" style="stroke:#000000;stroke-width:1.5;" width="601" x="908" y="188.1152"/><line style="stroke:#181818;stroke-width:0.5;stroke-dasharray:5.0,5.0;" x1="479" x2="479" y1="38.6211" y2="438.1523"/><line style="stroke:#181818;stroke-width:0.5;stroke-dasharray:5.0,5.0;" x1="967" x2="967" y1="38.6211" y2="438.1523"/><line style="stroke:#181818;stroke-width:0.5;stroke-dasharray:5.0,5.0;" x1="1472" x2="1472" y1="169.3047" y2="438.1523"/><rect fill="#E3E3E3" height="32.6211" rx="2.5" ry="2.5" style="stroke:#181818;stroke-width:0.5;" width="176" x="391" y="5"/><text fill="#000000" font-family="sans-serif" font-size="14" lengthAdjust="spacing" textLength="162" x="398" y="27.1074">:GenerateTeamController</text><rect fill="#E3E3E3" height="32.6211" rx="2.5" ry="2.5" style="stroke:#181818;stroke-width:0.5;" width="176" x="391" y="437.1523"/><text fill="#000000" font-family="sans-serif" font-size="14" lengthAdjust="spacing" textLength="162" x="398" y="459.2598">:GenerateTeamController</text><rect fill="#E3E3E3" height="32.6211" rx="2.5" ry="2.5" style="stroke:#181818;stroke-width:0.5;" width="98" x="918" y="5"/><text fill="#000000" font-family="sans-serif" font-size="14" lengthAdjust="spacing" textLength="84" x="925" y="27.1074">:Organization</text><rect fill="#E3E3E3" height="32.6211" rx="2.5" ry="2.5" style="stroke:#181818;stroke-width:0.5;" width="98" x="918" y="437.1523"/><text fill="#000000" font-family="sans-serif" font-size="14" lengthAdjust="spacing" textLength="84" x="925" y="459.2598">:Organization</text><rect fill="#E3E3E3" height="32.6211" rx="2.5" ry="2.5" style="stroke:#181818;stroke-width:0.5;" width="54" x="1445" y="437.1523"/><text fill="#000000" font-family="sans-serif" font-size="14" lengthAdjust="spacing" textLength="40" x="1452" y="459.2598">:Team</text><rect fill="#FFFFFF" height="357.2402" style="stroke:#181818;stroke-width:1.0;" width="10" x="474" y="71.9121"/><rect fill="#FFFFFF" height="259.3672" style="stroke:#181818;stroke-width:1.0;" width="10" x="962" y="129.4941"/><rect fill="#FFFFFF" height="104.873" style="stroke:#181818;stroke-width:1.0;" width="10" x="967" y="238.6973"/><rect fill="#FFFFFF" height="31.291" style="stroke:#181818;stroke-width:1.0;" width="10" x="1467" y="274.9883"/><polygon fill="#181818" points="462,67.9121,472,71.9121,462,75.9121,466,71.9121" style="stroke:#181818;stroke-width:1.0;"/><line style="stroke:#181818;stroke-width:1.0;" x1="0" x2="468" y1="71.9121" y2="71.9121"/><text fill="#000000" font-family="sans-serif" font-size="13" font-weight="bold" lengthAdjust="spacing" textLength="14" x="7" y="66.6494">17</text><text fill="#000000" font-family="sans-serif" font-size="13" lengthAdjust="spacing" textLength="430" x="25" y="66.6494">generateTeam(maxSizeTeam,minSizeTeam,skillSet,numberCollabForSkill)</text><polygon fill="#181818" points="950,125.4941,960,129.4941,950,133.4941,954,129.4941" style="stroke:#181818;stroke-width:1.0;"/><line style="stroke:#181818;stroke-width:1.0;" x1="484" x2="956" y1="129.4941" y2="129.4941"/><text fill="#000000" font-family="sans-serif" font-size="13" font-weight="bold" lengthAdjust="spacing" textLength="25" x="491" y="124.2314">17.1</text><text fill="#000000" font-family="sans-serif" font-size="13" lengthAdjust="spacing" textLength="430" x="520" y="124.2314">generateTeam(maxSizeTeam,minSizeTeam,skillSet,numberCollabForSkill)</text><polygon fill="#181818" points="1433,156.7852,1443,160.7852,1433,164.7852,1437,160.7852" style="stroke:#181818;stroke-width:1.0;"/><line style="stroke:#181818;stroke-width:1.0;" x1="972" x2="1439" y1="160.7852" y2="160.7852"/><text fill="#000000" font-family="sans-serif" font-size="13" font-weight="bold" lengthAdjust="spacing" textLength="25" x="979" y="155.5225">17.2</text><text fill="#000000" font-family="sans-serif" font-size="13" lengthAdjust="spacing" textLength="44" x="1008" y="155.5225">create()</text><rect fill="#E3E3E3" height="32.6211" rx="2.5" ry="2.5" style="stroke:#181818;stroke-width:0.5;" width="54" x="1445" y="137.4941"/><text fill="#000000" font-family="sans-serif" font-size="14" lengthAdjust="spacing" textLength="40" x="1452" y="159.6016">:Team</text><path d="M908,188.1152 L981,188.1152 L981,197.4063 L971,207.4063 L908,207.4063 L908,188.1152 " fill="#EEEEEE" style="stroke:#000000;stroke-width:1.5;"/><rect fill="none" height="170.4551" style="stroke:#000000;stroke-width:1.5;" width="601" x="908" y="188.1152"/><text fill="#000000" font-family="sans-serif" font-size="13" font-weight="bold" lengthAdjust="spacing" textLength="28" x="923" y="203.1436">loop</text><text fill="#000000" font-family="sans-serif" font-size="11" font-weight="bold" lengthAdjust="spacing" textLength="156" x="996" y="201.9854">[Until you have the full team]</text><line style="stroke:#181818;stroke-width:1.0;" x1="972" x2="1019" y1="225.6973" y2="225.6973"/><line style="stroke:#181818;stroke-width:1.0;" x1="1019" x2="1019" y1="225.6973" y2="238.6973"/><line style="stroke:#181818;stroke-width:1.0;" x1="978" x2="1019" y1="238.6973" y2="238.6973"/><polygon fill="#181818" points="988,234.6973,978,238.6973,988,242.6973,984,238.6973" style="stroke:#181818;stroke-width:1.0;"/><text fill="#000000" font-family="sans-serif" font-size="13" font-weight="bold" lengthAdjust="spacing" textLength="25" x="984" y="220.4346">17.3</text><text fill="#000000" font-family="sans-serif" font-size="13" lengthAdjust="spacing" textLength="452" x="1013" y="220.4346">validateCollaborator(collaboratorNotActivateList, skillSet,numberCollabForSkill)</text><polygon fill="#181818" points="1455,270.9883,1465,274.9883,1455,278.9883,1459,274.9883" style="stroke:#181818;stroke-width:1.0;"/><line style="stroke:#181818;stroke-width:1.0;" x1="977" x2="1461" y1="274.9883" y2="274.9883"/><text fill="#000000" font-family="sans-serif" font-size="13" font-weight="bold" lengthAdjust="spacing" textLength="25" x="984" y="269.7256">17.4</text><text fill="#000000" font-family="sans-serif" font-size="13" lengthAdjust="spacing" textLength="165" x="1013" y="269.7256">addCollaborator(collaborator)</text><polygon fill="#181818" points="988,302.2793,978,306.2793,988,310.2793,984,306.2793" style="stroke:#181818;stroke-width:1.0;"/><line style="stroke:#181818;stroke-width:1.0;stroke-dasharray:2.0,2.0;" x1="982" x2="1471" y1="306.2793" y2="306.2793"/><text fill="#000000" font-family="sans-serif" font-size="13" font-weight="bold" lengthAdjust="spacing" textLength="25" x="994" y="301.0166">17.5</text><text fill="#000000" font-family="sans-serif" font-size="13" lengthAdjust="spacing" textLength="4" x="1023" y="301.0166">&#160;</text><line style="stroke:#181818;stroke-width:1.0;stroke-dasharray:2.0,2.0;" x1="977" x2="1019" y1="342.5703" y2="342.5703"/><line style="stroke:#181818;stroke-width:1.0;stroke-dasharray:2.0,2.0;" x1="1019" x2="1019" y1="342.5703" y2="355.5703"/><line style="stroke:#181818;stroke-width:1.0;stroke-dasharray:2.0,2.0;" x1="972" x2="1019" y1="355.5703" y2="355.5703"/><polygon fill="#181818" points="982,351.5703,972,355.5703,982,359.5703,978,355.5703" style="stroke:#181818;stroke-width:1.0;"/><text fill="#000000" font-family="sans-serif" font-size="13" font-weight="bold" lengthAdjust="spacing" textLength="25" x="984" y="337.3076">17.6</text><text fill="#000000" font-family="sans-serif" font-size="13" lengthAdjust="spacing" textLength="4" x="1013" y="337.3076">&#160;</text><polygon fill="#181818" points="495,384.8613,485,388.8613,495,392.8613,491,388.8613" style="stroke:#181818;stroke-width:1.0;"/><line style="stroke:#181818;stroke-width:1.0;stroke-dasharray:2.0,2.0;" x1="489" x2="966" y1="388.8613" y2="388.8613"/><text fill="#000000" font-family="sans-serif" font-size="13" font-weight="bold" lengthAdjust="spacing" textLength="25" x="501" y="383.5986">17.7</text><text fill="#000000" font-family="sans-serif" font-size="13" lengthAdjust="spacing" textLength="195" x="530" y="383.5986">team / collaboratorNotActivateList</text><polygon fill="#181818" points="11,416.1523,1,420.1523,11,424.1523,7,420.1523" style="stroke:#181818;stroke-width:1.0;"/><line style="stroke:#181818;stroke-width:1.0;stroke-dasharray:2.0,2.0;" x1="5" x2="473" y1="420.1523" y2="420.1523"/><text fill="#000000" font-family="sans-serif" font-size="13" font-weight="bold" lengthAdjust="spacing" textLength="14" x="17" y="414.8896">18</text><text fill="#000000" font-family="sans-serif" font-size="13" lengthAdjust="spacing" textLength="195" x="35" y="414.8896">team / collaboratorNotActivateList</text><!--SRC=[hLFTQi8m5BxFKnoyKh4RNcsKCHZ2l949rZt0iJssmJGfQUgcJxyarTAvMXHshjAJBz_FILFkk2nGOmwvaYhEjCe9ZAw8bSrEWV4EKuhCGH1eYWtALBG1POQ9-k8oXIsAaXYpRSDZNg0qC0Zd94cZeJLXFbFIQ2K4wG5W2RFrQd61NkeK9J-YuKfwp78rlu0u8h_b5WmhesILRqZ3z8cnuDMpXf2sP8SvVaVywDUJdCjcRKC84P6Pr0mpQmqtxqf7hZzYlyaVfWnZm_UMj7OEjbAjgWBE6MjBjk1lkIDWxTb0uN-Owv1exBcXTG5SsJrdmqcCno74cko9uUWgNYXLmASqNC11LP3XtluY6S6s4WACpzklv0B37WLFh52TGjdmIW_ZriU7Ccyd-mjUcWdS7__c4LoC8GHCagl6HdqiZTowRn3dSY08wf7qOHEwdTVdwATiqVLDXMJIVvMdjmMXltPuX9xxwsJgCj9-Oi- -yn84T-XSSlu0]--></g></svg>