<?xml version="1.0" encoding="us-ascii" standalone="no"?><svg xmlns="http://www.w3.org/2000/svg" xmlns:xlink="http://www.w3.org/1999/xlink" contentStyleType="text/css" height="1050px" preserveAspectRatio="none" style="width:1347px;height:1050px;background:#FFFFFF;" version="1.1" viewBox="0 0 1347 1050" width="1347px" zoomAndPan="magnify"><defs/><g><rect fill="#FFFFFF" height="855.4102" style="stroke:#181818;stroke-width:1.0;" width="10" x="33" y="93.6211"/><rect fill="#FFFFFF" height="74.9121" style="stroke:#181818;stroke-width:1.0;" width="10" x="373" y="116.9121"/><rect fill="#FFFFFF" height="175.377" style="stroke:#181818;stroke-width:1.0;" width="10" x="373" y="223.1152"/><rect fill="#FFFFFF" height="48.582" style="stroke:#181818;stroke-width:1.0;" width="10" x="373" y="456.0742"/><rect fill="#FFFFFF" height="174.0469" style="stroke:#181818;stroke-width:1.0;" width="10" x="373" y="542.9473"/><rect fill="#FFFFFF" height="200.7461" style="stroke:#181818;stroke-width:1.0;" width="10" x="373" y="748.2852"/><rect fill="#FFFFFF" height="95.5039" style="stroke:#181818;stroke-width:1.0;" width="10" x="723" y="254.4063"/><rect fill="#FFFFFF" height="111.4648" style="stroke:#181818;stroke-width:1.0;" width="10" x="723" y="574.2383"/><rect fill="#FFFFFF" height="138.1641" style="stroke:#181818;stroke-width:1.0;" width="10" x="723" y="779.5762"/><rect fill="#FFFFFF" height="75.582" style="stroke:#181818;stroke-width:1.0;" width="10" x="1210" y="810.8672"/><rect fill="#FFFFFF" height="37.291" style="stroke:#181818;stroke-width:1.0;" width="10" x="1210" y="810.8672"/><rect fill="none" height="99.1641" style="stroke:#000000;stroke-width:1.5;" width="441" x="10" y="413.4922"/><line style="stroke:#181818;stroke-width:0.5;stroke-dasharray:5.0,5.0;" x1="38" x2="38" y1="83.6211" y2="967.0313"/><line style="stroke:#181818;stroke-width:0.5;stroke-dasharray:5.0,5.0;" x1="378" x2="378" y1="83.6211" y2="967.0313"/><line style="stroke:#181818;stroke-width:0.5;stroke-dasharray:5.0,5.0;" x1="728" x2="728" y1="156.7227" y2="967.0313"/><line style="stroke:#181818;stroke-width:0.5;stroke-dasharray:5.0,5.0;" x1="874" x2="874" y1="83.6211" y2="967.0313"/><line style="stroke:#181818;stroke-width:0.5;stroke-dasharray:5.0,5.0;" x1="981" x2="981" y1="83.6211" y2="967.0313"/><line style="stroke:#181818;stroke-width:0.5;stroke-dasharray:5.0,5.0;" x1="1095" x2="1095" y1="83.6211" y2="967.0313"/><line style="stroke:#181818;stroke-width:0.5;stroke-dasharray:5.0,5.0;" x1="1210" x2="1210" y1="83.6211" y2="967.0313"/><text fill="#000000" font-family="sans-serif" font-size="14" lengthAdjust="spacing" textLength="30" x="20" y="80.1074">HRM</text><ellipse cx="38" cy="13.5" fill="#E3E3E3" rx="8" ry="8" style="stroke:#181818;stroke-width:0.5;"/><path d="M38,21.5 L38,48.5 M25,29.5 L51,29.5 M38,48.5 L25,63.5 M38,48.5 L51,63.5 " fill="none" style="stroke:#181818;stroke-width:0.5;"/><text fill="#000000" font-family="sans-serif" font-size="14" lengthAdjust="spacing" textLength="30" x="20" y="981.1387">HRM</text><ellipse cx="38" cy="993.1523" fill="#E3E3E3" rx="8" ry="8" style="stroke:#181818;stroke-width:0.5;"/><path d="M38,1001.1523 L38,1028.1523 M25,1009.1523 L51,1009.1523 M38,1028.1523 L25,1043.1523 M38,1028.1523 L51,1043.1523 " fill="none" style="stroke:#181818;stroke-width:0.5;"/><rect fill="#E3E3E3" height="32.6211" rx="2.5" ry="2.5" style="stroke:#181818;stroke-width:0.5;" width="126" x="315" y="50"/><text fill="#000000" font-family="sans-serif" font-size="14" lengthAdjust="spacing" textLength="112" x="322" y="72.1074">:GenerateTeamUI</text><rect fill="#E3E3E3" height="32.6211" rx="2.5" ry="2.5" style="stroke:#181818;stroke-width:0.5;" width="126" x="315" y="966.0313"/><text fill="#000000" font-family="sans-serif" font-size="14" lengthAdjust="spacing" textLength="112" x="322" y="988.1387">:GenerateTeamUI</text><rect fill="#E3E3E3" height="32.6211" rx="2.5" ry="2.5" style="stroke:#181818;stroke-width:0.5;" width="176" x="640" y="966.0313"/><text fill="#000000" font-family="sans-serif" font-size="14" lengthAdjust="spacing" textLength="162" x="647" y="988.1387">:GenerateTeamController</text><rect fill="#E3E3E3" height="32.6211" rx="2.5" ry="2.5" style="stroke:#181818;stroke-width:0.5;" width="97" x="826" y="50"/><text fill="#000000" font-family="sans-serif" font-size="14" lengthAdjust="spacing" textLength="83" x="833" y="72.1074">:Repositories</text><rect fill="#E3E3E3" height="32.6211" rx="2.5" ry="2.5" style="stroke:#181818;stroke-width:0.5;" width="97" x="826" y="966.0313"/><text fill="#000000" font-family="sans-serif" font-size="14" lengthAdjust="spacing" textLength="83" x="833" y="988.1387">:Repositories</text><rect fill="#E3E3E3" height="51.2422" rx="2.5" ry="2.5" style="stroke:#181818;stroke-width:0.5;" width="97" x="933" y="31.3789"/><text fill="#000000" font-family="sans-serif" font-size="14" lengthAdjust="spacing" textLength="74" x="944.5" y="53.4863">repositories</text><text fill="#000000" font-family="sans-serif" font-size="14" lengthAdjust="spacing" textLength="83" x="940" y="72.1074">:Repositories</text><rect fill="#E3E3E3" height="51.2422" rx="2.5" ry="2.5" style="stroke:#181818;stroke-width:0.5;" width="97" x="933" y="966.0313"/><text fill="#000000" font-family="sans-serif" font-size="14" lengthAdjust="spacing" textLength="74" x="944.5" y="988.1387">repositories</text><text fill="#000000" font-family="sans-serif" font-size="14" lengthAdjust="spacing" textLength="83" x="940" y="1006.7598">:Repositories</text><rect fill="#E3E3E3" height="51.2422" rx="2.5" ry="2.5" style="stroke:#181818;stroke-width:0.5;" width="111" x="1040" y="31.3789"/><text fill="#000000" font-family="sans-serif" font-size="14" lengthAdjust="spacing" textLength="91" x="1050" y="53.4863">skillRepository</text><text fill="#000000" font-family="sans-serif" font-size="14" lengthAdjust="spacing" textLength="97" x="1047" y="72.1074">:SkillRepository</text><rect fill="#E3E3E3" height="51.2422" rx="2.5" ry="2.5" style="stroke:#181818;stroke-width:0.5;" width="111" x="1040" y="966.0313"/><text fill="#000000" font-family="sans-serif" font-size="14" lengthAdjust="spacing" textLength="91" x="1050" y="988.1387">skillRepository</text><text fill="#000000" font-family="sans-serif" font-size="14" lengthAdjust="spacing" textLength="97" x="1047" y="1006.7598">:SkillRepository</text><rect fill="#E3E3E3" height="51.2422" rx="2.5" ry="2.5" style="stroke:#181818;stroke-width:0.5;" width="98" x="1161" y="31.3789"/><text fill="#000000" font-family="sans-serif" font-size="14" lengthAdjust="spacing" textLength="77" x="1171.5" y="53.4863">organization</text><text fill="#000000" font-family="sans-serif" font-size="14" lengthAdjust="spacing" textLength="84" x="1168" y="72.1074">:Organization</text><rect fill="#E3E3E3" height="51.2422" rx="2.5" ry="2.5" style="stroke:#181818;stroke-width:0.5;" width="98" x="1161" y="966.0313"/><text fill="#000000" font-family="sans-serif" font-size="14" lengthAdjust="spacing" textLength="77" x="1171.5" y="988.1387">organization</text><text fill="#000000" font-family="sans-serif" font-size="14" lengthAdjust="spacing" textLength="84" x="1168" y="1006.7598">:Organization</text><rect fill="#FFFFFF" height="855.4102" style="stroke:#181818;stroke-width:1.0;" width="10" x="33" y="93.6211"/><rect fill="#FFFFFF" height="74.9121" style="stroke:#181818;stroke-width:1.0;" width="10" x="373" y="116.9121"/><rect fill="#FFFFFF" height="175.377" style="stroke:#181818;stroke-width:1.0;" width="10" x="373" y="223.1152"/><rect fill="#FFFFFF" height="48.582" style="stroke:#181818;stroke-width:1.0;" width="10" x="373" y="456.0742"/><rect fill="#FFFFFF" height="174.0469" style="stroke:#181818;stroke-width:1.0;" width="10" x="373" y="542.9473"/><rect fill="#FFFFFF" height="200.7461" style="stroke:#181818;stroke-width:1.0;" width="10" x="373" y="748.2852"/><rect fill="#FFFFFF" height="95.5039" style="stroke:#181818;stroke-width:1.0;" width="10" x="723" y="254.4063"/><rect fill="#FFFFFF" height="111.4648" style="stroke:#181818;stroke-width:1.0;" width="10" x="723" y="574.2383"/><rect fill="#FFFFFF" height="138.1641" style="stroke:#181818;stroke-width:1.0;" width="10" x="723" y="779.5762"/><rect fill="#FFFFFF" height="75.582" style="stroke:#181818;stroke-width:1.0;" width="10" x="1210" y="810.8672"/><rect fill="#FFFFFF" height="37.291" style="stroke:#181818;stroke-width:1.0;" width="10" x="1210" y="810.8672"/><polygon fill="#181818" points="361,112.9121,371,116.9121,361,120.9121,365,116.9121" style="stroke:#181818;stroke-width:1.0;"/><line style="stroke:#181818;stroke-width:1.0;" x1="43" x2="367" y1="116.9121" y2="116.9121"/><text fill="#000000" font-family="sans-serif" font-size="13" font-weight="bold" lengthAdjust="spacing" textLength="7" x="50" y="111.6494">1</text><text fill="#000000" font-family="sans-serif" font-size="13" lengthAdjust="spacing" textLength="225" x="61" y="111.6494">asks to generate a Team automatically</text><polygon fill="#181818" points="628,144.2031,638,148.2031,628,152.2031,632,148.2031" style="stroke:#181818;stroke-width:1.0;"/><line style="stroke:#181818;stroke-width:1.0;" x1="383" x2="634" y1="148.2031" y2="148.2031"/><text fill="#000000" font-family="sans-serif" font-size="13" font-weight="bold" lengthAdjust="spacing" textLength="7" x="390" y="142.9404">2</text><text fill="#000000" font-family="sans-serif" font-size="13" lengthAdjust="spacing" textLength="36" x="401" y="142.9404">create</text><rect fill="#E3E3E3" height="32.6211" rx="2.5" ry="2.5" style="stroke:#181818;stroke-width:0.5;" width="176" x="640" y="124.9121"/><text fill="#000000" font-family="sans-serif" font-size="14" lengthAdjust="spacing" textLength="162" x="647" y="147.0195">:GenerateTeamController</text><polygon fill="#181818" points="54,187.8242,44,191.8242,54,195.8242,50,191.8242" style="stroke:#181818;stroke-width:1.0;"/><line style="stroke:#181818;stroke-width:1.0;stroke-dasharray:2.0,2.0;" x1="48" x2="377" y1="191.8242" y2="191.8242"/><text fill="#000000" font-family="sans-serif" font-size="13" font-weight="bold" lengthAdjust="spacing" textLength="7" x="60" y="186.5615">3</text><text fill="#000000" font-family="sans-serif" font-size="13" lengthAdjust="spacing" textLength="79" x="71" y="186.5615">requests data</text><polygon fill="#181818" points="361,219.1152,371,223.1152,361,227.1152,365,223.1152" style="stroke:#181818;stroke-width:1.0;"/><line style="stroke:#181818;stroke-width:1.0;" x1="43" x2="367" y1="223.1152" y2="223.1152"/><text fill="#000000" font-family="sans-serif" font-size="13" font-weight="bold" lengthAdjust="spacing" textLength="7" x="50" y="217.8525">4</text><text fill="#000000" font-family="sans-serif" font-size="13" lengthAdjust="spacing" textLength="300" x="61" y="217.8525">types requested data(maxSizeTeam, minSizeTeam)</text><polygon fill="#181818" points="711,250.4063,721,254.4063,711,258.4063,715,254.4063" style="stroke:#181818;stroke-width:1.0;"/><line style="stroke:#181818;stroke-width:1.0;" x1="383" x2="717" y1="254.4063" y2="254.4063"/><text fill="#000000" font-family="sans-serif" font-size="13" font-weight="bold" lengthAdjust="spacing" textLength="7" x="390" y="249.1436">5</text><text fill="#000000" font-family="sans-serif" font-size="13" lengthAdjust="spacing" textLength="72" x="401" y="249.1436">getSkillList()</text><rect fill="none" height="59.2129" style="stroke:#000000;stroke-width:1.5;" width="182" x="637" y="262.4063"/><path d="M637,262.4063 L699,262.4063 L699,271.4063 L689,281.4063 L637,281.4063 L637,262.4063 " fill="#EEEEEE" style="stroke:#000000;stroke-width:2.0;"/><text fill="#000000" font-family="sans-serif" font-size="13" font-weight="bold" lengthAdjust="spacing" textLength="17" x="650" y="278.4346">ref</text><text fill="#000000" font-family="sans-serif" font-size="12" lengthAdjust="spacing" textLength="68" x="694" y="298.3555">Get Skill List</text><text fill="#000000" font-family="sans-serif" font-size="12" lengthAdjust="spacing" textLength="3" x="726.5" y="314.3164">&#160;</text><polygon fill="#181818" points="394,345.9102,384,349.9102,394,353.9102,390,349.9102" style="stroke:#181818;stroke-width:1.0;"/><line style="stroke:#181818;stroke-width:1.0;stroke-dasharray:2.0,2.0;" x1="388" x2="727" y1="349.9102" y2="349.9102"/><text fill="#000000" font-family="sans-serif" font-size="13" font-weight="bold" lengthAdjust="spacing" textLength="7" x="400" y="344.6475">6</text><text fill="#000000" font-family="sans-serif" font-size="13" lengthAdjust="spacing" textLength="44" x="411" y="344.6475">skillList</text><polygon fill="#181818" points="54,394.4922,44,398.4922,54,402.4922,50,398.4922" style="stroke:#181818;stroke-width:1.0;"/><line style="stroke:#181818;stroke-width:1.0;stroke-dasharray:2.0,2.0;" x1="48" x2="377" y1="398.4922" y2="398.4922"/><text fill="#000000" font-family="sans-serif" font-size="13" font-weight="bold" lengthAdjust="spacing" textLength="7" x="60" y="384.584">7</text><text fill="#000000" font-family="sans-serif" font-size="13" lengthAdjust="spacing" textLength="85" x="71" y="375.9385">shows skillList</text><text fill="#000000" font-family="sans-serif" font-size="13" lengthAdjust="spacing" textLength="189" x="75" y="393.2295">and asks to introduce the skill(s)</text><path d="M10,413.4922 L83,413.4922 L83,422.7832 L73,432.7832 L10,432.7832 L10,413.4922 " fill="#EEEEEE" style="stroke:#000000;stroke-width:1.5;"/><rect fill="none" height="99.1641" style="stroke:#000000;stroke-width:1.5;" width="441" x="10" y="413.4922"/><text fill="#000000" font-family="sans-serif" font-size="13" font-weight="bold" lengthAdjust="spacing" textLength="28" x="25" y="428.5205">loop</text><text fill="#000000" font-family="sans-serif" font-size="11" font-weight="bold" lengthAdjust="spacing" textLength="104" x="98" y="427.3623">[While adding skill]</text><polygon fill="#181818" points="361,452.0742,371,456.0742,361,460.0742,365,456.0742" style="stroke:#181818;stroke-width:1.0;"/><line style="stroke:#181818;stroke-width:1.0;" x1="43" x2="367" y1="456.0742" y2="456.0742"/><text fill="#000000" font-family="sans-serif" font-size="13" font-weight="bold" lengthAdjust="spacing" textLength="7" x="50" y="450.8115">8</text><text fill="#000000" font-family="sans-serif" font-size="13" lengthAdjust="spacing" textLength="84" x="61" y="450.8115">select the skill</text><polygon fill="#181818" points="54,500.6563,44,504.6563,54,508.6563,50,504.6563" style="stroke:#181818;stroke-width:1.0;"/><line style="stroke:#181818;stroke-width:1.0;stroke-dasharray:2.0,2.0;" x1="48" x2="377" y1="504.6563" y2="504.6563"/><text fill="#000000" font-family="sans-serif" font-size="13" font-weight="bold" lengthAdjust="spacing" textLength="7" x="60" y="490.748">9</text><text fill="#000000" font-family="sans-serif" font-size="13" lengthAdjust="spacing" textLength="144" x="71" y="482.1025">shows skillSet and ask if</text><text fill="#000000" font-family="sans-serif" font-size="13" lengthAdjust="spacing" textLength="223" x="75" y="499.3936">want to introduce more or request data</text><polygon fill="#181818" points="361,538.9473,371,542.9473,361,546.9473,365,542.9473" style="stroke:#181818;stroke-width:1.0;"/><line style="stroke:#181818;stroke-width:1.0;" x1="43" x2="367" y1="542.9473" y2="542.9473"/><text fill="#000000" font-family="sans-serif" font-size="13" font-weight="bold" lengthAdjust="spacing" textLength="14" x="50" y="537.6846">10</text><text fill="#000000" font-family="sans-serif" font-size="13" lengthAdjust="spacing" textLength="75" x="68" y="537.6846">submits data</text><polygon fill="#181818" points="711,570.2383,721,574.2383,711,578.2383,715,574.2383" style="stroke:#181818;stroke-width:1.0;"/><line style="stroke:#181818;stroke-width:1.0;" x1="383" x2="717" y1="574.2383" y2="574.2383"/><text fill="#000000" font-family="sans-serif" font-size="13" font-weight="bold" lengthAdjust="spacing" textLength="14" x="390" y="568.9756">11</text><text fill="#000000" font-family="sans-serif" font-size="13" lengthAdjust="spacing" textLength="303" x="408" y="568.9756">generateTeam(maxSizeTeam,minSizeTeam,skillSet)</text><rect fill="none" height="75.1738" style="stroke:#000000;stroke-width:1.5;" width="182" x="637" y="582.2383"/><path d="M637,582.2383 L699,582.2383 L699,591.2383 L689,601.2383 L637,601.2383 L637,582.2383 " fill="#EEEEEE" style="stroke:#000000;stroke-width:2.0;"/><text fill="#000000" font-family="sans-serif" font-size="13" font-weight="bold" lengthAdjust="spacing" textLength="17" x="650" y="598.2666">ref</text><text fill="#000000" font-family="sans-serif" font-size="12" lengthAdjust="spacing" textLength="3" x="726.5" y="618.1875">&#160;</text><text fill="#000000" font-family="sans-serif" font-size="12" lengthAdjust="spacing" textLength="86" x="685" y="634.1484">Generate Team</text><text fill="#000000" font-family="sans-serif" font-size="12" lengthAdjust="spacing" textLength="3" x="726.5" y="650.1094">&#160;</text><polygon fill="#181818" points="394,681.7031,384,685.7031,394,689.7031,390,685.7031" style="stroke:#181818;stroke-width:1.0;"/><line style="stroke:#181818;stroke-width:1.0;stroke-dasharray:2.0,2.0;" x1="388" x2="727" y1="685.7031" y2="685.7031"/><text fill="#000000" font-family="sans-serif" font-size="13" font-weight="bold" lengthAdjust="spacing" textLength="14" x="400" y="680.4404">12</text><text fill="#000000" font-family="sans-serif" font-size="13" lengthAdjust="spacing" textLength="195" x="418" y="680.4404">team / collaboratorNotActivateList</text><polygon fill="#181818" points="54,712.9941,44,716.9941,54,720.9941,50,716.9941" style="stroke:#181818;stroke-width:1.0;"/><line style="stroke:#181818;stroke-width:1.0;stroke-dasharray:2.0,2.0;" x1="48" x2="377" y1="716.9941" y2="716.9941"/><text fill="#000000" font-family="sans-serif" font-size="13" font-weight="bold" lengthAdjust="spacing" textLength="14" x="60" y="711.7314">13</text><text fill="#000000" font-family="sans-serif" font-size="13" lengthAdjust="spacing" textLength="220" x="78" y="711.7314">show team and confirm or modify data</text><polygon fill="#181818" points="361,744.2852,371,748.2852,361,752.2852,365,748.2852" style="stroke:#181818;stroke-width:1.0;"/><line style="stroke:#181818;stroke-width:1.0;" x1="43" x2="367" y1="748.2852" y2="748.2852"/><text fill="#000000" font-family="sans-serif" font-size="13" font-weight="bold" lengthAdjust="spacing" textLength="14" x="50" y="743.0225">14</text><text fill="#000000" font-family="sans-serif" font-size="13" lengthAdjust="spacing" textLength="78" x="68" y="743.0225">confirms data</text><polygon fill="#181818" points="711,775.5762,721,779.5762,711,783.5762,715,779.5762" style="stroke:#181818;stroke-width:1.0;"/><line style="stroke:#181818;stroke-width:1.0;" x1="383" x2="717" y1="779.5762" y2="779.5762"/><text fill="#000000" font-family="sans-serif" font-size="13" font-weight="bold" lengthAdjust="spacing" textLength="14" x="390" y="774.3135">15</text><text fill="#000000" font-family="sans-serif" font-size="13" lengthAdjust="spacing" textLength="95" x="408" y="774.3135">saveTeam(team)</text><polygon fill="#181818" points="1198,806.8672,1208,810.8672,1198,814.8672,1202,810.8672" style="stroke:#181818;stroke-width:1.0;"/><line style="stroke:#181818;stroke-width:1.0;" x1="733" x2="1204" y1="810.8672" y2="810.8672"/><text fill="#000000" font-family="sans-serif" font-size="13" font-weight="bold" lengthAdjust="spacing" textLength="14" x="740" y="805.6045">16</text><text fill="#000000" font-family="sans-serif" font-size="13" lengthAdjust="spacing" textLength="95" x="758" y="805.6045">saveTeam(team)</text><line style="stroke:#181818;stroke-width:1.0;" x1="1220" x2="1262" y1="847.1582" y2="847.1582"/><line style="stroke:#181818;stroke-width:1.0;" x1="1262" x2="1262" y1="847.1582" y2="860.1582"/><line style="stroke:#181818;stroke-width:1.0;" x1="1215" x2="1262" y1="860.1582" y2="860.1582"/><polygon fill="#181818" points="1225,856.1582,1215,860.1582,1225,864.1582,1221,860.1582" style="stroke:#181818;stroke-width:1.0;"/><text fill="#000000" font-family="sans-serif" font-size="13" font-weight="bold" lengthAdjust="spacing" textLength="14" x="1227" y="841.8955">17</text><text fill="#000000" font-family="sans-serif" font-size="13" lengthAdjust="spacing" textLength="95" x="1245" y="841.8955">saveTeam(team)</text><polygon fill="#181818" points="744,882.4492,734,886.4492,744,890.4492,740,886.4492" style="stroke:#181818;stroke-width:1.0;"/><line style="stroke:#181818;stroke-width:1.0;stroke-dasharray:2.0,2.0;" x1="738" x2="1209" y1="886.4492" y2="886.4492"/><text fill="#000000" font-family="sans-serif" font-size="13" font-weight="bold" lengthAdjust="spacing" textLength="14" x="750" y="881.1865">18</text><text fill="#000000" font-family="sans-serif" font-size="13" lengthAdjust="spacing" textLength="22" x="768" y="881.1865">true</text><polygon fill="#181818" points="394,913.7402,384,917.7402,394,921.7402,390,917.7402" style="stroke:#181818;stroke-width:1.0;"/><line style="stroke:#181818;stroke-width:1.0;stroke-dasharray:2.0,2.0;" x1="388" x2="727" y1="917.7402" y2="917.7402"/><text fill="#000000" font-family="sans-serif" font-size="13" font-weight="bold" lengthAdjust="spacing" textLength="14" x="400" y="912.4775">19</text><text fill="#000000" font-family="sans-serif" font-size="13" lengthAdjust="spacing" textLength="22" x="418" y="912.4775">true</text><polygon fill="#181818" points="49,945.0313,39,949.0313,49,953.0313,45,949.0313" style="stroke:#181818;stroke-width:1.0;"/><line style="stroke:#181818;stroke-width:1.0;stroke-dasharray:2.0,2.0;" x1="43" x2="377" y1="949.0313" y2="949.0313"/><text fill="#000000" font-family="sans-serif" font-size="13" font-weight="bold" lengthAdjust="spacing" textLength="14" x="55" y="943.7686">20</text><text fill="#000000" font-family="sans-serif" font-size="13" lengthAdjust="spacing" textLength="106" x="73" y="943.7686">success operation</text><!--SRC=[XLLDJ-Cm4BtxLuouK53Htdj0GXm0YLrMBMWlN5ndqbWadgpj0ENNxzXfFjoaR2wjdNdZvpTl9kvDcrfQMK55XbHXgKBmja7X-ZUrL6zoXnk_Bn4iAY_DhXm7k49czA7D3d9PEXH2DfvCKstH2d5Uw0mX9_9R-XHIUR9mTh_-UGRI0VyApk6rqhKq7ivMTsZGIe_FAAkNXnZqyl1Dp2qPRwaiqSROs-Vrur7q6cjoce_Lw69Clx7Vw70Jvff2x0ZnQgO9VZ_UFAS8rg8iXxmCsgGx4NUqbwOWkvD6VqcloJ3-QRICuAVrdH11F_tELu_A2JWyl82hQnOALXpwvi0Jx0uYWOIW4uIQL9nEoRBS3z0-8Qiipc5uEDaLvmofLrprlmqwxo2JNiB2OeuMZS8bPEYKrNMWkGJG9YTRoH9UJVh6eofCE3lTpXehst-AdByGe_FXN5aCn699uOZPTTo-l6HkRPWGavXvzdrOXidTvxJq-nfT1ySiuXUL_DpehsY-9LJQT8kBUKqFn0RId7U7FdhXKJk_I6-TuEFL-zUiEj0xsgaYT-XRSq78E23GP07LRiIphxghkUvySQH5U-P0kbVH5VJX1XnNM7Bwpcuwj67MA9uU1RPH2tSXfaA7dPAeXZ-5vdaYiomCZWWGn_exB7dS31d5HDtPUe-ORbYP0qtGUR3bH-YsX7155e6dqg7EWqkcn5dGASbcM-cnkKuI7DL_6629dqPsMdRyPtpLrKWSMoUroCHOhLSESo4SCWdf7PE-6Nc7koACan_SiMKfjyIvoFuYVtCWrtjgfizcMpafMviyL4oHoRMjGc4godI-FrKNaLParI5FLMJQZaw-jwNmVHlFj62hmNKOnF_1X54zkn6WtsKONIoE-nupS8tVvbEnQOlFXGxNIQLlb4BdW6fi1_AipgDr-Fpy0m00]--></g></svg>