<?xml version="1.0" encoding="us-ascii" standalone="no"?><svg xmlns="http://www.w3.org/2000/svg" xmlns:xlink="http://www.w3.org/1999/xlink" contentStyleType="text/css" height="591px" preserveAspectRatio="none" style="width:459px;height:591px;background:#FFFFFF;" version="1.1" viewBox="0 0 459 591" width="459px" zoomAndPan="magnify"><defs/><g><text fill="#000000" font-family="sans-serif" font-size="14" font-weight="bold" lengthAdjust="spacing" textLength="350" x="56" y="30.1074">System Sequence Diagram (SSD) - Alternative Two</text><rect fill="#FFFFFF" height="366.4922" style="stroke:#181818;stroke-width:1.0;" width="10" x="33" y="133.2422"/><rect fill="#FFFFFF" height="31.291" style="stroke:#181818;stroke-width:1.0;" width="10" x="406" y="156.5332"/><rect fill="#FFFFFF" height="113.1641" style="stroke:#181818;stroke-width:1.0;" width="10" x="406" y="219.1152"/><rect fill="#FFFFFF" height="31.291" style="stroke:#181818;stroke-width:1.0;" width="10" x="406" y="389.8613"/><rect fill="#FFFFFF" height="31.291" style="stroke:#181818;stroke-width:1.0;" width="10" x="406" y="459.4434"/><rect fill="none" height="67.873" style="stroke:#000000;stroke-width:1.5;" width="443" x="10" y="234.1152"/><rect fill="none" height="81.873" style="stroke:#000000;stroke-width:1.5;" width="443" x="10" y="347.2793"/><line style="stroke:#181818;stroke-width:0.5;stroke-dasharray:5.0,5.0;" x1="38" x2="38" y1="123.2422" y2="508.7344"/><line style="stroke:#181818;stroke-width:0.5;stroke-dasharray:5.0,5.0;" x1="411" x2="411" y1="123.2422" y2="508.7344"/><text fill="#000000" font-family="sans-serif" font-size="14" lengthAdjust="spacing" textLength="30" x="20" y="119.7285">HRM</text><ellipse cx="38" cy="53.1211" fill="#E3E3E3" rx="8" ry="8" style="stroke:#181818;stroke-width:0.5;"/><path d="M38,61.1211 L38,88.1211 M25,69.1211 L51,69.1211 M38,88.1211 L25,103.1211 M38,88.1211 L51,103.1211 " fill="none" style="stroke:#181818;stroke-width:0.5;"/><text fill="#000000" font-family="sans-serif" font-size="14" lengthAdjust="spacing" textLength="30" x="20" y="522.8418">HRM</text><ellipse cx="38" cy="534.8555" fill="#E3E3E3" rx="8" ry="8" style="stroke:#181818;stroke-width:0.5;"/><path d="M38,542.8555 L38,569.8555 M25,550.8555 L51,550.8555 M38,569.8555 L25,584.8555 M38,569.8555 L51,584.8555 " fill="none" style="stroke:#181818;stroke-width:0.5;"/><rect fill="#E3E3E3" height="32.6211" rx="2.5" ry="2.5" style="stroke:#181818;stroke-width:0.5;" width="64" x="379" y="89.6211"/><text fill="#000000" font-family="sans-serif" font-size="14" lengthAdjust="spacing" textLength="50" x="386" y="111.7285">:System</text><rect fill="#E3E3E3" height="32.6211" rx="2.5" ry="2.5" style="stroke:#181818;stroke-width:0.5;" width="64" x="379" y="507.7344"/><text fill="#000000" font-family="sans-serif" font-size="14" lengthAdjust="spacing" textLength="50" x="386" y="529.8418">:System</text><rect fill="#FFFFFF" height="366.4922" style="stroke:#181818;stroke-width:1.0;" width="10" x="33" y="133.2422"/><rect fill="#FFFFFF" height="31.291" style="stroke:#181818;stroke-width:1.0;" width="10" x="406" y="156.5332"/><rect fill="#FFFFFF" height="113.1641" style="stroke:#181818;stroke-width:1.0;" width="10" x="406" y="219.1152"/><rect fill="#FFFFFF" height="31.291" style="stroke:#181818;stroke-width:1.0;" width="10" x="406" y="389.8613"/><rect fill="#FFFFFF" height="31.291" style="stroke:#181818;stroke-width:1.0;" width="10" x="406" y="459.4434"/><polygon fill="#181818" points="394,152.5332,404,156.5332,394,160.5332,398,156.5332" style="stroke:#181818;stroke-width:1.0;"/><line style="stroke:#181818;stroke-width:1.0;" x1="43" x2="400" y1="156.5332" y2="156.5332"/><text fill="#000000" font-family="sans-serif" font-size="13" font-weight="bold" lengthAdjust="spacing" textLength="7" x="50" y="151.2705">1</text><text fill="#000000" font-family="sans-serif" font-size="13" lengthAdjust="spacing" textLength="171" x="61" y="151.2705">asks to generate a new Team</text><polygon fill="#181818" points="54,183.8242,44,187.8242,54,191.8242,50,187.8242" style="stroke:#181818;stroke-width:1.0;"/><line style="stroke:#181818;stroke-width:1.0;stroke-dasharray:2.0,2.0;" x1="48" x2="410" y1="187.8242" y2="187.8242"/><text fill="#000000" font-family="sans-serif" font-size="13" font-weight="bold" lengthAdjust="spacing" textLength="7" x="60" y="182.5615">2</text><text fill="#000000" font-family="sans-serif" font-size="13" lengthAdjust="spacing" textLength="254" x="71" y="182.5615">show skills list/requests data (i.e. skills set)</text><polygon fill="#181818" points="394,215.1152,404,219.1152,394,223.1152,398,219.1152" style="stroke:#181818;stroke-width:1.0;"/><line style="stroke:#181818;stroke-width:1.0;" x1="43" x2="400" y1="219.1152" y2="219.1152"/><text fill="#000000" font-family="sans-serif" font-size="13" font-weight="bold" lengthAdjust="spacing" textLength="7" x="50" y="213.8525">3</text><text fill="#000000" font-family="sans-serif" font-size="13" lengthAdjust="spacing" textLength="122" x="61" y="213.8525">types requested data</text><path d="M10,234.1152 L71,234.1152 L71,243.4063 L61,253.4063 L10,253.4063 L10,234.1152 " fill="#EEEEEE" style="stroke:#000000;stroke-width:1.5;"/><rect fill="none" height="67.873" style="stroke:#000000;stroke-width:1.5;" width="443" x="10" y="234.1152"/><text fill="#000000" font-family="sans-serif" font-size="13" font-weight="bold" lengthAdjust="spacing" textLength="16" x="25" y="249.1436">alt</text><text fill="#000000" font-family="sans-serif" font-size="11" font-weight="bold" lengthAdjust="spacing" textLength="84" x="86" y="247.9854">[Minimum &gt;= 1]</text><polygon fill="#181818" points="54,289.9883,44,293.9883,54,297.9883,50,293.9883" style="stroke:#181818;stroke-width:1.0;"/><line style="stroke:#181818;stroke-width:1.0;stroke-dasharray:2.0,2.0;" x1="48" x2="405" y1="293.9883" y2="293.9883"/><text fill="#000000" font-family="sans-serif" font-size="13" font-weight="bold" lengthAdjust="spacing" textLength="7" x="60" y="280.0801">4</text><text fill="#000000" font-family="sans-serif" font-size="13" lengthAdjust="spacing" textLength="181" x="71" y="271.4346">requests data ( max team size,</text><text fill="#000000" font-family="sans-serif" font-size="13" lengthAdjust="spacing" textLength="90" x="75" y="288.7256">min team size )</text><polygon fill="#181818" points="54,328.2793,44,332.2793,54,336.2793,50,332.2793" style="stroke:#181818;stroke-width:1.0;"/><line style="stroke:#181818;stroke-width:1.0;stroke-dasharray:2.0,2.0;" x1="48" x2="410" y1="332.2793" y2="332.2793"/><text fill="#000000" font-family="sans-serif" font-size="13" font-weight="bold" lengthAdjust="spacing" textLength="7" x="60" y="327.0166">5</text><text fill="#000000" font-family="sans-serif" font-size="13" lengthAdjust="spacing" textLength="324" x="71" y="327.0166">shows all data and requests confirmation or modification</text><path d="M10,347.2793 L75,347.2793 L75,356.5703 L65,366.5703 L10,366.5703 L10,347.2793 " fill="#EEEEEE" style="stroke:#000000;stroke-width:1.5;"/><rect fill="none" height="81.873" style="stroke:#000000;stroke-width:1.5;" width="443" x="10" y="347.2793"/><text fill="#000000" font-family="sans-serif" font-size="13" font-weight="bold" lengthAdjust="spacing" textLength="20" x="25" y="362.3076">opt</text><text fill="#000000" font-family="sans-serif" font-size="11" font-weight="bold" lengthAdjust="spacing" textLength="108" x="90" y="361.1494">[optional for "HRM"]</text><polygon fill="#181818" points="394,385.8613,404,389.8613,394,393.8613,398,389.8613" style="stroke:#181818;stroke-width:1.0;"/><line style="stroke:#181818;stroke-width:1.0;" x1="43" x2="400" y1="389.8613" y2="389.8613"/><text fill="#000000" font-family="sans-serif" font-size="13" font-weight="bold" lengthAdjust="spacing" textLength="7" x="50" y="384.5986">6</text><text fill="#000000" font-family="sans-serif" font-size="13" lengthAdjust="spacing" textLength="67" x="61" y="384.5986">modify data</text><polygon fill="#181818" points="54,417.1523,44,421.1523,54,425.1523,50,421.1523" style="stroke:#181818;stroke-width:1.0;"/><line style="stroke:#181818;stroke-width:1.0;stroke-dasharray:2.0,2.0;" x1="48" x2="410" y1="421.1523" y2="421.1523"/><text fill="#000000" font-family="sans-serif" font-size="13" font-weight="bold" lengthAdjust="spacing" textLength="7" x="60" y="415.8896">7</text><text fill="#000000" font-family="sans-serif" font-size="13" lengthAdjust="spacing" textLength="328" x="71" y="415.8896">shows all data and requests confirmation or modification.</text><polygon fill="#181818" points="394,455.4434,404,459.4434,394,463.4434,398,459.4434" style="stroke:#181818;stroke-width:1.0;"/><line style="stroke:#181818;stroke-width:1.0;" x1="43" x2="400" y1="459.4434" y2="459.4434"/><text fill="#000000" font-family="sans-serif" font-size="13" font-weight="bold" lengthAdjust="spacing" textLength="7" x="50" y="454.1807">8</text><text fill="#000000" font-family="sans-serif" font-size="13" lengthAdjust="spacing" textLength="93" x="61" y="454.1807">confirm the data</text><polygon fill="#181818" points="54,486.7344,44,490.7344,54,494.7344,50,490.7344" style="stroke:#181818;stroke-width:1.0;"/><line style="stroke:#181818;stroke-width:1.0;stroke-dasharray:2.0,2.0;" x1="48" x2="410" y1="490.7344" y2="490.7344"/><text fill="#000000" font-family="sans-serif" font-size="13" font-weight="bold" lengthAdjust="spacing" textLength="7" x="60" y="485.4717">9</text><text fill="#000000" font-family="sans-serif" font-size="13" lengthAdjust="spacing" textLength="158" x="71" y="485.4717">displays operation success</text><!--SRC=[hP9FRzim3CNl_XGFERN0ac7N02ime8TTSfbxt8MJ6KU8H7aYtSpxz9CTEzs6fDrX0WJe3_duqwFqwAMZJ14nINA7d2B3Si-LNcuwSaTgkROXC38x8sd3xm5we2QTlBJOKr2kAlDMGkj1ZIDg_jwpECQZftOClwlhntkiyIaOPo7ppuodKwegwYr97xznBcjdAMFr-Sjk1LBiI0f2haf1yyvt98RLzbnX2ZWlfpp_JCQNZ0fbp1ki7nQgRKawAYoXPU4yPX24JtXYYbFEHMcHnZncXNKHMtItnODqGh4a14NmQk_p-6mrHKD6kFCRtYptodO_gJLyjSWrMXiwLioYt4oghs1ICEoy-DX7F7p4X-ec-5-SYFG3ncDN_Kz-zrKGlRmSu0pEqlo37remmbcNf7cfv9BiVOwbyqbGkXnJu_VUJVlNV4cTZRD4KS1- -HutBPjaXpUS-g_mcnlqVrXs3NKMXHtuhSxUOcwyTe46BGwDttcaqzuvLhqEzGi0]--></g></svg>