<?xml version="1.0" encoding="us-ascii" standalone="no"?><svg xmlns="http://www.w3.org/2000/svg" xmlns:xlink="http://www.w3.org/1999/xlink" contentStyleType="text/css" height="651px" preserveAspectRatio="none" style="width:598px;height:651px;background:#FFFFFF;" version="1.1" viewBox="0 0 598 651" width="598px" zoomAndPan="magnify"><defs/><g><text fill="#000000" font-family="sans-serif" font-size="14" font-weight="bold" lengthAdjust="spacing" textLength="350" x="125.5" y="30.1074">System Sequence Diagram (SSD) - Alternative Two</text><rect fill="#FFFFFF" height="426.0742" style="stroke:#181818;stroke-width:1.0;" width="10" x="18" y="133.2422"/><rect fill="#FFFFFF" height="31.291" style="stroke:#181818;stroke-width:1.0;" width="10" x="432" y="156.5332"/><rect fill="#FFFFFF" height="31.291" style="stroke:#181818;stroke-width:1.0;" width="10" x="432" y="219.1152"/><rect fill="#FFFFFF" height="65.873" style="stroke:#181818;stroke-width:1.0;" width="10" x="432" y="281.6973"/><rect fill="#FFFFFF" height="108.873" style="stroke:#181818;stroke-width:1.0;" width="10" x="432" y="378.8613"/><rect fill="#FFFFFF" height="31.291" style="stroke:#181818;stroke-width:1.0;" width="10" x="432" y="519.0254"/><rect fill="none" height="63.582" style="stroke:#000000;stroke-width:1.5;" width="197" x="395" y="393.8613"/><line style="stroke:#181818;stroke-width:0.5;stroke-dasharray:5.0,5.0;" x1="23" x2="23" y1="123.2422" y2="568.3164"/><line style="stroke:#181818;stroke-width:0.5;stroke-dasharray:5.0,5.0;" x1="437" x2="437" y1="123.2422" y2="568.3164"/><text fill="#000000" font-family="sans-serif" font-size="14" lengthAdjust="spacing" textLength="30" x="5" y="119.7285">HRM</text><ellipse cx="23" cy="53.1211" fill="#E3E3E3" rx="8" ry="8" style="stroke:#181818;stroke-width:0.5;"/><path d="M23,61.1211 L23,88.1211 M10,69.1211 L36,69.1211 M23,88.1211 L10,103.1211 M23,88.1211 L36,103.1211 " fill="none" style="stroke:#181818;stroke-width:0.5;"/><text fill="#000000" font-family="sans-serif" font-size="14" lengthAdjust="spacing" textLength="30" x="5" y="582.4238">HRM</text><ellipse cx="23" cy="594.4375" fill="#E3E3E3" rx="8" ry="8" style="stroke:#181818;stroke-width:0.5;"/><path d="M23,602.4375 L23,629.4375 M10,610.4375 L36,610.4375 M23,629.4375 L10,644.4375 M23,629.4375 L36,644.4375 " fill="none" style="stroke:#181818;stroke-width:0.5;"/><rect fill="#E3E3E3" height="32.6211" rx="2.5" ry="2.5" style="stroke:#181818;stroke-width:0.5;" width="64" x="405" y="89.6211"/><text fill="#000000" font-family="sans-serif" font-size="14" lengthAdjust="spacing" textLength="50" x="412" y="111.7285">:System</text><rect fill="#E3E3E3" height="32.6211" rx="2.5" ry="2.5" style="stroke:#181818;stroke-width:0.5;" width="64" x="405" y="567.3164"/><text fill="#000000" font-family="sans-serif" font-size="14" lengthAdjust="spacing" textLength="50" x="412" y="589.4238">:System</text><rect fill="#FFFFFF" height="426.0742" style="stroke:#181818;stroke-width:1.0;" width="10" x="18" y="133.2422"/><rect fill="#FFFFFF" height="31.291" style="stroke:#181818;stroke-width:1.0;" width="10" x="432" y="156.5332"/><rect fill="#FFFFFF" height="31.291" style="stroke:#181818;stroke-width:1.0;" width="10" x="432" y="219.1152"/><rect fill="#FFFFFF" height="65.873" style="stroke:#181818;stroke-width:1.0;" width="10" x="432" y="281.6973"/><rect fill="#FFFFFF" height="108.873" style="stroke:#181818;stroke-width:1.0;" width="10" x="432" y="378.8613"/><rect fill="#FFFFFF" height="31.291" style="stroke:#181818;stroke-width:1.0;" width="10" x="432" y="519.0254"/><polygon fill="#181818" points="420,152.5332,430,156.5332,420,160.5332,424,156.5332" style="stroke:#181818;stroke-width:1.0;"/><line style="stroke:#181818;stroke-width:1.0;" x1="28" x2="426" y1="156.5332" y2="156.5332"/><text fill="#000000" font-family="sans-serif" font-size="13" font-weight="bold" lengthAdjust="spacing" textLength="7" x="35" y="151.2705">1</text><text fill="#000000" font-family="sans-serif" font-size="13" lengthAdjust="spacing" textLength="199" x="46" y="151.2705">asks to register a new collaborator</text><polygon fill="#181818" points="39,183.8242,29,187.8242,39,191.8242,35,187.8242" style="stroke:#181818;stroke-width:1.0;"/><line style="stroke:#181818;stroke-width:1.0;stroke-dasharray:2.0,2.0;" x1="33" x2="436" y1="187.8242" y2="187.8242"/><text fill="#000000" font-family="sans-serif" font-size="13" font-weight="bold" lengthAdjust="spacing" textLength="7" x="45" y="182.5615">2</text><text fill="#000000" font-family="sans-serif" font-size="13" lengthAdjust="spacing" textLength="269" x="56" y="182.5615">shows job category list and asks to select one</text><polygon fill="#181818" points="420,215.1152,430,219.1152,420,223.1152,424,219.1152" style="stroke:#181818;stroke-width:1.0;"/><line style="stroke:#181818;stroke-width:1.0;" x1="28" x2="426" y1="219.1152" y2="219.1152"/><text fill="#000000" font-family="sans-serif" font-size="13" font-weight="bold" lengthAdjust="spacing" textLength="7" x="35" y="213.8525">3</text><text fill="#000000" font-family="sans-serif" font-size="13" lengthAdjust="spacing" textLength="128" x="46" y="213.8525">selects a job category</text><polygon fill="#181818" points="39,246.4063,29,250.4063,39,254.4063,35,250.4063" style="stroke:#181818;stroke-width:1.0;"/><line style="stroke:#181818;stroke-width:1.0;stroke-dasharray:2.0,2.0;" x1="33" x2="436" y1="250.4063" y2="250.4063"/><text fill="#000000" font-family="sans-serif" font-size="13" font-weight="bold" lengthAdjust="spacing" textLength="7" x="45" y="245.1436">4</text><text fill="#000000" font-family="sans-serif" font-size="13" lengthAdjust="spacing" textLength="247" x="56" y="245.1436">shows docType list and asks to select one</text><polygon fill="#181818" points="420,277.6973,430,281.6973,420,285.6973,424,281.6973" style="stroke:#181818;stroke-width:1.0;"/><line style="stroke:#181818;stroke-width:1.0;" x1="28" x2="426" y1="281.6973" y2="281.6973"/><text fill="#000000" font-family="sans-serif" font-size="13" font-weight="bold" lengthAdjust="spacing" textLength="7" x="35" y="276.4346">5</text><text fill="#000000" font-family="sans-serif" font-size="13" lengthAdjust="spacing" textLength="106" x="46" y="276.4346">selects a docType</text><polygon fill="#181818" points="39,343.5703,29,347.5703,39,351.5703,35,347.5703" style="stroke:#181818;stroke-width:1.0;"/><line style="stroke:#181818;stroke-width:1.0;stroke-dasharray:2.0,2.0;" x1="33" x2="436" y1="347.5703" y2="347.5703"/><text fill="#000000" font-family="sans-serif" font-size="13" font-weight="bold" lengthAdjust="spacing" textLength="7" x="45" y="325.0166">6</text><text fill="#000000" font-family="sans-serif" font-size="13" lengthAdjust="spacing" textLength="338" x="56" y="307.7256">requests data (i.e. name, date of birthday, admission data,</text><text fill="#000000" font-family="sans-serif" font-size="13" lengthAdjust="spacing" textLength="337" x="60" y="325.0166">address, email, phone number,docType,(taxpayer number/</text><text fill="#000000" font-family="sans-serif" font-size="13" lengthAdjust="spacing" textLength="239" x="56" y="342.3076">citizen card number/passport number),...)</text><polygon fill="#181818" points="420,374.8613,430,378.8613,420,382.8613,424,378.8613" style="stroke:#181818;stroke-width:1.0;"/><line style="stroke:#181818;stroke-width:1.0;" x1="28" x2="426" y1="378.8613" y2="378.8613"/><text fill="#000000" font-family="sans-serif" font-size="13" font-weight="bold" lengthAdjust="spacing" textLength="7" x="35" y="373.5986">7</text><text fill="#000000" font-family="sans-serif" font-size="13" lengthAdjust="spacing" textLength="122" x="46" y="373.5986">types requested data</text><path d="M395,393.8613 L456,393.8613 L456,403.1523 L446,413.1523 L395,413.1523 L395,393.8613 " fill="#EEEEEE" style="stroke:#000000;stroke-width:1.5;"/><rect fill="none" height="63.582" style="stroke:#000000;stroke-width:1.5;" width="197" x="395" y="393.8613"/><text fill="#000000" font-family="sans-serif" font-size="13" font-weight="bold" lengthAdjust="spacing" textLength="16" x="410" y="408.8896">alt</text><text fill="#000000" font-family="sans-serif" font-size="11" font-weight="bold" lengthAdjust="spacing" textLength="116" x="471" y="407.7314">[System Verification]</text><line style="stroke:#181818;stroke-width:1.0;stroke-dasharray:2.0,2.0;" x1="442" x2="484" y1="436.4434" y2="436.4434"/><line style="stroke:#181818;stroke-width:1.0;stroke-dasharray:2.0,2.0;" x1="484" x2="484" y1="436.4434" y2="449.4434"/><line style="stroke:#181818;stroke-width:1.0;stroke-dasharray:2.0,2.0;" x1="443" x2="484" y1="449.4434" y2="449.4434"/><polygon fill="#181818" points="453,445.4434,443,449.4434,453,453.4434,449,449.4434" style="stroke:#181818;stroke-width:1.0;"/><text fill="#000000" font-family="sans-serif" font-size="13" font-weight="bold" lengthAdjust="spacing" textLength="7" x="449" y="431.1807">8</text><text fill="#000000" font-family="sans-serif" font-size="13" lengthAdjust="spacing" textLength="58" x="460" y="431.1807">verify data</text><polygon fill="#181818" points="39,483.7344,29,487.7344,39,491.7344,35,487.7344" style="stroke:#181818;stroke-width:1.0;"/><line style="stroke:#181818;stroke-width:1.0;stroke-dasharray:2.0,2.0;" x1="33" x2="436" y1="487.7344" y2="487.7344"/><text fill="#000000" font-family="sans-serif" font-size="13" font-weight="bold" lengthAdjust="spacing" textLength="7" x="45" y="482.4717">9</text><text fill="#000000" font-family="sans-serif" font-size="13" lengthAdjust="spacing" textLength="236" x="56" y="482.4717">shows all data and requests confirmation</text><polygon fill="#181818" points="420,515.0254,430,519.0254,420,523.0254,424,519.0254" style="stroke:#181818;stroke-width:1.0;"/><line style="stroke:#181818;stroke-width:1.0;" x1="28" x2="426" y1="519.0254" y2="519.0254"/><text fill="#000000" font-family="sans-serif" font-size="13" font-weight="bold" lengthAdjust="spacing" textLength="14" x="35" y="513.7627">10</text><text fill="#000000" font-family="sans-serif" font-size="13" lengthAdjust="spacing" textLength="78" x="53" y="513.7627">confirms data</text><polygon fill="#181818" points="39,546.3164,29,550.3164,39,554.3164,35,550.3164" style="stroke:#181818;stroke-width:1.0;"/><line style="stroke:#181818;stroke-width:1.0;stroke-dasharray:2.0,2.0;" x1="33" x2="436" y1="550.3164" y2="550.3164"/><text fill="#000000" font-family="sans-serif" font-size="13" font-weight="bold" lengthAdjust="spacing" textLength="14" x="45" y="545.0537">11</text><text fill="#000000" font-family="sans-serif" font-size="13" lengthAdjust="spacing" textLength="362" x="63" y="545.0537">displays operation success / show list of existing collaborators</text><!--SRC=[bLGzZzim3DtzAuXC2U3uzWm52jpGvPRpeTCjZCGuQcJ95Udat5zV-lE28iqXdcIAVE_naJQVN6WmOGrr3D4SKwm99BMKyNBJe3bXHQLqdY2H4GoLlqxW8zfuSQ620tgcB1CdcbfsB5H3IRzR2eRWsM7Lfw_Byda3M_ZkXL90SMU2jqlCCcmbXhRUKzApaPXWzUFrPGN8y8919QHC2SKPrs0GMEr6XY5XF0vrxen2IqK6-amliFqsgzffqOb1edPKEGqbG0Xq0HEzntrCgFn3xO8uKy3qJ4XR1PtnT-f5l33yYdimMbF5r85NUC1W5qOchov233HWMRf9SKlpMCagzPhXZimx6cqqRrr3Nygx8_5hcHF9alsOcQbV7LOWYuAmTWKL4B2cl0yGn0FiNPAZnIu7jBLZTZ4CoVbxq8XDn9m3rUXy3irHMu9nmV99MBuM_6YmKxhnukaz62Vk3mMrDzavsY1p4vDCxvkyA8hDezCJ9UIvARA3q9kp6s9UvigVbDp1wRIrk-mVinRmSv_KVM9Ii7VD7PS0lH_DxHTWiTl4S72f_YHyeCcfbl_VtVsPMyUDnuuXDfG61S2jCJf8U1esTrnOdJrzwA7_wrn_idnRxry0]--></g></svg>