<?xml version="1.0" encoding="us-ascii" standalone="no"?><svg xmlns="http://www.w3.org/2000/svg" xmlns:xlink="http://www.w3.org/1999/xlink" contentStyleType="text/css" height="414px" preserveAspectRatio="none" style="width:379px;height:414px;background:#FFFFFF;" version="1.1" viewBox="0 0 379 414" width="379px" zoomAndPan="magnify"><defs/><g><text fill="#000000" font-family="sans-serif" font-size="14" font-weight="bold" lengthAdjust="spacing" textLength="351" x="10" y="30.1074">System Sequence Diagram (SSD) - Alternative One</text><rect fill="#FFFFFF" height="188.7461" style="stroke:#181818;stroke-width:1.0;" width="10" x="37.25" y="133.2422"/><rect fill="#FFFFFF" height="31.291" style="stroke:#181818;stroke-width:1.0;" width="10" x="311.25" y="156.5332"/><rect fill="#FFFFFF" height="31.291" style="stroke:#181818;stroke-width:1.0;" width="10" x="311.25" y="219.1152"/><rect fill="#FFFFFF" height="31.291" style="stroke:#181818;stroke-width:1.0;" width="10" x="311.25" y="281.6973"/><line style="stroke:#181818;stroke-width:0.5;stroke-dasharray:5.0,5.0;" x1="41.75" x2="41.75" y1="123.2422" y2="330.9883"/><line style="stroke:#181818;stroke-width:0.5;stroke-dasharray:5.0,5.0;" x1="316.25" x2="316.25" y1="123.2422" y2="330.9883"/><text fill="#000000" font-family="sans-serif" font-size="14" lengthAdjust="spacing" textLength="31" x="23.75" y="119.7285">GSM</text><ellipse cx="42.25" cy="53.1211" fill="#E3E3E3" rx="8" ry="8" style="stroke:#181818;stroke-width:0.5;"/><path d="M42.25,61.1211 L42.25,88.1211 M29.25,69.1211 L55.25,69.1211 M42.25,88.1211 L29.25,103.1211 M42.25,88.1211 L55.25,103.1211 " fill="none" style="stroke:#181818;stroke-width:0.5;"/><text fill="#000000" font-family="sans-serif" font-size="14" lengthAdjust="spacing" textLength="31" x="23.75" y="345.0957">GSM</text><ellipse cx="42.25" cy="357.1094" fill="#E3E3E3" rx="8" ry="8" style="stroke:#181818;stroke-width:0.5;"/><path d="M42.25,365.1094 L42.25,392.1094 M29.25,373.1094 L55.25,373.1094 M42.25,392.1094 L29.25,407.1094 M42.25,392.1094 L55.25,407.1094 " fill="none" style="stroke:#181818;stroke-width:0.5;"/><rect fill="#E3E3E3" height="32.6211" rx="2.5" ry="2.5" style="stroke:#181818;stroke-width:0.5;" width="64" x="284.25" y="89.6211"/><text fill="#000000" font-family="sans-serif" font-size="14" lengthAdjust="spacing" textLength="50" x="291.25" y="111.7285">:System</text><rect fill="#E3E3E3" height="32.6211" rx="2.5" ry="2.5" style="stroke:#181818;stroke-width:0.5;" width="64" x="284.25" y="329.9883"/><text fill="#000000" font-family="sans-serif" font-size="14" lengthAdjust="spacing" textLength="50" x="291.25" y="352.0957">:System</text><rect fill="#FFFFFF" height="188.7461" style="stroke:#181818;stroke-width:1.0;" width="10" x="37.25" y="133.2422"/><rect fill="#FFFFFF" height="31.291" style="stroke:#181818;stroke-width:1.0;" width="10" x="311.25" y="156.5332"/><rect fill="#FFFFFF" height="31.291" style="stroke:#181818;stroke-width:1.0;" width="10" x="311.25" y="219.1152"/><rect fill="#FFFFFF" height="31.291" style="stroke:#181818;stroke-width:1.0;" width="10" x="311.25" y="281.6973"/><polygon fill="#181818" points="299.25,152.5332,309.25,156.5332,299.25,160.5332,303.25,156.5332" style="stroke:#181818;stroke-width:1.0;"/><line style="stroke:#181818;stroke-width:1.0;" x1="47.25" x2="305.25" y1="156.5332" y2="156.5332"/><text fill="#000000" font-family="sans-serif" font-size="13" font-weight="bold" lengthAdjust="spacing" textLength="7" x="54.25" y="151.2705">1</text><text fill="#000000" font-family="sans-serif" font-size="13" lengthAdjust="spacing" textLength="129" x="65.25" y="151.2705">ask to cancel an entry</text><polygon fill="#181818" points="58.25,183.8242,48.25,187.8242,58.25,191.8242,54.25,187.8242" style="stroke:#181818;stroke-width:1.0;"/><line style="stroke:#181818;stroke-width:1.0;stroke-dasharray:2.0,2.0;" x1="52.25" x2="315.25" y1="187.8242" y2="187.8242"/><text fill="#000000" font-family="sans-serif" font-size="13" font-weight="bold" lengthAdjust="spacing" textLength="7" x="64.25" y="182.5615">2</text><text fill="#000000" font-family="sans-serif" font-size="13" lengthAdjust="spacing" textLength="156" x="75.25" y="182.5615">shows the entrys to cancel</text><polygon fill="#181818" points="299.25,215.1152,309.25,219.1152,299.25,223.1152,303.25,219.1152" style="stroke:#181818;stroke-width:1.0;"/><line style="stroke:#181818;stroke-width:1.0;" x1="47.25" x2="305.25" y1="219.1152" y2="219.1152"/><text fill="#000000" font-family="sans-serif" font-size="13" font-weight="bold" lengthAdjust="spacing" textLength="7" x="54.25" y="213.8525">3</text><text fill="#000000" font-family="sans-serif" font-size="13" lengthAdjust="spacing" textLength="211" x="65.25" y="213.8525">select the entry that wants to cancel</text><polygon fill="#181818" points="58.25,246.4063,48.25,250.4063,58.25,254.4063,54.25,250.4063" style="stroke:#181818;stroke-width:1.0;"/><line style="stroke:#181818;stroke-width:1.0;stroke-dasharray:2.0,2.0;" x1="52.25" x2="315.25" y1="250.4063" y2="250.4063"/><text fill="#000000" font-family="sans-serif" font-size="13" font-weight="bold" lengthAdjust="spacing" textLength="7" x="64.25" y="245.1436">4</text><text fill="#000000" font-family="sans-serif" font-size="13" lengthAdjust="spacing" textLength="229" x="75.25" y="245.1436">request confirmation to cancel the entry</text><polygon fill="#181818" points="299.25,277.6973,309.25,281.6973,299.25,285.6973,303.25,281.6973" style="stroke:#181818;stroke-width:1.0;"/><line style="stroke:#181818;stroke-width:1.0;" x1="47.25" x2="305.25" y1="281.6973" y2="281.6973"/><text fill="#000000" font-family="sans-serif" font-size="13" font-weight="bold" lengthAdjust="spacing" textLength="7" x="54.25" y="276.4346">5</text><text fill="#000000" font-family="sans-serif" font-size="13" lengthAdjust="spacing" textLength="78" x="65.25" y="276.4346">confirms data</text><polygon fill="#181818" points="58.25,308.9883,48.25,312.9883,58.25,316.9883,54.25,312.9883" style="stroke:#181818;stroke-width:1.0;"/><line style="stroke:#181818;stroke-width:1.0;stroke-dasharray:2.0,2.0;" x1="52.25" x2="315.25" y1="312.9883" y2="312.9883"/><text fill="#000000" font-family="sans-serif" font-size="13" font-weight="bold" lengthAdjust="spacing" textLength="7" x="64.25" y="307.7256">6</text><text fill="#000000" font-family="sans-serif" font-size="13" lengthAdjust="spacing" textLength="151" x="75.25" y="307.7256">display operation success</text><!--SRC=[bP31ReCm38RlF8NLqtRW1JXCcbHffse7di0BBaG4XyMcYBUVWKAhgPFMd9pa_p__jhIUUqpOGHSvkYR5Za3JG9diFpsw5cigTGe4YPmYr-5U80rMSVHSmnc3K9QfLvEMaoXrKDBtGEm8ZXxhMVvIbiTNoE4zA2L6zHU2JpOR3XfvwBueMUqq9ZXybAS3eC09sIAap1ggTxv7LZWKQuT5i9QBprzGQND0be6TxPQ_RR4ASxMW4HnQk038GAnfMkGxPSFEZrTZRemDLzZiSHJGXbQtt8YBfwA7g4TnX8BjzeQo2XL6c_GtzF_fqhnxKN2Hppvrjkl8TpFllPxDUkK9LAZuPARAInzmWjXJMWF9u1o9_1NY1m00]--></g></svg>