<?xml version="1.0" encoding="us-ascii" standalone="no"?><svg xmlns="http://www.w3.org/2000/svg" xmlns:xlink="http://www.w3.org/1999/xlink" contentStyleType="text/css" height="436px" preserveAspectRatio="none" style="width:656px;height:436px;background:#FFFFFF;" version="1.1" viewBox="0 0 656 436" width="656px" zoomAndPan="magnify"><defs/><g><text fill="#000000" font-family="sans-serif" font-size="14" font-weight="bold" lengthAdjust="spacing" textLength="326" x="167" y="27.9951">System Sequence Diagram (SSD) - US023</text><rect fill="#FFFFFF" height="217.7344" style="stroke:#181818;stroke-width:1.0;" width="10" x="19" y="128.5938"/><rect fill="#FFFFFF" height="29.1328" style="stroke:#181818;stroke-width:1.0;" width="10" x="388" y="207.7969"/><rect fill="#FFFFFF" height="71.2656" style="stroke:#181818;stroke-width:1.0;" width="10" x="388" y="266.0625"/><line style="stroke:#181818;stroke-width:0.5;stroke-dasharray:5.0,5.0;" x1="24" x2="24" y1="118.5938" y2="355.3281"/><line style="stroke:#181818;stroke-width:0.5;stroke-dasharray:5.0,5.0;" x1="393" x2="393" y1="118.5938" y2="355.3281"/><text fill="#000000" font-family="sans-serif" font-size="14" lengthAdjust="spacing" textLength="32" x="5" y="115.292">GSM</text><ellipse cx="24" cy="50.7969" fill="#E3E3E3" rx="8" ry="8" style="stroke:#181818;stroke-width:0.5;"/><path d="M24,58.7969 L24,85.7969 M11,66.7969 L37,66.7969 M24,85.7969 L11,100.7969 M24,85.7969 L37,100.7969 " fill="none" style="stroke:#181818;stroke-width:0.5;"/><text fill="#000000" font-family="sans-serif" font-size="14" lengthAdjust="spacing" textLength="32" x="5" y="367.3232">GSM</text><ellipse cx="24" cy="379.125" fill="#E3E3E3" rx="8" ry="8" style="stroke:#181818;stroke-width:0.5;"/><path d="M24,387.125 L24,414.125 M11,395.125 L37,395.125 M24,414.125 L11,429.125 M24,414.125 L37,429.125 " fill="none" style="stroke:#181818;stroke-width:0.5;"/><rect fill="#E3E3E3" height="30.2969" rx="2.5" ry="2.5" style="stroke:#181818;stroke-width:0.5;" width="70" x="358" y="87.2969"/><text fill="#000000" font-family="sans-serif" font-size="14" lengthAdjust="spacing" textLength="56" x="365" y="107.292">:System</text><rect fill="#E3E3E3" height="30.2969" rx="2.5" ry="2.5" style="stroke:#181818;stroke-width:0.5;" width="70" x="358" y="354.3281"/><text fill="#000000" font-family="sans-serif" font-size="14" lengthAdjust="spacing" textLength="56" x="365" y="374.3232">:System</text><rect fill="#FFFFFF" height="217.7344" style="stroke:#181818;stroke-width:1.0;" width="10" x="19" y="128.5938"/><rect fill="#FFFFFF" height="29.1328" style="stroke:#181818;stroke-width:1.0;" width="10" x="388" y="207.7969"/><rect fill="#FFFFFF" height="71.2656" style="stroke:#181818;stroke-width:1.0;" width="10" x="388" y="266.0625"/><rect fill="none" height="53.0703" style="stroke:#000000;stroke-width:1.5;" width="267" x="2" y="128.5938"/><path d="M2,128.5938 L68,128.5938 L68,135.5938 L58,145.5938 L2,145.5938 L2,128.5938 " fill="#EEEEEE" style="stroke:#000000;stroke-width:2.0;"/><text fill="#000000" font-family="sans-serif" font-size="13" font-weight="bold" lengthAdjust="spacing" textLength="21" x="15" y="142.6606">ref</text><text fill="#000000" font-family="sans-serif" font-size="12" lengthAdjust="spacing" textLength="259" x="6" y="160.7324">Get the details and management options</text><text fill="#000000" font-family="sans-serif" font-size="12" lengthAdjust="spacing" textLength="215" x="30" y="174.7012">of a selected entry on the agenda</text><polygon fill="#181818" points="376,203.7969,386,207.7969,376,211.7969,380,207.7969" style="stroke:#181818;stroke-width:1.0;"/><line style="stroke:#181818;stroke-width:1.0;" x1="29" x2="382" y1="207.7969" y2="207.7969"/><text fill="#000000" font-family="sans-serif" font-size="13" font-weight="bold" lengthAdjust="spacing" textLength="9" x="36" y="202.731">1</text><text fill="#000000" font-family="sans-serif" font-size="13" lengthAdjust="spacing" textLength="282" x="49" y="202.731">Asks to Assign a Team to the selected entry</text><polygon fill="#181818" points="40,232.9297,30,236.9297,40,240.9297,36,236.9297" style="stroke:#181818;stroke-width:1.0;"/><line style="stroke:#181818;stroke-width:1.0;stroke-dasharray:2.0,2.0;" x1="34" x2="392" y1="236.9297" y2="236.9297"/><text fill="#000000" font-family="sans-serif" font-size="13" font-weight="bold" lengthAdjust="spacing" textLength="9" x="46" y="231.8638">2</text><text fill="#000000" font-family="sans-serif" font-size="13" lengthAdjust="spacing" textLength="308" x="59" y="231.8638">Shows Possible Teams for Entry Assignment List</text><polygon fill="#181818" points="376,262.0625,386,266.0625,376,270.0625,380,266.0625" style="stroke:#181818;stroke-width:1.0;"/><line style="stroke:#181818;stroke-width:1.0;" x1="29" x2="382" y1="266.0625" y2="266.0625"/><text fill="#000000" font-family="sans-serif" font-size="13" font-weight="bold" lengthAdjust="spacing" textLength="9" x="36" y="260.9966">3</text><text fill="#000000" font-family="sans-serif" font-size="13" lengthAdjust="spacing" textLength="327" x="49" y="260.9966">Selects a team and Assigns it to the selected entry</text><line style="stroke:#181818;stroke-width:1.0;" x1="398" x2="440" y1="295.1953" y2="295.1953"/><line style="stroke:#181818;stroke-width:1.0;" x1="440" x2="440" y1="295.1953" y2="308.1953"/><line style="stroke:#181818;stroke-width:1.0;" x1="399" x2="440" y1="308.1953" y2="308.1953"/><polygon fill="#181818" points="409,304.1953,399,308.1953,409,312.1953,405,308.1953" style="stroke:#181818;stroke-width:1.0;"/><text fill="#000000" font-family="sans-serif" font-size="13" font-weight="bold" lengthAdjust="spacing" textLength="9" x="405" y="290.1294">4</text><text fill="#000000" font-family="sans-serif" font-size="13" lengthAdjust="spacing" textLength="231" x="418" y="290.1294">Notifies all team members via email</text><polygon fill="#181818" points="40,333.3281,30,337.3281,40,341.3281,36,337.3281" style="stroke:#181818;stroke-width:1.0;"/><line style="stroke:#181818;stroke-width:1.0;stroke-dasharray:2.0,2.0;" x1="34" x2="392" y1="337.3281" y2="337.3281"/><text fill="#000000" font-family="sans-serif" font-size="13" font-weight="bold" lengthAdjust="spacing" textLength="9" x="46" y="332.2622">5</text><text fill="#000000" font-family="sans-serif" font-size="13" lengthAdjust="spacing" textLength="238" x="59" y="332.2622">Displays Operation Success Message</text><!--SRC=[bP51Rzim38Nl-XKFENM704Dxos50WHH5WMKReEMs2sFJZX1ByaGwGVxzA1iTalMqYsMPvCVtdkKKqaY58c9EkJcM71bQ9dRojp9ISwAUlLu7Hk56AVN3ROCSgSsNa7fqD0Wxfq6jrLz5ESBpxubJmzW6wclxW_VRJrXZxpy_FZb7a-OqnGCNUsyq5wnU_Mu54jZfR8M69eoK5AlDmfoB-xV7UI2SINbkTOKxv3ENUiC6hwpG8wDbfJ08ABM8bCnBPAFbKKDEyYiXTo083-QDMrYjN97JF6lDgINdAd7zfIuryBES19hjbD0dc_t9vii-r8bxpet4MN05h0sqAFJ7V17yoCOvM68L8-WiWfTPmyAVnNuDeiwrV4-xK-NdnMOJMkLKjmj04FG_rBtplcKDNM033iE2Z5n_a-0S21mjqt_zR8EC0rq5tqSkLEE5dvg6HR2pXuNvqSCV]--></g></svg>