<?xml version="1.0" encoding="us-ascii" standalone="no"?><svg xmlns="http://www.w3.org/2000/svg" xmlns:xlink="http://www.w3.org/1999/xlink" contentStyleType="text/css" height="1120px" preserveAspectRatio="none" style="width:2361px;height:1120px;background:#FFFFFF;" version="1.1" viewBox="0 0 2361 1120" width="2361px" zoomAndPan="magnify"><defs/><g><rect fill="#FFFFFF" height="939.4063" style="stroke:#181818;stroke-width:1.0;" width="10" x="33" y="91.4883"/><rect fill="#FFFFFF" height="697.7441" style="stroke:#181818;stroke-width:1.0;" width="10" x="337" y="152.4199"/><rect fill="#FFFFFF" height="29.3105" style="stroke:#181818;stroke-width:1.0;" width="10" x="337" y="879.4746"/><rect fill="#FFFFFF" height="106.1094" style="stroke:#181818;stroke-width:1.0;" width="10" x="515.5" y="908.7852"/><rect fill="#FFFFFF" height="597.6348" style="stroke:#181818;stroke-width:1.0;" width="10" x="745.5" y="223.2188"/><rect fill="#FFFFFF" height="29.3105" style="stroke:#181818;stroke-width:1.0;" width="10" x="1137" y="252.5293"/><rect fill="#FFFFFF" height="29.3105" style="stroke:#181818;stroke-width:1.0;" width="10" x="1248" y="311.1504"/><rect fill="#FFFFFF" height="87.9316" style="stroke:#181818;stroke-width:1.0;" width="10" x="1426.5" y="369.7715"/><rect fill="#FFFFFF" height="29.3105" style="stroke:#181818;stroke-width:1.0;" width="10" x="1600.5" y="399.082"/><rect fill="#FFFFFF" height="304.5293" style="stroke:#181818;stroke-width:1.0;" width="10" x="1710" y="487.0137"/><rect fill="#FFFFFF" height="34.3105" style="stroke:#181818;stroke-width:1.0;" width="10" x="1715" y="649.4336"/><rect fill="#FFFFFF" height="30" style="stroke:#181818;stroke-width:1.0;" width="10" x="1905" y="582.123"/><rect fill="#FFFFFF" height="30" style="stroke:#181818;stroke-width:1.0;" width="10" x="2095" y="725.2324"/><rect fill="none" height="924.4063" style="stroke:#000000;stroke-width:1.5;" width="2345" x="10" y="98.4883"/><rect fill="none" height="219.7305" style="stroke:#000000;stroke-width:1.5;" width="692.5" x="1652.5" y="543.502"/><line style="stroke:#181818;stroke-width:0.5;stroke-dasharray:5.0,5.0;" x1="38" x2="38" y1="81.4883" y2="1039.8945"/><line style="stroke:#181818;stroke-width:0.5;stroke-dasharray:5.0,5.0;" x1="341.5" x2="341.5" y1="81.4883" y2="1039.8945"/><line style="stroke:#181818;stroke-width:0.5;stroke-dasharray:5.0,5.0;" x1="520.5" x2="520.5" y1="81.4883" y2="1039.8945"/><line style="stroke:#181818;stroke-width:0.5;stroke-dasharray:5.0,5.0;" x1="750.5" x2="750.5" y1="191.1641" y2="1039.8945"/><line style="stroke:#181818;stroke-width:0.5;stroke-dasharray:5.0,5.0;" x1="981.5" x2="981.5" y1="982.8398" y2="1039.8945"/><line style="stroke:#181818;stroke-width:0.5;stroke-dasharray:5.0,5.0;" x1="1141.5" x2="1141.5" y1="81.4883" y2="1039.8945"/><line style="stroke:#181818;stroke-width:0.5;stroke-dasharray:5.0,5.0;" x1="1252.5" x2="1252.5" y1="81.4883" y2="1039.8945"/><line style="stroke:#181818;stroke-width:0.5;stroke-dasharray:5.0,5.0;" x1="1431.5" x2="1431.5" y1="81.4883" y2="1039.8945"/><line style="stroke:#181818;stroke-width:0.5;stroke-dasharray:5.0,5.0;" x1="1605.5" x2="1605.5" y1="81.4883" y2="1039.8945"/><line style="stroke:#181818;stroke-width:0.5;stroke-dasharray:5.0,5.0;" x1="1714.5" x2="1714.5" y1="81.4883" y2="1039.8945"/><line style="stroke:#181818;stroke-width:0.5;stroke-dasharray:5.0,5.0;" x1="1910" x2="1910" y1="81.4883" y2="1039.8945"/><line style="stroke:#181818;stroke-width:0.5;stroke-dasharray:5.0,5.0;" x1="2100" x2="2100" y1="525.7578" y2="1039.8945"/><line style="stroke:#181818;stroke-width:0.5;stroke-dasharray:5.0,5.0;" x1="2273" x2="2273" y1="693.1777" y2="1039.8945"/><text fill="#000000" font-family="sans-serif" font-size="14" lengthAdjust="spacing" textLength="30" x="20" y="78.5352">GSM</text><ellipse cx="38" cy="13.5" fill="#E3E3E3" rx="8" ry="8" style="stroke:#181818;stroke-width:0.5;"/><path d="M38,21.5 L38,48.5 M25,29.5 L51,29.5 M38,48.5 L25,63.5 M38,48.5 L51,63.5 " fill="none" style="stroke:#181818;stroke-width:0.5;"/><text fill="#000000" font-family="sans-serif" font-size="14" lengthAdjust="spacing" textLength="30" x="20" y="1052.4297">GSM</text><ellipse cx="38" cy="1063.8828" fill="#E3E3E3" rx="8" ry="8" style="stroke:#181818;stroke-width:0.5;"/><path d="M38,1071.8828 L38,1098.8828 M25,1079.8828 L51,1079.8828 M38,1098.8828 L25,1113.8828 M38,1098.8828 L51,1113.8828 " fill="none" style="stroke:#181818;stroke-width:0.5;"/><rect fill="#E3E3E3" height="30.4883" rx="2.5" ry="2.5" style="stroke:#181818;stroke-width:0.5;" width="139" x="272.5" y="50"/><text fill="#000000" font-family="sans-serif" font-size="14" lengthAdjust="spacing" textLength="125" x="279.5" y="70.5352">:ManageAgendaUI</text><rect fill="#E3E3E3" height="30.4883" rx="2.5" ry="2.5" style="stroke:#181818;stroke-width:0.5;" width="139" x="272.5" y="1038.8945"/><text fill="#000000" font-family="sans-serif" font-size="14" lengthAdjust="spacing" textLength="125" x="279.5" y="1059.4297">:ManageAgendaUI</text><rect fill="#E3E3E3" height="30.4883" rx="2.5" ry="2.5" style="stroke:#181818;stroke-width:0.5;" width="198" x="421.5" y="50"/><text fill="#000000" font-family="sans-serif" font-size="14" lengthAdjust="spacing" textLength="184" x="428.5" y="70.5352">:ViewDetailsEntryAgendaUI</text><rect fill="#E3E3E3" height="30.4883" rx="2.5" ry="2.5" style="stroke:#181818;stroke-width:0.5;" width="198" x="421.5" y="1038.8945"/><text fill="#000000" font-family="sans-serif" font-size="14" lengthAdjust="spacing" textLength="184" x="428.5" y="1059.4297">:ViewDetailsEntryAgendaUI</text><rect fill="#E3E3E3" height="30.4883" rx="2.5" ry="2.5" style="stroke:#181818;stroke-width:0.5;" width="242" x="629.5" y="1038.8945"/><text fill="#000000" font-family="sans-serif" font-size="14" lengthAdjust="spacing" textLength="228" x="636.5" y="1059.4297">:AssignEntryOnAgendaController</text><rect fill="#E3E3E3" height="30.4883" rx="2.5" ry="2.5" style="stroke:#181818;stroke-width:0.5;" width="201" x="881.5" y="1038.8945"/><text fill="#000000" font-family="sans-serif" font-size="14" lengthAdjust="spacing" textLength="187" x="888.5" y="1059.4297">:ViewDetailsEntryController</text><rect fill="#E3E3E3" height="30.4883" rx="2.5" ry="2.5" style="stroke:#181818;stroke-width:0.5;" width="99" x="1092.5" y="50"/><text fill="#000000" font-family="sans-serif" font-size="14" lengthAdjust="spacing" textLength="85" x="1099.5" y="70.5352">Repositories</text><rect fill="#E3E3E3" height="30.4883" rx="2.5" ry="2.5" style="stroke:#181818;stroke-width:0.5;" width="99" x="1092.5" y="1038.8945"/><text fill="#000000" font-family="sans-serif" font-size="14" lengthAdjust="spacing" textLength="85" x="1099.5" y="1059.4297">Repositories</text><rect fill="#E3E3E3" height="46.9766" rx="2.5" ry="2.5" style="stroke:#181818;stroke-width:0.5;" width="103" x="1201.5" y="33.5117"/><text fill="#000000" font-family="sans-serif" font-size="14" lengthAdjust="spacing" textLength="82" x="1212" y="54.0469">repositories</text><text fill="#000000" font-family="sans-serif" font-size="14" lengthAdjust="spacing" textLength="89" x="1208.5" y="70.5352">:Repositories</text><rect fill="#E3E3E3" height="46.9766" rx="2.5" ry="2.5" style="stroke:#181818;stroke-width:0.5;" width="103" x="1201.5" y="1038.8945"/><text fill="#000000" font-family="sans-serif" font-size="14" lengthAdjust="spacing" textLength="82" x="1212" y="1059.4297">repositories</text><text fill="#000000" font-family="sans-serif" font-size="14" lengthAdjust="spacing" textLength="89" x="1208.5" y="1075.918">:Repositories</text><rect fill="#E3E3E3" height="30.4883" rx="2.5" ry="2.5" style="stroke:#181818;stroke-width:0.5;" width="234" x="1314.5" y="50"/><text fill="#000000" font-family="sans-serif" font-size="14" lengthAdjust="spacing" textLength="220" x="1321.5" y="70.5352">entryRepository:EntryRepository</text><rect fill="#E3E3E3" height="30.4883" rx="2.5" ry="2.5" style="stroke:#181818;stroke-width:0.5;" width="234" x="1314.5" y="1038.8945"/><text fill="#000000" font-family="sans-serif" font-size="14" lengthAdjust="spacing" textLength="220" x="1321.5" y="1059.4297">entryRepository:EntryRepository</text><rect fill="#E3E3E3" height="30.4883" rx="2.5" ry="2.5" style="stroke:#181818;stroke-width:0.5;" width="94" x="1558.5" y="50"/><text fill="#000000" font-family="sans-serif" font-size="14" lengthAdjust="spacing" textLength="80" x="1565.5" y="70.5352">:AgendaList</text><rect fill="#E3E3E3" height="30.4883" rx="2.5" ry="2.5" style="stroke:#181818;stroke-width:0.5;" width="94" x="1558.5" y="1038.8945"/><text fill="#000000" font-family="sans-serif" font-size="14" lengthAdjust="spacing" textLength="80" x="1565.5" y="1059.4297">:AgendaList</text><rect fill="#E3E3E3" height="30.4883" rx="2.5" ry="2.5" style="stroke:#181818;stroke-width:0.5;" width="105" x="1662.5" y="50"/><text fill="#000000" font-family="sans-serif" font-size="14" lengthAdjust="spacing" textLength="91" x="1669.5" y="70.5352">:EntryMapper</text><rect fill="#E3E3E3" height="30.4883" rx="2.5" ry="2.5" style="stroke:#181818;stroke-width:0.5;" width="105" x="1662.5" y="1038.8945"/><text fill="#000000" font-family="sans-serif" font-size="14" lengthAdjust="spacing" textLength="91" x="1669.5" y="1059.4297">:EntryMapper</text><rect fill="#E3E3E3" height="30.4883" rx="2.5" ry="2.5" style="stroke:#181818;stroke-width:0.5;" width="156" x="1832" y="50"/><text fill="#000000" font-family="sans-serif" font-size="14" lengthAdjust="spacing" textLength="142" x="1839" y="70.5352">entryList:List&lt;Entry&gt;</text><rect fill="#E3E3E3" height="30.4883" rx="2.5" ry="2.5" style="stroke:#181818;stroke-width:0.5;" width="156" x="1832" y="1038.8945"/><text fill="#000000" font-family="sans-serif" font-size="14" lengthAdjust="spacing" textLength="142" x="1839" y="1059.4297">entryList:List&lt;Entry&gt;</text><rect fill="#E3E3E3" height="30.4883" rx="2.5" ry="2.5" style="stroke:#181818;stroke-width:0.5;" width="204" x="1998" y="1038.8945"/><text fill="#000000" font-family="sans-serif" font-size="14" lengthAdjust="spacing" textLength="190" x="2005" y="1059.4297">entryListDto:List&lt;EntryDto&gt;</text><rect fill="#E3E3E3" height="30.4883" rx="2.5" ry="2.5" style="stroke:#181818;stroke-width:0.5;" width="123" x="2212" y="1038.8945"/><text fill="#000000" font-family="sans-serif" font-size="14" lengthAdjust="spacing" textLength="109" x="2219" y="1059.4297">objDto:EntryDto</text><rect fill="#FFFFFF" height="939.4063" style="stroke:#181818;stroke-width:1.0;" width="10" x="33" y="91.4883"/><rect fill="#FFFFFF" height="697.7441" style="stroke:#181818;stroke-width:1.0;" width="10" x="337" y="152.4199"/><rect fill="#FFFFFF" height="29.3105" style="stroke:#181818;stroke-width:1.0;" width="10" x="337" y="879.4746"/><rect fill="#FFFFFF" height="106.1094" style="stroke:#181818;stroke-width:1.0;" width="10" x="515.5" y="908.7852"/><rect fill="#FFFFFF" height="597.6348" style="stroke:#181818;stroke-width:1.0;" width="10" x="745.5" y="223.2188"/><rect fill="#FFFFFF" height="29.3105" style="stroke:#181818;stroke-width:1.0;" width="10" x="1137" y="252.5293"/><rect fill="#FFFFFF" height="29.3105" style="stroke:#181818;stroke-width:1.0;" width="10" x="1248" y="311.1504"/><rect fill="#FFFFFF" height="87.9316" style="stroke:#181818;stroke-width:1.0;" width="10" x="1426.5" y="369.7715"/><rect fill="#FFFFFF" height="29.3105" style="stroke:#181818;stroke-width:1.0;" width="10" x="1600.5" y="399.082"/><rect fill="#FFFFFF" height="304.5293" style="stroke:#181818;stroke-width:1.0;" width="10" x="1710" y="487.0137"/><rect fill="#FFFFFF" height="34.3105" style="stroke:#181818;stroke-width:1.0;" width="10" x="1715" y="649.4336"/><rect fill="#FFFFFF" height="30" style="stroke:#181818;stroke-width:1.0;" width="10" x="1905" y="582.123"/><rect fill="#FFFFFF" height="30" style="stroke:#181818;stroke-width:1.0;" width="10" x="2095" y="725.2324"/><path d="M10,98.4883 L562,98.4883 L562,105.7988 L552,115.7988 L10,115.7988 L10,98.4883 " fill="#EEEEEE" style="stroke:#000000;stroke-width:1.5;"/><rect fill="none" height="924.4063" style="stroke:#000000;stroke-width:1.5;" width="2345" x="10" y="98.4883"/><text fill="#000000" font-family="sans-serif" font-size="13" font-weight="bold" lengthAdjust="spacing" textLength="507" x="25" y="112.0566">Get the details and management options of a selected entry on the agenda</text><polygon fill="#181818" points="325,148.4199,335,152.4199,325,156.4199,329,152.4199" style="stroke:#181818;stroke-width:1.0;"/><line style="stroke:#181818;stroke-width:1.0;" x1="43" x2="331" y1="152.4199" y2="152.4199"/><text fill="#000000" font-family="sans-serif" font-size="13" font-weight="bold" lengthAdjust="spacing" textLength="9" x="50" y="140.0225">1</text><text fill="#000000" font-family="sans-serif" font-size="13" lengthAdjust="spacing" textLength="254" x="63" y="132.3672">Asks to get the details and management</text><text fill="#000000" font-family="sans-serif" font-size="13" lengthAdjust="spacing" textLength="258" x="67" y="147.6777">options of a specific entry on the agenda</text><polygon fill="#181818" points="617.5,177.7305,627.5,181.7305,617.5,185.7305,621.5,181.7305" style="stroke:#181818;stroke-width:1.0;"/><line style="stroke:#181818;stroke-width:1.0;" x1="347" x2="623.5" y1="181.7305" y2="181.7305"/><text fill="#000000" font-family="sans-serif" font-size="13" font-weight="bold" lengthAdjust="spacing" textLength="9" x="354" y="176.9883">2</text><text fill="#000000" font-family="sans-serif" font-size="13" lengthAdjust="spacing" textLength="46" x="367" y="176.9883">create()</text><rect fill="#E3E3E3" height="30.4883" rx="2.5" ry="2.5" style="stroke:#181818;stroke-width:0.5;" width="242" x="629.5" y="160.4199"/><text fill="#000000" font-family="sans-serif" font-size="14" lengthAdjust="spacing" textLength="228" x="636.5" y="180.9551">:AssignEntryOnAgendaController</text><polygon fill="#181818" points="733.5,219.2188,743.5,223.2188,733.5,227.2188,737.5,223.2188" style="stroke:#181818;stroke-width:1.0;"/><line style="stroke:#181818;stroke-width:1.0;" x1="347" x2="739.5" y1="223.2188" y2="223.2188"/><text fill="#000000" font-family="sans-serif" font-size="13" font-weight="bold" lengthAdjust="spacing" textLength="9" x="354" y="218.4766">3</text><text fill="#000000" font-family="sans-serif" font-size="13" lengthAdjust="spacing" textLength="75" x="367" y="218.4766">getAgenda()</text><polygon fill="#181818" points="1125,248.5293,1135,252.5293,1125,256.5293,1129,252.5293" style="stroke:#181818;stroke-width:1.0;"/><line style="stroke:#181818;stroke-width:1.0;" x1="755.5" x2="1131" y1="252.5293" y2="252.5293"/><text fill="#000000" font-family="sans-serif" font-size="13" font-weight="bold" lengthAdjust="spacing" textLength="9" x="762.5" y="247.7871">4</text><text fill="#000000" font-family="sans-serif" font-size="13" lengthAdjust="spacing" textLength="81" x="775.5" y="247.7871">getInstance()</text><polygon fill="#181818" points="766.5,277.8398,756.5,281.8398,766.5,285.8398,762.5,281.8398" style="stroke:#181818;stroke-width:1.0;"/><line style="stroke:#181818;stroke-width:1.0;stroke-dasharray:2.0,2.0;" x1="760.5" x2="1141" y1="281.8398" y2="281.8398"/><text fill="#000000" font-family="sans-serif" font-size="13" font-weight="bold" lengthAdjust="spacing" textLength="9" x="772.5" y="277.0977">5</text><text fill="#000000" font-family="sans-serif" font-size="13" lengthAdjust="spacing" textLength="75" x="785.5" y="277.0977">repositories</text><polygon fill="#181818" points="1236,307.1504,1246,311.1504,1236,315.1504,1240,311.1504" style="stroke:#181818;stroke-width:1.0;"/><line style="stroke:#181818;stroke-width:1.0;" x1="755.5" x2="1242" y1="311.1504" y2="311.1504"/><text fill="#000000" font-family="sans-serif" font-size="13" font-weight="bold" lengthAdjust="spacing" textLength="9" x="762.5" y="306.4082">6</text><text fill="#000000" font-family="sans-serif" font-size="13" lengthAdjust="spacing" textLength="127" x="775.5" y="306.4082">getEntryRepository()</text><polygon fill="#181818" points="766.5,336.4609,756.5,340.4609,766.5,344.4609,762.5,340.4609" style="stroke:#181818;stroke-width:1.0;"/><line style="stroke:#181818;stroke-width:1.0;stroke-dasharray:2.0,2.0;" x1="760.5" x2="1252" y1="340.4609" y2="340.4609"/><text fill="#000000" font-family="sans-serif" font-size="13" font-weight="bold" lengthAdjust="spacing" textLength="9" x="772.5" y="335.7188">7</text><text fill="#000000" font-family="sans-serif" font-size="13" lengthAdjust="spacing" textLength="99" x="785.5" y="335.7188">entryRepository</text><polygon fill="#181818" points="1414.5,365.7715,1424.5,369.7715,1414.5,373.7715,1418.5,369.7715" style="stroke:#181818;stroke-width:1.0;"/><line style="stroke:#181818;stroke-width:1.0;" x1="755.5" x2="1420.5" y1="369.7715" y2="369.7715"/><text fill="#000000" font-family="sans-serif" font-size="13" font-weight="bold" lengthAdjust="spacing" textLength="9" x="762.5" y="365.0293">8</text><text fill="#000000" font-family="sans-serif" font-size="13" lengthAdjust="spacing" textLength="75" x="775.5" y="365.0293">getAgenda()</text><polygon fill="#181818" points="1588.5,395.082,1598.5,399.082,1588.5,403.082,1592.5,399.082" style="stroke:#181818;stroke-width:1.0;"/><line style="stroke:#181818;stroke-width:1.0;" x1="1436.5" x2="1594.5" y1="399.082" y2="399.082"/><text fill="#000000" font-family="sans-serif" font-size="13" font-weight="bold" lengthAdjust="spacing" textLength="9" x="1443.5" y="394.3398">9</text><text fill="#000000" font-family="sans-serif" font-size="13" lengthAdjust="spacing" textLength="51" x="1456.5" y="394.3398">getList()</text><polygon fill="#181818" points="1447.5,424.3926,1437.5,428.3926,1447.5,432.3926,1443.5,428.3926" style="stroke:#181818;stroke-width:1.0;"/><line style="stroke:#181818;stroke-width:1.0;" x1="1441.5" x2="1604.5" y1="428.3926" y2="428.3926"/><text fill="#000000" font-family="sans-serif" font-size="13" font-weight="bold" lengthAdjust="spacing" textLength="18" x="1453.5" y="423.6504">10</text><text fill="#000000" font-family="sans-serif" font-size="13" lengthAdjust="spacing" textLength="55" x="1475.5" y="423.6504">entryList</text><polygon fill="#181818" points="766.5,453.7031,756.5,457.7031,766.5,461.7031,762.5,457.7031" style="stroke:#181818;stroke-width:1.0;"/><line style="stroke:#181818;stroke-width:1.0;" x1="760.5" x2="1430.5" y1="457.7031" y2="457.7031"/><text fill="#000000" font-family="sans-serif" font-size="13" font-weight="bold" lengthAdjust="spacing" textLength="18" x="772.5" y="452.9609">11</text><text fill="#000000" font-family="sans-serif" font-size="13" lengthAdjust="spacing" textLength="55" x="794.5" y="452.9609">entryList</text><polygon fill="#181818" points="1698,483.0137,1708,487.0137,1698,491.0137,1702,487.0137" style="stroke:#181818;stroke-width:1.0;"/><line style="stroke:#181818;stroke-width:1.0;" x1="755.5" x2="1704" y1="487.0137" y2="487.0137"/><text fill="#000000" font-family="sans-serif" font-size="13" font-weight="bold" lengthAdjust="spacing" textLength="18" x="762.5" y="482.2715">12</text><text fill="#000000" font-family="sans-serif" font-size="13" lengthAdjust="spacing" textLength="212" x="784.5" y="482.2715">entryListToEntryDtoList(entryList)</text><polygon fill="#181818" points="1986,512.3242,1996,516.3242,1986,520.3242,1990,516.3242" style="stroke:#181818;stroke-width:1.0;"/><line style="stroke:#181818;stroke-width:1.0;" x1="1720" x2="1992" y1="516.3242" y2="516.3242"/><text fill="#000000" font-family="sans-serif" font-size="13" font-weight="bold" lengthAdjust="spacing" textLength="18" x="1727" y="511.582">13</text><text fill="#000000" font-family="sans-serif" font-size="13" lengthAdjust="spacing" textLength="46" x="1749" y="511.582">create()</text><rect fill="#E3E3E3" height="30.4883" rx="2.5" ry="2.5" style="stroke:#181818;stroke-width:0.5;" width="204" x="1998" y="495.0137"/><text fill="#000000" font-family="sans-serif" font-size="14" lengthAdjust="spacing" textLength="190" x="2005" y="515.5488">entryListDto:List&lt;EntryDto&gt;</text><path d="M1652.5,543.502 L1726.5,543.502 L1726.5,550.8125 L1716.5,560.8125 L1652.5,560.8125 L1652.5,543.502 " fill="#EEEEEE" style="stroke:#000000;stroke-width:1.5;"/><rect fill="none" height="219.7305" style="stroke:#000000;stroke-width:1.5;" width="692.5" x="1652.5" y="543.502"/><text fill="#000000" font-family="sans-serif" font-size="13" font-weight="bold" lengthAdjust="spacing" textLength="29" x="1667.5" y="557.0703">loop</text><text fill="#000000" font-family="sans-serif" font-size="11" font-weight="bold" lengthAdjust="spacing" textLength="154" x="1741.5" y="556.1367">[for each entry in EntryList]</text><polygon fill="#181818" points="1893,578.123,1903,582.123,1893,586.123,1897,582.123" style="stroke:#181818;stroke-width:1.0;"/><line style="stroke:#181818;stroke-width:1.0;" x1="1720" x2="1899" y1="582.123" y2="582.123"/><text fill="#000000" font-family="sans-serif" font-size="13" font-weight="bold" lengthAdjust="spacing" textLength="18" x="1727" y="577.3809">14</text><text fill="#000000" font-family="sans-serif" font-size="13" lengthAdjust="spacing" textLength="78" x="1749" y="577.3809">entry = get()</text><line style="stroke:#181818;stroke-width:1.0;" x1="1720" x2="1767" y1="636.4336" y2="636.4336"/><line style="stroke:#181818;stroke-width:1.0;" x1="1767" x2="1767" y1="636.4336" y2="649.4336"/><line style="stroke:#181818;stroke-width:1.0;" x1="1726" x2="1767" y1="649.4336" y2="649.4336"/><polygon fill="#181818" points="1736,645.4336,1726,649.4336,1736,653.4336,1732,649.4336" style="stroke:#181818;stroke-width:1.0;"/><text fill="#000000" font-family="sans-serif" font-size="13" font-weight="bold" lengthAdjust="spacing" textLength="18" x="1732" y="631.6914">15</text><text fill="#000000" font-family="sans-serif" font-size="13" lengthAdjust="spacing" textLength="149" x="1754" y="631.6914">entryDto = toDto(entry)</text><polygon fill="#181818" points="2200,679.7441,2210,683.7441,2200,687.7441,2204,683.7441" style="stroke:#181818;stroke-width:1.0;"/><line style="stroke:#181818;stroke-width:1.0;" x1="1720" x2="2206" y1="683.7441" y2="683.7441"/><text fill="#000000" font-family="sans-serif" font-size="13" font-weight="bold" lengthAdjust="spacing" textLength="18" x="1727" y="679.002">16</text><text fill="#000000" font-family="sans-serif" font-size="13" lengthAdjust="spacing" textLength="148" x="1749" y="679.002">create(entry All Getters)</text><rect fill="#E3E3E3" height="30.4883" rx="2.5" ry="2.5" style="stroke:#181818;stroke-width:0.5;" width="123" x="2212" y="662.4336"/><text fill="#000000" font-family="sans-serif" font-size="14" lengthAdjust="spacing" textLength="109" x="2219" y="682.9688">objDto:EntryDto</text><polygon fill="#181818" points="2083,721.2324,2093,725.2324,2083,729.2324,2087,725.2324" style="stroke:#181818;stroke-width:1.0;"/><line style="stroke:#181818;stroke-width:1.0;" x1="1720" x2="2089" y1="725.2324" y2="725.2324"/><text fill="#000000" font-family="sans-serif" font-size="13" font-weight="bold" lengthAdjust="spacing" textLength="18" x="1727" y="720.4902">17</text><text fill="#000000" font-family="sans-serif" font-size="13" lengthAdjust="spacing" textLength="86" x="1749" y="720.4902">add(entryDto)</text><polygon fill="#181818" points="766.5,787.543,756.5,791.543,766.5,795.543,762.5,791.543" style="stroke:#181818;stroke-width:1.0;"/><line style="stroke:#181818;stroke-width:1.0;" x1="760.5" x2="1714" y1="791.543" y2="791.543"/><text fill="#000000" font-family="sans-serif" font-size="13" font-weight="bold" lengthAdjust="spacing" textLength="18" x="772.5" y="786.8008">18</text><text fill="#000000" font-family="sans-serif" font-size="13" lengthAdjust="spacing" textLength="78" x="794.5" y="786.8008">entryListDto</text><polygon fill="#181818" points="358,816.8535,348,820.8535,358,824.8535,354,820.8535" style="stroke:#181818;stroke-width:1.0;"/><line style="stroke:#181818;stroke-width:1.0;" x1="352" x2="749.5" y1="820.8535" y2="820.8535"/><text fill="#000000" font-family="sans-serif" font-size="13" font-weight="bold" lengthAdjust="spacing" textLength="18" x="364" y="816.1113">19</text><text fill="#000000" font-family="sans-serif" font-size="13" lengthAdjust="spacing" textLength="78" x="386" y="816.1113">entryListDto</text><polygon fill="#181818" points="54,846.1641,44,850.1641,54,854.1641,50,850.1641" style="stroke:#181818;stroke-width:1.0;"/><line style="stroke:#181818;stroke-width:1.0;" x1="48" x2="341" y1="850.1641" y2="850.1641"/><text fill="#000000" font-family="sans-serif" font-size="13" font-weight="bold" lengthAdjust="spacing" textLength="18" x="60" y="845.4219">20</text><text fill="#000000" font-family="sans-serif" font-size="13" lengthAdjust="spacing" textLength="138" x="82" y="845.4219">Shows Agenda Entries</text><polygon fill="#181818" points="325,875.4746,335,879.4746,325,883.4746,329,879.4746" style="stroke:#181818;stroke-width:1.0;"/><line style="stroke:#181818;stroke-width:1.0;" x1="43" x2="331" y1="879.4746" y2="879.4746"/><text fill="#000000" font-family="sans-serif" font-size="13" font-weight="bold" lengthAdjust="spacing" textLength="18" x="50" y="874.7324">21</text><text fill="#000000" font-family="sans-serif" font-size="13" lengthAdjust="spacing" textLength="99" x="72" y="874.7324">Selects an Entry</text><polygon fill="#181818" points="503.5,904.7852,513.5,908.7852,503.5,912.7852,507.5,908.7852" style="stroke:#181818;stroke-width:1.0;"/><line style="stroke:#181818;stroke-width:1.0;" x1="342" x2="509.5" y1="908.7852" y2="908.7852"/><text fill="#000000" font-family="sans-serif" font-size="13" font-weight="bold" lengthAdjust="spacing" textLength="18" x="349" y="904.043">22</text><text fill="#000000" font-family="sans-serif" font-size="13" lengthAdjust="spacing" textLength="122" x="371" y="904.043">setLabels(entryDto)</text><path d="M347,921.7852 L347,946.7852 L537,946.7852 L537,931.7852 L527,921.7852 L347,921.7852 " fill="#FAFAFA" style="stroke:#181818;stroke-width:0.5;"/><path d="M527,921.7852 L527,931.7852 L537,931.7852 L527,921.7852 " fill="#FAFAFA" style="stroke:#181818;stroke-width:0.5;"/><text fill="#000000" font-family="sans-serif" font-size="13" lengthAdjust="spacing" textLength="169" x="353" y="939.3535">(DTO of the Selected Entry)</text><polygon fill="#181818" points="869.5,969.4063,879.5,973.4063,869.5,977.4063,873.5,973.4063" style="stroke:#181818;stroke-width:1.0;"/><line style="stroke:#181818;stroke-width:1.0;" x1="525.5" x2="875.5" y1="973.4063" y2="973.4063"/><text fill="#000000" font-family="sans-serif" font-size="13" font-weight="bold" lengthAdjust="spacing" textLength="18" x="532.5" y="968.6641">23</text><text fill="#000000" font-family="sans-serif" font-size="13" lengthAdjust="spacing" textLength="46" x="554.5" y="968.6641">create()</text><rect fill="#E3E3E3" height="30.4883" rx="2.5" ry="2.5" style="stroke:#181818;stroke-width:0.5;" width="201" x="881.5" y="952.0957"/><text fill="#000000" font-family="sans-serif" font-size="14" lengthAdjust="spacing" textLength="187" x="888.5" y="972.6309">:ViewDetailsEntryController</text><polygon fill="#181818" points="54,1010.8945,44,1014.8945,54,1018.8945,50,1014.8945" style="stroke:#181818;stroke-width:1.0;"/><line style="stroke:#181818;stroke-width:1.0;" x1="48" x2="519.5" y1="1014.8945" y2="1014.8945"/><text fill="#000000" font-family="sans-serif" font-size="13" font-weight="bold" lengthAdjust="spacing" textLength="18" x="60" y="1010.1523">24</text><text fill="#000000" font-family="sans-serif" font-size="13" lengthAdjust="spacing" textLength="300" x="82" y="1010.1523">Displays entry details and management options</text><!--SRC=[dLR1QkCm4BtxAuPUsWPA8KUpMmXDA86MGjFkQI-ghJZQEfAnb2tv-nsDRLcUE0wi3xKbpPjvyp8pglrIkXArsCFUQ9FjQhENuEg3J6mugKJs9GgvSSTIGYqp9tHHnWPs9tBphNG1Mr5QcIJYu8m-x3zbZT-PCpLSFMrUha1Om7U2AASoLGdju2fz4HgzBmgfS_6n9gEFDRFvfUJtKZgXIhlIhZuowpapNrYh2asMhxgnVJIuCcKfQy8ylhyzpoy46O4a_XcWtcHbhC8KbRHaHXj3cpgo-QtJ4mYTZ-2aPn6iZ-bgk2PisECIKDRFoZeowvV9_JMSHcbyznwlxva_sdqHLTMg4Qsv9EJGXrewa_ht3pB6rKCFRS_F82COmmm1vlEF3zBvxqszQqPBa0Ih_oPt8HRMkVehdAGAJvAYDeSAdgG3jvEGDsK5GkUmfthVOwvWAgUCjc2s8C3A4djBva0gWD64R5YZGy07NSFT0nPy2WlxPS4PA2OZ_DOiHYKpjLNPQ0mV8MI1BKWR7siVaTfbDaiXgoMUtjoU7AQUILDbU3fmrVGQxT4VMdiWbJ81rzhYLCaaXpPDGNlq2NTzlBYho2ANOxWGhUyo2icQYKUEUf8E-dNCWNKefy6T12uX-8HiVMVJVbXwVD_EvC1_S7ZKyNJGhnc1q7ISFVSmO10BC0QEs8-atWoE2FvkkbQYNCB-c2PXwWHIpKxmthRlR0QyO4jZAjZYVOH4TsqJA1rD5sYVSswXvGm_lUwjvgSK1xwuAXS33TJ1H32OC_XkP3aNivDboZDJfKbbKPP-K3bPszkpf5llb_JnR5CGUNxJaP-Io4_EAPMwSwp3qL-R5s5dVuRyi13z59r2HcEhcNCuVLFOxCntTvsIyv7fusSddzSRckv-FZUKfgOj_aEJudNWdiMdB2rJSXY7UPctWRNnqqSLE-VdVclddvlb-wlVycD_qrqugxwiC2q2TtJcdSp3PWgplBKWQPRALgKushP3Bjnva9ocW_Jff_u7]--></g></svg>