<?xml version="1.0" encoding="us-ascii" standalone="no"?><svg xmlns="http://www.w3.org/2000/svg" xmlns:xlink="http://www.w3.org/1999/xlink" contentStyleType="text/css" height="441px" preserveAspectRatio="none" style="width:1141px;height:441px;background:#FFFFFF;" version="1.1" viewBox="0 0 1141 441" width="1141.2px" zoomAndPan="magnify"><defs/><g><line style="stroke:#181818;stroke-width:0.3;stroke-dasharray:5.0,5.0;" x1="13.8" x2="13.8" y1="48.893" y2="391.8199"/><rect fill="#FFFFFF" height="335.127" style="stroke:#181818;stroke-width:0.6;" width="6" x="10.8" y="53.693"/><line style="stroke:#181818;stroke-width:0.3;stroke-dasharray:5.0,5.0;" x1="138.6" x2="138.6" y1="48.893" y2="391.8199"/><rect fill="#FFFFFF" height="25.3863" style="stroke:#181818;stroke-width:0.6;" width="6" x="135.6" y="101.625"/><line style="stroke:#181818;stroke-width:0.3;stroke-dasharray:5.0,5.0;" x1="232.2" x2="232.2" y1="48.893" y2="391.8199"/><rect fill="#FFFFFF" height="17.5863" style="stroke:#181818;stroke-width:0.6;" width="6" x="229.2" y="119.2113"/><rect fill="#FFFFFF" height="226.6359" style="stroke:#181818;stroke-width:0.6;" width="6" x="229.2" y="154.384"/><line style="stroke:#181818;stroke-width:0.3;stroke-dasharray:5.0,5.0;" x1="448.2" x2="448.2" y1="48.893" y2="391.8199"/><rect fill="#FFFFFF" height="191.4633" style="stroke:#181818;stroke-width:0.6;" width="6" x="445.2" y="171.9703"/><line style="stroke:#181818;stroke-width:0.3;stroke-dasharray:5.0,5.0;" x1="544.2" x2="544.2" y1="48.893" y2="391.8199"/><line style="stroke:#181818;stroke-width:0.3;stroke-dasharray:5.0,5.0;" x1="610.8" x2="610.8" y1="48.893" y2="391.8199"/><line style="stroke:#181818;stroke-width:0.3;stroke-dasharray:5.0,5.0;" x1="717.9" x2="717.9" y1="48.893" y2="391.8199"/><rect fill="#FFFFFF" height="138.7043" style="stroke:#181818;stroke-width:0.6;" width="6" x="714.9" y="207.143"/><line style="stroke:#181818;stroke-width:0.3;stroke-dasharray:5.0,5.0;" x1="864.3" x2="864.3" y1="48.893" y2="391.8199"/><rect fill="#FFFFFF" height="103.5316" style="stroke:#181818;stroke-width:0.6;" width="6" x="861.3" y="224.7293"/><line style="stroke:#181818;stroke-width:0.3;stroke-dasharray:5.0,5.0;" x1="942.6" x2="942.6" y1="48.893" y2="391.8199"/><rect fill="#FFFFFF" height="7.8" style="stroke:#181818;stroke-width:0.6;" width="6" x="939.6" y="189.5566"/><line style="stroke:#181818;stroke-width:0.3;stroke-dasharray:5.0,5.0;" x1="1015.8" x2="1015.8" y1="48.893" y2="391.8199"/><rect fill="#FFFFFF" height="68.359" style="stroke:#181818;stroke-width:0.6;" width="6" x="1012.8" y="242.3156"/><text fill="#000000" font-family="sans-serif" font-size="8.4" lengthAdjust="spacing" textLength="18" x="3" y="47.1211">GSM</text><ellipse cx="13.8" cy="8.1" fill="#E3E3E3" rx="4.8" ry="4.8" style="stroke:#181818;stroke-width:0.3;"/><path d="M13.8,12.9 L13.8,29.1 M6,17.7 L21.6,17.7 M13.8,29.1 L6,38.1 M13.8,29.1 L21.6,38.1 " fill="none" style="stroke:#181818;stroke-width:0.3;"/><rect fill="#E3E3E3" height="18.293" rx="1.5" ry="1.5" style="stroke:#181818;stroke-width:0.3;" width="118.8" x="79.2" y="30"/><text fill="#000000" font-family="sans-serif" font-size="8.4" lengthAdjust="spacing" textLength="110.4" x="83.4" y="42.3211">:ViewDetailsEntryAgendaUI</text><rect fill="#E3E3E3" height="18.293" rx="1.5" ry="1.5" style="stroke:#181818;stroke-width:0.3;" width="55.2" x="204.6" y="30"/><text fill="#000000" font-family="sans-serif" font-size="8.4" lengthAdjust="spacing" textLength="46.8" x="208.8" y="42.3211">PostponeUI</text><rect fill="#E3E3E3" height="18.293" rx="1.5" ry="1.5" style="stroke:#181818;stroke-width:0.3;" width="120.6" x="387.9" y="30"/><text fill="#000000" font-family="sans-serif" font-size="8.4" lengthAdjust="spacing" textLength="112.2" x="392.1" y="42.3211">:ViewDetailsEntryController</text><rect fill="#E3E3E3" height="18.293" rx="1.5" ry="1.5" style="stroke:#181818;stroke-width:0.3;" width="59.4" x="514.5" y="30"/><text fill="#000000" font-family="sans-serif" font-size="8.4" lengthAdjust="spacing" textLength="51" x="518.7" y="42.3211">Repositories</text><rect fill="#E3E3E3" height="28.1859" rx="1.5" ry="1.5" style="stroke:#181818;stroke-width:0.3;" width="61.8" x="579.9" y="20.107"/><text fill="#000000" font-family="sans-serif" font-size="8.4" lengthAdjust="spacing" textLength="49.2" x="586.2" y="32.4281">repositories</text><text fill="#000000" font-family="sans-serif" font-size="8.4" lengthAdjust="spacing" textLength="53.4" x="584.1" y="42.3211">:Repositories</text><rect fill="#E3E3E3" height="18.293" rx="1.5" ry="1.5" style="stroke:#181818;stroke-width:0.3;" width="140.4" x="647.7" y="30"/><text fill="#000000" font-family="sans-serif" font-size="8.4" lengthAdjust="spacing" textLength="132" x="651.9" y="42.3211">entryRepository:EntryRepository</text><rect fill="#E3E3E3" height="18.293" rx="1.5" ry="1.5" style="stroke:#181818;stroke-width:0.3;" width="63" x="832.8" y="30"/><text fill="#000000" font-family="sans-serif" font-size="8.4" lengthAdjust="spacing" textLength="54.6" x="837" y="42.3211">:EntryMapper</text><rect fill="#E3E3E3" height="18.293" rx="1.5" ry="1.5" style="stroke:#181818;stroke-width:0.3;" width="81.6" x="901.8" y="30"/><text fill="#000000" font-family="sans-serif" font-size="8.4" lengthAdjust="spacing" textLength="73.2" x="906" y="42.3211">entryDto:EntryDto</text><rect fill="#E3E3E3" height="18.293" rx="1.5" ry="1.5" style="stroke:#181818;stroke-width:0.3;" width="52.8" x="989.4" y="30"/><text fill="#000000" font-family="sans-serif" font-size="8.4" lengthAdjust="spacing" textLength="44.4" x="993.6" y="42.3211">entry:Entry</text><text fill="#000000" font-family="sans-serif" font-size="8.4" lengthAdjust="spacing" textLength="18" x="3" y="435.941">GSM</text><ellipse cx="13.8" cy="396.9199" fill="#E3E3E3" rx="4.8" ry="4.8" style="stroke:#181818;stroke-width:0.3;"/><path d="M13.8,401.7199 L13.8,417.9199 M6,406.5199 L21.6,406.5199 M13.8,417.9199 L6,426.9199 M13.8,417.9199 L21.6,426.9199 " fill="none" style="stroke:#181818;stroke-width:0.3;"/><rect fill="#E3E3E3" height="18.293" rx="1.5" ry="1.5" style="stroke:#181818;stroke-width:0.3;" width="118.8" x="79.2" y="391.8199"/><text fill="#000000" font-family="sans-serif" font-size="8.4" lengthAdjust="spacing" textLength="110.4" x="83.4" y="404.141">:ViewDetailsEntryAgendaUI</text><rect fill="#E3E3E3" height="18.293" rx="1.5" ry="1.5" style="stroke:#181818;stroke-width:0.3;" width="55.2" x="204.6" y="391.8199"/><text fill="#000000" font-family="sans-serif" font-size="8.4" lengthAdjust="spacing" textLength="46.8" x="208.8" y="404.141">PostponeUI</text><rect fill="#E3E3E3" height="18.293" rx="1.5" ry="1.5" style="stroke:#181818;stroke-width:0.3;" width="120.6" x="387.9" y="391.8199"/><text fill="#000000" font-family="sans-serif" font-size="8.4" lengthAdjust="spacing" textLength="112.2" x="392.1" y="404.141">:ViewDetailsEntryController</text><rect fill="#E3E3E3" height="18.293" rx="1.5" ry="1.5" style="stroke:#181818;stroke-width:0.3;" width="59.4" x="514.5" y="391.8199"/><text fill="#000000" font-family="sans-serif" font-size="8.4" lengthAdjust="spacing" textLength="51" x="518.7" y="404.141">Repositories</text><rect fill="#E3E3E3" height="28.1859" rx="1.5" ry="1.5" style="stroke:#181818;stroke-width:0.3;" width="61.8" x="579.9" y="391.8199"/><text fill="#000000" font-family="sans-serif" font-size="8.4" lengthAdjust="spacing" textLength="49.2" x="586.2" y="404.141">repositories</text><text fill="#000000" font-family="sans-serif" font-size="8.4" lengthAdjust="spacing" textLength="53.4" x="584.1" y="414.034">:Repositories</text><rect fill="#E3E3E3" height="18.293" rx="1.5" ry="1.5" style="stroke:#181818;stroke-width:0.3;" width="140.4" x="647.7" y="391.8199"/><text fill="#000000" font-family="sans-serif" font-size="8.4" lengthAdjust="spacing" textLength="132" x="651.9" y="404.141">entryRepository:EntryRepository</text><rect fill="#E3E3E3" height="18.293" rx="1.5" ry="1.5" style="stroke:#181818;stroke-width:0.3;" width="63" x="832.8" y="391.8199"/><text fill="#000000" font-family="sans-serif" font-size="8.4" lengthAdjust="spacing" textLength="54.6" x="837" y="404.141">:EntryMapper</text><rect fill="#E3E3E3" height="18.293" rx="1.5" ry="1.5" style="stroke:#181818;stroke-width:0.3;" width="81.6" x="901.8" y="391.8199"/><text fill="#000000" font-family="sans-serif" font-size="8.4" lengthAdjust="spacing" textLength="73.2" x="906" y="404.141">entryDto:EntryDto</text><rect fill="#E3E3E3" height="18.293" rx="1.5" ry="1.5" style="stroke:#181818;stroke-width:0.3;" width="52.8" x="989.4" y="391.8199"/><text fill="#000000" font-family="sans-serif" font-size="8.4" lengthAdjust="spacing" textLength="44.4" x="993.6" y="404.141">entry:Entry</text><rect fill="none" height="32.1457" style="stroke:#000000;stroke-width:0.8999999999999999;" width="132.6" x="4.2" y="53.693"/><path d="M4.2,53.693 L42.6,53.693 L42.6,57.893 L36.6,63.893 L4.2,63.893 L4.2,53.693 " fill="#EEEEEE" style="stroke:#000000;stroke-width:1.2;"/><text fill="#000000" font-family="sans-serif" font-size="7.8" font-weight="bold" lengthAdjust="spacing" textLength="11.4" x="12" y="62.434">ref</text><text fill="#000000" font-family="sans-serif" font-size="7.2" lengthAdjust="spacing" textLength="127.8" x="6.6" y="73.2539">Get details and management options</text><text fill="#000000" font-family="sans-serif" font-size="7.2" lengthAdjust="spacing" textLength="116.4" x="13.5" y="81.7336">of a selected entry on the agenda</text><polygon fill="#181818" points="128.4,99.225,134.4,101.625,128.4,104.025,130.8,101.625" style="stroke:#181818;stroke-width:0.6;"/><line style="stroke:#181818;stroke-width:0.6;" x1="16.8" x2="132" y1="101.625" y2="101.625"/><text fill="#000000" font-family="sans-serif" font-size="7.8" font-weight="bold" lengthAdjust="spacing" textLength="5.4" x="21" y="98.7797">1</text><text fill="#000000" font-family="sans-serif" font-size="7.8" lengthAdjust="spacing" textLength="99.6" x="28.8" y="98.7797">Asks to postpone an Entry</text><polygon fill="#181818" points="222,116.8113,228,119.2113,222,121.6113,224.4,119.2113" style="stroke:#181818;stroke-width:0.6;"/><line style="stroke:#181818;stroke-width:0.6;" x1="141.6" x2="225.6" y1="119.2113" y2="119.2113"/><text fill="#000000" font-family="sans-serif" font-size="7.8" font-weight="bold" lengthAdjust="spacing" textLength="5.4" x="145.8" y="116.366">2</text><text fill="#000000" font-family="sans-serif" font-size="7.8" lengthAdjust="spacing" textLength="68.4" x="153.6" y="116.366">setEntry(entryDto)</text><polygon fill="#181818" points="23.4,134.3977,17.4,136.7977,23.4,139.1977,21,136.7977" style="stroke:#181818;stroke-width:0.6;"/><line style="stroke:#181818;stroke-width:0.6;" x1="19.8" x2="228.6" y1="136.7977" y2="136.7977"/><text fill="#000000" font-family="sans-serif" font-size="7.8" font-weight="bold" lengthAdjust="spacing" textLength="5.4" x="27" y="133.9523">3</text><text fill="#000000" font-family="sans-serif" font-size="7.8" lengthAdjust="spacing" textLength="185.4" x="34.8" y="133.9523">Ask to introduce a new date and a new start hour</text><polygon fill="#181818" points="222,151.984,228,154.384,222,156.784,224.4,154.384" style="stroke:#181818;stroke-width:0.6;"/><line style="stroke:#181818;stroke-width:0.6;" x1="16.8" x2="225.6" y1="154.384" y2="154.384"/><text fill="#000000" font-family="sans-serif" font-size="7.8" font-weight="bold" lengthAdjust="spacing" textLength="5.4" x="21" y="151.5387">4</text><text fill="#000000" font-family="sans-serif" font-size="7.8" lengthAdjust="spacing" textLength="98.4" x="28.8" y="151.5387">Introduces requested data</text><polygon fill="#181818" points="438,169.5703,444,171.9703,438,174.3703,440.4,171.9703" style="stroke:#181818;stroke-width:0.6;"/><line style="stroke:#181818;stroke-width:0.6;" x1="235.2" x2="441.6" y1="171.9703" y2="171.9703"/><text fill="#000000" font-family="sans-serif" font-size="7.8" font-weight="bold" lengthAdjust="spacing" textLength="5.4" x="239.4" y="169.125">5</text><text fill="#000000" font-family="sans-serif" font-size="7.8" lengthAdjust="spacing" textLength="190.8" x="247.2" y="169.125">postponeEntry(entryDto, postponeDate, startTime)</text><polygon fill="#181818" points="932.4,187.1566,938.4,189.5566,932.4,191.9566,934.8,189.5566" style="stroke:#181818;stroke-width:0.6;"/><line style="stroke:#181818;stroke-width:0.6;" x1="451.2" x2="936" y1="189.5566" y2="189.5566"/><text fill="#000000" font-family="sans-serif" font-size="7.8" font-weight="bold" lengthAdjust="spacing" textLength="5.4" x="455.4" y="186.7113">6</text><text fill="#000000" font-family="sans-serif" font-size="7.8" lengthAdjust="spacing" textLength="145.8" x="463.2" y="186.7113">postpone(newStartDate, newStartTime)</text><polygon fill="#181818" points="707.7,204.743,713.7,207.143,707.7,209.543,710.1,207.143" style="stroke:#181818;stroke-width:0.6;"/><line style="stroke:#181818;stroke-width:0.6;" x1="451.2" x2="711.3" y1="207.143" y2="207.143"/><text fill="#000000" font-family="sans-serif" font-size="7.8" font-weight="bold" lengthAdjust="spacing" textLength="5.4" x="455.4" y="204.2977">7</text><text fill="#000000" font-family="sans-serif" font-size="7.8" lengthAdjust="spacing" textLength="92.4" x="463.2" y="204.2977">postponeEntry(entryDto)</text><polygon fill="#181818" points="854.1,222.3293,860.1,224.7293,854.1,227.1293,856.5,224.7293" style="stroke:#181818;stroke-width:0.6;"/><line style="stroke:#181818;stroke-width:0.6;" x1="720.9" x2="857.7" y1="224.7293" y2="224.7293"/><text fill="#000000" font-family="sans-serif" font-size="7.8" font-weight="bold" lengthAdjust="spacing" textLength="5.4" x="725.1" y="221.884">8</text><text fill="#000000" font-family="sans-serif" font-size="7.8" lengthAdjust="spacing" textLength="121.2" x="732.9" y="221.884">entryDtoToEntry(entryDto,entry)</text><polygon fill="#181818" points="1005.6,239.9156,1011.6,242.3156,1005.6,244.7156,1008,242.3156" style="stroke:#181818;stroke-width:0.6;"/><line style="stroke:#181818;stroke-width:0.6;" x1="867.3" x2="1009.2" y1="242.3156" y2="242.3156"/><text fill="#000000" font-family="sans-serif" font-size="7.8" font-weight="bold" lengthAdjust="spacing" textLength="5.4" x="871.5" y="239.4703">9</text><text fill="#000000" font-family="sans-serif" font-size="7.8" lengthAdjust="spacing" textLength="109.2" x="879.3" y="239.4703">postponeEntry(newStartDate)</text><line style="stroke:#181818;stroke-width:0.6;" x1="1018.8" x2="1044" y1="259.902" y2="259.902"/><line style="stroke:#181818;stroke-width:0.6;" x1="1044" x2="1044" y1="259.902" y2="267.702"/><line style="stroke:#181818;stroke-width:0.6;" x1="1019.4" x2="1044" y1="267.702" y2="267.702"/><polygon fill="#181818" points="1025.4,265.302,1019.4,267.702,1025.4,270.102,1023,267.702" style="stroke:#181818;stroke-width:0.6;"/><text fill="#000000" font-family="sans-serif" font-size="7.8" font-weight="bold" lengthAdjust="spacing" textLength="10.8" x="1023" y="257.0566">10</text><text fill="#000000" font-family="sans-serif" font-size="7.8" lengthAdjust="spacing" textLength="84.6" x="1036.2" y="257.0566">status.postponeState()</text><line style="stroke:#181818;stroke-width:0.6;" x1="1018.8" x2="1044" y1="285.2883" y2="285.2883"/><line style="stroke:#181818;stroke-width:0.6;" x1="1044" x2="1044" y1="285.2883" y2="293.0883"/><line style="stroke:#181818;stroke-width:0.6;" x1="1019.4" x2="1044" y1="293.0883" y2="293.0883"/><polygon fill="#181818" points="1025.4,290.6883,1019.4,293.0883,1025.4,295.4883,1023,293.0883" style="stroke:#181818;stroke-width:0.6;"/><text fill="#000000" font-family="sans-serif" font-size="7.8" font-weight="bold" lengthAdjust="spacing" textLength="10.8" x="1023" y="282.443">11</text><text fill="#000000" font-family="sans-serif" font-size="7.8" lengthAdjust="spacing" textLength="100.8" x="1036.2" y="282.443">setStartDate(newStartDate)</text><polygon fill="#181818" points="873.9,308.2746,867.9,310.6746,873.9,313.0746,871.5,310.6746" style="stroke:#181818;stroke-width:0.6;"/><line style="stroke:#181818;stroke-width:0.6;" x1="870.3" x2="1012.2" y1="310.6746" y2="310.6746"/><text fill="#000000" font-family="sans-serif" font-size="7.8" font-weight="bold" lengthAdjust="spacing" textLength="10.8" x="877.5" y="307.8293">12</text><text fill="#000000" font-family="sans-serif" font-size="7.8" lengthAdjust="spacing" textLength="15" x="890.7" y="307.8293">true</text><polygon fill="#181818" points="727.5,325.8609,721.5,328.2609,727.5,330.6609,725.1,328.2609" style="stroke:#181818;stroke-width:0.6;"/><line style="stroke:#181818;stroke-width:0.6;" x1="723.9" x2="860.7" y1="328.2609" y2="328.2609"/><text fill="#000000" font-family="sans-serif" font-size="7.8" font-weight="bold" lengthAdjust="spacing" textLength="10.8" x="731.1" y="325.4156">13</text><text fill="#000000" font-family="sans-serif" font-size="7.8" lengthAdjust="spacing" textLength="15" x="744.3" y="325.4156">true</text><polygon fill="#181818" points="457.8,343.4473,451.8,345.8473,457.8,348.2473,455.4,345.8473" style="stroke:#181818;stroke-width:0.6;"/><line style="stroke:#181818;stroke-width:0.6;" x1="454.2" x2="714.3" y1="345.8473" y2="345.8473"/><text fill="#000000" font-family="sans-serif" font-size="7.8" font-weight="bold" lengthAdjust="spacing" textLength="10.8" x="461.4" y="343.002">14</text><text fill="#000000" font-family="sans-serif" font-size="7.8" lengthAdjust="spacing" textLength="15" x="474.6" y="343.002">true</text><polygon fill="#181818" points="241.8,361.0336,235.8,363.4336,241.8,365.8336,239.4,363.4336" style="stroke:#181818;stroke-width:0.6;"/><line style="stroke:#181818;stroke-width:0.6;" x1="238.2" x2="444.6" y1="363.4336" y2="363.4336"/><text fill="#000000" font-family="sans-serif" font-size="7.8" font-weight="bold" lengthAdjust="spacing" textLength="10.8" x="245.4" y="360.5883">15</text><text fill="#000000" font-family="sans-serif" font-size="7.8" lengthAdjust="spacing" textLength="15" x="258.6" y="360.5883">true</text><polygon fill="#181818" points="23.4,378.6199,17.4,381.0199,23.4,383.4199,21,381.0199" style="stroke:#181818;stroke-width:0.6;"/><line style="stroke:#181818;stroke-width:0.6;" x1="19.8" x2="228.6" y1="381.0199" y2="381.0199"/><text fill="#000000" font-family="sans-serif" font-size="7.8" font-weight="bold" lengthAdjust="spacing" textLength="10.8" x="27" y="378.1746">16</text><text fill="#000000" font-family="sans-serif" font-size="7.8" lengthAdjust="spacing" textLength="79.8" x="40.2" y="378.1746">Confirms the Change</text><!--SRC=[XLHDZziW4BtpAwOv9TAsXnnzg1GbgrMahbHjiZtrGks9WsA32tYZzDTt0EDWuge-M1vuxyq7ptpgDAzR3XRL7x2wHsOkGdPSynPQ9LLvrgh5VAVZvONNUB2t1a5ZQRcicnHWphnILo5hEF7686EyjqhsxI_Kz5rQfM7nSdXT03UmSI5ZHBIY51sN5XR53u7N7Lek6lCihRvjQfGLVzzxnlj-YlwkZEsKn75xpTZ_1BUAtgffK7lEzlZsRJsbl66dZA3Q11gFyGjJZ4umFsNnGF7xCpnq9OpeM_4yZJrtN7jinc-zyguRgazYDfDePrMWqCSTJm6RGmVe7UVIkpCJ7znYF2sD9r0Vg4CC1RoWXIhC5xYieEMI7DAI8gZE2YLfFg1EmC5WGux12dmsK1Bi6O7x0wPCGV3pLpf6ajsOYm6he1kEcBI7giQAo0sC4TXJrb0Oj1wnZBslM0fUimedN5eYQko34hfymhcZwajA21AlK3cqwok4njBOuAnwFLLRf-LJBR2FEiuBltiqhd4IuzEIV1MEvNr8lDZlj9EdSNr7pATGnb6qkBhB1IVxD-d5aquabzJ0mH63HemocRj5aWOJtmnFg3ScScxzP_6vUB3sdHT5Wez99XAFAfk2_yZbelrJZIYPbvHE8DSP518kJTdsvakK8AR5vUeHXdOKpJ9as51T4MxLnm7Fzp3CrdDongJtECp1IhC4F_lnxCXxSyK49utMzCukW2xEaz2jyN_jzamtF-R_G18EryLV]--></g></svg>