<?xml version="1.0" encoding="us-ascii" standalone="no"?><svg xmlns="http://www.w3.org/2000/svg" xmlns:xlink="http://www.w3.org/1999/xlink" contentStyleType="text/css" height="288.6px" preserveAspectRatio="none" style="width:1548px;height:288px;background:#FFFFFF;" version="1.1" viewBox="0 0 1548 288" width="1548.6px" zoomAndPan="magnify"><defs/><g><!--cluster UI--><g id="cluster_UI"><path d="M5.1,75.6 L14.7,75.6 A2.25,2.25 0 0 1 16.2,77.1 L20.4,89.093 L335.7,89.093 A1.5,1.5 0 0 1 337.2,90.593 L337.2,143.1 A1.5,1.5 0 0 1 335.7,144.6 L5.1,144.6 A1.5,1.5 0 0 1 3.6,143.1 L3.6,77.1 A1.5,1.5 0 0 1 5.1,75.6 " fill="#F0F0F0" style="stroke:#000000;stroke-width:0.8999999999999999;"/><line style="stroke:#000000;stroke-width:0.8999999999999999;" x1="3.6" x2="20.4" y1="89.093" y2="89.093"/><text fill="#000000" font-family="sans-serif" font-size="8.4" font-weight="bold" lengthAdjust="spacing" textLength="9" x="6" y="84.9211">UI</text></g><!--cluster Core--><g id="cluster_Core"><path d="M358.5,3.6 L378.9,3.6 A2.25,2.25 0 0 1 380.4,5.1 L384.6,17.093 L1542.9,17.093 A1.5,1.5 0 0 1 1544.4,18.593 L1544.4,282.9 A1.5,1.5 0 0 1 1542.9,284.4 L358.5,284.4 A1.5,1.5 0 0 1 357,282.9 L357,5.1 A1.5,1.5 0 0 1 358.5,3.6 " fill="#F0F0F0" style="stroke:#000000;stroke-width:0.8999999999999999;"/><line style="stroke:#000000;stroke-width:0.8999999999999999;" x1="357" x2="384.6" y1="17.093" y2="17.093"/><text fill="#000000" font-family="sans-serif" font-size="8.4" font-weight="bold" lengthAdjust="spacing" textLength="19.8" x="359.4" y="12.9211">Core</text></g><!--cluster Controller--><g id="cluster_Controller"><path d="M372.9,75.6 L417.3,75.6 A2.25,2.25 0 0 1 418.8,77.1 L423,89.093 L518.1,89.093 A1.5,1.5 0 0 1 519.6,90.593 L519.6,143.1 A1.5,1.5 0 0 1 518.1,144.6 L372.9,144.6 A1.5,1.5 0 0 1 371.4,143.1 L371.4,77.1 A1.5,1.5 0 0 1 372.9,75.6 " fill="#DDDDDD" style="stroke:#000000;stroke-width:0.8999999999999999;"/><line style="stroke:#000000;stroke-width:0.8999999999999999;" x1="371.4" x2="423" y1="89.093" y2="89.093"/><text fill="#000000" font-family="sans-serif" font-size="8.4" font-weight="bold" lengthAdjust="spacing" textLength="43.8" x="373.8" y="84.9211">Controller</text></g><!--cluster Mapper--><g id="cluster_Mapper"><path d="M1058.7,193.2 L1091.1,193.2 A2.25,2.25 0 0 1 1092.6,194.7 L1096.8,206.693 L1314.9,206.693 A1.5,1.5 0 0 1 1316.4,208.193 L1316.4,260.7 A1.5,1.5 0 0 1 1314.9,262.2 L1058.7,262.2 A1.5,1.5 0 0 1 1057.2,260.7 L1057.2,194.7 A1.5,1.5 0 0 1 1058.7,193.2 " fill="#DDDDDD" style="stroke:#000000;stroke-width:0.8999999999999999;"/><line style="stroke:#000000;stroke-width:0.8999999999999999;" x1="1057.2" x2="1096.8" y1="206.693" y2="206.693"/><text fill="#000000" font-family="sans-serif" font-size="8.4" font-weight="bold" lengthAdjust="spacing" textLength="31.8" x="1059.6" y="202.5211">Mapper</text></g><!--cluster DTO--><g id="cluster_DTO"><path d="M1337.7,197.4 L1358.1,197.4 A2.25,2.25 0 0 1 1359.6,198.9 L1363.8,210.893 L1528.5,210.893 A1.5,1.5 0 0 1 1530,212.393 L1530,264.9 A1.5,1.5 0 0 1 1528.5,266.4 L1337.7,266.4 A1.5,1.5 0 0 1 1336.2,264.9 L1336.2,198.9 A1.5,1.5 0 0 1 1337.7,197.4 " fill="#DDDDDD" style="stroke:#000000;stroke-width:0.8999999999999999;"/><line style="stroke:#000000;stroke-width:0.8999999999999999;" x1="1336.2" x2="1363.8" y1="210.893" y2="210.893"/><text fill="#000000" font-family="sans-serif" font-size="8.4" font-weight="bold" lengthAdjust="spacing" textLength="19.8" x="1338.6" y="206.7211">DTO</text></g><!--cluster Domain--><g id="cluster_Domain"><path d="M586.5,30 L620.7,30 A2.25,2.25 0 0 1 622.2,31.5 L626.4,43.493 L1266.9,43.493 A1.5,1.5 0 0 1 1268.4,44.993 L1268.4,177.3 A1.5,1.5 0 0 1 1266.9,178.8 L586.5,178.8 A1.5,1.5 0 0 1 585,177.3 L585,31.5 A1.5,1.5 0 0 1 586.5,30 " fill="#DDDDDD" style="stroke:#000000;stroke-width:0.8999999999999999;"/><line style="stroke:#000000;stroke-width:0.8999999999999999;" x1="585" x2="626.4" y1="43.493" y2="43.493"/><text fill="#000000" font-family="sans-serif" font-size="8.4" font-weight="bold" lengthAdjust="spacing" textLength="33.6" x="587.4" y="39.3211">Domain</text></g><!--cluster Repository--><g id="cluster_Repository"><path d="M600.9,55.8 L648.3,55.8 A2.25,2.25 0 0 1 649.8,57.3 L654,69.293 L1035.9,69.293 A1.5,1.5 0 0 1 1037.4,70.793 L1037.4,162.9 A1.5,1.5 0 0 1 1035.9,164.4 L600.9,164.4 A1.5,1.5 0 0 1 599.4,162.9 L599.4,57.3 A1.5,1.5 0 0 1 600.9,55.8 " fill="#BBBBBB" style="stroke:#000000;stroke-width:0.8999999999999999;"/><line style="stroke:#000000;stroke-width:0.8999999999999999;" x1="599.4" x2="654" y1="69.293" y2="69.293"/><text fill="#000000" font-family="sans-serif" font-size="8.4" font-weight="bold" lengthAdjust="spacing" textLength="46.8" x="601.8" y="65.1211">Repository</text></g><!--cluster Model--><g id="cluster_Model"><path d="M1121.1,65.4 L1148.1,65.4 A2.25,2.25 0 0 1 1149.6,66.9 L1153.8,78.893 L1252.5,78.893 A1.5,1.5 0 0 1 1254,80.393 L1254,153.3 A1.5,1.5 0 0 1 1252.5,154.8 L1121.1,154.8 A1.5,1.5 0 0 1 1119.6,153.3 L1119.6,66.9 A1.5,1.5 0 0 1 1121.1,65.4 " fill="#BBBBBB" style="stroke:#000000;stroke-width:0.8999999999999999;"/><line style="stroke:#000000;stroke-width:0.8999999999999999;" x1="1119.6" x2="1153.8" y1="78.893" y2="78.893"/><text fill="#000000" font-family="sans-serif" font-size="8.4" font-weight="bold" lengthAdjust="spacing" textLength="26.4" x="1122" y="74.7211">Model</text></g><!--class ViewDetailsEntryAgendaUI--><g id="elem_ViewDetailsEntryAgendaUI"><rect codeLine="7" fill="#F1F1F1" height="28.8" id="ViewDetailsEntryAgendaUI" rx="1.5" ry="1.5" style="stroke:#181818;stroke-width:0.3;" width="127.2" x="13.2" y="101.4"/><ellipse cx="22.2" cy="111" fill="#ADD1B2" rx="6.6" ry="6.6" style="stroke:#181818;stroke-width:0.6;"/><path d="M23.9839,114.3858 Q23.6353,114.5651 23.2518,114.6548 Q22.8683,114.7444 22.4449,114.7444 Q20.9408,114.7444 20.1489,113.7533 Q19.357,112.7622 19.357,110.8896 Q19.357,109.0119 20.1489,108.0208 Q20.9408,107.0297 22.4449,107.0297 Q22.8683,107.0297 23.2567,107.1193 Q23.6452,107.209 23.9839,107.3883 L23.9839,109.0219 Q23.6054,108.6732 23.2493,108.5114 Q22.8932,108.3495 22.5146,108.3495 Q21.7078,108.3495 21.2969,108.9895 Q20.886,109.6295 20.886,110.8896 Q20.886,112.1446 21.2969,112.7846 Q21.7078,113.4246 22.5146,113.4246 Q22.8932,113.4246 23.2493,113.2627 Q23.6054,113.1009 23.9839,112.7522 Z " fill="#000000"/><text fill="#000000" font-family="sans-serif" font-size="8.4" lengthAdjust="spacing" textLength="108" x="30.6" y="114.1746">ViewDetailsEntryAgendaUI</text><line style="stroke:#181818;stroke-width:0.3;" x1="13.8" x2="139.8" y1="120.6" y2="120.6"/><line style="stroke:#181818;stroke-width:0.3;" x1="13.8" x2="139.8" y1="125.4" y2="125.4"/></g><!--class PostponeUI--><g id="elem_PostponeUI"><rect codeLine="10" fill="#F1F1F1" height="38.693" id="PostponeUI" rx="1.5" ry="1.5" style="stroke:#181818;stroke-width:0.3;" width="150.6" x="177" y="96.456"/><ellipse cx="226.35" cy="106.056" fill="#ADD1B2" rx="6.6" ry="6.6" style="stroke:#181818;stroke-width:0.6;"/><path d="M228.1339,109.4418 Q227.7853,109.6211 227.4018,109.7108 Q227.0183,109.8004 226.5949,109.8004 Q225.0908,109.8004 224.2989,108.8093 Q223.507,107.8182 223.507,105.9456 Q223.507,104.0679 224.2989,103.0768 Q225.0908,102.0857 226.5949,102.0857 Q227.0183,102.0857 227.4067,102.1753 Q227.7952,102.265 228.1339,102.4443 L228.1339,104.0779 Q227.7554,103.7292 227.3993,103.5674 Q227.0432,103.4055 226.6646,103.4055 Q225.8578,103.4055 225.4469,104.0455 Q225.036,104.6855 225.036,105.9456 Q225.036,107.2006 225.4469,107.8406 Q225.8578,108.4806 226.6646,108.4806 Q227.0432,108.4806 227.3993,108.3187 Q227.7554,108.1569 228.1339,107.8082 Z " fill="#000000"/><text fill="#000000" font-family="sans-serif" font-size="8.4" lengthAdjust="spacing" textLength="46.8" x="238.65" y="109.2306">PostponeUI</text><line style="stroke:#181818;stroke-width:0.3;" x1="177.6" x2="327" y1="115.656" y2="115.656"/><line style="stroke:#181818;stroke-width:0.3;" x1="177.6" x2="327" y1="120.456" y2="120.456"/><text fill="#000000" font-family="sans-serif" font-size="8.4" lengthAdjust="spacing" textLength="143.4" x="180.6" y="130.9771">+setEntry(entryDto: EntryDto): void</text></g><!--class ViewDetailsEntryController--><g id="elem_ViewDetailsEntryController"><rect codeLine="24" fill="#F1F1F1" height="38.693" id="ViewDetailsEntryController" rx="1.5" ry="1.5" style="stroke:#181818;stroke-width:0.3;" width="129" x="381" y="96.456"/><ellipse cx="390" cy="106.056" fill="#ADD1B2" rx="6.6" ry="6.6" style="stroke:#181818;stroke-width:0.6;"/><path d="M391.7839,109.4418 Q391.4353,109.6211 391.0518,109.7108 Q390.6683,109.8004 390.2449,109.8004 Q388.7408,109.8004 387.9489,108.8093 Q387.157,107.8182 387.157,105.9456 Q387.157,104.0679 387.9489,103.0768 Q388.7408,102.0857 390.2449,102.0857 Q390.6683,102.0857 391.0567,102.1753 Q391.4452,102.265 391.7839,102.4443 L391.7839,104.0779 Q391.4054,103.7292 391.0493,103.5674 Q390.6932,103.4055 390.3146,103.4055 Q389.5078,103.4055 389.0969,104.0455 Q388.686,104.6855 388.686,105.9456 Q388.686,107.2006 389.0969,107.8406 Q389.5078,108.4806 390.3146,108.4806 Q390.6932,108.4806 391.0493,108.3187 Q391.4054,108.1569 391.7839,107.8082 Z " fill="#000000"/><text fill="#000000" font-family="sans-serif" font-size="8.4" lengthAdjust="spacing" textLength="109.8" x="398.4" y="109.2306">ViewDetailsEntryController</text><line style="stroke:#181818;stroke-width:0.3;" x1="381.6" x2="509.4" y1="115.656" y2="115.656"/><line style="stroke:#181818;stroke-width:0.3;" x1="381.6" x2="509.4" y1="120.456" y2="120.456"/><text fill="#000000" font-family="sans-serif" font-size="8.4" lengthAdjust="spacing" textLength="108" x="384.6" y="130.9771">+postponeEntry(entryDto)</text></g><!--class EntryMapper--><g id="elem_EntryMapper"><rect codeLine="35" fill="#F1F1F1" height="38.693" id="EntryMapper" rx="1.5" ry="1.5" style="stroke:#181818;stroke-width:0.3;" width="240" x="1066.8" y="214.056"/><ellipse cx="1158.15" cy="223.656" fill="#ADD1B2" rx="6.6" ry="6.6" style="stroke:#181818;stroke-width:0.6;"/><path d="M1159.9339,227.0418 Q1159.5853,227.2211 1159.2018,227.3108 Q1158.8183,227.4004 1158.3949,227.4004 Q1156.8908,227.4004 1156.0989,226.4093 Q1155.307,225.4182 1155.307,223.5456 Q1155.307,221.6679 1156.0989,220.6768 Q1156.8908,219.6857 1158.3949,219.6857 Q1158.8183,219.6857 1159.2067,219.7753 Q1159.5952,219.865 1159.9339,220.0443 L1159.9339,221.6779 Q1159.5554,221.3292 1159.1993,221.1674 Q1158.8432,221.0055 1158.4646,221.0055 Q1157.6578,221.0055 1157.2469,221.6455 Q1156.836,222.2855 1156.836,223.5456 Q1156.836,224.8006 1157.2469,225.4406 Q1157.6578,226.0806 1158.4646,226.0806 Q1158.8432,226.0806 1159.1993,225.9187 Q1159.5554,225.7569 1159.9339,225.4082 Z " fill="#000000"/><text fill="#000000" font-family="sans-serif" font-size="8.4" lengthAdjust="spacing" textLength="52.2" x="1170.45" y="226.8306">EntryMapper</text><line style="stroke:#181818;stroke-width:0.3;" x1="1067.4" x2="1306.2" y1="233.256" y2="233.256"/><line style="stroke:#181818;stroke-width:0.3;" x1="1067.4" x2="1306.2" y1="238.056" y2="238.056"/><text fill="#000000" font-family="sans-serif" font-size="8.4" lengthAdjust="spacing" textLength="232.8" x="1070.4" y="248.5771">+entryDtoToEntry(entryDto: EntryDto, entry: Entry): Entry</text></g><!--class EntryDto--><g id="elem_EntryDto"><rect codeLine="43" fill="#F1F1F1" height="38.693" id="EntryDto" rx="1.5" ry="1.5" style="stroke:#181818;stroke-width:0.3;" width="174.6" x="1345.8" y="218.256"/><ellipse cx="1412.85" cy="227.856" fill="#ADD1B2" rx="6.6" ry="6.6" style="stroke:#181818;stroke-width:0.6;"/><path d="M1414.6339,231.2418 Q1414.2853,231.4211 1413.9018,231.5108 Q1413.5183,231.6004 1413.0949,231.6004 Q1411.5908,231.6004 1410.7989,230.6093 Q1410.007,229.6182 1410.007,227.7456 Q1410.007,225.8679 1410.7989,224.8768 Q1411.5908,223.8857 1413.0949,223.8857 Q1413.5183,223.8857 1413.9067,223.9753 Q1414.2952,224.065 1414.6339,224.2443 L1414.6339,225.8779 Q1414.2554,225.5292 1413.8993,225.3674 Q1413.5432,225.2055 1413.1646,225.2055 Q1412.3578,225.2055 1411.9469,225.8455 Q1411.536,226.4855 1411.536,227.7456 Q1411.536,229.0006 1411.9469,229.6406 Q1412.3578,230.2806 1413.1646,230.2806 Q1413.5432,230.2806 1413.8993,230.1187 Q1414.2554,229.9569 1414.6339,229.6082 Z " fill="#000000"/><text fill="#000000" font-family="sans-serif" font-size="8.4" lengthAdjust="spacing" textLength="35.4" x="1425.15" y="231.0306">EntryDto</text><line style="stroke:#181818;stroke-width:0.3;" x1="1346.4" x2="1519.8" y1="237.456" y2="237.456"/><line style="stroke:#181818;stroke-width:0.3;" x1="1346.4" x2="1519.8" y1="242.256" y2="242.256"/><text fill="#000000" font-family="sans-serif" font-size="8.4" lengthAdjust="spacing" textLength="167.4" x="1349.4" y="252.7771">+postpone(newStartDate, newStartTime)</text></g><!--class Repositories--><g id="elem_Repositories"><rect codeLine="55" fill="#F1F1F1" height="78.2648" id="Repositories" rx="1.5" ry="1.5" style="stroke:#181818;stroke-width:0.3;" width="167.4" x="609" y="76.668"/><ellipse cx="664.65" cy="86.268" fill="#ADD1B2" rx="6.6" ry="6.6" style="stroke:#181818;stroke-width:0.6;"/><path d="M666.4339,89.6538 Q666.0853,89.8331 665.7018,89.9228 Q665.3183,90.0124 664.8949,90.0124 Q663.3908,90.0124 662.5989,89.0213 Q661.807,88.0302 661.807,86.1576 Q661.807,84.2799 662.5989,83.2888 Q663.3908,82.2977 664.8949,82.2977 Q665.3183,82.2977 665.7067,82.3873 Q666.0952,82.477 666.4339,82.6563 L666.4339,84.2899 Q666.0554,83.9412 665.6993,83.7794 Q665.3432,83.6175 664.9646,83.6175 Q664.1578,83.6175 663.7469,84.2575 Q663.336,84.8975 663.336,86.1576 Q663.336,87.4126 663.7469,88.0526 Q664.1578,88.6926 664.9646,88.6926 Q665.3432,88.6926 665.6993,88.5307 Q666.0554,88.3689 666.4339,88.0202 Z " fill="#000000"/><text fill="#000000" font-family="sans-serif" font-size="8.4" lengthAdjust="spacing" textLength="51" x="676.95" y="89.4426">Repositories</text><line style="stroke:#181818;stroke-width:0.3;" x1="609.6" x2="775.8" y1="95.868" y2="95.868"/><text fill="#000000" font-family="sans-serif" font-size="8.4" lengthAdjust="spacing" textLength="139.2" x="612.6" y="106.3891">-entryRepository: EntryRepository</text><text fill="#000000" font-family="sans-serif" font-size="8.4" lengthAdjust="spacing" textLength="118.8" x="612.6" y="116.2821">-static instance: Repositories</text><line style="stroke:#181818;stroke-width:0.3;" x1="609.6" x2="775.8" y1="120.4539" y2="120.4539"/><text fill="#000000" font-family="sans-serif" font-size="8.4" lengthAdjust="spacing" textLength="115.8" x="612.6" y="130.975">+getInstance(): Repositories</text><text fill="#000000" font-family="sans-serif" font-size="8.4" lengthAdjust="spacing" textLength="160.2" x="612.6" y="140.868">+getEntryRepository(): EntryRepository</text><text fill="#000000" font-family="sans-serif" font-size="8.4" lengthAdjust="spacing" textLength="61.8" x="612.6" y="150.761">-Repositories()</text></g><!--class EntryRepository--><g id="elem_EntryRepository"><rect codeLine="63" fill="#F1F1F1" height="68.3719" id="EntryRepository" rx="1.5" ry="1.5" style="stroke:#181818;stroke-width:0.3;" width="214.8" x="813" y="81.612"/><ellipse cx="885.45" cy="91.212" fill="#ADD1B2" rx="6.6" ry="6.6" style="stroke:#181818;stroke-width:0.6;"/><path d="M887.2339,94.5978 Q886.8853,94.7771 886.5018,94.8668 Q886.1183,94.9564 885.6949,94.9564 Q884.1908,94.9564 883.3989,93.9653 Q882.607,92.9742 882.607,91.1016 Q882.607,89.2239 883.3989,88.2328 Q884.1908,87.2417 885.6949,87.2417 Q886.1183,87.2417 886.5067,87.3313 Q886.8952,87.421 887.2339,87.6003 L887.2339,89.2339 Q886.8554,88.8852 886.4993,88.7234 Q886.1432,88.5615 885.7646,88.5615 Q884.9578,88.5615 884.5469,89.2015 Q884.136,89.8415 884.136,91.1016 Q884.136,92.3566 884.5469,92.9966 Q884.9578,93.6366 885.7646,93.6366 Q886.1432,93.6366 886.4993,93.4747 Q886.8554,93.3129 887.2339,92.9642 Z " fill="#000000"/><text fill="#000000" font-family="sans-serif" font-size="8.4" lengthAdjust="spacing" textLength="64.8" x="897.75" y="94.3866">EntryRepository</text><line style="stroke:#181818;stroke-width:0.3;" x1="813.6" x2="1027.2" y1="100.812" y2="100.812"/><text fill="#000000" font-family="sans-serif" font-size="8.4" lengthAdjust="spacing" textLength="85.8" x="816.6" y="111.3331">-agenda: AgendaList</text><line style="stroke:#181818;stroke-width:0.3;" x1="813.6" x2="1027.2" y1="115.505" y2="115.505"/><text fill="#000000" font-family="sans-serif" font-size="8.4" lengthAdjust="spacing" textLength="108" x="816.6" y="126.0261">+getAgenda(): AgendaList</text><text fill="#000000" font-family="sans-serif" font-size="8.4" lengthAdjust="spacing" textLength="108" x="816.6" y="135.919">+postponeEntry(entryDto)</text><text fill="#000000" font-family="sans-serif" font-size="8.4" lengthAdjust="spacing" textLength="207.6" x="816.6" y="145.812">+searchForEntryAgenda(entryDto: EntryDto): Entry</text></g><!--class Entry--><g id="elem_Entry"><rect codeLine="77" fill="#F1F1F1" height="58.4789" id="Entry" rx="1.5" ry="1.5" style="stroke:#181818;stroke-width:0.3;" width="115.2" x="1129.2" y="86.562"/><ellipse cx="1173.75" cy="96.162" fill="#ADD1B2" rx="6.6" ry="6.6" style="stroke:#181818;stroke-width:0.6;"/><path d="M1175.5339,99.5478 Q1175.1853,99.7271 1174.8018,99.8168 Q1174.4183,99.9064 1173.9949,99.9064 Q1172.4908,99.9064 1171.6989,98.9153 Q1170.907,97.9242 1170.907,96.0516 Q1170.907,94.1739 1171.6989,93.1828 Q1172.4908,92.1917 1173.9949,92.1917 Q1174.4183,92.1917 1174.8067,92.2813 Q1175.1952,92.371 1175.5339,92.5503 L1175.5339,94.1839 Q1175.1554,93.8352 1174.7993,93.6734 Q1174.4432,93.5115 1174.0646,93.5115 Q1173.2578,93.5115 1172.8469,94.1515 Q1172.436,94.7915 1172.436,96.0516 Q1172.436,97.3066 1172.8469,97.9466 Q1173.2578,98.5866 1174.0646,98.5866 Q1174.4432,98.5866 1174.7993,98.4247 Q1175.1554,98.2629 1175.5339,97.9142 Z " fill="#000000"/><text fill="#000000" font-family="sans-serif" font-size="8.4" lengthAdjust="spacing" textLength="21" x="1186.05" y="99.3366">Entry</text><line style="stroke:#181818;stroke-width:0.3;" x1="1129.8" x2="1243.8" y1="105.762" y2="105.762"/><text fill="#000000" font-family="sans-serif" font-size="8.4" lengthAdjust="spacing" textLength="60.6" x="1132.8" y="116.2831">+status: String</text><text fill="#000000" font-family="sans-serif" font-size="8.4" lengthAdjust="spacing" textLength="67.2" x="1132.8" y="126.1761">+startDate: Date</text><line style="stroke:#181818;stroke-width:0.3;" x1="1129.8" x2="1243.8" y1="130.3479" y2="130.3479"/><text fill="#000000" font-family="sans-serif" font-size="8.4" lengthAdjust="spacing" textLength="108" x="1132.8" y="140.869">+postponeEntry(entryDto)</text></g><!--link ViewDetailsEntryAgendaUI to PostponeUI--><g id="link_ViewDetailsEntryAgendaUI_PostponeUI"><path codeLine="90" d="M140.574,115.8 C152.364,115.8 161.184,115.8 173.286,115.8 " fill="none" id="ViewDetailsEntryAgendaUI-to-PostponeUI" style="stroke:#181818;stroke-width:0.6;stroke-dasharray:7.0,7.0;"/><polygon fill="#181818" points="176.886,115.8,171.486,113.4,173.886,115.8,171.486,118.2,176.886,115.8" style="stroke:#181818;stroke-width:0.6;"/></g><!--link PostponeUI to ViewDetailsEntryController--><g id="link_PostponeUI_ViewDetailsEntryController"><path codeLine="91" d="M327.684,115.8 C345.216,115.8 360.138,115.8 377.16,115.8 " fill="none" id="PostponeUI-to-ViewDetailsEntryController" style="stroke:#181818;stroke-width:0.6;stroke-dasharray:7.0,7.0;"/><polygon fill="#181818" points="380.76,115.8,375.36,113.4,377.76,115.8,375.36,118.2,380.76,115.8" style="stroke:#181818;stroke-width:0.6;"/></g><!--link ViewDetailsEntryController to Repositories--><g id="link_ViewDetailsEntryController_Repositories"><path codeLine="92" d="M510.252,115.8 C540.36,115.8 573.024,115.8 605.22,115.8 " fill="none" id="ViewDetailsEntryController-to-Repositories" style="stroke:#181818;stroke-width:0.6;stroke-dasharray:7.0,7.0;"/><polygon fill="#181818" points="608.82,115.8,603.42,113.4,605.82,115.8,603.42,118.2,608.82,115.8" style="stroke:#181818;stroke-width:0.6;"/><text fill="#000000" font-family="sans-serif" font-size="7.8" lengthAdjust="spacing" textLength="45" x="529.8" y="113.741">repositories</text></g><!--link ViewDetailsEntryController to EntryRepository--><g id="link_ViewDetailsEntryController_EntryRepository"><path codeLine="93" d="M487.002,96.276 C513.03,84.954 547.812,71.82 580.2,66 C666.024,50.58 690.414,51.492 776.4,66 C796.02,69.312 813.1239,73.8641 832.3059,80.2421 " fill="none" id="ViewDetailsEntryController-to-EntryRepository" style="stroke:#181818;stroke-width:0.6;stroke-dasharray:7.0,7.0;"/><polygon fill="#181818" points="835.722,81.378,831.3551,77.3968,832.8752,80.4315,829.8406,81.9516,835.722,81.378" style="stroke:#181818;stroke-width:0.6;"/><text fill="#000000" font-family="sans-serif" font-size="7.8" lengthAdjust="spacing" textLength="59.4" x="663" y="53.141">entryRepository</text></g><!--link ViewDetailsEntryController to EntryDto--><g id="link_ViewDetailsEntryController_EntryDto"><path codeLine="97" d="M461.814,135.384 C497.742,177.762 590.634,274.2 692.1,274.2 C692.1,274.2 692.1,274.2 1187.4,274.2 C1247.106,274.2 1262.196,271.326 1321.2,262.2 C1330.296,260.796 1336.2261,259.7829 1345.6221,257.9289 " fill="none" id="ViewDetailsEntryController-to-EntryDto" style="stroke:#181818;stroke-width:0.6;stroke-dasharray:7.0,7.0;"/><polygon fill="#181818" points="1349.154,257.232,1343.3915,255.9228,1346.2107,257.8128,1344.3208,260.632,1349.154,257.232" style="stroke:#181818;stroke-width:0.6;"/></g><!--link EntryRepository to EntryMapper--><g id="link_EntryRepository_EntryMapper"><path codeLine="98" d="M998.598,150.21 C1045.296,170.916 1099.767,195.0708 1138.767,212.3628 " fill="none" id="EntryRepository-to-EntryMapper" style="stroke:#181818;stroke-width:0.6;stroke-dasharray:7.0,7.0;"/><polygon fill="#181818" points="1142.058,213.822,1138.0943,209.4392,1139.3155,212.606,1136.1487,213.8272,1142.058,213.822" style="stroke:#181818;stroke-width:0.6;"/></g><!--link EntryRepository to Entry--><g id="link_EntryRepository_Entry"><path codeLine="103" d="M1027.914,115.8 C1062.504,115.8 1095.924,115.8 1125.462,115.8 " fill="none" id="EntryRepository-to-Entry" style="stroke:#181818;stroke-width:0.6;"/><polygon fill="#181818" points="1129.062,115.8,1123.662,113.4,1126.062,115.8,1123.662,118.2,1129.062,115.8" style="stroke:#181818;stroke-width:0.6;"/><text fill="#000000" font-family="sans-serif" font-size="7.8" lengthAdjust="spacing" textLength="4.8" x="1032.551" y="123.5349">1</text><text fill="#000000" font-family="sans-serif" font-size="7.8" lengthAdjust="spacing" textLength="3.6" x="1120.7176" y="123.7069">*</text></g><!--link Repositories to EntryRepository--><g id="link_Repositories_EntryRepository"><path codeLine="105" d="M776.676,115.8 C788.472,115.8 797.13,115.8 809.292,115.8 " fill="none" id="Repositories-to-EntryRepository" style="stroke:#181818;stroke-width:0.6;"/><polygon fill="#181818" points="812.892,115.8,807.492,113.4,809.892,115.8,807.492,118.2,812.892,115.8" style="stroke:#181818;stroke-width:0.6;"/><text fill="#000000" font-family="sans-serif" font-size="7.8" lengthAdjust="spacing" textLength="4.8" x="781.1298" y="123.5778">1</text><text fill="#000000" font-family="sans-serif" font-size="7.8" lengthAdjust="spacing" textLength="4.8" x="803.4553" y="123.5349">1</text></g><!--link EntryMapper to EntryDto--><g id="link_EntryMapper_EntryDto"><path codeLine="107" d="M1307.076,235.452 C1320.078,235.674 1329.5285,235.8338 1342.0265,236.0498 " fill="none" id="EntryMapper-to-EntryDto" style="stroke:#181818;stroke-width:0.6;stroke-dasharray:7.0,7.0;"/><polygon fill="#181818" points="1345.626,236.112,1340.2683,233.619,1342.6264,236.0602,1340.1853,238.4183,1345.626,236.112" style="stroke:#181818;stroke-width:0.6;"/></g><!--SRC=[ZPHHRvim4CVV_IbEx2LiJTM-yb2fMZefqgfDIxft5ox4Ah6HVLtKLVdk0vk0CIQh8oM4-_lkn-7xcnSXQwxv0SoU5-eeP0axNXbafe_a5JVcdaYBvrV2TQxaHln5k66imXq1AT2Yt1CKGcDEGad6Qfw_y18XULedy6btqtxU6JJB9eFV0eyh92ugyo19lzsNA0l-j0OdEZ5F-rCPgfN4FjgkBmR9xbnW-xqYbS53TvLcy4U9eijqycY-AeqUZrkjp5CqILHLeMvqXLtlhAyQXn_sU80MikxGnwJfaB1xq5D0ySZhUap0HeaTXytgf45XM_nSRglc6dK5zbvt8-r-nwLE8Ui8TBNz4UjJmDYKYW6UkxEGUDmGrxJYX5Tm_hSL1qm3badd1X9ru4A6C5FYNzYK5QJqMwDzjYiAtki4cWZyqhLkoDOrRxWHsMA8ayX1oEP2vfYDYapx0oNIkjCkqe-e0uH5-X4gF-rYql2PLpfaZ3Q7stdEmCtrTs4e3kpYBUT5vTmSJPK6kSxttvJsR2Lk4UwiXyUBNJpkZwh0wlAviMaX23d7Qjx-gybWqnYfBADnDm8PjD_pytAf2-CHwHsGpHhkzVMTvx3CCzisCczrx88BjZj7yvE1zi_kVxQ61omBPur57YYMe_KT5cRheyuvxJiFDSbj0ilb7IIVaxCdZfwdZzycam5ZlYtxA8pz0m00]--></g></svg>