<?xml version="1.0" encoding="us-ascii" standalone="no"?><svg xmlns="http://www.w3.org/2000/svg" xmlns:xlink="http://www.w3.org/1999/xlink" contentStyleType="text/css" height="506px" preserveAspectRatio="none" style="width:865px;height:506px;background:#FFFFFF;" version="1.1" viewBox="0 0 865 506" width="865px" zoomAndPan="magnify"><defs/><g><rect fill="#FFFFFF" height="307.6191" style="stroke:#181818;stroke-width:1.0;" width="10" x="281" y="125.1152"/><rect fill="#FFFFFF" height="130.873" style="stroke:#181818;stroke-width:1.0;" width="10" x="286" y="256.5703"/><rect fill="#FFFFFF" height="42.291" style="stroke:#181818;stroke-width:1.0;" width="10" x="291" y="300.8613"/><rect fill="none" height="262.3281" style="stroke:#000000;stroke-width:1.5;" width="665" x="194" y="140.1152"/><line style="stroke:#181818;stroke-width:0.5;stroke-dasharray:5.0,5.0;" x1="286" x2="286" y1="57.2422" y2="450.7344"/><line style="stroke:#181818;stroke-width:0.5;stroke-dasharray:5.0,5.0;" x1="801" x2="801" y1="202.3428" y2="450.7344"/><rect fill="#E3E3E3" height="51.2422" rx="2.5" ry="2.5" style="stroke:#181818;stroke-width:0.5;" width="164" x="204" y="5"/><text fill="#000000" font-family="sans-serif" font-size="14" lengthAdjust="spacing" textLength="143" x="214.5" y="27.1074">collaboratorRepository</text><text fill="#000000" font-family="sans-serif" font-size="14" lengthAdjust="spacing" textLength="150" x="211" y="45.7285">:CollaboratorRepository</text><rect fill="#E3E3E3" height="51.2422" rx="2.5" ry="2.5" style="stroke:#181818;stroke-width:0.5;" width="164" x="204" y="449.7344"/><text fill="#000000" font-family="sans-serif" font-size="14" lengthAdjust="spacing" textLength="143" x="214.5" y="471.8418">collaboratorRepository</text><text fill="#000000" font-family="sans-serif" font-size="14" lengthAdjust="spacing" textLength="150" x="211" y="490.4629">:CollaboratorRepository</text><rect fill="#E3E3E3" height="51.2422" rx="2.5" ry="2.5" style="stroke:#181818;stroke-width:0.5;" width="96" x="753" y="449.7344"/><text fill="#000000" font-family="sans-serif" font-size="14" lengthAdjust="spacing" textLength="75" x="763.5" y="471.8418">collaborator</text><text fill="#000000" font-family="sans-serif" font-size="14" lengthAdjust="spacing" textLength="82" x="760" y="490.4629">:Collaborator</text><rect fill="#FFFFFF" height="307.6191" style="stroke:#181818;stroke-width:1.0;" width="10" x="281" y="125.1152"/><rect fill="#FFFFFF" height="130.873" style="stroke:#181818;stroke-width:1.0;" width="10" x="286" y="256.5703"/><rect fill="#FFFFFF" height="42.291" style="stroke:#181818;stroke-width:1.0;" width="10" x="291" y="300.8613"/><polygon fill="#181818" points="269,121.1152,279,125.1152,269,129.1152,273,125.1152" style="stroke:#181818;stroke-width:1.0;"/><line style="stroke:#181818;stroke-width:1.0;" x1="0" x2="275" y1="125.1152" y2="125.1152"/><text fill="#000000" font-family="sans-serif" font-size="13" font-weight="bold" lengthAdjust="spacing" textLength="14" x="7" y="102.5615">16</text><text fill="#000000" font-family="sans-serif" font-size="13" lengthAdjust="spacing" textLength="244" x="25" y="85.2705">registerCollaborator(reference, description,</text><text fill="#000000" font-family="sans-serif" font-size="13" lengthAdjust="spacing" textLength="239" x="25" y="102.5615">informalDescription, technicalDescription,</text><text fill="#000000" font-family="sans-serif" font-size="13" lengthAdjust="spacing" textLength="236" x="25" y="119.8525">duration, cost, taskCategory, employee )</text><path d="M194,140.1152 L314,140.1152 L314,149.4063 L304,159.4063 L194,159.4063 L194,140.1152 " fill="#EEEEEE" style="stroke:#000000;stroke-width:1.5;"/><rect fill="none" height="262.3281" style="stroke:#000000;stroke-width:1.5;" width="665" x="194" y="140.1152"/><text fill="#000000" font-family="sans-serif" font-size="13" font-weight="bold" lengthAdjust="spacing" textLength="75" x="209" y="155.1436">Create Task</text><polygon fill="#181818" points="741,213.2793,751,217.2793,741,221.2793,745,217.2793" style="stroke:#181818;stroke-width:1.0;"/><line style="stroke:#181818;stroke-width:1.0;" x1="291" x2="747" y1="217.2793" y2="217.2793"/><text fill="#000000" font-family="sans-serif" font-size="13" font-weight="bold" lengthAdjust="spacing" textLength="25" x="298" y="194.7256">16.1</text><text fill="#000000" font-family="sans-serif" font-size="13" lengthAdjust="spacing" textLength="302" x="327" y="177.4346">Collaborator(name, date of birthday, admission data,</text><text fill="#000000" font-family="sans-serif" font-size="13" lengthAdjust="spacing" textLength="405" x="331" y="194.7256">address street, zipcode, address city, email, phone number, docType,</text><text fill="#000000" font-family="sans-serif" font-size="13" lengthAdjust="spacing" textLength="159" x="331" y="212.0166">docIDNumber, jobCategory)</text><rect fill="#E3E3E3" height="51.2422" rx="2.5" ry="2.5" style="stroke:#181818;stroke-width:0.5;" width="96" x="753" y="163.0371"/><text fill="#000000" font-family="sans-serif" font-size="14" lengthAdjust="spacing" textLength="75" x="763.5" y="185.1445">collaborator</text><text fill="#000000" font-family="sans-serif" font-size="14" lengthAdjust="spacing" textLength="82" x="760" y="203.7656">:Collaborator</text><line style="stroke:#181818;stroke-width:1.0;" x1="291" x2="338" y1="243.5703" y2="243.5703"/><line style="stroke:#181818;stroke-width:1.0;" x1="338" x2="338" y1="243.5703" y2="256.5703"/><line style="stroke:#181818;stroke-width:1.0;" x1="297" x2="338" y1="256.5703" y2="256.5703"/><polygon fill="#181818" points="307,252.5703,297,256.5703,307,260.5703,303,256.5703" style="stroke:#181818;stroke-width:1.0;"/><text fill="#000000" font-family="sans-serif" font-size="13" font-weight="bold" lengthAdjust="spacing" textLength="25" x="303" y="238.3076">16.2</text><text fill="#000000" font-family="sans-serif" font-size="13" lengthAdjust="spacing" textLength="169" x="332" y="238.3076">addCollaborator (collaborator)</text><line style="stroke:#181818;stroke-width:1.0;" x1="296" x2="343" y1="287.8613" y2="287.8613"/><line style="stroke:#181818;stroke-width:1.0;" x1="343" x2="343" y1="287.8613" y2="300.8613"/><line style="stroke:#181818;stroke-width:1.0;" x1="302" x2="343" y1="300.8613" y2="300.8613"/><polygon fill="#181818" points="312,296.8613,302,300.8613,312,304.8613,308,300.8613" style="stroke:#181818;stroke-width:1.0;"/><text fill="#000000" font-family="sans-serif" font-size="13" font-weight="bold" lengthAdjust="spacing" textLength="25" x="308" y="282.5986">16.3</text><text fill="#000000" font-family="sans-serif" font-size="13" lengthAdjust="spacing" textLength="187" x="337" y="282.5986">validateCollaborator(collaborator)</text><line style="stroke:#181818;stroke-width:1.0;stroke-dasharray:2.0,2.0;" x1="301" x2="343" y1="342.1523" y2="342.1523"/><line style="stroke:#181818;stroke-width:1.0;stroke-dasharray:2.0,2.0;" x1="343" x2="343" y1="342.1523" y2="355.1523"/><line style="stroke:#181818;stroke-width:1.0;stroke-dasharray:2.0,2.0;" x1="296" x2="343" y1="355.1523" y2="355.1523"/><polygon fill="#181818" points="306,351.1523,296,355.1523,306,359.1523,302,355.1523" style="stroke:#181818;stroke-width:1.0;"/><text fill="#000000" font-family="sans-serif" font-size="13" font-weight="bold" lengthAdjust="spacing" textLength="25" x="308" y="336.8896">16.4</text><text fill="#000000" font-family="sans-serif" font-size="13" lengthAdjust="spacing" textLength="4" x="337" y="336.8896">&#160;</text><line style="stroke:#181818;stroke-width:1.0;stroke-dasharray:2.0,2.0;" x1="296" x2="338" y1="386.4434" y2="386.4434"/><line style="stroke:#181818;stroke-width:1.0;stroke-dasharray:2.0,2.0;" x1="338" x2="338" y1="386.4434" y2="399.4434"/><line style="stroke:#181818;stroke-width:1.0;stroke-dasharray:2.0,2.0;" x1="291" x2="338" y1="399.4434" y2="399.4434"/><polygon fill="#181818" points="301,395.4434,291,399.4434,301,403.4434,297,399.4434" style="stroke:#181818;stroke-width:1.0;"/><text fill="#000000" font-family="sans-serif" font-size="13" font-weight="bold" lengthAdjust="spacing" textLength="25" x="303" y="381.1807">16.5</text><text fill="#000000" font-family="sans-serif" font-size="13" lengthAdjust="spacing" textLength="4" x="332" y="381.1807">&#160;</text><polygon fill="#181818" points="11,428.7344,1,432.7344,11,436.7344,7,432.7344" style="stroke:#181818;stroke-width:1.0;"/><line style="stroke:#181818;stroke-width:1.0;stroke-dasharray:2.0,2.0;" x1="5" x2="285" y1="432.7344" y2="432.7344"/><text fill="#000000" font-family="sans-serif" font-size="13" font-weight="bold" lengthAdjust="spacing" textLength="14" x="17" y="427.4717">17</text><text fill="#000000" font-family="sans-serif" font-size="13" lengthAdjust="spacing" textLength="122" x="35" y="427.4717">true / collaboratorList</text><!--SRC=[XLF1QXin5BphAnuvnM6TaaiBflJYG0cK5j8SVNcMddTLQ_M4f4rnlxvFSkjgDmdLISoy6Sr8k-beVS288upiMG-HHu8S9rBfmWJKH-pfUpuvWaWwe-zTEv06DFpJ-XuEw18f9N2ssWRq6QuqEuTxZfWvFbBWP6LpsldDzbNY2Z31jyVFRviif5NGyahXbDbFuvuYtBrNwq_5RoFHUvionLPy7Ub0aRoc3Wmb7Mt8bdstyzOVE8xexXiKCkd1Mpr7TzvCObO7DASiOvYEMypKIvyEQ0oEJqImMYIxlLEeitsMoTeOPFMHfm3RI0Ly4XzLuR9a1AHBM_NcPWEpEXx7qgI8-G1x6_DWK3AW6MrA4h5mA945CP5IWfGZaMJ-PODcGzs5q3RNy6XT1s5WJt1EBlwidqw1Yeri7-w__i5_yFvlxTKoTdq2yMxZmdLRPlMlwejhUSti6PqjJMSNC3TifMzwNdpFnZFEq4oc_gTPp1U8l3dhshV_K96FwtLrsTHV3jxDtlQBVAngUVvl]--></g></svg>