<?xml version="1.0" encoding="us-ascii" standalone="no"?><svg xmlns="http://www.w3.org/2000/svg" xmlns:xlink="http://www.w3.org/1999/xlink" contentStyleType="text/css" height="1261px" preserveAspectRatio="none" style="width:2129px;height:1261px;background:#FFFFFF;" version="1.1" viewBox="0 0 2129 1261" width="2129px" zoomAndPan="magnify"><defs/><g><rect fill="#FFFFFF" height="1071.293" style="stroke:#181818;stroke-width:1.0;" width="10" x="18" y="91.4883"/><rect fill="#FFFFFF" height="437.8359" style="stroke:#181818;stroke-width:1.0;" width="10" x="475" y="112.7988"/><rect fill="#FFFFFF" height="582.8359" style="stroke:#181818;stroke-width:1.0;" width="10" x="475" y="579.9453"/><rect fill="#FFFFFF" height="322.416" style="stroke:#181818;stroke-width:1.0;" width="10" x="748" y="183.5977"/><rect fill="#FFFFFF" height="524.2148" style="stroke:#181818;stroke-width:1.0;" width="10" x="748" y="609.2559"/><rect fill="#FFFFFF" height="29.3105" style="stroke:#181818;stroke-width:1.0;" width="10" x="922" y="212.9082"/><rect fill="#FFFFFF" height="29.3105" style="stroke:#181818;stroke-width:1.0;" width="10" x="1035" y="271.5293"/><rect fill="#FFFFFF" height="146.5527" style="stroke:#181818;stroke-width:1.0;" width="10" x="1231" y="330.1504"/><rect fill="#FFFFFF" height="414.9727" style="stroke:#181818;stroke-width:1.0;" width="10" x="1231" y="689.1875"/><rect fill="#FFFFFF" height="87.9316" style="stroke:#181818;stroke-width:1.0;" width="10" x="1484" y="359.4609"/><rect fill="#FFFFFF" height="29.3105" style="stroke:#181818;stroke-width:1.0;" width="10" x="1684" y="388.7715"/><rect fill="#FFFFFF" height="30" style="stroke:#181818;stroke-width:1.0;" width="10" x="1844.5" y="753.8086"/><rect fill="#FFFFFF" height="30" style="stroke:#181818;stroke-width:1.0;" width="10" x="1844.5" y="813.1191"/><rect fill="#FFFFFF" height="30" style="stroke:#181818;stroke-width:1.0;" width="10" x="1844.5" y="872.4297"/><rect fill="#FFFFFF" height="30" style="stroke:#181818;stroke-width:1.0;" width="10" x="1844.5" y="931.7402"/><rect fill="#FFFFFF" height="31.4883" style="stroke:#181818;stroke-width:1.0;" width="10" x="2028.5" y="1001.0508"/><line style="stroke:#181818;stroke-width:0.5;stroke-dasharray:5.0,5.0;" x1="23" x2="23" y1="81.4883" y2="1180.7813"/><line style="stroke:#181818;stroke-width:0.5;stroke-dasharray:5.0,5.0;" x1="479.5" x2="479.5" y1="81.4883" y2="1180.7813"/><line style="stroke:#181818;stroke-width:0.5;stroke-dasharray:5.0,5.0;" x1="752.5" x2="752.5" y1="151.543" y2="1180.7813"/><line style="stroke:#181818;stroke-width:0.5;stroke-dasharray:5.0,5.0;" x1="926.5" x2="926.5" y1="81.4883" y2="1180.7813"/><line style="stroke:#181818;stroke-width:0.5;stroke-dasharray:5.0,5.0;" x1="1039.5" x2="1039.5" y1="81.4883" y2="1180.7813"/><line style="stroke:#181818;stroke-width:0.5;stroke-dasharray:5.0,5.0;" x1="1235.5" x2="1235.5" y1="81.4883" y2="1180.7813"/><line style="stroke:#181818;stroke-width:0.5;stroke-dasharray:5.0,5.0;" x1="1488.5" x2="1488.5" y1="81.4883" y2="1180.7813"/><line style="stroke:#181818;stroke-width:0.5;stroke-dasharray:5.0,5.0;" x1="1689" x2="1689" y1="81.4883" y2="1180.7813"/><line style="stroke:#181818;stroke-width:0.5;stroke-dasharray:5.0,5.0;" x1="1849" x2="1849" y1="81.4883" y2="1180.7813"/><line style="stroke:#181818;stroke-width:0.5;stroke-dasharray:5.0,5.0;" x1="2033" x2="2033" y1="1000.4844" y2="1180.7813"/><text fill="#000000" font-family="sans-serif" font-size="14" lengthAdjust="spacing" textLength="30" x="5" y="78.5352">GSM</text><ellipse cx="23" cy="13.5" fill="#E3E3E3" rx="8" ry="8" style="stroke:#181818;stroke-width:0.5;"/><path d="M23,21.5 L23,48.5 M10,29.5 L36,29.5 M23,48.5 L10,63.5 M23,48.5 L36,63.5 " fill="none" style="stroke:#181818;stroke-width:0.5;"/><text fill="#000000" font-family="sans-serif" font-size="14" lengthAdjust="spacing" textLength="30" x="5" y="1193.3164">GSM</text><ellipse cx="23" cy="1204.7695" fill="#E3E3E3" rx="8" ry="8" style="stroke:#181818;stroke-width:0.5;"/><path d="M23,1212.7695 L23,1239.7695 M10,1220.7695 L36,1220.7695 M23,1239.7695 L10,1254.7695 M23,1239.7695 L36,1254.7695 " fill="none" style="stroke:#181818;stroke-width:0.5;"/><rect fill="#E3E3E3" height="30.4883" rx="2.5" ry="2.5" style="stroke:#181818;stroke-width:0.5;" width="169" x="395.5" y="50"/><text fill="#000000" font-family="sans-serif" font-size="14" lengthAdjust="spacing" textLength="155" x="402.5" y="70.5352">:RegisterGreenSpaceUI</text><rect fill="#E3E3E3" height="30.4883" rx="2.5" ry="2.5" style="stroke:#181818;stroke-width:0.5;" width="169" x="395.5" y="1179.7813"/><text fill="#000000" font-family="sans-serif" font-size="14" lengthAdjust="spacing" textLength="155" x="402.5" y="1200.3164">:RegisterGreenSpaceUI</text><rect fill="#E3E3E3" height="30.4883" rx="2.5" ry="2.5" style="stroke:#181818;stroke-width:0.5;" width="225" x="640.5" y="1179.7813"/><text fill="#000000" font-family="sans-serif" font-size="14" lengthAdjust="spacing" textLength="211" x="647.5" y="1200.3164">:RegisterGreenSpaceController</text><rect fill="#E3E3E3" height="30.4883" rx="2.5" ry="2.5" style="stroke:#181818;stroke-width:0.5;" width="103" x="875.5" y="50"/><text fill="#000000" font-family="sans-serif" font-size="14" lengthAdjust="spacing" textLength="89" x="882.5" y="70.5352">:Repositories</text><rect fill="#E3E3E3" height="30.4883" rx="2.5" ry="2.5" style="stroke:#181818;stroke-width:0.5;" width="103" x="875.5" y="1179.7813"/><text fill="#000000" font-family="sans-serif" font-size="14" lengthAdjust="spacing" textLength="89" x="882.5" y="1200.3164">:Repositories</text><rect fill="#E3E3E3" height="46.9766" rx="2.5" ry="2.5" style="stroke:#181818;stroke-width:0.5;" width="103" x="988.5" y="33.5117"/><text fill="#000000" font-family="sans-serif" font-size="14" lengthAdjust="spacing" textLength="82" x="999" y="54.0469">repositories</text><text fill="#000000" font-family="sans-serif" font-size="14" lengthAdjust="spacing" textLength="89" x="995.5" y="70.5352">:Repositories</text><rect fill="#E3E3E3" height="46.9766" rx="2.5" ry="2.5" style="stroke:#181818;stroke-width:0.5;" width="103" x="988.5" y="1179.7813"/><text fill="#000000" font-family="sans-serif" font-size="14" lengthAdjust="spacing" textLength="82" x="999" y="1200.3164">repositories</text><text fill="#000000" font-family="sans-serif" font-size="14" lengthAdjust="spacing" textLength="89" x="995.5" y="1216.8047">:Repositories</text><rect fill="#E3E3E3" height="30.4883" rx="2.5" ry="2.5" style="stroke:#181818;stroke-width:0.5;" width="269" x="1101.5" y="50"/><text fill="#000000" font-family="sans-serif" font-size="14" lengthAdjust="spacing" textLength="255" x="1108.5" y="70.5352">organizationRepository:Organization</text><rect fill="#E3E3E3" height="30.4883" rx="2.5" ry="2.5" style="stroke:#181818;stroke-width:0.5;" width="269" x="1101.5" y="1179.7813"/><text fill="#000000" font-family="sans-serif" font-size="14" lengthAdjust="spacing" textLength="255" x="1108.5" y="1200.3164">organizationRepository:Organization</text><rect fill="#E3E3E3" height="30.4883" rx="2.5" ry="2.5" style="stroke:#181818;stroke-width:0.5;" width="99" x="1439.5" y="50"/><text fill="#000000" font-family="sans-serif" font-size="14" lengthAdjust="spacing" textLength="85" x="1446.5" y="70.5352">:GreenSpace</text><rect fill="#E3E3E3" height="30.4883" rx="2.5" ry="2.5" style="stroke:#181818;stroke-width:0.5;" width="99" x="1439.5" y="1179.7813"/><text fill="#000000" font-family="sans-serif" font-size="14" lengthAdjust="spacing" textLength="85" x="1446.5" y="1200.3164">:GreenSpace</text><rect fill="#E3E3E3" height="46.9766" rx="2.5" ry="2.5" style="stroke:#181818;stroke-width:0.5;" width="132" x="1623" y="33.5117"/><text fill="#000000" font-family="sans-serif" font-size="14" lengthAdjust="spacing" textLength="53" x="1662.5" y="54.0469">&#171;enum&#187;</text><text fill="#000000" font-family="sans-serif" font-size="14" lengthAdjust="spacing" textLength="118" x="1630" y="70.5352">GreenSpace.Type</text><rect fill="#E3E3E3" height="46.9766" rx="2.5" ry="2.5" style="stroke:#181818;stroke-width:0.5;" width="132" x="1623" y="1179.7813"/><text fill="#000000" font-family="sans-serif" font-size="14" lengthAdjust="spacing" textLength="53" x="1662.5" y="1200.3164">&#171;enum&#187;</text><text fill="#000000" font-family="sans-serif" font-size="14" lengthAdjust="spacing" textLength="118" x="1630" y="1216.8047">GreenSpace.Type</text><rect fill="#E3E3E3" height="30.4883" rx="2.5" ry="2.5" style="stroke:#181818;stroke-width:0.5;" width="169" x="1765" y="50"/><text fill="#000000" font-family="sans-serif" font-size="14" lengthAdjust="spacing" textLength="155" x="1772" y="70.5352">objDto:GreenSpaceDto</text><rect fill="#E3E3E3" height="30.4883" rx="2.5" ry="2.5" style="stroke:#181818;stroke-width:0.5;" width="169" x="1765" y="1179.7813"/><text fill="#000000" font-family="sans-serif" font-size="14" lengthAdjust="spacing" textLength="155" x="1772" y="1200.3164">objDto:GreenSpaceDto</text><rect fill="#E3E3E3" height="30.4883" rx="2.5" ry="2.5" style="stroke:#181818;stroke-width:0.5;" width="179" x="1944" y="1179.7813"/><text fill="#000000" font-family="sans-serif" font-size="14" lengthAdjust="spacing" textLength="165" x="1951" y="1200.3164">greenSpace:GreenSpace</text><rect fill="#FFFFFF" height="1071.293" style="stroke:#181818;stroke-width:1.0;" width="10" x="18" y="91.4883"/><rect fill="#FFFFFF" height="437.8359" style="stroke:#181818;stroke-width:1.0;" width="10" x="475" y="112.7988"/><rect fill="#FFFFFF" height="582.8359" style="stroke:#181818;stroke-width:1.0;" width="10" x="475" y="579.9453"/><rect fill="#FFFFFF" height="322.416" style="stroke:#181818;stroke-width:1.0;" width="10" x="748" y="183.5977"/><rect fill="#FFFFFF" height="524.2148" style="stroke:#181818;stroke-width:1.0;" width="10" x="748" y="609.2559"/><rect fill="#FFFFFF" height="29.3105" style="stroke:#181818;stroke-width:1.0;" width="10" x="922" y="212.9082"/><rect fill="#FFFFFF" height="29.3105" style="stroke:#181818;stroke-width:1.0;" width="10" x="1035" y="271.5293"/><rect fill="#FFFFFF" height="146.5527" style="stroke:#181818;stroke-width:1.0;" width="10" x="1231" y="330.1504"/><rect fill="#FFFFFF" height="414.9727" style="stroke:#181818;stroke-width:1.0;" width="10" x="1231" y="689.1875"/><rect fill="#FFFFFF" height="87.9316" style="stroke:#181818;stroke-width:1.0;" width="10" x="1484" y="359.4609"/><rect fill="#FFFFFF" height="29.3105" style="stroke:#181818;stroke-width:1.0;" width="10" x="1684" y="388.7715"/><rect fill="#FFFFFF" height="30" style="stroke:#181818;stroke-width:1.0;" width="10" x="1844.5" y="753.8086"/><rect fill="#FFFFFF" height="30" style="stroke:#181818;stroke-width:1.0;" width="10" x="1844.5" y="813.1191"/><rect fill="#FFFFFF" height="30" style="stroke:#181818;stroke-width:1.0;" width="10" x="1844.5" y="872.4297"/><rect fill="#FFFFFF" height="30" style="stroke:#181818;stroke-width:1.0;" width="10" x="1844.5" y="931.7402"/><rect fill="#FFFFFF" height="31.4883" style="stroke:#181818;stroke-width:1.0;" width="10" x="2028.5" y="1001.0508"/><polygon fill="#181818" points="463,108.7988,473,112.7988,463,116.7988,467,112.7988" style="stroke:#181818;stroke-width:1.0;"/><line style="stroke:#181818;stroke-width:1.0;" x1="28" x2="469" y1="112.7988" y2="112.7988"/><text fill="#000000" font-family="sans-serif" font-size="13" font-weight="bold" lengthAdjust="spacing" textLength="9" x="35" y="108.0566">1</text><text fill="#000000" font-family="sans-serif" font-size="13" lengthAdjust="spacing" textLength="225" x="48" y="108.0566">Asks to Register a New Green Space</text><polygon fill="#181818" points="628.5,138.1094,638.5,142.1094,628.5,146.1094,632.5,142.1094" style="stroke:#181818;stroke-width:1.0;"/><line style="stroke:#181818;stroke-width:1.0;" x1="485" x2="634.5" y1="142.1094" y2="142.1094"/><text fill="#000000" font-family="sans-serif" font-size="13" font-weight="bold" lengthAdjust="spacing" textLength="9" x="492" y="137.3672">2</text><text fill="#000000" font-family="sans-serif" font-size="13" lengthAdjust="spacing" textLength="46" x="505" y="137.3672">create()</text><rect fill="#E3E3E3" height="30.4883" rx="2.5" ry="2.5" style="stroke:#181818;stroke-width:0.5;" width="225" x="640.5" y="120.7988"/><text fill="#000000" font-family="sans-serif" font-size="14" lengthAdjust="spacing" textLength="211" x="647.5" y="141.334">:RegisterGreenSpaceController</text><polygon fill="#181818" points="736,179.5977,746,183.5977,736,187.5977,740,183.5977" style="stroke:#181818;stroke-width:1.0;"/><line style="stroke:#181818;stroke-width:1.0;" x1="485" x2="742" y1="183.5977" y2="183.5977"/><text fill="#000000" font-family="sans-serif" font-size="13" font-weight="bold" lengthAdjust="spacing" textLength="9" x="492" y="178.8555">3</text><text fill="#000000" font-family="sans-serif" font-size="13" lengthAdjust="spacing" textLength="176" x="505" y="178.8555">getGreenSpaceTypeListDto()</text><polygon fill="#181818" points="910,208.9082,920,212.9082,910,216.9082,914,212.9082" style="stroke:#181818;stroke-width:1.0;"/><line style="stroke:#181818;stroke-width:1.0;" x1="758" x2="916" y1="212.9082" y2="212.9082"/><text fill="#000000" font-family="sans-serif" font-size="13" font-weight="bold" lengthAdjust="spacing" textLength="9" x="765" y="208.166">4</text><text fill="#000000" font-family="sans-serif" font-size="13" lengthAdjust="spacing" textLength="81" x="778" y="208.166">getInstance()</text><polygon fill="#181818" points="769,238.2188,759,242.2188,769,246.2188,765,242.2188" style="stroke:#181818;stroke-width:1.0;"/><line style="stroke:#181818;stroke-width:1.0;stroke-dasharray:2.0,2.0;" x1="763" x2="926" y1="242.2188" y2="242.2188"/><text fill="#000000" font-family="sans-serif" font-size="13" font-weight="bold" lengthAdjust="spacing" textLength="9" x="775" y="237.4766">5</text><text fill="#000000" font-family="sans-serif" font-size="13" lengthAdjust="spacing" textLength="75" x="788" y="237.4766">repositories</text><polygon fill="#181818" points="1023,267.5293,1033,271.5293,1023,275.5293,1027,271.5293" style="stroke:#181818;stroke-width:1.0;"/><line style="stroke:#181818;stroke-width:1.0;" x1="758" x2="1029" y1="271.5293" y2="271.5293"/><text fill="#000000" font-family="sans-serif" font-size="13" font-weight="bold" lengthAdjust="spacing" textLength="9" x="765" y="266.7871">6</text><text fill="#000000" font-family="sans-serif" font-size="13" lengthAdjust="spacing" textLength="176" x="778" y="266.7871">getOrganizarionRepository()</text><polygon fill="#181818" points="769,296.8398,759,300.8398,769,304.8398,765,300.8398" style="stroke:#181818;stroke-width:1.0;"/><line style="stroke:#181818;stroke-width:1.0;stroke-dasharray:2.0,2.0;" x1="763" x2="1039" y1="300.8398" y2="300.8398"/><text fill="#000000" font-family="sans-serif" font-size="13" font-weight="bold" lengthAdjust="spacing" textLength="9" x="775" y="296.0977">7</text><text fill="#000000" font-family="sans-serif" font-size="13" lengthAdjust="spacing" textLength="146" x="788" y="296.0977">organizarionRepository</text><polygon fill="#181818" points="1219,326.1504,1229,330.1504,1219,334.1504,1223,330.1504" style="stroke:#181818;stroke-width:1.0;"/><line style="stroke:#181818;stroke-width:1.0;" x1="758" x2="1225" y1="330.1504" y2="330.1504"/><text fill="#000000" font-family="sans-serif" font-size="13" font-weight="bold" lengthAdjust="spacing" textLength="9" x="765" y="325.4082">8</text><text fill="#000000" font-family="sans-serif" font-size="13" lengthAdjust="spacing" textLength="172" x="778" y="325.4082">getEnumGreenSpaceTypes()</text><polygon fill="#181818" points="1472,355.4609,1482,359.4609,1472,363.4609,1476,359.4609" style="stroke:#181818;stroke-width:1.0;"/><line style="stroke:#181818;stroke-width:1.0;" x1="1241" x2="1478" y1="359.4609" y2="359.4609"/><text fill="#000000" font-family="sans-serif" font-size="13" font-weight="bold" lengthAdjust="spacing" textLength="9" x="1248" y="354.7188">9</text><text fill="#000000" font-family="sans-serif" font-size="13" lengthAdjust="spacing" textLength="172" x="1261" y="354.7188">getEnumGreenSpaceTypes()</text><polygon fill="#181818" points="1672,384.7715,1682,388.7715,1672,392.7715,1676,388.7715" style="stroke:#181818;stroke-width:1.0;"/><line style="stroke:#181818;stroke-width:1.0;" x1="1494" x2="1678" y1="388.7715" y2="388.7715"/><text fill="#000000" font-family="sans-serif" font-size="13" font-weight="bold" lengthAdjust="spacing" textLength="18" x="1501" y="384.0293">10</text><text fill="#000000" font-family="sans-serif" font-size="13" lengthAdjust="spacing" textLength="48" x="1523" y="384.0293">values()</text><polygon fill="#181818" points="1505,414.082,1495,418.082,1505,422.082,1501,418.082" style="stroke:#181818;stroke-width:1.0;"/><line style="stroke:#181818;stroke-width:1.0;" x1="1499" x2="1688" y1="418.082" y2="418.082"/><text fill="#000000" font-family="sans-serif" font-size="13" font-weight="bold" lengthAdjust="spacing" textLength="18" x="1511" y="413.3398">11</text><text fill="#000000" font-family="sans-serif" font-size="13" lengthAdjust="spacing" textLength="144" x="1533" y="413.3398">enumGreenSpaceTypes</text><polygon fill="#181818" points="1252,443.3926,1242,447.3926,1252,451.3926,1248,447.3926" style="stroke:#181818;stroke-width:1.0;"/><line style="stroke:#181818;stroke-width:1.0;" x1="1246" x2="1488" y1="447.3926" y2="447.3926"/><text fill="#000000" font-family="sans-serif" font-size="13" font-weight="bold" lengthAdjust="spacing" textLength="18" x="1258" y="442.6504">12</text><text fill="#000000" font-family="sans-serif" font-size="13" lengthAdjust="spacing" textLength="144" x="1280" y="442.6504">enumGreenSpaceTypes</text><polygon fill="#181818" points="769,472.7031,759,476.7031,769,480.7031,765,476.7031" style="stroke:#181818;stroke-width:1.0;"/><line style="stroke:#181818;stroke-width:1.0;" x1="763" x2="1235" y1="476.7031" y2="476.7031"/><text fill="#000000" font-family="sans-serif" font-size="13" font-weight="bold" lengthAdjust="spacing" textLength="18" x="775" y="471.9609">13</text><text fill="#000000" font-family="sans-serif" font-size="13" lengthAdjust="spacing" textLength="144" x="797" y="471.9609">enumGreenSpaceTypes</text><polygon fill="#181818" points="496,502.0137,486,506.0137,496,510.0137,492,506.0137" style="stroke:#181818;stroke-width:1.0;"/><line style="stroke:#181818;stroke-width:1.0;stroke-dasharray:2.0,2.0;" x1="490" x2="752" y1="506.0137" y2="506.0137"/><text fill="#000000" font-family="sans-serif" font-size="13" font-weight="bold" lengthAdjust="spacing" textLength="18" x="502" y="501.2715">14</text><text fill="#000000" font-family="sans-serif" font-size="13" lengthAdjust="spacing" textLength="147" x="524" y="501.2715">greenSpaceTypeListDto</text><polygon fill="#181818" points="39,546.6348,29,550.6348,39,554.6348,35,550.6348" style="stroke:#181818;stroke-width:1.0;"/><line style="stroke:#181818;stroke-width:1.0;" x1="33" x2="479" y1="550.6348" y2="550.6348"/><text fill="#000000" font-family="sans-serif" font-size="13" font-weight="bold" lengthAdjust="spacing" textLength="18" x="45" y="538.2373">15</text><text fill="#000000" font-family="sans-serif" font-size="13" lengthAdjust="spacing" textLength="334" x="67" y="530.582">Displays all available green space types and requests</text><text fill="#000000" font-family="sans-serif" font-size="13" lengthAdjust="spacing" textLength="365" x="71" y="545.8926">the name, address, area, and type for the new green space</text><polygon fill="#181818" points="463,575.9453,473,579.9453,463,583.9453,467,579.9453" style="stroke:#181818;stroke-width:1.0;"/><line style="stroke:#181818;stroke-width:1.0;" x1="28" x2="469" y1="579.9453" y2="579.9453"/><text fill="#000000" font-family="sans-serif" font-size="13" font-weight="bold" lengthAdjust="spacing" textLength="18" x="35" y="575.2031">16</text><text fill="#000000" font-family="sans-serif" font-size="13" lengthAdjust="spacing" textLength="406" x="57" y="575.2031">Provides the name, address, area, and selects a green space type</text><polygon fill="#181818" points="736,605.2559,746,609.2559,736,613.2559,740,609.2559" style="stroke:#181818;stroke-width:1.0;"/><line style="stroke:#181818;stroke-width:1.0;" x1="485" x2="742" y1="609.2559" y2="609.2559"/><text fill="#000000" font-family="sans-serif" font-size="13" font-weight="bold" lengthAdjust="spacing" textLength="18" x="492" y="604.5137">17</text><text fill="#000000" font-family="sans-serif" font-size="13" lengthAdjust="spacing" textLength="222" x="514" y="604.5137">registerGreenSpace(greenSpaceDto)</text><path d="M490,622.2559 L490,662.2559 L664,662.2559 L664,632.2559 L654,622.2559 L490,622.2559 " fill="#FAFAFA" style="stroke:#181818;stroke-width:0.5;"/><path d="M654,622.2559 L654,632.2559 L664,632.2559 L654,622.2559 " fill="#FAFAFA" style="stroke:#181818;stroke-width:0.5;"/><text fill="#000000" font-family="sans-serif" font-size="13" lengthAdjust="spacing" textLength="153" x="496" y="639.8242">(newName, newAddress,</text><text fill="#000000" font-family="sans-serif" font-size="13" lengthAdjust="spacing" textLength="128" x="500" y="655.1348">newArea, typeName)</text><polygon fill="#181818" points="1219,685.1875,1229,689.1875,1219,693.1875,1223,689.1875" style="stroke:#181818;stroke-width:1.0;"/><line style="stroke:#181818;stroke-width:1.0;" x1="758" x2="1225" y1="689.1875" y2="689.1875"/><text fill="#000000" font-family="sans-serif" font-size="13" font-weight="bold" lengthAdjust="spacing" textLength="18" x="765" y="684.4453">18</text><text fill="#000000" font-family="sans-serif" font-size="13" lengthAdjust="spacing" textLength="311" x="787" y="684.4453">greenSpace = registerGreenSpace(greenSpaceDto)</text><path d="M763,702.1875 L763,727.1875 L1069,727.1875 L1069,712.1875 L1059,702.1875 L763,702.1875 " fill="#FAFAFA" style="stroke:#181818;stroke-width:0.5;"/><path d="M1059,702.1875 L1059,712.1875 L1069,712.1875 L1059,702.1875 " fill="#FAFAFA" style="stroke:#181818;stroke-width:0.5;"/><text fill="#000000" font-family="sans-serif" font-size="13" lengthAdjust="spacing" textLength="285" x="769" y="719.7559">(newName, newAddress, newArea, typeName)</text><polygon fill="#181818" points="1832.5,749.8086,1842.5,753.8086,1832.5,757.8086,1836.5,753.8086" style="stroke:#181818;stroke-width:1.0;"/><line style="stroke:#181818;stroke-width:1.0;" x1="1241" x2="1838.5" y1="753.8086" y2="753.8086"/><text fill="#000000" font-family="sans-serif" font-size="13" font-weight="bold" lengthAdjust="spacing" textLength="18" x="1248" y="749.0664">19</text><text fill="#000000" font-family="sans-serif" font-size="13" lengthAdjust="spacing" textLength="215" x="1270" y="749.0664">newName = getNameGreenSpace()</text><polygon fill="#181818" points="1832.5,809.1191,1842.5,813.1191,1832.5,817.1191,1836.5,813.1191" style="stroke:#181818;stroke-width:1.0;"/><line style="stroke:#181818;stroke-width:1.0;" x1="1241" x2="1838.5" y1="813.1191" y2="813.1191"/><text fill="#000000" font-family="sans-serif" font-size="13" font-weight="bold" lengthAdjust="spacing" textLength="18" x="1248" y="808.377">20</text><text fill="#000000" font-family="sans-serif" font-size="13" lengthAdjust="spacing" textLength="157" x="1270" y="808.377">newAdress = getAdress()</text><polygon fill="#181818" points="1832.5,868.4297,1842.5,872.4297,1832.5,876.4297,1836.5,872.4297" style="stroke:#181818;stroke-width:1.0;"/><line style="stroke:#181818;stroke-width:1.0;" x1="1241" x2="1838.5" y1="872.4297" y2="872.4297"/><text fill="#000000" font-family="sans-serif" font-size="13" font-weight="bold" lengthAdjust="spacing" textLength="18" x="1248" y="867.6875">21</text><text fill="#000000" font-family="sans-serif" font-size="13" lengthAdjust="spacing" textLength="194" x="1270" y="867.6875">newArea = getAreaInHectares()</text><polygon fill="#181818" points="1832.5,927.7402,1842.5,931.7402,1832.5,935.7402,1836.5,931.7402" style="stroke:#181818;stroke-width:1.0;"/><line style="stroke:#181818;stroke-width:1.0;" x1="1241" x2="1838.5" y1="931.7402" y2="931.7402"/><text fill="#000000" font-family="sans-serif" font-size="13" font-weight="bold" lengthAdjust="spacing" textLength="18" x="1248" y="926.998">22</text><text fill="#000000" font-family="sans-serif" font-size="13" lengthAdjust="spacing" textLength="131" x="1270" y="926.998">newType = getType()</text><polygon fill="#181818" points="1932,987.0508,1942,991.0508,1932,995.0508,1936,991.0508" style="stroke:#181818;stroke-width:1.0;"/><line style="stroke:#181818;stroke-width:1.0;" x1="1241" x2="1938" y1="991.0508" y2="991.0508"/><text fill="#000000" font-family="sans-serif" font-size="13" font-weight="bold" lengthAdjust="spacing" textLength="18" x="1248" y="986.3086">23</text><text fill="#000000" font-family="sans-serif" font-size="13" lengthAdjust="spacing" textLength="287" x="1270" y="986.3086">create(newName, newAddress, newArea, type)</text><rect fill="#E3E3E3" height="30.4883" rx="2.5" ry="2.5" style="stroke:#181818;stroke-width:0.5;" width="179" x="1944" y="969.7402"/><text fill="#000000" font-family="sans-serif" font-size="14" lengthAdjust="spacing" textLength="165" x="1951" y="990.2754">greenSpace:GreenSpace</text><polygon fill="#181818" points="1252,1028.5391,1242,1032.5391,1252,1036.5391,1248,1032.5391" style="stroke:#181818;stroke-width:1.0;"/><line style="stroke:#181818;stroke-width:1.0;" x1="1246" x2="2032.5" y1="1032.5391" y2="1032.5391"/><text fill="#000000" font-family="sans-serif" font-size="13" font-weight="bold" lengthAdjust="spacing" textLength="18" x="1258" y="1027.7969">24</text><text fill="#000000" font-family="sans-serif" font-size="13" lengthAdjust="spacing" textLength="25" x="1280" y="1027.7969">true</text><line style="stroke:#181818;stroke-width:1.0;" x1="1241" x2="1283" y1="1061.8496" y2="1061.8496"/><line style="stroke:#181818;stroke-width:1.0;" x1="1283" x2="1283" y1="1061.8496" y2="1074.8496"/><line style="stroke:#181818;stroke-width:1.0;" x1="1242" x2="1283" y1="1074.8496" y2="1074.8496"/><polygon fill="#181818" points="1252,1070.8496,1242,1074.8496,1252,1078.8496,1248,1074.8496" style="stroke:#181818;stroke-width:1.0;"/><text fill="#000000" font-family="sans-serif" font-size="13" font-weight="bold" lengthAdjust="spacing" textLength="18" x="1248" y="1057.1074">25</text><text fill="#000000" font-family="sans-serif" font-size="13" lengthAdjust="spacing" textLength="207" x="1270" y="1057.1074">verifyIfExistAndSave(greenSpace)</text><polygon fill="#181818" points="769,1100.1602,759,1104.1602,769,1108.1602,765,1104.1602" style="stroke:#181818;stroke-width:1.0;"/><line style="stroke:#181818;stroke-width:1.0;" x1="763" x2="1235" y1="1104.1602" y2="1104.1602"/><text fill="#000000" font-family="sans-serif" font-size="13" font-weight="bold" lengthAdjust="spacing" textLength="18" x="775" y="1099.418">26</text><text fill="#000000" font-family="sans-serif" font-size="13" lengthAdjust="spacing" textLength="25" x="797" y="1099.418">true</text><polygon fill="#181818" points="496,1129.4707,486,1133.4707,496,1137.4707,492,1133.4707" style="stroke:#181818;stroke-width:1.0;"/><line style="stroke:#181818;stroke-width:1.0;stroke-dasharray:2.0,2.0;" x1="490" x2="752" y1="1133.4707" y2="1133.4707"/><text fill="#000000" font-family="sans-serif" font-size="13" font-weight="bold" lengthAdjust="spacing" textLength="18" x="502" y="1128.7285">27</text><text fill="#000000" font-family="sans-serif" font-size="13" lengthAdjust="spacing" textLength="25" x="524" y="1128.7285">true</text><polygon fill="#181818" points="34,1158.7813,24,1162.7813,34,1166.7813,30,1162.7813" style="stroke:#181818;stroke-width:1.0;"/><line style="stroke:#181818;stroke-width:1.0;stroke-dasharray:2.0,2.0;" x1="28" x2="479" y1="1162.7813" y2="1162.7813"/><text fill="#000000" font-family="sans-serif" font-size="13" font-weight="bold" lengthAdjust="spacing" textLength="18" x="40" y="1158.0391">28</text><text fill="#000000" font-family="sans-serif" font-size="13" lengthAdjust="spacing" textLength="170" x="62" y="1158.0391">displays operation success</text><!--SRC=[hLR1Kjim4BthAtQub33G3yXGPZB0qCnGsY5muwBO6qV5aL992QHVtvMKs2ix1Dgf3xPaxxvzqhvTsJqhlPHMBc1Xj2dcrYmGl5sXSCsNfIoUPOKJlwaHB1PUwghc1cukI_EYT0KpMJiKGgwyqQl55AqGd-QgH9WPuwVcLSZ26mj7DvDlHo0Tq5CGXbU5MahjuMXuZvLo7ksDHTGJ2esFusZwE7xNyj9eRqrTeuqUbm_tjpsVfN6AA2XqqIQ-o8qiitdIVPVuVO-ViPNKwhVqokZ6QJFypbv7V_wYGwzTIjgTPfhRdPyZxUx5nPDkBJu_R9R9Amn4XzhqvvKt39vcRGIQY71bBbLZssL5OD4yv5AjfSUOHK4tEBkWDC4GHkxPWJUmIn58kCEN50tIWbflIgmWB_8D2Jiv8V_28dqv7eGexQSXLEXRCc6TjmHFzCcoWOjP5o8yWcFCHFGSQqVABP0RfpIA-82p9WwNW2YnQxx3RfKG0-mIQpC1y71CEg8Tiy1cBmIdm25sFBYY8fDhaaU-KOxJo1Ge-2oWjOxm4J0cKi5S2IYO0c6iPRtAVP94HJJ88v8vzkFn3KY-UQHi2Mz0S0pEkRlykAdlqyZtC5qf7xiYgFOfbKDibPe47ifd25VABMkvSI3h6kHQgbfEgUb6A71nkJum0QbBai8lsbTFJGhy747B1Pw2B4kBpj60QkWqsWKFQi0sML4TCZZE9nHYKyL3-67DcbgtEmpkiAOJWGZrIBvLuQ6ykftxkEAjgLVDsWJbgshkmSm2t34juovIei5eoqh4IMGMueVl0u74CRZlhvOiJV3bRvXb0iW9Hj9xAHvcc2uEl2iE2arKjuZ4ayeoZ1ZDRaLsjDOs-eFmeqWp1KZZ_mLCYzx2qcYiluRV28l_20yz_DXA8duOVHorZql76p-3ti_YW9rbyMoasnwTnPygnY6QTlOiR-Hhj6gs6S-kNqcJ8rrEv9hBSI3UQ5xzM9rcbVUfhZ5hIqrVAdTzoIpHfcXkLHIq6Tq6mdUPVWl-0000]--></g></svg>