<?xml version="1.0" encoding="us-ascii" standalone="no"?><svg xmlns="http://www.w3.org/2000/svg" xmlns:xlink="http://www.w3.org/1999/xlink" contentStyleType="text/css" height="550px" preserveAspectRatio="none" style="width:1976px;height:550px;background:#FFFFFF;" version="1.1" viewBox="0 0 1976 550" width="1976px" zoomAndPan="magnify"><defs/><g><!--cluster UI--><g id="cluster_UI"><path d="M8.5,174 L24.5,174 A3.75,3.75 0 0 1 27,176.5 L34,196.4883 L218.5,196.4883 A2.5,2.5 0 0 1 221,198.9883 L221,270.5 A2.5,2.5 0 0 1 218.5,273 L8.5,273 A2.5,2.5 0 0 1 6,270.5 L6,176.5 A2.5,2.5 0 0 1 8.5,174 " fill="#F0F0F0" style="stroke:#000000;stroke-width:1.5;"/><line style="stroke:#000000;stroke-width:1.5;" x1="6" x2="34" y1="196.4883" y2="196.4883"/><text fill="#000000" font-family="sans-serif" font-size="14" font-weight="bold" lengthAdjust="spacing" textLength="15" x="10" y="189.5352">UI</text></g><!--cluster Core--><g id="cluster_Core"><path d="M256.5,6 L290.5,6 A3.75,3.75 0 0 1 293,8.5 L300,28.4883 L1966.5,28.4883 A2.5,2.5 0 0 1 1969,30.9883 L1969,540.5 A2.5,2.5 0 0 1 1966.5,543 L256.5,543 A2.5,2.5 0 0 1 254,540.5 L254,8.5 A2.5,2.5 0 0 1 256.5,6 " fill="#F0F0F0" style="stroke:#000000;stroke-width:1.5;"/><line style="stroke:#000000;stroke-width:1.5;" x1="254" x2="300" y1="28.4883" y2="28.4883"/><text fill="#000000" font-family="sans-serif" font-size="14" font-weight="bold" lengthAdjust="spacing" textLength="33" x="258" y="21.5352">Core</text></g><!--cluster Controller--><g id="cluster_Controller"><path d="M280.5,158 L354.5,158 A3.75,3.75 0 0 1 357,160.5 L364,180.4883 L796.5,180.4883 A2.5,2.5 0 0 1 799,182.9883 L799,286.5 A2.5,2.5 0 0 1 796.5,289 L280.5,289 A2.5,2.5 0 0 1 278,286.5 L278,160.5 A2.5,2.5 0 0 1 280.5,158 " fill="#DDDDDD" style="stroke:#000000;stroke-width:1.5;"/><line style="stroke:#000000;stroke-width:1.5;" x1="278" x2="364" y1="180.4883" y2="180.4883"/><text fill="#000000" font-family="sans-serif" font-size="14" font-weight="bold" lengthAdjust="spacing" textLength="73" x="282" y="173.5352">Controller</text></g><!--cluster DTO--><g id="cluster_DTO"><path d="M1042,354 L1076,354 A3.75,3.75 0 0 1 1078.5,356.5 L1085.5,376.4883 L1206,376.4883 A2.5,2.5 0 0 1 1208.5,378.9883 L1208.5,516.5 A2.5,2.5 0 0 1 1206,519 L1042,519 A2.5,2.5 0 0 1 1039.5,516.5 L1039.5,356.5 A2.5,2.5 0 0 1 1042,354 " fill="#DDDDDD" style="stroke:#000000;stroke-width:1.5;"/><line style="stroke:#000000;stroke-width:1.5;" x1="1039.5" x2="1085.5" y1="376.4883" y2="376.4883"/><text fill="#000000" font-family="sans-serif" font-size="14" font-weight="bold" lengthAdjust="spacing" textLength="33" x="1043.5" y="369.5352">DTO</text></g><!--cluster Domain--><g id="cluster_Domain"><path d="M910.5,49 L967.5,49 A3.75,3.75 0 0 1 970,51.5 L977,71.4883 L1942.5,71.4883 A2.5,2.5 0 0 1 1945,73.9883 L1945,327.5 A2.5,2.5 0 0 1 1942.5,330 L910.5,330 A2.5,2.5 0 0 1 908,327.5 L908,51.5 A2.5,2.5 0 0 1 910.5,49 " fill="#DDDDDD" style="stroke:#000000;stroke-width:1.5;"/><line style="stroke:#000000;stroke-width:1.5;" x1="908" x2="977" y1="71.4883" y2="71.4883"/><text fill="#000000" font-family="sans-serif" font-size="14" font-weight="bold" lengthAdjust="spacing" textLength="56" x="912" y="64.5352">Domain</text></g><!--cluster Repository--><g id="cluster_Repository"><path d="M934.5,141 L1013.5,141 A3.75,3.75 0 0 1 1016,143.5 L1023,163.4883 L1579.5,163.4883 A2.5,2.5 0 0 1 1582,165.9883 L1582,303.5 A2.5,2.5 0 0 1 1579.5,306 L934.5,306 A2.5,2.5 0 0 1 932,303.5 L932,143.5 A2.5,2.5 0 0 1 934.5,141 " fill="#BBBBBB" style="stroke:#000000;stroke-width:1.5;"/><line style="stroke:#000000;stroke-width:1.5;" x1="932" x2="1023" y1="163.4883" y2="163.4883"/><text fill="#000000" font-family="sans-serif" font-size="14" font-weight="bold" lengthAdjust="spacing" textLength="78" x="936" y="156.5352">Repository</text></g><!--cluster Model--><g id="cluster_Model"><path d="M1617.5,92 L1662.5,92 A3.75,3.75 0 0 1 1665,94.5 L1672,114.4883 L1918.5,114.4883 A2.5,2.5 0 0 1 1921,116.9883 L1921,303.5 A2.5,2.5 0 0 1 1918.5,306 L1617.5,306 A2.5,2.5 0 0 1 1615,303.5 L1615,94.5 A2.5,2.5 0 0 1 1617.5,92 " fill="#BBBBBB" style="stroke:#000000;stroke-width:1.5;"/><line style="stroke:#000000;stroke-width:1.5;" x1="1615" x2="1672" y1="114.4883" y2="114.4883"/><text fill="#000000" font-family="sans-serif" font-size="14" font-weight="bold" lengthAdjust="spacing" textLength="44" x="1619" y="107.5352">Model</text></g><!--class RegisterGreenSpaceUI--><g id="elem_RegisterGreenSpaceUI"><rect codeLine="7" fill="#F1F1F1" height="48" id="RegisterGreenSpaceUI" rx="2.5" ry="2.5" style="stroke:#181818;stroke-width:0.5;" width="183" x="22" y="209"/><ellipse cx="37" cy="225" fill="#ADD1B2" rx="11" ry="11" style="stroke:#181818;stroke-width:1.0;"/><path d="M39.9731,230.6431 Q39.3921,230.9419 38.7529,231.0913 Q38.1138,231.2407 37.4082,231.2407 Q34.9014,231.2407 33.5815,229.5889 Q32.2617,227.937 32.2617,224.8159 Q32.2617,221.6865 33.5815,220.0347 Q34.9014,218.3828 37.4082,218.3828 Q38.1138,218.3828 38.7612,218.5322 Q39.4087,218.6816 39.9731,218.9805 L39.9731,221.7031 Q39.3423,221.1221 38.7488,220.8523 Q38.1553,220.5825 37.5244,220.5825 Q36.1797,220.5825 35.4949,221.6492 Q34.8101,222.7158 34.8101,224.8159 Q34.8101,226.9077 35.4949,227.9744 Q36.1797,229.041 37.5244,229.041 Q38.1553,229.041 38.7488,228.7712 Q39.3423,228.5015 39.9731,227.9204 Z " fill="#000000"/><text fill="#000000" font-family="sans-serif" font-size="14" lengthAdjust="spacing" textLength="151" x="51" y="230.291">RegisterGreenSpaceUI</text><line style="stroke:#181818;stroke-width:0.5;" x1="23" x2="204" y1="241" y2="241"/><line style="stroke:#181818;stroke-width:0.5;" x1="23" x2="204" y1="249" y2="249"/></g><!--class RegisterGreenSpaceController--><g id="elem_RegisterGreenSpaceController"><rect codeLine="20" fill="#F1F1F1" height="80.9766" id="RegisterGreenSpaceController" rx="2.5" ry="2.5" style="stroke:#181818;stroke-width:0.5;" width="489" x="294" y="192.51"/><ellipse cx="430.75" cy="208.51" fill="#ADD1B2" rx="11" ry="11" style="stroke:#181818;stroke-width:1.0;"/><path d="M433.7231,214.1531 Q433.1421,214.4519 432.5029,214.6013 Q431.8638,214.7507 431.1582,214.7507 Q428.6514,214.7507 427.3315,213.0989 Q426.0117,211.447 426.0117,208.3259 Q426.0117,205.1965 427.3315,203.5447 Q428.6514,201.8928 431.1582,201.8928 Q431.8638,201.8928 432.5112,202.0422 Q433.1587,202.1916 433.7231,202.4905 L433.7231,205.2131 Q433.0923,204.6321 432.4988,204.3623 Q431.9053,204.0925 431.2744,204.0925 Q429.9297,204.0925 429.2449,205.1592 Q428.5601,206.2258 428.5601,208.3259 Q428.5601,210.4177 429.2449,211.4844 Q429.9297,212.551 431.2744,212.551 Q431.9053,212.551 432.4988,212.2812 Q433.0923,212.0115 433.7231,211.4304 Z " fill="#000000"/><text fill="#000000" font-family="sans-serif" font-size="14" lengthAdjust="spacing" textLength="207" x="451.25" y="213.801">RegisterGreenSpaceController</text><line style="stroke:#181818;stroke-width:0.5;" x1="295" x2="782" y1="224.51" y2="224.51"/><line style="stroke:#181818;stroke-width:0.5;" x1="295" x2="782" y1="232.51" y2="232.51"/><text fill="#000000" font-family="sans-serif" font-size="14" lengthAdjust="spacing" textLength="204" x="300" y="250.0452">+getGreenSpaceTypeListDto()</text><text fill="#000000" font-family="sans-serif" font-size="14" lengthAdjust="spacing" textLength="477" x="300" y="266.5334">+registerGreenSpace(objDto : GreenSpaceDto) : list&lt;GreenSpaceDto&gt;</text></g><!--class GreenSpaceDto--><g id="elem_GreenSpaceDto"><rect codeLine="32" fill="#F1F1F1" height="113.9531" id="GreenSpaceDto" rx="2.5" ry="2.5" style="stroke:#181818;stroke-width:0.5;" width="137" x="1055.5" y="389.02"/><ellipse cx="1070.5" cy="405.02" fill="#ADD1B2" rx="11" ry="11" style="stroke:#181818;stroke-width:1.0;"/><path d="M1073.4731,410.6631 Q1072.8921,410.9619 1072.2529,411.1113 Q1071.6138,411.2607 1070.9082,411.2607 Q1068.4014,411.2607 1067.0815,409.6089 Q1065.7617,407.957 1065.7617,404.8359 Q1065.7617,401.7065 1067.0815,400.0547 Q1068.4014,398.4028 1070.9082,398.4028 Q1071.6138,398.4028 1072.2612,398.5522 Q1072.9087,398.7016 1073.4731,399.0005 L1073.4731,401.7231 Q1072.8423,401.1421 1072.2488,400.8723 Q1071.6553,400.6025 1071.0244,400.6025 Q1069.6797,400.6025 1068.9949,401.6692 Q1068.3101,402.7358 1068.3101,404.8359 Q1068.3101,406.9277 1068.9949,407.9944 Q1069.6797,409.061 1071.0244,409.061 Q1071.6553,409.061 1072.2488,408.7912 Q1072.8423,408.5215 1073.4731,407.9404 Z " fill="#000000"/><text fill="#000000" font-family="sans-serif" font-size="14" lengthAdjust="spacing" textLength="105" x="1084.5" y="410.311">GreenSpaceDto</text><line style="stroke:#181818;stroke-width:0.5;" x1="1056.5" x2="1191.5" y1="421.02" y2="421.02"/><text fill="#000000" font-family="sans-serif" font-size="14" lengthAdjust="spacing" textLength="98" x="1061.5" y="438.5552">+name: String</text><text fill="#000000" font-family="sans-serif" font-size="14" lengthAdjust="spacing" textLength="69" x="1061.5" y="455.0434">+address:</text><text fill="#000000" font-family="sans-serif" font-size="14" lengthAdjust="spacing" textLength="80" x="1061.5" y="471.5317">+area: float</text><text fill="#000000" font-family="sans-serif" font-size="14" lengthAdjust="spacing" textLength="120" x="1061.5" y="488.02">+type: enumType</text><line style="stroke:#181818;stroke-width:0.5;" x1="1056.5" x2="1191.5" y1="494.9731" y2="494.9731"/></g><!--class Repositories--><g id="elem_Repositories"><rect codeLine="47" fill="#F1F1F1" height="113.9531" id="Repositories" rx="2.5" ry="2.5" style="stroke:#181818;stroke-width:0.5;" width="352" x="948" y="176.02"/><ellipse cx="1077.25" cy="192.02" fill="#ADD1B2" rx="11" ry="11" style="stroke:#181818;stroke-width:1.0;"/><path d="M1080.2231,197.6631 Q1079.6421,197.9619 1079.0029,198.1113 Q1078.3638,198.2607 1077.6582,198.2607 Q1075.1514,198.2607 1073.8315,196.6089 Q1072.5117,194.957 1072.5117,191.8359 Q1072.5117,188.7065 1073.8315,187.0547 Q1075.1514,185.4028 1077.6582,185.4028 Q1078.3638,185.4028 1079.0112,185.5522 Q1079.6587,185.7016 1080.2231,186.0005 L1080.2231,188.7231 Q1079.5923,188.1421 1078.9988,187.8723 Q1078.4053,187.6025 1077.7744,187.6025 Q1076.4297,187.6025 1075.7449,188.6692 Q1075.0601,189.7358 1075.0601,191.8359 Q1075.0601,193.9277 1075.7449,194.9944 Q1076.4297,196.061 1077.7744,196.061 Q1078.4053,196.061 1078.9988,195.7912 Q1079.5923,195.5215 1080.2231,194.9404 Z " fill="#000000"/><text fill="#000000" font-family="sans-serif" font-size="14" lengthAdjust="spacing" textLength="85" x="1097.75" y="197.311">Repositories</text><line style="stroke:#181818;stroke-width:0.5;" x1="949" x2="1299" y1="208.02" y2="208.02"/><text fill="#000000" font-family="sans-serif" font-size="14" lengthAdjust="spacing" textLength="340" x="954" y="225.5552">-organizationRepository: OrganizationRepository</text><line style="stroke:#181818;stroke-width:0.5;" x1="949" x2="1299" y1="232.5083" y2="232.5083"/><text fill="#000000" font-family="sans-serif" font-size="14" lengthAdjust="spacing" textLength="193" x="954" y="250.0434">+getInstance(): Repositories</text><text fill="#000000" font-family="sans-serif" font-size="14" lengthAdjust="spacing" textLength="304" x="954" y="266.5317">+getOrganizationRepository(): Organization</text><text fill="#000000" font-family="sans-serif" font-size="14" lengthAdjust="spacing" textLength="103" x="954" y="283.02">-Repositories()</text></g><!--class OrganizationRepository--><g id="elem_OrganizationRepository"><rect codeLine="57" fill="#F1F1F1" height="64.4883" id="OrganizationRepository" rx="2.5" ry="2.5" style="stroke:#181818;stroke-width:0.5;" width="205" x="1361" y="200.76"/><ellipse cx="1380.5" cy="216.76" fill="#ADD1B2" rx="11" ry="11" style="stroke:#181818;stroke-width:1.0;"/><path d="M1383.4731,222.4031 Q1382.8921,222.7019 1382.2529,222.8513 Q1381.6138,223.0007 1380.9082,223.0007 Q1378.4014,223.0007 1377.0815,221.3489 Q1375.7617,219.697 1375.7617,216.5759 Q1375.7617,213.4465 1377.0815,211.7947 Q1378.4014,210.1428 1380.9082,210.1428 Q1381.6138,210.1428 1382.2612,210.2922 Q1382.9087,210.4416 1383.4731,210.7405 L1383.4731,213.4631 Q1382.8423,212.8821 1382.2488,212.6123 Q1381.6553,212.3425 1381.0244,212.3425 Q1379.6797,212.3425 1378.9949,213.4092 Q1378.3101,214.4758 1378.3101,216.5759 Q1378.3101,218.6677 1378.9949,219.7344 Q1379.6797,220.801 1381.0244,220.801 Q1381.6553,220.801 1382.2488,220.5312 Q1382.8423,220.2615 1383.4731,219.6804 Z " fill="#000000"/><text fill="#000000" font-family="sans-serif" font-size="14" lengthAdjust="spacing" textLength="163" x="1395.5" y="222.051">OrganizationRepository</text><line style="stroke:#181818;stroke-width:0.5;" x1="1362" x2="1565" y1="232.76" y2="232.76"/><text fill="#000000" font-family="sans-serif" font-size="14" lengthAdjust="spacing" textLength="193" x="1367" y="250.2952">+getEnumGreenSpaceTypes</text><line style="stroke:#181818;stroke-width:0.5;" x1="1362" x2="1565" y1="257.2483" y2="257.2483"/></g><!--class GreenSpace--><g id="elem_GreenSpace"><rect codeLine="68" fill="#F1F1F1" height="80.9766" id="GreenSpace" rx="2.5" ry="2.5" style="stroke:#181818;stroke-width:0.5;" width="274" x="1631" y="209.51"/><ellipse cx="1723.25" cy="225.51" fill="#ADD1B2" rx="11" ry="11" style="stroke:#181818;stroke-width:1.0;"/><path d="M1726.2231,231.1531 Q1725.6421,231.4519 1725.0029,231.6013 Q1724.3638,231.7507 1723.6582,231.7507 Q1721.1514,231.7507 1719.8315,230.0989 Q1718.5117,228.447 1718.5117,225.3259 Q1718.5117,222.1965 1719.8315,220.5447 Q1721.1514,218.8928 1723.6582,218.8928 Q1724.3638,218.8928 1725.0112,219.0422 Q1725.6587,219.1916 1726.2231,219.4905 L1726.2231,222.2131 Q1725.5923,221.6321 1724.9988,221.3623 Q1724.4053,221.0925 1723.7744,221.0925 Q1722.4297,221.0925 1721.7449,222.1592 Q1721.0601,223.2258 1721.0601,225.3259 Q1721.0601,227.4177 1721.7449,228.4844 Q1722.4297,229.551 1723.7744,229.551 Q1724.4053,229.551 1724.9988,229.2812 Q1725.5923,229.0115 1726.2231,228.4304 Z " fill="#000000"/><text fill="#000000" font-family="sans-serif" font-size="14" lengthAdjust="spacing" textLength="81" x="1743.75" y="230.801">GreenSpace</text><line style="stroke:#181818;stroke-width:0.5;" x1="1632" x2="1904" y1="241.51" y2="241.51"/><text fill="#000000" font-family="sans-serif" font-size="14" lengthAdjust="spacing" textLength="78" x="1637" y="259.0452">-type: Type</text><line style="stroke:#181818;stroke-width:0.5;" x1="1632" x2="1904" y1="265.9983" y2="265.9983"/><text fill="#000000" font-family="sans-serif" font-size="14" lengthAdjust="spacing" textLength="262" x="1637" y="283.5334">+getEnumGreenSpaceTypes() : Type []</text></g><!--class Type--><g id="elem_Type"><rect codeLine="73" fill="#F1F1F1" height="48" id="Type" rx="2.5" ry="2.5" style="stroke:#181818;stroke-width:0.5;" width="65" x="1735.5" y="127"/><ellipse cx="1750.5" cy="143" fill="#ADD1B2" rx="11" ry="11" style="stroke:#181818;stroke-width:1.0;"/><path d="M1753.4731,148.6431 Q1752.8921,148.9419 1752.2529,149.0913 Q1751.6138,149.2407 1750.9082,149.2407 Q1748.4014,149.2407 1747.0815,147.5889 Q1745.7617,145.937 1745.7617,142.8159 Q1745.7617,139.6865 1747.0815,138.0347 Q1748.4014,136.3828 1750.9082,136.3828 Q1751.6138,136.3828 1752.2612,136.5322 Q1752.9087,136.6816 1753.4731,136.9805 L1753.4731,139.7031 Q1752.8423,139.1221 1752.2488,138.8523 Q1751.6553,138.5825 1751.0244,138.5825 Q1749.6797,138.5825 1748.9949,139.6492 Q1748.3101,140.7158 1748.3101,142.8159 Q1748.3101,144.9077 1748.9949,145.9744 Q1749.6797,147.041 1751.0244,147.041 Q1751.6553,147.041 1752.2488,146.7712 Q1752.8423,146.5015 1753.4731,145.9204 Z " fill="#000000"/><text fill="#000000" font-family="sans-serif" font-size="14" lengthAdjust="spacing" textLength="33" x="1764.5" y="148.291">Type</text><line style="stroke:#181818;stroke-width:0.5;" x1="1736.5" x2="1799.5" y1="159" y2="159"/><line style="stroke:#181818;stroke-width:0.5;" x1="1736.5" x2="1799.5" y1="167" y2="167"/></g><!--link RegisterGreenSpaceUI to RegisterGreenSpaceController--><g id="link_RegisterGreenSpaceUI_RegisterGreenSpaceController"><path codeLine="86" d="M205.24,233 C231.83,233 256.23,233 287.62,233 " fill="none" id="RegisterGreenSpaceUI-to-RegisterGreenSpaceController" style="stroke:#181818;stroke-width:1.0;stroke-dasharray:7.0,7.0;"/><polygon fill="#181818" points="293.62,233,284.62,229,288.62,233,284.62,237,293.62,233" style="stroke:#181818;stroke-width:1.0;"/></g><!--link RegisterGreenSpaceController to Repositories--><g id="link_RegisterGreenSpaceController_Repositories"><path codeLine="87" d="M783.15,233 C838.31,233 889.82,233 941.52,233 " fill="none" id="RegisterGreenSpaceController-to-Repositories" style="stroke:#181818;stroke-width:1.0;stroke-dasharray:7.0,7.0;"/><polygon fill="#181818" points="947.52,233,938.52,229,942.52,233,938.52,237,947.52,233" style="stroke:#181818;stroke-width:1.0;"/><text fill="#000000" font-family="sans-serif" font-size="13" lengthAdjust="spacing" textLength="75" x="816" y="229.5684">repositories</text></g><!--link RegisterGreenSpaceController to OrganizationRepository--><g id="link_RegisterGreenSpaceController_OrganizationRepository"><path codeLine="89" d="M686.5,192.05 C840.84,155.23 1089.82,113.4 1300,159 C1337.26,167.08 1370.9122,181.7014 1401.3422,197.6014 " fill="none" id="RegisterGreenSpaceController-to-OrganizationRepository" style="stroke:#181818;stroke-width:1.0;stroke-dasharray:7.0,7.0;"/><polygon fill="#181818" points="1406.66,200.38,1400.5357,192.6669,1402.2285,198.0645,1396.8308,199.7573,1406.66,200.38" style="stroke:#181818;stroke-width:1.0;"/><text fill="#000000" font-family="sans-serif" font-size="13" lengthAdjust="spacing" textLength="146" x="1051" y="136.5684">organizationRepository</text></g><!--link RegisterGreenSpaceController to GreenSpaceDto--><g id="link_RegisterGreenSpaceController_GreenSpaceDto"><path codeLine="92" d="M651.66,273.94 C771.17,317.57 950.8337,383.1529 1049.7437,419.2529 " fill="none" id="RegisterGreenSpaceController-to-GreenSpaceDto" style="stroke:#181818;stroke-width:1.0;stroke-dasharray:7.0,7.0;"/><polygon fill="#181818" points="1055.38,421.31,1048.2969,414.4667,1050.6831,419.5957,1045.5541,421.9818,1055.38,421.31" style="stroke:#181818;stroke-width:1.0;"/></g><!--link OrganizationRepository to GreenSpace--><g id="link_OrganizationRepository_GreenSpace"><path codeLine="97" d="M1566.49,238.73 C1587.07,239.89 1603.0294,240.7836 1624.5794,241.9936 " fill="none" id="OrganizationRepository-to-GreenSpace" style="stroke:#181818;stroke-width:1.0;"/><polygon fill="#181818" points="1630.57,242.33,1621.8084,237.8317,1625.5779,242.0497,1621.3599,245.8192,1630.57,242.33" style="stroke:#181818;stroke-width:1.0;"/><text fill="#000000" font-family="sans-serif" font-size="13" lengthAdjust="spacing" textLength="8" x="1574.0127" y="252.2392">1</text><text fill="#000000" font-family="sans-serif" font-size="13" lengthAdjust="spacing" textLength="6" x="1616.8902" y="254.8976">*</text></g><!--link Repositories to OrganizationRepository--><g id="link_Repositories_OrganizationRepository"><path codeLine="99" d="M1300.18,233 C1320.88,233 1335.46,233 1354.66,233 " fill="none" id="Repositories-to-OrganizationRepository" style="stroke:#181818;stroke-width:1.0;"/><polygon fill="#181818" points="1360.66,233,1351.66,229,1355.66,233,1351.66,237,1360.66,233" style="stroke:#181818;stroke-width:1.0;"/><text fill="#000000" font-family="sans-serif" font-size="13" lengthAdjust="spacing" textLength="8" x="1307.7813" y="245.8915">1</text><text fill="#000000" font-family="sans-serif" font-size="13" lengthAdjust="spacing" textLength="8" x="1345.1478" y="246.1063">1</text></g><!--SRC=[ZLHDJm8n4BttLqpM2sWmUcqCYH5ZI3GaV9oCXx8xBDMb9MsD0RB_tNR1tPOju700PjvylCvhzHSNQwRO2lIIPVA7YnmMhD18T1r92wRrep6ApxyD3bCf9doBS4T8WGi3HeBY-T90nXMcXaj1o9gbNon7I6R31AuMT-wp8s2jAWPZpBasg5uKefXODCw6i0UKX93Ig_0a5Nerd3cO5nT6oQ90PL5PPRizv5ox9klGzizkSZGDRBfPuwjD7HZPwOOurQhPaVDF2mGAZS_-xrf7OQ4FWRVVp5YIcdZjg-aDfgCOhuPRKFM8J3MeO2kaCB7h4taxoh9CeTOq4b78A2mAoKmxQEp1K43nlN975CHBqgBMi94hneLFgCruZ6kfkP5gOt7pogB4Qnn77U7T0wbo9lYMEKasHIcCelusHx1I60fjcB2xxTAWOHmTh-no_KXaLB_qaT1AukkYeH_l5HE0c-pPRYgKjRwqj60fRpB3mj_7UIb6nh0izw9f2QQ-Tv4XE-xsk5_m_d4yS7i01ppIIdXyvU6cLTxe8tHxsp_xN92pRya-szCb1UMhvdBsYRNI4sec_oWPl13LSPneajmdqElr8RbEl2JNmMDKW-ptwDHCXFm2]--></g></svg>