<?xml version="1.0" encoding="us-ascii" standalone="no"?><svg xmlns="http://www.w3.org/2000/svg" xmlns:xlink="http://www.w3.org/1999/xlink" contentStyleType="text/css" height="571px" preserveAspectRatio="none" style="width:475px;height:571px;background:#FFFFFF;" version="1.1" viewBox="0 0 475 571" width="475px" zoomAndPan="magnify"><defs/><g><text fill="#000000" font-family="sans-serif" font-size="14" font-weight="bold" lengthAdjust="spacing" textLength="351" x="63.75" y="30.1074">System Sequence Diagram (SSD) - Alternative One</text><rect fill="#FFFFFF" height="346.2012" style="stroke:#181818;stroke-width:1.0;" width="10" x="18.5" y="133.2422"/><rect fill="#FFFFFF" height="48.582" style="stroke:#181818;stroke-width:1.0;" width="10" x="309.5" y="156.5332"/><rect fill="#FFFFFF" height="31.291" style="stroke:#181818;stroke-width:1.0;" width="10" x="309.5" y="236.4063"/><rect fill="#FFFFFF" height="108.873" style="stroke:#181818;stroke-width:1.0;" width="10" x="309.5" y="298.9883"/><rect fill="#FFFFFF" height="31.291" style="stroke:#181818;stroke-width:1.0;" width="10" x="309.5" y="439.1523"/><rect fill="none" height="63.582" style="stroke:#000000;stroke-width:1.5;" width="197" x="272.5" y="313.9883"/><line style="stroke:#181818;stroke-width:0.5;stroke-dasharray:5.0,5.0;" x1="23" x2="23" y1="123.2422" y2="488.4434"/><line style="stroke:#181818;stroke-width:0.5;stroke-dasharray:5.0,5.0;" x1="314.5" x2="314.5" y1="123.2422" y2="488.4434"/><text fill="#000000" font-family="sans-serif" font-size="14" lengthAdjust="spacing" textLength="31" x="5" y="119.7285">GSM</text><ellipse cx="23.5" cy="53.1211" fill="#E3E3E3" rx="8" ry="8" style="stroke:#181818;stroke-width:0.5;"/><path d="M23.5,61.1211 L23.5,88.1211 M10.5,69.1211 L36.5,69.1211 M23.5,88.1211 L10.5,103.1211 M23.5,88.1211 L36.5,103.1211 " fill="none" style="stroke:#181818;stroke-width:0.5;"/><text fill="#000000" font-family="sans-serif" font-size="14" lengthAdjust="spacing" textLength="31" x="5" y="502.5508">GSM</text><ellipse cx="23.5" cy="514.5645" fill="#E3E3E3" rx="8" ry="8" style="stroke:#181818;stroke-width:0.5;"/><path d="M23.5,522.5645 L23.5,549.5645 M10.5,530.5645 L36.5,530.5645 M23.5,549.5645 L10.5,564.5645 M23.5,549.5645 L36.5,564.5645 " fill="none" style="stroke:#181818;stroke-width:0.5;"/><rect fill="#E3E3E3" height="32.6211" rx="2.5" ry="2.5" style="stroke:#181818;stroke-width:0.5;" width="64" x="282.5" y="89.6211"/><text fill="#000000" font-family="sans-serif" font-size="14" lengthAdjust="spacing" textLength="50" x="289.5" y="111.7285">:System</text><rect fill="#E3E3E3" height="32.6211" rx="2.5" ry="2.5" style="stroke:#181818;stroke-width:0.5;" width="64" x="282.5" y="487.4434"/><text fill="#000000" font-family="sans-serif" font-size="14" lengthAdjust="spacing" textLength="50" x="289.5" y="509.5508">:System</text><rect fill="#FFFFFF" height="346.2012" style="stroke:#181818;stroke-width:1.0;" width="10" x="18.5" y="133.2422"/><rect fill="#FFFFFF" height="48.582" style="stroke:#181818;stroke-width:1.0;" width="10" x="309.5" y="156.5332"/><rect fill="#FFFFFF" height="31.291" style="stroke:#181818;stroke-width:1.0;" width="10" x="309.5" y="236.4063"/><rect fill="#FFFFFF" height="108.873" style="stroke:#181818;stroke-width:1.0;" width="10" x="309.5" y="298.9883"/><rect fill="#FFFFFF" height="31.291" style="stroke:#181818;stroke-width:1.0;" width="10" x="309.5" y="439.1523"/><polygon fill="#181818" points="297.5,152.5332,307.5,156.5332,297.5,160.5332,301.5,156.5332" style="stroke:#181818;stroke-width:1.0;"/><line style="stroke:#181818;stroke-width:1.0;" x1="28.5" x2="303.5" y1="156.5332" y2="156.5332"/><text fill="#000000" font-family="sans-serif" font-size="13" font-weight="bold" lengthAdjust="spacing" textLength="7" x="35.5" y="151.2705">1</text><text fill="#000000" font-family="sans-serif" font-size="13" lengthAdjust="spacing" textLength="207" x="46.5" y="151.2705">asks to add a new Entry on Agenda</text><polygon fill="#181818" points="39.5,201.1152,29.5,205.1152,39.5,209.1152,35.5,205.1152" style="stroke:#181818;stroke-width:1.0;"/><line style="stroke:#181818;stroke-width:1.0;stroke-dasharray:2.0,2.0;" x1="33.5" x2="313.5" y1="205.1152" y2="205.1152"/><text fill="#000000" font-family="sans-serif" font-size="13" font-weight="bold" lengthAdjust="spacing" textLength="7" x="45.5" y="191.207">2</text><text fill="#000000" font-family="sans-serif" font-size="13" lengthAdjust="spacing" textLength="180" x="56.5" y="182.5615">show the To Do List and ask to</text><text fill="#000000" font-family="sans-serif" font-size="13" lengthAdjust="spacing" textLength="95" x="60.5" y="199.8525">select one Entry</text><polygon fill="#181818" points="297.5,232.4063,307.5,236.4063,297.5,240.4063,301.5,236.4063" style="stroke:#181818;stroke-width:1.0;"/><line style="stroke:#181818;stroke-width:1.0;" x1="28.5" x2="303.5" y1="236.4063" y2="236.4063"/><text fill="#000000" font-family="sans-serif" font-size="13" font-weight="bold" lengthAdjust="spacing" textLength="7" x="35.5" y="231.1436">3</text><text fill="#000000" font-family="sans-serif" font-size="13" lengthAdjust="spacing" textLength="81" x="46.5" y="231.1436">select a Entry</text><polygon fill="#181818" points="39.5,263.6973,29.5,267.6973,39.5,271.6973,35.5,267.6973" style="stroke:#181818;stroke-width:1.0;"/><line style="stroke:#181818;stroke-width:1.0;stroke-dasharray:2.0,2.0;" x1="33.5" x2="313.5" y1="267.6973" y2="267.6973"/><text fill="#000000" font-family="sans-serif" font-size="13" font-weight="bold" lengthAdjust="spacing" textLength="7" x="45.5" y="262.4346">4</text><text fill="#000000" font-family="sans-serif" font-size="13" lengthAdjust="spacing" textLength="166" x="56.5" y="262.4346">requests data (i.e. startDate)</text><polygon fill="#181818" points="297.5,294.9883,307.5,298.9883,297.5,302.9883,301.5,298.9883" style="stroke:#181818;stroke-width:1.0;"/><line style="stroke:#181818;stroke-width:1.0;" x1="28.5" x2="303.5" y1="298.9883" y2="298.9883"/><text fill="#000000" font-family="sans-serif" font-size="13" font-weight="bold" lengthAdjust="spacing" textLength="7" x="35.5" y="293.7256">5</text><text fill="#000000" font-family="sans-serif" font-size="13" lengthAdjust="spacing" textLength="122" x="46.5" y="293.7256">types requested data</text><path d="M272.5,313.9883 L333.5,313.9883 L333.5,323.2793 L323.5,333.2793 L272.5,333.2793 L272.5,313.9883 " fill="#EEEEEE" style="stroke:#000000;stroke-width:1.5;"/><rect fill="none" height="63.582" style="stroke:#000000;stroke-width:1.5;" width="197" x="272.5" y="313.9883"/><text fill="#000000" font-family="sans-serif" font-size="13" font-weight="bold" lengthAdjust="spacing" textLength="16" x="287.5" y="329.0166">alt</text><text fill="#000000" font-family="sans-serif" font-size="11" font-weight="bold" lengthAdjust="spacing" textLength="116" x="348.5" y="327.8584">[System Verification]</text><line style="stroke:#181818;stroke-width:1.0;stroke-dasharray:2.0,2.0;" x1="319.5" x2="361.5" y1="356.5703" y2="356.5703"/><line style="stroke:#181818;stroke-width:1.0;stroke-dasharray:2.0,2.0;" x1="361.5" x2="361.5" y1="356.5703" y2="369.5703"/><line style="stroke:#181818;stroke-width:1.0;stroke-dasharray:2.0,2.0;" x1="320.5" x2="361.5" y1="369.5703" y2="369.5703"/><polygon fill="#181818" points="330.5,365.5703,320.5,369.5703,330.5,373.5703,326.5,369.5703" style="stroke:#181818;stroke-width:1.0;"/><text fill="#000000" font-family="sans-serif" font-size="13" font-weight="bold" lengthAdjust="spacing" textLength="7" x="326.5" y="351.3076">6</text><text fill="#000000" font-family="sans-serif" font-size="13" lengthAdjust="spacing" textLength="58" x="337.5" y="351.3076">verify data</text><polygon fill="#181818" points="39.5,403.8613,29.5,407.8613,39.5,411.8613,35.5,407.8613" style="stroke:#181818;stroke-width:1.0;"/><line style="stroke:#181818;stroke-width:1.0;stroke-dasharray:2.0,2.0;" x1="33.5" x2="313.5" y1="407.8613" y2="407.8613"/><text fill="#000000" font-family="sans-serif" font-size="13" font-weight="bold" lengthAdjust="spacing" textLength="7" x="45.5" y="402.5986">7</text><text fill="#000000" font-family="sans-serif" font-size="13" lengthAdjust="spacing" textLength="236" x="56.5" y="402.5986">shows all data and requests confirmation</text><polygon fill="#181818" points="297.5,435.1523,307.5,439.1523,297.5,443.1523,301.5,439.1523" style="stroke:#181818;stroke-width:1.0;"/><line style="stroke:#181818;stroke-width:1.0;" x1="28.5" x2="303.5" y1="439.1523" y2="439.1523"/><text fill="#000000" font-family="sans-serif" font-size="13" font-weight="bold" lengthAdjust="spacing" textLength="7" x="35.5" y="433.8896">8</text><text fill="#000000" font-family="sans-serif" font-size="13" lengthAdjust="spacing" textLength="78" x="46.5" y="433.8896">confirms data</text><polygon fill="#181818" points="39.5,466.4434,29.5,470.4434,39.5,474.4434,35.5,470.4434" style="stroke:#181818;stroke-width:1.0;"/><line style="stroke:#181818;stroke-width:1.0;stroke-dasharray:2.0,2.0;" x1="33.5" x2="313.5" y1="470.4434" y2="470.4434"/><text fill="#000000" font-family="sans-serif" font-size="13" font-weight="bold" lengthAdjust="spacing" textLength="7" x="45.5" y="465.1807">9</text><text fill="#000000" font-family="sans-serif" font-size="13" lengthAdjust="spacing" textLength="246" x="56.5" y="465.1807">displays operation success / show agenda</text><!--SRC=[XL8zRzim4DtrAnuy9OFJtKE000wwDEYWebEN2tcM2Kj7bNUoeNyVwijEMZlXT9JkVTmxwY58IuaQD56YswVOC2nrNEZvJqlkG1MNrjUCnCv8glfzW-x9nrEG2ZkgbOl2WkNMibVZ1YN_xLWSOnke6jhlod9xZpMUQkCaPE78-2aPHfr5wPfNJhbs5XDMtykN5KZnGf8jf28BMd2X9J6iDfF2s32L8ouSoNX1e2YGpt9RFowsDXbrK5W4UG-2y0dFOgb753nLB9v6v9bmKHW-pXphJBSmRt8CyGJRCtv5R2D-13MG-45daFaZKAvpV5c09wcHo_DLYMkEPpozGr_5thIOXbseAJmPuIuyy0FKSgRRJ77_YPs5ueCTwrlMXPFzI7hR5DMsG7zp2hlWykgZ_9ldN6Rwuz3LNrZpIZuTRrw1PgLw6d18_pooYx8BgRc8VX7yXr5di7unuytWVT2sfbuHMqwZ1MZd7AlYs_HmwFBa_ZVs1W00]--></g></svg>