<?xml version="1.0" encoding="us-ascii" standalone="no"?><svg xmlns="http://www.w3.org/2000/svg" xmlns:xlink="http://www.w3.org/1999/xlink" contentStyleType="text/css" height="455.7px" preserveAspectRatio="none" style="width:418px;height:455px;background:#FFFFFF;" version="1.1" viewBox="0 0 418 455" width="418.6px" zoomAndPan="magnify"><defs/><g><text fill="#000000" font-family="sans-serif" font-size="9.8" font-weight="bold" lengthAdjust="spacing" textLength="245" x="87.85" y="21.0752">System Sequence Diagram (SSD) - Alternative Two</text><rect fill="#FFFFFF" height="298.252" style="stroke:#181818;stroke-width:0.6999999999999998;" width="7" x="12.6" y="93.2695"/><rect fill="#FFFFFF" height="21.9037" style="stroke:#181818;stroke-width:0.6999999999999998;" width="7" x="302.4" y="109.5732"/><rect fill="#FFFFFF" height="21.9037" style="stroke:#181818;stroke-width:0.6999999999999998;" width="7" x="302.4" y="153.3807"/><rect fill="#FFFFFF" height="46.1111" style="stroke:#181818;stroke-width:0.6999999999999998;" width="7" x="302.4" y="197.1881"/><rect fill="#FFFFFF" height="76.2111" style="stroke:#181818;stroke-width:0.6999999999999998;" width="7" x="302.4" y="265.2029"/><rect fill="#FFFFFF" height="21.9037" style="stroke:#181818;stroke-width:0.6999999999999998;" width="7" x="302.4" y="363.3178"/><rect fill="none" height="44.5074" style="stroke:#000000;stroke-width:1.0499999999999998;" width="137.9" x="276.5" y="275.7029"/><line style="stroke:#181818;stroke-width:0.3499999999999999;stroke-dasharray:5.0,5.0;" x1="16.1" x2="16.1" y1="86.2695" y2="397.8215"/><line style="stroke:#181818;stroke-width:0.3499999999999999;stroke-dasharray:5.0,5.0;" x1="305.9" x2="305.9" y1="86.2695" y2="397.8215"/><text fill="#000000" font-family="sans-serif" font-size="9.8" lengthAdjust="spacing" textLength="21" x="3.5" y="83.81">HRM</text><ellipse cx="16.1" cy="37.1848" fill="#E3E3E3" rx="5.6" ry="5.6" style="stroke:#181818;stroke-width:0.3499999999999999;"/><path d="M16.1,42.7848 L16.1,61.6848 M7,48.3848 L25.2,48.3848 M16.1,61.6848 L7,72.1848 M16.1,61.6848 L25.2,72.1848 " fill="none" style="stroke:#181818;stroke-width:0.3499999999999999;"/><text fill="#000000" font-family="sans-serif" font-size="9.8" lengthAdjust="spacing" textLength="21" x="3.5" y="407.6967">HRM</text><ellipse cx="16.1" cy="416.1062" fill="#E3E3E3" rx="5.6" ry="5.6" style="stroke:#181818;stroke-width:0.3499999999999999;"/><path d="M16.1,421.7062 L16.1,440.6062 M7,427.3062 L25.2,427.3062 M16.1,440.6062 L7,451.1062 M16.1,440.6062 L25.2,451.1062 " fill="none" style="stroke:#181818;stroke-width:0.3499999999999999;"/><rect fill="#E3E3E3" height="22.8348" rx="1.75" ry="1.75" style="stroke:#181818;stroke-width:0.3499999999999999;" width="44.8" x="283.5" y="62.7348"/><text fill="#000000" font-family="sans-serif" font-size="9.8" lengthAdjust="spacing" textLength="35" x="288.4" y="78.21">:System</text><rect fill="#E3E3E3" height="22.8348" rx="1.75" ry="1.75" style="stroke:#181818;stroke-width:0.3499999999999999;" width="44.8" x="283.5" y="397.1215"/><text fill="#000000" font-family="sans-serif" font-size="9.8" lengthAdjust="spacing" textLength="35" x="288.4" y="412.5967">:System</text><rect fill="#FFFFFF" height="298.252" style="stroke:#181818;stroke-width:0.6999999999999998;" width="7" x="12.6" y="93.2695"/><rect fill="#FFFFFF" height="21.9037" style="stroke:#181818;stroke-width:0.6999999999999998;" width="7" x="302.4" y="109.5732"/><rect fill="#FFFFFF" height="21.9037" style="stroke:#181818;stroke-width:0.6999999999999998;" width="7" x="302.4" y="153.3807"/><rect fill="#FFFFFF" height="46.1111" style="stroke:#181818;stroke-width:0.6999999999999998;" width="7" x="302.4" y="197.1881"/><rect fill="#FFFFFF" height="76.2111" style="stroke:#181818;stroke-width:0.6999999999999998;" width="7" x="302.4" y="265.2029"/><rect fill="#FFFFFF" height="21.9037" style="stroke:#181818;stroke-width:0.6999999999999998;" width="7" x="302.4" y="363.3178"/><polygon fill="#181818" points="294,106.7732,301,109.5732,294,112.3732,296.8,109.5732" style="stroke:#181818;stroke-width:0.6999999999999998;"/><line style="stroke:#181818;stroke-width:0.6999999999999998;" x1="19.6" x2="298.2" y1="109.5732" y2="109.5732"/><text fill="#000000" font-family="sans-serif" font-size="9.1" font-weight="bold" lengthAdjust="spacing" textLength="4.9" x="24.5" y="105.8894">1</text><text fill="#000000" font-family="sans-serif" font-size="9.1" lengthAdjust="spacing" textLength="139.3" x="32.2" y="105.8894">asks to register a new collaborator</text><polygon fill="#181818" points="27.3,128.677,20.3,131.477,27.3,134.277,24.5,131.477" style="stroke:#181818;stroke-width:0.6999999999999998;"/><line style="stroke:#181818;stroke-width:0.6999999999999998;stroke-dasharray:2.0,2.0;" x1="23.1" x2="305.2" y1="131.477" y2="131.477"/><text fill="#000000" font-family="sans-serif" font-size="9.1" font-weight="bold" lengthAdjust="spacing" textLength="4.9" x="31.5" y="127.7931">2</text><text fill="#000000" font-family="sans-serif" font-size="9.1" lengthAdjust="spacing" textLength="188.3" x="39.2" y="127.7931">shows job category list and asks to select one</text><polygon fill="#181818" points="294,150.5807,301,153.3807,294,156.1807,296.8,153.3807" style="stroke:#181818;stroke-width:0.6999999999999998;"/><line style="stroke:#181818;stroke-width:0.6999999999999998;" x1="19.6" x2="298.2" y1="153.3807" y2="153.3807"/><text fill="#000000" font-family="sans-serif" font-size="9.1" font-weight="bold" lengthAdjust="spacing" textLength="4.9" x="24.5" y="149.6968">3</text><text fill="#000000" font-family="sans-serif" font-size="9.1" lengthAdjust="spacing" textLength="89.6" x="32.2" y="149.6968">selects a job category</text><polygon fill="#181818" points="27.3,172.4844,20.3,175.2844,27.3,178.0844,24.5,175.2844" style="stroke:#181818;stroke-width:0.6999999999999998;"/><line style="stroke:#181818;stroke-width:0.6999999999999998;stroke-dasharray:2.0,2.0;" x1="23.1" x2="305.2" y1="175.2844" y2="175.2844"/><text fill="#000000" font-family="sans-serif" font-size="9.1" font-weight="bold" lengthAdjust="spacing" textLength="4.9" x="31.5" y="171.6005">4</text><text fill="#000000" font-family="sans-serif" font-size="9.1" lengthAdjust="spacing" textLength="229.6" x="39.2" y="171.6005">shows identification card type list and asks to select one</text><polygon fill="#181818" points="294,194.3881,301,197.1881,294,199.9881,296.8,197.1881" style="stroke:#181818;stroke-width:0.6999999999999998;"/><line style="stroke:#181818;stroke-width:0.6999999999999998;" x1="19.6" x2="298.2" y1="197.1881" y2="197.1881"/><text fill="#000000" font-family="sans-serif" font-size="9.1" font-weight="bold" lengthAdjust="spacing" textLength="4.9" x="24.5" y="193.5042">5</text><text fill="#000000" font-family="sans-serif" font-size="9.1" lengthAdjust="spacing" textLength="89.6" x="32.2" y="193.5042">selects a job category</text><polygon fill="#181818" points="27.3,240.4992,20.3,243.2992,27.3,246.0992,24.5,243.2992" style="stroke:#181818;stroke-width:0.6999999999999998;"/><line style="stroke:#181818;stroke-width:0.6999999999999998;stroke-dasharray:2.0,2.0;" x1="23.1" x2="305.2" y1="243.2992" y2="243.2992"/><text fill="#000000" font-family="sans-serif" font-size="9.1" font-weight="bold" lengthAdjust="spacing" textLength="4.9" x="31.5" y="227.5116">6</text><text fill="#000000" font-family="sans-serif" font-size="9.1" lengthAdjust="spacing" textLength="236.6" x="39.2" y="215.4079">requests data (i.e. name, date of birthday, admission data,</text><text fill="#000000" font-family="sans-serif" font-size="9.1" lengthAdjust="spacing" textLength="198.8" x="42" y="227.5116">address, email, phone number,(taxpayer number/</text><text fill="#000000" font-family="sans-serif" font-size="9.1" lengthAdjust="spacing" textLength="167.3" x="39.2" y="239.6153">citizen card number/passport number),...)</text><polygon fill="#181818" points="294,262.4029,301,265.2029,294,268.0029,296.8,265.2029" style="stroke:#181818;stroke-width:0.6999999999999998;"/><line style="stroke:#181818;stroke-width:0.6999999999999998;" x1="19.6" x2="298.2" y1="265.2029" y2="265.2029"/><text fill="#000000" font-family="sans-serif" font-size="9.1" font-weight="bold" lengthAdjust="spacing" textLength="4.9" x="24.5" y="261.519">7</text><text fill="#000000" font-family="sans-serif" font-size="9.1" lengthAdjust="spacing" textLength="85.4" x="32.2" y="261.519">types requested data</text><path d="M276.5,275.7029 L319.2,275.7029 L319.2,282.2066 L312.2,289.2066 L276.5,289.2066 L276.5,275.7029 " fill="#EEEEEE" style="stroke:#000000;stroke-width:1.0499999999999998;"/><rect fill="none" height="44.5074" style="stroke:#000000;stroke-width:1.0499999999999998;" width="137.9" x="276.5" y="275.7029"/><text fill="#000000" font-family="sans-serif" font-size="9.1" font-weight="bold" lengthAdjust="spacing" textLength="11.2" x="287" y="286.2228">alt</text><text fill="#000000" font-family="sans-serif" font-size="7.7" font-weight="bold" lengthAdjust="spacing" textLength="81.2" x="329.7" y="285.412">[System Verification]</text><line style="stroke:#181818;stroke-width:0.6999999999999998;stroke-dasharray:2.0,2.0;" x1="309.4" x2="338.8" y1="305.5104" y2="305.5104"/><line style="stroke:#181818;stroke-width:0.6999999999999998;stroke-dasharray:2.0,2.0;" x1="338.8" x2="338.8" y1="305.5104" y2="314.6104"/><line style="stroke:#181818;stroke-width:0.6999999999999998;stroke-dasharray:2.0,2.0;" x1="310.1" x2="338.8" y1="314.6104" y2="314.6104"/><polygon fill="#181818" points="317.1,311.8104,310.1,314.6104,317.1,317.4104,314.3,314.6104" style="stroke:#181818;stroke-width:0.6999999999999998;"/><text fill="#000000" font-family="sans-serif" font-size="9.1" font-weight="bold" lengthAdjust="spacing" textLength="4.9" x="314.3" y="301.8265">8</text><text fill="#000000" font-family="sans-serif" font-size="9.1" lengthAdjust="spacing" textLength="40.6" x="322" y="301.8265">verify data</text><polygon fill="#181818" points="27.3,338.6141,20.3,341.4141,27.3,344.2141,24.5,341.4141" style="stroke:#181818;stroke-width:0.6999999999999998;"/><line style="stroke:#181818;stroke-width:0.6999999999999998;stroke-dasharray:2.0,2.0;" x1="23.1" x2="305.2" y1="341.4141" y2="341.4141"/><text fill="#000000" font-family="sans-serif" font-size="9.1" font-weight="bold" lengthAdjust="spacing" textLength="4.9" x="31.5" y="337.7302">9</text><text fill="#000000" font-family="sans-serif" font-size="9.1" lengthAdjust="spacing" textLength="165.2" x="39.2" y="337.7302">shows all data and requests confirmation</text><polygon fill="#181818" points="294,360.5178,301,363.3178,294,366.1178,296.8,363.3178" style="stroke:#181818;stroke-width:0.6999999999999998;"/><line style="stroke:#181818;stroke-width:0.6999999999999998;" x1="19.6" x2="298.2" y1="363.3178" y2="363.3178"/><text fill="#000000" font-family="sans-serif" font-size="9.1" font-weight="bold" lengthAdjust="spacing" textLength="9.8" x="24.5" y="359.6339">10</text><text fill="#000000" font-family="sans-serif" font-size="9.1" lengthAdjust="spacing" textLength="54.6" x="37.1" y="359.6339">confirms data</text><polygon fill="#181818" points="27.3,382.4215,20.3,385.2215,27.3,388.0215,24.5,385.2215" style="stroke:#181818;stroke-width:0.6999999999999998;"/><line style="stroke:#181818;stroke-width:0.6999999999999998;stroke-dasharray:2.0,2.0;" x1="23.1" x2="305.2" y1="385.2215" y2="385.2215"/><text fill="#000000" font-family="sans-serif" font-size="9.1" font-weight="bold" lengthAdjust="spacing" textLength="9.8" x="31.5" y="381.5376">11</text><text fill="#000000" font-family="sans-serif" font-size="9.1" lengthAdjust="spacing" textLength="253.4" x="44.1" y="381.5376">displays operation success / show list of existing collaborators</text><!--SRC=[dLHDZzf03BtdLrYSG0hidKEbIdlePI-bwcalPiO4bybCEZQmsL-_pWTPL54gcjECOx_t_En43XmRp5X3dM9o-vng0ir7AcHwqw0xO4KRRGD19gSOgt2T87lqwSonWXq6eQ9GLalTjA9KmuP-7oawWcV6gakVRpRF2rZ2rw2K8ogV27wSKr7WKLCyrblATdQQCio-VN-P0GgyO3G9kJ12PSSDHeNPUc3e4uPZNySdL9eg2h1dlC3ooqNLseeE0fgieuejb04XqXbS2W6tAQFnzxKJueK2ncT4MXhe1NzjNgIpmA-q1MSrLSej18C7Z7vY50hc8gH8FPQdcnItD0-LObAl6Ux8lAEHFKNb7HiAfsXWsOEs3VrJxntD_w7xSOjpjr1YQ1uLOSuhMa74ciekG91siEMiUuzj2UXh5kdwwvBBrsWHdqca1AgHGmdDtlg2OUtAkU9RWwtH386dr-XO-Pr6VyPeWo9DoZhU5-LgjLeyEilEQxaqGxuNU7EIVIpefV8dvMbgnHycJU2dBgdznAJexvewh0I6C9ZQJN-osQMuurn_4ZxGv5WhV-_k_gmzInEm5KWDvM5HvUYS3H2U-ZqUjjLcJczswFv1rn-mtDRx0G00]--></g></svg>