<?xml version="1.0" encoding="us-ascii" standalone="no"?><svg xmlns="http://www.w3.org/2000/svg" xmlns:xlink="http://www.w3.org/1999/xlink" contentStyleType="text/css" height="791px" preserveAspectRatio="none" style="width:557px;height:791px;background:#FFFFFF;" version="1.1" viewBox="0 0 557 791" width="557px" zoomAndPan="magnify"><defs/><g><text fill="#000000" font-family="sans-serif" font-size="14" font-weight="bold" lengthAdjust="spacing" textLength="351" x="104.5" y="30.1074">System Sequence Diagram (SSD) - Alternative One</text><rect fill="#FFFFFF" height="566.2383" style="stroke:#181818;stroke-width:1.0;" width="10" x="18" y="133.2422"/><rect fill="#FFFFFF" height="48.582" style="stroke:#181818;stroke-width:1.0;" width="10" x="391" y="156.5332"/><rect fill="#FFFFFF" height="108.873" style="stroke:#181818;stroke-width:1.0;" width="10" x="391" y="236.4063"/><rect fill="#FFFFFF" height="48.582" style="stroke:#181818;stroke-width:1.0;" width="10" x="391" y="376.5703"/><rect fill="#FFFFFF" height="108.873" style="stroke:#181818;stroke-width:1.0;" width="10" x="391" y="456.4434"/><rect fill="#FFFFFF" height="31.291" style="stroke:#181818;stroke-width:1.0;" width="10" x="391" y="596.6074"/><rect fill="#FFFFFF" height="31.291" style="stroke:#181818;stroke-width:1.0;" width="10" x="391" y="659.1895"/><rect fill="none" height="63.582" style="stroke:#000000;stroke-width:1.5;" width="197" x="354" y="251.4063"/><rect fill="none" height="63.582" style="stroke:#000000;stroke-width:1.5;" width="197" x="354" y="471.4434"/><line style="stroke:#181818;stroke-width:0.5;stroke-dasharray:5.0,5.0;" x1="23" x2="23" y1="123.2422" y2="708.4805"/><line style="stroke:#181818;stroke-width:0.5;stroke-dasharray:5.0,5.0;" x1="396" x2="396" y1="123.2422" y2="708.4805"/><text fill="#000000" font-family="sans-serif" font-size="14" lengthAdjust="spacing" textLength="30" x="5" y="119.7285">HRM</text><ellipse cx="23" cy="53.1211" fill="#E3E3E3" rx="8" ry="8" style="stroke:#181818;stroke-width:0.5;"/><path d="M23,61.1211 L23,88.1211 M10,69.1211 L36,69.1211 M23,88.1211 L10,103.1211 M23,88.1211 L36,103.1211 " fill="none" style="stroke:#181818;stroke-width:0.5;"/><text fill="#000000" font-family="sans-serif" font-size="14" lengthAdjust="spacing" textLength="30" x="5" y="722.5879">HRM</text><ellipse cx="23" cy="734.6016" fill="#E3E3E3" rx="8" ry="8" style="stroke:#181818;stroke-width:0.5;"/><path d="M23,742.6016 L23,769.6016 M10,750.6016 L36,750.6016 M23,769.6016 L10,784.6016 M23,769.6016 L36,784.6016 " fill="none" style="stroke:#181818;stroke-width:0.5;"/><rect fill="#E3E3E3" height="32.6211" rx="2.5" ry="2.5" style="stroke:#181818;stroke-width:0.5;" width="64" x="364" y="89.6211"/><text fill="#000000" font-family="sans-serif" font-size="14" lengthAdjust="spacing" textLength="50" x="371" y="111.7285">:System</text><rect fill="#E3E3E3" height="32.6211" rx="2.5" ry="2.5" style="stroke:#181818;stroke-width:0.5;" width="64" x="364" y="707.4805"/><text fill="#000000" font-family="sans-serif" font-size="14" lengthAdjust="spacing" textLength="50" x="371" y="729.5879">:System</text><rect fill="#FFFFFF" height="566.2383" style="stroke:#181818;stroke-width:1.0;" width="10" x="18" y="133.2422"/><rect fill="#FFFFFF" height="48.582" style="stroke:#181818;stroke-width:1.0;" width="10" x="391" y="156.5332"/><rect fill="#FFFFFF" height="108.873" style="stroke:#181818;stroke-width:1.0;" width="10" x="391" y="236.4063"/><rect fill="#FFFFFF" height="48.582" style="stroke:#181818;stroke-width:1.0;" width="10" x="391" y="376.5703"/><rect fill="#FFFFFF" height="108.873" style="stroke:#181818;stroke-width:1.0;" width="10" x="391" y="456.4434"/><rect fill="#FFFFFF" height="31.291" style="stroke:#181818;stroke-width:1.0;" width="10" x="391" y="596.6074"/><rect fill="#FFFFFF" height="31.291" style="stroke:#181818;stroke-width:1.0;" width="10" x="391" y="659.1895"/><polygon fill="#181818" points="379,152.5332,389,156.5332,379,160.5332,383,156.5332" style="stroke:#181818;stroke-width:1.0;"/><line style="stroke:#181818;stroke-width:1.0;" x1="28" x2="385" y1="156.5332" y2="156.5332"/><text fill="#000000" font-family="sans-serif" font-size="13" font-weight="bold" lengthAdjust="spacing" textLength="7" x="35" y="151.2705">1</text><text fill="#000000" font-family="sans-serif" font-size="13" lengthAdjust="spacing" textLength="199" x="46" y="151.2705">asks to register a new collaborator</text><polygon fill="#181818" points="39,201.1152,29,205.1152,39,209.1152,35,205.1152" style="stroke:#181818;stroke-width:1.0;"/><line style="stroke:#181818;stroke-width:1.0;stroke-dasharray:2.0,2.0;" x1="33" x2="395" y1="205.1152" y2="205.1152"/><text fill="#000000" font-family="sans-serif" font-size="13" font-weight="bold" lengthAdjust="spacing" textLength="7" x="45" y="191.207">2</text><text fill="#000000" font-family="sans-serif" font-size="13" lengthAdjust="spacing" textLength="324" x="56" y="182.5615">requests data (i.e. name, date birthday, admission data,</text><text fill="#000000" font-family="sans-serif" font-size="13" lengthAdjust="spacing" textLength="199" x="60" y="199.8525">address, email, phone number, ...)</text><polygon fill="#181818" points="379,232.4063,389,236.4063,379,240.4063,383,236.4063" style="stroke:#181818;stroke-width:1.0;"/><line style="stroke:#181818;stroke-width:1.0;" x1="28" x2="385" y1="236.4063" y2="236.4063"/><text fill="#000000" font-family="sans-serif" font-size="13" font-weight="bold" lengthAdjust="spacing" textLength="7" x="35" y="231.1436">3</text><text fill="#000000" font-family="sans-serif" font-size="13" lengthAdjust="spacing" textLength="122" x="46" y="231.1436">types requested data</text><path d="M354,251.4063 L415,251.4063 L415,260.6973 L405,270.6973 L354,270.6973 L354,251.4063 " fill="#EEEEEE" style="stroke:#000000;stroke-width:1.5;"/><rect fill="none" height="63.582" style="stroke:#000000;stroke-width:1.5;" width="197" x="354" y="251.4063"/><text fill="#000000" font-family="sans-serif" font-size="13" font-weight="bold" lengthAdjust="spacing" textLength="16" x="369" y="266.4346">alt</text><text fill="#000000" font-family="sans-serif" font-size="11" font-weight="bold" lengthAdjust="spacing" textLength="116" x="430" y="265.2764">[System Verification]</text><line style="stroke:#181818;stroke-width:1.0;stroke-dasharray:2.0,2.0;" x1="401" x2="443" y1="293.9883" y2="293.9883"/><line style="stroke:#181818;stroke-width:1.0;stroke-dasharray:2.0,2.0;" x1="443" x2="443" y1="293.9883" y2="306.9883"/><line style="stroke:#181818;stroke-width:1.0;stroke-dasharray:2.0,2.0;" x1="402" x2="443" y1="306.9883" y2="306.9883"/><polygon fill="#181818" points="412,302.9883,402,306.9883,412,310.9883,408,306.9883" style="stroke:#181818;stroke-width:1.0;"/><text fill="#000000" font-family="sans-serif" font-size="13" font-weight="bold" lengthAdjust="spacing" textLength="7" x="408" y="288.7256">4</text><text fill="#000000" font-family="sans-serif" font-size="13" lengthAdjust="spacing" textLength="58" x="419" y="288.7256">verify data</text><polygon fill="#181818" points="39,341.2793,29,345.2793,39,349.2793,35,345.2793" style="stroke:#181818;stroke-width:1.0;"/><line style="stroke:#181818;stroke-width:1.0;stroke-dasharray:2.0,2.0;" x1="33" x2="395" y1="345.2793" y2="345.2793"/><text fill="#000000" font-family="sans-serif" font-size="13" font-weight="bold" lengthAdjust="spacing" textLength="7" x="45" y="340.0166">5</text><text fill="#000000" font-family="sans-serif" font-size="13" lengthAdjust="spacing" textLength="328" x="56" y="340.0166">shows identification card type list and asks to select one</text><polygon fill="#181818" points="379,372.5703,389,376.5703,379,380.5703,383,376.5703" style="stroke:#181818;stroke-width:1.0;"/><line style="stroke:#181818;stroke-width:1.0;" x1="28" x2="385" y1="376.5703" y2="376.5703"/><text fill="#000000" font-family="sans-serif" font-size="13" font-weight="bold" lengthAdjust="spacing" textLength="7" x="35" y="371.3076">6</text><text fill="#000000" font-family="sans-serif" font-size="13" lengthAdjust="spacing" textLength="125" x="46" y="371.3076">selects a id card type</text><polygon fill="#181818" points="39,421.1523,29,425.1523,39,429.1523,35,425.1523" style="stroke:#181818;stroke-width:1.0;"/><line style="stroke:#181818;stroke-width:1.0;stroke-dasharray:2.0,2.0;" x1="33" x2="395" y1="425.1523" y2="425.1523"/><text fill="#000000" font-family="sans-serif" font-size="13" font-weight="bold" lengthAdjust="spacing" textLength="7" x="45" y="411.2441">7</text><text fill="#000000" font-family="sans-serif" font-size="13" lengthAdjust="spacing" textLength="210" x="56" y="402.5986">requests data (i.e. taxpayer number/</text><text fill="#000000" font-family="sans-serif" font-size="13" lengthAdjust="spacing" textLength="219" x="56" y="419.8896">citizen card number/passport number)</text><polygon fill="#181818" points="379,452.4434,389,456.4434,379,460.4434,383,456.4434" style="stroke:#181818;stroke-width:1.0;"/><line style="stroke:#181818;stroke-width:1.0;" x1="28" x2="385" y1="456.4434" y2="456.4434"/><text fill="#000000" font-family="sans-serif" font-size="13" font-weight="bold" lengthAdjust="spacing" textLength="7" x="35" y="451.1807">8</text><text fill="#000000" font-family="sans-serif" font-size="13" lengthAdjust="spacing" textLength="122" x="46" y="451.1807">types requested data</text><path d="M354,471.4434 L415,471.4434 L415,480.7344 L405,490.7344 L354,490.7344 L354,471.4434 " fill="#EEEEEE" style="stroke:#000000;stroke-width:1.5;"/><rect fill="none" height="63.582" style="stroke:#000000;stroke-width:1.5;" width="197" x="354" y="471.4434"/><text fill="#000000" font-family="sans-serif" font-size="13" font-weight="bold" lengthAdjust="spacing" textLength="16" x="369" y="486.4717">alt</text><text fill="#000000" font-family="sans-serif" font-size="11" font-weight="bold" lengthAdjust="spacing" textLength="116" x="430" y="485.3135">[System Verification]</text><line style="stroke:#181818;stroke-width:1.0;stroke-dasharray:2.0,2.0;" x1="401" x2="443" y1="514.0254" y2="514.0254"/><line style="stroke:#181818;stroke-width:1.0;stroke-dasharray:2.0,2.0;" x1="443" x2="443" y1="514.0254" y2="527.0254"/><line style="stroke:#181818;stroke-width:1.0;stroke-dasharray:2.0,2.0;" x1="402" x2="443" y1="527.0254" y2="527.0254"/><polygon fill="#181818" points="412,523.0254,402,527.0254,412,531.0254,408,527.0254" style="stroke:#181818;stroke-width:1.0;"/><text fill="#000000" font-family="sans-serif" font-size="13" font-weight="bold" lengthAdjust="spacing" textLength="7" x="408" y="508.7627">9</text><text fill="#000000" font-family="sans-serif" font-size="13" lengthAdjust="spacing" textLength="119" x="419" y="508.7627">verify id card number</text><polygon fill="#181818" points="39,561.3164,29,565.3164,39,569.3164,35,565.3164" style="stroke:#181818;stroke-width:1.0;"/><line style="stroke:#181818;stroke-width:1.0;stroke-dasharray:2.0,2.0;" x1="33" x2="395" y1="565.3164" y2="565.3164"/><text fill="#000000" font-family="sans-serif" font-size="13" font-weight="bold" lengthAdjust="spacing" textLength="14" x="45" y="560.0537">10</text><text fill="#000000" font-family="sans-serif" font-size="13" lengthAdjust="spacing" textLength="269" x="63" y="560.0537">shows job category list and asks to select one</text><polygon fill="#181818" points="379,592.6074,389,596.6074,379,600.6074,383,596.6074" style="stroke:#181818;stroke-width:1.0;"/><line style="stroke:#181818;stroke-width:1.0;" x1="28" x2="385" y1="596.6074" y2="596.6074"/><text fill="#000000" font-family="sans-serif" font-size="13" font-weight="bold" lengthAdjust="spacing" textLength="14" x="35" y="591.3447">11</text><text fill="#000000" font-family="sans-serif" font-size="13" lengthAdjust="spacing" textLength="128" x="53" y="591.3447">selects a job category</text><polygon fill="#181818" points="39,623.8984,29,627.8984,39,631.8984,35,627.8984" style="stroke:#181818;stroke-width:1.0;"/><line style="stroke:#181818;stroke-width:1.0;stroke-dasharray:2.0,2.0;" x1="33" x2="395" y1="627.8984" y2="627.8984"/><text fill="#000000" font-family="sans-serif" font-size="13" font-weight="bold" lengthAdjust="spacing" textLength="14" x="45" y="622.6357">12</text><text fill="#000000" font-family="sans-serif" font-size="13" lengthAdjust="spacing" textLength="236" x="63" y="622.6357">shows all data and requests confirmation</text><polygon fill="#181818" points="379,655.1895,389,659.1895,379,663.1895,383,659.1895" style="stroke:#181818;stroke-width:1.0;"/><line style="stroke:#181818;stroke-width:1.0;" x1="28" x2="385" y1="659.1895" y2="659.1895"/><text fill="#000000" font-family="sans-serif" font-size="13" font-weight="bold" lengthAdjust="spacing" textLength="14" x="35" y="653.9268">13</text><text fill="#000000" font-family="sans-serif" font-size="13" lengthAdjust="spacing" textLength="78" x="53" y="653.9268">confirms data</text><polygon fill="#181818" points="39,686.4805,29,690.4805,39,694.4805,35,690.4805" style="stroke:#181818;stroke-width:1.0;"/><line style="stroke:#181818;stroke-width:1.0;stroke-dasharray:2.0,2.0;" x1="33" x2="395" y1="690.4805" y2="690.4805"/><text fill="#000000" font-family="sans-serif" font-size="13" font-weight="bold" lengthAdjust="spacing" textLength="14" x="45" y="685.2178">14</text><text fill="#000000" font-family="sans-serif" font-size="13" lengthAdjust="spacing" textLength="158" x="63" y="685.2178">displays operation success</text><!--SRC=[bLGzZzim3DtzAuXC5y1nzmm52jpGvN103NIwXP4OHuqikIAJrFtrPVoLj8ql5qqonVVuo2UPzouqcB26EePeTYdM198EbF5qqg3POqMbj9uWaH4CbRzEu1tQU7AXWYrwfYmJ9vfQjYnKGqa_3nGCmRF3wfp-L9RFIrZ15o-K0eex4hm6XU51OZZK6qgwDn8JBBv-Ura0ChnWK0afquBYZ6im22pMVOKkeTzsE7T4eH41MGQwng_Lvr7MMb5x1edQKkKqb00Xq0bCz1utCQ4AwB0JvLW3XZKmhPHqv5yhcxRBmc1H49vSGGK4h2a_1mWsBidEOfi3sjenknYwpFmjQCGcOiw1QdG-XsON0q4_aHoAebXsfItTKZGg-Aj5QHlYKHBPhj9yJ-XbX7wdvBREg3anPF_qEcoL_dZEQY-i56oMpKn6qtaNJmpEKf2970mcs-a4hou01ZiPm-Jrje4EOHhvxTu1vWRGKx1Qw-obr8IvJVPXNmL_DTZgSU_HfxTWdBZVD7GrH1jaRcAIuNlvWMOUC_FTI_gkgpTkyd_kZeCRNkOrRFBxdkS_uaP9XAgOshi-pupbZh_N9Hv-jfDGzBut-Anlijp4i7Mflipj4Oa3cEyyljcBPnqt7bk6s53gtmmVZD4VnOoKFm00]--></g></svg>