<?xml version="1.0" encoding="us-ascii" standalone="no"?><svg xmlns="http://www.w3.org/2000/svg" xmlns:xlink="http://www.w3.org/1999/xlink" contentStyleType="text/css" height="521px" preserveAspectRatio="none" style="width:1507px;height:521px;background:#FFFFFF;" version="1.1" viewBox="0 0 1507 521" width="1507px" zoomAndPan="magnify"><defs/><g><rect fill="#FFFFFF" height="401.2656" style="stroke:#181818;stroke-width:1.0;" width="10" x="271" y="67.4297"/><rect fill="#FFFFFF" height="29.1328" style="stroke:#181818;stroke-width:1.0;" width="10" x="419" y="144.8281"/><rect fill="#FFFFFF" height="230.4688" style="stroke:#181818;stroke-width:1.0;" width="10" x="595" y="203.0938"/><rect fill="#FFFFFF" height="29.1328" style="stroke:#181818;stroke-width:1.0;" width="10" x="764" y="232.2266"/><rect fill="#FFFFFF" height="30" style="stroke:#181818;stroke-width:1.0;" width="10" x="1275" y="314.625"/><rect fill="#FFFFFF" height="30" style="stroke:#181818;stroke-width:1.0;" width="10" x="1402.5" y="388.5625"/><rect fill="none" height="358.1328" style="stroke:#000000;stroke-width:1.5;" width="1292" x="209.5" y="82.4297"/><rect fill="none" height="327" style="stroke:#000000;stroke-width:1.5;" width="1272" x="219.5" y="106.5625"/><rect fill="none" height="150.2031" style="stroke:#000000;stroke-width:1.5;" width="944" x="537.5" y="276.3594"/><line style="stroke:#181818;stroke-width:0.5;stroke-dasharray:5.0,5.0;" x1="275.5" x2="275.5" y1="36.2969" y2="486.6953"/><line style="stroke:#181818;stroke-width:0.5;stroke-dasharray:5.0,5.0;" x1="423.5" x2="423.5" y1="36.2969" y2="486.6953"/><line style="stroke:#181818;stroke-width:0.5;stroke-dasharray:5.0,5.0;" x1="599.5" x2="599.5" y1="36.2969" y2="486.6953"/><line style="stroke:#181818;stroke-width:0.5;stroke-dasharray:5.0,5.0;" x1="768.5" x2="768.5" y1="36.2969" y2="486.6953"/><line style="stroke:#181818;stroke-width:0.5;stroke-dasharray:5.0,5.0;" x1="1279.5" x2="1279.5" y1="36.2969" y2="486.6953"/><line style="stroke:#181818;stroke-width:0.5;stroke-dasharray:5.0,5.0;" x1="1407.5" x2="1407.5" y1="36.2969" y2="486.6953"/><rect fill="#E3E3E3" height="30.2969" rx="2.5" ry="2.5" style="stroke:#181818;stroke-width:0.5;" width="93" x="229.5" y="5"/><text fill="#000000" font-family="sans-serif" font-size="14" lengthAdjust="spacing" textLength="79" x="236.5" y="24.9951">team:Team</text><rect fill="#E3E3E3" height="30.2969" rx="2.5" ry="2.5" style="stroke:#181818;stroke-width:0.5;" width="93" x="229.5" y="485.6953"/><text fill="#000000" font-family="sans-serif" font-size="14" lengthAdjust="spacing" textLength="79" x="236.5" y="505.6904">team:Team</text><rect fill="#E3E3E3" height="30.2969" rx="2.5" ry="2.5" style="stroke:#181818;stroke-width:0.5;" width="183" x="332.5" y="5"/><text fill="#000000" font-family="sans-serif" font-size="14" lengthAdjust="spacing" textLength="169" x="339.5" y="24.9951">collaborator:Collaborator</text><rect fill="#E3E3E3" height="30.2969" rx="2.5" ry="2.5" style="stroke:#181818;stroke-width:0.5;" width="183" x="332.5" y="485.6953"/><text fill="#000000" font-family="sans-serif" font-size="14" lengthAdjust="spacing" textLength="169" x="339.5" y="505.6904">collaborator:Collaborator</text><rect fill="#E3E3E3" height="30.2969" rx="2.5" ry="2.5" style="stroke:#181818;stroke-width:0.5;" width="105" x="547.5" y="5"/><text fill="#000000" font-family="sans-serif" font-size="14" lengthAdjust="spacing" textLength="91" x="554.5" y="24.9951">:EmailService</text><rect fill="#E3E3E3" height="30.2969" rx="2.5" ry="2.5" style="stroke:#181818;stroke-width:0.5;" width="105" x="547.5" y="485.6953"/><text fill="#000000" font-family="sans-serif" font-size="14" lengthAdjust="spacing" textLength="91" x="554.5" y="505.6904">:EmailService</text><rect fill="#E3E3E3" height="30.2969" rx="2.5" ry="2.5" style="stroke:#181818;stroke-width:0.5;" width="149" x="694.5" y="5"/><text fill="#000000" font-family="sans-serif" font-size="14" lengthAdjust="spacing" textLength="135" x="701.5" y="24.9951">:ApplicationSession</text><rect fill="#E3E3E3" height="30.2969" rx="2.5" ry="2.5" style="stroke:#181818;stroke-width:0.5;" width="149" x="694.5" y="485.6953"/><text fill="#000000" font-family="sans-serif" font-size="14" lengthAdjust="spacing" textLength="135" x="701.5" y="505.6904">:ApplicationSession</text><rect fill="#E3E3E3" height="30.2969" rx="2.5" ry="2.5" style="stroke:#181818;stroke-width:0.5;" width="107" x="1226.5" y="5"/><text fill="#000000" font-family="sans-serif" font-size="14" lengthAdjust="spacing" textLength="93" x="1233.5" y="24.9951">:GmailService</text><rect fill="#E3E3E3" height="30.2969" rx="2.5" ry="2.5" style="stroke:#181818;stroke-width:0.5;" width="107" x="1226.5" y="485.6953"/><text fill="#000000" font-family="sans-serif" font-size="14" lengthAdjust="spacing" textLength="93" x="1233.5" y="505.6904">:GmailService</text><rect fill="#E3E3E3" height="30.2969" rx="2.5" ry="2.5" style="stroke:#181818;stroke-width:0.5;" width="128" x="1343.5" y="5"/><text fill="#000000" font-family="sans-serif" font-size="14" lengthAdjust="spacing" textLength="114" x="1350.5" y="24.9951">:DeiEmailService</text><rect fill="#E3E3E3" height="30.2969" rx="2.5" ry="2.5" style="stroke:#181818;stroke-width:0.5;" width="128" x="1343.5" y="485.6953"/><text fill="#000000" font-family="sans-serif" font-size="14" lengthAdjust="spacing" textLength="114" x="1350.5" y="505.6904">:DeiEmailService</text><rect fill="#FFFFFF" height="401.2656" style="stroke:#181818;stroke-width:1.0;" width="10" x="271" y="67.4297"/><rect fill="#FFFFFF" height="29.1328" style="stroke:#181818;stroke-width:1.0;" width="10" x="419" y="144.8281"/><rect fill="#FFFFFF" height="230.4688" style="stroke:#181818;stroke-width:1.0;" width="10" x="595" y="203.0938"/><rect fill="#FFFFFF" height="29.1328" style="stroke:#181818;stroke-width:1.0;" width="10" x="764" y="232.2266"/><rect fill="#FFFFFF" height="30" style="stroke:#181818;stroke-width:1.0;" width="10" x="1275" y="314.625"/><rect fill="#FFFFFF" height="30" style="stroke:#181818;stroke-width:1.0;" width="10" x="1402.5" y="388.5625"/><polygon fill="#181818" points="259,63.4297,269,67.4297,259,71.4297,263,67.4297" style="stroke:#181818;stroke-width:1.0;"/><line style="stroke:#181818;stroke-width:1.0;" x1="0" x2="265" y1="67.4297" y2="67.4297"/><text fill="#000000" font-family="sans-serif" font-size="13" font-weight="bold" lengthAdjust="spacing" textLength="23" x="7" y="62.3638">4.1</text><text fill="#000000" font-family="sans-serif" font-size="13" lengthAdjust="spacing" textLength="225" x="34" y="62.3638">sendToEmailFile(subject, message)</text><path d="M209.5,82.4297 L499.5,82.4297 L499.5,89.5625 L489.5,99.5625 L209.5,99.5625 L209.5,82.4297 " fill="#EEEEEE" style="stroke:#000000;stroke-width:1.5;"/><rect fill="none" height="358.1328" style="stroke:#000000;stroke-width:1.5;" width="1292" x="209.5" y="82.4297"/><text fill="#000000" font-family="sans-serif" font-size="13" font-weight="bold" lengthAdjust="spacing" textLength="245" x="224.5" y="95.4966">Send Email to All Team members</text><path d="M219.5,106.5625 L296.5,106.5625 L296.5,113.6953 L286.5,123.6953 L219.5,123.6953 L219.5,106.5625 " fill="#EEEEEE" style="stroke:#000000;stroke-width:1.5;"/><rect fill="none" height="327" style="stroke:#000000;stroke-width:1.5;" width="1272" x="219.5" y="106.5625"/><text fill="#000000" font-family="sans-serif" font-size="13" font-weight="bold" lengthAdjust="spacing" textLength="32" x="234.5" y="119.6294">loop</text><text fill="#000000" font-family="sans-serif" font-size="11" font-weight="bold" lengthAdjust="spacing" textLength="285" x="311.5" y="118.7729">[for each collaborator in collaboratorsTeam]</text><polygon fill="#181818" points="407,140.8281,417,144.8281,407,148.8281,411,144.8281" style="stroke:#181818;stroke-width:1.0;"/><line style="stroke:#181818;stroke-width:1.0;" x1="281" x2="413" y1="144.8281" y2="144.8281"/><text fill="#000000" font-family="sans-serif" font-size="13" font-weight="bold" lengthAdjust="spacing" textLength="23" x="288" y="139.7622">4.2</text><text fill="#000000" font-family="sans-serif" font-size="13" lengthAdjust="spacing" textLength="66" x="315" y="139.7622">getEmail()</text><polygon fill="#181818" points="292,169.9609,282,173.9609,292,177.9609,288,173.9609" style="stroke:#181818;stroke-width:1.0;"/><line style="stroke:#181818;stroke-width:1.0;" x1="286" x2="423" y1="173.9609" y2="173.9609"/><text fill="#000000" font-family="sans-serif" font-size="13" font-weight="bold" lengthAdjust="spacing" textLength="23" x="298" y="168.895">4.3</text><text fill="#000000" font-family="sans-serif" font-size="13" lengthAdjust="spacing" textLength="35" x="325" y="168.895">email</text><polygon fill="#181818" points="583,199.0938,593,203.0938,583,207.0938,587,203.0938" style="stroke:#181818;stroke-width:1.0;"/><line style="stroke:#181818;stroke-width:1.0;" x1="281" x2="589" y1="203.0938" y2="203.0938"/><text fill="#000000" font-family="sans-serif" font-size="13" font-weight="bold" lengthAdjust="spacing" textLength="23" x="288" y="198.0278">4.4</text><text fill="#000000" font-family="sans-serif" font-size="13" lengthAdjust="spacing" textLength="268" x="315" y="198.0278">sendToEmailFile(email, subject, message)</text><polygon fill="#181818" points="752,228.2266,762,232.2266,752,236.2266,756,232.2266" style="stroke:#181818;stroke-width:1.0;"/><line style="stroke:#181818;stroke-width:1.0;" x1="605" x2="758" y1="232.2266" y2="232.2266"/><text fill="#000000" font-family="sans-serif" font-size="13" font-weight="bold" lengthAdjust="spacing" textLength="23" x="612" y="227.1606">4.5</text><text fill="#000000" font-family="sans-serif" font-size="13" lengthAdjust="spacing" textLength="113" x="639" y="227.1606">getEmailService()</text><polygon fill="#181818" points="616,257.3594,606,261.3594,616,265.3594,612,261.3594" style="stroke:#181818;stroke-width:1.0;"/><line style="stroke:#181818;stroke-width:1.0;stroke-dasharray:2.0,2.0;" x1="610" x2="768" y1="261.3594" y2="261.3594"/><text fill="#000000" font-family="sans-serif" font-size="13" font-weight="bold" lengthAdjust="spacing" textLength="23" x="622" y="256.2935">4.6</text><text fill="#000000" font-family="sans-serif" font-size="13" lengthAdjust="spacing" textLength="82" x="649" y="256.2935">emailService</text><path d="M537.5,276.3594 L601.5,276.3594 L601.5,283.4922 L591.5,293.4922 L537.5,293.4922 L537.5,276.3594 " fill="#EEEEEE" style="stroke:#000000;stroke-width:1.5;"/><rect fill="none" height="150.2031" style="stroke:#000000;stroke-width:1.5;" width="944" x="537.5" y="276.3594"/><text fill="#000000" font-family="sans-serif" font-size="13" font-weight="bold" lengthAdjust="spacing" textLength="19" x="552.5" y="289.4263">alt</text><text fill="#000000" font-family="sans-serif" font-size="11" font-weight="bold" lengthAdjust="spacing" textLength="194" x="616.5" y="288.5698">[emailService is GmailService]</text><polygon fill="#181818" points="1263,310.625,1273,314.625,1263,318.625,1267,314.625" style="stroke:#181818;stroke-width:1.0;"/><line style="stroke:#181818;stroke-width:1.0;" x1="605" x2="1269" y1="314.625" y2="314.625"/><text fill="#000000" font-family="sans-serif" font-size="13" font-weight="bold" lengthAdjust="spacing" textLength="23" x="612" y="309.5591">4.7</text><text fill="#000000" font-family="sans-serif" font-size="13" lengthAdjust="spacing" textLength="624" x="639" y="309.5591">sendEmail(email, "Assignment Notification", "You have been assigned to an entry in the agenda.")</text><line style="stroke:#000000;stroke-width:1.0;stroke-dasharray:2.0,2.0;" x1="537.5" x2="1481.5" y1="353.625" y2="353.625"/><text fill="#000000" font-family="sans-serif" font-size="11" font-weight="bold" lengthAdjust="spacing" textLength="214" x="542.5" y="363.8354">[emailService is DeiEmailService]</text><polygon fill="#181818" points="1390.5,384.5625,1400.5,388.5625,1390.5,392.5625,1394.5,388.5625" style="stroke:#181818;stroke-width:1.0;"/><line style="stroke:#181818;stroke-width:1.0;" x1="605" x2="1396.5" y1="388.5625" y2="388.5625"/><text fill="#000000" font-family="sans-serif" font-size="13" font-weight="bold" lengthAdjust="spacing" textLength="23" x="612" y="383.4966">4.8</text><text fill="#000000" font-family="sans-serif" font-size="13" lengthAdjust="spacing" textLength="624" x="639" y="383.4966">sendEmail(email, "Assignment Notification", "You have been assigned to an entry in the agenda.")</text><polygon fill="#181818" points="11,464.6953,1,468.6953,11,472.6953,7,468.6953" style="stroke:#181818;stroke-width:1.0;"/><line style="stroke:#181818;stroke-width:1.0;" x1="5" x2="275" y1="468.6953" y2="468.6953"/><text fill="#000000" font-family="sans-serif" font-size="13" font-weight="bold" lengthAdjust="spacing" textLength="9" x="17" y="463.6294">5</text><text fill="#000000" font-family="sans-serif" font-size="13" lengthAdjust="spacing" textLength="26" x="30" y="463.6294">true</text><!--SRC=[nLLDRzim3BthLn0-DK1JOC1wCOO1GRVrjajwsP6n6LkjFWn9Jj5_FqcENLdokcDrI6pgaNnyf6JxmjM01YL8hNJJ6oq9d1c9sMLdmEO5EpgwDq5Wg76eEf42R8-jVkMgWpCAIumnRtUyuGCg1vKZbFMJ_wa0BOI73D1e8V2a3JfjweVa9JgaXion_YcHYoEP2syeWbD33ZuCW-0DEgxLaQprVz6bD6T-ZtcIr91XVn0lE6Ks5XQEJgjHdiZ0rxilRFyzwW8rM5BjauxuNrpGZHrFprxoMv2Uc-_2Zc7Z-0KTJKfsHey37BtNL3iu3GSXfd2IGWOR4e9VGki1pje0OTD3gZfmjNgtCJPSLupbAQQTy5GxSZ7bpMv1BjpMJPktLm7UQwOGPG6rz9yeCvrKr5Au6FGMIlqAhglcpBkfCIGhfoHHu8hR4c9ZkjuhsGYwpmgRvSdv9IfjfLXu2BVo1vwDBoGhh_bnpICeF3NygcrryDaw9ScF_c_j-FdAel9RV_G8FLu8JaJAdu80f3PC9ohm3kOjp9ph2NnJL8jtrMx5PQdkdsmJ1JOnvA-YelRyB7vKVeRzD0K-ufo8K5mpYn2gtHgR4Zm3_OI6n_IIkcVispwUl7hwF2I1fXkT_GK0]--></g></svg>