<?xml version="1.0" encoding="us-ascii" standalone="no"?><svg xmlns="http://www.w3.org/2000/svg" xmlns:xlink="http://www.w3.org/1999/xlink" contentStyleType="text/css" height="972px" preserveAspectRatio="none" style="width:3989px;height:972px;background:#FFFFFF;" version="1.1" viewBox="0 0 3989 972" width="3989px" zoomAndPan="magnify"><defs/><g><!--cluster UI--><g id="cluster_UI"><path d="M8.5,452 L24.5,452 A3.75,3.75 0 0 1 27,454.5 L34,474.2969 L194.5,474.2969 A2.5,2.5 0 0 1 197,476.7969 L197,548.5 A2.5,2.5 0 0 1 194.5,551 L8.5,551 A2.5,2.5 0 0 1 6,548.5 L6,454.5 A2.5,2.5 0 0 1 8.5,452 " fill="#F0F0F0" style="stroke:#000000;stroke-width:1.5;"/><line style="stroke:#000000;stroke-width:1.5;" x1="6" x2="34" y1="474.2969" y2="474.2969"/><text fill="#000000" font-family="sans-serif" font-size="14" font-weight="bold" lengthAdjust="spacing" textLength="15" x="10" y="466.9951">UI</text></g><!--cluster Core--><g id="cluster_Core"><path d="M232.5,6 L271.5,6 A3.75,3.75 0 0 1 274,8.5 L281,28.2969 L3979.5,28.2969 A2.5,2.5 0 0 1 3982,30.7969 L3982,962.5 A2.5,2.5 0 0 1 3979.5,965 L232.5,965 A2.5,2.5 0 0 1 230,962.5 L230,8.5 A2.5,2.5 0 0 1 232.5,6 " fill="#F0F0F0" style="stroke:#000000;stroke-width:1.5;"/><line style="stroke:#000000;stroke-width:1.5;" x1="230" x2="281" y1="28.2969" y2="28.2969"/><text fill="#000000" font-family="sans-serif" font-size="14" font-weight="bold" lengthAdjust="spacing" textLength="38" x="234" y="20.9951">Core</text></g><!--cluster Controller--><g id="cluster_Controller"><path d="M256.5,444 L336.5,444 A3.75,3.75 0 0 1 339,446.5 L346,466.2969 L710.5,466.2969 A2.5,2.5 0 0 1 713,468.7969 L713,556.5 A2.5,2.5 0 0 1 710.5,559 L256.5,559 A2.5,2.5 0 0 1 254,556.5 L254,446.5 A2.5,2.5 0 0 1 256.5,444 " fill="#DDDDDD" style="stroke:#000000;stroke-width:1.5;"/><line style="stroke:#000000;stroke-width:1.5;" x1="254" x2="346" y1="466.2969" y2="466.2969"/><text fill="#000000" font-family="sans-serif" font-size="14" font-weight="bold" lengthAdjust="spacing" textLength="79" x="258" y="458.9951">Controller</text></g><!--cluster Domain--><g id="cluster_Domain"><path d="M824.5,49 L883.5,49 A3.75,3.75 0 0 1 886,51.5 L893,71.2969 L3955.5,71.2969 A2.5,2.5 0 0 1 3958,73.7969 L3958,938.5 A2.5,2.5 0 0 1 3955.5,941 L824.5,941 A2.5,2.5 0 0 1 822,938.5 L822,51.5 A2.5,2.5 0 0 1 824.5,49 " fill="#DDDDDD" style="stroke:#000000;stroke-width:1.5;"/><line style="stroke:#000000;stroke-width:1.5;" x1="822" x2="893" y1="71.2969" y2="71.2969"/><text fill="#000000" font-family="sans-serif" font-size="14" font-weight="bold" lengthAdjust="spacing" textLength="58" x="826" y="63.9951">Domain</text></g><!--cluster Mapper--><g id="cluster_Mapper"><path d="M1832.5,616 L1892.5,616 A3.75,3.75 0 0 1 1895,618.5 L1902,638.2969 L2357.5,638.2969 A2.5,2.5 0 0 1 2360,640.7969 L2360,827.5 A2.5,2.5 0 0 1 2357.5,830 L1832.5,830 A2.5,2.5 0 0 1 1830,827.5 L1830,618.5 A2.5,2.5 0 0 1 1832.5,616 " fill="#DDDDDD" style="stroke:#000000;stroke-width:1.5;"/><line style="stroke:#000000;stroke-width:1.5;" x1="1830" x2="1902" y1="638.2969" y2="638.2969"/><text fill="#000000" font-family="sans-serif" font-size="14" font-weight="bold" lengthAdjust="spacing" textLength="59" x="1834" y="630.9951">Mapper</text></g><!--cluster DTO--><g id="cluster_DTO"><path d="M2517,685 L2551,685 A3.75,3.75 0 0 1 2553.5,687.5 L2560.5,707.2969 L2733,707.2969 A2.5,2.5 0 0 1 2735.5,709.7969 L2735.5,914.5 A2.5,2.5 0 0 1 2733,917 L2517,917 A2.5,2.5 0 0 1 2514.5,914.5 L2514.5,687.5 A2.5,2.5 0 0 1 2517,685 " fill="#DDDDDD" style="stroke:#000000;stroke-width:1.5;"/><line style="stroke:#000000;stroke-width:1.5;" x1="2514.5" x2="2560.5" y1="707.2969" y2="707.2969"/><text fill="#000000" font-family="sans-serif" font-size="14" font-weight="bold" lengthAdjust="spacing" textLength="33" x="2518.5" y="699.9951">DTO</text></g><!--cluster Repository--><g id="cluster_Repository"><path d="M848.5,478 L934.5,478 A3.75,3.75 0 0 1 937,480.5 L944,500.2969 L1794.5,500.2969 A2.5,2.5 0 0 1 1797,502.7969 L1797,724.5 A2.5,2.5 0 0 1 1794.5,727 L848.5,727 A2.5,2.5 0 0 1 846,724.5 L846,480.5 A2.5,2.5 0 0 1 848.5,478 " fill="#BBBBBB" style="stroke:#000000;stroke-width:1.5;"/><line style="stroke:#000000;stroke-width:1.5;" x1="846" x2="944" y1="500.2969" y2="500.2969"/><text fill="#000000" font-family="sans-serif" font-size="14" font-weight="bold" lengthAdjust="spacing" textLength="85" x="850" y="492.9951">Repository</text></g><!--cluster Model--><g id="cluster_Model"><path d="M2395.5,429 L2443.5,429 A3.75,3.75 0 0 1 2446,431.5 L2453,451.2969 L3237,451.2969 A2.5,2.5 0 0 1 3239.5,453.7969 L3239.5,658.5 A2.5,2.5 0 0 1 3237,661 L2395.5,661 A2.5,2.5 0 0 1 2393,658.5 L2393,431.5 A2.5,2.5 0 0 1 2395.5,429 " fill="#BBBBBB" style="stroke:#000000;stroke-width:1.5;"/><line style="stroke:#000000;stroke-width:1.5;" x1="2393" x2="2453" y1="451.2969" y2="451.2969"/><text fill="#000000" font-family="sans-serif" font-size="14" font-weight="bold" lengthAdjust="spacing" textLength="47" x="2397" y="443.9951">Model</text></g><!--cluster Adapters--><g id="cluster_Adapters"><path d="M2890.5,92 L2963.5,92 A3.75,3.75 0 0 1 2966,94.5 L2973,114.2969 L3931.5,114.2969 A2.5,2.5 0 0 1 3934,116.7969 L3934,402.5 A2.5,2.5 0 0 1 3931.5,405 L2890.5,405 A2.5,2.5 0 0 1 2888,402.5 L2888,94.5 A2.5,2.5 0 0 1 2890.5,92 " fill="#BBBBBB" style="stroke:#000000;stroke-width:1.5;"/><line style="stroke:#000000;stroke-width:1.5;" x1="2888" x2="2973" y1="114.2969" y2="114.2969"/><text fill="#000000" font-family="sans-serif" font-size="14" font-weight="bold" lengthAdjust="spacing" textLength="72" x="2892" y="106.9951">Adapters</text></g><!--class ViewDetailsEntryUI--><g id="elem_ViewDetailsEntryUI"><rect codeLine="7" fill="#F1F1F1" height="48" id="ViewDetailsEntryUI" rx="2.5" ry="2.5" style="stroke:#181818;stroke-width:0.5;" width="159" x="22" y="487"/><ellipse cx="37" cy="503" fill="#ADD1B2" rx="11" ry="11" style="stroke:#181818;stroke-width:1.0;"/><path d="M39.9688,508.6406 Q39.3906,508.9375 38.75,509.0781 Q38.1094,509.2344 37.4063,509.2344 Q34.9063,509.2344 33.5781,507.5938 Q32.2656,505.9375 32.2656,502.8125 Q32.2656,499.6875 33.5781,498.0313 Q34.9063,496.375 37.4063,496.375 Q38.1094,496.375 38.75,496.5313 Q39.4063,496.6875 39.9688,496.9844 L39.9688,499.7031 Q39.3438,499.125 38.75,498.8594 Q38.1563,498.5781 37.5313,498.5781 Q36.1875,498.5781 35.5,499.6563 Q34.8125,500.7188 34.8125,502.8125 Q34.8125,504.9063 35.5,505.9844 Q36.1875,507.0469 37.5313,507.0469 Q38.1563,507.0469 38.75,506.7813 Q39.3438,506.5 39.9688,505.9219 L39.9688,508.6406 Z " fill="#000000"/><text fill="#000000" font-family="sans-serif" font-size="14" lengthAdjust="spacing" textLength="127" x="51" y="507.8467">ViewDetailsEntryUI</text><line style="stroke:#181818;stroke-width:0.5;" x1="23" x2="180" y1="519" y2="519"/><line style="stroke:#181818;stroke-width:0.5;" x1="23" x2="180" y1="527" y2="527"/></g><!--class ViewDetailsEntryController--><g id="elem_ViewDetailsEntryController"><rect codeLine="15" fill="#F1F1F1" height="64.2969" id="ViewDetailsEntryController" rx="2.5" ry="2.5" style="stroke:#181818;stroke-width:0.5;" width="427" x="270" y="479"/><ellipse cx="388.75" cy="495" fill="#ADD1B2" rx="11" ry="11" style="stroke:#181818;stroke-width:1.0;"/><path d="M391.7188,500.6406 Q391.1406,500.9375 390.5,501.0781 Q389.8594,501.2344 389.1563,501.2344 Q386.6563,501.2344 385.3281,499.5938 Q384.0156,497.9375 384.0156,494.8125 Q384.0156,491.6875 385.3281,490.0313 Q386.6563,488.375 389.1563,488.375 Q389.8594,488.375 390.5,488.5313 Q391.1563,488.6875 391.7188,488.9844 L391.7188,491.7031 Q391.0938,491.125 390.5,490.8594 Q389.9063,490.5781 389.2813,490.5781 Q387.9375,490.5781 387.25,491.6563 Q386.5625,492.7188 386.5625,494.8125 Q386.5625,496.9063 387.25,497.9844 Q387.9375,499.0469 389.2813,499.0469 Q389.9063,499.0469 390.5,498.7813 Q391.0938,498.5 391.7188,497.9219 L391.7188,500.6406 Z " fill="#000000"/><text fill="#000000" font-family="sans-serif" font-size="14" lengthAdjust="spacing" textLength="181" x="409.25" y="499.8467">ViewDetailsEntryController</text><line style="stroke:#181818;stroke-width:0.5;" x1="271" x2="696" y1="511" y2="511"/><line style="stroke:#181818;stroke-width:0.5;" x1="271" x2="696" y1="519" y2="519"/><text fill="#000000" font-family="sans-serif" font-size="14" lengthAdjust="spacing" textLength="415" x="276" y="535.9951">+assignTeamToEntry(objDto: TeamDto, entryDto: EntryDto)</text></g><!--class EntryMapper--><g id="elem_EntryMapper"><rect codeLine="29" fill="#F1F1F1" height="64.2969" id="EntryMapper" rx="2.5" ry="2.5" style="stroke:#181818;stroke-width:0.5;" width="498" x="1846" y="750"/><ellipse cx="2047.25" cy="766" fill="#ADD1B2" rx="11" ry="11" style="stroke:#181818;stroke-width:1.0;"/><path d="M2050.2188,771.6406 Q2049.6406,771.9375 2049,772.0781 Q2048.3594,772.2344 2047.6563,772.2344 Q2045.1563,772.2344 2043.8281,770.5938 Q2042.5156,768.9375 2042.5156,765.8125 Q2042.5156,762.6875 2043.8281,761.0313 Q2045.1563,759.375 2047.6563,759.375 Q2048.3594,759.375 2049,759.5313 Q2049.6563,759.6875 2050.2188,759.9844 L2050.2188,762.7031 Q2049.5938,762.125 2049,761.8594 Q2048.4063,761.5781 2047.7813,761.5781 Q2046.4375,761.5781 2045.75,762.6563 Q2045.0625,763.7188 2045.0625,765.8125 Q2045.0625,767.9063 2045.75,768.9844 Q2046.4375,770.0469 2047.7813,770.0469 Q2048.4063,770.0469 2049,769.7813 Q2049.5938,769.5 2050.2188,768.9219 L2050.2188,771.6406 Z " fill="#000000"/><text fill="#000000" font-family="sans-serif" font-size="14" lengthAdjust="spacing" textLength="87" x="2067.75" y="770.8467">EntryMapper</text><line style="stroke:#181818;stroke-width:0.5;" x1="1847" x2="2343" y1="782" y2="782"/><line style="stroke:#181818;stroke-width:0.5;" x1="1847" x2="2343" y1="790" y2="790"/><text fill="#000000" font-family="sans-serif" font-size="14" lengthAdjust="spacing" textLength="486" x="1852" y="806.9951">+toDomainAndAssignTeam(team: Team, entryDto: EntryDto): boolean</text></g><!--class TeamMapper--><g id="elem_TeamMapper"><rect codeLine="34" fill="#F1F1F1" height="64.2969" id="TeamMapper" rx="2.5" ry="2.5" style="stroke:#181818;stroke-width:0.5;" width="289" x="1950.5" y="651"/><ellipse cx="2045.25" cy="667" fill="#ADD1B2" rx="11" ry="11" style="stroke:#181818;stroke-width:1.0;"/><path d="M2048.2188,672.6406 Q2047.6406,672.9375 2047,673.0781 Q2046.3594,673.2344 2045.6563,673.2344 Q2043.1563,673.2344 2041.8281,671.5938 Q2040.5156,669.9375 2040.5156,666.8125 Q2040.5156,663.6875 2041.8281,662.0313 Q2043.1563,660.375 2045.6563,660.375 Q2046.3594,660.375 2047,660.5313 Q2047.6563,660.6875 2048.2188,660.9844 L2048.2188,663.7031 Q2047.5938,663.125 2047,662.8594 Q2046.4063,662.5781 2045.7813,662.5781 Q2044.4375,662.5781 2043.75,663.6563 Q2043.0625,664.7188 2043.0625,666.8125 Q2043.0625,668.9063 2043.75,669.9844 Q2044.4375,671.0469 2045.7813,671.0469 Q2046.4063,671.0469 2047,670.7813 Q2047.5938,670.5 2048.2188,669.9219 L2048.2188,672.6406 Z " fill="#000000"/><text fill="#000000" font-family="sans-serif" font-size="14" lengthAdjust="spacing" textLength="91" x="2065.75" y="671.8467">TeamMapper</text><line style="stroke:#181818;stroke-width:0.5;" x1="1951.5" x2="2238.5" y1="683" y2="683"/><line style="stroke:#181818;stroke-width:0.5;" x1="1951.5" x2="2238.5" y1="691" y2="691"/><text fill="#000000" font-family="sans-serif" font-size="14" lengthAdjust="spacing" textLength="277" x="1956.5" y="707.9951">+extractName(objDto: TeamDto): String</text></g><!--class EntryDto--><g id="elem_EntryDto"><rect codeLine="43" fill="#F1F1F1" height="64.2969" id="EntryDto" rx="2.5" ry="2.5" style="stroke:#181818;stroke-width:0.5;" width="178" x="2536" y="837"/><ellipse cx="2590.75" cy="853" fill="#ADD1B2" rx="11" ry="11" style="stroke:#181818;stroke-width:1.0;"/><path d="M2593.7188,858.6406 Q2593.1406,858.9375 2592.5,859.0781 Q2591.8594,859.2344 2591.1563,859.2344 Q2588.6563,859.2344 2587.3281,857.5938 Q2586.0156,855.9375 2586.0156,852.8125 Q2586.0156,849.6875 2587.3281,848.0313 Q2588.6563,846.375 2591.1563,846.375 Q2591.8594,846.375 2592.5,846.5313 Q2593.1563,846.6875 2593.7188,846.9844 L2593.7188,849.7031 Q2593.0938,849.125 2592.5,848.8594 Q2591.9063,848.5781 2591.2813,848.5781 Q2589.9375,848.5781 2589.25,849.6563 Q2588.5625,850.7188 2588.5625,852.8125 Q2588.5625,854.9063 2589.25,855.9844 Q2589.9375,857.0469 2591.2813,857.0469 Q2591.9063,857.0469 2592.5,856.7813 Q2593.0938,856.5 2593.7188,855.9219 L2593.7188,858.6406 Z " fill="#000000"/><text fill="#000000" font-family="sans-serif" font-size="14" lengthAdjust="spacing" textLength="60" x="2611.25" y="857.8467">EntryDto</text><line style="stroke:#181818;stroke-width:0.5;" x1="2537" x2="2713" y1="869" y2="869"/><line style="stroke:#181818;stroke-width:0.5;" x1="2537" x2="2713" y1="877" y2="877"/><text fill="#000000" font-family="sans-serif" font-size="14" lengthAdjust="spacing" textLength="166" x="2542" y="893.9951">+getReference(): String</text></g><!--class TeamDto--><g id="elem_TeamDto"><rect codeLine="49" fill="#F1F1F1" height="80.5938" id="TeamDto" rx="2.5" ry="2.5" style="stroke:#181818;stroke-width:0.5;" width="189" x="2530.5" y="720.5"/><ellipse cx="2588.75" cy="736.5" fill="#ADD1B2" rx="11" ry="11" style="stroke:#181818;stroke-width:1.0;"/><path d="M2591.7188,742.1406 Q2591.1406,742.4375 2590.5,742.5781 Q2589.8594,742.7344 2589.1563,742.7344 Q2586.6563,742.7344 2585.3281,741.0938 Q2584.0156,739.4375 2584.0156,736.3125 Q2584.0156,733.1875 2585.3281,731.5313 Q2586.6563,729.875 2589.1563,729.875 Q2589.8594,729.875 2590.5,730.0313 Q2591.1563,730.1875 2591.7188,730.4844 L2591.7188,733.2031 Q2591.0938,732.625 2590.5,732.3594 Q2589.9063,732.0781 2589.2813,732.0781 Q2587.9375,732.0781 2587.25,733.1563 Q2586.5625,734.2188 2586.5625,736.3125 Q2586.5625,738.4063 2587.25,739.4844 Q2587.9375,740.5469 2589.2813,740.5469 Q2589.9063,740.5469 2590.5,740.2813 Q2591.0938,740 2591.7188,739.4219 L2591.7188,742.1406 Z " fill="#000000"/><text fill="#000000" font-family="sans-serif" font-size="14" lengthAdjust="spacing" textLength="64" x="2609.25" y="741.3467">TeamDto</text><line style="stroke:#181818;stroke-width:0.5;" x1="2531.5" x2="2718.5" y1="752.5" y2="752.5"/><text fill="#000000" font-family="sans-serif" font-size="14" lengthAdjust="spacing" textLength="136" x="2536.5" y="769.4951">+teamName: String</text><line style="stroke:#181818;stroke-width:0.5;" x1="2531.5" x2="2718.5" y1="776.7969" y2="776.7969"/><text fill="#000000" font-family="sans-serif" font-size="14" lengthAdjust="spacing" textLength="177" x="2536.5" y="793.792">+getTeamName() : String</text></g><!--class Repositories--><g id="elem_Repositories"><rect codeLine="61" fill="#F1F1F1" height="129.4844" id="Repositories" rx="2.5" ry="2.5" style="stroke:#181818;stroke-width:0.5;" width="296" x="862" y="581.5"/><ellipse cx="962.25" cy="597.5" fill="#ADD1B2" rx="11" ry="11" style="stroke:#181818;stroke-width:1.0;"/><path d="M965.2188,603.1406 Q964.6406,603.4375 964,603.5781 Q963.3594,603.7344 962.6563,603.7344 Q960.1563,603.7344 958.8281,602.0938 Q957.5156,600.4375 957.5156,597.3125 Q957.5156,594.1875 958.8281,592.5313 Q960.1563,590.875 962.6563,590.875 Q963.3594,590.875 964,591.0313 Q964.6563,591.1875 965.2188,591.4844 L965.2188,594.2031 Q964.5938,593.625 964,593.3594 Q963.4063,593.0781 962.7813,593.0781 Q961.4375,593.0781 960.75,594.1563 Q960.0625,595.2188 960.0625,597.3125 Q960.0625,599.4063 960.75,600.4844 Q961.4375,601.5469 962.7813,601.5469 Q963.4063,601.5469 964,601.2813 Q964.5938,601 965.2188,600.4219 L965.2188,603.1406 Z " fill="#000000"/><text fill="#000000" font-family="sans-serif" font-size="14" lengthAdjust="spacing" textLength="87" x="982.75" y="602.3467">Repositories</text><line style="stroke:#181818;stroke-width:0.5;" x1="863" x2="1157" y1="613.5" y2="613.5"/><text fill="#000000" font-family="sans-serif" font-size="14" lengthAdjust="spacing" textLength="205" x="868" y="630.4951">-static instance : Repositories</text><line style="stroke:#181818;stroke-width:0.5;" x1="863" x2="1157" y1="637.7969" y2="637.7969"/><text fill="#000000" font-family="sans-serif" font-size="14" lengthAdjust="spacing" textLength="204" x="868" y="654.792">+getInstance() : Repositories</text><text fill="#000000" font-family="sans-serif" font-size="14" lengthAdjust="spacing" textLength="276" x="868" y="671.0889">+getEntryRepository() : EntryRepository</text><text fill="#000000" font-family="sans-serif" font-size="14" lengthAdjust="spacing" textLength="284" x="868" y="687.3857">+getTeamRepository() : TeamRepository</text><text fill="#000000" font-family="sans-serif" font-size="14" lengthAdjust="spacing" textLength="102" x="868" y="703.6826">-Repositories()</text></g><!--class EntryRepository--><g id="elem_EntryRepository"><rect codeLine="73" fill="#F1F1F1" height="80.5938" id="EntryRepository" rx="2.5" ry="2.5" style="stroke:#181818;stroke-width:0.5;" width="460" x="1321" y="629.5"/><ellipse cx="1492.25" cy="645.5" fill="#ADD1B2" rx="11" ry="11" style="stroke:#181818;stroke-width:1.0;"/><path d="M1495.2188,651.1406 Q1494.6406,651.4375 1494,651.5781 Q1493.3594,651.7344 1492.6563,651.7344 Q1490.1563,651.7344 1488.8281,650.0938 Q1487.5156,648.4375 1487.5156,645.3125 Q1487.5156,642.1875 1488.8281,640.5313 Q1490.1563,638.875 1492.6563,638.875 Q1493.3594,638.875 1494,639.0313 Q1494.6563,639.1875 1495.2188,639.4844 L1495.2188,642.2031 Q1494.5938,641.625 1494,641.3594 Q1493.4063,641.0781 1492.7813,641.0781 Q1491.4375,641.0781 1490.75,642.1563 Q1490.0625,643.2188 1490.0625,645.3125 Q1490.0625,647.4063 1490.75,648.4844 Q1491.4375,649.5469 1492.7813,649.5469 Q1493.4063,649.5469 1494,649.2813 Q1494.5938,649 1495.2188,648.4219 L1495.2188,651.1406 Z " fill="#000000"/><text fill="#000000" font-family="sans-serif" font-size="14" lengthAdjust="spacing" textLength="109" x="1512.75" y="650.3467">EntryRepository</text><line style="stroke:#181818;stroke-width:0.5;" x1="1322" x2="1780" y1="661.5" y2="661.5"/><line style="stroke:#181818;stroke-width:0.5;" x1="1322" x2="1780" y1="669.5" y2="669.5"/><text fill="#000000" font-family="sans-serif" font-size="14" lengthAdjust="spacing" textLength="448" x="1327" y="686.4951">+assignTeamToEntry(team: Team, entryDto: EntryDto) : boolean</text><text fill="#000000" font-family="sans-serif" font-size="14" lengthAdjust="spacing" textLength="331" x="1327" y="702.792">+findEntryByReference(reference:String) : Entry</text></g><!--class TeamRepository--><g id="elem_TeamRepository"><rect codeLine="80" fill="#F1F1F1" height="80.5938" id="TeamRepository" rx="2.5" ry="2.5" style="stroke:#181818;stroke-width:0.5;" width="327" x="1387.5" y="513.5"/><ellipse cx="1490.25" cy="529.5" fill="#ADD1B2" rx="11" ry="11" style="stroke:#181818;stroke-width:1.0;"/><path d="M1493.2188,535.1406 Q1492.6406,535.4375 1492,535.5781 Q1491.3594,535.7344 1490.6563,535.7344 Q1488.1563,535.7344 1486.8281,534.0938 Q1485.5156,532.4375 1485.5156,529.3125 Q1485.5156,526.1875 1486.8281,524.5313 Q1488.1563,522.875 1490.6563,522.875 Q1491.3594,522.875 1492,523.0313 Q1492.6563,523.1875 1493.2188,523.4844 L1493.2188,526.2031 Q1492.5938,525.625 1492,525.3594 Q1491.4063,525.0781 1490.7813,525.0781 Q1489.4375,525.0781 1488.75,526.1563 Q1488.0625,527.2188 1488.0625,529.3125 Q1488.0625,531.4063 1488.75,532.4844 Q1489.4375,533.5469 1490.7813,533.5469 Q1491.4063,533.5469 1492,533.2813 Q1492.5938,533 1493.2188,532.4219 L1493.2188,535.1406 Z " fill="#000000"/><text fill="#000000" font-family="sans-serif" font-size="14" lengthAdjust="spacing" textLength="113" x="1510.75" y="534.3467">TeamRepository</text><line style="stroke:#181818;stroke-width:0.5;" x1="1388.5" x2="1713.5" y1="545.5" y2="545.5"/><line style="stroke:#181818;stroke-width:0.5;" x1="1388.5" x2="1713.5" y1="553.5" y2="553.5"/><text fill="#000000" font-family="sans-serif" font-size="14" lengthAdjust="spacing" textLength="292" x="1393.5" y="570.4951">+getTeamName(objDto: TeamDto): String</text><text fill="#000000" font-family="sans-serif" font-size="14" lengthAdjust="spacing" textLength="315" x="1393.5" y="586.792">+findTeamByName(teamName: String): Team</text></g><!--class Entry--><g id="elem_Entry"><rect codeLine="92" fill="#F1F1F1" height="80.5938" id="Entry" rx="2.5" ry="2.5" style="stroke:#181818;stroke-width:0.5;" width="307" x="2471.5" y="563.5"/><ellipse cx="2603.25" cy="579.5" fill="#ADD1B2" rx="11" ry="11" style="stroke:#181818;stroke-width:1.0;"/><path d="M2606.2188,585.1406 Q2605.6406,585.4375 2605,585.5781 Q2604.3594,585.7344 2603.6563,585.7344 Q2601.1563,585.7344 2599.8281,584.0938 Q2598.5156,582.4375 2598.5156,579.3125 Q2598.5156,576.1875 2599.8281,574.5313 Q2601.1563,572.875 2603.6563,572.875 Q2604.3594,572.875 2605,573.0313 Q2605.6563,573.1875 2606.2188,573.4844 L2606.2188,576.2031 Q2605.5938,575.625 2605,575.3594 Q2604.4063,575.0781 2603.7813,575.0781 Q2602.4375,575.0781 2601.75,576.1563 Q2601.0625,577.2188 2601.0625,579.3125 Q2601.0625,581.4063 2601.75,582.4844 Q2602.4375,583.5469 2603.7813,583.5469 Q2604.4063,583.5469 2605,583.2813 Q2605.5938,583 2606.2188,582.4219 L2606.2188,585.1406 Z " fill="#000000"/><text fill="#000000" font-family="sans-serif" font-size="14" lengthAdjust="spacing" textLength="35" x="2623.75" y="584.3467">Entry</text><line style="stroke:#181818;stroke-width:0.5;" x1="2472.5" x2="2777.5" y1="595.5" y2="595.5"/><line style="stroke:#181818;stroke-width:0.5;" x1="2472.5" x2="2777.5" y1="603.5" y2="603.5"/><text fill="#000000" font-family="sans-serif" font-size="14" lengthAdjust="spacing" textLength="254" x="2477.5" y="620.4951">+assignTeam(team: Team): boolean</text><text fill="#000000" font-family="sans-serif" font-size="14" lengthAdjust="spacing" textLength="295" x="2477.5" y="636.792">+setTeamAssigned(team: Team): boolean</text></g><!--class Team--><g id="elem_Team"><rect codeLine="100" fill="#F1F1F1" height="64.2969" id="Team" rx="2.5" ry="2.5" style="stroke:#181818;stroke-width:0.5;" width="432" x="2409" y="464"/><ellipse cx="2601.25" cy="480" fill="#ADD1B2" rx="11" ry="11" style="stroke:#181818;stroke-width:1.0;"/><path d="M2604.2188,485.6406 Q2603.6406,485.9375 2603,486.0781 Q2602.3594,486.2344 2601.6563,486.2344 Q2599.1563,486.2344 2597.8281,484.5938 Q2596.5156,482.9375 2596.5156,479.8125 Q2596.5156,476.6875 2597.8281,475.0313 Q2599.1563,473.375 2601.6563,473.375 Q2602.3594,473.375 2603,473.5313 Q2603.6563,473.6875 2604.2188,473.9844 L2604.2188,476.7031 Q2603.5938,476.125 2603,475.8594 Q2602.4063,475.5781 2601.7813,475.5781 Q2600.4375,475.5781 2599.75,476.6563 Q2599.0625,477.7188 2599.0625,479.8125 Q2599.0625,481.9063 2599.75,482.9844 Q2600.4375,484.0469 2601.7813,484.0469 Q2602.4063,484.0469 2603,483.7813 Q2603.5938,483.5 2604.2188,482.9219 L2604.2188,485.6406 Z " fill="#000000"/><text fill="#000000" font-family="sans-serif" font-size="14" lengthAdjust="spacing" textLength="39" x="2621.75" y="484.8467">Team</text><line style="stroke:#181818;stroke-width:0.5;" x1="2410" x2="2840" y1="496" y2="496"/><line style="stroke:#181818;stroke-width:0.5;" x1="2410" x2="2840" y1="504" y2="504"/><text fill="#000000" font-family="sans-serif" font-size="14" lengthAdjust="spacing" textLength="420" x="2415" y="520.9951">+sendToEmailFile(subject: String, message: String): boolean</text></g><!--class Collaborator--><g id="elem_Collaborator"><rect codeLine="107" fill="#F1F1F1" height="64.2969" id="Collaborator" rx="2.5" ry="2.5" style="stroke:#181818;stroke-width:0.5;" width="142" x="3081.5" y="464"/><ellipse cx="3108.65" cy="480" fill="#ADD1B2" rx="11" ry="11" style="stroke:#181818;stroke-width:1.0;"/><path d="M3111.6188,485.6406 Q3111.0406,485.9375 3110.4,486.0781 Q3109.7594,486.2344 3109.0563,486.2344 Q3106.5563,486.2344 3105.2281,484.5938 Q3103.9156,482.9375 3103.9156,479.8125 Q3103.9156,476.6875 3105.2281,475.0313 Q3106.5563,473.375 3109.0563,473.375 Q3109.7594,473.375 3110.4,473.5313 Q3111.0563,473.6875 3111.6188,473.9844 L3111.6188,476.7031 Q3110.9938,476.125 3110.4,475.8594 Q3109.8063,475.5781 3109.1813,475.5781 Q3107.8375,475.5781 3107.15,476.6563 Q3106.4625,477.7188 3106.4625,479.8125 Q3106.4625,481.9063 3107.15,482.9844 Q3107.8375,484.0469 3109.1813,484.0469 Q3109.8063,484.0469 3110.4,483.7813 Q3110.9938,483.5 3111.6188,482.9219 L3111.6188,485.6406 Z " fill="#000000"/><text fill="#000000" font-family="sans-serif" font-size="14" lengthAdjust="spacing" textLength="83" x="3125.35" y="484.8467">Collaborator</text><line style="stroke:#181818;stroke-width:0.5;" x1="3082.5" x2="3222.5" y1="496" y2="496"/><line style="stroke:#181818;stroke-width:0.5;" x1="3082.5" x2="3222.5" y1="504" y2="504"/><text fill="#000000" font-family="sans-serif" font-size="14" lengthAdjust="spacing" textLength="130" x="3087.5" y="520.9951">+getEmail(): String</text></g><!--class EmailService--><g id="elem_EmailService"><rect codeLine="117" fill="#F1F1F1" height="64.2969" id="EmailService" rx="2.5" ry="2.5" style="stroke:#181818;stroke-width:0.5;" width="497" x="2904" y="216"/><ellipse cx="3105.25" cy="232" fill="#ADD1B2" rx="11" ry="11" style="stroke:#181818;stroke-width:1.0;"/><path d="M3108.2188,237.6406 Q3107.6406,237.9375 3107,238.0781 Q3106.3594,238.2344 3105.6563,238.2344 Q3103.1563,238.2344 3101.8281,236.5938 Q3100.5156,234.9375 3100.5156,231.8125 Q3100.5156,228.6875 3101.8281,227.0313 Q3103.1563,225.375 3105.6563,225.375 Q3106.3594,225.375 3107,225.5313 Q3107.6563,225.6875 3108.2188,225.9844 L3108.2188,228.7031 Q3107.5938,228.125 3107,227.8594 Q3106.4063,227.5781 3105.7813,227.5781 Q3104.4375,227.5781 3103.75,228.6563 Q3103.0625,229.7188 3103.0625,231.8125 Q3103.0625,233.9063 3103.75,234.9844 Q3104.4375,236.0469 3105.7813,236.0469 Q3106.4063,236.0469 3107,235.7813 Q3107.5938,235.5 3108.2188,234.9219 L3108.2188,237.6406 Z " fill="#000000"/><text fill="#000000" font-family="sans-serif" font-size="14" lengthAdjust="spacing" textLength="86" x="3125.75" y="236.8467">EmailService</text><line style="stroke:#181818;stroke-width:0.5;" x1="2905" x2="3400" y1="248" y2="248"/><line style="stroke:#181818;stroke-width:0.5;" x1="2905" x2="3400" y1="256" y2="256"/><text fill="#000000" font-family="sans-serif" font-size="14" lengthAdjust="spacing" textLength="485" x="2910" y="272.9951">+sendToEmailFile(email: String, subject: String, message: String): void</text></g><!--class ApplicationSession--><g id="elem_ApplicationSession"><rect codeLine="123" fill="#F1F1F1" height="64.2969" id="ApplicationSession" rx="2.5" ry="2.5" style="stroke:#181818;stroke-width:0.5;" width="238" x="3571" y="127"/><ellipse cx="3620.75" cy="143" fill="#ADD1B2" rx="11" ry="11" style="stroke:#181818;stroke-width:1.0;"/><path d="M3623.7188,148.6406 Q3623.1406,148.9375 3622.5,149.0781 Q3621.8594,149.2344 3621.1563,149.2344 Q3618.6563,149.2344 3617.3281,147.5938 Q3616.0156,145.9375 3616.0156,142.8125 Q3616.0156,139.6875 3617.3281,138.0313 Q3618.6563,136.375 3621.1563,136.375 Q3621.8594,136.375 3622.5,136.5313 Q3623.1563,136.6875 3623.7188,136.9844 L3623.7188,139.7031 Q3623.0938,139.125 3622.5,138.8594 Q3621.9063,138.5781 3621.2813,138.5781 Q3619.9375,138.5781 3619.25,139.6563 Q3618.5625,140.7188 3618.5625,142.8125 Q3618.5625,144.9063 3619.25,145.9844 Q3619.9375,147.0469 3621.2813,147.0469 Q3621.9063,147.0469 3622.5,146.7813 Q3623.0938,146.5 3623.7188,145.9219 L3623.7188,148.6406 Z " fill="#000000"/><text fill="#000000" font-family="sans-serif" font-size="14" lengthAdjust="spacing" textLength="130" x="3641.25" y="147.8467">ApplicationSession</text><line style="stroke:#181818;stroke-width:0.5;" x1="3572" x2="3808" y1="159" y2="159"/><line style="stroke:#181818;stroke-width:0.5;" x1="3572" x2="3808" y1="167" y2="167"/><text fill="#000000" font-family="sans-serif" font-size="14" lengthAdjust="spacing" textLength="226" x="3577" y="183.9951">+getEmailService(): EmailService</text></g><!--class GmailService--><g id="elem_GmailService"><rect codeLine="129" fill="#F1F1F1" height="64.2969" id="GmailService" rx="2.5" ry="2.5" style="stroke:#181818;stroke-width:0.5;" width="456" x="3462" y="226"/><ellipse cx="3641.75" cy="242" fill="#ADD1B2" rx="11" ry="11" style="stroke:#181818;stroke-width:1.0;"/><path d="M3644.7188,247.6406 Q3644.1406,247.9375 3643.5,248.0781 Q3642.8594,248.2344 3642.1563,248.2344 Q3639.6563,248.2344 3638.3281,246.5938 Q3637.0156,244.9375 3637.0156,241.8125 Q3637.0156,238.6875 3638.3281,237.0313 Q3639.6563,235.375 3642.1563,235.375 Q3642.8594,235.375 3643.5,235.5313 Q3644.1563,235.6875 3644.7188,235.9844 L3644.7188,238.7031 Q3644.0938,238.125 3643.5,237.8594 Q3642.9063,237.5781 3642.2813,237.5781 Q3640.9375,237.5781 3640.25,238.6563 Q3639.5625,239.7188 3639.5625,241.8125 Q3639.5625,243.9063 3640.25,244.9844 Q3640.9375,246.0469 3642.2813,246.0469 Q3642.9063,246.0469 3643.5,245.7813 Q3644.0938,245.5 3644.7188,244.9219 L3644.7188,247.6406 Z " fill="#000000"/><text fill="#000000" font-family="sans-serif" font-size="14" lengthAdjust="spacing" textLength="88" x="3662.25" y="246.8467">GmailService</text><line style="stroke:#181818;stroke-width:0.5;" x1="3463" x2="3917" y1="258" y2="258"/><line style="stroke:#181818;stroke-width:0.5;" x1="3463" x2="3917" y1="266" y2="266"/><text fill="#000000" font-family="sans-serif" font-size="14" lengthAdjust="spacing" textLength="444" x="3468" y="282.9951">+sendEmail(email: String, subject: String, message: String): void</text></g><!--class SendEmailExternalAPI--><g id="elem_SendEmailExternalAPI"><rect codeLine="141" fill="#F1F1F1" height="72.5625" id="SendEmailExternalAPI" rx="2.5" ry="2.5" style="stroke:#181818;stroke-width:0.5;" width="456" x="2924.5" y="315.5"/><ellipse cx="3073.25" cy="335.6328" fill="#B4A7E5" rx="11" ry="11" style="stroke:#181818;stroke-width:1.0;"/><path d="M3069.1719,331.3984 L3069.1719,329.2422 L3076.5625,329.2422 L3076.5625,331.3984 L3074.0938,331.3984 L3074.0938,339.4766 L3076.5625,339.4766 L3076.5625,341.6328 L3069.1719,341.6328 L3069.1719,339.4766 L3071.6406,339.4766 L3071.6406,331.3984 L3069.1719,331.3984 Z " fill="#000000"/><text fill="#000000" font-family="sans-serif" font-size="12" font-style="italic" lengthAdjust="spacing" textLength="70" x="3133.75" y="331.6387">&#171;interface&#187;</text><text fill="#000000" font-family="sans-serif" font-size="14" font-style="italic" lengthAdjust="spacing" textLength="150" x="3093.75" y="347.4639">SendEmailExternalAPI</text><line style="stroke:#181818;stroke-width:0.5;" x1="2925.5" x2="3379.5" y1="355.7656" y2="355.7656"/><line style="stroke:#181818;stroke-width:0.5;" x1="2925.5" x2="3379.5" y1="363.7656" y2="363.7656"/><text fill="#000000" font-family="sans-serif" font-size="14" lengthAdjust="spacing" textLength="444" x="2930.5" y="380.7607">+sendEmail(email: String, subject: String, message: String): void</text></g><!--class DeiEmailService--><g id="elem_DeiEmailService"><rect codeLine="135" fill="#F1F1F1" height="64.2969" id="DeiEmailService" rx="2.5" ry="2.5" style="stroke:#181818;stroke-width:0.5;" width="456" x="3462" y="325"/><ellipse cx="3631.25" cy="341" fill="#ADD1B2" rx="11" ry="11" style="stroke:#181818;stroke-width:1.0;"/><path d="M3634.2188,346.6406 Q3633.6406,346.9375 3633,347.0781 Q3632.3594,347.2344 3631.6563,347.2344 Q3629.1563,347.2344 3627.8281,345.5938 Q3626.5156,343.9375 3626.5156,340.8125 Q3626.5156,337.6875 3627.8281,336.0313 Q3629.1563,334.375 3631.6563,334.375 Q3632.3594,334.375 3633,334.5313 Q3633.6563,334.6875 3634.2188,334.9844 L3634.2188,337.7031 Q3633.5938,337.125 3633,336.8594 Q3632.4063,336.5781 3631.7813,336.5781 Q3630.4375,336.5781 3629.75,337.6563 Q3629.0625,338.7188 3629.0625,340.8125 Q3629.0625,342.9063 3629.75,343.9844 Q3630.4375,345.0469 3631.7813,345.0469 Q3632.4063,345.0469 3633,344.7813 Q3633.5938,344.5 3634.2188,343.9219 L3634.2188,346.6406 Z " fill="#000000"/><text fill="#000000" font-family="sans-serif" font-size="14" lengthAdjust="spacing" textLength="109" x="3651.75" y="345.8467">DeiEmailService</text><line style="stroke:#181818;stroke-width:0.5;" x1="3463" x2="3917" y1="357" y2="357"/><line style="stroke:#181818;stroke-width:0.5;" x1="3463" x2="3917" y1="365" y2="365"/><text fill="#000000" font-family="sans-serif" font-size="14" lengthAdjust="spacing" textLength="444" x="3468" y="381.9951">+sendEmail(email: String, subject: String, message: String): void</text></g><!--link ViewDetailsEntryUI to ViewDetailsEntryController--><g id="link_ViewDetailsEntryUI_ViewDetailsEntryController"><path codeLine="19" d="M181.24,511 C207.54,511 232.24,511 263.78,511 " fill="none" id="ViewDetailsEntryUI-to-ViewDetailsEntryController" style="stroke:#181818;stroke-width:1.0;stroke-dasharray:7.0,7.0;"/><polygon fill="#181818" points="269.78,511,260.78,507,264.78,511,260.78,515,269.78,511" style="stroke:#181818;stroke-width:1.0;"/></g><!--link EntryMapper to EntryDto--><g id="link_EntryMapper_EntryDto"><path codeLine="47" d="M2290.36,814.02 C2374.6,827.91 2463.1098,842.4948 2529.9498,853.5048 " fill="none" id="EntryMapper-to-EntryDto" style="stroke:#181818;stroke-width:1.0;stroke-dasharray:7.0,7.0;"/><polygon fill="#181818" points="2535.87,854.48,2527.6398,849.0704,2530.9365,853.6673,2526.3395,856.964,2535.87,854.48" style="stroke:#181818;stroke-width:1.0;"/></g><!--link TeamMapper to TeamDto--><g id="link_TeamMapper_TeamDto"><path codeLine="54" d="M2239.58,704.21 C2332.11,717.88 2443.8144,734.3832 2524.4444,746.2932 " fill="none" id="TeamMapper-to-TeamDto" style="stroke:#181818;stroke-width:1.0;stroke-dasharray:7.0,7.0;"/><polygon fill="#181818" points="2530.38,747.17,2522.0611,741.8978,2525.4337,746.4394,2520.8921,749.8119,2530.38,747.17" style="stroke:#181818;stroke-width:1.0;"/></g><!--link ViewDetailsEntryController to Repositories--><g id="link_ViewDetailsEntryController_Repositories"><path codeLine="69" d="M609.13,543.08 C684.87,562.57 776.1694,586.0743 855.7294,606.5543 " fill="none" id="ViewDetailsEntryController-to-Repositories" style="stroke:#181818;stroke-width:1.0;stroke-dasharray:7.0,7.0;"/><polygon fill="#181818" points="861.54,608.05,853.8213,601.9327,856.6979,606.8036,851.827,609.6801,861.54,608.05" style="stroke:#181818;stroke-width:1.0;"/><text fill="#000000" font-family="sans-serif" font-size="13" lengthAdjust="spacing" textLength="75" x="730" y="571.0669">repositories</text></g><!--link Repositories to Repositories--><g id="link_Repositories_Repositories"><path codeLine="71" d="M967.32,581.4 C968.39,561.81 982.61,546.5 1010,546.5 C1037.39,546.5 1051.2828,555.8189 1052.3528,575.4089 " fill="none" id="Repositories-to-Repositories" style="stroke:#181818;stroke-width:1.0;"/><polygon fill="#181818" points="1052.68,581.4,1056.1832,572.1952,1052.4073,576.4074,1048.1951,572.6315,1052.68,581.4" style="stroke:#181818;stroke-width:1.0;"/><text fill="#000000" font-family="sans-serif" font-size="13" lengthAdjust="spacing" textLength="54" x="983" y="537.5669">instance</text></g><!--link EntryRepository to EntryMapper--><g id="link_EntryRepository_EntryMapper"><path codeLine="77" d="M1723.51,710.58 C1756.16,717.96 1790.09,725.41 1822,732 C1851.51,738.1 1876.9934,743.1009 1907.5634,748.8509 " fill="none" id="EntryRepository-to-EntryMapper" style="stroke:#181818;stroke-width:1.0;stroke-dasharray:7.0,7.0;"/><polygon fill="#181818" points="1913.46,749.96,1905.3545,744.3653,1908.5462,749.0357,1903.8757,752.2274,1913.46,749.96" style="stroke:#181818;stroke-width:1.0;"/></g><!--link Repositories to EntryRepository--><g id="link_Repositories_EntryRepository"><path codeLine="78" d="M1158.28,652.56 C1208.47,654.79 1259.8259,657.0833 1314.8859,659.5333 " fill="none" id="Repositories-to-EntryRepository" style="stroke:#181818;stroke-width:1.0;"/><polygon fill="#181818" points="1320.88,659.8,1312.0667,655.4039,1315.8849,659.5777,1311.7111,663.396,1320.88,659.8" style="stroke:#181818;stroke-width:1.0;"/><text fill="#000000" font-family="sans-serif" font-size="13" lengthAdjust="spacing" textLength="100" x="1189.5" y="651.0669">entryRepository</text><text fill="#000000" font-family="sans-serif" font-size="13" lengthAdjust="spacing" textLength="8" x="1166.1319" y="665.3428">1</text><text fill="#000000" font-family="sans-serif" font-size="13" lengthAdjust="spacing" textLength="8" x="1305.1979" y="671.7871">1</text></g><!--link TeamRepository to TeamMapper--><g id="link_TeamRepository_TeamMapper"><path codeLine="84" d="M1714.73,590.91 C1744.76,597.84 1775.84,605.08 1805,612 C1857.53,624.47 1909.505,637.1515 1959.515,649.5015 " fill="none" id="TeamRepository-to-TeamMapper" style="stroke:#181818;stroke-width:1.0;stroke-dasharray:7.0,7.0;"/><polygon fill="#181818" points="1965.34,650.94,1957.5615,644.8989,1960.4858,649.7413,1955.6435,652.6656,1965.34,650.94" style="stroke:#181818;stroke-width:1.0;"/></g><!--link Repositories to TeamRepository--><g id="link_Repositories_TeamRepository"><path codeLine="85" d="M1158.28,620.86 C1229.19,608.76 1308.5155,595.2196 1381.3355,582.7896 " fill="none" id="Repositories-to-TeamRepository" style="stroke:#181818;stroke-width:1.0;"/><polygon fill="#181818" points="1387.25,581.78,1377.7053,579.3514,1382.3213,582.6213,1379.0514,587.2373,1387.25,581.78" style="stroke:#181818;stroke-width:1.0;"/><text fill="#000000" font-family="sans-serif" font-size="13" lengthAdjust="spacing" textLength="101" x="1189" y="596.0669">teamRepository</text><text fill="#000000" font-family="sans-serif" font-size="13" lengthAdjust="spacing" textLength="8" x="1166.1319" y="632.0083">1</text><text fill="#000000" font-family="sans-serif" font-size="13" lengthAdjust="spacing" textLength="8" x="1371.6488" y="595.4577">1</text></g><!--link ViewDetailsEntryController to TeamRepository--><g id="link_ViewDetailsEntryController_TeamRepository"><path codeLine="86" d="M697.34,509.33 C829.93,509.33 1003.99,511.22 1158,519 C1233.4,522.81 1310.7776,529.2755 1381.1576,536.0455 " fill="none" id="ViewDetailsEntryController-to-TeamRepository" style="stroke:#181818;stroke-width:1.0;stroke-dasharray:7.0,7.0;"/><polygon fill="#181818" points="1387.13,536.62,1378.5544,531.7766,1382.153,536.1412,1377.7884,539.7399,1387.13,536.62" style="stroke:#181818;stroke-width:1.0;"/><text fill="#000000" font-family="sans-serif" font-size="13" lengthAdjust="spacing" textLength="101" x="959.5" y="506.0669">teamRepository</text></g><!--link EntryRepository to Entry--><g id="link_EntryRepository_Entry"><path codeLine="97" d="M1781.27,638.84 C1795.04,637.41 1808.69,636.12 1822,635 C2047.63,616.05 2303.9709,608.7766 2465.4909,605.9066 " fill="none" id="EntryRepository-to-Entry" style="stroke:#181818;stroke-width:1.0;"/><polygon fill="#181818" points="2471.49,605.8,2462.4204,601.9605,2466.4908,605.8888,2462.5625,609.9593,2471.49,605.8" style="stroke:#181818;stroke-width:1.0;"/><text fill="#000000" font-family="sans-serif" font-size="13" lengthAdjust="spacing" textLength="8" x="1788.957" y="650.1394">1</text><text fill="#000000" font-family="sans-serif" font-size="13" lengthAdjust="spacing" textLength="7" x="2456.3942" y="618.3603">*</text></g><!--link EntryMapper to Entry--><g id="link_EntryMapper_Entry"><path codeLine="98" d="M2336.58,749.98 C2347.57,744.77 2358.12,738.81 2368,732 C2379.99,723.74 2373.97,713.5 2385,704 C2414.15,678.91 2444.9441,661.7439 2480.4241,646.9139 " fill="none" id="EntryMapper-to-Entry" style="stroke:#181818;stroke-width:1.0;stroke-dasharray:7.0,7.0;"/><polygon fill="#181818" points="2485.96,644.6,2476.1136,644.3803,2481.3468,646.5282,2479.1988,651.7614,2485.96,644.6" style="stroke:#181818;stroke-width:1.0;"/></g><!--link TeamRepository to Team--><g id="link_TeamRepository_Team"><path codeLine="104" d="M1714.52,545.21 C1899.84,535.18 2197.5888,519.0742 2402.5288,507.9842 " fill="none" id="TeamRepository-to-Team" style="stroke:#181818;stroke-width:1.0;"/><polygon fill="#181818" points="2408.52,507.66,2399.317,504.1522,2403.5273,507.9302,2399.7493,512.1405,2408.52,507.66" style="stroke:#181818;stroke-width:1.0;"/><text fill="#000000" font-family="sans-serif" font-size="13" lengthAdjust="spacing" textLength="8" x="1722.6343" y="557.2275">1</text><text fill="#000000" font-family="sans-serif" font-size="13" lengthAdjust="spacing" textLength="7" x="2394.3019" y="520.3529">*</text></g><!--link TeamMapper to Team--><g id="link_TeamMapper_Team"><path codeLine="105" d="M2153.26,650.87 C2210.39,620.03 2301.45,574.1 2385,546 C2404.89,539.31 2420.1987,534.7933 2441.3487,529.5133 " fill="none" id="TeamMapper-to-Team" style="stroke:#181818;stroke-width:1.0;stroke-dasharray:7.0,7.0;"/><polygon fill="#181818" points="2447.17,528.06,2437.4691,526.359,2442.3189,529.2711,2439.4068,534.1208,2447.17,528.06" style="stroke:#181818;stroke-width:1.0;"/></g><!--link Team to Collaborator--><g id="link_Team_Collaborator"><path codeLine="111" d="M2841.26,496 C2927,496 3013.72,496 3075.25,496 " fill="none" id="Team-to-Collaborator" style="stroke:#181818;stroke-width:1.0;"/><polygon fill="#181818" points="3081.25,496,3072.25,492,3076.25,496,3072.25,500,3081.25,496" style="stroke:#181818;stroke-width:1.0;"/><text fill="#000000" font-family="sans-serif" font-size="13" lengthAdjust="spacing" textLength="7" x="2849.1576" y="508.3335">*</text><text fill="#000000" font-family="sans-serif" font-size="13" lengthAdjust="spacing" textLength="7" x="3066.5414" y="508.8319">*</text></g><!--link Team to EmailService--><g id="link_Team_EmailService"><path codeLine="121" d="M2656.71,463.79 C2701.39,419.02 2788.96,338.89 2880,298 C2895.3,291.13 2905.7671,286.9701 2922.3171,281.8601 " fill="none" id="Team-to-EmailService" style="stroke:#181818;stroke-width:1.0;stroke-dasharray:7.0,7.0;"/><polygon fill="#181818" points="2928.05,280.09,2918.2705,278.9232,2923.2725,281.5651,2920.6307,286.5671,2928.05,280.09" style="stroke:#181818;stroke-width:1.0;"/></g><!--link EmailService to ApplicationSession--><g id="link_EmailService_ApplicationSession"><path codeLine="126" d="M3346.07,215.99 C3421.18,203.51 3498.9712,190.5835 3564.8712,179.6335 " fill="none" id="EmailService-to-ApplicationSession" style="stroke:#181818;stroke-width:1.0;"/><polygon fill="#181818" points="3570.79,178.65,3561.2561,176.1793,3565.8576,179.4696,3562.5674,184.0711,3570.79,178.65" style="stroke:#181818;stroke-width:1.0;"/><text fill="#000000" font-family="sans-serif" font-size="13" lengthAdjust="spacing" textLength="8" x="3377.1688" y="204.891">1</text><text fill="#000000" font-family="sans-serif" font-size="13" lengthAdjust="spacing" textLength="8" x="3554.8969" y="192.4509">1</text></g><!--reverse link SendEmailExternalAPI to GmailService--><g id="link_SendEmailExternalAPI_GmailService"><path d="M3379.4184,312.345 C3427.1684,303.955 3459.85,298.22 3506.42,290.05 " fill="none" id="SendEmailExternalAPI-backto-GmailService" style="stroke:#181818;stroke-width:1.0;stroke-dasharray:7.0,7.0;"/><polygon fill="none" points="3361.69,315.46,3380.4568,318.2545,3378.3801,306.4355,3361.69,315.46" style="stroke:#181818;stroke-width:1.0;"/></g><!--link EmailService to GmailService--><g id="link_EmailService_GmailService"><path codeLine="133" d="M3401.26,252.63 C3421.39,253 3435.671,253.2689 3455.641,253.6389 " fill="none" id="EmailService-to-GmailService" style="stroke:#181818;stroke-width:1.0;"/><polygon fill="#181818" points="3461.64,253.75,3452.7156,249.584,3456.6409,253.6574,3452.5674,257.5826,3461.64,253.75" style="stroke:#181818;stroke-width:1.0;"/><text fill="#000000" font-family="sans-serif" font-size="13" lengthAdjust="spacing" textLength="8" x="3408.7638" y="265.0546">1</text><text fill="#000000" font-family="sans-serif" font-size="13" lengthAdjust="spacing" textLength="8" x="3446.0157" y="265.9208">1</text></g><!--reverse link SendEmailExternalAPI to DeiEmailService--><g id="link_SendEmailExternalAPI_DeiEmailService"><path d="M3398.5992,354.287 C3425.5392,354.537 3435.04,354.63 3461.98,354.88 " fill="none" id="SendEmailExternalAPI-backto-DeiEmailService" style="stroke:#181818;stroke-width:1.0;stroke-dasharray:7.0,7.0;"/><polygon fill="none" points="3380.6,354.12,3398.5435,360.2868,3398.6549,348.2873,3380.6,354.12" style="stroke:#181818;stroke-width:1.0;"/></g><!--link EmailService to DeiEmailService--><g id="link_EmailService_DeiEmailService"><path codeLine="139" d="M3312.28,280.01 C3341.78,285.98 3372.33,292.17 3401,298 C3443.76,306.7 3484.212,314.9663 3526.942,323.7163 " fill="none" id="EmailService-to-DeiEmailService" style="stroke:#181818;stroke-width:1.0;"/><polygon fill="#181818" points="3532.82,324.92,3524.8054,319.1958,3527.9216,323.9169,3523.2005,327.0332,3532.82,324.92" style="stroke:#181818;stroke-width:1.0;"/><text fill="#000000" font-family="sans-serif" font-size="13" lengthAdjust="spacing" textLength="8" x="3336.4096" y="300.2089">1</text><text fill="#000000" font-family="sans-serif" font-size="13" lengthAdjust="spacing" textLength="8" x="3491.5766" y="313.8066">1</text></g><!--SRC=[rLTRRzem57xFhx3O2snjrRsY2eaMLl7GRIfqxoOvKBV1ZcptmYR- -uwTcvCubqdJfAKI6EVSlkzynqdLC-C9bVH0r2EDn1lZUxAZiO905NV2c2errrgoxOk6LIZuclq4SXa4CUmqqO98jd_K968IGiq43uA4Xizq3sJqi1gH3xjBy_Sh87ZPOEG7WxS5QCfYjUHQ7XzM9Brz2e9JwNqZ93Z-riAvYPuYZa6YIMIlpAGzJ-cJvSklJsZDzdm3zB0HrdGijayBBQR4xE7YZ83PjblBR3KfOfpAp1vi5nSpqb5B40HEZ0BWGXmeuowu8aTXSqUJn4z0IOBDbXhMK5laMgI9vZoQ5oICDNwasBt0fsGhH0oKL-AT0bz-4wGzFRnhIKFzbHwWJZbcMQFg-BuroSb3oMBpRG0V6DvNpHxqFUn00WzXt9hV_UcoQ_gSHszZeYMnuTjmu4sPbxR9ZCOJCgGqXtXJMPQzXxvxI8HYMiWZihYrbvV5mew1yW0w9qfJpKB2E2wGJQpOTMdY8mXmbHbRWFtcbkkoOEjLs_Cx6YfgVjKj3nwtdF6aY_UEKyVqeSBSb4WNPYLEnV3ylE6PKzigyXAFJtBD8wzdw8b_wcsm7UEHDRm-bWCayzKq5MlHdnfxZNbo2YzcAbCo8UqSZJwFB4_cknvdcY9oMjmoeDsakLCuwBWgs35MrqVhM1_sIHgZWvLQOVau_o4djIXJejj5toFYQgX6fCuZvav447UVBZPbjsWTjKuwX4bKsh7qsGPHlvllW7TOAmZzEFA8kIBLGhjjMlCXL81Q4Kjy9CTVM0nZzR9zmlUgN2jdv01A8O-EU0QWgBNU1T6GdgkilDS-13Se1xeLacB8bbcnC8OzI2qVffwyBZTyjw3c4KqqIDMZALFB6kGhmwVH0EB1h4hQ1_JXLR2e5w8LXLEAhzHvaiGifEPbUerPyAkBtooGeRaIkEEGTQbmJuXcOkyhtQthpmv930SyNHLP8uKszl8T-y5fFF- -QgCwbSRV9xaLssqFwGjWo_yHLwtkgXVZMF2EeeiNmzLLOJ2R_Mj4xapd_mATWjy0]--></g></svg>