<?xml version="1.0" encoding="us-ascii" standalone="no"?><svg xmlns="http://www.w3.org/2000/svg" xmlns:xlink="http://www.w3.org/1999/xlink" contentStyleType="text/css" height="896px" preserveAspectRatio="none" style="width:2187px;height:896px;background:#FFFFFF;" version="1.1" viewBox="0 0 2187 896" width="2187px" zoomAndPan="magnify"><defs/><g><rect fill="#FFFFFF" height="743.1172" style="stroke:#181818;stroke-width:1.0;" width="10" x="282" y="83.7266"/><rect fill="#FFFFFF" height="29.1328" style="stroke:#181818;stroke-width:1.0;" width="10" x="425.5" y="136.9922"/><rect fill="#FFFFFF" height="29.1328" style="stroke:#181818;stroke-width:1.0;" width="10" x="539" y="195.2578"/><rect fill="#FFFFFF" height="29.1328" style="stroke:#181818;stroke-width:1.0;" width="10" x="539" y="253.5234"/><rect fill="#FFFFFF" height="29.1328" style="stroke:#181818;stroke-width:1.0;" width="10" x="720.5" y="311.7891"/><rect fill="#FFFFFF" height="30" style="stroke:#181818;stroke-width:1.0;" width="10" x="969.5" y="370.0547"/><rect fill="#FFFFFF" height="29.1328" style="stroke:#181818;stroke-width:1.0;" width="10" x="1185" y="429.1875"/><rect fill="#FFFFFF" height="303.2578" style="stroke:#181818;stroke-width:1.0;" width="10" x="1335" y="487.4531"/><rect fill="#FFFFFF" height="34.1328" style="stroke:#181818;stroke-width:1.0;" width="10" x="1340" y="649.1484"/><rect fill="#FFFFFF" height="30" style="stroke:#181818;stroke-width:1.0;" width="10" x="1689" y="582.0156"/><rect fill="#FFFFFF" height="30" style="stroke:#181818;stroke-width:1.0;" width="10" x="1910.5" y="724.5781"/><rect fill="none" height="699.9844" style="stroke:#000000;stroke-width:1.5;" width="1987" x="194" y="98.7266"/><rect fill="none" height="218.8281" style="stroke:#000000;stroke-width:1.5;" width="896" x="1275" y="543.75"/><line style="stroke:#181818;stroke-width:0.5;stroke-dasharray:5.0,5.0;" x1="287" x2="287" y1="52.5938" y2="844.8438"/><line style="stroke:#181818;stroke-width:0.5;stroke-dasharray:5.0,5.0;" x1="430" x2="430" y1="52.5938" y2="844.8438"/><line style="stroke:#181818;stroke-width:0.5;stroke-dasharray:5.0,5.0;" x1="544" x2="544" y1="52.5938" y2="844.8438"/><line style="stroke:#181818;stroke-width:0.5;stroke-dasharray:5.0,5.0;" x1="725" x2="725" y1="52.5938" y2="844.8438"/><line style="stroke:#181818;stroke-width:0.5;stroke-dasharray:5.0,5.0;" x1="974" x2="974" y1="52.5938" y2="844.8438"/><line style="stroke:#181818;stroke-width:0.5;stroke-dasharray:5.0,5.0;" x1="1190" x2="1190" y1="52.5938" y2="844.8438"/><line style="stroke:#181818;stroke-width:0.5;stroke-dasharray:5.0,5.0;" x1="1340" x2="1340" y1="52.5938" y2="844.8438"/><line style="stroke:#181818;stroke-width:0.5;stroke-dasharray:5.0,5.0;" x1="1526" x2="1526" y1="52.5938" y2="844.8438"/><line style="stroke:#181818;stroke-width:0.5;stroke-dasharray:5.0,5.0;" x1="1694" x2="1694" y1="52.5938" y2="844.8438"/><line style="stroke:#181818;stroke-width:0.5;stroke-dasharray:5.0,5.0;" x1="1915" x2="1915" y1="526.1016" y2="844.8438"/><line style="stroke:#181818;stroke-width:0.5;stroke-dasharray:5.0,5.0;" x1="2096" x2="2096" y1="692.7969" y2="844.8438"/><rect fill="#E3E3E3" height="30.2969" rx="2.5" ry="2.5" style="stroke:#181818;stroke-width:0.5;" width="166" x="204" y="21.2969"/><text fill="#000000" font-family="sans-serif" font-size="14" lengthAdjust="spacing" textLength="152" x="211" y="41.292">:AssignSkillsController</text><rect fill="#E3E3E3" height="30.2969" rx="2.5" ry="2.5" style="stroke:#181818;stroke-width:0.5;" width="166" x="204" y="843.8438"/><text fill="#000000" font-family="sans-serif" font-size="14" lengthAdjust="spacing" textLength="152" x="211" y="863.8389">:AssignSkillsController</text><rect fill="#E3E3E3" height="30.2969" rx="2.5" ry="2.5" style="stroke:#181818;stroke-width:0.5;" width="101" x="380" y="21.2969"/><text fill="#000000" font-family="sans-serif" font-size="14" lengthAdjust="spacing" textLength="87" x="387" y="41.292">Repositories</text><rect fill="#E3E3E3" height="30.2969" rx="2.5" ry="2.5" style="stroke:#181818;stroke-width:0.5;" width="101" x="380" y="843.8438"/><text fill="#000000" font-family="sans-serif" font-size="14" lengthAdjust="spacing" textLength="87" x="387" y="863.8389">Repositories</text><rect fill="#E3E3E3" height="46.5938" rx="2.5" ry="2.5" style="stroke:#181818;stroke-width:0.5;" width="106" x="491" y="5"/><text fill="#000000" font-family="sans-serif" font-size="14" lengthAdjust="spacing" textLength="82" x="503" y="24.9951">repositories</text><text fill="#000000" font-family="sans-serif" font-size="14" lengthAdjust="spacing" textLength="92" x="498" y="41.292">:Repositories</text><rect fill="#E3E3E3" height="46.5938" rx="2.5" ry="2.5" style="stroke:#181818;stroke-width:0.5;" width="106" x="491" y="843.8438"/><text fill="#000000" font-family="sans-serif" font-size="14" lengthAdjust="spacing" textLength="82" x="503" y="863.8389">repositories</text><text fill="#000000" font-family="sans-serif" font-size="14" lengthAdjust="spacing" textLength="92" x="498" y="880.1357">:Repositories</text><rect fill="#E3E3E3" height="30.2969" rx="2.5" ry="2.5" style="stroke:#181818;stroke-width:0.5;" width="237" x="607" y="21.2969"/><text fill="#000000" font-family="sans-serif" font-size="14" lengthAdjust="spacing" textLength="223" x="614" y="41.292">entryRepository:EntryRepository</text><rect fill="#E3E3E3" height="30.2969" rx="2.5" ry="2.5" style="stroke:#181818;stroke-width:0.5;" width="237" x="607" y="843.8438"/><text fill="#000000" font-family="sans-serif" font-size="14" lengthAdjust="spacing" textLength="223" x="614" y="863.8389">entryRepository:EntryRepository</text><rect fill="#E3E3E3" height="30.2969" rx="2.5" ry="2.5" style="stroke:#181818;stroke-width:0.5;" width="241" x="854" y="21.2969"/><text fill="#000000" font-family="sans-serif" font-size="14" lengthAdjust="spacing" textLength="227" x="861" y="41.292">teamRepository:TeamRepository</text><rect fill="#E3E3E3" height="30.2969" rx="2.5" ry="2.5" style="stroke:#181818;stroke-width:0.5;" width="241" x="854" y="843.8438"/><text fill="#000000" font-family="sans-serif" font-size="14" lengthAdjust="spacing" textLength="227" x="861" y="863.8389">teamRepository:TeamRepository</text><rect fill="#E3E3E3" height="30.2969" rx="2.5" ry="2.5" style="stroke:#181818;stroke-width:0.5;" width="170" x="1105" y="21.2969"/><text fill="#000000" font-family="sans-serif" font-size="14" lengthAdjust="spacing" textLength="156" x="1112" y="41.292">agendaList:AgendaList</text><rect fill="#E3E3E3" height="30.2969" rx="2.5" ry="2.5" style="stroke:#181818;stroke-width:0.5;" width="170" x="1105" y="843.8438"/><text fill="#000000" font-family="sans-serif" font-size="14" lengthAdjust="spacing" textLength="156" x="1112" y="863.8389">agendaList:AgendaList</text><rect fill="#E3E3E3" height="30.2969" rx="2.5" ry="2.5" style="stroke:#181818;stroke-width:0.5;" width="110" x="1285" y="21.2969"/><text fill="#000000" font-family="sans-serif" font-size="14" lengthAdjust="spacing" textLength="96" x="1292" y="41.292">:TeamMapper</text><rect fill="#E3E3E3" height="30.2969" rx="2.5" ry="2.5" style="stroke:#181818;stroke-width:0.5;" width="110" x="1285" y="843.8438"/><text fill="#000000" font-family="sans-serif" font-size="14" lengthAdjust="spacing" textLength="96" x="1292" y="863.8389">:TeamMapper</text><rect fill="#E3E3E3" height="30.2969" rx="2.5" ry="2.5" style="stroke:#181818;stroke-width:0.5;" width="106" x="1473" y="21.2969"/><text fill="#000000" font-family="sans-serif" font-size="14" lengthAdjust="spacing" textLength="92" x="1480" y="41.292">:EntryMapper</text><rect fill="#E3E3E3" height="30.2969" rx="2.5" ry="2.5" style="stroke:#181818;stroke-width:0.5;" width="106" x="1473" y="843.8438"/><text fill="#000000" font-family="sans-serif" font-size="14" lengthAdjust="spacing" textLength="92" x="1480" y="863.8389">:EntryMapper</text><rect fill="#E3E3E3" height="30.2969" rx="2.5" ry="2.5" style="stroke:#181818;stroke-width:0.5;" width="210" x="1589" y="21.2969"/><text fill="#000000" font-family="sans-serif" font-size="14" lengthAdjust="spacing" textLength="196" x="1596" y="41.292">teamListFiltered:list&lt;Team&gt;</text><rect fill="#E3E3E3" height="30.2969" rx="2.5" ry="2.5" style="stroke:#181818;stroke-width:0.5;" width="210" x="1589" y="843.8438"/><text fill="#000000" font-family="sans-serif" font-size="14" lengthAdjust="spacing" textLength="196" x="1596" y="863.8389">teamListFiltered:list&lt;Team&gt;</text><rect fill="#E3E3E3" height="30.2969" rx="2.5" ry="2.5" style="stroke:#181818;stroke-width:0.5;" width="213" x="1809" y="843.8438"/><text fill="#000000" font-family="sans-serif" font-size="14" lengthAdjust="spacing" textLength="199" x="1816" y="863.8389">teamListDto:List&lt;TeamDto&gt;</text><rect fill="#E3E3E3" height="30.2969" rx="2.5" ry="2.5" style="stroke:#181818;stroke-width:0.5;" width="129" x="2032" y="843.8438"/><text fill="#000000" font-family="sans-serif" font-size="14" lengthAdjust="spacing" textLength="115" x="2039" y="863.8389">objDto:TeamDto</text><rect fill="#FFFFFF" height="743.1172" style="stroke:#181818;stroke-width:1.0;" width="10" x="282" y="83.7266"/><rect fill="#FFFFFF" height="29.1328" style="stroke:#181818;stroke-width:1.0;" width="10" x="425.5" y="136.9922"/><rect fill="#FFFFFF" height="29.1328" style="stroke:#181818;stroke-width:1.0;" width="10" x="539" y="195.2578"/><rect fill="#FFFFFF" height="29.1328" style="stroke:#181818;stroke-width:1.0;" width="10" x="539" y="253.5234"/><rect fill="#FFFFFF" height="29.1328" style="stroke:#181818;stroke-width:1.0;" width="10" x="720.5" y="311.7891"/><rect fill="#FFFFFF" height="30" style="stroke:#181818;stroke-width:1.0;" width="10" x="969.5" y="370.0547"/><rect fill="#FFFFFF" height="29.1328" style="stroke:#181818;stroke-width:1.0;" width="10" x="1185" y="429.1875"/><rect fill="#FFFFFF" height="303.2578" style="stroke:#181818;stroke-width:1.0;" width="10" x="1335" y="487.4531"/><rect fill="#FFFFFF" height="34.1328" style="stroke:#181818;stroke-width:1.0;" width="10" x="1340" y="649.1484"/><rect fill="#FFFFFF" height="30" style="stroke:#181818;stroke-width:1.0;" width="10" x="1689" y="582.0156"/><rect fill="#FFFFFF" height="30" style="stroke:#181818;stroke-width:1.0;" width="10" x="1910.5" y="724.5781"/><polygon fill="#181818" points="270,79.7266,280,83.7266,270,87.7266,274,83.7266" style="stroke:#181818;stroke-width:1.0;"/><line style="stroke:#181818;stroke-width:1.0;" x1="0" x2="276" y1="83.7266" y2="83.7266"/><text fill="#000000" font-family="sans-serif" font-size="13" font-weight="bold" lengthAdjust="spacing" textLength="9" x="7" y="78.6606">3</text><text fill="#000000" font-family="sans-serif" font-size="13" lengthAdjust="spacing" textLength="250" x="20" y="78.6606">getTeamListPossibleForEntry(entryDto)</text><path d="M194,98.7266 L572,98.7266 L572,105.8594 L562,115.8594 L194,115.8594 L194,98.7266 " fill="#EEEEEE" style="stroke:#000000;stroke-width:1.5;"/><rect fill="none" height="699.9844" style="stroke:#000000;stroke-width:1.5;" width="1987" x="194" y="98.7266"/><text fill="#000000" font-family="sans-serif" font-size="13" font-weight="bold" lengthAdjust="spacing" textLength="333" x="209" y="111.7935">Get Team List Possible For Entry Assignment</text><polygon fill="#181818" points="413.5,132.9922,423.5,136.9922,413.5,140.9922,417.5,136.9922" style="stroke:#181818;stroke-width:1.0;"/><line style="stroke:#181818;stroke-width:1.0;" x1="292" x2="419.5" y1="136.9922" y2="136.9922"/><text fill="#000000" font-family="sans-serif" font-size="13" font-weight="bold" lengthAdjust="spacing" textLength="23" x="299" y="131.9263">3.1</text><text fill="#000000" font-family="sans-serif" font-size="13" lengthAdjust="spacing" textLength="85" x="326" y="131.9263">getInstance()</text><polygon fill="#181818" points="303,162.125,293,166.125,303,170.125,299,166.125" style="stroke:#181818;stroke-width:1.0;"/><line style="stroke:#181818;stroke-width:1.0;stroke-dasharray:2.0,2.0;" x1="297" x2="429.5" y1="166.125" y2="166.125"/><text fill="#000000" font-family="sans-serif" font-size="13" font-weight="bold" lengthAdjust="spacing" textLength="23" x="309" y="161.0591">3.2</text><text fill="#000000" font-family="sans-serif" font-size="13" lengthAdjust="spacing" textLength="75" x="336" y="161.0591">repositories</text><polygon fill="#181818" points="527,191.2578,537,195.2578,527,199.2578,531,195.2578" style="stroke:#181818;stroke-width:1.0;"/><line style="stroke:#181818;stroke-width:1.0;" x1="292" x2="533" y1="195.2578" y2="195.2578"/><text fill="#000000" font-family="sans-serif" font-size="13" font-weight="bold" lengthAdjust="spacing" textLength="23" x="299" y="190.1919">3.3</text><text fill="#000000" font-family="sans-serif" font-size="13" lengthAdjust="spacing" textLength="131" x="326" y="190.1919">getEntryRepository()</text><polygon fill="#181818" points="303,220.3906,293,224.3906,303,228.3906,299,224.3906" style="stroke:#181818;stroke-width:1.0;"/><line style="stroke:#181818;stroke-width:1.0;stroke-dasharray:2.0,2.0;" x1="297" x2="543" y1="224.3906" y2="224.3906"/><text fill="#000000" font-family="sans-serif" font-size="13" font-weight="bold" lengthAdjust="spacing" textLength="23" x="309" y="219.3247">3.4</text><text fill="#000000" font-family="sans-serif" font-size="13" lengthAdjust="spacing" textLength="100" x="336" y="219.3247">entryRepository</text><polygon fill="#181818" points="527,249.5234,537,253.5234,527,257.5234,531,253.5234" style="stroke:#181818;stroke-width:1.0;"/><line style="stroke:#181818;stroke-width:1.0;" x1="292" x2="533" y1="253.5234" y2="253.5234"/><text fill="#000000" font-family="sans-serif" font-size="13" font-weight="bold" lengthAdjust="spacing" textLength="23" x="299" y="248.4575">3.5</text><text fill="#000000" font-family="sans-serif" font-size="13" lengthAdjust="spacing" textLength="134" x="326" y="248.4575">getTeamRepository()</text><polygon fill="#181818" points="303,278.6563,293,282.6563,303,286.6563,299,282.6563" style="stroke:#181818;stroke-width:1.0;"/><line style="stroke:#181818;stroke-width:1.0;stroke-dasharray:2.0,2.0;" x1="297" x2="543" y1="282.6563" y2="282.6563"/><text fill="#000000" font-family="sans-serif" font-size="13" font-weight="bold" lengthAdjust="spacing" textLength="23" x="309" y="277.5903">3.6</text><text fill="#000000" font-family="sans-serif" font-size="13" lengthAdjust="spacing" textLength="101" x="336" y="277.5903">teamRepository</text><polygon fill="#181818" points="708.5,307.7891,718.5,311.7891,708.5,315.7891,712.5,311.7891" style="stroke:#181818;stroke-width:1.0;"/><line style="stroke:#181818;stroke-width:1.0;" x1="292" x2="714.5" y1="311.7891" y2="311.7891"/><text fill="#000000" font-family="sans-serif" font-size="13" font-weight="bold" lengthAdjust="spacing" textLength="23" x="299" y="306.7231">3.7</text><text fill="#000000" font-family="sans-serif" font-size="13" lengthAdjust="spacing" textLength="80" x="326" y="306.7231">getAgenda()</text><polygon fill="#181818" points="303,336.9219,293,340.9219,303,344.9219,299,340.9219" style="stroke:#181818;stroke-width:1.0;"/><line style="stroke:#181818;stroke-width:1.0;" x1="297" x2="724.5" y1="340.9219" y2="340.9219"/><text fill="#000000" font-family="sans-serif" font-size="13" font-weight="bold" lengthAdjust="spacing" textLength="23" x="309" y="335.856">3.8</text><text fill="#000000" font-family="sans-serif" font-size="13" lengthAdjust="spacing" textLength="70" x="336" y="335.856">agendaList</text><polygon fill="#181818" points="957.5,366.0547,967.5,370.0547,957.5,374.0547,961.5,370.0547" style="stroke:#181818;stroke-width:1.0;"/><line style="stroke:#181818;stroke-width:1.0;" x1="292" x2="963.5" y1="370.0547" y2="370.0547"/><text fill="#000000" font-family="sans-serif" font-size="13" font-weight="bold" lengthAdjust="spacing" textLength="23" x="299" y="364.9888">3.9</text><text fill="#000000" font-family="sans-serif" font-size="13" lengthAdjust="spacing" textLength="149" x="326" y="364.9888">teamList = getTeams()</text><polygon fill="#181818" points="1173,425.1875,1183,429.1875,1173,433.1875,1177,429.1875" style="stroke:#181818;stroke-width:1.0;"/><line style="stroke:#181818;stroke-width:1.0;" x1="292" x2="1179" y1="429.1875" y2="429.1875"/><text fill="#000000" font-family="sans-serif" font-size="13" font-weight="bold" lengthAdjust="spacing" textLength="32" x="299" y="424.1216">3.10</text><text fill="#000000" font-family="sans-serif" font-size="13" lengthAdjust="spacing" textLength="307" x="335" y="424.1216">filterTeamNotActivateInTime(teamList,entryDto)</text><polygon fill="#181818" points="303,454.3203,293,458.3203,303,462.3203,299,458.3203" style="stroke:#181818;stroke-width:1.0;"/><line style="stroke:#181818;stroke-width:1.0;" x1="297" x2="1189" y1="458.3203" y2="458.3203"/><text fill="#000000" font-family="sans-serif" font-size="13" font-weight="bold" lengthAdjust="spacing" textLength="32" x="309" y="453.2544">3.11</text><text fill="#000000" font-family="sans-serif" font-size="13" lengthAdjust="spacing" textLength="103" x="345" y="453.2544">teamListFiltered</text><polygon fill="#181818" points="1323,483.4531,1333,487.4531,1323,491.4531,1327,487.4531" style="stroke:#181818;stroke-width:1.0;"/><line style="stroke:#181818;stroke-width:1.0;" x1="292" x2="1329" y1="487.4531" y2="487.4531"/><text fill="#000000" font-family="sans-serif" font-size="13" font-weight="bold" lengthAdjust="spacing" textLength="32" x="299" y="482.3872">3.12</text><text fill="#000000" font-family="sans-serif" font-size="13" lengthAdjust="spacing" textLength="265" x="335" y="482.3872">teamListToTeamDtoList(teamListFiltered)</text><polygon fill="#181818" points="1797,512.5859,1807,516.5859,1797,520.5859,1801,516.5859" style="stroke:#181818;stroke-width:1.0;"/><line style="stroke:#181818;stroke-width:1.0;" x1="1345" x2="1803" y1="516.5859" y2="516.5859"/><text fill="#000000" font-family="sans-serif" font-size="13" font-weight="bold" lengthAdjust="spacing" textLength="32" x="1352" y="511.52">3.13</text><text fill="#000000" font-family="sans-serif" font-size="13" lengthAdjust="spacing" textLength="51" x="1388" y="511.52">create()</text><rect fill="#E3E3E3" height="30.2969" rx="2.5" ry="2.5" style="stroke:#181818;stroke-width:0.5;" width="213" x="1809" y="495.4531"/><text fill="#000000" font-family="sans-serif" font-size="14" lengthAdjust="spacing" textLength="199" x="1816" y="515.4482">teamListDto:List&lt;TeamDto&gt;</text><path d="M1275,543.75 L1352,543.75 L1352,550.8828 L1342,560.8828 L1275,560.8828 L1275,543.75 " fill="#EEEEEE" style="stroke:#000000;stroke-width:1.5;"/><rect fill="none" height="218.8281" style="stroke:#000000;stroke-width:1.5;" width="896" x="1275" y="543.75"/><text fill="#000000" font-family="sans-serif" font-size="13" font-weight="bold" lengthAdjust="spacing" textLength="32" x="1290" y="556.8169">loop</text><text fill="#000000" font-family="sans-serif" font-size="11" font-weight="bold" lengthAdjust="spacing" textLength="235" x="1367" y="555.9604">[for each object in TeamListFiltered]</text><polygon fill="#181818" points="1677,578.0156,1687,582.0156,1677,586.0156,1681,582.0156" style="stroke:#181818;stroke-width:1.0;"/><line style="stroke:#181818;stroke-width:1.0;" x1="1345" x2="1683" y1="582.0156" y2="582.0156"/><text fill="#000000" font-family="sans-serif" font-size="13" font-weight="bold" lengthAdjust="spacing" textLength="32" x="1352" y="576.9497">3.14</text><text fill="#000000" font-family="sans-serif" font-size="13" lengthAdjust="spacing" textLength="69" x="1388" y="576.9497">obj = get()</text><line style="stroke:#181818;stroke-width:1.0;" x1="1345" x2="1392" y1="636.1484" y2="636.1484"/><line style="stroke:#181818;stroke-width:1.0;" x1="1392" x2="1392" y1="636.1484" y2="649.1484"/><line style="stroke:#181818;stroke-width:1.0;" x1="1351" x2="1392" y1="649.1484" y2="649.1484"/><polygon fill="#181818" points="1361,645.1484,1351,649.1484,1361,653.1484,1357,649.1484" style="stroke:#181818;stroke-width:1.0;"/><text fill="#000000" font-family="sans-serif" font-size="13" font-weight="bold" lengthAdjust="spacing" textLength="32" x="1357" y="631.0825">3.15</text><text fill="#000000" font-family="sans-serif" font-size="13" lengthAdjust="spacing" textLength="126" x="1393" y="631.0825">objDto = toDto(obj)</text><polygon fill="#181818" points="2020,679.2813,2030,683.2813,2020,687.2813,2024,683.2813" style="stroke:#181818;stroke-width:1.0;"/><line style="stroke:#181818;stroke-width:1.0;" x1="1345" x2="2026" y1="683.2813" y2="683.2813"/><text fill="#000000" font-family="sans-serif" font-size="13" font-weight="bold" lengthAdjust="spacing" textLength="32" x="1352" y="678.2153">3.16</text><text fill="#000000" font-family="sans-serif" font-size="13" lengthAdjust="spacing" textLength="143" x="1388" y="678.2153">create(objAllAtributes)</text><rect fill="#E3E3E3" height="30.2969" rx="2.5" ry="2.5" style="stroke:#181818;stroke-width:0.5;" width="129" x="2032" y="662.1484"/><text fill="#000000" font-family="sans-serif" font-size="14" lengthAdjust="spacing" textLength="115" x="2039" y="682.1436">objDto:TeamDto</text><polygon fill="#181818" points="1898.5,720.5781,1908.5,724.5781,1898.5,728.5781,1902.5,724.5781" style="stroke:#181818;stroke-width:1.0;"/><line style="stroke:#181818;stroke-width:1.0;" x1="1345" x2="1904.5" y1="724.5781" y2="724.5781"/><text fill="#000000" font-family="sans-serif" font-size="13" font-weight="bold" lengthAdjust="spacing" textLength="32" x="1352" y="719.5122">3.17</text><text fill="#000000" font-family="sans-serif" font-size="13" lengthAdjust="spacing" textLength="76" x="1388" y="719.5122">add(objDto)</text><polygon fill="#181818" points="303,786.7109,293,790.7109,303,794.7109,299,790.7109" style="stroke:#181818;stroke-width:1.0;"/><line style="stroke:#181818;stroke-width:1.0;" x1="297" x2="1339" y1="790.7109" y2="790.7109"/><text fill="#000000" font-family="sans-serif" font-size="13" font-weight="bold" lengthAdjust="spacing" textLength="32" x="309" y="785.645">3.18</text><text fill="#000000" font-family="sans-serif" font-size="13" lengthAdjust="spacing" textLength="79" x="345" y="785.645">teamListDto</text><polygon fill="#181818" points="11,822.8438,1,826.8438,11,830.8438,7,826.8438" style="stroke:#181818;stroke-width:1.0;"/><line style="stroke:#181818;stroke-width:1.0;stroke-dasharray:2.0,2.0;" x1="5" x2="286" y1="826.8438" y2="826.8438"/><text fill="#000000" font-family="sans-serif" font-size="13" font-weight="bold" lengthAdjust="spacing" textLength="9" x="17" y="821.7778">4</text><text fill="#000000" font-family="sans-serif" font-size="13" lengthAdjust="spacing" textLength="131" x="30" y="821.7778">teamListDtoPossible</text><!--SRC=[dLLDRzim3BthLn0z9SKoO1ydeoiGTEjG81k6DiTT54T9jCYI8IaR-kz7qvOiAKumh9UMqdkFpnJ9kgFKBRUyWSPeKn-iQGHuUnBCnPkMrqU-5o_-LGcmelPSxrKAS0U-DN-atiEEAoSOuoTlzAdP2CiOGuoNjMovzd1JBPsJU_rob4gv1wEzDKe9UmFSmSFwUVM-m3-BrZZfZPN24OWESenDC3zrTKQX-mcUmEol4VrQVSbZuiQpmfSNl4cewomaPZZAULX7lUKhwNorZ7yIVWoBYdL2ttZR3bKQGoY0v3L19l64-oxJerHUMB6j50PtdV9zp77k9B0-UrEj0W63d8C7ESriVdMC0Hon7Ixj5FZ0sEA-RmAeO2zyKFnXi6SsIZmQIvyqeuT3_ZoZltt7UEtbR-v5QAMzDQSMlWfF6Q4JWw06ADUN2FgUR52M0Vxq5j0BlIXPUT8EkxuMipaXOfw-g-YC_eH5-8GAqhOan5PCyMAsiKqfPT6DPUQagUbYZ5CFHOkNDagHIrxozlu_A_d4_BEJM0OoqWz9QI0PqkuyXZ1c7-Ukp5oGO-BmpRrpQfrFeHQkT127lH2FvuNuEEmLx6W8E-HtuvS3yqclPIDc8VMRiUMplCdIe8inXcIMe9ptqcOfanMXto1Z6TPc6Dykc9NI4uK9AuXkalKrw0zBu_OMdTPM80khIrXbJ0ix75DqUW3S8_Y_1wIEhEnpBekZBdBxrniUxinZx8o91ypkpbE4-lHx3jDuWxzd65x85UfnMR8e1qejbLfwApSdBzpyaj51-7erEeyu3zljh3TyfI3TYhvIat2DlJFrjg7xV06VDaqYoJh_oDZTOZ68v2fXWxD4gL_uVm40]--></g></svg>