<?xml version="1.0" encoding="us-ascii" standalone="no"?><svg xmlns="http://www.w3.org/2000/svg" xmlns:xlink="http://www.w3.org/1999/xlink" contentStyleType="text/css" height="603px" preserveAspectRatio="none" style="width:970px;height:603px;background:#FFFFFF;" version="1.1" viewBox="0 0 970 603" width="970px" zoomAndPan="magnify"><defs/><g><rect fill="#FFFFFF" height="422.6016" style="stroke:#181818;stroke-width:1.0;" width="10" x="19" y="91.2969"/><rect fill="#FFFFFF" height="334.3984" style="stroke:#181818;stroke-width:1.0;" width="10" x="392" y="170.5"/><rect fill="#FFFFFF" height="276.1328" style="stroke:#181818;stroke-width:1.0;" width="10" x="675" y="199.6328"/><rect fill="#FFFFFF" height="29.1328" style="stroke:#181818;stroke-width:1.0;" width="10" x="914" y="373.3984"/><line style="stroke:#181818;stroke-width:0.5;stroke-dasharray:5.0,5.0;" x1="24" x2="24" y1="81.2969" y2="522.8984"/><line style="stroke:#181818;stroke-width:0.5;stroke-dasharray:5.0,5.0;" x1="397" x2="397" y1="81.2969" y2="522.8984"/><line style="stroke:#181818;stroke-width:0.5;stroke-dasharray:5.0,5.0;" x1="680" x2="680" y1="81.2969" y2="522.8984"/><line style="stroke:#181818;stroke-width:0.5;stroke-dasharray:5.0,5.0;" x1="919" x2="919" y1="81.2969" y2="522.8984"/><text fill="#000000" font-family="sans-serif" font-size="14" lengthAdjust="spacing" textLength="32" x="5" y="77.9951">GSM</text><ellipse cx="24" cy="13.5" fill="#E3E3E3" rx="8" ry="8" style="stroke:#181818;stroke-width:0.5;"/><path d="M24,21.5 L24,48.5 M11,29.5 L37,29.5 M24,48.5 L11,63.5 M24,48.5 L37,63.5 " fill="none" style="stroke:#181818;stroke-width:0.5;"/><text fill="#000000" font-family="sans-serif" font-size="14" lengthAdjust="spacing" textLength="32" x="5" y="534.8936">GSM</text><ellipse cx="24" cy="546.6953" fill="#E3E3E3" rx="8" ry="8" style="stroke:#181818;stroke-width:0.5;"/><path d="M24,554.6953 L24,581.6953 M11,562.6953 L37,562.6953 M24,581.6953 L11,596.6953 M24,581.6953 L37,596.6953 " fill="none" style="stroke:#181818;stroke-width:0.5;"/><rect fill="#E3E3E3" height="30.2969" rx="2.5" ry="2.5" style="stroke:#181818;stroke-width:0.5;" width="146" x="324" y="50"/><text fill="#000000" font-family="sans-serif" font-size="14" lengthAdjust="spacing" textLength="132" x="331" y="69.9951">:ViewDetailsEntryUI</text><rect fill="#E3E3E3" height="30.2969" rx="2.5" ry="2.5" style="stroke:#181818;stroke-width:0.5;" width="146" x="324" y="521.8984"/><text fill="#000000" font-family="sans-serif" font-size="14" lengthAdjust="spacing" textLength="132" x="331" y="541.8936">:ViewDetailsEntryUI</text><rect fill="#E3E3E3" height="30.2969" rx="2.5" ry="2.5" style="stroke:#181818;stroke-width:0.5;" width="200" x="580" y="50"/><text fill="#000000" font-family="sans-serif" font-size="14" lengthAdjust="spacing" textLength="186" x="587" y="69.9951">:ViewDetailsEntryController</text><rect fill="#E3E3E3" height="30.2969" rx="2.5" ry="2.5" style="stroke:#181818;stroke-width:0.5;" width="200" x="580" y="521.8984"/><text fill="#000000" font-family="sans-serif" font-size="14" lengthAdjust="spacing" textLength="186" x="587" y="541.8936">:ViewDetailsEntryController</text><rect fill="#E3E3E3" height="30.2969" rx="2.5" ry="2.5" style="stroke:#181818;stroke-width:0.5;" width="90" x="874" y="50"/><text fill="#000000" font-family="sans-serif" font-size="14" lengthAdjust="spacing" textLength="76" x="881" y="69.9951">TeamRepo</text><rect fill="#E3E3E3" height="30.2969" rx="2.5" ry="2.5" style="stroke:#181818;stroke-width:0.5;" width="90" x="874" y="521.8984"/><text fill="#000000" font-family="sans-serif" font-size="14" lengthAdjust="spacing" textLength="76" x="881" y="541.8936">TeamRepo</text><rect fill="#FFFFFF" height="422.6016" style="stroke:#181818;stroke-width:1.0;" width="10" x="19" y="91.2969"/><rect fill="#FFFFFF" height="334.3984" style="stroke:#181818;stroke-width:1.0;" width="10" x="392" y="170.5"/><rect fill="#FFFFFF" height="276.1328" style="stroke:#181818;stroke-width:1.0;" width="10" x="675" y="199.6328"/><rect fill="#FFFFFF" height="29.1328" style="stroke:#181818;stroke-width:1.0;" width="10" x="914" y="373.3984"/><rect fill="none" height="53.0703" style="stroke:#000000;stroke-width:1.5;" width="242" x="2" y="91.2969"/><path d="M2,91.2969 L68,91.2969 L68,98.2969 L58,108.2969 L2,108.2969 L2,91.2969 " fill="#EEEEEE" style="stroke:#000000;stroke-width:2.0;"/><text fill="#000000" font-family="sans-serif" font-size="13" font-weight="bold" lengthAdjust="spacing" textLength="21" x="15" y="105.3638">ref</text><text fill="#000000" font-family="sans-serif" font-size="12" lengthAdjust="spacing" textLength="234" x="6" y="123.4355">Get details and management options</text><text fill="#000000" font-family="sans-serif" font-size="12" lengthAdjust="spacing" textLength="215" x="17.5" y="137.4043">of a selected entry on the agenda</text><polygon fill="#181818" points="380,166.5,390,170.5,380,174.5,384,170.5" style="stroke:#181818;stroke-width:1.0;"/><line style="stroke:#181818;stroke-width:1.0;" x1="29" x2="386" y1="170.5" y2="170.5"/><text fill="#000000" font-family="sans-serif" font-size="13" font-weight="bold" lengthAdjust="spacing" textLength="9" x="36" y="165.4341">1</text><text fill="#000000" font-family="sans-serif" font-size="13" lengthAdjust="spacing" textLength="331" x="49" y="165.4341">Selects a Team and Assigns it to the Selected Entry</text><polygon fill="#181818" points="663,195.6328,673,199.6328,663,203.6328,667,199.6328" style="stroke:#181818;stroke-width:1.0;"/><line style="stroke:#181818;stroke-width:1.0;" x1="402" x2="669" y1="199.6328" y2="199.6328"/><text fill="#000000" font-family="sans-serif" font-size="13" font-weight="bold" lengthAdjust="spacing" textLength="9" x="409" y="194.5669">2</text><text fill="#000000" font-family="sans-serif" font-size="13" lengthAdjust="spacing" textLength="241" x="422" y="194.5669">assignTeamToEntry(objDto, entryDto)</text><path d="M407,212.6328 L407,267.6328 L948,267.6328 L948,222.6328 L938,212.6328 L407,212.6328 " fill="#FAFAFA" style="stroke:#181818;stroke-width:0.5;"/><path d="M938,212.6328 L938,222.6328 L948,222.6328 L938,212.6328 " fill="#FAFAFA" style="stroke:#181818;stroke-width:0.5;"/><text fill="#000000" font-family="sans-serif" font-size="13" lengthAdjust="spacing" textLength="333" x="413" y="229.6997">Remember that in the previous referenced diagram,</text><text fill="#000000" font-family="sans-serif" font-size="13" lengthAdjust="spacing" textLength="326" x="413" y="244.8325">ViewDetailsUI received entryDto from AgendaUI via</text><text fill="#000000" font-family="sans-serif" font-size="13" lengthAdjust="spacing" textLength="520" x="413" y="259.9653">showEntryDetails and will continue to use it via this method: "assignTeamToEntry"</text><path d="M407,278.0313 L407,303.0313 L655,303.0313 L655,288.0313 L645,278.0313 L407,278.0313 " fill="#FAFAFA" style="stroke:#181818;stroke-width:0.5;"/><path d="M645,278.0313 L645,288.0313 L655,288.0313 L645,278.0313 " fill="#FAFAFA" style="stroke:#181818;stroke-width:0.5;"/><text fill="#000000" font-family="sans-serif" font-size="13" lengthAdjust="spacing" textLength="227" x="413" y="295.0981">stringTeamName, objSelectedEntry</text><rect fill="none" height="39.1016" style="stroke:#000000;stroke-width:1.5;" width="206" x="577" y="308.1641"/><path d="M577,308.1641 L643,308.1641 L643,315.1641 L633,325.1641 L577,325.1641 L577,308.1641 " fill="#EEEEEE" style="stroke:#000000;stroke-width:2.0;"/><text fill="#000000" font-family="sans-serif" font-size="13" font-weight="bold" lengthAdjust="spacing" textLength="21" x="590" y="322.231">ref</text><text fill="#000000" font-family="sans-serif" font-size="12" lengthAdjust="spacing" textLength="100" x="630" y="340.3027">Get Team Name</text><polygon fill="#181818" points="902,369.3984,912,373.3984,902,377.3984,906,373.3984" style="stroke:#181818;stroke-width:1.0;"/><line style="stroke:#181818;stroke-width:1.0;" x1="685" x2="908" y1="373.3984" y2="373.3984"/><text fill="#000000" font-family="sans-serif" font-size="13" font-weight="bold" lengthAdjust="spacing" textLength="9" x="692" y="368.3325">3</text><text fill="#000000" font-family="sans-serif" font-size="13" lengthAdjust="spacing" textLength="197" x="705" y="368.3325">findTeamByName(teamName)</text><polygon fill="#181818" points="696,398.5313,686,402.5313,696,406.5313,692,402.5313" style="stroke:#181818;stroke-width:1.0;"/><line style="stroke:#181818;stroke-width:1.0;" x1="690" x2="918" y1="402.5313" y2="402.5313"/><text fill="#000000" font-family="sans-serif" font-size="13" font-weight="bold" lengthAdjust="spacing" textLength="9" x="702" y="397.4653">4</text><text fill="#000000" font-family="sans-serif" font-size="13" lengthAdjust="spacing" textLength="34" x="715" y="397.4653">team</text><rect fill="none" height="39.1016" style="stroke:#000000;stroke-width:1.5;" width="384" x="577" y="410.5313"/><path d="M577,410.5313 L643,410.5313 L643,417.5313 L633,427.5313 L577,427.5313 L577,410.5313 " fill="#EEEEEE" style="stroke:#000000;stroke-width:2.0;"/><text fill="#000000" font-family="sans-serif" font-size="13" font-weight="bold" lengthAdjust="spacing" textLength="21" x="590" y="424.5981">ref</text><text fill="#000000" font-family="sans-serif" font-size="12" lengthAdjust="spacing" textLength="376" x="581" y="442.6699">Assign Team to An Entry and Send Emails to Team Members</text><polygon fill="#181818" points="413,471.7656,403,475.7656,413,479.7656,409,475.7656" style="stroke:#181818;stroke-width:1.0;"/><line style="stroke:#181818;stroke-width:1.0;stroke-dasharray:2.0,2.0;" x1="407" x2="679" y1="475.7656" y2="475.7656"/><text fill="#000000" font-family="sans-serif" font-size="13" font-weight="bold" lengthAdjust="spacing" textLength="9" x="419" y="470.6997">5</text><text fill="#000000" font-family="sans-serif" font-size="13" lengthAdjust="spacing" textLength="26" x="432" y="470.6997">true</text><polygon fill="#181818" points="40,500.8984,30,504.8984,40,508.8984,36,504.8984" style="stroke:#181818;stroke-width:1.0;"/><line style="stroke:#181818;stroke-width:1.0;stroke-dasharray:2.0,2.0;" x1="34" x2="396" y1="504.8984" y2="504.8984"/><text fill="#000000" font-family="sans-serif" font-size="13" font-weight="bold" lengthAdjust="spacing" textLength="9" x="46" y="499.8325">6</text><text fill="#000000" font-family="sans-serif" font-size="13" lengthAdjust="spacing" textLength="238" x="59" y="499.8325">Displays Operation Success Message</text><!--SRC=[nLVDRzis5B_hhtZmfJNWha2F1ZR0ZRCWmD81SJAWm2wqz6opbKX1f9tvlz_Z8qLHbBAqf_bWYzJlVN_QV9Ug5PreeD5AbwTEDmYsEsDXufjMbD_54NVsMYDqM5gXZdKAC2THwHUfZd0GjS6Y46UhrRdPOqVFfTKTBEvs3miG1kYtA8ZCobAsGbbOhF-I-B95AsHjRfNjhi_tZ7o-__G6y4RJjwvhx9ZWvkdnZqz5yV4TZEcUK3IFs6eZIPFhUdnaolugrypTFuYs3GA6unYdzz-sLZEQVYEKdekC8pgr4rrknsScZNSviKSd-YJd6J5EfTlmCC2zKZDmZns06SQIGMnXD2y3b1G8iTUT84FMDyd1noQvc9ZLK4Hts5raYLv-Sf63DsrRor9OgTKEZQ4V9fbUPtHtkP3q8iDkKKvqokxWtKTERNaH5drI5nqUG5-mSqTOmnrQg7osWb0LD49H5JNaRD2jKzJyhK0VG831cgeAA-10W5PWJmW4LfKe2iVjms-k78ZfZg74a4F0V3Taxb4Pa1QiPifTpyy7CghfAgee72FYnzL270MJEsvFcl7lVJgleC-YvS0Xb9ZIzDp9uyaw0nnReCyZ6UTgddGG5gItektm8lNPKECuO8Ug9BKgAOxKDrPCbHJryxrhBoWllIj8E1oe9S66VK7lBr8mbJdf5v_FYOTVP5r3IKr1gZCwPvmDEhSG4UaY3JHeJxfQms9YzA8W0U3iUiKuOpjgS8xYYsXm1UIatitUov4-IGJlBfS872r7oJW2S9loCQ1Wz0s8ud54sqi9aLXcAdckKwK65MAyXiOM9GHflcsGFFp7TeJ_3tcHoG-B33sfI0G5iIwYQx2177uTcRiSSt6jgiB9rGpNuBgURKwLgjFxe4__rsWOvufyDaW7gIft_7nbnNicoxSyxta5iNCY9ydZgzld3_bketnHSxxldFUvAndtZZ4FN88cJRDeG9miisNlL4gBVh0bcKW3YvvVJ2IhjvfqKHjLRIBpjxZseKbPzPnzhiI-uPFbiJ-csH8dM-BHOThDyKxYoEVFru5nbBZyMHUW7vov5c6Op-anYWGxAnSQw58Ausl6UnchG3RWE14SZ99KStxyBcjyRyxxRzImLjG6ZQ7facLhKTHQjt2WROtqFq4wq5qtJy-62Lm_O5akirCqTp4MJ55og660ZFO0zsf4E2YFZfe1YJUdrBtuT3PFBMTcAvWwOAJRQErmRqO3duHCbup4qe3B3PvPJBpcCym-P8RqRaXrIhmnnvfbrtP41pBRTY1ySllknhAT5tqGW_yMFkDuXVcYhJm4wGjwzLMVuIGk27j45NAQnZYLi51Xhv7fNlFBOXdr6FQeEIqJYoVlaVvkJ6pDLhLNpSrNkl_3ujTqJOpE8TvmLUNfC0OvG2oEq3VuVrqsT8hODwODFOEdxQXlOra_dINfUtpQETC9F4Sp6Rzn0yxXOINbhTRbCE_UMsdQMbmD_4cIEMAmEvSbLGaDIAxzb8NRyVu5]--></g></svg>