<?xml version="1.0" encoding="us-ascii" standalone="no"?><svg xmlns="http://www.w3.org/2000/svg" xmlns:xlink="http://www.w3.org/1999/xlink" contentStyleType="text/css" height="1161px" preserveAspectRatio="none" style="width:1999px;height:1161px;background:#FFFFFF;" version="1.1" viewBox="0 0 1999 1161" width="1999px" zoomAndPan="magnify"><defs/><g><line style="stroke:#181818;stroke-width:0.5;stroke-dasharray:5.0,5.0;" x1="24" x2="24" y1="81.2969" y2="1080.5"/><rect fill="#FFFFFF" height="991.2031" style="stroke:#181818;stroke-width:1.0;" width="10" x="19" y="89.2969"/><line style="stroke:#181818;stroke-width:0.5;stroke-dasharray:5.0,5.0;" x1="350" x2="350" y1="81.2969" y2="1080.5"/><rect fill="#FFFFFF" height="42.1328" style="stroke:#181818;stroke-width:1.0;" width="10" x="345" y="168.5"/><line style="stroke:#181818;stroke-width:0.5;stroke-dasharray:5.0,5.0;" x1="515.5" x2="515.5" y1="81.2969" y2="1080.5"/><rect fill="#FFFFFF" height="131.5" style="stroke:#181818;stroke-width:1.0;" width="10" x="510.5" y="197.6328"/><rect fill="#FFFFFF" height="704.2344" style="stroke:#181818;stroke-width:1.0;" width="10" x="510.5" y="358.2656"/><line style="stroke:#181818;stroke-width:0.5;stroke-dasharray:5.0,5.0;" x1="813.5" x2="813.5" y1="81.2969" y2="1080.5"/><rect fill="#FFFFFF" height="73.2344" style="stroke:#181818;stroke-width:1.0;" width="10" x="808.5" y="226.7656"/><rect fill="#FFFFFF" height="631.9688" style="stroke:#181818;stroke-width:1.0;" width="10" x="808.5" y="387.3984"/><line style="stroke:#181818;stroke-width:0.5;stroke-dasharray:5.0,5.0;" x1="1058.5" x2="1058.5" y1="81.2969" y2="1080.5"/><rect fill="#FFFFFF" height="369.4609" style="stroke:#181818;stroke-width:1.0;" width="10" x="1053.5" y="487.7969"/><line style="stroke:#181818;stroke-width:0.5;stroke-dasharray:5.0,5.0;" x1="1362.5" x2="1362.5" y1="81.2969" y2="1080.5"/><rect fill="#FFFFFF" height="268.0625" style="stroke:#181818;stroke-width:1.0;" width="10" x="1357.5" y="559.0625"/><rect fill="#FFFFFF" height="73.2656" style="stroke:#181818;stroke-width:1.0;" width="10" x="1362.5" y="739.8594"/><line style="stroke:#181818;stroke-width:0.5;stroke-dasharray:5.0,5.0;" x1="1727.5" x2="1727.5" y1="81.2969" y2="1080.5"/><rect fill="#FFFFFF" height="55.1328" style="stroke:#181818;stroke-width:1.0;" width="10" x="1722.5" y="416.5313"/><line style="stroke:#181818;stroke-width:0.5;stroke-dasharray:5.0,5.0;" x1="1927.5" x2="1927.5" y1="81.2969" y2="1080.5"/><rect fill="#FFFFFF" height="13" style="stroke:#181818;stroke-width:1.0;" width="10" x="1922.5" y="800.125"/><text fill="#000000" font-family="sans-serif" font-size="14" lengthAdjust="spacing" textLength="32" x="5" y="77.9951">GSM</text><ellipse cx="24" cy="13.5" fill="#E3E3E3" rx="8" ry="8" style="stroke:#181818;stroke-width:0.5;"/><path d="M24,21.5 L24,48.5 M11,29.5 L37,29.5 M24,48.5 L11,63.5 M24,48.5 L37,63.5 " fill="none" style="stroke:#181818;stroke-width:0.5;"/><rect fill="#E3E3E3" height="30.2969" rx="2.5" ry="2.5" style="stroke:#181818;stroke-width:0.5;" width="199" x="250.5" y="50"/><text fill="#000000" font-family="sans-serif" font-size="14" lengthAdjust="spacing" textLength="185" x="257.5" y="69.9951">:ViewDetailsEntryAgendaUI</text><rect fill="#E3E3E3" height="30.2969" rx="2.5" ry="2.5" style="stroke:#181818;stroke-width:0.5;" width="112" x="459.5" y="50"/><text fill="#000000" font-family="sans-serif" font-size="14" lengthAdjust="spacing" textLength="98" x="466.5" y="69.9951">AssignTeamUI</text><rect fill="#E3E3E3" height="30.2969" rx="2.5" ry="2.5" style="stroke:#181818;stroke-width:0.5;" width="200" x="713.5" y="50"/><text fill="#000000" font-family="sans-serif" font-size="14" lengthAdjust="spacing" textLength="186" x="720.5" y="69.9951">:ViewDetailsEntryController</text><rect fill="#E3E3E3" height="30.2969" rx="2.5" ry="2.5" style="stroke:#181818;stroke-width:0.5;" width="237" x="940" y="50"/><text fill="#000000" font-family="sans-serif" font-size="14" lengthAdjust="spacing" textLength="223" x="947" y="69.9951">entryRepository:EntryRepository</text><rect fill="#E3E3E3" height="30.2969" rx="2.5" ry="2.5" style="stroke:#181818;stroke-width:0.5;" width="106" x="1309.5" y="50"/><text fill="#000000" font-family="sans-serif" font-size="14" lengthAdjust="spacing" textLength="92" x="1316.5" y="69.9951">:EntryMapper</text><rect fill="#E3E3E3" height="30.2969" rx="2.5" ry="2.5" style="stroke:#181818;stroke-width:0.5;" width="139" x="1658" y="50"/><text fill="#000000" font-family="sans-serif" font-size="14" lengthAdjust="spacing" textLength="125" x="1665" y="69.9951">entryDto:EntryDto</text><rect fill="#E3E3E3" height="30.2969" rx="2.5" ry="2.5" style="stroke:#181818;stroke-width:0.5;" width="49" x="1903" y="50"/><text fill="#000000" font-family="sans-serif" font-size="14" lengthAdjust="spacing" textLength="35" x="1910" y="69.9951">Entry</text><text fill="#000000" font-family="sans-serif" font-size="14" lengthAdjust="spacing" textLength="32" x="5" y="1153.4951">GSM</text><ellipse cx="24" cy="1089" fill="#E3E3E3" rx="8" ry="8" style="stroke:#181818;stroke-width:0.5;"/><path d="M24,1097 L24,1124 M11,1105 L37,1105 M24,1124 L11,1139 M24,1124 L37,1139 " fill="none" style="stroke:#181818;stroke-width:0.5;"/><rect fill="#E3E3E3" height="30.2969" rx="2.5" ry="2.5" style="stroke:#181818;stroke-width:0.5;" width="199" x="250.5" y="1080.5"/><text fill="#000000" font-family="sans-serif" font-size="14" lengthAdjust="spacing" textLength="185" x="257.5" y="1100.4951">:ViewDetailsEntryAgendaUI</text><rect fill="#E3E3E3" height="30.2969" rx="2.5" ry="2.5" style="stroke:#181818;stroke-width:0.5;" width="112" x="459.5" y="1080.5"/><text fill="#000000" font-family="sans-serif" font-size="14" lengthAdjust="spacing" textLength="98" x="466.5" y="1100.4951">AssignTeamUI</text><rect fill="#E3E3E3" height="30.2969" rx="2.5" ry="2.5" style="stroke:#181818;stroke-width:0.5;" width="200" x="713.5" y="1080.5"/><text fill="#000000" font-family="sans-serif" font-size="14" lengthAdjust="spacing" textLength="186" x="720.5" y="1100.4951">:ViewDetailsEntryController</text><rect fill="#E3E3E3" height="30.2969" rx="2.5" ry="2.5" style="stroke:#181818;stroke-width:0.5;" width="237" x="940" y="1080.5"/><text fill="#000000" font-family="sans-serif" font-size="14" lengthAdjust="spacing" textLength="223" x="947" y="1100.4951">entryRepository:EntryRepository</text><rect fill="#E3E3E3" height="30.2969" rx="2.5" ry="2.5" style="stroke:#181818;stroke-width:0.5;" width="106" x="1309.5" y="1080.5"/><text fill="#000000" font-family="sans-serif" font-size="14" lengthAdjust="spacing" textLength="92" x="1316.5" y="1100.4951">:EntryMapper</text><rect fill="#E3E3E3" height="30.2969" rx="2.5" ry="2.5" style="stroke:#181818;stroke-width:0.5;" width="139" x="1658" y="1080.5"/><text fill="#000000" font-family="sans-serif" font-size="14" lengthAdjust="spacing" textLength="125" x="1665" y="1100.4951">entryDto:EntryDto</text><rect fill="#E3E3E3" height="30.2969" rx="2.5" ry="2.5" style="stroke:#181818;stroke-width:0.5;" width="49" x="1903" y="1080.5"/><text fill="#000000" font-family="sans-serif" font-size="14" lengthAdjust="spacing" textLength="35" x="1910" y="1100.4951">Entry</text><rect fill="none" height="53.0703" style="stroke:#000000;stroke-width:1.5;" width="242" x="7" y="89.2969"/><path d="M7,89.2969 L73,89.2969 L73,96.2969 L63,106.2969 L7,106.2969 L7,89.2969 " fill="#EEEEEE" style="stroke:#000000;stroke-width:2.0;"/><text fill="#000000" font-family="sans-serif" font-size="13" font-weight="bold" lengthAdjust="spacing" textLength="21" x="20" y="103.3638">ref</text><text fill="#000000" font-family="sans-serif" font-size="12" lengthAdjust="spacing" textLength="234" x="11" y="121.4355">Get details and management options</text><text fill="#000000" font-family="sans-serif" font-size="12" lengthAdjust="spacing" textLength="215" x="22.5" y="135.4043">of a selected entry on the agenda</text><polygon fill="#181818" points="333,164.5,343,168.5,333,172.5,337,168.5" style="stroke:#181818;stroke-width:1.0;"/><line style="stroke:#181818;stroke-width:1.0;" x1="29" x2="339" y1="168.5" y2="168.5"/><text fill="#000000" font-family="sans-serif" font-size="13" font-weight="bold" lengthAdjust="spacing" textLength="9" x="36" y="163.4341">1</text><text fill="#000000" font-family="sans-serif" font-size="13" lengthAdjust="spacing" textLength="284" x="49" y="163.4341">Asks to Assign a Team to the Selected Entry</text><polygon fill="#181818" points="498.5,193.6328,508.5,197.6328,498.5,201.6328,502.5,197.6328" style="stroke:#181818;stroke-width:1.0;"/><line style="stroke:#181818;stroke-width:1.0;" x1="355" x2="504.5" y1="197.6328" y2="197.6328"/><text fill="#000000" font-family="sans-serif" font-size="13" font-weight="bold" lengthAdjust="spacing" textLength="9" x="362" y="192.5669">2</text><text fill="#000000" font-family="sans-serif" font-size="13" lengthAdjust="spacing" textLength="119" x="375" y="192.5669">setEntry(entryDto)</text><polygon fill="#181818" points="796.5,222.7656,806.5,226.7656,796.5,230.7656,800.5,226.7656" style="stroke:#181818;stroke-width:1.0;"/><line style="stroke:#181818;stroke-width:1.0;" x1="520.5" x2="802.5" y1="226.7656" y2="226.7656"/><text fill="#000000" font-family="sans-serif" font-size="13" font-weight="bold" lengthAdjust="spacing" textLength="9" x="527.5" y="221.6997">3</text><text fill="#000000" font-family="sans-serif" font-size="13" lengthAdjust="spacing" textLength="250" x="540.5" y="221.6997">getTeamListPossibleForEntry(entryDto)</text><rect fill="none" height="39.1016" style="stroke:#000000;stroke-width:1.5;" width="286" x="715.5" y="234.7656"/><path d="M715.5,234.7656 L781.5,234.7656 L781.5,241.7656 L771.5,251.7656 L715.5,251.7656 L715.5,234.7656 " fill="#EEEEEE" style="stroke:#000000;stroke-width:2.0;"/><text fill="#000000" font-family="sans-serif" font-size="13" font-weight="bold" lengthAdjust="spacing" textLength="21" x="728.5" y="248.8325">ref</text><text fill="#000000" font-family="sans-serif" font-size="12" lengthAdjust="spacing" textLength="278" x="719.5" y="266.9043">Get Team List Possible For Entry Assignment</text><polygon fill="#181818" points="531.5,296,521.5,300,531.5,304,527.5,300" style="stroke:#181818;stroke-width:1.0;"/><line style="stroke:#181818;stroke-width:1.0;" x1="525.5" x2="807.5" y1="300" y2="300"/><text fill="#000000" font-family="sans-serif" font-size="13" font-weight="bold" lengthAdjust="spacing" textLength="9" x="537.5" y="294.9341">4</text><text fill="#000000" font-family="sans-serif" font-size="13" lengthAdjust="spacing" textLength="131" x="550.5" y="294.9341">teamListDtoPossible</text><polygon fill="#181818" points="40,325.1328,30,329.1328,40,333.1328,36,329.1328" style="stroke:#181818;stroke-width:1.0;"/><line style="stroke:#181818;stroke-width:1.0;" x1="34" x2="509.5" y1="329.1328" y2="329.1328"/><text fill="#000000" font-family="sans-serif" font-size="13" font-weight="bold" lengthAdjust="spacing" textLength="9" x="46" y="324.0669">5</text><text fill="#000000" font-family="sans-serif" font-size="13" lengthAdjust="spacing" textLength="308" x="59" y="324.0669">Shows possible Teams for Entry Assignment List</text><polygon fill="#181818" points="498.5,354.2656,508.5,358.2656,498.5,362.2656,502.5,358.2656" style="stroke:#181818;stroke-width:1.0;"/><line style="stroke:#181818;stroke-width:1.0;" x1="29" x2="504.5" y1="358.2656" y2="358.2656"/><text fill="#000000" font-family="sans-serif" font-size="13" font-weight="bold" lengthAdjust="spacing" textLength="9" x="36" y="353.1997">6</text><text fill="#000000" font-family="sans-serif" font-size="13" lengthAdjust="spacing" textLength="327" x="49" y="353.1997">Selects a team and Assigns it to the selected entry</text><polygon fill="#181818" points="796.5,383.3984,806.5,387.3984,796.5,391.3984,800.5,387.3984" style="stroke:#181818;stroke-width:1.0;"/><line style="stroke:#181818;stroke-width:1.0;" x1="520.5" x2="802.5" y1="387.3984" y2="387.3984"/><text fill="#000000" font-family="sans-serif" font-size="13" font-weight="bold" lengthAdjust="spacing" textLength="9" x="527.5" y="382.3325">7</text><text fill="#000000" font-family="sans-serif" font-size="13" lengthAdjust="spacing" textLength="256" x="540.5" y="382.3325">assignTeamToEntry(teamDto, entryDto)</text><polygon fill="#181818" points="1710.5,412.5313,1720.5,416.5313,1710.5,420.5313,1714.5,416.5313" style="stroke:#181818;stroke-width:1.0;"/><line style="stroke:#181818;stroke-width:1.0;" x1="818.5" x2="1716.5" y1="416.5313" y2="416.5313"/><text fill="#000000" font-family="sans-serif" font-size="13" font-weight="bold" lengthAdjust="spacing" textLength="9" x="825.5" y="411.4653">8</text><text fill="#000000" font-family="sans-serif" font-size="13" lengthAdjust="spacing" textLength="144" x="838.5" y="411.4653">assignTeam(teamDto)</text><line style="stroke:#181818;stroke-width:1.0;" x1="1732.5" x2="1774.5" y1="445.6641" y2="445.6641"/><line style="stroke:#181818;stroke-width:1.0;" x1="1774.5" x2="1774.5" y1="445.6641" y2="458.6641"/><line style="stroke:#181818;stroke-width:1.0;" x1="1733.5" x2="1774.5" y1="458.6641" y2="458.6641"/><polygon fill="#181818" points="1743.5,454.6641,1733.5,458.6641,1743.5,462.6641,1739.5,458.6641" style="stroke:#181818;stroke-width:1.0;"/><text fill="#000000" font-family="sans-serif" font-size="13" font-weight="bold" lengthAdjust="spacing" textLength="9" x="1739.5" y="440.5981">9</text><text fill="#000000" font-family="sans-serif" font-size="13" lengthAdjust="spacing" textLength="168" x="1752.5" y="440.5981">teamAssigned = teamDto</text><polygon fill="#181818" points="1041.5,483.7969,1051.5,487.7969,1041.5,491.7969,1045.5,487.7969" style="stroke:#181818;stroke-width:1.0;"/><line style="stroke:#181818;stroke-width:1.0;" x1="818.5" x2="1047.5" y1="487.7969" y2="487.7969"/><text fill="#000000" font-family="sans-serif" font-size="13" font-weight="bold" lengthAdjust="spacing" textLength="18" x="825.5" y="482.731">10</text><text fill="#000000" font-family="sans-serif" font-size="13" lengthAdjust="spacing" textLength="194" x="847.5" y="482.731">assignTeamOnEntry(entryDto)</text><line style="stroke:#181818;stroke-width:1.0;" x1="1063.5" x2="1105.5" y1="516.9297" y2="516.9297"/><line style="stroke:#181818;stroke-width:1.0;" x1="1105.5" x2="1105.5" y1="516.9297" y2="529.9297"/><line style="stroke:#181818;stroke-width:1.0;" x1="1064.5" x2="1105.5" y1="529.9297" y2="529.9297"/><polygon fill="#181818" points="1074.5,525.9297,1064.5,529.9297,1074.5,533.9297,1070.5,529.9297" style="stroke:#181818;stroke-width:1.0;"/><text fill="#000000" font-family="sans-serif" font-size="13" font-weight="bold" lengthAdjust="spacing" textLength="18" x="1070.5" y="511.8638">11</text><text fill="#000000" font-family="sans-serif" font-size="13" lengthAdjust="spacing" textLength="263" x="1092.5" y="511.8638">entry = searchForEntryAgenda(entryDto)</text><polygon fill="#181818" points="1345.5,555.0625,1355.5,559.0625,1345.5,563.0625,1349.5,559.0625" style="stroke:#181818;stroke-width:1.0;"/><line style="stroke:#181818;stroke-width:1.0;" x1="1063.5" x2="1351.5" y1="559.0625" y2="559.0625"/><text fill="#000000" font-family="sans-serif" font-size="13" font-weight="bold" lengthAdjust="spacing" textLength="18" x="1070.5" y="553.9966">12</text><text fill="#000000" font-family="sans-serif" font-size="13" lengthAdjust="spacing" textLength="211" x="1092.5" y="553.9966">entryDtoToEntry(entryDto, entry)</text><line style="stroke:#181818;stroke-width:1.0;" x1="1367.5" x2="1409.5" y1="603.3281" y2="603.3281"/><line style="stroke:#181818;stroke-width:1.0;" x1="1409.5" x2="1409.5" y1="603.3281" y2="616.3281"/><line style="stroke:#181818;stroke-width:1.0;" x1="1368.5" x2="1409.5" y1="616.3281" y2="616.3281"/><polygon fill="#181818" points="1378.5,612.3281,1368.5,616.3281,1378.5,620.3281,1374.5,616.3281" style="stroke:#181818;stroke-width:1.0;"/><text fill="#000000" font-family="sans-serif" font-size="13" font-weight="bold" lengthAdjust="spacing" textLength="18" x="1374.5" y="590.6958">13</text><text fill="#000000" font-family="sans-serif" font-size="13" lengthAdjust="spacing" textLength="193" x="1396.5" y="583.1294">shouldUpdateTeamOrVehicles</text><text fill="#000000" font-family="sans-serif" font-size="13" lengthAdjust="spacing" textLength="315" x="1400.5" y="598.2622">= shouldUpdateTeamOrVehicles(entry, entryDto)</text><path d="M1372.5,629.3281 L1372.5,669.3281 L1941.5,669.3281 L1941.5,639.3281 L1931.5,629.3281 L1372.5,629.3281 " fill="#FAFAFA" style="stroke:#181818;stroke-width:0.5;"/><path d="M1931.5,629.3281 L1931.5,639.3281 L1941.5,639.3281 L1931.5,629.3281 " fill="#FAFAFA" style="stroke:#181818;stroke-width:0.5;"/><text fill="#000000" font-family="sans-serif" font-size="13" lengthAdjust="spacing" textLength="548" x="1378.5" y="646.395">"shouldUpdateTeamOrVehicles" verifies if the team or vehicles in the entry need to be</text><text fill="#000000" font-family="sans-serif" font-size="13" lengthAdjust="spacing" textLength="278" x="1378.5" y="661.5278">updated based on the changes in entryDto.</text><path d="M1274.5,678.5938 L1338.5,678.5938 L1338.5,685.7266 L1328.5,695.7266 L1274.5,695.7266 L1274.5,678.5938 " fill="#EEEEEE" style="stroke:#000000;stroke-width:1.5;"/><rect fill="none" height="143.5313" style="stroke:#000000;stroke-width:1.5;" width="718.5" x="1274.5" y="678.5938"/><text fill="#000000" font-family="sans-serif" font-size="13" font-weight="bold" lengthAdjust="spacing" textLength="19" x="1289.5" y="691.6606">alt</text><text fill="#000000" font-family="sans-serif" font-size="11" font-weight="bold" lengthAdjust="spacing" textLength="248" x="1353.5" y="690.8042">[shouldUpdateTeamOrVehicles is true]</text><line style="stroke:#181818;stroke-width:1.0;" x1="1367.5" x2="1414.5" y1="726.8594" y2="726.8594"/><line style="stroke:#181818;stroke-width:1.0;" x1="1414.5" x2="1414.5" y1="726.8594" y2="739.8594"/><line style="stroke:#181818;stroke-width:1.0;" x1="1373.5" x2="1414.5" y1="739.8594" y2="739.8594"/><polygon fill="#181818" points="1383.5,735.8594,1373.5,739.8594,1383.5,743.8594,1379.5,739.8594" style="stroke:#181818;stroke-width:1.0;"/><text fill="#000000" font-family="sans-serif" font-size="13" font-weight="bold" lengthAdjust="spacing" textLength="18" x="1379.5" y="721.7935">14</text><text fill="#000000" font-family="sans-serif" font-size="13" lengthAdjust="spacing" textLength="266" x="1401.5" y="721.7935">updateTeamAndVehicles(entry, entryDto)</text><path d="M1293.5,751.8594 L1357.5,751.8594 L1357.5,758.9922 L1347.5,768.9922 L1293.5,768.9922 L1293.5,751.8594 " fill="#EEEEEE" style="stroke:#000000;stroke-width:1.5;"/><rect fill="none" height="56.2656" style="stroke:#000000;stroke-width:1.5;" width="674.5" x="1293.5" y="751.8594"/><text fill="#000000" font-family="sans-serif" font-size="13" font-weight="bold" lengthAdjust="spacing" textLength="19" x="1308.5" y="764.9263">alt</text><text fill="#000000" font-family="sans-serif" font-size="11" font-weight="bold" lengthAdjust="spacing" textLength="243" x="1372.5" y="764.0698">[teamAssigned in entryDto is not null]</text><polygon fill="#181818" points="1910.5,796.125,1920.5,800.125,1910.5,804.125,1914.5,800.125" style="stroke:#181818;stroke-width:1.0;"/><line style="stroke:#181818;stroke-width:1.0;" x1="1372.5" x2="1916.5" y1="800.125" y2="800.125"/><text fill="#000000" font-family="sans-serif" font-size="13" font-weight="bold" lengthAdjust="spacing" textLength="18" x="1379.5" y="795.0591">15</text><text fill="#000000" font-family="sans-serif" font-size="13" lengthAdjust="spacing" textLength="236" x="1401.5" y="795.0591">teamAssigned = getTeamAssigned()</text><polygon fill="#181818" points="829.5,853.2578,819.5,857.2578,829.5,861.2578,825.5,857.2578" style="stroke:#181818;stroke-width:1.0;"/><line style="stroke:#181818;stroke-width:1.0;" x1="823.5" x2="1052.5" y1="857.2578" y2="857.2578"/><text fill="#000000" font-family="sans-serif" font-size="13" font-weight="bold" lengthAdjust="spacing" textLength="18" x="835.5" y="852.1919">16</text><text fill="#000000" font-family="sans-serif" font-size="13" lengthAdjust="spacing" textLength="108" x="857.5" y="852.1919">Optional&lt;Entry&gt;</text><path d="M499.5,869.2578 L563.5,869.2578 L563.5,876.3906 L553.5,886.3906 L499.5,886.3906 L499.5,869.2578 " fill="#EEEEEE" style="stroke:#000000;stroke-width:1.5;"/><rect fill="none" height="158.1094" style="stroke:#000000;stroke-width:1.5;" width="445" x="499.5" y="869.2578"/><text fill="#000000" font-family="sans-serif" font-size="13" font-weight="bold" lengthAdjust="spacing" textLength="19" x="514.5" y="882.3247">alt</text><text fill="#000000" font-family="sans-serif" font-size="11" font-weight="bold" lengthAdjust="spacing" textLength="203" x="578.5" y="881.4683">[Optional&lt;Entry&gt; is present, i.e</text><text fill="#000000" font-family="sans-serif" font-size="11" font-weight="bold" lengthAdjust="spacing" textLength="213" x="582.5" y="894.2729">Entry was successfully assigned]</text><line style="stroke:#000000;stroke-width:1.0;stroke-dasharray:2.0,2.0;" x1="499.5" x2="944.5" y1="991.2344" y2="991.2344"/><rect fill="none" height="39.1016" style="stroke:#000000;stroke-width:1.5;" width="211" x="715.5" y="907"/><path d="M715.5,907 L781.5,907 L781.5,914 L771.5,924 L715.5,924 L715.5,907 " fill="#EEEEEE" style="stroke:#000000;stroke-width:2.0;"/><text fill="#000000" font-family="sans-serif" font-size="13" font-weight="bold" lengthAdjust="spacing" textLength="21" x="728.5" y="921.0669">ref</text><text fill="#000000" font-family="sans-serif" font-size="12" lengthAdjust="spacing" textLength="203" x="719.5" y="939.1387">Send Email to All Team Members</text><polygon fill="#181818" points="531.5,968.2344,521.5,972.2344,531.5,976.2344,527.5,972.2344" style="stroke:#181818;stroke-width:1.0;"/><line style="stroke:#181818;stroke-width:1.0;" x1="525.5" x2="807.5" y1="972.2344" y2="972.2344"/><text fill="#000000" font-family="sans-serif" font-size="13" font-weight="bold" lengthAdjust="spacing" textLength="18" x="537.5" y="967.1685">17</text><text fill="#000000" font-family="sans-serif" font-size="13" lengthAdjust="spacing" textLength="26" x="559.5" y="967.1685">true</text><polygon fill="#181818" points="531.5,1015.3672,521.5,1019.3672,531.5,1023.3672,527.5,1019.3672" style="stroke:#181818;stroke-width:1.0;"/><line style="stroke:#181818;stroke-width:1.0;" x1="525.5" x2="807.5" y1="1019.3672" y2="1019.3672"/><text fill="#000000" font-family="sans-serif" font-size="13" font-weight="bold" lengthAdjust="spacing" textLength="18" x="537.5" y="1014.3013">18</text><text fill="#000000" font-family="sans-serif" font-size="13" lengthAdjust="spacing" textLength="30" x="559.5" y="1014.3013">false</text><polygon fill="#181818" points="40,1058.5,30,1062.5,40,1066.5,36,1062.5" style="stroke:#181818;stroke-width:1.0;"/><line style="stroke:#181818;stroke-width:1.0;stroke-dasharray:2.0,2.0;" x1="34" x2="509.5" y1="1062.5" y2="1062.5"/><text fill="#000000" font-family="sans-serif" font-size="13" font-weight="bold" lengthAdjust="spacing" textLength="18" x="46" y="1057.4341">19</text><text fill="#000000" font-family="sans-serif" font-size="13" lengthAdjust="spacing" textLength="238" x="68" y="1057.4341">Displays Operation Success Message</text><!--SRC=[jLXHRziu37xth-3rPUcksmvzDBe2mTeD1RRRiAHxsejYAubkYcLOIdizzCUFb2nPakrsEDpr8RLayjD7YY8f_zPsR7TWOBZw1qntv8N-8PgMTUm01zMeQj-f0y_VjApwmNPyPHuaXuvNXZKx6GleFQlLlMXsi6LIyw9WHwEQus73EtokZEhWvCFgqmam3KiQ5WKg6b69bZK6JiflWjzVSSE4rDUDwHwMEzxKxFR6QjpUfD9BhSMkMNDs20BdHV4Sv3k5lqfAtbcTT-kl7y-BDoyWLVlAMwK5CXHSMpaxaSfqaSptfXofsFTs5bwyILKvCGaA3-LrEhRgOMxCpg3DaVOw6LfbFvNgCUlEZqARSXaUtMw4OUO-0lh4shPtrp0SsUICY6IZSJ5j0wttNaZ3ErwN4WSNX7yPLXhpyLfNHfKVlG8EKXsSIDNKvY_Iw8M3B3vFRmq9N_SFWoq4ExAZl3vWRAruToSgxcIZYGbi1poWfY8LXYRRg8xXLfRlee6BrcWYrTDuNkE5IrXbCzyRSMWbFo093HSNAznm-_hwR_H_m-JooysbSsEkcHsfPTjAKJ4ZLBFYU0PLuxJSSnPn8zboHdqyNT3UODOGTynmdoywlWLrX-5dnr321swWTkSRM5F3WJKOvcGbg9RGy6o2sW83pINcB5w3tGPG3PWz1tScC6qum5UNc4OGTgb_QC3mS4a6jIbUQ89qLXx9RM3WY1cgG6sBSGwbviOAB7nCdSQYvqNDCyrpKhKP2SeTDpwSloWaiP7ylUfcyLmUAm3_WelS7FH_v2Xh1462nmG4TMRqffBdh0wwXQ3iCqKz_NVSaAHDDoKWoPj6Onse-EBKIWH2Bc7QEPS3NtdRIeWpfvM8F17fXTM6J6gNpB9bll8WxVqHyd348Kl1EOqSP8vBcdl_7PKqdJ_59B08Bh0aNFPUHE4m58yYFCAmub08uY2CbC92tZx7qeREMs-tZbSC5IS237CHu51fIjZQt4zIVogpxBLkchKuy8LVxcmYsADgLGpFqU41oCjBJ2jMJmnrnMemTQtwAa63HGwP6UyhNH7Lo1wthqalNoApgkEeWPuhf58jRF7u8RCzO8d2d0AY2Hg1EWN4D2ZYePxRaJpsGW7DuYcP7yDw7xYIYT16uVy53YVmlStJK9d92B6KScawiJaQha-dYFM0ynOJ9upVkbuuWZD6KwcUiPjUuVxd- -GZ9-emYaboL9M6iA6adMhvp1fhzzavv7XVl5PxTQ-XzRdO7YeR4db6XloisbutAbb4tPKbB8EMZgs63a63CBvsfLKmBKXP2SAox3lijNALnxXjFOFv4fJcg7w_0f17o7CLkJiefCgauUn0rc-X1oWU7_zuV1obBtepbISJ4f-Rl8uMpwVE6Cfr46_HcQohzhukzsbuG1thzo5K1lzvn_fnxzdSFVsvY35Io18lN-eewzksHYLhPFUDxqKbwN92L6TVkxNZBMqKrHsnsnlgd682jfCucSSw0Mmyn1RhEeYjZJSRYXYbTxq4PJYQToviEEufxlA6E-YZnQnXmpJ-zYrQjSUBfjFq75_J4GRYMJ1fdZ0EX7RNM4AVTn_ko35eBvjwtZT9kackEFODaadYDU9CL90nD4SfGrSsHMaSytt1zJDzgXzJ2TFviPXz4UshJOfFoDZtK_q4ylriMsqcB-pRovckWhoJIP9JsevhTD8PYDTuI-bzS8zt0dsiAhmBRD5X3_tnTULmfiMbEusxVjdMNKhNy7xYz0L2vrqjDhMGb7-NRgB6Uwga-ihY5I8dn7StFLTwlNxQLSRNBKJI_dAsTgt727a-8kDx6xr9kumOY69pch8Dp9WH6Hbhbc1R0-h5IMnn2kE0JEwg4-6Nl9zTrXy8VNJzaJiBmaW-kUWpf-3PPMgkgqxO47LBNGqJ_yk2pntq_tB9DCOsggOI5blyUqhdbw4eNB6GqIGshTYxOndhD-pChaC5TWwhl-t3r6qoiTj_5eYEkzDyDMR49hucZ1qsGaovKQCsmd4yOy6dE4zyrGX24zWJbkGVTgRiU6gLaKcZppjnlfdQkl56_0AbNv59lp65z8pzzJX1kWxNLd9EdvOdNhflpdcMiGMYBrsslOtQxokXMyaUD1ObtbdtmSgL7AmPMkCjEMkvVm80]--></g></svg>