<?xml version="1.0" encoding="us-ascii" standalone="no"?><svg xmlns="http://www.w3.org/2000/svg" xmlns:xlink="http://www.w3.org/1999/xlink" contentStyleType="text/css" height="1394px" preserveAspectRatio="none" style="width:3493px;height:1394px;background:#FFFFFF;" version="1.1" viewBox="0 0 3493 1394" width="3493px" zoomAndPan="magnify"><defs/><g><!--cluster UI--><g id="cluster_UI"><path d="M8.5,472 L24.5,472 A3.75,3.75 0 0 1 27,474.5 L34,494.2969 L565.5,494.2969 A2.5,2.5 0 0 1 568,496.7969 L568,584.5 A2.5,2.5 0 0 1 565.5,587 L8.5,587 A2.5,2.5 0 0 1 6,584.5 L6,474.5 A2.5,2.5 0 0 1 8.5,472 " fill="#F0F0F0" style="stroke:#000000;stroke-width:1.5;"/><line style="stroke:#000000;stroke-width:1.5;" x1="6" x2="34" y1="494.2969" y2="494.2969"/><text fill="#000000" font-family="sans-serif" font-size="14" font-weight="bold" lengthAdjust="spacing" textLength="15" x="10" y="486.9951">UI</text></g><!--cluster Core--><g id="cluster_Core"><path d="M603.5,6 L642.5,6 A3.75,3.75 0 0 1 645,8.5 L652,28.2969 L3483.5,28.2969 A2.5,2.5 0 0 1 3486,30.7969 L3486,1336.5 A2.5,2.5 0 0 1 3483.5,1339 L603.5,1339 A2.5,2.5 0 0 1 601,1336.5 L601,8.5 A2.5,2.5 0 0 1 603.5,6 " fill="#F0F0F0" style="stroke:#000000;stroke-width:1.5;"/><line style="stroke:#000000;stroke-width:1.5;" x1="601" x2="652" y1="28.2969" y2="28.2969"/><text fill="#000000" font-family="sans-serif" font-size="14" font-weight="bold" lengthAdjust="spacing" textLength="38" x="605" y="20.9951">Core</text></g><!--cluster Adapters--><g id="cluster_Adapters"><path d="M1975.5,1055 L2048.5,1055 A3.75,3.75 0 0 1 2051,1057.5 L2058,1077.2969 L3083,1077.2969 A2.5,2.5 0 0 1 3085.5,1079.7969 L3085.5,1299.5 A2.5,2.5 0 0 1 3083,1302 L1975.5,1302 A2.5,2.5 0 0 1 1973,1299.5 L1973,1057.5 A2.5,2.5 0 0 1 1975.5,1055 " fill="#DDDDDD" style="stroke:#000000;stroke-width:1.5;"/><line style="stroke:#000000;stroke-width:1.5;" x1="1973" x2="2058" y1="1077.2969" y2="1077.2969"/><text fill="#000000" font-family="sans-serif" font-size="14" font-weight="bold" lengthAdjust="spacing" textLength="72" x="1977" y="1069.9951">Adapters</text></g><!--cluster Session--><g id="cluster_Session"><path d="M2705.5,884 L2768.5,884 A3.75,3.75 0 0 1 2771,886.5 L2778,906.2969 L3029.5,906.2969 A2.5,2.5 0 0 1 3032,908.7969 L3032,1028.5 A2.5,2.5 0 0 1 3029.5,1031 L2705.5,1031 A2.5,2.5 0 0 1 2703,1028.5 L2703,886.5 A2.5,2.5 0 0 1 2705.5,884 " fill="#DDDDDD" style="stroke:#000000;stroke-width:1.5;"/><line style="stroke:#000000;stroke-width:1.5;" x1="2703" x2="2778" y1="906.2969" y2="906.2969"/><text fill="#000000" font-family="sans-serif" font-size="14" font-weight="bold" lengthAdjust="spacing" textLength="62" x="2707" y="898.9951">Session</text></g><!--cluster Controller--><g id="cluster_Controller"><path d="M627.5,463 L707.5,463 A3.75,3.75 0 0 1 710,465.5 L717,485.2969 L1137.5,485.2969 A2.5,2.5 0 0 1 1140,487.7969 L1140,593.5 A2.5,2.5 0 0 1 1137.5,596 L627.5,596 A2.5,2.5 0 0 1 625,593.5 L625,465.5 A2.5,2.5 0 0 1 627.5,463 " fill="#DDDDDD" style="stroke:#000000;stroke-width:1.5;"/><line style="stroke:#000000;stroke-width:1.5;" x1="625" x2="717" y1="485.2969" y2="485.2969"/><text fill="#000000" font-family="sans-serif" font-size="14" font-weight="bold" lengthAdjust="spacing" textLength="79" x="629" y="477.9951">Controller</text></g><!--cluster Mapper--><g id="cluster_Mapper"><path d="M2591.5,59 L2651.5,59 A3.75,3.75 0 0 1 2654,61.5 L2661,81.2969 L3143.5,81.2969 A2.5,2.5 0 0 1 3146,83.7969 L3146,303.5 A2.5,2.5 0 0 1 3143.5,306 L2591.5,306 A2.5,2.5 0 0 1 2589,303.5 L2589,61.5 A2.5,2.5 0 0 1 2591.5,59 " fill="#DDDDDD" style="stroke:#000000;stroke-width:1.5;"/><line style="stroke:#000000;stroke-width:1.5;" x1="2589" x2="2661" y1="81.2969" y2="81.2969"/><text fill="#000000" font-family="sans-serif" font-size="14" font-weight="bold" lengthAdjust="spacing" textLength="59" x="2593" y="73.9951">Mapper</text></g><!--cluster DTO--><g id="cluster_DTO"><path d="M3181.5,49 L3215.5,49 A3.75,3.75 0 0 1 3218,51.5 L3225,71.2969 L3459.5,71.2969 A2.5,2.5 0 0 1 3462,73.7969 L3462,360.5 A2.5,2.5 0 0 1 3459.5,363 L3181.5,363 A2.5,2.5 0 0 1 3179,360.5 L3179,51.5 A2.5,2.5 0 0 1 3181.5,49 " fill="#DDDDDD" style="stroke:#000000;stroke-width:1.5;"/><line style="stroke:#000000;stroke-width:1.5;" x1="3179" x2="3225" y1="71.2969" y2="71.2969"/><text fill="#000000" font-family="sans-serif" font-size="14" font-weight="bold" lengthAdjust="spacing" textLength="33" x="3183" y="63.9951">DTO</text></g><!--cluster Domain--><g id="cluster_Domain"><path d="M1251.5,330 L1310.5,330 A3.75,3.75 0 0 1 1313,332.5 L1320,352.2969 L3021.5,352.2969 A2.5,2.5 0 0 1 3024,354.7969 L3024,857.5 A2.5,2.5 0 0 1 3021.5,860 L1251.5,860 A2.5,2.5 0 0 1 1249,857.5 L1249,332.5 A2.5,2.5 0 0 1 1251.5,330 " fill="#DDDDDD" style="stroke:#000000;stroke-width:1.5;"/><line style="stroke:#000000;stroke-width:1.5;" x1="1249" x2="1320" y1="352.2969" y2="352.2969"/><text fill="#000000" font-family="sans-serif" font-size="14" font-weight="bold" lengthAdjust="spacing" textLength="58" x="1253" y="344.9951">Domain</text></g><!--cluster Repository--><g id="cluster_Repository"><path d="M1275.5,373 L1361.5,373 A3.75,3.75 0 0 1 1364,375.5 L1371,395.2969 L2492.5,395.2969 A2.5,2.5 0 0 1 2495,397.7969 L2495,725.5 A2.5,2.5 0 0 1 2492.5,728 L1275.5,728 A2.5,2.5 0 0 1 1273,725.5 L1273,375.5 A2.5,2.5 0 0 1 1275.5,373 " fill="#BBBBBB" style="stroke:#000000;stroke-width:1.5;"/><line style="stroke:#000000;stroke-width:1.5;" x1="1273" x2="1371" y1="395.2969" y2="395.2969"/><text fill="#000000" font-family="sans-serif" font-size="14" font-weight="bold" lengthAdjust="spacing" textLength="85" x="1277" y="387.9951">Repository</text></g><!--cluster Lists--><g id="cluster_Lists"><path d="M1299.5,416 L1337.5,416 A3.75,3.75 0 0 1 1340,418.5 L1347,438.2969 L1937.5,438.2969 A2.5,2.5 0 0 1 1940,440.7969 L1940,528.5 A2.5,2.5 0 0 1 1937.5,531 L1299.5,531 A2.5,2.5 0 0 1 1297,528.5 L1297,418.5 A2.5,2.5 0 0 1 1299.5,416 " fill="#999999" style="stroke:#000000;stroke-width:1.5;"/><line style="stroke:#000000;stroke-width:1.5;" x1="1297" x2="1347" y1="438.2969" y2="438.2969"/><text fill="#000000" font-family="sans-serif" font-size="14" font-weight="bold" lengthAdjust="spacing" textLength="37" x="1301" y="430.9951">Lists</text></g><!--cluster Model--><g id="cluster_Model"><path d="M2737.5,373 L2785.5,373 A3.75,3.75 0 0 1 2788,375.5 L2795,395.2969 L2997.5,395.2969 A2.5,2.5 0 0 1 3000,397.7969 L3000,833.5 A2.5,2.5 0 0 1 2997.5,836 L2737.5,836 A2.5,2.5 0 0 1 2735,833.5 L2735,375.5 A2.5,2.5 0 0 1 2737.5,373 " fill="#BBBBBB" style="stroke:#000000;stroke-width:1.5;"/><line style="stroke:#000000;stroke-width:1.5;" x1="2735" x2="2795" y1="395.2969" y2="395.2969"/><text fill="#000000" font-family="sans-serif" font-size="14" font-weight="bold" lengthAdjust="spacing" textLength="47" x="2739" y="387.9951">Model</text></g><!--class ViewDetailsEntryAgendaUI--><g id="elem_ViewDetailsEntryAgendaUI"><rect codeLine="7" fill="#F1F1F1" height="48" id="ViewDetailsEntryAgendaUI" rx="2.5" ry="2.5" style="stroke:#181818;stroke-width:0.5;" width="212" x="22" y="515"/><ellipse cx="37" cy="531" fill="#ADD1B2" rx="11" ry="11" style="stroke:#181818;stroke-width:1.0;"/><path d="M39.9688,536.6406 Q39.3906,536.9375 38.75,537.0781 Q38.1094,537.2344 37.4063,537.2344 Q34.9063,537.2344 33.5781,535.5938 Q32.2656,533.9375 32.2656,530.8125 Q32.2656,527.6875 33.5781,526.0313 Q34.9063,524.375 37.4063,524.375 Q38.1094,524.375 38.75,524.5313 Q39.4063,524.6875 39.9688,524.9844 L39.9688,527.7031 Q39.3438,527.125 38.75,526.8594 Q38.1563,526.5781 37.5313,526.5781 Q36.1875,526.5781 35.5,527.6563 Q34.8125,528.7188 34.8125,530.8125 Q34.8125,532.9063 35.5,533.9844 Q36.1875,535.0469 37.5313,535.0469 Q38.1563,535.0469 38.75,534.7813 Q39.3438,534.5 39.9688,533.9219 L39.9688,536.6406 Z " fill="#000000"/><text fill="#000000" font-family="sans-serif" font-size="14" lengthAdjust="spacing" textLength="180" x="51" y="535.8467">ViewDetailsEntryAgendaUI</text><line style="stroke:#181818;stroke-width:0.5;" x1="23" x2="233" y1="547" y2="547"/><line style="stroke:#181818;stroke-width:0.5;" x1="23" x2="233" y1="555" y2="555"/></g><!--class AssignTeamUI--><g id="elem_AssignTeamUI"><rect codeLine="10" fill="#F1F1F1" height="64.2969" id="AssignTeamUI" rx="2.5" ry="2.5" style="stroke:#181818;stroke-width:0.5;" width="257" x="295" y="507"/><ellipse cx="370.25" cy="523" fill="#ADD1B2" rx="11" ry="11" style="stroke:#181818;stroke-width:1.0;"/><path d="M373.2188,528.6406 Q372.6406,528.9375 372,529.0781 Q371.3594,529.2344 370.6563,529.2344 Q368.1563,529.2344 366.8281,527.5938 Q365.5156,525.9375 365.5156,522.8125 Q365.5156,519.6875 366.8281,518.0313 Q368.1563,516.375 370.6563,516.375 Q371.3594,516.375 372,516.5313 Q372.6563,516.6875 373.2188,516.9844 L373.2188,519.7031 Q372.5938,519.125 372,518.8594 Q371.4063,518.5781 370.7813,518.5781 Q369.4375,518.5781 368.75,519.6563 Q368.0625,520.7188 368.0625,522.8125 Q368.0625,524.9063 368.75,525.9844 Q369.4375,527.0469 370.7813,527.0469 Q371.4063,527.0469 372,526.7813 Q372.5938,526.5 373.2188,525.9219 L373.2188,528.6406 Z " fill="#000000"/><text fill="#000000" font-family="sans-serif" font-size="14" lengthAdjust="spacing" textLength="98" x="390.75" y="527.8467">AssignTeamUI</text><line style="stroke:#181818;stroke-width:0.5;" x1="296" x2="551" y1="539" y2="539"/><line style="stroke:#181818;stroke-width:0.5;" x1="296" x2="551" y1="547" y2="547"/><text fill="#000000" font-family="sans-serif" font-size="14" lengthAdjust="spacing" textLength="245" x="301" y="563.9951">+setEntry(entryDto: EntryDto): void</text></g><!--class EmailService--><g id="elem_EmailService"><rect codeLine="18" fill="#F1F1F1" height="96.8906" id="EmailService" rx="2.5" ry="2.5" style="stroke:#181818;stroke-width:0.5;" width="553" x="1989" y="1089.5"/><ellipse cx="2218.25" cy="1105.5" fill="#ADD1B2" rx="11" ry="11" style="stroke:#181818;stroke-width:1.0;"/><path d="M2221.2188,1111.1406 Q2220.6406,1111.4375 2220,1111.5781 Q2219.3594,1111.7344 2218.6563,1111.7344 Q2216.1563,1111.7344 2214.8281,1110.0938 Q2213.5156,1108.4375 2213.5156,1105.3125 Q2213.5156,1102.1875 2214.8281,1100.5313 Q2216.1563,1098.875 2218.6563,1098.875 Q2219.3594,1098.875 2220,1099.0313 Q2220.6563,1099.1875 2221.2188,1099.4844 L2221.2188,1102.2031 Q2220.5938,1101.625 2220,1101.3594 Q2219.4063,1101.0781 2218.7813,1101.0781 Q2217.4375,1101.0781 2216.75,1102.1563 Q2216.0625,1103.2188 2216.0625,1105.3125 Q2216.0625,1107.4063 2216.75,1108.4844 Q2217.4375,1109.5469 2218.7813,1109.5469 Q2219.4063,1109.5469 2220,1109.2813 Q2220.5938,1109 2221.2188,1108.4219 L2221.2188,1111.1406 Z " fill="#000000"/><text fill="#000000" font-family="sans-serif" font-size="14" lengthAdjust="spacing" textLength="86" x="2238.75" y="1110.3467">EmailService</text><line style="stroke:#181818;stroke-width:0.5;" x1="1990" x2="2541" y1="1121.5" y2="1121.5"/><line style="stroke:#181818;stroke-width:0.5;" x1="1990" x2="2541" y1="1129.5" y2="1129.5"/><text fill="#000000" font-family="sans-serif" font-size="14" lengthAdjust="spacing" textLength="541" x="1995" y="1146.4951">+sendEmailToCollaborator(collaborator: Collaborator, entryDto: EntryDto): void</text><text fill="#000000" font-family="sans-serif" font-size="14" lengthAdjust="spacing" textLength="392" x="1995" y="1162.792">+sendEmail(to: String, subject: String, body: String): void</text><text fill="#000000" font-family="sans-serif" font-size="14" lengthAdjust="spacing" textLength="433" x="1995" y="1179.0889">+sendToEmailFile(to: String, subject: String, body: String): void</text></g><!--class DeiEmailService--><g id="elem_DeiEmailService"><rect codeLine="24" fill="#F1F1F1" height="64.2969" id="DeiEmailService" rx="2.5" ry="2.5" style="stroke:#181818;stroke-width:0.5;" width="404" x="2665.5" y="1216"/><ellipse cx="2808.75" cy="1232" fill="#ADD1B2" rx="11" ry="11" style="stroke:#181818;stroke-width:1.0;"/><path d="M2811.7188,1237.6406 Q2811.1406,1237.9375 2810.5,1238.0781 Q2809.8594,1238.2344 2809.1563,1238.2344 Q2806.6563,1238.2344 2805.3281,1236.5938 Q2804.0156,1234.9375 2804.0156,1231.8125 Q2804.0156,1228.6875 2805.3281,1227.0313 Q2806.6563,1225.375 2809.1563,1225.375 Q2809.8594,1225.375 2810.5,1225.5313 Q2811.1563,1225.6875 2811.7188,1225.9844 L2811.7188,1228.7031 Q2811.0938,1228.125 2810.5,1227.8594 Q2809.9063,1227.5781 2809.2813,1227.5781 Q2807.9375,1227.5781 2807.25,1228.6563 Q2806.5625,1229.7188 2806.5625,1231.8125 Q2806.5625,1233.9063 2807.25,1234.9844 Q2807.9375,1236.0469 2809.2813,1236.0469 Q2809.9063,1236.0469 2810.5,1235.7813 Q2811.0938,1235.5 2811.7188,1234.9219 L2811.7188,1237.6406 Z " fill="#000000"/><text fill="#000000" font-family="sans-serif" font-size="14" lengthAdjust="spacing" textLength="109" x="2829.25" y="1236.8467">DeiEmailService</text><line style="stroke:#181818;stroke-width:0.5;" x1="2666.5" x2="3068.5" y1="1248" y2="1248"/><line style="stroke:#181818;stroke-width:0.5;" x1="2666.5" x2="3068.5" y1="1256" y2="1256"/><text fill="#000000" font-family="sans-serif" font-size="14" lengthAdjust="spacing" textLength="392" x="2671.5" y="1272.9951">+sendEmail(to: String, subject: String, body: String): void</text></g><!--class SendEmailExternalAPI--><g id="elem_SendEmailExternalAPI"><rect codeLine="32" fill="#F1F1F1" height="64.2969" id="SendEmailExternalAPI" rx="2.5" ry="2.5" style="stroke:#181818;stroke-width:0.5;" width="404" x="2063.5" y="1222"/><ellipse cx="2186.25" cy="1238" fill="#B4A7E5" rx="11" ry="11" style="stroke:#181818;stroke-width:1.0;"/><path d="M2182.1719,1233.7656 L2182.1719,1231.6094 L2189.5625,1231.6094 L2189.5625,1233.7656 L2187.0938,1233.7656 L2187.0938,1241.8438 L2189.5625,1241.8438 L2189.5625,1244 L2182.1719,1244 L2182.1719,1241.8438 L2184.6406,1241.8438 L2184.6406,1233.7656 L2182.1719,1233.7656 Z " fill="#000000"/><text fill="#000000" font-family="sans-serif" font-size="14" font-style="italic" lengthAdjust="spacing" textLength="150" x="2206.75" y="1242.8467">SendEmailExternalAPI</text><line style="stroke:#181818;stroke-width:0.5;" x1="2064.5" x2="2466.5" y1="1254" y2="1254"/><line style="stroke:#181818;stroke-width:0.5;" x1="2064.5" x2="2466.5" y1="1262" y2="1262"/><text fill="#000000" font-family="sans-serif" font-size="14" lengthAdjust="spacing" textLength="392" x="2069.5" y="1278.9951">+sendEmail(to: String, subject: String, body: String): void</text></g><!--class GmailService--><g id="elem_GmailService"><rect codeLine="28" fill="#F1F1F1" height="64.2969" id="GmailService" rx="2.5" ry="2.5" style="stroke:#181818;stroke-width:0.5;" width="404" x="2665.5" y="1112"/><ellipse cx="2819.25" cy="1128" fill="#ADD1B2" rx="11" ry="11" style="stroke:#181818;stroke-width:1.0;"/><path d="M2822.2188,1133.6406 Q2821.6406,1133.9375 2821,1134.0781 Q2820.3594,1134.2344 2819.6563,1134.2344 Q2817.1563,1134.2344 2815.8281,1132.5938 Q2814.5156,1130.9375 2814.5156,1127.8125 Q2814.5156,1124.6875 2815.8281,1123.0313 Q2817.1563,1121.375 2819.6563,1121.375 Q2820.3594,1121.375 2821,1121.5313 Q2821.6563,1121.6875 2822.2188,1121.9844 L2822.2188,1124.7031 Q2821.5938,1124.125 2821,1123.8594 Q2820.4063,1123.5781 2819.7813,1123.5781 Q2818.4375,1123.5781 2817.75,1124.6563 Q2817.0625,1125.7188 2817.0625,1127.8125 Q2817.0625,1129.9063 2817.75,1130.9844 Q2818.4375,1132.0469 2819.7813,1132.0469 Q2820.4063,1132.0469 2821,1131.7813 Q2821.5938,1131.5 2822.2188,1130.9219 L2822.2188,1133.6406 Z " fill="#000000"/><text fill="#000000" font-family="sans-serif" font-size="14" lengthAdjust="spacing" textLength="88" x="2839.75" y="1132.8467">GmailService</text><line style="stroke:#181818;stroke-width:0.5;" x1="2666.5" x2="3068.5" y1="1144" y2="1144"/><line style="stroke:#181818;stroke-width:0.5;" x1="2666.5" x2="3068.5" y1="1152" y2="1152"/><text fill="#000000" font-family="sans-serif" font-size="14" lengthAdjust="spacing" textLength="392" x="2671.5" y="1168.9951">+sendEmail(to: String, subject: String, body: String): void</text></g><!--class ApplicationSession--><g id="elem_ApplicationSession"><rect codeLine="39" fill="#F1F1F1" height="96.8906" id="ApplicationSession" rx="2.5" ry="2.5" style="stroke:#181818;stroke-width:0.5;" width="297" x="2719" y="918.5"/><ellipse cx="2798.25" cy="934.5" fill="#ADD1B2" rx="11" ry="11" style="stroke:#181818;stroke-width:1.0;"/><path d="M2801.2188,940.1406 Q2800.6406,940.4375 2800,940.5781 Q2799.3594,940.7344 2798.6563,940.7344 Q2796.1563,940.7344 2794.8281,939.0938 Q2793.5156,937.4375 2793.5156,934.3125 Q2793.5156,931.1875 2794.8281,929.5313 Q2796.1563,927.875 2798.6563,927.875 Q2799.3594,927.875 2800,928.0313 Q2800.6563,928.1875 2801.2188,928.4844 L2801.2188,931.2031 Q2800.5938,930.625 2800,930.3594 Q2799.4063,930.0781 2798.7813,930.0781 Q2797.4375,930.0781 2796.75,931.1563 Q2796.0625,932.2188 2796.0625,934.3125 Q2796.0625,936.4063 2796.75,937.4844 Q2797.4375,938.5469 2798.7813,938.5469 Q2799.4063,938.5469 2800,938.2813 Q2800.5938,938 2801.2188,937.4219 L2801.2188,940.1406 Z " fill="#000000"/><text fill="#000000" font-family="sans-serif" font-size="14" lengthAdjust="spacing" textLength="130" x="2818.75" y="939.3467">ApplicationSession</text><line style="stroke:#181818;stroke-width:0.5;" x1="2720" x2="3015" y1="950.5" y2="950.5"/><text fill="#000000" font-family="sans-serif" font-size="14" lengthAdjust="spacing" textLength="203" x="2725" y="967.4951">-instance: ApplicationSession</text><line style="stroke:#181818;stroke-width:0.5;" x1="2720" x2="3015" y1="974.7969" y2="974.7969"/><text fill="#000000" font-family="sans-serif" font-size="14" lengthAdjust="spacing" textLength="243" x="2725" y="991.792">+getInstance(): ApplicationSession</text><text fill="#000000" font-family="sans-serif" font-size="14" lengthAdjust="spacing" textLength="285" x="2725" y="1008.0889">+getEmailServiceInstance(): EmailService</text></g><!--class ViewDetailsEntryController--><g id="elem_ViewDetailsEntryController"><rect codeLine="48" fill="#F1F1F1" height="80.5938" id="ViewDetailsEntryController" rx="2.5" ry="2.5" style="stroke:#181818;stroke-width:0.5;" width="483" x="641" y="498.5"/><ellipse cx="787.75" cy="514.5" fill="#ADD1B2" rx="11" ry="11" style="stroke:#181818;stroke-width:1.0;"/><path d="M790.7188,520.1406 Q790.1406,520.4375 789.5,520.5781 Q788.8594,520.7344 788.1563,520.7344 Q785.6563,520.7344 784.3281,519.0938 Q783.0156,517.4375 783.0156,514.3125 Q783.0156,511.1875 784.3281,509.5313 Q785.6563,507.875 788.1563,507.875 Q788.8594,507.875 789.5,508.0313 Q790.1563,508.1875 790.7188,508.4844 L790.7188,511.2031 Q790.0938,510.625 789.5,510.3594 Q788.9063,510.0781 788.2813,510.0781 Q786.9375,510.0781 786.25,511.1563 Q785.5625,512.2188 785.5625,514.3125 Q785.5625,516.4063 786.25,517.4844 Q786.9375,518.5469 788.2813,518.5469 Q788.9063,518.5469 789.5,518.2813 Q790.0938,518 790.7188,517.4219 L790.7188,520.1406 Z " fill="#000000"/><text fill="#000000" font-family="sans-serif" font-size="14" lengthAdjust="spacing" textLength="181" x="808.25" y="519.3467">ViewDetailsEntryController</text><line style="stroke:#181818;stroke-width:0.5;" x1="642" x2="1123" y1="530.5" y2="530.5"/><line style="stroke:#181818;stroke-width:0.5;" x1="642" x2="1123" y1="538.5" y2="538.5"/><text fill="#000000" font-family="sans-serif" font-size="14" lengthAdjust="spacing" textLength="471" x="647" y="555.4951">+getTeamListPossibleForEntry(entryDto: EntryDto): List&lt;TeamDto&gt;</text><text fill="#000000" font-family="sans-serif" font-size="14" lengthAdjust="spacing" textLength="466" x="647" y="571.792">+assignTeamToEntry(teamDto: TeamDto, entryDto: EntryDto): void</text></g><!--class TeamMapper--><g id="elem_TeamMapper"><rect codeLine="57" fill="#F1F1F1" height="64.2969" id="TeamMapper" rx="2.5" ry="2.5" style="stroke:#181818;stroke-width:0.5;" width="470" x="2632.5" y="94"/><ellipse cx="2817.75" cy="110" fill="#ADD1B2" rx="11" ry="11" style="stroke:#181818;stroke-width:1.0;"/><path d="M2820.7188,115.6406 Q2820.1406,115.9375 2819.5,116.0781 Q2818.8594,116.2344 2818.1563,116.2344 Q2815.6563,116.2344 2814.3281,114.5938 Q2813.0156,112.9375 2813.0156,109.8125 Q2813.0156,106.6875 2814.3281,105.0313 Q2815.6563,103.375 2818.1563,103.375 Q2818.8594,103.375 2819.5,103.5313 Q2820.1563,103.6875 2820.7188,103.9844 L2820.7188,106.7031 Q2820.0938,106.125 2819.5,105.8594 Q2818.9063,105.5781 2818.2813,105.5781 Q2816.9375,105.5781 2816.25,106.6563 Q2815.5625,107.7188 2815.5625,109.8125 Q2815.5625,111.9063 2816.25,112.9844 Q2816.9375,114.0469 2818.2813,114.0469 Q2818.9063,114.0469 2819.5,113.7813 Q2820.0938,113.5 2820.7188,112.9219 L2820.7188,115.6406 Z " fill="#000000"/><text fill="#000000" font-family="sans-serif" font-size="14" lengthAdjust="spacing" textLength="91" x="2838.25" y="114.8467">TeamMapper</text><line style="stroke:#181818;stroke-width:0.5;" x1="2633.5" x2="3101.5" y1="126" y2="126"/><line style="stroke:#181818;stroke-width:0.5;" x1="2633.5" x2="3101.5" y1="134" y2="134"/><text fill="#000000" font-family="sans-serif" font-size="14" lengthAdjust="spacing" textLength="458" x="2638.5" y="150.9951">+teamListToTeamDtoList(teamList: List&lt;Team&gt;): List&lt;TeamDto&gt;</text></g><!--class EntryMapper--><g id="elem_EntryMapper"><rect codeLine="61" fill="#F1F1F1" height="96.8906" id="EntryMapper" rx="2.5" ry="2.5" style="stroke:#181818;stroke-width:0.5;" width="525" x="2605" y="193.5"/><ellipse cx="2819.75" cy="209.5" fill="#ADD1B2" rx="11" ry="11" style="stroke:#181818;stroke-width:1.0;"/><path d="M2822.7188,215.1406 Q2822.1406,215.4375 2821.5,215.5781 Q2820.8594,215.7344 2820.1563,215.7344 Q2817.6563,215.7344 2816.3281,214.0938 Q2815.0156,212.4375 2815.0156,209.3125 Q2815.0156,206.1875 2816.3281,204.5313 Q2817.6563,202.875 2820.1563,202.875 Q2820.8594,202.875 2821.5,203.0313 Q2822.1563,203.1875 2822.7188,203.4844 L2822.7188,206.2031 Q2822.0938,205.625 2821.5,205.3594 Q2820.9063,205.0781 2820.2813,205.0781 Q2818.9375,205.0781 2818.25,206.1563 Q2817.5625,207.2188 2817.5625,209.3125 Q2817.5625,211.4063 2818.25,212.4844 Q2818.9375,213.5469 2820.2813,213.5469 Q2820.9063,213.5469 2821.5,213.2813 Q2822.0938,213 2822.7188,212.4219 L2822.7188,215.1406 Z " fill="#000000"/><text fill="#000000" font-family="sans-serif" font-size="14" lengthAdjust="spacing" textLength="87" x="2840.25" y="214.3467">EntryMapper</text><line style="stroke:#181818;stroke-width:0.5;" x1="2606" x2="3129" y1="225.5" y2="225.5"/><line style="stroke:#181818;stroke-width:0.5;" x1="2606" x2="3129" y1="233.5" y2="233.5"/><text fill="#000000" font-family="sans-serif" font-size="14" lengthAdjust="spacing" textLength="395" x="2611" y="250.4951">+entryDtoToEntry(entryDto: EntryDto, entry: Entry): Entry</text><text fill="#000000" font-family="sans-serif" font-size="14" lengthAdjust="spacing" textLength="513" x="2611" y="266.792">+shouldUpdateTeamOrVehicles(entry: Entry, entryDto: EntryDto): boolean</text><text fill="#000000" font-family="sans-serif" font-size="14" lengthAdjust="spacing" textLength="448" x="2611" y="283.0889">+updateTeamAndVehicles(entry: Entry, entryDto: EntryDto): void</text></g><!--class EntryDto--><g id="elem_EntryDto"><rect codeLine="70" fill="#F1F1F1" height="145.7813" id="EntryDto" rx="2.5" ry="2.5" style="stroke:#181818;stroke-width:0.5;" width="251" x="3195" y="201"/><ellipse cx="3286.25" cy="217" fill="#ADD1B2" rx="11" ry="11" style="stroke:#181818;stroke-width:1.0;"/><path d="M3289.2188,222.6406 Q3288.6406,222.9375 3288,223.0781 Q3287.3594,223.2344 3286.6563,223.2344 Q3284.1563,223.2344 3282.8281,221.5938 Q3281.5156,219.9375 3281.5156,216.8125 Q3281.5156,213.6875 3282.8281,212.0313 Q3284.1563,210.375 3286.6563,210.375 Q3287.3594,210.375 3288,210.5313 Q3288.6563,210.6875 3289.2188,210.9844 L3289.2188,213.7031 Q3288.5938,213.125 3288,212.8594 Q3287.4063,212.5781 3286.7813,212.5781 Q3285.4375,212.5781 3284.75,213.6563 Q3284.0625,214.7188 3284.0625,216.8125 Q3284.0625,218.9063 3284.75,219.9844 Q3285.4375,221.0469 3286.7813,221.0469 Q3287.4063,221.0469 3288,220.7813 Q3288.5938,220.5 3289.2188,219.9219 L3289.2188,222.6406 Z " fill="#000000"/><text fill="#000000" font-family="sans-serif" font-size="14" lengthAdjust="spacing" textLength="60" x="3306.75" y="221.8467">EntryDto</text><line style="stroke:#181818;stroke-width:0.5;" x1="3196" x2="3445" y1="233" y2="233"/><text fill="#000000" font-family="sans-serif" font-size="14" lengthAdjust="spacing" textLength="118" x="3201" y="249.9951">+startDate: Date</text><text fill="#000000" font-family="sans-serif" font-size="14" lengthAdjust="spacing" textLength="104" x="3201" y="266.292">+status: String</text><text fill="#000000" font-family="sans-serif" font-size="14" lengthAdjust="spacing" textLength="184" x="3201" y="282.5889">+teamAssigned: TeamDto</text><text fill="#000000" font-family="sans-serif" font-size="14" lengthAdjust="spacing" textLength="128" x="3201" y="298.8857">+reference: String</text><text fill="#000000" font-family="sans-serif" font-size="14" lengthAdjust="spacing" textLength="123" x="3201" y="315.1826">+finishDate: Date</text><line style="stroke:#181818;stroke-width:0.5;" x1="3196" x2="3445" y1="322.4844" y2="322.4844"/><text fill="#000000" font-family="sans-serif" font-size="14" lengthAdjust="spacing" textLength="239" x="3201" y="339.4795">+assignTeam(teamDto: TeamDto)</text></g><!--class TeamDto--><g id="elem_TeamDto"><rect codeLine="79" fill="#F1F1F1" height="80.5938" id="TeamDto" rx="2.5" ry="2.5" style="stroke:#181818;stroke-width:0.5;" width="229" x="3206" y="84.5"/><ellipse cx="3284.25" cy="100.5" fill="#ADD1B2" rx="11" ry="11" style="stroke:#181818;stroke-width:1.0;"/><path d="M3287.2188,106.1406 Q3286.6406,106.4375 3286,106.5781 Q3285.3594,106.7344 3284.6563,106.7344 Q3282.1563,106.7344 3280.8281,105.0938 Q3279.5156,103.4375 3279.5156,100.3125 Q3279.5156,97.1875 3280.8281,95.5313 Q3282.1563,93.875 3284.6563,93.875 Q3285.3594,93.875 3286,94.0313 Q3286.6563,94.1875 3287.2188,94.4844 L3287.2188,97.2031 Q3286.5938,96.625 3286,96.3594 Q3285.4063,96.0781 3284.7813,96.0781 Q3283.4375,96.0781 3282.75,97.1563 Q3282.0625,98.2188 3282.0625,100.3125 Q3282.0625,102.4063 3282.75,103.4844 Q3283.4375,104.5469 3284.7813,104.5469 Q3285.4063,104.5469 3286,104.2813 Q3286.5938,104 3287.2188,103.4219 L3287.2188,106.1406 Z " fill="#000000"/><text fill="#000000" font-family="sans-serif" font-size="14" lengthAdjust="spacing" textLength="64" x="3304.75" y="105.3467">TeamDto</text><line style="stroke:#181818;stroke-width:0.5;" x1="3207" x2="3434" y1="116.5" y2="116.5"/><text fill="#000000" font-family="sans-serif" font-size="14" lengthAdjust="spacing" textLength="136" x="3212" y="133.4951">+teamName: String</text><text fill="#000000" font-family="sans-serif" font-size="14" lengthAdjust="spacing" textLength="217" x="3212" y="149.792">+members: List&lt;Collaborator&gt;</text><line style="stroke:#181818;stroke-width:0.5;" x1="3207" x2="3434" y1="157.0938" y2="157.0938"/></g><!--class Repositories--><g id="elem_Repositories"><rect codeLine="90" fill="#F1F1F1" height="162.0781" id="Repositories" rx="2.5" ry="2.5" style="stroke:#181818;stroke-width:0.5;" width="292" x="1472.5" y="550"/><ellipse cx="1570.75" cy="566" fill="#ADD1B2" rx="11" ry="11" style="stroke:#181818;stroke-width:1.0;"/><path d="M1573.7188,571.6406 Q1573.1406,571.9375 1572.5,572.0781 Q1571.8594,572.2344 1571.1563,572.2344 Q1568.6563,572.2344 1567.3281,570.5938 Q1566.0156,568.9375 1566.0156,565.8125 Q1566.0156,562.6875 1567.3281,561.0313 Q1568.6563,559.375 1571.1563,559.375 Q1571.8594,559.375 1572.5,559.5313 Q1573.1563,559.6875 1573.7188,559.9844 L1573.7188,562.7031 Q1573.0938,562.125 1572.5,561.8594 Q1571.9063,561.5781 1571.2813,561.5781 Q1569.9375,561.5781 1569.25,562.6563 Q1568.5625,563.7188 1568.5625,565.8125 Q1568.5625,567.9063 1569.25,568.9844 Q1569.9375,570.0469 1571.2813,570.0469 Q1571.9063,570.0469 1572.5,569.7813 Q1573.0938,569.5 1573.7188,568.9219 L1573.7188,571.6406 Z " fill="#000000"/><text fill="#000000" font-family="sans-serif" font-size="14" lengthAdjust="spacing" textLength="87" x="1591.25" y="570.8467">Repositories</text><line style="stroke:#181818;stroke-width:0.5;" x1="1473.5" x2="1763.5" y1="582" y2="582"/><text fill="#000000" font-family="sans-serif" font-size="14" lengthAdjust="spacing" textLength="232" x="1478.5" y="598.9951">-entryRepository: EntryRepository</text><text fill="#000000" font-family="sans-serif" font-size="14" lengthAdjust="spacing" textLength="236" x="1478.5" y="615.292">-teamRepository: TeamRepository</text><text fill="#000000" font-family="sans-serif" font-size="14" lengthAdjust="spacing" textLength="201" x="1478.5" y="631.5889">-static instance: Repositories</text><line style="stroke:#181818;stroke-width:0.5;" x1="1473.5" x2="1763.5" y1="638.8906" y2="638.8906"/><text fill="#000000" font-family="sans-serif" font-size="14" lengthAdjust="spacing" textLength="200" x="1478.5" y="655.8857">+getInstance(): Repositories</text><text fill="#000000" font-family="sans-serif" font-size="14" lengthAdjust="spacing" textLength="272" x="1478.5" y="672.1826">+getEntryRepository(): EntryRepository</text><text fill="#000000" font-family="sans-serif" font-size="14" lengthAdjust="spacing" textLength="280" x="1478.5" y="688.4795">+getTeamRepository(): TeamRepository</text><text fill="#000000" font-family="sans-serif" font-size="14" lengthAdjust="spacing" textLength="102" x="1478.5" y="704.7764">-Repositories()</text></g><!--class EntryRepository--><g id="elem_EntryRepository"><rect codeLine="100" fill="#F1F1F1" height="113.1875" id="EntryRepository" rx="2.5" ry="2.5" style="stroke:#181818;stroke-width:0.5;" width="427" x="2052" y="574.5"/><ellipse cx="2206.75" cy="590.5" fill="#ADD1B2" rx="11" ry="11" style="stroke:#181818;stroke-width:1.0;"/><path d="M2209.7188,596.1406 Q2209.1406,596.4375 2208.5,596.5781 Q2207.8594,596.7344 2207.1563,596.7344 Q2204.6563,596.7344 2203.3281,595.0938 Q2202.0156,593.4375 2202.0156,590.3125 Q2202.0156,587.1875 2203.3281,585.5313 Q2204.6563,583.875 2207.1563,583.875 Q2207.8594,583.875 2208.5,584.0313 Q2209.1563,584.1875 2209.7188,584.4844 L2209.7188,587.2031 Q2209.0938,586.625 2208.5,586.3594 Q2207.9063,586.0781 2207.2813,586.0781 Q2205.9375,586.0781 2205.25,587.1563 Q2204.5625,588.2188 2204.5625,590.3125 Q2204.5625,592.4063 2205.25,593.4844 Q2205.9375,594.5469 2207.2813,594.5469 Q2207.9063,594.5469 2208.5,594.2813 Q2209.0938,594 2209.7188,593.4219 L2209.7188,596.1406 Z " fill="#000000"/><text fill="#000000" font-family="sans-serif" font-size="14" lengthAdjust="spacing" textLength="109" x="2227.25" y="595.3467">EntryRepository</text><line style="stroke:#181818;stroke-width:0.5;" x1="2053" x2="2478" y1="606.5" y2="606.5"/><text fill="#000000" font-family="sans-serif" font-size="14" lengthAdjust="spacing" textLength="142" x="2058" y="623.4951">-agenda: AgendaList</text><line style="stroke:#181818;stroke-width:0.5;" x1="2053" x2="2478" y1="630.7969" y2="630.7969"/><text fill="#000000" font-family="sans-serif" font-size="14" lengthAdjust="spacing" textLength="183" x="2058" y="647.792">+getAgenda(): AgendaList</text><text fill="#000000" font-family="sans-serif" font-size="14" lengthAdjust="spacing" textLength="415" x="2058" y="664.0889">+assignTeamOnEntry(entryDto: EntryDto): Optional&lt;Entry&gt;</text><text fill="#000000" font-family="sans-serif" font-size="14" lengthAdjust="spacing" textLength="352" x="2058" y="680.3857">+searchForEntryAgenda(entryDto: EntryDto): Entry</text></g><!--class TeamRepository--><g id="elem_TeamRepository"><rect codeLine="107" fill="#F1F1F1" height="64.2969" id="TeamRepository" rx="2.5" ry="2.5" style="stroke:#181818;stroke-width:0.5;" width="199" x="2166" y="475"/><ellipse cx="2205.3" cy="491" fill="#ADD1B2" rx="11" ry="11" style="stroke:#181818;stroke-width:1.0;"/><path d="M2208.2688,496.6406 Q2207.6906,496.9375 2207.05,497.0781 Q2206.4094,497.2344 2205.7063,497.2344 Q2203.2063,497.2344 2201.8781,495.5938 Q2200.5656,493.9375 2200.5656,490.8125 Q2200.5656,487.6875 2201.8781,486.0313 Q2203.2063,484.375 2205.7063,484.375 Q2206.4094,484.375 2207.05,484.5313 Q2207.7063,484.6875 2208.2688,484.9844 L2208.2688,487.7031 Q2207.6438,487.125 2207.05,486.8594 Q2206.4563,486.5781 2205.8313,486.5781 Q2204.4875,486.5781 2203.8,487.6563 Q2203.1125,488.7188 2203.1125,490.8125 Q2203.1125,492.9063 2203.8,493.9844 Q2204.4875,495.0469 2205.8313,495.0469 Q2206.4563,495.0469 2207.05,494.7813 Q2207.6438,494.5 2208.2688,493.9219 L2208.2688,496.6406 Z " fill="#000000"/><text fill="#000000" font-family="sans-serif" font-size="14" lengthAdjust="spacing" textLength="113" x="2224.7" y="495.8467">TeamRepository</text><line style="stroke:#181818;stroke-width:0.5;" x1="2167" x2="2364" y1="507" y2="507"/><line style="stroke:#181818;stroke-width:0.5;" x1="2167" x2="2364" y1="515" y2="515"/><text fill="#000000" font-family="sans-serif" font-size="14" lengthAdjust="spacing" textLength="187" x="2172" y="531.9951">+getTeams(): List&lt;Team&gt;</text></g><!--class AgendaList--><g id="elem_AgendaList"><rect codeLine="112" fill="#F1F1F1" height="64.2969" id="AgendaList" rx="2.5" ry="2.5" style="stroke:#181818;stroke-width:0.5;" width="611" x="1313" y="451"/><ellipse cx="1576.25" cy="467" fill="#ADD1B2" rx="11" ry="11" style="stroke:#181818;stroke-width:1.0;"/><path d="M1579.2188,472.6406 Q1578.6406,472.9375 1578,473.0781 Q1577.3594,473.2344 1576.6563,473.2344 Q1574.1563,473.2344 1572.8281,471.5938 Q1571.5156,469.9375 1571.5156,466.8125 Q1571.5156,463.6875 1572.8281,462.0313 Q1574.1563,460.375 1576.6563,460.375 Q1577.3594,460.375 1578,460.5313 Q1578.6563,460.6875 1579.2188,460.9844 L1579.2188,463.7031 Q1578.5938,463.125 1578,462.8594 Q1577.4063,462.5781 1576.7813,462.5781 Q1575.4375,462.5781 1574.75,463.6563 Q1574.0625,464.7188 1574.0625,466.8125 Q1574.0625,468.9063 1574.75,469.9844 Q1575.4375,471.0469 1576.7813,471.0469 Q1577.4063,471.0469 1578,470.7813 Q1578.5938,470.5 1579.2188,469.9219 L1579.2188,472.6406 Z " fill="#000000"/><text fill="#000000" font-family="sans-serif" font-size="14" lengthAdjust="spacing" textLength="76" x="1596.75" y="471.8467">AgendaList</text><line style="stroke:#181818;stroke-width:0.5;" x1="1314" x2="1923" y1="483" y2="483"/><line style="stroke:#181818;stroke-width:0.5;" x1="1314" x2="1923" y1="491" y2="491"/><text fill="#000000" font-family="sans-serif" font-size="14" lengthAdjust="spacing" textLength="599" x="1319" y="507.9951">+filterTeamNotActivateInTime(teamList: List&lt;Team&gt;, entryDto: EntryDto): List&lt;Team&gt;</text></g><!--class Entry--><g id="elem_Entry"><rect codeLine="120" fill="#F1F1F1" height="178.375" id="Entry" rx="2.5" ry="2.5" style="stroke:#181818;stroke-width:0.5;" width="233" x="2751" y="525"/><ellipse cx="2845.75" cy="541" fill="#ADD1B2" rx="11" ry="11" style="stroke:#181818;stroke-width:1.0;"/><path d="M2848.7188,546.6406 Q2848.1406,546.9375 2847.5,547.0781 Q2846.8594,547.2344 2846.1563,547.2344 Q2843.6563,547.2344 2842.3281,545.5938 Q2841.0156,543.9375 2841.0156,540.8125 Q2841.0156,537.6875 2842.3281,536.0313 Q2843.6563,534.375 2846.1563,534.375 Q2846.8594,534.375 2847.5,534.5313 Q2848.1563,534.6875 2848.7188,534.9844 L2848.7188,537.7031 Q2848.0938,537.125 2847.5,536.8594 Q2846.9063,536.5781 2846.2813,536.5781 Q2844.9375,536.5781 2844.25,537.6563 Q2843.5625,538.7188 2843.5625,540.8125 Q2843.5625,542.9063 2844.25,543.9844 Q2844.9375,545.0469 2846.2813,545.0469 Q2846.9063,545.0469 2847.5,544.7813 Q2848.0938,544.5 2848.7188,543.9219 L2848.7188,546.6406 Z " fill="#000000"/><text fill="#000000" font-family="sans-serif" font-size="14" lengthAdjust="spacing" textLength="35" x="2866.25" y="545.8467">Entry</text><line style="stroke:#181818;stroke-width:0.5;" x1="2752" x2="2983" y1="557" y2="557"/><text fill="#000000" font-family="sans-serif" font-size="14" lengthAdjust="spacing" textLength="128" x="2757" y="573.9951">+reference: String</text><text fill="#000000" font-family="sans-serif" font-size="14" lengthAdjust="spacing" textLength="104" x="2757" y="590.292">+status: String</text><text fill="#000000" font-family="sans-serif" font-size="14" lengthAdjust="spacing" textLength="118" x="2757" y="606.5889">+startDate: Date</text><text fill="#000000" font-family="sans-serif" font-size="14" lengthAdjust="spacing" textLength="159" x="2757" y="622.8857">+teamAssigned: Team</text><text fill="#000000" font-family="sans-serif" font-size="14" lengthAdjust="spacing" textLength="123" x="2757" y="639.1826">+finishDate: Date</text><text fill="#000000" font-family="sans-serif" font-size="14" lengthAdjust="spacing" textLength="138" x="2757" y="655.4795">+description: String</text><text fill="#000000" font-family="sans-serif" font-size="14" lengthAdjust="spacing" textLength="86" x="2757" y="671.7764">+title: String</text><line style="stroke:#181818;stroke-width:0.5;" x1="2752" x2="2983" y1="679.0781" y2="679.0781"/><text fill="#000000" font-family="sans-serif" font-size="14" lengthAdjust="spacing" textLength="221" x="2757" y="696.0732">+getTeamAssigned(): TeamDto</text></g><!--class Team--><g id="elem_Team"><rect codeLine="131" fill="#F1F1F1" height="80.5938" id="Team" rx="2.5" ry="2.5" style="stroke:#181818;stroke-width:0.5;" width="229" x="2753" y="408.5"/><ellipse cx="2843.75" cy="424.5" fill="#ADD1B2" rx="11" ry="11" style="stroke:#181818;stroke-width:1.0;"/><path d="M2846.7188,430.1406 Q2846.1406,430.4375 2845.5,430.5781 Q2844.8594,430.7344 2844.1563,430.7344 Q2841.6563,430.7344 2840.3281,429.0938 Q2839.0156,427.4375 2839.0156,424.3125 Q2839.0156,421.1875 2840.3281,419.5313 Q2841.6563,417.875 2844.1563,417.875 Q2844.8594,417.875 2845.5,418.0313 Q2846.1563,418.1875 2846.7188,418.4844 L2846.7188,421.2031 Q2846.0938,420.625 2845.5,420.3594 Q2844.9063,420.0781 2844.2813,420.0781 Q2842.9375,420.0781 2842.25,421.1563 Q2841.5625,422.2188 2841.5625,424.3125 Q2841.5625,426.4063 2842.25,427.4844 Q2842.9375,428.5469 2844.2813,428.5469 Q2844.9063,428.5469 2845.5,428.2813 Q2846.0938,428 2846.7188,427.4219 L2846.7188,430.1406 Z " fill="#000000"/><text fill="#000000" font-family="sans-serif" font-size="14" lengthAdjust="spacing" textLength="39" x="2864.25" y="429.3467">Team</text><line style="stroke:#181818;stroke-width:0.5;" x1="2754" x2="2981" y1="440.5" y2="440.5"/><text fill="#000000" font-family="sans-serif" font-size="14" lengthAdjust="spacing" textLength="136" x="2759" y="457.4951">+teamName: String</text><text fill="#000000" font-family="sans-serif" font-size="14" lengthAdjust="spacing" textLength="217" x="2759" y="473.792">+members: List&lt;Collaborator&gt;</text><line style="stroke:#181818;stroke-width:0.5;" x1="2754" x2="2981" y1="481.0938" y2="481.0938"/></g><!--class Collaborator--><g id="elem_Collaborator"><rect codeLine="136" fill="#F1F1F1" height="80.5938" id="Collaborator" rx="2.5" ry="2.5" style="stroke:#181818;stroke-width:0.5;" width="115" x="2810" y="738.5"/><ellipse cx="2825" cy="754.5" fill="#ADD1B2" rx="11" ry="11" style="stroke:#181818;stroke-width:1.0;"/><path d="M2827.9688,760.1406 Q2827.3906,760.4375 2826.75,760.5781 Q2826.1094,760.7344 2825.4063,760.7344 Q2822.9063,760.7344 2821.5781,759.0938 Q2820.2656,757.4375 2820.2656,754.3125 Q2820.2656,751.1875 2821.5781,749.5313 Q2822.9063,747.875 2825.4063,747.875 Q2826.1094,747.875 2826.75,748.0313 Q2827.4063,748.1875 2827.9688,748.4844 L2827.9688,751.2031 Q2827.3438,750.625 2826.75,750.3594 Q2826.1563,750.0781 2825.5313,750.0781 Q2824.1875,750.0781 2823.5,751.1563 Q2822.8125,752.2188 2822.8125,754.3125 Q2822.8125,756.4063 2823.5,757.4844 Q2824.1875,758.5469 2825.5313,758.5469 Q2826.1563,758.5469 2826.75,758.2813 Q2827.3438,758 2827.9688,757.4219 L2827.9688,760.1406 Z " fill="#000000"/><text fill="#000000" font-family="sans-serif" font-size="14" lengthAdjust="spacing" textLength="83" x="2839" y="759.3467">Collaborator</text><line style="stroke:#181818;stroke-width:0.5;" x1="2811" x2="2924" y1="770.5" y2="770.5"/><text fill="#000000" font-family="sans-serif" font-size="14" lengthAdjust="spacing" textLength="100" x="2816" y="787.4951">+name: String</text><text fill="#000000" font-family="sans-serif" font-size="14" lengthAdjust="spacing" textLength="97" x="2816" y="803.792">+email: String</text><line style="stroke:#181818;stroke-width:0.5;" x1="2811" x2="2924" y1="811.0938" y2="811.0938"/></g><!--reverse link SendEmailExternalAPI to DeiEmailService--><g id="link_SendEmailExternalAPI_DeiEmailService"><path d="M2485.5391,1251.8091 C2549.2291,1251.1691 2601.61,1250.65 2665.31,1250.01 " fill="none" id="SendEmailExternalAPI-backto-DeiEmailService" style="stroke:#181818;stroke-width:1.0;stroke-dasharray:7.0,7.0;"/><polygon fill="none" points="2467.54,1251.99,2485.5994,1257.8088,2485.4788,1245.8094,2467.54,1251.99" style="stroke:#181818;stroke-width:1.0;"/></g><!--reverse link SendEmailExternalAPI to GmailService--><g id="link_SendEmailExternalAPI_GmailService"><path d="M2461.3304,1218.7239 C2494.0404,1212.7839 2510.2,1209.83 2542,1204 C2591.31,1194.97 2644.82,1185.1 2693.9,1176.02 " fill="none" id="SendEmailExternalAPI-backto-GmailService" style="stroke:#181818;stroke-width:1.0;stroke-dasharray:7.0,7.0;"/><polygon fill="none" points="2443.62,1221.94,2462.4024,1224.6273,2460.2583,1212.8204,2443.62,1221.94" style="stroke:#181818;stroke-width:1.0;"/></g><!--link ViewDetailsEntryAgendaUI to AssignTeamUI--><g id="link_ViewDetailsEntryAgendaUI_AssignTeamUI"><path codeLine="145" d="M234.13,539 C253.79,539 268.53,539 288.78,539 " fill="none" id="ViewDetailsEntryAgendaUI-to-AssignTeamUI" style="stroke:#181818;stroke-width:1.0;stroke-dasharray:7.0,7.0;"/><polygon fill="#181818" points="294.78,539,285.78,535,289.78,539,285.78,543,294.78,539" style="stroke:#181818;stroke-width:1.0;"/></g><!--link AssignTeamUI to ViewDetailsEntryController--><g id="link_AssignTeamUI_ViewDetailsEntryController"><path codeLine="146" d="M552.1,539 C579.96,539 604.33,539 634.98,539 " fill="none" id="AssignTeamUI-to-ViewDetailsEntryController" style="stroke:#181818;stroke-width:1.0;stroke-dasharray:7.0,7.0;"/><polygon fill="#181818" points="640.98,539,631.98,535,635.98,539,631.98,543,640.98,539" style="stroke:#181818;stroke-width:1.0;"/></g><!--link ViewDetailsEntryController to Repositories--><g id="link_ViewDetailsEntryController_Repositories"><path codeLine="147" d="M1124.09,569.16 C1239.16,583.58 1367.1466,599.624 1466.4266,612.064 " fill="none" id="ViewDetailsEntryController-to-Repositories" style="stroke:#181818;stroke-width:1.0;stroke-dasharray:7.0,7.0;"/><polygon fill="#181818" points="1472.38,612.81,1463.9472,607.7221,1467.4188,612.1884,1462.9525,615.66,1472.38,612.81" style="stroke:#181818;stroke-width:1.0;"/><text fill="#000000" font-family="sans-serif" font-size="13" lengthAdjust="spacing" textLength="75" x="1157" y="571.0669">repositories</text></g><!--link ViewDetailsEntryController to EntryRepository--><g id="link_ViewDetailsEntryController_EntryRepository"><path codeLine="148" d="M933.51,579.58 C999.34,630.11 1120.83,713.72 1241,746 C1544.46,827.52 1638.54,800.48 1948,746 C2013.35,734.5 2077.4045,712.8317 2134.6545,689.7717 " fill="none" id="ViewDetailsEntryController-to-EntryRepository" style="stroke:#181818;stroke-width:1.0;stroke-dasharray:7.0,7.0;"/><polygon fill="#181818" points="2140.22,687.53,2130.3773,687.1823,2135.5821,689.3981,2133.3663,694.6029,2140.22,687.53" style="stroke:#181818;stroke-width:1.0;"/><text fill="#000000" font-family="sans-serif" font-size="13" lengthAdjust="spacing" textLength="100" x="1568.5" y="742.0669">entryRepository</text></g><!--link ViewDetailsEntryController to TeamRepository--><g id="link_ViewDetailsEntryController_TeamRepository"><path codeLine="149" d="M992.84,498.44 C1062.72,474.73 1155.89,447.13 1241,435 C1552.08,390.67 1635.74,399.93 1948,435 C2021.92,443.3 2097.9585,460.6593 2159.8885,476.9993 " fill="none" id="ViewDetailsEntryController-to-TeamRepository" style="stroke:#181818;stroke-width:1.0;stroke-dasharray:7.0,7.0;"/><polygon fill="#181818" points="2165.69,478.53,2158.0083,472.3663,2160.8554,477.2544,2155.9673,480.1016,2165.69,478.53" style="stroke:#181818;stroke-width:1.0;"/><text fill="#000000" font-family="sans-serif" font-size="13" lengthAdjust="spacing" textLength="101" x="1568" y="402.0669">teamRepository</text></g><!--link ViewDetailsEntryController to AgendaList--><g id="link_ViewDetailsEntryController_AgendaList"><path codeLine="150" d="M1124.09,520.64 C1184.39,516.04 1243.8974,511.507 1306.8674,506.697 " fill="none" id="ViewDetailsEntryController-to-AgendaList" style="stroke:#181818;stroke-width:1.0;stroke-dasharray:7.0,7.0;"/><polygon fill="#181818" points="1312.85,506.24,1303.5715,502.9371,1307.8645,506.6208,1304.1808,510.9139,1312.85,506.24" style="stroke:#181818;stroke-width:1.0;"/><text fill="#000000" font-family="sans-serif" font-size="13" lengthAdjust="spacing" textLength="70" x="1159.5" y="509.0669">agendaList</text></g><!--link ViewDetailsEntryController to TeamMapper--><g id="link_ViewDetailsEntryController_TeamMapper"><path codeLine="151" d="M966.81,498.38 C1038.06,465.2 1144.15,419.45 1241,392 C1725.73,254.63 2307.2217,180.9663 2626.4017,148.0063 " fill="none" id="ViewDetailsEntryController-to-TeamMapper" style="stroke:#181818;stroke-width:1.0;stroke-dasharray:7.0,7.0;"/><polygon fill="#181818" points="2632.37,147.39,2623.0067,144.3356,2627.3964,147.9036,2623.8285,152.2933,2632.37,147.39" style="stroke:#181818;stroke-width:1.0;"/></g><!--link ViewDetailsEntryController to EntryDto--><g id="link_ViewDetailsEntryController_EntryDto"><path codeLine="152" d="M898.12,579.72 C958.73,740.44 1206.42,1322 1617.5,1322 C1617.5,1322 1617.5,1322 2868.5,1322 C2995.7,1322 3060.11,1387.82 3154,1302 C3294.51,1173.56 3315.7514,566.5893 3318.9014,353.3293 " fill="none" id="ViewDetailsEntryController-to-EntryDto" style="stroke:#181818;stroke-width:1.0;stroke-dasharray:7.0,7.0;"/><polygon fill="#181818" points="3318.99,347.33,3314.8575,356.2699,3318.9162,352.3295,3322.8566,356.3881,3318.99,347.33" style="stroke:#181818;stroke-width:1.0;"/></g><!--link EntryRepository to EntryMapper--><g id="link_EntryRepository_EntryMapper"><path codeLine="153" d="M2479.04,599 C2502.48,588.34 2524.24,574.34 2542,556 C2594.11,502.17 2535.05,451.18 2581,392 C2616.03,346.89 2663.0257,316.4418 2713.4357,293.0918 " fill="none" id="EntryRepository-to-EntryMapper" style="stroke:#181818;stroke-width:1.0;stroke-dasharray:7.0,7.0;"/><polygon fill="#181818" points="2718.88,290.57,2709.0323,290.7232,2714.3431,292.6715,2712.3947,297.9823,2718.88,290.57" style="stroke:#181818;stroke-width:1.0;"/></g><!--link ViewDetailsEntryController to TeamDto--><g id="link_ViewDetailsEntryController_TeamDto"><path codeLine="154" d="M913.47,498.33 C1004.71,379.63 1292.78,42 1617.5,42 C1617.5,42 1617.5,42 2868.5,42 C2996.39,42 3028.68,52.46 3154,78 C3170.83,81.43 3182.6487,84.1587 3199.8487,88.6987 " fill="none" id="ViewDetailsEntryController-to-TeamDto" style="stroke:#181818;stroke-width:1.0;stroke-dasharray:7.0,7.0;"/><polygon fill="#181818" points="3205.65,90.23,3197.9689,84.0655,3200.8156,88.9539,3195.9272,91.8006,3205.65,90.23" style="stroke:#181818;stroke-width:1.0;"/></g><!--link ViewDetailsEntryController to EmailService--><g id="link_ViewDetailsEntryController_EmailService"><path codeLine="155" d="M932.61,579.75 C986.34,623.76 1075.55,695.21 1156,752 C1412.79,933.28 1756.7152,1034.9282 1994.2052,1088.1382 " fill="none" id="ViewDetailsEntryController-to-EmailService" style="stroke:#181818;stroke-width:1.0;stroke-dasharray:7.0,7.0;"/><polygon fill="#181818" points="2000.06,1089.45,1992.1523,1083.5791,1995.181,1088.3568,1990.4032,1091.3855,2000.06,1089.45" style="stroke:#181818;stroke-width:1.0;"/></g><!--link EmailService to Collaborator--><g id="link_EmailService_Collaborator"><path codeLine="156" d="M2323.09,1089.33 C2383.99,1038.54 2485.05,958.67 2581,903 C2656.72,859.07 2745.3174,823.1744 2804.2974,801.2044 " fill="none" id="EmailService-to-Collaborator" style="stroke:#181818;stroke-width:1.0;stroke-dasharray:7.0,7.0;"/><polygon fill="#181818" points="2809.92,799.11,2800.0899,798.5032,2805.2345,800.8553,2802.8824,806,2809.92,799.11" style="stroke:#181818;stroke-width:1.0;"/></g><!--link EmailService to Entry--><g id="link_EmailService_Entry"><path codeLine="157" d="M2291.09,1089.36 C2336.87,1003.39 2443.16,823.97 2581,721 C2631.04,683.62 2689.8708,659.7098 2744.9408,642.9198 " fill="none" id="EmailService-to-Entry" style="stroke:#181818;stroke-width:1.0;stroke-dasharray:7.0,7.0;"/><polygon fill="#181818" points="2750.68,641.17,2740.9047,639.9686,2745.8973,642.6282,2743.2377,647.6208,2750.68,641.17" style="stroke:#181818;stroke-width:1.0;"/></g><!--link EmailService to ApplicationSession--><g id="link_EmailService_ApplicationSession"><path codeLine="158" d="M2436.83,1089.46 C2525.7,1064.13 2627.5897,1035.0841 2712.9097,1010.7741 " fill="none" id="EmailService-to-ApplicationSession" style="stroke:#181818;stroke-width:1.0;stroke-dasharray:7.0,7.0;"/><polygon fill="#181818" points="2718.68,1009.13,2708.9284,1007.7493,2713.8714,1010.5001,2711.1206,1015.4431,2718.68,1009.13" style="stroke:#181818;stroke-width:1.0;"/></g><!--link EmailService to DeiEmailService--><g id="link_EmailService_DeiEmailService"><path codeLine="159" d="M2531.42,1186.57 C2585.73,1196.52 2635.6882,1205.6889 2685.8582,1214.8789 " fill="none" id="EmailService-to-DeiEmailService" style="stroke:#181818;stroke-width:1.0;stroke-dasharray:7.0,7.0;"/><polygon fill="#181818" points="2691.76,1215.96,2683.628,1210.4039,2686.8418,1215.0591,2682.1866,1218.2729,2691.76,1215.96" style="stroke:#181818;stroke-width:1.0;"/></g><!--link EmailService to GmailService--><g id="link_EmailService_GmailService"><path codeLine="160" d="M2542.35,1140.76 C2583.75,1141.17 2619.7703,1141.5292 2659.2303,1141.9292 " fill="none" id="EmailService-to-GmailService" style="stroke:#181818;stroke-width:1.0;stroke-dasharray:7.0,7.0;"/><polygon fill="#181818" points="2665.23,1141.99,2656.271,1137.899,2660.2303,1141.9393,2656.1899,1145.8986,2665.23,1141.99" style="stroke:#181818;stroke-width:1.0;"/></g><!--link TeamRepository to Team--><g id="link_TeamRepository_Team"><path codeLine="162" d="M2365.24,497.45 C2471.69,487.16 2634.9078,471.3873 2746.8378,460.5673 " fill="none" id="TeamRepository-to-Team" style="stroke:#181818;stroke-width:1.0;"/><polygon fill="#181818" points="2752.81,459.99,2743.4669,456.8745,2747.8332,460.4711,2744.2366,464.8374,2752.81,459.99" style="stroke:#181818;stroke-width:1.0;"/><text fill="#000000" font-family="sans-serif" font-size="13" lengthAdjust="spacing" textLength="8" x="2372.8584" y="509.3603">1</text><text fill="#000000" font-family="sans-serif" font-size="13" lengthAdjust="spacing" textLength="7" x="2737.8691" y="473.3173">*</text></g><!--link EntryRepository to Entry--><g id="link_EntryRepository_Entry"><path codeLine="163" d="M2479.3,624.97 C2570.62,622.38 2667.7524,619.6301 2744.6024,617.4501 " fill="none" id="EntryRepository-to-Entry" style="stroke:#181818;stroke-width:1.0;"/><polygon fill="#181818" points="2750.6,617.28,2741.4902,613.5368,2745.602,617.4218,2741.717,621.5336,2750.6,617.28" style="stroke:#181818;stroke-width:1.0;"/><text fill="#000000" font-family="sans-serif" font-size="13" lengthAdjust="spacing" textLength="8" x="2487.1272" y="637.0887">1</text><text fill="#000000" font-family="sans-serif" font-size="13" lengthAdjust="spacing" textLength="7" x="2735.8869" y="630.0297">*</text></g><!--link Repositories to TeamRepository--><g id="link_Repositories_TeamRepository"><path codeLine="164" d="M1764.61,598.38 C1826.27,584.92 1899.02,569.57 1965,557 C2031.8,544.28 2101.4055,532.6289 2159.9055,523.2589 " fill="none" id="Repositories-to-TeamRepository" style="stroke:#181818;stroke-width:1.0;"/><polygon fill="#181818" points="2165.83,522.31,2156.3107,519.7837,2160.8929,523.1008,2157.5759,527.6831,2165.83,522.31" style="stroke:#181818;stroke-width:1.0;"/><text fill="#000000" font-family="sans-serif" font-size="13" lengthAdjust="spacing" textLength="8" x="1772.35" y="609.1531">1</text><text fill="#000000" font-family="sans-serif" font-size="13" lengthAdjust="spacing" textLength="8" x="2149.8928" y="536.117">1</text></g><!--link Repositories to EntryRepository--><g id="link_Repositories_EntryRepository"><path codeLine="165" d="M1764.65,631 C1849.35,631 1951.74,631 2045.92,631 " fill="none" id="Repositories-to-EntryRepository" style="stroke:#181818;stroke-width:1.0;"/><polygon fill="#181818" points="2051.92,631,2042.92,627,2046.92,631,2042.92,635,2051.92,631" style="stroke:#181818;stroke-width:1.0;"/><text fill="#000000" font-family="sans-serif" font-size="13" lengthAdjust="spacing" textLength="8" x="1772.3921" y="643.455">1</text><text fill="#000000" font-family="sans-serif" font-size="13" lengthAdjust="spacing" textLength="8" x="2036.1007" y="643.3354">1</text></g><!--link AgendaList to Entry--><g id="link_AgendaList_Entry"><path codeLine="166" d="M1924.21,452.3 C1932.25,450.63 1940.19,448.86 1948,447 C1951.69,446.12 1952.26,444.68 1956,444 C2212.27,397.53 2314.48,317.26 2542,444 C2570.77,460.03 2555.55,486.1 2581,507 C2629.78,547.06 2689.3105,571.3382 2745.1305,587.6382 " fill="none" id="AgendaList-to-Entry" style="stroke:#181818;stroke-width:1.0;"/><polygon fill="#181818" points="2750.89,589.32,2743.372,582.9576,2746.0904,587.9185,2741.1296,590.6369,2750.89,589.32" style="stroke:#181818;stroke-width:1.0;"/><text fill="#000000" font-family="sans-serif" font-size="13" lengthAdjust="spacing" textLength="8" x="1932.4367" y="463.7485">1</text><text fill="#000000" font-family="sans-serif" font-size="13" lengthAdjust="spacing" textLength="7" x="2735.8201" y="600.2245">*</text></g><!--link EntryMapper to EntryDto--><g id="link_EntryMapper_EntryDto"><path codeLine="167" d="M3130.2,260.57 C3152.54,262.15 3168.4152,263.2729 3188.8752,264.7329 " fill="none" id="EntryMapper-to-EntryDto" style="stroke:#181818;stroke-width:1.0;stroke-dasharray:7.0,7.0;"/><polygon fill="#181818" points="3194.86,265.16,3186.1675,260.5295,3189.8727,264.8041,3185.5981,268.5093,3194.86,265.16" style="stroke:#181818;stroke-width:1.0;"/></g><!--link TeamMapper to TeamDto--><g id="link_TeamMapper_TeamDto"><path codeLine="168" d="M3102.59,125.48 C3138.51,125.4 3168.15,125.3333 3199.84,125.2633 " fill="none" id="TeamMapper-to-TeamDto" style="stroke:#181818;stroke-width:1.0;stroke-dasharray:7.0,7.0;"/><polygon fill="#181818" points="3205.84,125.25,3196.8312,121.2699,3200.84,125.261,3196.8489,129.2699,3205.84,125.25" style="stroke:#181818;stroke-width:1.0;"/></g><!--SRC=[nLTVZzie47_dKw3SYtFjLktZMbMagDcU8bsxrINRTs9F4guOB23RswlsknzWR6CRsxcgLHqfYPbXvZV_GNsXl2II55YTIIw-Kdx2Hy8K8DLGCaQKMcijwU6YOPi9lgF_0dwD48EZnbfWIKzdZNCg8TDKS8HAadqX9y2BX-q2_tPyRJ_V43QF4uO_K_Yw0KqeKtTSowVr2NXE7hQuOdf60UzQANhYUo15GxVF2mNQxKt0Vc-qIF6T_xTCyQEWkPVr7E1v9oG4Y5h2EYUb1gaCCSzp78AzAmpE7SX7ca4N0CyTRI_U2SR8GKYYXKoou2N58UabdiRQ5PjOjfrnEp-znEfo-DjujrquYFofVelAs0idvJrby7sIEb7O0EtuWHObWyAOe_2k1dptZ_4W9spzQHlrqm-0ySSlnK2v4NuaHdLCtuzKzso-KP2UEp1L87WaEzTboMX6RDrvfi3k6mDPQS8pI2ECBLvy0htrdCbodZTCXN1VkDvMd_qJLA19V5CJ82jZpFCDDTBZxQ7T4zZcm1WijZFyIPN-90pG0uFtGaxq1SlvrcunhwkkBD8q6bCwJeAk-5BiDrnJlzxUljaVI5d6JMxDjbeglfwP3fxsTkw5HsDVaderi6mrQUPpJBCpPbnrRNNjbw4Nl6VymjB_3YMfixYm_A7CYGOBxrv-XZFD6AWa533Yw8CG30WVYhqq0jSy_pyIEw6ht1DnL1F5pVv-EeIrw9WNJPb8lJ4uKso_empwekg64C-0QXf2tkJaa4t24IIucX-JTAISglCK5jnMmw0CblC9vJd7ylWZAIRG5L0Sp2ZsMHmEqDLqhDeu2TE8U3zKmtZ-1QLGr0X-Chm7zqJ3sl1HK16RRghaQgNv76iN8bki7y8T-yvxP8DD3ve57Jr45ObWhwVFS_Sm9yjvCzo-BdAxRTQM44oolB91jHAZCI3k46c6b_krkHE7Mz7Tc9lYR0lWdayCbFlIJad2thgrLKIG0YApSpsMlFQeh67J72skILyqKL59E0ic1q5J4vRT7eDlRs-7alsPe_5RH7a5u4YPEHXPhH-5NfjhmQDfCrk-fmL4PzP8Vnx1tgt- -RxzGUJ0falSAOtvyefsEjUuPpl_iBD_Jy_EGMMIkdoS629KimbJVEBKOEfYxW-QqRpysHq_eZPaZwddawh17bcZv32bchCi6hswldgrwjnLKUVYQgdZnreqSUArEplp9yKoREKpM_kTC-tFgZa1lMwJzWRNtFQWLwI-HRk6UuLMVo2zoa9xs41zMnjg9UaQdKxEdCBmbjEv5Ljgc8v3QjNY1ykH2zU0ftS57pA4bsE4Ud5Rl5dWcviLNlo-g1fCtraXGuMoatKD-SsYFzv7-VgdXo0NXjh2EqWOLXIaGX0bz1y0]--></g></svg>