<?xml version="1.0" encoding="us-ascii" standalone="no"?><svg xmlns="http://www.w3.org/2000/svg" xmlns:xlink="http://www.w3.org/1999/xlink" contentStyleType="text/css" height="1238px" preserveAspectRatio="none" style="width:3493px;height:1238px;background:#FFFFFF;" version="1.1" viewBox="0 0 3493 1238" width="3493px" zoomAndPan="magnify"><defs/><g><!--cluster UI--><g id="cluster_UI"><path d="M8.5,585 L24.5,585 A3.75,3.75 0 0 1 27,587.5 L34,607.2969 L565.5,607.2969 A2.5,2.5 0 0 1 568,609.7969 L568,697.5 A2.5,2.5 0 0 1 565.5,700 L8.5,700 A2.5,2.5 0 0 1 6,697.5 L6,587.5 A2.5,2.5 0 0 1 8.5,585 " fill="#F0F0F0" style="stroke:#000000;stroke-width:1.5;"/><line style="stroke:#000000;stroke-width:1.5;" x1="6" x2="34" y1="607.2969" y2="607.2969"/><text fill="#000000" font-family="sans-serif" font-size="14" font-weight="bold" lengthAdjust="spacing" textLength="15" x="10" y="599.9951">UI</text></g><!--cluster Core--><g id="cluster_Core"><path d="M603.5,6 L642.5,6 A3.75,3.75 0 0 1 645,8.5 L652,28.2969 L3483.5,28.2969 A2.5,2.5 0 0 1 3486,30.7969 L3486,1192.5 A2.5,2.5 0 0 1 3483.5,1195 L603.5,1195 A2.5,2.5 0 0 1 601,1192.5 L601,8.5 A2.5,2.5 0 0 1 603.5,6 " fill="#F0F0F0" style="stroke:#000000;stroke-width:1.5;"/><line style="stroke:#000000;stroke-width:1.5;" x1="601" x2="652" y1="28.2969" y2="28.2969"/><text fill="#000000" font-family="sans-serif" font-size="14" font-weight="bold" lengthAdjust="spacing" textLength="38" x="605" y="20.9951">Core</text></g><!--cluster Adapters--><g id="cluster_Adapters"><path d="M1975.5,49 L2048.5,49 A3.75,3.75 0 0 1 2051,51.5 L2058,71.2969 L3083,71.2969 A2.5,2.5 0 0 1 3085.5,73.7969 L3085.5,293.5 A2.5,2.5 0 0 1 3083,296 L1975.5,296 A2.5,2.5 0 0 1 1973,293.5 L1973,51.5 A2.5,2.5 0 0 1 1975.5,49 " fill="#DDDDDD" style="stroke:#000000;stroke-width:1.5;"/><line style="stroke:#000000;stroke-width:1.5;" x1="1973" x2="2058" y1="71.2969" y2="71.2969"/><text fill="#000000" font-family="sans-serif" font-size="14" font-weight="bold" lengthAdjust="spacing" textLength="72" x="1977" y="63.9951">Adapters</text></g><!--cluster Session--><g id="cluster_Session"><path d="M1456.5,131 L1519.5,131 A3.75,3.75 0 0 1 1522,133.5 L1529,153.2969 L1780.5,153.2969 A2.5,2.5 0 0 1 1783,155.7969 L1783,275.5 A2.5,2.5 0 0 1 1780.5,278 L1456.5,278 A2.5,2.5 0 0 1 1454,275.5 L1454,133.5 A2.5,2.5 0 0 1 1456.5,131 " fill="#DDDDDD" style="stroke:#000000;stroke-width:1.5;"/><line style="stroke:#000000;stroke-width:1.5;" x1="1454" x2="1529" y1="153.2969" y2="153.2969"/><text fill="#000000" font-family="sans-serif" font-size="14" font-weight="bold" lengthAdjust="spacing" textLength="62" x="1458" y="145.9951">Session</text></g><!--cluster Controller--><g id="cluster_Controller"><path d="M627.5,576 L707.5,576 A3.75,3.75 0 0 1 710,578.5 L717,598.2969 L1137.5,598.2969 A2.5,2.5 0 0 1 1140,600.7969 L1140,706.5 A2.5,2.5 0 0 1 1137.5,709 L627.5,709 A2.5,2.5 0 0 1 625,706.5 L625,578.5 A2.5,2.5 0 0 1 627.5,576 " fill="#DDDDDD" style="stroke:#000000;stroke-width:1.5;"/><line style="stroke:#000000;stroke-width:1.5;" x1="625" x2="717" y1="598.2969" y2="598.2969"/><text fill="#000000" font-family="sans-serif" font-size="14" font-weight="bold" lengthAdjust="spacing" textLength="79" x="629" y="590.9951">Controller</text></g><!--cluster Mapper--><g id="cluster_Mapper"><path d="M2591.5,874 L2651.5,874 A3.75,3.75 0 0 1 2654,876.5 L2661,896.2969 L3143.5,896.2969 A2.5,2.5 0 0 1 3146,898.7969 L3146,1118.5 A2.5,2.5 0 0 1 3143.5,1121 L2591.5,1121 A2.5,2.5 0 0 1 2589,1118.5 L2589,876.5 A2.5,2.5 0 0 1 2591.5,874 " fill="#DDDDDD" style="stroke:#000000;stroke-width:1.5;"/><line style="stroke:#000000;stroke-width:1.5;" x1="2589" x2="2661" y1="896.2969" y2="896.2969"/><text fill="#000000" font-family="sans-serif" font-size="14" font-weight="bold" lengthAdjust="spacing" textLength="59" x="2593" y="888.9951">Mapper</text></g><!--cluster DTO--><g id="cluster_DTO"><path d="M3181.5,857 L3215.5,857 A3.75,3.75 0 0 1 3218,859.5 L3225,879.2969 L3459.5,879.2969 A2.5,2.5 0 0 1 3462,881.7969 L3462,1168.5 A2.5,2.5 0 0 1 3459.5,1171 L3181.5,1171 A2.5,2.5 0 0 1 3179,1168.5 L3179,859.5 A2.5,2.5 0 0 1 3181.5,857 " fill="#DDDDDD" style="stroke:#000000;stroke-width:1.5;"/><line style="stroke:#000000;stroke-width:1.5;" x1="3179" x2="3225" y1="879.2969" y2="879.2969"/><text fill="#000000" font-family="sans-serif" font-size="14" font-weight="bold" lengthAdjust="spacing" textLength="33" x="3183" y="871.9951">DTO</text></g><!--cluster Domain--><g id="cluster_Domain"><path d="M1251.5,320 L1310.5,320 A3.75,3.75 0 0 1 1313,322.5 L1320,342.2969 L3021.5,342.2969 A2.5,2.5 0 0 1 3024,344.7969 L3024,847.5 A2.5,2.5 0 0 1 3021.5,850 L1251.5,850 A2.5,2.5 0 0 1 1249,847.5 L1249,322.5 A2.5,2.5 0 0 1 1251.5,320 " fill="#DDDDDD" style="stroke:#000000;stroke-width:1.5;"/><line style="stroke:#000000;stroke-width:1.5;" x1="1249" x2="1320" y1="342.2969" y2="342.2969"/><text fill="#000000" font-family="sans-serif" font-size="14" font-weight="bold" lengthAdjust="spacing" textLength="58" x="1253" y="334.9951">Domain</text></g><!--cluster Repository--><g id="cluster_Repository"><path d="M1275.5,474 L1361.5,474 A3.75,3.75 0 0 1 1364,476.5 L1371,496.2969 L2492.5,496.2969 A2.5,2.5 0 0 1 2495,498.7969 L2495,823.5 A2.5,2.5 0 0 1 2492.5,826 L1275.5,826 A2.5,2.5 0 0 1 1273,823.5 L1273,476.5 A2.5,2.5 0 0 1 1275.5,474 " fill="#BBBBBB" style="stroke:#000000;stroke-width:1.5;"/><line style="stroke:#000000;stroke-width:1.5;" x1="1273" x2="1371" y1="496.2969" y2="496.2969"/><text fill="#000000" font-family="sans-serif" font-size="14" font-weight="bold" lengthAdjust="spacing" textLength="85" x="1277" y="488.9951">Repository</text></g><!--cluster Lists--><g id="cluster_Lists"><path d="M1299.5,687 L1337.5,687 A3.75,3.75 0 0 1 1340,689.5 L1347,709.2969 L1937.5,709.2969 A2.5,2.5 0 0 1 1940,711.7969 L1940,799.5 A2.5,2.5 0 0 1 1937.5,802 L1299.5,802 A2.5,2.5 0 0 1 1297,799.5 L1297,689.5 A2.5,2.5 0 0 1 1299.5,687 " fill="#999999" style="stroke:#000000;stroke-width:1.5;"/><line style="stroke:#000000;stroke-width:1.5;" x1="1297" x2="1347" y1="709.2969" y2="709.2969"/><text fill="#000000" font-family="sans-serif" font-size="14" font-weight="bold" lengthAdjust="spacing" textLength="37" x="1301" y="701.9951">Lists</text></g><!--cluster Model--><g id="cluster_Model"><path d="M2737.5,363 L2785.5,363 A3.75,3.75 0 0 1 2788,365.5 L2795,385.2969 L2997.5,385.2969 A2.5,2.5 0 0 1 3000,387.7969 L3000,823.5 A2.5,2.5 0 0 1 2997.5,826 L2737.5,826 A2.5,2.5 0 0 1 2735,823.5 L2735,365.5 A2.5,2.5 0 0 1 2737.5,363 " fill="#BBBBBB" style="stroke:#000000;stroke-width:1.5;"/><line style="stroke:#000000;stroke-width:1.5;" x1="2735" x2="2795" y1="385.2969" y2="385.2969"/><text fill="#000000" font-family="sans-serif" font-size="14" font-weight="bold" lengthAdjust="spacing" textLength="47" x="2739" y="377.9951">Model</text></g><!--class ViewDetailsEntryAgendaUI--><g id="elem_ViewDetailsEntryAgendaUI"><rect codeLine="7" fill="#F1F1F1" height="48" id="ViewDetailsEntryAgendaUI" rx="2.5" ry="2.5" style="stroke:#181818;stroke-width:0.5;" width="212" x="22" y="628"/><ellipse cx="37" cy="644" fill="#ADD1B2" rx="11" ry="11" style="stroke:#181818;stroke-width:1.0;"/><path d="M39.9688,649.6406 Q39.3906,649.9375 38.75,650.0781 Q38.1094,650.2344 37.4063,650.2344 Q34.9063,650.2344 33.5781,648.5938 Q32.2656,646.9375 32.2656,643.8125 Q32.2656,640.6875 33.5781,639.0313 Q34.9063,637.375 37.4063,637.375 Q38.1094,637.375 38.75,637.5313 Q39.4063,637.6875 39.9688,637.9844 L39.9688,640.7031 Q39.3438,640.125 38.75,639.8594 Q38.1563,639.5781 37.5313,639.5781 Q36.1875,639.5781 35.5,640.6563 Q34.8125,641.7188 34.8125,643.8125 Q34.8125,645.9063 35.5,646.9844 Q36.1875,648.0469 37.5313,648.0469 Q38.1563,648.0469 38.75,647.7813 Q39.3438,647.5 39.9688,646.9219 L39.9688,649.6406 Z " fill="#000000"/><text fill="#000000" font-family="sans-serif" font-size="14" lengthAdjust="spacing" textLength="180" x="51" y="648.8467">ViewDetailsEntryAgendaUI</text><line style="stroke:#181818;stroke-width:0.5;" x1="23" x2="233" y1="660" y2="660"/><line style="stroke:#181818;stroke-width:0.5;" x1="23" x2="233" y1="668" y2="668"/></g><!--class AssignTeamUI--><g id="elem_AssignTeamUI"><rect codeLine="10" fill="#F1F1F1" height="64.2969" id="AssignTeamUI" rx="2.5" ry="2.5" style="stroke:#181818;stroke-width:0.5;" width="257" x="295" y="620"/><ellipse cx="370.25" cy="636" fill="#ADD1B2" rx="11" ry="11" style="stroke:#181818;stroke-width:1.0;"/><path d="M373.2188,641.6406 Q372.6406,641.9375 372,642.0781 Q371.3594,642.2344 370.6563,642.2344 Q368.1563,642.2344 366.8281,640.5938 Q365.5156,638.9375 365.5156,635.8125 Q365.5156,632.6875 366.8281,631.0313 Q368.1563,629.375 370.6563,629.375 Q371.3594,629.375 372,629.5313 Q372.6563,629.6875 373.2188,629.9844 L373.2188,632.7031 Q372.5938,632.125 372,631.8594 Q371.4063,631.5781 370.7813,631.5781 Q369.4375,631.5781 368.75,632.6563 Q368.0625,633.7188 368.0625,635.8125 Q368.0625,637.9063 368.75,638.9844 Q369.4375,640.0469 370.7813,640.0469 Q371.4063,640.0469 372,639.7813 Q372.5938,639.5 373.2188,638.9219 L373.2188,641.6406 Z " fill="#000000"/><text fill="#000000" font-family="sans-serif" font-size="14" lengthAdjust="spacing" textLength="98" x="390.75" y="640.8467">AssignTeamUI</text><line style="stroke:#181818;stroke-width:0.5;" x1="296" x2="551" y1="652" y2="652"/><line style="stroke:#181818;stroke-width:0.5;" x1="296" x2="551" y1="660" y2="660"/><text fill="#000000" font-family="sans-serif" font-size="14" lengthAdjust="spacing" textLength="245" x="301" y="676.9951">+setEntry(entryDto: EntryDto): void</text></g><!--class EmailService--><g id="elem_EmailService"><rect codeLine="18" fill="#F1F1F1" height="96.8906" id="EmailService" rx="2.5" ry="2.5" style="stroke:#181818;stroke-width:0.5;" width="553" x="1989" y="183.5"/><ellipse cx="2218.25" cy="199.5" fill="#ADD1B2" rx="11" ry="11" style="stroke:#181818;stroke-width:1.0;"/><path d="M2221.2188,205.1406 Q2220.6406,205.4375 2220,205.5781 Q2219.3594,205.7344 2218.6563,205.7344 Q2216.1563,205.7344 2214.8281,204.0938 Q2213.5156,202.4375 2213.5156,199.3125 Q2213.5156,196.1875 2214.8281,194.5313 Q2216.1563,192.875 2218.6563,192.875 Q2219.3594,192.875 2220,193.0313 Q2220.6563,193.1875 2221.2188,193.4844 L2221.2188,196.2031 Q2220.5938,195.625 2220,195.3594 Q2219.4063,195.0781 2218.7813,195.0781 Q2217.4375,195.0781 2216.75,196.1563 Q2216.0625,197.2188 2216.0625,199.3125 Q2216.0625,201.4063 2216.75,202.4844 Q2217.4375,203.5469 2218.7813,203.5469 Q2219.4063,203.5469 2220,203.2813 Q2220.5938,203 2221.2188,202.4219 L2221.2188,205.1406 Z " fill="#000000"/><text fill="#000000" font-family="sans-serif" font-size="14" lengthAdjust="spacing" textLength="86" x="2238.75" y="204.3467">EmailService</text><line style="stroke:#181818;stroke-width:0.5;" x1="1990" x2="2541" y1="215.5" y2="215.5"/><line style="stroke:#181818;stroke-width:0.5;" x1="1990" x2="2541" y1="223.5" y2="223.5"/><text fill="#000000" font-family="sans-serif" font-size="14" lengthAdjust="spacing" textLength="541" x="1995" y="240.4951">+sendEmailToCollaborator(collaborator: Collaborator, entryDto: EntryDto): void</text><text fill="#000000" font-family="sans-serif" font-size="14" lengthAdjust="spacing" textLength="392" x="1995" y="256.792">+sendEmail(to: String, subject: String, body: String): void</text><text fill="#000000" font-family="sans-serif" font-size="14" lengthAdjust="spacing" textLength="433" x="1995" y="273.0889">+sendToEmailFile(to: String, subject: String, body: String): void</text></g><!--class DeiEmailService--><g id="elem_DeiEmailService"><rect codeLine="24" fill="#F1F1F1" height="64.2969" id="DeiEmailService" rx="2.5" ry="2.5" style="stroke:#181818;stroke-width:0.5;" width="404" x="2665.5" y="88"/><ellipse cx="2808.75" cy="104" fill="#ADD1B2" rx="11" ry="11" style="stroke:#181818;stroke-width:1.0;"/><path d="M2811.7188,109.6406 Q2811.1406,109.9375 2810.5,110.0781 Q2809.8594,110.2344 2809.1563,110.2344 Q2806.6563,110.2344 2805.3281,108.5938 Q2804.0156,106.9375 2804.0156,103.8125 Q2804.0156,100.6875 2805.3281,99.0313 Q2806.6563,97.375 2809.1563,97.375 Q2809.8594,97.375 2810.5,97.5313 Q2811.1563,97.6875 2811.7188,97.9844 L2811.7188,100.7031 Q2811.0938,100.125 2810.5,99.8594 Q2809.9063,99.5781 2809.2813,99.5781 Q2807.9375,99.5781 2807.25,100.6563 Q2806.5625,101.7188 2806.5625,103.8125 Q2806.5625,105.9063 2807.25,106.9844 Q2807.9375,108.0469 2809.2813,108.0469 Q2809.9063,108.0469 2810.5,107.7813 Q2811.0938,107.5 2811.7188,106.9219 L2811.7188,109.6406 Z " fill="#000000"/><text fill="#000000" font-family="sans-serif" font-size="14" lengthAdjust="spacing" textLength="109" x="2829.25" y="108.8467">DeiEmailService</text><line style="stroke:#181818;stroke-width:0.5;" x1="2666.5" x2="3068.5" y1="120" y2="120"/><line style="stroke:#181818;stroke-width:0.5;" x1="2666.5" x2="3068.5" y1="128" y2="128"/><text fill="#000000" font-family="sans-serif" font-size="14" lengthAdjust="spacing" textLength="392" x="2671.5" y="144.9951">+sendEmail(to: String, subject: String, body: String): void</text></g><!--class SendEmailExternalAPI--><g id="elem_SendEmailExternalAPI"><rect codeLine="32" fill="#F1F1F1" height="64.2969" id="SendEmailExternalAPI" rx="2.5" ry="2.5" style="stroke:#181818;stroke-width:0.5;" width="404" x="2063.5" y="84"/><ellipse cx="2186.25" cy="100" fill="#B4A7E5" rx="11" ry="11" style="stroke:#181818;stroke-width:1.0;"/><path d="M2182.1719,95.7656 L2182.1719,93.6094 L2189.5625,93.6094 L2189.5625,95.7656 L2187.0938,95.7656 L2187.0938,103.8438 L2189.5625,103.8438 L2189.5625,106 L2182.1719,106 L2182.1719,103.8438 L2184.6406,103.8438 L2184.6406,95.7656 L2182.1719,95.7656 Z " fill="#000000"/><text fill="#000000" font-family="sans-serif" font-size="14" font-style="italic" lengthAdjust="spacing" textLength="150" x="2206.75" y="104.8467">SendEmailExternalAPI</text><line style="stroke:#181818;stroke-width:0.5;" x1="2064.5" x2="2466.5" y1="116" y2="116"/><line style="stroke:#181818;stroke-width:0.5;" x1="2064.5" x2="2466.5" y1="124" y2="124"/><text fill="#000000" font-family="sans-serif" font-size="14" lengthAdjust="spacing" textLength="392" x="2069.5" y="140.9951">+sendEmail(to: String, subject: String, body: String): void</text></g><!--class GmailService--><g id="elem_GmailService"><rect codeLine="28" fill="#F1F1F1" height="64.2969" id="GmailService" rx="2.5" ry="2.5" style="stroke:#181818;stroke-width:0.5;" width="404" x="2665.5" y="195"/><ellipse cx="2819.25" cy="211" fill="#ADD1B2" rx="11" ry="11" style="stroke:#181818;stroke-width:1.0;"/><path d="M2822.2188,216.6406 Q2821.6406,216.9375 2821,217.0781 Q2820.3594,217.2344 2819.6563,217.2344 Q2817.1563,217.2344 2815.8281,215.5938 Q2814.5156,213.9375 2814.5156,210.8125 Q2814.5156,207.6875 2815.8281,206.0313 Q2817.1563,204.375 2819.6563,204.375 Q2820.3594,204.375 2821,204.5313 Q2821.6563,204.6875 2822.2188,204.9844 L2822.2188,207.7031 Q2821.5938,207.125 2821,206.8594 Q2820.4063,206.5781 2819.7813,206.5781 Q2818.4375,206.5781 2817.75,207.6563 Q2817.0625,208.7188 2817.0625,210.8125 Q2817.0625,212.9063 2817.75,213.9844 Q2818.4375,215.0469 2819.7813,215.0469 Q2820.4063,215.0469 2821,214.7813 Q2821.5938,214.5 2822.2188,213.9219 L2822.2188,216.6406 Z " fill="#000000"/><text fill="#000000" font-family="sans-serif" font-size="14" lengthAdjust="spacing" textLength="88" x="2839.75" y="215.8467">GmailService</text><line style="stroke:#181818;stroke-width:0.5;" x1="2666.5" x2="3068.5" y1="227" y2="227"/><line style="stroke:#181818;stroke-width:0.5;" x1="2666.5" x2="3068.5" y1="235" y2="235"/><text fill="#000000" font-family="sans-serif" font-size="14" lengthAdjust="spacing" textLength="392" x="2671.5" y="251.9951">+sendEmail(to: String, subject: String, body: String): void</text></g><!--class ApplicationSession--><g id="elem_ApplicationSession"><rect codeLine="39" fill="#F1F1F1" height="96.8906" id="ApplicationSession" rx="2.5" ry="2.5" style="stroke:#181818;stroke-width:0.5;" width="297" x="1470" y="165.5"/><ellipse cx="1549.25" cy="181.5" fill="#ADD1B2" rx="11" ry="11" style="stroke:#181818;stroke-width:1.0;"/><path d="M1552.2188,187.1406 Q1551.6406,187.4375 1551,187.5781 Q1550.3594,187.7344 1549.6563,187.7344 Q1547.1563,187.7344 1545.8281,186.0938 Q1544.5156,184.4375 1544.5156,181.3125 Q1544.5156,178.1875 1545.8281,176.5313 Q1547.1563,174.875 1549.6563,174.875 Q1550.3594,174.875 1551,175.0313 Q1551.6563,175.1875 1552.2188,175.4844 L1552.2188,178.2031 Q1551.5938,177.625 1551,177.3594 Q1550.4063,177.0781 1549.7813,177.0781 Q1548.4375,177.0781 1547.75,178.1563 Q1547.0625,179.2188 1547.0625,181.3125 Q1547.0625,183.4063 1547.75,184.4844 Q1548.4375,185.5469 1549.7813,185.5469 Q1550.4063,185.5469 1551,185.2813 Q1551.5938,185 1552.2188,184.4219 L1552.2188,187.1406 Z " fill="#000000"/><text fill="#000000" font-family="sans-serif" font-size="14" lengthAdjust="spacing" textLength="130" x="1569.75" y="186.3467">ApplicationSession</text><line style="stroke:#181818;stroke-width:0.5;" x1="1471" x2="1766" y1="197.5" y2="197.5"/><text fill="#000000" font-family="sans-serif" font-size="14" lengthAdjust="spacing" textLength="203" x="1476" y="214.4951">-instance: ApplicationSession</text><line style="stroke:#181818;stroke-width:0.5;" x1="1471" x2="1766" y1="221.7969" y2="221.7969"/><text fill="#000000" font-family="sans-serif" font-size="14" lengthAdjust="spacing" textLength="243" x="1476" y="238.792">+getInstance(): ApplicationSession</text><text fill="#000000" font-family="sans-serif" font-size="14" lengthAdjust="spacing" textLength="285" x="1476" y="255.0889">+getEmailServiceInstance(): EmailService</text></g><!--class ViewDetailsEntryController--><g id="elem_ViewDetailsEntryController"><rect codeLine="48" fill="#F1F1F1" height="80.5938" id="ViewDetailsEntryController" rx="2.5" ry="2.5" style="stroke:#181818;stroke-width:0.5;" width="483" x="641" y="611.5"/><ellipse cx="787.75" cy="627.5" fill="#ADD1B2" rx="11" ry="11" style="stroke:#181818;stroke-width:1.0;"/><path d="M790.7188,633.1406 Q790.1406,633.4375 789.5,633.5781 Q788.8594,633.7344 788.1563,633.7344 Q785.6563,633.7344 784.3281,632.0938 Q783.0156,630.4375 783.0156,627.3125 Q783.0156,624.1875 784.3281,622.5313 Q785.6563,620.875 788.1563,620.875 Q788.8594,620.875 789.5,621.0313 Q790.1563,621.1875 790.7188,621.4844 L790.7188,624.2031 Q790.0938,623.625 789.5,623.3594 Q788.9063,623.0781 788.2813,623.0781 Q786.9375,623.0781 786.25,624.1563 Q785.5625,625.2188 785.5625,627.3125 Q785.5625,629.4063 786.25,630.4844 Q786.9375,631.5469 788.2813,631.5469 Q788.9063,631.5469 789.5,631.2813 Q790.0938,631 790.7188,630.4219 L790.7188,633.1406 Z " fill="#000000"/><text fill="#000000" font-family="sans-serif" font-size="14" lengthAdjust="spacing" textLength="181" x="808.25" y="632.3467">ViewDetailsEntryController</text><line style="stroke:#181818;stroke-width:0.5;" x1="642" x2="1123" y1="643.5" y2="643.5"/><line style="stroke:#181818;stroke-width:0.5;" x1="642" x2="1123" y1="651.5" y2="651.5"/><text fill="#000000" font-family="sans-serif" font-size="14" lengthAdjust="spacing" textLength="471" x="647" y="668.4951">+getTeamListPossibleForEntry(entryDto: EntryDto): List&lt;TeamDto&gt;</text><text fill="#000000" font-family="sans-serif" font-size="14" lengthAdjust="spacing" textLength="466" x="647" y="684.792">+assignTeamToEntry(teamDto: TeamDto, entryDto: EntryDto): void</text></g><!--class TeamMapper--><g id="elem_TeamMapper"><rect codeLine="57" fill="#F1F1F1" height="64.2969" id="TeamMapper" rx="2.5" ry="2.5" style="stroke:#181818;stroke-width:0.5;" width="470" x="2632.5" y="1041"/><ellipse cx="2817.75" cy="1057" fill="#ADD1B2" rx="11" ry="11" style="stroke:#181818;stroke-width:1.0;"/><path d="M2820.7188,1062.6406 Q2820.1406,1062.9375 2819.5,1063.0781 Q2818.8594,1063.2344 2818.1563,1063.2344 Q2815.6563,1063.2344 2814.3281,1061.5938 Q2813.0156,1059.9375 2813.0156,1056.8125 Q2813.0156,1053.6875 2814.3281,1052.0313 Q2815.6563,1050.375 2818.1563,1050.375 Q2818.8594,1050.375 2819.5,1050.5313 Q2820.1563,1050.6875 2820.7188,1050.9844 L2820.7188,1053.7031 Q2820.0938,1053.125 2819.5,1052.8594 Q2818.9063,1052.5781 2818.2813,1052.5781 Q2816.9375,1052.5781 2816.25,1053.6563 Q2815.5625,1054.7188 2815.5625,1056.8125 Q2815.5625,1058.9063 2816.25,1059.9844 Q2816.9375,1061.0469 2818.2813,1061.0469 Q2818.9063,1061.0469 2819.5,1060.7813 Q2820.0938,1060.5 2820.7188,1059.9219 L2820.7188,1062.6406 Z " fill="#000000"/><text fill="#000000" font-family="sans-serif" font-size="14" lengthAdjust="spacing" textLength="91" x="2838.25" y="1061.8467">TeamMapper</text><line style="stroke:#181818;stroke-width:0.5;" x1="2633.5" x2="3101.5" y1="1073" y2="1073"/><line style="stroke:#181818;stroke-width:0.5;" x1="2633.5" x2="3101.5" y1="1081" y2="1081"/><text fill="#000000" font-family="sans-serif" font-size="14" lengthAdjust="spacing" textLength="458" x="2638.5" y="1097.9951">+teamListToTeamDtoList(teamList: List&lt;Team&gt;): List&lt;TeamDto&gt;</text></g><!--class EntryMapper--><g id="elem_EntryMapper"><rect codeLine="61" fill="#F1F1F1" height="96.8906" id="EntryMapper" rx="2.5" ry="2.5" style="stroke:#181818;stroke-width:0.5;" width="525" x="2605" y="908.5"/><ellipse cx="2819.75" cy="924.5" fill="#ADD1B2" rx="11" ry="11" style="stroke:#181818;stroke-width:1.0;"/><path d="M2822.7188,930.1406 Q2822.1406,930.4375 2821.5,930.5781 Q2820.8594,930.7344 2820.1563,930.7344 Q2817.6563,930.7344 2816.3281,929.0938 Q2815.0156,927.4375 2815.0156,924.3125 Q2815.0156,921.1875 2816.3281,919.5313 Q2817.6563,917.875 2820.1563,917.875 Q2820.8594,917.875 2821.5,918.0313 Q2822.1563,918.1875 2822.7188,918.4844 L2822.7188,921.2031 Q2822.0938,920.625 2821.5,920.3594 Q2820.9063,920.0781 2820.2813,920.0781 Q2818.9375,920.0781 2818.25,921.1563 Q2817.5625,922.2188 2817.5625,924.3125 Q2817.5625,926.4063 2818.25,927.4844 Q2818.9375,928.5469 2820.2813,928.5469 Q2820.9063,928.5469 2821.5,928.2813 Q2822.0938,928 2822.7188,927.4219 L2822.7188,930.1406 Z " fill="#000000"/><text fill="#000000" font-family="sans-serif" font-size="14" lengthAdjust="spacing" textLength="87" x="2840.25" y="929.3467">EntryMapper</text><line style="stroke:#181818;stroke-width:0.5;" x1="2606" x2="3129" y1="940.5" y2="940.5"/><line style="stroke:#181818;stroke-width:0.5;" x1="2606" x2="3129" y1="948.5" y2="948.5"/><text fill="#000000" font-family="sans-serif" font-size="14" lengthAdjust="spacing" textLength="395" x="2611" y="965.4951">+entryDtoToEntry(entryDto: EntryDto, entry: Entry): Entry</text><text fill="#000000" font-family="sans-serif" font-size="14" lengthAdjust="spacing" textLength="513" x="2611" y="981.792">+shouldUpdateTeamOrVehicles(entry: Entry, entryDto: EntryDto): boolean</text><text fill="#000000" font-family="sans-serif" font-size="14" lengthAdjust="spacing" textLength="448" x="2611" y="998.0889">+updateTeamAndVehicles(entry: Entry, entryDto: EntryDto): void</text></g><!--class EntryDto--><g id="elem_EntryDto"><rect codeLine="70" fill="#F1F1F1" height="145.7813" id="EntryDto" rx="2.5" ry="2.5" style="stroke:#181818;stroke-width:0.5;" width="251" x="3195" y="892"/><ellipse cx="3286.25" cy="908" fill="#ADD1B2" rx="11" ry="11" style="stroke:#181818;stroke-width:1.0;"/><path d="M3289.2188,913.6406 Q3288.6406,913.9375 3288,914.0781 Q3287.3594,914.2344 3286.6563,914.2344 Q3284.1563,914.2344 3282.8281,912.5938 Q3281.5156,910.9375 3281.5156,907.8125 Q3281.5156,904.6875 3282.8281,903.0313 Q3284.1563,901.375 3286.6563,901.375 Q3287.3594,901.375 3288,901.5313 Q3288.6563,901.6875 3289.2188,901.9844 L3289.2188,904.7031 Q3288.5938,904.125 3288,903.8594 Q3287.4063,903.5781 3286.7813,903.5781 Q3285.4375,903.5781 3284.75,904.6563 Q3284.0625,905.7188 3284.0625,907.8125 Q3284.0625,909.9063 3284.75,910.9844 Q3285.4375,912.0469 3286.7813,912.0469 Q3287.4063,912.0469 3288,911.7813 Q3288.5938,911.5 3289.2188,910.9219 L3289.2188,913.6406 Z " fill="#000000"/><text fill="#000000" font-family="sans-serif" font-size="14" lengthAdjust="spacing" textLength="60" x="3306.75" y="912.8467">EntryDto</text><line style="stroke:#181818;stroke-width:0.5;" x1="3196" x2="3445" y1="924" y2="924"/><text fill="#000000" font-family="sans-serif" font-size="14" lengthAdjust="spacing" textLength="118" x="3201" y="940.9951">+startDate: Date</text><text fill="#000000" font-family="sans-serif" font-size="14" lengthAdjust="spacing" textLength="104" x="3201" y="957.292">+status: String</text><text fill="#000000" font-family="sans-serif" font-size="14" lengthAdjust="spacing" textLength="184" x="3201" y="973.5889">+teamAssigned: TeamDto</text><text fill="#000000" font-family="sans-serif" font-size="14" lengthAdjust="spacing" textLength="128" x="3201" y="989.8857">+reference: String</text><text fill="#000000" font-family="sans-serif" font-size="14" lengthAdjust="spacing" textLength="123" x="3201" y="1006.1826">+finishDate: Date</text><line style="stroke:#181818;stroke-width:0.5;" x1="3196" x2="3445" y1="1013.4844" y2="1013.4844"/><text fill="#000000" font-family="sans-serif" font-size="14" lengthAdjust="spacing" textLength="239" x="3201" y="1030.4795">+assignTeam(teamDto: TeamDto)</text></g><!--class TeamDto--><g id="elem_TeamDto"><rect codeLine="79" fill="#F1F1F1" height="80.5938" id="TeamDto" rx="2.5" ry="2.5" style="stroke:#181818;stroke-width:0.5;" width="229" x="3206" y="1073.5"/><ellipse cx="3284.25" cy="1089.5" fill="#ADD1B2" rx="11" ry="11" style="stroke:#181818;stroke-width:1.0;"/><path d="M3287.2188,1095.1406 Q3286.6406,1095.4375 3286,1095.5781 Q3285.3594,1095.7344 3284.6563,1095.7344 Q3282.1563,1095.7344 3280.8281,1094.0938 Q3279.5156,1092.4375 3279.5156,1089.3125 Q3279.5156,1086.1875 3280.8281,1084.5313 Q3282.1563,1082.875 3284.6563,1082.875 Q3285.3594,1082.875 3286,1083.0313 Q3286.6563,1083.1875 3287.2188,1083.4844 L3287.2188,1086.2031 Q3286.5938,1085.625 3286,1085.3594 Q3285.4063,1085.0781 3284.7813,1085.0781 Q3283.4375,1085.0781 3282.75,1086.1563 Q3282.0625,1087.2188 3282.0625,1089.3125 Q3282.0625,1091.4063 3282.75,1092.4844 Q3283.4375,1093.5469 3284.7813,1093.5469 Q3285.4063,1093.5469 3286,1093.2813 Q3286.5938,1093 3287.2188,1092.4219 L3287.2188,1095.1406 Z " fill="#000000"/><text fill="#000000" font-family="sans-serif" font-size="14" lengthAdjust="spacing" textLength="64" x="3304.75" y="1094.3467">TeamDto</text><line style="stroke:#181818;stroke-width:0.5;" x1="3207" x2="3434" y1="1105.5" y2="1105.5"/><text fill="#000000" font-family="sans-serif" font-size="14" lengthAdjust="spacing" textLength="136" x="3212" y="1122.4951">+teamName: String</text><text fill="#000000" font-family="sans-serif" font-size="14" lengthAdjust="spacing" textLength="217" x="3212" y="1138.792">+members: List&lt;Collaborator&gt;</text><line style="stroke:#181818;stroke-width:0.5;" x1="3207" x2="3434" y1="1146.0938" y2="1146.0938"/></g><!--class Repositories--><g id="elem_Repositories"><rect codeLine="90" fill="#F1F1F1" height="162.0781" id="Repositories" rx="2.5" ry="2.5" style="stroke:#181818;stroke-width:0.5;" width="292" x="1472.5" y="509"/><ellipse cx="1570.75" cy="525" fill="#ADD1B2" rx="11" ry="11" style="stroke:#181818;stroke-width:1.0;"/><path d="M1573.7188,530.6406 Q1573.1406,530.9375 1572.5,531.0781 Q1571.8594,531.2344 1571.1563,531.2344 Q1568.6563,531.2344 1567.3281,529.5938 Q1566.0156,527.9375 1566.0156,524.8125 Q1566.0156,521.6875 1567.3281,520.0313 Q1568.6563,518.375 1571.1563,518.375 Q1571.8594,518.375 1572.5,518.5313 Q1573.1563,518.6875 1573.7188,518.9844 L1573.7188,521.7031 Q1573.0938,521.125 1572.5,520.8594 Q1571.9063,520.5781 1571.2813,520.5781 Q1569.9375,520.5781 1569.25,521.6563 Q1568.5625,522.7188 1568.5625,524.8125 Q1568.5625,526.9063 1569.25,527.9844 Q1569.9375,529.0469 1571.2813,529.0469 Q1571.9063,529.0469 1572.5,528.7813 Q1573.0938,528.5 1573.7188,527.9219 L1573.7188,530.6406 Z " fill="#000000"/><text fill="#000000" font-family="sans-serif" font-size="14" lengthAdjust="spacing" textLength="87" x="1591.25" y="529.8467">Repositories</text><line style="stroke:#181818;stroke-width:0.5;" x1="1473.5" x2="1763.5" y1="541" y2="541"/><text fill="#000000" font-family="sans-serif" font-size="14" lengthAdjust="spacing" textLength="232" x="1478.5" y="557.9951">-entryRepository: EntryRepository</text><text fill="#000000" font-family="sans-serif" font-size="14" lengthAdjust="spacing" textLength="236" x="1478.5" y="574.292">-teamRepository: TeamRepository</text><text fill="#000000" font-family="sans-serif" font-size="14" lengthAdjust="spacing" textLength="201" x="1478.5" y="590.5889">-static instance: Repositories</text><line style="stroke:#181818;stroke-width:0.5;" x1="1473.5" x2="1763.5" y1="597.8906" y2="597.8906"/><text fill="#000000" font-family="sans-serif" font-size="14" lengthAdjust="spacing" textLength="200" x="1478.5" y="614.8857">+getInstance(): Repositories</text><text fill="#000000" font-family="sans-serif" font-size="14" lengthAdjust="spacing" textLength="272" x="1478.5" y="631.1826">+getEntryRepository(): EntryRepository</text><text fill="#000000" font-family="sans-serif" font-size="14" lengthAdjust="spacing" textLength="280" x="1478.5" y="647.4795">+getTeamRepository(): TeamRepository</text><text fill="#000000" font-family="sans-serif" font-size="14" lengthAdjust="spacing" textLength="102" x="1478.5" y="663.7764">-Repositories()</text></g><!--class EntryRepository--><g id="elem_EntryRepository"><rect codeLine="100" fill="#F1F1F1" height="113.1875" id="EntryRepository" rx="2.5" ry="2.5" style="stroke:#181818;stroke-width:0.5;" width="427" x="2052" y="509.5"/><ellipse cx="2206.75" cy="525.5" fill="#ADD1B2" rx="11" ry="11" style="stroke:#181818;stroke-width:1.0;"/><path d="M2209.7188,531.1406 Q2209.1406,531.4375 2208.5,531.5781 Q2207.8594,531.7344 2207.1563,531.7344 Q2204.6563,531.7344 2203.3281,530.0938 Q2202.0156,528.4375 2202.0156,525.3125 Q2202.0156,522.1875 2203.3281,520.5313 Q2204.6563,518.875 2207.1563,518.875 Q2207.8594,518.875 2208.5,519.0313 Q2209.1563,519.1875 2209.7188,519.4844 L2209.7188,522.2031 Q2209.0938,521.625 2208.5,521.3594 Q2207.9063,521.0781 2207.2813,521.0781 Q2205.9375,521.0781 2205.25,522.1563 Q2204.5625,523.2188 2204.5625,525.3125 Q2204.5625,527.4063 2205.25,528.4844 Q2205.9375,529.5469 2207.2813,529.5469 Q2207.9063,529.5469 2208.5,529.2813 Q2209.0938,529 2209.7188,528.4219 L2209.7188,531.1406 Z " fill="#000000"/><text fill="#000000" font-family="sans-serif" font-size="14" lengthAdjust="spacing" textLength="109" x="2227.25" y="530.3467">EntryRepository</text><line style="stroke:#181818;stroke-width:0.5;" x1="2053" x2="2478" y1="541.5" y2="541.5"/><text fill="#000000" font-family="sans-serif" font-size="14" lengthAdjust="spacing" textLength="142" x="2058" y="558.4951">-agenda: AgendaList</text><line style="stroke:#181818;stroke-width:0.5;" x1="2053" x2="2478" y1="565.7969" y2="565.7969"/><text fill="#000000" font-family="sans-serif" font-size="14" lengthAdjust="spacing" textLength="183" x="2058" y="582.792">+getAgenda(): AgendaList</text><text fill="#000000" font-family="sans-serif" font-size="14" lengthAdjust="spacing" textLength="415" x="2058" y="599.0889">+assignTeamOnEntry(entryDto: EntryDto): Optional&lt;Entry&gt;</text><text fill="#000000" font-family="sans-serif" font-size="14" lengthAdjust="spacing" textLength="352" x="2058" y="615.3857">+searchForEntryAgenda(entryDto: EntryDto): Entry</text></g><!--class TeamRepository--><g id="elem_TeamRepository"><rect codeLine="107" fill="#F1F1F1" height="64.2969" id="TeamRepository" rx="2.5" ry="2.5" style="stroke:#181818;stroke-width:0.5;" width="199" x="2166" y="658"/><ellipse cx="2205.3" cy="674" fill="#ADD1B2" rx="11" ry="11" style="stroke:#181818;stroke-width:1.0;"/><path d="M2208.2688,679.6406 Q2207.6906,679.9375 2207.05,680.0781 Q2206.4094,680.2344 2205.7063,680.2344 Q2203.2063,680.2344 2201.8781,678.5938 Q2200.5656,676.9375 2200.5656,673.8125 Q2200.5656,670.6875 2201.8781,669.0313 Q2203.2063,667.375 2205.7063,667.375 Q2206.4094,667.375 2207.05,667.5313 Q2207.7063,667.6875 2208.2688,667.9844 L2208.2688,670.7031 Q2207.6438,670.125 2207.05,669.8594 Q2206.4563,669.5781 2205.8313,669.5781 Q2204.4875,669.5781 2203.8,670.6563 Q2203.1125,671.7188 2203.1125,673.8125 Q2203.1125,675.9063 2203.8,676.9844 Q2204.4875,678.0469 2205.8313,678.0469 Q2206.4563,678.0469 2207.05,677.7813 Q2207.6438,677.5 2208.2688,676.9219 L2208.2688,679.6406 Z " fill="#000000"/><text fill="#000000" font-family="sans-serif" font-size="14" lengthAdjust="spacing" textLength="113" x="2224.7" y="678.8467">TeamRepository</text><line style="stroke:#181818;stroke-width:0.5;" x1="2167" x2="2364" y1="690" y2="690"/><line style="stroke:#181818;stroke-width:0.5;" x1="2167" x2="2364" y1="698" y2="698"/><text fill="#000000" font-family="sans-serif" font-size="14" lengthAdjust="spacing" textLength="187" x="2172" y="714.9951">+getTeams(): List&lt;Team&gt;</text></g><!--class AgendaList--><g id="elem_AgendaList"><rect codeLine="112" fill="#F1F1F1" height="64.2969" id="AgendaList" rx="2.5" ry="2.5" style="stroke:#181818;stroke-width:0.5;" width="611" x="1313" y="722"/><ellipse cx="1576.25" cy="738" fill="#ADD1B2" rx="11" ry="11" style="stroke:#181818;stroke-width:1.0;"/><path d="M1579.2188,743.6406 Q1578.6406,743.9375 1578,744.0781 Q1577.3594,744.2344 1576.6563,744.2344 Q1574.1563,744.2344 1572.8281,742.5938 Q1571.5156,740.9375 1571.5156,737.8125 Q1571.5156,734.6875 1572.8281,733.0313 Q1574.1563,731.375 1576.6563,731.375 Q1577.3594,731.375 1578,731.5313 Q1578.6563,731.6875 1579.2188,731.9844 L1579.2188,734.7031 Q1578.5938,734.125 1578,733.8594 Q1577.4063,733.5781 1576.7813,733.5781 Q1575.4375,733.5781 1574.75,734.6563 Q1574.0625,735.7188 1574.0625,737.8125 Q1574.0625,739.9063 1574.75,740.9844 Q1575.4375,742.0469 1576.7813,742.0469 Q1577.4063,742.0469 1578,741.7813 Q1578.5938,741.5 1579.2188,740.9219 L1579.2188,743.6406 Z " fill="#000000"/><text fill="#000000" font-family="sans-serif" font-size="14" lengthAdjust="spacing" textLength="76" x="1596.75" y="742.8467">AgendaList</text><line style="stroke:#181818;stroke-width:0.5;" x1="1314" x2="1923" y1="754" y2="754"/><line style="stroke:#181818;stroke-width:0.5;" x1="1314" x2="1923" y1="762" y2="762"/><text fill="#000000" font-family="sans-serif" font-size="14" lengthAdjust="spacing" textLength="599" x="1319" y="778.9951">+filterTeamNotActivateInTime(teamList: List&lt;Team&gt;, entryDto: EntryDto): List&lt;Team&gt;</text></g><!--class Entry--><g id="elem_Entry"><rect codeLine="120" fill="#F1F1F1" height="178.375" id="Entry" rx="2.5" ry="2.5" style="stroke:#181818;stroke-width:0.5;" width="233" x="2751" y="515"/><ellipse cx="2845.75" cy="531" fill="#ADD1B2" rx="11" ry="11" style="stroke:#181818;stroke-width:1.0;"/><path d="M2848.7188,536.6406 Q2848.1406,536.9375 2847.5,537.0781 Q2846.8594,537.2344 2846.1563,537.2344 Q2843.6563,537.2344 2842.3281,535.5938 Q2841.0156,533.9375 2841.0156,530.8125 Q2841.0156,527.6875 2842.3281,526.0313 Q2843.6563,524.375 2846.1563,524.375 Q2846.8594,524.375 2847.5,524.5313 Q2848.1563,524.6875 2848.7188,524.9844 L2848.7188,527.7031 Q2848.0938,527.125 2847.5,526.8594 Q2846.9063,526.5781 2846.2813,526.5781 Q2844.9375,526.5781 2844.25,527.6563 Q2843.5625,528.7188 2843.5625,530.8125 Q2843.5625,532.9063 2844.25,533.9844 Q2844.9375,535.0469 2846.2813,535.0469 Q2846.9063,535.0469 2847.5,534.7813 Q2848.0938,534.5 2848.7188,533.9219 L2848.7188,536.6406 Z " fill="#000000"/><text fill="#000000" font-family="sans-serif" font-size="14" lengthAdjust="spacing" textLength="35" x="2866.25" y="535.8467">Entry</text><line style="stroke:#181818;stroke-width:0.5;" x1="2752" x2="2983" y1="547" y2="547"/><text fill="#000000" font-family="sans-serif" font-size="14" lengthAdjust="spacing" textLength="128" x="2757" y="563.9951">+reference: String</text><text fill="#000000" font-family="sans-serif" font-size="14" lengthAdjust="spacing" textLength="104" x="2757" y="580.292">+status: String</text><text fill="#000000" font-family="sans-serif" font-size="14" lengthAdjust="spacing" textLength="118" x="2757" y="596.5889">+startDate: Date</text><text fill="#000000" font-family="sans-serif" font-size="14" lengthAdjust="spacing" textLength="159" x="2757" y="612.8857">+teamAssigned: Team</text><text fill="#000000" font-family="sans-serif" font-size="14" lengthAdjust="spacing" textLength="123" x="2757" y="629.1826">+finishDate: Date</text><text fill="#000000" font-family="sans-serif" font-size="14" lengthAdjust="spacing" textLength="138" x="2757" y="645.4795">+description: String</text><text fill="#000000" font-family="sans-serif" font-size="14" lengthAdjust="spacing" textLength="86" x="2757" y="661.7764">+title: String</text><line style="stroke:#181818;stroke-width:0.5;" x1="2752" x2="2983" y1="669.0781" y2="669.0781"/><text fill="#000000" font-family="sans-serif" font-size="14" lengthAdjust="spacing" textLength="221" x="2757" y="686.0732">+getTeamAssigned(): TeamDto</text></g><!--class Team--><g id="elem_Team"><rect codeLine="131" fill="#F1F1F1" height="80.5938" id="Team" rx="2.5" ry="2.5" style="stroke:#181818;stroke-width:0.5;" width="229" x="2753" y="728.5"/><ellipse cx="2843.75" cy="744.5" fill="#ADD1B2" rx="11" ry="11" style="stroke:#181818;stroke-width:1.0;"/><path d="M2846.7188,750.1406 Q2846.1406,750.4375 2845.5,750.5781 Q2844.8594,750.7344 2844.1563,750.7344 Q2841.6563,750.7344 2840.3281,749.0938 Q2839.0156,747.4375 2839.0156,744.3125 Q2839.0156,741.1875 2840.3281,739.5313 Q2841.6563,737.875 2844.1563,737.875 Q2844.8594,737.875 2845.5,738.0313 Q2846.1563,738.1875 2846.7188,738.4844 L2846.7188,741.2031 Q2846.0938,740.625 2845.5,740.3594 Q2844.9063,740.0781 2844.2813,740.0781 Q2842.9375,740.0781 2842.25,741.1563 Q2841.5625,742.2188 2841.5625,744.3125 Q2841.5625,746.4063 2842.25,747.4844 Q2842.9375,748.5469 2844.2813,748.5469 Q2844.9063,748.5469 2845.5,748.2813 Q2846.0938,748 2846.7188,747.4219 L2846.7188,750.1406 Z " fill="#000000"/><text fill="#000000" font-family="sans-serif" font-size="14" lengthAdjust="spacing" textLength="39" x="2864.25" y="749.3467">Team</text><line style="stroke:#181818;stroke-width:0.5;" x1="2754" x2="2981" y1="760.5" y2="760.5"/><text fill="#000000" font-family="sans-serif" font-size="14" lengthAdjust="spacing" textLength="136" x="2759" y="777.4951">+teamName: String</text><text fill="#000000" font-family="sans-serif" font-size="14" lengthAdjust="spacing" textLength="217" x="2759" y="793.792">+members: List&lt;Collaborator&gt;</text><line style="stroke:#181818;stroke-width:0.5;" x1="2754" x2="2981" y1="801.0938" y2="801.0938"/></g><!--class Collaborator--><g id="elem_Collaborator"><rect codeLine="136" fill="#F1F1F1" height="80.5938" id="Collaborator" rx="2.5" ry="2.5" style="stroke:#181818;stroke-width:0.5;" width="115" x="2810" y="398.5"/><ellipse cx="2825" cy="414.5" fill="#ADD1B2" rx="11" ry="11" style="stroke:#181818;stroke-width:1.0;"/><path d="M2827.9688,420.1406 Q2827.3906,420.4375 2826.75,420.5781 Q2826.1094,420.7344 2825.4063,420.7344 Q2822.9063,420.7344 2821.5781,419.0938 Q2820.2656,417.4375 2820.2656,414.3125 Q2820.2656,411.1875 2821.5781,409.5313 Q2822.9063,407.875 2825.4063,407.875 Q2826.1094,407.875 2826.75,408.0313 Q2827.4063,408.1875 2827.9688,408.4844 L2827.9688,411.2031 Q2827.3438,410.625 2826.75,410.3594 Q2826.1563,410.0781 2825.5313,410.0781 Q2824.1875,410.0781 2823.5,411.1563 Q2822.8125,412.2188 2822.8125,414.3125 Q2822.8125,416.4063 2823.5,417.4844 Q2824.1875,418.5469 2825.5313,418.5469 Q2826.1563,418.5469 2826.75,418.2813 Q2827.3438,418 2827.9688,417.4219 L2827.9688,420.1406 Z " fill="#000000"/><text fill="#000000" font-family="sans-serif" font-size="14" lengthAdjust="spacing" textLength="83" x="2839" y="419.3467">Collaborator</text><line style="stroke:#181818;stroke-width:0.5;" x1="2811" x2="2924" y1="430.5" y2="430.5"/><text fill="#000000" font-family="sans-serif" font-size="14" lengthAdjust="spacing" textLength="100" x="2816" y="447.4951">+name: String</text><text fill="#000000" font-family="sans-serif" font-size="14" lengthAdjust="spacing" textLength="97" x="2816" y="463.792">+email: String</text><line style="stroke:#181818;stroke-width:0.5;" x1="2811" x2="2924" y1="471.0938" y2="471.0938"/></g><!--reverse link SendEmailExternalAPI to DeiEmailService--><g id="link_SendEmailExternalAPI_DeiEmailService"><path d="M2485.5396,117.4587 C2549.2296,117.8787 2601.61,118.23 2665.31,118.66 " fill="none" id="SendEmailExternalAPI-backto-DeiEmailService" style="stroke:#181818;stroke-width:1.0;stroke-dasharray:7.0,7.0;"/><polygon fill="none" points="2467.54,117.34,2485.5,123.4586,2485.5792,111.4588,2467.54,117.34" style="stroke:#181818;stroke-width:1.0;"/></g><!--reverse link SendEmailExternalAPI to GmailService--><g id="link_SendEmailExternalAPI_GmailService"><path d="M2461.7094,151.2714 C2494.3094,157.2014 2510.33,160.15 2542,166 C2592.45,175.32 2647.29,185.58 2697.28,194.98 " fill="none" id="SendEmailExternalAPI-backto-GmailService" style="stroke:#181818;stroke-width:1.0;stroke-dasharray:7.0,7.0;"/><polygon fill="none" points="2444,148.05,2460.6356,157.1745,2462.7832,145.3682,2444,148.05" style="stroke:#181818;stroke-width:1.0;"/></g><!--link ViewDetailsEntryAgendaUI to AssignTeamUI--><g id="link_ViewDetailsEntryAgendaUI_AssignTeamUI"><path codeLine="145" d="M234.13,652 C253.79,652 268.53,652 288.78,652 " fill="none" id="ViewDetailsEntryAgendaUI-to-AssignTeamUI" style="stroke:#181818;stroke-width:1.0;stroke-dasharray:7.0,7.0;"/><polygon fill="#181818" points="294.78,652,285.78,648,289.78,652,285.78,656,294.78,652" style="stroke:#181818;stroke-width:1.0;"/></g><!--link AssignTeamUI to ViewDetailsEntryController--><g id="link_AssignTeamUI_ViewDetailsEntryController"><path codeLine="146" d="M552.1,652 C579.96,652 604.33,652 634.98,652 " fill="none" id="AssignTeamUI-to-ViewDetailsEntryController" style="stroke:#181818;stroke-width:1.0;stroke-dasharray:7.0,7.0;"/><polygon fill="#181818" points="640.98,652,631.98,648,635.98,652,631.98,656,640.98,652" style="stroke:#181818;stroke-width:1.0;"/></g><!--link ViewDetailsEntryController to Repositories--><g id="link_ViewDetailsEntryController_Repositories"><path codeLine="147" d="M1124.09,631.68 C1239.16,621.96 1367.1213,611.1447 1466.4013,602.7647 " fill="none" id="ViewDetailsEntryController-to-Repositories" style="stroke:#181818;stroke-width:1.0;stroke-dasharray:7.0,7.0;"/><polygon fill="#181818" points="1472.38,602.26,1463.0755,599.0312,1467.3977,602.6805,1463.7483,607.0028,1472.38,602.26" style="stroke:#181818;stroke-width:1.0;"/><text fill="#000000" font-family="sans-serif" font-size="13" lengthAdjust="spacing" textLength="75" x="1157" y="619.0669">repositories</text></g><!--link ViewDetailsEntryController to EntryRepository--><g id="link_ViewDetailsEntryController_EntryRepository"><path codeLine="148" d="M925.28,611.47 C987.83,553.93 1112.28,451.2 1241,412 C1541.59,320.46 1641.8,341.46 1948,412 C2029.73,430.83 2109.6167,470.7078 2170.9467,506.4678 " fill="none" id="ViewDetailsEntryController-to-EntryRepository" style="stroke:#181818;stroke-width:1.0;stroke-dasharray:7.0,7.0;"/><polygon fill="#181818" points="2176.13,509.49,2170.3699,501.5012,2171.8106,506.9715,2166.3403,508.4122,2176.13,509.49" style="stroke:#181818;stroke-width:1.0;"/><text fill="#000000" font-family="sans-serif" font-size="13" lengthAdjust="spacing" textLength="100" x="1568.5" y="347.0669">entryRepository</text></g><!--link ViewDetailsEntryController to TeamRepository--><g id="link_ViewDetailsEntryController_TeamRepository"><path codeLine="149" d="M950.39,611.45 C1020.08,571.76 1133.85,514.01 1241,491 C1394.61,458.01 1830.78,386.39 1948,491 C1972.86,513.19 1942.05,615.83 1965,640 C2015.54,693.23 2093.7223,703.5175 2159.9823,701.6675 " fill="none" id="ViewDetailsEntryController-to-TeamRepository" style="stroke:#181818;stroke-width:1.0;stroke-dasharray:7.0,7.0;"/><polygon fill="#181818" points="2165.98,701.5,2156.8719,697.7527,2160.9819,701.6395,2157.0951,705.7496,2165.98,701.5" style="stroke:#181818;stroke-width:1.0;"/><text fill="#000000" font-family="sans-serif" font-size="13" lengthAdjust="spacing" textLength="101" x="1568" y="433.0669">teamRepository</text></g><!--link ViewDetailsEntryController to AgendaList--><g id="link_ViewDetailsEntryController_AgendaList"><path codeLine="150" d="M1085.77,692.52 C1136.32,701.77 1190.53,710.94 1241,718 C1264.33,721.26 1282.5504,723.6249 1306.9004,726.4649 " fill="none" id="ViewDetailsEntryController-to-AgendaList" style="stroke:#181818;stroke-width:1.0;stroke-dasharray:7.0,7.0;"/><polygon fill="#181818" points="1312.86,727.16,1304.384,722.1443,1307.8937,726.5808,1303.4572,730.0904,1312.86,727.16" style="stroke:#181818;stroke-width:1.0;"/><text fill="#000000" font-family="sans-serif" font-size="13" lengthAdjust="spacing" textLength="70" x="1159.5" y="702.0669">agendaList</text></g><!--link ViewDetailsEntryController to TeamMapper--><g id="link_ViewDetailsEntryController_TeamMapper"><path codeLine="151" d="M964.96,692.6 C1036.17,726.52 1143.2,773.75 1241,802 C1725.27,941.9 2306.9329,1016.9722 2626.2729,1050.5722 " fill="none" id="ViewDetailsEntryController-to-TeamMapper" style="stroke:#181818;stroke-width:1.0;stroke-dasharray:7.0,7.0;"/><polygon fill="#181818" points="2632.24,1051.2,2623.708,1046.2802,2627.2674,1050.6768,2622.8709,1054.2363,2632.24,1051.2" style="stroke:#181818;stroke-width:1.0;"/></g><!--link ViewDetailsEntryController to EntryDto--><g id="link_ViewDetailsEntryController_EntryDto"><path codeLine="152" d="M914.27,692.85 C1006.65,810.38 1295.18,1141 1617.5,1141 C1617.5,1141 1617.5,1141 2868.5,1141 C2995.7,1141 3056.1,1202.21 3154,1121 C3176.98,1101.94 3153.21,1079.98 3171,1056 C3177.85,1046.77 3181.4301,1042.2487 3190.2401,1034.4787 " fill="none" id="ViewDetailsEntryController-to-EntryDto" style="stroke:#181818;stroke-width:1.0;stroke-dasharray:7.0,7.0;"/><polygon fill="#181818" points="3194.74,1030.51,3185.3443,1033.4631,3190.9901,1033.8173,3190.6359,1039.463,3194.74,1030.51" style="stroke:#181818;stroke-width:1.0;"/></g><!--link EntryRepository to EntryMapper--><g id="link_EntryRepository_EntryMapper"><path codeLine="153" d="M2479.15,596.59 C2502.64,607.26 2524.39,621.38 2542,640 C2600.04,701.37 2528.31,759.99 2581,826 C2610,862.33 2645.8973,886.4963 2688.1473,905.8963 " fill="none" id="EntryRepository-to-EntryMapper" style="stroke:#181818;stroke-width:1.0;stroke-dasharray:7.0,7.0;"/><polygon fill="#181818" points="2693.6,908.4,2687.0902,901.0093,2689.0561,906.3136,2683.7519,908.2795,2693.6,908.4" style="stroke:#181818;stroke-width:1.0;"/></g><!--link ViewDetailsEntryController to TeamDto--><g id="link_ViewDetailsEntryController_TeamDto"><path codeLine="154" d="M898.65,692.76 C937.76,791.48 1052.44,1043.02 1241,1149 C1387.3,1231.23 1449.67,1178 1617.5,1178 C1617.5,1178 1617.5,1178 2868.5,1178 C2996,1178 3028.05,1169.81 3154,1150 C3170.85,1147.35 3182.6797,1145.2424 3199.9897,1141.7324 " fill="none" id="ViewDetailsEntryController-to-TeamDto" style="stroke:#181818;stroke-width:1.0;stroke-dasharray:7.0,7.0;"/><polygon fill="#181818" points="3205.87,1140.54,3196.2546,1138.4083,3200.9697,1141.5336,3197.8444,1146.2488,3205.87,1140.54" style="stroke:#181818;stroke-width:1.0;"/></g><!--link ViewDetailsEntryController to EmailService--><g id="link_ViewDetailsEntryController_EmailService"><path codeLine="155" d="M912.83,611.24 C967.73,538.68 1093.84,388.84 1241,326 C1385.82,264.16 1791.41,294.67 1948,278 C1961.39,276.57 1969.1233,275.7298 1982.9433,274.0598 " fill="none" id="ViewDetailsEntryController-to-EmailService" style="stroke:#181818;stroke-width:1.0;stroke-dasharray:7.0,7.0;"/><polygon fill="#181818" points="1988.9,273.34,1979.4851,270.4486,1983.9361,273.9398,1980.4449,278.3908,1988.9,273.34" style="stroke:#181818;stroke-width:1.0;"/></g><!--link EmailService to Collaborator--><g id="link_EmailService_Collaborator"><path codeLine="156" d="M2407.17,280.53 C2535.33,324.75 2712.4682,385.8527 2804.0082,417.4427 " fill="none" id="EmailService-to-Collaborator" style="stroke:#181818;stroke-width:1.0;stroke-dasharray:7.0,7.0;"/><polygon fill="#181818" points="2809.68,419.4,2802.4772,412.6829,2804.9535,417.7689,2799.8675,420.2452,2809.68,419.4" style="stroke:#181818;stroke-width:1.0;"/></g><!--link EmailService to Entry--><g id="link_EmailService_Entry"><path codeLine="157" d="M2313.41,280.62 C2371.62,338.67 2476.08,435.61 2581,497 C2633.88,527.94 2691.6193,550.8785 2745.2493,568.7985 " fill="none" id="EmailService-to-Entry" style="stroke:#181818;stroke-width:1.0;stroke-dasharray:7.0,7.0;"/><polygon fill="#181818" points="2750.94,570.7,2743.6716,564.0539,2746.1977,569.1154,2741.1363,571.6416,2750.94,570.7" style="stroke:#181818;stroke-width:1.0;"/></g><!--link ApplicationSession to EmailService--><g id="link_ApplicationSession_EmailService"><path codeLine="158" d="M1767.07,218.12 C1832.89,219.96 1906.6523,222.0123 1982.8523,224.1423 " fill="none" id="ApplicationSession-to-EmailService" style="stroke:#181818;stroke-width:1.0;stroke-dasharray:7.0,7.0;"/><polygon fill="#181818" points="1988.85,224.31,1979.9653,220.0601,1983.852,224.1703,1979.7417,228.057,1988.85,224.31" style="stroke:#181818;stroke-width:1.0;"/></g><!--link EmailService to DeiEmailService--><g id="link_EmailService_DeiEmailService"><path codeLine="159" d="M2526.62,183.45 C2583.58,172.81 2636.6018,162.9107 2689.0618,153.1207 " fill="none" id="EmailService-to-DeiEmailService" style="stroke:#181818;stroke-width:1.0;stroke-dasharray:7.0,7.0;"/><polygon fill="#181818" points="2694.96,152.02,2685.3789,149.7389,2690.0449,152.9373,2686.8465,157.6032,2694.96,152.02" style="stroke:#181818;stroke-width:1.0;"/></g><!--link EmailService to GmailService--><g id="link_EmailService_GmailService"><path codeLine="160" d="M2542.35,229.7 C2583.75,229.36 2619.7702,229.0602 2659.2302,228.7302 " fill="none" id="EmailService-to-GmailService" style="stroke:#181818;stroke-width:1.0;stroke-dasharray:7.0,7.0;"/><polygon fill="#181818" points="2665.23,228.68,2656.1969,224.7554,2660.2302,228.7218,2656.2638,232.7551,2665.23,228.68" style="stroke:#181818;stroke-width:1.0;"/></g><!--link TeamRepository to Team--><g id="link_TeamRepository_Team"><path codeLine="162" d="M2365.24,703 C2471.69,717.02 2634.9314,738.5066 2746.8614,753.2466 " fill="none" id="TeamRepository-to-Team" style="stroke:#181818;stroke-width:1.0;"/><polygon fill="#181818" points="2752.81,754.03,2744.4093,748.8892,2747.8528,753.3772,2743.3648,756.8207,2752.81,754.03" style="stroke:#181818;stroke-width:1.0;"/><text fill="#000000" font-family="sans-serif" font-size="13" lengthAdjust="spacing" textLength="8" x="2372.8584" y="716.5663">1</text><text fill="#000000" font-family="sans-serif" font-size="13" lengthAdjust="spacing" textLength="7" x="2737.8691" y="765.6131">*</text></g><!--link EntryRepository to Entry--><g id="link_EntryRepository_Entry"><path codeLine="163" d="M2479.3,579.48 C2570.62,585.26 2667.762,591.4105 2744.612,596.2805 " fill="none" id="EntryRepository-to-Entry" style="stroke:#181818;stroke-width:1.0;"/><polygon fill="#181818" points="2750.6,596.66,2741.871,592.0988,2745.61,596.3438,2741.365,600.0828,2750.6,596.66" style="stroke:#181818;stroke-width:1.0;"/><text fill="#000000" font-family="sans-serif" font-size="13" lengthAdjust="spacing" textLength="8" x="2487.1272" y="592.2999">1</text><text fill="#000000" font-family="sans-serif" font-size="13" lengthAdjust="spacing" textLength="7" x="2735.8869" y="608.7294">*</text></g><!--link Repositories to TeamRepository--><g id="link_Repositories_TeamRepository"><path codeLine="164" d="M1764.65,612.5 C1887.06,631.48 2053.0008,657.2111 2159.9808,673.7911 " fill="none" id="Repositories-to-TeamRepository" style="stroke:#181818;stroke-width:1.0;"/><polygon fill="#181818" points="2165.91,674.71,2157.6288,669.3788,2160.969,673.9442,2156.4036,677.2844,2165.91,674.71" style="stroke:#181818;stroke-width:1.0;"/><text fill="#000000" font-family="sans-serif" font-size="13" lengthAdjust="spacing" textLength="8" x="1772.3921" y="626.1152">1</text><text fill="#000000" font-family="sans-serif" font-size="13" lengthAdjust="spacing" textLength="8" x="2149.9789" y="686.1742">1</text></g><!--link Repositories to EntryRepository--><g id="link_Repositories_EntryRepository"><path codeLine="165" d="M1764.65,584.6 C1849.35,581.45 1951.7441,577.6328 2045.9241,574.1328 " fill="none" id="Repositories-to-EntryRepository" style="stroke:#181818;stroke-width:1.0;"/><polygon fill="#181818" points="2051.92,573.91,2042.7777,570.247,2046.9234,574.0957,2043.0748,578.2415,2051.92,573.91" style="stroke:#181818;stroke-width:1.0;"/><text fill="#000000" font-family="sans-serif" font-size="13" lengthAdjust="spacing" textLength="8" x="1772.3921" y="596.7766">1</text><text fill="#000000" font-family="sans-serif" font-size="13" lengthAdjust="spacing" textLength="8" x="2036.1007" y="586.5297">1</text></g><!--link AgendaList to Entry--><g id="link_AgendaList_Entry"><path codeLine="166" d="M1753.82,786.03 C1939.71,823.38 2281.85,866.61 2542,753 C2565.34,742.81 2559.84,725.18 2581,711 C2632.44,676.52 2690.7832,653.0315 2745.1732,635.7015 " fill="none" id="AgendaList-to-Entry" style="stroke:#181818;stroke-width:1.0;"/><polygon fill="#181818" points="2750.89,633.88,2741.1004,632.8011,2746.126,635.3979,2743.5291,640.4235,2750.89,633.88" style="stroke:#181818;stroke-width:1.0;"/><text fill="#000000" font-family="sans-serif" font-size="13" lengthAdjust="spacing" textLength="8" x="1772.9048" y="806.233">1</text><text fill="#000000" font-family="sans-serif" font-size="13" lengthAdjust="spacing" textLength="7" x="2735.8201" y="648.4502">*</text></g><!--link EntryMapper to EntryDto--><g id="link_EntryMapper_EntryDto"><path codeLine="167" d="M3130.2,961.64 C3152.54,962.04 3168.4009,962.3244 3188.8609,962.6844 " fill="none" id="EntryMapper-to-EntryDto" style="stroke:#181818;stroke-width:1.0;stroke-dasharray:7.0,7.0;"/><polygon fill="#181818" points="3194.86,962.79,3185.9318,958.6323,3189.8608,962.702,3185.791,966.631,3194.86,962.79" style="stroke:#181818;stroke-width:1.0;"/></g><!--link TeamMapper to TeamDto--><g id="link_TeamMapper_TeamDto"><path codeLine="168" d="M3102.59,1094.28 C3138.51,1097.55 3168.1746,1100.247 3199.8646,1103.127 " fill="none" id="TeamMapper-to-TeamDto" style="stroke:#181818;stroke-width:1.0;stroke-dasharray:7.0,7.0;"/><polygon fill="#181818" points="3205.84,1103.67,3197.239,1098.8719,3200.8605,1103.2175,3196.5149,1106.839,3205.84,1103.67" style="stroke:#181818;stroke-width:1.0;"/></g><!--SRC=[nLVVRzis47xdNq5uB_BQ5ErZXCA0KQU3WRKfPgVlj7IskLAaGDBfiYB_-qYAaYY9ahoYHHt0ZiJZtNU_lYFL5yfB8ac1rPdauYlb9tmaJ05IpKh6Y59hhIKzN3HiCy5tz5_0hn5YSDHO2opfwQnnJYLacWgEK4coB-G4UF6mNU3VZg_jtpU4pSSfmvyfVDs09fIfEwxbq_e4F2SFMrm9FQD0TgqKFV4zaA9PjvyN2hJRcu3ztcYHuZl_tpB5ZuBcNjTpWEUTa10WQXVMEIarI6KMypp78TYxmk3SWNoa6NG1yDojxSKxmHWv24cqa4aMFAGuN7g9fx5srIPMR6V2payliReS_ZRHRLySHFvKFqLrx8NJyfuo-3vDdIniW7RYG8kIGM7SKNXN0xxxnqIG4xR-j8t6wGV0-EENOg3SA3yIOpfcxqUQUpRVA2ZF7PWk43nIdUkoP3GZjk-yKE3tZO6iDE4Pf1715Yy-WTvwoMGvBnkMGhWlVDzsd_qdw41J-AOdG5REcCytr6YFqqEx9_3DWJ5OB3FyIPN-90pG0uFtGaxmWfLyQxUOnrLN5sc8nhIEqw0hkHJx3TVqh_Utx_O7KfPnbrkthPLAhkUcWwUzdtlXqTY7f7uRUBQQTFCvPjavCswwzhgEop0AFZB-nTB_3ZMfixYm_A7CYGOBxrv-XZFD6AWaL30Iw8CG30WVghqq2jSy_pyQEwchmXC9L9F5pVv-EeMrwbWKJPj8lJ4uKso_emBwecf2Y5T0DGqXRsfoA2RX219SpuzfEb9ErNaA2swxOT06o_c2yf9ZTVoH51Fe2YWEPXJxAWu7w6ewLssUX24Yta_LC9z_GIaKDOgVZEp1VQ9fRUGeg8XFDrLnjTfyZRKl8bji7C8T-yvpP8Cj3ve5Z1wYYcImn-dpqZtCoNBU3RUlYznkc_Kb19CihoIeLcCq1yGT8itmSh-sTk9mgtKtvgOasmQuvnC3vRwqKvAmj-xTAg980P7PkHvBtdfKrv0qHvjhCXPDLbGIpeB9GT3qX1Mtn-3RszkXPd_cQE8MCLu1E59c3aRMwaUXr-PQy6XePiltj83ep1hXvn7itUwVv-qF8WSstUBEQ2oMLz3f777FCl-GsR-7itDGcQIk7YU62DLimXLVE3MOkfdxWsQqBdysuqVCXk8nytpIDDWZQtGvBAdcB8j6hwwlNgqwTrNKkRZQrV5ZBPeuyTgTdVcJOXbI-SpMFdEc_Larfw37DcblSCrj3xWYzHJj2FSAg_v0UfM7zh21-husgvMcQsmwFNC6mrjEvrPiLyDo7AvM51-vjCqhxbt1XmBXvHYXNjuMRnRuvcQ55xylAeBf1oiKg51sggvPVhFeZ_THkVxf8QY5eRNm3XAc5GMb46G9_GS0]--></g></svg>