<?xml version="1.0" encoding="us-ascii" standalone="no"?><svg xmlns="http://www.w3.org/2000/svg" xmlns:xlink="http://www.w3.org/1999/xlink" contentStyleType="text/css" height="828px" preserveAspectRatio="none" style="width:1782px;height:828px;background:#FFFFFF;" version="1.1" viewBox="0 0 1782 828" width="1782px" zoomAndPan="magnify"><defs/><g><rect fill="#FFFFFF" height="675.2578" style="stroke:#181818;stroke-width:1.0;" width="10" x="140" y="83.7266"/><rect fill="#FFFFFF" height="29.1328" style="stroke:#181818;stroke-width:1.0;" width="10" x="315" y="136.9922"/><rect fill="#FFFFFF" height="520.5938" style="stroke:#181818;stroke-width:1.0;" width="10" x="487" y="195.2578"/><rect fill="#FFFFFF" height="30" style="stroke:#181818;stroke-width:1.0;" width="10" x="788" y="307.6563"/><rect fill="#FFFFFF" height="30" style="stroke:#181818;stroke-width:1.0;" width="10" x="788" y="366.7891"/><rect fill="#FFFFFF" height="30" style="stroke:#181818;stroke-width:1.0;" width="10" x="788" y="425.9219"/><rect fill="#FFFFFF" height="30" style="stroke:#181818;stroke-width:1.0;" width="10" x="934" y="248.5234"/><rect fill="#FFFFFF" height="30" style="stroke:#181818;stroke-width:1.0;" width="10" x="1172.5" y="685.8516"/><rect fill="#FFFFFF" height="29.1328" style="stroke:#181818;stroke-width:1.0;" width="10" x="1391.5" y="569.3203"/><rect fill="#FFFFFF" height="29.1328" style="stroke:#181818;stroke-width:1.0;" width="10" x="1612.5" y="627.5859"/><rect fill="none" height="632.125" style="stroke:#000000;stroke-width:1.5;" width="1741.5" x="35" y="98.7266"/><rect fill="none" height="513.5938" style="stroke:#000000;stroke-width:1.5;" width="1337" x="429.5" y="210.2578"/><line style="stroke:#181818;stroke-width:0.5;stroke-dasharray:5.0,5.0;" x1="145" x2="145" y1="52.5938" y2="776.9844"/><line style="stroke:#181818;stroke-width:0.5;stroke-dasharray:5.0,5.0;" x1="319.5" x2="319.5" y1="52.5938" y2="776.9844"/><line style="stroke:#181818;stroke-width:0.5;stroke-dasharray:5.0,5.0;" x1="491.5" x2="491.5" y1="52.5938" y2="776.9844"/><line style="stroke:#181818;stroke-width:0.5;stroke-dasharray:5.0,5.0;" x1="792.5" x2="792.5" y1="52.5938" y2="776.9844"/><line style="stroke:#181818;stroke-width:0.5;stroke-dasharray:5.0,5.0;" x1="938.5" x2="938.5" y1="52.5938" y2="776.9844"/><line style="stroke:#181818;stroke-width:0.5;stroke-dasharray:5.0,5.0;" x1="1177.5" x2="1177.5" y1="52.5938" y2="776.9844"/><line style="stroke:#181818;stroke-width:0.5;stroke-dasharray:5.0,5.0;" x1="1396.5" x2="1396.5" y1="52.5938" y2="776.9844"/><line style="stroke:#181818;stroke-width:0.5;stroke-dasharray:5.0,5.0;" x1="1617.5" x2="1617.5" y1="52.5938" y2="776.9844"/><rect fill="#E3E3E3" height="30.2969" rx="2.5" ry="2.5" style="stroke:#181818;stroke-width:0.5;" width="200" x="45" y="21.2969"/><text fill="#000000" font-family="sans-serif" font-size="14" lengthAdjust="spacing" textLength="186" x="52" y="41.292">:ViewDetailsEntryController</text><rect fill="#E3E3E3" height="30.2969" rx="2.5" ry="2.5" style="stroke:#181818;stroke-width:0.5;" width="200" x="45" y="775.9844"/><text fill="#000000" font-family="sans-serif" font-size="14" lengthAdjust="spacing" textLength="186" x="52" y="795.9795">:ViewDetailsEntryController</text><rect fill="#E3E3E3" height="30.2969" rx="2.5" ry="2.5" style="stroke:#181818;stroke-width:0.5;" width="129" x="255.5" y="21.2969"/><text fill="#000000" font-family="sans-serif" font-size="14" lengthAdjust="spacing" textLength="115" x="262.5" y="41.292">objDto:TeamDto</text><rect fill="#E3E3E3" height="30.2969" rx="2.5" ry="2.5" style="stroke:#181818;stroke-width:0.5;" width="129" x="255.5" y="775.9844"/><text fill="#000000" font-family="sans-serif" font-size="14" lengthAdjust="spacing" textLength="115" x="262.5" y="795.9795">objDto:TeamDto</text><rect fill="#E3E3E3" height="30.2969" rx="2.5" ry="2.5" style="stroke:#181818;stroke-width:0.5;" width="105" x="439.5" y="21.2969"/><text fill="#000000" font-family="sans-serif" font-size="14" lengthAdjust="spacing" textLength="91" x="446.5" y="41.292">:EmailService</text><rect fill="#E3E3E3" height="30.2969" rx="2.5" ry="2.5" style="stroke:#181818;stroke-width:0.5;" width="105" x="439.5" y="775.9844"/><text fill="#000000" font-family="sans-serif" font-size="14" lengthAdjust="spacing" textLength="91" x="446.5" y="795.9795">:EmailService</text><rect fill="#E3E3E3" height="30.2969" rx="2.5" ry="2.5" style="stroke:#181818;stroke-width:0.5;" width="89" x="748.5" y="21.2969"/><text fill="#000000" font-family="sans-serif" font-size="14" lengthAdjust="spacing" textLength="75" x="755.5" y="41.292">entry:Entry</text><rect fill="#E3E3E3" height="30.2969" rx="2.5" ry="2.5" style="stroke:#181818;stroke-width:0.5;" width="89" x="748.5" y="775.9844"/><text fill="#000000" font-family="sans-serif" font-size="14" lengthAdjust="spacing" textLength="75" x="755.5" y="795.9795">entry:Entry</text><rect fill="#E3E3E3" height="30.2969" rx="2.5" ry="2.5" style="stroke:#181818;stroke-width:0.5;" width="183" x="847.5" y="21.2969"/><text fill="#000000" font-family="sans-serif" font-size="14" lengthAdjust="spacing" textLength="169" x="854.5" y="41.292">collaborator:Collaborator</text><rect fill="#E3E3E3" height="30.2969" rx="2.5" ry="2.5" style="stroke:#181818;stroke-width:0.5;" width="183" x="847.5" y="775.9844"/><text fill="#000000" font-family="sans-serif" font-size="14" lengthAdjust="spacing" textLength="169" x="854.5" y="795.9795">collaborator:Collaborator</text><rect fill="#E3E3E3" height="46.5938" rx="2.5" ry="2.5" style="stroke:#181818;stroke-width:0.5;" width="274" x="1040.5" y="5"/><text fill="#000000" font-family="sans-serif" font-size="14" lengthAdjust="spacing" textLength="260" x="1047.5" y="24.9951">someEmailService: SomeEmailService</text><text fill="#000000" font-family="sans-serif" font-size="14" lengthAdjust="spacing" textLength="251" x="1052" y="41.292">implements &#171;SendEmailExternalAPI&#187;</text><rect fill="#E3E3E3" height="46.5938" rx="2.5" ry="2.5" style="stroke:#181818;stroke-width:0.5;" width="274" x="1040.5" y="775.9844"/><text fill="#000000" font-family="sans-serif" font-size="14" lengthAdjust="spacing" textLength="260" x="1047.5" y="795.9795">someEmailService: SomeEmailService</text><text fill="#000000" font-family="sans-serif" font-size="14" lengthAdjust="spacing" textLength="251" x="1052" y="812.2764">implements &#171;SendEmailExternalAPI&#187;</text><rect fill="#E3E3E3" height="30.2969" rx="2.5" ry="2.5" style="stroke:#181818;stroke-width:0.5;" width="144" x="1324.5" y="21.2969"/><text fill="#000000" font-family="sans-serif" font-size="14" lengthAdjust="spacing" textLength="130" x="1331.5" y="41.292">ApplicationSession</text><rect fill="#E3E3E3" height="30.2969" rx="2.5" ry="2.5" style="stroke:#181818;stroke-width:0.5;" width="144" x="1324.5" y="775.9844"/><text fill="#000000" font-family="sans-serif" font-size="14" lengthAdjust="spacing" textLength="130" x="1331.5" y="795.9795">ApplicationSession</text><rect fill="#E3E3E3" height="30.2969" rx="2.5" ry="2.5" style="stroke:#181818;stroke-width:0.5;" width="278" x="1478.5" y="21.2969"/><text fill="#000000" font-family="sans-serif" font-size="14" lengthAdjust="spacing" textLength="264" x="1485.5" y="41.292">applicationSession:ApplicationSession</text><rect fill="#E3E3E3" height="30.2969" rx="2.5" ry="2.5" style="stroke:#181818;stroke-width:0.5;" width="278" x="1478.5" y="775.9844"/><text fill="#000000" font-family="sans-serif" font-size="14" lengthAdjust="spacing" textLength="264" x="1485.5" y="795.9795">applicationSession:ApplicationSession</text><rect fill="#FFFFFF" height="675.2578" style="stroke:#181818;stroke-width:1.0;" width="10" x="140" y="83.7266"/><rect fill="#FFFFFF" height="29.1328" style="stroke:#181818;stroke-width:1.0;" width="10" x="315" y="136.9922"/><rect fill="#FFFFFF" height="520.5938" style="stroke:#181818;stroke-width:1.0;" width="10" x="487" y="195.2578"/><rect fill="#FFFFFF" height="30" style="stroke:#181818;stroke-width:1.0;" width="10" x="788" y="307.6563"/><rect fill="#FFFFFF" height="30" style="stroke:#181818;stroke-width:1.0;" width="10" x="788" y="366.7891"/><rect fill="#FFFFFF" height="30" style="stroke:#181818;stroke-width:1.0;" width="10" x="788" y="425.9219"/><rect fill="#FFFFFF" height="30" style="stroke:#181818;stroke-width:1.0;" width="10" x="934" y="248.5234"/><rect fill="#FFFFFF" height="30" style="stroke:#181818;stroke-width:1.0;" width="10" x="1172.5" y="685.8516"/><rect fill="#FFFFFF" height="29.1328" style="stroke:#181818;stroke-width:1.0;" width="10" x="1391.5" y="569.3203"/><rect fill="#FFFFFF" height="29.1328" style="stroke:#181818;stroke-width:1.0;" width="10" x="1612.5" y="627.5859"/><polygon fill="#181818" points="128,79.7266,138,83.7266,128,87.7266,132,83.7266" style="stroke:#181818;stroke-width:1.0;"/><line style="stroke:#181818;stroke-width:1.0;" x1="0" x2="134" y1="83.7266" y2="83.7266"/><text fill="#000000" font-family="sans-serif" font-size="13" font-weight="bold" lengthAdjust="spacing" textLength="9" x="7" y="78.6606">1</text><text fill="#000000" font-family="sans-serif" font-size="13" lengthAdjust="spacing" textLength="108" x="20" y="78.6606">Optional&lt;Entry&gt;</text><path d="M35,98.7266 L326,98.7266 L326,105.8594 L316,115.8594 L35,115.8594 L35,98.7266 " fill="#EEEEEE" style="stroke:#000000;stroke-width:1.5;"/><rect fill="none" height="632.125" style="stroke:#000000;stroke-width:1.5;" width="1741.5" x="35" y="98.7266"/><text fill="#000000" font-family="sans-serif" font-size="13" font-weight="bold" lengthAdjust="spacing" textLength="246" x="50" y="111.7935">Send Email To All Team Members</text><polygon fill="#181818" points="303,132.9922,313,136.9922,303,140.9922,307,136.9922" style="stroke:#181818;stroke-width:1.0;"/><line style="stroke:#181818;stroke-width:1.0;" x1="150" x2="309" y1="136.9922" y2="136.9922"/><text fill="#000000" font-family="sans-serif" font-size="13" font-weight="bold" lengthAdjust="spacing" textLength="32" x="157" y="131.9263">16.1</text><text fill="#000000" font-family="sans-serif" font-size="13" lengthAdjust="spacing" textLength="89" x="193" y="131.9263">getTeamList()</text><polygon fill="#181818" points="161,162.125,151,166.125,161,170.125,157,166.125" style="stroke:#181818;stroke-width:1.0;"/><line style="stroke:#181818;stroke-width:1.0;" x1="155" x2="319" y1="166.125" y2="166.125"/><text fill="#000000" font-family="sans-serif" font-size="13" font-weight="bold" lengthAdjust="spacing" textLength="32" x="167" y="161.0591">16.2</text><text fill="#000000" font-family="sans-serif" font-size="13" lengthAdjust="spacing" textLength="105" x="203" y="161.0591">collaboratorsList</text><polygon fill="#181818" points="475,191.2578,485,195.2578,475,199.2578,479,195.2578" style="stroke:#181818;stroke-width:1.0;"/><line style="stroke:#181818;stroke-width:1.0;" x1="150" x2="481" y1="195.2578" y2="195.2578"/><text fill="#000000" font-family="sans-serif" font-size="13" font-weight="bold" lengthAdjust="spacing" textLength="32" x="157" y="190.1919">16.3</text><text fill="#000000" font-family="sans-serif" font-size="13" lengthAdjust="spacing" textLength="282" x="193" y="190.1919">sendEmailToList(collaboratorsList, entryDto)</text><path d="M429.5,210.2578 L506.5,210.2578 L506.5,217.3906 L496.5,227.3906 L429.5,227.3906 L429.5,210.2578 " fill="#EEEEEE" style="stroke:#000000;stroke-width:1.5;"/><rect fill="none" height="513.5938" style="stroke:#000000;stroke-width:1.5;" width="1337" x="429.5" y="210.2578"/><text fill="#000000" font-family="sans-serif" font-size="13" font-weight="bold" lengthAdjust="spacing" textLength="32" x="444.5" y="223.3247">loop</text><text fill="#000000" font-family="sans-serif" font-size="11" font-weight="bold" lengthAdjust="spacing" textLength="273" x="521.5" y="222.4683">[for each collaborator in collaboratorsList]</text><polygon fill="#181818" points="922,244.5234,932,248.5234,922,252.5234,926,248.5234" style="stroke:#181818;stroke-width:1.0;"/><line style="stroke:#181818;stroke-width:1.0;" x1="497" x2="928" y1="248.5234" y2="248.5234"/><text fill="#000000" font-family="sans-serif" font-size="13" font-weight="bold" lengthAdjust="spacing" textLength="32" x="504" y="243.4575">16.4</text><text fill="#000000" font-family="sans-serif" font-size="13" lengthAdjust="spacing" textLength="98" x="540" y="243.4575">to = getEmail()</text><polygon fill="#181818" points="776,303.6563,786,307.6563,776,311.6563,780,307.6563" style="stroke:#181818;stroke-width:1.0;"/><line style="stroke:#181818;stroke-width:1.0;" x1="497" x2="782" y1="307.6563" y2="307.6563"/><text fill="#000000" font-family="sans-serif" font-size="13" font-weight="bold" lengthAdjust="spacing" textLength="32" x="504" y="302.5903">16.5</text><text fill="#000000" font-family="sans-serif" font-size="13" lengthAdjust="spacing" textLength="122" x="540" y="302.5903">subject = getTitle()</text><polygon fill="#181818" points="776,362.7891,786,366.7891,776,370.7891,780,366.7891" style="stroke:#181818;stroke-width:1.0;"/><line style="stroke:#181818;stroke-width:1.0;" x1="497" x2="782" y1="366.7891" y2="366.7891"/><text fill="#000000" font-family="sans-serif" font-size="13" font-weight="bold" lengthAdjust="spacing" textLength="32" x="504" y="361.7231">16.6</text><text fill="#000000" font-family="sans-serif" font-size="13" lengthAdjust="spacing" textLength="192" x="540" y="361.7231">description = getDescription()</text><polygon fill="#181818" points="776,421.9219,786,425.9219,776,429.9219,780,425.9219" style="stroke:#181818;stroke-width:1.0;"/><line style="stroke:#181818;stroke-width:1.0;" x1="497" x2="782" y1="425.9219" y2="425.9219"/><text fill="#000000" font-family="sans-serif" font-size="13" font-weight="bold" lengthAdjust="spacing" textLength="32" x="504" y="420.856">16.7</text><text fill="#000000" font-family="sans-serif" font-size="13" lengthAdjust="spacing" textLength="236" x="540" y="420.856">teamAssigned = getTeamAssigned()</text><line style="stroke:#181818;stroke-width:1.0;" x1="497" x2="539" y1="485.0547" y2="485.0547"/><line style="stroke:#181818;stroke-width:1.0;" x1="539" x2="539" y1="485.0547" y2="498.0547"/><line style="stroke:#181818;stroke-width:1.0;" x1="498" x2="539" y1="498.0547" y2="498.0547"/><polygon fill="#181818" points="508,494.0547,498,498.0547,508,502.0547,504,498.0547" style="stroke:#181818;stroke-width:1.0;"/><text fill="#000000" font-family="sans-serif" font-size="13" font-weight="bold" lengthAdjust="spacing" textLength="32" x="504" y="479.9888">16.8</text><text fill="#000000" font-family="sans-serif" font-size="13" lengthAdjust="spacing" textLength="231" x="540" y="479.9888">body = description + teamAssigned</text><line style="stroke:#181818;stroke-width:1.0;" x1="497" x2="539" y1="527.1875" y2="527.1875"/><line style="stroke:#181818;stroke-width:1.0;" x1="539" x2="539" y1="527.1875" y2="540.1875"/><line style="stroke:#181818;stroke-width:1.0;" x1="498" x2="539" y1="540.1875" y2="540.1875"/><polygon fill="#181818" points="508,536.1875,498,540.1875,508,544.1875,504,540.1875" style="stroke:#181818;stroke-width:1.0;"/><text fill="#000000" font-family="sans-serif" font-size="13" font-weight="bold" lengthAdjust="spacing" textLength="32" x="504" y="522.1216">16.9</text><text fill="#000000" font-family="sans-serif" font-size="13" lengthAdjust="spacing" textLength="218" x="540" y="522.1216">sendToEmailFile(to, subject, body)</text><polygon fill="#181818" points="1379.5,565.3203,1389.5,569.3203,1379.5,573.3203,1383.5,569.3203" style="stroke:#181818;stroke-width:1.0;"/><line style="stroke:#181818;stroke-width:1.0;" x1="497" x2="1385.5" y1="569.3203" y2="569.3203"/><text fill="#000000" font-family="sans-serif" font-size="13" font-weight="bold" lengthAdjust="spacing" textLength="41" x="504" y="564.2544">16.10</text><text fill="#000000" font-family="sans-serif" font-size="13" lengthAdjust="spacing" textLength="85" x="549" y="564.2544">getInstance()</text><polygon fill="#181818" points="508,594.4531,498,598.4531,508,602.4531,504,598.4531" style="stroke:#181818;stroke-width:1.0;"/><line style="stroke:#181818;stroke-width:1.0;stroke-dasharray:2.0,2.0;" x1="502" x2="1395.5" y1="598.4531" y2="598.4531"/><text fill="#000000" font-family="sans-serif" font-size="13" font-weight="bold" lengthAdjust="spacing" textLength="41" x="514" y="593.3872">16.11</text><text fill="#000000" font-family="sans-serif" font-size="13" lengthAdjust="spacing" textLength="119" x="559" y="593.3872">applicationSession</text><polygon fill="#181818" points="1600.5,623.5859,1610.5,627.5859,1600.5,631.5859,1604.5,627.5859" style="stroke:#181818;stroke-width:1.0;"/><line style="stroke:#181818;stroke-width:1.0;stroke-dasharray:2.0,2.0;" x1="497" x2="1606.5" y1="627.5859" y2="627.5859"/><text fill="#000000" font-family="sans-serif" font-size="13" font-weight="bold" lengthAdjust="spacing" textLength="41" x="504" y="622.52">16.12</text><text fill="#000000" font-family="sans-serif" font-size="13" lengthAdjust="spacing" textLength="167" x="549" y="622.52">getEmailServiceInstance()</text><polygon fill="#181818" points="508,652.7188,498,656.7188,508,660.7188,504,656.7188" style="stroke:#181818;stroke-width:1.0;"/><line style="stroke:#181818;stroke-width:1.0;stroke-dasharray:2.0,2.0;" x1="502" x2="1616.5" y1="656.7188" y2="656.7188"/><text fill="#000000" font-family="sans-serif" font-size="13" font-weight="bold" lengthAdjust="spacing" textLength="41" x="514" y="651.6528">16.13</text><text fill="#000000" font-family="sans-serif" font-size="13" lengthAdjust="spacing" textLength="118" x="559" y="651.6528">someEmailService</text><polygon fill="#181818" points="1160.5,681.8516,1170.5,685.8516,1160.5,689.8516,1164.5,685.8516" style="stroke:#181818;stroke-width:1.0;"/><line style="stroke:#181818;stroke-width:1.0;stroke-dasharray:2.0,2.0;" x1="497" x2="1166.5" y1="685.8516" y2="685.8516"/><text fill="#000000" font-family="sans-serif" font-size="13" font-weight="bold" lengthAdjust="spacing" textLength="41" x="504" y="680.7856">16.14</text><text fill="#000000" font-family="sans-serif" font-size="13" lengthAdjust="spacing" textLength="182" x="549" y="680.7856">sendEmail(to, subject, body)</text><polygon fill="#181818" points="11,754.9844,1,758.9844,11,762.9844,7,758.9844" style="stroke:#181818;stroke-width:1.0;"/><line style="stroke:#181818;stroke-width:1.0;stroke-dasharray:2.0,2.0;" x1="5" x2="144" y1="758.9844" y2="758.9844"/><text fill="#000000" font-family="sans-serif" font-size="13" font-weight="bold" lengthAdjust="spacing" textLength="18" x="17" y="753.9185">17</text><text fill="#000000" font-family="sans-serif" font-size="13" lengthAdjust="spacing" textLength="26" x="39" y="753.9185">true</text><!--SRC=[jLR1Rjim3BtxAuYULgmPq1qsmCW214a65EYmOJ5ssaMnMKUjB1cIqYv_FqgoCybskXms0ubjyP7laPIOc2SkMwPP0usIgjnhrI1OVS3Cd2mjAvzOZLjx50WQIyjaBMA0sRDAlN1PmmCJ1hEC7QoIXsQ7EgEBG9QNl6NImbN-W-FB6YtZmcoarSULecyb1EehO0PMnVVxzmCVjNjSMvKNo1gwUrZt38FWcuRYRb4_yn8zBbv8iUZ8SoyX8DrJ2Yb95jifpQpI-Ifw2KgZXTJFK15ZuXosWvMVaZUjm8P469ZFjoWhRzxyigWb4yjlTuk5Pnbw3agpR5l1IsQvabiqXcx1ApodM3R2vcVSnykkZxD5w4uENrjdOcBkYxQ86mwt7zxTPgoq_9bPxDjPQtLemQKPEWA5WgKGletm1PsZoO0kZmTYwXkSGutMlTnpOzzSUz0fUWVoYxr3hv8yu_uPv- -15OxyK-gut1J5zCqfbDSmYde3VYzHe86yf6_E8fHguK5f80dxH1vmUKQkkn95Bi7OCmVA-fChauTrDKg495krjqPrIEndMNspNK4EkqUQ0e6pu5RW56SuJnDamV1NbWfDgRdVQ85f_MVXV_1PsWjBskkrnAfBBLhvfupf_jgfwaY4SRvl4pKNHt8xjL1-yJEdhbXrqpVhnjDSP-TZTGSz7BWxQMZAbvEDFKs4tj9xpiQAnYDdgbwZYAas2ZiUI45d37nDyzH0wq4JiISo6SxqgJnUOncbD9hiyQYPQjsu4HT8kWIJ_hmu8yd8t2UPwn-pR3wRTMFI7HZtBo4U8dxK_mO0]--></g></svg>