<?xml version="1.0" encoding="us-ascii" standalone="no"?><svg xmlns="http://www.w3.org/2000/svg" xmlns:xlink="http://www.w3.org/1999/xlink" contentStyleType="text/css" height="553.7px" preserveAspectRatio="none" style="width:418px;height:553px;background:#FFFFFF;" version="1.1" viewBox="0 0 418 553" width="418.6px" zoomAndPan="magnify"><defs/><g><text fill="#000000" font-family="sans-serif" font-size="9.8" font-weight="bold" lengthAdjust="spacing" textLength="245.7" x="87.5" y="21.0752">System Sequence Diagram (SSD) - Alternative One</text><rect fill="#FFFFFF" height="396.3668" style="stroke:#181818;stroke-width:0.6999999999999998;" width="7" x="12.6" y="93.2695"/><rect fill="#FFFFFF" height="34.0074" style="stroke:#181818;stroke-width:0.6999999999999998;" width="7" x="302.4" y="109.5732"/><rect fill="#FFFFFF" height="76.2111" style="stroke:#181818;stroke-width:0.6999999999999998;" width="7" x="302.4" y="165.4844"/><rect fill="#FFFFFF" height="34.0074" style="stroke:#181818;stroke-width:0.6999999999999998;" width="7" x="302.4" y="263.5992"/><rect fill="#FFFFFF" height="76.2111" style="stroke:#181818;stroke-width:0.6999999999999998;" width="7" x="302.4" y="319.5104"/><rect fill="#FFFFFF" height="21.9037" style="stroke:#181818;stroke-width:0.6999999999999998;" width="7" x="302.4" y="417.6252"/><rect fill="#FFFFFF" height="21.9037" style="stroke:#181818;stroke-width:0.6999999999999998;" width="7" x="302.4" y="461.4326"/><rect fill="none" height="44.5074" style="stroke:#000000;stroke-width:1.0499999999999998;" width="137.9" x="276.5" y="175.9844"/><rect fill="none" height="44.5074" style="stroke:#000000;stroke-width:1.0499999999999998;" width="137.9" x="276.5" y="330.0104"/><line style="stroke:#181818;stroke-width:0.3499999999999999;stroke-dasharray:5.0,5.0;" x1="16.1" x2="16.1" y1="86.2695" y2="495.9363"/><line style="stroke:#181818;stroke-width:0.3499999999999999;stroke-dasharray:5.0,5.0;" x1="305.9" x2="305.9" y1="86.2695" y2="495.9363"/><text fill="#000000" font-family="sans-serif" font-size="9.8" lengthAdjust="spacing" textLength="21" x="3.5" y="83.81">HRM</text><ellipse cx="16.1" cy="37.1848" fill="#E3E3E3" rx="5.6" ry="5.6" style="stroke:#181818;stroke-width:0.3499999999999999;"/><path d="M16.1,42.7848 L16.1,61.6848 M7,48.3848 L25.2,48.3848 M16.1,61.6848 L7,72.1848 M16.1,61.6848 L25.2,72.1848 " fill="none" style="stroke:#181818;stroke-width:0.3499999999999999;"/><text fill="#000000" font-family="sans-serif" font-size="9.8" lengthAdjust="spacing" textLength="21" x="3.5" y="505.8115">HRM</text><ellipse cx="16.1" cy="514.2211" fill="#E3E3E3" rx="5.6" ry="5.6" style="stroke:#181818;stroke-width:0.3499999999999999;"/><path d="M16.1,519.8211 L16.1,538.7211 M7,525.4211 L25.2,525.4211 M16.1,538.7211 L7,549.2211 M16.1,538.7211 L25.2,549.2211 " fill="none" style="stroke:#181818;stroke-width:0.3499999999999999;"/><rect fill="#E3E3E3" height="22.8348" rx="1.75" ry="1.75" style="stroke:#181818;stroke-width:0.3499999999999999;" width="44.8" x="283.5" y="62.7348"/><text fill="#000000" font-family="sans-serif" font-size="9.8" lengthAdjust="spacing" textLength="35" x="288.4" y="78.21">:System</text><rect fill="#E3E3E3" height="22.8348" rx="1.75" ry="1.75" style="stroke:#181818;stroke-width:0.3499999999999999;" width="44.8" x="283.5" y="495.2363"/><text fill="#000000" font-family="sans-serif" font-size="9.8" lengthAdjust="spacing" textLength="35" x="288.4" y="510.7115">:System</text><rect fill="#FFFFFF" height="396.3668" style="stroke:#181818;stroke-width:0.6999999999999998;" width="7" x="12.6" y="93.2695"/><rect fill="#FFFFFF" height="34.0074" style="stroke:#181818;stroke-width:0.6999999999999998;" width="7" x="302.4" y="109.5732"/><rect fill="#FFFFFF" height="76.2111" style="stroke:#181818;stroke-width:0.6999999999999998;" width="7" x="302.4" y="165.4844"/><rect fill="#FFFFFF" height="34.0074" style="stroke:#181818;stroke-width:0.6999999999999998;" width="7" x="302.4" y="263.5992"/><rect fill="#FFFFFF" height="76.2111" style="stroke:#181818;stroke-width:0.6999999999999998;" width="7" x="302.4" y="319.5104"/><rect fill="#FFFFFF" height="21.9037" style="stroke:#181818;stroke-width:0.6999999999999998;" width="7" x="302.4" y="417.6252"/><rect fill="#FFFFFF" height="21.9037" style="stroke:#181818;stroke-width:0.6999999999999998;" width="7" x="302.4" y="461.4326"/><polygon fill="#181818" points="294,106.7732,301,109.5732,294,112.3732,296.8,109.5732" style="stroke:#181818;stroke-width:0.6999999999999998;"/><line style="stroke:#181818;stroke-width:0.6999999999999998;" x1="19.6" x2="298.2" y1="109.5732" y2="109.5732"/><text fill="#000000" font-family="sans-serif" font-size="9.1" font-weight="bold" lengthAdjust="spacing" textLength="4.9" x="24.5" y="105.8894">1</text><text fill="#000000" font-family="sans-serif" font-size="9.1" lengthAdjust="spacing" textLength="139.3" x="32.2" y="105.8894">asks to register a new collaborator</text><polygon fill="#181818" points="27.3,140.7807,20.3,143.5807,27.3,146.3807,24.5,143.5807" style="stroke:#181818;stroke-width:0.6999999999999998;"/><line style="stroke:#181818;stroke-width:0.6999999999999998;stroke-dasharray:2.0,2.0;" x1="23.1" x2="305.2" y1="143.5807" y2="143.5807"/><text fill="#000000" font-family="sans-serif" font-size="9.1" font-weight="bold" lengthAdjust="spacing" textLength="4.9" x="31.5" y="133.8449">2</text><text fill="#000000" font-family="sans-serif" font-size="9.1" lengthAdjust="spacing" textLength="226.8" x="39.2" y="127.7931">requests data (i.e. name, date birthday, admission data,</text><text fill="#000000" font-family="sans-serif" font-size="9.1" lengthAdjust="spacing" textLength="139.3" x="42" y="139.8968">address, email, phone number, ...)</text><polygon fill="#181818" points="294,162.6844,301,165.4844,294,168.2844,296.8,165.4844" style="stroke:#181818;stroke-width:0.6999999999999998;"/><line style="stroke:#181818;stroke-width:0.6999999999999998;" x1="19.6" x2="298.2" y1="165.4844" y2="165.4844"/><text fill="#000000" font-family="sans-serif" font-size="9.1" font-weight="bold" lengthAdjust="spacing" textLength="4.9" x="24.5" y="161.8005">3</text><text fill="#000000" font-family="sans-serif" font-size="9.1" lengthAdjust="spacing" textLength="85.4" x="32.2" y="161.8005">types requested data</text><path d="M276.5,175.9844 L319.2,175.9844 L319.2,182.4881 L312.2,189.4881 L276.5,189.4881 L276.5,175.9844 " fill="#EEEEEE" style="stroke:#000000;stroke-width:1.0499999999999998;"/><rect fill="none" height="44.5074" style="stroke:#000000;stroke-width:1.0499999999999998;" width="137.9" x="276.5" y="175.9844"/><text fill="#000000" font-family="sans-serif" font-size="9.1" font-weight="bold" lengthAdjust="spacing" textLength="11.2" x="287" y="186.5042">alt</text><text fill="#000000" font-family="sans-serif" font-size="7.7" font-weight="bold" lengthAdjust="spacing" textLength="81.2" x="329.7" y="185.6935">[System Verification]</text><line style="stroke:#181818;stroke-width:0.6999999999999998;stroke-dasharray:2.0,2.0;" x1="309.4" x2="338.8" y1="205.7918" y2="205.7918"/><line style="stroke:#181818;stroke-width:0.6999999999999998;stroke-dasharray:2.0,2.0;" x1="338.8" x2="338.8" y1="205.7918" y2="214.8918"/><line style="stroke:#181818;stroke-width:0.6999999999999998;stroke-dasharray:2.0,2.0;" x1="310.1" x2="338.8" y1="214.8918" y2="214.8918"/><polygon fill="#181818" points="317.1,212.0918,310.1,214.8918,317.1,217.6918,314.3,214.8918" style="stroke:#181818;stroke-width:0.6999999999999998;"/><text fill="#000000" font-family="sans-serif" font-size="9.1" font-weight="bold" lengthAdjust="spacing" textLength="4.9" x="314.3" y="202.1079">4</text><text fill="#000000" font-family="sans-serif" font-size="9.1" lengthAdjust="spacing" textLength="40.6" x="322" y="202.1079">verify data</text><polygon fill="#181818" points="27.3,238.8955,20.3,241.6955,27.3,244.4955,24.5,241.6955" style="stroke:#181818;stroke-width:0.6999999999999998;"/><line style="stroke:#181818;stroke-width:0.6999999999999998;stroke-dasharray:2.0,2.0;" x1="23.1" x2="305.2" y1="241.6955" y2="241.6955"/><text fill="#000000" font-family="sans-serif" font-size="9.1" font-weight="bold" lengthAdjust="spacing" textLength="4.9" x="31.5" y="238.0116">5</text><text fill="#000000" font-family="sans-serif" font-size="9.1" lengthAdjust="spacing" textLength="229.6" x="39.2" y="238.0116">shows identification card type list and asks to select one</text><polygon fill="#181818" points="294,260.7992,301,263.5992,294,266.3992,296.8,263.5992" style="stroke:#181818;stroke-width:0.6999999999999998;"/><line style="stroke:#181818;stroke-width:0.6999999999999998;" x1="19.6" x2="298.2" y1="263.5992" y2="263.5992"/><text fill="#000000" font-family="sans-serif" font-size="9.1" font-weight="bold" lengthAdjust="spacing" textLength="4.9" x="24.5" y="259.9153">6</text><text fill="#000000" font-family="sans-serif" font-size="9.1" lengthAdjust="spacing" textLength="87.5" x="32.2" y="259.9153">selects a id card type</text><polygon fill="#181818" points="27.3,294.8066,20.3,297.6066,27.3,300.4066,24.5,297.6066" style="stroke:#181818;stroke-width:0.6999999999999998;"/><line style="stroke:#181818;stroke-width:0.6999999999999998;stroke-dasharray:2.0,2.0;" x1="23.1" x2="305.2" y1="297.6066" y2="297.6066"/><text fill="#000000" font-family="sans-serif" font-size="9.1" font-weight="bold" lengthAdjust="spacing" textLength="4.9" x="31.5" y="287.8709">7</text><text fill="#000000" font-family="sans-serif" font-size="9.1" lengthAdjust="spacing" textLength="147" x="39.2" y="281.819">requests data (i.e. taxpayer number/</text><text fill="#000000" font-family="sans-serif" font-size="9.1" lengthAdjust="spacing" textLength="153.3" x="39.2" y="293.9228">citizen card number/passport number)</text><polygon fill="#181818" points="294,316.7104,301,319.5104,294,322.3104,296.8,319.5104" style="stroke:#181818;stroke-width:0.6999999999999998;"/><line style="stroke:#181818;stroke-width:0.6999999999999998;" x1="19.6" x2="298.2" y1="319.5104" y2="319.5104"/><text fill="#000000" font-family="sans-serif" font-size="9.1" font-weight="bold" lengthAdjust="spacing" textLength="4.9" x="24.5" y="315.8265">8</text><text fill="#000000" font-family="sans-serif" font-size="9.1" lengthAdjust="spacing" textLength="85.4" x="32.2" y="315.8265">types requested data</text><path d="M276.5,330.0104 L319.2,330.0104 L319.2,336.5141 L312.2,343.5141 L276.5,343.5141 L276.5,330.0104 " fill="#EEEEEE" style="stroke:#000000;stroke-width:1.0499999999999998;"/><rect fill="none" height="44.5074" style="stroke:#000000;stroke-width:1.0499999999999998;" width="137.9" x="276.5" y="330.0104"/><text fill="#000000" font-family="sans-serif" font-size="9.1" font-weight="bold" lengthAdjust="spacing" textLength="11.2" x="287" y="340.5302">alt</text><text fill="#000000" font-family="sans-serif" font-size="7.7" font-weight="bold" lengthAdjust="spacing" textLength="81.2" x="329.7" y="339.7194">[System Verification]</text><line style="stroke:#181818;stroke-width:0.6999999999999998;stroke-dasharray:2.0,2.0;" x1="309.4" x2="338.8" y1="359.8178" y2="359.8178"/><line style="stroke:#181818;stroke-width:0.6999999999999998;stroke-dasharray:2.0,2.0;" x1="338.8" x2="338.8" y1="359.8178" y2="368.9178"/><line style="stroke:#181818;stroke-width:0.6999999999999998;stroke-dasharray:2.0,2.0;" x1="310.1" x2="338.8" y1="368.9178" y2="368.9178"/><polygon fill="#181818" points="317.1,366.1178,310.1,368.9178,317.1,371.7178,314.3,368.9178" style="stroke:#181818;stroke-width:0.6999999999999998;"/><text fill="#000000" font-family="sans-serif" font-size="9.1" font-weight="bold" lengthAdjust="spacing" textLength="4.9" x="314.3" y="356.1339">9</text><text fill="#000000" font-family="sans-serif" font-size="9.1" lengthAdjust="spacing" textLength="83.3" x="322" y="356.1339">verify id card number</text><polygon fill="#181818" points="27.3,392.9215,20.3,395.7215,27.3,398.5215,24.5,395.7215" style="stroke:#181818;stroke-width:0.6999999999999998;"/><line style="stroke:#181818;stroke-width:0.6999999999999998;stroke-dasharray:2.0,2.0;" x1="23.1" x2="305.2" y1="395.7215" y2="395.7215"/><text fill="#000000" font-family="sans-serif" font-size="9.1" font-weight="bold" lengthAdjust="spacing" textLength="9.8" x="31.5" y="392.0376">10</text><text fill="#000000" font-family="sans-serif" font-size="9.1" lengthAdjust="spacing" textLength="188.3" x="44.1" y="392.0376">shows job category list and asks to select one</text><polygon fill="#181818" points="294,414.8252,301,417.6252,294,420.4252,296.8,417.6252" style="stroke:#181818;stroke-width:0.6999999999999998;"/><line style="stroke:#181818;stroke-width:0.6999999999999998;" x1="19.6" x2="298.2" y1="417.6252" y2="417.6252"/><text fill="#000000" font-family="sans-serif" font-size="9.1" font-weight="bold" lengthAdjust="spacing" textLength="9.8" x="24.5" y="413.9413">11</text><text fill="#000000" font-family="sans-serif" font-size="9.1" lengthAdjust="spacing" textLength="89.6" x="37.1" y="413.9413">selects a job category</text><polygon fill="#181818" points="27.3,436.7289,20.3,439.5289,27.3,442.3289,24.5,439.5289" style="stroke:#181818;stroke-width:0.6999999999999998;"/><line style="stroke:#181818;stroke-width:0.6999999999999998;stroke-dasharray:2.0,2.0;" x1="23.1" x2="305.2" y1="439.5289" y2="439.5289"/><text fill="#000000" font-family="sans-serif" font-size="9.1" font-weight="bold" lengthAdjust="spacing" textLength="9.8" x="31.5" y="435.845">12</text><text fill="#000000" font-family="sans-serif" font-size="9.1" lengthAdjust="spacing" textLength="165.2" x="44.1" y="435.845">shows all data and requests confirmation</text><polygon fill="#181818" points="294,458.6326,301,461.4326,294,464.2326,296.8,461.4326" style="stroke:#181818;stroke-width:0.6999999999999998;"/><line style="stroke:#181818;stroke-width:0.6999999999999998;" x1="19.6" x2="298.2" y1="461.4326" y2="461.4326"/><text fill="#000000" font-family="sans-serif" font-size="9.1" font-weight="bold" lengthAdjust="spacing" textLength="9.8" x="24.5" y="457.7487">13</text><text fill="#000000" font-family="sans-serif" font-size="9.1" lengthAdjust="spacing" textLength="54.6" x="37.1" y="457.7487">confirms data</text><polygon fill="#181818" points="27.3,480.5363,20.3,483.3363,27.3,486.1363,24.5,483.3363" style="stroke:#181818;stroke-width:0.6999999999999998;"/><line style="stroke:#181818;stroke-width:0.6999999999999998;stroke-dasharray:2.0,2.0;" x1="23.1" x2="305.2" y1="483.3363" y2="483.3363"/><text fill="#000000" font-family="sans-serif" font-size="9.1" font-weight="bold" lengthAdjust="spacing" textLength="9.8" x="31.5" y="479.6524">14</text><text fill="#000000" font-family="sans-serif" font-size="9.1" lengthAdjust="spacing" textLength="253.4" x="44.1" y="479.6524">displays operation success / show list of existing collaborators</text><!--SRC=[bLHDRzim3BtxLn0vDO3ZtdCOCA27NOe22z1JBup4E5faoHEPfEwl7-ElP5lSD3hfW-_naKyIxroeCM45LGpHR5Ei22JjAUFnf4Qpmv9MqdY2H4OmbFuoWBTeuz654ZRecR9Cd6Zegc6X2bRqUq_143mvB4_X3wlLqnmMyDqBfO3Y3WGlGM6ubnZsrPgIpet41BCVFvzdW0pF65H2oZIXEEDg30ApPPUX3UYcBSuTK6X0G9Q1Zc6r-3R8MYfgno1HIogTRYL027G44xt7TKoe0bhiI3daW7xqJ0ib7VYNogRbiZ1O58G7Lr010IlAJni4QvTaQx790Mtbc5qCRMJ-5dJ79cBEWIfqFeTw6mD1rv4SYgAOjwajNLCqAFYhH6bgua4IsJRJT4tePO2-Kd8RPzIS6B9_QksdIdyuHJLdLWesooOwe-6yZKS6Pod8I0u6asrrWbSN08CTZM7oUjj0cp2s_7hj05CDw2XOhNNsd6h4N2Vxig-2xpKsUjnvzFWMZ1FtGNrL_MwDp7LCqg_dNoZcFZC_lQIVkdhb9l_dxj2u_cLUmaQ_Rtd-AwwLHAYCgRdfyqHRRlXxcUBkPpiAHUyxWq_wHijD31kNgdFVxf7OW_d6uvkyUDPnxR5XY3MbxitmtXZzAE2nLTqrD6w0tdLo-eOllp2U4Fm7]--></g></svg>