<?xml version="1.0" encoding="us-ascii" standalone="no"?><svg xmlns="http://www.w3.org/2000/svg" xmlns:xlink="http://www.w3.org/1999/xlink" contentStyleType="text/css" height="335px" preserveAspectRatio="none" style="width:438px;height:335px;background:#FFFFFF;" version="1.1" viewBox="0 0 438 335" width="438px" zoomAndPan="magnify"><defs/><g><text fill="#000000" font-family="sans-serif" font-size="14" font-weight="bold" lengthAdjust="spacing" textLength="326" x="55" y="27.9951">System Sequence Diagram (SSD) - US023</text><rect fill="#FFFFFF" height="117.3359" style="stroke:#181818;stroke-width:1.0;" width="10" x="19" y="128.5938"/><rect fill="#FFFFFF" height="38.1328" style="stroke:#181818;stroke-width:1.0;" width="10" x="392" y="207.7969"/><line style="stroke:#181818;stroke-width:0.5;stroke-dasharray:5.0,5.0;" x1="24" x2="24" y1="118.5938" y2="254.9297"/><line style="stroke:#181818;stroke-width:0.5;stroke-dasharray:5.0,5.0;" x1="397" x2="397" y1="118.5938" y2="254.9297"/><text fill="#000000" font-family="sans-serif" font-size="14" lengthAdjust="spacing" textLength="32" x="5" y="115.292">GSM</text><ellipse cx="24" cy="50.7969" fill="#E3E3E3" rx="8" ry="8" style="stroke:#181818;stroke-width:0.5;"/><path d="M24,58.7969 L24,85.7969 M11,66.7969 L37,66.7969 M24,85.7969 L11,100.7969 M24,85.7969 L37,100.7969 " fill="none" style="stroke:#181818;stroke-width:0.5;"/><text fill="#000000" font-family="sans-serif" font-size="14" lengthAdjust="spacing" textLength="32" x="5" y="266.9248">GSM</text><ellipse cx="24" cy="278.7266" fill="#E3E3E3" rx="8" ry="8" style="stroke:#181818;stroke-width:0.5;"/><path d="M24,286.7266 L24,313.7266 M11,294.7266 L37,294.7266 M24,313.7266 L11,328.7266 M24,313.7266 L37,328.7266 " fill="none" style="stroke:#181818;stroke-width:0.5;"/><rect fill="#E3E3E3" height="30.2969" rx="2.5" ry="2.5" style="stroke:#181818;stroke-width:0.5;" width="70" x="362" y="87.2969"/><text fill="#000000" font-family="sans-serif" font-size="14" lengthAdjust="spacing" textLength="56" x="369" y="107.292">:System</text><rect fill="#E3E3E3" height="30.2969" rx="2.5" ry="2.5" style="stroke:#181818;stroke-width:0.5;" width="70" x="362" y="253.9297"/><text fill="#000000" font-family="sans-serif" font-size="14" lengthAdjust="spacing" textLength="56" x="369" y="273.9248">:System</text><rect fill="#FFFFFF" height="117.3359" style="stroke:#181818;stroke-width:1.0;" width="10" x="19" y="128.5938"/><rect fill="#FFFFFF" height="38.1328" style="stroke:#181818;stroke-width:1.0;" width="10" x="392" y="207.7969"/><rect fill="none" height="53.0703" style="stroke:#000000;stroke-width:1.5;" width="267" x="2" y="128.5938"/><path d="M2,128.5938 L68,128.5938 L68,135.5938 L58,145.5938 L2,145.5938 L2,128.5938 " fill="#EEEEEE" style="stroke:#000000;stroke-width:2.0;"/><text fill="#000000" font-family="sans-serif" font-size="13" font-weight="bold" lengthAdjust="spacing" textLength="21" x="15" y="142.6606">ref</text><text fill="#000000" font-family="sans-serif" font-size="12" lengthAdjust="spacing" textLength="259" x="6" y="160.7324">Get the details and management options</text><text fill="#000000" font-family="sans-serif" font-size="12" lengthAdjust="spacing" textLength="215" x="30" y="174.7012">of a selected entry on the agenda</text><polygon fill="#181818" points="380,203.7969,390,207.7969,380,211.7969,384,207.7969" style="stroke:#181818;stroke-width:1.0;"/><line style="stroke:#181818;stroke-width:1.0;" x1="29" x2="386" y1="207.7969" y2="207.7969"/><text fill="#000000" font-family="sans-serif" font-size="13" font-weight="bold" lengthAdjust="spacing" textLength="9" x="36" y="202.731">1</text><text fill="#000000" font-family="sans-serif" font-size="13" lengthAdjust="spacing" textLength="331" x="49" y="202.731">Selects a Team and Assigns it to the Selected Entry</text><polygon fill="#181818" points="40,232.9297,30,236.9297,40,240.9297,36,236.9297" style="stroke:#181818;stroke-width:1.0;"/><line style="stroke:#181818;stroke-width:1.0;stroke-dasharray:2.0,2.0;" x1="34" x2="391" y1="236.9297" y2="236.9297"/><text fill="#000000" font-family="sans-serif" font-size="13" font-weight="bold" lengthAdjust="spacing" textLength="9" x="46" y="231.8638">2</text><text fill="#000000" font-family="sans-serif" font-size="13" lengthAdjust="spacing" textLength="238" x="59" y="231.8638">Displays Operation Success Message</text><!--SRC=[JO-zJWCn48HxFyKe5HIHKEXI82458Og8mgIZMNoRYvKx-_3k1TtRitO4IkCVxSotCtAEQQ928yQSSZYLF3AqpEpaVp9HE5FFNfU1KJWefNwu5SY9klmJKuyZ3SBEQLIJ-aMKHtZ-dZa5nYvIN-Lttk_kiSR1FsmUdQDPSvh7Boxs3feBLgz-lm89x7QsGcE84oN5Qdjbjk7XRTCCyKBAJUeA7v4lNEeFMxooGa-CZfNY8A3KOQHaNKOsMfuqvYIV2Va8Wl1WtRY3pSg2d9hNnAaZvofn_LIN6jWtgG7nmLQeSfz5Ofy4qLRcvlH_l9VAkudQWbVGse3NfBieqq2Bu7tYGZKM_1m2Ys1lXuLmxXS0]--></g></svg>