<?xml version="1.0" encoding="us-ascii" standalone="no"?><svg xmlns="http://www.w3.org/2000/svg" xmlns:xlink="http://www.w3.org/1999/xlink" contentStyleType="text/css" height="455px" preserveAspectRatio="none" style="width:803px;height:455px;background:#FFFFFF;" version="1.1" viewBox="0 0 803 455" width="803px" zoomAndPan="magnify"><defs/><g><rect fill="#FFFFFF" height="334.3906" style="stroke:#181818;stroke-width:1.0;" width="10" x="144" y="67.4297"/><rect fill="#FFFFFF" height="34.1328" style="stroke:#181818;stroke-width:1.0;" width="10" x="149" y="253.2578"/><rect fill="#FFFFFF" height="30" style="stroke:#181818;stroke-width:1.0;" width="10" x="335" y="186.125"/><rect fill="#FFFFFF" height="30" style="stroke:#181818;stroke-width:1.0;" width="10" x="529" y="328.6875"/><rect fill="none" height="291.2578" style="stroke:#000000;stroke-width:1.5;" width="723.5" x="74" y="82.4297"/><rect fill="none" height="218.8281" style="stroke:#000000;stroke-width:1.5;" width="703.5" x="84" y="147.8594"/><line style="stroke:#181818;stroke-width:0.5;stroke-dasharray:5.0,5.0;" x1="149" x2="149" y1="36.2969" y2="419.8203"/><line style="stroke:#181818;stroke-width:0.5;stroke-dasharray:5.0,5.0;" x1="339.5" x2="339.5" y1="36.2969" y2="419.8203"/><line style="stroke:#181818;stroke-width:0.5;stroke-dasharray:5.0,5.0;" x1="533.5" x2="533.5" y1="130.2109" y2="419.8203"/><line style="stroke:#181818;stroke-width:0.5;stroke-dasharray:5.0,5.0;" x1="712.5" x2="712.5" y1="296.9063" y2="419.8203"/><rect fill="#E3E3E3" height="30.2969" rx="2.5" ry="2.5" style="stroke:#181818;stroke-width:0.5;" width="110" x="94" y="5"/><text fill="#000000" font-family="sans-serif" font-size="14" lengthAdjust="spacing" textLength="96" x="101" y="24.9951">:TeamMapper</text><rect fill="#E3E3E3" height="30.2969" rx="2.5" ry="2.5" style="stroke:#181818;stroke-width:0.5;" width="110" x="94" y="418.8203"/><text fill="#000000" font-family="sans-serif" font-size="14" lengthAdjust="spacing" textLength="96" x="101" y="438.8154">:TeamMapper</text><rect fill="#E3E3E3" height="30.2969" rx="2.5" ry="2.5" style="stroke:#181818;stroke-width:0.5;" width="159" x="260.5" y="5"/><text fill="#000000" font-family="sans-serif" font-size="14" lengthAdjust="spacing" textLength="145" x="267.5" y="24.9951">teamList:list&lt;Team&gt;</text><rect fill="#E3E3E3" height="30.2969" rx="2.5" ry="2.5" style="stroke:#181818;stroke-width:0.5;" width="159" x="260.5" y="418.8203"/><text fill="#000000" font-family="sans-serif" font-size="14" lengthAdjust="spacing" textLength="145" x="267.5" y="438.8154">teamList:list&lt;Team&gt;</text><rect fill="#E3E3E3" height="30.2969" rx="2.5" ry="2.5" style="stroke:#181818;stroke-width:0.5;" width="209" x="429.5" y="418.8203"/><text fill="#000000" font-family="sans-serif" font-size="14" lengthAdjust="spacing" textLength="195" x="436.5" y="438.8154">teamListDto:list&lt;TeamDto&gt;</text><rect fill="#E3E3E3" height="30.2969" rx="2.5" ry="2.5" style="stroke:#181818;stroke-width:0.5;" width="129" x="648.5" y="418.8203"/><text fill="#000000" font-family="sans-serif" font-size="14" lengthAdjust="spacing" textLength="115" x="655.5" y="438.8154">objDto:TeamDto</text><rect fill="#FFFFFF" height="334.3906" style="stroke:#181818;stroke-width:1.0;" width="10" x="144" y="67.4297"/><rect fill="#FFFFFF" height="34.1328" style="stroke:#181818;stroke-width:1.0;" width="10" x="149" y="253.2578"/><rect fill="#FFFFFF" height="30" style="stroke:#181818;stroke-width:1.0;" width="10" x="335" y="186.125"/><rect fill="#FFFFFF" height="30" style="stroke:#181818;stroke-width:1.0;" width="10" x="529" y="328.6875"/><polygon fill="#181818" points="132,63.4297,142,67.4297,132,71.4297,136,67.4297" style="stroke:#181818;stroke-width:1.0;"/><line style="stroke:#181818;stroke-width:1.0;" x1="0" x2="138" y1="67.4297" y2="67.4297"/><text fill="#000000" font-family="sans-serif" font-size="13" lengthAdjust="spacing" textLength="106" x="7" y="62.3638">toDTO(teamList)</text><path d="M74,82.4297 L307,82.4297 L307,89.5625 L297,99.5625 L74,99.5625 L74,82.4297 " fill="#EEEEEE" style="stroke:#000000;stroke-width:1.5;"/><rect fill="none" height="291.2578" style="stroke:#000000;stroke-width:1.5;" width="723.5" x="74" y="82.4297"/><text fill="#000000" font-family="sans-serif" font-size="13" font-weight="bold" lengthAdjust="spacing" textLength="188" x="89" y="95.4966">Convert Team List to DTO</text><polygon fill="#181818" points="417.5,116.6953,427.5,120.6953,417.5,124.6953,421.5,120.6953" style="stroke:#181818;stroke-width:1.0;"/><line style="stroke:#181818;stroke-width:1.0;" x1="154" x2="423.5" y1="120.6953" y2="120.6953"/><text fill="#000000" font-family="sans-serif" font-size="13" font-weight="bold" lengthAdjust="spacing" textLength="37" x="161" y="115.6294">8.9.1</text><text fill="#000000" font-family="sans-serif" font-size="13" lengthAdjust="spacing" textLength="51" x="202" y="115.6294">create()</text><rect fill="#E3E3E3" height="30.2969" rx="2.5" ry="2.5" style="stroke:#181818;stroke-width:0.5;" width="209" x="429.5" y="99.5625"/><text fill="#000000" font-family="sans-serif" font-size="14" lengthAdjust="spacing" textLength="195" x="436.5" y="119.5576">teamListDto:list&lt;TeamDto&gt;</text><path d="M84,147.8594 L161,147.8594 L161,154.9922 L151,164.9922 L84,164.9922 L84,147.8594 " fill="#EEEEEE" style="stroke:#000000;stroke-width:1.5;"/><rect fill="none" height="218.8281" style="stroke:#000000;stroke-width:1.5;" width="703.5" x="84" y="147.8594"/><text fill="#000000" font-family="sans-serif" font-size="13" font-weight="bold" lengthAdjust="spacing" textLength="32" x="99" y="160.9263">loop</text><text fill="#000000" font-family="sans-serif" font-size="11" font-weight="bold" lengthAdjust="spacing" textLength="185" x="176" y="160.0698">[for each object in TeamList]</text><polygon fill="#181818" points="323,182.125,333,186.125,323,190.125,327,186.125" style="stroke:#181818;stroke-width:1.0;"/><line style="stroke:#181818;stroke-width:1.0;" x1="154" x2="329" y1="186.125" y2="186.125"/><text fill="#000000" font-family="sans-serif" font-size="13" font-weight="bold" lengthAdjust="spacing" textLength="37" x="161" y="181.0591">8.9.2</text><text fill="#000000" font-family="sans-serif" font-size="13" lengthAdjust="spacing" textLength="69" x="202" y="181.0591">obj = get()</text><line style="stroke:#181818;stroke-width:1.0;" x1="154" x2="201" y1="240.2578" y2="240.2578"/><line style="stroke:#181818;stroke-width:1.0;" x1="201" x2="201" y1="240.2578" y2="253.2578"/><line style="stroke:#181818;stroke-width:1.0;" x1="160" x2="201" y1="253.2578" y2="253.2578"/><polygon fill="#181818" points="170,249.2578,160,253.2578,170,257.2578,166,253.2578" style="stroke:#181818;stroke-width:1.0;"/><text fill="#000000" font-family="sans-serif" font-size="13" font-weight="bold" lengthAdjust="spacing" textLength="37" x="166" y="235.1919">8.9.3</text><text fill="#000000" font-family="sans-serif" font-size="13" lengthAdjust="spacing" textLength="126" x="207" y="235.1919">objDto = toDto(obj)</text><polygon fill="#181818" points="636.5,283.3906,646.5,287.3906,636.5,291.3906,640.5,287.3906" style="stroke:#181818;stroke-width:1.0;"/><line style="stroke:#181818;stroke-width:1.0;" x1="154" x2="642.5" y1="287.3906" y2="287.3906"/><text fill="#000000" font-family="sans-serif" font-size="13" font-weight="bold" lengthAdjust="spacing" textLength="37" x="161" y="282.3247">8.9.4</text><text fill="#000000" font-family="sans-serif" font-size="13" lengthAdjust="spacing" textLength="180" x="202" y="282.3247">create(obj.getTeamName())</text><rect fill="#E3E3E3" height="30.2969" rx="2.5" ry="2.5" style="stroke:#181818;stroke-width:0.5;" width="129" x="648.5" y="266.2578"/><text fill="#000000" font-family="sans-serif" font-size="14" lengthAdjust="spacing" textLength="115" x="655.5" y="286.2529">objDto:TeamDto</text><polygon fill="#181818" points="517,324.6875,527,328.6875,517,332.6875,521,328.6875" style="stroke:#181818;stroke-width:1.0;"/><line style="stroke:#181818;stroke-width:1.0;" x1="154" x2="523" y1="328.6875" y2="328.6875"/><text fill="#000000" font-family="sans-serif" font-size="13" font-weight="bold" lengthAdjust="spacing" textLength="37" x="161" y="323.6216">8.9.5</text><text fill="#000000" font-family="sans-serif" font-size="13" lengthAdjust="spacing" textLength="76" x="202" y="323.6216">add(objDto)</text><polygon fill="#181818" points="11,397.8203,1,401.8203,11,405.8203,7,401.8203" style="stroke:#181818;stroke-width:1.0;"/><line style="stroke:#181818;stroke-width:1.0;" x1="5" x2="148" y1="401.8203" y2="401.8203"/><text fill="#000000" font-family="sans-serif" font-size="13" font-weight="bold" lengthAdjust="spacing" textLength="32" x="17" y="396.7544">8.10</text><text fill="#000000" font-family="sans-serif" font-size="13" lengthAdjust="spacing" textLength="89" x="53" y="396.7544">vehicleListDto</text><!--SRC=[VLJHRfj047o_hrZb2IBPCgvJ9IYDgiPEgyYqKKtIvpEiyJLmXuuzglnz5enjdDhc0R4tipDpo-cgLwLBQMK1XT4cMLjJ891rAAeTKihaLMQueBSSmM92KcTvdr2jPMh-APt1IkOL2i7Bf19LIarm4SOeYqYM9TeBa1Niomz4Oc2kAWfpVjqsjBjTGxD-d3qbis_Wuh275mxRpF9lqz6HTzo69mPtlN0G0fbf_ClR6lb2EZBQ5Ki6huStmq38X5Gj2Vjxognn9TmRNQEb5e2ccyM0rGJmqxvwJfrlb_VoagqJYwph-QBbviQKi38MK2Phu2tmJm2bzvE1xZakodhS0ryWGsB9BVaW_O5CYgUn_oqsLUl1yTc6vqR6u_A4r_RldvRyC0QM6dBs1laf2nwBVofg9tr-7atA46IQUfl8PqRId8ipK-d3g5CGPqSeEjhcu-0q1QDsxNRGZymXQroh9CU-r_4Tjz1N5dT5BiHJpeVzEPfplwsKqH0CnwFnPFZ9YzSE7d09mHK4D-5a58wkuCyiXWRsXVVzQLwFeJBE9WWfkrgrTCGAldYKjOJVJfCgC8IcykB8XyLikmWpNIjhT86QnEDBj2713qEBqb1B_ZmPV5C42xGS35uYCSMLT3bnQs9Ila52U8uV1jTYpdUCuqidv7c9UyC6zesnnJi0]--></g></svg>