<?xml version="1.0" encoding="us-ascii" standalone="no"?><svg xmlns="http://www.w3.org/2000/svg" xmlns:xlink="http://www.w3.org/1999/xlink" contentStyleType="text/css" height="709px" preserveAspectRatio="none" style="width:1407px;height:709px;background:#FFFFFF;" version="1.1" viewBox="0 0 1407 709" width="1407px" zoomAndPan="magnify"><defs/><g><rect fill="#FFFFFF" height="556.3281" style="stroke:#181818;stroke-width:1.0;" width="10" x="208" y="83.7266"/><rect fill="#FFFFFF" height="29.1328" style="stroke:#181818;stroke-width:1.0;" width="10" x="368.5" y="136.9922"/><rect fill="#FFFFFF" height="29.1328" style="stroke:#181818;stroke-width:1.0;" width="10" x="482" y="195.2578"/><rect fill="#FFFFFF" height="29.1328" style="stroke:#181818;stroke-width:1.0;" width="10" x="482" y="253.5234"/><rect fill="#FFFFFF" height="29.1328" style="stroke:#181818;stroke-width:1.0;" width="10" x="665.5" y="311.7891"/><rect fill="#FFFFFF" height="73.2344" style="stroke:#181818;stroke-width:1.0;" width="10" x="851" y="370.0547"/><rect fill="#FFFFFF" height="29.1328" style="stroke:#181818;stroke-width:1.0;" width="10" x="1048.5" y="472.4219"/><rect fill="#FFFFFF" height="73.2344" style="stroke:#181818;stroke-width:1.0;" width="10" x="1251.5" y="530.6875"/><rect fill="none" height="513.1953" style="stroke:#000000;stroke-width:1.5;" width="1298" x="103" y="98.7266"/><line style="stroke:#181818;stroke-width:0.5;stroke-dasharray:5.0,5.0;" x1="213" x2="213" y1="52.5938" y2="658.0547"/><line style="stroke:#181818;stroke-width:0.5;stroke-dasharray:5.0,5.0;" x1="373" x2="373" y1="52.5938" y2="658.0547"/><line style="stroke:#181818;stroke-width:0.5;stroke-dasharray:5.0,5.0;" x1="487" x2="487" y1="52.5938" y2="658.0547"/><line style="stroke:#181818;stroke-width:0.5;stroke-dasharray:5.0,5.0;" x1="670" x2="670" y1="52.5938" y2="658.0547"/><line style="stroke:#181818;stroke-width:0.5;stroke-dasharray:5.0,5.0;" x1="856" x2="856" y1="52.5938" y2="658.0547"/><line style="stroke:#181818;stroke-width:0.5;stroke-dasharray:5.0,5.0;" x1="1053" x2="1053" y1="52.5938" y2="658.0547"/><line style="stroke:#181818;stroke-width:0.5;stroke-dasharray:5.0,5.0;" x1="1256" x2="1256" y1="52.5938" y2="658.0547"/><rect fill="#E3E3E3" height="30.2969" rx="2.5" ry="2.5" style="stroke:#181818;stroke-width:0.5;" width="200" x="113" y="21.2969"/><text fill="#000000" font-family="sans-serif" font-size="14" lengthAdjust="spacing" textLength="186" x="120" y="41.292">:ViewDetailsEntryController</text><rect fill="#E3E3E3" height="30.2969" rx="2.5" ry="2.5" style="stroke:#181818;stroke-width:0.5;" width="200" x="113" y="657.0547"/><text fill="#000000" font-family="sans-serif" font-size="14" lengthAdjust="spacing" textLength="186" x="120" y="677.0498">:ViewDetailsEntryController</text><rect fill="#E3E3E3" height="30.2969" rx="2.5" ry="2.5" style="stroke:#181818;stroke-width:0.5;" width="101" x="323" y="21.2969"/><text fill="#000000" font-family="sans-serif" font-size="14" lengthAdjust="spacing" textLength="87" x="330" y="41.292">Repositories</text><rect fill="#E3E3E3" height="30.2969" rx="2.5" ry="2.5" style="stroke:#181818;stroke-width:0.5;" width="101" x="323" y="657.0547"/><text fill="#000000" font-family="sans-serif" font-size="14" lengthAdjust="spacing" textLength="87" x="330" y="677.0498">Repositories</text><rect fill="#E3E3E3" height="46.5938" rx="2.5" ry="2.5" style="stroke:#181818;stroke-width:0.5;" width="106" x="434" y="5"/><text fill="#000000" font-family="sans-serif" font-size="14" lengthAdjust="spacing" textLength="82" x="446" y="24.9951">repositories</text><text fill="#000000" font-family="sans-serif" font-size="14" lengthAdjust="spacing" textLength="92" x="441" y="41.292">:Repositories</text><rect fill="#E3E3E3" height="46.5938" rx="2.5" ry="2.5" style="stroke:#181818;stroke-width:0.5;" width="106" x="434" y="657.0547"/><text fill="#000000" font-family="sans-serif" font-size="14" lengthAdjust="spacing" textLength="82" x="446" y="677.0498">repositories</text><text fill="#000000" font-family="sans-serif" font-size="14" lengthAdjust="spacing" textLength="92" x="441" y="693.3467">:Repositories</text><rect fill="#E3E3E3" height="30.2969" rx="2.5" ry="2.5" style="stroke:#181818;stroke-width:0.5;" width="241" x="550" y="21.2969"/><text fill="#000000" font-family="sans-serif" font-size="14" lengthAdjust="spacing" textLength="227" x="557" y="41.292">teamRepository:TeamRepository</text><rect fill="#E3E3E3" height="30.2969" rx="2.5" ry="2.5" style="stroke:#181818;stroke-width:0.5;" width="241" x="550" y="657.0547"/><text fill="#000000" font-family="sans-serif" font-size="14" lengthAdjust="spacing" textLength="227" x="557" y="677.0498">teamRepository:TeamRepository</text><rect fill="#E3E3E3" height="30.2969" rx="2.5" ry="2.5" style="stroke:#181818;stroke-width:0.5;" width="110" x="801" y="21.2969"/><text fill="#000000" font-family="sans-serif" font-size="14" lengthAdjust="spacing" textLength="96" x="808" y="41.292">:TeamMapper</text><rect fill="#E3E3E3" height="30.2969" rx="2.5" ry="2.5" style="stroke:#181818;stroke-width:0.5;" width="110" x="801" y="657.0547"/><text fill="#000000" font-family="sans-serif" font-size="14" lengthAdjust="spacing" textLength="96" x="808" y="677.0498">:TeamMapper</text><rect fill="#E3E3E3" height="30.2969" rx="2.5" ry="2.5" style="stroke:#181818;stroke-width:0.5;" width="265" x="921" y="21.2969"/><text fill="#000000" font-family="sans-serif" font-size="14" lengthAdjust="spacing" textLength="251" x="928" y="41.292">vehicleRepository:VehicleRepository</text><rect fill="#E3E3E3" height="30.2969" rx="2.5" ry="2.5" style="stroke:#181818;stroke-width:0.5;" width="265" x="921" y="657.0547"/><text fill="#000000" font-family="sans-serif" font-size="14" lengthAdjust="spacing" textLength="251" x="928" y="677.0498">vehicleRepository:VehicleRepository</text><rect fill="#E3E3E3" height="30.2969" rx="2.5" ry="2.5" style="stroke:#181818;stroke-width:0.5;" width="121" x="1196" y="21.2969"/><text fill="#000000" font-family="sans-serif" font-size="14" lengthAdjust="spacing" textLength="107" x="1203" y="41.292">:VehicleMapper</text><rect fill="#E3E3E3" height="30.2969" rx="2.5" ry="2.5" style="stroke:#181818;stroke-width:0.5;" width="121" x="1196" y="657.0547"/><text fill="#000000" font-family="sans-serif" font-size="14" lengthAdjust="spacing" textLength="107" x="1203" y="677.0498">:VehicleMapper</text><rect fill="#FFFFFF" height="556.3281" style="stroke:#181818;stroke-width:1.0;" width="10" x="208" y="83.7266"/><rect fill="#FFFFFF" height="29.1328" style="stroke:#181818;stroke-width:1.0;" width="10" x="368.5" y="136.9922"/><rect fill="#FFFFFF" height="29.1328" style="stroke:#181818;stroke-width:1.0;" width="10" x="482" y="195.2578"/><rect fill="#FFFFFF" height="29.1328" style="stroke:#181818;stroke-width:1.0;" width="10" x="482" y="253.5234"/><rect fill="#FFFFFF" height="29.1328" style="stroke:#181818;stroke-width:1.0;" width="10" x="665.5" y="311.7891"/><rect fill="#FFFFFF" height="73.2344" style="stroke:#181818;stroke-width:1.0;" width="10" x="851" y="370.0547"/><rect fill="#FFFFFF" height="29.1328" style="stroke:#181818;stroke-width:1.0;" width="10" x="1048.5" y="472.4219"/><rect fill="#FFFFFF" height="73.2344" style="stroke:#181818;stroke-width:1.0;" width="10" x="1251.5" y="530.6875"/><polygon fill="#181818" points="196,79.7266,206,83.7266,196,87.7266,200,83.7266" style="stroke:#181818;stroke-width:1.0;"/><line style="stroke:#181818;stroke-width:1.0;" x1="0" x2="202" y1="83.7266" y2="83.7266"/><text fill="#000000" font-family="sans-serif" font-size="13" font-weight="bold" lengthAdjust="spacing" textLength="9" x="7" y="78.6606">8</text><text fill="#000000" font-family="sans-serif" font-size="13" lengthAdjust="spacing" textLength="112" x="20" y="78.6606">getDataNeeded()</text><path d="M103,98.7266 L641,98.7266 L641,105.8594 L631,115.8594 L103,115.8594 L103,98.7266 " fill="#EEEEEE" style="stroke:#000000;stroke-width:1.5;"/><rect fill="none" height="513.1953" style="stroke:#000000;stroke-width:1.5;" width="1298" x="103" y="98.7266"/><text fill="#000000" font-family="sans-serif" font-size="13" font-weight="bold" lengthAdjust="spacing" textLength="493" x="118" y="111.7935">Get Data Required to Display Selected Entry Management Options</text><polygon fill="#181818" points="356.5,132.9922,366.5,136.9922,356.5,140.9922,360.5,136.9922" style="stroke:#181818;stroke-width:1.0;"/><line style="stroke:#181818;stroke-width:1.0;" x1="218" x2="362.5" y1="136.9922" y2="136.9922"/><text fill="#000000" font-family="sans-serif" font-size="13" font-weight="bold" lengthAdjust="spacing" textLength="23" x="225" y="131.9263">8.1</text><text fill="#000000" font-family="sans-serif" font-size="13" lengthAdjust="spacing" textLength="85" x="252" y="131.9263">getInstance()</text><polygon fill="#181818" points="229,162.125,219,166.125,229,170.125,225,166.125" style="stroke:#181818;stroke-width:1.0;"/><line style="stroke:#181818;stroke-width:1.0;stroke-dasharray:2.0,2.0;" x1="223" x2="372.5" y1="166.125" y2="166.125"/><text fill="#000000" font-family="sans-serif" font-size="13" font-weight="bold" lengthAdjust="spacing" textLength="23" x="235" y="161.0591">8.2</text><text fill="#000000" font-family="sans-serif" font-size="13" lengthAdjust="spacing" textLength="75" x="262" y="161.0591">repositories</text><polygon fill="#181818" points="470,191.2578,480,195.2578,470,199.2578,474,195.2578" style="stroke:#181818;stroke-width:1.0;"/><line style="stroke:#181818;stroke-width:1.0;" x1="218" x2="476" y1="195.2578" y2="195.2578"/><text fill="#000000" font-family="sans-serif" font-size="13" font-weight="bold" lengthAdjust="spacing" textLength="23" x="225" y="190.1919">8.3</text><text fill="#000000" font-family="sans-serif" font-size="13" lengthAdjust="spacing" textLength="134" x="252" y="190.1919">getTeamRepository()</text><polygon fill="#181818" points="229,220.3906,219,224.3906,229,228.3906,225,224.3906" style="stroke:#181818;stroke-width:1.0;"/><line style="stroke:#181818;stroke-width:1.0;stroke-dasharray:2.0,2.0;" x1="223" x2="486" y1="224.3906" y2="224.3906"/><text fill="#000000" font-family="sans-serif" font-size="13" font-weight="bold" lengthAdjust="spacing" textLength="23" x="235" y="219.3247">8.4</text><text fill="#000000" font-family="sans-serif" font-size="13" lengthAdjust="spacing" textLength="101" x="262" y="219.3247">teamRepository</text><polygon fill="#181818" points="470,249.5234,480,253.5234,470,257.5234,474,253.5234" style="stroke:#181818;stroke-width:1.0;"/><line style="stroke:#181818;stroke-width:1.0;" x1="218" x2="476" y1="253.5234" y2="253.5234"/><text fill="#000000" font-family="sans-serif" font-size="13" font-weight="bold" lengthAdjust="spacing" textLength="23" x="225" y="248.4575">8.5</text><text fill="#000000" font-family="sans-serif" font-size="13" lengthAdjust="spacing" textLength="144" x="252" y="248.4575">getVehicleRepository()</text><polygon fill="#181818" points="229,278.6563,219,282.6563,229,286.6563,225,282.6563" style="stroke:#181818;stroke-width:1.0;"/><line style="stroke:#181818;stroke-width:1.0;stroke-dasharray:2.0,2.0;" x1="223" x2="486" y1="282.6563" y2="282.6563"/><text fill="#000000" font-family="sans-serif" font-size="13" font-weight="bold" lengthAdjust="spacing" textLength="23" x="235" y="277.5903">8.6</text><text fill="#000000" font-family="sans-serif" font-size="13" lengthAdjust="spacing" textLength="111" x="262" y="277.5903">vehicleRepository</text><polygon fill="#181818" points="653.5,307.7891,663.5,311.7891,653.5,315.7891,657.5,311.7891" style="stroke:#181818;stroke-width:1.0;"/><line style="stroke:#181818;stroke-width:1.0;" x1="218" x2="659.5" y1="311.7891" y2="311.7891"/><text fill="#000000" font-family="sans-serif" font-size="13" font-weight="bold" lengthAdjust="spacing" textLength="23" x="225" y="306.7231">8.7</text><text fill="#000000" font-family="sans-serif" font-size="13" lengthAdjust="spacing" textLength="89" x="252" y="306.7231">getTeamList()</text><polygon fill="#181818" points="229,336.9219,219,340.9219,229,344.9219,225,340.9219" style="stroke:#181818;stroke-width:1.0;"/><line style="stroke:#181818;stroke-width:1.0;stroke-dasharray:2.0,2.0;" x1="223" x2="669.5" y1="340.9219" y2="340.9219"/><text fill="#000000" font-family="sans-serif" font-size="13" font-weight="bold" lengthAdjust="spacing" textLength="23" x="235" y="335.856">8.8</text><text fill="#000000" font-family="sans-serif" font-size="13" lengthAdjust="spacing" textLength="56" x="262" y="335.856">teamList</text><polygon fill="#181818" points="839,366.0547,849,370.0547,839,374.0547,843,370.0547" style="stroke:#181818;stroke-width:1.0;"/><line style="stroke:#181818;stroke-width:1.0;" x1="218" x2="845" y1="370.0547" y2="370.0547"/><text fill="#000000" font-family="sans-serif" font-size="13" font-weight="bold" lengthAdjust="spacing" textLength="23" x="225" y="364.9888">8.9</text><text fill="#000000" font-family="sans-serif" font-size="13" lengthAdjust="spacing" textLength="106" x="252" y="364.9888">toDTO(teamList)</text><rect fill="none" height="39.1016" style="stroke:#000000;stroke-width:1.5;" width="190" x="798" y="378.0547"/><path d="M798,378.0547 L864,378.0547 L864,385.0547 L854,395.0547 L798,395.0547 L798,378.0547 " fill="#EEEEEE" style="stroke:#000000;stroke-width:2.0;"/><text fill="#000000" font-family="sans-serif" font-size="13" font-weight="bold" lengthAdjust="spacing" textLength="21" x="811" y="392.1216">ref</text><text fill="#000000" font-family="sans-serif" font-size="12" lengthAdjust="spacing" textLength="182" x="802" y="410.1934">Convert the Team List to DTO</text><polygon fill="#181818" points="229,439.2891,219,443.2891,229,447.2891,225,443.2891" style="stroke:#181818;stroke-width:1.0;"/><line style="stroke:#181818;stroke-width:1.0;" x1="223" x2="855" y1="443.2891" y2="443.2891"/><text fill="#000000" font-family="sans-serif" font-size="13" font-weight="bold" lengthAdjust="spacing" textLength="32" x="235" y="438.2231">8.10</text><text fill="#000000" font-family="sans-serif" font-size="13" lengthAdjust="spacing" textLength="79" x="271" y="438.2231">teamListDto</text><polygon fill="#181818" points="1036.5,468.4219,1046.5,472.4219,1036.5,476.4219,1040.5,472.4219" style="stroke:#181818;stroke-width:1.0;"/><line style="stroke:#181818;stroke-width:1.0;" x1="218" x2="1042.5" y1="472.4219" y2="472.4219"/><text fill="#000000" font-family="sans-serif" font-size="13" font-weight="bold" lengthAdjust="spacing" textLength="32" x="225" y="467.356">8.11</text><text fill="#000000" font-family="sans-serif" font-size="13" lengthAdjust="spacing" textLength="99" x="261" y="467.356">getVehicleList()</text><polygon fill="#181818" points="229,497.5547,219,501.5547,229,505.5547,225,501.5547" style="stroke:#181818;stroke-width:1.0;"/><line style="stroke:#181818;stroke-width:1.0;stroke-dasharray:2.0,2.0;" x1="223" x2="1052.5" y1="501.5547" y2="501.5547"/><text fill="#000000" font-family="sans-serif" font-size="13" font-weight="bold" lengthAdjust="spacing" textLength="32" x="235" y="496.4888">8.12</text><text fill="#000000" font-family="sans-serif" font-size="13" lengthAdjust="spacing" textLength="66" x="271" y="496.4888">vehicleList</text><polygon fill="#181818" points="1239.5,526.6875,1249.5,530.6875,1239.5,534.6875,1243.5,530.6875" style="stroke:#181818;stroke-width:1.0;"/><line style="stroke:#181818;stroke-width:1.0;" x1="218" x2="1245.5" y1="530.6875" y2="530.6875"/><text fill="#000000" font-family="sans-serif" font-size="13" font-weight="bold" lengthAdjust="spacing" textLength="32" x="225" y="525.6216">8.13</text><text fill="#000000" font-family="sans-serif" font-size="13" lengthAdjust="spacing" textLength="116" x="261" y="525.6216">toDTO(vehicleList)</text><rect fill="none" height="39.1016" style="stroke:#000000;stroke-width:1.5;" width="201" x="1193" y="538.6875"/><path d="M1193,538.6875 L1259,538.6875 L1259,545.6875 L1249,555.6875 L1193,555.6875 L1193,538.6875 " fill="#EEEEEE" style="stroke:#000000;stroke-width:2.0;"/><text fill="#000000" font-family="sans-serif" font-size="13" font-weight="bold" lengthAdjust="spacing" textLength="21" x="1206" y="552.7544">ref</text><text fill="#000000" font-family="sans-serif" font-size="12" lengthAdjust="spacing" textLength="193" x="1197" y="570.8262">Convert the Vehicle List to DTO</text><polygon fill="#181818" points="229,599.9219,219,603.9219,229,607.9219,225,603.9219" style="stroke:#181818;stroke-width:1.0;"/><line style="stroke:#181818;stroke-width:1.0;" x1="223" x2="1255.5" y1="603.9219" y2="603.9219"/><text fill="#000000" font-family="sans-serif" font-size="13" font-weight="bold" lengthAdjust="spacing" textLength="32" x="235" y="598.856">8.14</text><text fill="#000000" font-family="sans-serif" font-size="13" lengthAdjust="spacing" textLength="89" x="271" y="598.856">vehicleListDto</text><polygon fill="#181818" points="11,636.0547,1,640.0547,11,644.0547,7,640.0547" style="stroke:#181818;stroke-width:1.0;"/><line style="stroke:#181818;stroke-width:1.0;stroke-dasharray:2.0,2.0;" x1="5" x2="212" y1="640.0547" y2="640.0547"/><text fill="#000000" font-family="sans-serif" font-size="13" font-weight="bold" lengthAdjust="spacing" textLength="9" x="17" y="634.9888">9</text><text fill="#000000" font-family="sans-serif" font-size="13" lengthAdjust="spacing" textLength="176" x="30" y="634.9888">teamListDto, vehicleListDto</text><!--SRC=[xLTRZzCw47xthnZnGeleihiiHn312h5TRcfPH4jvuSMRU5j3OWV7wMh_FMF7IPnRjpf7EWAfVOWwuxdvytmJ9_l9HKeLJI2HGeOR9HC6MkMCPDLAIiEVTCqM-Yvce5YegLZ7la6seP6yvM8DDpJE626erZpaAHKQ7WGhpcwdJ5CUPvT2gxiBYKyPnqmz09h1nVBBx9IqdBwmL6PSIyLPPgsieccZF9ll8kYusFN2hnLTCvfKvdV1iY5QtrBLtelHpscQkjfhaJnvsCqnuvaEOdoyD8RdbOlHzrjFjQmTK6ZweABf9gz_60zdNDaQkuTFcgPRjk5XpBnjhzeQw-zfEmTPB7dxRsWw4BYKDGhE_DptxMBXkLLmEECAaLN3fXUKsiNtG14G6a9ehgN8askcu3aXa_EY3o60DTDJgkadnY8MZSODmwCJGaFDjrGprxTh9VCKtZ4DnWdRz5VE5Oi0qqnvbiRq3XOiHjAWpdO_pAb0DYKCIxrADPV2j2VWhoW0Ax4dOWlv839aMyYm36DHvNPTRNJsBqpA3GJWqy9QHApFhyfMqyIcR9AXdTZdb5cePR-49h_QHRHZ35NIwSz_LqodyVUkfuIYmiMqMxk8Ub8OTIcrqR1TtifRUtRJ5ep2RjHokhmQbI5wSZlkEG1kG6xHprkmeQL0hGQzANp0nB8jkhoo1an4njd-HnQNEt5Lk9eSsHuzmh92nR00nCBQnbAcS2CLuEOsWFp3VWSkwba7xjSV5EEX3xmoC3juEzjiX6c1U4-AGh8v3FjV6Kor7A4uaCk7j3za2mOCTUHQv1DD49RnKAdUeUm46MFJA1eL9U-0n0o_7QZuo-QCoIvZCnRx2oj7exu_QubTjLwrjKTddzuUfnexRBo7obLFsKFneHvfXDfHMejqNjJX-be7MZ6mVzadehFeSB7DHu-J7WJruJHVXJtitCNGLGzozsKPe6iVEfsutLFPE_K-DDvnGdlbwEVr6qK5tWGUWvFdCcAn9t-EBThZUtRQweKz3dDW2WmXxTDo6EpMJ21ajpduOw5JRpaPjltn1q4WZUpU5Uk5LRoSJ5pevjHvt9V8I-A-9OpsDKRFavXutoc7Jvp_zedpVtzF72xfXqlwuPBUkQGVBcb_rYNjhtuxujr5wA_p6Rgg3ESSd1oT7f-U7JqTBJSvl6NNSF8CJbu4PyV1yJFuTha4ipmcetUVPzjJo6IkGWOH9bJyEZUJSam-qYqEsLnedh00Z3HQpiUmk2oLE6ItN4bXvYlvk9eNHl1UwaKgjJN-vspoXciSoyeUr9nCsGtDOuskeOpmHHp0r-NRoNComrTrZhCwGC38XSpD-CQrnMy0]--></g></svg>