<?xml version="1.0" encoding="us-ascii" standalone="no"?><svg xmlns="http://www.w3.org/2000/svg" xmlns:xlink="http://www.w3.org/1999/xlink" contentStyleType="text/css" height="563px" preserveAspectRatio="none" style="width:2393px;height:563px;background:#FFFFFF;" version="1.1" viewBox="0 0 2393 563" width="2393px" zoomAndPan="magnify"><defs/><g><!--cluster UI--><g id="cluster_UI"><path d="M8.5,82 L24.5,82 A3.75,3.75 0 0 1 27,84.5 L34,104.2969 L515.5,104.2969 A2.5,2.5 0 0 1 518,106.7969 L518,194.5 A2.5,2.5 0 0 1 515.5,197 L8.5,197 A2.5,2.5 0 0 1 6,194.5 L6,84.5 A2.5,2.5 0 0 1 8.5,82 " fill="#F0F0F0" style="stroke:#000000;stroke-width:1.5;"/><line style="stroke:#000000;stroke-width:1.5;" x1="6" x2="34" y1="104.2969" y2="104.2969"/><text fill="#000000" font-family="sans-serif" font-size="14" font-weight="bold" lengthAdjust="spacing" textLength="15" x="10" y="96.9951">UI</text></g><!--cluster Core--><g id="cluster_Core"><path d="M553.5,6 L592.5,6 A3.75,3.75 0 0 1 595,8.5 L602,28.2969 L2384,28.2969 A2.5,2.5 0 0 1 2386.5,30.7969 L2386.5,553.5 A2.5,2.5 0 0 1 2384,556 L553.5,556 A2.5,2.5 0 0 1 551,553.5 L551,8.5 A2.5,2.5 0 0 1 553.5,6 " fill="#F0F0F0" style="stroke:#000000;stroke-width:1.5;"/><line style="stroke:#000000;stroke-width:1.5;" x1="551" x2="602" y1="28.2969" y2="28.2969"/><text fill="#000000" font-family="sans-serif" font-size="14" font-weight="bold" lengthAdjust="spacing" textLength="38" x="555" y="20.9951">Core</text></g><!--cluster Mapper--><g id="cluster_Mapper"><path d="M1602.5,367 L1662.5,367 A3.75,3.75 0 0 1 1665,369.5 L1672,389.2969 L2087.5,389.2969 A2.5,2.5 0 0 1 2090,391.7969 L2090,479.5 A2.5,2.5 0 0 1 2087.5,482 L1602.5,482 A2.5,2.5 0 0 1 1600,479.5 L1600,369.5 A2.5,2.5 0 0 1 1602.5,367 " fill="#DDDDDD" style="stroke:#000000;stroke-width:1.5;"/><line style="stroke:#000000;stroke-width:1.5;" x1="1600" x2="1672" y1="389.2969" y2="389.2969"/><text fill="#000000" font-family="sans-serif" font-size="14" font-weight="bold" lengthAdjust="spacing" textLength="59" x="1604" y="381.9951">Mapper</text></g><!--cluster DTO--><g id="cluster_DTO"><path d="M2125.5,367 L2159.5,367 A3.75,3.75 0 0 1 2162,369.5 L2169,389.2969 L2348.5,389.2969 A2.5,2.5 0 0 1 2351,391.7969 L2351,529.5 A2.5,2.5 0 0 1 2348.5,532 L2125.5,532 A2.5,2.5 0 0 1 2123,529.5 L2123,369.5 A2.5,2.5 0 0 1 2125.5,367 " fill="#DDDDDD" style="stroke:#000000;stroke-width:1.5;"/><line style="stroke:#000000;stroke-width:1.5;" x1="2123" x2="2169" y1="389.2969" y2="389.2969"/><text fill="#000000" font-family="sans-serif" font-size="14" font-weight="bold" lengthAdjust="spacing" textLength="33" x="2127" y="381.9951">DTO</text></g><!--cluster Controller--><g id="cluster_Controller"><path d="M577.5,88 L657.5,88 A3.75,3.75 0 0 1 660,90.5 L667,110.2969 L857.5,110.2969 A2.5,2.5 0 0 1 860,112.7969 L860,283.5 A2.5,2.5 0 0 1 857.5,286 L577.5,286 A2.5,2.5 0 0 1 575,283.5 L575,90.5 A2.5,2.5 0 0 1 577.5,88 " fill="#DDDDDD" style="stroke:#000000;stroke-width:1.5;"/><line style="stroke:#000000;stroke-width:1.5;" x1="575" x2="667" y1="110.2969" y2="110.2969"/><text fill="#000000" font-family="sans-serif" font-size="14" font-weight="bold" lengthAdjust="spacing" textLength="79" x="579" y="102.9951">Controller</text></g><!--cluster Domain--><g id="cluster_Domain"><path d="M971.5,50 L1030.5,50 A3.75,3.75 0 0 1 1033,52.5 L1040,72.2969 L2360,72.2969 A2.5,2.5 0 0 1 2362.5,74.7969 L2362.5,340.5 A2.5,2.5 0 0 1 2360,343 L971.5,343 A2.5,2.5 0 0 1 969,340.5 L969,52.5 A2.5,2.5 0 0 1 971.5,50 " fill="#DDDDDD" style="stroke:#000000;stroke-width:1.5;"/><line style="stroke:#000000;stroke-width:1.5;" x1="969" x2="1040" y1="72.2969" y2="72.2969"/><text fill="#000000" font-family="sans-serif" font-size="14" font-weight="bold" lengthAdjust="spacing" textLength="58" x="973" y="64.9951">Domain</text></g><!--cluster Repository--><g id="cluster_Repository"><path d="M995.5,93 L1081.5,93 A3.75,3.75 0 0 1 1084,95.5 L1091,115.2969 L1968,115.2969 A2.5,2.5 0 0 1 1970.5,117.7969 L1970.5,316.5 A2.5,2.5 0 0 1 1968,319 L995.5,319 A2.5,2.5 0 0 1 993,316.5 L993,95.5 A2.5,2.5 0 0 1 995.5,93 " fill="#BBBBBB" style="stroke:#000000;stroke-width:1.5;"/><line style="stroke:#000000;stroke-width:1.5;" x1="993" x2="1091" y1="115.2969" y2="115.2969"/><text fill="#000000" font-family="sans-serif" font-size="14" font-weight="bold" lengthAdjust="spacing" textLength="85" x="997" y="107.9951">Repository</text></g><!--cluster Lists--><g id="cluster_Lists"><path d="M1746,162 L1784,162 A3.75,3.75 0 0 1 1786.5,164.5 L1793.5,184.2969 L1944,184.2969 A2.5,2.5 0 0 1 1946.5,186.7969 L1946.5,292.5 A2.5,2.5 0 0 1 1944,295 L1746,295 A2.5,2.5 0 0 1 1743.5,292.5 L1743.5,164.5 A2.5,2.5 0 0 1 1746,162 " fill="#999999" style="stroke:#000000;stroke-width:1.5;"/><line style="stroke:#000000;stroke-width:1.5;" x1="1743.5" x2="1793.5" y1="184.2969" y2="184.2969"/><text fill="#000000" font-family="sans-serif" font-size="14" font-weight="bold" lengthAdjust="spacing" textLength="37" x="1747.5" y="176.9951">Lists</text></g><!--cluster Model--><g id="cluster_Model"><path d="M2138,138 L2186,138 A3.75,3.75 0 0 1 2188.5,140.5 L2195.5,160.2969 L2336,160.2969 A2.5,2.5 0 0 1 2338.5,162.7969 L2338.5,316.5 A2.5,2.5 0 0 1 2336,319 L2138,319 A2.5,2.5 0 0 1 2135.5,316.5 L2135.5,140.5 A2.5,2.5 0 0 1 2138,138 " fill="#BBBBBB" style="stroke:#000000;stroke-width:1.5;"/><line style="stroke:#000000;stroke-width:1.5;" x1="2135.5" x2="2195.5" y1="160.2969" y2="160.2969"/><text fill="#000000" font-family="sans-serif" font-size="14" font-weight="bold" lengthAdjust="spacing" textLength="47" x="2139.5" y="152.9951">Model</text></g><!--class ManageAgendaUI--><g id="elem_ManageAgendaUI"><rect codeLine="7" fill="#F1F1F1" height="48" id="ManageAgendaUI" rx="2.5" ry="2.5" style="stroke:#181818;stroke-width:0.5;" width="153" x="22" y="129"/><ellipse cx="37" cy="145" fill="#ADD1B2" rx="11" ry="11" style="stroke:#181818;stroke-width:1.0;"/><path d="M39.9688,150.6406 Q39.3906,150.9375 38.75,151.0781 Q38.1094,151.2344 37.4063,151.2344 Q34.9063,151.2344 33.5781,149.5938 Q32.2656,147.9375 32.2656,144.8125 Q32.2656,141.6875 33.5781,140.0313 Q34.9063,138.375 37.4063,138.375 Q38.1094,138.375 38.75,138.5313 Q39.4063,138.6875 39.9688,138.9844 L39.9688,141.7031 Q39.3438,141.125 38.75,140.8594 Q38.1563,140.5781 37.5313,140.5781 Q36.1875,140.5781 35.5,141.6563 Q34.8125,142.7188 34.8125,144.8125 Q34.8125,146.9063 35.5,147.9844 Q36.1875,149.0469 37.5313,149.0469 Q38.1563,149.0469 38.75,148.7813 Q39.3438,148.5 39.9688,147.9219 L39.9688,150.6406 Z " fill="#000000"/><text fill="#000000" font-family="sans-serif" font-size="14" lengthAdjust="spacing" textLength="121" x="51" y="149.8467">ManageAgendaUI</text><line style="stroke:#181818;stroke-width:0.5;" x1="23" x2="174" y1="161" y2="161"/><line style="stroke:#181818;stroke-width:0.5;" x1="23" x2="174" y1="169" y2="169"/></g><!--class ViewDetailsEntryUI--><g id="elem_ViewDetailsEntryUI"><rect codeLine="10" fill="#F1F1F1" height="64.2969" id="ViewDetailsEntryUI" rx="2.5" ry="2.5" style="stroke:#181818;stroke-width:0.5;" width="266" x="236" y="117"/><ellipse cx="301.25" cy="133" fill="#ADD1B2" rx="11" ry="11" style="stroke:#181818;stroke-width:1.0;"/><path d="M304.2188,138.6406 Q303.6406,138.9375 303,139.0781 Q302.3594,139.2344 301.6563,139.2344 Q299.1563,139.2344 297.8281,137.5938 Q296.5156,135.9375 296.5156,132.8125 Q296.5156,129.6875 297.8281,128.0313 Q299.1563,126.375 301.6563,126.375 Q302.3594,126.375 303,126.5313 Q303.6563,126.6875 304.2188,126.9844 L304.2188,129.7031 Q303.5938,129.125 303,128.8594 Q302.4063,128.5781 301.7813,128.5781 Q300.4375,128.5781 299.75,129.6563 Q299.0625,130.7188 299.0625,132.8125 Q299.0625,134.9063 299.75,135.9844 Q300.4375,137.0469 301.7813,137.0469 Q302.4063,137.0469 303,136.7813 Q303.5938,136.5 304.2188,135.9219 L304.2188,138.6406 Z " fill="#000000"/><text fill="#000000" font-family="sans-serif" font-size="14" lengthAdjust="spacing" textLength="127" x="321.75" y="137.8467">ViewDetailsEntryUI</text><line style="stroke:#181818;stroke-width:0.5;" x1="237" x2="501" y1="149" y2="149"/><line style="stroke:#181818;stroke-width:0.5;" x1="237" x2="501" y1="157" y2="157"/><text fill="#000000" font-family="sans-serif" font-size="14" lengthAdjust="spacing" textLength="254" x="242" y="173.9951">+setLabels(entryDto: EntryDto): void</text></g><!--class EntryMapper--><g id="elem_EntryMapper"><rect codeLine="20" fill="#F1F1F1" height="64.2969" id="EntryMapper" rx="2.5" ry="2.5" style="stroke:#181818;stroke-width:0.5;" width="458" x="1616" y="402"/><ellipse cx="1797.25" cy="418" fill="#ADD1B2" rx="11" ry="11" style="stroke:#181818;stroke-width:1.0;"/><path d="M1800.2188,423.6406 Q1799.6406,423.9375 1799,424.0781 Q1798.3594,424.2344 1797.6563,424.2344 Q1795.1563,424.2344 1793.8281,422.5938 Q1792.5156,420.9375 1792.5156,417.8125 Q1792.5156,414.6875 1793.8281,413.0313 Q1795.1563,411.375 1797.6563,411.375 Q1798.3594,411.375 1799,411.5313 Q1799.6563,411.6875 1800.2188,411.9844 L1800.2188,414.7031 Q1799.5938,414.125 1799,413.8594 Q1798.4063,413.5781 1797.7813,413.5781 Q1796.4375,413.5781 1795.75,414.6563 Q1795.0625,415.7188 1795.0625,417.8125 Q1795.0625,419.9063 1795.75,420.9844 Q1796.4375,422.0469 1797.7813,422.0469 Q1798.4063,422.0469 1799,421.7813 Q1799.5938,421.5 1800.2188,420.9219 L1800.2188,423.6406 Z " fill="#000000"/><text fill="#000000" font-family="sans-serif" font-size="14" lengthAdjust="spacing" textLength="87" x="1817.75" y="422.8467">EntryMapper</text><line style="stroke:#181818;stroke-width:0.5;" x1="1617" x2="2073" y1="434" y2="434"/><line style="stroke:#181818;stroke-width:0.5;" x1="1617" x2="2073" y1="442" y2="442"/><text fill="#000000" font-family="sans-serif" font-size="14" lengthAdjust="spacing" textLength="446" x="1622" y="458.9951">+entryListToEntryDtoList(entryList: List&lt;Entry&gt;): List&lt;EntryDto&gt;</text></g><!--class EntryDto--><g id="elem_EntryDto"><rect codeLine="28" fill="#F1F1F1" height="113.1875" id="EntryDto" rx="2.5" ry="2.5" style="stroke:#181818;stroke-width:0.5;" width="196" x="2139" y="402.5"/><ellipse cx="2202.75" cy="418.5" fill="#ADD1B2" rx="11" ry="11" style="stroke:#181818;stroke-width:1.0;"/><path d="M2205.7188,424.1406 Q2205.1406,424.4375 2204.5,424.5781 Q2203.8594,424.7344 2203.1563,424.7344 Q2200.6563,424.7344 2199.3281,423.0938 Q2198.0156,421.4375 2198.0156,418.3125 Q2198.0156,415.1875 2199.3281,413.5313 Q2200.6563,411.875 2203.1563,411.875 Q2203.8594,411.875 2204.5,412.0313 Q2205.1563,412.1875 2205.7188,412.4844 L2205.7188,415.2031 Q2205.0938,414.625 2204.5,414.3594 Q2203.9063,414.0781 2203.2813,414.0781 Q2201.9375,414.0781 2201.25,415.1563 Q2200.5625,416.2188 2200.5625,418.3125 Q2200.5625,420.4063 2201.25,421.4844 Q2201.9375,422.5469 2203.2813,422.5469 Q2203.9063,422.5469 2204.5,422.2813 Q2205.0938,422 2205.7188,421.4219 L2205.7188,424.1406 Z " fill="#000000"/><text fill="#000000" font-family="sans-serif" font-size="14" lengthAdjust="spacing" textLength="60" x="2223.25" y="423.3467">EntryDto</text><line style="stroke:#181818;stroke-width:0.5;" x1="2140" x2="2334" y1="434.5" y2="434.5"/><text fill="#000000" font-family="sans-serif" font-size="14" lengthAdjust="spacing" textLength="118" x="2145" y="451.4951">+startDate: Date</text><text fill="#000000" font-family="sans-serif" font-size="14" lengthAdjust="spacing" textLength="104" x="2145" y="467.792">+status: String</text><text fill="#000000" font-family="sans-serif" font-size="14" lengthAdjust="spacing" textLength="184" x="2145" y="484.0889">+teamAssigned: TeamDto</text><text fill="#000000" font-family="sans-serif" font-size="14" lengthAdjust="spacing" textLength="128" x="2145" y="500.3857">+reference: String</text><line style="stroke:#181818;stroke-width:0.5;" x1="2140" x2="2334" y1="507.6875" y2="507.6875"/></g><!--class ViewDetailsEntryController--><g id="elem_ViewDetailsEntryController"><rect codeLine="43" fill="#F1F1F1" height="48" id="ViewDetailsEntryController" rx="2.5" ry="2.5" style="stroke:#181818;stroke-width:0.5;" width="213" x="611" y="123"/><ellipse cx="626" cy="139" fill="#ADD1B2" rx="11" ry="11" style="stroke:#181818;stroke-width:1.0;"/><path d="M628.9688,144.6406 Q628.3906,144.9375 627.75,145.0781 Q627.1094,145.2344 626.4063,145.2344 Q623.9063,145.2344 622.5781,143.5938 Q621.2656,141.9375 621.2656,138.8125 Q621.2656,135.6875 622.5781,134.0313 Q623.9063,132.375 626.4063,132.375 Q627.1094,132.375 627.75,132.5313 Q628.4063,132.6875 628.9688,132.9844 L628.9688,135.7031 Q628.3438,135.125 627.75,134.8594 Q627.1563,134.5781 626.5313,134.5781 Q625.1875,134.5781 624.5,135.6563 Q623.8125,136.7188 623.8125,138.8125 Q623.8125,140.9063 624.5,141.9844 Q625.1875,143.0469 626.5313,143.0469 Q627.1563,143.0469 627.75,142.7813 Q628.3438,142.5 628.9688,141.9219 L628.9688,144.6406 Z " fill="#000000"/><text fill="#000000" font-family="sans-serif" font-size="14" lengthAdjust="spacing" textLength="181" x="640" y="143.8467">ViewDetailsEntryController</text><line style="stroke:#181818;stroke-width:0.5;" x1="612" x2="823" y1="155" y2="155"/><line style="stroke:#181818;stroke-width:0.5;" x1="612" x2="823" y1="163" y2="163"/></g><!--class AssignEntryOnAgendaController--><g id="elem_AssignEntryOnAgendaController"><rect codeLine="49" fill="#F1F1F1" height="64.2969" id="AssignEntryOnAgendaController" rx="2.5" ry="2.5" style="stroke:#181818;stroke-width:0.5;" width="253" x="591" y="206"/><ellipse cx="606" cy="222" fill="#ADD1B2" rx="11" ry="11" style="stroke:#181818;stroke-width:1.0;"/><path d="M608.9688,227.6406 Q608.3906,227.9375 607.75,228.0781 Q607.1094,228.2344 606.4063,228.2344 Q603.9063,228.2344 602.5781,226.5938 Q601.2656,224.9375 601.2656,221.8125 Q601.2656,218.6875 602.5781,217.0313 Q603.9063,215.375 606.4063,215.375 Q607.1094,215.375 607.75,215.5313 Q608.4063,215.6875 608.9688,215.9844 L608.9688,218.7031 Q608.3438,218.125 607.75,217.8594 Q607.1563,217.5781 606.5313,217.5781 Q605.1875,217.5781 604.5,218.6563 Q603.8125,219.7188 603.8125,221.8125 Q603.8125,223.9063 604.5,224.9844 Q605.1875,226.0469 606.5313,226.0469 Q607.1563,226.0469 607.75,225.7813 Q608.3438,225.5 608.9688,224.9219 L608.9688,227.6406 Z " fill="#000000"/><text fill="#000000" font-family="sans-serif" font-size="14" lengthAdjust="spacing" textLength="221" x="620" y="226.8467">AssignEntryOnAgendaController</text><line style="stroke:#181818;stroke-width:0.5;" x1="592" x2="843" y1="238" y2="238"/><line style="stroke:#181818;stroke-width:0.5;" x1="592" x2="843" y1="246" y2="246"/><text fill="#000000" font-family="sans-serif" font-size="14" lengthAdjust="spacing" textLength="214" x="597" y="262.9951">+getAgenda(): List&lt;EntryDto&gt;</text></g><!--class Repositories--><g id="elem_Repositories"><rect codeLine="61" fill="#F1F1F1" height="129.4844" id="Repositories" rx="2.5" ry="2.5" style="stroke:#181818;stroke-width:0.5;" width="288" x="1009" y="173.5"/><ellipse cx="1105.25" cy="189.5" fill="#ADD1B2" rx="11" ry="11" style="stroke:#181818;stroke-width:1.0;"/><path d="M1108.2188,195.1406 Q1107.6406,195.4375 1107,195.5781 Q1106.3594,195.7344 1105.6563,195.7344 Q1103.1563,195.7344 1101.8281,194.0938 Q1100.5156,192.4375 1100.5156,189.3125 Q1100.5156,186.1875 1101.8281,184.5313 Q1103.1563,182.875 1105.6563,182.875 Q1106.3594,182.875 1107,183.0313 Q1107.6563,183.1875 1108.2188,183.4844 L1108.2188,186.2031 Q1107.5938,185.625 1107,185.3594 Q1106.4063,185.0781 1105.7813,185.0781 Q1104.4375,185.0781 1103.75,186.1563 Q1103.0625,187.2188 1103.0625,189.3125 Q1103.0625,191.4063 1103.75,192.4844 Q1104.4375,193.5469 1105.7813,193.5469 Q1106.4063,193.5469 1107,193.2813 Q1107.5938,193 1108.2188,192.4219 L1108.2188,195.1406 Z " fill="#000000"/><text fill="#000000" font-family="sans-serif" font-size="14" lengthAdjust="spacing" textLength="87" x="1125.75" y="194.3467">Repositories</text><line style="stroke:#181818;stroke-width:0.5;" x1="1010" x2="1296" y1="205.5" y2="205.5"/><text fill="#000000" font-family="sans-serif" font-size="14" lengthAdjust="spacing" textLength="232" x="1015" y="222.4951">-entryRepository: EntryRepository</text><text fill="#000000" font-family="sans-serif" font-size="14" lengthAdjust="spacing" textLength="205" x="1015" y="238.792">-static instance : Repositories</text><line style="stroke:#181818;stroke-width:0.5;" x1="1010" x2="1296" y1="246.0938" y2="246.0938"/><text fill="#000000" font-family="sans-serif" font-size="14" lengthAdjust="spacing" textLength="204" x="1015" y="263.0889">+getInstance() : Repositories</text><text fill="#000000" font-family="sans-serif" font-size="14" lengthAdjust="spacing" textLength="276" x="1015" y="279.3857">+getEntryRepository() : EntryRepository</text><text fill="#000000" font-family="sans-serif" font-size="14" lengthAdjust="spacing" textLength="102" x="1015" y="295.6826">-Repositories()</text></g><!--class EntryRepository--><g id="elem_EntryRepository"><rect codeLine="71" fill="#F1F1F1" height="80.5938" id="EntryRepository" rx="2.5" ry="2.5" style="stroke:#181818;stroke-width:0.5;" width="195" x="1358" y="197.5"/><ellipse cx="1397.3" cy="213.5" fill="#ADD1B2" rx="11" ry="11" style="stroke:#181818;stroke-width:1.0;"/><path d="M1400.2688,219.1406 Q1399.6906,219.4375 1399.05,219.5781 Q1398.4094,219.7344 1397.7063,219.7344 Q1395.2063,219.7344 1393.8781,218.0938 Q1392.5656,216.4375 1392.5656,213.3125 Q1392.5656,210.1875 1393.8781,208.5313 Q1395.2063,206.875 1397.7063,206.875 Q1398.4094,206.875 1399.05,207.0313 Q1399.7063,207.1875 1400.2688,207.4844 L1400.2688,210.2031 Q1399.6438,209.625 1399.05,209.3594 Q1398.4563,209.0781 1397.8313,209.0781 Q1396.4875,209.0781 1395.8,210.1563 Q1395.1125,211.2188 1395.1125,213.3125 Q1395.1125,215.4063 1395.8,216.4844 Q1396.4875,217.5469 1397.8313,217.5469 Q1398.4563,217.5469 1399.05,217.2813 Q1399.6438,217 1400.2688,216.4219 L1400.2688,219.1406 Z " fill="#000000"/><text fill="#000000" font-family="sans-serif" font-size="14" lengthAdjust="spacing" textLength="109" x="1416.7" y="218.3467">EntryRepository</text><line style="stroke:#181818;stroke-width:0.5;" x1="1359" x2="1552" y1="229.5" y2="229.5"/><text fill="#000000" font-family="sans-serif" font-size="14" lengthAdjust="spacing" textLength="147" x="1364" y="246.4951">-agenda: AgendaList;</text><line style="stroke:#181818;stroke-width:0.5;" x1="1359" x2="1552" y1="253.7969" y2="253.7969"/><text fill="#000000" font-family="sans-serif" font-size="14" lengthAdjust="spacing" textLength="183" x="1364" y="270.792">+getAgenda(): AgendaList</text></g><!--class AgendaList--><g id="elem_AgendaList"><rect codeLine="80" fill="#F1F1F1" height="80.5938" id="AgendaList" rx="2.5" ry="2.5" style="stroke:#181818;stroke-width:0.5;" width="171" x="1759.5" y="197.5"/><ellipse cx="1802.85" cy="213.5" fill="#ADD1B2" rx="11" ry="11" style="stroke:#181818;stroke-width:1.0;"/><path d="M1805.8188,219.1406 Q1805.2406,219.4375 1804.6,219.5781 Q1803.9594,219.7344 1803.2563,219.7344 Q1800.7563,219.7344 1799.4281,218.0938 Q1798.1156,216.4375 1798.1156,213.3125 Q1798.1156,210.1875 1799.4281,208.5313 Q1800.7563,206.875 1803.2563,206.875 Q1803.9594,206.875 1804.6,207.0313 Q1805.2563,207.1875 1805.8188,207.4844 L1805.8188,210.2031 Q1805.1938,209.625 1804.6,209.3594 Q1804.0063,209.0781 1803.3813,209.0781 Q1802.0375,209.0781 1801.35,210.1563 Q1800.6625,211.2188 1800.6625,213.3125 Q1800.6625,215.4063 1801.35,216.4844 Q1802.0375,217.5469 1803.3813,217.5469 Q1804.0063,217.5469 1804.6,217.2813 Q1805.1938,217 1805.8188,216.4219 L1805.8188,219.1406 Z " fill="#000000"/><text fill="#000000" font-family="sans-serif" font-size="14" lengthAdjust="spacing" textLength="76" x="1823.15" y="218.3467">AgendaList</text><line style="stroke:#181818;stroke-width:0.5;" x1="1760.5" x2="1929.5" y1="229.5" y2="229.5"/><text fill="#000000" font-family="sans-serif" font-size="14" lengthAdjust="spacing" textLength="148" x="1765.5" y="246.4951">-agenda: List&lt;Entry&gt;</text><line style="stroke:#181818;stroke-width:0.5;" x1="1760.5" x2="1929.5" y1="253.7969" y2="253.7969"/><text fill="#000000" font-family="sans-serif" font-size="14" lengthAdjust="spacing" textLength="159" x="1765.5" y="270.792">+getList(): List&lt;Entry&gt;</text></g><!--class Entry--><g id="elem_Entry"><rect codeLine="91" fill="#F1F1F1" height="129.4844" id="Entry" rx="2.5" ry="2.5" style="stroke:#181818;stroke-width:0.5;" width="171" x="2151.5" y="173.5"/><ellipse cx="2215.25" cy="189.5" fill="#ADD1B2" rx="11" ry="11" style="stroke:#181818;stroke-width:1.0;"/><path d="M2218.2188,195.1406 Q2217.6406,195.4375 2217,195.5781 Q2216.3594,195.7344 2215.6563,195.7344 Q2213.1563,195.7344 2211.8281,194.0938 Q2210.5156,192.4375 2210.5156,189.3125 Q2210.5156,186.1875 2211.8281,184.5313 Q2213.1563,182.875 2215.6563,182.875 Q2216.3594,182.875 2217,183.0313 Q2217.6563,183.1875 2218.2188,183.4844 L2218.2188,186.2031 Q2217.5938,185.625 2217,185.3594 Q2216.4063,185.0781 2215.7813,185.0781 Q2214.4375,185.0781 2213.75,186.1563 Q2213.0625,187.2188 2213.0625,189.3125 Q2213.0625,191.4063 2213.75,192.4844 Q2214.4375,193.5469 2215.7813,193.5469 Q2216.4063,193.5469 2217,193.2813 Q2217.5938,193 2218.2188,192.4219 L2218.2188,195.1406 Z " fill="#000000"/><text fill="#000000" font-family="sans-serif" font-size="14" lengthAdjust="spacing" textLength="35" x="2235.75" y="194.3467">Entry</text><line style="stroke:#181818;stroke-width:0.5;" x1="2152.5" x2="2321.5" y1="205.5" y2="205.5"/><text fill="#000000" font-family="sans-serif" font-size="14" lengthAdjust="spacing" textLength="128" x="2157.5" y="222.4951">+reference: String</text><text fill="#000000" font-family="sans-serif" font-size="14" lengthAdjust="spacing" textLength="104" x="2157.5" y="238.792">+status: String</text><text fill="#000000" font-family="sans-serif" font-size="14" lengthAdjust="spacing" textLength="118" x="2157.5" y="255.0889">+startDate: Date</text><text fill="#000000" font-family="sans-serif" font-size="14" lengthAdjust="spacing" textLength="159" x="2157.5" y="271.3857">+teamAssigned: Team</text><text fill="#000000" font-family="sans-serif" font-size="14" lengthAdjust="spacing" textLength="123" x="2157.5" y="287.6826">+finishDate: Date</text><line style="stroke:#181818;stroke-width:0.5;" x1="2152.5" x2="2321.5" y1="294.9844" y2="294.9844"/></g><!--link ManageAgendaUI to AssignEntryOnAgendaController--><g id="link_ManageAgendaUI_AssignEntryOnAgendaController"><path codeLine="108" d="M162.21,177.1 C185.11,184.99 211.43,193 236,198 C354.94,222.2 487.3045,231.5872 584.9145,235.3772 " fill="none" id="ManageAgendaUI-to-AssignEntryOnAgendaController" style="stroke:#181818;stroke-width:1.0;stroke-dasharray:7.0,7.0;"/><polygon fill="#181818" points="590.91,235.61,582.072,231.2638,585.9138,235.416,581.7616,239.2578,590.91,235.61" style="stroke:#181818;stroke-width:1.0;"/></g><!--link AssignEntryOnAgendaController to Repositories--><g id="link_AssignEntryOnAgendaController_Repositories"><path codeLine="109" d="M844.18,238 C895.68,238 949.57,238 1002.76,238 " fill="none" id="AssignEntryOnAgendaController-to-Repositories" style="stroke:#181818;stroke-width:1.0;stroke-dasharray:7.0,7.0;"/><polygon fill="#181818" points="1008.76,238,999.76,234,1003.76,238,999.76,242,1008.76,238" style="stroke:#181818;stroke-width:1.0;"/><text fill="#000000" font-family="sans-serif" font-size="13" lengthAdjust="spacing" textLength="75" x="877" y="234.0669">repositories</text></g><!--link AssignEntryOnAgendaController to EntryRepository--><g id="link_AssignEntryOnAgendaController_EntryRepository"><path codeLine="110" d="M829.88,205.89 C843.05,200.6 856.04,194.65 868,188 C914.91,161.94 910.51,129.19 961,111 C1101.49,60.39 1156.18,61.3 1297,111 C1345.36,128.07 1385.6214,162.6646 1414.8714,192.9446 " fill="none" id="AssignEntryOnAgendaController-to-EntryRepository" style="stroke:#181818;stroke-width:1.0;stroke-dasharray:7.0,7.0;"/><polygon fill="#181818" points="1419.04,197.26,1415.664,188.0078,1415.5662,193.6638,1409.9102,193.566,1419.04,197.26" style="stroke:#181818;stroke-width:1.0;"/><text fill="#000000" font-family="sans-serif" font-size="13" lengthAdjust="spacing" textLength="100" x="1103" y="70.0669">entryRepository</text></g><!--link EntryRepository to AgendaList--><g id="link_EntryRepository_AgendaList"><path codeLine="111" d="M1553.28,238 C1616.61,238 1692.56,238 1753.3,238 " fill="none" id="EntryRepository-to-AgendaList" style="stroke:#181818;stroke-width:1.0;"/><polygon fill="#181818" points="1759.3,238,1750.3,234,1754.3,238,1750.3,242,1759.3,238" style="stroke:#181818;stroke-width:1.0;"/><text fill="#000000" font-family="sans-serif" font-size="13" lengthAdjust="spacing" textLength="8" x="1561.0725" y="250.6617">1</text><text fill="#000000" font-family="sans-serif" font-size="13" lengthAdjust="spacing" textLength="8" x="1743.5914" y="250.7346">1</text></g><!--link AssignEntryOnAgendaController to EntryMapper--><g id="link_AssignEntryOnAgendaController_EntryMapper"><path codeLine="112" d="M801.26,270.06 C847.61,286.89 906.82,306.55 961,319 C1180.59,369.48 1430.3858,399.1937 1609.9558,415.9137 " fill="none" id="AssignEntryOnAgendaController-to-EntryMapper" style="stroke:#181818;stroke-width:1.0;stroke-dasharray:7.0,7.0;"/><polygon fill="#181818" points="1615.93,416.47,1607.3396,411.6528,1610.9515,416.0064,1606.5979,419.6184,1615.93,416.47" style="stroke:#181818;stroke-width:1.0;"/></g><!--link EntryMapper to EntryDto--><g id="link_EntryMapper_EntryDto"><path codeLine="113" d="M2074.27,448.63 C2096.75,450.07 2112.6222,451.0972 2132.6422,452.3772 " fill="none" id="EntryMapper-to-EntryDto" style="stroke:#181818;stroke-width:1.0;stroke-dasharray:7.0,7.0;"/><polygon fill="#181818" points="2138.63,452.76,2129.9036,448.1939,2133.6402,452.441,2129.3931,456.1776,2138.63,452.76" style="stroke:#181818;stroke-width:1.0;"/></g><!--link ManageAgendaUI to ViewDetailsEntryUI--><g id="link_ManageAgendaUI_ViewDetailsEntryUI"><path codeLine="114" d="M175.01,151.88 C194.01,151.59 208.9607,151.369 229.8507,151.059 " fill="none" id="ManageAgendaUI-to-ViewDetailsEntryUI" style="stroke:#181818;stroke-width:1.0;stroke-dasharray:7.0,7.0;"/><polygon fill="#181818" points="235.85,150.97,226.7916,147.104,230.8506,151.0442,226.9103,155.1031,235.85,150.97" style="stroke:#181818;stroke-width:1.0;"/></g><!--link ViewDetailsEntryUI to ViewDetailsEntryController--><g id="link_ViewDetailsEntryUI_ViewDetailsEntryController"><path codeLine="115" d="M502.48,148.24 C538.3,148.03 570.5901,147.8451 604.7301,147.6451 " fill="none" id="ViewDetailsEntryUI-to-ViewDetailsEntryController" style="stroke:#181818;stroke-width:1.0;stroke-dasharray:7.0,7.0;"/><polygon fill="#181818" points="610.73,147.61,601.7067,143.6628,605.7301,147.6393,601.7536,151.6627,610.73,147.61" style="stroke:#181818;stroke-width:1.0;"/></g><!--link AgendaList to Entry--><g id="link_AgendaList_Entry"><path codeLine="116" d="M1930.62,238 C1995.93,238 2079.86,238 2145.2,238 " fill="none" id="AgendaList-to-Entry" style="stroke:#181818;stroke-width:1.0;"/><polygon fill="#181818" points="2151.2,238,2142.2,234,2146.2,238,2142.2,242,2151.2,238" style="stroke:#181818;stroke-width:1.0;"/><text fill="#000000" font-family="sans-serif" font-size="13" lengthAdjust="spacing" textLength="8" x="1938.6018" y="250.7589">1</text><text fill="#000000" font-family="sans-serif" font-size="13" lengthAdjust="spacing" textLength="7" x="2136.5258" y="250.6963">*</text></g><!--link EntryMapper to Entry--><g id="link_EntryMapper_Entry"><path codeLine="117" d="M1909.96,401.85 C1975.77,368.78 2073.2588,319.7839 2145.8188,283.3239 " fill="none" id="EntryMapper-to-Entry" style="stroke:#181818;stroke-width:1.0;stroke-dasharray:7.0,7.0;"/><polygon fill="#181818" points="2151.18,280.63,2141.3422,281.0967,2146.7123,282.8749,2144.9341,288.245,2151.18,280.63" style="stroke:#181818;stroke-width:1.0;"/></g><!--link Repositories to Repositories--><g id="link_Repositories_Repositories"><path codeLine="120" d="M1120.42,173.4 C1121.24,153.81 1132.1,138.5 1153,138.5 C1173.9,138.5 1184.5091,147.8152 1185.3291,167.4052 " fill="none" id="Repositories-to-Repositories" style="stroke:#181818;stroke-width:1.0;"/><polygon fill="#181818" points="1185.58,173.4,1189.2001,164.2406,1185.3709,168.4044,1181.2071,164.5752,1185.58,173.4" style="stroke:#181818;stroke-width:1.0;"/><text fill="#000000" font-family="sans-serif" font-size="13" lengthAdjust="spacing" textLength="54" x="1126" y="129.5669">instance</text></g><!--link Repositories to EntryRepository--><g id="link_Repositories_EntryRepository"><path codeLine="121" d="M1297.21,238 C1317.77,238 1332.5,238 1351.87,238 " fill="none" id="Repositories-to-EntryRepository" style="stroke:#181818;stroke-width:1.0;"/><polygon fill="#181818" points="1357.87,238,1348.87,234,1352.87,238,1348.87,242,1357.87,238" style="stroke:#181818;stroke-width:1.0;"/><text fill="#000000" font-family="sans-serif" font-size="13" lengthAdjust="spacing" textLength="8" x="1304.8521" y="250.4445">1</text><text fill="#000000" font-family="sans-serif" font-size="13" lengthAdjust="spacing" textLength="8" x="1342.089" y="250.6617">1</text></g><!--SRC=[ZLNVRzem47xtNt5YBx29gdiagv3Gw0DIKQMLxjqaHx0QR6Ixgxef__jivvVZc82HWfFxxkwpl_DPlJ5-ffAUG1rf9ZuOp-502uL4jPQqe4gjj9Pi_wvnamh-mluYt1DIu4635Y1PVjIGCOcfPe8JSgRf6yqH9g-R2NmvtDlVFm9ck62mfToOLpdoZBvke3ALn4FyPlYnHarPeHwvbfyjoevl2lKJtMEXfcYDQoqIUAndimJ-29Or8KdPiVaf97fy7AGrRkdvZDAOCpTgSpCgLYv71VJejBGScIUcz4uqREpRjFsUW7q-EEDovhyPwB8NiEpoUzEMxNhtV0DL4pN6KsagzPfgJC0-em3zhX9uCQBpV6ZNI4yhfLZECKjWPzvCfY5CuW4byXIZaSe-RIDLk69FEBCQKHHnVU8Lq_buMs0B8dIi5k9yddbLar5VjwGSTGMPNfQlh5E4grYB4sNSNy5Grrzu5eff8JyDRkz6LDuMnr1599w3gxakMdq-kWyH5wiwIu5nCp6YGTBBCfGNp6PiQl1qTXCy8E6yhXFpuqvdOH5ThFukPco7g9CnWKfEA-MF8UUUt1roIA7tfLNJOfKHSh5O31dKrTS6ZP2ibjymzNf756dPkdup6yUM0_fZdMOhCYp6Yz7bYJMQyGPmKwkvsgk6lMY8EJ3ErF52b3BeFCtXDTFWdhgxMuvt2pBUIwn_x-0c8FqZSzqxhEiaFESaH4o-Js0-Nxf_hu1lJ5NTTSI_zrgRRVcH3HhUt2HocLlaICicth5eL_1rKYNkqUdu6E5wcsjzWjrkMbiVsDkZi1kH_m00]--></g></svg>