<?xml version="1.0" encoding="us-ascii" standalone="no"?><svg xmlns="http://www.w3.org/2000/svg" xmlns:xlink="http://www.w3.org/1999/xlink" contentStyleType="text/css" height="455px" preserveAspectRatio="none" style="width:859px;height:455px;background:#FFFFFF;" version="1.1" viewBox="0 0 859 455" width="859px" zoomAndPan="magnify"><defs/><g><rect fill="#FFFFFF" height="334.3906" style="stroke:#181818;stroke-width:1.0;" width="10" x="144" y="67.4297"/><rect fill="#FFFFFF" height="34.1328" style="stroke:#181818;stroke-width:1.0;" width="10" x="149" y="253.2578"/><rect fill="#FFFFFF" height="30" style="stroke:#181818;stroke-width:1.0;" width="10" x="344" y="186.125"/><rect fill="#FFFFFF" height="30" style="stroke:#181818;stroke-width:1.0;" width="10" x="562" y="328.6875"/><rect fill="none" height="291.2578" style="stroke:#000000;stroke-width:1.5;" width="785" x="68.5" y="82.4297"/><rect fill="none" height="218.8281" style="stroke:#000000;stroke-width:1.5;" width="765" x="78.5" y="147.8594"/><line style="stroke:#181818;stroke-width:0.5;stroke-dasharray:5.0,5.0;" x1="148.5" x2="148.5" y1="36.2969" y2="419.8203"/><line style="stroke:#181818;stroke-width:0.5;stroke-dasharray:5.0,5.0;" x1="348.5" x2="348.5" y1="36.2969" y2="419.8203"/><line style="stroke:#181818;stroke-width:0.5;stroke-dasharray:5.0,5.0;" x1="566.5" x2="566.5" y1="130.2109" y2="419.8203"/><line style="stroke:#181818;stroke-width:0.5;stroke-dasharray:5.0,5.0;" x1="763.5" x2="763.5" y1="296.9063" y2="419.8203"/><rect fill="#E3E3E3" height="30.2969" rx="2.5" ry="2.5" style="stroke:#181818;stroke-width:0.5;" width="121" x="88.5" y="5"/><text fill="#000000" font-family="sans-serif" font-size="14" lengthAdjust="spacing" textLength="107" x="95.5" y="24.9951">:VehicleMapper</text><rect fill="#E3E3E3" height="30.2969" rx="2.5" ry="2.5" style="stroke:#181818;stroke-width:0.5;" width="121" x="88.5" y="418.8203"/><text fill="#000000" font-family="sans-serif" font-size="14" lengthAdjust="spacing" textLength="107" x="95.5" y="438.8154">:VehicleMapper</text><rect fill="#E3E3E3" height="30.2969" rx="2.5" ry="2.5" style="stroke:#181818;stroke-width:0.5;" width="183" x="257.5" y="5"/><text fill="#000000" font-family="sans-serif" font-size="14" lengthAdjust="spacing" textLength="169" x="264.5" y="24.9951">vehicleList:list&lt;Vehicle&gt;</text><rect fill="#E3E3E3" height="30.2969" rx="2.5" ry="2.5" style="stroke:#181818;stroke-width:0.5;" width="183" x="257.5" y="418.8203"/><text fill="#000000" font-family="sans-serif" font-size="14" lengthAdjust="spacing" textLength="169" x="264.5" y="438.8154">vehicleList:list&lt;Vehicle&gt;</text><rect fill="#E3E3E3" height="30.2969" rx="2.5" ry="2.5" style="stroke:#181818;stroke-width:0.5;" width="233" x="450.5" y="418.8203"/><text fill="#000000" font-family="sans-serif" font-size="14" lengthAdjust="spacing" textLength="219" x="457.5" y="438.8154">vehicleListDto:list&lt;VehicleDto&gt;</text><rect fill="#E3E3E3" height="30.2969" rx="2.5" ry="2.5" style="stroke:#181818;stroke-width:0.5;" width="140" x="693.5" y="418.8203"/><text fill="#000000" font-family="sans-serif" font-size="14" lengthAdjust="spacing" textLength="126" x="700.5" y="438.8154">objDto:VehicleDto</text><rect fill="#FFFFFF" height="334.3906" style="stroke:#181818;stroke-width:1.0;" width="10" x="144" y="67.4297"/><rect fill="#FFFFFF" height="34.1328" style="stroke:#181818;stroke-width:1.0;" width="10" x="149" y="253.2578"/><rect fill="#FFFFFF" height="30" style="stroke:#181818;stroke-width:1.0;" width="10" x="344" y="186.125"/><rect fill="#FFFFFF" height="30" style="stroke:#181818;stroke-width:1.0;" width="10" x="562" y="328.6875"/><polygon fill="#181818" points="132,63.4297,142,67.4297,132,71.4297,136,67.4297" style="stroke:#181818;stroke-width:1.0;"/><line style="stroke:#181818;stroke-width:1.0;" x1="0" x2="138" y1="67.4297" y2="67.4297"/><text fill="#000000" font-family="sans-serif" font-size="13" lengthAdjust="spacing" textLength="106" x="7" y="62.3638">toDTO(teamList)</text><path d="M68.5,82.4297 L301.5,82.4297 L301.5,89.5625 L291.5,99.5625 L68.5,99.5625 L68.5,82.4297 " fill="#EEEEEE" style="stroke:#000000;stroke-width:1.5;"/><rect fill="none" height="291.2578" style="stroke:#000000;stroke-width:1.5;" width="785" x="68.5" y="82.4297"/><text fill="#000000" font-family="sans-serif" font-size="13" font-weight="bold" lengthAdjust="spacing" textLength="188" x="83.5" y="95.4966">Convert Team List to DTO</text><polygon fill="#181818" points="438.5,116.6953,448.5,120.6953,438.5,124.6953,442.5,120.6953" style="stroke:#181818;stroke-width:1.0;"/><line style="stroke:#181818;stroke-width:1.0;" x1="154" x2="444.5" y1="120.6953" y2="120.6953"/><text fill="#000000" font-family="sans-serif" font-size="13" font-weight="bold" lengthAdjust="spacing" textLength="46" x="161" y="115.6294">8.13.1</text><text fill="#000000" font-family="sans-serif" font-size="13" lengthAdjust="spacing" textLength="51" x="211" y="115.6294">create()</text><rect fill="#E3E3E3" height="30.2969" rx="2.5" ry="2.5" style="stroke:#181818;stroke-width:0.5;" width="233" x="450.5" y="99.5625"/><text fill="#000000" font-family="sans-serif" font-size="14" lengthAdjust="spacing" textLength="219" x="457.5" y="119.5576">vehicleListDto:list&lt;VehicleDto&gt;</text><path d="M78.5,147.8594 L155.5,147.8594 L155.5,154.9922 L145.5,164.9922 L78.5,164.9922 L78.5,147.8594 " fill="#EEEEEE" style="stroke:#000000;stroke-width:1.5;"/><rect fill="none" height="218.8281" style="stroke:#000000;stroke-width:1.5;" width="765" x="78.5" y="147.8594"/><text fill="#000000" font-family="sans-serif" font-size="13" font-weight="bold" lengthAdjust="spacing" textLength="32" x="93.5" y="160.9263">loop</text><text fill="#000000" font-family="sans-serif" font-size="11" font-weight="bold" lengthAdjust="spacing" textLength="197" x="170.5" y="160.0698">[for each object in VehicleList]</text><polygon fill="#181818" points="332,182.125,342,186.125,332,190.125,336,186.125" style="stroke:#181818;stroke-width:1.0;"/><line style="stroke:#181818;stroke-width:1.0;" x1="154" x2="338" y1="186.125" y2="186.125"/><text fill="#000000" font-family="sans-serif" font-size="13" font-weight="bold" lengthAdjust="spacing" textLength="46" x="161" y="181.0591">8.13.2</text><text fill="#000000" font-family="sans-serif" font-size="13" lengthAdjust="spacing" textLength="69" x="211" y="181.0591">obj = get()</text><line style="stroke:#181818;stroke-width:1.0;" x1="154" x2="201" y1="240.2578" y2="240.2578"/><line style="stroke:#181818;stroke-width:1.0;" x1="201" x2="201" y1="240.2578" y2="253.2578"/><line style="stroke:#181818;stroke-width:1.0;" x1="160" x2="201" y1="253.2578" y2="253.2578"/><polygon fill="#181818" points="170,249.2578,160,253.2578,170,257.2578,166,253.2578" style="stroke:#181818;stroke-width:1.0;"/><text fill="#000000" font-family="sans-serif" font-size="13" font-weight="bold" lengthAdjust="spacing" textLength="46" x="166" y="235.1919">8.13.3</text><text fill="#000000" font-family="sans-serif" font-size="13" lengthAdjust="spacing" textLength="126" x="216" y="235.1919">objDto = toDto(obj)</text><polygon fill="#181818" points="681.5,283.3906,691.5,287.3906,681.5,291.3906,685.5,287.3906" style="stroke:#181818;stroke-width:1.0;"/><line style="stroke:#181818;stroke-width:1.0;" x1="154" x2="687.5" y1="287.3906" y2="287.3906"/><text fill="#000000" font-family="sans-serif" font-size="13" font-weight="bold" lengthAdjust="spacing" textLength="46" x="161" y="282.3247">8.13.4</text><text fill="#000000" font-family="sans-serif" font-size="13" lengthAdjust="spacing" textLength="337" x="211" y="282.3247">create(obj.getBrand(), obj.getModel(), obj.getPlate())</text><rect fill="#E3E3E3" height="30.2969" rx="2.5" ry="2.5" style="stroke:#181818;stroke-width:0.5;" width="140" x="693.5" y="266.2578"/><text fill="#000000" font-family="sans-serif" font-size="14" lengthAdjust="spacing" textLength="126" x="700.5" y="286.2529">objDto:VehicleDto</text><polygon fill="#181818" points="550,324.6875,560,328.6875,550,332.6875,554,328.6875" style="stroke:#181818;stroke-width:1.0;"/><line style="stroke:#181818;stroke-width:1.0;" x1="154" x2="556" y1="328.6875" y2="328.6875"/><text fill="#000000" font-family="sans-serif" font-size="13" font-weight="bold" lengthAdjust="spacing" textLength="46" x="161" y="323.6216">8.13.5</text><text fill="#000000" font-family="sans-serif" font-size="13" lengthAdjust="spacing" textLength="76" x="211" y="323.6216">add(objDto)</text><polygon fill="#181818" points="11,397.8203,1,401.8203,11,405.8203,7,401.8203" style="stroke:#181818;stroke-width:1.0;"/><line style="stroke:#181818;stroke-width:1.0;" x1="5" x2="148" y1="401.8203" y2="401.8203"/><text fill="#000000" font-family="sans-serif" font-size="13" font-weight="bold" lengthAdjust="spacing" textLength="32" x="17" y="396.7544">8.14</text><text fill="#000000" font-family="sans-serif" font-size="13" lengthAdjust="spacing" textLength="89" x="53" y="396.7544">vehicleListDto</text><!--SRC=[ZLHTRzf047o_Nx7AanqL18HKgPL4LG9f5M4rgXtwVDWBN6FVMUUrg_pxx1bIR10Xzs1fFsPcTtowyaNfGbgPGswqITRMv0XaAnJb_qeXanUvmeXUCmIB2KczojeDvLgcvf_IArZAh4GXE4qgKONK16V17DSgoJ2KHO7s36G9dSnUUxsfpLH9GSQVwstpRHlfgaTX4p8T9CS7OCvryMRnr-5sa3Q2Gn2YTziT708WCub_UOGoTwI-a1KPNUKBBbxrXnVzeP09gLeIxksyigOguDxe6Yr1p0JW69WGc5407_Vfwkq6sAvmViup91QPt_D5Wt8dCwQ0fR60Cba3RyR_39Jkc0Ujyv4A2p01tC0AYJNQiFtL3dXJFDboJ7gJQBIT-JVEQJ8UXn_Fy7wbFgEnPo1pztd9EojrwlbVO1k79iMi5JzbZTl-YKstWtpMPhTa039DlSt6fvrsD_YqsUqkrEdEc2F_HdGQkzTvtEIkUtkByDpreU1HHvhgTvQeyam8TbFJSpXZ2biges7O7mr6u_w55wyhUC0532zX-2qO3uB19VoPnk3All1-FCtg4PIciWb2oi9MBIfY1byyobh2xqgJoZ405tbnw4CqVK_2LDVA6fsZ9l4u3pTDyDDGL1Xgch-EUtUA84BBWy4y51DSoYeZXYOcvQSkWEVueNSbPlmOLlmw1koQk3SiO5-v5hq1]--></g></svg>