<?xml version="1.0" encoding="us-ascii" standalone="no"?><svg xmlns="http://www.w3.org/2000/svg" xmlns:xlink="http://www.w3.org/1999/xlink" contentStyleType="text/css" height="1011px" preserveAspectRatio="none" style="width:2340px;height:1011px;background:#FFFFFF;" version="1.1" viewBox="0 0 2340 1011" width="2340px" zoomAndPan="magnify"><defs/><g><!--cluster UI--><g id="cluster_UI"><path d="M8.5,175 L24.5,175 A3.75,3.75 0 0 1 27,177.5 L34,197.2969 L513.5,197.2969 A2.5,2.5 0 0 1 516,199.7969 L516,287.5 A2.5,2.5 0 0 1 513.5,290 L8.5,290 A2.5,2.5 0 0 1 6,287.5 L6,177.5 A2.5,2.5 0 0 1 8.5,175 " fill="#F0F0F0" style="stroke:#000000;stroke-width:1.5;"/><line style="stroke:#000000;stroke-width:1.5;" x1="6" x2="34" y1="197.2969" y2="197.2969"/><text fill="#000000" font-family="sans-serif" font-size="14" font-weight="bold" lengthAdjust="spacing" textLength="15" x="10" y="189.9951">UI</text></g><!--cluster Core--><g id="cluster_Core"><path d="M551.5,6 L590.5,6 A3.75,3.75 0 0 1 593,8.5 L600,28.2969 L2330.5,28.2969 A2.5,2.5 0 0 1 2333,30.7969 L2333,1001.5 A2.5,2.5 0 0 1 2330.5,1004 L551.5,1004 A2.5,2.5 0 0 1 549,1001.5 L549,8.5 A2.5,2.5 0 0 1 551.5,6 " fill="#F0F0F0" style="stroke:#000000;stroke-width:1.5;"/><line style="stroke:#000000;stroke-width:1.5;" x1="549" x2="600" y1="28.2969" y2="28.2969"/><text fill="#000000" font-family="sans-serif" font-size="14" font-weight="bold" lengthAdjust="spacing" textLength="38" x="553" y="20.9951">Core</text></g><!--cluster Controller--><g id="cluster_Controller"><path d="M575.5,245 L655.5,245 A3.75,3.75 0 0 1 658,247.5 L665,267.2969 L911.5,267.2969 A2.5,2.5 0 0 1 914,269.7969 L914,456.5 A2.5,2.5 0 0 1 911.5,459 L575.5,459 A2.5,2.5 0 0 1 573,456.5 L573,247.5 A2.5,2.5 0 0 1 575.5,245 " fill="#DDDDDD" style="stroke:#000000;stroke-width:1.5;"/><line style="stroke:#000000;stroke-width:1.5;" x1="573" x2="665" y1="267.2969" y2="267.2969"/><text fill="#000000" font-family="sans-serif" font-size="14" font-weight="bold" lengthAdjust="spacing" textLength="79" x="577" y="259.9951">Controller</text></g><!--cluster Domain--><g id="cluster_Domain"><path d="M1025.5,49 L1084.5,49 A3.75,3.75 0 0 1 1087,51.5 L1094,71.2969 L2306.5,71.2969 A2.5,2.5 0 0 1 2309,73.7969 L2309,977.5 A2.5,2.5 0 0 1 2306.5,980 L1025.5,980 A2.5,2.5 0 0 1 1023,977.5 L1023,51.5 A2.5,2.5 0 0 1 1025.5,49 " fill="#DDDDDD" style="stroke:#000000;stroke-width:1.5;"/><line style="stroke:#000000;stroke-width:1.5;" x1="1023" x2="1094" y1="71.2969" y2="71.2969"/><text fill="#000000" font-family="sans-serif" font-size="14" font-weight="bold" lengthAdjust="spacing" textLength="58" x="1027" y="63.9951">Domain</text></g><!--cluster Mapper--><g id="cluster_Mapper"><path d="M1573,516 L1633,516 A3.75,3.75 0 0 1 1635.5,518.5 L1642.5,538.2969 L1987,538.2969 A2.5,2.5 0 0 1 1989.5,540.7969 L1989.5,826.5 A2.5,2.5 0 0 1 1987,829 L1573,829 A2.5,2.5 0 0 1 1570.5,826.5 L1570.5,518.5 A2.5,2.5 0 0 1 1573,516 " fill="#DDDDDD" style="stroke:#000000;stroke-width:1.5;"/><line style="stroke:#000000;stroke-width:1.5;" x1="1570.5" x2="1642.5" y1="538.2969" y2="538.2969"/><text fill="#000000" font-family="sans-serif" font-size="14" font-weight="bold" lengthAdjust="spacing" textLength="59" x="1574.5" y="530.9951">Mapper</text></g><!--cluster DTO--><g id="cluster_DTO"><path d="M2059.5,560 L2093.5,560 A3.75,3.75 0 0 1 2096,562.5 L2103,582.2969 L2282.5,582.2969 A2.5,2.5 0 0 1 2285,584.7969 L2285,953.5 A2.5,2.5 0 0 1 2282.5,956 L2059.5,956 A2.5,2.5 0 0 1 2057,953.5 L2057,562.5 A2.5,2.5 0 0 1 2059.5,560 " fill="#DDDDDD" style="stroke:#000000;stroke-width:1.5;"/><line style="stroke:#000000;stroke-width:1.5;" x1="2057" x2="2103" y1="582.2969" y2="582.2969"/><text fill="#000000" font-family="sans-serif" font-size="14" font-weight="bold" lengthAdjust="spacing" textLength="33" x="2061" y="574.9951">DTO</text></g><!--cluster Repository--><g id="cluster_Repository"><path d="M1049.5,146 L1135.5,146 A3.75,3.75 0 0 1 1138,148.5 L1145,168.2969 L2021.5,168.2969 A2.5,2.5 0 0 1 2024,170.7969 L2024,489.5 A2.5,2.5 0 0 1 2021.5,492 L1049.5,492 A2.5,2.5 0 0 1 1047,489.5 L1047,148.5 A2.5,2.5 0 0 1 1049.5,146 " fill="#BBBBBB" style="stroke:#000000;stroke-width:1.5;"/><line style="stroke:#000000;stroke-width:1.5;" x1="1047" x2="1145" y1="168.2969" y2="168.2969"/><text fill="#000000" font-family="sans-serif" font-size="14" font-weight="bold" lengthAdjust="spacing" textLength="85" x="1051" y="160.9951">Repository</text></g><!--cluster Model--><g id="cluster_Model"><path d="M2072,92 L2120,92 A3.75,3.75 0 0 1 2122.5,94.5 L2129.5,114.2969 L2270,114.2969 A2.5,2.5 0 0 1 2272.5,116.7969 L2272.5,533.5 A2.5,2.5 0 0 1 2270,536 L2072,536 A2.5,2.5 0 0 1 2069.5,533.5 L2069.5,94.5 A2.5,2.5 0 0 1 2072,92 " fill="#BBBBBB" style="stroke:#000000;stroke-width:1.5;"/><line style="stroke:#000000;stroke-width:1.5;" x1="2069.5" x2="2129.5" y1="114.2969" y2="114.2969"/><text fill="#000000" font-family="sans-serif" font-size="14" font-weight="bold" lengthAdjust="spacing" textLength="47" x="2073.5" y="106.9951">Model</text></g><!--class ViewDetailsEntryUI--><g id="elem_ViewDetailsEntryUI"><rect codeLine="7" fill="#F1F1F1" height="64.2969" id="ViewDetailsEntryUI" rx="2.5" ry="2.5" style="stroke:#181818;stroke-width:0.5;" width="319" x="181" y="210"/><ellipse cx="272.75" cy="226" fill="#ADD1B2" rx="11" ry="11" style="stroke:#181818;stroke-width:1.0;"/><path d="M275.7188,231.6406 Q275.1406,231.9375 274.5,232.0781 Q273.8594,232.2344 273.1563,232.2344 Q270.6563,232.2344 269.3281,230.5938 Q268.0156,228.9375 268.0156,225.8125 Q268.0156,222.6875 269.3281,221.0313 Q270.6563,219.375 273.1563,219.375 Q273.8594,219.375 274.5,219.5313 Q275.1563,219.6875 275.7188,219.9844 L275.7188,222.7031 Q275.0938,222.125 274.5,221.8594 Q273.9063,221.5781 273.2813,221.5781 Q271.9375,221.5781 271.25,222.6563 Q270.5625,223.7188 270.5625,225.8125 Q270.5625,227.9063 271.25,228.9844 Q271.9375,230.0469 273.2813,230.0469 Q273.9063,230.0469 274.5,229.7813 Q275.0938,229.5 275.7188,228.9219 L275.7188,231.6406 Z " fill="#000000"/><text fill="#000000" font-family="sans-serif" font-size="14" lengthAdjust="spacing" textLength="127" x="293.25" y="230.8467">ViewDetailsEntryUI</text><line style="stroke:#181818;stroke-width:0.5;" x1="182" x2="499" y1="242" y2="242"/><line style="stroke:#181818;stroke-width:0.5;" x1="182" x2="499" y1="250" y2="250"/><text fill="#000000" font-family="sans-serif" font-size="14" lengthAdjust="spacing" textLength="307" x="187" y="266.9951">+showEntryDetails(entryDto: EntryDto): void</text></g><!--class AgendaUI--><g id="elem_AgendaUI"><rect codeLine="11" fill="#F1F1F1" height="48" id="AgendaUI" rx="2.5" ry="2.5" style="stroke:#181818;stroke-width:0.5;" width="98" x="22" y="222"/><ellipse cx="37" cy="238" fill="#ADD1B2" rx="11" ry="11" style="stroke:#181818;stroke-width:1.0;"/><path d="M39.9688,243.6406 Q39.3906,243.9375 38.75,244.0781 Q38.1094,244.2344 37.4063,244.2344 Q34.9063,244.2344 33.5781,242.5938 Q32.2656,240.9375 32.2656,237.8125 Q32.2656,234.6875 33.5781,233.0313 Q34.9063,231.375 37.4063,231.375 Q38.1094,231.375 38.75,231.5313 Q39.4063,231.6875 39.9688,231.9844 L39.9688,234.7031 Q39.3438,234.125 38.75,233.8594 Q38.1563,233.5781 37.5313,233.5781 Q36.1875,233.5781 35.5,234.6563 Q34.8125,235.7188 34.8125,237.8125 Q34.8125,239.9063 35.5,240.9844 Q36.1875,242.0469 37.5313,242.0469 Q38.1563,242.0469 38.75,241.7813 Q39.3438,241.5 39.9688,240.9219 L39.9688,243.6406 Z " fill="#000000"/><text fill="#000000" font-family="sans-serif" font-size="14" lengthAdjust="spacing" textLength="66" x="51" y="242.8467">AgendaUI</text><line style="stroke:#181818;stroke-width:0.5;" x1="23" x2="119" y1="254" y2="254"/><line style="stroke:#181818;stroke-width:0.5;" x1="23" x2="119" y1="262" y2="262"/></g><!--class ViewDetailsEntryController--><g id="elem_ViewDetailsEntryController"><rect codeLine="20" fill="#F1F1F1" height="64.2969" id="ViewDetailsEntryController" rx="2.5" ry="2.5" style="stroke:#181818;stroke-width:0.5;" width="213" x="637" y="379"/><ellipse cx="652" cy="395" fill="#ADD1B2" rx="11" ry="11" style="stroke:#181818;stroke-width:1.0;"/><path d="M654.9688,400.6406 Q654.3906,400.9375 653.75,401.0781 Q653.1094,401.2344 652.4063,401.2344 Q649.9063,401.2344 648.5781,399.5938 Q647.2656,397.9375 647.2656,394.8125 Q647.2656,391.6875 648.5781,390.0313 Q649.9063,388.375 652.4063,388.375 Q653.1094,388.375 653.75,388.5313 Q654.4063,388.6875 654.9688,388.9844 L654.9688,391.7031 Q654.3438,391.125 653.75,390.8594 Q653.1563,390.5781 652.5313,390.5781 Q651.1875,390.5781 650.5,391.6563 Q649.8125,392.7188 649.8125,394.8125 Q649.8125,396.9063 650.5,397.9844 Q651.1875,399.0469 652.5313,399.0469 Q653.1563,399.0469 653.75,398.7813 Q654.3438,398.5 654.9688,397.9219 L654.9688,400.6406 Z " fill="#000000"/><text fill="#000000" font-family="sans-serif" font-size="14" lengthAdjust="spacing" textLength="181" x="666" y="399.8467">ViewDetailsEntryController</text><line style="stroke:#181818;stroke-width:0.5;" x1="638" x2="849" y1="411" y2="411"/><line style="stroke:#181818;stroke-width:0.5;" x1="638" x2="849" y1="419" y2="419"/><text fill="#000000" font-family="sans-serif" font-size="14" lengthAdjust="spacing" textLength="132" x="643" y="435.9951">+getDataNeeded()</text></g><!--class AgendaController--><g id="elem_AgendaController"><rect codeLine="27" fill="#F1F1F1" height="64.2969" id="AgendaController" rx="2.5" ry="2.5" style="stroke:#181818;stroke-width:0.5;" width="309" x="589" y="280"/><ellipse cx="679.25" cy="296" fill="#ADD1B2" rx="11" ry="11" style="stroke:#181818;stroke-width:1.0;"/><path d="M682.2188,301.6406 Q681.6406,301.9375 681,302.0781 Q680.3594,302.2344 679.6563,302.2344 Q677.1563,302.2344 675.8281,300.5938 Q674.5156,298.9375 674.5156,295.8125 Q674.5156,292.6875 675.8281,291.0313 Q677.1563,289.375 679.6563,289.375 Q680.3594,289.375 681,289.5313 Q681.6563,289.6875 682.2188,289.9844 L682.2188,292.7031 Q681.5938,292.125 681,291.8594 Q680.4063,291.5781 679.7813,291.5781 Q678.4375,291.5781 677.75,292.6563 Q677.0625,293.7188 677.0625,295.8125 Q677.0625,297.9063 677.75,298.9844 Q678.4375,300.0469 679.7813,300.0469 Q680.4063,300.0469 681,299.7813 Q681.5938,299.5 682.2188,298.9219 L682.2188,301.6406 Z " fill="#000000"/><text fill="#000000" font-family="sans-serif" font-size="14" lengthAdjust="spacing" textLength="120" x="699.75" y="300.8467">AgendaController</text><line style="stroke:#181818;stroke-width:0.5;" x1="590" x2="897" y1="312" y2="312"/><line style="stroke:#181818;stroke-width:0.5;" x1="590" x2="897" y1="320" y2="320"/><text fill="#000000" font-family="sans-serif" font-size="14" lengthAdjust="spacing" textLength="297" x="595" y="336.9951">+getAgendaEntryListDto(): List&lt;EntryDto&gt;</text></g><!--class EntryMapper--><g id="elem_EntryMapper"><rect codeLine="39" fill="#F1F1F1" height="64.2969" id="EntryMapper" rx="2.5" ry="2.5" style="stroke:#181818;stroke-width:0.5;" width="344" x="1608" y="551"/><ellipse cx="1732.25" cy="567" fill="#ADD1B2" rx="11" ry="11" style="stroke:#181818;stroke-width:1.0;"/><path d="M1735.2188,572.6406 Q1734.6406,572.9375 1734,573.0781 Q1733.3594,573.2344 1732.6563,573.2344 Q1730.1563,573.2344 1728.8281,571.5938 Q1727.5156,569.9375 1727.5156,566.8125 Q1727.5156,563.6875 1728.8281,562.0313 Q1730.1563,560.375 1732.6563,560.375 Q1733.3594,560.375 1734,560.5313 Q1734.6563,560.6875 1735.2188,560.9844 L1735.2188,563.7031 Q1734.5938,563.125 1734,562.8594 Q1733.4063,562.5781 1732.7813,562.5781 Q1731.4375,562.5781 1730.75,563.6563 Q1730.0625,564.7188 1730.0625,566.8125 Q1730.0625,568.9063 1730.75,569.9844 Q1731.4375,571.0469 1732.7813,571.0469 Q1733.4063,571.0469 1734,570.7813 Q1734.5938,570.5 1735.2188,569.9219 L1735.2188,572.6406 Z " fill="#000000"/><text fill="#000000" font-family="sans-serif" font-size="14" lengthAdjust="spacing" textLength="87" x="1752.75" y="571.8467">EntryMapper</text><line style="stroke:#181818;stroke-width:0.5;" x1="1609" x2="1951" y1="583" y2="583"/><line style="stroke:#181818;stroke-width:0.5;" x1="1609" x2="1951" y1="591" y2="591"/><text fill="#000000" font-family="sans-serif" font-size="14" lengthAdjust="spacing" textLength="332" x="1614" y="607.9951">+toDTO(entryList: List&lt;Entry&gt;): List&lt;EntryDto&gt;</text></g><!--class TeamMapper--><g id="elem_TeamMapper"><rect codeLine="45" fill="#F1F1F1" height="64.2969" id="TeamMapper" rx="2.5" ry="2.5" style="stroke:#181818;stroke-width:0.5;" width="352" x="1604" y="650"/><ellipse cx="1730.25" cy="666" fill="#ADD1B2" rx="11" ry="11" style="stroke:#181818;stroke-width:1.0;"/><path d="M1733.2188,671.6406 Q1732.6406,671.9375 1732,672.0781 Q1731.3594,672.2344 1730.6563,672.2344 Q1728.1563,672.2344 1726.8281,670.5938 Q1725.5156,668.9375 1725.5156,665.8125 Q1725.5156,662.6875 1726.8281,661.0313 Q1728.1563,659.375 1730.6563,659.375 Q1731.3594,659.375 1732,659.5313 Q1732.6563,659.6875 1733.2188,659.9844 L1733.2188,662.7031 Q1732.5938,662.125 1732,661.8594 Q1731.4063,661.5781 1730.7813,661.5781 Q1729.4375,661.5781 1728.75,662.6563 Q1728.0625,663.7188 1728.0625,665.8125 Q1728.0625,667.9063 1728.75,668.9844 Q1729.4375,670.0469 1730.7813,670.0469 Q1731.4063,670.0469 1732,669.7813 Q1732.5938,669.5 1733.2188,668.9219 L1733.2188,671.6406 Z " fill="#000000"/><text fill="#000000" font-family="sans-serif" font-size="14" lengthAdjust="spacing" textLength="91" x="1750.75" y="670.8467">TeamMapper</text><line style="stroke:#181818;stroke-width:0.5;" x1="1605" x2="1955" y1="682" y2="682"/><line style="stroke:#181818;stroke-width:0.5;" x1="1605" x2="1955" y1="690" y2="690"/><text fill="#000000" font-family="sans-serif" font-size="14" lengthAdjust="spacing" textLength="340" x="1610" y="706.9951">+toDTO(teamList: List&lt;Team&gt;): List&lt;TeamDto&gt;</text></g><!--class VehicleMapper--><g id="elem_VehicleMapper"><rect codeLine="50" fill="#F1F1F1" height="64.2969" id="VehicleMapper" rx="2.5" ry="2.5" style="stroke:#181818;stroke-width:0.5;" width="387" x="1586.5" y="749"/><ellipse cx="1724.75" cy="765" fill="#ADD1B2" rx="11" ry="11" style="stroke:#181818;stroke-width:1.0;"/><path d="M1727.7188,770.6406 Q1727.1406,770.9375 1726.5,771.0781 Q1725.8594,771.2344 1725.1563,771.2344 Q1722.6563,771.2344 1721.3281,769.5938 Q1720.0156,767.9375 1720.0156,764.8125 Q1720.0156,761.6875 1721.3281,760.0313 Q1722.6563,758.375 1725.1563,758.375 Q1725.8594,758.375 1726.5,758.5313 Q1727.1563,758.6875 1727.7188,758.9844 L1727.7188,761.7031 Q1727.0938,761.125 1726.5,760.8594 Q1725.9063,760.5781 1725.2813,760.5781 Q1723.9375,760.5781 1723.25,761.6563 Q1722.5625,762.7188 1722.5625,764.8125 Q1722.5625,766.9063 1723.25,767.9844 Q1723.9375,769.0469 1725.2813,769.0469 Q1725.9063,769.0469 1726.5,768.7813 Q1727.0938,768.5 1727.7188,767.9219 L1727.7188,770.6406 Z " fill="#000000"/><text fill="#000000" font-family="sans-serif" font-size="14" lengthAdjust="spacing" textLength="102" x="1745.25" y="769.8467">VehicleMapper</text><line style="stroke:#181818;stroke-width:0.5;" x1="1587.5" x2="1972.5" y1="781" y2="781"/><line style="stroke:#181818;stroke-width:0.5;" x1="1587.5" x2="1972.5" y1="789" y2="789"/><text fill="#000000" font-family="sans-serif" font-size="14" lengthAdjust="spacing" textLength="375" x="1592.5" y="805.9951">+toDTO(vehicleList: List&lt;Vehicle&gt;): List&lt;VehicleDto&gt;</text></g><!--class EntryDto--><g id="elem_EntryDto"><rect codeLine="59" fill="#F1F1F1" height="113.1875" id="EntryDto" rx="2.5" ry="2.5" style="stroke:#181818;stroke-width:0.5;" width="196" x="2073" y="595.5"/><ellipse cx="2136.75" cy="611.5" fill="#ADD1B2" rx="11" ry="11" style="stroke:#181818;stroke-width:1.0;"/><path d="M2139.7188,617.1406 Q2139.1406,617.4375 2138.5,617.5781 Q2137.8594,617.7344 2137.1563,617.7344 Q2134.6563,617.7344 2133.3281,616.0938 Q2132.0156,614.4375 2132.0156,611.3125 Q2132.0156,608.1875 2133.3281,606.5313 Q2134.6563,604.875 2137.1563,604.875 Q2137.8594,604.875 2138.5,605.0313 Q2139.1563,605.1875 2139.7188,605.4844 L2139.7188,608.2031 Q2139.0938,607.625 2138.5,607.3594 Q2137.9063,607.0781 2137.2813,607.0781 Q2135.9375,607.0781 2135.25,608.1563 Q2134.5625,609.2188 2134.5625,611.3125 Q2134.5625,613.4063 2135.25,614.4844 Q2135.9375,615.5469 2137.2813,615.5469 Q2137.9063,615.5469 2138.5,615.2813 Q2139.0938,615 2139.7188,614.4219 L2139.7188,617.1406 Z " fill="#000000"/><text fill="#000000" font-family="sans-serif" font-size="14" lengthAdjust="spacing" textLength="60" x="2157.25" y="616.3467">EntryDto</text><line style="stroke:#181818;stroke-width:0.5;" x1="2074" x2="2268" y1="627.5" y2="627.5"/><text fill="#000000" font-family="sans-serif" font-size="14" lengthAdjust="spacing" textLength="118" x="2079" y="644.4951">+startDate: Date</text><text fill="#000000" font-family="sans-serif" font-size="14" lengthAdjust="spacing" textLength="104" x="2079" y="660.792">+status: String</text><text fill="#000000" font-family="sans-serif" font-size="14" lengthAdjust="spacing" textLength="184" x="2079" y="677.0889">+teamAssigned: TeamDto</text><text fill="#000000" font-family="sans-serif" font-size="14" lengthAdjust="spacing" textLength="128" x="2079" y="693.3857">+reference: String</text><line style="stroke:#181818;stroke-width:0.5;" x1="2074" x2="2268" y1="700.6875" y2="700.6875"/></g><!--class TeamDto--><g id="elem_TeamDto"><rect codeLine="68" fill="#F1F1F1" height="64.2969" id="TeamDto" rx="2.5" ry="2.5" style="stroke:#181818;stroke-width:0.5;" width="148" x="2097" y="744"/><ellipse cx="2135.4" cy="760" fill="#ADD1B2" rx="11" ry="11" style="stroke:#181818;stroke-width:1.0;"/><path d="M2138.3688,765.6406 Q2137.7906,765.9375 2137.15,766.0781 Q2136.5094,766.2344 2135.8063,766.2344 Q2133.3063,766.2344 2131.9781,764.5938 Q2130.6656,762.9375 2130.6656,759.8125 Q2130.6656,756.6875 2131.9781,755.0313 Q2133.3063,753.375 2135.8063,753.375 Q2136.5094,753.375 2137.15,753.5313 Q2137.8063,753.6875 2138.3688,753.9844 L2138.3688,756.7031 Q2137.7438,756.125 2137.15,755.8594 Q2136.5563,755.5781 2135.9313,755.5781 Q2134.5875,755.5781 2133.9,756.6563 Q2133.2125,757.7188 2133.2125,759.8125 Q2133.2125,761.9063 2133.9,762.9844 Q2134.5875,764.0469 2135.9313,764.0469 Q2136.5563,764.0469 2137.15,763.7813 Q2137.7438,763.5 2138.3688,762.9219 L2138.3688,765.6406 Z " fill="#000000"/><text fill="#000000" font-family="sans-serif" font-size="14" lengthAdjust="spacing" textLength="64" x="2154.6" y="764.8467">TeamDto</text><line style="stroke:#181818;stroke-width:0.5;" x1="2098" x2="2244" y1="776" y2="776"/><text fill="#000000" font-family="sans-serif" font-size="14" lengthAdjust="spacing" textLength="136" x="2103" y="792.9951">+teamName: String</text><line style="stroke:#181818;stroke-width:0.5;" x1="2098" x2="2244" y1="800.2969" y2="800.2969"/></g><!--class VehicleDto--><g id="elem_VehicleDto"><rect codeLine="74" fill="#F1F1F1" height="96.8906" id="VehicleDto" rx="2.5" ry="2.5" style="stroke:#181818;stroke-width:0.5;" width="107" x="2117.5" y="843.5"/><ellipse cx="2132.5" cy="859.5" fill="#ADD1B2" rx="11" ry="11" style="stroke:#181818;stroke-width:1.0;"/><path d="M2135.4688,865.1406 Q2134.8906,865.4375 2134.25,865.5781 Q2133.6094,865.7344 2132.9063,865.7344 Q2130.4063,865.7344 2129.0781,864.0938 Q2127.7656,862.4375 2127.7656,859.3125 Q2127.7656,856.1875 2129.0781,854.5313 Q2130.4063,852.875 2132.9063,852.875 Q2133.6094,852.875 2134.25,853.0313 Q2134.9063,853.1875 2135.4688,853.4844 L2135.4688,856.2031 Q2134.8438,855.625 2134.25,855.3594 Q2133.6563,855.0781 2133.0313,855.0781 Q2131.6875,855.0781 2131,856.1563 Q2130.3125,857.2188 2130.3125,859.3125 Q2130.3125,861.4063 2131,862.4844 Q2131.6875,863.5469 2133.0313,863.5469 Q2133.6563,863.5469 2134.25,863.2813 Q2134.8438,863 2135.4688,862.4219 L2135.4688,865.1406 Z " fill="#000000"/><text fill="#000000" font-family="sans-serif" font-size="14" lengthAdjust="spacing" textLength="75" x="2146.5" y="864.3467">VehicleDto</text><line style="stroke:#181818;stroke-width:0.5;" x1="2118.5" x2="2223.5" y1="875.5" y2="875.5"/><text fill="#000000" font-family="sans-serif" font-size="14" lengthAdjust="spacing" textLength="89" x="2123.5" y="892.4951">brand: String</text><text fill="#000000" font-family="sans-serif" font-size="14" lengthAdjust="spacing" textLength="92" x="2123.5" y="908.792">model: String</text><text fill="#000000" font-family="sans-serif" font-size="14" lengthAdjust="spacing" textLength="83" x="2123.5" y="925.0889">plate: String</text><line style="stroke:#181818;stroke-width:0.5;" x1="2118.5" x2="2223.5" y1="932.3906" y2="932.3906"/></g><!--class Repositories--><g id="elem_Repositories"><rect codeLine="87" fill="#F1F1F1" height="145.7813" id="Repositories" rx="2.5" ry="2.5" style="stroke:#181818;stroke-width:0.5;" width="314" x="1063" y="226"/><ellipse cx="1172.25" cy="242" fill="#ADD1B2" rx="11" ry="11" style="stroke:#181818;stroke-width:1.0;"/><path d="M1175.2188,247.6406 Q1174.6406,247.9375 1174,248.0781 Q1173.3594,248.2344 1172.6563,248.2344 Q1170.1563,248.2344 1168.8281,246.5938 Q1167.5156,244.9375 1167.5156,241.8125 Q1167.5156,238.6875 1168.8281,237.0313 Q1170.1563,235.375 1172.6563,235.375 Q1173.3594,235.375 1174,235.5313 Q1174.6563,235.6875 1175.2188,235.9844 L1175.2188,238.7031 Q1174.5938,238.125 1174,237.8594 Q1173.4063,237.5781 1172.7813,237.5781 Q1171.4375,237.5781 1170.75,238.6563 Q1170.0625,239.7188 1170.0625,241.8125 Q1170.0625,243.9063 1170.75,244.9844 Q1171.4375,246.0469 1172.7813,246.0469 Q1173.4063,246.0469 1174,245.7813 Q1174.5938,245.5 1175.2188,244.9219 L1175.2188,247.6406 Z " fill="#000000"/><text fill="#000000" font-family="sans-serif" font-size="14" lengthAdjust="spacing" textLength="87" x="1192.75" y="246.8467">Repositories</text><line style="stroke:#181818;stroke-width:0.5;" x1="1064" x2="1376" y1="258" y2="258"/><text fill="#000000" font-family="sans-serif" font-size="14" lengthAdjust="spacing" textLength="205" x="1069" y="274.9951">-static instance : Repositories</text><line style="stroke:#181818;stroke-width:0.5;" x1="1064" x2="1376" y1="282.2969" y2="282.2969"/><text fill="#000000" font-family="sans-serif" font-size="14" lengthAdjust="spacing" textLength="204" x="1069" y="299.292">+getInstance() : Repositories</text><text fill="#000000" font-family="sans-serif" font-size="14" lengthAdjust="spacing" textLength="276" x="1069" y="315.5889">+getEntryRepository() : EntryRepository</text><text fill="#000000" font-family="sans-serif" font-size="14" lengthAdjust="spacing" textLength="284" x="1069" y="331.8857">+getTeamRepository() : TeamRepository</text><text fill="#000000" font-family="sans-serif" font-size="14" lengthAdjust="spacing" textLength="302" x="1069" y="348.1826">+getVehicleRepository(): VehicleRepository</text><text fill="#000000" font-family="sans-serif" font-size="14" lengthAdjust="spacing" textLength="102" x="1069" y="364.4795">-Repositories()</text></g><!--class EntryRepository--><g id="elem_EntryRepository"><rect codeLine="101" fill="#F1F1F1" height="96.8906" id="EntryRepository" rx="2.5" ry="2.5" style="stroke:#181818;stroke-width:0.5;" width="456" x="1552" y="180.5"/><ellipse cx="1721.25" cy="196.5" fill="#ADD1B2" rx="11" ry="11" style="stroke:#181818;stroke-width:1.0;"/><path d="M1724.2188,202.1406 Q1723.6406,202.4375 1723,202.5781 Q1722.3594,202.7344 1721.6563,202.7344 Q1719.1563,202.7344 1717.8281,201.0938 Q1716.5156,199.4375 1716.5156,196.3125 Q1716.5156,193.1875 1717.8281,191.5313 Q1719.1563,189.875 1721.6563,189.875 Q1722.3594,189.875 1723,190.0313 Q1723.6563,190.1875 1724.2188,190.4844 L1724.2188,193.2031 Q1723.5938,192.625 1723,192.3594 Q1722.4063,192.0781 1721.7813,192.0781 Q1720.4375,192.0781 1719.75,193.1563 Q1719.0625,194.2188 1719.0625,196.3125 Q1719.0625,198.4063 1719.75,199.4844 Q1720.4375,200.5469 1721.7813,200.5469 Q1722.4063,200.5469 1723,200.2813 Q1723.5938,200 1724.2188,199.4219 L1724.2188,202.1406 Z " fill="#000000"/><text fill="#000000" font-family="sans-serif" font-size="14" lengthAdjust="spacing" textLength="109" x="1741.75" y="201.3467">EntryRepository</text><line style="stroke:#181818;stroke-width:0.5;" x1="1553" x2="2007" y1="212.5" y2="212.5"/><line style="stroke:#181818;stroke-width:0.5;" x1="1553" x2="2007" y1="220.5" y2="220.5"/><text fill="#000000" font-family="sans-serif" font-size="14" lengthAdjust="spacing" textLength="444" x="1558" y="237.4951">+assignTeamToEntry(team: Team, entryDto: EntryDto): boolean</text><text fill="#000000" font-family="sans-serif" font-size="14" lengthAdjust="spacing" textLength="331" x="1558" y="253.792">+findEntryByReference(reference: String): Entry</text><text fill="#000000" font-family="sans-serif" font-size="14" lengthAdjust="spacing" textLength="189" x="1558" y="270.0889">+getAgenda(): List&lt;Entry&gt;</text></g><!--class TeamRepository--><g id="elem_TeamRepository"><rect codeLine="110" fill="#F1F1F1" height="64.2969" id="TeamRepository" rx="2.5" ry="2.5" style="stroke:#181818;stroke-width:0.5;" width="214" x="1673" y="313"/><ellipse cx="1719.25" cy="329" fill="#ADD1B2" rx="11" ry="11" style="stroke:#181818;stroke-width:1.0;"/><path d="M1722.2188,334.6406 Q1721.6406,334.9375 1721,335.0781 Q1720.3594,335.2344 1719.6563,335.2344 Q1717.1563,335.2344 1715.8281,333.5938 Q1714.5156,331.9375 1714.5156,328.8125 Q1714.5156,325.6875 1715.8281,324.0313 Q1717.1563,322.375 1719.6563,322.375 Q1720.3594,322.375 1721,322.5313 Q1721.6563,322.6875 1722.2188,322.9844 L1722.2188,325.7031 Q1721.5938,325.125 1721,324.8594 Q1720.4063,324.5781 1719.7813,324.5781 Q1718.4375,324.5781 1717.75,325.6563 Q1717.0625,326.7188 1717.0625,328.8125 Q1717.0625,330.9063 1717.75,331.9844 Q1718.4375,333.0469 1719.7813,333.0469 Q1720.4063,333.0469 1721,332.7813 Q1721.5938,332.5 1722.2188,331.9219 L1722.2188,334.6406 Z " fill="#000000"/><text fill="#000000" font-family="sans-serif" font-size="14" lengthAdjust="spacing" textLength="113" x="1739.75" y="333.8467">TeamRepository</text><line style="stroke:#181818;stroke-width:0.5;" x1="1674" x2="1886" y1="345" y2="345"/><line style="stroke:#181818;stroke-width:0.5;" x1="1674" x2="1886" y1="353" y2="353"/><text fill="#000000" font-family="sans-serif" font-size="14" lengthAdjust="spacing" textLength="202" x="1679" y="369.9951">+getTeamList(): List&lt;Team&gt;</text></g><!--class VehicleRepository--><g id="elem_VehicleRepository"><rect codeLine="117" fill="#F1F1F1" height="64.2969" id="VehicleRepository" rx="2.5" ry="2.5" style="stroke:#181818;stroke-width:0.5;" width="236" x="1662" y="412"/><ellipse cx="1713.75" cy="428" fill="#ADD1B2" rx="11" ry="11" style="stroke:#181818;stroke-width:1.0;"/><path d="M1716.7188,433.6406 Q1716.1406,433.9375 1715.5,434.0781 Q1714.8594,434.2344 1714.1563,434.2344 Q1711.6563,434.2344 1710.3281,432.5938 Q1709.0156,430.9375 1709.0156,427.8125 Q1709.0156,424.6875 1710.3281,423.0313 Q1711.6563,421.375 1714.1563,421.375 Q1714.8594,421.375 1715.5,421.5313 Q1716.1563,421.6875 1716.7188,421.9844 L1716.7188,424.7031 Q1716.0938,424.125 1715.5,423.8594 Q1714.9063,423.5781 1714.2813,423.5781 Q1712.9375,423.5781 1712.25,424.6563 Q1711.5625,425.7188 1711.5625,427.8125 Q1711.5625,429.9063 1712.25,430.9844 Q1712.9375,432.0469 1714.2813,432.0469 Q1714.9063,432.0469 1715.5,431.7813 Q1716.0938,431.5 1716.7188,430.9219 L1716.7188,433.6406 Z " fill="#000000"/><text fill="#000000" font-family="sans-serif" font-size="14" lengthAdjust="spacing" textLength="124" x="1734.25" y="432.8467">VehicleRepository</text><line style="stroke:#181818;stroke-width:0.5;" x1="1663" x2="1897" y1="444" y2="444"/><line style="stroke:#181818;stroke-width:0.5;" x1="1663" x2="1897" y1="452" y2="452"/><text fill="#000000" font-family="sans-serif" font-size="14" lengthAdjust="spacing" textLength="224" x="1668" y="468.9951">+getVehicleList(): List&lt;Vehicle&gt;</text></g><!--class Entry--><g id="elem_Entry"><rect codeLine="128" fill="#F1F1F1" height="129.4844" id="Entry" rx="2.5" ry="2.5" style="stroke:#181818;stroke-width:0.5;" width="171" x="2085.5" y="127.5"/><ellipse cx="2149.25" cy="143.5" fill="#ADD1B2" rx="11" ry="11" style="stroke:#181818;stroke-width:1.0;"/><path d="M2152.2188,149.1406 Q2151.6406,149.4375 2151,149.5781 Q2150.3594,149.7344 2149.6563,149.7344 Q2147.1563,149.7344 2145.8281,148.0938 Q2144.5156,146.4375 2144.5156,143.3125 Q2144.5156,140.1875 2145.8281,138.5313 Q2147.1563,136.875 2149.6563,136.875 Q2150.3594,136.875 2151,137.0313 Q2151.6563,137.1875 2152.2188,137.4844 L2152.2188,140.2031 Q2151.5938,139.625 2151,139.3594 Q2150.4063,139.0781 2149.7813,139.0781 Q2148.4375,139.0781 2147.75,140.1563 Q2147.0625,141.2188 2147.0625,143.3125 Q2147.0625,145.4063 2147.75,146.4844 Q2148.4375,147.5469 2149.7813,147.5469 Q2150.4063,147.5469 2151,147.2813 Q2151.5938,147 2152.2188,146.4219 L2152.2188,149.1406 Z " fill="#000000"/><text fill="#000000" font-family="sans-serif" font-size="14" lengthAdjust="spacing" textLength="35" x="2169.75" y="148.3467">Entry</text><line style="stroke:#181818;stroke-width:0.5;" x1="2086.5" x2="2255.5" y1="159.5" y2="159.5"/><text fill="#000000" font-family="sans-serif" font-size="14" lengthAdjust="spacing" textLength="128" x="2091.5" y="176.4951">+reference: String</text><text fill="#000000" font-family="sans-serif" font-size="14" lengthAdjust="spacing" textLength="104" x="2091.5" y="192.792">+status: String</text><text fill="#000000" font-family="sans-serif" font-size="14" lengthAdjust="spacing" textLength="118" x="2091.5" y="209.0889">+startDate: Date</text><text fill="#000000" font-family="sans-serif" font-size="14" lengthAdjust="spacing" textLength="159" x="2091.5" y="225.3857">+teamAssigned: Team</text><text fill="#000000" font-family="sans-serif" font-size="14" lengthAdjust="spacing" textLength="123" x="2091.5" y="241.6826">+finishDate: Date</text><line style="stroke:#181818;stroke-width:0.5;" x1="2086.5" x2="2255.5" y1="248.9844" y2="248.9844"/></g><!--class Team--><g id="elem_Team"><rect codeLine="139" fill="#F1F1F1" height="96.8906" id="Team" rx="2.5" ry="2.5" style="stroke:#181818;stroke-width:0.5;" width="112" x="2115" y="291.5"/><ellipse cx="2148.45" cy="307.5" fill="#ADD1B2" rx="11" ry="11" style="stroke:#181818;stroke-width:1.0;"/><path d="M2151.4188,313.1406 Q2150.8406,313.4375 2150.2,313.5781 Q2149.5594,313.7344 2148.8563,313.7344 Q2146.3563,313.7344 2145.0281,312.0938 Q2143.7156,310.4375 2143.7156,307.3125 Q2143.7156,304.1875 2145.0281,302.5313 Q2146.3563,300.875 2148.8563,300.875 Q2149.5594,300.875 2150.2,301.0313 Q2150.8563,301.1875 2151.4188,301.4844 L2151.4188,304.2031 Q2150.7938,303.625 2150.2,303.3594 Q2149.6063,303.0781 2148.9813,303.0781 Q2147.6375,303.0781 2146.95,304.1563 Q2146.2625,305.2188 2146.2625,307.3125 Q2146.2625,309.4063 2146.95,310.4844 Q2147.6375,311.5469 2148.9813,311.5469 Q2149.6063,311.5469 2150.2,311.2813 Q2150.7938,311 2151.4188,310.4219 L2151.4188,313.1406 Z " fill="#000000"/><text fill="#000000" font-family="sans-serif" font-size="14" lengthAdjust="spacing" textLength="39" x="2166.55" y="312.3467">Team</text><line style="stroke:#181818;stroke-width:0.5;" x1="2116" x2="2226" y1="323.5" y2="323.5"/><text fill="#000000" font-family="sans-serif" font-size="14" lengthAdjust="spacing" textLength="100" x="2121" y="340.4951">+name: String</text><text fill="#000000" font-family="sans-serif" font-size="14" lengthAdjust="spacing" textLength="95" x="2121" y="356.792">+maxSize: int</text><text fill="#000000" font-family="sans-serif" font-size="14" lengthAdjust="spacing" textLength="92" x="2121" y="373.0889">+minSize: int</text><line style="stroke:#181818;stroke-width:0.5;" x1="2116" x2="2226" y1="380.3906" y2="380.3906"/></g><!--class Vehicle--><g id="elem_Vehicle"><rect codeLine="148" fill="#F1F1F1" height="96.8906" id="Vehicle" rx="2.5" ry="2.5" style="stroke:#181818;stroke-width:0.5;" width="104" x="2119" y="423.5"/><ellipse cx="2143.9" cy="439.5" fill="#ADD1B2" rx="11" ry="11" style="stroke:#181818;stroke-width:1.0;"/><path d="M2146.8688,445.1406 Q2146.2906,445.4375 2145.65,445.5781 Q2145.0094,445.7344 2144.3063,445.7344 Q2141.8063,445.7344 2140.4781,444.0938 Q2139.1656,442.4375 2139.1656,439.3125 Q2139.1656,436.1875 2140.4781,434.5313 Q2141.8063,432.875 2144.3063,432.875 Q2145.0094,432.875 2145.65,433.0313 Q2146.3063,433.1875 2146.8688,433.4844 L2146.8688,436.2031 Q2146.2438,435.625 2145.65,435.3594 Q2145.0563,435.0781 2144.4313,435.0781 Q2143.0875,435.0781 2142.4,436.1563 Q2141.7125,437.2188 2141.7125,439.3125 Q2141.7125,441.4063 2142.4,442.4844 Q2143.0875,443.5469 2144.4313,443.5469 Q2145.0563,443.5469 2145.65,443.2813 Q2146.2438,443 2146.8688,442.4219 L2146.8688,445.1406 Z " fill="#000000"/><text fill="#000000" font-family="sans-serif" font-size="14" lengthAdjust="spacing" textLength="50" x="2160.1" y="444.3467">Vehicle</text><line style="stroke:#181818;stroke-width:0.5;" x1="2120" x2="2222" y1="455.5" y2="455.5"/><text fill="#000000" font-family="sans-serif" font-size="14" lengthAdjust="spacing" textLength="89" x="2125" y="472.4951">brand: String</text><text fill="#000000" font-family="sans-serif" font-size="14" lengthAdjust="spacing" textLength="92" x="2125" y="488.792">model: String</text><text fill="#000000" font-family="sans-serif" font-size="14" lengthAdjust="spacing" textLength="83" x="2125" y="505.0889">plate: String</text><line style="stroke:#181818;stroke-width:0.5;" x1="2120" x2="2222" y1="512.3906" y2="512.3906"/></g><!--link AgendaUI to ViewDetailsEntryUI--><g id="link_AgendaUI_ViewDetailsEntryUI"><path codeLine="14" d="M120.13,245.28 C137.81,245.02 152.9207,244.7898 174.9707,244.4598 " fill="none" id="AgendaUI-to-ViewDetailsEntryUI" style="stroke:#181818;stroke-width:1.0;stroke-dasharray:7.0,7.0;"/><polygon fill="#181818" points="180.97,244.37,171.9112,240.5051,175.9706,244.4448,172.0309,248.5042,180.97,244.37" style="stroke:#181818;stroke-width:1.0;"/></g><!--link ViewDetailsEntryUI to ViewDetailsEntryController--><g id="link_ViewDetailsEntryUI_ViewDetailsEntryController"><path codeLine="24" d="M386.62,274.2 C425.79,300.83 484.87,337.89 541,361 C571.25,373.45 599.5379,381.9506 630.9879,389.5506 " fill="none" id="ViewDetailsEntryUI-to-ViewDetailsEntryController" style="stroke:#181818;stroke-width:1.0;stroke-dasharray:7.0,7.0;"/><polygon fill="#181818" points="636.82,390.96,629.0114,384.9579,631.9599,389.7855,627.1322,392.7341,636.82,390.96" style="stroke:#181818;stroke-width:1.0;"/></g><!--link AgendaUI to AgendaController--><g id="link_AgendaUI_AgendaController"><path codeLine="31" d="M119.92,270.08 C138.52,278.27 160.3,286.49 181,291 C316.59,320.53 468.8621,323.8875 582.7521,320.8975 " fill="none" id="AgendaUI-to-AgendaController" style="stroke:#181818;stroke-width:1.0;stroke-dasharray:7.0,7.0;"/><polygon fill="#181818" points="588.75,320.74,579.6481,316.9776,583.7517,320.8712,579.8581,324.9748,588.75,320.74" style="stroke:#181818;stroke-width:1.0;"/></g><!--link AgendaController to EntryMapper--><g id="link_AgendaController_EntryMapper"><path codeLine="43" d="M787.11,279.99 C838.14,243.85 927.71,187.18 1015,165 C1124.19,137.25 1438.77,89.06 1522,165 C1575.9,214.19 1508.39,433.49 1552,492 C1571.92,518.72 1595.4677,535.2173 1626.1677,548.5673 " fill="none" id="AgendaController-to-EntryMapper" style="stroke:#181818;stroke-width:1.0;stroke-dasharray:7.0,7.0;"/><polygon fill="#181818" points="1631.67,550.96,1625.0117,543.7028,1627.0848,548.9661,1621.8215,551.0392,1631.67,550.96" style="stroke:#181818;stroke-width:1.0;"/></g><!--link ViewDetailsEntryController to TeamMapper--><g id="link_ViewDetailsEntryController_TeamMapper"><path codeLine="48" d="M810.76,443.11 C845.64,459.11 889.48,477.8 930,491 C1158.21,565.37 1424.2565,619.9282 1597.7565,651.4282 " fill="none" id="ViewDetailsEntryController-to-TeamMapper" style="stroke:#181818;stroke-width:1.0;stroke-dasharray:7.0,7.0;"/><polygon fill="#181818" points="1603.66,652.5,1595.5193,646.9566,1598.7404,651.6068,1594.0902,654.8279,1603.66,652.5" style="stroke:#181818;stroke-width:1.0;"/></g><!--link ViewDetailsEntryController to VehicleMapper--><g id="link_ViewDetailsEntryController_VehicleMapper"><path codeLine="53" d="M776.78,443.15 C824.57,488.83 918.89,571.85 1015,616 C1198.73,700.4 1421.4487,741.6867 1580.5087,762.0867 " fill="none" id="ViewDetailsEntryController-to-VehicleMapper" style="stroke:#181818;stroke-width:1.0;stroke-dasharray:7.0,7.0;"/><polygon fill="#181818" points="1586.46,762.85,1578.042,757.7376,1581.5006,762.2139,1577.0243,765.6726,1586.46,762.85" style="stroke:#181818;stroke-width:1.0;"/></g><!--link EntryMapper to EntryDto--><g id="link_EntryMapper_EntryDto"><path codeLine="66" d="M1952.19,613.36 C1993.57,620.7 2030.4622,627.2524 2067.0622,633.7424 " fill="none" id="EntryMapper-to-EntryDto" style="stroke:#181818;stroke-width:1.0;stroke-dasharray:7.0,7.0;"/><polygon fill="#181818" points="2072.97,634.79,2064.8066,629.2801,2068.0468,633.917,2063.4098,637.1572,2072.97,634.79" style="stroke:#181818;stroke-width:1.0;"/></g><!--link TeamMapper to TeamDto--><g id="link_TeamMapper_TeamDto"><path codeLine="72" d="M1956.14,713.34 C1981.7,718.74 2007.61,724.67 2032,731 C2053.22,736.51 2070.257,741.6056 2091.027,748.3956 " fill="none" id="TeamMapper-to-TeamDto" style="stroke:#181818;stroke-width:1.0;stroke-dasharray:7.0,7.0;"/><polygon fill="#181818" points="2096.73,750.26,2089.4184,743.6614,2091.9775,748.7063,2086.9326,751.2654,2096.73,750.26" style="stroke:#181818;stroke-width:1.0;"/></g><!--link VehicleMapper to VehicleDto--><g id="link_VehicleMapper_VehicleDto"><path codeLine="80" d="M1893.25,813.03 C1966.98,834.07 2054.2503,858.9737 2111.4803,875.3037 " fill="none" id="VehicleMapper-to-VehicleDto" style="stroke:#181818;stroke-width:1.0;stroke-dasharray:7.0,7.0;"/><polygon fill="#181818" points="2117.25,876.95,2109.693,870.634,2112.4419,875.5781,2107.4979,878.327,2117.25,876.95" style="stroke:#181818;stroke-width:1.0;"/></g><!--link ViewDetailsEntryController to Repositories--><g id="link_ViewDetailsEntryController_Repositories"><path codeLine="96" d="M850.1,386.07 C912.64,371.31 987.1905,353.7185 1056.9605,337.2485 " fill="none" id="ViewDetailsEntryController-to-Repositories" style="stroke:#181818;stroke-width:1.0;stroke-dasharray:7.0,7.0;"/><polygon fill="#181818" points="1062.8,335.87,1053.1218,334.0447,1057.9337,337.0187,1054.9597,341.8307,1062.8,335.87" style="stroke:#181818;stroke-width:1.0;"/><text fill="#000000" font-family="sans-serif" font-size="13" lengthAdjust="spacing" textLength="75" x="931" y="348.0669">repositories</text></g><!--link AgendaController to Repositories--><g id="link_AgendaController_Repositories"><path codeLine="97" d="M898.23,307.79 C950.88,306.35 1003.8223,304.8946 1056.6723,303.4446 " fill="none" id="AgendaController-to-Repositories" style="stroke:#181818;stroke-width:1.0;stroke-dasharray:7.0,7.0;"/><polygon fill="#181818" points="1062.67,303.28,1053.5637,299.5283,1057.6719,303.4171,1053.7831,307.5253,1062.67,303.28" style="stroke:#181818;stroke-width:1.0;"/><text fill="#000000" font-family="sans-serif" font-size="13" lengthAdjust="spacing" textLength="75" x="931" y="302.0669">repositories</text></g><!--link Repositories to Repositories--><g id="link_Repositories_Repositories"><path codeLine="99" d="M1174.59,225.81 C1176.98,206.04 1192.12,191 1220,191 C1247.88,191 1262.2999,200.0834 1264.6899,219.8534 " fill="none" id="Repositories-to-Repositories" style="stroke:#181818;stroke-width:1.0;"/><polygon fill="#181818" points="1265.41,225.81,1268.3009,216.395,1264.8099,220.8461,1260.3588,217.3551,1265.41,225.81" style="stroke:#181818;stroke-width:1.0;"/><text fill="#000000" font-family="sans-serif" font-size="13" lengthAdjust="spacing" textLength="54" x="1193" y="182.0669">instance</text></g><!--link Repositories to EntryRepository--><g id="link_Repositories_EntryRepository"><path codeLine="107" d="M1377.18,279.41 C1431.34,272.61 1487.2666,265.5963 1545.9766,258.2363 " fill="none" id="Repositories-to-EntryRepository" style="stroke:#181818;stroke-width:1.0;"/><polygon fill="#181818" points="1551.93,257.49,1542.5023,254.6406,1546.9688,258.1119,1543.4975,262.5784,1551.93,257.49" style="stroke:#181818;stroke-width:1.0;"/><text fill="#000000" font-family="sans-serif" font-size="13" lengthAdjust="spacing" textLength="100" x="1414.5" y="258.0669">entryRepository</text><text fill="#000000" font-family="sans-serif" font-size="13" lengthAdjust="spacing" textLength="8" x="1384.9872" y="290.8998">1</text><text fill="#000000" font-family="sans-serif" font-size="13" lengthAdjust="spacing" textLength="8" x="1536.3152" y="270.7418">1</text></g><!--link AgendaController to EntryRepository--><g id="link_AgendaController_EntryRepository"><path codeLine="108" d="M763.53,279.9 C792.69,234.27 853.2,152.59 930,120 C1172.21,17.22 1264.16,67.58 1522,120 C1580.06,131.8 1635.8804,154.5738 1683.9904,177.8838 " fill="none" id="AgendaController-to-EntryRepository" style="stroke:#181818;stroke-width:1.0;stroke-dasharray:7.0,7.0;"/><polygon fill="#181818" points="1689.39,180.5,1683.0347,172.976,1684.8903,178.3198,1679.5465,180.1755,1689.39,180.5" style="stroke:#181818;stroke-width:1.0;"/><text fill="#000000" font-family="sans-serif" font-size="13" lengthAdjust="spacing" textLength="100" x="1170" y="57.0669">entryRepository</text></g><!--link Repositories to TeamRepository--><g id="link_Repositories_TeamRepository"><path codeLine="114" d="M1377.18,311.87 C1471.48,319.65 1583.2003,328.8571 1666.7803,335.7471 " fill="none" id="Repositories-to-TeamRepository" style="stroke:#181818;stroke-width:1.0;"/><polygon fill="#181818" points="1672.76,336.24,1664.1191,331.5141,1667.7769,335.8292,1663.4618,339.4871,1672.76,336.24" style="stroke:#181818;stroke-width:1.0;"/><text fill="#000000" font-family="sans-serif" font-size="13" lengthAdjust="spacing" textLength="101" x="1414" y="312.0669">teamRepository</text><text fill="#000000" font-family="sans-serif" font-size="13" lengthAdjust="spacing" textLength="8" x="1384.9872" y="324.9321">1</text><text fill="#000000" font-family="sans-serif" font-size="13" lengthAdjust="spacing" textLength="8" x="1656.9384" y="348.2125">1</text></g><!--link ViewDetailsEntryController to TeamRepository--><g id="link_ViewDetailsEntryController_TeamRepository"><path codeLine="115" d="M850.11,416.13 C1000.24,421.7 1283.58,425.88 1522,393 C1571.8,386.13 1620.7216,377.3719 1666.8816,368.3419 " fill="none" id="ViewDetailsEntryController-to-TeamRepository" style="stroke:#181818;stroke-width:1.0;stroke-dasharray:7.0,7.0;"/><polygon fill="#181818" points="1672.77,367.19,1663.1695,364.9923,1667.863,368.1499,1664.7054,372.8435,1672.77,367.19" style="stroke:#181818;stroke-width:1.0;"/><text fill="#000000" font-family="sans-serif" font-size="13" lengthAdjust="spacing" textLength="101" x="1169.5" y="405.0669">teamRepository</text></g><!--link Repositories to VehicleRepository--><g id="link_Repositories_VehicleRepository"><path codeLine="121" d="M1377.04,345.96 C1432.13,361.96 1494.63,379.46 1552,394 C1587.5,402.99 1620.4987,410.6174 1655.8687,418.3574 " fill="none" id="Repositories-to-VehicleRepository" style="stroke:#181818;stroke-width:1.0;"/><polygon fill="#181818" points="1661.73,419.64,1653.7931,413.8085,1656.8456,418.5711,1652.083,421.6236,1661.73,419.64" style="stroke:#181818;stroke-width:1.0;"/><text fill="#000000" font-family="sans-serif" font-size="13" lengthAdjust="spacing" textLength="113" x="1408" y="353.0669">VehicleRepository</text><text fill="#000000" font-family="sans-serif" font-size="13" lengthAdjust="spacing" textLength="8" x="1384.8404" y="360.6733">1</text><text fill="#000000" font-family="sans-serif" font-size="13" lengthAdjust="spacing" textLength="8" x="1645.8971" y="430.6215">1</text></g><!--link ViewDetailsEntryController to VehicleRepository--><g id="link_ViewDetailsEntryController_VehicleRepository"><path codeLine="122" d="M839.02,443.08 C890.4,458.84 955.45,476.11 1015,484 C1242.79,514.2 1505.6726,486.1747 1656.0426,464.2747 " fill="none" id="ViewDetailsEntryController-to-VehicleRepository" style="stroke:#181818;stroke-width:1.0;stroke-dasharray:7.0,7.0;"/><polygon fill="#181818" points="1661.98,463.41,1652.4975,460.7488,1657.0322,464.1306,1653.6504,468.6653,1661.98,463.41" style="stroke:#181818;stroke-width:1.0;"/><text fill="#000000" font-family="sans-serif" font-size="13" lengthAdjust="spacing" textLength="113" x="1163.5" y="480.0669">VehicleRepository</text></g><!--link EntryRepository to Entry--><g id="link_EntryRepository_Entry"><path codeLine="136" d="M2008.13,207.4 C2035.43,204.8 2055.8771,202.8591 2079.1771,200.6391 " fill="none" id="EntryRepository-to-Entry" style="stroke:#181818;stroke-width:1.0;"/><polygon fill="#181818" points="2085.15,200.07,2075.8112,196.9417,2080.1725,200.5442,2076.57,204.9056,2085.15,200.07" style="stroke:#181818;stroke-width:1.0;"/><text fill="#000000" font-family="sans-serif" font-size="13" lengthAdjust="spacing" textLength="8" x="2015.7468" y="219.0082">1</text><text fill="#000000" font-family="sans-serif" font-size="13" lengthAdjust="spacing" textLength="7" x="2070.4715" y="213.4598">*</text></g><!--link EntryMapper to Entry--><g id="link_EntryMapper_Entry"><path codeLine="137" d="M1951.64,550.99 C1982.7,537.64 2011.65,518.74 2032,492 C2061.42,453.33 2024.58,316.01 2049,274 C2057.93,258.64 2066.2486,249.1878 2080.5586,238.2778 " fill="none" id="EntryMapper-to-Entry" style="stroke:#181818;stroke-width:1.0;stroke-dasharray:7.0,7.0;"/><polygon fill="#181818" points="2085.33,234.64,2075.7477,236.9157,2081.3538,237.6715,2080.598,243.2776,2085.33,234.64" style="stroke:#181818;stroke-width:1.0;"/></g><!--link TeamRepository to Team--><g id="link_TeamRepository_Team"><path codeLine="145" d="M1887.04,343.64 C1960.72,342.69 2049.9105,341.5472 2108.9505,340.7872 " fill="none" id="TeamRepository-to-Team" style="stroke:#181818;stroke-width:1.0;"/><polygon fill="#181818" points="2114.95,340.71,2105.8993,336.8262,2109.9504,340.7744,2106.0022,344.8255,2114.95,340.71" style="stroke:#181818;stroke-width:1.0;"/><text fill="#000000" font-family="sans-serif" font-size="13" lengthAdjust="spacing" textLength="8" x="1894.8475" y="356.1328">1</text><text fill="#000000" font-family="sans-serif" font-size="13" lengthAdjust="spacing" textLength="7" x="2099.948" y="353.8964">*</text></g><!--link TeamMapper to Team--><g id="link_TeamMapper_Team"><path codeLine="146" d="M1956.02,677.06 C1984.91,668.51 2011.94,654.44 2032,632 C2048.78,613.23 2035.43,427.21 2049,406 C2064.02,382.52 2084.8994,369.0664 2109.2194,358.8364 " fill="none" id="TeamMapper-to-Team" style="stroke:#181818;stroke-width:1.0;stroke-dasharray:7.0,7.0;"/><polygon fill="#181818" points="2114.75,356.51,2104.9031,356.3125,2110.1411,358.4487,2108.005,363.6867,2114.75,356.51" style="stroke:#181818;stroke-width:1.0;"/></g><!--link VehicleRepository to Vehicle--><g id="link_VehicleRepository_Vehicle"><path codeLine="154" d="M1898.24,452.44 C1971.84,457.74 2057.0755,463.8689 2112.8855,467.8889 " fill="none" id="VehicleRepository-to-Vehicle" style="stroke:#181818;stroke-width:1.0;"/><polygon fill="#181818" points="2118.87,468.32,2110.1806,463.6837,2113.8829,467.9608,2109.6059,471.6631,2118.87,468.32" style="stroke:#181818;stroke-width:1.0;"/><text fill="#000000" font-family="sans-serif" font-size="13" lengthAdjust="spacing" textLength="8" x="1906.071" y="465.5228">1</text><text fill="#000000" font-family="sans-serif" font-size="13" lengthAdjust="spacing" textLength="7" x="2104.047" y="480.9411">*</text></g><!--link VehicleMapper to Vehicle--><g id="link_VehicleMapper_Vehicle"><path codeLine="155" d="M1973.52,769.51 C1995.6,760.88 2015.92,748.51 2032,731 C2054.99,705.96 2033.33,609.16 2049,579 C2064.9,548.39 2088.6141,526.0417 2113.9941,507.4017 " fill="none" id="VehicleMapper-to-Vehicle" style="stroke:#181818;stroke-width:1.0;stroke-dasharray:7.0,7.0;"/><polygon fill="#181818" points="2118.83,503.85,2109.2084,505.9536,2114.8001,506.8097,2113.9439,512.4014,2118.83,503.85" style="stroke:#181818;stroke-width:1.0;"/></g><!--SRC=[nLVVRzem47xFNs6nbx2kLVSQJPMwqGUajPLMohj9Zc0rs2Xsoxg9_tssuoPESZQiUrYG88dlplTzzyl89yPtjAPR8ZUq47l6IxAcbOH4jYjvHQMyLgfcgsS5yrpm1_OBo6MILB1MH0bIitAZIC5go1KJF4bsD7-Y9P39utn2FgmlpUTtGlHbZP4bW_qC56MLlE6gVdsSasRPN6To8_RsjHD9mJueaP4RTpVDo8jWXTKv99xbwn9uGLjxRgrzUt5nXMoU73gFluaQF9-jkhUe5KHLGQr52divaJ2sJiV3Q76Me6PKqJk00efqsYuUEfC8KGP2P9Daw4-3FUf58s8DVMTIQNvJJR2v_V96-1NcNO_MuJu-_os1Cx6bZFlajSPQcLkws-44Tw2iMutW08_5fCHiST-aZK7XOxaA8nkWwn1wv1catkQORmkWssEkAItZUMPKMiVC0-AN_nJ9CUDWvm7ctn8sBA_Wc8ilZPZdfLDi7NNF_-Phpvi4ox8kUHRt9sI5TWS39HMjJRb1HimtAg2UPKOUTAFZ9SAA9lLQIbPoA3BYWZGMgs4DDV0SK4jzQdeFVagtMMQs2AHO0ATnyuvk_tfxBslVKYYmUHTsPFzLJNaH974h2gY2gxlAXWVrkvzIlGpsiiXw7CsX7x0JaYbHl-fKMjaBJQLMZe54O9uJaoui9uph6nrjalLKnd4Xki_EdN0wFKdSPa3diDKQlCCLJV06UlrNOpMjvJZq5JCoUebGuIFnnXWMk7Wlw96UaJh44DgLOyezxPxW-Vb8yosamGxJaO4L8BKzml2z45RSDlic0fy8UfHP2L41vMDRQyOBA_TLR-hwIZhgC5Dd38rgmrL_daT7Ne-DoUU9fSZy3h5d3PX0QeGdPzH4eDd5ANSfRm2c_XHz7yx1VXbHuTevOH1tcYDBuUPw5E-ocyxfO1w_3_LuusF5VzfWz-6FxKLxzQsP5l4sRJV6A8gFuPC6_j4Jm_X4W5Omavk0bK5iXjNHXkVZ12bm_xpG5LUeW32EUEYOO5UtzAVvdsVweK9M6STN1vW6nUH36X7c7K7QwedKo7y-VGHGkTN8USMl3Z__4_UFwP3y0G00]--></g></svg>