<?xml version="1.0" encoding="us-ascii" standalone="no"?><svg xmlns="http://www.w3.org/2000/svg" xmlns:xlink="http://www.w3.org/1999/xlink" contentStyleType="text/css" height="624px" preserveAspectRatio="none" style="width:1229px;height:624px;background:#FFFFFF;" version="1.1" viewBox="0 0 1229 624" width="1229px" zoomAndPan="magnify"><defs/><g><rect fill="#FFFFFF" height="442.9609" style="stroke:#181818;stroke-width:1.0;" width="10" x="19" y="91.2969"/><rect fill="#FFFFFF" height="131.5" style="stroke:#181818;stroke-width:1.0;" width="10" x="325" y="127.5625"/><rect fill="#FFFFFF" height="29.1328" style="stroke:#181818;stroke-width:1.0;" width="10" x="325" y="288.1953"/><rect fill="#FFFFFF" height="73.2344" style="stroke:#181818;stroke-width:1.0;" width="10" x="525" y="156.6953"/><rect fill="#FFFFFF" height="207.9297" style="stroke:#181818;stroke-width:1.0;" width="10" x="677.5" y="317.3281"/><rect fill="#FFFFFF" height="73.2344" style="stroke:#181818;stroke-width:1.0;" width="10" x="900.5" y="422.8906"/><line style="stroke:#181818;stroke-width:0.5;stroke-dasharray:5.0,5.0;" x1="24" x2="24" y1="81.2969" y2="543.2578"/><line style="stroke:#181818;stroke-width:0.5;stroke-dasharray:5.0,5.0;" x1="329.5" x2="329.5" y1="81.2969" y2="543.2578"/><line style="stroke:#181818;stroke-width:0.5;stroke-dasharray:5.0,5.0;" x1="529.5" x2="529.5" y1="81.2969" y2="543.2578"/><line style="stroke:#181818;stroke-width:0.5;stroke-dasharray:5.0,5.0;" x1="682.5" x2="682.5" y1="81.2969" y2="543.2578"/><line style="stroke:#181818;stroke-width:0.5;stroke-dasharray:5.0,5.0;" x1="905.5" x2="905.5" y1="391.1094" y2="543.2578"/><text fill="#000000" font-family="sans-serif" font-size="14" lengthAdjust="spacing" textLength="32" x="5" y="77.9951">GSM</text><ellipse cx="24" cy="13.5" fill="#E3E3E3" rx="8" ry="8" style="stroke:#181818;stroke-width:0.5;"/><path d="M24,21.5 L24,48.5 M11,29.5 L37,29.5 M24,48.5 L11,63.5 M24,48.5 L37,63.5 " fill="none" style="stroke:#181818;stroke-width:0.5;"/><text fill="#000000" font-family="sans-serif" font-size="14" lengthAdjust="spacing" textLength="32" x="5" y="555.2529">GSM</text><ellipse cx="24" cy="567.0547" fill="#E3E3E3" rx="8" ry="8" style="stroke:#181818;stroke-width:0.5;"/><path d="M24,575.0547 L24,602.0547 M11,583.0547 L37,583.0547 M24,602.0547 L11,617.0547 M24,602.0547 L37,617.0547 " fill="none" style="stroke:#181818;stroke-width:0.5;"/><rect fill="#E3E3E3" height="30.2969" rx="2.5" ry="2.5" style="stroke:#181818;stroke-width:0.5;" width="85" x="287.5" y="50"/><text fill="#000000" font-family="sans-serif" font-size="14" lengthAdjust="spacing" textLength="71" x="294.5" y="69.9951">:AgendaUI</text><rect fill="#E3E3E3" height="30.2969" rx="2.5" ry="2.5" style="stroke:#181818;stroke-width:0.5;" width="85" x="287.5" y="542.2578"/><text fill="#000000" font-family="sans-serif" font-size="14" lengthAdjust="spacing" textLength="71" x="294.5" y="562.2529">:AgendaUI</text><rect fill="#E3E3E3" height="30.2969" rx="2.5" ry="2.5" style="stroke:#181818;stroke-width:0.5;" width="139" x="460.5" y="50"/><text fill="#000000" font-family="sans-serif" font-size="14" lengthAdjust="spacing" textLength="125" x="467.5" y="69.9951">:AgendaController</text><rect fill="#E3E3E3" height="30.2969" rx="2.5" ry="2.5" style="stroke:#181818;stroke-width:0.5;" width="139" x="460.5" y="542.2578"/><text fill="#000000" font-family="sans-serif" font-size="14" lengthAdjust="spacing" textLength="125" x="467.5" y="562.2529">:AgendaController</text><rect fill="#E3E3E3" height="30.2969" rx="2.5" ry="2.5" style="stroke:#181818;stroke-width:0.5;" width="146" x="609.5" y="50"/><text fill="#000000" font-family="sans-serif" font-size="14" lengthAdjust="spacing" textLength="132" x="616.5" y="69.9951">:ViewDetailsEntryUI</text><rect fill="#E3E3E3" height="30.2969" rx="2.5" ry="2.5" style="stroke:#181818;stroke-width:0.5;" width="146" x="609.5" y="542.2578"/><text fill="#000000" font-family="sans-serif" font-size="14" lengthAdjust="spacing" textLength="132" x="616.5" y="562.2529">:ViewDetailsEntryUI</text><rect fill="#E3E3E3" height="30.2969" rx="2.5" ry="2.5" style="stroke:#181818;stroke-width:0.5;" width="200" x="805.5" y="542.2578"/><text fill="#000000" font-family="sans-serif" font-size="14" lengthAdjust="spacing" textLength="186" x="812.5" y="562.2529">:ViewDetailsEntryController</text><rect fill="#FFFFFF" height="442.9609" style="stroke:#181818;stroke-width:1.0;" width="10" x="19" y="91.2969"/><rect fill="#FFFFFF" height="131.5" style="stroke:#181818;stroke-width:1.0;" width="10" x="325" y="127.5625"/><rect fill="#FFFFFF" height="29.1328" style="stroke:#181818;stroke-width:1.0;" width="10" x="325" y="288.1953"/><rect fill="#FFFFFF" height="73.2344" style="stroke:#181818;stroke-width:1.0;" width="10" x="525" y="156.6953"/><rect fill="#FFFFFF" height="207.9297" style="stroke:#181818;stroke-width:1.0;" width="10" x="677.5" y="317.3281"/><rect fill="#FFFFFF" height="73.2344" style="stroke:#181818;stroke-width:1.0;" width="10" x="900.5" y="422.8906"/><polygon fill="#181818" points="313,123.5625,323,127.5625,313,131.5625,317,127.5625" style="stroke:#181818;stroke-width:1.0;"/><line style="stroke:#181818;stroke-width:1.0;" x1="29" x2="319" y1="127.5625" y2="127.5625"/><text fill="#000000" font-family="sans-serif" font-size="13" font-weight="bold" lengthAdjust="spacing" textLength="9" x="36" y="114.9302">1</text><text fill="#000000" font-family="sans-serif" font-size="13" lengthAdjust="spacing" textLength="262" x="49" y="107.3638">Asks to get the details and management</text><text fill="#000000" font-family="sans-serif" font-size="13" lengthAdjust="spacing" textLength="260" x="53" y="122.4966">options of a specific entry on the agenda</text><polygon fill="#181818" points="513,152.6953,523,156.6953,513,160.6953,517,156.6953" style="stroke:#181818;stroke-width:1.0;"/><line style="stroke:#181818;stroke-width:1.0;" x1="335" x2="519" y1="156.6953" y2="156.6953"/><text fill="#000000" font-family="sans-serif" font-size="13" font-weight="bold" lengthAdjust="spacing" textLength="9" x="342" y="151.6294">2</text><text fill="#000000" font-family="sans-serif" font-size="13" lengthAdjust="spacing" textLength="158" x="355" y="151.6294">getAgendaEntryListDto()</text><rect fill="none" height="39.1016" style="stroke:#000000;stroke-width:1.5;" width="171" x="457.5" y="164.6953"/><path d="M457.5,164.6953 L523.5,164.6953 L523.5,171.6953 L513.5,181.6953 L457.5,181.6953 L457.5,164.6953 " fill="#EEEEEE" style="stroke:#000000;stroke-width:2.0;"/><text fill="#000000" font-family="sans-serif" font-size="13" font-weight="bold" lengthAdjust="spacing" textLength="21" x="470.5" y="178.7622">ref</text><text fill="#000000" font-family="sans-serif" font-size="12" lengthAdjust="spacing" textLength="163" x="461.5" y="196.834">Get List of Agenda Entries</text><polygon fill="#181818" points="346,225.9297,336,229.9297,346,233.9297,342,229.9297" style="stroke:#181818;stroke-width:1.0;"/><line style="stroke:#181818;stroke-width:1.0;stroke-dasharray:2.0,2.0;" x1="340" x2="529" y1="229.9297" y2="229.9297"/><text fill="#000000" font-family="sans-serif" font-size="13" font-weight="bold" lengthAdjust="spacing" textLength="9" x="352" y="224.8638">3</text><text fill="#000000" font-family="sans-serif" font-size="13" lengthAdjust="spacing" textLength="126" x="365" y="224.8638">agendaEntryListDto</text><polygon fill="#181818" points="40,255.0625,30,259.0625,40,263.0625,36,259.0625" style="stroke:#181818;stroke-width:1.0;"/><line style="stroke:#181818;stroke-width:1.0;" x1="34" x2="329" y1="259.0625" y2="259.0625"/><text fill="#000000" font-family="sans-serif" font-size="13" font-weight="bold" lengthAdjust="spacing" textLength="9" x="46" y="253.9966">4</text><text fill="#000000" font-family="sans-serif" font-size="13" lengthAdjust="spacing" textLength="189" x="59" y="253.9966">Shows Agenda and its Entries</text><polygon fill="#181818" points="313,284.1953,323,288.1953,313,292.1953,317,288.1953" style="stroke:#181818;stroke-width:1.0;"/><line style="stroke:#181818;stroke-width:1.0;" x1="29" x2="319" y1="288.1953" y2="288.1953"/><text fill="#000000" font-family="sans-serif" font-size="13" font-weight="bold" lengthAdjust="spacing" textLength="9" x="36" y="283.1294">5</text><text fill="#000000" font-family="sans-serif" font-size="13" lengthAdjust="spacing" textLength="104" x="49" y="283.1294">Selects an Entry</text><polygon fill="#181818" points="665.5,313.3281,675.5,317.3281,665.5,321.3281,669.5,317.3281" style="stroke:#181818;stroke-width:1.0;"/><line style="stroke:#181818;stroke-width:1.0;" x1="330" x2="671.5" y1="317.3281" y2="317.3281"/><text fill="#000000" font-family="sans-serif" font-size="13" font-weight="bold" lengthAdjust="spacing" textLength="9" x="337" y="312.2622">6</text><text fill="#000000" font-family="sans-serif" font-size="13" lengthAdjust="spacing" textLength="175" x="350" y="312.2622">showEntryDetails(entryDto)</text><path d="M335,330.3281 L335,355.3281 L531,355.3281 L531,340.3281 L521,330.3281 L335,330.3281 " fill="#FAFAFA" style="stroke:#181818;stroke-width:0.5;"/><path d="M521,330.3281 L521,340.3281 L531,340.3281 L521,330.3281 " fill="#FAFAFA" style="stroke:#181818;stroke-width:0.5;"/><text fill="#000000" font-family="sans-serif" font-size="13" lengthAdjust="spacing" textLength="175" x="341" y="347.395">(DTO of the Selected Entry)</text><polygon fill="#181818" points="793.5,377.5938,803.5,381.5938,793.5,385.5938,797.5,381.5938" style="stroke:#181818;stroke-width:1.0;"/><line style="stroke:#181818;stroke-width:1.0;" x1="687.5" x2="799.5" y1="381.5938" y2="381.5938"/><text fill="#000000" font-family="sans-serif" font-size="13" font-weight="bold" lengthAdjust="spacing" textLength="9" x="694.5" y="376.5278">7</text><text fill="#000000" font-family="sans-serif" font-size="13" lengthAdjust="spacing" textLength="51" x="707.5" y="376.5278">create()</text><rect fill="#E3E3E3" height="30.2969" rx="2.5" ry="2.5" style="stroke:#181818;stroke-width:0.5;" width="200" x="805.5" y="360.4609"/><text fill="#000000" font-family="sans-serif" font-size="14" lengthAdjust="spacing" textLength="186" x="812.5" y="380.4561">:ViewDetailsEntryController</text><polygon fill="#181818" points="888.5,418.8906,898.5,422.8906,888.5,426.8906,892.5,422.8906" style="stroke:#181818;stroke-width:1.0;"/><line style="stroke:#181818;stroke-width:1.0;" x1="687.5" x2="894.5" y1="422.8906" y2="422.8906"/><text fill="#000000" font-family="sans-serif" font-size="13" font-weight="bold" lengthAdjust="spacing" textLength="9" x="694.5" y="417.8247">8</text><text fill="#000000" font-family="sans-serif" font-size="13" lengthAdjust="spacing" textLength="112" x="707.5" y="417.8247">getDataNeeded()</text><rect fill="none" height="39.1016" style="stroke:#000000;stroke-width:1.5;" width="421" x="802.5" y="430.8906"/><path d="M802.5,430.8906 L868.5,430.8906 L868.5,437.8906 L858.5,447.8906 L802.5,447.8906 L802.5,430.8906 " fill="#EEEEEE" style="stroke:#000000;stroke-width:2.0;"/><text fill="#000000" font-family="sans-serif" font-size="13" font-weight="bold" lengthAdjust="spacing" textLength="21" x="815.5" y="444.9575">ref</text><text fill="#000000" font-family="sans-serif" font-size="12" lengthAdjust="spacing" textLength="413" x="806.5" y="463.0293">Get Data Required to Display Selected Entry Management options</text><polygon fill="#181818" points="698.5,492.125,688.5,496.125,698.5,500.125,694.5,496.125" style="stroke:#181818;stroke-width:1.0;"/><line style="stroke:#181818;stroke-width:1.0;stroke-dasharray:2.0,2.0;" x1="692.5" x2="904.5" y1="496.125" y2="496.125"/><text fill="#000000" font-family="sans-serif" font-size="13" font-weight="bold" lengthAdjust="spacing" textLength="9" x="704.5" y="491.0591">9</text><text fill="#000000" font-family="sans-serif" font-size="13" lengthAdjust="spacing" textLength="176" x="717.5" y="491.0591">teamListDto, vehicleListDto</text><polygon fill="#181818" points="40,521.2578,30,525.2578,40,529.2578,36,525.2578" style="stroke:#181818;stroke-width:1.0;"/><line style="stroke:#181818;stroke-width:1.0;" x1="34" x2="681.5" y1="525.2578" y2="525.2578"/><text fill="#000000" font-family="sans-serif" font-size="13" font-weight="bold" lengthAdjust="spacing" textLength="18" x="46" y="520.1919">10</text><text fill="#000000" font-family="sans-serif" font-size="13" lengthAdjust="spacing" textLength="308" x="68" y="520.1919">Displays Entry Details and Management Options</text><!--SRC=[dLZ1Rjiu4BtpAuXSQWVj5iZHs0sGNHT5WAPTn4bEkR0IRREHHLMa4-JlTuQKn255oSdw48lal1dEwF5n7FEawaQqui0FkjR5ljK7oMrxbCmCAuqediHERknh9Nah2olgNKKDp5wK-aNLExuLbP6CYQFLzV7mKxRmN5ZTyhElcvipBWo7RyO0PbMX6b5RVhQwsicw5FVNRlt-Eh_yZwvjgwjAjiui35Fp1oLVrj8ALPalOFCw-BquOPX6kBlzTi4O-_o1ny1RsMYZ82abZRDq4x5DIsmUwzK8ujOpE8aR6QnVLr_YiSCESsdcRk56D4sN0HbdednJngug-FEdixiC45o90SAzWc5nRJL1mYW1mqoCrpz_8QOt3zPe6PjQAGwa07VHq07xgJHzd2VPX-4uGCWThIu7-t7clVMGCfeD6T-5rMp2dV5WEqxtMUvLKKcIyKCwuz1aTaHulqHIZsQoyK81EjjB2XoNWS26IdJ6Gp4U8fjiFGA48j2QV_YCIg6UXPLU8nY3B_xf4axkYb-P9yEjvZjfkTrBNlfpoqLTyeEeWPy78FLZpNLZbQuDrrikk6baeRQgu8xmNDSEwyaSeg7YC7P_ZR621gmmrjM8zujb058DQkMMwsVPqicli5c4uMQy9qTwq0060z20BOWB2m3SW7ljBlPrRK1e2qaZUiLWxej_IlPBDOULCWN5SO80kM29pj2OHAfOU1v5JvIBRe1wY7SnX2NLfh69r0sFwMjAj8a69l1SO7y- -0g8jRxxiKWSfTleJXEZqDvJHuxpSt1Mj18ma0Mhj6xu5Yu_sD6Umn60gvEhceWiXy-KFt054FuNLWQyeMcyeS53cl6iQpzqlc77u1wI1rh3C1UZJthAMv8qUFa3jhknSFRNhWeVUPYpHmCJZtKtG_I2sA5CNXcZThKioVIjtCfMkkEmp2RTxNIkefWlyAKi5pxvgQ8wFPgeAwu1JHZB5Zqb1o7TYAZeAPy4Qc74LoU29prGEUha31HqnJTx_M9w0KB1LDOCGaJmJWU9vcva1OH5ZVMRYnNJ1u2kQWNjdtxnRF2gl90TDPQ9U_ACdLMjKHpKRkyK4jQnw0iuYZX4fVOxaAMFltIgYI2CVk7gYptQ-JazT7J5gGhmK7oNiaGw4UtstLsGRJT6nKPxqCpVHzL2PA3CMfcc4g_9RlZDSEtqbqwawkZl_mYwt_SfBU-z9p8UTqjlLN4VCcwy9lLx8lAeQtbVy54RT39-d-gGjzUH43IqYVrJccrwNGH472Qv9tfe4gkNIeBeyE-x7OO-54z3tjdSrH31a-HctBxvMg2fvbtbxmHS-IuEEVqcBgTpFY7Uj1EVo3mdtKDLajVctt-WIIArj0Y1A-GCq3EH4ZDgvSaWSnvIXaRGJEY4gSJBE7w__nWQVBsFjVIN0zP_pkiSVLC_u-HFXdWpbPD2pFdCS_hl5gvJqgJSw59MPFnlvQgsdCY4SFx4IvXZVlApQxfeEVxJcewPq9-2-DSVcym4Fj2wTAJikmDoX3xEUEekvExwTerBT_5s_ohWQ_ARZro-FxhBDseriBtu3m00]--></g></svg>