<?xml version="1.0" encoding="us-ascii" standalone="no"?><svg xmlns="http://www.w3.org/2000/svg" xmlns:xlink="http://www.w3.org/1999/xlink" contentStyleType="text/css" height="1157px" preserveAspectRatio="none" style="width:2426px;height:1157px;background:#FFFFFF;" version="1.1" viewBox="0 0 2426 1157" width="2426px" zoomAndPan="magnify"><defs/><g><rect fill="#FFFFFF" height="976.5078" style="stroke:#181818;stroke-width:1.0;" width="10" x="34" y="91.2969"/><rect fill="#FFFFFF" height="694.1484" style="stroke:#181818;stroke-width:1.0;" width="10" x="340" y="151.6953"/><rect fill="#FFFFFF" height="29.1328" style="stroke:#181818;stroke-width:1.0;" width="10" x="340" y="874.9766"/><rect fill="#FFFFFF" height="147.6953" style="stroke:#181818;stroke-width:1.0;" width="10" x="566" y="904.1094"/><rect fill="#FFFFFF" height="594.5859" style="stroke:#181818;stroke-width:1.0;" width="10" x="795.5" y="222.125"/><rect fill="#FFFFFF" height="29.1328" style="stroke:#181818;stroke-width:1.0;" width="10" x="1186" y="251.2578"/><rect fill="#FFFFFF" height="29.1328" style="stroke:#181818;stroke-width:1.0;" width="10" x="1299.5" y="309.5234"/><rect fill="#FFFFFF" height="87.3984" style="stroke:#181818;stroke-width:1.0;" width="10" x="1481" y="367.7891"/><rect fill="#FFFFFF" height="29.1328" style="stroke:#181818;stroke-width:1.0;" width="10" x="1657" y="396.9219"/><rect fill="#FFFFFF" height="303.2578" style="stroke:#181818;stroke-width:1.0;" width="10" x="1767.5" y="484.3203"/><rect fill="#FFFFFF" height="34.1328" style="stroke:#181818;stroke-width:1.0;" width="10" x="1772.5" y="646.0156"/><rect fill="#FFFFFF" height="30" style="stroke:#181818;stroke-width:1.0;" width="10" x="1967.5" y="578.8828"/><rect fill="#FFFFFF" height="30" style="stroke:#181818;stroke-width:1.0;" width="10" x="2157.5" y="721.4453"/><rect fill="none" height="961.5078" style="stroke:#000000;stroke-width:1.5;" width="2410" x="10" y="98.2969"/><rect fill="none" height="218.8281" style="stroke:#000000;stroke-width:1.5;" width="700.5" x="1709.5" y="540.6172"/><line style="stroke:#181818;stroke-width:0.5;stroke-dasharray:5.0,5.0;" x1="39" x2="39" y1="81.2969" y2="1076.8047"/><line style="stroke:#181818;stroke-width:0.5;stroke-dasharray:5.0,5.0;" x1="345" x2="345" y1="81.2969" y2="1076.8047"/><line style="stroke:#181818;stroke-width:0.5;stroke-dasharray:5.0,5.0;" x1="570.5" x2="570.5" y1="81.2969" y2="1076.8047"/><line style="stroke:#181818;stroke-width:0.5;stroke-dasharray:5.0,5.0;" x1="800.5" x2="800.5" y1="190.3438" y2="1076.8047"/><line style="stroke:#181818;stroke-width:0.5;stroke-dasharray:5.0,5.0;" x1="1030.5" x2="1030.5" y1="977.8906" y2="1076.8047"/><line style="stroke:#181818;stroke-width:0.5;stroke-dasharray:5.0,5.0;" x1="1190.5" x2="1190.5" y1="81.2969" y2="1076.8047"/><line style="stroke:#181818;stroke-width:0.5;stroke-dasharray:5.0,5.0;" x1="1304.5" x2="1304.5" y1="81.2969" y2="1076.8047"/><line style="stroke:#181818;stroke-width:0.5;stroke-dasharray:5.0,5.0;" x1="1485.5" x2="1485.5" y1="81.2969" y2="1076.8047"/><line style="stroke:#181818;stroke-width:0.5;stroke-dasharray:5.0,5.0;" x1="1661.5" x2="1661.5" y1="81.2969" y2="1076.8047"/><line style="stroke:#181818;stroke-width:0.5;stroke-dasharray:5.0,5.0;" x1="1772.5" x2="1772.5" y1="81.2969" y2="1076.8047"/><line style="stroke:#181818;stroke-width:0.5;stroke-dasharray:5.0,5.0;" x1="1972" x2="1972" y1="81.2969" y2="1076.8047"/><line style="stroke:#181818;stroke-width:0.5;stroke-dasharray:5.0,5.0;" x1="2162" x2="2162" y1="522.9688" y2="1076.8047"/><line style="stroke:#181818;stroke-width:0.5;stroke-dasharray:5.0,5.0;" x1="2337" x2="2337" y1="689.6641" y2="1076.8047"/><text fill="#000000" font-family="sans-serif" font-size="14" lengthAdjust="spacing" textLength="32" x="20" y="77.9951">GSM</text><ellipse cx="39" cy="13.5" fill="#E3E3E3" rx="8" ry="8" style="stroke:#181818;stroke-width:0.5;"/><path d="M39,21.5 L39,48.5 M26,29.5 L52,29.5 M39,48.5 L26,63.5 M39,48.5 L52,63.5 " fill="none" style="stroke:#181818;stroke-width:0.5;"/><text fill="#000000" font-family="sans-serif" font-size="14" lengthAdjust="spacing" textLength="32" x="20" y="1088.7998">GSM</text><ellipse cx="39" cy="1100.6016" fill="#E3E3E3" rx="8" ry="8" style="stroke:#181818;stroke-width:0.5;"/><path d="M39,1108.6016 L39,1135.6016 M26,1116.6016 L52,1116.6016 M39,1135.6016 L26,1150.6016 M39,1135.6016 L52,1150.6016 " fill="none" style="stroke:#181818;stroke-width:0.5;"/><rect fill="#E3E3E3" height="30.2969" rx="2.5" ry="2.5" style="stroke:#181818;stroke-width:0.5;" width="140" x="275" y="50"/><text fill="#000000" font-family="sans-serif" font-size="14" lengthAdjust="spacing" textLength="126" x="282" y="69.9951">:ManageAgendaUI</text><rect fill="#E3E3E3" height="30.2969" rx="2.5" ry="2.5" style="stroke:#181818;stroke-width:0.5;" width="140" x="275" y="1075.8047"/><text fill="#000000" font-family="sans-serif" font-size="14" lengthAdjust="spacing" textLength="126" x="282" y="1095.7998">:ManageAgendaUI</text><rect fill="#E3E3E3" height="30.2969" rx="2.5" ry="2.5" style="stroke:#181818;stroke-width:0.5;" width="199" x="471.5" y="50"/><text fill="#000000" font-family="sans-serif" font-size="14" lengthAdjust="spacing" textLength="185" x="478.5" y="69.9951">:ViewDetailsEntryAgendaUI</text><rect fill="#E3E3E3" height="30.2969" rx="2.5" ry="2.5" style="stroke:#181818;stroke-width:0.5;" width="199" x="471.5" y="1075.8047"/><text fill="#000000" font-family="sans-serif" font-size="14" lengthAdjust="spacing" textLength="185" x="478.5" y="1095.7998">:ViewDetailsEntryAgendaUI</text><rect fill="#E3E3E3" height="30.2969" rx="2.5" ry="2.5" style="stroke:#181818;stroke-width:0.5;" width="240" x="680.5" y="1075.8047"/><text fill="#000000" font-family="sans-serif" font-size="14" lengthAdjust="spacing" textLength="226" x="687.5" y="1095.7998">:AssignEntryOnAgendaController</text><rect fill="#E3E3E3" height="30.2969" rx="2.5" ry="2.5" style="stroke:#181818;stroke-width:0.5;" width="200" x="930.5" y="1075.8047"/><text fill="#000000" font-family="sans-serif" font-size="14" lengthAdjust="spacing" textLength="186" x="937.5" y="1095.7998">:ViewDetailsEntryController</text><rect fill="#E3E3E3" height="30.2969" rx="2.5" ry="2.5" style="stroke:#181818;stroke-width:0.5;" width="101" x="1140.5" y="50"/><text fill="#000000" font-family="sans-serif" font-size="14" lengthAdjust="spacing" textLength="87" x="1147.5" y="69.9951">Repositories</text><rect fill="#E3E3E3" height="30.2969" rx="2.5" ry="2.5" style="stroke:#181818;stroke-width:0.5;" width="101" x="1140.5" y="1075.8047"/><text fill="#000000" font-family="sans-serif" font-size="14" lengthAdjust="spacing" textLength="87" x="1147.5" y="1095.7998">Repositories</text><rect fill="#E3E3E3" height="46.5938" rx="2.5" ry="2.5" style="stroke:#181818;stroke-width:0.5;" width="106" x="1251.5" y="33.7031"/><text fill="#000000" font-family="sans-serif" font-size="14" lengthAdjust="spacing" textLength="82" x="1263.5" y="53.6982">repositories</text><text fill="#000000" font-family="sans-serif" font-size="14" lengthAdjust="spacing" textLength="92" x="1258.5" y="69.9951">:Repositories</text><rect fill="#E3E3E3" height="46.5938" rx="2.5" ry="2.5" style="stroke:#181818;stroke-width:0.5;" width="106" x="1251.5" y="1075.8047"/><text fill="#000000" font-family="sans-serif" font-size="14" lengthAdjust="spacing" textLength="82" x="1263.5" y="1095.7998">repositories</text><text fill="#000000" font-family="sans-serif" font-size="14" lengthAdjust="spacing" textLength="92" x="1258.5" y="1112.0967">:Repositories</text><rect fill="#E3E3E3" height="30.2969" rx="2.5" ry="2.5" style="stroke:#181818;stroke-width:0.5;" width="237" x="1367.5" y="50"/><text fill="#000000" font-family="sans-serif" font-size="14" lengthAdjust="spacing" textLength="223" x="1374.5" y="69.9951">entryRepository:EntryRepository</text><rect fill="#E3E3E3" height="30.2969" rx="2.5" ry="2.5" style="stroke:#181818;stroke-width:0.5;" width="237" x="1367.5" y="1075.8047"/><text fill="#000000" font-family="sans-serif" font-size="14" lengthAdjust="spacing" textLength="223" x="1374.5" y="1095.7998">entryRepository:EntryRepository</text><rect fill="#E3E3E3" height="30.2969" rx="2.5" ry="2.5" style="stroke:#181818;stroke-width:0.5;" width="95" x="1614.5" y="50"/><text fill="#000000" font-family="sans-serif" font-size="14" lengthAdjust="spacing" textLength="81" x="1621.5" y="69.9951">:AgendaList</text><rect fill="#E3E3E3" height="30.2969" rx="2.5" ry="2.5" style="stroke:#181818;stroke-width:0.5;" width="95" x="1614.5" y="1075.8047"/><text fill="#000000" font-family="sans-serif" font-size="14" lengthAdjust="spacing" textLength="81" x="1621.5" y="1095.7998">:AgendaList</text><rect fill="#E3E3E3" height="30.2969" rx="2.5" ry="2.5" style="stroke:#181818;stroke-width:0.5;" width="106" x="1719.5" y="50"/><text fill="#000000" font-family="sans-serif" font-size="14" lengthAdjust="spacing" textLength="92" x="1726.5" y="69.9951">:EntryMapper</text><rect fill="#E3E3E3" height="30.2969" rx="2.5" ry="2.5" style="stroke:#181818;stroke-width:0.5;" width="106" x="1719.5" y="1075.8047"/><text fill="#000000" font-family="sans-serif" font-size="14" lengthAdjust="spacing" textLength="92" x="1726.5" y="1095.7998">:EntryMapper</text><rect fill="#E3E3E3" height="30.2969" rx="2.5" ry="2.5" style="stroke:#181818;stroke-width:0.5;" width="155" x="1895" y="50"/><text fill="#000000" font-family="sans-serif" font-size="14" lengthAdjust="spacing" textLength="141" x="1902" y="69.9951">entryList:list&lt;Entry&gt;</text><rect fill="#E3E3E3" height="30.2969" rx="2.5" ry="2.5" style="stroke:#181818;stroke-width:0.5;" width="155" x="1895" y="1075.8047"/><text fill="#000000" font-family="sans-serif" font-size="14" lengthAdjust="spacing" textLength="141" x="1902" y="1095.7998">entryList:list&lt;Entry&gt;</text><rect fill="#E3E3E3" height="30.2969" rx="2.5" ry="2.5" style="stroke:#181818;stroke-width:0.5;" width="205" x="2060" y="1075.8047"/><text fill="#000000" font-family="sans-serif" font-size="14" lengthAdjust="spacing" textLength="191" x="2067" y="1095.7998">entryListDto:list&lt;EntryDto&gt;</text><rect fill="#E3E3E3" height="30.2969" rx="2.5" ry="2.5" style="stroke:#181818;stroke-width:0.5;" width="125" x="2275" y="1075.8047"/><text fill="#000000" font-family="sans-serif" font-size="14" lengthAdjust="spacing" textLength="111" x="2282" y="1095.7998">objDto:EntryDto</text><rect fill="#FFFFFF" height="976.5078" style="stroke:#181818;stroke-width:1.0;" width="10" x="34" y="91.2969"/><rect fill="#FFFFFF" height="694.1484" style="stroke:#181818;stroke-width:1.0;" width="10" x="340" y="151.6953"/><rect fill="#FFFFFF" height="29.1328" style="stroke:#181818;stroke-width:1.0;" width="10" x="340" y="874.9766"/><rect fill="#FFFFFF" height="147.6953" style="stroke:#181818;stroke-width:1.0;" width="10" x="566" y="904.1094"/><rect fill="#FFFFFF" height="594.5859" style="stroke:#181818;stroke-width:1.0;" width="10" x="795.5" y="222.125"/><rect fill="#FFFFFF" height="29.1328" style="stroke:#181818;stroke-width:1.0;" width="10" x="1186" y="251.2578"/><rect fill="#FFFFFF" height="29.1328" style="stroke:#181818;stroke-width:1.0;" width="10" x="1299.5" y="309.5234"/><rect fill="#FFFFFF" height="87.3984" style="stroke:#181818;stroke-width:1.0;" width="10" x="1481" y="367.7891"/><rect fill="#FFFFFF" height="29.1328" style="stroke:#181818;stroke-width:1.0;" width="10" x="1657" y="396.9219"/><rect fill="#FFFFFF" height="303.2578" style="stroke:#181818;stroke-width:1.0;" width="10" x="1767.5" y="484.3203"/><rect fill="#FFFFFF" height="34.1328" style="stroke:#181818;stroke-width:1.0;" width="10" x="1772.5" y="646.0156"/><rect fill="#FFFFFF" height="30" style="stroke:#181818;stroke-width:1.0;" width="10" x="1967.5" y="578.8828"/><rect fill="#FFFFFF" height="30" style="stroke:#181818;stroke-width:1.0;" width="10" x="2157.5" y="721.4453"/><path d="M10,98.2969 L619,98.2969 L619,105.4297 L609,115.4297 L10,115.4297 L10,98.2969 " fill="#EEEEEE" style="stroke:#000000;stroke-width:1.5;"/><rect fill="none" height="961.5078" style="stroke:#000000;stroke-width:1.5;" width="2410" x="10" y="98.2969"/><text fill="#000000" font-family="sans-serif" font-size="13" font-weight="bold" lengthAdjust="spacing" textLength="564" x="25" y="111.3638">Get the details and management options of a selected entry on the agenda</text><polygon fill="#181818" points="328,147.6953,338,151.6953,328,155.6953,332,151.6953" style="stroke:#181818;stroke-width:1.0;"/><line style="stroke:#181818;stroke-width:1.0;" x1="44" x2="334" y1="151.6953" y2="151.6953"/><text fill="#000000" font-family="sans-serif" font-size="13" font-weight="bold" lengthAdjust="spacing" textLength="9" x="51" y="139.063">1</text><text fill="#000000" font-family="sans-serif" font-size="13" lengthAdjust="spacing" textLength="262" x="64" y="131.4966">Asks to get the details and management</text><text fill="#000000" font-family="sans-serif" font-size="13" lengthAdjust="spacing" textLength="260" x="68" y="146.6294">options of a specific entry on the agenda</text><polygon fill="#181818" points="668.5,176.8281,678.5,180.8281,668.5,184.8281,672.5,180.8281" style="stroke:#181818;stroke-width:1.0;"/><line style="stroke:#181818;stroke-width:1.0;" x1="350" x2="674.5" y1="180.8281" y2="180.8281"/><text fill="#000000" font-family="sans-serif" font-size="13" font-weight="bold" lengthAdjust="spacing" textLength="9" x="357" y="175.7622">2</text><text fill="#000000" font-family="sans-serif" font-size="13" lengthAdjust="spacing" textLength="51" x="370" y="175.7622">create()</text><rect fill="#E3E3E3" height="30.2969" rx="2.5" ry="2.5" style="stroke:#181818;stroke-width:0.5;" width="240" x="680.5" y="159.6953"/><text fill="#000000" font-family="sans-serif" font-size="14" lengthAdjust="spacing" textLength="226" x="687.5" y="179.6904">:AssignEntryOnAgendaController</text><polygon fill="#181818" points="783.5,218.125,793.5,222.125,783.5,226.125,787.5,222.125" style="stroke:#181818;stroke-width:1.0;"/><line style="stroke:#181818;stroke-width:1.0;" x1="350" x2="789.5" y1="222.125" y2="222.125"/><text fill="#000000" font-family="sans-serif" font-size="13" font-weight="bold" lengthAdjust="spacing" textLength="9" x="357" y="217.0591">3</text><text fill="#000000" font-family="sans-serif" font-size="13" lengthAdjust="spacing" textLength="80" x="370" y="217.0591">getAgenda()</text><polygon fill="#181818" points="1174,247.2578,1184,251.2578,1174,255.2578,1178,251.2578" style="stroke:#181818;stroke-width:1.0;"/><line style="stroke:#181818;stroke-width:1.0;" x1="805.5" x2="1180" y1="251.2578" y2="251.2578"/><text fill="#000000" font-family="sans-serif" font-size="13" font-weight="bold" lengthAdjust="spacing" textLength="9" x="812.5" y="246.1919">4</text><text fill="#000000" font-family="sans-serif" font-size="13" lengthAdjust="spacing" textLength="85" x="825.5" y="246.1919">getInstance()</text><polygon fill="#181818" points="816.5,276.3906,806.5,280.3906,816.5,284.3906,812.5,280.3906" style="stroke:#181818;stroke-width:1.0;"/><line style="stroke:#181818;stroke-width:1.0;stroke-dasharray:2.0,2.0;" x1="810.5" x2="1190" y1="280.3906" y2="280.3906"/><text fill="#000000" font-family="sans-serif" font-size="13" font-weight="bold" lengthAdjust="spacing" textLength="9" x="822.5" y="275.3247">5</text><text fill="#000000" font-family="sans-serif" font-size="13" lengthAdjust="spacing" textLength="75" x="835.5" y="275.3247">repositories</text><polygon fill="#181818" points="1287.5,305.5234,1297.5,309.5234,1287.5,313.5234,1291.5,309.5234" style="stroke:#181818;stroke-width:1.0;"/><line style="stroke:#181818;stroke-width:1.0;" x1="805.5" x2="1293.5" y1="309.5234" y2="309.5234"/><text fill="#000000" font-family="sans-serif" font-size="13" font-weight="bold" lengthAdjust="spacing" textLength="9" x="812.5" y="304.4575">6</text><text fill="#000000" font-family="sans-serif" font-size="13" lengthAdjust="spacing" textLength="131" x="825.5" y="304.4575">getEntryRepository()</text><polygon fill="#181818" points="816.5,334.6563,806.5,338.6563,816.5,342.6563,812.5,338.6563" style="stroke:#181818;stroke-width:1.0;"/><line style="stroke:#181818;stroke-width:1.0;stroke-dasharray:2.0,2.0;" x1="810.5" x2="1303.5" y1="338.6563" y2="338.6563"/><text fill="#000000" font-family="sans-serif" font-size="13" font-weight="bold" lengthAdjust="spacing" textLength="9" x="822.5" y="333.5903">7</text><text fill="#000000" font-family="sans-serif" font-size="13" lengthAdjust="spacing" textLength="100" x="835.5" y="333.5903">entryRepository</text><polygon fill="#181818" points="1469,363.7891,1479,367.7891,1469,371.7891,1473,367.7891" style="stroke:#181818;stroke-width:1.0;"/><line style="stroke:#181818;stroke-width:1.0;" x1="805.5" x2="1475" y1="367.7891" y2="367.7891"/><text fill="#000000" font-family="sans-serif" font-size="13" font-weight="bold" lengthAdjust="spacing" textLength="9" x="812.5" y="362.7231">8</text><text fill="#000000" font-family="sans-serif" font-size="13" lengthAdjust="spacing" textLength="80" x="825.5" y="362.7231">getAgenda()</text><polygon fill="#181818" points="1645,392.9219,1655,396.9219,1645,400.9219,1649,396.9219" style="stroke:#181818;stroke-width:1.0;"/><line style="stroke:#181818;stroke-width:1.0;" x1="1491" x2="1651" y1="396.9219" y2="396.9219"/><text fill="#000000" font-family="sans-serif" font-size="13" font-weight="bold" lengthAdjust="spacing" textLength="9" x="1498" y="391.856">9</text><text fill="#000000" font-family="sans-serif" font-size="13" lengthAdjust="spacing" textLength="53" x="1511" y="391.856">getList()</text><polygon fill="#181818" points="1502,422.0547,1492,426.0547,1502,430.0547,1498,426.0547" style="stroke:#181818;stroke-width:1.0;"/><line style="stroke:#181818;stroke-width:1.0;" x1="1496" x2="1661" y1="426.0547" y2="426.0547"/><text fill="#000000" font-family="sans-serif" font-size="13" font-weight="bold" lengthAdjust="spacing" textLength="18" x="1508" y="420.9888">10</text><text fill="#000000" font-family="sans-serif" font-size="13" lengthAdjust="spacing" textLength="55" x="1530" y="420.9888">entryList</text><polygon fill="#181818" points="816.5,451.1875,806.5,455.1875,816.5,459.1875,812.5,455.1875" style="stroke:#181818;stroke-width:1.0;"/><line style="stroke:#181818;stroke-width:1.0;" x1="810.5" x2="1485" y1="455.1875" y2="455.1875"/><text fill="#000000" font-family="sans-serif" font-size="13" font-weight="bold" lengthAdjust="spacing" textLength="18" x="822.5" y="450.1216">11</text><text fill="#000000" font-family="sans-serif" font-size="13" lengthAdjust="spacing" textLength="55" x="844.5" y="450.1216">entryList</text><polygon fill="#181818" points="1755.5,480.3203,1765.5,484.3203,1755.5,488.3203,1759.5,484.3203" style="stroke:#181818;stroke-width:1.0;"/><line style="stroke:#181818;stroke-width:1.0;" x1="805.5" x2="1761.5" y1="484.3203" y2="484.3203"/><text fill="#000000" font-family="sans-serif" font-size="13" font-weight="bold" lengthAdjust="spacing" textLength="18" x="812.5" y="479.2544">12</text><text fill="#000000" font-family="sans-serif" font-size="13" lengthAdjust="spacing" textLength="213" x="834.5" y="479.2544">entryListToEntryDtoList(entryList)</text><polygon fill="#181818" points="2048,509.4531,2058,513.4531,2048,517.4531,2052,513.4531" style="stroke:#181818;stroke-width:1.0;"/><line style="stroke:#181818;stroke-width:1.0;" x1="1777.5" x2="2054" y1="513.4531" y2="513.4531"/><text fill="#000000" font-family="sans-serif" font-size="13" font-weight="bold" lengthAdjust="spacing" textLength="18" x="1784.5" y="508.3872">13</text><text fill="#000000" font-family="sans-serif" font-size="13" lengthAdjust="spacing" textLength="51" x="1806.5" y="508.3872">create()</text><rect fill="#E3E3E3" height="30.2969" rx="2.5" ry="2.5" style="stroke:#181818;stroke-width:0.5;" width="205" x="2060" y="492.3203"/><text fill="#000000" font-family="sans-serif" font-size="14" lengthAdjust="spacing" textLength="191" x="2067" y="512.3154">entryListDto:list&lt;EntryDto&gt;</text><path d="M1709.5,540.6172 L1786.5,540.6172 L1786.5,547.75 L1776.5,557.75 L1709.5,557.75 L1709.5,540.6172 " fill="#EEEEEE" style="stroke:#000000;stroke-width:1.5;"/><rect fill="none" height="218.8281" style="stroke:#000000;stroke-width:1.5;" width="700.5" x="1709.5" y="540.6172"/><text fill="#000000" font-family="sans-serif" font-size="13" font-weight="bold" lengthAdjust="spacing" textLength="32" x="1724.5" y="553.6841">loop</text><text fill="#000000" font-family="sans-serif" font-size="11" font-weight="bold" lengthAdjust="spacing" textLength="176" x="1801.5" y="552.8276">[for each entry in EntryList]</text><polygon fill="#181818" points="1955.5,574.8828,1965.5,578.8828,1955.5,582.8828,1959.5,578.8828" style="stroke:#181818;stroke-width:1.0;"/><line style="stroke:#181818;stroke-width:1.0;" x1="1777.5" x2="1961.5" y1="578.8828" y2="578.8828"/><text fill="#000000" font-family="sans-serif" font-size="13" font-weight="bold" lengthAdjust="spacing" textLength="18" x="1784.5" y="573.8169">14</text><text fill="#000000" font-family="sans-serif" font-size="13" lengthAdjust="spacing" textLength="83" x="1806.5" y="573.8169">entry = get()</text><line style="stroke:#181818;stroke-width:1.0;" x1="1777.5" x2="1824.5" y1="633.0156" y2="633.0156"/><line style="stroke:#181818;stroke-width:1.0;" x1="1824.5" x2="1824.5" y1="633.0156" y2="646.0156"/><line style="stroke:#181818;stroke-width:1.0;" x1="1783.5" x2="1824.5" y1="646.0156" y2="646.0156"/><polygon fill="#181818" points="1793.5,642.0156,1783.5,646.0156,1793.5,650.0156,1789.5,646.0156" style="stroke:#181818;stroke-width:1.0;"/><text fill="#000000" font-family="sans-serif" font-size="13" font-weight="bold" lengthAdjust="spacing" textLength="18" x="1789.5" y="627.9497">15</text><text fill="#000000" font-family="sans-serif" font-size="13" lengthAdjust="spacing" textLength="154" x="1811.5" y="627.9497">entryDto = toDto(entry)</text><polygon fill="#181818" points="2263,676.1484,2273,680.1484,2263,684.1484,2267,680.1484" style="stroke:#181818;stroke-width:1.0;"/><line style="stroke:#181818;stroke-width:1.0;" x1="1777.5" x2="2269" y1="680.1484" y2="680.1484"/><text fill="#000000" font-family="sans-serif" font-size="13" font-weight="bold" lengthAdjust="spacing" textLength="18" x="1784.5" y="675.0825">16</text><text fill="#000000" font-family="sans-serif" font-size="13" lengthAdjust="spacing" textLength="155" x="1806.5" y="675.0825">create(entry All Getters)</text><rect fill="#E3E3E3" height="30.2969" rx="2.5" ry="2.5" style="stroke:#181818;stroke-width:0.5;" width="125" x="2275" y="659.0156"/><text fill="#000000" font-family="sans-serif" font-size="14" lengthAdjust="spacing" textLength="111" x="2282" y="679.0107">objDto:EntryDto</text><polygon fill="#181818" points="2145.5,717.4453,2155.5,721.4453,2145.5,725.4453,2149.5,721.4453" style="stroke:#181818;stroke-width:1.0;"/><line style="stroke:#181818;stroke-width:1.0;" x1="1777.5" x2="2151.5" y1="721.4453" y2="721.4453"/><text fill="#000000" font-family="sans-serif" font-size="13" font-weight="bold" lengthAdjust="spacing" textLength="18" x="1784.5" y="716.3794">17</text><text fill="#000000" font-family="sans-serif" font-size="13" lengthAdjust="spacing" textLength="90" x="1806.5" y="716.3794">add(entryDto)</text><polygon fill="#181818" points="816.5,783.5781,806.5,787.5781,816.5,791.5781,812.5,787.5781" style="stroke:#181818;stroke-width:1.0;"/><line style="stroke:#181818;stroke-width:1.0;" x1="810.5" x2="1771.5" y1="787.5781" y2="787.5781"/><text fill="#000000" font-family="sans-serif" font-size="13" font-weight="bold" lengthAdjust="spacing" textLength="18" x="822.5" y="782.5122">18</text><text fill="#000000" font-family="sans-serif" font-size="13" lengthAdjust="spacing" textLength="78" x="844.5" y="782.5122">entryListDto</text><polygon fill="#181818" points="361,812.7109,351,816.7109,361,820.7109,357,816.7109" style="stroke:#181818;stroke-width:1.0;"/><line style="stroke:#181818;stroke-width:1.0;" x1="355" x2="799.5" y1="816.7109" y2="816.7109"/><text fill="#000000" font-family="sans-serif" font-size="13" font-weight="bold" lengthAdjust="spacing" textLength="18" x="367" y="811.645">19</text><text fill="#000000" font-family="sans-serif" font-size="13" lengthAdjust="spacing" textLength="78" x="389" y="811.645">entryListDto</text><polygon fill="#181818" points="55,841.8438,45,845.8438,55,849.8438,51,845.8438" style="stroke:#181818;stroke-width:1.0;"/><line style="stroke:#181818;stroke-width:1.0;" x1="49" x2="344" y1="845.8438" y2="845.8438"/><text fill="#000000" font-family="sans-serif" font-size="13" font-weight="bold" lengthAdjust="spacing" textLength="18" x="61" y="840.7778">20</text><text fill="#000000" font-family="sans-serif" font-size="13" lengthAdjust="spacing" textLength="142" x="83" y="840.7778">Shows Agenda Entries</text><polygon fill="#181818" points="328,870.9766,338,874.9766,328,878.9766,332,874.9766" style="stroke:#181818;stroke-width:1.0;"/><line style="stroke:#181818;stroke-width:1.0;" x1="44" x2="334" y1="874.9766" y2="874.9766"/><text fill="#000000" font-family="sans-serif" font-size="13" font-weight="bold" lengthAdjust="spacing" textLength="18" x="51" y="869.9106">21</text><text fill="#000000" font-family="sans-serif" font-size="13" lengthAdjust="spacing" textLength="104" x="73" y="869.9106">Selects an Entry</text><polygon fill="#181818" points="554,900.1094,564,904.1094,554,908.1094,558,904.1094" style="stroke:#181818;stroke-width:1.0;"/><line style="stroke:#181818;stroke-width:1.0;" x1="345" x2="560" y1="904.1094" y2="904.1094"/><text fill="#000000" font-family="sans-serif" font-size="13" font-weight="bold" lengthAdjust="spacing" textLength="18" x="352" y="899.0435">22</text><text fill="#000000" font-family="sans-serif" font-size="13" lengthAdjust="spacing" textLength="175" x="374" y="899.0435">showEntryDetails(entryDto)</text><path d="M350,917.1094 L350,942.1094 L546,942.1094 L546,927.1094 L536,917.1094 L350,917.1094 " fill="#FAFAFA" style="stroke:#181818;stroke-width:0.5;"/><path d="M536,917.1094 L536,927.1094 L546,927.1094 L536,917.1094 " fill="#FAFAFA" style="stroke:#181818;stroke-width:0.5;"/><text fill="#000000" font-family="sans-serif" font-size="13" lengthAdjust="spacing" textLength="175" x="356" y="934.1763">(DTO of the Selected Entry)</text><polygon fill="#181818" points="918.5,964.375,928.5,968.375,918.5,972.375,922.5,968.375" style="stroke:#181818;stroke-width:1.0;"/><line style="stroke:#181818;stroke-width:1.0;" x1="576" x2="924.5" y1="968.375" y2="968.375"/><text fill="#000000" font-family="sans-serif" font-size="13" font-weight="bold" lengthAdjust="spacing" textLength="18" x="583" y="963.3091">23</text><text fill="#000000" font-family="sans-serif" font-size="13" lengthAdjust="spacing" textLength="51" x="605" y="963.3091">create()</text><rect fill="#E3E3E3" height="30.2969" rx="2.5" ry="2.5" style="stroke:#181818;stroke-width:0.5;" width="200" x="930.5" y="947.2422"/><text fill="#000000" font-family="sans-serif" font-size="14" lengthAdjust="spacing" textLength="186" x="937.5" y="967.2373">:ViewDetailsEntryController</text><line style="stroke:#181818;stroke-width:1.0;" x1="576" x2="618" y1="1009.6719" y2="1009.6719"/><line style="stroke:#181818;stroke-width:1.0;" x1="618" x2="618" y1="1009.6719" y2="1022.6719"/><line style="stroke:#181818;stroke-width:1.0;" x1="577" x2="618" y1="1022.6719" y2="1022.6719"/><polygon fill="#181818" points="587,1018.6719,577,1022.6719,587,1026.6719,583,1022.6719" style="stroke:#181818;stroke-width:1.0;"/><text fill="#000000" font-family="sans-serif" font-size="13" font-weight="bold" lengthAdjust="spacing" textLength="18" x="583" y="1004.606">24</text><text fill="#000000" font-family="sans-serif" font-size="13" lengthAdjust="spacing" textLength="71" x="605" y="1004.606">setLabels()</text><polygon fill="#181818" points="55,1047.8047,45,1051.8047,55,1055.8047,51,1051.8047" style="stroke:#181818;stroke-width:1.0;"/><line style="stroke:#181818;stroke-width:1.0;" x1="49" x2="570" y1="1051.8047" y2="1051.8047"/><text fill="#000000" font-family="sans-serif" font-size="13" font-weight="bold" lengthAdjust="spacing" textLength="18" x="61" y="1046.7388">25</text><text fill="#000000" font-family="sans-serif" font-size="13" lengthAdjust="spacing" textLength="306" x="83" y="1046.7388">Displays entry details and management options</text><!--SRC=[dLR1QkCm4BtxAuPUcWPA8KUpMmXDA86MGfFkgHVLLXnj7SbOoeRy_Ov6jYmhZWFr8RQaUJDl9ZFFrjz2LgncUzWhgR9ThVOSJ7tWYVOd5Sk-MS7NvbHog7bcc2pAq43lMAwEGXQmPQNcIS8EHid3_elN-9mPLSFDy_hr1fW6l2U8CY8J5PC6Rj9N9j7xlE0oPnyhClfOHJP_13ykk66Yr4jfwbDaFOlCvrgBGfBbctIsJmfNgYnvJPYdpVlBx4gG0KXYhnxgdLTA2qnHS4rcjD6tgGERJvcUGUXy0CSj2szzIfVzDM7zNbm2olf5Q4DctJ9vk8NpACvtv_7s8V97kw-igffg1Eku9EJGXbeObPPu_qN6k7hieCtv1MG0Yp1zWFhwQuEq_ZjJwpgYnQW4on-Jkn8B-rpyOuPJXoT9KQj31S_SWDbno5rR0PCvxAdVzvWhgCe89JMeBJ3GlCJPuZbG5K19GZhMw13mGjTm_uWDdy9SVsim2ehH29yoYb7nJ6n5DXZ3Hl1Pu0ZIniVAHgHncKvJo6gEfvExiyFKCd5TXgSzLsxMQ8z-Q6s1rCe4N4cDgfBn6Eg6WlRe4UwxUE5KaKNEXt0-MZTb538QfZXoC9DqqAr33j64nZHY9vwB3pvIjcwoQTylBRuRPt9W7s9uCF5qqAqZ0dxeOlQnXnw3i013u83zGEfEE0BuHhMZHBdu_Q6QUDNnfDoEzzwCxtGASSEMIbMmnVSH4jqrGo1ae2xGN9VSGiCPVjkwDpK_fzZp5LVbQg1UTJ0H36OKtbrPBiLiopBcEQgAIsLUbbQe3A_rtKNIZVThzR5iKs1vFcd9ZvN8AkTObTfpxCF1VpjkmjR-0lb-8reL7KC6ikLq3jKtXVLE7TlNAJaVK1-hdR5UhqdThJuxIcDgYnyqANvKgQFxpvooHmNjXukSpPhuKbaH4iNEMFblxEmrMMpUx9PL_tNxtbbstONP4RXbDMkhFJ1JpQaZZLh4lZYolUlqlZ6WyYs4hafsqiqKNNalGdAUA-P6xV0V]--></g></svg>