<?xml version="1.0" encoding="us-ascii" standalone="no"?><svg xmlns="http://www.w3.org/2000/svg" xmlns:xlink="http://www.w3.org/1999/xlink" contentStyleType="text/css" height="1115px" preserveAspectRatio="none" style="width:2385px;height:1115px;background:#FFFFFF;" version="1.1" viewBox="0 0 2385 1115" width="2385px" zoomAndPan="magnify"><defs/><g><rect fill="#FFFFFF" height="934.375" style="stroke:#181818;stroke-width:1.0;" width="10" x="34" y="91.2969"/><rect fill="#FFFFFF" height="694.1484" style="stroke:#181818;stroke-width:1.0;" width="10" x="340" y="151.6953"/><rect fill="#FFFFFF" height="29.1328" style="stroke:#181818;stroke-width:1.0;" width="10" x="340" y="874.9766"/><rect fill="#FFFFFF" height="105.5625" style="stroke:#181818;stroke-width:1.0;" width="10" x="519.5" y="904.1094"/><rect fill="#FFFFFF" height="594.5859" style="stroke:#181818;stroke-width:1.0;" width="10" x="749" y="222.125"/><rect fill="#FFFFFF" height="29.1328" style="stroke:#181818;stroke-width:1.0;" width="10" x="1139.5" y="251.2578"/><rect fill="#FFFFFF" height="29.1328" style="stroke:#181818;stroke-width:1.0;" width="10" x="1253" y="309.5234"/><rect fill="#FFFFFF" height="87.3984" style="stroke:#181818;stroke-width:1.0;" width="10" x="1434.5" y="367.7891"/><rect fill="#FFFFFF" height="29.1328" style="stroke:#181818;stroke-width:1.0;" width="10" x="1610.5" y="396.9219"/><rect fill="#FFFFFF" height="303.2578" style="stroke:#181818;stroke-width:1.0;" width="10" x="1721" y="484.3203"/><rect fill="#FFFFFF" height="34.1328" style="stroke:#181818;stroke-width:1.0;" width="10" x="1726" y="646.0156"/><rect fill="#FFFFFF" height="30" style="stroke:#181818;stroke-width:1.0;" width="10" x="1921" y="578.8828"/><rect fill="#FFFFFF" height="30" style="stroke:#181818;stroke-width:1.0;" width="10" x="2115" y="721.4453"/><rect fill="none" height="919.375" style="stroke:#000000;stroke-width:1.5;" width="2369.5" x="10" y="98.2969"/><rect fill="none" height="218.8281" style="stroke:#000000;stroke-width:1.5;" width="706.5" x="1663" y="540.6172"/><line style="stroke:#181818;stroke-width:0.5;stroke-dasharray:5.0,5.0;" x1="39" x2="39" y1="81.2969" y2="1034.6719"/><line style="stroke:#181818;stroke-width:0.5;stroke-dasharray:5.0,5.0;" x1="345" x2="345" y1="81.2969" y2="1034.6719"/><line style="stroke:#181818;stroke-width:0.5;stroke-dasharray:5.0,5.0;" x1="524" x2="524" y1="81.2969" y2="1034.6719"/><line style="stroke:#181818;stroke-width:0.5;stroke-dasharray:5.0,5.0;" x1="754" x2="754" y1="190.3438" y2="1034.6719"/><line style="stroke:#181818;stroke-width:0.5;stroke-dasharray:5.0,5.0;" x1="984" x2="984" y1="977.8906" y2="1034.6719"/><line style="stroke:#181818;stroke-width:0.5;stroke-dasharray:5.0,5.0;" x1="1144" x2="1144" y1="81.2969" y2="1034.6719"/><line style="stroke:#181818;stroke-width:0.5;stroke-dasharray:5.0,5.0;" x1="1258" x2="1258" y1="81.2969" y2="1034.6719"/><line style="stroke:#181818;stroke-width:0.5;stroke-dasharray:5.0,5.0;" x1="1439" x2="1439" y1="81.2969" y2="1034.6719"/><line style="stroke:#181818;stroke-width:0.5;stroke-dasharray:5.0,5.0;" x1="1615" x2="1615" y1="81.2969" y2="1034.6719"/><line style="stroke:#181818;stroke-width:0.5;stroke-dasharray:5.0,5.0;" x1="1726" x2="1726" y1="81.2969" y2="1034.6719"/><line style="stroke:#181818;stroke-width:0.5;stroke-dasharray:5.0,5.0;" x1="1925.5" x2="1925.5" y1="81.2969" y2="1034.6719"/><line style="stroke:#181818;stroke-width:0.5;stroke-dasharray:5.0,5.0;" x1="2119.5" x2="2119.5" y1="522.9688" y2="1034.6719"/><line style="stroke:#181818;stroke-width:0.5;stroke-dasharray:5.0,5.0;" x1="2296.5" x2="2296.5" y1="689.6641" y2="1034.6719"/><text fill="#000000" font-family="sans-serif" font-size="14" lengthAdjust="spacing" textLength="32" x="20" y="77.9951">GSM</text><ellipse cx="39" cy="13.5" fill="#E3E3E3" rx="8" ry="8" style="stroke:#181818;stroke-width:0.5;"/><path d="M39,21.5 L39,48.5 M26,29.5 L52,29.5 M39,48.5 L26,63.5 M39,48.5 L52,63.5 " fill="none" style="stroke:#181818;stroke-width:0.5;"/><text fill="#000000" font-family="sans-serif" font-size="14" lengthAdjust="spacing" textLength="32" x="20" y="1046.667">GSM</text><ellipse cx="39" cy="1058.4688" fill="#E3E3E3" rx="8" ry="8" style="stroke:#181818;stroke-width:0.5;"/><path d="M39,1066.4688 L39,1093.4688 M26,1074.4688 L52,1074.4688 M39,1093.4688 L26,1108.4688 M39,1093.4688 L52,1108.4688 " fill="none" style="stroke:#181818;stroke-width:0.5;"/><rect fill="#E3E3E3" height="30.2969" rx="2.5" ry="2.5" style="stroke:#181818;stroke-width:0.5;" width="140" x="275" y="50"/><text fill="#000000" font-family="sans-serif" font-size="14" lengthAdjust="spacing" textLength="126" x="282" y="69.9951">:ManageAgendaUI</text><rect fill="#E3E3E3" height="30.2969" rx="2.5" ry="2.5" style="stroke:#181818;stroke-width:0.5;" width="140" x="275" y="1033.6719"/><text fill="#000000" font-family="sans-serif" font-size="14" lengthAdjust="spacing" textLength="126" x="282" y="1053.667">:ManageAgendaUI</text><rect fill="#E3E3E3" height="30.2969" rx="2.5" ry="2.5" style="stroke:#181818;stroke-width:0.5;" width="199" x="425" y="50"/><text fill="#000000" font-family="sans-serif" font-size="14" lengthAdjust="spacing" textLength="185" x="432" y="69.9951">:ViewDetailsEntryAgendaUI</text><rect fill="#E3E3E3" height="30.2969" rx="2.5" ry="2.5" style="stroke:#181818;stroke-width:0.5;" width="199" x="425" y="1033.6719"/><text fill="#000000" font-family="sans-serif" font-size="14" lengthAdjust="spacing" textLength="185" x="432" y="1053.667">:ViewDetailsEntryAgendaUI</text><rect fill="#E3E3E3" height="30.2969" rx="2.5" ry="2.5" style="stroke:#181818;stroke-width:0.5;" width="240" x="634" y="1033.6719"/><text fill="#000000" font-family="sans-serif" font-size="14" lengthAdjust="spacing" textLength="226" x="641" y="1053.667">:AssignEntryOnAgendaController</text><rect fill="#E3E3E3" height="30.2969" rx="2.5" ry="2.5" style="stroke:#181818;stroke-width:0.5;" width="200" x="884" y="1033.6719"/><text fill="#000000" font-family="sans-serif" font-size="14" lengthAdjust="spacing" textLength="186" x="891" y="1053.667">:ViewDetailsEntryController</text><rect fill="#E3E3E3" height="30.2969" rx="2.5" ry="2.5" style="stroke:#181818;stroke-width:0.5;" width="101" x="1094" y="50"/><text fill="#000000" font-family="sans-serif" font-size="14" lengthAdjust="spacing" textLength="87" x="1101" y="69.9951">Repositories</text><rect fill="#E3E3E3" height="30.2969" rx="2.5" ry="2.5" style="stroke:#181818;stroke-width:0.5;" width="101" x="1094" y="1033.6719"/><text fill="#000000" font-family="sans-serif" font-size="14" lengthAdjust="spacing" textLength="87" x="1101" y="1053.667">Repositories</text><rect fill="#E3E3E3" height="46.5938" rx="2.5" ry="2.5" style="stroke:#181818;stroke-width:0.5;" width="106" x="1205" y="33.7031"/><text fill="#000000" font-family="sans-serif" font-size="14" lengthAdjust="spacing" textLength="82" x="1217" y="53.6982">repositories</text><text fill="#000000" font-family="sans-serif" font-size="14" lengthAdjust="spacing" textLength="92" x="1212" y="69.9951">:Repositories</text><rect fill="#E3E3E3" height="46.5938" rx="2.5" ry="2.5" style="stroke:#181818;stroke-width:0.5;" width="106" x="1205" y="1033.6719"/><text fill="#000000" font-family="sans-serif" font-size="14" lengthAdjust="spacing" textLength="82" x="1217" y="1053.667">repositories</text><text fill="#000000" font-family="sans-serif" font-size="14" lengthAdjust="spacing" textLength="92" x="1212" y="1069.9639">:Repositories</text><rect fill="#E3E3E3" height="30.2969" rx="2.5" ry="2.5" style="stroke:#181818;stroke-width:0.5;" width="237" x="1321" y="50"/><text fill="#000000" font-family="sans-serif" font-size="14" lengthAdjust="spacing" textLength="223" x="1328" y="69.9951">entryRepository:EntryRepository</text><rect fill="#E3E3E3" height="30.2969" rx="2.5" ry="2.5" style="stroke:#181818;stroke-width:0.5;" width="237" x="1321" y="1033.6719"/><text fill="#000000" font-family="sans-serif" font-size="14" lengthAdjust="spacing" textLength="223" x="1328" y="1053.667">entryRepository:EntryRepository</text><rect fill="#E3E3E3" height="30.2969" rx="2.5" ry="2.5" style="stroke:#181818;stroke-width:0.5;" width="95" x="1568" y="50"/><text fill="#000000" font-family="sans-serif" font-size="14" lengthAdjust="spacing" textLength="81" x="1575" y="69.9951">:AgendaList</text><rect fill="#E3E3E3" height="30.2969" rx="2.5" ry="2.5" style="stroke:#181818;stroke-width:0.5;" width="95" x="1568" y="1033.6719"/><text fill="#000000" font-family="sans-serif" font-size="14" lengthAdjust="spacing" textLength="81" x="1575" y="1053.667">:AgendaList</text><rect fill="#E3E3E3" height="30.2969" rx="2.5" ry="2.5" style="stroke:#181818;stroke-width:0.5;" width="106" x="1673" y="50"/><text fill="#000000" font-family="sans-serif" font-size="14" lengthAdjust="spacing" textLength="92" x="1680" y="69.9951">:EntryMapper</text><rect fill="#E3E3E3" height="30.2969" rx="2.5" ry="2.5" style="stroke:#181818;stroke-width:0.5;" width="106" x="1673" y="1033.6719"/><text fill="#000000" font-family="sans-serif" font-size="14" lengthAdjust="spacing" textLength="92" x="1680" y="1053.667">:EntryMapper</text><rect fill="#E3E3E3" height="30.2969" rx="2.5" ry="2.5" style="stroke:#181818;stroke-width:0.5;" width="159" x="1846.5" y="50"/><text fill="#000000" font-family="sans-serif" font-size="14" lengthAdjust="spacing" textLength="145" x="1853.5" y="69.9951">entryList:List&lt;Entry&gt;</text><rect fill="#E3E3E3" height="30.2969" rx="2.5" ry="2.5" style="stroke:#181818;stroke-width:0.5;" width="159" x="1846.5" y="1033.6719"/><text fill="#000000" font-family="sans-serif" font-size="14" lengthAdjust="spacing" textLength="145" x="1853.5" y="1053.667">entryList:List&lt;Entry&gt;</text><rect fill="#E3E3E3" height="30.2969" rx="2.5" ry="2.5" style="stroke:#181818;stroke-width:0.5;" width="209" x="2015.5" y="1033.6719"/><text fill="#000000" font-family="sans-serif" font-size="14" lengthAdjust="spacing" textLength="195" x="2022.5" y="1053.667">entryListDto:List&lt;EntryDto&gt;</text><rect fill="#E3E3E3" height="30.2969" rx="2.5" ry="2.5" style="stroke:#181818;stroke-width:0.5;" width="125" x="2234.5" y="1033.6719"/><text fill="#000000" font-family="sans-serif" font-size="14" lengthAdjust="spacing" textLength="111" x="2241.5" y="1053.667">objDto:EntryDto</text><rect fill="#FFFFFF" height="934.375" style="stroke:#181818;stroke-width:1.0;" width="10" x="34" y="91.2969"/><rect fill="#FFFFFF" height="694.1484" style="stroke:#181818;stroke-width:1.0;" width="10" x="340" y="151.6953"/><rect fill="#FFFFFF" height="29.1328" style="stroke:#181818;stroke-width:1.0;" width="10" x="340" y="874.9766"/><rect fill="#FFFFFF" height="105.5625" style="stroke:#181818;stroke-width:1.0;" width="10" x="519.5" y="904.1094"/><rect fill="#FFFFFF" height="594.5859" style="stroke:#181818;stroke-width:1.0;" width="10" x="749" y="222.125"/><rect fill="#FFFFFF" height="29.1328" style="stroke:#181818;stroke-width:1.0;" width="10" x="1139.5" y="251.2578"/><rect fill="#FFFFFF" height="29.1328" style="stroke:#181818;stroke-width:1.0;" width="10" x="1253" y="309.5234"/><rect fill="#FFFFFF" height="87.3984" style="stroke:#181818;stroke-width:1.0;" width="10" x="1434.5" y="367.7891"/><rect fill="#FFFFFF" height="29.1328" style="stroke:#181818;stroke-width:1.0;" width="10" x="1610.5" y="396.9219"/><rect fill="#FFFFFF" height="303.2578" style="stroke:#181818;stroke-width:1.0;" width="10" x="1721" y="484.3203"/><rect fill="#FFFFFF" height="34.1328" style="stroke:#181818;stroke-width:1.0;" width="10" x="1726" y="646.0156"/><rect fill="#FFFFFF" height="30" style="stroke:#181818;stroke-width:1.0;" width="10" x="1921" y="578.8828"/><rect fill="#FFFFFF" height="30" style="stroke:#181818;stroke-width:1.0;" width="10" x="2115" y="721.4453"/><path d="M10,98.2969 L619,98.2969 L619,105.4297 L609,115.4297 L10,115.4297 L10,98.2969 " fill="#EEEEEE" style="stroke:#000000;stroke-width:1.5;"/><rect fill="none" height="919.375" style="stroke:#000000;stroke-width:1.5;" width="2369.5" x="10" y="98.2969"/><text fill="#000000" font-family="sans-serif" font-size="13" font-weight="bold" lengthAdjust="spacing" textLength="564" x="25" y="111.3638">Get the details and management options of a selected entry on the agenda</text><polygon fill="#181818" points="328,147.6953,338,151.6953,328,155.6953,332,151.6953" style="stroke:#181818;stroke-width:1.0;"/><line style="stroke:#181818;stroke-width:1.0;" x1="44" x2="334" y1="151.6953" y2="151.6953"/><text fill="#000000" font-family="sans-serif" font-size="13" font-weight="bold" lengthAdjust="spacing" textLength="9" x="51" y="139.063">1</text><text fill="#000000" font-family="sans-serif" font-size="13" lengthAdjust="spacing" textLength="262" x="64" y="131.4966">Asks to get the details and management</text><text fill="#000000" font-family="sans-serif" font-size="13" lengthAdjust="spacing" textLength="260" x="68" y="146.6294">options of a specific entry on the agenda</text><polygon fill="#181818" points="622,176.8281,632,180.8281,622,184.8281,626,180.8281" style="stroke:#181818;stroke-width:1.0;"/><line style="stroke:#181818;stroke-width:1.0;" x1="350" x2="628" y1="180.8281" y2="180.8281"/><text fill="#000000" font-family="sans-serif" font-size="13" font-weight="bold" lengthAdjust="spacing" textLength="9" x="357" y="175.7622">2</text><text fill="#000000" font-family="sans-serif" font-size="13" lengthAdjust="spacing" textLength="51" x="370" y="175.7622">create()</text><rect fill="#E3E3E3" height="30.2969" rx="2.5" ry="2.5" style="stroke:#181818;stroke-width:0.5;" width="240" x="634" y="159.6953"/><text fill="#000000" font-family="sans-serif" font-size="14" lengthAdjust="spacing" textLength="226" x="641" y="179.6904">:AssignEntryOnAgendaController</text><polygon fill="#181818" points="737,218.125,747,222.125,737,226.125,741,222.125" style="stroke:#181818;stroke-width:1.0;"/><line style="stroke:#181818;stroke-width:1.0;" x1="350" x2="743" y1="222.125" y2="222.125"/><text fill="#000000" font-family="sans-serif" font-size="13" font-weight="bold" lengthAdjust="spacing" textLength="9" x="357" y="217.0591">3</text><text fill="#000000" font-family="sans-serif" font-size="13" lengthAdjust="spacing" textLength="80" x="370" y="217.0591">getAgenda()</text><polygon fill="#181818" points="1127.5,247.2578,1137.5,251.2578,1127.5,255.2578,1131.5,251.2578" style="stroke:#181818;stroke-width:1.0;"/><line style="stroke:#181818;stroke-width:1.0;" x1="759" x2="1133.5" y1="251.2578" y2="251.2578"/><text fill="#000000" font-family="sans-serif" font-size="13" font-weight="bold" lengthAdjust="spacing" textLength="9" x="766" y="246.1919">4</text><text fill="#000000" font-family="sans-serif" font-size="13" lengthAdjust="spacing" textLength="85" x="779" y="246.1919">getInstance()</text><polygon fill="#181818" points="770,276.3906,760,280.3906,770,284.3906,766,280.3906" style="stroke:#181818;stroke-width:1.0;"/><line style="stroke:#181818;stroke-width:1.0;stroke-dasharray:2.0,2.0;" x1="764" x2="1143.5" y1="280.3906" y2="280.3906"/><text fill="#000000" font-family="sans-serif" font-size="13" font-weight="bold" lengthAdjust="spacing" textLength="9" x="776" y="275.3247">5</text><text fill="#000000" font-family="sans-serif" font-size="13" lengthAdjust="spacing" textLength="75" x="789" y="275.3247">repositories</text><polygon fill="#181818" points="1241,305.5234,1251,309.5234,1241,313.5234,1245,309.5234" style="stroke:#181818;stroke-width:1.0;"/><line style="stroke:#181818;stroke-width:1.0;" x1="759" x2="1247" y1="309.5234" y2="309.5234"/><text fill="#000000" font-family="sans-serif" font-size="13" font-weight="bold" lengthAdjust="spacing" textLength="9" x="766" y="304.4575">6</text><text fill="#000000" font-family="sans-serif" font-size="13" lengthAdjust="spacing" textLength="131" x="779" y="304.4575">getEntryRepository()</text><polygon fill="#181818" points="770,334.6563,760,338.6563,770,342.6563,766,338.6563" style="stroke:#181818;stroke-width:1.0;"/><line style="stroke:#181818;stroke-width:1.0;stroke-dasharray:2.0,2.0;" x1="764" x2="1257" y1="338.6563" y2="338.6563"/><text fill="#000000" font-family="sans-serif" font-size="13" font-weight="bold" lengthAdjust="spacing" textLength="9" x="776" y="333.5903">7</text><text fill="#000000" font-family="sans-serif" font-size="13" lengthAdjust="spacing" textLength="100" x="789" y="333.5903">entryRepository</text><polygon fill="#181818" points="1422.5,363.7891,1432.5,367.7891,1422.5,371.7891,1426.5,367.7891" style="stroke:#181818;stroke-width:1.0;"/><line style="stroke:#181818;stroke-width:1.0;" x1="759" x2="1428.5" y1="367.7891" y2="367.7891"/><text fill="#000000" font-family="sans-serif" font-size="13" font-weight="bold" lengthAdjust="spacing" textLength="9" x="766" y="362.7231">8</text><text fill="#000000" font-family="sans-serif" font-size="13" lengthAdjust="spacing" textLength="80" x="779" y="362.7231">getAgenda()</text><polygon fill="#181818" points="1598.5,392.9219,1608.5,396.9219,1598.5,400.9219,1602.5,396.9219" style="stroke:#181818;stroke-width:1.0;"/><line style="stroke:#181818;stroke-width:1.0;" x1="1444.5" x2="1604.5" y1="396.9219" y2="396.9219"/><text fill="#000000" font-family="sans-serif" font-size="13" font-weight="bold" lengthAdjust="spacing" textLength="9" x="1451.5" y="391.856">9</text><text fill="#000000" font-family="sans-serif" font-size="13" lengthAdjust="spacing" textLength="53" x="1464.5" y="391.856">getList()</text><polygon fill="#181818" points="1455.5,422.0547,1445.5,426.0547,1455.5,430.0547,1451.5,426.0547" style="stroke:#181818;stroke-width:1.0;"/><line style="stroke:#181818;stroke-width:1.0;" x1="1449.5" x2="1614.5" y1="426.0547" y2="426.0547"/><text fill="#000000" font-family="sans-serif" font-size="13" font-weight="bold" lengthAdjust="spacing" textLength="18" x="1461.5" y="420.9888">10</text><text fill="#000000" font-family="sans-serif" font-size="13" lengthAdjust="spacing" textLength="55" x="1483.5" y="420.9888">entryList</text><polygon fill="#181818" points="770,451.1875,760,455.1875,770,459.1875,766,455.1875" style="stroke:#181818;stroke-width:1.0;"/><line style="stroke:#181818;stroke-width:1.0;" x1="764" x2="1438.5" y1="455.1875" y2="455.1875"/><text fill="#000000" font-family="sans-serif" font-size="13" font-weight="bold" lengthAdjust="spacing" textLength="18" x="776" y="450.1216">11</text><text fill="#000000" font-family="sans-serif" font-size="13" lengthAdjust="spacing" textLength="55" x="798" y="450.1216">entryList</text><polygon fill="#181818" points="1709,480.3203,1719,484.3203,1709,488.3203,1713,484.3203" style="stroke:#181818;stroke-width:1.0;"/><line style="stroke:#181818;stroke-width:1.0;" x1="759" x2="1715" y1="484.3203" y2="484.3203"/><text fill="#000000" font-family="sans-serif" font-size="13" font-weight="bold" lengthAdjust="spacing" textLength="18" x="766" y="479.2544">12</text><text fill="#000000" font-family="sans-serif" font-size="13" lengthAdjust="spacing" textLength="213" x="788" y="479.2544">entryListToEntryDtoList(entryList)</text><polygon fill="#181818" points="2003.5,509.4531,2013.5,513.4531,2003.5,517.4531,2007.5,513.4531" style="stroke:#181818;stroke-width:1.0;"/><line style="stroke:#181818;stroke-width:1.0;" x1="1731" x2="2009.5" y1="513.4531" y2="513.4531"/><text fill="#000000" font-family="sans-serif" font-size="13" font-weight="bold" lengthAdjust="spacing" textLength="18" x="1738" y="508.3872">13</text><text fill="#000000" font-family="sans-serif" font-size="13" lengthAdjust="spacing" textLength="51" x="1760" y="508.3872">create()</text><rect fill="#E3E3E3" height="30.2969" rx="2.5" ry="2.5" style="stroke:#181818;stroke-width:0.5;" width="209" x="2015.5" y="492.3203"/><text fill="#000000" font-family="sans-serif" font-size="14" lengthAdjust="spacing" textLength="195" x="2022.5" y="512.3154">entryListDto:List&lt;EntryDto&gt;</text><path d="M1663,540.6172 L1740,540.6172 L1740,547.75 L1730,557.75 L1663,557.75 L1663,540.6172 " fill="#EEEEEE" style="stroke:#000000;stroke-width:1.5;"/><rect fill="none" height="218.8281" style="stroke:#000000;stroke-width:1.5;" width="706.5" x="1663" y="540.6172"/><text fill="#000000" font-family="sans-serif" font-size="13" font-weight="bold" lengthAdjust="spacing" textLength="32" x="1678" y="553.6841">loop</text><text fill="#000000" font-family="sans-serif" font-size="11" font-weight="bold" lengthAdjust="spacing" textLength="176" x="1755" y="552.8276">[for each entry in EntryList]</text><polygon fill="#181818" points="1909,574.8828,1919,578.8828,1909,582.8828,1913,578.8828" style="stroke:#181818;stroke-width:1.0;"/><line style="stroke:#181818;stroke-width:1.0;" x1="1731" x2="1915" y1="578.8828" y2="578.8828"/><text fill="#000000" font-family="sans-serif" font-size="13" font-weight="bold" lengthAdjust="spacing" textLength="18" x="1738" y="573.8169">14</text><text fill="#000000" font-family="sans-serif" font-size="13" lengthAdjust="spacing" textLength="83" x="1760" y="573.8169">entry = get()</text><line style="stroke:#181818;stroke-width:1.0;" x1="1731" x2="1778" y1="633.0156" y2="633.0156"/><line style="stroke:#181818;stroke-width:1.0;" x1="1778" x2="1778" y1="633.0156" y2="646.0156"/><line style="stroke:#181818;stroke-width:1.0;" x1="1737" x2="1778" y1="646.0156" y2="646.0156"/><polygon fill="#181818" points="1747,642.0156,1737,646.0156,1747,650.0156,1743,646.0156" style="stroke:#181818;stroke-width:1.0;"/><text fill="#000000" font-family="sans-serif" font-size="13" font-weight="bold" lengthAdjust="spacing" textLength="18" x="1743" y="627.9497">15</text><text fill="#000000" font-family="sans-serif" font-size="13" lengthAdjust="spacing" textLength="154" x="1765" y="627.9497">entryDto = toDto(entry)</text><polygon fill="#181818" points="2222.5,676.1484,2232.5,680.1484,2222.5,684.1484,2226.5,680.1484" style="stroke:#181818;stroke-width:1.0;"/><line style="stroke:#181818;stroke-width:1.0;" x1="1731" x2="2228.5" y1="680.1484" y2="680.1484"/><text fill="#000000" font-family="sans-serif" font-size="13" font-weight="bold" lengthAdjust="spacing" textLength="18" x="1738" y="675.0825">16</text><text fill="#000000" font-family="sans-serif" font-size="13" lengthAdjust="spacing" textLength="155" x="1760" y="675.0825">create(entry All Getters)</text><rect fill="#E3E3E3" height="30.2969" rx="2.5" ry="2.5" style="stroke:#181818;stroke-width:0.5;" width="125" x="2234.5" y="659.0156"/><text fill="#000000" font-family="sans-serif" font-size="14" lengthAdjust="spacing" textLength="111" x="2241.5" y="679.0107">objDto:EntryDto</text><polygon fill="#181818" points="2103,717.4453,2113,721.4453,2103,725.4453,2107,721.4453" style="stroke:#181818;stroke-width:1.0;"/><line style="stroke:#181818;stroke-width:1.0;" x1="1731" x2="2109" y1="721.4453" y2="721.4453"/><text fill="#000000" font-family="sans-serif" font-size="13" font-weight="bold" lengthAdjust="spacing" textLength="18" x="1738" y="716.3794">17</text><text fill="#000000" font-family="sans-serif" font-size="13" lengthAdjust="spacing" textLength="90" x="1760" y="716.3794">add(entryDto)</text><polygon fill="#181818" points="770,783.5781,760,787.5781,770,791.5781,766,787.5781" style="stroke:#181818;stroke-width:1.0;"/><line style="stroke:#181818;stroke-width:1.0;" x1="764" x2="1725" y1="787.5781" y2="787.5781"/><text fill="#000000" font-family="sans-serif" font-size="13" font-weight="bold" lengthAdjust="spacing" textLength="18" x="776" y="782.5122">18</text><text fill="#000000" font-family="sans-serif" font-size="13" lengthAdjust="spacing" textLength="78" x="798" y="782.5122">entryListDto</text><polygon fill="#181818" points="361,812.7109,351,816.7109,361,820.7109,357,816.7109" style="stroke:#181818;stroke-width:1.0;"/><line style="stroke:#181818;stroke-width:1.0;" x1="355" x2="753" y1="816.7109" y2="816.7109"/><text fill="#000000" font-family="sans-serif" font-size="13" font-weight="bold" lengthAdjust="spacing" textLength="18" x="367" y="811.645">19</text><text fill="#000000" font-family="sans-serif" font-size="13" lengthAdjust="spacing" textLength="78" x="389" y="811.645">entryListDto</text><polygon fill="#181818" points="55,841.8438,45,845.8438,55,849.8438,51,845.8438" style="stroke:#181818;stroke-width:1.0;"/><line style="stroke:#181818;stroke-width:1.0;" x1="49" x2="344" y1="845.8438" y2="845.8438"/><text fill="#000000" font-family="sans-serif" font-size="13" font-weight="bold" lengthAdjust="spacing" textLength="18" x="61" y="840.7778">20</text><text fill="#000000" font-family="sans-serif" font-size="13" lengthAdjust="spacing" textLength="142" x="83" y="840.7778">Shows Agenda Entries</text><polygon fill="#181818" points="328,870.9766,338,874.9766,328,878.9766,332,874.9766" style="stroke:#181818;stroke-width:1.0;"/><line style="stroke:#181818;stroke-width:1.0;" x1="44" x2="334" y1="874.9766" y2="874.9766"/><text fill="#000000" font-family="sans-serif" font-size="13" font-weight="bold" lengthAdjust="spacing" textLength="18" x="51" y="869.9106">21</text><text fill="#000000" font-family="sans-serif" font-size="13" lengthAdjust="spacing" textLength="104" x="73" y="869.9106">Selects an Entry</text><polygon fill="#181818" points="507.5,900.1094,517.5,904.1094,507.5,908.1094,511.5,904.1094" style="stroke:#181818;stroke-width:1.0;"/><line style="stroke:#181818;stroke-width:1.0;" x1="345" x2="513.5" y1="904.1094" y2="904.1094"/><text fill="#000000" font-family="sans-serif" font-size="13" font-weight="bold" lengthAdjust="spacing" textLength="18" x="352" y="899.0435">22</text><text fill="#000000" font-family="sans-serif" font-size="13" lengthAdjust="spacing" textLength="127" x="374" y="899.0435">setLabels(entryDto)</text><path d="M350,917.1094 L350,942.1094 L546,942.1094 L546,927.1094 L536,917.1094 L350,917.1094 " fill="#FAFAFA" style="stroke:#181818;stroke-width:0.5;"/><path d="M536,917.1094 L536,927.1094 L546,927.1094 L536,917.1094 " fill="#FAFAFA" style="stroke:#181818;stroke-width:0.5;"/><text fill="#000000" font-family="sans-serif" font-size="13" lengthAdjust="spacing" textLength="175" x="356" y="934.1763">(DTO of the Selected Entry)</text><polygon fill="#181818" points="872,964.375,882,968.375,872,972.375,876,968.375" style="stroke:#181818;stroke-width:1.0;"/><line style="stroke:#181818;stroke-width:1.0;" x1="529.5" x2="878" y1="968.375" y2="968.375"/><text fill="#000000" font-family="sans-serif" font-size="13" font-weight="bold" lengthAdjust="spacing" textLength="18" x="536.5" y="963.3091">23</text><text fill="#000000" font-family="sans-serif" font-size="13" lengthAdjust="spacing" textLength="51" x="558.5" y="963.3091">create()</text><rect fill="#E3E3E3" height="30.2969" rx="2.5" ry="2.5" style="stroke:#181818;stroke-width:0.5;" width="200" x="884" y="947.2422"/><text fill="#000000" font-family="sans-serif" font-size="14" lengthAdjust="spacing" textLength="186" x="891" y="967.2373">:ViewDetailsEntryController</text><polygon fill="#181818" points="55,1005.6719,45,1009.6719,55,1013.6719,51,1009.6719" style="stroke:#181818;stroke-width:1.0;"/><line style="stroke:#181818;stroke-width:1.0;" x1="49" x2="523.5" y1="1009.6719" y2="1009.6719"/><text fill="#000000" font-family="sans-serif" font-size="13" font-weight="bold" lengthAdjust="spacing" textLength="18" x="61" y="1004.606">24</text><text fill="#000000" font-family="sans-serif" font-size="13" lengthAdjust="spacing" textLength="306" x="83" y="1004.606">Displays entry details and management options</text><!--SRC=[XLR1Rk8m4BtdAqPSIf6gIXoZtKgee0gfLQNIxgaNDp71Ix2Zs2pYxtSyJXp7X903YUrvCszUPYRelP0Lgza13aggR5Uh0mTJ7tcY_Kd5iZqh-CQSImurpmoJHHaQw1tBrKd80hQir3n9sD4eUJpyy1gVCwDgcBnitYR0DE0zGPGHcQYOD319tvX4xuk2ovnzhSdeQntP_17yjEI6YLAlfAdFaVKyCbzeBGf9bk_IsJuhNAcov3LXdZy_NkStWWn04dlrK1-yKbfWYe9hCgEDlaqTs7pBz092vmCuRbbuwtEwwgy9w_TY2IZhLw4DcNNBvF4EBgCutvt7kyV87-s-iQfgr0ZMiIJaq8PQ6fNQ-oyonjNJ1F1gqOt95N20V9hqC7s0-lbhuxGXEbFhEcB6I8NL6BzHSZTYOQcBVynmAl8aAMfrhE256p0x3hchB60oXmEL_05p1LKPeQG6jGK6cfVONZm7KW6K9AHZZGwjUEWQ7fwmvbDOwBq6ew0OZV0jenWLpyHMP8CnwFMqMM0NqiRNsaQaZfdDKiXgZgVJ-ul3r39nXOQdFLUktMYFVcXjWLJD15nBZOCbup7KzGNjqICyTF72nYABd0_XVBIkqIXar4znvA0jwQ1RXnoY9erfn4uy5nzyHBQkkMdVBos-wsXoO1zYUD3qTD2j8mA-wMBsiOSUWr208N30VY1rDpi2-ATgMuboyVj3clZ1uqcv7U-zQT_P3EA2BPMgO8kV92IwQvf0o62wG7DTSmiDP_XjTMyqlwJOynMhSZDGJnrC18CPXNSdoxMOhInZdYDLN2gBihI3ol1QtrybtNY_fOzbcmBBysbBVamYEpd7L6hFiGu7ttPSXAtz5VBzGhHJT0mPZ2qtvt3wfh3PgLFxHINd0zF7pivuNczekjlvx2YDJLlyJvFYvy2yiXzUwaZ9Vfp8oxm9B9MTFgBO6Jlt6pjxJPUVxtRBZlrD-y5PTMM5QH6ufJDlPUutav_bZGL9inIwAjbPDnrouvi7oMKwI9zUzNy0]--></g></svg>