<?xml version="1.0" encoding="us-ascii" standalone="no"?><svg xmlns="http://www.w3.org/2000/svg" xmlns:xlink="http://www.w3.org/1999/xlink" contentStyleType="text/css" height="322px" preserveAspectRatio="none" style="width:504px;height:322px;background:#FFFFFF;" version="1.1" viewBox="0 0 504 322" width="504px" zoomAndPan="magnify"><defs/><g><rect fill="#FFFFFF" height="158.1152" style="stroke:#181818;stroke-width:1.0;" width="10" x="150" y="90.5332"/><rect fill="none" height="112.8242" style="stroke:#000000;stroke-width:1.5;" width="416" x="82" y="105.5332"/><line style="stroke:#181818;stroke-width:0.5;stroke-dasharray:5.0,5.0;" x1="155" x2="155" y1="57.2422" y2="266.6484"/><line style="stroke:#181818;stroke-width:0.5;stroke-dasharray:5.0,5.0;" x1="422" x2="422" y1="165.9453" y2="266.6484"/><rect fill="#E3E3E3" height="51.2422" rx="2.5" ry="2.5" style="stroke:#181818;stroke-width:0.5;" width="126" x="92" y="5"/><text fill="#000000" font-family="sans-serif" font-size="14" lengthAdjust="spacing" textLength="106" x="102" y="27.1074">vehicleController</text><text fill="#000000" font-family="sans-serif" font-size="14" lengthAdjust="spacing" textLength="112" x="99" y="45.7285">:VehicleController</text><rect fill="#E3E3E3" height="51.2422" rx="2.5" ry="2.5" style="stroke:#181818;stroke-width:0.5;" width="126" x="92" y="265.6484"/><text fill="#000000" font-family="sans-serif" font-size="14" lengthAdjust="spacing" textLength="106" x="102" y="287.7559">vehicleController</text><text fill="#000000" font-family="sans-serif" font-size="14" lengthAdjust="spacing" textLength="112" x="99" y="306.377">:VehicleController</text><rect fill="#E3E3E3" height="51.2422" rx="2.5" ry="2.5" style="stroke:#181818;stroke-width:0.5;" width="132" x="356" y="265.6484"/><text fill="#000000" font-family="sans-serif" font-size="14" lengthAdjust="spacing" textLength="112" x="366" y="287.7559">vehicleRepository</text><text fill="#000000" font-family="sans-serif" font-size="14" lengthAdjust="spacing" textLength="118" x="363" y="306.377">:VehicleRepository</text><rect fill="#FFFFFF" height="158.1152" style="stroke:#181818;stroke-width:1.0;" width="10" x="150" y="90.5332"/><polygon fill="#181818" points="138,86.5332,148,90.5332,138,94.5332,142,90.5332" style="stroke:#181818;stroke-width:1.0;"/><line style="stroke:#181818;stroke-width:1.0;" x1="0" x2="144" y1="90.5332" y2="90.5332"/><text fill="#000000" font-family="sans-serif" font-size="13" font-weight="bold" lengthAdjust="spacing" textLength="14" x="7" y="85.2705">16</text><text fill="#000000" font-family="sans-serif" font-size="13" lengthAdjust="spacing" textLength="100" x="25" y="85.2705">getCehckUpList()</text><path d="M82,105.5332 L213,105.5332 L213,114.8242 L203,124.8242 L82,124.8242 L82,105.5332 " fill="#EEEEEE" style="stroke:#000000;stroke-width:1.5;"/><rect fill="none" height="112.8242" style="stroke:#000000;stroke-width:1.5;" width="416" x="82" y="105.5332"/><text fill="#000000" font-family="sans-serif" font-size="13" font-weight="bold" lengthAdjust="spacing" textLength="86" x="97" y="120.5615">Check-Up List</text><polygon fill="#181818" points="344,144.1152,354,148.1152,344,152.1152,348,148.1152" style="stroke:#181818;stroke-width:1.0;"/><line style="stroke:#181818;stroke-width:1.0;" x1="160" x2="350" y1="148.1152" y2="148.1152"/><text fill="#000000" font-family="sans-serif" font-size="13" font-weight="bold" lengthAdjust="spacing" textLength="25" x="167" y="142.8525">16.1</text><text fill="#000000" font-family="sans-serif" font-size="13" lengthAdjust="spacing" textLength="143" x="196" y="142.8525">getVehicleCehckUpList()</text><rect fill="#E3E3E3" height="51.2422" rx="2.5" ry="2.5" style="stroke:#181818;stroke-width:0.5;" width="132" x="356" y="124.8242"/><text fill="#000000" font-family="sans-serif" font-size="14" lengthAdjust="spacing" textLength="112" x="366" y="146.9316">vehicleRepository</text><text fill="#000000" font-family="sans-serif" font-size="14" lengthAdjust="spacing" textLength="118" x="363" y="165.5527">:VehicleRepository</text><polygon fill="#181818" points="171,206.3574,161,210.3574,171,214.3574,167,210.3574" style="stroke:#181818;stroke-width:1.0;"/><line style="stroke:#181818;stroke-width:1.0;" x1="165" x2="421" y1="210.3574" y2="210.3574"/><text fill="#000000" font-family="sans-serif" font-size="13" font-weight="bold" lengthAdjust="spacing" textLength="25" x="177" y="205.0947">16.2</text><text fill="#000000" font-family="sans-serif" font-size="13" lengthAdjust="spacing" textLength="113" x="206" y="205.0947">vehicleCheckUpList</text><polygon fill="#181818" points="11,244.6484,1,248.6484,11,252.6484,7,248.6484" style="stroke:#181818;stroke-width:1.0;"/><line style="stroke:#181818;stroke-width:1.0;" x1="5" x2="154" y1="248.6484" y2="248.6484"/><text fill="#000000" font-family="sans-serif" font-size="13" font-weight="bold" lengthAdjust="spacing" textLength="14" x="17" y="243.3857">17</text><text fill="#000000" font-family="sans-serif" font-size="13" lengthAdjust="spacing" textLength="113" x="35" y="243.3857">vehicleCheckUpList</text><!--SRC=[TP0nJyGm38Nt_0hh9ZYfIBU0L26Mh4oWwyHYKfD4JPCeSG_TlwTfTNSb0a_Hix_txEJ1-eW9HnY33ygaC19mcaZaQoUY6b3JEvyTGIB5wBNR3cI3VVYsNiCNkan2p39RPIDwXjs9Z5MEPF2SWdEKFdpRrTeEC4Cd_oJVA8PiEQJpZRnfArchGk34mK_Z9oKuF8hcPNPlGHDBCceunbUR-Uw-6diu25HiJyXKbe6vT0fJ16b83SqnGi74qYZLIIZ6TVX-loHTZlmTU6LhQh6IqCBbmqhcogqK-NvzR7T-MfJdvb-qf-r9uWS0]--></g></svg>