<?xml version="1.0" encoding="us-ascii" standalone="no"?><svg xmlns="http://www.w3.org/2000/svg" xmlns:xlink="http://www.w3.org/1999/xlink" contentStyleType="text/css" height="636px" preserveAspectRatio="none" style="width:994px;height:636px;background:#FFFFFF;" version="1.1" viewBox="0 0 994 636" width="994px" zoomAndPan="magnify"><defs/><g><!--class ApplicationSession--><g id="elem_ApplicationSession"><rect codeLine="11" fill="#F1F1F1" height="80.5938" id="ApplicationSession" rx="2.5" ry="2.5" style="stroke:#181818;stroke-width:0.5;" width="164" x="627.5" y="228"/><ellipse cx="643.4" cy="244" fill="#ADD1B2" rx="11" ry="11" style="stroke:#181818;stroke-width:1.0;"/><path d="M646.3688,249.6406 Q645.7906,249.9375 645.15,250.0781 Q644.5094,250.2344 643.8063,250.2344 Q641.3063,250.2344 639.9781,248.5938 Q638.6656,246.9375 638.6656,243.8125 Q638.6656,240.6875 639.9781,239.0313 Q641.3063,237.375 643.8063,237.375 Q644.5094,237.375 645.15,237.5313 Q645.8063,237.6875 646.3688,237.9844 L646.3688,240.7031 Q645.7438,240.125 645.15,239.8594 Q644.5563,239.5781 643.9313,239.5781 Q642.5875,239.5781 641.9,240.6563 Q641.2125,241.7188 641.2125,243.8125 Q641.2125,245.9063 641.9,246.9844 Q642.5875,248.0469 643.9313,248.0469 Q644.5563,248.0469 645.15,247.7813 Q645.7438,247.5 646.3688,246.9219 L646.3688,249.6406 Z " fill="#000000"/><text fill="#000000" font-family="sans-serif" font-size="14" lengthAdjust="spacing" textLength="130" x="657.6" y="248.8467">ApplicationSession</text><line style="stroke:#181818;stroke-width:0.5;" x1="628.5" x2="790.5" y1="260" y2="260"/><line style="stroke:#181818;stroke-width:0.5;" x1="628.5" x2="790.5" y1="268" y2="268"/><text fill="#000000" font-family="sans-serif" font-size="14" lengthAdjust="spacing" textLength="145" x="633.5" y="284.9951">+static getInstance()</text><text fill="#000000" font-family="sans-serif" font-size="14" lengthAdjust="spacing" textLength="152" x="633.5" y="301.292">+getCurrentSession()</text></g><!--class UserSession--><g id="elem_UserSession"><rect codeLine="16" fill="#F1F1F1" height="48" id="UserSession" rx="2.5" ry="2.5" style="stroke:#181818;stroke-width:0.5;" width="119" x="868" y="484"/><ellipse cx="883" cy="500" fill="#ADD1B2" rx="11" ry="11" style="stroke:#181818;stroke-width:1.0;"/><path d="M885.9688,505.6406 Q885.3906,505.9375 884.75,506.0781 Q884.1094,506.2344 883.4063,506.2344 Q880.9063,506.2344 879.5781,504.5938 Q878.2656,502.9375 878.2656,499.8125 Q878.2656,496.6875 879.5781,495.0313 Q880.9063,493.375 883.4063,493.375 Q884.1094,493.375 884.75,493.5313 Q885.4063,493.6875 885.9688,493.9844 L885.9688,496.7031 Q885.3438,496.125 884.75,495.8594 Q884.1563,495.5781 883.5313,495.5781 Q882.1875,495.5781 881.5,496.6563 Q880.8125,497.7188 880.8125,499.8125 Q880.8125,501.9063 881.5,502.9844 Q882.1875,504.0469 883.5313,504.0469 Q884.1563,504.0469 884.75,503.7813 Q885.3438,503.5 885.9688,502.9219 L885.9688,505.6406 Z " fill="#000000"/><text fill="#000000" font-family="sans-serif" font-size="14" lengthAdjust="spacing" textLength="87" x="897" y="504.8467">UserSession</text><line style="stroke:#181818;stroke-width:0.5;" x1="869" x2="986" y1="516" y2="516"/><line style="stroke:#181818;stroke-width:0.5;" x1="869" x2="986" y1="524" y2="524"/></g><!--class Vehicle--><g id="elem_Vehicle"><rect codeLine="20" fill="#F1F1F1" height="243.5625" id="Vehicle" rx="2.5" ry="2.5" style="stroke:#181818;stroke-width:0.5;" width="823" x="7" y="386"/><ellipse cx="389.25" cy="402" fill="#ADD1B2" rx="11" ry="11" style="stroke:#181818;stroke-width:1.0;"/><path d="M392.2188,407.6406 Q391.6406,407.9375 391,408.0781 Q390.3594,408.2344 389.6563,408.2344 Q387.1563,408.2344 385.8281,406.5938 Q384.5156,404.9375 384.5156,401.8125 Q384.5156,398.6875 385.8281,397.0313 Q387.1563,395.375 389.6563,395.375 Q390.3594,395.375 391,395.5313 Q391.6563,395.6875 392.2188,395.9844 L392.2188,398.7031 Q391.5938,398.125 391,397.8594 Q390.4063,397.5781 389.7813,397.5781 Q388.4375,397.5781 387.75,398.6563 Q387.0625,399.7188 387.0625,401.8125 Q387.0625,403.9063 387.75,404.9844 Q388.4375,406.0469 389.7813,406.0469 Q390.4063,406.0469 391,405.7813 Q391.5938,405.5 392.2188,404.9219 L392.2188,407.6406 Z " fill="#000000"/><text fill="#000000" font-family="sans-serif" font-size="14" lengthAdjust="spacing" textLength="50" x="409.75" y="406.8467">Vehicle</text><line style="stroke:#181818;stroke-width:0.5;" x1="8" x2="829" y1="418" y2="418"/><text fill="#000000" font-family="sans-serif" font-size="14" lengthAdjust="spacing" textLength="94" x="13" y="434.9951">-brand: String</text><text fill="#000000" font-family="sans-serif" font-size="14" lengthAdjust="spacing" textLength="97" x="13" y="451.292">-model: String</text><text fill="#000000" font-family="sans-serif" font-size="14" lengthAdjust="spacing" textLength="65" x="13" y="467.5889">-plate: int</text><text fill="#000000" font-family="sans-serif" font-size="14" lengthAdjust="spacing" textLength="84" x="13" y="483.8857">-type: String</text><text fill="#000000" font-family="sans-serif" font-size="14" lengthAdjust="spacing" textLength="58" x="13" y="500.1826">-tare: int</text><text fill="#000000" font-family="sans-serif" font-size="14" lengthAdjust="spacing" textLength="141" x="13" y="516.4795">-grossWeight: String</text><text fill="#000000" font-family="sans-serif" font-size="14" lengthAdjust="spacing" textLength="111" x="13" y="532.7764">-currenteKM: int</text><text fill="#000000" font-family="sans-serif" font-size="14" lengthAdjust="spacing" textLength="133" x="13" y="549.0732">-registerDate: Date</text><text fill="#000000" font-family="sans-serif" font-size="14" lengthAdjust="spacing" textLength="154" x="13" y="565.3701">-acquisitionDate: Date</text><text fill="#000000" font-family="sans-serif" font-size="14" lengthAdjust="spacing" textLength="166" x="13" y="581.667">-frequencyCheckKm: int</text><line style="stroke:#181818;stroke-width:0.5;" x1="8" x2="829" y1="588.9688" y2="588.9688"/><text fill="#000000" font-family="sans-serif" font-size="14" lengthAdjust="spacing" textLength="811" x="13" y="605.9639">+Vehicle(brand, model, plate, type, tare, grossWeight, currenteKM, registerDate, acquisitionDate, checkupFrequency)</text><text fill="#000000" font-family="sans-serif" font-size="14" lengthAdjust="spacing" textLength="131" x="13" y="622.2607">+getCheckUpList()</text></g><!--class VehicleRepository--><g id="elem_VehicleRepository"><rect codeLine="36" fill="#F1F1F1" height="64.2969" id="VehicleRepository" rx="2.5" ry="2.5" style="stroke:#181818;stroke-width:0.5;" width="156" x="340.5" y="236.5"/><ellipse cx="355.5" cy="252.5" fill="#ADD1B2" rx="11" ry="11" style="stroke:#181818;stroke-width:1.0;"/><path d="M358.4688,258.1406 Q357.8906,258.4375 357.25,258.5781 Q356.6094,258.7344 355.9063,258.7344 Q353.4063,258.7344 352.0781,257.0938 Q350.7656,255.4375 350.7656,252.3125 Q350.7656,249.1875 352.0781,247.5313 Q353.4063,245.875 355.9063,245.875 Q356.6094,245.875 357.25,246.0313 Q357.9063,246.1875 358.4688,246.4844 L358.4688,249.2031 Q357.8438,248.625 357.25,248.3594 Q356.6563,248.0781 356.0313,248.0781 Q354.6875,248.0781 354,249.1563 Q353.3125,250.2188 353.3125,252.3125 Q353.3125,254.4063 354,255.4844 Q354.6875,256.5469 356.0313,256.5469 Q356.6563,256.5469 357.25,256.2813 Q357.8438,256 358.4688,255.4219 L358.4688,258.1406 Z " fill="#000000"/><text fill="#000000" font-family="sans-serif" font-size="14" lengthAdjust="spacing" textLength="124" x="369.5" y="257.3467">VehicleRepository</text><line style="stroke:#181818;stroke-width:0.5;" x1="341.5" x2="495.5" y1="268.5" y2="268.5"/><line style="stroke:#181818;stroke-width:0.5;" x1="341.5" x2="495.5" y1="276.5" y2="276.5"/><text fill="#000000" font-family="sans-serif" font-size="14" lengthAdjust="spacing" textLength="131" x="346.5" y="293.4951">+getCheckUpList()</text></g><!--class Repositories--><g id="elem_Repositories"><rect codeLine="41" fill="#F1F1F1" height="96.8906" id="Repositories" rx="2.5" ry="2.5" style="stroke:#181818;stroke-width:0.5;" width="171" x="123" y="101"/><ellipse cx="161.4" cy="117" fill="#ADD1B2" rx="11" ry="11" style="stroke:#181818;stroke-width:1.0;"/><path d="M164.3688,122.6406 Q163.7906,122.9375 163.15,123.0781 Q162.5094,123.2344 161.8063,123.2344 Q159.3063,123.2344 157.9781,121.5938 Q156.6656,119.9375 156.6656,116.8125 Q156.6656,113.6875 157.9781,112.0313 Q159.3063,110.375 161.8063,110.375 Q162.5094,110.375 163.15,110.5313 Q163.8063,110.6875 164.3688,110.9844 L164.3688,113.7031 Q163.7438,113.125 163.15,112.8594 Q162.5563,112.5781 161.9313,112.5781 Q160.5875,112.5781 159.9,113.6563 Q159.2125,114.7188 159.2125,116.8125 Q159.2125,118.9063 159.9,119.9844 Q160.5875,121.0469 161.9313,121.0469 Q162.5563,121.0469 163.15,120.7813 Q163.7438,120.5 164.3688,119.9219 L164.3688,122.6406 Z " fill="#000000"/><text fill="#000000" font-family="sans-serif" font-size="14" lengthAdjust="spacing" textLength="87" x="180.6" y="121.8467">Repositories</text><line style="stroke:#181818;stroke-width:0.5;" x1="124" x2="293" y1="133" y2="133"/><text fill="#000000" font-family="sans-serif" font-size="14" lengthAdjust="spacing" textLength="159" x="129" y="149.9951">+getVehicleRepository</text><line style="stroke:#181818;stroke-width:0.5;" x1="124" x2="293" y1="157.2969" y2="157.2969"/><text fill="#000000" font-family="sans-serif" font-size="14" lengthAdjust="spacing" textLength="102" x="129" y="174.292">-Repositories()</text><text fill="#000000" font-family="sans-serif" font-size="14" lengthAdjust="spacing" textLength="104" x="129" y="190.5889">+getInstance()</text></g><!--class CheckUpListController--><g id="elem_CheckUpListController"><rect codeLine="48" fill="#F1F1F1" height="64.2969" id="CheckUpListController" rx="2.5" ry="2.5" style="stroke:#181818;stroke-width:0.5;" width="185" x="481" y="7"/><ellipse cx="496" cy="23" fill="#ADD1B2" rx="11" ry="11" style="stroke:#181818;stroke-width:1.0;"/><path d="M498.9688,28.6406 Q498.3906,28.9375 497.75,29.0781 Q497.1094,29.2344 496.4063,29.2344 Q493.9063,29.2344 492.5781,27.5938 Q491.2656,25.9375 491.2656,22.8125 Q491.2656,19.6875 492.5781,18.0313 Q493.9063,16.375 496.4063,16.375 Q497.1094,16.375 497.75,16.5313 Q498.4063,16.6875 498.9688,16.9844 L498.9688,19.7031 Q498.3438,19.125 497.75,18.8594 Q497.1563,18.5781 496.5313,18.5781 Q495.1875,18.5781 494.5,19.6563 Q493.8125,20.7188 493.8125,22.8125 Q493.8125,24.9063 494.5,25.9844 Q495.1875,27.0469 496.5313,27.0469 Q497.1563,27.0469 497.75,26.7813 Q498.3438,26.5 498.9688,25.9219 L498.9688,28.6406 Z " fill="#000000"/><text fill="#000000" font-family="sans-serif" font-size="14" lengthAdjust="spacing" textLength="153" x="510" y="27.8467">CheckUpListController</text><line style="stroke:#181818;stroke-width:0.5;" x1="482" x2="665" y1="39" y2="39"/><text fill="#000000" font-family="sans-serif" font-size="14" lengthAdjust="spacing" textLength="121" x="487" y="55.9951">+getCheckUpList</text><line style="stroke:#181818;stroke-width:0.5;" x1="482" x2="665" y1="63.2969" y2="63.2969"/></g><!--class CheckUpListUI--><g id="elem_CheckUpListUI"><rect codeLine="52" fill="#F1F1F1" height="48" id="CheckUpListUI" rx="2.5" ry="2.5" style="stroke:#181818;stroke-width:0.5;" width="131" x="315" y="15"/><ellipse cx="330" cy="31" fill="#ADD1B2" rx="11" ry="11" style="stroke:#181818;stroke-width:1.0;"/><path d="M332.9688,36.6406 Q332.3906,36.9375 331.75,37.0781 Q331.1094,37.2344 330.4063,37.2344 Q327.9063,37.2344 326.5781,35.5938 Q325.2656,33.9375 325.2656,30.8125 Q325.2656,27.6875 326.5781,26.0313 Q327.9063,24.375 330.4063,24.375 Q331.1094,24.375 331.75,24.5313 Q332.4063,24.6875 332.9688,24.9844 L332.9688,27.7031 Q332.3438,27.125 331.75,26.8594 Q331.1563,26.5781 330.5313,26.5781 Q329.1875,26.5781 328.5,27.6563 Q327.8125,28.7188 327.8125,30.8125 Q327.8125,32.9063 328.5,33.9844 Q329.1875,35.0469 330.5313,35.0469 Q331.1563,35.0469 331.75,34.7813 Q332.3438,34.5 332.9688,33.9219 L332.9688,36.6406 Z " fill="#000000"/><text fill="#000000" font-family="sans-serif" font-size="14" lengthAdjust="spacing" textLength="99" x="344" y="35.8467">CheckUpListUI</text><line style="stroke:#181818;stroke-width:0.5;" x1="316" x2="445" y1="47" y2="47"/><line style="stroke:#181818;stroke-width:0.5;" x1="316" x2="445" y1="55" y2="55"/></g><!--link Repositories to VehicleRepository--><g id="link_Repositories_VehicleRepository"><path codeLine="56" d="M293.92,198.09 C317.08,210.99 336.3181,221.7207 357.3981,233.4607 " fill="none" id="Repositories-to-VehicleRepository" style="stroke:#181818;stroke-width:1.0;"/><polygon fill="#181818" points="362.64,236.38,356.7234,228.5064,358.2718,233.9472,352.8309,235.4956,362.64,236.38" style="stroke:#181818;stroke-width:1.0;"/><text fill="#000000" font-family="sans-serif" font-size="13" lengthAdjust="spacing" textLength="8" x="342.2939" y="225.2584">1</text></g><!--link Repositories to Repositories--><g id="link_Repositories_Repositories"><path codeLine="57" d="M294.06,129.28 C314.17,130.94 329,137.68 329,149.5 C329,161.32 320.1497,167.5664 300.0397,169.2264 " fill="none" id="Repositories-to-Repositories" style="stroke:#181818;stroke-width:1.0;"/><polygon fill="#181818" points="294.06,169.72,303.3586,172.966,299.0431,169.3087,302.7004,164.9932,294.06,169.72" style="stroke:#181818;stroke-width:1.0;"/><text fill="#000000" font-family="sans-serif" font-size="13" lengthAdjust="spacing" textLength="54" x="335" y="154.0669">instance</text></g><!--link ApplicationSession to ApplicationSession--><g id="link_ApplicationSession_ApplicationSession"><path codeLine="59" d="M791.51,254.1 C811.57,255.17 826.5,259.97 826.5,268.5 C826.5,277.03 817.5615,281.5104 797.5015,282.5804 " fill="none" id="ApplicationSession-to-ApplicationSession" style="stroke:#181818;stroke-width:1.0;"/><polygon fill="#181818" points="791.51,282.9,800.7103,286.4149,796.5029,282.6337,800.2842,278.4263,791.51,282.9" style="stroke:#181818;stroke-width:1.0;"/><text fill="#000000" font-family="sans-serif" font-size="13" lengthAdjust="spacing" textLength="54" x="832.5" y="273.0669">instance</text></g><!--link ApplicationSession to UserSession--><g id="link_ApplicationSession_UserSession"><path codeLine="60" d="M756.61,309.27 C796.58,343.02 847.5,386 847.5,386 C847.5,386 885.7412,443.8448 908.9512,478.9548 " fill="none" id="ApplicationSession-to-UserSession" style="stroke:#181818;stroke-width:1.0;"/><polygon fill="#181818" points="912.26,483.96,910.6337,474.2464,909.5027,479.789,903.96,478.658,912.26,483.96" style="stroke:#181818;stroke-width:1.0;"/><text fill="#000000" font-family="sans-serif" font-size="13" lengthAdjust="spacing" textLength="78" x="810.5" y="352.0669">userSession</text><text fill="#000000" font-family="sans-serif" font-size="13" lengthAdjust="spacing" textLength="8" x="899.3298" y="472.9618">1</text></g><!--link CheckUpListUI to CheckUpListController--><g id="link_CheckUpListUI_CheckUpListController"><path codeLine="62" d="M446.42,39 C451.3,39 460.58,39 474.83,39 " fill="none" id="CheckUpListUI-to-CheckUpListController" style="stroke:#181818;stroke-width:1.0;stroke-dasharray:7.0,7.0;"/><polygon fill="#181818" points="480.83,39,471.83,35,475.83,39,471.83,43,480.83,39" style="stroke:#181818;stroke-width:1.0;"/></g><!--link CheckUpListController to Repositories--><g id="link_CheckUpListController_Repositories"><path codeLine="64" d="M480.92,67.52 C423.48,84.6 355.9311,104.6697 299.8411,121.3497 " fill="none" id="CheckUpListController-to-Repositories" style="stroke:#181818;stroke-width:1.0;stroke-dasharray:7.0,7.0;"/><polygon fill="#181818" points="294.09,123.06,303.8568,124.3287,298.8826,121.6348,301.5765,116.6606,294.09,123.06" style="stroke:#181818;stroke-width:1.0;"/><text fill="#000000" font-family="sans-serif" font-size="13" lengthAdjust="spacing" textLength="75" x="311.51" y="91.3569">repositories</text></g><!--link CheckUpListController to ApplicationSession--><g id="link_CheckUpListController_ApplicationSession"><path codeLine="65" d="M632.52,71.04 C661.18,86.11 689.5,101 689.5,101 C689.5,101 698.0741,172.4029 703.9941,221.6629 " fill="none" id="CheckUpListController-to-ApplicationSession" style="stroke:#181818;stroke-width:1.0;stroke-dasharray:7.0,7.0;"/><polygon fill="#181818" points="704.71,227.62,707.6075,218.207,704.1134,222.6557,699.6647,219.1616,704.71,227.62" style="stroke:#181818;stroke-width:1.0;"/></g><!--link CheckUpListController to UserSession--><g id="link_CheckUpListController_UserSession"><path codeLine="66" d="M648.8,71.04 C685.36,86.11 721.5,101 721.5,101 C721.5,101 893.5,228 893.5,228 C893.5,228 915.7643,410.6841 923.9343,477.7341 " fill="none" id="CheckUpListController-to-UserSession" style="stroke:#181818;stroke-width:1.0;stroke-dasharray:7.0,7.0;"/><polygon fill="#181818" points="924.66,483.69,927.542,474.2723,924.0552,478.7267,919.6008,475.2399,924.66,483.69" style="stroke:#181818;stroke-width:1.0;"/></g><!--link CheckUpListController to VehicleRepository--><g id="link_CheckUpListController_VehicleRepository"><path codeLine="67" d="M493.11,71.04 C454.08,86.11 415.5,101 415.5,101 C415.5,101 415.5,198 415.5,198 C415.5,198 416.1009,211.9056 416.9009,230.4156 " fill="none" id="CheckUpListController-to-VehicleRepository" style="stroke:#181818;stroke-width:1.0;stroke-dasharray:7.0,7.0;"/><polygon fill="#181818" points="417.16,236.41,420.7677,227.2457,416.9441,231.4147,412.7751,227.5911,417.16,236.41" style="stroke:#181818;stroke-width:1.0;"/><text fill="#000000" font-family="sans-serif" font-size="13" lengthAdjust="spacing" textLength="113" x="416.5" y="154.0669">VehicleRepository</text></g><!--link CheckUpListController to VehicleRepository--><g id="link_CheckUpListController_VehicleRepository"><path codeLine="68" d="M565.79,71.22 C554.43,117.26 534.5,198 534.5,198 C534.5,198 506.4267,214.816 475.5367,233.326 " fill="none" id="CheckUpListController-to-VehicleRepository-1" style="stroke:#181818;stroke-width:1.0;stroke-dasharray:7.0,7.0;"/><polygon fill="#181818" points="470.39,236.41,480.1661,235.2151,474.6789,233.84,476.0541,228.3528,470.39,236.41" style="stroke:#181818;stroke-width:1.0;"/><text fill="#000000" font-family="sans-serif" font-size="13" lengthAdjust="spacing" textLength="113" x="558.5" y="154.0669">VehicleRepository</text></g><!--link VehicleRepository to Vehicle--><g id="link_VehicleRepository_Vehicle"><path codeLine="71" d="M418.5,300.55 C418.5,322.74 418.5,348.17 418.5,379.82 " fill="none" id="VehicleRepository-to-Vehicle" style="stroke:#181818;stroke-width:1.0;"/><polygon fill="#181818" points="418.5,385.82,422.5,376.82,418.5,380.82,414.5,376.82,418.5,385.82" style="stroke:#181818;stroke-width:1.0;"/><text fill="#000000" font-family="sans-serif" font-size="13" lengthAdjust="spacing" textLength="51" x="419.5" y="352.0669">vehicles</text><text fill="#000000" font-family="sans-serif" font-size="13" lengthAdjust="spacing" textLength="8" x="409.675" y="320.7572">1</text><text fill="#000000" font-family="sans-serif" font-size="13" lengthAdjust="spacing" textLength="7" x="411.2867" y="375.0019">*</text></g><!--SRC=[fLEnRjim4Dtv5OSiJbl5Q5SF0G8N1OoqImstCqEV9S8KgHnFBTIW_rvIOcpAKhpKWoo-UuzyxuvQ-AEsZIHPG-siKnMv6e6fHN6kD58TPObRxWm2eM9fIvCJV2NtxhUs9HoayNd5Q8lSDGYDCrrSYCLCqH4xaQcKaTu_C9D-QXatojcj_eFmKOY5mGC3Eo1TLWnx7UrePuNeDV3GD4Oh6Q4jUX_-NWI4tmVm75059VB6XdUhyFPTAWLitHAXvQG9bR-lE-uyqcchW2Ru1rPQXNOCsz_14qcxNy4sUBPbmcgtHtE1DKOoha1RJa1im0M79Oqe9JdlVs9CVC5KWsry_9Rp2Klj6UbpVrHyfe9KpwtsEdPdKZiGFhTeLRUkK1qVws73rA6KzhPFMGp1YY5BqISeUjD5RhN8t1KZJyMbaK2DXxRDbrSJ-MXYQTTy3V9yBidITsnSsCXH1ozND4bqOclqfz7bO7udvkx9v5HnTfGTkdQMoHc3z8QhMTLk0yCL6zcykuURJpVJl1FMQ1t7DzWNOlfHHFeCcedcDCb9zaK4HNjU2J4EixoVxyc8bxLgESb0sV8jqN8koXLoPlyAQtgzLZCZ-5-z45DUR77VwlUdeGVjh-7DYty0]--></g></svg>