<?xml version="1.0" encoding="us-ascii" standalone="no"?><svg xmlns="http://www.w3.org/2000/svg" xmlns:xlink="http://www.w3.org/1999/xlink" contentStyleType="text/css" height="891px" preserveAspectRatio="none" style="width:1357px;height:891px;background:#FFFFFF;" version="1.1" viewBox="0 0 1357 891" width="1357px" zoomAndPan="magnify"><defs/><g><!--class ApplicationSession--><g id="elem_ApplicationSession"><rect codeLine="11" fill="#F1F1F1" height="85.2422" id="ApplicationSession" rx="2.5" ry="2.5" style="stroke:#181818;stroke-width:0.5;" width="151" x="991.5" y="266"/><ellipse cx="1006.5" cy="282" fill="#ADD1B2" rx="11" ry="11" style="stroke:#181818;stroke-width:1.0;"/><path d="M1009.2656,277.875 Q1009.4219,277.6563 1009.6094,277.5469 Q1009.7969,277.4375 1010.0156,277.4375 Q1010.3906,277.4375 1010.625,277.7031 Q1010.8594,277.9531 1010.8594,278.5625 L1010.8594,280.0156 Q1010.8594,280.625 1010.625,280.8906 Q1010.3906,281.1563 1010.0156,281.1563 Q1009.6719,281.1563 1009.4688,280.9531 Q1009.2656,280.7656 1009.1563,280.25 Q1009.1094,279.8906 1008.9219,279.7031 Q1008.5938,279.3281 1007.9844,279.1094 Q1007.375,278.8906 1006.75,278.8906 Q1005.9844,278.8906 1005.3438,279.2188 Q1004.7188,279.5469 1004.2188,280.2969 Q1003.7344,281.0469 1003.7344,282.0781 L1003.7344,283.1719 Q1003.7344,284.4063 1004.625,285.2344 Q1005.5156,286.0469 1007.1094,286.0469 Q1008.0469,286.0469 1008.7031,285.7969 Q1009.0938,285.6406 1009.5156,285.2031 Q1009.7813,284.9375 1009.9219,284.8594 Q1010.0781,284.7813 1010.2813,284.7813 Q1010.6094,284.7813 1010.8594,285.0469 Q1011.125,285.2969 1011.125,285.6406 Q1011.125,285.9844 1010.7813,286.3906 Q1010.2813,286.9688 1009.4844,287.2969 Q1008.4063,287.75 1007.1094,287.75 Q1005.5938,287.75 1004.3906,287.125 Q1003.4063,286.625 1002.7188,285.5625 Q1002.0313,284.4844 1002.0313,283.2031 L1002.0313,282.0469 Q1002.0313,280.7188 1002.6406,279.5781 Q1003.2656,278.4219 1004.3594,277.8125 Q1005.4531,277.1875 1006.6875,277.1875 Q1007.4219,277.1875 1008.0625,277.3594 Q1008.7188,277.5156 1009.2656,277.875 Z " fill="#000000"/><text fill="#000000" font-family="sans-serif" font-size="14" lengthAdjust="spacing" textLength="119" x="1020.5" y="287.7969">ApplicationSession</text><line style="stroke:#181818;stroke-width:0.5;" x1="992.5" x2="1141.5" y1="298" y2="298"/><line style="stroke:#181818;stroke-width:0.5;" x1="992.5" x2="1141.5" y1="306" y2="306"/><text fill="#000000" font-family="sans-serif" font-size="14" lengthAdjust="spacing" textLength="128" x="997.5" y="325.1074">+static getInstance()</text><text fill="#000000" font-family="sans-serif" font-size="14" lengthAdjust="spacing" textLength="136" x="997.5" y="343.7285">+getCurrentSession()</text></g><!--class UserSession--><g id="elem_UserSession"><rect codeLine="17" fill="#F1F1F1" height="66.6211" id="UserSession" rx="2.5" ry="2.5" style="stroke:#181818;stroke-width:0.5;" width="113" x="1142.5" y="523"/><ellipse cx="1158.4" cy="539" fill="#ADD1B2" rx="11" ry="11" style="stroke:#181818;stroke-width:1.0;"/><path d="M1161.1656,534.875 Q1161.3219,534.6563 1161.5094,534.5469 Q1161.6969,534.4375 1161.9156,534.4375 Q1162.2906,534.4375 1162.525,534.7031 Q1162.7594,534.9531 1162.7594,535.5625 L1162.7594,537.0156 Q1162.7594,537.625 1162.525,537.8906 Q1162.2906,538.1563 1161.9156,538.1563 Q1161.5719,538.1563 1161.3688,537.9531 Q1161.1656,537.7656 1161.0563,537.25 Q1161.0094,536.8906 1160.8219,536.7031 Q1160.4938,536.3281 1159.8844,536.1094 Q1159.275,535.8906 1158.65,535.8906 Q1157.8844,535.8906 1157.2438,536.2188 Q1156.6188,536.5469 1156.1188,537.2969 Q1155.6344,538.0469 1155.6344,539.0781 L1155.6344,540.1719 Q1155.6344,541.4063 1156.525,542.2344 Q1157.4156,543.0469 1159.0094,543.0469 Q1159.9469,543.0469 1160.6031,542.7969 Q1160.9938,542.6406 1161.4156,542.2031 Q1161.6813,541.9375 1161.8219,541.8594 Q1161.9781,541.7813 1162.1813,541.7813 Q1162.5094,541.7813 1162.7594,542.0469 Q1163.025,542.2969 1163.025,542.6406 Q1163.025,542.9844 1162.6813,543.3906 Q1162.1813,543.9688 1161.3844,544.2969 Q1160.3063,544.75 1159.0094,544.75 Q1157.4938,544.75 1156.2906,544.125 Q1155.3063,543.625 1154.6188,542.5625 Q1153.9313,541.4844 1153.9313,540.2031 L1153.9313,539.0469 Q1153.9313,537.7188 1154.5406,536.5781 Q1155.1656,535.4219 1156.2594,534.8125 Q1157.3531,534.1875 1158.5875,534.1875 Q1159.3219,534.1875 1159.9625,534.3594 Q1160.6188,534.5156 1161.1656,534.875 Z " fill="#000000"/><text fill="#000000" font-family="sans-serif" font-size="14" lengthAdjust="spacing" textLength="79" x="1172.6" y="544.7969">UserSession</text><line style="stroke:#181818;stroke-width:0.5;" x1="1143.5" x2="1254.5" y1="555" y2="555"/><line style="stroke:#181818;stroke-width:0.5;" x1="1143.5" x2="1254.5" y1="563" y2="563"/><text fill="#000000" font-family="sans-serif" font-size="14" lengthAdjust="spacing" textLength="101" x="1148.5" y="582.1074">+getUserEmail()</text></g><!--class Employee--><g id="elem_Employee"><rect codeLine="22" fill="#F1F1F1" height="122.4844" id="Employee" rx="2.5" ry="2.5" style="stroke:#181818;stroke-width:0.5;" width="94" x="337" y="762"/><ellipse cx="352" cy="778" fill="#ADD1B2" rx="11" ry="11" style="stroke:#181818;stroke-width:1.0;"/><path d="M354.7656,773.875 Q354.9219,773.6563 355.1094,773.5469 Q355.2969,773.4375 355.5156,773.4375 Q355.8906,773.4375 356.125,773.7031 Q356.3594,773.9531 356.3594,774.5625 L356.3594,776.0156 Q356.3594,776.625 356.125,776.8906 Q355.8906,777.1563 355.5156,777.1563 Q355.1719,777.1563 354.9688,776.9531 Q354.7656,776.7656 354.6563,776.25 Q354.6094,775.8906 354.4219,775.7031 Q354.0938,775.3281 353.4844,775.1094 Q352.875,774.8906 352.25,774.8906 Q351.4844,774.8906 350.8438,775.2188 Q350.2188,775.5469 349.7188,776.2969 Q349.2344,777.0469 349.2344,778.0781 L349.2344,779.1719 Q349.2344,780.4063 350.125,781.2344 Q351.0156,782.0469 352.6094,782.0469 Q353.5469,782.0469 354.2031,781.7969 Q354.5938,781.6406 355.0156,781.2031 Q355.2813,780.9375 355.4219,780.8594 Q355.5781,780.7813 355.7813,780.7813 Q356.1094,780.7813 356.3594,781.0469 Q356.625,781.2969 356.625,781.6406 Q356.625,781.9844 356.2813,782.3906 Q355.7813,782.9688 354.9844,783.2969 Q353.9063,783.75 352.6094,783.75 Q351.0938,783.75 349.8906,783.125 Q348.9063,782.625 348.2188,781.5625 Q347.5313,780.4844 347.5313,779.2031 L347.5313,778.0469 Q347.5313,776.7188 348.1406,775.5781 Q348.7656,774.4219 349.8594,773.8125 Q350.9531,773.1875 352.1875,773.1875 Q352.9219,773.1875 353.5625,773.3594 Q354.2188,773.5156 354.7656,773.875 Z " fill="#000000"/><text fill="#000000" font-family="sans-serif" font-size="14" lengthAdjust="spacing" textLength="62" x="366" y="783.7969">Employee</text><line style="stroke:#181818;stroke-width:0.5;" x1="338" x2="430" y1="794" y2="794"/><text fill="#000000" font-family="sans-serif" font-size="14" lengthAdjust="spacing" textLength="40" x="343" y="813.1074">-name</text><text fill="#000000" font-family="sans-serif" font-size="14" lengthAdjust="spacing" textLength="38" x="343" y="831.7285">-email</text><text fill="#000000" font-family="sans-serif" font-size="14" lengthAdjust="spacing" textLength="54" x="343" y="850.3496">-position</text><text fill="#000000" font-family="sans-serif" font-size="14" lengthAdjust="spacing" textLength="45" x="343" y="868.9707">-phone</text><line style="stroke:#181818;stroke-width:0.5;" x1="338" x2="430" y1="876.4844" y2="876.4844"/></g><!--class Vehicle--><g id="elem_Vehicle"><rect codeLine="29" fill="#F1F1F1" height="252.832" id="Vehicle" rx="2.5" ry="2.5" style="stroke:#181818;stroke-width:0.5;" width="754" x="7" y="430"/><ellipse cx="356.75" cy="446" fill="#ADD1B2" rx="11" ry="11" style="stroke:#181818;stroke-width:1.0;"/><path d="M359.5156,441.875 Q359.6719,441.6563 359.8594,441.5469 Q360.0469,441.4375 360.2656,441.4375 Q360.6406,441.4375 360.875,441.7031 Q361.1094,441.9531 361.1094,442.5625 L361.1094,444.0156 Q361.1094,444.625 360.875,444.8906 Q360.6406,445.1563 360.2656,445.1563 Q359.9219,445.1563 359.7188,444.9531 Q359.5156,444.7656 359.4063,444.25 Q359.3594,443.8906 359.1719,443.7031 Q358.8438,443.3281 358.2344,443.1094 Q357.625,442.8906 357,442.8906 Q356.2344,442.8906 355.5938,443.2188 Q354.9688,443.5469 354.4688,444.2969 Q353.9844,445.0469 353.9844,446.0781 L353.9844,447.1719 Q353.9844,448.4063 354.875,449.2344 Q355.7656,450.0469 357.3594,450.0469 Q358.2969,450.0469 358.9531,449.7969 Q359.3438,449.6406 359.7656,449.2031 Q360.0313,448.9375 360.1719,448.8594 Q360.3281,448.7813 360.5313,448.7813 Q360.8594,448.7813 361.1094,449.0469 Q361.375,449.2969 361.375,449.6406 Q361.375,449.9844 361.0313,450.3906 Q360.5313,450.9688 359.7344,451.2969 Q358.6563,451.75 357.3594,451.75 Q355.8438,451.75 354.6406,451.125 Q353.6563,450.625 352.9688,449.5625 Q352.2813,448.4844 352.2813,447.2031 L352.2813,446.0469 Q352.2813,444.7188 352.8906,443.5781 Q353.5156,442.4219 354.6094,441.8125 Q355.7031,441.1875 356.9375,441.1875 Q357.6719,441.1875 358.3125,441.3594 Q358.9688,441.5156 359.5156,441.875 Z " fill="#000000"/><text fill="#000000" font-family="sans-serif" font-size="14" lengthAdjust="spacing" textLength="46" x="377.25" y="451.7969">Vehicle</text><line style="stroke:#181818;stroke-width:0.5;" x1="8" x2="760" y1="462" y2="462"/><text fill="#000000" font-family="sans-serif" font-size="14" lengthAdjust="spacing" textLength="83" x="13" y="481.1074">-String brand</text><text fill="#000000" font-family="sans-serif" font-size="14" lengthAdjust="spacing" textLength="84" x="13" y="499.7285">-String model</text><text fill="#000000" font-family="sans-serif" font-size="14" lengthAdjust="spacing" textLength="84" x="13" y="518.3496">-Integer plate</text><text fill="#000000" font-family="sans-serif" font-size="14" lengthAdjust="spacing" textLength="73" x="13" y="536.9707">-String type</text><text fill="#000000" font-family="sans-serif" font-size="14" lengthAdjust="spacing" textLength="78" x="13" y="555.5918">-Integer tare</text><text fill="#000000" font-family="sans-serif" font-size="14" lengthAdjust="spacing" textLength="125" x="13" y="574.2129">-String grossWeight</text><text fill="#000000" font-family="sans-serif" font-size="14" lengthAdjust="spacing" textLength="126" x="13" y="592.834">-Integer currenteKM</text><text fill="#000000" font-family="sans-serif" font-size="14" lengthAdjust="spacing" textLength="124" x="13" y="611.4551">-String registerDate</text><text fill="#000000" font-family="sans-serif" font-size="14" lengthAdjust="spacing" textLength="143" x="13" y="630.0762">-String acquisitionDate</text><text fill="#000000" font-family="sans-serif" font-size="14" lengthAdjust="spacing" textLength="174" x="13" y="648.6973">-Integer checkupFrequency</text><line style="stroke:#181818;stroke-width:0.5;" x1="8" x2="760" y1="656.2109" y2="656.2109"/><text fill="#000000" font-family="sans-serif" font-size="14" lengthAdjust="spacing" textLength="742" x="13" y="675.3184">+Vehicle(brand, model, plate, type, tare, grossWeight, currenteKM, registerDate, acquisitionDate, checkupFrequency)</text></g><!--class VehicleCheckUpRepository--><g id="elem_VehicleCheckUpRepository"><rect codeLine="46" fill="#F1F1F1" height="85.2422" id="VehicleCheckUpRepository" rx="2.5" ry="2.5" style="stroke:#181818;stroke-width:0.5;" width="203" x="665.5" y="266"/><ellipse cx="680.5" cy="282" fill="#ADD1B2" rx="11" ry="11" style="stroke:#181818;stroke-width:1.0;"/><path d="M683.2656,277.875 Q683.4219,277.6563 683.6094,277.5469 Q683.7969,277.4375 684.0156,277.4375 Q684.3906,277.4375 684.625,277.7031 Q684.8594,277.9531 684.8594,278.5625 L684.8594,280.0156 Q684.8594,280.625 684.625,280.8906 Q684.3906,281.1563 684.0156,281.1563 Q683.6719,281.1563 683.4688,280.9531 Q683.2656,280.7656 683.1563,280.25 Q683.1094,279.8906 682.9219,279.7031 Q682.5938,279.3281 681.9844,279.1094 Q681.375,278.8906 680.75,278.8906 Q679.9844,278.8906 679.3438,279.2188 Q678.7188,279.5469 678.2188,280.2969 Q677.7344,281.0469 677.7344,282.0781 L677.7344,283.1719 Q677.7344,284.4063 678.625,285.2344 Q679.5156,286.0469 681.1094,286.0469 Q682.0469,286.0469 682.7031,285.7969 Q683.0938,285.6406 683.5156,285.2031 Q683.7813,284.9375 683.9219,284.8594 Q684.0781,284.7813 684.2813,284.7813 Q684.6094,284.7813 684.8594,285.0469 Q685.125,285.2969 685.125,285.6406 Q685.125,285.9844 684.7813,286.3906 Q684.2813,286.9688 683.4844,287.2969 Q682.4063,287.75 681.1094,287.75 Q679.5938,287.75 678.3906,287.125 Q677.4063,286.625 676.7188,285.5625 Q676.0313,284.4844 676.0313,283.2031 L676.0313,282.0469 Q676.0313,280.7188 676.6406,279.5781 Q677.2656,278.4219 678.3594,277.8125 Q679.4531,277.1875 680.6875,277.1875 Q681.4219,277.1875 682.0625,277.3594 Q682.7188,277.5156 683.2656,277.875 Z " fill="#000000"/><text fill="#000000" font-family="sans-serif" font-size="14" lengthAdjust="spacing" textLength="171" x="694.5" y="287.7969">VehicleCheckUpRepository</text><line style="stroke:#181818;stroke-width:0.5;" x1="666.5" x2="867.5" y1="298" y2="298"/><line style="stroke:#181818;stroke-width:0.5;" x1="666.5" x2="867.5" y1="306" y2="306"/><text fill="#000000" font-family="sans-serif" font-size="14" lengthAdjust="spacing" textLength="175" x="671.5" y="325.1074">+getVehicleByBrand(brand)</text><text fill="#000000" font-family="sans-serif" font-size="14" lengthAdjust="spacing" textLength="163" x="671.5" y="343.7285">+getVehicleCehckUpList()</text></g><!--class Repositories--><g id="elem_Repositories"><rect codeLine="53" fill="#F1F1F1" height="103.8633" id="Repositories" rx="2.5" ry="2.5" style="stroke:#181818;stroke-width:0.5;" width="194" x="454" y="132"/><ellipse cx="507.25" cy="148" fill="#ADD1B2" rx="11" ry="11" style="stroke:#181818;stroke-width:1.0;"/><path d="M510.0156,143.875 Q510.1719,143.6563 510.3594,143.5469 Q510.5469,143.4375 510.7656,143.4375 Q511.1406,143.4375 511.375,143.7031 Q511.6094,143.9531 511.6094,144.5625 L511.6094,146.0156 Q511.6094,146.625 511.375,146.8906 Q511.1406,147.1563 510.7656,147.1563 Q510.4219,147.1563 510.2188,146.9531 Q510.0156,146.7656 509.9063,146.25 Q509.8594,145.8906 509.6719,145.7031 Q509.3438,145.3281 508.7344,145.1094 Q508.125,144.8906 507.5,144.8906 Q506.7344,144.8906 506.0938,145.2188 Q505.4688,145.5469 504.9688,146.2969 Q504.4844,147.0469 504.4844,148.0781 L504.4844,149.1719 Q504.4844,150.4063 505.375,151.2344 Q506.2656,152.0469 507.8594,152.0469 Q508.7969,152.0469 509.4531,151.7969 Q509.8438,151.6406 510.2656,151.2031 Q510.5313,150.9375 510.6719,150.8594 Q510.8281,150.7813 511.0313,150.7813 Q511.3594,150.7813 511.6094,151.0469 Q511.875,151.2969 511.875,151.6406 Q511.875,151.9844 511.5313,152.3906 Q511.0313,152.9688 510.2344,153.2969 Q509.1563,153.75 507.8594,153.75 Q506.3438,153.75 505.1406,153.125 Q504.1563,152.625 503.4688,151.5625 Q502.7813,150.4844 502.7813,149.2031 L502.7813,148.0469 Q502.7813,146.7188 503.3906,145.5781 Q504.0156,144.4219 505.1094,143.8125 Q506.2031,143.1875 507.4375,143.1875 Q508.1719,143.1875 508.8125,143.3594 Q509.4688,143.5156 510.0156,143.875 Z " fill="#000000"/><text fill="#000000" font-family="sans-serif" font-size="14" lengthAdjust="spacing" textLength="79" x="527.75" y="153.7969">Repositories</text><line style="stroke:#181818;stroke-width:0.5;" x1="455" x2="647" y1="164" y2="164"/><line style="stroke:#181818;stroke-width:0.5;" x1="455" x2="647" y1="172" y2="172"/><text fill="#000000" font-family="sans-serif" font-size="14" lengthAdjust="spacing" textLength="94" x="460" y="191.1074">-Repositories()</text><text fill="#000000" font-family="sans-serif" font-size="14" lengthAdjust="spacing" textLength="182" x="460" y="209.7285">+getInstance() : Repositories</text><text fill="#000000" font-family="sans-serif" font-size="14" lengthAdjust="spacing" textLength="152" x="460" y="228.3496">+getVehicleRepository()</text></g><!--class VehicleCheckUpController--><g id="elem_VehicleCheckUpController"><rect codeLine="59" fill="#F1F1F1" height="85.2422" id="VehicleCheckUpController" rx="2.5" ry="2.5" style="stroke:#181818;stroke-width:0.5;" width="307" x="813.5" y="11.5"/><ellipse cx="880.25" cy="27.5" fill="#ADD1B2" rx="11" ry="11" style="stroke:#181818;stroke-width:1.0;"/><path d="M883.0156,23.375 Q883.1719,23.1563 883.3594,23.0469 Q883.5469,22.9375 883.7656,22.9375 Q884.1406,22.9375 884.375,23.2031 Q884.6094,23.4531 884.6094,24.0625 L884.6094,25.5156 Q884.6094,26.125 884.375,26.3906 Q884.1406,26.6563 883.7656,26.6563 Q883.4219,26.6563 883.2188,26.4531 Q883.0156,26.2656 882.9063,25.75 Q882.8594,25.3906 882.6719,25.2031 Q882.3438,24.8281 881.7344,24.6094 Q881.125,24.3906 880.5,24.3906 Q879.7344,24.3906 879.0938,24.7188 Q878.4688,25.0469 877.9688,25.7969 Q877.4844,26.5469 877.4844,27.5781 L877.4844,28.6719 Q877.4844,29.9063 878.375,30.7344 Q879.2656,31.5469 880.8594,31.5469 Q881.7969,31.5469 882.4531,31.2969 Q882.8438,31.1406 883.2656,30.7031 Q883.5313,30.4375 883.6719,30.3594 Q883.8281,30.2813 884.0313,30.2813 Q884.3594,30.2813 884.6094,30.5469 Q884.875,30.7969 884.875,31.1406 Q884.875,31.4844 884.5313,31.8906 Q884.0313,32.4688 883.2344,32.7969 Q882.1563,33.25 880.8594,33.25 Q879.3438,33.25 878.1406,32.625 Q877.1563,32.125 876.4688,31.0625 Q875.7813,29.9844 875.7813,28.7031 L875.7813,27.5469 Q875.7813,26.2188 876.3906,25.0781 Q877.0156,23.9219 878.1094,23.3125 Q879.2031,22.6875 880.4375,22.6875 Q881.1719,22.6875 881.8125,22.8594 Q882.4688,23.0156 883.0156,23.375 Z " fill="#000000"/><text fill="#000000" font-family="sans-serif" font-size="14" lengthAdjust="spacing" textLength="165" x="900.75" y="33.2969">VehicleCheckUpController</text><line style="stroke:#181818;stroke-width:0.5;" x1="814.5" x2="1119.5" y1="43.5" y2="43.5"/><line style="stroke:#181818;stroke-width:0.5;" x1="814.5" x2="1119.5" y1="51.5" y2="51.5"/><text fill="#000000" font-family="sans-serif" font-size="14" lengthAdjust="spacing" textLength="295" x="819.5" y="70.6074">+VehicleCheckUpController(vehicleRepository)</text><text fill="#000000" font-family="sans-serif" font-size="14" lengthAdjust="spacing" textLength="180" x="819.5" y="89.2285">-getEmployeeFromSession()</text></g><g id="elem_GMN9"><path d="M1156,6 L1156,50 L1120.54,54 L1156,58 L1156,102.4551 A0,0 0 0 0 1156,102.4551 L1350,102.4551 A0,0 0 0 0 1350,102.4551 L1350,16 L1340,6 L1156,6 A0,0 0 0 0 1156,6 " fill="#FEFFDD" style="stroke:#181818;stroke-width:0.5;"/><path d="M1340,6 L1340,16 L1350,16 L1340,6 " fill="#FEFFDD" style="stroke:#181818;stroke-width:0.5;"/><text fill="#000000" font-family="sans-serif" font-size="13" lengthAdjust="spacing" textLength="133" x="1162" y="25.0283">- userEmail is obtained</text><text fill="#000000" font-family="sans-serif" font-size="13" lengthAdjust="spacing" textLength="125" x="1162" y="42.3193">from the user session</text><text fill="#000000" font-family="sans-serif" font-size="13" lengthAdjust="spacing" textLength="123" x="1162" y="59.6104">- categoryDescription</text><text fill="#000000" font-family="sans-serif" font-size="13" lengthAdjust="spacing" textLength="173" x="1162" y="76.9014">is retrieved from selected data</text><text fill="#000000" font-family="sans-serif" font-size="13" lengthAdjust="spacing" textLength="4" x="1162" y="94.1924">&#160;</text></g><g id="elem_GMN12"><path d="M796.5,534 L796.5,578.582 A0,0 0 0 0 796.5,578.582 L933.5,578.582 A0,0 0 0 0 933.5,578.582 L933.5,544 L923.5,534 L860.34,534 L783.62,351.23 L852.34,534 L796.5,534 A0,0 0 0 0 796.5,534 " fill="#FEFFDD" style="stroke:#181818;stroke-width:0.5;"/><path d="M923.5,534 L923.5,544 L933.5,544 L923.5,534 " fill="#FEFFDD" style="stroke:#181818;stroke-width:0.5;"/><text fill="#000000" font-family="sans-serif" font-size="13" lengthAdjust="spacing" textLength="116" x="802.5" y="553.0283">- used for displaying</text><text fill="#000000" font-family="sans-serif" font-size="13" lengthAdjust="spacing" textLength="82" x="802.5" y="570.3193">the vehicle list</text></g><!--class VehicleCheckUpUI--><g id="elem_VehicleCheckUpUI"><rect codeLine="77" fill="#F1F1F1" height="48" id="VehicleCheckUpUI" rx="2.5" ry="2.5" style="stroke:#181818;stroke-width:0.5;" width="147" x="631.5" y="30"/><ellipse cx="646.5" cy="46" fill="#ADD1B2" rx="11" ry="11" style="stroke:#181818;stroke-width:1.0;"/><path d="M649.2656,41.875 Q649.4219,41.6563 649.6094,41.5469 Q649.7969,41.4375 650.0156,41.4375 Q650.3906,41.4375 650.625,41.7031 Q650.8594,41.9531 650.8594,42.5625 L650.8594,44.0156 Q650.8594,44.625 650.625,44.8906 Q650.3906,45.1563 650.0156,45.1563 Q649.6719,45.1563 649.4688,44.9531 Q649.2656,44.7656 649.1563,44.25 Q649.1094,43.8906 648.9219,43.7031 Q648.5938,43.3281 647.9844,43.1094 Q647.375,42.8906 646.75,42.8906 Q645.9844,42.8906 645.3438,43.2188 Q644.7188,43.5469 644.2188,44.2969 Q643.7344,45.0469 643.7344,46.0781 L643.7344,47.1719 Q643.7344,48.4063 644.625,49.2344 Q645.5156,50.0469 647.1094,50.0469 Q648.0469,50.0469 648.7031,49.7969 Q649.0938,49.6406 649.5156,49.2031 Q649.7813,48.9375 649.9219,48.8594 Q650.0781,48.7813 650.2813,48.7813 Q650.6094,48.7813 650.8594,49.0469 Q651.125,49.2969 651.125,49.6406 Q651.125,49.9844 650.7813,50.3906 Q650.2813,50.9688 649.4844,51.2969 Q648.4063,51.75 647.1094,51.75 Q645.5938,51.75 644.3906,51.125 Q643.4063,50.625 642.7188,49.5625 Q642.0313,48.4844 642.0313,47.2031 L642.0313,46.0469 Q642.0313,44.7188 642.6406,43.5781 Q643.2656,42.4219 644.3594,41.8125 Q645.4531,41.1875 646.6875,41.1875 Q647.4219,41.1875 648.0625,41.3594 Q648.7188,41.5156 649.2656,41.875 Z " fill="#000000"/><text fill="#000000" font-family="sans-serif" font-size="14" lengthAdjust="spacing" textLength="115" x="660.5" y="51.7969">VehicleCheckUpUI</text><line style="stroke:#181818;stroke-width:0.5;" x1="632.5" x2="777.5" y1="62" y2="62"/><line style="stroke:#181818;stroke-width:0.5;" x1="632.5" x2="777.5" y1="70" y2="70"/></g><!--link Repositories to VehicleCheckUpRepository--><g id="link_Repositories_VehicleCheckUpRepository"><path codeLine="81" d="M641.04,236.06 C658.52,245.98 671.4199,253.3018 688.2899,262.8618 " fill="none" id="Repositories-to-VehicleCheckUpRepository" style="stroke:#181818;stroke-width:1.0;"/><polygon fill="#181818" points="693.51,265.82,687.652,257.9027,689.1599,263.3549,683.7078,264.8628,693.51,265.82" style="stroke:#181818;stroke-width:1.0;"/><text fill="#000000" font-family="sans-serif" font-size="13" lengthAdjust="spacing" textLength="7" x="674.2397" y="254.6954">1</text></g><!--link Repositories to Repositories--><g id="link_Repositories_Repositories"><path codeLine="82" d="M648.28,161.57 C668.48,163.93 683,171.41 683,184 C683,196.59 674.4395,203.3737 654.2395,205.7337 " fill="none" id="Repositories-to-Repositories" style="stroke:#181818;stroke-width:1.0;"/><polygon fill="#181818" points="648.28,206.43,657.6834,209.3586,653.2462,205.8498,656.755,201.4126,648.28,206.43" style="stroke:#181818;stroke-width:1.0;"/><text fill="#000000" font-family="sans-serif" font-size="13" lengthAdjust="spacing" textLength="49" x="689" y="189.5283">instance</text></g><!--link ApplicationSession to ApplicationSession--><g id="link_ApplicationSession_ApplicationSession"><path codeLine="84" d="M1142.66,293.27 C1162.5,294.17 1177.5,299.25 1177.5,308.5 C1177.5,317.75 1168.4938,322.5581 1148.6538,323.4581 " fill="none" id="ApplicationSession-to-ApplicationSession" style="stroke:#181818;stroke-width:1.0;"/><polygon fill="#181818" points="1142.66,323.73,1151.832,327.318,1147.6549,323.5034,1151.4695,319.3263,1142.66,323.73" style="stroke:#181818;stroke-width:1.0;"/><text fill="#000000" font-family="sans-serif" font-size="13" lengthAdjust="spacing" textLength="49" x="1183.5" y="314.0283">instance</text></g><!--link ApplicationSession to UserSession--><g id="link_ApplicationSession_UserSession"><path codeLine="85" d="M1089.39,351.23 C1115.36,399.62 1154.783,473.0931 1178.533,517.3531 " fill="none" id="ApplicationSession-to-UserSession" style="stroke:#181818;stroke-width:1.0;"/><polygon fill="#181818" points="1181.37,522.64,1180.6392,512.8183,1179.0059,518.2342,1173.5899,516.6009,1181.37,522.64" style="stroke:#181818;stroke-width:1.0;"/><text fill="#000000" font-family="sans-serif" font-size="13" lengthAdjust="spacing" textLength="72" x="1114" y="396.0283">userSession</text><text fill="#000000" font-family="sans-serif" font-size="13" lengthAdjust="spacing" textLength="7" x="1170.3421" y="511.6573">1</text></g><!--link VehicleCheckUpUI to VehicleCheckUpController--><g id="link_VehicleCheckUpUI_VehicleCheckUpController"><path codeLine="87" d="M778.69,54 C786.88,54 792.33,54 792.33,54 C792.33,54 795.29,54 807.47,54 " fill="none" id="VehicleCheckUpUI-to-VehicleCheckUpController" style="stroke:#181818;stroke-width:1.0;stroke-dasharray:7.0,7.0;"/><polygon fill="#181818" points="813.47,54,804.47,50,808.47,54,804.47,58,813.47,54" style="stroke:#181818;stroke-width:1.0;"/></g><!--link VehicleCheckUpController to Repositories--><g id="link_VehicleCheckUpController_Repositories"><path codeLine="89" d="M831.94,96.56 C772.03,114.99 708.6248,134.5059 653.9148,151.3359 " fill="none" id="VehicleCheckUpController-to-Repositories" style="stroke:#181818;stroke-width:1.0;stroke-dasharray:7.0,7.0;"/><polygon fill="#181818" points="648.18,153.1,657.9583,154.277,652.959,151.6299,655.6061,146.6306,648.18,153.1" style="stroke:#181818;stroke-width:1.0;"/><text fill="#000000" font-family="sans-serif" font-size="13" lengthAdjust="spacing" textLength="67" x="672.06" y="120.8583">repositories</text></g><!--link VehicleCheckUpController to ApplicationSession--><g id="link_VehicleCheckUpController_ApplicationSession"><path codeLine="90" d="M1054.1,96.66 C1092.03,114.8 1128,132 1128,132 C1128,132 1128,236 1128,236 C1128,236 1119.7942,245.6155 1106.3742,261.3455 " fill="none" id="VehicleCheckUpController-to-ApplicationSession" style="stroke:#181818;stroke-width:1.0;stroke-dasharray:7.0,7.0;"/><polygon fill="#181818" points="1102.48,265.91,1111.3644,261.6593,1105.7252,262.1062,1105.2783,256.467,1102.48,265.91" style="stroke:#181818;stroke-width:1.0;"/></g><!--link VehicleCheckUpController to UserSession--><g id="link_VehicleCheckUpController_UserSession"><path codeLine="91" d="M1067.89,96.54 C1112.05,114.73 1154,132 1154,132 C1154,132 1239,266 1239,266 C1239,266 1239,351 1239,351 C1239,351 1217.8812,458.9515 1206.5812,516.7515 " fill="none" id="VehicleCheckUpController-to-UserSession" style="stroke:#181818;stroke-width:1.0;stroke-dasharray:7.0,7.0;"/><polygon fill="#181818" points="1205.43,522.64,1211.0825,514.5747,1206.3893,517.7329,1203.2311,513.0397,1205.43,522.64" style="stroke:#181818;stroke-width:1.0;"/></g><!--link VehicleCheckUpController to VehicleCheckUpRepository--><g id="link_VehicleCheckUpController_VehicleCheckUpRepository"><path codeLine="92" d="M857.48,96.54 C809.54,114.73 764,132 764,132 C764,132 764,236 764,236 C764,236 764.3385,244.1853 764.9985,259.9153 " fill="none" id="VehicleCheckUpController-to-VehicleCheckUpRepository" style="stroke:#181818;stroke-width:1.0;stroke-dasharray:7.0,7.0;"/><polygon fill="#181818" points="765.25,265.91,768.8692,256.7502,765.0404,260.9144,760.8762,257.0856,765.25,265.91" style="stroke:#181818;stroke-width:1.0;"/><text fill="#000000" font-family="sans-serif" font-size="13" lengthAdjust="spacing" textLength="158" x="765" y="189.5283">VehicleCheckUpRepository</text></g><!--link VehicleCheckUpController to VehicleCheckUpRepository--><g id="link_VehicleCheckUpController_VehicleCheckUpRepository"><path codeLine="93" d="M958.05,96.53 C946.54,149.96 928,236 928,236 C928,236 901.5536,247.7447 866.1336,263.4747 " fill="none" id="VehicleCheckUpController-to-VehicleCheckUpRepository-1" style="stroke:#181818;stroke-width:1.0;stroke-dasharray:7.0,7.0;"/><polygon fill="#181818" points="860.65,265.91,870.4989,265.9128,865.2196,263.8806,867.2519,258.6014,860.65,265.91" style="stroke:#181818;stroke-width:1.0;"/><text fill="#000000" font-family="sans-serif" font-size="13" lengthAdjust="spacing" textLength="158" x="951" y="189.5283">VehicleCheckUpRepository</text></g><!--link Vehicle to Employee--><g id="link_Vehicle_Employee"><path codeLine="95" d="M384,683.17 C384,710.62 384,732.46 384,755.93 " fill="none" id="Vehicle-to-Employee" style="stroke:#181818;stroke-width:1.0;"/><polygon fill="#181818" points="384,761.93,388,752.93,384,756.93,380,752.93,384,761.93" style="stroke:#181818;stroke-width:1.0;"/><text fill="#000000" font-family="sans-serif" font-size="13" lengthAdjust="spacing" textLength="59" x="385" y="728.0283">createdBy</text></g><!--link VehicleCheckUpRepository to Vehicle--><g id="link_VehicleCheckUpRepository_Vehicle"><path codeLine="97" d="M702.03,351.23 C667.78,373.23 628.7884,398.2675 584.4784,426.7275 " fill="none" id="VehicleCheckUpRepository-to-Vehicle" style="stroke:#181818;stroke-width:1.0;"/><polygon fill="#181818" points="579.43,429.97,589.1642,428.4718,583.637,427.2679,584.8409,421.7406,579.43,429.97" style="stroke:#181818;stroke-width:1.0;"/><text fill="#000000" font-family="sans-serif" font-size="13" lengthAdjust="spacing" textLength="46" x="655" y="396.0283">vehicles</text><text fill="#000000" font-family="sans-serif" font-size="13" lengthAdjust="spacing" textLength="7" x="684.1176" y="373.427">1</text><text fill="#000000" font-family="sans-serif" font-size="13" lengthAdjust="spacing" textLength="5" x="586.1867" y="418.7839">*</text></g><!--SRC=[hLKzRzim4DtvAuWiIHebQ5SF0H8d0OosIusqCqsT9I8KgP2d56hG_zwZHCkKP6Mg9_7ktUEx3vxF_OiojN2YufKrLfRELi3HDS2Edbh85r705biDt854OGgT0dmfSljRcOBlXVQfHoi3sDR0QwlRS63d9vpMeML9bDJ2-pj4ftODmaPQirL_W7zcx5p37ZbQxbHH8izLaAEiOQoBuNTrhPKKmRG5xuFddN7wNN6FP9Qy0DmO-ZOIBYwZYsphnZam68F8y_T0-Up1JRae89WVAw5qYdsiQcrR0Du3hxaH5SHF2E3uNLklEjdnM5ggpC3o4qebzP5aIuMWskwSCFdOLDaS3fmRWr20uxKM26DOAF84XS9DG8Mptl-2KDS9LlQrWQ_Vnn4E2kKHtCFiGY5V6zMdc3W7lXBaIrC_ENXjmCYMnQh6l2-wHBC-kQpF9-joo3hPMIerIzHb8qNPL4KskxZhtAJgwu1vhdz0roFhMfuqFMBks_iWiHTwENEleGmKtqWA3KTtHt_5GAh03zrDZUb47gUKhqQWsNr7hUaiZlDPMuFEQatbVn-NUmQuU9lINaQfTELXmfzeKOmUYx48yLNQ_I9t96eEZuShp-qE1Ms2VhJtnCknX0x2VNntVHIzQoX8pWDuwLGzF23YS4231s-GzmGUDEq5EkK21MDWSXxqHPKxYqYWcSnZmaUPH6WTxHbFOzZIQ7UUe2yMYPQOn-I2KxL_tb3DmnIC-dzzoy- -d2rBc897vnLNSJmOc- -y03zXJO9EnKH1oRwZY2RPVcoMritjSgVPuW3Up99nwNWlnzsSIkjZVBgzFmGkFl_LSel-E-61iMl6y6Uouj81pNv-tqwhcj26tdKz_3GC5KN6CVNi7m00]--></g></svg>