<?xml version="1.0" encoding="us-ascii" standalone="no"?><svg xmlns="http://www.w3.org/2000/svg" xmlns:xlink="http://www.w3.org/1999/xlink" contentStyleType="text/css" height="881px" preserveAspectRatio="none" style="width:1300px;height:881px;background:#FFFFFF;" version="1.1" viewBox="0 0 1300 881" width="1300px" zoomAndPan="magnify"><defs/><g><!--class ApplicationSession--><g id="elem_ApplicationSession"><rect codeLine="11" fill="#F1F1F1" height="85.2422" id="ApplicationSession" rx="2.5" ry="2.5" style="stroke:#181818;stroke-width:0.5;" width="151" x="957.5" y="256"/><ellipse cx="972.5" cy="272" fill="#ADD1B2" rx="11" ry="11" style="stroke:#181818;stroke-width:1.0;"/><path d="M975.2656,267.875 Q975.4219,267.6563 975.6094,267.5469 Q975.7969,267.4375 976.0156,267.4375 Q976.3906,267.4375 976.625,267.7031 Q976.8594,267.9531 976.8594,268.5625 L976.8594,270.0156 Q976.8594,270.625 976.625,270.8906 Q976.3906,271.1563 976.0156,271.1563 Q975.6719,271.1563 975.4688,270.9531 Q975.2656,270.7656 975.1563,270.25 Q975.1094,269.8906 974.9219,269.7031 Q974.5938,269.3281 973.9844,269.1094 Q973.375,268.8906 972.75,268.8906 Q971.9844,268.8906 971.3438,269.2188 Q970.7188,269.5469 970.2188,270.2969 Q969.7344,271.0469 969.7344,272.0781 L969.7344,273.1719 Q969.7344,274.4063 970.625,275.2344 Q971.5156,276.0469 973.1094,276.0469 Q974.0469,276.0469 974.7031,275.7969 Q975.0938,275.6406 975.5156,275.2031 Q975.7813,274.9375 975.9219,274.8594 Q976.0781,274.7813 976.2813,274.7813 Q976.6094,274.7813 976.8594,275.0469 Q977.125,275.2969 977.125,275.6406 Q977.125,275.9844 976.7813,276.3906 Q976.2813,276.9688 975.4844,277.2969 Q974.4063,277.75 973.1094,277.75 Q971.5938,277.75 970.3906,277.125 Q969.4063,276.625 968.7188,275.5625 Q968.0313,274.4844 968.0313,273.2031 L968.0313,272.0469 Q968.0313,270.7188 968.6406,269.5781 Q969.2656,268.4219 970.3594,267.8125 Q971.4531,267.1875 972.6875,267.1875 Q973.4219,267.1875 974.0625,267.3594 Q974.7188,267.5156 975.2656,267.875 Z " fill="#000000"/><text fill="#000000" font-family="sans-serif" font-size="14" lengthAdjust="spacing" textLength="119" x="986.5" y="277.7969">ApplicationSession</text><line style="stroke:#181818;stroke-width:0.5;" x1="958.5" x2="1107.5" y1="288" y2="288"/><line style="stroke:#181818;stroke-width:0.5;" x1="958.5" x2="1107.5" y1="296" y2="296"/><text fill="#000000" font-family="sans-serif" font-size="14" lengthAdjust="spacing" textLength="128" x="963.5" y="315.1074">+static getInstance()</text><text fill="#000000" font-family="sans-serif" font-size="14" lengthAdjust="spacing" textLength="136" x="963.5" y="333.7285">+getCurrentSession()</text></g><!--class UserSession--><g id="elem_UserSession"><rect codeLine="17" fill="#F1F1F1" height="66.6211" id="UserSession" rx="2.5" ry="2.5" style="stroke:#181818;stroke-width:0.5;" width="113" x="1112.5" y="513"/><ellipse cx="1128.4" cy="529" fill="#ADD1B2" rx="11" ry="11" style="stroke:#181818;stroke-width:1.0;"/><path d="M1131.1656,524.875 Q1131.3219,524.6563 1131.5094,524.5469 Q1131.6969,524.4375 1131.9156,524.4375 Q1132.2906,524.4375 1132.525,524.7031 Q1132.7594,524.9531 1132.7594,525.5625 L1132.7594,527.0156 Q1132.7594,527.625 1132.525,527.8906 Q1132.2906,528.1563 1131.9156,528.1563 Q1131.5719,528.1563 1131.3688,527.9531 Q1131.1656,527.7656 1131.0563,527.25 Q1131.0094,526.8906 1130.8219,526.7031 Q1130.4938,526.3281 1129.8844,526.1094 Q1129.275,525.8906 1128.65,525.8906 Q1127.8844,525.8906 1127.2438,526.2188 Q1126.6188,526.5469 1126.1188,527.2969 Q1125.6344,528.0469 1125.6344,529.0781 L1125.6344,530.1719 Q1125.6344,531.4063 1126.525,532.2344 Q1127.4156,533.0469 1129.0094,533.0469 Q1129.9469,533.0469 1130.6031,532.7969 Q1130.9938,532.6406 1131.4156,532.2031 Q1131.6813,531.9375 1131.8219,531.8594 Q1131.9781,531.7813 1132.1813,531.7813 Q1132.5094,531.7813 1132.7594,532.0469 Q1133.025,532.2969 1133.025,532.6406 Q1133.025,532.9844 1132.6813,533.3906 Q1132.1813,533.9688 1131.3844,534.2969 Q1130.3063,534.75 1129.0094,534.75 Q1127.4938,534.75 1126.2906,534.125 Q1125.3063,533.625 1124.6188,532.5625 Q1123.9313,531.4844 1123.9313,530.2031 L1123.9313,529.0469 Q1123.9313,527.7188 1124.5406,526.5781 Q1125.1656,525.4219 1126.2594,524.8125 Q1127.3531,524.1875 1128.5875,524.1875 Q1129.3219,524.1875 1129.9625,524.3594 Q1130.6188,524.5156 1131.1656,524.875 Z " fill="#000000"/><text fill="#000000" font-family="sans-serif" font-size="14" lengthAdjust="spacing" textLength="79" x="1142.6" y="534.7969">UserSession</text><line style="stroke:#181818;stroke-width:0.5;" x1="1113.5" x2="1224.5" y1="545" y2="545"/><line style="stroke:#181818;stroke-width:0.5;" x1="1113.5" x2="1224.5" y1="553" y2="553"/><text fill="#000000" font-family="sans-serif" font-size="14" lengthAdjust="spacing" textLength="101" x="1118.5" y="572.1074">+getUserEmail()</text></g><!--class Employee--><g id="elem_Employee"><rect codeLine="22" fill="#F1F1F1" height="122.4844" id="Employee" rx="2.5" ry="2.5" style="stroke:#181818;stroke-width:0.5;" width="94" x="337" y="752"/><ellipse cx="352" cy="768" fill="#ADD1B2" rx="11" ry="11" style="stroke:#181818;stroke-width:1.0;"/><path d="M354.7656,763.875 Q354.9219,763.6563 355.1094,763.5469 Q355.2969,763.4375 355.5156,763.4375 Q355.8906,763.4375 356.125,763.7031 Q356.3594,763.9531 356.3594,764.5625 L356.3594,766.0156 Q356.3594,766.625 356.125,766.8906 Q355.8906,767.1563 355.5156,767.1563 Q355.1719,767.1563 354.9688,766.9531 Q354.7656,766.7656 354.6563,766.25 Q354.6094,765.8906 354.4219,765.7031 Q354.0938,765.3281 353.4844,765.1094 Q352.875,764.8906 352.25,764.8906 Q351.4844,764.8906 350.8438,765.2188 Q350.2188,765.5469 349.7188,766.2969 Q349.2344,767.0469 349.2344,768.0781 L349.2344,769.1719 Q349.2344,770.4063 350.125,771.2344 Q351.0156,772.0469 352.6094,772.0469 Q353.5469,772.0469 354.2031,771.7969 Q354.5938,771.6406 355.0156,771.2031 Q355.2813,770.9375 355.4219,770.8594 Q355.5781,770.7813 355.7813,770.7813 Q356.1094,770.7813 356.3594,771.0469 Q356.625,771.2969 356.625,771.6406 Q356.625,771.9844 356.2813,772.3906 Q355.7813,772.9688 354.9844,773.2969 Q353.9063,773.75 352.6094,773.75 Q351.0938,773.75 349.8906,773.125 Q348.9063,772.625 348.2188,771.5625 Q347.5313,770.4844 347.5313,769.2031 L347.5313,768.0469 Q347.5313,766.7188 348.1406,765.5781 Q348.7656,764.4219 349.8594,763.8125 Q350.9531,763.1875 352.1875,763.1875 Q352.9219,763.1875 353.5625,763.3594 Q354.2188,763.5156 354.7656,763.875 Z " fill="#000000"/><text fill="#000000" font-family="sans-serif" font-size="14" lengthAdjust="spacing" textLength="62" x="366" y="773.7969">Employee</text><line style="stroke:#181818;stroke-width:0.5;" x1="338" x2="430" y1="784" y2="784"/><text fill="#000000" font-family="sans-serif" font-size="14" lengthAdjust="spacing" textLength="40" x="343" y="803.1074">-name</text><text fill="#000000" font-family="sans-serif" font-size="14" lengthAdjust="spacing" textLength="38" x="343" y="821.7285">-email</text><text fill="#000000" font-family="sans-serif" font-size="14" lengthAdjust="spacing" textLength="54" x="343" y="840.3496">-position</text><text fill="#000000" font-family="sans-serif" font-size="14" lengthAdjust="spacing" textLength="45" x="343" y="858.9707">-phone</text><line style="stroke:#181818;stroke-width:0.5;" x1="338" x2="430" y1="866.4844" y2="866.4844"/></g><!--class Vehicle--><g id="elem_Vehicle"><rect codeLine="29" fill="#F1F1F1" height="252.832" id="Vehicle" rx="2.5" ry="2.5" style="stroke:#181818;stroke-width:0.5;" width="754" x="7" y="420"/><ellipse cx="356.75" cy="436" fill="#ADD1B2" rx="11" ry="11" style="stroke:#181818;stroke-width:1.0;"/><path d="M359.5156,431.875 Q359.6719,431.6563 359.8594,431.5469 Q360.0469,431.4375 360.2656,431.4375 Q360.6406,431.4375 360.875,431.7031 Q361.1094,431.9531 361.1094,432.5625 L361.1094,434.0156 Q361.1094,434.625 360.875,434.8906 Q360.6406,435.1563 360.2656,435.1563 Q359.9219,435.1563 359.7188,434.9531 Q359.5156,434.7656 359.4063,434.25 Q359.3594,433.8906 359.1719,433.7031 Q358.8438,433.3281 358.2344,433.1094 Q357.625,432.8906 357,432.8906 Q356.2344,432.8906 355.5938,433.2188 Q354.9688,433.5469 354.4688,434.2969 Q353.9844,435.0469 353.9844,436.0781 L353.9844,437.1719 Q353.9844,438.4063 354.875,439.2344 Q355.7656,440.0469 357.3594,440.0469 Q358.2969,440.0469 358.9531,439.7969 Q359.3438,439.6406 359.7656,439.2031 Q360.0313,438.9375 360.1719,438.8594 Q360.3281,438.7813 360.5313,438.7813 Q360.8594,438.7813 361.1094,439.0469 Q361.375,439.2969 361.375,439.6406 Q361.375,439.9844 361.0313,440.3906 Q360.5313,440.9688 359.7344,441.2969 Q358.6563,441.75 357.3594,441.75 Q355.8438,441.75 354.6406,441.125 Q353.6563,440.625 352.9688,439.5625 Q352.2813,438.4844 352.2813,437.2031 L352.2813,436.0469 Q352.2813,434.7188 352.8906,433.5781 Q353.5156,432.4219 354.6094,431.8125 Q355.7031,431.1875 356.9375,431.1875 Q357.6719,431.1875 358.3125,431.3594 Q358.9688,431.5156 359.5156,431.875 Z " fill="#000000"/><text fill="#000000" font-family="sans-serif" font-size="14" lengthAdjust="spacing" textLength="46" x="377.25" y="441.7969">Vehicle</text><line style="stroke:#181818;stroke-width:0.5;" x1="8" x2="760" y1="452" y2="452"/><text fill="#000000" font-family="sans-serif" font-size="14" lengthAdjust="spacing" textLength="83" x="13" y="471.1074">-String brand</text><text fill="#000000" font-family="sans-serif" font-size="14" lengthAdjust="spacing" textLength="84" x="13" y="489.7285">-String model</text><text fill="#000000" font-family="sans-serif" font-size="14" lengthAdjust="spacing" textLength="84" x="13" y="508.3496">-Integer plate</text><text fill="#000000" font-family="sans-serif" font-size="14" lengthAdjust="spacing" textLength="73" x="13" y="526.9707">-String type</text><text fill="#000000" font-family="sans-serif" font-size="14" lengthAdjust="spacing" textLength="78" x="13" y="545.5918">-Integer tare</text><text fill="#000000" font-family="sans-serif" font-size="14" lengthAdjust="spacing" textLength="125" x="13" y="564.2129">-String grossWeight</text><text fill="#000000" font-family="sans-serif" font-size="14" lengthAdjust="spacing" textLength="126" x="13" y="582.834">-Integer currenteKM</text><text fill="#000000" font-family="sans-serif" font-size="14" lengthAdjust="spacing" textLength="124" x="13" y="601.4551">-String registerDate</text><text fill="#000000" font-family="sans-serif" font-size="14" lengthAdjust="spacing" textLength="143" x="13" y="620.0762">-String acquisitionDate</text><text fill="#000000" font-family="sans-serif" font-size="14" lengthAdjust="spacing" textLength="174" x="13" y="638.6973">-Integer checkupFrequency</text><line style="stroke:#181818;stroke-width:0.5;" x1="8" x2="760" y1="646.2109" y2="646.2109"/><text fill="#000000" font-family="sans-serif" font-size="14" lengthAdjust="spacing" textLength="742" x="13" y="665.3184">+Vehicle(brand, model, plate, type, tare, grossWeight, currenteKM, registerDate, acquisitionDate, checkupFrequency)</text></g><!--class VehicleRepository--><g id="elem_VehicleRepository"><rect codeLine="46" fill="#F1F1F1" height="85.2422" id="VehicleRepository" rx="2.5" ry="2.5" style="stroke:#181818;stroke-width:0.5;" width="187" x="698.5" y="256"/><ellipse cx="731.95" cy="272" fill="#ADD1B2" rx="11" ry="11" style="stroke:#181818;stroke-width:1.0;"/><path d="M734.7156,267.875 Q734.8719,267.6563 735.0594,267.5469 Q735.2469,267.4375 735.4656,267.4375 Q735.8406,267.4375 736.075,267.7031 Q736.3094,267.9531 736.3094,268.5625 L736.3094,270.0156 Q736.3094,270.625 736.075,270.8906 Q735.8406,271.1563 735.4656,271.1563 Q735.1219,271.1563 734.9188,270.9531 Q734.7156,270.7656 734.6063,270.25 Q734.5594,269.8906 734.3719,269.7031 Q734.0438,269.3281 733.4344,269.1094 Q732.825,268.8906 732.2,268.8906 Q731.4344,268.8906 730.7938,269.2188 Q730.1688,269.5469 729.6688,270.2969 Q729.1844,271.0469 729.1844,272.0781 L729.1844,273.1719 Q729.1844,274.4063 730.075,275.2344 Q730.9656,276.0469 732.5594,276.0469 Q733.4969,276.0469 734.1531,275.7969 Q734.5438,275.6406 734.9656,275.2031 Q735.2313,274.9375 735.3719,274.8594 Q735.5281,274.7813 735.7313,274.7813 Q736.0594,274.7813 736.3094,275.0469 Q736.575,275.2969 736.575,275.6406 Q736.575,275.9844 736.2313,276.3906 Q735.7313,276.9688 734.9344,277.2969 Q733.8563,277.75 732.5594,277.75 Q731.0438,277.75 729.8406,277.125 Q728.8563,276.625 728.1688,275.5625 Q727.4813,274.4844 727.4813,273.2031 L727.4813,272.0469 Q727.4813,270.7188 728.0906,269.5781 Q728.7156,268.4219 729.8094,267.8125 Q730.9031,267.1875 732.1375,267.1875 Q732.8719,267.1875 733.5125,267.3594 Q734.1688,267.5156 734.7156,267.875 Z " fill="#000000"/><text fill="#000000" font-family="sans-serif" font-size="14" lengthAdjust="spacing" textLength="114" x="750.05" y="277.7969">VehicleRepository</text><line style="stroke:#181818;stroke-width:0.5;" x1="699.5" x2="884.5" y1="288" y2="288"/><line style="stroke:#181818;stroke-width:0.5;" x1="699.5" x2="884.5" y1="296" y2="296"/><text fill="#000000" font-family="sans-serif" font-size="14" lengthAdjust="spacing" textLength="175" x="704.5" y="315.1074">+getVehicleByBrand(brand)</text><text fill="#000000" font-family="sans-serif" font-size="14" lengthAdjust="spacing" textLength="163" x="704.5" y="333.7285">+getVehicleCehckUpList()</text></g><!--class Repositories--><g id="elem_Repositories"><rect codeLine="53" fill="#F1F1F1" height="103.8633" id="Repositories" rx="2.5" ry="2.5" style="stroke:#181818;stroke-width:0.5;" width="194" x="479" y="122"/><ellipse cx="532.25" cy="138" fill="#ADD1B2" rx="11" ry="11" style="stroke:#181818;stroke-width:1.0;"/><path d="M535.0156,133.875 Q535.1719,133.6563 535.3594,133.5469 Q535.5469,133.4375 535.7656,133.4375 Q536.1406,133.4375 536.375,133.7031 Q536.6094,133.9531 536.6094,134.5625 L536.6094,136.0156 Q536.6094,136.625 536.375,136.8906 Q536.1406,137.1563 535.7656,137.1563 Q535.4219,137.1563 535.2188,136.9531 Q535.0156,136.7656 534.9063,136.25 Q534.8594,135.8906 534.6719,135.7031 Q534.3438,135.3281 533.7344,135.1094 Q533.125,134.8906 532.5,134.8906 Q531.7344,134.8906 531.0938,135.2188 Q530.4688,135.5469 529.9688,136.2969 Q529.4844,137.0469 529.4844,138.0781 L529.4844,139.1719 Q529.4844,140.4063 530.375,141.2344 Q531.2656,142.0469 532.8594,142.0469 Q533.7969,142.0469 534.4531,141.7969 Q534.8438,141.6406 535.2656,141.2031 Q535.5313,140.9375 535.6719,140.8594 Q535.8281,140.7813 536.0313,140.7813 Q536.3594,140.7813 536.6094,141.0469 Q536.875,141.2969 536.875,141.6406 Q536.875,141.9844 536.5313,142.3906 Q536.0313,142.9688 535.2344,143.2969 Q534.1563,143.75 532.8594,143.75 Q531.3438,143.75 530.1406,143.125 Q529.1563,142.625 528.4688,141.5625 Q527.7813,140.4844 527.7813,139.2031 L527.7813,138.0469 Q527.7813,136.7188 528.3906,135.5781 Q529.0156,134.4219 530.1094,133.8125 Q531.2031,133.1875 532.4375,133.1875 Q533.1719,133.1875 533.8125,133.3594 Q534.4688,133.5156 535.0156,133.875 Z " fill="#000000"/><text fill="#000000" font-family="sans-serif" font-size="14" lengthAdjust="spacing" textLength="79" x="552.75" y="143.7969">Repositories</text><line style="stroke:#181818;stroke-width:0.5;" x1="480" x2="672" y1="154" y2="154"/><line style="stroke:#181818;stroke-width:0.5;" x1="480" x2="672" y1="162" y2="162"/><text fill="#000000" font-family="sans-serif" font-size="14" lengthAdjust="spacing" textLength="94" x="485" y="181.1074">-Repositories()</text><text fill="#000000" font-family="sans-serif" font-size="14" lengthAdjust="spacing" textLength="182" x="485" y="199.7285">+getInstance() : Repositories</text><text fill="#000000" font-family="sans-serif" font-size="14" lengthAdjust="spacing" textLength="152" x="485" y="218.3496">+getVehicleRepository()</text></g><!--class VehicleController--><g id="elem_VehicleController"><rect codeLine="59" fill="#F1F1F1" height="85.2422" id="VehicleController" rx="2.5" ry="2.5" style="stroke:#181818;stroke-width:0.5;" width="250" x="814" y="7"/><ellipse cx="880.75" cy="23" fill="#ADD1B2" rx="11" ry="11" style="stroke:#181818;stroke-width:1.0;"/><path d="M883.5156,18.875 Q883.6719,18.6563 883.8594,18.5469 Q884.0469,18.4375 884.2656,18.4375 Q884.6406,18.4375 884.875,18.7031 Q885.1094,18.9531 885.1094,19.5625 L885.1094,21.0156 Q885.1094,21.625 884.875,21.8906 Q884.6406,22.1563 884.2656,22.1563 Q883.9219,22.1563 883.7188,21.9531 Q883.5156,21.7656 883.4063,21.25 Q883.3594,20.8906 883.1719,20.7031 Q882.8438,20.3281 882.2344,20.1094 Q881.625,19.8906 881,19.8906 Q880.2344,19.8906 879.5938,20.2188 Q878.9688,20.5469 878.4688,21.2969 Q877.9844,22.0469 877.9844,23.0781 L877.9844,24.1719 Q877.9844,25.4063 878.875,26.2344 Q879.7656,27.0469 881.3594,27.0469 Q882.2969,27.0469 882.9531,26.7969 Q883.3438,26.6406 883.7656,26.2031 Q884.0313,25.9375 884.1719,25.8594 Q884.3281,25.7813 884.5313,25.7813 Q884.8594,25.7813 885.1094,26.0469 Q885.375,26.2969 885.375,26.6406 Q885.375,26.9844 885.0313,27.3906 Q884.5313,27.9688 883.7344,28.2969 Q882.6563,28.75 881.3594,28.75 Q879.8438,28.75 878.6406,28.125 Q877.6563,27.625 876.9688,26.5625 Q876.2813,25.4844 876.2813,24.2031 L876.2813,23.0469 Q876.2813,21.7188 876.8906,20.5781 Q877.5156,19.4219 878.6094,18.8125 Q879.7031,18.1875 880.9375,18.1875 Q881.6719,18.1875 882.3125,18.3594 Q882.9688,18.5156 883.5156,18.875 Z " fill="#000000"/><text fill="#000000" font-family="sans-serif" font-size="14" lengthAdjust="spacing" textLength="108" x="901.25" y="28.7969">VehicleController</text><line style="stroke:#181818;stroke-width:0.5;" x1="815" x2="1063" y1="39" y2="39"/><line style="stroke:#181818;stroke-width:0.5;" x1="815" x2="1063" y1="47" y2="47"/><text fill="#000000" font-family="sans-serif" font-size="14" lengthAdjust="spacing" textLength="238" x="820" y="66.1074">+VehicleController(vehicleRepository)</text><text fill="#000000" font-family="sans-serif" font-size="14" lengthAdjust="spacing" textLength="180" x="820" y="84.7285">-getEmployeeFromSession()</text></g><g id="elem_GMN9"><path d="M1099,10 L1099,45.5 L1064.24,49.5 L1099,53.5 L1099,89.1641 A0,0 0 0 0 1099,89.1641 L1293,89.1641 A0,0 0 0 0 1293,89.1641 L1293,20 L1283,10 L1099,10 A0,0 0 0 0 1099,10 " fill="#FEFFDD" style="stroke:#181818;stroke-width:0.5;"/><path d="M1283,10 L1283,20 L1293,20 L1283,10 " fill="#FEFFDD" style="stroke:#181818;stroke-width:0.5;"/><text fill="#000000" font-family="sans-serif" font-size="13" lengthAdjust="spacing" textLength="133" x="1105" y="29.0283">- userEmail is obtained</text><text fill="#000000" font-family="sans-serif" font-size="13" lengthAdjust="spacing" textLength="125" x="1105" y="46.3193">from the user session</text><text fill="#000000" font-family="sans-serif" font-size="13" lengthAdjust="spacing" textLength="123" x="1105" y="63.6104">- categoryDescription</text><text fill="#000000" font-family="sans-serif" font-size="13" lengthAdjust="spacing" textLength="173" x="1105" y="80.9014">is retrieved from selected data</text></g><g id="elem_GMN12"><path d="M796.5,524 L796.5,568.582 A0,0 0 0 0 796.5,568.582 L933.5,568.582 A0,0 0 0 0 933.5,568.582 L933.5,534 L923.5,524 L862.55,524 L804.38,341.23 L854.55,524 L796.5,524 A0,0 0 0 0 796.5,524 " fill="#FEFFDD" style="stroke:#181818;stroke-width:0.5;"/><path d="M923.5,524 L923.5,534 L933.5,534 L923.5,524 " fill="#FEFFDD" style="stroke:#181818;stroke-width:0.5;"/><text fill="#000000" font-family="sans-serif" font-size="13" lengthAdjust="spacing" textLength="116" x="802.5" y="543.0283">- used for displaying</text><text fill="#000000" font-family="sans-serif" font-size="13" lengthAdjust="spacing" textLength="82" x="802.5" y="560.3193">the vehicle list</text></g><!--class VehicleUI--><g id="elem_VehicleUI"><rect codeLine="76" fill="#F1F1F1" height="48" id="VehicleUI" rx="2.5" ry="2.5" style="stroke:#181818;stroke-width:0.5;" width="90" x="689" y="25.5"/><ellipse cx="704" cy="41.5" fill="#ADD1B2" rx="11" ry="11" style="stroke:#181818;stroke-width:1.0;"/><path d="M706.7656,37.375 Q706.9219,37.1563 707.1094,37.0469 Q707.2969,36.9375 707.5156,36.9375 Q707.8906,36.9375 708.125,37.2031 Q708.3594,37.4531 708.3594,38.0625 L708.3594,39.5156 Q708.3594,40.125 708.125,40.3906 Q707.8906,40.6563 707.5156,40.6563 Q707.1719,40.6563 706.9688,40.4531 Q706.7656,40.2656 706.6563,39.75 Q706.6094,39.3906 706.4219,39.2031 Q706.0938,38.8281 705.4844,38.6094 Q704.875,38.3906 704.25,38.3906 Q703.4844,38.3906 702.8438,38.7188 Q702.2188,39.0469 701.7188,39.7969 Q701.2344,40.5469 701.2344,41.5781 L701.2344,42.6719 Q701.2344,43.9063 702.125,44.7344 Q703.0156,45.5469 704.6094,45.5469 Q705.5469,45.5469 706.2031,45.2969 Q706.5938,45.1406 707.0156,44.7031 Q707.2813,44.4375 707.4219,44.3594 Q707.5781,44.2813 707.7813,44.2813 Q708.1094,44.2813 708.3594,44.5469 Q708.625,44.7969 708.625,45.1406 Q708.625,45.4844 708.2813,45.8906 Q707.7813,46.4688 706.9844,46.7969 Q705.9063,47.25 704.6094,47.25 Q703.0938,47.25 701.8906,46.625 Q700.9063,46.125 700.2188,45.0625 Q699.5313,43.9844 699.5313,42.7031 L699.5313,41.5469 Q699.5313,40.2188 700.1406,39.0781 Q700.7656,37.9219 701.8594,37.3125 Q702.9531,36.6875 704.1875,36.6875 Q704.9219,36.6875 705.5625,36.8594 Q706.2188,37.0156 706.7656,37.375 Z " fill="#000000"/><text fill="#000000" font-family="sans-serif" font-size="14" lengthAdjust="spacing" textLength="58" x="718" y="47.2969">VehicleUI</text><line style="stroke:#181818;stroke-width:0.5;" x1="690" x2="778" y1="57.5" y2="57.5"/><line style="stroke:#181818;stroke-width:0.5;" x1="690" x2="778" y1="65.5" y2="65.5"/></g><!--link Repositories to VehicleRepository--><g id="link_Repositories_VehicleRepository"><path codeLine="80" d="M666.04,226.06 C683.52,235.98 696.4199,243.3018 713.2899,252.8618 " fill="none" id="Repositories-to-VehicleRepository" style="stroke:#181818;stroke-width:1.0;"/><polygon fill="#181818" points="718.51,255.82,712.652,247.9027,714.1599,253.3549,708.7078,254.8628,718.51,255.82" style="stroke:#181818;stroke-width:1.0;"/><text fill="#000000" font-family="sans-serif" font-size="13" lengthAdjust="spacing" textLength="7" x="699.2397" y="244.6954">1</text></g><!--link Repositories to Repositories--><g id="link_Repositories_Repositories"><path codeLine="81" d="M673.28,151.57 C693.48,153.93 708,161.41 708,174 C708,186.59 699.4395,193.3737 679.2395,195.7337 " fill="none" id="Repositories-to-Repositories" style="stroke:#181818;stroke-width:1.0;"/><polygon fill="#181818" points="673.28,196.43,682.6834,199.3586,678.2462,195.8498,681.755,191.4126,673.28,196.43" style="stroke:#181818;stroke-width:1.0;"/><text fill="#000000" font-family="sans-serif" font-size="13" lengthAdjust="spacing" textLength="49" x="714" y="179.5283">instance</text></g><!--link ApplicationSession to ApplicationSession--><g id="link_ApplicationSession_ApplicationSession"><path codeLine="83" d="M1108.66,283.27 C1128.5,284.17 1143.5,289.25 1143.5,298.5 C1143.5,307.75 1134.4938,312.5581 1114.6538,313.4581 " fill="none" id="ApplicationSession-to-ApplicationSession" style="stroke:#181818;stroke-width:1.0;"/><polygon fill="#181818" points="1108.66,313.73,1117.832,317.318,1113.6549,313.5034,1117.4695,309.3263,1108.66,313.73" style="stroke:#181818;stroke-width:1.0;"/><text fill="#000000" font-family="sans-serif" font-size="13" lengthAdjust="spacing" textLength="49" x="1149.5" y="304.0283">instance</text></g><!--link ApplicationSession to UserSession--><g id="link_ApplicationSession_UserSession"><path codeLine="84" d="M1056.07,341.23 C1082.82,389.62 1123.4678,463.1286 1147.9278,507.3886 " fill="none" id="ApplicationSession-to-UserSession" style="stroke:#181818;stroke-width:1.0;"/><polygon fill="#181818" points="1150.83,512.64,1149.9777,502.8281,1148.4115,508.2638,1142.9758,506.6976,1150.83,512.64" style="stroke:#181818;stroke-width:1.0;"/><text fill="#000000" font-family="sans-serif" font-size="13" lengthAdjust="spacing" textLength="72" x="1081" y="386.0283">userSession</text><text fill="#000000" font-family="sans-serif" font-size="13" lengthAdjust="spacing" textLength="7" x="1139.6992" y="501.6573">1</text></g><!--link VehicleUI to VehicleController--><g id="link_VehicleUI_VehicleController"><path codeLine="86" d="M779.2,49.5 C791.91,49.5 802.33,49.5 802.33,49.5 C802.33,49.5 801.01,49.5 807.93,49.5 " fill="none" id="VehicleUI-to-VehicleController" style="stroke:#181818;stroke-width:1.0;stroke-dasharray:7.0,7.0;"/><polygon fill="#181818" points="813.93,49.5,804.93,45.5,808.93,49.5,804.93,53.5,813.93,49.5" style="stroke:#181818;stroke-width:1.0;"/></g><!--link VehicleController to Repositories--><g id="link_VehicleController_Repositories"><path codeLine="88" d="M815.85,92.06 C769.28,107.77 722.6655,123.5128 678.8055,138.3028 " fill="none" id="VehicleController-to-Repositories" style="stroke:#181818;stroke-width:1.0;stroke-dasharray:7.0,7.0;"/><polygon fill="#181818" points="673.12,140.22,682.9263,141.1345,677.8579,138.6223,680.3701,133.5539,673.12,140.22" style="stroke:#181818;stroke-width:1.0;"/><text fill="#000000" font-family="sans-serif" font-size="13" lengthAdjust="spacing" textLength="67" x="676.49" y="112.1683">repositories</text></g><!--link VehicleController to ApplicationSession--><g id="link_VehicleController_ApplicationSession"><path codeLine="89" d="M1001.82,92.09 C1025.58,107.82 1047,122 1047,122 C1047,122 1047,226 1047,226 C1047,226 1045.3729,234.2918 1042.2929,250.0218 " fill="none" id="VehicleController-to-ApplicationSession" style="stroke:#181818;stroke-width:1.0;stroke-dasharray:7.0,7.0;"/><polygon fill="#181818" points="1041.14,255.91,1046.7949,247.8463,1042.1008,251.0032,1038.9439,246.3091,1041.14,255.91" style="stroke:#181818;stroke-width:1.0;"/></g><!--link VehicleController to UserSession--><g id="link_VehicleController_UserSession"><path codeLine="90" d="M1016.95,92.09 C1046.43,107.82 1073,122 1073,122 C1073,122 1205,256 1205,256 C1205,256 1205,341 1205,341 C1205,341 1186.0007,448.9309 1175.8207,506.7309 " fill="none" id="VehicleController-to-UserSession" style="stroke:#181818;stroke-width:1.0;stroke-dasharray:7.0,7.0;"/><polygon fill="#181818" points="1174.78,512.64,1180.2805,504.4702,1175.6473,507.7158,1172.4017,503.0826,1174.78,512.64" style="stroke:#181818;stroke-width:1.0;"/></g><!--link VehicleController to VehicleRepository--><g id="link_VehicleController_VehicleRepository"><path codeLine="91" d="M851.74,92.09 C818.75,107.82 789,122 789,122 C789,122 789,226 789,226 C789,226 789.3385,234.1853 789.9985,249.9153 " fill="none" id="VehicleController-to-VehicleRepository" style="stroke:#181818;stroke-width:1.0;stroke-dasharray:7.0,7.0;"/><polygon fill="#181818" points="790.25,255.91,793.8692,246.7502,790.0404,250.9144,785.8762,247.0856,790.25,255.91" style="stroke:#181818;stroke-width:1.0;"/><text fill="#000000" font-family="sans-serif" font-size="13" lengthAdjust="spacing" textLength="105" x="790" y="179.5283">VehicleRepository</text></g><!--link VehicleController to VehicleRepository--><g id="link_VehicleController_VehicleRepository"><path codeLine="92" d="M929.76,92.09 C918.22,143.99 900,226 900,226 C900,226 883.583,236.8679 859.823,252.5979 " fill="none" id="VehicleController-to-VehicleRepository-1" style="stroke:#181818;stroke-width:1.0;stroke-dasharray:7.0,7.0;"/><polygon fill="#181818" points="854.82,255.91,864.5325,254.2771,858.9891,253.1499,860.1163,247.6065,854.82,255.91" style="stroke:#181818;stroke-width:1.0;"/><text fill="#000000" font-family="sans-serif" font-size="13" lengthAdjust="spacing" textLength="105" x="924" y="179.5283">VehicleRepository</text></g><!--link Vehicle to Employee--><g id="link_Vehicle_Employee"><path codeLine="94" d="M384,673.17 C384,700.62 384,722.46 384,745.93 " fill="none" id="Vehicle-to-Employee" style="stroke:#181818;stroke-width:1.0;"/><polygon fill="#181818" points="384,751.93,388,742.93,384,746.93,380,742.93,384,751.93" style="stroke:#181818;stroke-width:1.0;"/><text fill="#000000" font-family="sans-serif" font-size="13" lengthAdjust="spacing" textLength="59" x="385" y="718.0283">createdBy</text></g><!--link VehicleRepository to Vehicle--><g id="link_VehicleRepository_Vehicle"><path codeLine="96" d="M722.79,341.23 C686.3,363.23 644.5282,388.4118 597.3282,416.8718 " fill="none" id="VehicleRepository-to-Vehicle" style="stroke:#181818;stroke-width:1.0;"/><polygon fill="#181818" points="592.19,419.97,601.9628,418.7482,596.4719,417.3882,597.8319,411.8973,592.19,419.97" style="stroke:#181818;stroke-width:1.0;"/><text fill="#000000" font-family="sans-serif" font-size="13" lengthAdjust="spacing" textLength="46" x="673" y="386.0283">vehicles</text><text fill="#000000" font-family="sans-serif" font-size="13" lengthAdjust="spacing" textLength="7" x="704.2018" y="363.427">1</text><text fill="#000000" font-family="sans-serif" font-size="13" lengthAdjust="spacing" textLength="5" x="599.7242" y="408.7839">*</text></g><!--SRC=[fLIvRjmm4Etv5OGRsubi9EqM1hm-W4MI9WidDPUQbOYbI9aSEL2C_7k64bUYZbHH9N9c7j-yEIxzIPbQE57noXehIsShuEWQOAEb5l8a2jXZgu4xa2XCeLC7NuhS_bAcu4UXVMhHoW2sDV3QwZOSsEMAqJgqB8cIMdX_Z-ZKeK7OIMlswZVmJunTQZWYHykTAahakGfqb3MCTJ7ylgwraY9SxS7xO7bddBwFt2DTIru0xWpz6mbNrz54Tm-DSs0m1f7bpndonOEROr50k7wgXDAfxrDLQzi2yDxnXXjHGVo5u1p_Q-jLHpiUIqlA32W_e5HIZo1x4eAqFJXXykbLPNCuO-uCGW6ErreWJDs2o3Cl56xcL3Zh_Ky8kivyPQyDVFasZN1GA8_W7XSF2ldQg3x5n3ZWbI1FJVtiuBK18riMLOrvNtM9PdroMPzFrkMGTRIpb6gMiCicZB8vYspnS5UvcUhVeIkETIrFgXsDstORkFKChnVc1oZbwQN-IXoeAphm7di0LU27igQNQIkExSat4wV5UoFNj0dFPAn1PxKcmT-d0e-MgxSvq7KaHu-Sc_cPTi9aBen5Y0DeZqlGYD2S1uGhp-q11Krxtxv70kHOGkV2VPojFefc5mhYyGXUEbKFGq8O3gYvu0to7i23fjcdKovGC30v3xmYkuD599-HtfZXI8-0hACTugd5MchRpX9uHLLeGNbCa2Volkn8rb3XIMrlxlZ5vukLH-TUa_E6grXpnfORBBYlt2P1Qp6HIRAzAA99TXaR4xczMwaYM_RHxOAtIzjp9U1sZVe_7DD5k-wn7D7DYjJ_4tiExlGRjlc6ImVKcFbsz4Y0WiwTtX-6obD8R2BF_W80]--></g></svg>