<?xml version="1.0" encoding="us-ascii" standalone="no"?><svg xmlns="http://www.w3.org/2000/svg" xmlns:xlink="http://www.w3.org/1999/xlink" contentStyleType="text/css" height="623px" preserveAspectRatio="none" style="width:459px;height:623px;background:#FFFFFF;" version="1.1" viewBox="0 0 459 623" width="459px" zoomAndPan="magnify"><defs/><g><text fill="#000000" font-family="sans-serif" font-size="14" font-weight="bold" lengthAdjust="spacing" textLength="350" x="56" y="30.1074">System Sequence Diagram (SSD) - Alternative Two</text><rect fill="#FFFFFF" height="397.7832" style="stroke:#181818;stroke-width:1.0;" width="10" x="33" y="133.2422"/><rect fill="#FFFFFF" height="31.291" style="stroke:#181818;stroke-width:1.0;" width="10" x="406" y="156.5332"/><rect fill="#FFFFFF" height="311.9102" style="stroke:#181818;stroke-width:1.0;" width="10" x="406" y="219.1152"/><rect fill="#FFFFFF" height="31.291" style="stroke:#181818;stroke-width:1.0;" width="10" x="411" y="332.2793"/><rect fill="#FFFFFF" height="31.291" style="stroke:#181818;stroke-width:1.0;" width="10" x="411" y="421.1523"/><rect fill="#FFFFFF" height="31.291" style="stroke:#181818;stroke-width:1.0;" width="10" x="411" y="490.7344"/><rect fill="none" height="67.873" style="stroke:#000000;stroke-width:1.5;" width="443" x="10" y="234.1152"/><rect fill="none" height="81.873" style="stroke:#000000;stroke-width:1.5;" width="443" x="10" y="378.5703"/><line style="stroke:#181818;stroke-width:0.5;stroke-dasharray:5.0,5.0;" x1="38" x2="38" y1="123.2422" y2="540.0254"/><line style="stroke:#181818;stroke-width:0.5;stroke-dasharray:5.0,5.0;" x1="411" x2="411" y1="123.2422" y2="540.0254"/><text fill="#000000" font-family="sans-serif" font-size="14" lengthAdjust="spacing" textLength="30" x="20" y="119.7285">HRM</text><ellipse cx="38" cy="53.1211" fill="#E3E3E3" rx="8" ry="8" style="stroke:#181818;stroke-width:0.5;"/><path d="M38,61.1211 L38,88.1211 M25,69.1211 L51,69.1211 M38,88.1211 L25,103.1211 M38,88.1211 L51,103.1211 " fill="none" style="stroke:#181818;stroke-width:0.5;"/><text fill="#000000" font-family="sans-serif" font-size="14" lengthAdjust="spacing" textLength="30" x="20" y="554.1328">HRM</text><ellipse cx="38" cy="566.1465" fill="#E3E3E3" rx="8" ry="8" style="stroke:#181818;stroke-width:0.5;"/><path d="M38,574.1465 L38,601.1465 M25,582.1465 L51,582.1465 M38,601.1465 L25,616.1465 M38,601.1465 L51,616.1465 " fill="none" style="stroke:#181818;stroke-width:0.5;"/><rect fill="#E3E3E3" height="32.6211" rx="2.5" ry="2.5" style="stroke:#181818;stroke-width:0.5;" width="64" x="379" y="89.6211"/><text fill="#000000" font-family="sans-serif" font-size="14" lengthAdjust="spacing" textLength="50" x="386" y="111.7285">:System</text><rect fill="#E3E3E3" height="32.6211" rx="2.5" ry="2.5" style="stroke:#181818;stroke-width:0.5;" width="64" x="379" y="539.0254"/><text fill="#000000" font-family="sans-serif" font-size="14" lengthAdjust="spacing" textLength="50" x="386" y="561.1328">:System</text><rect fill="#FFFFFF" height="397.7832" style="stroke:#181818;stroke-width:1.0;" width="10" x="33" y="133.2422"/><rect fill="#FFFFFF" height="31.291" style="stroke:#181818;stroke-width:1.0;" width="10" x="406" y="156.5332"/><rect fill="#FFFFFF" height="311.9102" style="stroke:#181818;stroke-width:1.0;" width="10" x="406" y="219.1152"/><rect fill="#FFFFFF" height="31.291" style="stroke:#181818;stroke-width:1.0;" width="10" x="411" y="332.2793"/><rect fill="#FFFFFF" height="31.291" style="stroke:#181818;stroke-width:1.0;" width="10" x="411" y="421.1523"/><rect fill="#FFFFFF" height="31.291" style="stroke:#181818;stroke-width:1.0;" width="10" x="411" y="490.7344"/><polygon fill="#181818" points="394,152.5332,404,156.5332,394,160.5332,398,156.5332" style="stroke:#181818;stroke-width:1.0;"/><line style="stroke:#181818;stroke-width:1.0;" x1="43" x2="400" y1="156.5332" y2="156.5332"/><text fill="#000000" font-family="sans-serif" font-size="13" font-weight="bold" lengthAdjust="spacing" textLength="7" x="50" y="151.2705">1</text><text fill="#000000" font-family="sans-serif" font-size="13" lengthAdjust="spacing" textLength="171" x="61" y="151.2705">asks to generate a new Team</text><polygon fill="#181818" points="54,183.8242,44,187.8242,54,191.8242,50,187.8242" style="stroke:#181818;stroke-width:1.0;"/><line style="stroke:#181818;stroke-width:1.0;stroke-dasharray:2.0,2.0;" x1="48" x2="410" y1="187.8242" y2="187.8242"/><text fill="#000000" font-family="sans-serif" font-size="13" font-weight="bold" lengthAdjust="spacing" textLength="7" x="60" y="182.5615">2</text><text fill="#000000" font-family="sans-serif" font-size="13" lengthAdjust="spacing" textLength="254" x="71" y="182.5615">show skills list/requests data (i.e. skills set)</text><polygon fill="#181818" points="394,215.1152,404,219.1152,394,223.1152,398,219.1152" style="stroke:#181818;stroke-width:1.0;"/><line style="stroke:#181818;stroke-width:1.0;" x1="43" x2="400" y1="219.1152" y2="219.1152"/><text fill="#000000" font-family="sans-serif" font-size="13" font-weight="bold" lengthAdjust="spacing" textLength="7" x="50" y="213.8525">3</text><text fill="#000000" font-family="sans-serif" font-size="13" lengthAdjust="spacing" textLength="122" x="61" y="213.8525">types requested data</text><path d="M10,234.1152 L71,234.1152 L71,243.4063 L61,253.4063 L10,253.4063 L10,234.1152 " fill="#EEEEEE" style="stroke:#000000;stroke-width:1.5;"/><rect fill="none" height="67.873" style="stroke:#000000;stroke-width:1.5;" width="443" x="10" y="234.1152"/><text fill="#000000" font-family="sans-serif" font-size="13" font-weight="bold" lengthAdjust="spacing" textLength="16" x="25" y="249.1436">alt</text><text fill="#000000" font-family="sans-serif" font-size="11" font-weight="bold" lengthAdjust="spacing" textLength="84" x="86" y="247.9854">[Minimum &gt;= 1]</text><polygon fill="#181818" points="54,289.9883,44,293.9883,54,297.9883,50,293.9883" style="stroke:#181818;stroke-width:1.0;"/><line style="stroke:#181818;stroke-width:1.0;stroke-dasharray:2.0,2.0;" x1="48" x2="405" y1="293.9883" y2="293.9883"/><text fill="#000000" font-family="sans-serif" font-size="13" font-weight="bold" lengthAdjust="spacing" textLength="7" x="60" y="280.0801">4</text><text fill="#000000" font-family="sans-serif" font-size="13" lengthAdjust="spacing" textLength="181" x="71" y="271.4346">requests data ( max team size,</text><text fill="#000000" font-family="sans-serif" font-size="13" lengthAdjust="spacing" textLength="90" x="75" y="288.7256">min team size )</text><polygon fill="#181818" points="399,328.2793,409,332.2793,399,336.2793,403,332.2793" style="stroke:#181818;stroke-width:1.0;"/><line style="stroke:#181818;stroke-width:1.0;" x1="43" x2="405" y1="332.2793" y2="332.2793"/><text fill="#000000" font-family="sans-serif" font-size="13" font-weight="bold" lengthAdjust="spacing" textLength="7" x="50" y="327.0166">5</text><text fill="#000000" font-family="sans-serif" font-size="13" lengthAdjust="spacing" textLength="122" x="61" y="327.0166">types requested data</text><polygon fill="#181818" points="54,359.5703,44,363.5703,54,367.5703,50,363.5703" style="stroke:#181818;stroke-width:1.0;"/><line style="stroke:#181818;stroke-width:1.0;stroke-dasharray:2.0,2.0;" x1="48" x2="405" y1="363.5703" y2="363.5703"/><text fill="#000000" font-family="sans-serif" font-size="13" font-weight="bold" lengthAdjust="spacing" textLength="7" x="60" y="358.3076">6</text><text fill="#000000" font-family="sans-serif" font-size="13" lengthAdjust="spacing" textLength="324" x="71" y="358.3076">shows all data and requests confirmation or modification</text><path d="M10,378.5703 L75,378.5703 L75,387.8613 L65,397.8613 L10,397.8613 L10,378.5703 " fill="#EEEEEE" style="stroke:#000000;stroke-width:1.5;"/><rect fill="none" height="81.873" style="stroke:#000000;stroke-width:1.5;" width="443" x="10" y="378.5703"/><text fill="#000000" font-family="sans-serif" font-size="13" font-weight="bold" lengthAdjust="spacing" textLength="20" x="25" y="393.5986">opt</text><text fill="#000000" font-family="sans-serif" font-size="11" font-weight="bold" lengthAdjust="spacing" textLength="108" x="90" y="392.4404">[optional for "HRM"]</text><polygon fill="#181818" points="399,417.1523,409,421.1523,399,425.1523,403,421.1523" style="stroke:#181818;stroke-width:1.0;"/><line style="stroke:#181818;stroke-width:1.0;" x1="43" x2="405" y1="421.1523" y2="421.1523"/><text fill="#000000" font-family="sans-serif" font-size="13" font-weight="bold" lengthAdjust="spacing" textLength="7" x="50" y="415.8896">7</text><text fill="#000000" font-family="sans-serif" font-size="13" lengthAdjust="spacing" textLength="67" x="61" y="415.8896">modify data</text><polygon fill="#181818" points="54,448.4434,44,452.4434,54,456.4434,50,452.4434" style="stroke:#181818;stroke-width:1.0;"/><line style="stroke:#181818;stroke-width:1.0;stroke-dasharray:2.0,2.0;" x1="48" x2="405" y1="452.4434" y2="452.4434"/><text fill="#000000" font-family="sans-serif" font-size="13" font-weight="bold" lengthAdjust="spacing" textLength="7" x="60" y="447.1807">8</text><text fill="#000000" font-family="sans-serif" font-size="13" lengthAdjust="spacing" textLength="328" x="71" y="447.1807">shows all data and requests confirmation or modification.</text><polygon fill="#181818" points="399,486.7344,409,490.7344,399,494.7344,403,490.7344" style="stroke:#181818;stroke-width:1.0;"/><line style="stroke:#181818;stroke-width:1.0;" x1="43" x2="405" y1="490.7344" y2="490.7344"/><text fill="#000000" font-family="sans-serif" font-size="13" font-weight="bold" lengthAdjust="spacing" textLength="7" x="50" y="485.4717">9</text><text fill="#000000" font-family="sans-serif" font-size="13" lengthAdjust="spacing" textLength="93" x="61" y="485.4717">confirm the data</text><polygon fill="#181818" points="54,518.0254,44,522.0254,54,526.0254,50,522.0254" style="stroke:#181818;stroke-width:1.0;"/><line style="stroke:#181818;stroke-width:1.0;stroke-dasharray:2.0,2.0;" x1="48" x2="405" y1="522.0254" y2="522.0254"/><text fill="#000000" font-family="sans-serif" font-size="13" font-weight="bold" lengthAdjust="spacing" textLength="14" x="60" y="516.7627">10</text><text fill="#000000" font-family="sans-serif" font-size="13" lengthAdjust="spacing" textLength="158" x="78" y="516.7627">displays operation success</text><!--SRC=[hPD1J-im3CVl_HJMJY2n8QwJG4BYm6KNof6BIRtEMkAKs6MKJq_QjUFfQGKzwKMgcZJstx_yw-YUfS640KAKw7Of1W9BBHLwscdGxR6cqZfFaCWPIkt_3D0TLl70KiCMlL9H65iEBJir2b3IMqlY21uOwpxyeYmVBc49zzue2Hg_4pmVOb5WQr7Qy4efpvt518l7fyq2K663aX5IaGiQEsvG31RhOuKXu3WTylWTZKuP1UGnBc1vDr6jSz9UmIBK99Jw30IX0pmJXY7df3H9mpX6XMKMctJNsODuW6o9zmgUrQvJVsmrXGeDuO9Nj9hsbUnoKAleR95pjDOrf32AKZMepcEYDzYmS6W3tDt2JJ7B_HSc1Fm0e_wdyYTTlGW4bkyFSEGcgORtlzEU0Ju9pVgg-Jp-28XIVIExA5jE8NTG5CZT4cB5MtR3-YT_OsFzawFGmtPgizd33BBTBux_L_ZL3Fta_IpgA0gserzuPvahriPZfzcX_bhqTDewHwhdeRu0]--></g></svg>