<?xml version="1.0" encoding="us-ascii" standalone="no"?><svg xmlns="http://www.w3.org/2000/svg" xmlns:xlink="http://www.w3.org/1999/xlink" contentStyleType="text/css" height="504px" preserveAspectRatio="none" style="width:858px;height:504px;background:#FFFFFF;" version="1.1" viewBox="0 0 858 504" width="858px" zoomAndPan="magnify"><defs/><g><text fill="#000000" font-family="sans-serif" font-size="14" font-weight="bold" lengthAdjust="spacing" textLength="654" x="104.25" y="27.9951">System Sequence Diagram (SSD) - Register Vehicle Maintenance Success Scenario</text><rect fill="#FFFFFF" height="286.0625" style="stroke:#181818;stroke-width:1.0;" width="10" x="17.5" y="128.5938"/><rect fill="#FFFFFF" height="29.1328" style="stroke:#181818;stroke-width:1.0;" width="10" x="614.5" y="149.7266"/><rect fill="#FFFFFF" height="197.6641" style="stroke:#181818;stroke-width:1.0;" width="10" x="614.5" y="207.9922"/><line style="stroke:#181818;stroke-width:0.5;stroke-dasharray:5.0,5.0;" x1="22" x2="22" y1="118.5938" y2="423.6563"/><line style="stroke:#181818;stroke-width:0.5;stroke-dasharray:5.0,5.0;" x1="619.5" x2="619.5" y1="118.5938" y2="423.6563"/><text fill="#000000" font-family="sans-serif" font-size="14" lengthAdjust="spacing" textLength="29" x="5" y="115.292">VFM</text><ellipse cx="22.5" cy="50.7969" fill="#E3E3E3" rx="8" ry="8" style="stroke:#181818;stroke-width:0.5;"/><path d="M22.5,58.7969 L22.5,85.7969 M9.5,66.7969 L35.5,66.7969 M22.5,85.7969 L9.5,100.7969 M22.5,85.7969 L35.5,100.7969 " fill="none" style="stroke:#181818;stroke-width:0.5;"/><text fill="#000000" font-family="sans-serif" font-size="14" lengthAdjust="spacing" textLength="29" x="5" y="435.6514">VFM</text><ellipse cx="22.5" cy="447.4531" fill="#E3E3E3" rx="8" ry="8" style="stroke:#181818;stroke-width:0.5;"/><path d="M22.5,455.4531 L22.5,482.4531 M9.5,463.4531 L35.5,463.4531 M22.5,482.4531 L9.5,497.4531 M22.5,482.4531 L35.5,497.4531 " fill="none" style="stroke:#181818;stroke-width:0.5;"/><rect fill="#E3E3E3" height="30.2969" rx="2.5" ry="2.5" style="stroke:#181818;stroke-width:0.5;" width="70" x="584.5" y="87.2969"/><text fill="#000000" font-family="sans-serif" font-size="14" lengthAdjust="spacing" textLength="56" x="591.5" y="107.292">:System</text><rect fill="#E3E3E3" height="30.2969" rx="2.5" ry="2.5" style="stroke:#181818;stroke-width:0.5;" width="70" x="584.5" y="422.6563"/><text fill="#000000" font-family="sans-serif" font-size="14" lengthAdjust="spacing" textLength="56" x="591.5" y="442.6514">:System</text><rect fill="#FFFFFF" height="286.0625" style="stroke:#181818;stroke-width:1.0;" width="10" x="17.5" y="128.5938"/><rect fill="#FFFFFF" height="29.1328" style="stroke:#181818;stroke-width:1.0;" width="10" x="614.5" y="149.7266"/><rect fill="#FFFFFF" height="197.6641" style="stroke:#181818;stroke-width:1.0;" width="10" x="614.5" y="207.9922"/><polygon fill="#181818" points="602.5,145.7266,612.5,149.7266,602.5,153.7266,606.5,149.7266" style="stroke:#181818;stroke-width:1.0;"/><line style="stroke:#181818;stroke-width:1.0;" x1="27.5" x2="608.5" y1="149.7266" y2="149.7266"/><text fill="#000000" font-family="sans-serif" font-size="13" font-weight="bold" lengthAdjust="spacing" textLength="9" x="34.5" y="144.6606">1</text><text fill="#000000" font-family="sans-serif" font-size="13" lengthAdjust="spacing" textLength="200" x="47.5" y="144.6606">Asks to register a maintenance</text><polygon fill="#181818" points="38.5,174.8594,28.5,178.8594,38.5,182.8594,34.5,178.8594" style="stroke:#181818;stroke-width:1.0;"/><line style="stroke:#181818;stroke-width:1.0;stroke-dasharray:2.0,2.0;" x1="32.5" x2="618.5" y1="178.8594" y2="178.8594"/><text fill="#000000" font-family="sans-serif" font-size="13" font-weight="bold" lengthAdjust="spacing" textLength="9" x="44.5" y="173.7935">2</text><text fill="#000000" font-family="sans-serif" font-size="13" lengthAdjust="spacing" textLength="550" x="57.5" y="173.7935">Show Plates, Request Date of Check-Up and Current Kilometers and Frequency Option</text><polygon fill="#181818" points="602.5,203.9922,612.5,207.9922,602.5,211.9922,606.5,207.9922" style="stroke:#181818;stroke-width:1.0;"/><line style="stroke:#181818;stroke-width:1.0;" x1="27.5" x2="608.5" y1="207.9922" y2="207.9922"/><text fill="#000000" font-family="sans-serif" font-size="13" font-weight="bold" lengthAdjust="spacing" textLength="9" x="34.5" y="202.9263">3</text><text fill="#000000" font-family="sans-serif" font-size="13" lengthAdjust="spacing" textLength="533" x="47.5" y="202.9263">Selects a Plate, Provides Check-Up Info, Changes Check-up Frequency and Submits</text><line style="stroke:#181818;stroke-width:1.0;" x1="624.5" x2="666.5" y1="237.125" y2="237.125"/><line style="stroke:#181818;stroke-width:1.0;" x1="666.5" x2="666.5" y1="237.125" y2="250.125"/><line style="stroke:#181818;stroke-width:1.0;" x1="625.5" x2="666.5" y1="250.125" y2="250.125"/><polygon fill="#181818" points="635.5,246.125,625.5,250.125,635.5,254.125,631.5,250.125" style="stroke:#181818;stroke-width:1.0;"/><text fill="#000000" font-family="sans-serif" font-size="13" font-weight="bold" lengthAdjust="spacing" textLength="9" x="631.5" y="232.0591">4</text><text fill="#000000" font-family="sans-serif" font-size="13" lengthAdjust="spacing" textLength="153" x="644.5" y="232.0591">Verify Date of Check-Up</text><line style="stroke:#181818;stroke-width:1.0;" x1="624.5" x2="666.5" y1="279.2578" y2="279.2578"/><line style="stroke:#181818;stroke-width:1.0;" x1="666.5" x2="666.5" y1="279.2578" y2="292.2578"/><line style="stroke:#181818;stroke-width:1.0;" x1="625.5" x2="666.5" y1="292.2578" y2="292.2578"/><polygon fill="#181818" points="635.5,288.2578,625.5,292.2578,635.5,296.2578,631.5,292.2578" style="stroke:#181818;stroke-width:1.0;"/><text fill="#000000" font-family="sans-serif" font-size="13" font-weight="bold" lengthAdjust="spacing" textLength="9" x="631.5" y="274.1919">5</text><text fill="#000000" font-family="sans-serif" font-size="13" lengthAdjust="spacing" textLength="169" x="644.5" y="274.1919">Validate Date of Check-Up</text><line style="stroke:#181818;stroke-width:1.0;" x1="624.5" x2="666.5" y1="321.3906" y2="321.3906"/><line style="stroke:#181818;stroke-width:1.0;" x1="666.5" x2="666.5" y1="321.3906" y2="334.3906"/><line style="stroke:#181818;stroke-width:1.0;" x1="625.5" x2="666.5" y1="334.3906" y2="334.3906"/><polygon fill="#181818" points="635.5,330.3906,625.5,334.3906,635.5,338.3906,631.5,334.3906" style="stroke:#181818;stroke-width:1.0;"/><text fill="#000000" font-family="sans-serif" font-size="13" font-weight="bold" lengthAdjust="spacing" textLength="9" x="631.5" y="316.3247">6</text><text fill="#000000" font-family="sans-serif" font-size="13" lengthAdjust="spacing" textLength="207" x="644.5" y="316.3247">Verify Current Kilometers format</text><line style="stroke:#181818;stroke-width:1.0;" x1="624.5" x2="666.5" y1="363.5234" y2="363.5234"/><line style="stroke:#181818;stroke-width:1.0;" x1="666.5" x2="666.5" y1="363.5234" y2="376.5234"/><line style="stroke:#181818;stroke-width:1.0;" x1="625.5" x2="666.5" y1="376.5234" y2="376.5234"/><polygon fill="#181818" points="635.5,372.5234,625.5,376.5234,635.5,380.5234,631.5,376.5234" style="stroke:#181818;stroke-width:1.0;"/><text fill="#000000" font-family="sans-serif" font-size="13" font-weight="bold" lengthAdjust="spacing" textLength="9" x="631.5" y="358.4575">7</text><text fill="#000000" font-family="sans-serif" font-size="13" lengthAdjust="spacing" textLength="176" x="644.5" y="358.4575">Validate Current Kilometers</text><polygon fill="#181818" points="38.5,401.6563,28.5,405.6563,38.5,409.6563,34.5,405.6563" style="stroke:#181818;stroke-width:1.0;"/><line style="stroke:#181818;stroke-width:1.0;stroke-dasharray:2.0,2.0;" x1="32.5" x2="618.5" y1="405.6563" y2="405.6563"/><text fill="#000000" font-family="sans-serif" font-size="13" font-weight="bold" lengthAdjust="spacing" textLength="9" x="44.5" y="400.5903">8</text><text fill="#000000" font-family="sans-serif" font-size="13" lengthAdjust="spacing" textLength="189" x="57.5" y="400.5903">Confirms registration success</text><!--SRC=[bLB1QkD03BtxAqHEBIG_aCF2aX0e9MpPeRchOzaMySnuDN9B_dvbEqrTqYnRdyQQzwJtdYOVENOe622ac7mZAH2ez5Jaoqs7_eWrEJsr149UCTRj790RBDCRnnegR3CLXR8Qr9soKW17VtgAdc3BM0_mE-Uszx22trIp8GGErB0tmXuvAaKSmAxtdd86vwqWd8e2Uqsn3oyaTlQQ11Q7tNu1c67N4kaUewcKmZGfU-umAYpMauWHDHr7Ch-YqcTQ0VRDAx3wyMvX3J_pCOCcit_MZ10-r8xSIzltEKFnt61blJxrNeDhqXiyjKR8Iul2CieAsu6VAjWqv8-hvmumbh3fHSZCF79hsx7XUIplP0hs1BywvHJ7UILzAUEcBqUjBTGQJbAMy2JfbKlA7n8UOfMMzcjRlvJxRZP-4EFwby3MvtOIypHc0WuaN9skZF-JWYsN0_vRf6dE5rbMIGBgVmsyPbzxkzxq9iMA9UJpun4SjWLvUk0tjlON]--></g></svg>