<?xml version="1.0" encoding="us-ascii" standalone="no"?><svg xmlns="http://www.w3.org/2000/svg" xmlns:xlink="http://www.w3.org/1999/xlink" contentStyleType="text/css" height="420px" preserveAspectRatio="none" style="width:665px;height:420px;background:#FFFFFF;" version="1.1" viewBox="0 0 665 420" width="665px" zoomAndPan="magnify"><defs/><g><text fill="#000000" font-family="sans-serif" font-size="14" font-weight="bold" lengthAdjust="spacing" textLength="630" x="17.75" y="27.9951">System Sequence Diagram (SSD) - Register Vehicle Check-Up Success Scenario</text><rect fill="#FFFFFF" height="201.7969" style="stroke:#181818;stroke-width:1.0;" width="10" x="13.5" y="128.5938"/><rect fill="#FFFFFF" height="29.1328" style="stroke:#181818;stroke-width:1.0;" width="10" x="401.5" y="149.7266"/><rect fill="#FFFFFF" height="113.3984" style="stroke:#181818;stroke-width:1.0;" width="10" x="401.5" y="207.9922"/><line style="stroke:#181818;stroke-width:0.5;stroke-dasharray:5.0,5.0;" x1="18" x2="18" y1="118.5938" y2="339.3906"/><line style="stroke:#181818;stroke-width:0.5;stroke-dasharray:5.0,5.0;" x1="406.5" x2="406.5" y1="118.5938" y2="339.3906"/><text fill="#000000" font-family="sans-serif" font-size="14" lengthAdjust="spacing" textLength="20" x="5.5" y="115.292">FM</text><ellipse cx="18.5" cy="50.7969" fill="#E3E3E3" rx="8" ry="8" style="stroke:#181818;stroke-width:0.5;"/><path d="M18.5,58.7969 L18.5,85.7969 M5.5,66.7969 L31.5,66.7969 M18.5,85.7969 L5.5,100.7969 M18.5,85.7969 L31.5,100.7969 " fill="none" style="stroke:#181818;stroke-width:0.5;"/><text fill="#000000" font-family="sans-serif" font-size="14" lengthAdjust="spacing" textLength="20" x="5.5" y="351.3857">FM</text><ellipse cx="18.5" cy="363.1875" fill="#E3E3E3" rx="8" ry="8" style="stroke:#181818;stroke-width:0.5;"/><path d="M18.5,371.1875 L18.5,398.1875 M5.5,379.1875 L31.5,379.1875 M18.5,398.1875 L5.5,413.1875 M18.5,398.1875 L31.5,413.1875 " fill="none" style="stroke:#181818;stroke-width:0.5;"/><rect fill="#E3E3E3" height="30.2969" rx="2.5" ry="2.5" style="stroke:#181818;stroke-width:0.5;" width="70" x="371.5" y="87.2969"/><text fill="#000000" font-family="sans-serif" font-size="14" lengthAdjust="spacing" textLength="56" x="378.5" y="107.292">:System</text><rect fill="#E3E3E3" height="30.2969" rx="2.5" ry="2.5" style="stroke:#181818;stroke-width:0.5;" width="70" x="371.5" y="338.3906"/><text fill="#000000" font-family="sans-serif" font-size="14" lengthAdjust="spacing" textLength="56" x="378.5" y="358.3857">:System</text><rect fill="#FFFFFF" height="201.7969" style="stroke:#181818;stroke-width:1.0;" width="10" x="13.5" y="128.5938"/><rect fill="#FFFFFF" height="29.1328" style="stroke:#181818;stroke-width:1.0;" width="10" x="401.5" y="149.7266"/><rect fill="#FFFFFF" height="113.3984" style="stroke:#181818;stroke-width:1.0;" width="10" x="401.5" y="207.9922"/><polygon fill="#181818" points="389.5,145.7266,399.5,149.7266,389.5,153.7266,393.5,149.7266" style="stroke:#181818;stroke-width:1.0;"/><line style="stroke:#181818;stroke-width:1.0;" x1="23.5" x2="395.5" y1="149.7266" y2="149.7266"/><text fill="#000000" font-family="sans-serif" font-size="13" font-weight="bold" lengthAdjust="spacing" textLength="9" x="30.5" y="144.6606">1</text><text fill="#000000" font-family="sans-serif" font-size="13" lengthAdjust="spacing" textLength="346" x="43.5" y="144.6606">Selects a Vehicle ID and requests to register check-up</text><polygon fill="#181818" points="34.5,174.8594,24.5,178.8594,34.5,182.8594,30.5,178.8594" style="stroke:#181818;stroke-width:1.0;"/><line style="stroke:#181818;stroke-width:1.0;stroke-dasharray:2.0,2.0;" x1="28.5" x2="405.5" y1="178.8594" y2="178.8594"/><text fill="#000000" font-family="sans-serif" font-size="13" font-weight="bold" lengthAdjust="spacing" textLength="9" x="40.5" y="173.7935">2</text><text fill="#000000" font-family="sans-serif" font-size="13" lengthAdjust="spacing" textLength="304" x="53.5" y="173.7935">Requests Date of Check-Up, Current Kilometers</text><polygon fill="#181818" points="389.5,203.9922,399.5,207.9922,389.5,211.9922,393.5,207.9922" style="stroke:#181818;stroke-width:1.0;"/><line style="stroke:#181818;stroke-width:1.0;" x1="23.5" x2="395.5" y1="207.9922" y2="207.9922"/><text fill="#000000" font-family="sans-serif" font-size="13" font-weight="bold" lengthAdjust="spacing" textLength="9" x="30.5" y="202.9263">3</text><text fill="#000000" font-family="sans-serif" font-size="13" lengthAdjust="spacing" textLength="299" x="43.5" y="202.9263">Provides Date of Check-Up, Current Kilometers</text><line style="stroke:#181818;stroke-width:1.0;" x1="411.5" x2="453.5" y1="237.125" y2="237.125"/><line style="stroke:#181818;stroke-width:1.0;" x1="453.5" x2="453.5" y1="237.125" y2="250.125"/><line style="stroke:#181818;stroke-width:1.0;" x1="412.5" x2="453.5" y1="250.125" y2="250.125"/><polygon fill="#181818" points="422.5,246.125,412.5,250.125,422.5,254.125,418.5,250.125" style="stroke:#181818;stroke-width:1.0;"/><text fill="#000000" font-family="sans-serif" font-size="13" font-weight="bold" lengthAdjust="spacing" textLength="9" x="418.5" y="232.0591">4</text><text fill="#000000" font-family="sans-serif" font-size="13" lengthAdjust="spacing" textLength="169" x="431.5" y="232.0591">Validate Date of Check-Up</text><line style="stroke:#181818;stroke-width:1.0;" x1="411.5" x2="453.5" y1="279.2578" y2="279.2578"/><line style="stroke:#181818;stroke-width:1.0;" x1="453.5" x2="453.5" y1="279.2578" y2="292.2578"/><line style="stroke:#181818;stroke-width:1.0;" x1="412.5" x2="453.5" y1="292.2578" y2="292.2578"/><polygon fill="#181818" points="422.5,288.2578,412.5,292.2578,422.5,296.2578,418.5,292.2578" style="stroke:#181818;stroke-width:1.0;"/><text fill="#000000" font-family="sans-serif" font-size="13" font-weight="bold" lengthAdjust="spacing" textLength="9" x="418.5" y="274.1919">5</text><text fill="#000000" font-family="sans-serif" font-size="13" lengthAdjust="spacing" textLength="223" x="431.5" y="274.1919">Validate Current Kilometers format</text><polygon fill="#181818" points="34.5,317.3906,24.5,321.3906,34.5,325.3906,30.5,321.3906" style="stroke:#181818;stroke-width:1.0;"/><line style="stroke:#181818;stroke-width:1.0;stroke-dasharray:2.0,2.0;" x1="28.5" x2="405.5" y1="321.3906" y2="321.3906"/><text fill="#000000" font-family="sans-serif" font-size="13" font-weight="bold" lengthAdjust="spacing" textLength="9" x="40.5" y="316.3247">6</text><text fill="#000000" font-family="sans-serif" font-size="13" lengthAdjust="spacing" textLength="189" x="53.5" y="316.3247">Confirms registration success</text><!--SRC=[ZLBDQeD04Bxx54DEBJGla4ClaK0fWL9fxjDrr26wQsV7bBnzHsF4D0d4qx3xpVUtnZtx5WKRQ88FhfBG4AXqbCJffaMtnv8oFTO4GaxHb_KS42lCmo_x4Wgi8oM9iXeqEqQb1ZBwwSWxWfInxE5FMPO-mn8-gMH32EoeOcSBwuhSVldLGjOvHp52viYZS4WIx3JuhlaciTbf45XijWl029kQIBVepQ4avaVPSOjUOR4w6HXGft7OvGCgNQubOD_y19QlP_ih2r1Rw0Wu6NrB0NrkNLYoQ3SQR1x3k254rmwSaznPlpySYPUcSQ6viaP6mhJV2SNKo0kiEn6oLEzSsnEPK1ouShefSJVBXuG3v_IO0jpFCCynezzXpNcF_K__qD8D1qMG1lLQyxgxTV05InF7bn1K3XxYwK-wqzKV]--></g></svg>