<?xml version="1.0" encoding="UTF-8" standalone="no"?><svg xmlns="http://www.w3.org/2000/svg" xmlns:xlink="http://www.w3.org/1999/xlink" contentStyleType="text/css" height="462px" preserveAspectRatio="none" style="width:658px;height:462px;background:#FFFFFF;" version="1.1" viewBox="0 0 658 462" width="658px" zoomAndPan="magnify"><defs/><g><rect fill="none" height="26.2969" id="_title" style="stroke:none;stroke-width:1.0;" width="640" x="5" y="10"/><text fill="#000000" font-family="sans-serif" font-size="14" font-weight="bold" lengthAdjust="spacing" textLength="630" x="10" y="27.9951">System Sequence Diagram (SSD) - Register Vehicle Check-Up Success Scenario</text><rect fill="#FFFFFF" height="243.9297" style="stroke:#181818;stroke-width:1.0;" width="10" x="14.75" y="128.5938"/><rect fill="#FFFFFF" height="29.1328" style="stroke:#181818;stroke-width:1.0;" width="10" x="433.75" y="149.7266"/><rect fill="#FFFFFF" height="155.5313" style="stroke:#181818;stroke-width:1.0;" width="10" x="433.75" y="207.9922"/><line style="stroke:#181818;stroke-width:0.5;stroke-dasharray:5.0,5.0;" x1="19.25" x2="19.25" y1="118.5938" y2="381.5234"/><line style="stroke:#181818;stroke-width:0.5;stroke-dasharray:5.0,5.0;" x1="438.75" x2="438.75" y1="118.5938" y2="381.5234"/><text fill="#000000" font-family="sans-serif" font-size="14" lengthAdjust="spacing" textLength="20" x="6.75" y="115.292">FM</text><ellipse cx="19.75" cy="50.7969" fill="#E3E3E3" rx="8" ry="8" style="stroke:#181818;stroke-width:0.5;"/><path d="M19.75,58.7969 L19.75,85.7969 M6.75,66.7969 L32.75,66.7969 M19.75,85.7969 L6.75,100.7969 M19.75,85.7969 L32.75,100.7969 " fill="none" style="stroke:#181818;stroke-width:0.5;"/><text fill="#000000" font-family="sans-serif" font-size="14" lengthAdjust="spacing" textLength="20" x="6.75" y="393.5186">FM</text><ellipse cx="19.75" cy="405.3203" fill="#E3E3E3" rx="8" ry="8" style="stroke:#181818;stroke-width:0.5;"/><path d="M19.75,413.3203 L19.75,440.3203 M6.75,421.3203 L32.75,421.3203 M19.75,440.3203 L6.75,455.3203 M19.75,440.3203 L32.75,455.3203 " fill="none" style="stroke:#181818;stroke-width:0.5;"/><rect fill="#E3E3E3" height="30.2969" rx="2.5" ry="2.5" style="stroke:#181818;stroke-width:0.5;" width="70" x="403.75" y="87.2969"/><text fill="#000000" font-family="sans-serif" font-size="14" lengthAdjust="spacing" textLength="56" x="410.75" y="107.292">:System</text><rect fill="#E3E3E3" height="30.2969" rx="2.5" ry="2.5" style="stroke:#181818;stroke-width:0.5;" width="70" x="403.75" y="380.5234"/><text fill="#000000" font-family="sans-serif" font-size="14" lengthAdjust="spacing" textLength="56" x="410.75" y="400.5186">:System</text><rect fill="#FFFFFF" height="243.9297" style="stroke:#181818;stroke-width:1.0;" width="10" x="14.75" y="128.5938"/><rect fill="#FFFFFF" height="29.1328" style="stroke:#181818;stroke-width:1.0;" width="10" x="433.75" y="149.7266"/><rect fill="#FFFFFF" height="155.5313" style="stroke:#181818;stroke-width:1.0;" width="10" x="433.75" y="207.9922"/><polygon fill="#181818" points="421.75,145.7266,431.75,149.7266,421.75,153.7266,425.75,149.7266" style="stroke:#181818;stroke-width:1.0;"/><line style="stroke:#181818;stroke-width:1.0;" x1="24.75" x2="427.75" y1="149.7266" y2="149.7266"/><text fill="#000000" font-family="sans-serif" font-size="13" font-weight="bold" lengthAdjust="spacing" textLength="9" x="31.75" y="144.6606">1</text><text fill="#000000" font-family="sans-serif" font-size="13" lengthAdjust="spacing" textLength="248" x="44.75" y="144.6606">requests to register a vehicle check-up</text><polygon fill="#181818" points="35.75,174.8594,25.75,178.8594,35.75,182.8594,31.75,178.8594" style="stroke:#181818;stroke-width:1.0;"/><line style="stroke:#181818;stroke-width:1.0;stroke-dasharray:2.0,2.0;" x1="29.75" x2="437.75" y1="178.8594" y2="178.8594"/><text fill="#000000" font-family="sans-serif" font-size="13" font-weight="bold" lengthAdjust="spacing" textLength="9" x="41.75" y="173.7935">2</text><text fill="#000000" font-family="sans-serif" font-size="13" lengthAdjust="spacing" textLength="372" x="54.75" y="173.7935">requests Vehicle ID, Date of Check-Up, Current Kilometers</text><polygon fill="#181818" points="421.75,203.9922,431.75,207.9922,421.75,211.9922,425.75,207.9922" style="stroke:#181818;stroke-width:1.0;"/><line style="stroke:#181818;stroke-width:1.0;" x1="24.75" x2="427.75" y1="207.9922" y2="207.9922"/><text fill="#000000" font-family="sans-serif" font-size="13" font-weight="bold" lengthAdjust="spacing" textLength="9" x="31.75" y="202.9263">3</text><text fill="#000000" font-family="sans-serif" font-size="13" lengthAdjust="spacing" textLength="370" x="44.75" y="202.9263">provides Vehicle ID, Date of Check-Up, Current Kilometers</text><line style="stroke:#181818;stroke-width:1.0;" x1="443.75" x2="485.75" y1="237.125" y2="237.125"/><line style="stroke:#181818;stroke-width:1.0;" x1="485.75" x2="485.75" y1="237.125" y2="250.125"/><line style="stroke:#181818;stroke-width:1.0;" x1="444.75" x2="485.75" y1="250.125" y2="250.125"/><polygon fill="#181818" points="454.75,246.125,444.75,250.125,454.75,254.125,450.75,250.125" style="stroke:#181818;stroke-width:1.0;"/><text fill="#000000" font-family="sans-serif" font-size="13" font-weight="bold" lengthAdjust="spacing" textLength="9" x="450.75" y="232.0591">4</text><text fill="#000000" font-family="sans-serif" font-size="13" lengthAdjust="spacing" textLength="164" x="463.75" y="232.0591">validate Vehicle ID format</text><line style="stroke:#181818;stroke-width:1.0;" x1="443.75" x2="485.75" y1="279.2578" y2="279.2578"/><line style="stroke:#181818;stroke-width:1.0;" x1="485.75" x2="485.75" y1="279.2578" y2="292.2578"/><line style="stroke:#181818;stroke-width:1.0;" x1="444.75" x2="485.75" y1="292.2578" y2="292.2578"/><polygon fill="#181818" points="454.75,288.2578,444.75,292.2578,454.75,296.2578,450.75,292.2578" style="stroke:#181818;stroke-width:1.0;"/><text fill="#000000" font-family="sans-serif" font-size="13" font-weight="bold" lengthAdjust="spacing" textLength="9" x="450.75" y="274.1919">5</text><text fill="#000000" font-family="sans-serif" font-size="13" lengthAdjust="spacing" textLength="167" x="463.75" y="274.1919">validate Date of Check-Up</text><line style="stroke:#181818;stroke-width:1.0;" x1="443.75" x2="485.75" y1="321.3906" y2="321.3906"/><line style="stroke:#181818;stroke-width:1.0;" x1="485.75" x2="485.75" y1="321.3906" y2="334.3906"/><line style="stroke:#181818;stroke-width:1.0;" x1="444.75" x2="485.75" y1="334.3906" y2="334.3906"/><polygon fill="#181818" points="454.75,330.3906,444.75,334.3906,454.75,338.3906,450.75,334.3906" style="stroke:#181818;stroke-width:1.0;"/><text fill="#000000" font-family="sans-serif" font-size="13" font-weight="bold" lengthAdjust="spacing" textLength="9" x="450.75" y="316.3247">6</text><text fill="#000000" font-family="sans-serif" font-size="13" lengthAdjust="spacing" textLength="174" x="463.75" y="316.3247">validate Current Kilometers</text><polygon fill="#181818" points="35.75,359.5234,25.75,363.5234,35.75,367.5234,31.75,363.5234" style="stroke:#181818;stroke-width:1.0;"/><line style="stroke:#181818;stroke-width:1.0;stroke-dasharray:2.0,2.0;" x1="29.75" x2="437.75" y1="363.5234" y2="363.5234"/><text fill="#000000" font-family="sans-serif" font-size="13" font-weight="bold" lengthAdjust="spacing" textLength="9" x="41.75" y="358.4575">7</text><text fill="#000000" font-family="sans-serif" font-size="13" lengthAdjust="spacing" textLength="187" x="54.75" y="358.4575">confirms registration success</text><!--MD5=[171fe1c668f8bdf58207dbd4f57576b6]
@startuml
skinparam monochrome true
skinparam packageStyle rectangle
skinparam shadowing false

title System Sequence Diagram (SSD) - Register Vehicle Check-Up Success Scenario

autonumber

actor "FM" as FleetManager
participant ":System" as System

activate FleetManager

    FleetManager -> System : requests to register a vehicle check-up
    activate System

        System - -> FleetManager : requests Vehicle ID, Date of Check-Up, Current Kilometers
    deactivate System

    FleetManager -> System : provides Vehicle ID, Date of Check-Up, Current Kilometers
    activate System

        System -> System : validate Vehicle ID format
        System -> System : validate Date of Check-Up
        System -> System : validate Current Kilometers

        System - -> FleetManager : confirms registration success
    deactivate System

@enduml

PlantUML version 1.2022.7(Mon Aug 22 18:01:30 WEST 2022)
(GPL source distribution)
Java Runtime: Java(TM) SE Runtime Environment
JVM: Java HotSpot(TM) 64-Bit Server VM
Default Encoding: UTF-8
Language: en
Country: US
--></g></svg>