<?xml version="1.0" encoding="us-ascii" standalone="no"?><svg xmlns="http://www.w3.org/2000/svg" xmlns:xlink="http://www.w3.org/1999/xlink" contentStyleType="text/css" height="881px" preserveAspectRatio="none" style="width:978px;height:881px;background:#FFFFFF;" version="1.1" viewBox="0 0 978 881" width="978px" zoomAndPan="magnify"><defs/><g><rect fill="#FFFFFF" height="694.8203" style="stroke:#181818;stroke-width:1.0;" width="10" x="32.5" y="93.6211"/><rect fill="#FFFFFF" height="296.9883" style="stroke:#181818;stroke-width:1.0;" width="10" x="171.5" y="116.9121"/><rect fill="#FFFFFF" height="33.6211" style="stroke:#181818;stroke-width:1.0;" width="10" x="302.5" y="158.2031"/><rect fill="#FFFFFF" height="61.291" style="stroke:#181818;stroke-width:1.0;" width="10" x="302.5" y="383.9004"/><rect fill="#FFFFFF" height="220.668" style="stroke:#181818;stroke-width:1.0;" width="10" x="302.5" y="527.7734"/><rect fill="#FFFFFF" height="150.7852" style="stroke:#181818;stroke-width:1.0;" width="10" x="463.5" y="201.8242"/><rect fill="#FFFFFF" height="158.0859" style="stroke:#181818;stroke-width:1.0;" width="10" x="463.5" y="559.0645"/><rect fill="#FFFFFF" height="42.9365" style="stroke:#181818;stroke-width:1.0;" width="10" x="625" y="247.0908"/><rect fill="#FFFFFF" height="95.5039" style="stroke:#181818;stroke-width:1.0;" width="10" x="625" y="590.3555"/><rect fill="#FFFFFF" height="31.291" style="stroke:#181818;stroke-width:1.0;" width="10" x="770" y="321.3184"/><rect fill="none" height="296.25" style="stroke:#000000;stroke-width:1.5;" width="962.5" x="10" y="485.1914"/><line style="stroke:#181818;stroke-width:0.5;stroke-dasharray:5.0,5.0;" x1="37" x2="37" y1="83.6211" y2="798.4414"/><line style="stroke:#181818;stroke-width:0.5;stroke-dasharray:5.0,5.0;" x1="176" x2="176" y1="83.6211" y2="798.4414"/><line style="stroke:#181818;stroke-width:0.5;stroke-dasharray:5.0,5.0;" x1="307.5" x2="307.5" y1="156.7227" y2="798.4414"/><line style="stroke:#181818;stroke-width:0.5;stroke-dasharray:5.0,5.0;" x1="468.5" x2="468.5" y1="200.3438" y2="798.4414"/><line style="stroke:#181818;stroke-width:0.5;stroke-dasharray:5.0,5.0;" x1="629.5" x2="629.5" y1="83.6211" y2="798.4414"/><line style="stroke:#181818;stroke-width:0.5;stroke-dasharray:5.0,5.0;" x1="774.5" x2="774.5" y1="83.6211" y2="798.4414"/><line style="stroke:#181818;stroke-width:0.5;stroke-dasharray:5.0,5.0;" x1="907.5" x2="907.5" y1="83.6211" y2="798.4414"/><text fill="#000000" font-family="sans-serif" font-size="14" lengthAdjust="spacing" textLength="29" x="20" y="80.1074">User</text><ellipse cx="37.5" cy="13.5" fill="#E3E3E3" rx="8" ry="8" style="stroke:#181818;stroke-width:0.5;"/><path d="M37.5,21.5 L37.5,48.5 M24.5,29.5 L50.5,29.5 M37.5,48.5 L24.5,63.5 M37.5,48.5 L50.5,63.5 " fill="none" style="stroke:#181818;stroke-width:0.5;"/><text fill="#000000" font-family="sans-serif" font-size="14" lengthAdjust="spacing" textLength="29" x="20" y="812.5488">User</text><ellipse cx="37.5" cy="824.5625" fill="#E3E3E3" rx="8" ry="8" style="stroke:#181818;stroke-width:0.5;"/><path d="M37.5,832.5625 L37.5,859.5625 M24.5,840.5625 L50.5,840.5625 M37.5,859.5625 L24.5,874.5625 M37.5,859.5625 L50.5,874.5625 " fill="none" style="stroke:#181818;stroke-width:0.5;"/><rect fill="#E3E3E3" height="32.6211" rx="2.5" ry="2.5" style="stroke:#181818;stroke-width:0.5;" width="95" x="129" y="50"/><text fill="#000000" font-family="sans-serif" font-size="14" lengthAdjust="spacing" textLength="81" x="136" y="72.1074">:MainMenuUI</text><rect fill="#E3E3E3" height="32.6211" rx="2.5" ry="2.5" style="stroke:#181818;stroke-width:0.5;" width="95" x="129" y="797.4414"/><text fill="#000000" font-family="sans-serif" font-size="14" lengthAdjust="spacing" textLength="81" x="136" y="819.5488">:MainMenuUI</text><rect fill="#E3E3E3" height="32.6211" rx="2.5" ry="2.5" style="stroke:#181818;stroke-width:0.5;" width="110" x="252.5" y="797.4414"/><text fill="#000000" font-family="sans-serif" font-size="14" lengthAdjust="spacing" textLength="96" x="259.5" y="819.5488">:{NameOfUC}UI</text><rect fill="#E3E3E3" height="32.6211" rx="2.5" ry="2.5" style="stroke:#181818;stroke-width:0.5;" width="170" x="383.5" y="797.4414"/><text fill="#000000" font-family="sans-serif" font-size="14" lengthAdjust="spacing" textLength="156" x="390.5" y="819.5488">:AuthenticationController</text><rect fill="#E3E3E3" height="32.6211" rx="2.5" ry="2.5" style="stroke:#181818;stroke-width:0.5;" width="133" x="563.5" y="50"/><text fill="#000000" font-family="sans-serif" font-size="14" lengthAdjust="spacing" textLength="119" x="570.5" y="72.1074">ApplicationSession</text><rect fill="#E3E3E3" height="32.6211" rx="2.5" ry="2.5" style="stroke:#181818;stroke-width:0.5;" width="133" x="563.5" y="797.4414"/><text fill="#000000" font-family="sans-serif" font-size="14" lengthAdjust="spacing" textLength="119" x="570.5" y="819.5488">ApplicationSession</text><rect fill="#E3E3E3" height="51.2422" rx="2.5" ry="2.5" style="stroke:#181818;stroke-width:0.5;" width="137" x="706.5" y="31.3789"/><text fill="#000000" font-family="sans-serif" font-size="14" lengthAdjust="spacing" textLength="74" x="738" y="53.4863">appSession</text><text fill="#000000" font-family="sans-serif" font-size="14" lengthAdjust="spacing" textLength="123" x="713.5" y="72.1074">:ApplicationSession</text><rect fill="#E3E3E3" height="51.2422" rx="2.5" ry="2.5" style="stroke:#181818;stroke-width:0.5;" width="137" x="706.5" y="797.4414"/><text fill="#000000" font-family="sans-serif" font-size="14" lengthAdjust="spacing" textLength="74" x="738" y="819.5488">appSession</text><text fill="#000000" font-family="sans-serif" font-size="14" lengthAdjust="spacing" textLength="123" x="713.5" y="838.1699">:ApplicationSession</text><rect fill="#E3E3E3" height="51.2422" rx="2.5" ry="2.5" style="stroke:#181818;stroke-width:0.5;" width="109" x="853.5" y="31.3789"/><text fill="#000000" font-family="sans-serif" font-size="14" lengthAdjust="spacing" textLength="95" x="860.5" y="53.4863">currentSession</text><text fill="#000000" font-family="sans-serif" font-size="14" lengthAdjust="spacing" textLength="83" x="866.5" y="72.1074">:UserSession</text><rect fill="#E3E3E3" height="51.2422" rx="2.5" ry="2.5" style="stroke:#181818;stroke-width:0.5;" width="109" x="853.5" y="797.4414"/><text fill="#000000" font-family="sans-serif" font-size="14" lengthAdjust="spacing" textLength="95" x="860.5" y="819.5488">currentSession</text><text fill="#000000" font-family="sans-serif" font-size="14" lengthAdjust="spacing" textLength="83" x="866.5" y="838.1699">:UserSession</text><rect fill="#FFFFFF" height="694.8203" style="stroke:#181818;stroke-width:1.0;" width="10" x="32.5" y="93.6211"/><rect fill="#FFFFFF" height="296.9883" style="stroke:#181818;stroke-width:1.0;" width="10" x="171.5" y="116.9121"/><rect fill="#FFFFFF" height="33.6211" style="stroke:#181818;stroke-width:1.0;" width="10" x="302.5" y="158.2031"/><rect fill="#FFFFFF" height="61.291" style="stroke:#181818;stroke-width:1.0;" width="10" x="302.5" y="383.9004"/><rect fill="#FFFFFF" height="220.668" style="stroke:#181818;stroke-width:1.0;" width="10" x="302.5" y="527.7734"/><rect fill="#FFFFFF" height="150.7852" style="stroke:#181818;stroke-width:1.0;" width="10" x="463.5" y="201.8242"/><rect fill="#FFFFFF" height="158.0859" style="stroke:#181818;stroke-width:1.0;" width="10" x="463.5" y="559.0645"/><rect fill="#FFFFFF" height="42.9365" style="stroke:#181818;stroke-width:1.0;" width="10" x="625" y="247.0908"/><rect fill="#FFFFFF" height="95.5039" style="stroke:#181818;stroke-width:1.0;" width="10" x="625" y="590.3555"/><rect fill="#FFFFFF" height="31.291" style="stroke:#181818;stroke-width:1.0;" width="10" x="770" y="321.3184"/><polygon fill="#181818" points="159.5,112.9121,169.5,116.9121,159.5,120.9121,163.5,116.9121" style="stroke:#181818;stroke-width:1.0;"/><line style="stroke:#181818;stroke-width:1.0;" x1="42.5" x2="165.5" y1="116.9121" y2="116.9121"/><text fill="#000000" font-family="sans-serif" font-size="13" font-weight="bold" lengthAdjust="spacing" textLength="7" x="49.5" y="111.6494">1</text><text fill="#000000" font-family="sans-serif" font-size="13" lengthAdjust="spacing" textLength="99" x="60.5" y="111.6494">selects an option</text><polygon fill="#181818" points="240.5,144.2031,250.5,148.2031,240.5,152.2031,244.5,148.2031" style="stroke:#181818;stroke-width:1.0;"/><line style="stroke:#181818;stroke-width:1.0;stroke-dasharray:2.0,2.0;" x1="181.5" x2="246.5" y1="148.2031" y2="148.2031"/><text fill="#000000" font-family="sans-serif" font-size="13" font-weight="bold" lengthAdjust="spacing" textLength="7" x="188.5" y="142.9404">2</text><text fill="#000000" font-family="sans-serif" font-size="13" lengthAdjust="spacing" textLength="36" x="199.5" y="142.9404">create</text><rect fill="#E3E3E3" height="32.6211" rx="2.5" ry="2.5" style="stroke:#181818;stroke-width:0.5;" width="110" x="252.5" y="124.9121"/><text fill="#000000" font-family="sans-serif" font-size="14" lengthAdjust="spacing" textLength="96" x="259.5" y="147.0195">:{NameOfUC}UI</text><polygon fill="#181818" points="371.5,187.8242,381.5,191.8242,371.5,195.8242,375.5,191.8242" style="stroke:#181818;stroke-width:1.0;"/><line style="stroke:#181818;stroke-width:1.0;stroke-dasharray:2.0,2.0;" x1="307.5" x2="377.5" y1="191.8242" y2="191.8242"/><text fill="#000000" font-family="sans-serif" font-size="13" font-weight="bold" lengthAdjust="spacing" textLength="7" x="314.5" y="186.5615">3</text><text fill="#000000" font-family="sans-serif" font-size="13" lengthAdjust="spacing" textLength="36" x="325.5" y="186.5615">create</text><rect fill="#E3E3E3" height="32.6211" rx="2.5" ry="2.5" style="stroke:#181818;stroke-width:0.5;" width="170" x="383.5" y="168.5332"/><text fill="#000000" font-family="sans-serif" font-size="14" lengthAdjust="spacing" textLength="156" x="390.5" y="190.6406">:AuthenticationController</text><polygon fill="#181818" points="613,243.0908,623,247.0908,613,251.0908,617,247.0908" style="stroke:#181818;stroke-width:1.0;"/><line style="stroke:#181818;stroke-width:1.0;" x1="473.5" x2="619" y1="247.0908" y2="247.0908"/><text fill="#000000" font-family="sans-serif" font-size="13" font-weight="bold" lengthAdjust="spacing" textLength="7" x="480.5" y="241.8281">4</text><text fill="#000000" font-family="sans-serif" font-size="13" lengthAdjust="spacing" textLength="75" x="491.5" y="241.8281">getinstance()</text><path d="M640,217.1543 L640,261.1543 L767,261.1543 L767,227.1543 L757,217.1543 L640,217.1543 " fill="#FAFAFA" style="stroke:#181818;stroke-width:0.5;"/><path d="M757,217.1543 L757,227.1543 L767,227.1543 L757,217.1543 " fill="#FAFAFA" style="stroke:#181818;stroke-width:0.5;"/><text fill="#000000" font-family="sans-serif" font-size="13" lengthAdjust="spacing" textLength="79" x="646" y="236.1826">static method</text><text fill="#000000" font-family="sans-serif" font-size="13" lengthAdjust="spacing" textLength="106" x="646" y="253.4736">(Singleton pattern)</text><polygon fill="#181818" points="484.5,286.0273,474.5,290.0273,484.5,294.0273,480.5,290.0273" style="stroke:#181818;stroke-width:1.0;"/><line style="stroke:#181818;stroke-width:1.0;stroke-dasharray:2.0,2.0;" x1="478.5" x2="629" y1="290.0273" y2="290.0273"/><text fill="#000000" font-family="sans-serif" font-size="13" font-weight="bold" lengthAdjust="spacing" textLength="7" x="490.5" y="284.7646">5</text><text fill="#000000" font-family="sans-serif" font-size="13" lengthAdjust="spacing" textLength="68" x="501.5" y="284.7646">appSession</text><polygon fill="#181818" points="758,317.3184,768,321.3184,758,325.3184,762,321.3184" style="stroke:#181818;stroke-width:1.0;"/><line style="stroke:#181818;stroke-width:1.0;" x1="473.5" x2="764" y1="321.3184" y2="321.3184"/><text fill="#000000" font-family="sans-serif" font-size="13" font-weight="bold" lengthAdjust="spacing" textLength="7" x="480.5" y="316.0557">6</text><text fill="#000000" font-family="sans-serif" font-size="13" lengthAdjust="spacing" textLength="115" x="491.5" y="316.0557">getCurrentSession()</text><polygon fill="#181818" points="479.5,348.6094,469.5,352.6094,479.5,356.6094,475.5,352.6094" style="stroke:#181818;stroke-width:1.0;"/><line style="stroke:#181818;stroke-width:1.0;stroke-dasharray:2.0,2.0;" x1="473.5" x2="774" y1="352.6094" y2="352.6094"/><text fill="#000000" font-family="sans-serif" font-size="13" font-weight="bold" lengthAdjust="spacing" textLength="7" x="485.5" y="347.3467">7</text><text fill="#000000" font-family="sans-serif" font-size="13" lengthAdjust="spacing" textLength="87" x="496.5" y="347.3467">currentSession</text><polygon fill="#181818" points="290.5,379.9004,300.5,383.9004,290.5,387.9004,294.5,383.9004" style="stroke:#181818;stroke-width:1.0;"/><line style="stroke:#181818;stroke-width:1.0;" x1="181.5" x2="296.5" y1="383.9004" y2="383.9004"/><text fill="#000000" font-family="sans-serif" font-size="13" font-weight="bold" lengthAdjust="spacing" textLength="7" x="188.5" y="378.6377">8</text><text fill="#000000" font-family="sans-serif" font-size="13" lengthAdjust="spacing" textLength="26" x="199.5" y="378.6377">run()</text><polygon fill="#181818" points="53.5,441.1914,43.5,445.1914,53.5,449.1914,49.5,445.1914" style="stroke:#181818;stroke-width:1.0;"/><line style="stroke:#181818;stroke-width:1.0;stroke-dasharray:2.0,2.0;" x1="47.5" x2="306.5" y1="445.1914" y2="445.1914"/><text fill="#000000" font-family="sans-serif" font-size="13" font-weight="bold" lengthAdjust="spacing" textLength="7" x="59.5" y="439.9287">9</text><text fill="#000000" font-family="sans-serif" font-size="13" lengthAdjust="spacing" textLength="114" x="70.5" y="439.9287">requests something</text><path d="M10,485.1914 L83,485.1914 L83,494.4824 L73,504.4824 L10,504.4824 L10,485.1914 " fill="#EEEEEE" style="stroke:#000000;stroke-width:1.5;"/><rect fill="none" height="296.25" style="stroke:#000000;stroke-width:1.5;" width="962.5" x="10" y="485.1914"/><text fill="#000000" font-family="sans-serif" font-size="13" font-weight="bold" lengthAdjust="spacing" textLength="28" x="25" y="500.2197">loop</text><polygon fill="#181818" points="290.5,523.7734,300.5,527.7734,290.5,531.7734,294.5,527.7734" style="stroke:#181818;stroke-width:1.0;"/><line style="stroke:#181818;stroke-width:1.0;" x1="42.5" x2="296.5" y1="527.7734" y2="527.7734"/><text fill="#000000" font-family="sans-serif" font-size="13" font-weight="bold" lengthAdjust="spacing" textLength="14" x="49.5" y="522.5107">10</text><text fill="#000000" font-family="sans-serif" font-size="13" lengthAdjust="spacing" textLength="92" x="67.5" y="522.5107">does something</text><polygon fill="#181818" points="451.5,555.0645,461.5,559.0645,451.5,563.0645,455.5,559.0645" style="stroke:#181818;stroke-width:1.0;"/><line style="stroke:#181818;stroke-width:1.0;" x1="312.5" x2="457.5" y1="559.0645" y2="559.0645"/><text fill="#000000" font-family="sans-serif" font-size="13" font-weight="bold" lengthAdjust="spacing" textLength="14" x="319.5" y="553.8018">11</text><text fill="#000000" font-family="sans-serif" font-size="13" lengthAdjust="spacing" textLength="70" x="337.5" y="553.8018">methodX(...)</text><polygon fill="#181818" points="613,586.3555,623,590.3555,613,594.3555,617,590.3555" style="stroke:#181818;stroke-width:1.0;"/><line style="stroke:#181818;stroke-width:1.0;" x1="473.5" x2="619" y1="590.3555" y2="590.3555"/><text fill="#000000" font-family="sans-serif" font-size="13" font-weight="bold" lengthAdjust="spacing" textLength="14" x="480.5" y="585.0928">12</text><text fill="#000000" font-family="sans-serif" font-size="13" lengthAdjust="spacing" textLength="72" x="498.5" y="585.0928">methodY(...)</text><rect fill="none" height="59.2129" style="stroke:#000000;stroke-width:1.5;" width="405" x="560.5" y="598.3555"/><path d="M560.5,598.3555 L622.5,598.3555 L622.5,607.3555 L612.5,617.3555 L560.5,617.3555 L560.5,598.3555 " fill="#EEEEEE" style="stroke:#000000;stroke-width:2.0;"/><text fill="#000000" font-family="sans-serif" font-size="13" font-weight="bold" lengthAdjust="spacing" textLength="17" x="573.5" y="614.3838">ref</text><text fill="#000000" font-family="sans-serif" font-size="12" lengthAdjust="spacing" textLength="3" x="761.5" y="634.3047">&#160;</text><text fill="#000000" font-family="sans-serif" font-size="12" lengthAdjust="spacing" textLength="3" x="761.5" y="650.2656">&#160;</text><polygon fill="#181818" points="484.5,681.8594,474.5,685.8594,484.5,689.8594,480.5,685.8594" style="stroke:#181818;stroke-width:1.0;"/><line style="stroke:#181818;stroke-width:1.0;stroke-dasharray:2.0,2.0;" x1="478.5" x2="629" y1="685.8594" y2="685.8594"/><text fill="#000000" font-family="sans-serif" font-size="13" font-weight="bold" lengthAdjust="spacing" textLength="14" x="490.5" y="680.5967">13</text><text fill="#000000" font-family="sans-serif" font-size="13" lengthAdjust="spacing" textLength="41" x="508.5" y="680.5967">answer</text><polygon fill="#181818" points="323.5,713.1504,313.5,717.1504,323.5,721.1504,319.5,717.1504" style="stroke:#181818;stroke-width:1.0;"/><line style="stroke:#181818;stroke-width:1.0;stroke-dasharray:2.0,2.0;" x1="317.5" x2="467.5" y1="717.1504" y2="717.1504"/><text fill="#000000" font-family="sans-serif" font-size="13" font-weight="bold" lengthAdjust="spacing" textLength="14" x="329.5" y="711.8877">14</text><text fill="#000000" font-family="sans-serif" font-size="13" lengthAdjust="spacing" textLength="41" x="347.5" y="711.8877">answer</text><polygon fill="#181818" points="53.5,744.4414,43.5,748.4414,53.5,752.4414,49.5,748.4414" style="stroke:#181818;stroke-width:1.0;"/><line style="stroke:#181818;stroke-width:1.0;stroke-dasharray:2.0,2.0;" x1="47.5" x2="306.5" y1="748.4414" y2="748.4414"/><text fill="#000000" font-family="sans-serif" font-size="13" font-weight="bold" lengthAdjust="spacing" textLength="14" x="59.5" y="743.1787">15</text><text fill="#000000" font-family="sans-serif" font-size="13" lengthAdjust="spacing" textLength="181" x="77.5" y="743.1787">answers/requests another thing</text><!--SRC=[bLLDZvim4BtpAwnScgnsqtiEbIAK0rAJNOKYjL8lNfW4Qy6cjjbjrVI_Tsm8iVdOP7q1UTuy3s_U6FN2U4KbBKafk4XpAKeWMjOGg2vIqVI57Y7MVmeW4b9D-R5m0IgdcNXZ_4WEj50G1BJMWjVbCyWW-9Ip3CX12FqiVWSqrKAIMQ90pWXL98at-m1PD4jPHRacizMMChu5NYUHHMmtkwI7-BkZ9JmUal1VYqd2tNgxIQ8URbth73XkKCq43mNNKXH5UtBuRV_Lnw-hgcYnCIY53mjSFpt5cpYE7dUXZwTLrU9-yjNLv5vnQIqbrdOXC9AucM6oRpC3enfxfHeQkGA2oxoHXozM7h8Y2WfiZ2AK4r6P8YoeoxCYsYspRCu39fzrkxj3YbG2GZlGvSopk5t8dj_kMXwZvHX71k-mT27R2O_Sx9YFSwH7yYDenXMwBuNvma_W0daaE-RQspOB4r1rKeBEHJQ8pcDcp8nsHPjh3P8lF0pmp9BxntMbkzuOSBlLdrN2pxZOnaznn9ga7GeJDSA4dftwyemGH-_L6xdr-awzNhB3xCJz9ZSEl1WGZv6rANlQVJq-tz43HzhnG5BuLOF2kL32601xxQMSJgVhNYs4g3hKUUoSmZC1O_mtpqydT6FHx_FbShaORzzmKgQdfM7xCMIxtS1cIJWGyGhIHTuxpRvtxwbH1ZD2o38QcneHhjxmtz57tp8X5q7yBerGJhfpoaqDX_hSkOhYrP2ZDXztrbaOQwx0HPWR_Zy0]--></g></svg>