<?xml version="1.0" encoding="us-ascii" standalone="no"?><svg xmlns="http://www.w3.org/2000/svg" xmlns:xlink="http://www.w3.org/1999/xlink" contentStyleType="text/css" height="560px" preserveAspectRatio="none" style="width:459px;height:560px;background:#FFFFFF;" version="1.1" viewBox="0 0 459 560" width="459px" zoomAndPan="magnify"><defs/><g><text fill="#000000" font-family="sans-serif" font-size="14" font-weight="bold" lengthAdjust="spacing" textLength="350" x="56" y="30.1074">System Sequence Diagram (SSD) - Alternative Two</text><rect fill="#FFFFFF" height="335.2012" style="stroke:#181818;stroke-width:1.0;" width="10" x="33" y="133.2422"/><rect fill="#FFFFFF" height="74.873" style="stroke:#181818;stroke-width:1.0;" width="10" x="406" y="156.5332"/><rect fill="#FFFFFF" height="31.291" style="stroke:#181818;stroke-width:1.0;" width="10" x="406" y="269.6973"/><rect fill="#FFFFFF" height="31.291" style="stroke:#181818;stroke-width:1.0;" width="10" x="406" y="358.5703"/><rect fill="#FFFFFF" height="31.291" style="stroke:#181818;stroke-width:1.0;" width="10" x="406" y="428.1523"/><rect fill="none" height="67.873" style="stroke:#000000;stroke-width:1.5;" width="443" x="10" y="171.5332"/><rect fill="none" height="81.873" style="stroke:#000000;stroke-width:1.5;" width="443" x="10" y="315.9883"/><line style="stroke:#181818;stroke-width:0.5;stroke-dasharray:5.0,5.0;" x1="38" x2="38" y1="123.2422" y2="477.4434"/><line style="stroke:#181818;stroke-width:0.5;stroke-dasharray:5.0,5.0;" x1="411" x2="411" y1="123.2422" y2="477.4434"/><text fill="#000000" font-family="sans-serif" font-size="14" lengthAdjust="spacing" textLength="30" x="20" y="119.7285">HRM</text><ellipse cx="38" cy="53.1211" fill="#E3E3E3" rx="8" ry="8" style="stroke:#181818;stroke-width:0.5;"/><path d="M38,61.1211 L38,88.1211 M25,69.1211 L51,69.1211 M38,88.1211 L25,103.1211 M38,88.1211 L51,103.1211 " fill="none" style="stroke:#181818;stroke-width:0.5;"/><text fill="#000000" font-family="sans-serif" font-size="14" lengthAdjust="spacing" textLength="30" x="20" y="491.5508">HRM</text><ellipse cx="38" cy="503.5645" fill="#E3E3E3" rx="8" ry="8" style="stroke:#181818;stroke-width:0.5;"/><path d="M38,511.5645 L38,538.5645 M25,519.5645 L51,519.5645 M38,538.5645 L25,553.5645 M38,538.5645 L51,553.5645 " fill="none" style="stroke:#181818;stroke-width:0.5;"/><rect fill="#E3E3E3" height="32.6211" rx="2.5" ry="2.5" style="stroke:#181818;stroke-width:0.5;" width="64" x="379" y="89.6211"/><text fill="#000000" font-family="sans-serif" font-size="14" lengthAdjust="spacing" textLength="50" x="386" y="111.7285">:System</text><rect fill="#E3E3E3" height="32.6211" rx="2.5" ry="2.5" style="stroke:#181818;stroke-width:0.5;" width="64" x="379" y="476.4434"/><text fill="#000000" font-family="sans-serif" font-size="14" lengthAdjust="spacing" textLength="50" x="386" y="498.5508">:System</text><rect fill="#FFFFFF" height="335.2012" style="stroke:#181818;stroke-width:1.0;" width="10" x="33" y="133.2422"/><rect fill="#FFFFFF" height="74.873" style="stroke:#181818;stroke-width:1.0;" width="10" x="406" y="156.5332"/><rect fill="#FFFFFF" height="31.291" style="stroke:#181818;stroke-width:1.0;" width="10" x="406" y="269.6973"/><rect fill="#FFFFFF" height="31.291" style="stroke:#181818;stroke-width:1.0;" width="10" x="406" y="358.5703"/><rect fill="#FFFFFF" height="31.291" style="stroke:#181818;stroke-width:1.0;" width="10" x="406" y="428.1523"/><polygon fill="#181818" points="394,152.5332,404,156.5332,394,160.5332,398,156.5332" style="stroke:#181818;stroke-width:1.0;"/><line style="stroke:#181818;stroke-width:1.0;" x1="43" x2="400" y1="156.5332" y2="156.5332"/><text fill="#000000" font-family="sans-serif" font-size="13" font-weight="bold" lengthAdjust="spacing" textLength="7" x="50" y="151.2705">1</text><text fill="#000000" font-family="sans-serif" font-size="13" lengthAdjust="spacing" textLength="171" x="61" y="151.2705">asks to generate a new Team</text><path d="M10,171.5332 L71,171.5332 L71,180.8242 L61,190.8242 L10,190.8242 L10,171.5332 " fill="#EEEEEE" style="stroke:#000000;stroke-width:1.5;"/><rect fill="none" height="67.873" style="stroke:#000000;stroke-width:1.5;" width="443" x="10" y="171.5332"/><text fill="#000000" font-family="sans-serif" font-size="13" font-weight="bold" lengthAdjust="spacing" textLength="16" x="25" y="186.5615">alt</text><text fill="#000000" font-family="sans-serif" font-size="11" font-weight="bold" lengthAdjust="spacing" textLength="210" x="86" y="185.4033">[Minimum of 1 collaborator and 1 skill]</text><polygon fill="#181818" points="54,227.4063,44,231.4063,54,235.4063,50,231.4063" style="stroke:#181818;stroke-width:1.0;"/><line style="stroke:#181818;stroke-width:1.0;stroke-dasharray:2.0,2.0;" x1="48" x2="410" y1="231.4063" y2="231.4063"/><text fill="#000000" font-family="sans-serif" font-size="13" font-weight="bold" lengthAdjust="spacing" textLength="7" x="60" y="217.498">2</text><text fill="#000000" font-family="sans-serif" font-size="13" lengthAdjust="spacing" textLength="212" x="71" y="208.8525">requests data (i.e. skills set, number</text><text fill="#000000" font-family="sans-serif" font-size="13" lengthAdjust="spacing" textLength="153" x="71" y="226.1436">of pretended collaborators)</text><polygon fill="#181818" points="394,265.6973,404,269.6973,394,273.6973,398,269.6973" style="stroke:#181818;stroke-width:1.0;"/><line style="stroke:#181818;stroke-width:1.0;" x1="43" x2="400" y1="269.6973" y2="269.6973"/><text fill="#000000" font-family="sans-serif" font-size="13" font-weight="bold" lengthAdjust="spacing" textLength="7" x="50" y="264.4346">3</text><text fill="#000000" font-family="sans-serif" font-size="13" lengthAdjust="spacing" textLength="122" x="61" y="264.4346">types requested data</text><polygon fill="#181818" points="54,296.9883,44,300.9883,54,304.9883,50,300.9883" style="stroke:#181818;stroke-width:1.0;"/><line style="stroke:#181818;stroke-width:1.0;stroke-dasharray:2.0,2.0;" x1="48" x2="410" y1="300.9883" y2="300.9883"/><text fill="#000000" font-family="sans-serif" font-size="13" font-weight="bold" lengthAdjust="spacing" textLength="7" x="60" y="295.7256">4</text><text fill="#000000" font-family="sans-serif" font-size="13" lengthAdjust="spacing" textLength="324" x="71" y="295.7256">shows all data and requests confirmation or modification</text><path d="M10,315.9883 L75,315.9883 L75,325.2793 L65,335.2793 L10,335.2793 L10,315.9883 " fill="#EEEEEE" style="stroke:#000000;stroke-width:1.5;"/><rect fill="none" height="81.873" style="stroke:#000000;stroke-width:1.5;" width="443" x="10" y="315.9883"/><text fill="#000000" font-family="sans-serif" font-size="13" font-weight="bold" lengthAdjust="spacing" textLength="20" x="25" y="331.0166">opt</text><text fill="#000000" font-family="sans-serif" font-size="11" font-weight="bold" lengthAdjust="spacing" textLength="108" x="90" y="329.8584">[optional for "HRM"]</text><polygon fill="#181818" points="394,354.5703,404,358.5703,394,362.5703,398,358.5703" style="stroke:#181818;stroke-width:1.0;"/><line style="stroke:#181818;stroke-width:1.0;" x1="43" x2="400" y1="358.5703" y2="358.5703"/><text fill="#000000" font-family="sans-serif" font-size="13" font-weight="bold" lengthAdjust="spacing" textLength="7" x="50" y="353.3076">5</text><text fill="#000000" font-family="sans-serif" font-size="13" lengthAdjust="spacing" textLength="67" x="61" y="353.3076">modify data</text><polygon fill="#181818" points="54,385.8613,44,389.8613,54,393.8613,50,389.8613" style="stroke:#181818;stroke-width:1.0;"/><line style="stroke:#181818;stroke-width:1.0;stroke-dasharray:2.0,2.0;" x1="48" x2="410" y1="389.8613" y2="389.8613"/><text fill="#000000" font-family="sans-serif" font-size="13" font-weight="bold" lengthAdjust="spacing" textLength="7" x="60" y="384.5986">6</text><text fill="#000000" font-family="sans-serif" font-size="13" lengthAdjust="spacing" textLength="328" x="71" y="384.5986">shows all data and requests confirmation or modification.</text><polygon fill="#181818" points="394,424.1523,404,428.1523,394,432.1523,398,428.1523" style="stroke:#181818;stroke-width:1.0;"/><line style="stroke:#181818;stroke-width:1.0;" x1="43" x2="400" y1="428.1523" y2="428.1523"/><text fill="#000000" font-family="sans-serif" font-size="13" font-weight="bold" lengthAdjust="spacing" textLength="7" x="50" y="422.8896">7</text><text fill="#000000" font-family="sans-serif" font-size="13" lengthAdjust="spacing" textLength="93" x="61" y="422.8896">confirm the data</text><polygon fill="#181818" points="54,455.4434,44,459.4434,54,463.4434,50,459.4434" style="stroke:#181818;stroke-width:1.0;"/><line style="stroke:#181818;stroke-width:1.0;stroke-dasharray:2.0,2.0;" x1="48" x2="410" y1="459.4434" y2="459.4434"/><text fill="#000000" font-family="sans-serif" font-size="13" font-weight="bold" lengthAdjust="spacing" textLength="7" x="60" y="454.1807">8</text><text fill="#000000" font-family="sans-serif" font-size="13" lengthAdjust="spacing" textLength="158" x="71" y="454.1807">displays operation success</text><!--SRC=[hL9DYzim4BtxLmmvxK8Js6iEXS8UUibblSTUPkMn8oADNCruW__zZkGujAMci5GWaCPlvdt8Sl4yOiO8CN5ovvmYWUQ96hb_6T5TSA1Mvq2GoIdo47u5o1cxTFKyG8z1g6dKgq7RMPGYjFHp8dO4pnw70dzes-T7sCEte9GPrRyJl5vJq-2aYQVuHjdEJbE6tVUNqmvGu8Hi4d9ZXEgT7v4LTiU5eGAMO-tpxwXqxsZ0rkq2-w-hggCrNGGqmK1CkNGWC5tXbJ3MdlkaTNGj1eMJPn-d2Ac79t0f17nBDi3a8dTMic12gEYoRdnxervL72r5oqHKe4D5UF07EYnj0aBw1POKVh1HZ9cKkAFkDofvh0GT_QcoL0s-RLldaMGLO5EBWcs_cmxadAvYSOJ5Gd5-D-KIzpv7Uzd4OB74rFdUkthVa5tBQTIo3OK1-lNvDvtKiVC_3FnNyOVFXduR2dgcpmRUUHa3pc89bT-rg9F9EHBvkwWF]--></g></svg>