<?xml version="1.0" encoding="us-ascii" standalone="no"?><svg xmlns="http://www.w3.org/2000/svg" xmlns:xlink="http://www.w3.org/1999/xlink" contentStyleType="text/css" height="747px" preserveAspectRatio="none" style="width:1263px;height:747px;background:#FFFFFF;" version="1.1" viewBox="0 0 1263 747" width="1263px" zoomAndPan="magnify"><defs/><g><rect fill="#FFFFFF" height="556.6348" style="stroke:#181818;stroke-width:1.0;" width="10" x="18.5" y="91.4883"/><rect fill="#FFFFFF" height="535.3242" style="stroke:#181818;stroke-width:1.0;" width="10" x="275.5" y="112.7988"/><rect fill="#FFFFFF" height="318.9727" style="stroke:#181818;stroke-width:1.0;" width="10" x="507.5" y="284.5293"/><rect fill="#FFFFFF" height="29.3105" style="stroke:#181818;stroke-width:1.0;" width="10" x="683" y="313.8398"/><rect fill="#FFFFFF" height="29.3105" style="stroke:#181818;stroke-width:1.0;" width="10" x="796" y="372.4609"/><rect fill="#FFFFFF" height="172.4199" style="stroke:#181818;stroke-width:1.0;" width="10" x="945" y="401.7715"/><rect fill="#FFFFFF" height="28" style="stroke:#181818;stroke-width:1.0;" width="10" x="950" y="509.8809"/><line style="stroke:#181818;stroke-width:0.5;stroke-dasharray:5.0,5.0;" x1="23" x2="23" y1="81.4883" y2="666.123"/><line style="stroke:#181818;stroke-width:0.5;stroke-dasharray:5.0,5.0;" x1="280.5" x2="280.5" y1="81.4883" y2="666.123"/><line style="stroke:#181818;stroke-width:0.5;stroke-dasharray:5.0,5.0;" x1="512.5" x2="512.5" y1="151.543" y2="666.123"/><line style="stroke:#181818;stroke-width:0.5;stroke-dasharray:5.0,5.0;" x1="687.5" x2="687.5" y1="81.4883" y2="666.123"/><line style="stroke:#181818;stroke-width:0.5;stroke-dasharray:5.0,5.0;" x1="800.5" x2="800.5" y1="81.4883" y2="666.123"/><line style="stroke:#181818;stroke-width:0.5;stroke-dasharray:5.0,5.0;" x1="949.5" x2="949.5" y1="81.4883" y2="666.123"/><line style="stroke:#181818;stroke-width:0.5;stroke-dasharray:5.0,5.0;" x1="1208" x2="1208" y1="469.8262" y2="666.123"/><text fill="#000000" font-family="sans-serif" font-size="14" lengthAdjust="spacing" textLength="31" x="5" y="78.5352">HRM</text><ellipse cx="23.5" cy="13.5" fill="#E3E3E3" rx="8" ry="8" style="stroke:#181818;stroke-width:0.5;"/><path d="M23.5,21.5 L23.5,48.5 M10.5,29.5 L36.5,29.5 M23.5,48.5 L10.5,63.5 M23.5,48.5 L36.5,63.5 " fill="none" style="stroke:#181818;stroke-width:0.5;"/><text fill="#000000" font-family="sans-serif" font-size="14" lengthAdjust="spacing" textLength="31" x="5" y="678.6582">HRM</text><ellipse cx="23.5" cy="690.1113" fill="#E3E3E3" rx="8" ry="8" style="stroke:#181818;stroke-width:0.5;"/><path d="M23.5,698.1113 L23.5,725.1113 M10.5,706.1113 L36.5,706.1113 M23.5,725.1113 L10.5,740.1113 M23.5,725.1113 L36.5,740.1113 " fill="none" style="stroke:#181818;stroke-width:0.5;"/><rect fill="#E3E3E3" height="30.4883" rx="2.5" ry="2.5" style="stroke:#181818;stroke-width:0.5;" width="172" x="194.5" y="50"/><text fill="#000000" font-family="sans-serif" font-size="14" lengthAdjust="spacing" textLength="158" x="201.5" y="70.5352">:RegisterJobCategoryUI</text><rect fill="#E3E3E3" height="30.4883" rx="2.5" ry="2.5" style="stroke:#181818;stroke-width:0.5;" width="172" x="194.5" y="665.123"/><text fill="#000000" font-family="sans-serif" font-size="14" lengthAdjust="spacing" textLength="158" x="201.5" y="685.6582">:RegisterJobCategoryUI</text><rect fill="#E3E3E3" height="30.4883" rx="2.5" ry="2.5" style="stroke:#181818;stroke-width:0.5;" width="228" x="398.5" y="665.123"/><text fill="#000000" font-family="sans-serif" font-size="14" lengthAdjust="spacing" textLength="214" x="405.5" y="685.6582">:RegisterJobCategoryController</text><rect fill="#E3E3E3" height="30.4883" rx="2.5" ry="2.5" style="stroke:#181818;stroke-width:0.5;" width="103" x="636.5" y="50"/><text fill="#000000" font-family="sans-serif" font-size="14" lengthAdjust="spacing" textLength="89" x="643.5" y="70.5352">:Repositories</text><rect fill="#E3E3E3" height="30.4883" rx="2.5" ry="2.5" style="stroke:#181818;stroke-width:0.5;" width="103" x="636.5" y="665.123"/><text fill="#000000" font-family="sans-serif" font-size="14" lengthAdjust="spacing" textLength="89" x="643.5" y="685.6582">:Repositories</text><rect fill="#E3E3E3" height="46.9766" rx="2.5" ry="2.5" style="stroke:#181818;stroke-width:0.5;" width="103" x="749.5" y="33.5117"/><text fill="#000000" font-family="sans-serif" font-size="14" lengthAdjust="spacing" textLength="82" x="760" y="54.0469">repositories</text><text fill="#000000" font-family="sans-serif" font-size="14" lengthAdjust="spacing" textLength="89" x="756.5" y="70.5352">:Repositories</text><rect fill="#E3E3E3" height="46.9766" rx="2.5" ry="2.5" style="stroke:#181818;stroke-width:0.5;" width="103" x="749.5" y="665.123"/><text fill="#000000" font-family="sans-serif" font-size="14" lengthAdjust="spacing" textLength="82" x="760" y="685.6582">repositories</text><text fill="#000000" font-family="sans-serif" font-size="14" lengthAdjust="spacing" textLength="89" x="756.5" y="702.1465">:Repositories</text><rect fill="#E3E3E3" height="46.9766" rx="2.5" ry="2.5" style="stroke:#181818;stroke-width:0.5;" width="175" x="862.5" y="33.5117"/><text fill="#000000" font-family="sans-serif" font-size="14" lengthAdjust="spacing" textLength="161" x="869.5" y="54.0469">jobCategoryRepository:</text><text fill="#000000" font-family="sans-serif" font-size="14" lengthAdjust="spacing" textLength="157" x="871.5" y="70.5352">JobCategoryRepository</text><rect fill="#E3E3E3" height="46.9766" rx="2.5" ry="2.5" style="stroke:#181818;stroke-width:0.5;" width="175" x="862.5" y="665.123"/><text fill="#000000" font-family="sans-serif" font-size="14" lengthAdjust="spacing" textLength="161" x="869.5" y="685.6582">jobCategoryRepository:</text><text fill="#000000" font-family="sans-serif" font-size="14" lengthAdjust="spacing" textLength="157" x="871.5" y="702.1465">JobCategoryRepository</text><rect fill="#E3E3E3" height="30.4883" rx="2.5" ry="2.5" style="stroke:#181818;stroke-width:0.5;" width="98" x="1159" y="665.123"/><text fill="#000000" font-family="sans-serif" font-size="14" lengthAdjust="spacing" textLength="84" x="1166" y="685.6582">JobCategory</text><rect fill="#FFFFFF" height="556.6348" style="stroke:#181818;stroke-width:1.0;" width="10" x="18.5" y="91.4883"/><rect fill="#FFFFFF" height="535.3242" style="stroke:#181818;stroke-width:1.0;" width="10" x="275.5" y="112.7988"/><rect fill="#FFFFFF" height="318.9727" style="stroke:#181818;stroke-width:1.0;" width="10" x="507.5" y="284.5293"/><rect fill="#FFFFFF" height="29.3105" style="stroke:#181818;stroke-width:1.0;" width="10" x="683" y="313.8398"/><rect fill="#FFFFFF" height="29.3105" style="stroke:#181818;stroke-width:1.0;" width="10" x="796" y="372.4609"/><rect fill="#FFFFFF" height="172.4199" style="stroke:#181818;stroke-width:1.0;" width="10" x="945" y="401.7715"/><rect fill="#FFFFFF" height="28" style="stroke:#181818;stroke-width:1.0;" width="10" x="950" y="509.8809"/><polygon fill="#181818" points="263.5,108.7988,273.5,112.7988,263.5,116.7988,267.5,112.7988" style="stroke:#181818;stroke-width:1.0;"/><line style="stroke:#181818;stroke-width:1.0;" x1="28.5" x2="269.5" y1="112.7988" y2="112.7988"/><text fill="#000000" font-family="sans-serif" font-size="13" font-weight="bold" lengthAdjust="spacing" textLength="9" x="35.5" y="108.0566">1</text><text fill="#000000" font-family="sans-serif" font-size="13" lengthAdjust="spacing" textLength="162" x="48.5" y="108.0566">asks to register a new job</text><polygon fill="#181818" points="386.5,138.1094,396.5,142.1094,386.5,146.1094,390.5,142.1094" style="stroke:#181818;stroke-width:1.0;"/><line style="stroke:#181818;stroke-width:1.0;" x1="285.5" x2="392.5" y1="142.1094" y2="142.1094"/><text fill="#000000" font-family="sans-serif" font-size="13" font-weight="bold" lengthAdjust="spacing" textLength="9" x="292.5" y="137.3672">2</text><text fill="#000000" font-family="sans-serif" font-size="13" lengthAdjust="spacing" textLength="38" x="305.5" y="137.3672">create</text><rect fill="#E3E3E3" height="30.4883" rx="2.5" ry="2.5" style="stroke:#181818;stroke-width:0.5;" width="228" x="398.5" y="120.7988"/><text fill="#000000" font-family="sans-serif" font-size="14" lengthAdjust="spacing" textLength="214" x="405.5" y="141.334">:RegisterJobCategoryController</text><polygon fill="#181818" points="39.5,179.5977,29.5,183.5977,39.5,187.5977,35.5,183.5977" style="stroke:#181818;stroke-width:1.0;"/><line style="stroke:#181818;stroke-width:1.0;" x1="33.5" x2="274.5" y1="183.5977" y2="183.5977"/><text fill="#000000" font-family="sans-serif" font-size="13" font-weight="bold" lengthAdjust="spacing" textLength="9" x="45.5" y="178.8555">3</text><text fill="#000000" font-family="sans-serif" font-size="13" lengthAdjust="spacing" textLength="151" x="58.5" y="178.8555">requests data(job name)</text><polygon fill="#181818" points="263.5,208.9082,273.5,212.9082,263.5,216.9082,267.5,212.9082" style="stroke:#181818;stroke-width:1.0;"/><line style="stroke:#181818;stroke-width:1.0;" x1="28.5" x2="269.5" y1="212.9082" y2="212.9082"/><text fill="#000000" font-family="sans-serif" font-size="13" font-weight="bold" lengthAdjust="spacing" textLength="9" x="35.5" y="208.166">4</text><text fill="#000000" font-family="sans-serif" font-size="13" lengthAdjust="spacing" textLength="201" x="48.5" y="208.166">types requested data (job name)</text><line style="stroke:#181818;stroke-width:1.0;" x1="285.5" x2="327.5" y1="242.2188" y2="242.2188"/><line style="stroke:#181818;stroke-width:1.0;" x1="327.5" x2="327.5" y1="242.2188" y2="255.2188"/><line style="stroke:#181818;stroke-width:1.0;" x1="286.5" x2="327.5" y1="255.2188" y2="255.2188"/><polygon fill="#181818" points="296.5,251.2188,286.5,255.2188,296.5,259.2188,292.5,255.2188" style="stroke:#181818;stroke-width:1.0;"/><text fill="#000000" font-family="sans-serif" font-size="13" font-weight="bold" lengthAdjust="spacing" textLength="9" x="292.5" y="237.4766">5</text><text fill="#000000" font-family="sans-serif" font-size="13" lengthAdjust="spacing" textLength="157" x="305.5" y="237.4766">verifyJobName(job name)</text><polygon fill="#181818" points="495.5,280.5293,505.5,284.5293,495.5,288.5293,499.5,284.5293" style="stroke:#181818;stroke-width:1.0;"/><line style="stroke:#181818;stroke-width:1.0;" x1="285.5" x2="501.5" y1="284.5293" y2="284.5293"/><text fill="#000000" font-family="sans-serif" font-size="13" font-weight="bold" lengthAdjust="spacing" textLength="9" x="292.5" y="279.7871">6</text><text fill="#000000" font-family="sans-serif" font-size="13" lengthAdjust="spacing" textLength="190" x="305.5" y="279.7871">registerJobCategory(job name)</text><polygon fill="#181818" points="671,309.8398,681,313.8398,671,317.8398,675,313.8398" style="stroke:#181818;stroke-width:1.0;"/><line style="stroke:#181818;stroke-width:1.0;" x1="517.5" x2="677" y1="313.8398" y2="313.8398"/><text fill="#000000" font-family="sans-serif" font-size="13" font-weight="bold" lengthAdjust="spacing" textLength="9" x="524.5" y="309.0977">7</text><text fill="#000000" font-family="sans-serif" font-size="13" lengthAdjust="spacing" textLength="81" x="537.5" y="309.0977">getInstance()</text><polygon fill="#181818" points="528.5,339.1504,518.5,343.1504,528.5,347.1504,524.5,343.1504" style="stroke:#181818;stroke-width:1.0;"/><line style="stroke:#181818;stroke-width:1.0;stroke-dasharray:2.0,2.0;" x1="522.5" x2="687" y1="343.1504" y2="343.1504"/><text fill="#000000" font-family="sans-serif" font-size="13" font-weight="bold" lengthAdjust="spacing" textLength="9" x="534.5" y="338.4082">8</text><text fill="#000000" font-family="sans-serif" font-size="13" lengthAdjust="spacing" textLength="75" x="547.5" y="338.4082">repositories</text><polygon fill="#181818" points="784,368.4609,794,372.4609,784,376.4609,788,372.4609" style="stroke:#181818;stroke-width:1.0;"/><line style="stroke:#181818;stroke-width:1.0;" x1="517.5" x2="790" y1="372.4609" y2="372.4609"/><text fill="#000000" font-family="sans-serif" font-size="13" font-weight="bold" lengthAdjust="spacing" textLength="9" x="524.5" y="367.7188">9</text><text fill="#000000" font-family="sans-serif" font-size="13" lengthAdjust="spacing" textLength="171" x="537.5" y="367.7188">getJobCategoryRepository()</text><polygon fill="#181818" points="528.5,397.7715,518.5,401.7715,528.5,405.7715,524.5,401.7715" style="stroke:#181818;stroke-width:1.0;"/><line style="stroke:#181818;stroke-width:1.0;stroke-dasharray:2.0,2.0;" x1="522.5" x2="800" y1="401.7715" y2="401.7715"/><text fill="#000000" font-family="sans-serif" font-size="13" font-weight="bold" lengthAdjust="spacing" textLength="18" x="534.5" y="397.0293">10</text><text fill="#000000" font-family="sans-serif" font-size="13" lengthAdjust="spacing" textLength="143" x="556.5" y="397.0293">jobCategoryRepository</text><polygon fill="#181818" points="933,427.082,943,431.082,933,435.082,937,431.082" style="stroke:#181818;stroke-width:1.0;"/><line style="stroke:#181818;stroke-width:1.0;" x1="517.5" x2="939" y1="431.082" y2="431.082"/><text fill="#000000" font-family="sans-serif" font-size="13" font-weight="bold" lengthAdjust="spacing" textLength="18" x="524.5" y="426.3398">11</text><text fill="#000000" font-family="sans-serif" font-size="13" lengthAdjust="spacing" textLength="194" x="546.5" y="426.3398">registerJobCategory (job name)</text><polygon fill="#181818" points="1147,456.3926,1157,460.3926,1147,464.3926,1151,460.3926" style="stroke:#181818;stroke-width:1.0;"/><line style="stroke:#181818;stroke-width:1.0;" x1="955" x2="1153" y1="460.3926" y2="460.3926"/><text fill="#000000" font-family="sans-serif" font-size="13" font-weight="bold" lengthAdjust="spacing" textLength="18" x="962" y="455.6504">12</text><text fill="#000000" font-family="sans-serif" font-size="13" lengthAdjust="spacing" textLength="118" x="984" y="455.6504">JobCategory(name)</text><rect fill="#E3E3E3" height="30.4883" rx="2.5" ry="2.5" style="stroke:#181818;stroke-width:0.5;" width="98" x="1159" y="439.082"/><text fill="#000000" font-family="sans-serif" font-size="14" lengthAdjust="spacing" textLength="84" x="1166" y="459.6172">JobCategory</text><line style="stroke:#181818;stroke-width:1.0;" x1="960" x2="1002" y1="501.8809" y2="501.8809"/><line style="stroke:#181818;stroke-width:1.0;" x1="1002" x2="1002" y1="501.8809" y2="514.8809"/><line style="stroke:#181818;stroke-width:1.0;" x1="961" x2="1002" y1="514.8809" y2="514.8809"/><polygon fill="#181818" points="971,510.8809,961,514.8809,971,518.8809,967,514.8809" style="stroke:#181818;stroke-width:1.0;"/><text fill="#000000" font-family="sans-serif" font-size="13" font-weight="bold" lengthAdjust="spacing" textLength="18" x="967" y="497.1387">13</text><text fill="#000000" font-family="sans-serif" font-size="13" lengthAdjust="spacing" textLength="212" x="989" y="497.1387">verifyIfExistAndSave(jobCategory)</text><polygon fill="#181818" points="528.5,570.1914,518.5,574.1914,528.5,578.1914,524.5,574.1914" style="stroke:#181818;stroke-width:1.0;"/><line style="stroke:#181818;stroke-width:1.0;" x1="522.5" x2="949" y1="574.1914" y2="574.1914"/><text fill="#000000" font-family="sans-serif" font-size="13" font-weight="bold" lengthAdjust="spacing" textLength="18" x="534.5" y="569.4492">14</text><text fill="#000000" font-family="sans-serif" font-size="13" lengthAdjust="spacing" textLength="99" x="556.5" y="569.4492">jobCategoryList</text><polygon fill="#181818" points="296.5,599.502,286.5,603.502,296.5,607.502,292.5,603.502" style="stroke:#181818;stroke-width:1.0;"/><line style="stroke:#181818;stroke-width:1.0;stroke-dasharray:2.0,2.0;" x1="290.5" x2="511.5" y1="603.502" y2="603.502"/><text fill="#000000" font-family="sans-serif" font-size="13" font-weight="bold" lengthAdjust="spacing" textLength="18" x="302.5" y="598.7598">15</text><text fill="#000000" font-family="sans-serif" font-size="13" lengthAdjust="spacing" textLength="99" x="324.5" y="598.7598">jobCategoryList</text><polygon fill="#181818" points="34.5,644.123,24.5,648.123,34.5,652.123,30.5,648.123" style="stroke:#181818;stroke-width:1.0;"/><line style="stroke:#181818;stroke-width:1.0;stroke-dasharray:2.0,2.0;" x1="28.5" x2="279.5" y1="648.123" y2="648.123"/><text fill="#000000" font-family="sans-serif" font-size="13" font-weight="bold" lengthAdjust="spacing" textLength="18" x="40.5" y="635.7256">16</text><text fill="#000000" font-family="sans-serif" font-size="13" lengthAdjust="spacing" textLength="197" x="62.5" y="628.0703">displays operation success and</text><text fill="#000000" font-family="sans-serif" font-size="13" lengthAdjust="spacing" textLength="136" x="66.5" y="643.3809">show jobCategoryList</text><!--SRC=[hLLDR-8m4BtxLunwWLRb3t2eLA6LbefThQ2zSJ7E97X9xApjGFFlT-8GucmCRQNr1V3CU_FcozY3L2Ktl812AotsHXS8pbJ8xCLISd7W6MvSdICO58whB0yTx9ud-YHL1YdFBJB6AwTLLUpGC3RPomGXrThjz3lZmca3Tz_NF-w0Mw1FHXnE2bbovU1kliPCMeVcHUyMt66cJVsszBvlouzT5reve_CSZOSiNjUh4QZKLf88YTRxN2xgZMpo8kL3Y0aGMpKc-BLwVXqYVlU2UlRvLht4xZr7rC9OKovv98Cl58FpeHymUwA2m9p01mjEKr_QOW07XISW2Rt_XOLAo2OG7AAO4LD3E2UAFnLQPo7XZiFKO8e6bS17ID0A8qidjNe4a2hLfk0vRDNGub3ibHHa6LmdbU7jDw6jksUXW8ams2ZpdVfNsPE_VdWWRQrRdzBP7X4-fTH1yGA3G671N5sYxI2Od9EDWDe87dD48zEQclIJN0BVAugzfD5incA4pV4b69YQu_c8DpAc52P3jrIM5bBWz7w4lL37PdpatPnObDavgoQfVlH7y0I_5gvBh5cVDfFe4jnAoszUD0zFsWkFBkIj35hcwv6lxMjCIvTe51CV5RWoAzs9KmrZ-BK9noyoib_X6sXk5sAPVdidwSygsV2ZtulEEIxxe_BTQCWd4LSJEQzb8755olz3nBQxtKDnYp_WRbUTNNs94sdBdDSMT8djsmcs4WAj1QwIvjsrUtsAHWkYDAzzyBFv2_aB]--></g></svg>