<?xml version="1.0" encoding="us-ascii" standalone="no"?><svg xmlns="http://www.w3.org/2000/svg" xmlns:xlink="http://www.w3.org/1999/xlink" contentStyleType="text/css" height="1062px" preserveAspectRatio="none" style="width:768px;height:1062px;background:#FFFFFF;" version="1.1" viewBox="0 0 768 1062" width="768px" zoomAndPan="magnify"><defs/><g><!--class Repositories--><g id="elem_Repositories"><rect codeLine="7" fill="#F1F1F1" height="113.1875" id="Repositories" rx="2.5" ry="2.5" style="stroke:#181818;stroke-width:0.5;" width="318" x="69" y="322"/><ellipse cx="180.25" cy="338" fill="#ADD1B2" rx="11" ry="11" style="stroke:#181818;stroke-width:1.0;"/><path d="M183.2188,343.6406 Q182.6406,343.9375 182,344.0781 Q181.3594,344.2344 180.6563,344.2344 Q178.1563,344.2344 176.8281,342.5938 Q175.5156,340.9375 175.5156,337.8125 Q175.5156,334.6875 176.8281,333.0313 Q178.1563,331.375 180.6563,331.375 Q181.3594,331.375 182,331.5313 Q182.6563,331.6875 183.2188,331.9844 L183.2188,334.7031 Q182.5938,334.125 182,333.8594 Q181.4063,333.5781 180.7813,333.5781 Q179.4375,333.5781 178.75,334.6563 Q178.0625,335.7188 178.0625,337.8125 Q178.0625,339.9063 178.75,340.9844 Q179.4375,342.0469 180.7813,342.0469 Q181.4063,342.0469 182,341.7813 Q182.5938,341.5 183.2188,340.9219 L183.2188,343.6406 Z " fill="#000000"/><text fill="#000000" font-family="sans-serif" font-size="14" lengthAdjust="spacing" textLength="87" x="200.75" y="342.8467">Repositories</text><line style="stroke:#181818;stroke-width:0.5;" x1="70" x2="386" y1="354" y2="354"/><text fill="#000000" font-family="sans-serif" font-size="14" lengthAdjust="spacing" textLength="205" x="75" y="370.9951">-static instance : Repositories</text><line style="stroke:#181818;stroke-width:0.5;" x1="70" x2="386" y1="378.2969" y2="378.2969"/><text fill="#000000" font-family="sans-serif" font-size="14" lengthAdjust="spacing" textLength="204" x="75" y="395.292">+getInstance() : Repositories</text><text fill="#000000" font-family="sans-serif" font-size="14" lengthAdjust="spacing" textLength="306" x="75" y="411.5889">+getVehicleRepository() : VehicleRepository</text><text fill="#000000" font-family="sans-serif" font-size="14" lengthAdjust="spacing" textLength="102" x="75" y="427.8857">-Repositories()</text></g><!--class VehicleRepository--><g id="elem_VehicleRepository"><rect codeLine="14" fill="#F1F1F1" height="145.7813" id="VehicleRepository" rx="2.5" ry="2.5" style="stroke:#181818;stroke-width:0.5;" width="754" x="7" y="496"/><ellipse cx="317.75" cy="512" fill="#ADD1B2" rx="11" ry="11" style="stroke:#181818;stroke-width:1.0;"/><path d="M320.7188,517.6406 Q320.1406,517.9375 319.5,518.0781 Q318.8594,518.2344 318.1563,518.2344 Q315.6563,518.2344 314.3281,516.5938 Q313.0156,514.9375 313.0156,511.8125 Q313.0156,508.6875 314.3281,507.0313 Q315.6563,505.375 318.1563,505.375 Q318.8594,505.375 319.5,505.5313 Q320.1563,505.6875 320.7188,505.9844 L320.7188,508.7031 Q320.0938,508.125 319.5,507.8594 Q318.9063,507.5781 318.2813,507.5781 Q316.9375,507.5781 316.25,508.6563 Q315.5625,509.7188 315.5625,511.8125 Q315.5625,513.9063 316.25,514.9844 Q316.9375,516.0469 318.2813,516.0469 Q318.9063,516.0469 319.5,515.7813 Q320.0938,515.5 320.7188,514.9219 L320.7188,517.6406 Z " fill="#000000"/><text fill="#000000" font-family="sans-serif" font-size="14" lengthAdjust="spacing" textLength="124" x="338.25" y="516.8467">VehicleRepository</text><line style="stroke:#181818;stroke-width:0.5;" x1="8" x2="760" y1="528" y2="528"/><text fill="#000000" font-family="sans-serif" font-size="14" lengthAdjust="spacing" textLength="186" x="13" y="544.9951">-vehicleList : List&lt;Vehicle&gt;</text><line style="stroke:#181818;stroke-width:0.5;" x1="8" x2="760" y1="552.2969" y2="552.2969"/><text fill="#000000" font-family="sans-serif" font-size="14" lengthAdjust="spacing" textLength="209" x="13" y="569.292">+addVehicle(vehicle : Vehicle)</text><text fill="#000000" font-family="sans-serif" font-size="14" lengthAdjust="spacing" textLength="252" x="13" y="585.5889">+getVehiclePlateList() : List&lt;String&gt;</text><text fill="#000000" font-family="sans-serif" font-size="14" lengthAdjust="spacing" textLength="742" x="13" y="601.8857">+addCheckUp(plate : String, dateAsString : String, currentKms : double, maintenanceKm: double) : boolean</text><text fill="#000000" font-family="sans-serif" font-size="14" lengthAdjust="spacing" textLength="298" x="13" y="618.1826">+findVehicleByPlate(plate : String) : Vehicle</text><text fill="#000000" font-family="sans-serif" font-size="14" lengthAdjust="spacing" textLength="315" x="13" y="634.4795">+getLastKmForVehicle(plate : String) : double</text></g><!--class RegisterCheckUpUI--><g id="elem_RegisterCheckUpUI"><rect codeLine="23" fill="#F1F1F1" height="48" id="RegisterCheckUpUI" rx="2.5" ry="2.5" style="stroke:#181818;stroke-width:0.5;" width="166" x="302" y="7"/><ellipse cx="317" cy="23" fill="#ADD1B2" rx="11" ry="11" style="stroke:#181818;stroke-width:1.0;"/><path d="M319.9688,28.6406 Q319.3906,28.9375 318.75,29.0781 Q318.1094,29.2344 317.4063,29.2344 Q314.9063,29.2344 313.5781,27.5938 Q312.2656,25.9375 312.2656,22.8125 Q312.2656,19.6875 313.5781,18.0313 Q314.9063,16.375 317.4063,16.375 Q318.1094,16.375 318.75,16.5313 Q319.4063,16.6875 319.9688,16.9844 L319.9688,19.7031 Q319.3438,19.125 318.75,18.8594 Q318.1563,18.5781 317.5313,18.5781 Q316.1875,18.5781 315.5,19.6563 Q314.8125,20.7188 314.8125,22.8125 Q314.8125,24.9063 315.5,25.9844 Q316.1875,27.0469 317.5313,27.0469 Q318.1563,27.0469 318.75,26.7813 Q319.3438,26.5 319.9688,25.9219 L319.9688,28.6406 Z " fill="#000000"/><text fill="#000000" font-family="sans-serif" font-size="14" lengthAdjust="spacing" textLength="134" x="331" y="27.8467">RegisterCheckUpUI</text><line style="stroke:#181818;stroke-width:0.5;" x1="303" x2="467" y1="39" y2="39"/><line style="stroke:#181818;stroke-width:0.5;" x1="303" x2="467" y1="47" y2="47"/></g><!--class RegisterCheckUpController--><g id="elem_RegisterCheckUpController"><rect codeLine="26" fill="#F1F1F1" height="129.4844" id="RegisterCheckUpController" rx="2.5" ry="2.5" style="stroke:#181818;stroke-width:0.5;" width="728" x="21" y="116"/><ellipse cx="286.75" cy="132" fill="#ADD1B2" rx="11" ry="11" style="stroke:#181818;stroke-width:1.0;"/><path d="M289.7188,137.6406 Q289.1406,137.9375 288.5,138.0781 Q287.8594,138.2344 287.1563,138.2344 Q284.6563,138.2344 283.3281,136.5938 Q282.0156,134.9375 282.0156,131.8125 Q282.0156,128.6875 283.3281,127.0313 Q284.6563,125.375 287.1563,125.375 Q287.8594,125.375 288.5,125.5313 Q289.1563,125.6875 289.7188,125.9844 L289.7188,128.7031 Q289.0938,128.125 288.5,127.8594 Q287.9063,127.5781 287.2813,127.5781 Q285.9375,127.5781 285.25,128.6563 Q284.5625,129.7188 284.5625,131.8125 Q284.5625,133.9063 285.25,134.9844 Q285.9375,136.0469 287.2813,136.0469 Q287.9063,136.0469 288.5,135.7813 Q289.0938,135.5 289.7188,134.9219 L289.7188,137.6406 Z " fill="#000000"/><text fill="#000000" font-family="sans-serif" font-size="14" lengthAdjust="spacing" textLength="188" x="307.25" y="136.8467">RegisterCheckUpController</text><line style="stroke:#181818;stroke-width:0.5;" x1="22" x2="748" y1="148" y2="148"/><text fill="#000000" font-family="sans-serif" font-size="14" lengthAdjust="spacing" textLength="187" x="27" y="164.9951">-repositories : Repositories</text><line style="stroke:#181818;stroke-width:0.5;" x1="22" x2="748" y1="172.2969" y2="172.2969"/><text fill="#000000" font-family="sans-serif" font-size="14" lengthAdjust="spacing" textLength="371" x="27" y="189.292">+getDataNeededToRegisterCheckUp() : List&lt;String&gt;</text><text fill="#000000" font-family="sans-serif" font-size="14" lengthAdjust="spacing" textLength="323" x="27" y="205.5889">+validateCheckUpDate(date : String) : boolean</text><text fill="#000000" font-family="sans-serif" font-size="14" lengthAdjust="spacing" textLength="401" x="27" y="221.8857">+validateKilometers(kms : double, plate : String) : boolean</text><text fill="#000000" font-family="sans-serif" font-size="14" lengthAdjust="spacing" textLength="716" x="27" y="238.1826">+addCheckUp(plate : String, date : String, currentKms : double, maintenanceKm: double) : List&lt;String&gt;</text></g><!--class Vehicle--><g id="elem_Vehicle"><rect codeLine="34" fill="#F1F1F1" height="162.0781" id="Vehicle" rx="2.5" ry="2.5" style="stroke:#181818;stroke-width:0.5;" width="290" x="239" y="719"/><ellipse cx="354.75" cy="735" fill="#ADD1B2" rx="11" ry="11" style="stroke:#181818;stroke-width:1.0;"/><path d="M357.7188,740.6406 Q357.1406,740.9375 356.5,741.0781 Q355.8594,741.2344 355.1563,741.2344 Q352.6563,741.2344 351.3281,739.5938 Q350.0156,737.9375 350.0156,734.8125 Q350.0156,731.6875 351.3281,730.0313 Q352.6563,728.375 355.1563,728.375 Q355.8594,728.375 356.5,728.5313 Q357.1563,728.6875 357.7188,728.9844 L357.7188,731.7031 Q357.0938,731.125 356.5,730.8594 Q355.9063,730.5781 355.2813,730.5781 Q353.9375,730.5781 353.25,731.6563 Q352.5625,732.7188 352.5625,734.8125 Q352.5625,736.9063 353.25,737.9844 Q353.9375,739.0469 355.2813,739.0469 Q355.9063,739.0469 356.5,738.7813 Q357.0938,738.5 357.7188,737.9219 L357.7188,740.6406 Z " fill="#000000"/><text fill="#000000" font-family="sans-serif" font-size="14" lengthAdjust="spacing" textLength="50" x="375.25" y="739.8467">Vehicle</text><line style="stroke:#181818;stroke-width:0.5;" x1="240" x2="528" y1="751" y2="751"/><text fill="#000000" font-family="sans-serif" font-size="14" lengthAdjust="spacing" textLength="92" x="245" y="767.9951">-plate : String</text><text fill="#000000" font-family="sans-serif" font-size="14" lengthAdjust="spacing" textLength="138" x="245" y="784.292">-currentKm : double</text><text fill="#000000" font-family="sans-serif" font-size="14" lengthAdjust="spacing" textLength="201" x="245" y="800.5889">-frequencyCheckKm : double</text><text fill="#000000" font-family="sans-serif" font-size="14" lengthAdjust="spacing" textLength="212" x="245" y="816.8857">-checkUpList : List&lt;CheckUp&gt;</text><line style="stroke:#181818;stroke-width:0.5;" x1="240" x2="528" y1="824.1875" y2="824.1875"/><text fill="#000000" font-family="sans-serif" font-size="14" lengthAdjust="spacing" textLength="278" x="245" y="841.1826">+addCheckUp(km : double, date : Date)</text><text fill="#000000" font-family="sans-serif" font-size="14" lengthAdjust="spacing" textLength="180" x="245" y="857.4795">+getCurrentKm() : double</text><text fill="#000000" font-family="sans-serif" font-size="14" lengthAdjust="spacing" textLength="132" x="245" y="873.7764">+getPlate() : String</text></g><!--class CheckUp--><g id="elem_CheckUp"><rect codeLine="44" fill="#F1F1F1" height="113.1875" id="CheckUp" rx="2.5" ry="2.5" style="stroke:#181818;stroke-width:0.5;" width="199" x="284.5" y="942"/><ellipse cx="348.25" cy="958" fill="#ADD1B2" rx="11" ry="11" style="stroke:#181818;stroke-width:1.0;"/><path d="M351.2188,963.6406 Q350.6406,963.9375 350,964.0781 Q349.3594,964.2344 348.6563,964.2344 Q346.1563,964.2344 344.8281,962.5938 Q343.5156,960.9375 343.5156,957.8125 Q343.5156,954.6875 344.8281,953.0313 Q346.1563,951.375 348.6563,951.375 Q349.3594,951.375 350,951.5313 Q350.6563,951.6875 351.2188,951.9844 L351.2188,954.7031 Q350.5938,954.125 350,953.8594 Q349.4063,953.5781 348.7813,953.5781 Q347.4375,953.5781 346.75,954.6563 Q346.0625,955.7188 346.0625,957.8125 Q346.0625,959.9063 346.75,960.9844 Q347.4375,962.0469 348.7813,962.0469 Q349.4063,962.0469 350,961.7813 Q350.5938,961.5 351.2188,960.9219 L351.2188,963.6406 Z " fill="#000000"/><text fill="#000000" font-family="sans-serif" font-size="14" lengthAdjust="spacing" textLength="63" x="368.75" y="962.8467">CheckUp</text><line style="stroke:#181818;stroke-width:0.5;" x1="285.5" x2="482.5" y1="974" y2="974"/><text fill="#000000" font-family="sans-serif" font-size="14" lengthAdjust="spacing" textLength="146" x="290.5" y="990.9951">-kmOfCheck : double</text><text fill="#000000" font-family="sans-serif" font-size="14" lengthAdjust="spacing" textLength="141" x="290.5" y="1007.292">-dateOfCheck : Date</text><line style="stroke:#181818;stroke-width:0.5;" x1="285.5" x2="482.5" y1="1014.5938" y2="1014.5938"/><text fill="#000000" font-family="sans-serif" font-size="14" lengthAdjust="spacing" textLength="183" x="290.5" y="1031.5889">+getDateOfCheck() : Date</text><text fill="#000000" font-family="sans-serif" font-size="14" lengthAdjust="spacing" textLength="187" x="290.5" y="1047.8857">+getKmOfCheck() : double</text></g><!--link RegisterCheckUpUI to RegisterCheckUpController--><g id="link_RegisterCheckUpUI_RegisterCheckUpController"><path codeLine="51" d="M385,55.05 C385,71.41 385,88.24 385,109.88 " fill="none" id="RegisterCheckUpUI-to-RegisterCheckUpController" style="stroke:#181818;stroke-width:1.0;stroke-dasharray:7.0,7.0;"/><polygon fill="#181818" points="385,115.88,389,106.88,385,110.88,381,106.88,385,115.88" style="stroke:#181818;stroke-width:1.0;"/></g><!--link RegisterCheckUpController to Repositories--><g id="link_RegisterCheckUpController_Repositories"><path codeLine="52" d="M334.03,245.14 C314.24,269.84 295.5315,293.1975 276.3915,317.0875 " fill="none" id="RegisterCheckUpController-to-Repositories" style="stroke:#181818;stroke-width:1.0;stroke-dasharray:7.0,7.0;"/><polygon fill="#181818" points="272.64,321.77,281.389,317.2472,275.7663,317.8679,275.1456,312.2452,272.64,321.77" style="stroke:#181818;stroke-width:1.0;"/><text fill="#000000" font-family="sans-serif" font-size="13" lengthAdjust="spacing" textLength="75" x="308" y="288.0669">repositories</text></g><!--link Repositories to VehicleRepository--><g id="link_Repositories_VehicleRepository"><path codeLine="53" d="M273.96,435.04 C289.69,454.04 303.6945,470.9677 320.3545,491.0977 " fill="none" id="Repositories-to-VehicleRepository" style="stroke:#181818;stroke-width:1.0;"/><polygon fill="#181818" points="324.18,495.72,321.5233,486.2362,320.9921,491.8681,315.3602,491.3369,324.18,495.72" style="stroke:#181818;stroke-width:1.0;"/><text fill="#000000" font-family="sans-serif" font-size="13" lengthAdjust="spacing" textLength="8" x="309.8977" y="484.8524">1</text></g><!--link VehicleRepository to Vehicle--><g id="link_VehicleRepository_Vehicle"><path codeLine="54" d="M384,642.14 C384,666.53 384,687.9 384,712.86 " fill="none" id="VehicleRepository-to-Vehicle" style="stroke:#181818;stroke-width:1.0;"/><polygon fill="#181818" points="384,718.86,388,709.86,384,713.86,380,709.86,384,718.86" style="stroke:#181818;stroke-width:1.0;"/><text fill="#000000" font-family="sans-serif" font-size="13" lengthAdjust="spacing" textLength="51" x="385" y="685.0669">vehicles</text><text fill="#000000" font-family="sans-serif" font-size="13" lengthAdjust="spacing" textLength="7" x="376.6883" y="708.0348">*</text></g><!--link Vehicle to CheckUp--><g id="link_Vehicle_CheckUp"><path codeLine="55" d="M384,881.21 C384,901.58 384,917.03 384,935.88 " fill="none" id="Vehicle-to-CheckUp" style="stroke:#181818;stroke-width:1.0;"/><polygon fill="#181818" points="384,941.88,388,932.88,384,936.88,380,932.88,384,941.88" style="stroke:#181818;stroke-width:1.0;"/><text fill="#000000" font-family="sans-serif" font-size="13" lengthAdjust="spacing" textLength="8" x="375.6438" y="901.1801">1</text><text fill="#000000" font-family="sans-serif" font-size="13" lengthAdjust="spacing" textLength="7" x="376.5734" y="931.1289">*</text></g><!--link Repositories to Repositories--><g id="link_Repositories_Repositories"><path codeLine="56" d="M387.08,364.28 C408.08,366.71 422,371.45 422,378.5 C422,385.55 414.0402,389.6003 393.0402,392.0303 " fill="none" id="Repositories-to-Repositories" style="stroke:#181818;stroke-width:1.0;"/><polygon fill="#181818" points="387.08,392.72,396.4801,395.659,392.0469,392.1453,395.5606,387.712,387.08,392.72" style="stroke:#181818;stroke-width:1.0;"/><text fill="#000000" font-family="sans-serif" font-size="13" lengthAdjust="spacing" textLength="54" x="428" y="383.0669">instance</text></g><!--link RegisterCheckUpController to VehicleRepository--><g id="link_RegisterCheckUpController_VehicleRepository"><path codeLine="57" d="M431.68,245.17 C458.93,282.35 488,322 488,322 C488,322 488,435 488,435 C488,435 468.656,459.7435 444.266,490.9335 " fill="none" id="RegisterCheckUpController-to-VehicleRepository" style="stroke:#181818;stroke-width:1.0;stroke-dasharray:7.0,7.0;"/><polygon fill="#181818" points="440.57,495.66,449.265,491.0343,443.65,491.7213,442.963,486.1063,440.57,495.66" style="stroke:#181818;stroke-width:1.0;"/><text fill="#000000" font-family="sans-serif" font-size="13" lengthAdjust="spacing" textLength="111" x="489" y="383.0669">vehicleRepository</text></g><!--SRC=[dLJ1ZjiW4BtxAz1UwhIRLNkDgaZRh2f5MRLLqksTu8c3ZC45l9LRzT-BCTXWrbgfkJZCUynxCmoyKHNb3PQuHhNWWbobg05fsK8s8Gqc5IxXf3i6I0BHc9Si9AWhBiGloajqmKo52ACSTDS0QWJh-aM04OQLkjTQqdEhOKy4Fz7VWDvdcKNG4HgXg1QIWa9_CcH-QwGqrfGWoiqVJW1j8feblKCbwBqZvAj5oW-uKi9W13lBJQ9EECoHhxA_tcN27wq-3yWZLThaxJyV7NdhJE2YS97SaIS3gyJeDuQrpMPzsdmdqpnU1kbsLo3LKvCtFTUm1i8jAipoNWsh84nQAO7hGwrCi13jcS4jgZ7b6dZVlKFjmxtaMGW6c3kr2-NU_QVEUfkf1jsSQdd4oiXz5j8NdkuP1ASE7w4qjO9qjJtjJOUNm9tWMWh6G8x78CCnMfg51wpn5u02YkzYbdAfsy-OqRwjZlRGDw2OrnAtp6yvK6QkcP5GUHMrFcr6dE2L4_xlautAcu_ssCbOqWL7eUda1k0YuMSBd7JMSOgJeP3mUhZQNfZdgWxASANs7GzkoSuRoLUnb4M70LrDxiSgdSHOPLL_lTZOt70lEq6zUZG_7hCYCNgeGsoQxtIox-wsooETBG_xi6-Qx4qqzbdqbAxNMtJpuUQ5bovzooptxSZT-4TDUQxDv5dELoftZE-WVxrVAIYrC-e7fhD_]--></g></svg>