<?xml version="1.0" encoding="us-ascii" standalone="no"?><svg xmlns="http://www.w3.org/2000/svg" xmlns:xlink="http://www.w3.org/1999/xlink" contentStyleType="text/css" height="810px" preserveAspectRatio="none" style="width:1191px;height:810px;background:#FFFFFF;" version="1.1" viewBox="0 0 1191 810" width="1191px" zoomAndPan="magnify"><defs/><g><text fill="#000000" font-family="sans-serif" font-size="14" font-weight="bold" lengthAdjust="spacing" textLength="507" x="339.5" y="27.9951">UI Sequence Diagram (SSD) for Registering Vehicle Maintenance</text><rect fill="#FFFFFF" height="592.3281" style="stroke:#181818;stroke-width:1.0;" width="10" x="17.5" y="128.5938"/><rect fill="#FFFFFF" height="172.7969" style="stroke:#181818;stroke-width:1.0;" width="10" x="613.5" y="149.7266"/><rect fill="#FFFFFF" height="360.2656" style="stroke:#181818;stroke-width:1.0;" width="10" x="613.5" y="351.6563"/><rect fill="#FFFFFF" height="73.2344" style="stroke:#181818;stroke-width:1.0;" width="10" x="1073.5" y="220.1563"/><rect fill="#FFFFFF" height="73.2344" style="stroke:#181818;stroke-width:1.0;" width="10" x="1073.5" y="507.1875"/><rect fill="#FFFFFF" height="73.2344" style="stroke:#181818;stroke-width:1.0;" width="10" x="1073.5" y="609.5547"/><line style="stroke:#181818;stroke-width:0.5;stroke-dasharray:5.0,5.0;" x1="22" x2="22" y1="118.5938" y2="729.9219"/><line style="stroke:#181818;stroke-width:0.5;stroke-dasharray:5.0,5.0;" x1="618" x2="618" y1="118.5938" y2="729.9219"/><line style="stroke:#181818;stroke-width:0.5;stroke-dasharray:5.0,5.0;" x1="1078" x2="1078" y1="188.375" y2="729.9219"/><text fill="#000000" font-family="sans-serif" font-size="14" lengthAdjust="spacing" textLength="29" x="5" y="115.292">VFM</text><ellipse cx="22.5" cy="50.7969" fill="#E3E3E3" rx="8" ry="8" style="stroke:#181818;stroke-width:0.5;"/><path d="M22.5,58.7969 L22.5,85.7969 M9.5,66.7969 L35.5,66.7969 M22.5,85.7969 L9.5,100.7969 M22.5,85.7969 L35.5,100.7969 " fill="none" style="stroke:#181818;stroke-width:0.5;"/><text fill="#000000" font-family="sans-serif" font-size="14" lengthAdjust="spacing" textLength="29" x="5" y="741.917">VFM</text><ellipse cx="22.5" cy="753.7188" fill="#E3E3E3" rx="8" ry="8" style="stroke:#181818;stroke-width:0.5;"/><path d="M22.5,761.7188 L22.5,788.7188 M9.5,769.7188 L35.5,769.7188 M22.5,788.7188 L9.5,803.7188 M22.5,788.7188 L35.5,803.7188 " fill="none" style="stroke:#181818;stroke-width:0.5;"/><rect fill="#E3E3E3" height="30.2969" rx="2.5" ry="2.5" style="stroke:#181818;stroke-width:0.5;" width="153" x="542" y="87.2969"/><text fill="#000000" font-family="sans-serif" font-size="14" lengthAdjust="spacing" textLength="139" x="549" y="107.292">:RegisterCheckUpUI</text><rect fill="#E3E3E3" height="30.2969" rx="2.5" ry="2.5" style="stroke:#181818;stroke-width:0.5;" width="153" x="542" y="728.9219"/><text fill="#000000" font-family="sans-serif" font-size="14" lengthAdjust="spacing" textLength="139" x="549" y="748.917">:RegisterCheckUpUI</text><rect fill="#E3E3E3" height="30.2969" rx="2.5" ry="2.5" style="stroke:#181818;stroke-width:0.5;" width="207" x="975" y="728.9219"/><text fill="#000000" font-family="sans-serif" font-size="14" lengthAdjust="spacing" textLength="193" x="982" y="748.917">:RegisterCheckUpController</text><rect fill="#FFFFFF" height="592.3281" style="stroke:#181818;stroke-width:1.0;" width="10" x="17.5" y="128.5938"/><rect fill="#FFFFFF" height="172.7969" style="stroke:#181818;stroke-width:1.0;" width="10" x="613.5" y="149.7266"/><rect fill="#FFFFFF" height="360.2656" style="stroke:#181818;stroke-width:1.0;" width="10" x="613.5" y="351.6563"/><rect fill="#FFFFFF" height="73.2344" style="stroke:#181818;stroke-width:1.0;" width="10" x="1073.5" y="220.1563"/><rect fill="#FFFFFF" height="73.2344" style="stroke:#181818;stroke-width:1.0;" width="10" x="1073.5" y="507.1875"/><rect fill="#FFFFFF" height="73.2344" style="stroke:#181818;stroke-width:1.0;" width="10" x="1073.5" y="609.5547"/><polygon fill="#181818" points="601.5,145.7266,611.5,149.7266,601.5,153.7266,605.5,149.7266" style="stroke:#181818;stroke-width:1.0;"/><line style="stroke:#181818;stroke-width:1.0;" x1="27.5" x2="607.5" y1="149.7266" y2="149.7266"/><text fill="#000000" font-family="sans-serif" font-size="13" font-weight="bold" lengthAdjust="spacing" textLength="9" x="34.5" y="144.6606">1</text><text fill="#000000" font-family="sans-serif" font-size="13" lengthAdjust="spacing" textLength="200" x="47.5" y="144.6606">Asks to register a maintenance</text><polygon fill="#181818" points="963,174.8594,973,178.8594,963,182.8594,967,178.8594" style="stroke:#181818;stroke-width:1.0;"/><line style="stroke:#181818;stroke-width:1.0;" x1="623.5" x2="969" y1="178.8594" y2="178.8594"/><text fill="#000000" font-family="sans-serif" font-size="13" font-weight="bold" lengthAdjust="spacing" textLength="9" x="630.5" y="173.7935">2</text><text fill="#000000" font-family="sans-serif" font-size="13" lengthAdjust="spacing" textLength="41" x="643.5" y="173.7935">create</text><rect fill="#E3E3E3" height="30.2969" rx="2.5" ry="2.5" style="stroke:#181818;stroke-width:0.5;" width="207" x="975" y="157.7266"/><text fill="#000000" font-family="sans-serif" font-size="14" lengthAdjust="spacing" textLength="193" x="982" y="177.7217">:RegisterCheckUpController</text><polygon fill="#181818" points="1061.5,216.1563,1071.5,220.1563,1061.5,224.1563,1065.5,220.1563" style="stroke:#181818;stroke-width:1.0;"/><line style="stroke:#181818;stroke-width:1.0;" x1="623.5" x2="1067.5" y1="220.1563" y2="220.1563"/><text fill="#000000" font-family="sans-serif" font-size="13" font-weight="bold" lengthAdjust="spacing" textLength="9" x="630.5" y="215.0903">3</text><text fill="#000000" font-family="sans-serif" font-size="13" lengthAdjust="spacing" textLength="236" x="643.5" y="215.0903">getDataNeededToRegisterCheckUp()</text><rect fill="none" height="39.1016" style="stroke:#000000;stroke-width:1.5;" width="213" x="972" y="228.1563"/><path d="M972,228.1563 L1038,228.1563 L1038,235.1563 L1028,245.1563 L972,245.1563 L972,228.1563 " fill="#EEEEEE" style="stroke:#000000;stroke-width:2.0;"/><text fill="#000000" font-family="sans-serif" font-size="13" font-weight="bold" lengthAdjust="spacing" textLength="21" x="985" y="242.2231">ref</text><text fill="#000000" font-family="sans-serif" font-size="12" lengthAdjust="spacing" textLength="146" x="1005.5" y="260.2949">Get Vehicles Plates List</text><polygon fill="#181818" points="634.5,289.3906,624.5,293.3906,634.5,297.3906,630.5,293.3906" style="stroke:#181818;stroke-width:1.0;"/><line style="stroke:#181818;stroke-width:1.0;stroke-dasharray:2.0,2.0;" x1="628.5" x2="1077.5" y1="293.3906" y2="293.3906"/><text fill="#000000" font-family="sans-serif" font-size="13" font-weight="bold" lengthAdjust="spacing" textLength="9" x="640.5" y="288.3247">4</text><text fill="#000000" font-family="sans-serif" font-size="13" lengthAdjust="spacing" textLength="83" x="653.5" y="288.3247">vehiclePlates</text><polygon fill="#181818" points="38.5,318.5234,28.5,322.5234,38.5,326.5234,34.5,322.5234" style="stroke:#181818;stroke-width:1.0;"/><line style="stroke:#181818;stroke-width:1.0;stroke-dasharray:2.0,2.0;" x1="32.5" x2="617.5" y1="322.5234" y2="322.5234"/><text fill="#000000" font-family="sans-serif" font-size="13" font-weight="bold" lengthAdjust="spacing" textLength="9" x="44.5" y="317.4575">5</text><text fill="#000000" font-family="sans-serif" font-size="13" lengthAdjust="spacing" textLength="549" x="57.5" y="317.4575">Show Plates, Request Date of Check Up and Current Kilometers and Frequency Option</text><polygon fill="#181818" points="601.5,347.6563,611.5,351.6563,601.5,355.6563,605.5,351.6563" style="stroke:#181818;stroke-width:1.0;"/><line style="stroke:#181818;stroke-width:1.0;" x1="27.5" x2="607.5" y1="351.6563" y2="351.6563"/><text fill="#000000" font-family="sans-serif" font-size="13" font-weight="bold" lengthAdjust="spacing" textLength="9" x="34.5" y="346.5903">6</text><text fill="#000000" font-family="sans-serif" font-size="13" lengthAdjust="spacing" textLength="533" x="47.5" y="346.5903">Selects a Plate, Provides Check Up Info, Changes Check Up Frequency and Submits</text><line style="stroke:#181818;stroke-width:1.0;" x1="623.5" x2="665.5" y1="380.7891" y2="380.7891"/><line style="stroke:#181818;stroke-width:1.0;" x1="665.5" x2="665.5" y1="380.7891" y2="393.7891"/><line style="stroke:#181818;stroke-width:1.0;" x1="624.5" x2="665.5" y1="393.7891" y2="393.7891"/><polygon fill="#181818" points="634.5,389.7891,624.5,393.7891,634.5,397.7891,630.5,393.7891" style="stroke:#181818;stroke-width:1.0;"/><text fill="#000000" font-family="sans-serif" font-size="13" font-weight="bold" lengthAdjust="spacing" textLength="9" x="630.5" y="375.7231">7</text><text fill="#000000" font-family="sans-serif" font-size="13" lengthAdjust="spacing" textLength="207" x="643.5" y="375.7231">verifyCheckUpDateFormat(date)</text><line style="stroke:#181818;stroke-width:1.0;" x1="623.5" x2="665.5" y1="422.9219" y2="422.9219"/><line style="stroke:#181818;stroke-width:1.0;" x1="665.5" x2="665.5" y1="422.9219" y2="435.9219"/><line style="stroke:#181818;stroke-width:1.0;" x1="624.5" x2="665.5" y1="435.9219" y2="435.9219"/><polygon fill="#181818" points="634.5,431.9219,624.5,435.9219,634.5,439.9219,630.5,435.9219" style="stroke:#181818;stroke-width:1.0;"/><text fill="#000000" font-family="sans-serif" font-size="13" font-weight="bold" lengthAdjust="spacing" textLength="9" x="630.5" y="417.856">8</text><text fill="#000000" font-family="sans-serif" font-size="13" lengthAdjust="spacing" textLength="177" x="643.5" y="417.856">validateCheckUpDate(date)</text><line style="stroke:#181818;stroke-width:1.0;" x1="623.5" x2="665.5" y1="465.0547" y2="465.0547"/><line style="stroke:#181818;stroke-width:1.0;" x1="665.5" x2="665.5" y1="465.0547" y2="478.0547"/><line style="stroke:#181818;stroke-width:1.0;" x1="624.5" x2="665.5" y1="478.0547" y2="478.0547"/><polygon fill="#181818" points="634.5,474.0547,624.5,478.0547,634.5,482.0547,630.5,478.0547" style="stroke:#181818;stroke-width:1.0;"/><text fill="#000000" font-family="sans-serif" font-size="13" font-weight="bold" lengthAdjust="spacing" textLength="9" x="630.5" y="459.9888">9</text><text fill="#000000" font-family="sans-serif" font-size="13" lengthAdjust="spacing" textLength="232" x="643.5" y="459.9888">verifyKilometersFormat(currentKms)</text><polygon fill="#181818" points="1061.5,503.1875,1071.5,507.1875,1061.5,511.1875,1065.5,507.1875" style="stroke:#181818;stroke-width:1.0;"/><line style="stroke:#181818;stroke-width:1.0;" x1="623.5" x2="1067.5" y1="507.1875" y2="507.1875"/><text fill="#000000" font-family="sans-serif" font-size="13" font-weight="bold" lengthAdjust="spacing" textLength="18" x="630.5" y="502.1216">10</text><text fill="#000000" font-family="sans-serif" font-size="13" lengthAdjust="spacing" textLength="296" x="652.5" y="502.1216">validateKilometers(currentKms, selectedPlate)</text><rect fill="none" height="39.1016" style="stroke:#000000;stroke-width:1.5;" width="213" x="972" y="515.1875"/><path d="M972,515.1875 L1038,515.1875 L1038,522.1875 L1028,532.1875 L972,532.1875 L972,515.1875 " fill="#EEEEEE" style="stroke:#000000;stroke-width:2.0;"/><text fill="#000000" font-family="sans-serif" font-size="13" font-weight="bold" lengthAdjust="spacing" textLength="21" x="985" y="529.2544">ref</text><text fill="#000000" font-family="sans-serif" font-size="12" lengthAdjust="spacing" textLength="191" x="983" y="547.3262">Get Vehicle Current Kilometers</text><polygon fill="#181818" points="634.5,576.4219,624.5,580.4219,634.5,584.4219,630.5,580.4219" style="stroke:#181818;stroke-width:1.0;"/><line style="stroke:#181818;stroke-width:1.0;" x1="628.5" x2="1077.5" y1="580.4219" y2="580.4219"/><text fill="#000000" font-family="sans-serif" font-size="13" font-weight="bold" lengthAdjust="spacing" textLength="18" x="640.5" y="575.356">11</text><text fill="#000000" font-family="sans-serif" font-size="13" lengthAdjust="spacing" textLength="26" x="662.5" y="575.356">true</text><polygon fill="#181818" points="1061.5,605.5547,1071.5,609.5547,1061.5,613.5547,1065.5,609.5547" style="stroke:#181818;stroke-width:1.0;"/><line style="stroke:#181818;stroke-width:1.0;" x1="623.5" x2="1067.5" y1="609.5547" y2="609.5547"/><text fill="#000000" font-family="sans-serif" font-size="13" font-weight="bold" lengthAdjust="spacing" textLength="18" x="630.5" y="604.4888">12</text><text fill="#000000" font-family="sans-serif" font-size="13" lengthAdjust="spacing" textLength="409" x="652.5" y="604.4888">addCheckUp(selectedPlate, date, currentKms, maintenanceKm)</text><rect fill="none" height="39.1016" style="stroke:#000000;stroke-width:1.5;" width="213" x="972" y="617.5547"/><path d="M972,617.5547 L1038,617.5547 L1038,624.5547 L1028,634.5547 L972,634.5547 L972,617.5547 " fill="#EEEEEE" style="stroke:#000000;stroke-width:2.0;"/><text fill="#000000" font-family="sans-serif" font-size="13" font-weight="bold" lengthAdjust="spacing" textLength="21" x="985" y="631.6216">ref</text><text fill="#000000" font-family="sans-serif" font-size="12" lengthAdjust="spacing" textLength="137" x="1010" y="649.6934">Register Maintenance</text><polygon fill="#181818" points="634.5,678.7891,624.5,682.7891,634.5,686.7891,630.5,682.7891" style="stroke:#181818;stroke-width:1.0;"/><line style="stroke:#181818;stroke-width:1.0;" x1="628.5" x2="1077.5" y1="682.7891" y2="682.7891"/><text fill="#000000" font-family="sans-serif" font-size="13" font-weight="bold" lengthAdjust="spacing" textLength="18" x="640.5" y="677.7231">13</text><text fill="#000000" font-family="sans-serif" font-size="13" lengthAdjust="spacing" textLength="53" x="662.5" y="677.7231">Success</text><polygon fill="#181818" points="38.5,707.9219,28.5,711.9219,38.5,715.9219,34.5,711.9219" style="stroke:#181818;stroke-width:1.0;"/><line style="stroke:#181818;stroke-width:1.0;stroke-dasharray:2.0,2.0;" x1="32.5" x2="617.5" y1="711.9219" y2="711.9219"/><text fill="#000000" font-family="sans-serif" font-size="13" font-weight="bold" lengthAdjust="spacing" textLength="18" x="44.5" y="706.856">14</text><text fill="#000000" font-family="sans-serif" font-size="13" lengthAdjust="spacing" textLength="189" x="66.5" y="706.856">Confirms registration success</text><!--SRC=[dLHTZzem47pthrZn12Vk3_1GgG9H8KfxQigzxzcRn2AnKzlXnB_lveiOBaAwum75zixCpdeIVzAcGeSbbDPOcJjR4WHNa_3Namhb2JDAmgKWS2G3cgo82toEohvhaq6AXISXWWvSUjn1GlzgCf9Wep5hIkT9ibb0QXtyeKpxGAw1lLAk9ICEg4qWWumG0kjWJLs-aUDd6HWoUzqUPe0UjWLHEA3XhlXGS1T1IrsX2J1R3SJhdEJfM1rtBUIuUrosjYOuMnJasl9nsOhhCmQwbusNyFojyRk2x_xa8LYUKqSF26Nawih5_GW6C6oKUdfY0kc8ppyUyb56OOC1Vn4fKd_jdOFvOcIFstUKWZqpGRG9_Fj1OHYyXvU2OHv-Cg4WexZzL8X8_7dmT-uGNRrGD2dPzCw0cm6j8CdjUo-qvEldPFW0cmPhKsXDmB42PFLrxHpnBUrrmNbaYxxTthekJXVuNGLjJIpVp7FoGX8gEB9Cq4aluSNPirPizYgvCwbTyf9p7M-FSeruKh-LElYf6-m7utHwwU-YSRMrhiGmL_ouk2d4GZURKMbVDC4tJg2dazrezgLVJ6PaO1-14MG9lfq6gNOMNm_Cn0rDnwOtqtvH7eJbpWGgDOJwfk4bgFO_TXIzNVloauw6D-Zcm_F8Hr9BIVwJkUUALBlIzzy4XqrsmN-auaJz1m00]--></g></svg>