<?xml version="1.0" encoding="us-ascii" standalone="no"?><svg xmlns="http://www.w3.org/2000/svg" xmlns:xlink="http://www.w3.org/1999/xlink" contentStyleType="text/css" height="1093px" preserveAspectRatio="none" style="width:3271px;height:1093px;background:#FFFFFF;" version="1.1" viewBox="0 0 3271 1093" width="3271px" zoomAndPan="magnify"><defs/><g><!--cluster UI--><g id="cluster_UI"><path d="M8.5,499 L24.5,499 A3.75,3.75 0 0 1 27,501.5 L34,521.2969 L656.5,521.2969 A2.5,2.5 0 0 1 659,523.7969 L659,611.5 A2.5,2.5 0 0 1 656.5,614 L8.5,614 A2.5,2.5 0 0 1 6,611.5 L6,501.5 A2.5,2.5 0 0 1 8.5,499 " fill="#F0F0F0" style="stroke:#000000;stroke-width:1.5;"/><line style="stroke:#000000;stroke-width:1.5;" x1="6" x2="34" y1="521.2969" y2="521.2969"/><text fill="#000000" font-family="sans-serif" font-size="14" font-weight="bold" lengthAdjust="spacing" textLength="15" x="10" y="513.9951">UI</text></g><!--cluster Core--><g id="cluster_Core"><path d="M694.5,6 L733.5,6 A3.75,3.75 0 0 1 736,8.5 L743,28.2969 L3261.5,28.2969 A2.5,2.5 0 0 1 3264,30.7969 L3264,1083.5 A2.5,2.5 0 0 1 3261.5,1086 L694.5,1086 A2.5,2.5 0 0 1 692,1083.5 L692,8.5 A2.5,2.5 0 0 1 694.5,6 " fill="#F0F0F0" style="stroke:#000000;stroke-width:1.5;"/><line style="stroke:#000000;stroke-width:1.5;" x1="692" x2="743" y1="28.2969" y2="28.2969"/><text fill="#000000" font-family="sans-serif" font-size="14" font-weight="bold" lengthAdjust="spacing" textLength="38" x="696" y="20.9951">Core</text></g><!--cluster Controller--><g id="cluster_Controller"><path d="M718.5,536 L798.5,536 A3.75,3.75 0 0 1 801,538.5 L808,558.2969 L1304.5,558.2969 A2.5,2.5 0 0 1 1307,560.7969 L1307,680.5 A2.5,2.5 0 0 1 1304.5,683 L718.5,683 A2.5,2.5 0 0 1 716,680.5 L716,538.5 A2.5,2.5 0 0 1 718.5,536 " fill="#DDDDDD" style="stroke:#000000;stroke-width:1.5;"/><line style="stroke:#000000;stroke-width:1.5;" x1="716" x2="808" y1="558.2969" y2="558.2969"/><text fill="#000000" font-family="sans-serif" font-size="14" font-weight="bold" lengthAdjust="spacing" textLength="79" x="720" y="550.9951">Controller</text></g><!--cluster Session--><g id="cluster_Session"><path d="M1502.5,929 L1565.5,929 A3.75,3.75 0 0 1 1568,931.5 L1575,951.2969 L2386,951.2969 A2.5,2.5 0 0 1 2388.5,953.7969 L2388.5,1059.5 A2.5,2.5 0 0 1 2386,1062 L1502.5,1062 A2.5,2.5 0 0 1 1500,1059.5 L1500,931.5 A2.5,2.5 0 0 1 1502.5,929 " fill="#DDDDDD" style="stroke:#000000;stroke-width:1.5;"/><line style="stroke:#000000;stroke-width:1.5;" x1="1500" x2="1575" y1="951.2969" y2="951.2969"/><text fill="#000000" font-family="sans-serif" font-size="14" font-weight="bold" lengthAdjust="spacing" textLength="62" x="1504" y="943.9951">Session</text></g><!--cluster Mapper--><g id="cluster_Mapper"><path d="M2041,724 L2101,724 A3.75,3.75 0 0 1 2103.5,726.5 L2110.5,746.2969 L2530,746.2969 A2.5,2.5 0 0 1 2532.5,748.7969 L2532.5,902.5 A2.5,2.5 0 0 1 2530,905 L2041,905 A2.5,2.5 0 0 1 2038.5,902.5 L2038.5,726.5 A2.5,2.5 0 0 1 2041,724 " fill="#DDDDDD" style="stroke:#000000;stroke-width:1.5;"/><line style="stroke:#000000;stroke-width:1.5;" x1="2038.5" x2="2110.5" y1="746.2969" y2="746.2969"/><text fill="#000000" font-family="sans-serif" font-size="14" font-weight="bold" lengthAdjust="spacing" textLength="59" x="2042.5" y="738.9951">Mapper</text></g><!--cluster DTO--><g id="cluster_DTO"><path d="M2022.5,519 L2056.5,519 A3.75,3.75 0 0 1 2059,521.5 L2066,541.2969 L2548.5,541.2969 A2.5,2.5 0 0 1 2551,543.7969 L2551,697.5 A2.5,2.5 0 0 1 2548.5,700 L2022.5,700 A2.5,2.5 0 0 1 2020,697.5 L2020,521.5 A2.5,2.5 0 0 1 2022.5,519 " fill="#DDDDDD" style="stroke:#000000;stroke-width:1.5;"/><line style="stroke:#000000;stroke-width:1.5;" x1="2020" x2="2066" y1="541.2969" y2="541.2969"/><text fill="#000000" font-family="sans-serif" font-size="14" font-weight="bold" lengthAdjust="spacing" textLength="33" x="2024" y="533.9951">DTO</text></g><!--cluster Domain--><g id="cluster_Domain"><path d="M1418.5,49 L1477.5,49 A3.75,3.75 0 0 1 1480,51.5 L1487,71.2969 L3237.5,71.2969 A2.5,2.5 0 0 1 3240,73.7969 L3240,492.5 A2.5,2.5 0 0 1 3237.5,495 L1418.5,495 A2.5,2.5 0 0 1 1416,492.5 L1416,51.5 A2.5,2.5 0 0 1 1418.5,49 " fill="#DDDDDD" style="stroke:#000000;stroke-width:1.5;"/><line style="stroke:#000000;stroke-width:1.5;" x1="1416" x2="1487" y1="71.2969" y2="71.2969"/><text fill="#000000" font-family="sans-serif" font-size="14" font-weight="bold" lengthAdjust="spacing" textLength="58" x="1420" y="63.9951">Domain</text></g><!--cluster Repository--><g id="cluster_Repository"><path d="M1442.5,224 L1528.5,224 A3.75,3.75 0 0 1 1531,226.5 L1538,246.2969 L2687.5,246.2969 A2.5,2.5 0 0 1 2690,248.7969 L2690,468.5 A2.5,2.5 0 0 1 2687.5,471 L1442.5,471 A2.5,2.5 0 0 1 1440,468.5 L1440,226.5 A2.5,2.5 0 0 1 1442.5,224 " fill="#BBBBBB" style="stroke:#000000;stroke-width:1.5;"/><line style="stroke:#000000;stroke-width:1.5;" x1="1440" x2="1538" y1="246.2969" y2="246.2969"/><text fill="#000000" font-family="sans-serif" font-size="14" font-weight="bold" lengthAdjust="spacing" textLength="85" x="1444" y="238.9951">Repository</text></g><!--cluster Model--><g id="cluster_Model"><path d="M2725.5,92 L2773.5,92 A3.75,3.75 0 0 1 2776,94.5 L2783,114.2969 L3213.5,114.2969 A2.5,2.5 0 0 1 3216,116.7969 L3216,468.5 A2.5,2.5 0 0 1 3213.5,471 L2725.5,471 A2.5,2.5 0 0 1 2723,468.5 L2723,94.5 A2.5,2.5 0 0 1 2725.5,92 " fill="#BBBBBB" style="stroke:#000000;stroke-width:1.5;"/><line style="stroke:#000000;stroke-width:1.5;" x1="2723" x2="2783" y1="114.2969" y2="114.2969"/><text fill="#000000" font-family="sans-serif" font-size="14" font-weight="bold" lengthAdjust="spacing" textLength="47" x="2727" y="106.9951">Model</text></g><!--class CollaboratorUI--><g id="elem_CollaboratorUI"><rect codeLine="7" fill="#F1F1F1" height="64.2969" id="CollaboratorUI" rx="2.5" ry="2.5" style="stroke:#181818;stroke-width:0.5;" width="138" x="22" y="534"/><ellipse cx="41.5" cy="550" fill="#ADD1B2" rx="11" ry="11" style="stroke:#181818;stroke-width:1.0;"/><path d="M44.4688,555.6406 Q43.8906,555.9375 43.25,556.0781 Q42.6094,556.2344 41.9063,556.2344 Q39.4063,556.2344 38.0781,554.5938 Q36.7656,552.9375 36.7656,549.8125 Q36.7656,546.6875 38.0781,545.0313 Q39.4063,543.375 41.9063,543.375 Q42.6094,543.375 43.25,543.5313 Q43.9063,543.6875 44.4688,543.9844 L44.4688,546.7031 Q43.8438,546.125 43.25,545.8594 Q42.6563,545.5781 42.0313,545.5781 Q40.6875,545.5781 40,546.6563 Q39.3125,547.7188 39.3125,549.8125 Q39.3125,551.9063 40,552.9844 Q40.6875,554.0469 42.0313,554.0469 Q42.6563,554.0469 43.25,553.7813 Q43.8438,553.5 44.4688,552.9219 L44.4688,555.6406 Z " fill="#000000"/><text fill="#000000" font-family="sans-serif" font-size="14" lengthAdjust="spacing" textLength="96" x="56.5" y="554.8467">CollaboratorUI</text><line style="stroke:#181818;stroke-width:0.5;" x1="23" x2="159" y1="566" y2="566"/><line style="stroke:#181818;stroke-width:0.5;" x1="23" x2="159" y1="574" y2="574"/><text fill="#000000" font-family="sans-serif" font-size="14" lengthAdjust="spacing" textLength="126" x="28" y="590.9951">+seeTasks(): void</text></g><!--class ViewTaskListCollaboratorUI--><g id="elem_ViewTaskListCollaboratorUI"><rect codeLine="10" fill="#F1F1F1" height="64.2969" id="ViewTaskListCollaboratorUI" rx="2.5" ry="2.5" style="stroke:#181818;stroke-width:0.5;" width="422" x="221" y="534"/><ellipse cx="335.75" cy="550" fill="#ADD1B2" rx="11" ry="11" style="stroke:#181818;stroke-width:1.0;"/><path d="M338.7188,555.6406 Q338.1406,555.9375 337.5,556.0781 Q336.8594,556.2344 336.1563,556.2344 Q333.6563,556.2344 332.3281,554.5938 Q331.0156,552.9375 331.0156,549.8125 Q331.0156,546.6875 332.3281,545.0313 Q333.6563,543.375 336.1563,543.375 Q336.8594,543.375 337.5,543.5313 Q338.1563,543.6875 338.7188,543.9844 L338.7188,546.7031 Q338.0938,546.125 337.5,545.8594 Q336.9063,545.5781 336.2813,545.5781 Q334.9375,545.5781 334.25,546.6563 Q333.5625,547.7188 333.5625,549.8125 Q333.5625,551.9063 334.25,552.9844 Q334.9375,554.0469 336.2813,554.0469 Q336.9063,554.0469 337.5,553.7813 Q338.0938,553.5 338.7188,552.9219 L338.7188,555.6406 Z " fill="#000000"/><text fill="#000000" font-family="sans-serif" font-size="14" lengthAdjust="spacing" textLength="184" x="356.25" y="554.8467">ViewTaskListCollaboratorUI</text><line style="stroke:#181818;stroke-width:0.5;" x1="222" x2="642" y1="566" y2="566"/><line style="stroke:#181818;stroke-width:0.5;" x1="222" x2="642" y1="574" y2="574"/><text fill="#000000" font-family="sans-serif" font-size="14" lengthAdjust="spacing" textLength="410" x="227" y="590.9951">+setTableTasks(tasksInThoseDates: List&lt;EntryDto&gt;): void</text></g><!--class ViewTaskListAssignedCollabController--><g id="elem_ViewTaskListAssignedCollabController"><rect codeLine="18" fill="#F1F1F1" height="96.8906" id="ViewTaskListAssignedCollabController" rx="2.5" ry="2.5" style="stroke:#181818;stroke-width:0.5;" width="559" x="732" y="570.5"/><ellipse cx="876.75" cy="586.5" fill="#ADD1B2" rx="11" ry="11" style="stroke:#181818;stroke-width:1.0;"/><path d="M879.7188,592.1406 Q879.1406,592.4375 878.5,592.5781 Q877.8594,592.7344 877.1563,592.7344 Q874.6563,592.7344 873.3281,591.0938 Q872.0156,589.4375 872.0156,586.3125 Q872.0156,583.1875 873.3281,581.5313 Q874.6563,579.875 877.1563,579.875 Q877.8594,579.875 878.5,580.0313 Q879.1563,580.1875 879.7188,580.4844 L879.7188,583.2031 Q879.0938,582.625 878.5,582.3594 Q877.9063,582.0781 877.2813,582.0781 Q875.9375,582.0781 875.25,583.1563 Q874.5625,584.2188 874.5625,586.3125 Q874.5625,588.4063 875.25,589.4844 Q875.9375,590.5469 877.2813,590.5469 Q877.9063,590.5469 878.5,590.2813 Q879.0938,590 879.7188,589.4219 L879.7188,592.1406 Z " fill="#000000"/><text fill="#000000" font-family="sans-serif" font-size="14" lengthAdjust="spacing" textLength="261" x="897.25" y="591.3467">ViewTaskListAssignedCollabController</text><line style="stroke:#181818;stroke-width:0.5;" x1="733" x2="1290" y1="602.5" y2="602.5"/><line style="stroke:#181818;stroke-width:0.5;" x1="733" x2="1290" y1="610.5" y2="610.5"/><text fill="#000000" font-family="sans-serif" font-size="14" lengthAdjust="spacing" textLength="547" x="738" y="627.4951">+getEntriesAssignedToMe(firstDate: Date, secondDate: Date): List&lt;EntryDto&gt;</text><text fill="#000000" font-family="sans-serif" font-size="14" lengthAdjust="spacing" textLength="501" x="738" y="643.792">+assignEntryCompleted(entryDto: EntryDto, completedDate: Date): void</text><text fill="#000000" font-family="sans-serif" font-size="14" lengthAdjust="spacing" textLength="267" x="738" y="660.0889">+getCollaboratorFromSession(): String</text></g><!--class ApplicationSession--><g id="elem_ApplicationSession"><rect codeLine="26" fill="#F1F1F1" height="80.5938" id="ApplicationSession" rx="2.5" ry="2.5" style="stroke:#181818;stroke-width:0.5;" width="260" x="1516" y="964.5"/><ellipse cx="1576.75" cy="980.5" fill="#ADD1B2" rx="11" ry="11" style="stroke:#181818;stroke-width:1.0;"/><path d="M1579.7188,986.1406 Q1579.1406,986.4375 1578.5,986.5781 Q1577.8594,986.7344 1577.1563,986.7344 Q1574.6563,986.7344 1573.3281,985.0938 Q1572.0156,983.4375 1572.0156,980.3125 Q1572.0156,977.1875 1573.3281,975.5313 Q1574.6563,973.875 1577.1563,973.875 Q1577.8594,973.875 1578.5,974.0313 Q1579.1563,974.1875 1579.7188,974.4844 L1579.7188,977.2031 Q1579.0938,976.625 1578.5,976.3594 Q1577.9063,976.0781 1577.2813,976.0781 Q1575.9375,976.0781 1575.25,977.1563 Q1574.5625,978.2188 1574.5625,980.3125 Q1574.5625,982.4063 1575.25,983.4844 Q1575.9375,984.5469 1577.2813,984.5469 Q1577.9063,984.5469 1578.5,984.2813 Q1579.0938,984 1579.7188,983.4219 L1579.7188,986.1406 Z " fill="#000000"/><text fill="#000000" font-family="sans-serif" font-size="14" lengthAdjust="spacing" textLength="130" x="1597.25" y="985.3467">ApplicationSession</text><line style="stroke:#181818;stroke-width:0.5;" x1="1517" x2="1775" y1="996.5" y2="996.5"/><text fill="#000000" font-family="sans-serif" font-size="14" lengthAdjust="spacing" textLength="203" x="1522" y="1013.4951">-instance: ApplicationSession</text><line style="stroke:#181818;stroke-width:0.5;" x1="1517" x2="1775" y1="1020.7969" y2="1020.7969"/><text fill="#000000" font-family="sans-serif" font-size="14" lengthAdjust="spacing" textLength="248" x="1522" y="1037.792">+getCurrentSession(): UserSession</text></g><!--class UserSession--><g id="elem_UserSession"><rect codeLine="31" fill="#F1F1F1" height="64.2969" id="UserSession" rx="2.5" ry="2.5" style="stroke:#181818;stroke-width:0.5;" width="174" x="2198.5" y="968"/><ellipse cx="2238.25" cy="984" fill="#ADD1B2" rx="11" ry="11" style="stroke:#181818;stroke-width:1.0;"/><path d="M2241.2188,989.6406 Q2240.6406,989.9375 2240,990.0781 Q2239.3594,990.2344 2238.6563,990.2344 Q2236.1563,990.2344 2234.8281,988.5938 Q2233.5156,986.9375 2233.5156,983.8125 Q2233.5156,980.6875 2234.8281,979.0313 Q2236.1563,977.375 2238.6563,977.375 Q2239.3594,977.375 2240,977.5313 Q2240.6563,977.6875 2241.2188,977.9844 L2241.2188,980.7031 Q2240.5938,980.125 2240,979.8594 Q2239.4063,979.5781 2238.7813,979.5781 Q2237.4375,979.5781 2236.75,980.6563 Q2236.0625,981.7188 2236.0625,983.8125 Q2236.0625,985.9063 2236.75,986.9844 Q2237.4375,988.0469 2238.7813,988.0469 Q2239.4063,988.0469 2240,987.7813 Q2240.5938,987.5 2241.2188,986.9219 L2241.2188,989.6406 Z " fill="#000000"/><text fill="#000000" font-family="sans-serif" font-size="14" lengthAdjust="spacing" textLength="87" x="2257.75" y="988.8467">UserSession</text><line style="stroke:#181818;stroke-width:0.5;" x1="2199.5" x2="2371.5" y1="1000" y2="1000"/><line style="stroke:#181818;stroke-width:0.5;" x1="2199.5" x2="2371.5" y1="1008" y2="1008"/><text fill="#000000" font-family="sans-serif" font-size="14" lengthAdjust="spacing" textLength="162" x="2204.5" y="1024.9951">+getUserEmail(): String</text></g><!--class EntryMapper--><g id="elem_EntryMapper"><rect codeLine="37" fill="#F1F1F1" height="129.4844" id="EntryMapper" rx="2.5" ry="2.5" style="stroke:#181818;stroke-width:0.5;" width="462" x="2054.5" y="759.5"/><ellipse cx="2237.75" cy="775.5" fill="#ADD1B2" rx="11" ry="11" style="stroke:#181818;stroke-width:1.0;"/><path d="M2240.7188,781.1406 Q2240.1406,781.4375 2239.5,781.5781 Q2238.8594,781.7344 2238.1563,781.7344 Q2235.6563,781.7344 2234.3281,780.0938 Q2233.0156,778.4375 2233.0156,775.3125 Q2233.0156,772.1875 2234.3281,770.5313 Q2235.6563,768.875 2238.1563,768.875 Q2238.8594,768.875 2239.5,769.0313 Q2240.1563,769.1875 2240.7188,769.4844 L2240.7188,772.2031 Q2240.0938,771.625 2239.5,771.3594 Q2238.9063,771.0781 2238.2813,771.0781 Q2236.9375,771.0781 2236.25,772.1563 Q2235.5625,773.2188 2235.5625,775.3125 Q2235.5625,777.4063 2236.25,778.4844 Q2236.9375,779.5469 2238.2813,779.5469 Q2238.9063,779.5469 2239.5,779.2813 Q2240.0938,779 2240.7188,778.4219 L2240.7188,781.1406 Z " fill="#000000"/><text fill="#000000" font-family="sans-serif" font-size="14" lengthAdjust="spacing" textLength="87" x="2258.25" y="780.3467">EntryMapper</text><line style="stroke:#181818;stroke-width:0.5;" x1="2055.5" x2="2515.5" y1="791.5" y2="791.5"/><line style="stroke:#181818;stroke-width:0.5;" x1="2055.5" x2="2515.5" y1="799.5" y2="799.5"/><text fill="#000000" font-family="sans-serif" font-size="14" lengthAdjust="spacing" textLength="446" x="2060.5" y="816.4951">+entryListToEntryDtoList(entryList: List&lt;Entry&gt;): List&lt;EntryDto&gt;</text><text fill="#000000" font-family="sans-serif" font-size="14" lengthAdjust="spacing" textLength="209" x="2060.5" y="832.792">+toDto(entry: Entry): EntryDto</text><text fill="#000000" font-family="sans-serif" font-size="14" lengthAdjust="spacing" textLength="395" x="2060.5" y="849.0889">+entryDtoToEntry(entryDto: EntryDto, entry: Entry): Entry</text><text fill="#000000" font-family="sans-serif" font-size="14" lengthAdjust="spacing" textLength="450" x="2060.5" y="865.3857">+shouldCompleteTask(entry: Entry, entryDto: EntryDto): boolean</text><text fill="#000000" font-family="sans-serif" font-size="14" lengthAdjust="spacing" textLength="373" x="2060.5" y="881.6826">+completeTask(entry: Entry, entryDto: EntryDto): void</text></g><!--class EntryDto--><g id="elem_EntryDto"><rect codeLine="47" fill="#F1F1F1" height="129.4844" id="EntryDto" rx="2.5" ry="2.5" style="stroke:#181818;stroke-width:0.5;" width="499" x="2036" y="554.5"/><ellipse cx="2251.25" cy="570.5" fill="#ADD1B2" rx="11" ry="11" style="stroke:#181818;stroke-width:1.0;"/><path d="M2254.2188,576.1406 Q2253.6406,576.4375 2253,576.5781 Q2252.3594,576.7344 2251.6563,576.7344 Q2249.1563,576.7344 2247.8281,575.0938 Q2246.5156,573.4375 2246.5156,570.3125 Q2246.5156,567.1875 2247.8281,565.5313 Q2249.1563,563.875 2251.6563,563.875 Q2252.3594,563.875 2253,564.0313 Q2253.6563,564.1875 2254.2188,564.4844 L2254.2188,567.2031 Q2253.5938,566.625 2253,566.3594 Q2252.4063,566.0781 2251.7813,566.0781 Q2250.4375,566.0781 2249.75,567.1563 Q2249.0625,568.2188 2249.0625,570.3125 Q2249.0625,572.4063 2249.75,573.4844 Q2250.4375,574.5469 2251.7813,574.5469 Q2252.4063,574.5469 2253,574.2813 Q2253.5938,574 2254.2188,573.4219 L2254.2188,576.1406 Z " fill="#000000"/><text fill="#000000" font-family="sans-serif" font-size="14" lengthAdjust="spacing" textLength="60" x="2271.75" y="575.3467">EntryDto</text><line style="stroke:#181818;stroke-width:0.5;" x1="2037" x2="2534" y1="586.5" y2="586.5"/><text fill="#000000" font-family="sans-serif" font-size="14" lengthAdjust="spacing" textLength="118" x="2042" y="603.4951">+startDate: Date</text><text fill="#000000" font-family="sans-serif" font-size="14" lengthAdjust="spacing" textLength="123" x="2042" y="619.792">+finishDate: Date</text><text fill="#000000" font-family="sans-serif" font-size="14" lengthAdjust="spacing" textLength="104" x="2042" y="636.0889">+status: String</text><text fill="#000000" font-family="sans-serif" font-size="14" lengthAdjust="spacing" textLength="292" x="2042" y="652.3857">+collaboratorThatCompleted: Collaborator</text><line style="stroke:#181818;stroke-width:0.5;" x1="2037" x2="2534" y1="659.6875" y2="659.6875"/><text fill="#000000" font-family="sans-serif" font-size="14" lengthAdjust="spacing" textLength="487" x="2042" y="676.6826">+completeTask(completedDate: Date, collaborator: Collaborator): void</text></g><!--class Repositories--><g id="elem_Repositories"><rect codeLine="59" fill="#F1F1F1" height="145.7813" id="Repositories" rx="2.5" ry="2.5" style="stroke:#181818;stroke-width:0.5;" width="380" x="1456" y="309"/><ellipse cx="1598.25" cy="325" fill="#ADD1B2" rx="11" ry="11" style="stroke:#181818;stroke-width:1.0;"/><path d="M1601.2188,330.6406 Q1600.6406,330.9375 1600,331.0781 Q1599.3594,331.2344 1598.6563,331.2344 Q1596.1563,331.2344 1594.8281,329.5938 Q1593.5156,327.9375 1593.5156,324.8125 Q1593.5156,321.6875 1594.8281,320.0313 Q1596.1563,318.375 1598.6563,318.375 Q1599.3594,318.375 1600,318.5313 Q1600.6563,318.6875 1601.2188,318.9844 L1601.2188,321.7031 Q1600.5938,321.125 1600,320.8594 Q1599.4063,320.5781 1598.7813,320.5781 Q1597.4375,320.5781 1596.75,321.6563 Q1596.0625,322.7188 1596.0625,324.8125 Q1596.0625,326.9063 1596.75,327.9844 Q1597.4375,329.0469 1598.7813,329.0469 Q1599.4063,329.0469 1600,328.7813 Q1600.5938,328.5 1601.2188,327.9219 L1601.2188,330.6406 Z " fill="#000000"/><text fill="#000000" font-family="sans-serif" font-size="14" lengthAdjust="spacing" textLength="87" x="1618.75" y="329.8467">Repositories</text><line style="stroke:#181818;stroke-width:0.5;" x1="1457" x2="1835" y1="341" y2="341"/><text fill="#000000" font-family="sans-serif" font-size="14" lengthAdjust="spacing" textLength="326" x="1462" y="357.9951">-collaboratorRepository: CollaboratorRepository</text><text fill="#000000" font-family="sans-serif" font-size="14" lengthAdjust="spacing" textLength="232" x="1462" y="374.292">-entryRepository: EntryRepository</text><text fill="#000000" font-family="sans-serif" font-size="14" lengthAdjust="spacing" textLength="201" x="1462" y="390.5889">-static instance: Repositories</text><line style="stroke:#181818;stroke-width:0.5;" x1="1457" x2="1835" y1="397.8906" y2="397.8906"/><text fill="#000000" font-family="sans-serif" font-size="14" lengthAdjust="spacing" textLength="200" x="1462" y="414.8857">+getInstance(): Repositories</text><text fill="#000000" font-family="sans-serif" font-size="14" lengthAdjust="spacing" textLength="368" x="1462" y="431.1826">+getCollaboratorRepository(): CollaboratorRepository</text><text fill="#000000" font-family="sans-serif" font-size="14" lengthAdjust="spacing" textLength="272" x="1462" y="447.4795">+getEntryRepository(): EntryRepository</text></g><!--class CollaboratorRepository--><g id="elem_CollaboratorRepository"><rect codeLine="68" fill="#F1F1F1" height="64.2969" id="CollaboratorRepository" rx="2.5" ry="2.5" style="stroke:#181818;stroke-width:0.5;" width="370" x="2100.5" y="259"/><ellipse cx="2202.75" cy="275" fill="#ADD1B2" rx="11" ry="11" style="stroke:#181818;stroke-width:1.0;"/><path d="M2205.7188,280.6406 Q2205.1406,280.9375 2204.5,281.0781 Q2203.8594,281.2344 2203.1563,281.2344 Q2200.6563,281.2344 2199.3281,279.5938 Q2198.0156,277.9375 2198.0156,274.8125 Q2198.0156,271.6875 2199.3281,270.0313 Q2200.6563,268.375 2203.1563,268.375 Q2203.8594,268.375 2204.5,268.5313 Q2205.1563,268.6875 2205.7188,268.9844 L2205.7188,271.7031 Q2205.0938,271.125 2204.5,270.8594 Q2203.9063,270.5781 2203.2813,270.5781 Q2201.9375,270.5781 2201.25,271.6563 Q2200.5625,272.7188 2200.5625,274.8125 Q2200.5625,276.9063 2201.25,277.9844 Q2201.9375,279.0469 2203.2813,279.0469 Q2203.9063,279.0469 2204.5,278.7813 Q2205.0938,278.5 2205.7188,277.9219 L2205.7188,280.6406 Z " fill="#000000"/><text fill="#000000" font-family="sans-serif" font-size="14" lengthAdjust="spacing" textLength="157" x="2223.25" y="279.8467">CollaboratorRepository</text><line style="stroke:#181818;stroke-width:0.5;" x1="2101.5" x2="2469.5" y1="291" y2="291"/><line style="stroke:#181818;stroke-width:0.5;" x1="2101.5" x2="2469.5" y1="299" y2="299"/><text fill="#000000" font-family="sans-serif" font-size="14" lengthAdjust="spacing" textLength="358" x="2106.5" y="315.9951">+getCollaboratorByEmail(email: String): Collaborator</text></g><!--class EntryRepository--><g id="elem_EntryRepository"><rect codeLine="72" fill="#F1F1F1" height="96.8906" id="EntryRepository" rx="2.5" ry="2.5" style="stroke:#181818;stroke-width:0.5;" width="777" x="1897" y="358.5"/><ellipse cx="2226.75" cy="374.5" fill="#ADD1B2" rx="11" ry="11" style="stroke:#181818;stroke-width:1.0;"/><path d="M2229.7188,380.1406 Q2229.1406,380.4375 2228.5,380.5781 Q2227.8594,380.7344 2227.1563,380.7344 Q2224.6563,380.7344 2223.3281,379.0938 Q2222.0156,377.4375 2222.0156,374.3125 Q2222.0156,371.1875 2223.3281,369.5313 Q2224.6563,367.875 2227.1563,367.875 Q2227.8594,367.875 2228.5,368.0313 Q2229.1563,368.1875 2229.7188,368.4844 L2229.7188,371.2031 Q2229.0938,370.625 2228.5,370.3594 Q2227.9063,370.0781 2227.2813,370.0781 Q2225.9375,370.0781 2225.25,371.1563 Q2224.5625,372.2188 2224.5625,374.3125 Q2224.5625,376.4063 2225.25,377.4844 Q2225.9375,378.5469 2227.2813,378.5469 Q2227.9063,378.5469 2228.5,378.2813 Q2229.0938,378 2229.7188,377.4219 L2229.7188,380.1406 Z " fill="#000000"/><text fill="#000000" font-family="sans-serif" font-size="14" lengthAdjust="spacing" textLength="109" x="2247.25" y="379.3467">EntryRepository</text><line style="stroke:#181818;stroke-width:0.5;" x1="1898" x2="2673" y1="390.5" y2="390.5"/><line style="stroke:#181818;stroke-width:0.5;" x1="1898" x2="2673" y1="398.5" y2="398.5"/><text fill="#000000" font-family="sans-serif" font-size="14" lengthAdjust="spacing" textLength="765" x="1903" y="415.4951">+getEntriesByCollaboratorInAgenda(collaborator: Collaborator, firstDate: Date, secondDate: Date): List&lt;Entry&gt;</text><text fill="#000000" font-family="sans-serif" font-size="14" lengthAdjust="spacing" textLength="457" x="1903" y="431.792">+completeTaskCollaborator(entryDto: EntryDto): Optional&lt;Entry&gt;</text><text fill="#000000" font-family="sans-serif" font-size="14" lengthAdjust="spacing" textLength="352" x="1903" y="448.0889">+searchForEntryAgenda(entryDto: EntryDto): Entry</text></g><!--class Entry--><g id="elem_Entry"><rect codeLine="80" fill="#F1F1F1" height="210.9688" id="Entry" rx="2.5" ry="2.5" style="stroke:#181818;stroke-width:0.5;" width="461" x="2739" y="243.5"/><ellipse cx="2947.75" cy="259.5" fill="#ADD1B2" rx="11" ry="11" style="stroke:#181818;stroke-width:1.0;"/><path d="M2950.7188,265.1406 Q2950.1406,265.4375 2949.5,265.5781 Q2948.8594,265.7344 2948.1563,265.7344 Q2945.6563,265.7344 2944.3281,264.0938 Q2943.0156,262.4375 2943.0156,259.3125 Q2943.0156,256.1875 2944.3281,254.5313 Q2945.6563,252.875 2948.1563,252.875 Q2948.8594,252.875 2949.5,253.0313 Q2950.1563,253.1875 2950.7188,253.4844 L2950.7188,256.2031 Q2950.0938,255.625 2949.5,255.3594 Q2948.9063,255.0781 2948.2813,255.0781 Q2946.9375,255.0781 2946.25,256.1563 Q2945.5625,257.2188 2945.5625,259.3125 Q2945.5625,261.4063 2946.25,262.4844 Q2946.9375,263.5469 2948.2813,263.5469 Q2948.9063,263.5469 2949.5,263.2813 Q2950.0938,263 2950.7188,262.4219 L2950.7188,265.1406 Z " fill="#000000"/><text fill="#000000" font-family="sans-serif" font-size="14" lengthAdjust="spacing" textLength="35" x="2968.25" y="264.3467">Entry</text><line style="stroke:#181818;stroke-width:0.5;" x1="2740" x2="3199" y1="275.5" y2="275.5"/><text fill="#000000" font-family="sans-serif" font-size="14" lengthAdjust="spacing" textLength="128" x="2745" y="292.4951">+reference: String</text><text fill="#000000" font-family="sans-serif" font-size="14" lengthAdjust="spacing" textLength="104" x="2745" y="308.792">+status: String</text><text fill="#000000" font-family="sans-serif" font-size="14" lengthAdjust="spacing" textLength="118" x="2745" y="325.0889">+startDate: Date</text><text fill="#000000" font-family="sans-serif" font-size="14" lengthAdjust="spacing" textLength="123" x="2745" y="341.3857">+finishDate: Date</text><text fill="#000000" font-family="sans-serif" font-size="14" lengthAdjust="spacing" textLength="138" x="2745" y="357.6826">+description: String</text><text fill="#000000" font-family="sans-serif" font-size="14" lengthAdjust="spacing" textLength="86" x="2745" y="373.9795">+title: String</text><text fill="#000000" font-family="sans-serif" font-size="14" lengthAdjust="spacing" textLength="292" x="2745" y="390.2764">+collaboratorThatCompleted: Collaborator</text><line style="stroke:#181818;stroke-width:0.5;" x1="2740" x2="3199" y1="397.5781" y2="397.5781"/><text fill="#000000" font-family="sans-serif" font-size="14" lengthAdjust="spacing" textLength="449" x="2745" y="414.5732">+completeTask(finishDate: Date, collaborator: Collaborator): void</text><text fill="#000000" font-family="sans-serif" font-size="14" lengthAdjust="spacing" textLength="160" x="2745" y="430.8701">+getFinishDate(): Date</text><text fill="#000000" font-family="sans-serif" font-size="14" lengthAdjust="spacing" textLength="260" x="2745" y="447.167">+getCollaboratorFinish(): Collaborator</text></g><!--class Collaborator--><g id="elem_Collaborator"><rect codeLine="93" fill="#F1F1F1" height="80.5938" id="Collaborator" rx="2.5" ry="2.5" style="stroke:#181818;stroke-width:0.5;" width="115" x="2912" y="127.5"/><ellipse cx="2927" cy="143.5" fill="#ADD1B2" rx="11" ry="11" style="stroke:#181818;stroke-width:1.0;"/><path d="M2929.9688,149.1406 Q2929.3906,149.4375 2928.75,149.5781 Q2928.1094,149.7344 2927.4063,149.7344 Q2924.9063,149.7344 2923.5781,148.0938 Q2922.2656,146.4375 2922.2656,143.3125 Q2922.2656,140.1875 2923.5781,138.5313 Q2924.9063,136.875 2927.4063,136.875 Q2928.1094,136.875 2928.75,137.0313 Q2929.4063,137.1875 2929.9688,137.4844 L2929.9688,140.2031 Q2929.3438,139.625 2928.75,139.3594 Q2928.1563,139.0781 2927.5313,139.0781 Q2926.1875,139.0781 2925.5,140.1563 Q2924.8125,141.2188 2924.8125,143.3125 Q2924.8125,145.4063 2925.5,146.4844 Q2926.1875,147.5469 2927.5313,147.5469 Q2928.1563,147.5469 2928.75,147.2813 Q2929.3438,147 2929.9688,146.4219 L2929.9688,149.1406 Z " fill="#000000"/><text fill="#000000" font-family="sans-serif" font-size="14" lengthAdjust="spacing" textLength="83" x="2941" y="148.3467">Collaborator</text><line style="stroke:#181818;stroke-width:0.5;" x1="2913" x2="3026" y1="159.5" y2="159.5"/><text fill="#000000" font-family="sans-serif" font-size="14" lengthAdjust="spacing" textLength="100" x="2918" y="176.4951">+name: String</text><text fill="#000000" font-family="sans-serif" font-size="14" lengthAdjust="spacing" textLength="97" x="2918" y="192.792">+email: String</text><line style="stroke:#181818;stroke-width:0.5;" x1="2913" x2="3026" y1="200.0938" y2="200.0938"/></g><!--link CollaboratorUI to ViewTaskListCollaboratorUI--><g id="link_CollaboratorUI_ViewTaskListCollaboratorUI"><path codeLine="101" d="M160.19,566 C178.47,566 193.22,566 214.91,566 " fill="none" id="CollaboratorUI-to-ViewTaskListCollaboratorUI" style="stroke:#181818;stroke-width:1.0;stroke-dasharray:7.0,7.0;"/><polygon fill="#181818" points="220.91,566,211.91,562,215.91,566,211.91,570,220.91,566" style="stroke:#181818;stroke-width:1.0;"/></g><!--link CollaboratorUI to ViewTaskListAssignedCollabController--><g id="link_CollaboratorUI_ViewTaskListAssignedCollabController"><path codeLine="102" d="M160.31,597.14 C179.54,604.46 200.74,611.23 221,615 C388.6,646.2 573.7052,648.2809 725.9152,641.9109 " fill="none" id="CollaboratorUI-to-ViewTaskListAssignedCollabController" style="stroke:#181818;stroke-width:1.0;stroke-dasharray:7.0,7.0;"/><polygon fill="#181818" points="731.91,641.66,722.7506,638.0398,726.9144,641.8691,723.0851,646.0328,731.91,641.66" style="stroke:#181818;stroke-width:1.0;"/></g><!--link ViewTaskListCollaboratorUI to ViewTaskListAssignedCollabController--><g id="link_ViewTaskListCollaboratorUI_ViewTaskListAssignedCollabController"><path codeLine="103" d="M643.12,585.28 C671.99,587.93 696.0151,590.1416 725.8651,592.8816 " fill="none" id="ViewTaskListCollaboratorUI-to-ViewTaskListAssignedCollabController" style="stroke:#181818;stroke-width:1.0;stroke-dasharray:7.0,7.0;"/><polygon fill="#181818" points="731.84,593.43,723.2433,588.6241,726.8609,592.973,722.512,596.5906,731.84,593.43" style="stroke:#181818;stroke-width:1.0;"/></g><!--link ViewTaskListAssignedCollabController to Repositories--><g id="link_ViewTaskListAssignedCollabController_Repositories"><path codeLine="104" d="M1142.02,570.47 C1232.47,536.58 1349.0414,492.8951 1450.3314,454.9451 " fill="none" id="ViewTaskListAssignedCollabController-to-Repositories" style="stroke:#181818;stroke-width:1.0;stroke-dasharray:7.0,7.0;"/><polygon fill="#181818" points="1455.95,452.84,1446.1187,452.2519,1451.2678,454.5942,1448.9255,459.7434,1455.95,452.84" style="stroke:#181818;stroke-width:1.0;"/><text fill="#000000" font-family="sans-serif" font-size="13" lengthAdjust="spacing" textLength="75" x="1324" y="472.0669">repositories</text></g><!--link ViewTaskListAssignedCollabController to CollaboratorRepository--><g id="link_ViewTaskListAssignedCollabController_CollaboratorRepository"><path codeLine="105" d="M1036.24,570.2 C1087.73,470.78 1220.29,246.92 1408,161 C1690.73,31.59 2067.9921,184.9711 2216.5421,256.3611 " fill="none" id="ViewTaskListAssignedCollabController-to-CollaboratorRepository" style="stroke:#181818;stroke-width:1.0;stroke-dasharray:7.0,7.0;"/><polygon fill="#181818" points="2221.95,258.96,2215.5707,251.4563,2217.4434,256.7942,2212.1055,258.6669,2221.95,258.96" style="stroke:#181818;stroke-width:1.0;"/><text fill="#000000" font-family="sans-serif" font-size="13" lengthAdjust="spacing" textLength="143" x="1574.5" y="108.0669">collaboratorRepository</text></g><!--link ViewTaskListAssignedCollabController to EntryRepository--><g id="link_ViewTaskListAssignedCollabController_EntryRepository"><path codeLine="106" d="M1044.81,570.27 C1104.57,485.14 1241.56,312.11 1408,246 C1584.79,175.78 1668.84,155.21 1836,246 C1879.76,269.77 1855.43,312.57 1897,340 C1907.26,346.77 1912.6302,350.2132 1923.7202,355.7932 " fill="none" id="ViewTaskListAssignedCollabController-to-EntryRepository" style="stroke:#181818;stroke-width:1.0;stroke-dasharray:7.0,7.0;"/><polygon fill="#181818" points="1929.08,358.49,1922.8382,350.8716,1924.6135,356.2427,1919.2425,358.018,1929.08,358.49" style="stroke:#181818;stroke-width:1.0;"/><text fill="#000000" font-family="sans-serif" font-size="13" lengthAdjust="spacing" textLength="100" x="1596" y="182.0669">entryRepository</text></g><!--link ViewTaskListAssignedCollabController to EntryMapper--><g id="link_ViewTaskListAssignedCollabController_EntryMapper"><path codeLine="107" d="M1291.25,663.92 C1520.04,700.8 1834.1864,751.4253 2048.5464,785.9753 " fill="none" id="ViewTaskListAssignedCollabController-to-EntryMapper" style="stroke:#181818;stroke-width:1.0;stroke-dasharray:7.0,7.0;"/><polygon fill="#181818" points="2054.47,786.93,2046.2212,781.5489,2049.5337,786.1344,2044.9482,789.4469,2054.47,786.93" style="stroke:#181818;stroke-width:1.0;"/></g><!--link ViewTaskListAssignedCollabController to UserSession--><g id="link_ViewTaskListAssignedCollabController_UserSession"><path codeLine="108" d="M1143.27,667.63 C1220.03,695.67 1319.12,731 1408,760 C1623.51,830.31 1678.19,845.77 1897,905 C2000.13,932.92 2113.8285,960.3101 2192.5485,978.7701 " fill="none" id="ViewTaskListAssignedCollabController-to-UserSession" style="stroke:#181818;stroke-width:1.0;stroke-dasharray:7.0,7.0;"/><polygon fill="#181818" points="2198.39,980.14,2190.5409,974.1909,2193.5221,978.9985,2188.7145,981.9796,2198.39,980.14" style="stroke:#181818;stroke-width:1.0;"/></g><!--link ViewTaskListAssignedCollabController to ApplicationSession--><g id="link_ViewTaskListAssignedCollabController_ApplicationSession"><path codeLine="109" d="M1053.01,667.59 C1108.01,730.64 1212.24,840.1 1323,904 C1382.38,938.25 1448.9359,960.7794 1510.0059,976.7794 " fill="none" id="ViewTaskListAssignedCollabController-to-ApplicationSession" style="stroke:#181818;stroke-width:1.0;stroke-dasharray:7.0,7.0;"/><polygon fill="#181818" points="1515.81,978.3,1508.1176,972.1496,1510.9732,977.0328,1506.0901,979.8884,1515.81,978.3" style="stroke:#181818;stroke-width:1.0;"/></g><!--link ViewTaskListAssignedCollabController to EntryDto--><g id="link_ViewTaskListAssignedCollabController_EntryDto"><path codeLine="110" d="M1291.25,619 C1513.55,619 1816.03,619 2029.98,619 " fill="none" id="ViewTaskListAssignedCollabController-to-EntryDto" style="stroke:#181818;stroke-width:1.0;stroke-dasharray:7.0,7.0;"/><polygon fill="#181818" points="2035.98,619,2026.98,615,2030.98,619,2026.98,623,2035.98,619" style="stroke:#181818;stroke-width:1.0;"/></g><!--link EntryMapper to EntryDto--><g id="link_EntryMapper_EntryDto"><path codeLine="111" d="M2285.5,759.14 C2285.5,733.96 2285.5,714.78 2285.5,689.59 " fill="none" id="EntryMapper-to-EntryDto" style="stroke:#181818;stroke-width:1.0;stroke-dasharray:7.0,7.0;"/><polygon fill="#181818" points="2285.5,683.59,2281.5,692.59,2285.5,688.59,2289.5,692.59,2285.5,683.59" style="stroke:#181818;stroke-width:1.0;"/></g><!--link EntryMapper to Entry--><g id="link_EntryMapper_Entry"><path codeLine="112" d="M2516.51,781.79 C2578.97,763.33 2644.17,737.1 2698,700 C2789.54,636.91 2860.8131,538.343 2908.2431,459.983 " fill="none" id="EntryMapper-to-Entry" style="stroke:#181818;stroke-width:1.0;stroke-dasharray:7.0,7.0;"/><polygon fill="#181818" points="2911.35,454.85,2903.2677,460.4782,2908.7609,459.1275,2910.1116,464.6207,2911.35,454.85" style="stroke:#181818;stroke-width:1.0;"/></g><!--link EntryDto to Collaborator--><g id="link_EntryDto_Collaborator"><path codeLine="113" d="M2535.11,579.73 C2597.53,557.85 2658.05,523.84 2698,471 C2730.92,427.47 2679.53,267.47 2715,226 C2762.98,169.9 2847.0819,161.6501 2905.9219,163.1201 " fill="none" id="EntryDto-to-Collaborator" style="stroke:#181818;stroke-width:1.0;stroke-dasharray:7.0,7.0;"/><polygon fill="#181818" points="2911.92,163.27,2903.0227,159.0465,2906.9216,163.1451,2902.8229,167.044,2911.92,163.27" style="stroke:#181818;stroke-width:1.0;"/></g><!--link Repositories to CollaboratorRepository--><g id="link_Repositories_CollaboratorRepository"><path codeLine="114" d="M1836.29,350.25 C1856.77,347.03 1877.31,343.88 1897,341 C1963.11,331.32 2029.7581,322.4379 2094.0781,314.2479 " fill="none" id="Repositories-to-CollaboratorRepository" style="stroke:#181818;stroke-width:1.0;"/><polygon fill="#181818" points="2100.03,313.49,2090.5968,310.6588,2095.07,314.1216,2091.6073,318.5948,2100.03,313.49" style="stroke:#181818;stroke-width:1.0;"/><text fill="#000000" font-family="sans-serif" font-size="13" lengthAdjust="spacing" textLength="8" x="1843.8795" y="361.3765">1</text><text fill="#000000" font-family="sans-serif" font-size="13" lengthAdjust="spacing" textLength="8" x="2084.6288" y="326.7252">1</text></g><!--link Repositories to EntryRepository--><g id="link_Repositories_EntryRepository"><path codeLine="115" d="M1836.11,389.42 C1855.66,390.18 1869.9946,390.7458 1890.7346,391.5558 " fill="none" id="Repositories-to-EntryRepository" style="stroke:#181818;stroke-width:1.0;"/><polygon fill="#181818" points="1896.73,391.79,1887.893,387.4418,1891.7338,391.5949,1887.5808,395.4357,1896.73,391.79" style="stroke:#181818;stroke-width:1.0;"/><text fill="#000000" font-family="sans-serif" font-size="13" lengthAdjust="spacing" textLength="8" x="1844.299" y="402.1237">1</text><text fill="#000000" font-family="sans-serif" font-size="13" lengthAdjust="spacing" textLength="8" x="1880.7519" y="403.7027">1</text></g><!--link Repositories to Repositories--><g id="link_Repositories_Repositories"><path codeLine="116" d="M1605.05,308.81 C1607.21,289.04 1620.86,274 1646,274 C1671.14,274 1684.1383,283.0755 1686.2983,302.8455 " fill="none" id="Repositories-to-Repositories" style="stroke:#181818;stroke-width:1.0;"/><polygon fill="#181818" points="1686.95,308.81,1689.9488,299.4288,1686.4069,303.8396,1681.9962,300.2977,1686.95,308.81" style="stroke:#181818;stroke-width:1.0;"/><text fill="#000000" font-family="sans-serif" font-size="13" lengthAdjust="spacing" textLength="54" x="1619" y="265.0669">instance</text></g><!--link EntryRepository to Entry--><g id="link_EntryRepository_Entry"><path codeLine="117" d="M2674.32,374.02 C2696.21,372.16 2711.8617,370.8296 2732.8617,369.0396 " fill="none" id="EntryRepository-to-Entry" style="stroke:#181818;stroke-width:1.0;"/><polygon fill="#181818" points="2738.84,368.53,2729.5328,365.3088,2733.8581,368.9547,2730.2122,373.2799,2738.84,368.53" style="stroke:#181818;stroke-width:1.0;"/><text fill="#000000" font-family="sans-serif" font-size="13" lengthAdjust="spacing" textLength="8" x="2682.2992" y="385.5718">1</text><text fill="#000000" font-family="sans-serif" font-size="13" lengthAdjust="spacing" textLength="7" x="2724.1566" y="381.4865">*</text></g><!--link EntryRepository to EntryMapper--><g id="link_EntryRepository_EntryMapper"><path codeLine="118" d="M1983.34,455.55 C1935.46,477.74 1893.04,509.67 1866.5,555.5 C1838.21,604.34 1838.21,633.66 1866.5,682.5 C1905.51,749.85 1973.517,784.5638 2048.457,803.7238 " fill="none" id="EntryRepository-to-EntryMapper" style="stroke:#181818;stroke-width:1.0;stroke-dasharray:7.0,7.0;"/><polygon fill="#181818" points="2054.27,805.21,2046.5413,799.1053,2049.4258,803.9715,2044.5597,806.856,2054.27,805.21" style="stroke:#181818;stroke-width:1.0;"/></g><!--link CollaboratorRepository to Collaborator--><g id="link_CollaboratorRepository_Collaborator"><path codeLine="119" d="M2464.35,258.92 C2612.55,232.2 2808.6353,196.8352 2905.8053,179.3052 " fill="none" id="CollaboratorRepository-to-Collaborator" style="stroke:#181818;stroke-width:1.0;"/><polygon fill="#181818" points="2911.71,178.24,2902.1428,175.9014,2906.7894,179.1277,2903.5631,183.7743,2911.71,178.24" style="stroke:#181818;stroke-width:1.0;"/><text fill="#000000" font-family="sans-serif" font-size="13" lengthAdjust="spacing" textLength="8" x="2478.7527" y="250.9052">1</text><text fill="#000000" font-family="sans-serif" font-size="13" lengthAdjust="spacing" textLength="7" x="2896.8572" y="192.6144">*</text></g><!--link ApplicationSession to UserSession--><g id="link_ApplicationSession_UserSession"><path codeLine="120" d="M1776.01,1003.99 C1901.71,1003 2083.3102,1001.5769 2192.0302,1000.7269 " fill="none" id="ApplicationSession-to-UserSession" style="stroke:#181818;stroke-width:1.0;stroke-dasharray:7.0,7.0;"/><polygon fill="#181818" points="2198.03,1000.68,2188.999,996.7505,2193.0302,1000.7191,2189.0615,1004.7502,2198.03,1000.68" style="stroke:#181818;stroke-width:1.0;"/></g><!--SRC=[dLTRQzim57xthn3PYxErfNir8v3U8B1IMDEzA_P9BEf8Hb9Mif7_FadnHPBbI-g2krhV-NJkvqoy4rfYZlT8v3XZ7uJkq1ON0YBHdAG55c8f9IURWuHLokWh-GleDeeAs4ea6U9abqkK4Gwf98n6KOdJTxm3D7jRpT2NxQt-GVyYf1x3XkvPKU0DurWo_hQgZlJpJG2iiNWNyJn1VnZ9pCd94lrDu4CZVX8XXsZa6c-AYalgzugkSoRW0KiG2TBYFnwfvCS7oHRkPIVBWdl6mRV1l2o4Ob6A05Uup3oM9bsbbqAG7ONih7mhRGaP4tOWjNu4H2snPiyGRmaNKXkH8Fs-GW9KIBBsozmtpgN5XimSthDzMO24B8OAcw1QwWgbzQb3tRZ9rjEEmnDd-rTGbp2gO_YgBA2xHk9KkTXrOONlzz-oB0kIOfrT5TRprZMXGcAQAaMxsAw-1ywLoPQQRmAuZwwqRBMmG85WwTF7FIR5PBEVSLaEPOs9nHdatsS2fiEyPdN4z5znyzrEWiL8IaYclfr5gmIOjuaGk5TzhQuD9aw8o6KHEJiKMPr-kZ2SsoiAXrOHRHWh07lHJ2yaSV8t79Q7zSj8J1IL7n2LVTmgI_TmIoWHUT-f4fK7qScPohosijOvbat99auF7V19e8nrRRUoBjD45p6LwC5wRVxHO7z1oGHHr4U5tvZ7SzxPimrETJmFO2hSrhdbTBLlltVbJJhOWe_kXww43Wn9KTjQR1KxSDq3LXLKju1HS5XnBJhHf7f475tf8RkidXQUngrS80Q-rdV7SyC3_QuJU3wGci7hFNrxxgrcuTtH9b_HvGveXkF-XBv2bqtCHVTskvviwZZOOLvAFNfmqKid0FCqVsBS02e3WbJTrdaAJQTseB0CYk4gCvGX5tFOWXgAEiq3ZMYiKOtsmF4-Q10PY9GJuy7-UoIHnO2Qd-cPtRxfwtf9qxJpzgdXqRKPjjfVeOn8V74XsUXGY2dU3xZDAUBUf6isP6_tlhbP3ApcO-Y-dJWQsFO_nT6xV6isPm8bYDiDV399JpDDK7X-JIVsssI2l8bs8TLviPmkPA_8auK2o_XbMkeDrDw3nm-YPaNpmn4v0Pvzdw7hwuNvtJDmU_7-Y7M06kIbKhr2H7uG6zAlCrjx2-77goU_R2B7vi1_dVne_WS0]--></g></svg>