<?xml version="1.0" encoding="us-ascii" standalone="no"?><svg xmlns="http://www.w3.org/2000/svg" xmlns:xlink="http://www.w3.org/1999/xlink" contentStyleType="text/css" height="1858px" preserveAspectRatio="none" style="width:3738px;height:1858px;background:#FFFFFF;" version="1.1" viewBox="0 0 3738 1858" width="3738px" zoomAndPan="magnify"><defs/><g><line style="stroke:#181818;stroke-width:0.5;stroke-dasharray:5.0,5.0;" x1="49.5" x2="49.5" y1="81.2969" y2="1776.6328"/><rect fill="#FFFFFF" height="1687.3359" style="stroke:#181818;stroke-width:1.0;" width="10" x="44.5" y="89.2969"/><line style="stroke:#181818;stroke-width:0.5;stroke-dasharray:5.0,5.0;" x1="294.5" x2="294.5" y1="81.2969" y2="1776.6328"/><rect fill="#FFFFFF" height="1666.2031" style="stroke:#181818;stroke-width:1.0;" width="10" x="289.5" y="110.4297"/><rect fill="#FFFFFF" height="702.2188" style="stroke:#181818;stroke-width:1.0;" width="10" x="294.5" y="183.8594"/><line style="stroke:#181818;stroke-width:0.5;stroke-dasharray:5.0,5.0;" x1="561.5" x2="561.5" y1="81.2969" y2="1776.6328"/><rect fill="#FFFFFF" height="21.1328" style="stroke:#181818;stroke-width:1.0;" width="10" x="556.5" y="894.0781"/><rect fill="#FFFFFF" height="814.2891" style="stroke:#181818;stroke-width:1.0;" width="10" x="556.5" y="944.3438"/><line style="stroke:#181818;stroke-width:0.5;stroke-dasharray:5.0,5.0;" x1="929.5" x2="929.5" y1="118.4297" y2="1776.6328"/><rect fill="#FFFFFF" height="656.9531" style="stroke:#181818;stroke-width:1.0;" width="10" x="924.5" y="212.9922"/><rect fill="#FFFFFF" height="756.0234" style="stroke:#181818;stroke-width:1.0;" width="10" x="924.5" y="973.4766"/><rect fill="#FFFFFF" height="57.1016" style="stroke:#181818;stroke-width:1.0;" width="10" x="929.5" y="429.9219"/><rect fill="#FFFFFF" height="57.1016" style="stroke:#181818;stroke-width:1.0;" width="10" x="929.5" y="1015.6094"/><line style="stroke:#181818;stroke-width:0.5;stroke-dasharray:5.0,5.0;" x1="1249.5" x2="1249.5" y1="81.2969" y2="1776.6328"/><rect fill="#FFFFFF" height="29.1328" style="stroke:#181818;stroke-width:1.0;" width="10" x="1244.5" y="242.125"/><line style="stroke:#181818;stroke-width:0.5;stroke-dasharray:5.0,5.0;" x1="1363" x2="1363" y1="81.2969" y2="1776.6328"/><rect fill="#FFFFFF" height="29.1328" style="stroke:#181818;stroke-width:1.0;" width="10" x="1358" y="300.3906"/><rect fill="#FFFFFF" height="29.1328" style="stroke:#181818;stroke-width:1.0;" width="10" x="1358" y="358.6563"/><line style="stroke:#181818;stroke-width:0.5;stroke-dasharray:5.0,5.0;" x1="1500.5" x2="1500.5" y1="81.2969" y2="1776.6328"/><line style="stroke:#181818;stroke-width:0.5;stroke-dasharray:5.0,5.0;" x1="1638" x2="1638" y1="81.2969" y2="1776.6328"/><line style="stroke:#181818;stroke-width:0.5;stroke-dasharray:5.0,5.0;" x1="1866.5" x2="1866.5" y1="81.2969" y2="1776.6328"/><rect fill="#FFFFFF" height="29.1328" style="stroke:#181818;stroke-width:1.0;" width="10" x="1861.5" y="503.1563"/><rect fill="#FFFFFF" height="29.1328" style="stroke:#181818;stroke-width:1.0;" width="10" x="1861.5" y="1088.8438"/><line style="stroke:#181818;stroke-width:0.5;stroke-dasharray:5.0,5.0;" x1="2106" x2="2106" y1="81.2969" y2="1776.6328"/><rect fill="#FFFFFF" height="29.1328" style="stroke:#181818;stroke-width:1.0;" width="10" x="2101" y="561.4219"/><rect fill="#FFFFFF" height="389.7266" style="stroke:#181818;stroke-width:1.0;" width="10" x="2101" y="1310.6406"/><line style="stroke:#181818;stroke-width:0.5;stroke-dasharray:5.0,5.0;" x1="2410" x2="2410" y1="81.2969" y2="1776.6328"/><rect fill="#FFFFFF" height="237.2578" style="stroke:#181818;stroke-width:1.0;" width="10" x="2405" y="619.6875"/><rect fill="#FFFFFF" height="402.7266" style="stroke:#181818;stroke-width:1.0;" width="10" x="2405" y="1373.9063"/><rect fill="#FFFFFF" height="29.1328" style="stroke:#181818;stroke-width:1.0;" width="10" x="2410" y="753.3828"/><rect fill="#FFFFFF" height="114.3984" style="stroke:#181818;stroke-width:1.0;" width="10" x="2410" y="1569.8359"/><line style="stroke:#181818;stroke-width:0.5;stroke-dasharray:5.0,5.0;" x1="2844" x2="2844" y1="81.2969" y2="1776.6328"/><rect fill="#FFFFFF" height="13" style="stroke:#181818;stroke-width:1.0;" width="10" x="2839" y="1598.9688"/><rect fill="#FFFFFF" height="13" style="stroke:#181818;stroke-width:1.0;" width="10" x="2839" y="1628.1016"/><rect fill="#FFFFFF" height="13" style="stroke:#181818;stroke-width:1.0;" width="10" x="2839" y="1657.2344"/><line style="stroke:#181818;stroke-width:0.5;stroke-dasharray:5.0,5.0;" x1="2976" x2="2976" y1="81.2969" y2="1776.6328"/><rect fill="#FFFFFF" height="13" style="stroke:#181818;stroke-width:1.0;" width="10" x="2971" y="711.25"/><line style="stroke:#181818;stroke-width:0.5;stroke-dasharray:5.0,5.0;" x1="3207.5" x2="3207.5" y1="627.6875" y2="1776.6328"/><rect fill="#FFFFFF" height="13" style="stroke:#181818;stroke-width:1.0;" width="10" x="3202.5" y="813.8125"/><line style="stroke:#181818;stroke-width:0.5;stroke-dasharray:5.0,5.0;" x1="3424" x2="3424" y1="761.3828" y2="1776.6328"/><rect fill="#FFFFFF" height="168.5313" style="stroke:#181818;stroke-width:1.0;" width="10" x="3419" y="1147.1094"/><text fill="#000000" font-family="sans-serif" font-size="14" lengthAdjust="spacing" textLength="83" x="5" y="77.9951">Collaborator</text><ellipse cx="49.5" cy="13.5" fill="#E3E3E3" rx="8" ry="8" style="stroke:#181818;stroke-width:0.5;"/><path d="M49.5,21.5 L49.5,48.5 M36.5,29.5 L62.5,29.5 M49.5,48.5 L36.5,63.5 M49.5,48.5 L62.5,63.5 " fill="none" style="stroke:#181818;stroke-width:0.5;"/><rect fill="#E3E3E3" height="30.2969" rx="2.5" ry="2.5" style="stroke:#181818;stroke-width:0.5;" width="115" x="237" y="50"/><text fill="#000000" font-family="sans-serif" font-size="14" lengthAdjust="spacing" textLength="101" x="244" y="69.9951">:CollaboratorUI</text><rect fill="#E3E3E3" height="30.2969" rx="2.5" ry="2.5" style="stroke:#181818;stroke-width:0.5;" width="203" x="460" y="50"/><text fill="#000000" font-family="sans-serif" font-size="14" lengthAdjust="spacing" textLength="189" x="467" y="69.9951">:ViewTaskListCollaboratorUI</text><rect fill="#E3E3E3" height="30.2969" rx="2.5" ry="2.5" style="stroke:#181818;stroke-width:0.5;" width="101" x="1199" y="50"/><text fill="#000000" font-family="sans-serif" font-size="14" lengthAdjust="spacing" textLength="87" x="1206" y="69.9951">Repositories</text><rect fill="#E3E3E3" height="46.5938" rx="2.5" ry="2.5" style="stroke:#181818;stroke-width:0.5;" width="106" x="1310" y="33.7031"/><text fill="#000000" font-family="sans-serif" font-size="14" lengthAdjust="spacing" textLength="82" x="1322" y="53.6982">repositories</text><text fill="#000000" font-family="sans-serif" font-size="14" lengthAdjust="spacing" textLength="92" x="1317" y="69.9951">:Repositories</text><rect fill="#E3E3E3" height="30.2969" rx="2.5" ry="2.5" style="stroke:#181818;stroke-width:0.5;" width="149" x="1426" y="50"/><text fill="#000000" font-family="sans-serif" font-size="14" lengthAdjust="spacing" textLength="135" x="1433" y="69.9951">:ApplicationSession</text><rect fill="#E3E3E3" height="30.2969" rx="2.5" ry="2.5" style="stroke:#181818;stroke-width:0.5;" width="106" x="1585" y="50"/><text fill="#000000" font-family="sans-serif" font-size="14" lengthAdjust="spacing" textLength="92" x="1592" y="69.9951">:UserSession</text><rect fill="#E3E3E3" height="30.2969" rx="2.5" ry="2.5" style="stroke:#181818;stroke-width:0.5;" width="331" x="1701" y="50"/><text fill="#000000" font-family="sans-serif" font-size="14" lengthAdjust="spacing" textLength="317" x="1708" y="69.9951">collaboratorRepository:CollaboratorRepository</text><rect fill="#E3E3E3" height="30.2969" rx="2.5" ry="2.5" style="stroke:#181818;stroke-width:0.5;" width="128" x="2042" y="50"/><text fill="#000000" font-family="sans-serif" font-size="14" lengthAdjust="spacing" textLength="114" x="2049" y="69.9951">:EntryRepository</text><rect fill="#E3E3E3" height="30.2969" rx="2.5" ry="2.5" style="stroke:#181818;stroke-width:0.5;" width="106" x="2357" y="50"/><text fill="#000000" font-family="sans-serif" font-size="14" lengthAdjust="spacing" textLength="92" x="2364" y="69.9951">:EntryMapper</text><rect fill="#E3E3E3" height="30.2969" rx="2.5" ry="2.5" style="stroke:#181818;stroke-width:0.5;" width="89" x="2799.5" y="50"/><text fill="#000000" font-family="sans-serif" font-size="14" lengthAdjust="spacing" textLength="75" x="2806.5" y="69.9951">entry:Entry</text><rect fill="#E3E3E3" height="30.2969" rx="2.5" ry="2.5" style="stroke:#181818;stroke-width:0.5;" width="155" x="2898.5" y="50"/><text fill="#000000" font-family="sans-serif" font-size="14" lengthAdjust="spacing" textLength="141" x="2905.5" y="69.9951">entryList:list&lt;Entry&gt;</text><text fill="#000000" font-family="sans-serif" font-size="14" lengthAdjust="spacing" textLength="83" x="5" y="1849.6279">Collaborator</text><ellipse cx="49.5" cy="1785.1328" fill="#E3E3E3" rx="8" ry="8" style="stroke:#181818;stroke-width:0.5;"/><path d="M49.5,1793.1328 L49.5,1820.1328 M36.5,1801.1328 L62.5,1801.1328 M49.5,1820.1328 L36.5,1835.1328 M49.5,1820.1328 L62.5,1835.1328 " fill="none" style="stroke:#181818;stroke-width:0.5;"/><rect fill="#E3E3E3" height="30.2969" rx="2.5" ry="2.5" style="stroke:#181818;stroke-width:0.5;" width="115" x="237" y="1776.6328"/><text fill="#000000" font-family="sans-serif" font-size="14" lengthAdjust="spacing" textLength="101" x="244" y="1796.6279">:CollaboratorUI</text><rect fill="#E3E3E3" height="30.2969" rx="2.5" ry="2.5" style="stroke:#181818;stroke-width:0.5;" width="203" x="460" y="1776.6328"/><text fill="#000000" font-family="sans-serif" font-size="14" lengthAdjust="spacing" textLength="189" x="467" y="1796.6279">:ViewTaskListCollaboratorUI</text><rect fill="#E3E3E3" height="30.2969" rx="2.5" ry="2.5" style="stroke:#181818;stroke-width:0.5;" width="280" x="789.5" y="1776.6328"/><text fill="#000000" font-family="sans-serif" font-size="14" lengthAdjust="spacing" textLength="266" x="796.5" y="1796.6279">:ViewTaskListAssignedCollabController</text><rect fill="#E3E3E3" height="30.2969" rx="2.5" ry="2.5" style="stroke:#181818;stroke-width:0.5;" width="101" x="1199" y="1776.6328"/><text fill="#000000" font-family="sans-serif" font-size="14" lengthAdjust="spacing" textLength="87" x="1206" y="1796.6279">Repositories</text><rect fill="#E3E3E3" height="46.5938" rx="2.5" ry="2.5" style="stroke:#181818;stroke-width:0.5;" width="106" x="1310" y="1776.6328"/><text fill="#000000" font-family="sans-serif" font-size="14" lengthAdjust="spacing" textLength="82" x="1322" y="1796.6279">repositories</text><text fill="#000000" font-family="sans-serif" font-size="14" lengthAdjust="spacing" textLength="92" x="1317" y="1812.9248">:Repositories</text><rect fill="#E3E3E3" height="30.2969" rx="2.5" ry="2.5" style="stroke:#181818;stroke-width:0.5;" width="149" x="1426" y="1776.6328"/><text fill="#000000" font-family="sans-serif" font-size="14" lengthAdjust="spacing" textLength="135" x="1433" y="1796.6279">:ApplicationSession</text><rect fill="#E3E3E3" height="30.2969" rx="2.5" ry="2.5" style="stroke:#181818;stroke-width:0.5;" width="106" x="1585" y="1776.6328"/><text fill="#000000" font-family="sans-serif" font-size="14" lengthAdjust="spacing" textLength="92" x="1592" y="1796.6279">:UserSession</text><rect fill="#E3E3E3" height="30.2969" rx="2.5" ry="2.5" style="stroke:#181818;stroke-width:0.5;" width="331" x="1701" y="1776.6328"/><text fill="#000000" font-family="sans-serif" font-size="14" lengthAdjust="spacing" textLength="317" x="1708" y="1796.6279">collaboratorRepository:CollaboratorRepository</text><rect fill="#E3E3E3" height="30.2969" rx="2.5" ry="2.5" style="stroke:#181818;stroke-width:0.5;" width="128" x="2042" y="1776.6328"/><text fill="#000000" font-family="sans-serif" font-size="14" lengthAdjust="spacing" textLength="114" x="2049" y="1796.6279">:EntryRepository</text><rect fill="#E3E3E3" height="30.2969" rx="2.5" ry="2.5" style="stroke:#181818;stroke-width:0.5;" width="106" x="2357" y="1776.6328"/><text fill="#000000" font-family="sans-serif" font-size="14" lengthAdjust="spacing" textLength="92" x="2364" y="1796.6279">:EntryMapper</text><rect fill="#E3E3E3" height="30.2969" rx="2.5" ry="2.5" style="stroke:#181818;stroke-width:0.5;" width="89" x="2799.5" y="1776.6328"/><text fill="#000000" font-family="sans-serif" font-size="14" lengthAdjust="spacing" textLength="75" x="2806.5" y="1796.6279">entry:Entry</text><rect fill="#E3E3E3" height="30.2969" rx="2.5" ry="2.5" style="stroke:#181818;stroke-width:0.5;" width="155" x="2898.5" y="1776.6328"/><text fill="#000000" font-family="sans-serif" font-size="14" lengthAdjust="spacing" textLength="141" x="2905.5" y="1796.6279">entryList:list&lt;Entry&gt;</text><rect fill="#E3E3E3" height="30.2969" rx="2.5" ry="2.5" style="stroke:#181818;stroke-width:0.5;" width="288" x="3063.5" y="1776.6328"/><text fill="#000000" font-family="sans-serif" font-size="14" lengthAdjust="spacing" textLength="274" x="3070.5" y="1796.6279">entryCollaboratorListDto:list&lt;EntryDto&gt;</text><rect fill="#E3E3E3" height="30.2969" rx="2.5" ry="2.5" style="stroke:#181818;stroke-width:0.5;" width="125" x="3361.5" y="1776.6328"/><text fill="#000000" font-family="sans-serif" font-size="14" lengthAdjust="spacing" textLength="111" x="3368.5" y="1796.6279">objDto:EntryDto</text><polygon fill="#181818" points="277.5,106.4297,287.5,110.4297,277.5,114.4297,281.5,110.4297" style="stroke:#181818;stroke-width:1.0;"/><line style="stroke:#181818;stroke-width:1.0;" x1="54.5" x2="283.5" y1="110.4297" y2="110.4297"/><text fill="#000000" font-family="sans-serif" font-size="13" font-weight="bold" lengthAdjust="spacing" textLength="9" x="61.5" y="105.3638">1</text><text fill="#000000" font-family="sans-serif" font-size="13" lengthAdjust="spacing" textLength="203" x="74.5" y="105.3638">Selects start date and end date</text><rect fill="#E3E3E3" height="30.2969" rx="2.5" ry="2.5" style="stroke:#181818;stroke-width:0.5;" width="280" x="789.5" y="118.4297"/><text fill="#000000" font-family="sans-serif" font-size="14" lengthAdjust="spacing" textLength="266" x="796.5" y="138.4248">:ViewTaskListAssignedCollabController</text><polygon fill="#181818" points="777.5,135.5625,787.5,139.5625,777.5,143.5625,781.5,139.5625" style="stroke:#181818;stroke-width:1.0;"/><line style="stroke:#181818;stroke-width:1.0;" x1="299.5" x2="783.5" y1="139.5625" y2="139.5625"/><text fill="#000000" font-family="sans-serif" font-size="13" font-weight="bold" lengthAdjust="spacing" textLength="9" x="306.5" y="134.4966">2</text><text fill="#000000" font-family="sans-serif" font-size="13" lengthAdjust="spacing" textLength="51" x="319.5" y="134.4966">create()</text><line style="stroke:#181818;stroke-width:1.0;" x1="299.5" x2="346.5" y1="170.8594" y2="170.8594"/><line style="stroke:#181818;stroke-width:1.0;" x1="346.5" x2="346.5" y1="170.8594" y2="183.8594"/><line style="stroke:#181818;stroke-width:1.0;" x1="305.5" x2="346.5" y1="183.8594" y2="183.8594"/><polygon fill="#181818" points="315.5,179.8594,305.5,183.8594,315.5,187.8594,311.5,183.8594" style="stroke:#181818;stroke-width:1.0;"/><text fill="#000000" font-family="sans-serif" font-size="13" font-weight="bold" lengthAdjust="spacing" textLength="9" x="311.5" y="165.7935">3</text><text fill="#000000" font-family="sans-serif" font-size="13" lengthAdjust="spacing" textLength="69" x="324.5" y="165.7935">seeTasks()</text><polygon fill="#181818" points="912.5,208.9922,922.5,212.9922,912.5,216.9922,916.5,212.9922" style="stroke:#181818;stroke-width:1.0;"/><line style="stroke:#181818;stroke-width:1.0;" x1="304.5" x2="918.5" y1="212.9922" y2="212.9922"/><text fill="#000000" font-family="sans-serif" font-size="13" font-weight="bold" lengthAdjust="spacing" textLength="9" x="311.5" y="207.9263">4</text><text fill="#000000" font-family="sans-serif" font-size="13" lengthAdjust="spacing" textLength="447" x="324.5" y="207.9263">tasksInThoseDates = getEntriesAssignedToMe(firstDate, secondDate)</text><polygon fill="#181818" points="1232.5,238.125,1242.5,242.125,1232.5,246.125,1236.5,242.125" style="stroke:#181818;stroke-width:1.0;"/><line style="stroke:#181818;stroke-width:1.0;" x1="934.5" x2="1238.5" y1="242.125" y2="242.125"/><text fill="#000000" font-family="sans-serif" font-size="13" font-weight="bold" lengthAdjust="spacing" textLength="9" x="941.5" y="237.0591">5</text><text fill="#000000" font-family="sans-serif" font-size="13" lengthAdjust="spacing" textLength="85" x="954.5" y="237.0591">getInstance()</text><polygon fill="#181818" points="945.5,267.2578,935.5,271.2578,945.5,275.2578,941.5,271.2578" style="stroke:#181818;stroke-width:1.0;"/><line style="stroke:#181818;stroke-width:1.0;stroke-dasharray:2.0,2.0;" x1="939.5" x2="1243.5" y1="271.2578" y2="271.2578"/><text fill="#000000" font-family="sans-serif" font-size="13" font-weight="bold" lengthAdjust="spacing" textLength="9" x="951.5" y="266.1919">6</text><text fill="#000000" font-family="sans-serif" font-size="13" lengthAdjust="spacing" textLength="75" x="964.5" y="266.1919">repositories</text><polygon fill="#181818" points="1346,296.3906,1356,300.3906,1346,304.3906,1350,300.3906" style="stroke:#181818;stroke-width:1.0;"/><line style="stroke:#181818;stroke-width:1.0;" x1="934.5" x2="1352" y1="300.3906" y2="300.3906"/><text fill="#000000" font-family="sans-serif" font-size="13" font-weight="bold" lengthAdjust="spacing" textLength="9" x="941.5" y="295.3247">7</text><text fill="#000000" font-family="sans-serif" font-size="13" lengthAdjust="spacing" textLength="176" x="954.5" y="295.3247">getCollaboratorRepository()</text><polygon fill="#181818" points="945.5,325.5234,935.5,329.5234,945.5,333.5234,941.5,329.5234" style="stroke:#181818;stroke-width:1.0;"/><line style="stroke:#181818;stroke-width:1.0;stroke-dasharray:2.0,2.0;" x1="939.5" x2="1357" y1="329.5234" y2="329.5234"/><text fill="#000000" font-family="sans-serif" font-size="13" font-weight="bold" lengthAdjust="spacing" textLength="9" x="951.5" y="324.4575">8</text><text fill="#000000" font-family="sans-serif" font-size="13" lengthAdjust="spacing" textLength="143" x="964.5" y="324.4575">collaboratorRepository</text><polygon fill="#181818" points="1346,354.6563,1356,358.6563,1346,362.6563,1350,358.6563" style="stroke:#181818;stroke-width:1.0;"/><line style="stroke:#181818;stroke-width:1.0;" x1="934.5" x2="1352" y1="358.6563" y2="358.6563"/><text fill="#000000" font-family="sans-serif" font-size="13" font-weight="bold" lengthAdjust="spacing" textLength="9" x="941.5" y="353.5903">9</text><text fill="#000000" font-family="sans-serif" font-size="13" lengthAdjust="spacing" textLength="131" x="954.5" y="353.5903">getEntryRepository()</text><polygon fill="#181818" points="945.5,383.7891,935.5,387.7891,945.5,391.7891,941.5,387.7891" style="stroke:#181818;stroke-width:1.0;"/><line style="stroke:#181818;stroke-width:1.0;stroke-dasharray:2.0,2.0;" x1="939.5" x2="1357" y1="387.7891" y2="387.7891"/><text fill="#000000" font-family="sans-serif" font-size="13" font-weight="bold" lengthAdjust="spacing" textLength="18" x="951.5" y="382.7231">10</text><text fill="#000000" font-family="sans-serif" font-size="13" lengthAdjust="spacing" textLength="100" x="973.5" y="382.7231">entryRepository</text><line style="stroke:#181818;stroke-width:1.0;" x1="934.5" x2="981.5" y1="416.9219" y2="416.9219"/><line style="stroke:#181818;stroke-width:1.0;" x1="981.5" x2="981.5" y1="416.9219" y2="429.9219"/><line style="stroke:#181818;stroke-width:1.0;" x1="940.5" x2="981.5" y1="429.9219" y2="429.9219"/><polygon fill="#181818" points="950.5,425.9219,940.5,429.9219,950.5,433.9219,946.5,429.9219" style="stroke:#181818;stroke-width:1.0;"/><text fill="#000000" font-family="sans-serif" font-size="13" font-weight="bold" lengthAdjust="spacing" textLength="18" x="946.5" y="411.856">11</text><text fill="#000000" font-family="sans-serif" font-size="13" lengthAdjust="spacing" textLength="274" x="968.5" y="411.856">userEmail = getCollaboratorFromSession()</text><rect fill="none" height="39.1016" style="stroke:#000000;stroke-width:1.5;" width="314" x="791.5" y="437.9219"/><path d="M791.5,437.9219 L857.5,437.9219 L857.5,444.9219 L847.5,454.9219 L791.5,454.9219 L791.5,437.9219 " fill="#EEEEEE" style="stroke:#000000;stroke-width:2.0;"/><text fill="#000000" font-family="sans-serif" font-size="13" font-weight="bold" lengthAdjust="spacing" textLength="21" x="804.5" y="451.9888">ref</text><text fill="#000000" font-family="sans-serif" font-size="12" lengthAdjust="spacing" textLength="306" x="795.5" y="470.0605">Get Email of the User Currently Using the System</text><polygon fill="#181818" points="1849.5,499.1563,1859.5,503.1563,1849.5,507.1563,1853.5,503.1563" style="stroke:#181818;stroke-width:1.0;"/><line style="stroke:#181818;stroke-width:1.0;" x1="934.5" x2="1855.5" y1="503.1563" y2="503.1563"/><text fill="#000000" font-family="sans-serif" font-size="13" font-weight="bold" lengthAdjust="spacing" textLength="18" x="941.5" y="498.0903">12</text><text fill="#000000" font-family="sans-serif" font-size="13" lengthAdjust="spacing" textLength="223" x="963.5" y="498.0903">getCollaboratorByEmail(userEmail)</text><polygon fill="#181818" points="945.5,528.2891,935.5,532.2891,945.5,536.2891,941.5,532.2891" style="stroke:#181818;stroke-width:1.0;"/><line style="stroke:#181818;stroke-width:1.0;" x1="939.5" x2="1860.5" y1="532.2891" y2="532.2891"/><text fill="#000000" font-family="sans-serif" font-size="13" font-weight="bold" lengthAdjust="spacing" textLength="18" x="951.5" y="527.2231">13</text><text fill="#000000" font-family="sans-serif" font-size="13" lengthAdjust="spacing" textLength="76" x="973.5" y="527.2231">collaborator</text><polygon fill="#181818" points="2089,557.4219,2099,561.4219,2089,565.4219,2093,561.4219" style="stroke:#181818;stroke-width:1.0;"/><line style="stroke:#181818;stroke-width:1.0;" x1="934.5" x2="2095" y1="561.4219" y2="561.4219"/><text fill="#000000" font-family="sans-serif" font-size="13" font-weight="bold" lengthAdjust="spacing" textLength="18" x="941.5" y="556.356">14</text><text fill="#000000" font-family="sans-serif" font-size="13" lengthAdjust="spacing" textLength="453" x="963.5" y="556.356">getEntriesByCollaboratorInAgenda(collaborator, firstDate, secondDate)</text><polygon fill="#181818" points="945.5,586.5547,935.5,590.5547,945.5,594.5547,941.5,590.5547" style="stroke:#181818;stroke-width:1.0;"/><line style="stroke:#181818;stroke-width:1.0;" x1="939.5" x2="2100" y1="590.5547" y2="590.5547"/><text fill="#000000" font-family="sans-serif" font-size="13" font-weight="bold" lengthAdjust="spacing" textLength="18" x="951.5" y="585.4888">15</text><text fill="#000000" font-family="sans-serif" font-size="13" lengthAdjust="spacing" textLength="133" x="973.5" y="585.4888">entryCollaboratorList</text><polygon fill="#181818" points="2393,615.6875,2403,619.6875,2393,623.6875,2397,619.6875" style="stroke:#181818;stroke-width:1.0;"/><line style="stroke:#181818;stroke-width:1.0;" x1="934.5" x2="2399" y1="619.6875" y2="619.6875"/><text fill="#000000" font-family="sans-serif" font-size="13" font-weight="bold" lengthAdjust="spacing" textLength="18" x="941.5" y="614.6216">16</text><text fill="#000000" font-family="sans-serif" font-size="13" lengthAdjust="spacing" textLength="291" x="963.5" y="614.6216">entryListToEntryDtoList(entryCollaboratorList)</text><rect fill="#E3E3E3" height="30.2969" rx="2.5" ry="2.5" style="stroke:#181818;stroke-width:0.5;" width="288" x="3063.5" y="627.6875"/><text fill="#000000" font-family="sans-serif" font-size="14" lengthAdjust="spacing" textLength="274" x="3070.5" y="647.6826">entryCollaboratorListDto:list&lt;EntryDto&gt;</text><polygon fill="#181818" points="3051.5,644.8203,3061.5,648.8203,3051.5,652.8203,3055.5,648.8203" style="stroke:#181818;stroke-width:1.0;"/><line style="stroke:#181818;stroke-width:1.0;" x1="2415" x2="3057.5" y1="648.8203" y2="648.8203"/><text fill="#000000" font-family="sans-serif" font-size="13" font-weight="bold" lengthAdjust="spacing" textLength="18" x="2422" y="643.7544">17</text><text fill="#000000" font-family="sans-serif" font-size="13" lengthAdjust="spacing" textLength="51" x="2444" y="643.7544">create()</text><path d="M2341,662.9844 L2418,662.9844 L2418,670.1172 L2408,680.1172 L2341,680.1172 L2341,662.9844 " fill="#EEEEEE" style="stroke:#000000;stroke-width:1.5;"/><rect fill="none" height="158.8281" style="stroke:#000000;stroke-width:1.5;" width="1161.5" x="2341" y="662.9844"/><text fill="#000000" font-family="sans-serif" font-size="13" font-weight="bold" lengthAdjust="spacing" textLength="32" x="2356" y="676.0513">loop</text><text fill="#000000" font-family="sans-serif" font-size="11" font-weight="bold" lengthAdjust="spacing" textLength="183" x="2433" y="675.1948">[for each object in EntryList]</text><polygon fill="#181818" points="2959,707.25,2969,711.25,2959,715.25,2963,711.25" style="stroke:#181818;stroke-width:1.0;"/><line style="stroke:#181818;stroke-width:1.0;" x1="2415" x2="2965" y1="711.25" y2="711.25"/><text fill="#000000" font-family="sans-serif" font-size="13" font-weight="bold" lengthAdjust="spacing" textLength="18" x="2422" y="706.1841">18</text><text fill="#000000" font-family="sans-serif" font-size="13" lengthAdjust="spacing" textLength="69" x="2444" y="706.1841">obj = get()</text><line style="stroke:#181818;stroke-width:1.0;" x1="2415" x2="2462" y1="740.3828" y2="740.3828"/><line style="stroke:#181818;stroke-width:1.0;" x1="2462" x2="2462" y1="740.3828" y2="753.3828"/><line style="stroke:#181818;stroke-width:1.0;" x1="2421" x2="2462" y1="753.3828" y2="753.3828"/><polygon fill="#181818" points="2431,749.3828,2421,753.3828,2431,757.3828,2427,753.3828" style="stroke:#181818;stroke-width:1.0;"/><text fill="#000000" font-family="sans-serif" font-size="13" font-weight="bold" lengthAdjust="spacing" textLength="18" x="2427" y="735.3169">19</text><text fill="#000000" font-family="sans-serif" font-size="13" lengthAdjust="spacing" textLength="126" x="2449" y="735.3169">objDto = toDto(obj)</text><rect fill="#E3E3E3" height="30.2969" rx="2.5" ry="2.5" style="stroke:#181818;stroke-width:0.5;" width="125" x="3361.5" y="761.3828"/><text fill="#000000" font-family="sans-serif" font-size="14" lengthAdjust="spacing" textLength="111" x="3368.5" y="781.3779">objDto:EntryDto</text><polygon fill="#181818" points="3349.5,778.5156,3359.5,782.5156,3349.5,786.5156,3353.5,782.5156" style="stroke:#181818;stroke-width:1.0;"/><line style="stroke:#181818;stroke-width:1.0;" x1="2420" x2="3355.5" y1="782.5156" y2="782.5156"/><text fill="#000000" font-family="sans-serif" font-size="13" font-weight="bold" lengthAdjust="spacing" textLength="18" x="2427" y="777.4497">20</text><text fill="#000000" font-family="sans-serif" font-size="13" lengthAdjust="spacing" textLength="143" x="2449" y="777.4497">create(objAllAtributes)</text><polygon fill="#181818" points="3190.5,809.8125,3200.5,813.8125,3190.5,817.8125,3194.5,813.8125" style="stroke:#181818;stroke-width:1.0;"/><line style="stroke:#181818;stroke-width:1.0;" x1="2415" x2="3196.5" y1="813.8125" y2="813.8125"/><text fill="#000000" font-family="sans-serif" font-size="13" font-weight="bold" lengthAdjust="spacing" textLength="18" x="2422" y="808.7466">21</text><text fill="#000000" font-family="sans-serif" font-size="13" lengthAdjust="spacing" textLength="76" x="2444" y="808.7466">add(objDto)</text><polygon fill="#181818" points="945.5,852.9453,935.5,856.9453,945.5,860.9453,941.5,856.9453" style="stroke:#181818;stroke-width:1.0;"/><line style="stroke:#181818;stroke-width:1.0;" x1="939.5" x2="2404" y1="856.9453" y2="856.9453"/><text fill="#000000" font-family="sans-serif" font-size="13" font-weight="bold" lengthAdjust="spacing" textLength="18" x="951.5" y="851.8794">22</text><text fill="#000000" font-family="sans-serif" font-size="13" lengthAdjust="spacing" textLength="156" x="973.5" y="851.8794">entryCollaboratorListDto</text><polygon fill="#181818" points="549.5,882.0781,559.5,886.0781,549.5,890.0781,553.5,886.0781" style="stroke:#181818;stroke-width:1.0;"/><line style="stroke:#181818;stroke-width:1.0;" x1="304.5" x2="555.5" y1="886.0781" y2="886.0781"/><text fill="#000000" font-family="sans-serif" font-size="13" font-weight="bold" lengthAdjust="spacing" textLength="18" x="311.5" y="881.0122">23</text><text fill="#000000" font-family="sans-serif" font-size="13" lengthAdjust="spacing" textLength="221" x="333.5" y="881.0122">setTableTasks(tasksInThoseDates)</text><polygon fill="#181818" points="65.5,911.2109,55.5,915.2109,65.5,919.2109,61.5,915.2109" style="stroke:#181818;stroke-width:1.0;"/><line style="stroke:#181818;stroke-width:1.0;" x1="59.5" x2="555.5" y1="915.2109" y2="915.2109"/><text fill="#000000" font-family="sans-serif" font-size="13" font-weight="bold" lengthAdjust="spacing" textLength="18" x="71.5" y="910.145">24</text><text fill="#000000" font-family="sans-serif" font-size="13" lengthAdjust="spacing" textLength="188" x="93.5" y="910.145">Shows Entries in Those Dates</text><polygon fill="#181818" points="544.5,940.3438,554.5,944.3438,544.5,948.3438,548.5,944.3438" style="stroke:#181818;stroke-width:1.0;"/><line style="stroke:#181818;stroke-width:1.0;" x1="54.5" x2="550.5" y1="944.3438" y2="944.3438"/><text fill="#000000" font-family="sans-serif" font-size="13" font-weight="bold" lengthAdjust="spacing" textLength="18" x="61.5" y="939.2778">25</text><text fill="#000000" font-family="sans-serif" font-size="13" lengthAdjust="spacing" textLength="217" x="83.5" y="939.2778">Selects an Entry and Completes it</text><polygon fill="#181818" points="912.5,969.4766,922.5,973.4766,912.5,977.4766,916.5,973.4766" style="stroke:#181818;stroke-width:1.0;"/><line style="stroke:#181818;stroke-width:1.0;" x1="566.5" x2="918.5" y1="973.4766" y2="973.4766"/><text fill="#000000" font-family="sans-serif" font-size="13" font-weight="bold" lengthAdjust="spacing" textLength="18" x="573.5" y="968.4106">26</text><text fill="#000000" font-family="sans-serif" font-size="13" lengthAdjust="spacing" textLength="317" x="595.5" y="968.4106">assignEntryCompleted(entryDto, completedDate)</text><line style="stroke:#181818;stroke-width:1.0;" x1="934.5" x2="981.5" y1="1002.6094" y2="1002.6094"/><line style="stroke:#181818;stroke-width:1.0;" x1="981.5" x2="981.5" y1="1002.6094" y2="1015.6094"/><line style="stroke:#181818;stroke-width:1.0;" x1="940.5" x2="981.5" y1="1015.6094" y2="1015.6094"/><polygon fill="#181818" points="950.5,1011.6094,940.5,1015.6094,950.5,1019.6094,946.5,1015.6094" style="stroke:#181818;stroke-width:1.0;"/><text fill="#000000" font-family="sans-serif" font-size="13" font-weight="bold" lengthAdjust="spacing" textLength="18" x="946.5" y="997.5435">27</text><text fill="#000000" font-family="sans-serif" font-size="13" lengthAdjust="spacing" textLength="274" x="968.5" y="997.5435">userEmail = getCollaboratorFromSession()</text><rect fill="none" height="39.1016" style="stroke:#000000;stroke-width:1.5;" width="314" x="791.5" y="1023.6094"/><path d="M791.5,1023.6094 L857.5,1023.6094 L857.5,1030.6094 L847.5,1040.6094 L791.5,1040.6094 L791.5,1023.6094 " fill="#EEEEEE" style="stroke:#000000;stroke-width:2.0;"/><text fill="#000000" font-family="sans-serif" font-size="13" font-weight="bold" lengthAdjust="spacing" textLength="21" x="804.5" y="1037.6763">ref</text><text fill="#000000" font-family="sans-serif" font-size="12" lengthAdjust="spacing" textLength="306" x="795.5" y="1055.748">Get Email of the User Currently Using the System</text><polygon fill="#181818" points="1849.5,1084.8438,1859.5,1088.8438,1849.5,1092.8438,1853.5,1088.8438" style="stroke:#181818;stroke-width:1.0;"/><line style="stroke:#181818;stroke-width:1.0;" x1="934.5" x2="1855.5" y1="1088.8438" y2="1088.8438"/><text fill="#000000" font-family="sans-serif" font-size="13" font-weight="bold" lengthAdjust="spacing" textLength="18" x="941.5" y="1083.7778">28</text><text fill="#000000" font-family="sans-serif" font-size="13" lengthAdjust="spacing" textLength="223" x="963.5" y="1083.7778">getCollaboratorByEmail(userEmail)</text><polygon fill="#181818" points="945.5,1113.9766,935.5,1117.9766,945.5,1121.9766,941.5,1117.9766" style="stroke:#181818;stroke-width:1.0;"/><line style="stroke:#181818;stroke-width:1.0;" x1="939.5" x2="1860.5" y1="1117.9766" y2="1117.9766"/><text fill="#000000" font-family="sans-serif" font-size="13" font-weight="bold" lengthAdjust="spacing" textLength="18" x="951.5" y="1112.9106">29</text><text fill="#000000" font-family="sans-serif" font-size="13" lengthAdjust="spacing" textLength="76" x="973.5" y="1112.9106">collaborator</text><polygon fill="#181818" points="3407,1143.1094,3417,1147.1094,3407,1151.1094,3411,1147.1094" style="stroke:#181818;stroke-width:1.0;"/><line style="stroke:#181818;stroke-width:1.0;" x1="934.5" x2="3413" y1="1147.1094" y2="1147.1094"/><text fill="#000000" font-family="sans-serif" font-size="13" font-weight="bold" lengthAdjust="spacing" textLength="18" x="941.5" y="1142.0435">30</text><text fill="#000000" font-family="sans-serif" font-size="13" lengthAdjust="spacing" textLength="282" x="963.5" y="1142.0435">completeTask(completedDate, collaborator)</text><line style="stroke:#181818;stroke-width:1.0;" x1="3429" x2="3471" y1="1176.2422" y2="1176.2422"/><line style="stroke:#181818;stroke-width:1.0;" x1="3471" x2="3471" y1="1176.2422" y2="1189.2422"/><line style="stroke:#181818;stroke-width:1.0;" x1="3430" x2="3471" y1="1189.2422" y2="1189.2422"/><polygon fill="#181818" points="3440,1185.2422,3430,1189.2422,3440,1193.2422,3436,1189.2422" style="stroke:#181818;stroke-width:1.0;"/><text fill="#000000" font-family="sans-serif" font-size="13" font-weight="bold" lengthAdjust="spacing" textLength="18" x="3436" y="1171.1763">31</text><text fill="#000000" font-family="sans-serif" font-size="13" lengthAdjust="spacing" textLength="186" x="3458" y="1171.1763">finishDate = completedDate;</text><line style="stroke:#181818;stroke-width:1.0;" x1="3429" x2="3471" y1="1218.375" y2="1218.375"/><line style="stroke:#181818;stroke-width:1.0;" x1="3471" x2="3471" y1="1218.375" y2="1231.375"/><line style="stroke:#181818;stroke-width:1.0;" x1="3430" x2="3471" y1="1231.375" y2="1231.375"/><polygon fill="#181818" points="3440,1227.375,3430,1231.375,3440,1235.375,3436,1231.375" style="stroke:#181818;stroke-width:1.0;"/><text fill="#000000" font-family="sans-serif" font-size="13" font-weight="bold" lengthAdjust="spacing" textLength="18" x="3436" y="1213.3091">32</text><text fill="#000000" font-family="sans-serif" font-size="13" lengthAdjust="spacing" textLength="273" x="3458" y="1213.3091">collaboratorThatCompleted = collaborator;</text><line style="stroke:#181818;stroke-width:1.0;" x1="3429" x2="3471" y1="1260.5078" y2="1260.5078"/><line style="stroke:#181818;stroke-width:1.0;" x1="3471" x2="3471" y1="1260.5078" y2="1273.5078"/><line style="stroke:#181818;stroke-width:1.0;" x1="3430" x2="3471" y1="1273.5078" y2="1273.5078"/><polygon fill="#181818" points="3440,1269.5078,3430,1273.5078,3440,1277.5078,3436,1273.5078" style="stroke:#181818;stroke-width:1.0;"/><text fill="#000000" font-family="sans-serif" font-size="13" font-weight="bold" lengthAdjust="spacing" textLength="18" x="3436" y="1255.4419">33</text><text fill="#000000" font-family="sans-serif" font-size="13" lengthAdjust="spacing" textLength="138" x="3458" y="1255.4419">status.isCompleted();</text><polygon fill="#181818" points="2094,1298.6406,2104,1302.6406,2094,1306.6406,2098,1302.6406" style="stroke:#181818;stroke-width:1.0;"/><line style="stroke:#181818;stroke-width:1.0;" x1="934.5" x2="2100" y1="1302.6406" y2="1302.6406"/><text fill="#000000" font-family="sans-serif" font-size="13" font-weight="bold" lengthAdjust="spacing" textLength="18" x="941.5" y="1297.5747">34</text><text fill="#000000" font-family="sans-serif" font-size="13" lengthAdjust="spacing" textLength="233" x="963.5" y="1297.5747">completeTaskCollaborator(entryDto)</text><line style="stroke:#181818;stroke-width:1.0;" x1="2111" x2="2153" y1="1331.7734" y2="1331.7734"/><line style="stroke:#181818;stroke-width:1.0;" x1="2153" x2="2153" y1="1331.7734" y2="1344.7734"/><line style="stroke:#181818;stroke-width:1.0;" x1="2112" x2="2153" y1="1344.7734" y2="1344.7734"/><polygon fill="#181818" points="2122,1340.7734,2112,1344.7734,2122,1348.7734,2118,1344.7734" style="stroke:#181818;stroke-width:1.0;"/><text fill="#000000" font-family="sans-serif" font-size="13" font-weight="bold" lengthAdjust="spacing" textLength="18" x="2118" y="1326.7075">35</text><text fill="#000000" font-family="sans-serif" font-size="13" lengthAdjust="spacing" textLength="263" x="2140" y="1326.7075">entry = searchForEntryAgenda(entryDto)</text><polygon fill="#181818" points="2393,1369.9063,2403,1373.9063,2393,1377.9063,2397,1373.9063" style="stroke:#181818;stroke-width:1.0;"/><line style="stroke:#181818;stroke-width:1.0;" x1="2111" x2="2399" y1="1373.9063" y2="1373.9063"/><text fill="#000000" font-family="sans-serif" font-size="13" font-weight="bold" lengthAdjust="spacing" textLength="18" x="2118" y="1368.8403">36</text><text fill="#000000" font-family="sans-serif" font-size="13" lengthAdjust="spacing" textLength="211" x="2140" y="1368.8403">entryDtoToEntry(entryDto, entry)</text><line style="stroke:#181818;stroke-width:1.0;" x1="2415" x2="2457" y1="1403.0391" y2="1403.0391"/><line style="stroke:#181818;stroke-width:1.0;" x1="2457" x2="2457" y1="1403.0391" y2="1416.0391"/><line style="stroke:#181818;stroke-width:1.0;" x1="2416" x2="2457" y1="1416.0391" y2="1416.0391"/><polygon fill="#181818" points="2426,1412.0391,2416,1416.0391,2426,1420.0391,2422,1416.0391" style="stroke:#181818;stroke-width:1.0;"/><text fill="#000000" font-family="sans-serif" font-size="13" font-weight="bold" lengthAdjust="spacing" textLength="18" x="2422" y="1397.9731">37</text><text fill="#000000" font-family="sans-serif" font-size="13" lengthAdjust="spacing" textLength="388" x="2444" y="1397.9731">shouldCompleteTask = shouldCompleteTask(entry,entryDto)</text><path d="M2420,1429.0391 L2420,1499.0391 L2932,1499.0391 L2932,1439.0391 L2922,1429.0391 L2420,1429.0391 " fill="#FAFAFA" style="stroke:#181818;stroke-width:0.5;"/><path d="M2922,1429.0391 L2922,1439.0391 L2932,1439.0391 L2922,1429.0391 " fill="#FAFAFA" style="stroke:#181818;stroke-width:0.5;"/><text fill="#000000" font-family="sans-serif" font-size="13" lengthAdjust="spacing" textLength="491" x="2426" y="1446.106">"shouldCompleteTask" to verify if the entryDto contains a non-null finishDate,</text><text fill="#000000" font-family="sans-serif" font-size="13" lengthAdjust="spacing" textLength="425" x="2426" y="1461.2388">which means that this entry has been marked as complete and we</text><text fill="#000000" font-family="sans-serif" font-size="13" lengthAdjust="spacing" textLength="342" x="2426" y="1476.3716">need to update the domain entry to reflect that it has</text><text fill="#000000" font-family="sans-serif" font-size="13" lengthAdjust="spacing" textLength="172" x="2426" y="1491.5044">been marked as complete.</text><path d="M2341,1508.5703 L2405,1508.5703 L2405,1515.7031 L2395,1525.7031 L2341,1525.7031 L2341,1508.5703 " fill="#EEEEEE" style="stroke:#000000;stroke-width:1.5;"/><rect fill="none" height="156.6641" style="stroke:#000000;stroke-width:1.5;" width="563.5" x="2341" y="1508.5703"/><text fill="#000000" font-family="sans-serif" font-size="13" font-weight="bold" lengthAdjust="spacing" textLength="19" x="2356" y="1521.6372">alt</text><text fill="#000000" font-family="sans-serif" font-size="11" font-weight="bold" lengthAdjust="spacing" textLength="189" x="2420" y="1520.7808">[shouldCompleteTask is true]</text><line style="stroke:#181818;stroke-width:1.0;" x1="2415" x2="2462" y1="1556.8359" y2="1556.8359"/><line style="stroke:#181818;stroke-width:1.0;" x1="2462" x2="2462" y1="1556.8359" y2="1569.8359"/><line style="stroke:#181818;stroke-width:1.0;" x1="2421" x2="2462" y1="1569.8359" y2="1569.8359"/><polygon fill="#181818" points="2431,1565.8359,2421,1569.8359,2431,1573.8359,2427,1569.8359" style="stroke:#181818;stroke-width:1.0;"/><text fill="#000000" font-family="sans-serif" font-size="13" font-weight="bold" lengthAdjust="spacing" textLength="18" x="2427" y="1551.77">38</text><text fill="#000000" font-family="sans-serif" font-size="13" lengthAdjust="spacing" textLength="196" x="2449" y="1551.77">completeTask(entry, entryDto)</text><polygon fill="#181818" points="2827,1594.9688,2837,1598.9688,2827,1602.9688,2831,1598.9688" style="stroke:#181818;stroke-width:1.0;"/><line style="stroke:#181818;stroke-width:1.0;" x1="2420" x2="2833" y1="1598.9688" y2="1598.9688"/><text fill="#000000" font-family="sans-serif" font-size="13" font-weight="bold" lengthAdjust="spacing" textLength="18" x="2427" y="1593.9028">39</text><text fill="#000000" font-family="sans-serif" font-size="13" lengthAdjust="spacing" textLength="181" x="2449" y="1593.9028">finishDate = getFinishDate()</text><polygon fill="#181818" points="2827,1624.1016,2837,1628.1016,2827,1632.1016,2831,1628.1016" style="stroke:#181818;stroke-width:1.0;"/><line style="stroke:#181818;stroke-width:1.0;" x1="2420" x2="2833" y1="1628.1016" y2="1628.1016"/><text fill="#000000" font-family="sans-serif" font-size="13" font-weight="bold" lengthAdjust="spacing" textLength="18" x="2427" y="1623.0356">40</text><text fill="#000000" font-family="sans-serif" font-size="13" lengthAdjust="spacing" textLength="240" x="2449" y="1623.0356">collaborator = getCollaboratorFinish()</text><polygon fill="#181818" points="2827,1653.2344,2837,1657.2344,2827,1661.2344,2831,1657.2344" style="stroke:#181818;stroke-width:1.0;"/><line style="stroke:#181818;stroke-width:1.0;" x1="2420" x2="2833" y1="1657.2344" y2="1657.2344"/><text fill="#000000" font-family="sans-serif" font-size="13" font-weight="bold" lengthAdjust="spacing" textLength="18" x="2427" y="1652.1685">41</text><text fill="#000000" font-family="sans-serif" font-size="13" lengthAdjust="spacing" textLength="247" x="2449" y="1652.1685">completeTask(finishDate, collaborator)</text><polygon fill="#181818" points="945.5,1696.3672,935.5,1700.3672,945.5,1704.3672,941.5,1700.3672" style="stroke:#181818;stroke-width:1.0;"/><line style="stroke:#181818;stroke-width:1.0;" x1="939.5" x2="2100" y1="1700.3672" y2="1700.3672"/><text fill="#000000" font-family="sans-serif" font-size="13" font-weight="bold" lengthAdjust="spacing" textLength="18" x="951.5" y="1695.3013">42</text><text fill="#000000" font-family="sans-serif" font-size="13" lengthAdjust="spacing" textLength="108" x="973.5" y="1695.3013">Optional&lt;Entry&gt;</text><polygon fill="#181818" points="577.5,1725.5,567.5,1729.5,577.5,1733.5,573.5,1729.5" style="stroke:#181818;stroke-width:1.0;"/><line style="stroke:#181818;stroke-width:1.0;" x1="571.5" x2="923.5" y1="1729.5" y2="1729.5"/><text fill="#000000" font-family="sans-serif" font-size="13" font-weight="bold" lengthAdjust="spacing" textLength="18" x="583.5" y="1724.4341">43</text><text fill="#000000" font-family="sans-serif" font-size="13" lengthAdjust="spacing" textLength="26" x="605.5" y="1724.4341">true</text><polygon fill="#181818" points="65.5,1754.6328,55.5,1758.6328,65.5,1762.6328,61.5,1758.6328" style="stroke:#181818;stroke-width:1.0;"/><line style="stroke:#181818;stroke-width:1.0;" x1="59.5" x2="555.5" y1="1758.6328" y2="1758.6328"/><text fill="#000000" font-family="sans-serif" font-size="13" font-weight="bold" lengthAdjust="spacing" textLength="18" x="71.5" y="1753.5669">44</text><text fill="#000000" font-family="sans-serif" font-size="13" lengthAdjust="spacing" textLength="177" x="93.5" y="1753.5669">Displays Operation Success</text><!--SRC=[xLXBRziu4BxhLt1pgLCuRSzkjq2QHn6WnGADiwUzq19jSIEJWaWry28_VcT8YXhIajFSMw0n7pFV38Sptz3-e-tuRi-P5Ve_PhjU58LvbAhb7T-plLQwh3kz5tvht6bv-SXtujuU6i4wKLgkTWqLC3Mlz9DKExRbZG5Ktbkj-lr6T30khUxOsPLk6hxH7OVP6UE6mOARLng40CVAKhPSMNQseh8FTuCqB3tS5Rditr8yhRbv_2QDdT03ZNdvIsFaJedAwrrfPJiOYU3V-iUtpDWFqMeZ0LmAusJSGYhJ4Pb_rEf8nUrxlSopoxPjPCcjrEfUW6TQEOKmpeGVZEYe59cdaYM9INJca8HuN2QXniNCvWt4vv09nxKfsU-yRKCqoRp8xr3WdjSOPIT4yCfM3Vpvv2G-ZyAuCw503uaYrrOJVPXb4B2IekZDlwWpY8_IAEbIM_xaLgIvJ2RiudFCNBQ2gsoWUWmp5eom2ZMvgfY0_pX9y4AsHsr4Weny-nPmoaw0rE8ysmxZ5JD2O8eRaFW5o1MpA7odrhKsuXg43VkJxOJ5aqBQ3bMorj_5OYixY1F8BC5AgLM5Osh6LKs17uZlicM5O7SAJgrAGNqAPU0-s4LqXvPGKObSVC0UAyaPcCveQewMtZWcXgThXRf08MRyoAhaLGw8L7VESZJjFbUiX-A_sNFP-7kZaRW5GW-yiCYlwVdvm_CpEB9b-gVe_1eB_xuAopoatZ9R2qSmxAhlEl2nES0KwHutxW_6Yds1IGnGnVitBBeN3FlhyQeJlWoqLOJ1c9Sz8JKIYgWms27avsmz3F6WPYX35cGo5KTgZOg-UH-2HlPzniSRYUHvb9HV3jwdQEMeEXsFZaCscPY9xL4jUX3pRqLg-4l2XNVgSWVtnHSKTybUgksHwuiuP6dkvenBdINggRE-BGG4r5hhWMHnjfX4plsAlONCeeL0xXbvDbgtR0ii3JxM3BWUo9b9HLeALi8S7a21YgyuG4FHrAE8aCVW9FGG3Dzw0Dvg-5p0TCh6SEevjEpGW7BPD9UG4fiUQFvyqhs0UUhiwDcAyQfQU3VdZezjSYu2k0T9M1IJuSclyKIE8T3C6OxBbFG-rvADi6k-QKA_F6g4vyVL1YrqQcta2sYniI4F3m7e_RL-yey7A4VCCcU4EIi9tU0JDtj298y77XBKFHskzBvj17PiQHCNQ7ldhe7V-DXv-SeN5OHk2UGIrawtyj-zvdUl6NfDoj_uH8vPX8MqI59gcK3clErVqiCmnTnA9KsD691i2UR76GrgQLrp6_FT0OnxS_hmHhMzUIVDM2Zd7ul9vaeFJ4CVA-lyY9Nmh2zsKsB28O7dHl2kh6zrv_P2xnxDJEWdBHM4GaSbLUz6SqtqL6CojUwRwegS7ZqyMlIcbiHBfV4PAtUrnJhFMytPCSGPz3u6R26t1oOzCmnm47rbkLH0XqnfTQ7wfY7fidIGJxM4lhuN7CGi90FyaIO4jOPlSXiX5DlpxX7I0wR3XJfYVH8EGWdO0tDzwxwjeGkLXdfI0GQsW8YGcBq5QH7PgSwWltFiXR60xu-DdGedEEb-WJdzH61PpVbuip7WhtyjiApaW5HkutpoZJFPtKyQe5KuqKASkTUOEcsBn8TaHqP8lsmBdoillpIEAoabsBzQ_8c7D-5NZ9adSkmty7tUPSDH6vXuP5nBqpRyOC26wDmlIUo-BqleADaJuty0]--></g></svg>