<?xml version="1.0" encoding="us-ascii" standalone="no"?><svg xmlns="http://www.w3.org/2000/svg" xmlns:xlink="http://www.w3.org/1999/xlink" contentStyleType="text/css" height="392px" preserveAspectRatio="none" style="width:486px;height:392px;background:#FFFFFF;" version="1.1" viewBox="0 0 486 392" width="486px" zoomAndPan="magnify"><defs/><g><!--class GSM--><g id="elem_GSM"><rect codeLine="19" fill="#F1F1F1" height="92.4844" id="GSM" rx="2.5" ry="2.5" style="stroke:#181818;stroke-width:0.5;" width="72" x="39.5" y="7"/><text fill="#000000" font-family="sans-serif" font-size="14" lengthAdjust="spacing" textLength="31" x="60" y="27.1074">GSM</text><line style="stroke:#181818;stroke-width:0.5;" x1="40.5" x2="110.5" y1="35.6211" y2="35.6211"/><text fill="#000000" font-family="sans-serif" font-size="14" lengthAdjust="spacing" textLength="35" x="45.5" y="54.7285">name</text><text fill="#000000" font-family="sans-serif" font-size="14" lengthAdjust="spacing" textLength="33" x="45.5" y="73.3496">email</text><text fill="#000000" font-family="sans-serif" font-size="14" lengthAdjust="spacing" textLength="60" x="45.5" y="91.9707">password</text></g><!--class Entry--><g id="elem_Entry"><rect codeLine="25" fill="#F1F1F1" height="73.8633" id="Entry" rx="2.5" ry="2.5" style="stroke:#181818;stroke-width:0.5;" width="70" x="206.5" y="16"/><text fill="#000000" font-family="sans-serif" font-size="14" lengthAdjust="spacing" textLength="33" x="225" y="36.1074">Entry</text><line style="stroke:#181818;stroke-width:0.5;" x1="207.5" x2="275.5" y1="44.6211" y2="44.6211"/><text fill="#000000" font-family="sans-serif" font-size="14" lengthAdjust="spacing" textLength="58" x="212.5" y="63.7285">startDate</text><text fill="#000000" font-family="sans-serif" font-size="14" lengthAdjust="spacing" textLength="38" x="212.5" y="82.3496">status</text></g><!--class Task--><g id="elem_Task"><rect codeLine="30" fill="#F1F1F1" height="92.4844" id="Task" rx="2.5" ry="2.5" style="stroke:#181818;stroke-width:0.5;" width="147" x="7" y="178"/><text fill="#000000" font-family="sans-serif" font-size="14" lengthAdjust="spacing" textLength="31" x="65" y="198.1074">Task</text><line style="stroke:#181818;stroke-width:0.5;" x1="8" x2="153" y1="206.6211" y2="206.6211"/><text fill="#000000" font-family="sans-serif" font-size="14" lengthAdjust="spacing" textLength="135" x="13" y="225.7285">greenSpaceAssigned</text><text fill="#000000" font-family="sans-serif" font-size="14" lengthAdjust="spacing" textLength="97" x="13" y="244.3496">degreeUrgency</text><text fill="#000000" font-family="sans-serif" font-size="14" lengthAdjust="spacing" textLength="111" x="13" y="262.9707">expectedDuration</text></g><!--class Collaborator--><g id="elem_Collaborator"><rect codeLine="36" fill="#F1F1F1" height="36.6211" id="Collaborator" rx="2.5" ry="2.5" style="stroke:#181818;stroke-width:0.5;" width="84" x="322.5" y="349"/><text fill="#000000" font-family="sans-serif" font-size="14" lengthAdjust="spacing" textLength="78" x="325.5" y="369.1074">Collaborator</text><line style="stroke:#181818;stroke-width:0.5;" x1="323.5" x2="405.5" y1="377.6211" y2="377.6211"/></g><!--class Equipment--><g id="elem_Equipment"><rect codeLine="40" fill="#F1F1F1" height="36.6211" id="Equipment" rx="2.5" ry="2.5" style="stroke:#181818;stroke-width:0.5;" width="73" x="196" y="205.5"/><text fill="#000000" font-family="sans-serif" font-size="14" lengthAdjust="spacing" textLength="67" x="199" y="225.6074">Equipment</text><line style="stroke:#181818;stroke-width:0.5;" x1="197" x2="268" y1="234.1211" y2="234.1211"/></g><!--class Vehicle--><g id="elem_Vehicle"><rect codeLine="43" fill="#F1F1F1" height="36.6211" id="Vehicle" rx="2.5" ry="2.5" style="stroke:#181818;stroke-width:0.5;" width="52" x="304.5" y="205.5"/><text fill="#000000" font-family="sans-serif" font-size="14" lengthAdjust="spacing" textLength="46" x="307.5" y="225.6074">Vehicle</text><line style="stroke:#181818;stroke-width:0.5;" x1="305.5" x2="355.5" y1="234.1211" y2="234.1211"/></g><!--class Team--><g id="elem_Team"><rect fill="#F1F1F1" height="36.6211" id="Team" rx="2.5" ry="2.5" style="stroke:#181818;stroke-width:0.5;" width="42" x="391.5" y="205.5"/><text fill="#000000" font-family="sans-serif" font-size="14" lengthAdjust="spacing" textLength="36" x="394.5" y="225.6074">Team</text><line style="stroke:#181818;stroke-width:0.5;" x1="392.5" x2="432.5" y1="234.1211" y2="234.1211"/></g><!--class Skills--><g id="elem_Skills"><rect fill="#F1F1F1" height="36.6211" id="Skills" rx="2.5" ry="2.5" style="stroke:#181818;stroke-width:0.5;" width="38" x="441.5" y="349"/><text fill="#000000" font-family="sans-serif" font-size="14" lengthAdjust="spacing" textLength="32" x="444.5" y="369.1074">Skills</text><line style="stroke:#181818;stroke-width:0.5;" x1="442.5" x2="478.5" y1="377.6211" y2="377.6211"/></g><!--link GSM to Task--><g id="link_GSM_Task"><path codeLine="48" d="M70.1,99.43 C68.93,114.85 68.35,132.18 69.5,148 C70.21,157.71 71.43,168.08 72.8,177.9 " fill="none" id="GSM-Task" style="stroke:#181818;stroke-width:1.0;"/><polygon fill="#000000" points="74.6719,143.6426,77.2981,134.5018,71.4237,134.7039,74.6719,143.6426" style="stroke:#000000;stroke-width:1.0;"/><text fill="#000000" font-family="sans-serif" font-size="13" lengthAdjust="spacing" textLength="26" x="83.5" y="144.0283">have</text><text fill="#000000" font-family="sans-serif" font-size="13" lengthAdjust="spacing" textLength="7" x="61.7928" y="121.512">1</text><text fill="#000000" font-family="sans-serif" font-size="13" lengthAdjust="spacing" textLength="20" x="50.2003" y="166.8947">1..*</text></g><!--link GSM to Entry--><g id="link_GSM_Entry"><path codeLine="50" d="M111.52,53 C139.65,53 178.51,53 206.41,53 " fill="none" id="GSM-Entry" style="stroke:#181818;stroke-width:1.0;"/><polygon fill="#000000" points="140,40.6455,130.9549,37.7066,130.9549,43.5844,140,40.6455" style="stroke:#000000;stroke-width:1.0;"/><text fill="#000000" font-family="sans-serif" font-size="13" lengthAdjust="spacing" textLength="43" x="144" y="46.0283">register</text><text fill="#000000" font-family="sans-serif" font-size="13" lengthAdjust="spacing" textLength="7" x="119.671" y="48.2553">1</text><text fill="#000000" font-family="sans-serif" font-size="13" lengthAdjust="spacing" textLength="20" x="178.3783" y="68.5805">1..*</text></g><!--link Entry to Task--><g id="link_Entry_Task"><path codeLine="52" d="M206.96,90.25 C182.57,115.86 149.71,150.35 123.6,177.76 " fill="none" id="Entry-Task" style="stroke:#181818;stroke-width:1.0;"/><text fill="#000000" font-family="sans-serif" font-size="13" lengthAdjust="spacing" textLength="46" x="167.5" y="144.0283">extends</text><text fill="#000000" font-family="sans-serif" font-size="13" lengthAdjust="spacing" textLength="7" x="193.6596" y="111.8911">1</text><text fill="#000000" font-family="sans-serif" font-size="13" lengthAdjust="spacing" textLength="7" x="122.4162" y="166.7342">1</text></g><!--link Entry to Team--><g id="link_Entry_Team"><path codeLine="54" d="M276.79,77.23 C296.57,91.08 321.08,109.69 340.5,129 C364.69,153.07 387.78,185.45 401.03,205.24 " fill="none" id="Entry-Team" style="stroke:#181818;stroke-width:1.0;"/><polygon fill="#000000" points="364.9823,142.2335,360.7917,133.6959,356.5738,137.7896,364.9823,142.2335" style="stroke:#000000;stroke-width:1.0;"/><text fill="#000000" font-family="sans-serif" font-size="13" lengthAdjust="spacing" textLength="26" x="370.5" y="144.0283">have</text><text fill="#000000" font-family="sans-serif" font-size="13" lengthAdjust="spacing" textLength="7" x="284.4268" y="77.3973">1</text><text fill="#000000" font-family="sans-serif" font-size="13" lengthAdjust="spacing" textLength="22" x="372.4294" y="194.3591">0..1</text></g><!--link Entry to Vehicle--><g id="link_Entry_Vehicle"><path codeLine="56" d="M264.24,90.19 C271.61,102.37 279.65,116.13 286.5,129 C300.38,155.09 314.54,186.33 322.92,205.41 " fill="none" id="Entry-Vehicle" style="stroke:#181818;stroke-width:1.0;"/><text fill="#000000" font-family="sans-serif" font-size="13" lengthAdjust="spacing" textLength="34" x="297.5" y="144.0283">have&gt;</text><text fill="#000000" font-family="sans-serif" font-size="13" lengthAdjust="spacing" textLength="7" x="260.4266" y="111.8211">1</text><text fill="#000000" font-family="sans-serif" font-size="13" lengthAdjust="spacing" textLength="20" x="297.5361" y="194.2446">0..*</text></g><!--link Entry to Equipment--><g id="link_Entry_Equipment"><path codeLine="58" d="M239.57,90.25 C237.68,125.75 234.88,178.33 233.44,205.43 " fill="none" id="Entry-Equipment" style="stroke:#181818;stroke-width:1.0;"/><polygon fill="#000000" points="242.2343,143.6384,245.6498,134.7623,239.7802,134.4499,242.2343,143.6384" style="stroke:#000000;stroke-width:1.0;"/><text fill="#000000" font-family="sans-serif" font-size="13" lengthAdjust="spacing" textLength="26" x="251.5" y="144.0283">have</text><text fill="#000000" font-family="sans-serif" font-size="13" lengthAdjust="spacing" textLength="7" x="231.6707" y="111.8911">1</text><text fill="#000000" font-family="sans-serif" font-size="13" lengthAdjust="spacing" textLength="20" x="210.6654" y="194.2707">0..*</text></g><!--link Team to Collaborator--><g id="link_Team_Collaborator"><path codeLine="60" d="M404.39,242.61 C397.67,257.64 388.17,279.95 381.5,300 C376.08,316.28 371.38,335.29 368.3,348.8 " fill="none" id="Team-Collaborator" style="stroke:#181818;stroke-width:1.0;"/><text fill="#000000" font-family="sans-serif" font-size="13" lengthAdjust="spacing" textLength="34" x="382.5" y="315.0283">have&gt;</text><text fill="#000000" font-family="sans-serif" font-size="13" lengthAdjust="spacing" textLength="7" x="394.2698" y="264.0142">1</text><text fill="#000000" font-family="sans-serif" font-size="13" lengthAdjust="spacing" textLength="20" x="346.4013" y="337.6009">1..*</text></g><!--link Team to Skills--><g id="link_Team_Skills"><path codeLine="62" d="M418.48,242.63 C427.68,269.75 445.2,321.39 454.44,348.64 " fill="none" id="Team-Skills" style="stroke:#181818;stroke-width:1.0;"/><text fill="#000000" font-family="sans-serif" font-size="13" lengthAdjust="spacing" textLength="34" x="444.5" y="315.0283">have&gt;</text><text fill="#000000" font-family="sans-serif" font-size="13" lengthAdjust="spacing" textLength="7" x="412.1465" y="264.0395">1</text><text fill="#000000" font-family="sans-serif" font-size="13" lengthAdjust="spacing" textLength="20" x="429.7224" y="337.7297">0..*</text></g><!--SRC=[TP51J-im3CVl-HJMBfEGDi5r1oJqXfxU0GcfmDqaNXijJOhZ0cFYk-Ech2jwefSczYz__stdlOyTChRGffXimwab4Ex9v2dJeTrZJPKS0W6J5Onrc0EvGPVUVAnXXo6JCSj0Em59mBvk19mVNlaKpUoH3PZpZGZxvrxedqsnyXy4byOqtX5OprQBb7DBqYINLLUyg8TjQj57k4kEWWQB4jm7b5tY5evc2R1ob2txhbHTVXfZHkflTQS0w1UnfN8W5Glbr2dnbjYPpnD-6uKF8vy5MROeTBf9dy_W0-RzoDLC52kT6TtaxEj8heGT3Ob7hYdQmrZtlTEfaDlsZCNc9FOdXO3FISE9ZsRcvgNtNKjHZkVO4pLU1rKYnWpjBQuMi5hfRxs-M1HZ6sZmbU1wbZ-bIuCRtMhjin0FJ0bDrAW06xKh58SbpF8ANAxN0qEwqNEP_n2jz6tqc_e5cZgSYHNjdqtD1tGM_06EUjNUXv0dv0i0]--></g></svg>