<?xml version="1.0" encoding="us-ascii" standalone="no"?><svg xmlns="http://www.w3.org/2000/svg" xmlns:xlink="http://www.w3.org/1999/xlink" contentStyleType="text/css" height="1813px" preserveAspectRatio="none" style="width:1263px;height:1813px;background:#FFFFFF;" version="1.1" viewBox="0 0 1263 1813" width="1263px" zoomAndPan="magnify"><defs/><g><text fill="#000000" font-family="sans-serif" font-size="14" font-weight="bold" lengthAdjust="spacing" textLength="364" x="442.5" y="25.1074">Domain Model Green Spaces Software Management</text><!--class Organization--><g id="elem_Organization"><rect codeLine="12" fill="#F1F1F1" height="111.1055" id="Organization" rx="2.5" ry="2.5" style="stroke:#181818;stroke-width:0.5;" width="86" x="662" y="46.6211"/><text fill="#000000" font-family="sans-serif" font-size="14" lengthAdjust="spacing" textLength="80" x="665" y="66.7285">Organization</text><line style="stroke:#181818;stroke-width:0.5;" x1="663" x2="747" y1="75.2422" y2="75.2422"/><text fill="#000000" font-family="sans-serif" font-size="14" lengthAdjust="spacing" textLength="35" x="668" y="94.3496">name</text><text fill="#000000" font-family="sans-serif" font-size="14" lengthAdjust="spacing" textLength="68" x="668" y="112.9707">vatNumber</text><text fill="#000000" font-family="sans-serif" font-size="14" lengthAdjust="spacing" textLength="40" x="668" y="131.5918">phone</text><text fill="#000000" font-family="sans-serif" font-size="14" lengthAdjust="spacing" textLength="68" x="668" y="150.2129">emailPrefix</text></g><!--class HRM--><g id="elem_HRM"><rect codeLine="19" fill="#F1F1F1" height="92.4844" id="HRM" rx="2.5" ry="2.5" style="stroke:#181818;stroke-width:0.5;" width="72" x="383" y="596.6211"/><text fill="#000000" font-family="sans-serif" font-size="14" lengthAdjust="spacing" textLength="30" x="404" y="616.7285">HRM</text><line style="stroke:#181818;stroke-width:0.5;" x1="384" x2="454" y1="625.2422" y2="625.2422"/><text fill="#000000" font-family="sans-serif" font-size="14" lengthAdjust="spacing" textLength="35" x="389" y="644.3496">name</text><text fill="#000000" font-family="sans-serif" font-size="14" lengthAdjust="spacing" textLength="33" x="389" y="662.9707">email</text><text fill="#000000" font-family="sans-serif" font-size="14" lengthAdjust="spacing" textLength="60" x="389" y="681.5918">password</text></g><!--class GSM--><g id="elem_GSM"><rect codeLine="25" fill="#F1F1F1" height="92.4844" id="GSM" rx="2.5" ry="2.5" style="stroke:#181818;stroke-width:0.5;" width="72" x="967" y="352.6211"/><text fill="#000000" font-family="sans-serif" font-size="14" lengthAdjust="spacing" textLength="31" x="987.5" y="372.7285">GSM</text><line style="stroke:#181818;stroke-width:0.5;" x1="968" x2="1038" y1="381.2422" y2="381.2422"/><text fill="#000000" font-family="sans-serif" font-size="14" lengthAdjust="spacing" textLength="35" x="973" y="400.3496">name</text><text fill="#000000" font-family="sans-serif" font-size="14" lengthAdjust="spacing" textLength="33" x="973" y="418.9707">email</text><text fill="#000000" font-family="sans-serif" font-size="14" lengthAdjust="spacing" textLength="60" x="973" y="437.5918">password</text></g><!--class VFM--><g id="elem_VFM"><rect codeLine="31" fill="#F1F1F1" height="92.4844" id="VFM" rx="2.5" ry="2.5" style="stroke:#181818;stroke-width:0.5;" width="72" x="669" y="474.6211"/><text fill="#000000" font-family="sans-serif" font-size="14" lengthAdjust="spacing" textLength="29" x="690.5" y="494.7285">VFM</text><line style="stroke:#181818;stroke-width:0.5;" x1="670" x2="740" y1="503.2422" y2="503.2422"/><text fill="#000000" font-family="sans-serif" font-size="14" lengthAdjust="spacing" textLength="35" x="675" y="522.3496">name</text><text fill="#000000" font-family="sans-serif" font-size="14" lengthAdjust="spacing" textLength="33" x="675" y="540.9707">email</text><text fill="#000000" font-family="sans-serif" font-size="14" lengthAdjust="spacing" textLength="60" x="675" y="559.5918">password</text></g><!--class Skill--><g id="elem_Skill"><rect codeLine="37" fill="#F1F1F1" height="55.2422" id="Skill" rx="2.5" ry="2.5" style="stroke:#181818;stroke-width:0.5;" width="47" x="395.5" y="1250.1211"/><text fill="#000000" font-family="sans-serif" font-size="14" lengthAdjust="spacing" textLength="25" x="406.5" y="1270.2285">Skill</text><line style="stroke:#181818;stroke-width:0.5;" x1="396.5" x2="441.5" y1="1278.7422" y2="1278.7422"/><text fill="#000000" font-family="sans-serif" font-size="14" lengthAdjust="spacing" textLength="35" x="401.5" y="1297.8496">name</text></g><!--class JobCategory--><g id="elem_JobCategory"><rect codeLine="41" fill="#F1F1F1" height="55.2422" id="JobCategory" rx="2.5" ry="2.5" style="stroke:#181818;stroke-width:0.5;" width="86" x="7" y="1250.1211"/><text fill="#000000" font-family="sans-serif" font-size="14" lengthAdjust="spacing" textLength="80" x="10" y="1270.2285">JobCategory</text><line style="stroke:#181818;stroke-width:0.5;" x1="8" x2="92" y1="1278.7422" y2="1278.7422"/><text fill="#000000" font-family="sans-serif" font-size="14" lengthAdjust="spacing" textLength="35" x="13" y="1297.8496">name</text></g><!--class Collaborator--><g id="elem_Collaborator"><rect codeLine="45" fill="#F1F1F1" height="204.2109" id="Collaborator" rx="2.5" ry="2.5" style="stroke:#181818;stroke-width:0.5;" width="105" x="249.5" y="920.6211"/><text fill="#000000" font-family="sans-serif" font-size="14" lengthAdjust="spacing" textLength="78" x="263" y="940.7285">Collaborator</text><line style="stroke:#181818;stroke-width:0.5;" x1="250.5" x2="353.5" y1="949.2422" y2="949.2422"/><text fill="#000000" font-family="sans-serif" font-size="14" lengthAdjust="spacing" textLength="35" x="255.5" y="968.3496">name</text><text fill="#000000" font-family="sans-serif" font-size="14" lengthAdjust="spacing" textLength="72" x="255.5" y="986.9707">dateOfBirth</text><text fill="#000000" font-family="sans-serif" font-size="14" lengthAdjust="spacing" textLength="93" x="255.5" y="1005.5918">admissionDate</text><text fill="#000000" font-family="sans-serif" font-size="14" lengthAdjust="spacing" textLength="51" x="255.5" y="1024.2129">address</text><text fill="#000000" font-family="sans-serif" font-size="14" lengthAdjust="spacing" textLength="33" x="255.5" y="1042.834">email</text><text fill="#000000" font-family="sans-serif" font-size="14" lengthAdjust="spacing" textLength="89" x="255.5" y="1061.4551">phoneNumber</text><text fill="#000000" font-family="sans-serif" font-size="14" lengthAdjust="spacing" textLength="85" x="255.5" y="1080.0762">docIDNumber</text><text fill="#000000" font-family="sans-serif" font-size="14" lengthAdjust="spacing" textLength="38" x="255.5" y="1098.6973">status</text><text fill="#000000" font-family="sans-serif" font-size="14" lengthAdjust="spacing" textLength="30" x="255.5" y="1117.3184">skills</text></g><!--class DocType--><g id="elem_DocType"><rect codeLine="57" fill="#F1F1F1" height="55.2422" id="DocType" rx="2.5" ry="2.5" style="stroke:#181818;stroke-width:0.5;" width="63" x="162.5" y="1250.1211"/><text fill="#000000" font-family="sans-serif" font-size="14" lengthAdjust="spacing" textLength="57" x="165.5" y="1270.2285">DocType</text><line style="stroke:#181818;stroke-width:0.5;" x1="163.5" x2="224.5" y1="1278.7422" y2="1278.7422"/><text fill="#000000" font-family="sans-serif" font-size="14" lengthAdjust="spacing" textLength="27" x="168.5" y="1297.8496">type</text></g><!--class Team--><g id="elem_Team"><rect codeLine="61" fill="#F1F1F1" height="73.8633" id="Team" rx="2.5" ry="2.5" style="stroke:#181818;stroke-width:0.5;" width="63" x="581.5" y="767.6211"/><text fill="#000000" font-family="sans-serif" font-size="14" lengthAdjust="spacing" textLength="36" x="595" y="787.7285">Team</text><line style="stroke:#181818;stroke-width:0.5;" x1="582.5" x2="643.5" y1="796.2422" y2="796.2422"/><text fill="#000000" font-family="sans-serif" font-size="14" lengthAdjust="spacing" textLength="51" x="587.5" y="815.3496">maxSize</text><text fill="#000000" font-family="sans-serif" font-size="14" lengthAdjust="spacing" textLength="48" x="587.5" y="833.9707">minSize</text></g><!--class Vehicle--><g id="elem_Vehicle"><rect codeLine="67" fill="#F1F1F1" height="222.832" id="Vehicle" rx="2.5" ry="2.5" style="stroke:#181818;stroke-width:0.5;" width="135" x="683.5" y="1430.6211"/><text fill="#000000" font-family="sans-serif" font-size="14" lengthAdjust="spacing" textLength="46" x="728" y="1450.7285">Vehicle</text><line style="stroke:#181818;stroke-width:0.5;" x1="684.5" x2="817.5" y1="1459.2422" y2="1459.2422"/><text fill="#000000" font-family="sans-serif" font-size="14" lengthAdjust="spacing" textLength="37" x="689.5" y="1478.3496">brand</text><text fill="#000000" font-family="sans-serif" font-size="14" lengthAdjust="spacing" textLength="38" x="689.5" y="1496.9707">model</text><text fill="#000000" font-family="sans-serif" font-size="14" lengthAdjust="spacing" textLength="31" x="689.5" y="1515.5918">plate</text><text fill="#000000" font-family="sans-serif" font-size="14" lengthAdjust="spacing" textLength="27" x="689.5" y="1534.2129">type</text><text fill="#000000" font-family="sans-serif" font-size="14" lengthAdjust="spacing" textLength="25" x="689.5" y="1552.834">tare</text><text fill="#000000" font-family="sans-serif" font-size="14" lengthAdjust="spacing" textLength="79" x="689.5" y="1571.4551">grossWeight</text><text fill="#000000" font-family="sans-serif" font-size="14" lengthAdjust="spacing" textLength="65" x="689.5" y="1590.0762">currentKM</text><text fill="#000000" font-family="sans-serif" font-size="14" lengthAdjust="spacing" textLength="78" x="689.5" y="1608.6973">registerDate</text><text fill="#000000" font-family="sans-serif" font-size="14" lengthAdjust="spacing" textLength="97" x="689.5" y="1627.3184">acquisitionDate</text><text fill="#000000" font-family="sans-serif" font-size="14" lengthAdjust="spacing" textLength="123" x="689.5" y="1645.9395">frequencyCheckKm</text></g><!--class CheckUp--><g id="elem_CheckUp"><rect codeLine="80" fill="#F1F1F1" height="73.8633" id="CheckUp" rx="2.5" ry="2.5" style="stroke:#181818;stroke-width:0.5;" width="95" x="703.5" y="1732.6211"/><text fill="#000000" font-family="sans-serif" font-size="14" lengthAdjust="spacing" textLength="57" x="722.5" y="1752.7285">CheckUp</text><line style="stroke:#181818;stroke-width:0.5;" x1="704.5" x2="797.5" y1="1761.2422" y2="1761.2422"/><text fill="#000000" font-family="sans-serif" font-size="14" lengthAdjust="spacing" textLength="80" x="709.5" y="1780.3496">kmsOfCheck</text><text fill="#000000" font-family="sans-serif" font-size="14" lengthAdjust="spacing" textLength="83" x="709.5" y="1798.9707">dateOfCheck</text></g><!--class GreenSpace--><g id="elem_GreenSpace"><rect codeLine="85" fill="#F1F1F1" height="73.8633" id="GreenSpace" rx="2.5" ry="2.5" style="stroke:#181818;stroke-width:0.5;" width="99" x="1101.5" y="1505.1211"/><text fill="#000000" font-family="sans-serif" font-size="14" lengthAdjust="spacing" textLength="80" x="1111" y="1525.2285">GreenSpace</text><line style="stroke:#181818;stroke-width:0.5;" x1="1102.5" x2="1199.5" y1="1533.7422" y2="1533.7422"/><text fill="#000000" font-family="sans-serif" font-size="14" lengthAdjust="spacing" textLength="35" x="1107.5" y="1552.8496">name</text><text fill="#000000" font-family="sans-serif" font-size="14" lengthAdjust="spacing" textLength="87" x="1107.5" y="1571.4707">locationStreet</text></g><!--class Task--><g id="elem_Task"><rect codeLine="90" fill="#F1F1F1" height="148.3477" id="Task" rx="2.5" ry="2.5" style="stroke:#181818;stroke-width:0.5;" width="139" x="902.5" y="1203.6211"/><text fill="#000000" font-family="sans-serif" font-size="14" lengthAdjust="spacing" textLength="31" x="956.5" y="1223.7285">Task</text><line style="stroke:#181818;stroke-width:0.5;" x1="903.5" x2="1040.5" y1="1232.2422" y2="1232.2422"/><text fill="#000000" font-family="sans-serif" font-size="14" lengthAdjust="spacing" textLength="61" x="908.5" y="1251.3496">reference</text><text fill="#000000" font-family="sans-serif" font-size="14" lengthAdjust="spacing" textLength="69" x="908.5" y="1269.9707">description</text><text fill="#000000" font-family="sans-serif" font-size="14" lengthAdjust="spacing" textLength="121" x="908.5" y="1288.5918">informalDescription</text><text fill="#000000" font-family="sans-serif" font-size="14" lengthAdjust="spacing" textLength="127" x="908.5" y="1307.2129">technicalDescription</text><text fill="#000000" font-family="sans-serif" font-size="14" lengthAdjust="spacing" textLength="52" x="908.5" y="1325.834">duration</text><text fill="#000000" font-family="sans-serif" font-size="14" lengthAdjust="spacing" textLength="26" x="908.5" y="1344.4551">cost</text></g><!--class Equipment--><g id="elem_Equipment"><rect codeLine="99" fill="#F1F1F1" height="55.2422" id="Equipment" rx="2.5" ry="2.5" style="stroke:#181818;stroke-width:0.5;" width="79" x="959.5" y="995.1211"/><text fill="#000000" font-family="sans-serif" font-size="14" lengthAdjust="spacing" textLength="67" x="965.5" y="1015.2285">Equipment</text><line style="stroke:#181818;stroke-width:0.5;" x1="960.5" x2="1037.5" y1="1023.7422" y2="1023.7422"/><text fill="#000000" font-family="sans-serif" font-size="14" lengthAdjust="spacing" textLength="67" x="965.5" y="1042.8496">nameType</text></g><!--class Agenda--><g id="elem_Agenda"><rect codeLine="105" fill="#F1F1F1" height="92.4844" id="Agenda" rx="2.5" ry="2.5" style="stroke:#181818;stroke-width:0.5;" width="89" x="860.5" y="596.6211"/><text fill="#000000" font-family="sans-serif" font-size="14" lengthAdjust="spacing" textLength="49" x="880.5" y="616.7285">Agenda</text><line style="stroke:#181818;stroke-width:0.5;" x1="861.5" x2="948.5" y1="625.2422" y2="625.2422"/><text fill="#000000" font-family="sans-serif" font-size="14" lengthAdjust="spacing" textLength="77" x="866.5" y="644.3496">greenSpace</text><text fill="#000000" font-family="sans-serif" font-size="14" lengthAdjust="spacing" textLength="58" x="866.5" y="662.9707">startDate</text><text fill="#000000" font-family="sans-serif" font-size="14" lengthAdjust="spacing" textLength="63" x="866.5" y="681.5918">finishDate</text></g><!--class TaskCategory--><g id="elem_TaskCategory"><rect codeLine="111" fill="#F1F1F1" height="55.2422" id="TaskCategory" rx="2.5" ry="2.5" style="stroke:#181818;stroke-width:0.5;" width="95" x="898.5" y="1514.6211"/><text fill="#000000" font-family="sans-serif" font-size="14" lengthAdjust="spacing" textLength="89" x="901.5" y="1534.7285">TaskCategory</text><line style="stroke:#181818;stroke-width:0.5;" x1="899.5" x2="992.5" y1="1543.2422" y2="1543.2422"/><text fill="#000000" font-family="sans-serif" font-size="14" lengthAdjust="spacing" textLength="69" x="904.5" y="1562.3496">description</text></g><!--class Employees--><g id="elem_Employees"><rect fill="#F1F1F1" height="36.6211" id="Employees" rx="2.5" ry="2.5" style="stroke:#181818;stroke-width:0.5;" width="75" x="667.5" y="236.6211"/><text fill="#000000" font-family="sans-serif" font-size="14" lengthAdjust="spacing" textLength="69" x="670.5" y="256.7285">Employees</text><line style="stroke:#181818;stroke-width:0.5;" x1="668.5" x2="741.5" y1="265.2422" y2="265.2422"/></g><!--link HRM to JobCategory--><g id="link_HRM_JobCategory"><path codeLine="115" d="M382.73,673.8411 C367.88,686.9511 350.95,702.8811 337,718.6211 C319.25,738.6511 317.54,745.8311 302,767.6211 C269.07,813.8111 257.39,823.1011 228,871.6211 C154.89,992.3311 135.2,1023.1111 84,1154.6211 C71.56,1186.5811 61.65,1224.9011 55.81,1249.9511 " fill="none" id="HRM-JobCategory" style="stroke:#181818;stroke-width:1.0;"/><polygon fill="#000000" points="230.5323,885.6152,237.5525,879.199,232.4403,876.298,230.5323,885.6152" style="stroke:#000000;stroke-width:1.0;"/><text fill="#000000" font-family="sans-serif" font-size="13" lengthAdjust="spacing" textLength="53" x="242" y="886.6494">manages</text><text fill="#000000" font-family="sans-serif" font-size="13" lengthAdjust="spacing" textLength="7" x="367.9003" y="675.3234">1</text><text fill="#000000" font-family="sans-serif" font-size="13" lengthAdjust="spacing" textLength="5" x="51.5341" y="1239.0726">*</text></g><!--link HRM to Collaborator--><g id="link_HRM_Collaborator"><path codeLine="116" d="M382.93,682.0511 C363.54,705.0811 341.17,735.9611 329,767.6211 C310.47,815.8411 303.21,872.7811 300.81,920.5111 " fill="none" id="HRM-Collaborator" style="stroke:#181818;stroke-width:1.0;"/><polygon fill="#000000" points="332.372,809.4941,338.0959,801.8989,332.5384,799.985,332.372,809.4941" style="stroke:#000000;stroke-width:1.0;"/><text fill="#000000" font-family="sans-serif" font-size="13" lengthAdjust="spacing" textLength="49" x="343" y="810.1494">employs</text><text fill="#000000" font-family="sans-serif" font-size="13" lengthAdjust="spacing" textLength="7" x="367.7687" y="705.945">1</text><text fill="#000000" font-family="sans-serif" font-size="13" lengthAdjust="spacing" textLength="5" x="295.539" y="909.4194">*</text></g><!--link HRM to Skill--><g id="link_HRM_Skill"><path codeLine="117" d="M419,688.6411 C419,811.9311 419,1152.3611 419,1250.0811 " fill="none" id="HRM-Skill" style="stroke:#181818;stroke-width:1.0;"/><polygon fill="#000000" points="424,886.2666,426.9389,877.2215,421.0611,877.2215,424,886.2666" style="stroke:#000000;stroke-width:1.0;"/><text fill="#000000" font-family="sans-serif" font-size="13" lengthAdjust="spacing" textLength="53" x="433" y="886.6494">manages</text><text fill="#000000" font-family="sans-serif" font-size="13" lengthAdjust="spacing" textLength="7" x="411.4641" y="711.003">1</text><text fill="#000000" font-family="sans-serif" font-size="13" lengthAdjust="spacing" textLength="5" x="413.4219" y="1238.7808">*</text></g><!--link HRM to Team--><g id="link_HRM_Team"><path codeLine="118" d="M455.04,673.3411 C491.31,703.2511 546.7,748.9411 581.33,777.5011 " fill="none" id="HRM-Team" style="stroke:#181818;stroke-width:1.0;"/><polygon fill="#000000" points="536.8573,731.448,531.7493,723.4255,528.0094,727.9601,536.8573,731.448" style="stroke:#000000;stroke-width:1.0;"/><text fill="#000000" font-family="sans-serif" font-size="13" lengthAdjust="spacing" textLength="57" x="542" y="733.6494">generates</text><text fill="#000000" font-family="sans-serif" font-size="13" lengthAdjust="spacing" textLength="7" x="463.1951" y="674.9323">1</text><text fill="#000000" font-family="sans-serif" font-size="13" lengthAdjust="spacing" textLength="5" x="568.4282" y="766.3417">*</text></g><!--link VFM to Vehicle--><g id="link_VFM_Vehicle"><path codeLine="120" d="M703.81,566.6411 C702.12,633.2811 699.1,762.0811 698,871.6211 C696.03,1068.9511 719.83,1297.9911 736.19,1430.5611 " fill="none" id="VFM-Vehicle" style="stroke:#181818;stroke-width:1.0;"/><polygon fill="#000000" points="703.1873,886.2631,705.7854,877.1143,699.9116,877.3344,703.1873,886.2631" style="stroke:#000000;stroke-width:1.0;"/><text fill="#000000" font-family="sans-serif" font-size="13" lengthAdjust="spacing" textLength="53" x="712" y="886.6494">manages</text><text fill="#000000" font-family="sans-serif" font-size="13" lengthAdjust="spacing" textLength="7" x="696.0918" y="589.003">1</text><text fill="#000000" font-family="sans-serif" font-size="13" lengthAdjust="spacing" textLength="5" x="730.027" y="1419.5383">*</text></g><!--link Collaborator to JobCategory--><g id="link_Collaborator_JobCategory"><path codeLine="122" d="M249.23,1047.8811 C205.43,1070.2911 144.03,1107.2311 104,1154.6211 C80.08,1182.9311 64.97,1223.5111 57,1249.9611 " fill="none" id="Collaborator-JobCategory" style="stroke:#181818;stroke-width:1.0;"/><polygon fill="#000000" points="105.5539,1167.8893,113.9174,1163.3613,109.6586,1159.3102,105.5539,1167.8893" style="stroke:#000000;stroke-width:1.0;"/><text fill="#000000" font-family="sans-serif" font-size="13" lengthAdjust="spacing" textLength="60" x="118" y="1169.6494">belongs to</text><text fill="#000000" font-family="sans-serif" font-size="13" lengthAdjust="spacing" textLength="7" x="234.6687" y="1047.1669">1</text><text fill="#000000" font-family="sans-serif" font-size="13" lengthAdjust="spacing" textLength="7" x="59.4281" y="1238.6331">1</text></g><!--link Collaborator to DocType--><g id="link_Collaborator_DocType"><path codeLine="123" d="M249.4,1069.1811 C226.81,1092.2111 202.9,1122.1511 191,1154.6211 C179.55,1185.8511 183.27,1224.6611 187.86,1250.0111 " fill="none" id="Collaborator-DocType" style="stroke:#181818;stroke-width:1.0;"/><polygon fill="#000000" points="194.3891,1169,200.0854,1161.384,194.521,1159.4904,194.3891,1169" style="stroke:#000000;stroke-width:1.0;"/><text fill="#000000" font-family="sans-serif" font-size="13" lengthAdjust="spacing" textLength="69" x="205" y="1169.6494">identified by</text><text fill="#000000" font-family="sans-serif" font-size="13" lengthAdjust="spacing" textLength="7" x="234.5109" y="1071.5672">1</text><text fill="#000000" font-family="sans-serif" font-size="13" lengthAdjust="spacing" textLength="7" x="178.6308" y="1238.6946">1</text></g><!--link Collaborator to Skill--><g id="link_Collaborator_Skill"><path codeLine="124" d="M300.99,1124.6211 C303.54,1141.5211 307.9,1158.4711 315,1173.6211 C332.69,1211.3611 370.4,1243.0111 395.21,1260.8911 " fill="none" id="Collaborator-Skill" style="stroke:#181818;stroke-width:1.0;"/><polygon fill="#000000" points="322.8436,1168.3793,320.1169,1159.268,315.2821,1162.6108,322.8436,1168.3793" style="stroke:#000000;stroke-width:1.0;"/><text fill="#000000" font-family="sans-serif" font-size="13" lengthAdjust="spacing" textLength="63" x="329" y="1169.6494">possesses</text><text fill="#000000" font-family="sans-serif" font-size="13" lengthAdjust="spacing" textLength="5" x="295.7322" y="1146.7672">*</text><text fill="#000000" font-family="sans-serif" font-size="13" lengthAdjust="spacing" textLength="5" x="382.4873" y="1250.5153">*</text></g><!--link Team to Collaborator--><g id="link_Team_Collaborator"><path codeLine="126" d="M581.47,827.5211 C528.11,864.5811 419.51,940.0111 354.51,985.1511 " fill="none" id="Team-Collaborator" style="stroke:#181818;stroke-width:1.0;"/><polygon fill="#000000" points="513.8933,884.1188,522.9989,881.373,519.6459,876.5453,513.8933,884.1188" style="stroke:#000000;stroke-width:1.0;"/><text fill="#000000" font-family="sans-serif" font-size="13" lengthAdjust="spacing" textLength="48" x="527" y="886.6494">includes</text><text fill="#000000" font-family="sans-serif" font-size="13" lengthAdjust="spacing" textLength="7" x="566.3693" y="827.9289">1</text><text fill="#000000" font-family="sans-serif" font-size="13" lengthAdjust="spacing" textLength="5" x="362.5896" y="975.4335">*</text></g><!--link Team to Skill--><g id="link_Team_Skill"><path codeLine="127" d="M601.32,841.8211 C596.25,856.9911 590.09,874.7511 584,890.6211 C531.52,1027.3911 459.73,1187.3411 431.31,1249.7611 " fill="none" id="Team-Skill" style="stroke:#181818;stroke-width:1.0;"/><polygon fill="#000000" points="574.0766,1027.3818,580.2688,1020.1633,574.8433,1017.9022,574.0766,1027.3818" style="stroke:#000000;stroke-width:1.0;"/><text fill="#000000" font-family="sans-serif" font-size="13" lengthAdjust="spacing" textLength="46" x="585" y="1028.1494">requires</text><text fill="#000000" font-family="sans-serif" font-size="13" lengthAdjust="spacing" textLength="7" x="591.8058" y="863.4539">1</text><text fill="#000000" font-family="sans-serif" font-size="13" lengthAdjust="spacing" textLength="5" x="428.4559" y="1238.841">*</text></g><!--link Vehicle to CheckUp--><g id="link_Vehicle_CheckUp"><path codeLine="129" d="M751,1653.8911 C751,1682.2911 751,1710.8611 751,1732.3911 " fill="none" id="Vehicle-CheckUp" style="stroke:#181818;stroke-width:1.0;"/><polygon fill="#000000" points="756,1698.2666,758.9389,1689.2215,753.0611,1689.2215,756,1698.2666" style="stroke:#000000;stroke-width:1.0;"/><text fill="#000000" font-family="sans-serif" font-size="13" lengthAdjust="spacing" textLength="60" x="765" y="1698.6494">undergoes</text><text fill="#000000" font-family="sans-serif" font-size="13" lengthAdjust="spacing" textLength="7" x="743.7758" y="1675.6389">1</text><text fill="#000000" font-family="sans-serif" font-size="13" lengthAdjust="spacing" textLength="5" x="745.5547" y="1721.3119">*</text></g><!--link Organization to Employees--><g id="link_Organization_Employees"><path codeLine="131" d="M705,157.6311 C705,185.3411 705,217.1511 705,236.4311 " fill="none" id="Organization-Employees" style="stroke:#181818;stroke-width:1.0;"/><polygon fill="#000000" points="710,202.2666,712.9389,193.2215,707.0611,193.2215,710,202.2666" style="stroke:#000000;stroke-width:1.0;"/><text fill="#000000" font-family="sans-serif" font-size="13" lengthAdjust="spacing" textLength="81" x="719" y="202.6494">encompasses</text><text fill="#000000" font-family="sans-serif" font-size="13" lengthAdjust="spacing" textLength="7" x="697.5516" y="179.8726">1</text><text fill="#000000" font-family="sans-serif" font-size="13" lengthAdjust="spacing" textLength="5" x="699.2344" y="225.2351">*</text></g><!--link Employees to HRM--><g id="link_Employees_HRM"><path codeLine="133" d="M682.71,273.8611 C660.49,292.1711 626.16,322.2911 601,352.6211 C534.95,432.2611 474.38,537.6111 442.51,596.6111 " fill="none" id="Employees-HRM" style="stroke:#181818;stroke-width:1.0;"/><polygon fill="#000000" points="603.0148,402.7777,610.7727,397.2762,606.0574,393.7669,603.0148,402.7777" style="stroke:#000000;stroke-width:1.0;"/><text fill="#000000" font-family="sans-serif" font-size="13" lengthAdjust="spacing" textLength="81" x="615" y="404.1494">encompasses</text><text fill="#000000" font-family="sans-serif" font-size="13" lengthAdjust="spacing" textLength="7" x="668.7789" y="295.3002">1</text><text fill="#000000" font-family="sans-serif" font-size="13" lengthAdjust="spacing" textLength="7" x="438.574" y="585.2778">1</text></g><!--link Employees to VFM--><g id="link_Employees_VFM"><path codeLine="134" d="M705,273.8211 C705,314.4411 705,415.3811 705,474.5111 " fill="none" id="Employees-VFM" style="stroke:#181818;stroke-width:1.0;"/><polygon fill="#000000" points="710,318.2666,712.9389,309.2215,707.0611,309.2215,710,318.2666" style="stroke:#000000;stroke-width:1.0;"/><text fill="#000000" font-family="sans-serif" font-size="13" lengthAdjust="spacing" textLength="81" x="719" y="318.6494">encompasses</text><text fill="#000000" font-family="sans-serif" font-size="13" lengthAdjust="spacing" textLength="7" x="697.0594" y="295.2494">1</text><text fill="#000000" font-family="sans-serif" font-size="13" lengthAdjust="spacing" textLength="7" x="697.4859" y="463.5044">1</text></g><!--link Employees to GSM--><g id="link_Employees_GSM"><path codeLine="135" d="M742.64,273.0611 C762.44,282.0411 787.09,293.3111 809,303.6211 C864.2,329.5911 927.75,360.6011 966.65,379.7011 " fill="none" id="Employees-GSM" style="stroke:#181818;stroke-width:1.0;"/><polygon fill="#000000" points="855.5145,315.4158,848.6109,308.8743,846.0844,314.1815,855.5145,315.4158" style="stroke:#000000;stroke-width:1.0;"/><text fill="#000000" font-family="sans-serif" font-size="13" lengthAdjust="spacing" textLength="81" x="860" y="318.6494">encompasses</text><text fill="#000000" font-family="sans-serif" font-size="13" lengthAdjust="spacing" textLength="7" x="746.0954" y="295.2892">1</text><text fill="#000000" font-family="sans-serif" font-size="13" lengthAdjust="spacing" textLength="7" x="952.0536" y="371.484">1</text></g><!--link GSM to GreenSpace--><g id="link_GSM_GreenSpace"><path codeLine="137" d="M1039.22,421.8011 C1095.61,459.4311 1198,541.5311 1198,641.6211 C1198,641.6211 1198,641.6211 1198,1278.6211 C1198,1360.5711 1175.53,1454.6811 1161.67,1504.9711 " fill="none" id="GSM-GreenSpace" style="stroke:#181818;stroke-width:1.0;"/><polygon fill="#000000" points="1203.5617,886.235,1205.4659,876.917,1199.6253,877.5773,1203.5617,886.235" style="stroke:#000000;stroke-width:1.0;"/><text fill="#000000" font-family="sans-serif" font-size="13" lengthAdjust="spacing" textLength="43" x="1212" y="886.6494">creates</text><text fill="#000000" font-family="sans-serif" font-size="13" lengthAdjust="spacing" textLength="7" x="1047.0399" y="421.7005">1</text><text fill="#000000" font-family="sans-serif" font-size="13" lengthAdjust="spacing" textLength="5" x="1158.1253" y="1493.9061">*</text></g><!--link GSM to Task--><g id="link_GSM_Task"><path codeLine="138" d="M1031.29,445.0111 C1058.01,492.2711 1094,569.3511 1094,641.6211 C1094,641.6211 1094,641.6211 1094,1023.6211 C1094,1091.7911 1092.52,1112.6711 1062,1173.6211 C1056.42,1184.7711 1049.34,1195.6811 1041.62,1205.9711 " fill="none" id="GSM-Task" style="stroke:#181818;stroke-width:1.0;"/><polygon fill="#000000" points="1099.0679,809.7661,1101.8837,800.682,1096.0064,800.7618,1099.0679,809.7661" style="stroke:#000000;stroke-width:1.0;"/><text fill="#000000" font-family="sans-serif" font-size="13" lengthAdjust="spacing" textLength="36" x="1108" y="810.1494">create</text><text fill="#000000" font-family="sans-serif" font-size="13" lengthAdjust="spacing" textLength="7" x="1027.931" y="467.0872">1</text><text fill="#000000" font-family="sans-serif" font-size="13" lengthAdjust="spacing" textLength="5" x="1049.5081" y="1194.2299">*</text></g><!--link GSM to Equipment--><g id="link_GSM_Equipment"><path codeLine="139" d="M1002.49,444.7911 C1001.81,506.6011 1000.62,621.0111 1000,718.6211 C999.35,820.6711 999.11,942.0611 999.03,994.8711 " fill="none" id="GSM-Equipment" style="stroke:#181818;stroke-width:1.0;"/><polygon fill="#000000" points="1004.9686,733.2665,1007.9643,724.2401,1002.0866,724.2031,1004.9686,733.2665" style="stroke:#000000;stroke-width:1.0;"/><text fill="#000000" font-family="sans-serif" font-size="13" lengthAdjust="spacing" textLength="53" x="1014" y="733.6494">manages</text><text fill="#000000" font-family="sans-serif" font-size="13" lengthAdjust="spacing" textLength="7" x="994.876" y="467.176">1</text><text fill="#000000" font-family="sans-serif" font-size="13" lengthAdjust="spacing" textLength="5" x="993.4897" y="983.9751">*</text></g><!--link GSM to Agenda--><g id="link_GSM_Agenda"><path codeLine="141" d="M966.82,417.9911 C945.86,430.7711 921.25,449.9311 909,474.6211 C890.24,512.4211 891.51,561.2011 896.11,596.2611 " fill="none" id="GSM-Agenda" style="stroke:#181818;stroke-width:1.0;"/><polygon fill="#000000" points="912.1565,525.4143,918.2233,518.0901,912.7596,515.9229,912.1565,525.4143" style="stroke:#000000;stroke-width:1.0;"/><text fill="#000000" font-family="sans-serif" font-size="13" lengthAdjust="spacing" textLength="53" x="923" y="526.1494">manages</text><text fill="#000000" font-family="sans-serif" font-size="13" lengthAdjust="spacing" textLength="7" x="952.008" y="417.1404">1</text><text fill="#000000" font-family="sans-serif" font-size="13" lengthAdjust="spacing" textLength="5" x="889.4371" y="585.2177">*</text></g><!--link Task to TaskCategory--><g id="link_Task_TaskCategory"><path codeLine="143" d="M948.76,1351.8011 C946.38,1361.7411 944.35,1371.8711 943,1381.6211 C936.6,1427.9911 939.96,1482.6511 942.98,1514.4411 " fill="none" id="Task-TaskCategory" style="stroke:#181818;stroke-width:1.0;"/><polygon fill="#000000" points="947.8224,1396.2634,951.0807,1387.3284,945.2066,1387.1197,947.8224,1396.2634" style="stroke:#000000;stroke-width:1.0;"/><text fill="#000000" font-family="sans-serif" font-size="13" lengthAdjust="spacing" textLength="103" x="957" y="1396.6494">categorized under</text><text fill="#000000" font-family="sans-serif" font-size="13" lengthAdjust="spacing" textLength="7" x="939.1278" y="1373.9654">1</text><text fill="#000000" font-family="sans-serif" font-size="13" lengthAdjust="spacing" textLength="7" x="934.5538" y="1503.5604">1</text></g><!--link Task to Vehicle--><g id="link_Task_Vehicle"><path codeLine="145" d="M903.32,1351.7111 C894.35,1361.6611 885.37,1371.8211 877,1381.6211 C857.64,1404.3011 837.33,1429.3811 818.81,1452.8111 " fill="none" id="Task-Vehicle" style="stroke:#181818;stroke-width:1.0;"/><polygon fill="#000000" points="878.7933,1395.1029,886.8492,1390.0479,882.3394,1386.2781,878.7933,1395.1029" style="stroke:#000000;stroke-width:1.0;"/><text fill="#000000" font-family="sans-serif" font-size="13" lengthAdjust="spacing" textLength="41" x="891" y="1396.6494">utilizes</text><text fill="#000000" font-family="sans-serif" font-size="13" lengthAdjust="spacing" textLength="7" x="888.8764" y="1374.2536">1</text><text fill="#000000" font-family="sans-serif" font-size="13" lengthAdjust="spacing" textLength="5" x="826.5002" y="1439.1665">*</text></g><!--link Task to GreenSpace--><g id="link_Task_GreenSpace"><path codeLine="148" d="M1041.53,1351.3811 C1049.81,1361.2511 1057.85,1371.4811 1065,1381.6211 C1093.11,1421.4611 1118.71,1471.5311 1134.53,1504.8311 " fill="none" id="Task-GreenSpace" style="stroke:#181818;stroke-width:1.0;"/><polygon fill="#000000" points="1082.5915,1395.5426,1080.4168,1386.284,1075.3901,1389.3305,1082.5915,1395.5426" style="stroke:#000000;stroke-width:1.0;"/><text fill="#000000" font-family="sans-serif" font-size="13" lengthAdjust="spacing" textLength="56" x="1089" y="1396.6494">maintains</text><text fill="#000000" font-family="sans-serif" font-size="13" lengthAdjust="spacing" textLength="7" x="1041.3393" y="1373.8896">1</text><text fill="#000000" font-family="sans-serif" font-size="13" lengthAdjust="spacing" textLength="7" x="1123.9728" y="1493.7412">1</text></g><!--link Equipment to Task--><g id="link_Equipment_Task"><path codeLine="151" d="M996.16,1050.2211 C992.32,1086.2511 985.3,1151.9711 979.82,1203.3511 " fill="none" id="Equipment-Task" style="stroke:#181818;stroke-width:1.0;"/><polygon fill="#000000" points="988.4695,1169.2384,992.3515,1160.5562,986.5069,1159.9325,988.4695,1169.2384" style="stroke:#000000;stroke-width:1.0;"/><text fill="#000000" font-family="sans-serif" font-size="13" lengthAdjust="spacing" textLength="55" x="998" y="1169.6494">facilitates</text><text fill="#000000" font-family="sans-serif" font-size="13" lengthAdjust="spacing" textLength="7" x="987.6939" y="1072.6032">1</text><text fill="#000000" font-family="sans-serif" font-size="13" lengthAdjust="spacing" textLength="5" x="975.3271" y="1192.4877">*</text></g><!--link Team to Equipment--><g id="link_Team_Equipment"><path codeLine="153" d="M644.7,816.4911 C677.79,828.3211 730.79,848.6511 774,871.6211 C844.47,909.0811 920.57,962.9311 963.74,994.8911 " fill="none" id="Team-Equipment" style="stroke:#181818;stroke-width:1.0;"/><polygon fill="#000000" points="815.3641,883.7069,808.9038,876.7272,806.035,881.8575,815.3641,883.7069" style="stroke:#000000;stroke-width:1.0;"/><text fill="#000000" font-family="sans-serif" font-size="13" lengthAdjust="spacing" textLength="38" x="820" y="886.6494">equips</text><text fill="#000000" font-family="sans-serif" font-size="13" lengthAdjust="spacing" textLength="7" x="652.4" y="814.3034">1</text><text fill="#000000" font-family="sans-serif" font-size="13" lengthAdjust="spacing" textLength="5" x="950.48" y="983.9994">*</text></g><!--link Agenda to Team--><g id="link_Agenda_Team"><path codeLine="156" d="M860.33,668.0911 C800.74,700.7511 696.71,757.7511 644.61,786.3011 " fill="none" id="Agenda-Team" style="stroke:#181818;stroke-width:1.0;"/><polygon fill="#000000" points="767.6152,730.6694,776.9597,728.9,774.1351,723.7454,767.6152,730.6694" style="stroke:#000000;stroke-width:1.0;"/><text fill="#000000" font-family="sans-serif" font-size="13" lengthAdjust="spacing" textLength="31" x="781" y="733.6494">plans</text><text fill="#000000" font-family="sans-serif" font-size="13" lengthAdjust="spacing" textLength="7" x="845.3518" y="667.9141">1</text><text fill="#000000" font-family="sans-serif" font-size="13" lengthAdjust="spacing" textLength="5" x="652.4979" y="777.1767">*</text></g><!--link Agenda to Task--><g id="link_Agenda_Task"><path codeLine="157" d="M906.24,688.6311 C909.1,774.0711 917.83,965.4311 942,1124.6211 C945.92,1150.4211 951.17,1178.4911 956.19,1203.4011 " fill="none" id="Agenda-Task" style="stroke:#181818;stroke-width:1.0;"/><polygon fill="#000000" points="921.4829,886.2432,923.5345,876.9566,917.6841,877.5243,921.4829,886.2432" style="stroke:#000000;stroke-width:1.0;"/><text fill="#000000" font-family="sans-serif" font-size="13" lengthAdjust="spacing" textLength="59" x="930" y="886.6494">schedules</text><text fill="#000000" font-family="sans-serif" font-size="13" lengthAdjust="spacing" textLength="7" x="898.8939" y="710.9915">1</text><text fill="#000000" font-family="sans-serif" font-size="13" lengthAdjust="spacing" textLength="5" x="949.3876" y="1192.2839">*</text></g><!--SRC=[bLRDRjms4BxhAOYz60YI8Bdk8K3gTL8ts3h8kisPIuuaOYbI8IdRcw8FK_GGv92ds1Vh32cjACa96iE6HSutF_pupKZ-e4pB7MzOOuqLjRCDiE0wAFpPqd9nu1Nimb43So02DvNE0RxcqjuhKx6IQm_5nMZIoa0uji2i2xKjBZIKWGNBdAhgmAIYSCgQB9ZGtFlN8JYrxm9S2sjswZEm5qMj932XdC3SyRa132bz4LJ0mZQsuSgmhPMWsLi7ODWEAmVFThOCzzm1stA3vsZ0XA8eOXvsuofkr6TEHR2_2eO_XZSG7-vu-Brhzk3YggsjIVk0YVHx1wLwAFuU0ltwOJltZxZaYuXxw-G8VxlxAVYVRtuAlZiehNE7i-Ktkx_a0IhhZe_QBwtMV6yT3zRDCqfql2b_KNYJSSrbexn7uZPew7Ua0-_dzH5p6PFIYkjDjlQ1XouvUIhSZ-LihBWbzQHAI4YZxHPGBSdGy0SIINfMKJ246yY3Mg5eUkpUSICJagIIAjJ32MAA-822YG-Lizv_1D9hN8lEELJGksrSEQYK3-162iIdJdaLSbfA1vywCE9uMOCul6iokcdZZxOlxT3ucp9kPNodzIWSKdOKzlnwj1LHnhk0a93nnFsXnw9c0OiN_Ns25qwriVzehKnfNSFrPhOVGDH6YQL1TewV5yBwBEaLij1IfsLLtlRNDs1ULs0axm7L-Lo39bmO2LH6-Jek9yUQIJa_4EAe9LSlL-pPCxPwiff8VusIeLdWsQivRD81QvHng-tn4LpgiHy4YlfSCpmaOB28AAYFCyYWp3nACIbW0B-Srxy7RKtbQPQ- -gxBq3vhXlFI15Kga6n_N7WyMPogHT43_L95yIJVfqWPeJiPeNFa48uQ06Tzug0_T1wmRuCrwum4Lzc4d0pd37uLxmGGXFTZX6re0YQNqPJHG1SpHpuAfElvNq0QtulSj9bLcNNgcWa7lGPcgDYTWtrf7ljeef4Pgk-a2IG6pagUz0icJ8yuAMKYVU4pqMSNb4OiHRv8DPztUj2QNVaM16fCS8RZ3blUnobQudz_-jVs7lYfuDaTdBw9Jbl_V5deX3TwfmVyYuaZSjmPWMjsRUIGDqkBT8JJruPXHl0jFts9gHrg5VEEr2wle-G2QmtzbLsmrGZEJOHUJP9RHaflEK7j6SiuWmSGtUaByI372fyotrNWb94skdjePY6un1LozZG_LujlBgVeomll3Gdn-2LL8gD0JnJ5OHnKLAIRus7dVPdBAcPBnznoKUC7sx15NdDgczC_QAIxxQjavqSYjLVYSWpYApPUuYE0HBaNDSXE9y9xL7AA4V2bdK78Po4uf7bq0yMfCfmTTqfocavoB9J101r9VLxy1m00]--></g></svg>