<?xml version="1.0" encoding="us-ascii" standalone="no"?><svg xmlns="http://www.w3.org/2000/svg" xmlns:xlink="http://www.w3.org/1999/xlink" contentStyleType="text/css" height="1172px" preserveAspectRatio="none" style="width:1680px;height:1172px;background:#FFFFFF;" version="1.1" viewBox="0 0 1680 1172" width="1680px" zoomAndPan="magnify"><defs/><g><rect fill="#FFFFFF" height="978.0781" style="stroke:#181818;stroke-width:1.0;" width="10" x="18" y="93.6211"/><rect fill="#FFFFFF" height="218.998" style="stroke:#181818;stroke-width:1.0;" width="10" x="424" y="116.9121"/><rect fill="#FFFFFF" height="159.416" style="stroke:#181818;stroke-width:1.0;" width="10" x="424" y="367.2012"/><rect fill="#FFFFFF" height="31.291" style="stroke:#181818;stroke-width:1.0;" width="10" x="424" y="557.9082"/><rect fill="#FFFFFF" height="31.291" style="stroke:#181818;stroke-width:1.0;" width="10" x="424" y="655.0723"/><rect fill="#FFFFFF" height="354.0449" style="stroke:#181818;stroke-width:1.0;" width="10" x="424" y="717.6543"/><rect fill="#FFFFFF" height="95.5039" style="stroke:#181818;stroke-width:1.0;" width="10" x="816" y="191.8242"/><rect fill="#FFFFFF" height="79.543" style="stroke:#181818;stroke-width:1.0;" width="10" x="816" y="398.4922"/><rect fill="#FFFFFF" height="256.8809" style="stroke:#181818;stroke-width:1.0;" width="10" x="816" y="783.5273"/><rect fill="#FFFFFF" height="95.5039" style="stroke:#181818;stroke-width:1.0;" width="10" x="1400.5" y="913.6133"/><line style="stroke:#181818;stroke-width:0.5;stroke-dasharray:5.0,5.0;" x1="23" x2="23" y1="83.6211" y2="1089.6992"/><line style="stroke:#181818;stroke-width:0.5;stroke-dasharray:5.0,5.0;" x1="428.5" x2="428.5" y1="83.6211" y2="1089.6992"/><line style="stroke:#181818;stroke-width:0.5;stroke-dasharray:5.0,5.0;" x1="820.5" x2="820.5" y1="156.7227" y2="1089.6992"/><line style="stroke:#181818;stroke-width:0.5;stroke-dasharray:5.0,5.0;" x1="984.5" x2="984.5" y1="83.6211" y2="1089.6992"/><line style="stroke:#181818;stroke-width:0.5;stroke-dasharray:5.0,5.0;" x1="1091.5" x2="1091.5" y1="83.6211" y2="1089.6992"/><line style="stroke:#181818;stroke-width:0.5;stroke-dasharray:5.0,5.0;" x1="1231.5" x2="1231.5" y1="83.6211" y2="1089.6992"/><line style="stroke:#181818;stroke-width:0.5;stroke-dasharray:5.0,5.0;" x1="1405.5" x2="1405.5" y1="83.6211" y2="1089.6992"/><line style="stroke:#181818;stroke-width:0.5;stroke-dasharray:5.0,5.0;" x1="1545.5" x2="1545.5" y1="83.6211" y2="1089.6992"/><line style="stroke:#181818;stroke-width:0.5;stroke-dasharray:5.0,5.0;" x1="1638.5" x2="1638.5" y1="83.6211" y2="1089.6992"/><text fill="#000000" font-family="sans-serif" font-size="14" lengthAdjust="spacing" textLength="30" x="5" y="80.1074">HRM</text><ellipse cx="23" cy="13.5" fill="#E3E3E3" rx="8" ry="8" style="stroke:#181818;stroke-width:0.5;"/><path d="M23,21.5 L23,48.5 M10,29.5 L36,29.5 M23,48.5 L10,63.5 M23,48.5 L36,63.5 " fill="none" style="stroke:#181818;stroke-width:0.5;"/><text fill="#000000" font-family="sans-serif" font-size="14" lengthAdjust="spacing" textLength="30" x="5" y="1103.8066">HRM</text><ellipse cx="23" cy="1115.8203" fill="#E3E3E3" rx="8" ry="8" style="stroke:#181818;stroke-width:0.5;"/><path d="M23,1123.8203 L23,1150.8203 M10,1131.8203 L36,1131.8203 M23,1150.8203 L10,1165.8203 M23,1150.8203 L36,1165.8203 " fill="none" style="stroke:#181818;stroke-width:0.5;"/><rect fill="#E3E3E3" height="32.6211" rx="2.5" ry="2.5" style="stroke:#181818;stroke-width:0.5;" width="161" x="348.5" y="50"/><text fill="#000000" font-family="sans-serif" font-size="14" lengthAdjust="spacing" textLength="147" x="355.5" y="72.1074">:RegisterCollaboratorUI</text><rect fill="#E3E3E3" height="32.6211" rx="2.5" ry="2.5" style="stroke:#181818;stroke-width:0.5;" width="161" x="348.5" y="1088.6992"/><text fill="#000000" font-family="sans-serif" font-size="14" lengthAdjust="spacing" textLength="147" x="355.5" y="1110.8066">:RegisterCollaboratorUI</text><rect fill="#E3E3E3" height="32.6211" rx="2.5" ry="2.5" style="stroke:#181818;stroke-width:0.5;" width="211" x="715.5" y="1088.6992"/><text fill="#000000" font-family="sans-serif" font-size="14" lengthAdjust="spacing" textLength="197" x="722.5" y="1110.8066">:RegisterCollaboratorController</text><rect fill="#E3E3E3" height="32.6211" rx="2.5" ry="2.5" style="stroke:#181818;stroke-width:0.5;" width="97" x="936.5" y="50"/><text fill="#000000" font-family="sans-serif" font-size="14" lengthAdjust="spacing" textLength="83" x="943.5" y="72.1074">:Repositories</text><rect fill="#E3E3E3" height="32.6211" rx="2.5" ry="2.5" style="stroke:#181818;stroke-width:0.5;" width="97" x="936.5" y="1088.6992"/><text fill="#000000" font-family="sans-serif" font-size="14" lengthAdjust="spacing" textLength="83" x="943.5" y="1110.8066">:Repositories</text><rect fill="#E3E3E3" height="51.2422" rx="2.5" ry="2.5" style="stroke:#181818;stroke-width:0.5;" width="97" x="1043.5" y="31.3789"/><text fill="#000000" font-family="sans-serif" font-size="14" lengthAdjust="spacing" textLength="74" x="1055" y="53.4863">repositories</text><text fill="#000000" font-family="sans-serif" font-size="14" lengthAdjust="spacing" textLength="83" x="1050.5" y="72.1074">:Repositories</text><rect fill="#E3E3E3" height="51.2422" rx="2.5" ry="2.5" style="stroke:#181818;stroke-width:0.5;" width="97" x="1043.5" y="1088.6992"/><text fill="#000000" font-family="sans-serif" font-size="14" lengthAdjust="spacing" textLength="74" x="1055" y="1110.8066">repositories</text><text fill="#000000" font-family="sans-serif" font-size="14" lengthAdjust="spacing" textLength="83" x="1050.5" y="1129.4277">:Repositories</text><rect fill="#E3E3E3" height="51.2422" rx="2.5" ry="2.5" style="stroke:#181818;stroke-width:0.5;" width="163" x="1150.5" y="31.3789"/><text fill="#000000" font-family="sans-serif" font-size="14" lengthAdjust="spacing" textLength="149" x="1157.5" y="53.4863">jobCategoryRepository:</text><text fill="#000000" font-family="sans-serif" font-size="14" lengthAdjust="spacing" textLength="148" x="1158" y="72.1074">JobCategoryRepository</text><rect fill="#E3E3E3" height="51.2422" rx="2.5" ry="2.5" style="stroke:#181818;stroke-width:0.5;" width="163" x="1150.5" y="1088.6992"/><text fill="#000000" font-family="sans-serif" font-size="14" lengthAdjust="spacing" textLength="149" x="1157.5" y="1110.8066">jobCategoryRepository:</text><text fill="#000000" font-family="sans-serif" font-size="14" lengthAdjust="spacing" textLength="148" x="1158" y="1129.4277">JobCategoryRepository</text><rect fill="#E3E3E3" height="51.2422" rx="2.5" ry="2.5" style="stroke:#181818;stroke-width:0.5;" width="164" x="1323.5" y="31.3789"/><text fill="#000000" font-family="sans-serif" font-size="14" lengthAdjust="spacing" textLength="143" x="1334" y="53.4863">collaboratorRepository</text><text fill="#000000" font-family="sans-serif" font-size="14" lengthAdjust="spacing" textLength="150" x="1330.5" y="72.1074">:CollaboratorRepository</text><rect fill="#E3E3E3" height="51.2422" rx="2.5" ry="2.5" style="stroke:#181818;stroke-width:0.5;" width="164" x="1323.5" y="1088.6992"/><text fill="#000000" font-family="sans-serif" font-size="14" lengthAdjust="spacing" textLength="143" x="1334" y="1110.8066">collaboratorRepository</text><text fill="#000000" font-family="sans-serif" font-size="14" lengthAdjust="spacing" textLength="150" x="1330.5" y="1129.4277">:CollaboratorRepository</text><rect fill="#E3E3E3" height="51.2422" rx="2.5" ry="2.5" style="stroke:#181818;stroke-width:0.5;" width="96" x="1497.5" y="31.3789"/><text fill="#000000" font-family="sans-serif" font-size="14" lengthAdjust="spacing" textLength="75" x="1508" y="53.4863">collaborator</text><text fill="#000000" font-family="sans-serif" font-size="14" lengthAdjust="spacing" textLength="82" x="1504.5" y="72.1074">:Collaborator</text><rect fill="#E3E3E3" height="51.2422" rx="2.5" ry="2.5" style="stroke:#181818;stroke-width:0.5;" width="96" x="1497.5" y="1088.6992"/><text fill="#000000" font-family="sans-serif" font-size="14" lengthAdjust="spacing" textLength="75" x="1508" y="1110.8066">collaborator</text><text fill="#000000" font-family="sans-serif" font-size="14" lengthAdjust="spacing" textLength="82" x="1504.5" y="1129.4277">:Collaborator</text><rect fill="#E3E3E3" height="32.6211" rx="2.5" ry="2.5" style="stroke:#181818;stroke-width:0.5;" width="71" x="1603.5" y="50"/><text fill="#000000" font-family="sans-serif" font-size="14" lengthAdjust="spacing" textLength="57" x="1610.5" y="72.1074">DocType</text><rect fill="#E3E3E3" height="32.6211" rx="2.5" ry="2.5" style="stroke:#181818;stroke-width:0.5;" width="71" x="1603.5" y="1088.6992"/><text fill="#000000" font-family="sans-serif" font-size="14" lengthAdjust="spacing" textLength="57" x="1610.5" y="1110.8066">DocType</text><rect fill="#FFFFFF" height="978.0781" style="stroke:#181818;stroke-width:1.0;" width="10" x="18" y="93.6211"/><rect fill="#FFFFFF" height="218.998" style="stroke:#181818;stroke-width:1.0;" width="10" x="424" y="116.9121"/><rect fill="#FFFFFF" height="159.416" style="stroke:#181818;stroke-width:1.0;" width="10" x="424" y="367.2012"/><rect fill="#FFFFFF" height="31.291" style="stroke:#181818;stroke-width:1.0;" width="10" x="424" y="557.9082"/><rect fill="#FFFFFF" height="31.291" style="stroke:#181818;stroke-width:1.0;" width="10" x="424" y="655.0723"/><rect fill="#FFFFFF" height="354.0449" style="stroke:#181818;stroke-width:1.0;" width="10" x="424" y="717.6543"/><rect fill="#FFFFFF" height="95.5039" style="stroke:#181818;stroke-width:1.0;" width="10" x="816" y="191.8242"/><rect fill="#FFFFFF" height="79.543" style="stroke:#181818;stroke-width:1.0;" width="10" x="816" y="398.4922"/><rect fill="#FFFFFF" height="256.8809" style="stroke:#181818;stroke-width:1.0;" width="10" x="816" y="783.5273"/><rect fill="#FFFFFF" height="95.5039" style="stroke:#181818;stroke-width:1.0;" width="10" x="1400.5" y="913.6133"/><polygon fill="#181818" points="412,112.9121,422,116.9121,412,120.9121,416,116.9121" style="stroke:#181818;stroke-width:1.0;"/><line style="stroke:#181818;stroke-width:1.0;" x1="28" x2="418" y1="116.9121" y2="116.9121"/><text fill="#000000" font-family="sans-serif" font-size="13" font-weight="bold" lengthAdjust="spacing" textLength="7" x="35" y="111.6494">1</text><text fill="#000000" font-family="sans-serif" font-size="13" lengthAdjust="spacing" textLength="174" x="46" y="111.6494">asks to register a Collaborator</text><polygon fill="#181818" points="703.5,144.2031,713.5,148.2031,703.5,152.2031,707.5,148.2031" style="stroke:#181818;stroke-width:1.0;"/><line style="stroke:#181818;stroke-width:1.0;" x1="434" x2="709.5" y1="148.2031" y2="148.2031"/><text fill="#000000" font-family="sans-serif" font-size="13" font-weight="bold" lengthAdjust="spacing" textLength="7" x="441" y="142.9404">2</text><text fill="#000000" font-family="sans-serif" font-size="13" lengthAdjust="spacing" textLength="36" x="452" y="142.9404">create</text><rect fill="#E3E3E3" height="32.6211" rx="2.5" ry="2.5" style="stroke:#181818;stroke-width:0.5;" width="211" x="715.5" y="124.9121"/><text fill="#000000" font-family="sans-serif" font-size="14" lengthAdjust="spacing" textLength="197" x="722.5" y="147.0195">:RegisterCollaboratorController</text><polygon fill="#181818" points="804,187.8242,814,191.8242,804,195.8242,808,191.8242" style="stroke:#181818;stroke-width:1.0;"/><line style="stroke:#181818;stroke-width:1.0;" x1="434" x2="810" y1="191.8242" y2="191.8242"/><text fill="#000000" font-family="sans-serif" font-size="13" font-weight="bold" lengthAdjust="spacing" textLength="7" x="441" y="186.5615">3</text><text fill="#000000" font-family="sans-serif" font-size="13" lengthAdjust="spacing" textLength="108" x="452" y="186.5615">getJobCategories()</text><rect fill="none" height="59.2129" style="stroke:#000000;stroke-width:1.5;" width="217" x="712.5" y="199.8242"/><path d="M712.5,199.8242 L774.5,199.8242 L774.5,208.8242 L764.5,218.8242 L712.5,218.8242 L712.5,199.8242 " fill="#EEEEEE" style="stroke:#000000;stroke-width:2.0;"/><text fill="#000000" font-family="sans-serif" font-size="13" font-weight="bold" lengthAdjust="spacing" textLength="17" x="725.5" y="215.8525">ref</text><text fill="#000000" font-family="sans-serif" font-size="12" lengthAdjust="spacing" textLength="111" x="765.5" y="235.7734">Get JobCategoryList</text><text fill="#000000" font-family="sans-serif" font-size="12" lengthAdjust="spacing" textLength="3" x="819.5" y="251.7344">&#160;</text><polygon fill="#181818" points="445,283.3281,435,287.3281,445,291.3281,441,287.3281" style="stroke:#181818;stroke-width:1.0;"/><line style="stroke:#181818;stroke-width:1.0;stroke-dasharray:2.0,2.0;" x1="439" x2="820" y1="287.3281" y2="287.3281"/><text fill="#000000" font-family="sans-serif" font-size="13" font-weight="bold" lengthAdjust="spacing" textLength="7" x="451" y="282.0654">4</text><text fill="#000000" font-family="sans-serif" font-size="13" lengthAdjust="spacing" textLength="90" x="462" y="282.0654">jobCategoryList</text><polygon fill="#181818" points="39,331.9102,29,335.9102,39,339.9102,35,335.9102" style="stroke:#181818;stroke-width:1.0;"/><line style="stroke:#181818;stroke-width:1.0;stroke-dasharray:2.0,2.0;" x1="33" x2="428" y1="335.9102" y2="335.9102"/><text fill="#000000" font-family="sans-serif" font-size="13" font-weight="bold" lengthAdjust="spacing" textLength="7" x="45" y="322.002">5</text><text fill="#000000" font-family="sans-serif" font-size="13" lengthAdjust="spacing" textLength="133" x="56" y="313.3564">shows job category list</text><text fill="#000000" font-family="sans-serif" font-size="13" lengthAdjust="spacing" textLength="132" x="60" y="330.6475">and asks to select one</text><polygon fill="#181818" points="412,363.2012,422,367.2012,412,371.2012,416,367.2012" style="stroke:#181818;stroke-width:1.0;"/><line style="stroke:#181818;stroke-width:1.0;" x1="28" x2="418" y1="367.2012" y2="367.2012"/><text fill="#000000" font-family="sans-serif" font-size="13" font-weight="bold" lengthAdjust="spacing" textLength="7" x="35" y="361.9385">6</text><text fill="#000000" font-family="sans-serif" font-size="13" lengthAdjust="spacing" textLength="128" x="46" y="361.9385">selects a job category</text><polygon fill="#181818" points="804,394.4922,814,398.4922,804,402.4922,808,398.4922" style="stroke:#181818;stroke-width:1.0;"/><line style="stroke:#181818;stroke-width:1.0;" x1="434" x2="810" y1="398.4922" y2="398.4922"/><text fill="#000000" font-family="sans-serif" font-size="13" font-weight="bold" lengthAdjust="spacing" textLength="7" x="441" y="393.2295">7</text><text fill="#000000" font-family="sans-serif" font-size="13" lengthAdjust="spacing" textLength="98" x="452" y="393.2295">getDocTypeList()</text><rect fill="none" height="43.252" style="stroke:#000000;stroke-width:1.5;" width="246" x="712.5" y="406.4922"/><path d="M712.5,406.4922 L774.5,406.4922 L774.5,415.4922 L764.5,425.4922 L712.5,425.4922 L712.5,406.4922 " fill="#EEEEEE" style="stroke:#000000;stroke-width:2.0;"/><text fill="#000000" font-family="sans-serif" font-size="13" font-weight="bold" lengthAdjust="spacing" textLength="17" x="725.5" y="422.5205">ref</text><text fill="#000000" font-family="sans-serif" font-size="12" lengthAdjust="spacing" textLength="238" x="716.5" y="442.4414">Get DocTypeList with Class Enum DocType</text><polygon fill="#181818" points="445,474.0352,435,478.0352,445,482.0352,441,478.0352" style="stroke:#181818;stroke-width:1.0;"/><line style="stroke:#181818;stroke-width:1.0;stroke-dasharray:2.0,2.0;" x1="439" x2="820" y1="478.0352" y2="478.0352"/><text fill="#000000" font-family="sans-serif" font-size="13" font-weight="bold" lengthAdjust="spacing" textLength="7" x="451" y="472.7725">8</text><text fill="#000000" font-family="sans-serif" font-size="13" lengthAdjust="spacing" textLength="70" x="462" y="472.7725">docTypeList</text><polygon fill="#181818" points="39,522.6172,29,526.6172,39,530.6172,35,526.6172" style="stroke:#181818;stroke-width:1.0;"/><line style="stroke:#181818;stroke-width:1.0;stroke-dasharray:2.0,2.0;" x1="33" x2="428" y1="526.6172" y2="526.6172"/><text fill="#000000" font-family="sans-serif" font-size="13" font-weight="bold" lengthAdjust="spacing" textLength="7" x="45" y="512.709">9</text><text fill="#000000" font-family="sans-serif" font-size="13" lengthAdjust="spacing" textLength="111" x="56" y="504.0635">shows docTypeList</text><text fill="#000000" font-family="sans-serif" font-size="13" lengthAdjust="spacing" textLength="132" x="60" y="521.3545">and asks to select one</text><polygon fill="#181818" points="412,553.9082,422,557.9082,412,561.9082,416,557.9082" style="stroke:#181818;stroke-width:1.0;"/><line style="stroke:#181818;stroke-width:1.0;" x1="28" x2="418" y1="557.9082" y2="557.9082"/><text fill="#000000" font-family="sans-serif" font-size="13" font-weight="bold" lengthAdjust="spacing" textLength="14" x="35" y="552.6455">10</text><text fill="#000000" font-family="sans-serif" font-size="13" lengthAdjust="spacing" textLength="106" x="53" y="552.6455">selects a docType</text><polygon fill="#181818" points="39,585.1992,29,589.1992,39,593.1992,35,589.1992" style="stroke:#181818;stroke-width:1.0;"/><line style="stroke:#181818;stroke-width:1.0;stroke-dasharray:2.0,2.0;" x1="33" x2="428" y1="589.1992" y2="589.1992"/><text fill="#000000" font-family="sans-serif" font-size="13" font-weight="bold" lengthAdjust="spacing" textLength="14" x="45" y="583.9365">11</text><text fill="#000000" font-family="sans-serif" font-size="13" lengthAdjust="spacing" textLength="79" x="63" y="583.9365">requests data</text><polygon fill="#181818" points="412,651.0723,422,655.0723,412,659.0723,416,655.0723" style="stroke:#181818;stroke-width:1.0;"/><line style="stroke:#181818;stroke-width:1.0;" x1="28" x2="418" y1="655.0723" y2="655.0723"/><text fill="#000000" font-family="sans-serif" font-size="13" font-weight="bold" lengthAdjust="spacing" textLength="14" x="35" y="632.5186">12</text><text fill="#000000" font-family="sans-serif" font-size="13" lengthAdjust="spacing" textLength="359" x="53" y="615.2275">types requested data (name, date of birthday, admission data,</text><text fill="#000000" font-family="sans-serif" font-size="13" lengthAdjust="spacing" textLength="258" x="57" y="632.5186">address street, zipcode, address city, email,</text><text fill="#000000" font-family="sans-serif" font-size="13" lengthAdjust="spacing" textLength="196" x="57" y="649.8096">phone number, number of ID card)</text><polygon fill="#181818" points="39,682.3633,29,686.3633,39,690.3633,35,686.3633" style="stroke:#181818;stroke-width:1.0;"/><line style="stroke:#181818;stroke-width:1.0;stroke-dasharray:2.0,2.0;" x1="33" x2="428" y1="686.3633" y2="686.3633"/><text fill="#000000" font-family="sans-serif" font-size="13" font-weight="bold" lengthAdjust="spacing" textLength="14" x="45" y="681.1006">13</text><text fill="#000000" font-family="sans-serif" font-size="13" lengthAdjust="spacing" textLength="259" x="63" y="681.1006">shows selected category and requested data</text><polygon fill="#181818" points="412,713.6543,422,717.6543,412,721.6543,416,717.6543" style="stroke:#181818;stroke-width:1.0;"/><line style="stroke:#181818;stroke-width:1.0;" x1="28" x2="418" y1="717.6543" y2="717.6543"/><text fill="#000000" font-family="sans-serif" font-size="13" font-weight="bold" lengthAdjust="spacing" textLength="14" x="35" y="712.3916">14</text><text fill="#000000" font-family="sans-serif" font-size="13" lengthAdjust="spacing" textLength="75" x="53" y="712.3916">submits data</text><polygon fill="#181818" points="804,779.5273,814,783.5273,804,787.5273,808,783.5273" style="stroke:#181818;stroke-width:1.0;"/><line style="stroke:#181818;stroke-width:1.0;" x1="434" x2="810" y1="783.5273" y2="783.5273"/><text fill="#000000" font-family="sans-serif" font-size="13" font-weight="bold" lengthAdjust="spacing" textLength="14" x="441" y="760.9736">15</text><text fill="#000000" font-family="sans-serif" font-size="13" lengthAdjust="spacing" textLength="345" x="459" y="743.6826">registerCollaborator(name, date of birthday, admission data,</text><text fill="#000000" font-family="sans-serif" font-size="13" lengthAdjust="spacing" textLength="258" x="463" y="760.9736">address street, zipcode, address city, email,</text><text fill="#000000" font-family="sans-serif" font-size="13" lengthAdjust="spacing" textLength="306" x="463" y="778.2646">phone number, docType, docIDNumber, jobCategory)</text><rect fill="none" height="59.2129" style="stroke:#000000;stroke-width:1.5;" width="217" x="712.5" y="791.5273"/><path d="M712.5,791.5273 L774.5,791.5273 L774.5,800.5273 L764.5,810.5273 L712.5,810.5273 L712.5,791.5273 " fill="#EEEEEE" style="stroke:#000000;stroke-width:2.0;"/><text fill="#000000" font-family="sans-serif" font-size="13" font-weight="bold" lengthAdjust="spacing" textLength="17" x="725.5" y="807.5557">ref</text><text fill="#000000" font-family="sans-serif" font-size="12" lengthAdjust="spacing" textLength="195" x="723.5" y="827.4766">Verify Doc Type with DocType Class</text><text fill="#000000" font-family="sans-serif" font-size="12" lengthAdjust="spacing" textLength="3" x="819.5" y="843.4375">&#160;</text><polygon fill="#181818" points="1388.5,909.6133,1398.5,913.6133,1388.5,917.6133,1392.5,913.6133" style="stroke:#181818;stroke-width:1.0;"/><line style="stroke:#181818;stroke-width:1.0;" x1="826" x2="1394.5" y1="913.6133" y2="913.6133"/><text fill="#000000" font-family="sans-serif" font-size="13" font-weight="bold" lengthAdjust="spacing" textLength="14" x="833" y="891.0596">16</text><text fill="#000000" font-family="sans-serif" font-size="13" lengthAdjust="spacing" textLength="249" x="851" y="873.7686">registerCollaborator(name, date of birthday,</text><text fill="#000000" font-family="sans-serif" font-size="13" lengthAdjust="spacing" textLength="444" x="855" y="891.0596">admission data, address street, zipcode, address city, email, phone number,</text><text fill="#000000" font-family="sans-serif" font-size="13" lengthAdjust="spacing" textLength="216" x="855" y="908.3506">docType, docIDNumber, jobCategory)</text><rect fill="none" height="59.2129" style="stroke:#000000;stroke-width:1.5;" width="170" x="1320.5" y="921.6133"/><path d="M1320.5,921.6133 L1382.5,921.6133 L1382.5,930.6133 L1372.5,940.6133 L1320.5,940.6133 L1320.5,921.6133 " fill="#EEEEEE" style="stroke:#000000;stroke-width:2.0;"/><text fill="#000000" font-family="sans-serif" font-size="13" font-weight="bold" lengthAdjust="spacing" textLength="17" x="1333.5" y="937.6416">ref</text><text fill="#000000" font-family="sans-serif" font-size="12" lengthAdjust="spacing" textLength="162" x="1324.5" y="957.5625">Create and Save Collaborator</text><text fill="#000000" font-family="sans-serif" font-size="12" lengthAdjust="spacing" textLength="3" x="1404" y="973.5234">&#160;</text><polygon fill="#181818" points="837,1005.1172,827,1009.1172,837,1013.1172,833,1009.1172" style="stroke:#181818;stroke-width:1.0;"/><line style="stroke:#181818;stroke-width:1.0;stroke-dasharray:2.0,2.0;" x1="831" x2="1404.5" y1="1009.1172" y2="1009.1172"/><text fill="#000000" font-family="sans-serif" font-size="13" font-weight="bold" lengthAdjust="spacing" textLength="14" x="843" y="1003.8545">17</text><text fill="#000000" font-family="sans-serif" font-size="13" lengthAdjust="spacing" textLength="122" x="861" y="1003.8545">true / collaboratorList</text><polygon fill="#181818" points="445,1036.4082,435,1040.4082,445,1044.4082,441,1040.4082" style="stroke:#181818;stroke-width:1.0;"/><line style="stroke:#181818;stroke-width:1.0;stroke-dasharray:2.0,2.0;" x1="439" x2="820" y1="1040.4082" y2="1040.4082"/><text fill="#000000" font-family="sans-serif" font-size="13" font-weight="bold" lengthAdjust="spacing" textLength="14" x="451" y="1035.1455">18</text><text fill="#000000" font-family="sans-serif" font-size="13" lengthAdjust="spacing" textLength="122" x="469" y="1035.1455">true / collaboratorList</text><polygon fill="#181818" points="34,1067.6992,24,1071.6992,34,1075.6992,30,1071.6992" style="stroke:#181818;stroke-width:1.0;"/><line style="stroke:#181818;stroke-width:1.0;stroke-dasharray:2.0,2.0;" x1="28" x2="428" y1="1071.6992" y2="1071.6992"/><text fill="#000000" font-family="sans-serif" font-size="13" font-weight="bold" lengthAdjust="spacing" textLength="14" x="40" y="1066.4365">19</text><text fill="#000000" font-family="sans-serif" font-size="13" lengthAdjust="spacing" textLength="292" x="58" y="1066.4365">displays operation success / show collaboratorList</text><!--SRC=[lLPBRzim3BxxLn2zj1rIz9v3WI4TjWpTCBJfJhqe4fEejILFKbfaltwKx3YINt0kqyKFaPz8Vdp8labLCiCAABJIV6TqWU3C7ZFRx9IClx4jFhb3Zc2GEwQsUInWTqpe3wcsi66vnInZUwVLlbYZeNVkj86BRuy_Be1Pe6T6MavoMJBbu6B-Y5jf7Pg5pdEsreQH_FCo23yl9yWkj7A6lj44dSNgyQ6ZLMehILIY3JBDZyEJzBwGjQcAYJHUL1VWryFdLQhngjSBvd1Bc2Vq-OlwtlS_OFJkfA0ySlCaGmOjUZSg_tktXd5RQ1sCLFDUyzMXn21rlmhiodVo8l2QGRte0sxkY3wOa-2R1QSfSIhgWANmZL83HQndbn0jmhaXE8yw9vm_UxJEWc2EmPN13HfK76SWq78ZIoUrcW58jT6cO3cyg7J78TyfoMad-ItsP4zuuzgwwomsu98Rz9Q5t6fRTXT-V_f4jbLYsO082MpHdMYdPBfApsb240vAjlmYNq6_KmWxThJNLtHnVZrGvBD11LJ2GtS5Wj4tHo9VMtYnfC0HqnFwx4v_M8y5l0Q3dD2894Pc79F5Oavz1hJ2hES8do3jDAiqB6LNZ9rr4YkiFbxgpFQkjLYPmCmvt5JiHCV1XtGxMEJCMlX2RVEuDu9ofApBaZZXPhtCdBnlSH9fZhCncGaH-P6IC5xLVQT4pCM7ESAtHsqKTLDGhF3zmElg3QobSJl13ZDWef3MKf47kPbtKmY357Vh3AARmLzPSYrmrcnmwKWH2oPpBr_kA0fGpRPP_VHdBEyfvuouxlewKWLLfCZgfXHOu3LsPbB4z-j2nh4RDA19UDCpIFzRsEgy22_B-v_rtwY_N6S3TJTQMEUKu6dzHYCt1rzpu8sgYh6kmAeeiqbOJHTDnQlgl1iOo-SH4GAVK74U4IaDVYvE9o8be_-ECJAm-XN6uhceHgwlY2VsZWENXkcphDU2K99rIVXRBzn2V3VgpisudKu8GjIRXmyO6wI3SrH8M-RiO46NM5rSg0rmxYc_3Usb_vnM9ua-_GNk7m00]--></g></svg>