<?xml version="1.0" encoding="us-ascii" standalone="no"?><svg xmlns="http://www.w3.org/2000/svg" xmlns:xlink="http://www.w3.org/1999/xlink" contentStyleType="text/css" height="1069px" preserveAspectRatio="none" style="width:1479px;height:1069px;background:#FFFFFF;" version="1.1" viewBox="0 0 1479 1069" width="1479px" zoomAndPan="magnify"><defs/><g><!--class ApplicationSession--><g id="elem_ApplicationSession"><rect codeLine="11" fill="#F1F1F1" height="85.2422" id="ApplicationSession" rx="2.5" ry="2.5" style="stroke:#181818;stroke-width:0.5;" width="151" x="284" y="406.2627"/><ellipse cx="299" cy="422.2627" fill="#ADD1B2" rx="11" ry="11" style="stroke:#181818;stroke-width:1.0;"/><path d="M301.7656,418.1377 Q301.9219,417.9189 302.1094,417.8096 Q302.2969,417.7002 302.5156,417.7002 Q302.8906,417.7002 303.125,417.9658 Q303.3594,418.2158 303.3594,418.8252 L303.3594,420.2783 Q303.3594,420.8877 303.125,421.1533 Q302.8906,421.4189 302.5156,421.4189 Q302.1719,421.4189 301.9688,421.2158 Q301.7656,421.0283 301.6563,420.5127 Q301.6094,420.1533 301.4219,419.9658 Q301.0938,419.5908 300.4844,419.3721 Q299.875,419.1533 299.25,419.1533 Q298.4844,419.1533 297.8438,419.4814 Q297.2188,419.8096 296.7188,420.5596 Q296.2344,421.3096 296.2344,422.3408 L296.2344,423.4346 Q296.2344,424.6689 297.125,425.4971 Q298.0156,426.3096 299.6094,426.3096 Q300.5469,426.3096 301.2031,426.0596 Q301.5938,425.9033 302.0156,425.4658 Q302.2813,425.2002 302.4219,425.1221 Q302.5781,425.0439 302.7813,425.0439 Q303.1094,425.0439 303.3594,425.3096 Q303.625,425.5596 303.625,425.9033 Q303.625,426.2471 303.2813,426.6533 Q302.7813,427.2314 301.9844,427.5596 Q300.9063,428.0127 299.6094,428.0127 Q298.0938,428.0127 296.8906,427.3877 Q295.9063,426.8877 295.2188,425.8252 Q294.5313,424.7471 294.5313,423.4658 L294.5313,422.3096 Q294.5313,420.9814 295.1406,419.8408 Q295.7656,418.6846 296.8594,418.0752 Q297.9531,417.4502 299.1875,417.4502 Q299.9219,417.4502 300.5625,417.6221 Q301.2188,417.7783 301.7656,418.1377 Z " fill="#000000"/><text fill="#000000" font-family="sans-serif" font-size="14" lengthAdjust="spacing" textLength="119" x="313" y="428.0596">ApplicationSession</text><line style="stroke:#181818;stroke-width:0.5;" x1="285" x2="434" y1="438.2627" y2="438.2627"/><line style="stroke:#181818;stroke-width:0.5;" x1="285" x2="434" y1="446.2627" y2="446.2627"/><text fill="#000000" font-family="sans-serif" font-size="14" lengthAdjust="spacing" textLength="128" x="290" y="465.3701">+static getInstance()</text><text fill="#000000" font-family="sans-serif" font-size="14" lengthAdjust="spacing" textLength="136" x="290" y="483.9912">+getCurrentSession()</text></g><!--class UserSession--><g id="elem_UserSession"><rect codeLine="16" fill="#F1F1F1" height="48" id="UserSession" rx="2.5" ry="2.5" style="stroke:#181818;stroke-width:0.5;" width="111" x="236" y="728.7627"/><ellipse cx="251" cy="744.7627" fill="#ADD1B2" rx="11" ry="11" style="stroke:#181818;stroke-width:1.0;"/><path d="M253.7656,740.6377 Q253.9219,740.4189 254.1094,740.3096 Q254.2969,740.2002 254.5156,740.2002 Q254.8906,740.2002 255.125,740.4658 Q255.3594,740.7158 255.3594,741.3252 L255.3594,742.7783 Q255.3594,743.3877 255.125,743.6533 Q254.8906,743.9189 254.5156,743.9189 Q254.1719,743.9189 253.9688,743.7158 Q253.7656,743.5283 253.6563,743.0127 Q253.6094,742.6533 253.4219,742.4658 Q253.0938,742.0908 252.4844,741.8721 Q251.875,741.6533 251.25,741.6533 Q250.4844,741.6533 249.8438,741.9814 Q249.2188,742.3096 248.7188,743.0596 Q248.2344,743.8096 248.2344,744.8408 L248.2344,745.9346 Q248.2344,747.1689 249.125,747.9971 Q250.0156,748.8096 251.6094,748.8096 Q252.5469,748.8096 253.2031,748.5596 Q253.5938,748.4033 254.0156,747.9658 Q254.2813,747.7002 254.4219,747.6221 Q254.5781,747.5439 254.7813,747.5439 Q255.1094,747.5439 255.3594,747.8096 Q255.625,748.0596 255.625,748.4033 Q255.625,748.7471 255.2813,749.1533 Q254.7813,749.7314 253.9844,750.0596 Q252.9063,750.5127 251.6094,750.5127 Q250.0938,750.5127 248.8906,749.8877 Q247.9063,749.3877 247.2188,748.3252 Q246.5313,747.2471 246.5313,745.9658 L246.5313,744.8096 Q246.5313,743.4814 247.1406,742.3408 Q247.7656,741.1846 248.8594,740.5752 Q249.9531,739.9502 251.1875,739.9502 Q251.9219,739.9502 252.5625,740.1221 Q253.2188,740.2783 253.7656,740.6377 Z " fill="#000000"/><text fill="#000000" font-family="sans-serif" font-size="14" lengthAdjust="spacing" textLength="79" x="265" y="750.5596">UserSession</text><line style="stroke:#181818;stroke-width:0.5;" x1="237" x2="346" y1="760.7627" y2="760.7627"/><line style="stroke:#181818;stroke-width:0.5;" x1="237" x2="346" y1="768.7627" y2="768.7627"/></g><!--class HRM--><g id="elem_HRM"><rect codeLine="19" fill="#F1F1F1" height="48" id="HRM" rx="2.5" ry="2.5" style="stroke:#181818;stroke-width:0.5;" width="62" x="1087.5" y="728.7627"/><ellipse cx="1102.5" cy="744.7627" fill="#ADD1B2" rx="11" ry="11" style="stroke:#181818;stroke-width:1.0;"/><path d="M1105.2656,740.6377 Q1105.4219,740.4189 1105.6094,740.3096 Q1105.7969,740.2002 1106.0156,740.2002 Q1106.3906,740.2002 1106.625,740.4658 Q1106.8594,740.7158 1106.8594,741.3252 L1106.8594,742.7783 Q1106.8594,743.3877 1106.625,743.6533 Q1106.3906,743.9189 1106.0156,743.9189 Q1105.6719,743.9189 1105.4688,743.7158 Q1105.2656,743.5283 1105.1563,743.0127 Q1105.1094,742.6533 1104.9219,742.4658 Q1104.5938,742.0908 1103.9844,741.8721 Q1103.375,741.6533 1102.75,741.6533 Q1101.9844,741.6533 1101.3438,741.9814 Q1100.7188,742.3096 1100.2188,743.0596 Q1099.7344,743.8096 1099.7344,744.8408 L1099.7344,745.9346 Q1099.7344,747.1689 1100.625,747.9971 Q1101.5156,748.8096 1103.1094,748.8096 Q1104.0469,748.8096 1104.7031,748.5596 Q1105.0938,748.4033 1105.5156,747.9658 Q1105.7813,747.7002 1105.9219,747.6221 Q1106.0781,747.5439 1106.2813,747.5439 Q1106.6094,747.5439 1106.8594,747.8096 Q1107.125,748.0596 1107.125,748.4033 Q1107.125,748.7471 1106.7813,749.1533 Q1106.2813,749.7314 1105.4844,750.0596 Q1104.4063,750.5127 1103.1094,750.5127 Q1101.5938,750.5127 1100.3906,749.8877 Q1099.4063,749.3877 1098.7188,748.3252 Q1098.0313,747.2471 1098.0313,745.9658 L1098.0313,744.8096 Q1098.0313,743.4814 1098.6406,742.3408 Q1099.2656,741.1846 1100.3594,740.5752 Q1101.4531,739.9502 1102.6875,739.9502 Q1103.4219,739.9502 1104.0625,740.1221 Q1104.7188,740.2783 1105.2656,740.6377 Z " fill="#000000"/><text fill="#000000" font-family="sans-serif" font-size="14" lengthAdjust="spacing" textLength="30" x="1116.5" y="750.5596">HRM</text><line style="stroke:#181818;stroke-width:0.5;" x1="1088.5" x2="1148.5" y1="760.7627" y2="760.7627"/><line style="stroke:#181818;stroke-width:0.5;" x1="1088.5" x2="1148.5" y1="768.7627" y2="768.7627"/></g><!--class Collaborator--><g id="elem_Collaborator"><rect codeLine="22" fill="#F1F1F1" height="290.0742" id="Collaborator" rx="2.5" ry="2.5" style="stroke:#181818;stroke-width:0.5;" width="451" x="601" y="607.7627"/><ellipse cx="783.25" cy="623.7627" fill="#ADD1B2" rx="11" ry="11" style="stroke:#181818;stroke-width:1.0;"/><path d="M786.0156,619.6377 Q786.1719,619.4189 786.3594,619.3096 Q786.5469,619.2002 786.7656,619.2002 Q787.1406,619.2002 787.375,619.4658 Q787.6094,619.7158 787.6094,620.3252 L787.6094,621.7783 Q787.6094,622.3877 787.375,622.6533 Q787.1406,622.9189 786.7656,622.9189 Q786.4219,622.9189 786.2188,622.7158 Q786.0156,622.5283 785.9063,622.0127 Q785.8594,621.6533 785.6719,621.4658 Q785.3438,621.0908 784.7344,620.8721 Q784.125,620.6533 783.5,620.6533 Q782.7344,620.6533 782.0938,620.9814 Q781.4688,621.3096 780.9688,622.0596 Q780.4844,622.8096 780.4844,623.8408 L780.4844,624.9346 Q780.4844,626.1689 781.375,626.9971 Q782.2656,627.8096 783.8594,627.8096 Q784.7969,627.8096 785.4531,627.5596 Q785.8438,627.4033 786.2656,626.9658 Q786.5313,626.7002 786.6719,626.6221 Q786.8281,626.5439 787.0313,626.5439 Q787.3594,626.5439 787.6094,626.8096 Q787.875,627.0596 787.875,627.4033 Q787.875,627.7471 787.5313,628.1533 Q787.0313,628.7314 786.2344,629.0596 Q785.1563,629.5127 783.8594,629.5127 Q782.3438,629.5127 781.1406,628.8877 Q780.1563,628.3877 779.4688,627.3252 Q778.7813,626.2471 778.7813,624.9658 L778.7813,623.8096 Q778.7813,622.4814 779.3906,621.3408 Q780.0156,620.1846 781.1094,619.5752 Q782.2031,618.9502 783.4375,618.9502 Q784.1719,618.9502 784.8125,619.1221 Q785.4688,619.2783 786.0156,619.6377 Z " fill="#000000"/><text fill="#000000" font-family="sans-serif" font-size="14" lengthAdjust="spacing" textLength="78" x="803.75" y="629.5596">Collaborator</text><line style="stroke:#181818;stroke-width:0.5;" x1="602" x2="1051" y1="639.7627" y2="639.7627"/><text fill="#000000" font-family="sans-serif" font-size="14" lengthAdjust="spacing" textLength="260" x="607" y="658.8701">-Enum StatusType={Activate,NotActivate}</text><text fill="#000000" font-family="sans-serif" font-size="14" lengthAdjust="spacing" textLength="40" x="607" y="677.4912">-name</text><text fill="#000000" font-family="sans-serif" font-size="14" lengthAdjust="spacing" textLength="104" x="607" y="696.1123">-date of birthday</text><text fill="#000000" font-family="sans-serif" font-size="14" lengthAdjust="spacing" textLength="100" x="607" y="714.7334">-admission data</text><text fill="#000000" font-family="sans-serif" font-size="14" lengthAdjust="spacing" textLength="148" x="607" y="733.3545">-address street zipcode</text><text fill="#000000" font-family="sans-serif" font-size="14" lengthAdjust="spacing" textLength="122" x="607" y="751.9756">-address city, email</text><text fill="#000000" font-family="sans-serif" font-size="14" lengthAdjust="spacing" textLength="97" x="607" y="770.5967">-phone number</text><text fill="#000000" font-family="sans-serif" font-size="14" lengthAdjust="spacing" textLength="60" x="607" y="789.2178">-docType</text><text fill="#000000" font-family="sans-serif" font-size="14" lengthAdjust="spacing" textLength="90" x="607" y="807.8389">-docIDNumber</text><text fill="#000000" font-family="sans-serif" font-size="14" lengthAdjust="spacing" textLength="119" x="607" y="826.46">-StatusType status</text><line style="stroke:#181818;stroke-width:0.5;" x1="602" x2="1051" y1="833.9736" y2="833.9736"/><text fill="#000000" font-family="sans-serif" font-size="14" lengthAdjust="spacing" textLength="439" x="607" y="853.0811">+Collaborator(name, date of birthday, admission data, address street,</text><text fill="#000000" font-family="sans-serif" font-size="14" lengthAdjust="spacing" textLength="340" x="611" y="871.7021">zipcode, address city, email, phone number, docType,</text><text fill="#000000" font-family="sans-serif" font-size="14" lengthAdjust="spacing" textLength="175" x="611" y="890.3232">docIDNumber, jobCategory)</text></g><!--class JobCategory--><g id="elem_JobCategory"><rect codeLine="37" fill="#F1F1F1" height="85.2422" id="JobCategory" rx="2.5" ry="2.5" style="stroke:#181818;stroke-width:0.5;" width="145" x="994" y="976.7627"/><ellipse cx="1023.85" cy="992.7627" fill="#ADD1B2" rx="11" ry="11" style="stroke:#181818;stroke-width:1.0;"/><path d="M1026.6156,988.6377 Q1026.7719,988.4189 1026.9594,988.3096 Q1027.1469,988.2002 1027.3656,988.2002 Q1027.7406,988.2002 1027.975,988.4658 Q1028.2094,988.7158 1028.2094,989.3252 L1028.2094,990.7783 Q1028.2094,991.3877 1027.975,991.6533 Q1027.7406,991.9189 1027.3656,991.9189 Q1027.0219,991.9189 1026.8188,991.7158 Q1026.6156,991.5283 1026.5063,991.0127 Q1026.4594,990.6533 1026.2719,990.4658 Q1025.9438,990.0908 1025.3344,989.8721 Q1024.725,989.6533 1024.1,989.6533 Q1023.3344,989.6533 1022.6938,989.9814 Q1022.0688,990.3096 1021.5688,991.0596 Q1021.0844,991.8096 1021.0844,992.8408 L1021.0844,993.9346 Q1021.0844,995.1689 1021.975,995.9971 Q1022.8656,996.8096 1024.4594,996.8096 Q1025.3969,996.8096 1026.0531,996.5596 Q1026.4438,996.4033 1026.8656,995.9658 Q1027.1313,995.7002 1027.2719,995.6221 Q1027.4281,995.5439 1027.6313,995.5439 Q1027.9594,995.5439 1028.2094,995.8096 Q1028.475,996.0596 1028.475,996.4033 Q1028.475,996.7471 1028.1313,997.1533 Q1027.6313,997.7314 1026.8344,998.0596 Q1025.7563,998.5127 1024.4594,998.5127 Q1022.9438,998.5127 1021.7406,997.8877 Q1020.7563,997.3877 1020.0688,996.3252 Q1019.3813,995.2471 1019.3813,993.9658 L1019.3813,992.8096 Q1019.3813,991.4814 1019.9906,990.3408 Q1020.6156,989.1846 1021.7094,988.5752 Q1022.8031,987.9502 1024.0375,987.9502 Q1024.7719,987.9502 1025.4125,988.1221 Q1026.0688,988.2783 1026.6156,988.6377 Z " fill="#000000"/><text fill="#000000" font-family="sans-serif" font-size="14" lengthAdjust="spacing" textLength="80" x="1041.15" y="998.5596">JobCategory</text><line style="stroke:#181818;stroke-width:0.5;" x1="995" x2="1138" y1="1008.7627" y2="1008.7627"/><text fill="#000000" font-family="sans-serif" font-size="14" lengthAdjust="spacing" textLength="81" x="1000" y="1027.8701">-String name</text><line style="stroke:#181818;stroke-width:0.5;" x1="995" x2="1138" y1="1035.3838" y2="1035.3838"/><text fill="#000000" font-family="sans-serif" font-size="14" lengthAdjust="spacing" textLength="133" x="1000" y="1054.4912">+JobCategory(name)</text></g><!--class CollaboratorRepository--><g id="elem_CollaboratorRepository"><rect codeLine="42" fill="#F1F1F1" height="159.7266" id="CollaboratorRepository" rx="2.5" ry="2.5" style="stroke:#181818;stroke-width:0.5;" width="555" x="549" y="368.7627"/><ellipse cx="749.25" cy="384.7627" fill="#ADD1B2" rx="11" ry="11" style="stroke:#181818;stroke-width:1.0;"/><path d="M752.0156,380.6377 Q752.1719,380.4189 752.3594,380.3096 Q752.5469,380.2002 752.7656,380.2002 Q753.1406,380.2002 753.375,380.4658 Q753.6094,380.7158 753.6094,381.3252 L753.6094,382.7783 Q753.6094,383.3877 753.375,383.6533 Q753.1406,383.9189 752.7656,383.9189 Q752.4219,383.9189 752.2188,383.7158 Q752.0156,383.5283 751.9063,383.0127 Q751.8594,382.6533 751.6719,382.4658 Q751.3438,382.0908 750.7344,381.8721 Q750.125,381.6533 749.5,381.6533 Q748.7344,381.6533 748.0938,381.9814 Q747.4688,382.3096 746.9688,383.0596 Q746.4844,383.8096 746.4844,384.8408 L746.4844,385.9346 Q746.4844,387.1689 747.375,387.9971 Q748.2656,388.8096 749.8594,388.8096 Q750.7969,388.8096 751.4531,388.5596 Q751.8438,388.4033 752.2656,387.9658 Q752.5313,387.7002 752.6719,387.6221 Q752.8281,387.5439 753.0313,387.5439 Q753.3594,387.5439 753.6094,387.8096 Q753.875,388.0596 753.875,388.4033 Q753.875,388.7471 753.5313,389.1533 Q753.0313,389.7314 752.2344,390.0596 Q751.1563,390.5127 749.8594,390.5127 Q748.3438,390.5127 747.1406,389.8877 Q746.1563,389.3877 745.4688,388.3252 Q744.7813,387.2471 744.7813,385.9658 L744.7813,384.8096 Q744.7813,383.4814 745.3906,382.3408 Q746.0156,381.1846 747.1094,380.5752 Q748.2031,379.9502 749.4375,379.9502 Q750.1719,379.9502 750.8125,380.1221 Q751.4688,380.2783 752.0156,380.6377 Z " fill="#000000"/><text fill="#000000" font-family="sans-serif" font-size="14" lengthAdjust="spacing" textLength="146" x="769.75" y="390.5596">CollaboratorRepository</text><line style="stroke:#181818;stroke-width:0.5;" x1="550" x2="1103" y1="400.7627" y2="400.7627"/><line style="stroke:#181818;stroke-width:0.5;" x1="550" x2="1103" y1="408.7627" y2="408.7627"/><text fill="#000000" font-family="sans-serif" font-size="14" lengthAdjust="spacing" textLength="543" x="555" y="427.8701">+registerCollaborator(name, date of birthday, admission data, address street, zipcode,</text><text fill="#000000" font-family="sans-serif" font-size="14" lengthAdjust="spacing" textLength="284" x="559" y="446.4912">address city, email, phone number, docType,</text><text fill="#000000" font-family="sans-serif" font-size="14" lengthAdjust="spacing" textLength="175" x="559" y="465.1123">docIDNumber, jobCategory)</text><text fill="#000000" font-family="sans-serif" font-size="14" lengthAdjust="spacing" textLength="212" x="555" y="483.7334">+isValidCollaborator(collaborator)</text><text fill="#000000" font-family="sans-serif" font-size="14" lengthAdjust="spacing" textLength="388" x="555" y="502.3545">+saveCollaborator(collaborator, this.collaboratorsNotActivate)</text><text fill="#000000" font-family="sans-serif" font-size="14" lengthAdjust="spacing" textLength="195" x="555" y="520.9756">+addCollaborator(collaborator)</text></g><!--class DocType--><g id="elem_DocType"><rect codeLine="49" fill="#F1F1F1" height="85.2422" id="DocType" rx="2.5" ry="2.5" style="stroke:#181818;stroke-width:0.5;" width="114" x="450.5" y="976.7627"/><ellipse cx="476.75" cy="992.7627" fill="#ADD1B2" rx="11" ry="11" style="stroke:#181818;stroke-width:1.0;"/><path d="M479.5156,988.6377 Q479.6719,988.4189 479.8594,988.3096 Q480.0469,988.2002 480.2656,988.2002 Q480.6406,988.2002 480.875,988.4658 Q481.1094,988.7158 481.1094,989.3252 L481.1094,990.7783 Q481.1094,991.3877 480.875,991.6533 Q480.6406,991.9189 480.2656,991.9189 Q479.9219,991.9189 479.7188,991.7158 Q479.5156,991.5283 479.4063,991.0127 Q479.3594,990.6533 479.1719,990.4658 Q478.8438,990.0908 478.2344,989.8721 Q477.625,989.6533 477,989.6533 Q476.2344,989.6533 475.5938,989.9814 Q474.9688,990.3096 474.4688,991.0596 Q473.9844,991.8096 473.9844,992.8408 L473.9844,993.9346 Q473.9844,995.1689 474.875,995.9971 Q475.7656,996.8096 477.3594,996.8096 Q478.2969,996.8096 478.9531,996.5596 Q479.3438,996.4033 479.7656,995.9658 Q480.0313,995.7002 480.1719,995.6221 Q480.3281,995.5439 480.5313,995.5439 Q480.8594,995.5439 481.1094,995.8096 Q481.375,996.0596 481.375,996.4033 Q481.375,996.7471 481.0313,997.1533 Q480.5313,997.7314 479.7344,998.0596 Q478.6563,998.5127 477.3594,998.5127 Q475.8438,998.5127 474.6406,997.8877 Q473.6563,997.3877 472.9688,996.3252 Q472.2813,995.2471 472.2813,993.9658 L472.2813,992.8096 Q472.2813,991.4814 472.8906,990.3408 Q473.5156,989.1846 474.6094,988.5752 Q475.7031,987.9502 476.9375,987.9502 Q477.6719,987.9502 478.3125,988.1221 Q478.9688,988.2783 479.5156,988.6377 Z " fill="#000000"/><text fill="#000000" font-family="sans-serif" font-size="14" lengthAdjust="spacing" textLength="57" x="493.25" y="998.5596">DocType</text><line style="stroke:#181818;stroke-width:0.5;" x1="451.5" x2="563.5" y1="1008.7627" y2="1008.7627"/><text fill="#000000" font-family="sans-serif" font-size="14" lengthAdjust="spacing" textLength="71" x="456.5" y="1027.8701">-enum type</text><line style="stroke:#181818;stroke-width:0.5;" x1="451.5" x2="563.5" y1="1035.3838" y2="1035.3838"/><text fill="#000000" font-family="sans-serif" font-size="14" lengthAdjust="spacing" textLength="102" x="456.5" y="1054.4912">+DocType(type)</text></g><!--class JobCategoryRepository--><g id="elem_JobCategoryRepository"><rect codeLine="54" fill="#F1F1F1" height="85.2422" id="JobCategoryRepository" rx="2.5" ry="2.5" style="stroke:#181818;stroke-width:0.5;" width="180" x="1139.5" y="406.2627"/><ellipse cx="1154.5" cy="422.2627" fill="#ADD1B2" rx="11" ry="11" style="stroke:#181818;stroke-width:1.0;"/><path d="M1157.2656,418.1377 Q1157.4219,417.9189 1157.6094,417.8096 Q1157.7969,417.7002 1158.0156,417.7002 Q1158.3906,417.7002 1158.625,417.9658 Q1158.8594,418.2158 1158.8594,418.8252 L1158.8594,420.2783 Q1158.8594,420.8877 1158.625,421.1533 Q1158.3906,421.4189 1158.0156,421.4189 Q1157.6719,421.4189 1157.4688,421.2158 Q1157.2656,421.0283 1157.1563,420.5127 Q1157.1094,420.1533 1156.9219,419.9658 Q1156.5938,419.5908 1155.9844,419.3721 Q1155.375,419.1533 1154.75,419.1533 Q1153.9844,419.1533 1153.3438,419.4814 Q1152.7188,419.8096 1152.2188,420.5596 Q1151.7344,421.3096 1151.7344,422.3408 L1151.7344,423.4346 Q1151.7344,424.6689 1152.625,425.4971 Q1153.5156,426.3096 1155.1094,426.3096 Q1156.0469,426.3096 1156.7031,426.0596 Q1157.0938,425.9033 1157.5156,425.4658 Q1157.7813,425.2002 1157.9219,425.1221 Q1158.0781,425.0439 1158.2813,425.0439 Q1158.6094,425.0439 1158.8594,425.3096 Q1159.125,425.5596 1159.125,425.9033 Q1159.125,426.2471 1158.7813,426.6533 Q1158.2813,427.2314 1157.4844,427.5596 Q1156.4063,428.0127 1155.1094,428.0127 Q1153.5938,428.0127 1152.3906,427.3877 Q1151.4063,426.8877 1150.7188,425.8252 Q1150.0313,424.7471 1150.0313,423.4658 L1150.0313,422.3096 Q1150.0313,420.9814 1150.6406,419.8408 Q1151.2656,418.6846 1152.3594,418.0752 Q1153.4531,417.4502 1154.6875,417.4502 Q1155.4219,417.4502 1156.0625,417.6221 Q1156.7188,417.7783 1157.2656,418.1377 Z " fill="#000000"/><text fill="#000000" font-family="sans-serif" font-size="14" lengthAdjust="spacing" textLength="148" x="1168.5" y="428.0596">JobCategoryRepository</text><line style="stroke:#181818;stroke-width:0.5;" x1="1140.5" x2="1318.5" y1="438.2627" y2="438.2627"/><text fill="#000000" font-family="sans-serif" font-size="14" lengthAdjust="spacing" textLength="127" x="1145.5" y="457.3701">-List &lt;JobCategory&gt;</text><line style="stroke:#181818;stroke-width:0.5;" x1="1140.5" x2="1318.5" y1="464.8838" y2="464.8838"/><text fill="#000000" font-family="sans-serif" font-size="14" lengthAdjust="spacing" textLength="140" x="1145.5" y="483.9912">+getJobCategoryList()</text></g><!--class Repositories--><g id="elem_Repositories"><rect codeLine="60" fill="#F1F1F1" height="122.4844" id="Repositories" rx="2.5" ry="2.5" style="stroke:#181818;stroke-width:0.5;" width="198" x="990.5" y="111.7627"/><ellipse cx="1045.75" cy="127.7627" fill="#ADD1B2" rx="11" ry="11" style="stroke:#181818;stroke-width:1.0;"/><path d="M1048.5156,123.6377 Q1048.6719,123.4189 1048.8594,123.3096 Q1049.0469,123.2002 1049.2656,123.2002 Q1049.6406,123.2002 1049.875,123.4658 Q1050.1094,123.7158 1050.1094,124.3252 L1050.1094,125.7783 Q1050.1094,126.3877 1049.875,126.6533 Q1049.6406,126.9189 1049.2656,126.9189 Q1048.9219,126.9189 1048.7188,126.7158 Q1048.5156,126.5283 1048.4063,126.0127 Q1048.3594,125.6533 1048.1719,125.4658 Q1047.8438,125.0908 1047.2344,124.8721 Q1046.625,124.6533 1046,124.6533 Q1045.2344,124.6533 1044.5938,124.9814 Q1043.9688,125.3096 1043.4688,126.0596 Q1042.9844,126.8096 1042.9844,127.8408 L1042.9844,128.9346 Q1042.9844,130.1689 1043.875,130.9971 Q1044.7656,131.8096 1046.3594,131.8096 Q1047.2969,131.8096 1047.9531,131.5596 Q1048.3438,131.4033 1048.7656,130.9658 Q1049.0313,130.7002 1049.1719,130.6221 Q1049.3281,130.5439 1049.5313,130.5439 Q1049.8594,130.5439 1050.1094,130.8096 Q1050.375,131.0596 1050.375,131.4033 Q1050.375,131.7471 1050.0313,132.1533 Q1049.5313,132.7314 1048.7344,133.0596 Q1047.6563,133.5127 1046.3594,133.5127 Q1044.8438,133.5127 1043.6406,132.8877 Q1042.6563,132.3877 1041.9688,131.3252 Q1041.2813,130.2471 1041.2813,128.9658 L1041.2813,127.8096 Q1041.2813,126.4814 1041.8906,125.3408 Q1042.5156,124.1846 1043.6094,123.5752 Q1044.7031,122.9502 1045.9375,122.9502 Q1046.6719,122.9502 1047.3125,123.1221 Q1047.9688,123.2783 1048.5156,123.6377 Z " fill="#000000"/><text fill="#000000" font-family="sans-serif" font-size="14" lengthAdjust="spacing" textLength="79" x="1066.25" y="133.5596">Repositories</text><line style="stroke:#181818;stroke-width:0.5;" x1="991.5" x2="1187.5" y1="143.7627" y2="143.7627"/><line style="stroke:#181818;stroke-width:0.5;" x1="991.5" x2="1187.5" y1="151.7627" y2="151.7627"/><text fill="#000000" font-family="sans-serif" font-size="14" lengthAdjust="spacing" textLength="94" x="996.5" y="170.8701">-Repositories()</text><text fill="#000000" font-family="sans-serif" font-size="14" lengthAdjust="spacing" textLength="182" x="996.5" y="189.4912">+getInstance() : Repositories</text><text fill="#000000" font-family="sans-serif" font-size="14" lengthAdjust="spacing" textLength="186" x="996.5" y="208.1123">+getJobCategoryRepository()</text><text fill="#000000" font-family="sans-serif" font-size="14" lengthAdjust="spacing" textLength="184" x="996.5" y="226.7334">+getCollaboratorRepository()</text></g><!--class RegisterCollaboratorController--><g id="elem_RegisterCollaboratorController"><rect codeLine="67" fill="#F1F1F1" height="234.2109" id="RegisterCollaboratorController" rx="2.5" ry="2.5" style="stroke:#181818;stroke-width:0.5;" width="455" x="217" y="55.7627"/><ellipse cx="343.75" cy="71.7627" fill="#ADD1B2" rx="11" ry="11" style="stroke:#181818;stroke-width:1.0;"/><path d="M346.5156,67.6377 Q346.6719,67.4189 346.8594,67.3096 Q347.0469,67.2002 347.2656,67.2002 Q347.6406,67.2002 347.875,67.4658 Q348.1094,67.7158 348.1094,68.3252 L348.1094,69.7783 Q348.1094,70.3877 347.875,70.6533 Q347.6406,70.9189 347.2656,70.9189 Q346.9219,70.9189 346.7188,70.7158 Q346.5156,70.5283 346.4063,70.0127 Q346.3594,69.6533 346.1719,69.4658 Q345.8438,69.0908 345.2344,68.8721 Q344.625,68.6533 344,68.6533 Q343.2344,68.6533 342.5938,68.9814 Q341.9688,69.3096 341.4688,70.0596 Q340.9844,70.8096 340.9844,71.8408 L340.9844,72.9346 Q340.9844,74.1689 341.875,74.9971 Q342.7656,75.8096 344.3594,75.8096 Q345.2969,75.8096 345.9531,75.5596 Q346.3438,75.4033 346.7656,74.9658 Q347.0313,74.7002 347.1719,74.6221 Q347.3281,74.5439 347.5313,74.5439 Q347.8594,74.5439 348.1094,74.8096 Q348.375,75.0596 348.375,75.4033 Q348.375,75.7471 348.0313,76.1533 Q347.5313,76.7314 346.7344,77.0596 Q345.6563,77.5127 344.3594,77.5127 Q342.8438,77.5127 341.6406,76.8877 Q340.6563,76.3877 339.9688,75.3252 Q339.2813,74.2471 339.2813,72.9658 L339.2813,71.8096 Q339.2813,70.4814 339.8906,69.3408 Q340.5156,68.1846 341.6094,67.5752 Q342.7031,66.9502 343.9375,66.9502 Q344.6719,66.9502 345.3125,67.1221 Q345.9688,67.2783 346.5156,67.6377 Z " fill="#000000"/><text fill="#000000" font-family="sans-serif" font-size="14" lengthAdjust="spacing" textLength="193" x="364.25" y="77.5596">RegisterCollaboratorController</text><line style="stroke:#181818;stroke-width:0.5;" x1="218" x2="671" y1="87.7627" y2="87.7627"/><text fill="#000000" font-family="sans-serif" font-size="14" lengthAdjust="spacing" textLength="298" x="223" y="106.8701">-CollaboratorRepository collaboratorRepository</text><text fill="#000000" font-family="sans-serif" font-size="14" lengthAdjust="spacing" textLength="302" x="223" y="125.4912">-JobCategoryRepository jobCategoryRepository</text><line style="stroke:#181818;stroke-width:0.5;" x1="218" x2="671" y1="133.0049" y2="133.0049"/><text fill="#000000" font-family="sans-serif" font-size="14" lengthAdjust="spacing" textLength="211" x="223" y="152.1123">+RegisterCollaboratorController()</text><text fill="#000000" font-family="sans-serif" font-size="14" lengthAdjust="spacing" textLength="291" x="223" y="170.7334">+validateDocType(docType,docTypeNumber);</text><text fill="#000000" font-family="sans-serif" font-size="14" lengthAdjust="spacing" textLength="151" x="223" y="189.3545">+getJobCategoriesList()</text><text fill="#000000" font-family="sans-serif" font-size="14" lengthAdjust="spacing" textLength="388" x="223" y="207.9756">+registerCollaborator(name, date of birthday, admission data,</text><text fill="#000000" font-family="sans-serif" font-size="14" lengthAdjust="spacing" textLength="439" x="227" y="226.5967">address street, zipcode, address city, email, phone number, docType,</text><text fill="#000000" font-family="sans-serif" font-size="14" lengthAdjust="spacing" textLength="175" x="227" y="245.2178">docIDNumber, jobCategory)</text><text fill="#000000" font-family="sans-serif" font-size="14" lengthAdjust="spacing" textLength="117" x="223" y="263.8389">+getDocTypeList()</text><text fill="#000000" font-family="sans-serif" font-size="14" lengthAdjust="spacing" textLength="148" x="223" y="282.46">-getHRMFromSession()</text></g><g id="elem_GMN12"><path d="M707.5,133.2627 L707.5,212.4268 L955.5,212.4268 L955.5,143.2627 L945.5,133.2627 L707.5,133.2627 " fill="#FEFFDD" style="stroke:#181818;stroke-width:0.5;"/><path d="M945.5,133.2627 L945.5,143.2627 L955.5,143.2627 L945.5,133.2627 " fill="#FEFFDD" style="stroke:#181818;stroke-width:1.0;"/><text fill="#000000" font-family="sans-serif" font-size="13" lengthAdjust="spacing" textLength="133" x="713.5" y="152.291">- userEmail is obtained</text><text fill="#000000" font-family="sans-serif" font-size="13" lengthAdjust="spacing" textLength="125" x="713.5" y="169.582">from the user session</text><text fill="#000000" font-family="sans-serif" font-size="13" lengthAdjust="spacing" textLength="77" x="713.5" y="186.873">- jobCategory</text><text fill="#000000" font-family="sans-serif" font-size="13" lengthAdjust="spacing" textLength="227" x="713.5" y="204.1641">is achieved with job category repository</text></g><g id="elem_GMN15"><path d="M1335,730.2627 L1335,774.8447 A0,0 0 0 0 1335,774.8447 L1472,774.8447 A0,0 0 0 0 1472,774.8447 L1472,740.2627 L1462,730.2627 L1395.11,730.2627 L1253.51,491.4327 L1387.11,730.2627 L1335,730.2627 A0,0 0 0 0 1335,730.2627 " fill="#FEFFDD" style="stroke:#181818;stroke-width:0.5;"/><path d="M1462,730.2627 L1462,740.2627 L1472,740.2627 L1462,730.2627 " fill="#FEFFDD" style="stroke:#181818;stroke-width:0.5;"/><text fill="#000000" font-family="sans-serif" font-size="13" lengthAdjust="spacing" textLength="116" x="1341" y="749.291">- used for displaying</text><text fill="#000000" font-family="sans-serif" font-size="13" lengthAdjust="spacing" textLength="114" x="1341" y="766.582">the job category list</text></g><!--class RegisterCollaboratorUI--><g id="elem_RegisterCollaboratorUI"><rect codeLine="90" fill="#F1F1F1" height="48" id="RegisterCollaboratorUI" rx="2.5" ry="2.5" style="stroke:#181818;stroke-width:0.5;" width="175" x="7" y="148.7627"/><ellipse cx="22" cy="164.7627" fill="#ADD1B2" rx="11" ry="11" style="stroke:#181818;stroke-width:1.0;"/><path d="M24.7656,160.6377 Q24.9219,160.4189 25.1094,160.3096 Q25.2969,160.2002 25.5156,160.2002 Q25.8906,160.2002 26.125,160.4658 Q26.3594,160.7158 26.3594,161.3252 L26.3594,162.7783 Q26.3594,163.3877 26.125,163.6533 Q25.8906,163.9189 25.5156,163.9189 Q25.1719,163.9189 24.9688,163.7158 Q24.7656,163.5283 24.6563,163.0127 Q24.6094,162.6533 24.4219,162.4658 Q24.0938,162.0908 23.4844,161.8721 Q22.875,161.6533 22.25,161.6533 Q21.4844,161.6533 20.8438,161.9814 Q20.2188,162.3096 19.7188,163.0596 Q19.2344,163.8096 19.2344,164.8408 L19.2344,165.9346 Q19.2344,167.1689 20.125,167.9971 Q21.0156,168.8096 22.6094,168.8096 Q23.5469,168.8096 24.2031,168.5596 Q24.5938,168.4033 25.0156,167.9658 Q25.2813,167.7002 25.4219,167.6221 Q25.5781,167.5439 25.7813,167.5439 Q26.1094,167.5439 26.3594,167.8096 Q26.625,168.0596 26.625,168.4033 Q26.625,168.7471 26.2813,169.1533 Q25.7813,169.7314 24.9844,170.0596 Q23.9063,170.5127 22.6094,170.5127 Q21.0938,170.5127 19.8906,169.8877 Q18.9063,169.3877 18.2188,168.3252 Q17.5313,167.2471 17.5313,165.9658 L17.5313,164.8096 Q17.5313,163.4814 18.1406,162.3408 Q18.7656,161.1846 19.8594,160.5752 Q20.9531,159.9502 22.1875,159.9502 Q22.9219,159.9502 23.5625,160.1221 Q24.2188,160.2783 24.7656,160.6377 Z " fill="#000000"/><text fill="#000000" font-family="sans-serif" font-size="14" lengthAdjust="spacing" textLength="143" x="36" y="170.5596">RegisterCollaboratorUI</text><line style="stroke:#181818;stroke-width:0.5;" x1="8" x2="181" y1="180.7627" y2="180.7627"/><line style="stroke:#181818;stroke-width:0.5;" x1="8" x2="181" y1="188.7627" y2="188.7627"/></g><!--class Manager--><g id="elem_Employee"><rect fill="#F1F1F1" height="48" id="Employee" rx="2.5" ry="2.5" style="stroke:#181818;stroke-width:0.5;" width="94" x="779.5" y="995.2627"/><ellipse cx="794.5" cy="1011.2627" fill="#ADD1B2" rx="11" ry="11" style="stroke:#181818;stroke-width:1.0;"/><path d="M797.2656,1007.1377 Q797.4219,1006.9189 797.6094,1006.8096 Q797.7969,1006.7002 798.0156,1006.7002 Q798.3906,1006.7002 798.625,1006.9658 Q798.8594,1007.2158 798.8594,1007.8252 L798.8594,1009.2783 Q798.8594,1009.8877 798.625,1010.1533 Q798.3906,1010.4189 798.0156,1010.4189 Q797.6719,1010.4189 797.4688,1010.2158 Q797.2656,1010.0283 797.1563,1009.5127 Q797.1094,1009.1533 796.9219,1008.9658 Q796.5938,1008.5908 795.9844,1008.3721 Q795.375,1008.1533 794.75,1008.1533 Q793.9844,1008.1533 793.3438,1008.4814 Q792.7188,1008.8096 792.2188,1009.5596 Q791.7344,1010.3096 791.7344,1011.3408 L791.7344,1012.4346 Q791.7344,1013.6689 792.625,1014.4971 Q793.5156,1015.3096 795.1094,1015.3096 Q796.0469,1015.3096 796.7031,1015.0596 Q797.0938,1014.9033 797.5156,1014.4658 Q797.7813,1014.2002 797.9219,1014.1221 Q798.0781,1014.0439 798.2813,1014.0439 Q798.6094,1014.0439 798.8594,1014.3096 Q799.125,1014.5596 799.125,1014.9033 Q799.125,1015.2471 798.7813,1015.6533 Q798.2813,1016.2314 797.4844,1016.5596 Q796.4063,1017.0127 795.1094,1017.0127 Q793.5938,1017.0127 792.3906,1016.3877 Q791.4063,1015.8877 790.7188,1014.8252 Q790.0313,1013.7471 790.0313,1012.4658 L790.0313,1011.3096 Q790.0313,1009.9814 790.6406,1008.8408 Q791.2656,1007.6846 792.3594,1007.0752 Q793.4531,1006.4502 794.6875,1006.4502 Q795.4219,1006.4502 796.0625,1006.6221 Q796.7188,1006.7783 797.2656,1007.1377 Z " fill="#000000"/><text fill="#000000" font-family="sans-serif" font-size="14" lengthAdjust="spacing" textLength="62" x="808.5" y="1017.0596">Employee</text><line style="stroke:#181818;stroke-width:0.5;" x1="780.5" x2="872.5" y1="1027.2627" y2="1027.2627"/><line style="stroke:#181818;stroke-width:0.5;" x1="780.5" x2="872.5" y1="1035.2627" y2="1035.2627"/></g><!--link RegisterCollaboratorController to GMN12--><g id="link_RegisterCollaboratorController_GMN12"><path d="M672.26,172.7627 C689.74,172.7627 702.5,172.7627 702.5,172.7627 C702.5,172.7627 704.27,172.7627 707.4,172.7627 " fill="none" id="RegisterCollaboratorController-GMN12" style="stroke:#181818;stroke-width:1.0;stroke-dasharray:7.0,7.0;"/></g><!--link Repositories to Repositories--><g id="link_Repositories_Repositories"><path codeLine="93" d="M1188.55,144.5827 C1208.9,147.6027 1223.5,156.9927 1223.5,172.7627 C1223.5,188.5327 1214.835,197.0419 1194.485,200.0619 " fill="none" id="Repositories-to-Repositories" style="stroke:#181818;stroke-width:1.0;"/><polygon fill="#181818" points="1188.55,200.9427,1198.0397,203.5782,1193.4958,200.2087,1196.8653,195.6649,1188.55,200.9427" style="stroke:#181818;stroke-width:1.0;"/><text fill="#000000" font-family="sans-serif" font-size="13" lengthAdjust="spacing" textLength="49" x="1229.5" y="178.291">instance</text></g><!--link ApplicationSession to ApplicationSession--><g id="link_ApplicationSession_ApplicationSession"><path codeLine="94" d="M435.16,426.8527 C455,428.1527 470,435.4527 470,448.7627 C470,462.0727 460.9872,468.9804 441.1472,470.2804 " fill="none" id="ApplicationSession-to-ApplicationSession" style="stroke:#181818;stroke-width:1.0;"/><polygon fill="#181818" points="435.16,470.6727,444.4023,474.0757,440.1493,470.3458,443.8792,466.0928,435.16,470.6727" style="stroke:#181818;stroke-width:1.0;"/><text fill="#000000" font-family="sans-serif" font-size="13" lengthAdjust="spacing" textLength="49" x="476" y="454.291">instance</text></g><!--link RegisterCollaboratorUI to RegisterCollaboratorController--><g id="link_RegisterCollaboratorUI_RegisterCollaboratorController"><path codeLine="96" d="M182.03,172.7627 C198.75,172.7627 211.17,172.7627 211.17,172.7627 C211.17,172.7627 207.22,172.7627 210.79,172.7627 " fill="none" id="RegisterCollaboratorUI-to-RegisterCollaboratorController" style="stroke:#181818;stroke-width:1.0;stroke-dasharray:7.0,7.0;"/><polygon fill="#181818" points="216.79,172.7627,207.79,168.7627,211.79,172.7627,207.79,176.7627,216.79,172.7627" style="stroke:#181818;stroke-width:1.0;"/></g><!--link RegisterCollaboratorController to Repositories--><g id="link_RegisterCollaboratorController_Repositories"><path codeLine="98" d="M672.27,63.9927 C683.06,58.8327 689.5,55.7627 689.5,55.7627 C689.5,55.7627 797,32.7627 797,32.7627 C797,32.7627 866,32.7627 866,32.7627 C866,32.7627 972.5,55.7627 972.5,55.7627 C972.5,55.7627 995.7074,78.9701 1024.0174,107.2801 " fill="none" id="RegisterCollaboratorController-to-Repositories" style="stroke:#181818;stroke-width:1.0;stroke-dasharray:7.0,7.0;"/><polygon fill="#181818" points="1028.26,111.5227,1024.7245,102.3303,1024.7245,107.9872,1019.0676,107.9872,1028.26,111.5227" style="stroke:#181818;stroke-width:1.0;"/><text fill="#000000" font-family="sans-serif" font-size="13" lengthAdjust="spacing" textLength="67" x="798" y="21.791">repositories</text></g><!--link Repositories to JobCategoryRepository--><g id="link_Repositories_JobCategoryRepository"><path codeLine="100" d="M1120.22,233.8927 C1146.87,286.0327 1182.0002,354.7996 1205.4402,400.6796 " fill="none" id="Repositories-to-JobCategoryRepository" style="stroke:#181818;stroke-width:1.0;"/><polygon fill="#181818" points="1208.17,406.0227,1207.6374,396.1882,1205.8952,401.5701,1200.5133,399.8279,1208.17,406.0227" style="stroke:#181818;stroke-width:1.0;"/><text fill="#000000" font-family="sans-serif" font-size="13" lengthAdjust="spacing" textLength="7" x="1197.2127" y="394.8885">1</text></g><!--link RegisterCollaboratorController to CollaboratorRepository--><g id="link_RegisterCollaboratorController_CollaboratorRepository"><path codeLine="102" d="M478.36,290.1527 C486.3,317.4527 492.5,338.7627 492.5,338.7627 C492.5,338.7627 526.4862,349.8509 578.5062,366.8309 " fill="none" id="RegisterCollaboratorController-to-CollaboratorRepository" style="stroke:#181818;stroke-width:1.0;stroke-dasharray:7.0,7.0;"/><polygon fill="#181818" points="584.21,368.6927,576.8955,362.0974,579.4568,367.1412,574.4131,369.7025,584.21,368.6927" style="stroke:#181818;stroke-width:1.0;"/><text fill="#000000" font-family="sans-serif" font-size="13" lengthAdjust="spacing" textLength="131" x="493.5" y="334.791">CollaboratorRepository</text></g><!--link RegisterCollaboratorController to CollaboratorRepository--><g id="link_RegisterCollaboratorController_CollaboratorRepository"><path codeLine="108" d="M603.61,289.9227 C641.15,317.3327 670.5,338.7627 670.5,338.7627 C670.5,338.7627 684.0108,348.2074 708.2108,365.1074 " fill="none" id="RegisterCollaboratorController-to-CollaboratorRepository-1" style="stroke:#181818;stroke-width:1.0;stroke-dasharray:7.0,7.0;"/><polygon fill="#181818" points="713.13,368.5427,708.0414,360.1103,709.0307,365.6799,703.461,366.6692,713.13,368.5427" style="stroke:#181818;stroke-width:1.0;"/><text fill="#000000" font-family="sans-serif" font-size="13" lengthAdjust="spacing" textLength="129" x="671.5" y="334.791">collaboratorRepository</text><text fill="#000000" font-family="sans-serif" font-size="13" lengthAdjust="spacing" textLength="7" x="695.356" y="357.4182">1</text></g><!--link RegisterCollaboratorController to JobCategoryRepository--><g id="link_RegisterCollaboratorController_JobCategoryRepository"><path codeLine="103" d="M672.27,281.6027 C683.06,286.7127 689.5,289.7627 689.5,289.7627 C689.5,289.7627 1121.5,368.7627 1121.5,368.7627 C1121.5,368.7627 1141.787,383.6107 1167.807,402.6407 " fill="none" id="RegisterCollaboratorController-to-JobCategoryRepository" style="stroke:#181818;stroke-width:1.0;stroke-dasharray:7.0,7.0;"/><polygon fill="#181818" points="1172.65,406.1827,1167.7468,397.6411,1168.6142,403.2311,1163.0242,404.0984,1172.65,406.1827" style="stroke:#181818;stroke-width:1.0;"/><text fill="#000000" font-family="sans-serif" font-size="13" lengthAdjust="spacing" textLength="134" x="958.5" y="334.791">JobCategoryRepository</text></g><!--link RegisterCollaboratorController to DocType--><g id="link_RegisterCollaboratorController_DocType"><path codeLine="104" d="M319.65,289.8627 C300.8,307.4027 287.5,319.7627 287.5,319.7627 C287.5,319.7627 258.5,368.7627 258.5,368.7627 C258.5,368.7627 218.5,607.7627 218.5,607.7627 C218.5,607.7627 218.5,897.7627 218.5,897.7627 C218.5,897.7627 360.642,957.034 444.862,992.144 " fill="none" id="RegisterCollaboratorController-to-DocType" style="stroke:#181818;stroke-width:1.0;"/><polygon fill="#181818" points="450.4,994.4527,443.6321,987.2976,445.785,992.5288,440.5538,994.6816,450.4,994.4527" style="stroke:#181818;stroke-width:1.0;"/></g><!--link Repositories to CollaboratorRepository--><g id="link_Repositories_CollaboratorRepository"><path codeLine="105" d="M1051.3,233.8027 C1021.27,280.9727 984.5,338.7627 984.5,338.7627 C984.5,338.7627 970.769,348.2358 946.269,365.1358 " fill="none" id="Repositories-to-CollaboratorRepository" style="stroke:#181818;stroke-width:1.0;"/><polygon fill="#181818" points="941.33,368.5427,951.0097,366.725,945.4458,365.7036,946.4672,360.1398,941.33,368.5427" style="stroke:#181818;stroke-width:1.0;"/><text fill="#000000" font-family="sans-serif" font-size="13" lengthAdjust="spacing" textLength="7" x="944.5932" y="357.4182">1</text></g><!--link ApplicationSession to UserSession--><g id="link_ApplicationSession_UserSession"><path codeLine="107" d="M350.12,491.4327 C335.58,556.0027 309.418,672.1792 297.998,722.8992 " fill="none" id="ApplicationSession-to-UserSession" style="stroke:#181818;stroke-width:1.0;"/><polygon fill="#181818" points="296.68,728.7527,302.5592,720.8511,297.7783,723.8748,294.7546,719.0939,296.68,728.7527" style="stroke:#181818;stroke-width:1.0;"/><text fill="#000000" font-family="sans-serif" font-size="13" lengthAdjust="spacing" textLength="72" x="335.5" y="573.791">userSession</text><text fill="#000000" font-family="sans-serif" font-size="13" lengthAdjust="spacing" textLength="7" x="290.1105" y="717.4876">1</text></g><!--link RegisterCollaboratorController to ApplicationSession--><g id="link_RegisterCollaboratorController_ApplicationSession"><path codeLine="109" d="M408.45,289.9627 C395.65,331.2427 383.8176,369.3621 374.2076,400.3421 " fill="none" id="RegisterCollaboratorController-to-ApplicationSession" style="stroke:#181818;stroke-width:1.0;stroke-dasharray:7.0,7.0;"/><polygon fill="#181818" points="372.43,406.0727,378.9169,398.6619,373.9114,401.2972,371.276,396.2917,372.43,406.0727" style="stroke:#181818;stroke-width:1.0;"/></g><!--link RegisterCollaboratorController to UserSession--><g id="link_RegisterCollaboratorController_UserSession"><path codeLine="110" d="M338.39,290.0127 C300.27,331.7727 266.5,368.7627 266.5,368.7627 C266.5,368.7627 266.5,528.7627 266.5,528.7627 C266.5,528.7627 281.8613,665.8001 288.2513,722.7801 " fill="none" id="RegisterCollaboratorController-to-UserSession" style="stroke:#181818;stroke-width:1.0;stroke-dasharray:7.0,7.0;"/><polygon fill="#181818" points="288.92,728.7427,291.8921,719.353,288.3628,723.7738,283.9419,720.2445,288.92,728.7427" style="stroke:#181818;stroke-width:1.0;"/></g><!--link Collaborator to JobCategory--><g id="link_Collaborator_JobCategory"><path codeLine="111" d="M957.39,898.0127 C983.49,926.7827 1004.8677,950.3396 1024.5977,972.0796 " fill="none" id="Collaborator-to-JobCategory" style="stroke:#181818;stroke-width:1.0;"/><polygon fill="#181818" points="1028.63,976.5227,1025.5436,967.1699,1025.2698,972.8201,1019.6196,972.5463,1028.63,976.5227" style="stroke:#181818;stroke-width:1.0;"/><text fill="#000000" font-family="sans-serif" font-size="13" lengthAdjust="spacing" textLength="69" x="997.5" y="942.791">jobCategory</text><text fill="#000000" font-family="sans-serif" font-size="13" lengthAdjust="spacing" textLength="5" x="959.0101" y="919.9743">*</text><text fill="#000000" font-family="sans-serif" font-size="13" lengthAdjust="spacing" textLength="7" x="1015.0367" y="965.3885">1</text></g><!--link JobCategoryRepository to JobCategory--><g id="link_JobCategoryRepository_JobCategory"><path codeLine="112" d="M1223.63,491.5027 C1207.99,602.7227 1166.5,897.7627 1166.5,897.7627 C1166.5,897.7627 1133.9125,937.0362 1105.0225,971.8362 " fill="none" id="JobCategoryRepository-to-JobCategory" style="stroke:#181818;stroke-width:1.0;"/><polygon fill="#181818" points="1101.19,976.4527,1110.0164,972.0829,1104.3837,972.6056,1103.8611,966.973,1101.19,976.4527" style="stroke:#181818;stroke-width:1.0;"/><text fill="#000000" font-family="sans-serif" font-size="13" lengthAdjust="spacing" textLength="78" x="1207.5" y="758.291">jobCategory's</text><text fill="#000000" font-family="sans-serif" font-size="13" lengthAdjust="spacing" textLength="7" x="1215.1952" y="513.3809">1</text><text fill="#000000" font-family="sans-serif" font-size="13" lengthAdjust="spacing" textLength="5" x="1101.1191" y="965.6279">*</text></g><!--link CollaboratorRepository to Collaborator--><g id="link_CollaboratorRepository_Collaborator"><path codeLine="113" d="M826.5,529.1127 C826.5,553.2227 826.5,574.5227 826.5,601.5227 " fill="none" id="CollaboratorRepository-to-Collaborator" style="stroke:#181818;stroke-width:1.0;"/><polygon fill="#181818" points="826.5,607.5227,830.5,598.5227,826.5,602.5227,822.5,598.5227,826.5,607.5227" style="stroke:#181818;stroke-width:1.0;"/><text fill="#000000" font-family="sans-serif" font-size="13" lengthAdjust="spacing" textLength="74" x="827.5" y="573.791">collaborators</text><text fill="#000000" font-family="sans-serif" font-size="13" lengthAdjust="spacing" textLength="7" x="819.2102" y="550.5223">1</text><text fill="#000000" font-family="sans-serif" font-size="13" lengthAdjust="spacing" textLength="5" x="821.3711" y="596.6294">*</text></g><!--link CollaboratorRepository to DocType--><g id="link_CollaboratorRepository_DocType"><path codeLine="114" d="M675.56,528.9927 C600.46,568.4127 525.5,607.7627 525.5,607.7627 C525.5,607.7627 514.1631,866.2885 509.5831,970.6485 " fill="none" id="CollaboratorRepository-to-DocType" style="stroke:#181818;stroke-width:1.0;"/><polygon fill="#181818" points="509.32,976.6427,513.7108,967.8267,509.5392,971.6475,505.7184,967.476,509.32,976.6427" style="stroke:#181818;stroke-width:1.0;"/><text fill="#000000" font-family="sans-serif" font-size="13" lengthAdjust="spacing" textLength="56" x="526.5" y="758.291">docTypes</text><text fill="#000000" font-family="sans-serif" font-size="13" lengthAdjust="spacing" textLength="7" x="655.7704" y="550.3923">1</text><text fill="#000000" font-family="sans-serif" font-size="13" lengthAdjust="spacing" textLength="7" x="502.0523" y="965.5277">3</text></g><!--link Collaborator to Manager--><g id="link_Collaborator_Employee"><path codeLine="115" d="M826.5,898.0127 C826.5,935.9627 826.5,966.5927 826.5,989.2527 " fill="none" id="Collaborator-to-Employee" style="stroke:#181818;stroke-width:1.0;"/><polygon fill="#181818" points="826.5,995.2527,830.5,986.2527,826.5,990.2527,822.5,986.2527,826.5,995.2527" style="stroke:#181818;stroke-width:1.0;"/><text fill="#000000" font-family="sans-serif" font-size="13" lengthAdjust="spacing" textLength="59" x="827.5" y="942.791">createdBy</text></g><!--link Collaborator to DocType--><g id="link_Collaborator_DocType"><path codeLine="116" d="M652.53,898.0127 C617.83,926.7827 588.6681,950.9522 562.4581,972.6922 " fill="none" id="Collaborator-to-DocType" style="stroke:#181818;stroke-width:1.0;"/><polygon fill="#181818" points="557.84,976.5227,567.3209,973.8557,561.6884,973.3306,562.2135,967.6982,557.84,976.5227" style="stroke:#181818;stroke-width:1.0;"/><text fill="#000000" font-family="sans-serif" font-size="13" lengthAdjust="spacing" textLength="26" x="612.5" y="942.791">have</text><text fill="#000000" font-family="sans-serif" font-size="13" lengthAdjust="spacing" textLength="7" x="636.3792" y="919.9743">1</text><text fill="#000000" font-family="sans-serif" font-size="13" lengthAdjust="spacing" textLength="7" x="558.3051" y="965.3885">1</text></g><!--link CollaboratorRepository to HRM--><g id="link_CollaboratorRepository_HRM"><path codeLine="117" d="M948.36,528.9927 C1008.99,568.4127 1069.5,607.7627 1069.5,607.7627 C1069.5,607.7627 1094.8471,682.2426 1108.6971,722.9426 " fill="none" id="CollaboratorRepository-to-HRM" style="stroke:#181818;stroke-width:1.0;"/><polygon fill="#181818" points="1110.63,728.6227,1111.5174,718.8139,1109.0192,723.8893,1103.9439,721.3911,1110.63,728.6227" style="stroke:#181818;stroke-width:1.0;"/><text fill="#000000" font-family="sans-serif" font-size="13" lengthAdjust="spacing" textLength="49" x="1024.5" y="573.791">employs</text><text fill="#000000" font-family="sans-serif" font-size="13" lengthAdjust="spacing" textLength="5" x="1102.9727" y="717.3243">*</text></g><!--link JobCategoryRepository to HRM--><g id="link_JobCategoryRepository_HRM"><path codeLine="118" d="M1196.36,491.2827 C1171.77,522.0827 1142.5,558.7627 1142.5,558.7627 C1142.5,558.7627 1128.5212,671.1987 1122.1312,722.5287 " fill="none" id="JobCategoryRepository-to-HRM" style="stroke:#181818;stroke-width:1.0;"/><polygon fill="#181818" points="1121.39,728.4827,1126.4712,720.0458,1122.0077,723.521,1118.5325,719.0575,1121.39,728.4827" style="stroke:#181818;stroke-width:1.0;"/><text fill="#000000" font-family="sans-serif" font-size="13" lengthAdjust="spacing" textLength="49" x="1143.5" y="573.791">employs</text><text fill="#000000" font-family="sans-serif" font-size="13" lengthAdjust="spacing" textLength="5" x="1116.4851" y="717.5564">*</text></g><!--SRC=[hLPBKzim4BxxL-pamYCEKwQtj6M61ZeDqt8WfQTU57aJ2np98oamXk6_T-N8jfpOX6d99TO-ltrA1-PUo9nfjeALaegdMgqGh5vZr71onk_P4cUso10qSilaCWi5JCeIzIZa4XOiCo4d4n9jaIFaAYlS8JheO2fjLHHeyOmPSswj5lErnIbNSYQU43v4qK662mjMWHRBr48Y71oXP1ILEd2UvvdWp95cQ0pzFKT0lo4OIrGEIxHJIT-Iu-6HPn5jijOQfVKwn7cfBDuQrBMfclhzvYS4nudACZPNcbcbOUDn19TolO8PkLsRNnJbb-TpWlh0BCRNobRVBrvOiXNwpuJ8e1Om5zgc2IiycIKhKS9m0gmc9fh0KNGQqSAJoBbAS8l9XIrYm1KJcUVagP88X6-EklAgk4FPdAONro6_2QHCvTf4FdjXx8SkZ7WdWdWBVBo5E_uZA-Xn5-gu1JYki3gr06WCTse-8TTBfOkWWbSDjQxDZ7gBshNE-Z2KAgCuwgxk3URA2DlO6j94B8MngDyZ4NKQABJtIiG6fJ2_MIQI5aWU72evmnwmLoW6cmfp4f9CqCoL3KB-YfywhnSRzBucwCR5LYquzCn3H-akvaufHl232W6V0vcpPiG3gXFRpBYtMfiIQ6fZ8J7S5St-W75BgDDNWxArRpfRAjmxDnrTDL7IQZfZisHwUfDtahrETmxlkgWUyUjWwi0UN8UHZQfsLNlw_qrt7dtgoXEbprVb_uSgc9tjiNhdeQ8GVAm1-94ZqmNnZUxIreKY5G7VN5m4__MSUajhkdqk7KYQNr1po-ZAJ4hUWgpJD68f0cRZnsi5I4iAwJAU2dp011w5JPq0y6edwgRQA1DmA3tMkRAMl13OgzxcA34ciA2BBn4cprX1YxNaE70jHnd56xZex_FRwUPoROtbwAmzfcCGVX2ZtLlVINTG0vsen_79sRxAH7j6ysG7g0wNn4vKWzD1JtxtUY9NFGjWtCDuYydk_J3k0Rd7u8WYz3Eo5RaFlGTdPr6zIl0c8rZhvlIMwFfzaYt-pqdRXViMhI2IgFM871mFwd331youDTpTbN8wfUxnAxe79kh9GgZUmjHEptxzZuEgygJgjsfRgvIxNEMPAj09SOq4B_bQR2NZj4b6Op6bbqeVXWg_UwUFQSqx3wOdNTsoqLy0]--></g></svg>