<?xml version="1.0" encoding="us-ascii" standalone="no"?><svg xmlns="http://www.w3.org/2000/svg" xmlns:xlink="http://www.w3.org/1999/xlink" contentStyleType="text/css" height="648px" preserveAspectRatio="none" style="width:1254px;height:648px;background:#FFFFFF;" version="1.1" viewBox="0 0 1254 648" width="1254px" zoomAndPan="magnify"><defs/><g><!--class ApplicationSession--><g id="elem_ApplicationSession"><rect codeLine="11" fill="#F1F1F1" height="80.9766" id="ApplicationSession" rx="2.5" ry="2.5" style="stroke:#181818;stroke-width:0.5;" width="162" x="236" y="260.6822"/><ellipse cx="251" cy="276.6822" fill="#ADD1B2" rx="11" ry="11" style="stroke:#181818;stroke-width:1.0;"/><path d="M253.9731,282.3253 Q253.3921,282.6241 252.7529,282.7735 Q252.1138,282.9229 251.4082,282.9229 Q248.9014,282.9229 247.5815,281.2711 Q246.2617,279.6192 246.2617,276.4981 Q246.2617,273.3687 247.5815,271.7169 Q248.9014,270.065 251.4082,270.065 Q252.1138,270.065 252.7612,270.2144 Q253.4087,270.3638 253.9731,270.6627 L253.9731,273.3853 Q253.3423,272.8043 252.7488,272.5345 Q252.1553,272.2647 251.5244,272.2647 Q250.1797,272.2647 249.4949,273.3314 Q248.8101,274.398 248.8101,276.4981 Q248.8101,278.5899 249.4949,279.6566 Q250.1797,280.7232 251.5244,280.7232 Q252.1553,280.7232 252.7488,280.4534 Q253.3423,280.1837 253.9731,279.6026 Z " fill="#000000"/><text fill="#000000" font-family="sans-serif" font-size="14" lengthAdjust="spacing" textLength="130" x="265" y="281.9732">ApplicationSession</text><line style="stroke:#181818;stroke-width:0.5;" x1="237" x2="397" y1="292.6822" y2="292.6822"/><line style="stroke:#181818;stroke-width:0.5;" x1="237" x2="397" y1="300.6822" y2="300.6822"/><text fill="#000000" font-family="sans-serif" font-size="14" lengthAdjust="spacing" textLength="140" x="242" y="318.2173">+static getInstance()</text><text fill="#000000" font-family="sans-serif" font-size="14" lengthAdjust="spacing" textLength="148" x="242" y="334.7056">+getCurrentSession()</text></g><!--class UserSession--><g id="elem_UserSession"><rect codeLine="16" fill="#F1F1F1" height="64.4883" id="UserSession" rx="2.5" ry="2.5" style="stroke:#181818;stroke-width:0.5;" width="123" x="133.5" y="435.1422"/><ellipse cx="152.1" cy="451.1422" fill="#ADD1B2" rx="11" ry="11" style="stroke:#181818;stroke-width:1.0;"/><path d="M155.0731,456.7853 Q154.4921,457.0841 153.8529,457.2335 Q153.2138,457.3829 152.5082,457.3829 Q150.0014,457.3829 148.6815,455.7311 Q147.3617,454.0792 147.3617,450.9581 Q147.3617,447.8287 148.6815,446.1769 Q150.0014,444.525 152.5082,444.525 Q153.2138,444.525 153.8612,444.6744 Q154.5087,444.8238 155.0731,445.1227 L155.0731,447.8453 Q154.4423,447.2643 153.8488,446.9945 Q153.2553,446.7247 152.6244,446.7247 Q151.2797,446.7247 150.5949,447.7914 Q149.9101,448.858 149.9101,450.9581 Q149.9101,453.0499 150.5949,454.1166 Q151.2797,455.1832 152.6244,455.1832 Q153.2553,455.1832 153.8488,454.9134 Q154.4423,454.6437 155.0731,454.0626 Z " fill="#000000"/><text fill="#000000" font-family="sans-serif" font-size="14" lengthAdjust="spacing" textLength="83" x="166.9" y="456.4332">UserSession</text><line style="stroke:#181818;stroke-width:0.5;" x1="134.5" x2="255.5" y1="467.1422" y2="467.1422"/><line style="stroke:#181818;stroke-width:0.5;" x1="134.5" x2="255.5" y1="475.1422" y2="475.1422"/><text fill="#000000" font-family="sans-serif" font-size="14" lengthAdjust="spacing" textLength="111" x="139.5" y="492.6773">+getUserEmail()</text></g><!--class CollaboratorUser--><g id="elem_CollaboratorUser"><rect codeLine="20" fill="#F1F1F1" height="48" id="CollaboratorUser" rx="2.5" ry="2.5" style="stroke:#181818;stroke-width:0.5;" width="150" x="497" y="593.1222"/><ellipse cx="512" cy="609.1222" fill="#ADD1B2" rx="11" ry="11" style="stroke:#181818;stroke-width:1.0;"/><path d="M514.9731,614.7653 Q514.3921,615.0641 513.7529,615.2135 Q513.1138,615.3629 512.4082,615.3629 Q509.9014,615.3629 508.5815,613.7111 Q507.2617,612.0592 507.2617,608.9381 Q507.2617,605.8087 508.5815,604.1569 Q509.9014,602.505 512.4082,602.505 Q513.1138,602.505 513.7612,602.6544 Q514.4087,602.8038 514.9731,603.1027 L514.9731,605.8253 Q514.3423,605.2443 513.7488,604.9745 Q513.1553,604.7047 512.5244,604.7047 Q511.1797,604.7047 510.4949,605.7714 Q509.8101,606.838 509.8101,608.9381 Q509.8101,611.0299 510.4949,612.0966 Q511.1797,613.1632 512.5244,613.1632 Q513.1553,613.1632 513.7488,612.8934 Q514.3423,612.6237 514.9731,612.0426 Z " fill="#000000"/><text fill="#000000" font-family="sans-serif" font-size="14" lengthAdjust="spacing" textLength="118" x="526" y="614.4132">CollaboratorUser</text><line style="stroke:#181818;stroke-width:0.5;" x1="498" x2="646" y1="625.1222" y2="625.1222"/><line style="stroke:#181818;stroke-width:0.5;" x1="498" x2="646" y1="633.1222" y2="633.1222"/></g><!--class Entry--><g id="elem_Entry"><rect codeLine="24" fill="#F1F1F1" height="97.4648" id="Entry" rx="2.5" ry="2.5" style="stroke:#181818;stroke-width:0.5;" width="93" x="768.5" y="418.6622"/><ellipse cx="795.2" cy="434.6622" fill="#ADD1B2" rx="11" ry="11" style="stroke:#181818;stroke-width:1.0;"/><path d="M798.1731,440.3053 Q797.5921,440.6041 796.9529,440.7535 Q796.3138,440.9029 795.6082,440.9029 Q793.1014,440.9029 791.7815,439.2511 Q790.4617,437.5992 790.4617,434.4781 Q790.4617,431.3487 791.7815,429.6969 Q793.1014,428.045 795.6082,428.045 Q796.3138,428.045 796.9612,428.1944 Q797.6087,428.3438 798.1731,428.6427 L798.1731,431.3653 Q797.5423,430.7843 796.9488,430.5145 Q796.3553,430.2447 795.7244,430.2447 Q794.3797,430.2447 793.6949,431.3114 Q793.0101,432.378 793.0101,434.4781 Q793.0101,436.5699 793.6949,437.6366 Q794.3797,438.7032 795.7244,438.7032 Q796.3553,438.7032 796.9488,438.4334 Q797.5423,438.1637 798.1731,437.5826 Z " fill="#000000"/><text fill="#000000" font-family="sans-serif" font-size="14" lengthAdjust="spacing" textLength="35" x="811.8" y="439.9532">Entry</text><line style="stroke:#181818;stroke-width:0.5;" x1="769.5" x2="860.5" y1="450.6622" y2="450.6622"/><text fill="#000000" font-family="sans-serif" font-size="14" lengthAdjust="spacing" textLength="46" x="774.5" y="468.1973">-Team</text><line style="stroke:#181818;stroke-width:0.5;" x1="769.5" x2="860.5" y1="475.1505" y2="475.1505"/><text fill="#000000" font-family="sans-serif" font-size="14" lengthAdjust="spacing" textLength="56" x="774.5" y="492.6856">+Entry()</text><text fill="#000000" font-family="sans-serif" font-size="14" lengthAdjust="spacing" textLength="81" x="774.5" y="509.1739">+getTeam()</text></g><!--class Task--><g id="elem_Task"><rect codeLine="30" fill="#F1F1F1" height="48" id="Task" rx="2.5" ry="2.5" style="stroke:#181818;stroke-width:0.5;" width="64" x="618" y="443.3922"/><ellipse cx="633" cy="459.3922" fill="#ADD1B2" rx="11" ry="11" style="stroke:#181818;stroke-width:1.0;"/><path d="M635.9731,465.0353 Q635.3921,465.3341 634.7529,465.4835 Q634.1138,465.6329 633.4082,465.6329 Q630.9014,465.6329 629.5815,463.9811 Q628.2617,462.3292 628.2617,459.2081 Q628.2617,456.0787 629.5815,454.4269 Q630.9014,452.775 633.4082,452.775 Q634.1138,452.775 634.7612,452.9244 Q635.4087,453.0738 635.9731,453.3727 L635.9731,456.0953 Q635.3423,455.5143 634.7488,455.2445 Q634.1553,454.9747 633.5244,454.9747 Q632.1797,454.9747 631.4949,456.0414 Q630.8101,457.108 630.8101,459.2081 Q630.8101,461.2999 631.4949,462.3666 Q632.1797,463.4332 633.5244,463.4332 Q634.1553,463.4332 634.7488,463.1634 Q635.3423,462.8937 635.9731,462.3126 Z " fill="#000000"/><text fill="#000000" font-family="sans-serif" font-size="14" lengthAdjust="spacing" textLength="32" x="647" y="464.6832">Task</text><line style="stroke:#181818;stroke-width:0.5;" x1="619" x2="681" y1="475.3922" y2="475.3922"/><line style="stroke:#181818;stroke-width:0.5;" x1="619" x2="681" y1="483.3922" y2="483.3922"/></g><!--class EntryRepository--><g id="elem_EntryRepository"><rect codeLine="34" fill="#F1F1F1" height="80.9766" id="EntryRepository" rx="2.5" ry="2.5" style="stroke:#181818;stroke-width:0.5;" width="258" x="529" y="260.6822"/><ellipse cx="599.75" cy="276.6822" fill="#ADD1B2" rx="11" ry="11" style="stroke:#181818;stroke-width:1.0;"/><path d="M602.7231,282.3253 Q602.1421,282.6241 601.5029,282.7735 Q600.8638,282.9229 600.1582,282.9229 Q597.6514,282.9229 596.3315,281.2711 Q595.0117,279.6192 595.0117,276.4981 Q595.0117,273.3687 596.3315,271.7169 Q597.6514,270.065 600.1582,270.065 Q600.8638,270.065 601.5112,270.2144 Q602.1587,270.3638 602.7231,270.6627 L602.7231,273.3853 Q602.0923,272.8043 601.4988,272.5345 Q600.9053,272.2647 600.2744,272.2647 Q598.9297,272.2647 598.2449,273.3314 Q597.5601,274.398 597.5601,276.4981 Q597.5601,278.5899 598.2449,279.6566 Q598.9297,280.7232 600.2744,280.7232 Q600.9053,280.7232 601.4988,280.4534 Q602.0923,280.1837 602.7231,279.6026 Z " fill="#000000"/><text fill="#000000" font-family="sans-serif" font-size="14" lengthAdjust="spacing" textLength="108" x="620.25" y="281.9732">EntryRepository</text><line style="stroke:#181818;stroke-width:0.5;" x1="530" x2="786" y1="292.6822" y2="292.6822"/><text fill="#000000" font-family="sans-serif" font-size="14" lengthAdjust="spacing" textLength="155" x="535" y="310.2173">-List &lt;Entry&gt; : agenda</text><line style="stroke:#181818;stroke-width:0.5;" x1="530" x2="786" y1="317.1705" y2="317.1705"/><text fill="#000000" font-family="sans-serif" font-size="14" lengthAdjust="spacing" textLength="246" x="535" y="334.7056">+getEntryByCollaboratorInAgenda()</text></g><!--class CollaboratorRepository--><g id="elem_CollaboratorRepository"><rect codeLine="40" fill="#F1F1F1" height="80.9766" id="CollaboratorRepository" rx="2.5" ry="2.5" style="stroke:#181818;stroke-width:0.5;" width="267" x="980.5" y="260.6822"/><ellipse cx="1029.75" cy="276.6822" fill="#ADD1B2" rx="11" ry="11" style="stroke:#181818;stroke-width:1.0;"/><path d="M1032.7231,282.3253 Q1032.1421,282.6241 1031.5029,282.7735 Q1030.8638,282.9229 1030.1582,282.9229 Q1027.6514,282.9229 1026.3315,281.2711 Q1025.0117,279.6192 1025.0117,276.4981 Q1025.0117,273.3687 1026.3315,271.7169 Q1027.6514,270.065 1030.1582,270.065 Q1030.8638,270.065 1031.5112,270.2144 Q1032.1587,270.3638 1032.7231,270.6627 L1032.7231,273.3853 Q1032.0923,272.8043 1031.4988,272.5345 Q1030.9053,272.2647 1030.2744,272.2647 Q1028.9297,272.2647 1028.2449,273.3314 Q1027.5601,274.398 1027.5601,276.4981 Q1027.5601,278.5899 1028.2449,279.6566 Q1028.9297,280.7232 1030.2744,280.7232 Q1030.9053,280.7232 1031.4988,280.4534 Q1032.0923,280.1837 1032.7231,279.6026 Z " fill="#000000"/><text fill="#000000" font-family="sans-serif" font-size="14" lengthAdjust="spacing" textLength="160" x="1050.25" y="281.9732">CollaboratorRepository</text><line style="stroke:#181818;stroke-width:0.5;" x1="981.5" x2="1246.5" y1="292.6822" y2="292.6822"/><text fill="#000000" font-family="sans-serif" font-size="14" lengthAdjust="spacing" textLength="140" x="986.5" y="310.2173">-List&lt;Collaborator&gt;</text><line style="stroke:#181818;stroke-width:0.5;" x1="981.5" x2="1246.5" y1="317.1705" y2="317.1705"/><text fill="#000000" font-family="sans-serif" font-size="14" lengthAdjust="spacing" textLength="255" x="986.5" y="334.7056">+getCollaboratorRegisteredByEmail()</text></g><!--class Collaborator--><g id="elem_Collaborator"><rect codeLine="46" fill="#F1F1F1" height="64.4883" id="Collaborator" rx="2.5" ry="2.5" style="stroke:#181818;stroke-width:0.5;" width="119" x="1056.5" y="435.1422"/><ellipse cx="1071.5" cy="451.1422" fill="#ADD1B2" rx="11" ry="11" style="stroke:#181818;stroke-width:1.0;"/><path d="M1074.4731,456.7853 Q1073.8921,457.0841 1073.2529,457.2335 Q1072.6138,457.3829 1071.9082,457.3829 Q1069.4014,457.3829 1068.0815,455.7311 Q1066.7617,454.0792 1066.7617,450.9581 Q1066.7617,447.8287 1068.0815,446.1769 Q1069.4014,444.525 1071.9082,444.525 Q1072.6138,444.525 1073.2612,444.6744 Q1073.9087,444.8238 1074.4731,445.1227 L1074.4731,447.8453 Q1073.8423,447.2643 1073.2488,446.9945 Q1072.6553,446.7247 1072.0244,446.7247 Q1070.6797,446.7247 1069.9949,447.7914 Q1069.3101,448.858 1069.3101,450.9581 Q1069.3101,453.0499 1069.9949,454.1166 Q1070.6797,455.1832 1072.0244,455.1832 Q1072.6553,455.1832 1073.2488,454.9134 Q1073.8423,454.6437 1074.4731,454.0626 Z " fill="#000000"/><text fill="#000000" font-family="sans-serif" font-size="14" lengthAdjust="spacing" textLength="87" x="1085.5" y="456.4332">Collaborator</text><line style="stroke:#181818;stroke-width:0.5;" x1="1057.5" x2="1174.5" y1="467.1422" y2="467.1422"/><text fill="#000000" font-family="sans-serif" font-size="14" lengthAdjust="spacing" textLength="90" x="1062.5" y="484.6773">-String email</text><line style="stroke:#181818;stroke-width:0.5;" x1="1057.5" x2="1174.5" y1="491.6305" y2="491.6305"/></g><!--class Repositories--><g id="elem_Repositories"><rect codeLine="51" fill="#F1F1F1" height="113.9531" id="Repositories" rx="2.5" ry="2.5" style="stroke:#181818;stroke-width:0.5;" width="215" x="923.5" y="61.4822"/><ellipse cx="984.25" cy="77.4822" fill="#ADD1B2" rx="11" ry="11" style="stroke:#181818;stroke-width:1.0;"/><path d="M987.2231,83.1253 Q986.6421,83.4241 986.0029,83.5735 Q985.3638,83.7229 984.6582,83.7229 Q982.1514,83.7229 980.8315,82.0711 Q979.5117,80.4192 979.5117,77.2981 Q979.5117,74.1687 980.8315,72.5169 Q982.1514,70.865 984.6582,70.865 Q985.3638,70.865 986.0112,71.0144 Q986.6587,71.1638 987.2231,71.4627 L987.2231,74.1853 Q986.5923,73.6043 985.9988,73.3345 Q985.4053,73.0647 984.7744,73.0647 Q983.4297,73.0647 982.7449,74.1314 Q982.0601,75.198 982.0601,77.2981 Q982.0601,79.3899 982.7449,80.4566 Q983.4297,81.5232 984.7744,81.5232 Q985.4053,81.5232 985.9988,81.2534 Q986.5923,80.9837 987.2231,80.4026 Z " fill="#000000"/><text fill="#000000" font-family="sans-serif" font-size="14" lengthAdjust="spacing" textLength="85" x="1004.75" y="82.7732">Repositories</text><line style="stroke:#181818;stroke-width:0.5;" x1="924.5" x2="1137.5" y1="93.4822" y2="93.4822"/><line style="stroke:#181818;stroke-width:0.5;" x1="924.5" x2="1137.5" y1="101.4822" y2="101.4822"/><text fill="#000000" font-family="sans-serif" font-size="14" lengthAdjust="spacing" textLength="103" x="929.5" y="119.0173">-Repositories()</text><text fill="#000000" font-family="sans-serif" font-size="14" lengthAdjust="spacing" textLength="197" x="929.5" y="135.5056">+getInstance() : Repositories</text><text fill="#000000" font-family="sans-serif" font-size="14" lengthAdjust="spacing" textLength="151" x="929.5" y="151.9939">+getEntryRepository()</text><text fill="#000000" font-family="sans-serif" font-size="14" lengthAdjust="spacing" textLength="203" x="929.5" y="168.4822">+getCollaboratorRepository()</text></g><!--class ViewTaskListAssignedCollabController--><g id="elem_ViewTaskListAssignedCollabController"><rect codeLine="58" fill="#F1F1F1" height="130.4414" id="ViewTaskListAssignedCollabController" rx="2.5" ry="2.5" style="stroke:#181818;stroke-width:0.5;" width="297" x="281.5" y="53.2422"/><ellipse cx="296.95" cy="69.2422" fill="#ADD1B2" rx="11" ry="11" style="stroke:#181818;stroke-width:1.0;"/><path d="M299.9231,74.8853 Q299.3421,75.1841 298.7029,75.3335 Q298.0638,75.4829 297.3582,75.4829 Q294.8514,75.4829 293.5315,73.8311 Q292.2117,72.1792 292.2117,69.0581 Q292.2117,65.9287 293.5315,64.2769 Q294.8514,62.625 297.3582,62.625 Q298.0638,62.625 298.7112,62.7744 Q299.3587,62.9238 299.9231,63.2227 L299.9231,65.9453 Q299.2923,65.3643 298.6988,65.0945 Q298.1053,64.8247 297.4744,64.8247 Q296.1297,64.8247 295.4449,65.8914 Q294.7601,66.958 294.7601,69.0581 Q294.7601,71.1499 295.4449,72.2166 Q296.1297,73.2832 297.4744,73.2832 Q298.1053,73.2832 298.6988,73.0134 Q299.2923,72.7437 299.9231,72.1626 Z " fill="#000000"/><text fill="#000000" font-family="sans-serif" font-size="14" lengthAdjust="spacing" textLength="264" x="311.05" y="74.5332">ViewTaskListAssignedCollabController</text><line style="stroke:#181818;stroke-width:0.5;" x1="282.5" x2="577.5" y1="85.2422" y2="85.2422"/><text fill="#000000" font-family="sans-serif" font-size="14" lengthAdjust="spacing" textLength="228" x="287.5" y="102.7773">-EntryRepository entryRepository</text><line style="stroke:#181818;stroke-width:0.5;" x1="282.5" x2="577.5" y1="109.7305" y2="109.7305"/><text fill="#000000" font-family="sans-serif" font-size="14" lengthAdjust="spacing" textLength="285" x="287.5" y="127.2656">+ViewTaskListAssignedCollabController()</text><text fill="#000000" font-family="sans-serif" font-size="14" lengthAdjust="spacing" textLength="186" x="287.5" y="143.7539">+getEntrysAssignedToMe()</text><text fill="#000000" font-family="sans-serif" font-size="14" lengthAdjust="spacing" textLength="219" x="287.5" y="160.2422">+getCollaboratorByEmail(email)</text><text fill="#000000" font-family="sans-serif" font-size="14" lengthAdjust="spacing" textLength="215" x="287.5" y="176.7305">-getCollaboratorFromSession()</text></g><!--class EntryMapper--><g id="elem_EntryMapper"><rect codeLine="66" fill="#F1F1F1" height="97.4648" id="EntryMapper" rx="2.5" ry="2.5" style="stroke:#181818;stroke-width:0.5;" width="124" x="897" y="418.6622"/><ellipse cx="914.25" cy="434.6622" fill="#ADD1B2" rx="11" ry="11" style="stroke:#181818;stroke-width:1.0;"/><path d="M917.2231,440.3053 Q916.6421,440.6041 916.0029,440.7535 Q915.3638,440.9029 914.6582,440.9029 Q912.1514,440.9029 910.8315,439.2511 Q909.5117,437.5992 909.5117,434.4781 Q909.5117,431.3487 910.8315,429.6969 Q912.1514,428.045 914.6582,428.045 Q915.3638,428.045 916.0112,428.1944 Q916.6587,428.3438 917.2231,428.6427 L917.2231,431.3653 Q916.5923,430.7843 915.9988,430.5145 Q915.4053,430.2447 914.7744,430.2447 Q913.4297,430.2447 912.7449,431.3114 Q912.0601,432.378 912.0601,434.4781 Q912.0601,436.5699 912.7449,437.6366 Q913.4297,438.7032 914.7744,438.7032 Q915.4053,438.7032 915.9988,438.4334 Q916.5923,438.1637 917.2231,437.5826 Z " fill="#000000"/><text fill="#000000" font-family="sans-serif" font-size="14" lengthAdjust="spacing" textLength="87" x="928.75" y="439.9532">EntryMapper</text><line style="stroke:#181818;stroke-width:0.5;" x1="898" x2="1020" y1="450.6622" y2="450.6622"/><text fill="#000000" font-family="sans-serif" font-size="14" lengthAdjust="spacing" textLength="112" x="903" y="468.1973">-List&lt;EntryDto&gt;</text><line style="stroke:#181818;stroke-width:0.5;" x1="898" x2="1020" y1="475.1505" y2="475.1505"/><text fill="#000000" font-family="sans-serif" font-size="14" lengthAdjust="spacing" textLength="77" x="903" y="492.6856">+toModel()</text><text fill="#000000" font-family="sans-serif" font-size="14" lengthAdjust="spacing" textLength="59" x="903" y="509.1739">+toDto()</text></g><!--class EntryDto--><g id="elem_EntryDto"><rect codeLine="72" fill="#F1F1F1" height="48" id="EntryDto" rx="2.5" ry="2.5" style="stroke:#181818;stroke-width:0.5;" width="91" x="913.5" y="593.1222"/><ellipse cx="928.5" cy="609.1222" fill="#ADD1B2" rx="11" ry="11" style="stroke:#181818;stroke-width:1.0;"/><path d="M931.4731,614.7653 Q930.8921,615.0641 930.2529,615.2135 Q929.6138,615.3629 928.9082,615.3629 Q926.4014,615.3629 925.0815,613.7111 Q923.7617,612.0592 923.7617,608.9381 Q923.7617,605.8087 925.0815,604.1569 Q926.4014,602.505 928.9082,602.505 Q929.6138,602.505 930.2612,602.6544 Q930.9087,602.8038 931.4731,603.1027 L931.4731,605.8253 Q930.8423,605.2443 930.2488,604.9745 Q929.6553,604.7047 929.0244,604.7047 Q927.6797,604.7047 926.9949,605.7714 Q926.3101,606.838 926.3101,608.9381 Q926.3101,611.0299 926.9949,612.0966 Q927.6797,613.1632 929.0244,613.1632 Q929.6553,613.1632 930.2488,612.8934 Q930.8423,612.6237 931.4731,612.0426 Z " fill="#000000"/><text fill="#000000" font-family="sans-serif" font-size="14" lengthAdjust="spacing" textLength="59" x="942.5" y="614.4132">EntryDto</text><line style="stroke:#181818;stroke-width:0.5;" x1="914.5" x2="1003.5" y1="625.1222" y2="625.1222"/><line style="stroke:#181818;stroke-width:0.5;" x1="914.5" x2="1003.5" y1="633.1222" y2="633.1222"/></g><g id="elem_GMN14"><path d="M614,105.8022 L614,114.4622 L578.98,118.4622 L614,122.4622 L614,131.1127 A0,0 0 0 0 614,131.1127 L888,131.1127 A0,0 0 0 0 888,131.1127 L888,115.8022 L878,105.8022 L614,105.8022 A0,0 0 0 0 614,105.8022 " fill="#FEFFDD" style="stroke:#181818;stroke-width:0.5;"/><path d="M878,105.8022 L878,115.8022 L888,115.8022 L878,105.8022 " fill="#FEFFDD" style="stroke:#181818;stroke-width:0.5;"/><text fill="#000000" font-family="sans-serif" font-size="13" lengthAdjust="spacing" textLength="253" x="620" y="123.3705">- entry is achieved with entry repository</text></g><g id="elem_GMN17"><path d="M429,447.0822 L429,487.7033 A0,0 0 0 0 429,487.7033 L583,487.7033 A0,0 0 0 0 583,487.7033 L583,457.0822 L573,447.0822 L528.07,447.0822 L621.21,341.9222 L520.07,447.0822 L429,447.0822 A0,0 0 0 0 429,447.0822 " fill="#FEFFDD" style="stroke:#181818;stroke-width:0.5;"/><path d="M573,447.0822 L573,457.0822 L583,457.0822 L573,447.0822 " fill="#FEFFDD" style="stroke:#181818;stroke-width:0.5;"/><text fill="#000000" font-family="sans-serif" font-size="13" lengthAdjust="spacing" textLength="133" x="435" y="464.6505">- used for displaying</text><text fill="#000000" font-family="sans-serif" font-size="13" lengthAdjust="spacing" textLength="81" x="435" y="479.9611">the to do list</text></g><!--class ViewTaskListAssignedCollabUI--><g id="elem_ViewTaskListAssignedCollabUI"><rect codeLine="85" fill="#F1F1F1" height="48" id="ViewTaskListAssignedCollabUI" rx="2.5" ry="2.5" style="stroke:#181818;stroke-width:0.5;" width="240" x="7" y="94.4622"/><ellipse cx="22" cy="110.4622" fill="#ADD1B2" rx="11" ry="11" style="stroke:#181818;stroke-width:1.0;"/><path d="M24.9731,116.1053 Q24.3921,116.4041 23.7529,116.5535 Q23.1138,116.7029 22.4082,116.7029 Q19.9014,116.7029 18.5815,115.0511 Q17.2617,113.3992 17.2617,110.2781 Q17.2617,107.1487 18.5815,105.4969 Q19.9014,103.845 22.4082,103.845 Q23.1138,103.845 23.7612,103.9944 Q24.4087,104.1438 24.9731,104.4427 L24.9731,107.1653 Q24.3423,106.5843 23.7488,106.3145 Q23.1553,106.0447 22.5244,106.0447 Q21.1797,106.0447 20.4949,107.1114 Q19.8101,108.178 19.8101,110.2781 Q19.8101,112.3699 20.4949,113.4366 Q21.1797,114.5032 22.5244,114.5032 Q23.1553,114.5032 23.7488,114.2334 Q24.3423,113.9637 24.9731,113.3826 Z " fill="#000000"/><text fill="#000000" font-family="sans-serif" font-size="14" lengthAdjust="spacing" textLength="208" x="36" y="115.7532">ViewTaskListAssignedCollabUI</text><line style="stroke:#181818;stroke-width:0.5;" x1="8" x2="246" y1="126.4622" y2="126.4622"/><line style="stroke:#181818;stroke-width:0.5;" x1="8" x2="246" y1="134.4622" y2="134.4622"/></g><!--link Repositories to Repositories--><g id="link_Repositories_Repositories"><path codeLine="88" d="M1138.81,99.9722 C1159.15,102.2222 1173.5,108.3822 1173.5,118.4622 C1173.5,128.5422 1165.1139,134.0454 1144.7739,136.2854 " fill="none" id="Repositories-to-Repositories" style="stroke:#181818;stroke-width:1.0;"/><polygon fill="#181818" points="1138.81,136.9422,1148.1938,139.933,1143.78,136.3949,1147.3181,131.981,1138.81,136.9422" style="stroke:#181818;stroke-width:1.0;"/><text fill="#000000" font-family="sans-serif" font-size="13" lengthAdjust="spacing" textLength="53" x="1179.5" y="123.5305">instance</text></g><!--link ApplicationSession to ApplicationSession--><g id="link_ApplicationSession_ApplicationSession"><path codeLine="89" d="M398.31,286.5922 C418.2,287.6722 433,292.5322 433,301.1722 C433,309.8122 424.1912,314.3469 404.3012,315.4269 " fill="none" id="ApplicationSession-to-ApplicationSession" style="stroke:#181818;stroke-width:1.0;"/><polygon fill="#181818" points="398.31,315.7522,407.5136,319.2583,403.3026,315.4811,407.0799,311.2701,398.31,315.7522" style="stroke:#181818;stroke-width:1.0;"/><text fill="#000000" font-family="sans-serif" font-size="13" lengthAdjust="spacing" textLength="53" x="439" y="306.2405">instance</text></g><!--link ViewTaskListAssignedCollabUI to ViewTaskListAssignedCollabController--><g id="link_ViewTaskListAssignedCollabUI_ViewTaskListAssignedCollabController"><path codeLine="91" d="M247.47,118.4622 C257.1,118.4622 263.19,118.4622 275.09,118.4622 " fill="none" id="ViewTaskListAssignedCollabUI-to-ViewTaskListAssignedCollabController" style="stroke:#181818;stroke-width:1.0;stroke-dasharray:7.0,7.0;"/><polygon fill="#181818" points="281.09,118.4622,272.09,114.4622,276.09,118.4622,272.09,122.4622,281.09,118.4622" style="stroke:#181818;stroke-width:1.0;"/></g><!--link ViewTaskListAssignedCollabController to Repositories--><g id="link_ViewTaskListAssignedCollabController_Repositories"><path codeLine="93" d="M578.86,59.9722 C589.41,55.8322 596,53.2422 596,53.2422 C596,53.2422 712.5,23.5222 712.5,23.5222 C712.5,23.5222 789.5,23.5222 789.5,23.5222 C789.5,23.5222 906,53.2422 906,53.2422 C906,53.2422 907.4304,53.987 917.8004,59.397 " fill="none" id="ViewTaskListAssignedCollabController-to-Repositories" style="stroke:#181818;stroke-width:1.0;stroke-dasharray:7.0,7.0;"/><polygon fill="#181818" points="923.12,62.1722,916.9907,54.463,918.687,59.8595,913.2905,61.5558,923.12,62.1722" style="stroke:#181818;stroke-width:1.0;"/><text fill="#000000" font-family="sans-serif" font-size="13" lengthAdjust="spacing" textLength="75" x="713.5" y="19.8105">repositories</text></g><!--link Repositories to EntryRepository--><g id="link_Repositories_EntryRepository"><path codeLine="94" d="M923.12,174.8822 C912.75,180.2122 906,183.6822 906,183.6822 C906,183.6822 820.2208,223.9713 748.4308,257.6913 " fill="none" id="Repositories-to-EntryRepository" style="stroke:#181818;stroke-width:1.0;"/><polygon fill="#181818" points="743,260.2422,752.8467,260.0364,747.5256,258.1165,749.4456,252.7954,743,260.2422" style="stroke:#181818;stroke-width:1.0;"/><text fill="#000000" font-family="sans-serif" font-size="13" lengthAdjust="spacing" textLength="8" x="907.6031" y="175.748">1</text><text fill="#000000" font-family="sans-serif" font-size="13" lengthAdjust="spacing" textLength="8" x="748.4156" y="249.8153">1</text></g><!--link Repositories to CollaboratorRepository--><g id="link_Repositories_CollaboratorRepository"><path codeLine="95" d="M1056.81,175.6422 C1069.42,203.1022 1081.7962,230.0396 1093.2162,254.9096 " fill="none" id="Repositories-to-CollaboratorRepository" style="stroke:#181818;stroke-width:1.0;"/><polygon fill="#181818" points="1095.72,260.3622,1095.5994,250.5141,1093.6335,255.8183,1088.3293,253.8524,1095.72,260.3622" style="stroke:#181818;stroke-width:1.0;"/><text fill="#000000" font-family="sans-serif" font-size="13" lengthAdjust="spacing" textLength="8" x="1051.4681" y="196.1128">1</text><text fill="#000000" font-family="sans-serif" font-size="13" lengthAdjust="spacing" textLength="8" x="1084.0299" y="249.9552">1</text></g><!--link ViewTaskListAssignedCollabController to EntryRepository--><g id="link_ViewTaskListAssignedCollabController_EntryRepository"><path codeLine="97" d="M511.35,183.9322 C543.45,209.3722 574.6174,234.0858 602.8474,256.4558 " fill="none" id="ViewTaskListAssignedCollabController-to-EntryRepository" style="stroke:#181818;stroke-width:1.0;stroke-dasharray:7.0,7.0;"/><polygon fill="#181818" points="607.55,260.1822,602.9804,251.4576,603.6312,257.0769,598.0119,257.7276,607.55,260.1822" style="stroke:#181818;stroke-width:1.0;"/><text fill="#000000" font-family="sans-serif" font-size="13" lengthAdjust="spacing" textLength="99" x="566" y="227.2505">EntryRepository</text></g><!--link ViewTaskListAssignedCollabController to EntryMapper--><g id="link_ViewTaskListAssignedCollabController_EntryMapper"><path codeLine="98" d="M578.86,177.0522 C589.41,181.1322 596,183.6822 596,183.6822 C596,183.6822 804,260.6822 804,260.6822 C804,260.6822 873.2394,352.5701 919.0494,413.3701 " fill="none" id="ViewTaskListAssignedCollabController-to-EntryMapper" style="stroke:#181818;stroke-width:1.0;stroke-dasharray:7.0,7.0;"/><polygon fill="#181818" points="922.66,418.1622,920.4388,408.5671,919.6512,414.1688,914.0494,413.3812,922.66,418.1622" style="stroke:#181818;stroke-width:1.0;"/><text fill="#000000" font-family="sans-serif" font-size="13" lengthAdjust="spacing" textLength="78" x="865" y="306.2405">EntryMapper</text></g><!--link EntryMapper to EntryDto--><g id="link_EntryMapper_EntryDto"><path codeLine="100" d="M959,516.3522 C959,541.9622 959,566.3322 959,586.7822 " fill="none" id="EntryMapper-to-EntryDto" style="stroke:#181818;stroke-width:1.0;"/><polygon fill="#181818" points="959,592.7822,963,583.7822,959,587.7822,955,583.7822,959,592.7822" style="stroke:#181818;stroke-width:1.0;"/><text fill="#000000" font-family="sans-serif" font-size="13" lengthAdjust="spacing" textLength="8" x="950.4625" y="536.5279">1</text><text fill="#000000" font-family="sans-serif" font-size="13" lengthAdjust="spacing" textLength="6" x="952.2313" y="582.2313">*</text></g><!--link CollaboratorRepository to Collaborator--><g id="link_CollaboratorRepository_Collaborator"><path codeLine="102" d="M1114.48,341.9222 C1114.83,370.4022 1115.2174,402.2426 1115.5374,428.6926 " fill="none" id="CollaboratorRepository-to-Collaborator" style="stroke:#181818;stroke-width:1.0;"/><polygon fill="#181818" points="1115.61,434.6922,1119.5008,425.6445,1115.5495,429.6926,1111.5014,425.7412,1115.61,434.6922" style="stroke:#181818;stroke-width:1.0;"/><text fill="#000000" font-family="sans-serif" font-size="13" lengthAdjust="spacing" textLength="83" x="1116" y="385.2305">collaborators</text><text fill="#000000" font-family="sans-serif" font-size="13" lengthAdjust="spacing" textLength="8" x="1105.919" y="362.2054">1</text><text fill="#000000" font-family="sans-serif" font-size="13" lengthAdjust="spacing" textLength="6" x="1108.9426" y="424.3779">*</text></g><!--link ApplicationSession to UserSession--><g id="link_ApplicationSession_UserSession"><path codeLine="104" d="M270.82,341.7822 C252.63,357.3922 236,371.6622 236,371.6622 C236,371.6622 222.9642,401.7862 211.0342,429.3362 " fill="none" id="ApplicationSession-to-UserSession" style="stroke:#181818;stroke-width:1.0;"/><polygon fill="#181818" points="208.65,434.8422,215.897,428.1728,210.6369,430.2539,208.5557,424.9938,208.65,434.8422" style="stroke:#181818;stroke-width:1.0;"/><text fill="#000000" font-family="sans-serif" font-size="13" lengthAdjust="spacing" textLength="75" x="237" y="385.2305">userSession</text><text fill="#000000" font-family="sans-serif" font-size="13" lengthAdjust="spacing" textLength="8" x="202.6403" y="424.1835">1</text></g><!--link ViewTaskListAssignedCollabController to ApplicationSession--><g id="link_ViewTaskListAssignedCollabController_ApplicationSession"><path codeLine="105" d="M389.68,183.9322 C373.77,209.3722 359.1831,232.7261 345.1831,255.0961 " fill="none" id="ViewTaskListAssignedCollabController-to-ApplicationSession" style="stroke:#181818;stroke-width:1.0;stroke-dasharray:7.0,7.0;"/><polygon fill="#181818" points="342,260.1822,350.1653,254.6751,344.6525,255.9438,343.3839,250.431,342,260.1822" style="stroke:#181818;stroke-width:1.0;"/></g><!--link ViewTaskListAssignedCollabController to UserSession--><g id="link_ViewTaskListAssignedCollabController_UserSession"><path codeLine="106" d="M333,184.0822 C277.17,221.2622 218,260.6822 218,260.6822 C218,260.6822 205.6675,371.0294 199.2075,428.7394 " fill="none" id="ViewTaskListAssignedCollabController-to-UserSession" style="stroke:#181818;stroke-width:1.0;stroke-dasharray:7.0,7.0;"/><polygon fill="#181818" points="198.54,434.7022,203.5164,426.203,199.0962,429.7332,195.566,425.3131,198.54,434.7022" style="stroke:#181818;stroke-width:1.0;"/></g><!--link EntryRepository to Entry--><g id="link_EntryRepository_Entry"><path codeLine="107" d="M680.64,342.1222 C693.47,364.7822 707,388.6622 707,388.6622 C707,388.6622 734.2003,408.2371 763.3903,429.2471 " fill="none" id="EntryRepository-to-Entry" style="stroke:#181818;stroke-width:1.0;"/><polygon fill="#181818" points="768.26,432.7522,763.2921,424.2481,764.2019,429.8313,758.6187,430.7411,768.26,432.7522" style="stroke:#181818;stroke-width:1.0;"/><text fill="#000000" font-family="sans-serif" font-size="13" lengthAdjust="spacing" textLength="42" x="708" y="385.2305">entry's</text><text fill="#000000" font-family="sans-serif" font-size="13" lengthAdjust="spacing" textLength="8" x="675.4943" y="362.1335">1</text><text fill="#000000" font-family="sans-serif" font-size="13" lengthAdjust="spacing" textLength="6" x="754.6436" y="423.8913">*</text></g><!--link EntryRepository to CollaboratorUser--><g id="link_EntryRepository_CollaboratorUser"><path codeLine="108" d="M554.49,342.0922 C467.07,375.8122 356,418.6622 356,418.6622 C356,418.6622 356,516.1222 356,516.1222 C356,516.1222 452.0649,560.6022 515.9149,590.1522 " fill="none" id="EntryRepository-to-CollaboratorUser" style="stroke:#181818;stroke-width:1.0;"/><polygon fill="#181818" points="521.36,592.6722,514.8723,585.2621,516.8224,590.5722,511.5123,592.5222,521.36,592.6722" style="stroke:#181818;stroke-width:1.0;"/><text fill="#000000" font-family="sans-serif" font-size="13" lengthAdjust="spacing" textLength="53" x="357" y="472.4605">employs</text><text fill="#000000" font-family="sans-serif" font-size="13" lengthAdjust="spacing" textLength="6" x="502.2853" y="582.4906">*</text></g><!--link EntryRepository to EntryMapper--><g id="link_EntryRepository_EntryMapper"><path codeLine="109" d="M733.75,342.0922 C797.72,375.8122 879,418.6622 879,418.6622 C879,418.6622 881.278,420.017 891.598,426.177 " fill="none" id="EntryRepository-to-EntryMapper" style="stroke:#181818;stroke-width:1.0;stroke-dasharray:7.0,7.0;"/><polygon fill="#181818" points="896.75,429.2522,891.0722,421.2047,892.4567,426.6895,886.9719,428.074,896.75,429.2522" style="stroke:#181818;stroke-width:1.0;"/></g><!--link Entry to CollaboratorUser--><g id="link_Entry_CollaboratorUser"><path codeLine="110" d="M768.15,496.8722 C722.22,524.7922 658.1871,563.7256 615.4471,589.7056 " fill="none" id="Entry-to-CollaboratorUser" style="stroke:#181818;stroke-width:1.0;"/><polygon fill="#181818" points="610.32,592.8222,620.0883,591.5654,614.5926,590.2251,615.9329,584.7293,610.32,592.8222" style="stroke:#181818;stroke-width:1.0;"/><text fill="#000000" font-family="sans-serif" font-size="13" lengthAdjust="spacing" textLength="53" x="688" y="559.6905">employs</text><text fill="#000000" font-family="sans-serif" font-size="13" lengthAdjust="spacing" textLength="6" x="613.3708" y="582.2816">*</text></g><!--link Task to Entry--><g id="link_Task_Entry"><path codeLine="111" d="M682.21,467.3922 C706.68,467.3922 734.71,467.3922 762.2,467.3922 " fill="none" id="Task-to-Entry" style="stroke:#181818;stroke-width:1.0;"/><polygon fill="#181818" points="768.2,467.3922,759.2,463.3922,763.2,467.3922,759.2,471.3922,768.2,467.3922" style="stroke:#181818;stroke-width:1.0;"/><text fill="#000000" font-family="sans-serif" font-size="13" lengthAdjust="spacing" textLength="50" x="700.25" y="460.9605">extends</text><text fill="#000000" font-family="sans-serif" font-size="13" lengthAdjust="spacing" textLength="8" x="690.1309" y="463.3539">1</text><text fill="#000000" font-family="sans-serif" font-size="13" lengthAdjust="spacing" textLength="8" x="752.4213" y="463.8355">1</text></g><!--SRC=[bLLDRzim3BthLn2zPDsGOhi6Gu2qwu00wsLfTrTjnX4gIuR4hFEA_VTHjXBB7-syN1pnuv5yUhGN_acPIZfPGccDpGxEbWZaZYWwJoMp9rdWZcgDu30ZQGgT1lY3pEspCWNifVQfHok3L5S8bTLrE8Z5XDCwiYB9ohJqVaFarEEHS9jPirE_4JuAiT2u9o0BJXK7Wbo5TfGrGZGviAaghJ8PJ3lqdXyl0lZt0JonDOC2QMlulydmtMLqiUtcw1mQYZdi-ND2VF3e1b0S7wotfLGw3RsnMij7woHP5mBW9VYYyzQGgw65MC8zoZAYDOwqb-1BOU-bVneXVSVAUiM5EinloXDyRhnhM07VcCcbw70RptMTTharcoRgjIcwAccHpsd8EgdGJoqu51tcr_MRJ9txt_5ziuGm12VZddjGwC-ngJ7bhhjRPY0D6j3G3TPJmUJeQUC_53w7-mWqR5WKXS6ypRgnZCl_i1jeU57OFyUwSo3J9XjKVugyjtVusWWduXj6BsDJWvYllF0Jgc-AtCcgGjUx-SR-XUmwLYHxPtFKvmx8idC4nBPMmCOInjMr-rcJn-8DTQ0yoEoWy2VcyApe4CskevJ53A58BFLeYMmPQjrESB-4esUaFMimLxxIicRzDHuwO7Z9v9RVKPuIr7-fu67RBdrFjCjrNyGhK56cOlo-2j4JrYH7l5d-QZsFLp5BobUZrbswL3tVnQSBM7BtuJca-zN0wPMRsnstDroorQZs_q6reZ_1j2SXKjUv_VSNPtaBCJr8BxZtrbj1bXozc9H292dv1d7UiJlDdssCFZytAI-6T8_8u0QRhLpuKUmK3yrtabFAIjjwd3AubjO_1oWCrZQN23BuVn5lCzFz5m00]--></g></svg>