<?xml version="1.0" encoding="us-ascii" standalone="no"?><svg xmlns="http://www.w3.org/2000/svg" xmlns:xlink="http://www.w3.org/1999/xlink" contentStyleType="text/css" height="571.2px" preserveAspectRatio="none" style="width:1260px;height:571px;background:#FFFFFF;" version="1.1" viewBox="0 0 1260 571" width="1260px" zoomAndPan="magnify"><defs/><g><rect fill="#FFFFFF" height="456.9398" style="stroke:#181818;stroke-width:0.6;" width="6" x="37.2" y="54.893"/><rect fill="#FFFFFF" height="449.5535" style="stroke:#181818;stroke-width:0.6;" width="6" x="192" y="67.6793"/><rect fill="#FFFFFF" height="402.9809" style="stroke:#181818;stroke-width:0.6;" width="6" x="336" y="91.2656"/><rect fill="#FFFFFF" height="18" style="stroke:#181818;stroke-width:0.6;" width="6" x="445.5" y="110.1586"/><rect fill="#FFFFFF" height="87.1453" style="stroke:#181818;stroke-width:0.6;" width="6" x="588" y="207.9973"/><rect fill="#FFFFFF" height="38.7727" style="stroke:#181818;stroke-width:0.6;" width="6" x="591" y="230.3836"/><rect fill="#FFFFFF" height="163.9313" style="stroke:#181818;stroke-width:0.6;" width="6" x="881.7" y="312.7289"/><rect fill="#FFFFFF" height="20.5863" style="stroke:#181818;stroke-width:0.6;" width="6" x="884.7" y="395.5945"/><rect fill="#FFFFFF" height="18" style="stroke:#181818;stroke-width:0.6;" width="6" x="1002.9" y="441.0738"/><rect fill="#FFFFFF" height="18" style="stroke:#181818;stroke-width:0.6;" width="6" x="1120.5" y="355.2082"/><rect fill="#FFFFFF" height="18" style="stroke:#181818;stroke-width:0.6;" width="6" x="1214.4" y="172.4109"/><rect fill="none" height="35.7727" style="stroke:#000000;stroke-width:0.8999999999999999;" width="204" x="547.2" y="242.3836"/><line style="stroke:#181818;stroke-width:0.3;stroke-dasharray:5.0,5.0;" x1="40.2" x2="40.2" y1="48.893" y2="522.6328"/><line style="stroke:#181818;stroke-width:0.3;stroke-dasharray:5.0,5.0;" x1="195" x2="195" y1="48.893" y2="522.6328"/><line style="stroke:#181818;stroke-width:0.3;stroke-dasharray:5.0,5.0;" x1="339" x2="339" y1="90.9258" y2="522.6328"/><line style="stroke:#181818;stroke-width:0.3;stroke-dasharray:5.0,5.0;" x1="448.2" x2="448.2" y1="48.893" y2="522.6328"/><line style="stroke:#181818;stroke-width:0.3;stroke-dasharray:5.0,5.0;" x1="516" x2="516" y1="48.893" y2="522.6328"/><line style="stroke:#181818;stroke-width:0.3;stroke-dasharray:5.0,5.0;" x1="591" x2="591" y1="48.893" y2="522.6328"/><line style="stroke:#181818;stroke-width:0.3;stroke-dasharray:5.0,5.0;" x1="750.9" x2="750.9" y1="48.893" y2="522.6328"/><line style="stroke:#181818;stroke-width:0.3;stroke-dasharray:5.0,5.0;" x1="795.9" x2="795.9" y1="421.841" y2="522.6328"/><line style="stroke:#181818;stroke-width:0.3;stroke-dasharray:5.0,5.0;" x1="884.4" x2="884.4" y1="48.893" y2="522.6328"/><line style="stroke:#181818;stroke-width:0.3;stroke-dasharray:5.0,5.0;" x1="1005.9" x2="1005.9" y1="335.9754" y2="522.6328"/><line style="stroke:#181818;stroke-width:0.3;stroke-dasharray:5.0,5.0;" x1="1123.5" x2="1123.5" y1="48.893" y2="522.6328"/><line style="stroke:#181818;stroke-width:0.3;stroke-dasharray:5.0,5.0;" x1="1217.1" x2="1217.1" y1="48.893" y2="522.6328"/><text fill="#000000" font-family="sans-serif" font-size="8.4" lengthAdjust="spacing" textLength="70.8" x="3" y="47.1211">CollaboratorUser</text><ellipse cx="40.2" cy="8.1" fill="#E3E3E3" rx="4.8" ry="4.8" style="stroke:#181818;stroke-width:0.3;"/><path d="M40.2,12.9 L40.2,29.1 M32.4,17.7 L48,17.7 M40.2,29.1 L32.4,38.1 M40.2,29.1 L48,38.1 " fill="none" style="stroke:#181818;stroke-width:0.3;"/><text fill="#000000" font-family="sans-serif" font-size="8.4" lengthAdjust="spacing" textLength="70.8" x="3" y="530.1539">CollaboratorUser</text><ellipse cx="40.2" cy="537.0258" fill="#E3E3E3" rx="4.8" ry="4.8" style="stroke:#181818;stroke-width:0.3;"/><path d="M40.2,541.8258 L40.2,558.0258 M32.4,546.6258 L48,546.6258 M40.2,558.0258 L32.4,567.0258 M40.2,558.0258 L48,567.0258 " fill="none" style="stroke:#181818;stroke-width:0.3;"/><rect fill="#E3E3E3" height="18.293" rx="1.5" ry="1.5" style="stroke:#181818;stroke-width:0.3;" width="111.6" x="139.2" y="30"/><text fill="#000000" font-family="sans-serif" font-size="8.4" lengthAdjust="spacing" textLength="103.2" x="143.4" y="42.3211">:AssignEntryOnAgendaUI</text><rect fill="#E3E3E3" height="18.293" rx="1.5" ry="1.5" style="stroke:#181818;stroke-width:0.3;" width="111.6" x="139.2" y="522.0328"/><text fill="#000000" font-family="sans-serif" font-size="8.4" lengthAdjust="spacing" textLength="103.2" x="143.4" y="534.3539">:AssignEntryOnAgendaUI</text><rect fill="#E3E3E3" height="18.293" rx="1.5" ry="1.5" style="stroke:#181818;stroke-width:0.3;" width="145.2" x="266.4" y="522.0328"/><text fill="#000000" font-family="sans-serif" font-size="8.4" lengthAdjust="spacing" textLength="136.8" x="270.6" y="534.3539">:AssignEntryOnAgendaController</text><rect fill="#E3E3E3" height="18.293" rx="1.5" ry="1.5" style="stroke:#181818;stroke-width:0.3;" width="61.8" x="417.6" y="30"/><text fill="#000000" font-family="sans-serif" font-size="8.4" lengthAdjust="spacing" textLength="53.4" x="421.8" y="42.3211">:Repositories</text><rect fill="#E3E3E3" height="18.293" rx="1.5" ry="1.5" style="stroke:#181818;stroke-width:0.3;" width="61.8" x="417.6" y="522.0328"/><text fill="#000000" font-family="sans-serif" font-size="8.4" lengthAdjust="spacing" textLength="53.4" x="421.8" y="534.3539">:Repositories</text><rect fill="#E3E3E3" height="28.1859" rx="1.5" ry="1.5" style="stroke:#181818;stroke-width:0.3;" width="61.8" x="485.4" y="20.107"/><text fill="#000000" font-family="sans-serif" font-size="8.4" lengthAdjust="spacing" textLength="49.2" x="491.7" y="32.4281">repositories</text><text fill="#000000" font-family="sans-serif" font-size="8.4" lengthAdjust="spacing" textLength="53.4" x="489.6" y="42.3211">:Repositories</text><rect fill="#E3E3E3" height="28.1859" rx="1.5" ry="1.5" style="stroke:#181818;stroke-width:0.3;" width="61.8" x="485.4" y="522.0328"/><text fill="#000000" font-family="sans-serif" font-size="8.4" lengthAdjust="spacing" textLength="49.2" x="491.7" y="534.3539">repositories</text><text fill="#000000" font-family="sans-serif" font-size="8.4" lengthAdjust="spacing" textLength="53.4" x="489.6" y="544.2469">:Repositories</text><rect fill="#E3E3E3" height="28.1859" rx="1.5" ry="1.5" style="stroke:#181818;stroke-width:0.3;" width="75.6" x="553.2" y="20.107"/><text fill="#000000" font-family="sans-serif" font-size="8.4" lengthAdjust="spacing" textLength="64.8" x="558.6" y="32.4281">entryRepository</text><text fill="#000000" font-family="sans-serif" font-size="8.4" lengthAdjust="spacing" textLength="67.2" x="557.4" y="42.3211">:EntryRepository</text><rect fill="#E3E3E3" height="28.1859" rx="1.5" ry="1.5" style="stroke:#181818;stroke-width:0.3;" width="75.6" x="553.2" y="522.0328"/><text fill="#000000" font-family="sans-serif" font-size="8.4" lengthAdjust="spacing" textLength="64.8" x="558.6" y="534.3539">entryRepository</text><text fill="#000000" font-family="sans-serif" font-size="8.4" lengthAdjust="spacing" textLength="67.2" x="557.4" y="544.2469">:EntryRepository</text><rect fill="#E3E3E3" height="18.293" rx="1.5" ry="1.5" style="stroke:#181818;stroke-width:0.3;" width="31.8" x="735.3" y="30"/><text fill="#000000" font-family="sans-serif" font-size="8.4" lengthAdjust="spacing" textLength="23.4" x="739.5" y="42.3211">:Entry</text><rect fill="#E3E3E3" height="18.293" rx="1.5" ry="1.5" style="stroke:#181818;stroke-width:0.3;" width="31.8" x="735.3" y="522.0328"/><text fill="#000000" font-family="sans-serif" font-size="8.4" lengthAdjust="spacing" textLength="23.4" x="739.5" y="534.3539">:Entry</text><rect fill="#E3E3E3" height="18.293" rx="1.5" ry="1.5" style="stroke:#181818;stroke-width:0.3;" width="46.2" x="773.1" y="522.0328"/><text fill="#000000" font-family="sans-serif" font-size="8.4" lengthAdjust="spacing" textLength="37.8" x="777.3" y="534.3539">:EntryDto</text><rect fill="#E3E3E3" height="18.293" rx="1.5" ry="1.5" style="stroke:#181818;stroke-width:0.3;" width="63" x="853.2" y="30"/><text fill="#000000" font-family="sans-serif" font-size="8.4" lengthAdjust="spacing" textLength="54.6" x="857.4" y="42.3211">:EntryMapper</text><rect fill="#E3E3E3" height="18.293" rx="1.5" ry="1.5" style="stroke:#181818;stroke-width:0.3;" width="63" x="853.2" y="522.0328"/><text fill="#000000" font-family="sans-serif" font-size="8.4" lengthAdjust="spacing" textLength="54.6" x="857.4" y="534.3539">:EntryMapper</text><rect fill="#E3E3E3" height="18.293" rx="1.5" ry="1.5" style="stroke:#181818;stroke-width:0.3;" width="126" x="942.9" y="522.0328"/><text fill="#000000" font-family="sans-serif" font-size="8.4" lengthAdjust="spacing" textLength="117.6" x="947.1" y="534.3539">toDoListDto : List&lt;EntryDto&gt;</text><rect fill="#E3E3E3" height="18.293" rx="1.5" ry="1.5" style="stroke:#181818;stroke-width:0.3;" width="97.2" x="1074.9" y="30"/><text fill="#000000" font-family="sans-serif" font-size="8.4" lengthAdjust="spacing" textLength="88.8" x="1079.1" y="42.3211">toDoList : List&lt;Entry&gt;</text><rect fill="#E3E3E3" height="18.293" rx="1.5" ry="1.5" style="stroke:#181818;stroke-width:0.3;" width="97.2" x="1074.9" y="522.0328"/><text fill="#000000" font-family="sans-serif" font-size="8.4" lengthAdjust="spacing" textLength="88.8" x="1079.1" y="534.3539">toDoList : List&lt;Entry&gt;</text><rect fill="#E3E3E3" height="18.293" rx="1.5" ry="1.5" style="stroke:#181818;stroke-width:0.3;" width="78.6" x="1178.1" y="30"/><text fill="#000000" font-family="sans-serif" font-size="8.4" lengthAdjust="spacing" textLength="70.2" x="1182.3" y="42.3211">CollabRepository</text><rect fill="#E3E3E3" height="18.293" rx="1.5" ry="1.5" style="stroke:#181818;stroke-width:0.3;" width="78.6" x="1178.1" y="522.0328"/><text fill="#000000" font-family="sans-serif" font-size="8.4" lengthAdjust="spacing" textLength="70.2" x="1182.3" y="534.3539">CollabRepository</text><rect fill="#FFFFFF" height="456.9398" style="stroke:#181818;stroke-width:0.6;" width="6" x="37.2" y="54.893"/><rect fill="#FFFFFF" height="449.5535" style="stroke:#181818;stroke-width:0.6;" width="6" x="192" y="67.6793"/><rect fill="#FFFFFF" height="402.9809" style="stroke:#181818;stroke-width:0.6;" width="6" x="336" y="91.2656"/><rect fill="#FFFFFF" height="18" style="stroke:#181818;stroke-width:0.6;" width="6" x="445.5" y="110.1586"/><rect fill="#FFFFFF" height="87.1453" style="stroke:#181818;stroke-width:0.6;" width="6" x="588" y="207.9973"/><rect fill="#FFFFFF" height="38.7727" style="stroke:#181818;stroke-width:0.6;" width="6" x="591" y="230.3836"/><rect fill="#FFFFFF" height="163.9313" style="stroke:#181818;stroke-width:0.6;" width="6" x="881.7" y="312.7289"/><rect fill="#FFFFFF" height="20.5863" style="stroke:#181818;stroke-width:0.6;" width="6" x="884.7" y="395.5945"/><rect fill="#FFFFFF" height="18" style="stroke:#181818;stroke-width:0.6;" width="6" x="1002.9" y="441.0738"/><rect fill="#FFFFFF" height="18" style="stroke:#181818;stroke-width:0.6;" width="6" x="1120.5" y="355.2082"/><rect fill="#FFFFFF" height="18" style="stroke:#181818;stroke-width:0.6;" width="6" x="1214.4" y="172.4109"/><polygon fill="#181818" points="184.8,65.2793,190.8,67.6793,184.8,70.0793,187.2,67.6793" style="stroke:#181818;stroke-width:0.6;"/><line style="stroke:#181818;stroke-width:0.6;" x1="43.2" x2="188.4" y1="67.6793" y2="67.6793"/><text fill="#000000" font-family="sans-serif" font-size="7.8" font-weight="bold" lengthAdjust="spacing" textLength="5.4" x="47.4" y="64.834">1</text><text fill="#000000" font-family="sans-serif" font-size="7.8" lengthAdjust="spacing" textLength="129.6" x="55.2" y="64.834">asks to view tasks assigned to me</text><polygon fill="#181818" points="259.2,82.8656,265.2,85.2656,259.2,87.6656,261.6,85.2656" style="stroke:#181818;stroke-width:0.6;"/><line style="stroke:#181818;stroke-width:0.6;" x1="198" x2="262.8" y1="85.2656" y2="85.2656"/><text fill="#000000" font-family="sans-serif" font-size="7.8" font-weight="bold" lengthAdjust="spacing" textLength="5.4" x="202.2" y="82.4203">2</text><text fill="#000000" font-family="sans-serif" font-size="7.8" lengthAdjust="spacing" textLength="22.8" x="210" y="82.4203">create</text><rect fill="#E3E3E3" height="18.293" rx="1.5" ry="1.5" style="stroke:#181818;stroke-width:0.3;" width="145.2" x="266.4" y="72.4793"/><text fill="#000000" font-family="sans-serif" font-size="8.4" lengthAdjust="spacing" textLength="136.8" x="270.6" y="84.8004">:AssignEntryOnAgendaController</text><polygon fill="#181818" points="438.3,107.7586,444.3,110.1586,438.3,112.5586,440.7,110.1586" style="stroke:#181818;stroke-width:0.6;"/><line style="stroke:#181818;stroke-width:0.6;" x1="342" x2="441.9" y1="110.1586" y2="110.1586"/><text fill="#000000" font-family="sans-serif" font-size="7.8" font-weight="bold" lengthAdjust="spacing" textLength="5.4" x="346.2" y="107.3133">3</text><text fill="#000000" font-family="sans-serif" font-size="7.8" lengthAdjust="spacing" textLength="48.6" x="354" y="107.3133">getInstance()</text><rect fill="none" height="23.666" style="stroke:#000000;stroke-width:0.8999999999999999;" width="108" x="415.8" y="132.9586"/><path d="M415.8,132.9586 L454.2,132.9586 L454.2,137.1586 L448.2,143.1586 L415.8,143.1586 L415.8,132.9586 " fill="#EEEEEE" style="stroke:#000000;stroke-width:1.2;"/><text fill="#000000" font-family="sans-serif" font-size="7.8" font-weight="bold" lengthAdjust="spacing" textLength="11.4" x="423.6" y="141.6996">ref</text><text fill="#000000" font-family="sans-serif" font-size="7.2" lengthAdjust="spacing" textLength="103.2" x="418.2" y="152.5195">Get Collaborator from session</text><polygon fill="#181818" points="348.6,170.0109,342.6,172.4109,348.6,174.8109,346.2,172.4109" style="stroke:#181818;stroke-width:0.6;"/><line style="stroke:#181818;stroke-width:0.6;" x1="345" x2="1213.8" y1="172.4109" y2="172.4109"/><text fill="#000000" font-family="sans-serif" font-size="7.8" font-weight="bold" lengthAdjust="spacing" textLength="5.4" x="352.2" y="169.5656">4</text><text fill="#000000" font-family="sans-serif" font-size="7.8" lengthAdjust="spacing" textLength="45.6" x="360" y="169.5656">collaborator</text><polygon fill="#181818" points="580.8,205.5973,586.8,207.9973,580.8,210.3973,583.2,207.9973" style="stroke:#181818;stroke-width:0.6;"/><line style="stroke:#181818;stroke-width:0.6;" x1="342" x2="584.4" y1="207.9973" y2="207.9973"/><text fill="#000000" font-family="sans-serif" font-size="7.8" font-weight="bold" lengthAdjust="spacing" textLength="5.4" x="346.2" y="205.152">5</text><text fill="#000000" font-family="sans-serif" font-size="7.8" lengthAdjust="spacing" textLength="176.4" x="354" y="205.152">getEntrysByCollaboratorInAgenda(collaborator)</text><line style="stroke:#181818;stroke-width:0.6;" x1="594" x2="622.2" y1="222.5836" y2="222.5836"/><line style="stroke:#181818;stroke-width:0.6;" x1="622.2" x2="622.2" y1="222.5836" y2="230.3836"/><line style="stroke:#181818;stroke-width:0.6;" x1="597.6" x2="622.2" y1="230.3836" y2="230.3836"/><polygon fill="#181818" points="603.6,227.9836,597.6,230.3836,603.6,232.7836,601.2,230.3836" style="stroke:#181818;stroke-width:0.6;"/><text fill="#000000" font-family="sans-serif" font-size="7.8" font-weight="bold" lengthAdjust="spacing" textLength="5.4" x="601.2" y="219.7383">6</text><text fill="#000000" font-family="sans-serif" font-size="7.8" lengthAdjust="spacing" textLength="47.4" x="609" y="219.7383">getAgenda();</text><path d="M547.2,242.3836 L591.6,242.3836 L591.6,246.7699 L585.6,252.7699 L547.2,252.7699 L547.2,242.3836 " fill="#EEEEEE" style="stroke:#000000;stroke-width:0.8999999999999999;"/><rect fill="none" height="35.7727" style="stroke:#000000;stroke-width:0.8999999999999999;" width="204" x="547.2" y="242.3836"/><text fill="#000000" font-family="sans-serif" font-size="7.8" font-weight="bold" lengthAdjust="spacing" textLength="17.4" x="556.2" y="250.5246">loop</text><text fill="#000000" font-family="sans-serif" font-size="6.6" font-weight="bold" lengthAdjust="spacing" textLength="85.8" x="600.6" y="249.9645">[All Entrys are compared]</text><line style="stroke:#181818;stroke-width:0.6;" x1="597" x2="622.2" y1="268.5563" y2="268.5563"/><line style="stroke:#181818;stroke-width:0.6;" x1="622.2" x2="622.2" y1="268.5563" y2="276.3563"/><line style="stroke:#181818;stroke-width:0.6;" x1="594" x2="622.2" y1="276.3563" y2="276.3563"/><polygon fill="#181818" points="600,273.9563,594,276.3563,600,278.7562,597.6,276.3563" style="stroke:#181818;stroke-width:0.6;"/><text fill="#000000" font-family="sans-serif" font-size="7.8" font-weight="bold" lengthAdjust="spacing" textLength="5.4" x="601.2" y="265.7109">7</text><text fill="#000000" font-family="sans-serif" font-size="7.8" lengthAdjust="spacing" textLength="135" x="609" y="265.7109">entryHaveCollaborator(collaborator)</text><polygon fill="#181818" points="348.6,292.7426,342.6,295.1426,348.6,297.5426,346.2,295.1426" style="stroke:#181818;stroke-width:0.6;"/><line style="stroke:#181818;stroke-width:0.6;" x1="345" x2="590.4" y1="295.1426" y2="295.1426"/><text fill="#000000" font-family="sans-serif" font-size="7.8" font-weight="bold" lengthAdjust="spacing" textLength="5.4" x="352.2" y="292.2973">8</text><text fill="#000000" font-family="sans-serif" font-size="7.8" lengthAdjust="spacing" textLength="33" x="360" y="292.2973">entryList</text><polygon fill="#181818" points="874.5,310.3289,880.5,312.7289,874.5,315.1289,876.9,312.7289" style="stroke:#181818;stroke-width:0.6;"/><line style="stroke:#181818;stroke-width:0.6;" x1="342" x2="878.1" y1="312.7289" y2="312.7289"/><text fill="#000000" font-family="sans-serif" font-size="7.8" font-weight="bold" lengthAdjust="spacing" textLength="5.4" x="346.2" y="309.8836">9</text><text fill="#000000" font-family="sans-serif" font-size="7.8" lengthAdjust="spacing" textLength="127.2" x="354" y="309.8836">entryListToEntryDtoList(entryList)</text><polygon fill="#181818" points="935.7,327.9152,941.7,330.3152,935.7,332.7152,938.1,330.3152" style="stroke:#181818;stroke-width:0.6;"/><line style="stroke:#181818;stroke-width:0.6;" x1="887.7" x2="939.3" y1="330.3152" y2="330.3152"/><text fill="#000000" font-family="sans-serif" font-size="7.8" font-weight="bold" lengthAdjust="spacing" textLength="10.8" x="891.9" y="327.4699">10</text><text fill="#000000" font-family="sans-serif" font-size="7.8" lengthAdjust="spacing" textLength="27.6" x="905.1" y="327.4699">create()</text><rect fill="#E3E3E3" height="18.293" rx="1.5" ry="1.5" style="stroke:#181818;stroke-width:0.3;" width="126" x="942.9" y="317.5289"/><text fill="#000000" font-family="sans-serif" font-size="8.4" lengthAdjust="spacing" textLength="117.6" x="947.1" y="329.85">toDoListDto : List&lt;EntryDto&gt;</text><polygon fill="#181818" points="1113.3,352.8082,1119.3,355.2082,1113.3,357.6082,1115.7,355.2082" style="stroke:#181818;stroke-width:0.6;"/><line style="stroke:#181818;stroke-width:0.6;" x1="887.7" x2="1116.9" y1="355.2082" y2="355.2082"/><text fill="#000000" font-family="sans-serif" font-size="7.8" font-weight="bold" lengthAdjust="spacing" textLength="10.8" x="891.9" y="352.3629">11</text><text fill="#000000" font-family="sans-serif" font-size="7.8" lengthAdjust="spacing" textLength="49.2" x="905.1" y="352.3629">entry = get(i)</text><line style="stroke:#181818;stroke-width:0.6;" x1="887.7" x2="915.9" y1="387.7945" y2="387.7945"/><line style="stroke:#181818;stroke-width:0.6;" x1="915.9" x2="915.9" y1="387.7945" y2="395.5945"/><line style="stroke:#181818;stroke-width:0.6;" x1="891.3" x2="915.9" y1="395.5945" y2="395.5945"/><polygon fill="#181818" points="897.3,393.1945,891.3,395.5945,897.3,397.9945,894.9,395.5945" style="stroke:#181818;stroke-width:0.6;"/><text fill="#000000" font-family="sans-serif" font-size="7.8" font-weight="bold" lengthAdjust="spacing" textLength="10.8" x="894.9" y="384.9492">12</text><text fill="#000000" font-family="sans-serif" font-size="7.8" lengthAdjust="spacing" textLength="92.4" x="908.1" y="384.9492">entryDto = toDTO(entry)</text><polygon fill="#181818" points="825.9,413.7809,819.9,416.1809,825.9,418.5809,823.5,416.1809" style="stroke:#181818;stroke-width:0.6;"/><line style="stroke:#181818;stroke-width:0.6;" x1="822.3" x2="881.1" y1="416.1809" y2="416.1809"/><text fill="#000000" font-family="sans-serif" font-size="7.8" font-weight="bold" lengthAdjust="spacing" textLength="10.8" x="829.5" y="413.3355">13</text><text fill="#000000" font-family="sans-serif" font-size="7.8" lengthAdjust="spacing" textLength="34.8" x="842.7" y="413.3355">create(...)</text><rect fill="#E3E3E3" height="18.293" rx="1.5" ry="1.5" style="stroke:#181818;stroke-width:0.3;" width="46.2" x="773.1" y="403.3945"/><text fill="#000000" font-family="sans-serif" font-size="8.4" lengthAdjust="spacing" textLength="37.8" x="777.3" y="415.7156">:EntryDto</text><polygon fill="#181818" points="995.7,438.6738,1001.7,441.0738,995.7,443.4738,998.1,441.0738" style="stroke:#181818;stroke-width:0.6;"/><line style="stroke:#181818;stroke-width:0.6;" x1="887.7" x2="999.3" y1="441.0738" y2="441.0738"/><text fill="#000000" font-family="sans-serif" font-size="7.8" font-weight="bold" lengthAdjust="spacing" textLength="10.8" x="891.9" y="438.2285">14</text><text fill="#000000" font-family="sans-serif" font-size="7.8" lengthAdjust="spacing" textLength="51.6" x="905.1" y="438.2285">add(entryDto)</text><polygon fill="#181818" points="348.6,474.2602,342.6,476.6602,348.6,479.0602,346.2,476.6602" style="stroke:#181818;stroke-width:0.6;"/><line style="stroke:#181818;stroke-width:0.6;" x1="345" x2="884.1" y1="476.6602" y2="476.6602"/><text fill="#000000" font-family="sans-serif" font-size="7.8" font-weight="bold" lengthAdjust="spacing" textLength="10.8" x="352.2" y="473.8148">15</text><text fill="#000000" font-family="sans-serif" font-size="7.8" lengthAdjust="spacing" textLength="46.8" x="365.4" y="473.8148">entryListDto</text><polygon fill="#181818" points="204.6,491.8465,198.6,494.2465,204.6,496.6465,202.2,494.2465" style="stroke:#181818;stroke-width:0.6;"/><line style="stroke:#181818;stroke-width:0.6;" x1="201" x2="338.4" y1="494.2465" y2="494.2465"/><text fill="#000000" font-family="sans-serif" font-size="7.8" font-weight="bold" lengthAdjust="spacing" textLength="10.8" x="208.2" y="491.4012">16</text><text fill="#000000" font-family="sans-serif" font-size="7.8" lengthAdjust="spacing" textLength="110.4" x="221.4" y="491.4012">entryAssignedToCollaborator</text><polygon fill="#181818" points="46.8,509.4328,40.8,511.8328,46.8,514.2328,44.4,511.8328" style="stroke:#181818;stroke-width:0.6;"/><line style="stroke:#181818;stroke-width:0.6;" x1="43.2" x2="191.4" y1="511.8328" y2="511.8328"/><text fill="#000000" font-family="sans-serif" font-size="7.8" font-weight="bold" lengthAdjust="spacing" textLength="10.8" x="50.4" y="508.9875">17</text><text fill="#000000" font-family="sans-serif" font-size="7.8" lengthAdjust="spacing" textLength="83.4" x="63.6" y="508.9875">show entry's assigned</text><!--SRC=[hLRDSjem4BxhAJIv09aa3v0scI49qz999fc4t79Hx0Kqs98h2LBUlYlPnf9i2WLqilVdszMtgvNqWek2APRJN0gPp9NCWHgr1A8tce8b2pQ3DxFEW2f831Epp3VGSvRABovcTCeo3OImfP5YcN-28gGtvodGgPJcK_uXB35IqRDxcMNiKog6V-yQr1bbciP2WkY69xnWmj2pww7MV2P6mgZrinZEGAJiVUmStyUxJUyb_c60EjRazJ5oUeL2QewnEMXdin6itxZTCUufT56UnuTe0xmy3YUX1zYK6bnq6eKIvnV9eZoTrjazt_tgqZqOwTGFa-SkzHChYeg5f-7Bo-WrD3BoGJvoRH25NbFxzRr6lNLEJXb3rrw1IsDFYAqyNp43xJ8JMgrOGozliRO8oVH2KyndnU6B6lV7N8aXjU8S6enD66mAqgFUGgHB16m5kSQU_hq4RJHDcM6qhs0A2aG25pG5dIXU62x51QLSJANAMKO_HAWnaCm5Jr0JYDCbHd5VYTHcGFniUea2nuPjn3ZDMoS-FyVSIhF0ec7I-WOgAx7k7QsBM3CmOw7n-2RG7tH3TlMyRvZ2tgP88vKh97YNORr-W0cgGwSuZQW6h7I71nvg6u9413Z_9cBDfMNIWzx2P-IyRUSjkyuQHAUuvDy9zTtQt-Uu6b5zFyCjzOb7Gs0LHzoMH1LkyEs069cK1HrcMMc5vr01CflZC83q_vDny_0dMu7Fnpzuy8eGPndrnavcggvm6RWHjMUSpbgNWzI7cyXwQjg__aQ-fQxL90xHArJ4hsQkDn7m07SUebqhnAmpfZUsB_fyS13cPXSj7lTT7j_bTN7Sri9os9li1ky99B2imv6xh6jrN8vbEPjwNbrT3OxbxZIPLSrcxzqqxTSKdg0rxAlX1DrXOOxSOdpuSN-duluWd7gEkDUEosfOlMycydxRlNL0akqNmxwhUfQq7qzwBh_Ab7lDguoqL-l-z5w0Vm40]--></g></svg>