<?xml version="1.0" encoding="us-ascii" standalone="no"?><svg xmlns="http://www.w3.org/2000/svg" xmlns:xlink="http://www.w3.org/1999/xlink" contentStyleType="text/css" height="608px" preserveAspectRatio="none" style="width:1733px;height:608px;background:#FFFFFF;" version="1.1" viewBox="0 0 1733 608" width="1733px" zoomAndPan="magnify"><defs/><g><rect fill="#FFFFFF" height="484.9688" style="stroke:#181818;stroke-width:1.0;" width="10" x="136" y="62.9766"/><rect fill="#FFFFFF" height="122.2422" style="stroke:#181818;stroke-width:1.0;" width="10" x="141" y="351.082"/><rect fill="#FFFFFF" height="53.6211" style="stroke:#181818;stroke-width:1.0;" width="10" x="368" y="84.2871"/><rect fill="#FFFFFF" height="29.3105" style="stroke:#181818;stroke-width:1.0;" width="10" x="481" y="167.2188"/><rect fill="#FFFFFF" height="29.3105" style="stroke:#181818;stroke-width:1.0;" width="10" x="481" y="225.8398"/><rect fill="#FFFFFF" height="29.3105" style="stroke:#181818;stroke-width:1.0;" width="10" x="1407.5" y="284.4609"/><rect fill="#FFFFFF" height="87.9316" style="stroke:#181818;stroke-width:1.0;" width="10" x="1407.5" y="385.3926"/><rect fill="#FFFFFF" height="29.3105" style="stroke:#181818;stroke-width:1.0;" width="10" x="1548.5" y="414.7031"/><rect fill="#FFFFFF" height="29.3105" style="stroke:#181818;stroke-width:1.0;" width="10" x="1646.5" y="502.6348"/><rect fill="none" height="440.6582" style="stroke:#000000;stroke-width:1.5;" width="1717" x="10" y="99.2871"/><line style="stroke:#181818;stroke-width:0.5;stroke-dasharray:5.0,5.0;" x1="141" x2="141" y1="52.9766" y2="556.9453"/><line style="stroke:#181818;stroke-width:0.5;stroke-dasharray:5.0,5.0;" x1="372.5" x2="372.5" y1="52.9766" y2="556.9453"/><line style="stroke:#181818;stroke-width:0.5;stroke-dasharray:5.0,5.0;" x1="485.5" x2="485.5" y1="52.9766" y2="556.9453"/><line style="stroke:#181818;stroke-width:0.5;stroke-dasharray:5.0,5.0;" x1="610.5" x2="610.5" y1="52.9766" y2="556.9453"/><line style="stroke:#181818;stroke-width:0.5;stroke-dasharray:5.0,5.0;" x1="709.5" x2="709.5" y1="52.9766" y2="556.9453"/><line style="stroke:#181818;stroke-width:0.5;stroke-dasharray:5.0,5.0;" x1="784.5" x2="784.5" y1="52.9766" y2="556.9453"/><line style="stroke:#181818;stroke-width:0.5;stroke-dasharray:5.0,5.0;" x1="885.5" x2="885.5" y1="52.9766" y2="556.9453"/><line style="stroke:#181818;stroke-width:0.5;stroke-dasharray:5.0,5.0;" x1="1053.5" x2="1053.5" y1="52.9766" y2="556.9453"/><line style="stroke:#181818;stroke-width:0.5;stroke-dasharray:5.0,5.0;" x1="1249.5" x2="1249.5" y1="52.9766" y2="556.9453"/><line style="stroke:#181818;stroke-width:0.5;stroke-dasharray:5.0,5.0;" x1="1412.5" x2="1412.5" y1="52.9766" y2="556.9453"/><line style="stroke:#181818;stroke-width:0.5;stroke-dasharray:5.0,5.0;" x1="1553" x2="1553" y1="52.9766" y2="556.9453"/><line style="stroke:#181818;stroke-width:0.5;stroke-dasharray:5.0,5.0;" x1="1651" x2="1651" y1="52.9766" y2="556.9453"/><rect fill="#E3E3E3" height="30.4883" rx="2.5" ry="2.5" style="stroke:#181818;stroke-width:0.5;" width="242" x="20" y="21.4883"/><text fill="#000000" font-family="sans-serif" font-size="14" lengthAdjust="spacing" textLength="228" x="27" y="42.0234">:AssignEntryOnAgendaController</text><rect fill="#E3E3E3" height="30.4883" rx="2.5" ry="2.5" style="stroke:#181818;stroke-width:0.5;" width="242" x="20" y="555.9453"/><text fill="#000000" font-family="sans-serif" font-size="14" lengthAdjust="spacing" textLength="228" x="27" y="576.4805">:AssignEntryOnAgendaController</text><rect fill="#E3E3E3" height="30.4883" rx="2.5" ry="2.5" style="stroke:#181818;stroke-width:0.5;" width="103" x="321.5" y="21.4883"/><text fill="#000000" font-family="sans-serif" font-size="14" lengthAdjust="spacing" textLength="89" x="328.5" y="42.0234">:Repositories</text><rect fill="#E3E3E3" height="30.4883" rx="2.5" ry="2.5" style="stroke:#181818;stroke-width:0.5;" width="103" x="321.5" y="555.9453"/><text fill="#000000" font-family="sans-serif" font-size="14" lengthAdjust="spacing" textLength="89" x="328.5" y="576.4805">:Repositories</text><rect fill="#E3E3E3" height="46.9766" rx="2.5" ry="2.5" style="stroke:#181818;stroke-width:0.5;" width="103" x="434.5" y="5"/><text fill="#000000" font-family="sans-serif" font-size="14" lengthAdjust="spacing" textLength="82" x="445" y="25.5352">repositories</text><text fill="#000000" font-family="sans-serif" font-size="14" lengthAdjust="spacing" textLength="89" x="441.5" y="42.0234">:Repositories</text><rect fill="#E3E3E3" height="46.9766" rx="2.5" ry="2.5" style="stroke:#181818;stroke-width:0.5;" width="103" x="434.5" y="555.9453"/><text fill="#000000" font-family="sans-serif" font-size="14" lengthAdjust="spacing" textLength="82" x="445" y="576.4805">repositories</text><text fill="#000000" font-family="sans-serif" font-size="14" lengthAdjust="spacing" textLength="89" x="441.5" y="592.9688">:Repositories</text><rect fill="#E3E3E3" height="46.9766" rx="2.5" ry="2.5" style="stroke:#181818;stroke-width:0.5;" width="126" x="547.5" y="5"/><text fill="#000000" font-family="sans-serif" font-size="14" lengthAdjust="spacing" textLength="108" x="556.5" y="25.5352">entryRepository</text><text fill="#000000" font-family="sans-serif" font-size="14" lengthAdjust="spacing" textLength="112" x="554.5" y="42.0234">:EntryRepository</text><rect fill="#E3E3E3" height="46.9766" rx="2.5" ry="2.5" style="stroke:#181818;stroke-width:0.5;" width="126" x="547.5" y="555.9453"/><text fill="#000000" font-family="sans-serif" font-size="14" lengthAdjust="spacing" textLength="108" x="556.5" y="576.4805">entryRepository</text><text fill="#000000" font-family="sans-serif" font-size="14" lengthAdjust="spacing" textLength="112" x="554.5" y="592.9688">:EntryRepository</text><rect fill="#E3E3E3" height="30.4883" rx="2.5" ry="2.5" style="stroke:#181818;stroke-width:0.5;" width="53" x="683.5" y="21.4883"/><text fill="#000000" font-family="sans-serif" font-size="14" lengthAdjust="spacing" textLength="39" x="690.5" y="42.0234">:Entry</text><rect fill="#E3E3E3" height="30.4883" rx="2.5" ry="2.5" style="stroke:#181818;stroke-width:0.5;" width="53" x="683.5" y="555.9453"/><text fill="#000000" font-family="sans-serif" font-size="14" lengthAdjust="spacing" textLength="39" x="690.5" y="576.4805">:Entry</text><rect fill="#E3E3E3" height="30.4883" rx="2.5" ry="2.5" style="stroke:#181818;stroke-width:0.5;" width="77" x="746.5" y="21.4883"/><text fill="#000000" font-family="sans-serif" font-size="14" lengthAdjust="spacing" textLength="63" x="753.5" y="42.0234">:EntryDto</text><rect fill="#E3E3E3" height="30.4883" rx="2.5" ry="2.5" style="stroke:#181818;stroke-width:0.5;" width="77" x="746.5" y="555.9453"/><text fill="#000000" font-family="sans-serif" font-size="14" lengthAdjust="spacing" textLength="63" x="753.5" y="576.4805">:EntryDto</text><rect fill="#E3E3E3" height="30.4883" rx="2.5" ry="2.5" style="stroke:#181818;stroke-width:0.5;" width="105" x="833.5" y="21.4883"/><text fill="#000000" font-family="sans-serif" font-size="14" lengthAdjust="spacing" textLength="91" x="840.5" y="42.0234">:EntryMapper</text><rect fill="#E3E3E3" height="30.4883" rx="2.5" ry="2.5" style="stroke:#181818;stroke-width:0.5;" width="105" x="833.5" y="555.9453"/><text fill="#000000" font-family="sans-serif" font-size="14" lengthAdjust="spacing" textLength="91" x="840.5" y="576.4805">:EntryMapper</text><rect fill="#E3E3E3" height="30.4883" rx="2.5" ry="2.5" style="stroke:#181818;stroke-width:0.5;" width="210" x="948.5" y="21.4883"/><text fill="#000000" font-family="sans-serif" font-size="14" lengthAdjust="spacing" textLength="196" x="955.5" y="42.0234">toDoListDto : List&lt;EntryDto&gt;</text><rect fill="#E3E3E3" height="30.4883" rx="2.5" ry="2.5" style="stroke:#181818;stroke-width:0.5;" width="210" x="948.5" y="555.9453"/><text fill="#000000" font-family="sans-serif" font-size="14" lengthAdjust="spacing" textLength="196" x="955.5" y="576.4805">toDoListDto : List&lt;EntryDto&gt;</text><rect fill="#E3E3E3" height="30.4883" rx="2.5" ry="2.5" style="stroke:#181818;stroke-width:0.5;" width="162" x="1168.5" y="21.4883"/><text fill="#000000" font-family="sans-serif" font-size="14" lengthAdjust="spacing" textLength="148" x="1175.5" y="42.0234">toDoList : List&lt;Entry&gt;</text><rect fill="#E3E3E3" height="30.4883" rx="2.5" ry="2.5" style="stroke:#181818;stroke-width:0.5;" width="162" x="1168.5" y="555.9453"/><text fill="#000000" font-family="sans-serif" font-size="14" lengthAdjust="spacing" textLength="148" x="1175.5" y="576.4805">toDoList : List&lt;Entry&gt;</text><rect fill="#E3E3E3" height="30.4883" rx="2.5" ry="2.5" style="stroke:#181818;stroke-width:0.5;" width="144" x="1340.5" y="21.4883"/><text fill="#000000" font-family="sans-serif" font-size="14" lengthAdjust="spacing" textLength="130" x="1347.5" y="42.0234">ApplicationSession</text><rect fill="#E3E3E3" height="30.4883" rx="2.5" ry="2.5" style="stroke:#181818;stroke-width:0.5;" width="144" x="1340.5" y="555.9453"/><text fill="#000000" font-family="sans-serif" font-size="14" lengthAdjust="spacing" textLength="130" x="1347.5" y="576.4805">ApplicationSession</text><rect fill="#E3E3E3" height="30.4883" rx="2.5" ry="2.5" style="stroke:#181818;stroke-width:0.5;" width="45" x="1531" y="21.4883"/><text fill="#000000" font-family="sans-serif" font-size="14" lengthAdjust="spacing" textLength="31" x="1538" y="42.0234">User</text><rect fill="#E3E3E3" height="30.4883" rx="2.5" ry="2.5" style="stroke:#181818;stroke-width:0.5;" width="45" x="1531" y="555.9453"/><text fill="#000000" font-family="sans-serif" font-size="14" lengthAdjust="spacing" textLength="31" x="1538" y="576.4805">User</text><rect fill="#E3E3E3" height="30.4883" rx="2.5" ry="2.5" style="stroke:#181818;stroke-width:0.5;" width="131" x="1586" y="21.4883"/><text fill="#000000" font-family="sans-serif" font-size="14" lengthAdjust="spacing" textLength="117" x="1593" y="42.0234">CollabRepository</text><rect fill="#E3E3E3" height="30.4883" rx="2.5" ry="2.5" style="stroke:#181818;stroke-width:0.5;" width="131" x="1586" y="555.9453"/><text fill="#000000" font-family="sans-serif" font-size="14" lengthAdjust="spacing" textLength="117" x="1593" y="576.4805">CollabRepository</text><rect fill="#FFFFFF" height="484.9688" style="stroke:#181818;stroke-width:1.0;" width="10" x="136" y="62.9766"/><rect fill="#FFFFFF" height="122.2422" style="stroke:#181818;stroke-width:1.0;" width="10" x="141" y="351.082"/><rect fill="#FFFFFF" height="53.6211" style="stroke:#181818;stroke-width:1.0;" width="10" x="368" y="84.2871"/><rect fill="#FFFFFF" height="29.3105" style="stroke:#181818;stroke-width:1.0;" width="10" x="481" y="167.2188"/><rect fill="#FFFFFF" height="29.3105" style="stroke:#181818;stroke-width:1.0;" width="10" x="481" y="225.8398"/><rect fill="#FFFFFF" height="29.3105" style="stroke:#181818;stroke-width:1.0;" width="10" x="1407.5" y="284.4609"/><rect fill="#FFFFFF" height="87.9316" style="stroke:#181818;stroke-width:1.0;" width="10" x="1407.5" y="385.3926"/><rect fill="#FFFFFF" height="29.3105" style="stroke:#181818;stroke-width:1.0;" width="10" x="1548.5" y="414.7031"/><rect fill="#FFFFFF" height="29.3105" style="stroke:#181818;stroke-width:1.0;" width="10" x="1646.5" y="502.6348"/><polygon fill="#181818" points="356,80.2871,366,84.2871,356,88.2871,360,84.2871" style="stroke:#181818;stroke-width:1.0;"/><line style="stroke:#181818;stroke-width:1.0;" x1="146" x2="362" y1="84.2871" y2="84.2871"/><text fill="#000000" font-family="sans-serif" font-size="13" font-weight="bold" lengthAdjust="spacing" textLength="9" x="153" y="79.5449">3</text><text fill="#000000" font-family="sans-serif" font-size="13" lengthAdjust="spacing" textLength="81" x="166" y="79.5449">getInstance()</text><path d="M10,99.2871 L255,99.2871 L255,106.5977 L245,116.5977 L10,116.5977 L10,99.2871 " fill="#EEEEEE" style="stroke:#000000;stroke-width:1.5;"/><rect fill="none" height="440.6582" style="stroke:#000000;stroke-width:1.5;" width="1717" x="10" y="99.2871"/><text fill="#000000" font-family="sans-serif" font-size="13" font-weight="bold" lengthAdjust="spacing" textLength="200" x="25" y="112.8555">Get Collaborator from session</text><polygon fill="#181818" points="157,133.9082,147,137.9082,157,141.9082,153,137.9082" style="stroke:#181818;stroke-width:1.0;"/><line style="stroke:#181818;stroke-width:1.0;stroke-dasharray:2.0,2.0;" x1="151" x2="372" y1="137.9082" y2="137.9082"/><text fill="#000000" font-family="sans-serif" font-size="13" font-weight="bold" lengthAdjust="spacing" textLength="9" x="163" y="133.166">4</text><text fill="#000000" font-family="sans-serif" font-size="13" lengthAdjust="spacing" textLength="75" x="176" y="133.166">repositories</text><polygon fill="#181818" points="469,163.2188,479,167.2188,469,171.2188,473,167.2188" style="stroke:#181818;stroke-width:1.0;"/><line style="stroke:#181818;stroke-width:1.0;" x1="146" x2="475" y1="167.2188" y2="167.2188"/><text fill="#000000" font-family="sans-serif" font-size="13" font-weight="bold" lengthAdjust="spacing" textLength="9" x="153" y="162.4766">5</text><text fill="#000000" font-family="sans-serif" font-size="13" lengthAdjust="spacing" textLength="127" x="166" y="162.4766">getEntryRepository()</text><polygon fill="#181818" points="157,192.5293,147,196.5293,157,200.5293,153,196.5293" style="stroke:#181818;stroke-width:1.0;"/><line style="stroke:#181818;stroke-width:1.0;" x1="151" x2="485" y1="196.5293" y2="196.5293"/><text fill="#000000" font-family="sans-serif" font-size="13" font-weight="bold" lengthAdjust="spacing" textLength="9" x="163" y="191.7871">6</text><text fill="#000000" font-family="sans-serif" font-size="13" lengthAdjust="spacing" textLength="99" x="176" y="191.7871">entryRepository</text><polygon fill="#181818" points="469,221.8398,479,225.8398,469,229.8398,473,225.8398" style="stroke:#181818;stroke-width:1.0;"/><line style="stroke:#181818;stroke-width:1.0;" x1="146" x2="475" y1="225.8398" y2="225.8398"/><text fill="#000000" font-family="sans-serif" font-size="13" font-weight="bold" lengthAdjust="spacing" textLength="9" x="153" y="221.0977">7</text><text fill="#000000" font-family="sans-serif" font-size="13" lengthAdjust="spacing" textLength="173" x="166" y="221.0977">getCollaboratorRepository()</text><polygon fill="#181818" points="157,251.1504,147,255.1504,157,259.1504,153,255.1504" style="stroke:#181818;stroke-width:1.0;"/><line style="stroke:#181818;stroke-width:1.0;" x1="151" x2="485" y1="255.1504" y2="255.1504"/><text fill="#000000" font-family="sans-serif" font-size="13" font-weight="bold" lengthAdjust="spacing" textLength="9" x="163" y="250.4082">8</text><text fill="#000000" font-family="sans-serif" font-size="13" lengthAdjust="spacing" textLength="143" x="176" y="250.4082">collaboratorRepository</text><polygon fill="#181818" points="1395.5,280.4609,1405.5,284.4609,1395.5,288.4609,1399.5,284.4609" style="stroke:#181818;stroke-width:1.0;"/><line style="stroke:#181818;stroke-width:1.0;" x1="146" x2="1401.5" y1="284.4609" y2="284.4609"/><text fill="#000000" font-family="sans-serif" font-size="13" font-weight="bold" lengthAdjust="spacing" textLength="9" x="153" y="279.7188">9</text><text fill="#000000" font-family="sans-serif" font-size="13" lengthAdjust="spacing" textLength="81" x="166" y="279.7188">getInstance()</text><polygon fill="#181818" points="157,309.7715,147,313.7715,157,317.7715,153,313.7715" style="stroke:#181818;stroke-width:1.0;"/><line style="stroke:#181818;stroke-width:1.0;" x1="151" x2="1411.5" y1="313.7715" y2="313.7715"/><text fill="#000000" font-family="sans-serif" font-size="13" font-weight="bold" lengthAdjust="spacing" textLength="18" x="163" y="309.0293">10</text><text fill="#000000" font-family="sans-serif" font-size="13" lengthAdjust="spacing" textLength="118" x="185" y="309.0293">applicationSession</text><line style="stroke:#181818;stroke-width:1.0;" x1="146" x2="193" y1="338.082" y2="338.082"/><line style="stroke:#181818;stroke-width:1.0;" x1="193" x2="193" y1="338.082" y2="351.082"/><line style="stroke:#181818;stroke-width:1.0;" x1="152" x2="193" y1="351.082" y2="351.082"/><polygon fill="#181818" points="162,347.082,152,351.082,162,355.082,158,351.082" style="stroke:#181818;stroke-width:1.0;"/><text fill="#000000" font-family="sans-serif" font-size="13" font-weight="bold" lengthAdjust="spacing" textLength="18" x="158" y="333.3398">11</text><text fill="#000000" font-family="sans-serif" font-size="13" lengthAdjust="spacing" textLength="186" x="180" y="333.3398">getCollaboratorFromSession()</text><polygon fill="#181818" points="1395.5,381.3926,1405.5,385.3926,1395.5,389.3926,1399.5,385.3926" style="stroke:#181818;stroke-width:1.0;"/><line style="stroke:#181818;stroke-width:1.0;" x1="151" x2="1401.5" y1="385.3926" y2="385.3926"/><text fill="#000000" font-family="sans-serif" font-size="13" font-weight="bold" lengthAdjust="spacing" textLength="18" x="158" y="380.6504">12</text><text fill="#000000" font-family="sans-serif" font-size="13" lengthAdjust="spacing" textLength="123" x="180" y="380.6504">getCurrentSession()</text><polygon fill="#181818" points="1536.5,410.7031,1546.5,414.7031,1536.5,418.7031,1540.5,414.7031" style="stroke:#181818;stroke-width:1.0;"/><line style="stroke:#181818;stroke-width:1.0;" x1="1417.5" x2="1542.5" y1="414.7031" y2="414.7031"/><text fill="#000000" font-family="sans-serif" font-size="13" font-weight="bold" lengthAdjust="spacing" textLength="18" x="1424.5" y="409.9609">13</text><text fill="#000000" font-family="sans-serif" font-size="13" lengthAdjust="spacing" textLength="90" x="1446.5" y="409.9609">getUserEmail()</text><polygon fill="#181818" points="1428.5,440.0137,1418.5,444.0137,1428.5,448.0137,1424.5,444.0137" style="stroke:#181818;stroke-width:1.0;"/><line style="stroke:#181818;stroke-width:1.0;" x1="1422.5" x2="1552.5" y1="444.0137" y2="444.0137"/><text fill="#000000" font-family="sans-serif" font-size="13" font-weight="bold" lengthAdjust="spacing" textLength="18" x="1434.5" y="439.2715">14</text><text fill="#000000" font-family="sans-serif" font-size="13" lengthAdjust="spacing" textLength="34" x="1456.5" y="439.2715">email</text><polygon fill="#181818" points="157,469.3242,147,473.3242,157,477.3242,153,473.3242" style="stroke:#181818;stroke-width:1.0;"/><line style="stroke:#181818;stroke-width:1.0;" x1="151" x2="1411.5" y1="473.3242" y2="473.3242"/><text fill="#000000" font-family="sans-serif" font-size="13" font-weight="bold" lengthAdjust="spacing" textLength="18" x="163" y="468.582">15</text><text fill="#000000" font-family="sans-serif" font-size="13" lengthAdjust="spacing" textLength="34" x="185" y="468.582">email</text><polygon fill="#181818" points="1634.5,498.6348,1644.5,502.6348,1634.5,506.6348,1638.5,502.6348" style="stroke:#181818;stroke-width:1.0;"/><line style="stroke:#181818;stroke-width:1.0;" x1="146" x2="1640.5" y1="502.6348" y2="502.6348"/><text fill="#000000" font-family="sans-serif" font-size="13" font-weight="bold" lengthAdjust="spacing" textLength="18" x="153" y="497.8926">16</text><text fill="#000000" font-family="sans-serif" font-size="13" lengthAdjust="spacing" textLength="154" x="175" y="497.8926">getCollaboratorByEmail()</text><polygon fill="#181818" points="157,527.9453,147,531.9453,157,535.9453,153,531.9453" style="stroke:#181818;stroke-width:1.0;"/><line style="stroke:#181818;stroke-width:1.0;" x1="151" x2="1650.5" y1="531.9453" y2="531.9453"/><text fill="#000000" font-family="sans-serif" font-size="13" font-weight="bold" lengthAdjust="spacing" textLength="18" x="163" y="527.2031">17</text><text fill="#000000" font-family="sans-serif" font-size="13" lengthAdjust="spacing" textLength="76" x="185" y="527.2031">collaborator</text><!--SRC=[nLR1Rk8m4BtxAqQzGANsj3UqgfG2k-gA2WJqrejnXc0riREsixly_Ku29N5mg1QwmgVWcNdpPkRPnhv9bNF3CyYqqc9ZT8RWJ87C7Ymv5syymONRfWW6XUCgIPiETiDZ_Lkg1DOyjSWOBvnMHRP2mrXl8sE4jTPkfVymnYZ4II5phXpS329hPQB6ofdjL4K9gfWFDVtIQOhc1hY5uN8-QGNDCTTMEcqasihdiB5To98RPVT3J2FYLHq3p2RHqe_0abADIq5ZVwUAQ-srU5RMoc_w-2Da6pbTcKVBQSZypFDytuNdQ3ORptqdfqTw8gqZ51X0-VNr7VMX2ggCRUZtA2-azcyE3xxGl7hGM2zFS7__04CQ3rzfmwde5qkE0zB5pmAjin1pnw5lS8q6bS0xYD4A8tCdjRe3a6gjJSPJU5M-nQ7OA2d8uct71MMfleIsxfOrsVI4GUvm9n7FmeMJlsgJRoptWAe8g8OAIT0zAKiQ5zYlqoL65pbyH-VL3ciwBs2HH4oAWpFMWMX8mcSXbYjKMJKtghmSLQt-irB4-FcqtuTIdiJT55fdgtzxMOEh8tuMH4LftpsYrhePBktW-Rm2FMkAy-BM_SycYY3H2sb-Lby3BOxoFANBgRo95hlZtdbLN6STwZvcogv2BT2nUlpyc2HSUJMa4sfXnnkohwTrzBxHix2FR0cZzJ3zYzI6XQ4NrNs0-z7umsFPF-AKfVmQProcNGbA1n-otEdYZIKKw-ZpCTH9qPp4Yauhgk7PtVdT2Elhw7YmZzkJlMa3jDAquSFNeHVKvDq9Jl-QMSVw2m00]--></g></svg>