<?xml version="1.0" encoding="us-ascii" standalone="no"?><svg xmlns="http://www.w3.org/2000/svg" xmlns:xlink="http://www.w3.org/1999/xlink" contentStyleType="text/css" height="744.6px" preserveAspectRatio="none" style="width:1442px;height:744px;background:#FFFFFF;" version="1.1" viewBox="0 0 1442 744" width="1442.4px" zoomAndPan="magnify"><defs/><g><rect fill="#FFFFFF" height="630.6961" style="stroke:#181818;stroke-width:0.6;" width="6" x="37.2" y="54.893"/><rect fill="#FFFFFF" height="623.3098" style="stroke:#181818;stroke-width:0.6;" width="6" x="192" y="67.6793"/><rect fill="#FFFFFF" height="576.7371" style="stroke:#181818;stroke-width:0.6;" width="6" x="336" y="91.2656"/><rect fill="#FFFFFF" height="73.3453" style="stroke:#181818;stroke-width:0.6;" width="6" x="339" y="255.6492"/><rect fill="#FFFFFF" height="17.5863" style="stroke:#181818;stroke-width:0.6;" width="6" x="475.2" y="110.1586"/><rect fill="#FFFFFF" height="17.5863" style="stroke:#181818;stroke-width:0.6;" width="6" x="543" y="145.3312"/><rect fill="#FFFFFF" height="17.5863" style="stroke:#181818;stroke-width:0.6;" width="6" x="543" y="180.5039"/><rect fill="#FFFFFF" height="87.1453" style="stroke:#181818;stroke-width:0.6;" width="6" x="617.7" y="381.7535"/><rect fill="#FFFFFF" height="38.7727" style="stroke:#181818;stroke-width:0.6;" width="6" x="620.7" y="404.1398"/><rect fill="#FFFFFF" height="163.9313" style="stroke:#181818;stroke-width:0.6;" width="6" x="916.8" y="486.4852"/><rect fill="#FFFFFF" height="20.5863" style="stroke:#181818;stroke-width:0.6;" width="6" x="919.8" y="569.3508"/><rect fill="#FFFFFF" height="18" style="stroke:#181818;stroke-width:0.6;" width="6" x="1038" y="614.8301"/><rect fill="#FFFFFF" height="18" style="stroke:#181818;stroke-width:0.6;" width="6" x="1155.6" y="528.9645"/><rect fill="#FFFFFF" height="17.5863" style="stroke:#181818;stroke-width:0.6;" width="6" x="1253.4" y="215.6766"/><rect fill="#FFFFFF" height="52.759" style="stroke:#181818;stroke-width:0.6;" width="6" x="1253.4" y="276.2355"/><rect fill="#FFFFFF" height="17.5863" style="stroke:#181818;stroke-width:0.6;" width="6" x="1338" y="293.8219"/><rect fill="#FFFFFF" height="17.5863" style="stroke:#181818;stroke-width:0.6;" width="6" x="1396.8" y="346.5809"/><rect fill="none" height="35.7727" style="stroke:#000000;stroke-width:0.8999999999999999;" width="209.4" x="576.9" y="416.1398"/><line style="stroke:#181818;stroke-width:0.3;stroke-dasharray:5.0,5.0;" x1="40.2" x2="40.2" y1="48.893" y2="696.3891"/><line style="stroke:#181818;stroke-width:0.3;stroke-dasharray:5.0,5.0;" x1="195" x2="195" y1="48.893" y2="696.3891"/><line style="stroke:#181818;stroke-width:0.3;stroke-dasharray:5.0,5.0;" x1="339" x2="339" y1="90.9258" y2="696.3891"/><line style="stroke:#181818;stroke-width:0.3;stroke-dasharray:5.0,5.0;" x1="477.9" x2="477.9" y1="48.893" y2="696.3891"/><line style="stroke:#181818;stroke-width:0.3;stroke-dasharray:5.0,5.0;" x1="545.7" x2="545.7" y1="48.893" y2="696.3891"/><line style="stroke:#181818;stroke-width:0.3;stroke-dasharray:5.0,5.0;" x1="620.7" x2="620.7" y1="48.893" y2="696.3891"/><line style="stroke:#181818;stroke-width:0.3;stroke-dasharray:5.0,5.0;" x1="786" x2="786" y1="48.893" y2="696.3891"/><line style="stroke:#181818;stroke-width:0.3;stroke-dasharray:5.0,5.0;" x1="831" x2="831" y1="595.5973" y2="696.3891"/><line style="stroke:#181818;stroke-width:0.3;stroke-dasharray:5.0,5.0;" x1="919.5" x2="919.5" y1="48.893" y2="696.3891"/><line style="stroke:#181818;stroke-width:0.3;stroke-dasharray:5.0,5.0;" x1="1041" x2="1041" y1="509.7316" y2="696.3891"/><line style="stroke:#181818;stroke-width:0.3;stroke-dasharray:5.0,5.0;" x1="1158.6" x2="1158.6" y1="48.893" y2="696.3891"/><line style="stroke:#181818;stroke-width:0.3;stroke-dasharray:5.0,5.0;" x1="1256.4" x2="1256.4" y1="48.893" y2="696.3891"/><line style="stroke:#181818;stroke-width:0.3;stroke-dasharray:5.0,5.0;" x1="1340.7" x2="1340.7" y1="48.893" y2="696.3891"/><line style="stroke:#181818;stroke-width:0.3;stroke-dasharray:5.0,5.0;" x1="1399.5" x2="1399.5" y1="48.893" y2="696.3891"/><text fill="#000000" font-family="sans-serif" font-size="8.4" lengthAdjust="spacing" textLength="70.8" x="3" y="47.1211">CollaboratorUser</text><ellipse cx="40.2" cy="8.1" fill="#E3E3E3" rx="4.8" ry="4.8" style="stroke:#181818;stroke-width:0.3;"/><path d="M40.2,12.9 L40.2,29.1 M32.4,17.7 L48,17.7 M40.2,29.1 L32.4,38.1 M40.2,29.1 L48,38.1 " fill="none" style="stroke:#181818;stroke-width:0.3;"/><text fill="#000000" font-family="sans-serif" font-size="8.4" lengthAdjust="spacing" textLength="70.8" x="3" y="703.9102">CollaboratorUser</text><ellipse cx="40.2" cy="710.782" fill="#E3E3E3" rx="4.8" ry="4.8" style="stroke:#181818;stroke-width:0.3;"/><path d="M40.2,715.582 L40.2,731.782 M32.4,720.382 L48,720.382 M40.2,731.782 L32.4,740.782 M40.2,731.782 L48,740.782 " fill="none" style="stroke:#181818;stroke-width:0.3;"/><rect fill="#E3E3E3" height="18.293" rx="1.5" ry="1.5" style="stroke:#181818;stroke-width:0.3;" width="111.6" x="139.2" y="30"/><text fill="#000000" font-family="sans-serif" font-size="8.4" lengthAdjust="spacing" textLength="103.2" x="143.4" y="42.3211">:AssignEntryOnAgendaUI</text><rect fill="#E3E3E3" height="18.293" rx="1.5" ry="1.5" style="stroke:#181818;stroke-width:0.3;" width="111.6" x="139.2" y="695.7891"/><text fill="#000000" font-family="sans-serif" font-size="8.4" lengthAdjust="spacing" textLength="103.2" x="143.4" y="708.1102">:AssignEntryOnAgendaUI</text><rect fill="#E3E3E3" height="18.293" rx="1.5" ry="1.5" style="stroke:#181818;stroke-width:0.3;" width="145.2" x="266.4" y="695.7891"/><text fill="#000000" font-family="sans-serif" font-size="8.4" lengthAdjust="spacing" textLength="136.8" x="270.6" y="708.1102">:AssignEntryOnAgendaController</text><rect fill="#E3E3E3" height="18.293" rx="1.5" ry="1.5" style="stroke:#181818;stroke-width:0.3;" width="61.8" x="447.3" y="30"/><text fill="#000000" font-family="sans-serif" font-size="8.4" lengthAdjust="spacing" textLength="53.4" x="451.5" y="42.3211">:Repositories</text><rect fill="#E3E3E3" height="18.293" rx="1.5" ry="1.5" style="stroke:#181818;stroke-width:0.3;" width="61.8" x="447.3" y="695.7891"/><text fill="#000000" font-family="sans-serif" font-size="8.4" lengthAdjust="spacing" textLength="53.4" x="451.5" y="708.1102">:Repositories</text><rect fill="#E3E3E3" height="28.1859" rx="1.5" ry="1.5" style="stroke:#181818;stroke-width:0.3;" width="61.8" x="515.1" y="20.107"/><text fill="#000000" font-family="sans-serif" font-size="8.4" lengthAdjust="spacing" textLength="49.2" x="521.4" y="32.4281">repositories</text><text fill="#000000" font-family="sans-serif" font-size="8.4" lengthAdjust="spacing" textLength="53.4" x="519.3" y="42.3211">:Repositories</text><rect fill="#E3E3E3" height="28.1859" rx="1.5" ry="1.5" style="stroke:#181818;stroke-width:0.3;" width="61.8" x="515.1" y="695.7891"/><text fill="#000000" font-family="sans-serif" font-size="8.4" lengthAdjust="spacing" textLength="49.2" x="521.4" y="708.1102">repositories</text><text fill="#000000" font-family="sans-serif" font-size="8.4" lengthAdjust="spacing" textLength="53.4" x="519.3" y="718.0031">:Repositories</text><rect fill="#E3E3E3" height="28.1859" rx="1.5" ry="1.5" style="stroke:#181818;stroke-width:0.3;" width="75.6" x="582.9" y="20.107"/><text fill="#000000" font-family="sans-serif" font-size="8.4" lengthAdjust="spacing" textLength="64.8" x="588.3" y="32.4281">entryRepository</text><text fill="#000000" font-family="sans-serif" font-size="8.4" lengthAdjust="spacing" textLength="67.2" x="587.1" y="42.3211">:EntryRepository</text><rect fill="#E3E3E3" height="28.1859" rx="1.5" ry="1.5" style="stroke:#181818;stroke-width:0.3;" width="75.6" x="582.9" y="695.7891"/><text fill="#000000" font-family="sans-serif" font-size="8.4" lengthAdjust="spacing" textLength="64.8" x="588.3" y="708.1102">entryRepository</text><text fill="#000000" font-family="sans-serif" font-size="8.4" lengthAdjust="spacing" textLength="67.2" x="587.1" y="718.0031">:EntryRepository</text><rect fill="#E3E3E3" height="18.293" rx="1.5" ry="1.5" style="stroke:#181818;stroke-width:0.3;" width="31.8" x="770.4" y="30"/><text fill="#000000" font-family="sans-serif" font-size="8.4" lengthAdjust="spacing" textLength="23.4" x="774.6" y="42.3211">:Entry</text><rect fill="#E3E3E3" height="18.293" rx="1.5" ry="1.5" style="stroke:#181818;stroke-width:0.3;" width="31.8" x="770.4" y="695.7891"/><text fill="#000000" font-family="sans-serif" font-size="8.4" lengthAdjust="spacing" textLength="23.4" x="774.6" y="708.1102">:Entry</text><rect fill="#E3E3E3" height="18.293" rx="1.5" ry="1.5" style="stroke:#181818;stroke-width:0.3;" width="46.2" x="808.2" y="695.7891"/><text fill="#000000" font-family="sans-serif" font-size="8.4" lengthAdjust="spacing" textLength="37.8" x="812.4" y="708.1102">:EntryDto</text><rect fill="#E3E3E3" height="18.293" rx="1.5" ry="1.5" style="stroke:#181818;stroke-width:0.3;" width="63" x="888.3" y="30"/><text fill="#000000" font-family="sans-serif" font-size="8.4" lengthAdjust="spacing" textLength="54.6" x="892.5" y="42.3211">:EntryMapper</text><rect fill="#E3E3E3" height="18.293" rx="1.5" ry="1.5" style="stroke:#181818;stroke-width:0.3;" width="63" x="888.3" y="695.7891"/><text fill="#000000" font-family="sans-serif" font-size="8.4" lengthAdjust="spacing" textLength="54.6" x="892.5" y="708.1102">:EntryMapper</text><rect fill="#E3E3E3" height="18.293" rx="1.5" ry="1.5" style="stroke:#181818;stroke-width:0.3;" width="126" x="978" y="695.7891"/><text fill="#000000" font-family="sans-serif" font-size="8.4" lengthAdjust="spacing" textLength="117.6" x="982.2" y="708.1102">toDoListDto : List&lt;EntryDto&gt;</text><rect fill="#E3E3E3" height="18.293" rx="1.5" ry="1.5" style="stroke:#181818;stroke-width:0.3;" width="97.2" x="1110" y="30"/><text fill="#000000" font-family="sans-serif" font-size="8.4" lengthAdjust="spacing" textLength="88.8" x="1114.2" y="42.3211">toDoList : List&lt;Entry&gt;</text><rect fill="#E3E3E3" height="18.293" rx="1.5" ry="1.5" style="stroke:#181818;stroke-width:0.3;" width="97.2" x="1110" y="695.7891"/><text fill="#000000" font-family="sans-serif" font-size="8.4" lengthAdjust="spacing" textLength="88.8" x="1114.2" y="708.1102">toDoList : List&lt;Entry&gt;</text><rect fill="#E3E3E3" height="18.293" rx="1.5" ry="1.5" style="stroke:#181818;stroke-width:0.3;" width="86.4" x="1213.2" y="30"/><text fill="#000000" font-family="sans-serif" font-size="8.4" lengthAdjust="spacing" textLength="78" x="1217.4" y="42.3211">ApplicationSession</text><rect fill="#E3E3E3" height="18.293" rx="1.5" ry="1.5" style="stroke:#181818;stroke-width:0.3;" width="86.4" x="1213.2" y="695.7891"/><text fill="#000000" font-family="sans-serif" font-size="8.4" lengthAdjust="spacing" textLength="78" x="1217.4" y="708.1102">ApplicationSession</text><rect fill="#E3E3E3" height="18.293" rx="1.5" ry="1.5" style="stroke:#181818;stroke-width:0.3;" width="27" x="1327.5" y="30"/><text fill="#000000" font-family="sans-serif" font-size="8.4" lengthAdjust="spacing" textLength="18.6" x="1331.7" y="42.3211">User</text><rect fill="#E3E3E3" height="18.293" rx="1.5" ry="1.5" style="stroke:#181818;stroke-width:0.3;" width="27" x="1327.5" y="695.7891"/><text fill="#000000" font-family="sans-serif" font-size="8.4" lengthAdjust="spacing" textLength="18.6" x="1331.7" y="708.1102">User</text><rect fill="#E3E3E3" height="18.293" rx="1.5" ry="1.5" style="stroke:#181818;stroke-width:0.3;" width="78.6" x="1360.5" y="30"/><text fill="#000000" font-family="sans-serif" font-size="8.4" lengthAdjust="spacing" textLength="70.2" x="1364.7" y="42.3211">CollabRepository</text><rect fill="#E3E3E3" height="18.293" rx="1.5" ry="1.5" style="stroke:#181818;stroke-width:0.3;" width="78.6" x="1360.5" y="695.7891"/><text fill="#000000" font-family="sans-serif" font-size="8.4" lengthAdjust="spacing" textLength="70.2" x="1364.7" y="708.1102">CollabRepository</text><rect fill="#FFFFFF" height="630.6961" style="stroke:#181818;stroke-width:0.6;" width="6" x="37.2" y="54.893"/><rect fill="#FFFFFF" height="623.3098" style="stroke:#181818;stroke-width:0.6;" width="6" x="192" y="67.6793"/><rect fill="#FFFFFF" height="576.7371" style="stroke:#181818;stroke-width:0.6;" width="6" x="336" y="91.2656"/><rect fill="#FFFFFF" height="73.3453" style="stroke:#181818;stroke-width:0.6;" width="6" x="339" y="255.6492"/><rect fill="#FFFFFF" height="17.5863" style="stroke:#181818;stroke-width:0.6;" width="6" x="475.2" y="110.1586"/><rect fill="#FFFFFF" height="17.5863" style="stroke:#181818;stroke-width:0.6;" width="6" x="543" y="145.3312"/><rect fill="#FFFFFF" height="17.5863" style="stroke:#181818;stroke-width:0.6;" width="6" x="543" y="180.5039"/><rect fill="#FFFFFF" height="87.1453" style="stroke:#181818;stroke-width:0.6;" width="6" x="617.7" y="381.7535"/><rect fill="#FFFFFF" height="38.7727" style="stroke:#181818;stroke-width:0.6;" width="6" x="620.7" y="404.1398"/><rect fill="#FFFFFF" height="163.9313" style="stroke:#181818;stroke-width:0.6;" width="6" x="916.8" y="486.4852"/><rect fill="#FFFFFF" height="20.5863" style="stroke:#181818;stroke-width:0.6;" width="6" x="919.8" y="569.3508"/><rect fill="#FFFFFF" height="18" style="stroke:#181818;stroke-width:0.6;" width="6" x="1038" y="614.8301"/><rect fill="#FFFFFF" height="18" style="stroke:#181818;stroke-width:0.6;" width="6" x="1155.6" y="528.9645"/><rect fill="#FFFFFF" height="17.5863" style="stroke:#181818;stroke-width:0.6;" width="6" x="1253.4" y="215.6766"/><rect fill="#FFFFFF" height="52.759" style="stroke:#181818;stroke-width:0.6;" width="6" x="1253.4" y="276.2355"/><rect fill="#FFFFFF" height="17.5863" style="stroke:#181818;stroke-width:0.6;" width="6" x="1338" y="293.8219"/><rect fill="#FFFFFF" height="17.5863" style="stroke:#181818;stroke-width:0.6;" width="6" x="1396.8" y="346.5809"/><polygon fill="#181818" points="184.8,65.2793,190.8,67.6793,184.8,70.0793,187.2,67.6793" style="stroke:#181818;stroke-width:0.6;"/><line style="stroke:#181818;stroke-width:0.6;" x1="43.2" x2="188.4" y1="67.6793" y2="67.6793"/><text fill="#000000" font-family="sans-serif" font-size="7.8" font-weight="bold" lengthAdjust="spacing" textLength="5.4" x="47.4" y="64.834">1</text><text fill="#000000" font-family="sans-serif" font-size="7.8" lengthAdjust="spacing" textLength="129.6" x="55.2" y="64.834">asks to view tasks assigned to me</text><polygon fill="#181818" points="259.2,82.8656,265.2,85.2656,259.2,87.6656,261.6,85.2656" style="stroke:#181818;stroke-width:0.6;"/><line style="stroke:#181818;stroke-width:0.6;" x1="198" x2="262.8" y1="85.2656" y2="85.2656"/><text fill="#000000" font-family="sans-serif" font-size="7.8" font-weight="bold" lengthAdjust="spacing" textLength="5.4" x="202.2" y="82.4203">2</text><text fill="#000000" font-family="sans-serif" font-size="7.8" lengthAdjust="spacing" textLength="22.8" x="210" y="82.4203">create</text><rect fill="#E3E3E3" height="18.293" rx="1.5" ry="1.5" style="stroke:#181818;stroke-width:0.3;" width="145.2" x="266.4" y="72.4793"/><text fill="#000000" font-family="sans-serif" font-size="8.4" lengthAdjust="spacing" textLength="136.8" x="270.6" y="84.8004">:AssignEntryOnAgendaController</text><polygon fill="#181818" points="468,107.7586,474,110.1586,468,112.5586,470.4,110.1586" style="stroke:#181818;stroke-width:0.6;"/><line style="stroke:#181818;stroke-width:0.6;" x1="342" x2="471.6" y1="110.1586" y2="110.1586"/><text fill="#000000" font-family="sans-serif" font-size="7.8" font-weight="bold" lengthAdjust="spacing" textLength="5.4" x="346.2" y="107.3133">3</text><text fill="#000000" font-family="sans-serif" font-size="7.8" lengthAdjust="spacing" textLength="48.6" x="354" y="107.3133">getInstance()</text><polygon fill="#181818" points="348.6,125.3449,342.6,127.7449,348.6,130.1449,346.2,127.7449" style="stroke:#181818;stroke-width:0.6;"/><line style="stroke:#181818;stroke-width:0.6;stroke-dasharray:2.0,2.0;" x1="345" x2="477.6" y1="127.7449" y2="127.7449"/><text fill="#000000" font-family="sans-serif" font-size="7.8" font-weight="bold" lengthAdjust="spacing" textLength="5.4" x="352.2" y="124.8996">4</text><text fill="#000000" font-family="sans-serif" font-size="7.8" lengthAdjust="spacing" textLength="45" x="360" y="124.8996">repositories</text><polygon fill="#181818" points="535.8,142.9313,541.8,145.3312,535.8,147.7313,538.2,145.3312" style="stroke:#181818;stroke-width:0.6;"/><line style="stroke:#181818;stroke-width:0.6;" x1="342" x2="539.4" y1="145.3312" y2="145.3312"/><text fill="#000000" font-family="sans-serif" font-size="7.8" font-weight="bold" lengthAdjust="spacing" textLength="5.4" x="346.2" y="142.4859">5</text><text fill="#000000" font-family="sans-serif" font-size="7.8" lengthAdjust="spacing" textLength="76.2" x="354" y="142.4859">getEntryRepository()</text><polygon fill="#181818" points="348.6,160.5176,342.6,162.9176,348.6,165.3176,346.2,162.9176" style="stroke:#181818;stroke-width:0.6;"/><line style="stroke:#181818;stroke-width:0.6;" x1="345" x2="545.4" y1="162.9176" y2="162.9176"/><text fill="#000000" font-family="sans-serif" font-size="7.8" font-weight="bold" lengthAdjust="spacing" textLength="5.4" x="352.2" y="160.0723">6</text><text fill="#000000" font-family="sans-serif" font-size="7.8" lengthAdjust="spacing" textLength="59.4" x="360" y="160.0723">entryRepository</text><polygon fill="#181818" points="535.8,178.1039,541.8,180.5039,535.8,182.9039,538.2,180.5039" style="stroke:#181818;stroke-width:0.6;"/><line style="stroke:#181818;stroke-width:0.6;" x1="342" x2="539.4" y1="180.5039" y2="180.5039"/><text fill="#000000" font-family="sans-serif" font-size="7.8" font-weight="bold" lengthAdjust="spacing" textLength="5.4" x="346.2" y="177.6586">7</text><text fill="#000000" font-family="sans-serif" font-size="7.8" lengthAdjust="spacing" textLength="103.8" x="354" y="177.6586">getCollaboratorRepository()</text><polygon fill="#181818" points="348.6,195.6902,342.6,198.0902,348.6,200.4902,346.2,198.0902" style="stroke:#181818;stroke-width:0.6;"/><line style="stroke:#181818;stroke-width:0.6;" x1="345" x2="545.4" y1="198.0902" y2="198.0902"/><text fill="#000000" font-family="sans-serif" font-size="7.8" font-weight="bold" lengthAdjust="spacing" textLength="5.4" x="352.2" y="195.2449">8</text><text fill="#000000" font-family="sans-serif" font-size="7.8" lengthAdjust="spacing" textLength="85.8" x="360" y="195.2449">collaboratorRepository</text><polygon fill="#181818" points="1246.2,213.2766,1252.2,215.6766,1246.2,218.0766,1248.6,215.6766" style="stroke:#181818;stroke-width:0.6;"/><line style="stroke:#181818;stroke-width:0.6;" x1="342" x2="1249.8" y1="215.6766" y2="215.6766"/><text fill="#000000" font-family="sans-serif" font-size="7.8" font-weight="bold" lengthAdjust="spacing" textLength="5.4" x="346.2" y="212.8312">9</text><text fill="#000000" font-family="sans-serif" font-size="7.8" lengthAdjust="spacing" textLength="48.6" x="354" y="212.8312">getInstance()</text><polygon fill="#181818" points="348.6,230.8629,342.6,233.2629,348.6,235.6629,346.2,233.2629" style="stroke:#181818;stroke-width:0.6;"/><line style="stroke:#181818;stroke-width:0.6;" x1="345" x2="1255.8" y1="233.2629" y2="233.2629"/><text fill="#000000" font-family="sans-serif" font-size="7.8" font-weight="bold" lengthAdjust="spacing" textLength="10.8" x="352.2" y="230.4176">10</text><text fill="#000000" font-family="sans-serif" font-size="7.8" lengthAdjust="spacing" textLength="70.8" x="365.4" y="230.4176">applicationSession</text><line style="stroke:#181818;stroke-width:0.6;" x1="342" x2="370.2" y1="247.8492" y2="247.8492"/><line style="stroke:#181818;stroke-width:0.6;" x1="370.2" x2="370.2" y1="247.8492" y2="255.6492"/><line style="stroke:#181818;stroke-width:0.6;" x1="345.6" x2="370.2" y1="255.6492" y2="255.6492"/><polygon fill="#181818" points="351.6,253.2492,345.6,255.6492,351.6,258.0492,349.2,255.6492" style="stroke:#181818;stroke-width:0.6;"/><text fill="#000000" font-family="sans-serif" font-size="7.8" font-weight="bold" lengthAdjust="spacing" textLength="10.8" x="349.2" y="245.0039">11</text><text fill="#000000" font-family="sans-serif" font-size="7.8" lengthAdjust="spacing" textLength="111.6" x="362.4" y="245.0039">getCollaboratorFromSession()</text><polygon fill="#181818" points="1246.2,273.8355,1252.2,276.2355,1246.2,278.6355,1248.6,276.2355" style="stroke:#181818;stroke-width:0.6;"/><line style="stroke:#181818;stroke-width:0.6;" x1="345" x2="1249.8" y1="276.2355" y2="276.2355"/><text fill="#000000" font-family="sans-serif" font-size="7.8" font-weight="bold" lengthAdjust="spacing" textLength="10.8" x="349.2" y="273.3902">12</text><text fill="#000000" font-family="sans-serif" font-size="7.8" lengthAdjust="spacing" textLength="73.8" x="362.4" y="273.3902">getCurrentSession()</text><polygon fill="#181818" points="1330.8,291.4219,1336.8,293.8219,1330.8,296.2219,1333.2,293.8219" style="stroke:#181818;stroke-width:0.6;"/><line style="stroke:#181818;stroke-width:0.6;" x1="1259.4" x2="1334.4" y1="293.8219" y2="293.8219"/><text fill="#000000" font-family="sans-serif" font-size="7.8" font-weight="bold" lengthAdjust="spacing" textLength="10.8" x="1263.6" y="290.9766">13</text><text fill="#000000" font-family="sans-serif" font-size="7.8" lengthAdjust="spacing" textLength="54" x="1276.8" y="290.9766">getUserEmail()</text><polygon fill="#181818" points="1266,309.0082,1260,311.4082,1266,313.8082,1263.6,311.4082" style="stroke:#181818;stroke-width:0.6;"/><line style="stroke:#181818;stroke-width:0.6;" x1="1262.4" x2="1340.4" y1="311.4082" y2="311.4082"/><text fill="#000000" font-family="sans-serif" font-size="7.8" font-weight="bold" lengthAdjust="spacing" textLength="10.8" x="1269.6" y="308.5629">14</text><text fill="#000000" font-family="sans-serif" font-size="7.8" lengthAdjust="spacing" textLength="20.4" x="1282.8" y="308.5629">email</text><polygon fill="#181818" points="348.6,326.5945,342.6,328.9945,348.6,331.3945,346.2,328.9945" style="stroke:#181818;stroke-width:0.6;"/><line style="stroke:#181818;stroke-width:0.6;" x1="345" x2="1255.8" y1="328.9945" y2="328.9945"/><text fill="#000000" font-family="sans-serif" font-size="7.8" font-weight="bold" lengthAdjust="spacing" textLength="10.8" x="352.2" y="326.1492">15</text><text fill="#000000" font-family="sans-serif" font-size="7.8" lengthAdjust="spacing" textLength="20.4" x="365.4" y="326.1492">email</text><polygon fill="#181818" points="1389.6,344.1809,1395.6,346.5809,1389.6,348.9809,1392,346.5809" style="stroke:#181818;stroke-width:0.6;"/><line style="stroke:#181818;stroke-width:0.6;" x1="342" x2="1393.2" y1="346.5809" y2="346.5809"/><text fill="#000000" font-family="sans-serif" font-size="7.8" font-weight="bold" lengthAdjust="spacing" textLength="10.8" x="346.2" y="343.7355">16</text><text fill="#000000" font-family="sans-serif" font-size="7.8" lengthAdjust="spacing" textLength="92.4" x="359.4" y="343.7355">getCollaboratorByEmail()</text><polygon fill="#181818" points="348.6,361.7672,342.6,364.1672,348.6,366.5672,346.2,364.1672" style="stroke:#181818;stroke-width:0.6;"/><line style="stroke:#181818;stroke-width:0.6;" x1="345" x2="1399.2" y1="364.1672" y2="364.1672"/><text fill="#000000" font-family="sans-serif" font-size="7.8" font-weight="bold" lengthAdjust="spacing" textLength="10.8" x="352.2" y="361.3219">17</text><text fill="#000000" font-family="sans-serif" font-size="7.8" lengthAdjust="spacing" textLength="45.6" x="365.4" y="361.3219">collaborator</text><polygon fill="#181818" points="610.5,379.3535,616.5,381.7535,610.5,384.1535,612.9,381.7535" style="stroke:#181818;stroke-width:0.6;"/><line style="stroke:#181818;stroke-width:0.6;" x1="342" x2="614.1" y1="381.7535" y2="381.7535"/><text fill="#000000" font-family="sans-serif" font-size="7.8" font-weight="bold" lengthAdjust="spacing" textLength="10.8" x="346.2" y="378.9082">18</text><text fill="#000000" font-family="sans-serif" font-size="7.8" lengthAdjust="spacing" textLength="176.4" x="359.4" y="378.9082">getEntrysByCollaboratorInAgenda(collaborator)</text><line style="stroke:#181818;stroke-width:0.6;" x1="623.7" x2="651.9" y1="396.3398" y2="396.3398"/><line style="stroke:#181818;stroke-width:0.6;" x1="651.9" x2="651.9" y1="396.3398" y2="404.1398"/><line style="stroke:#181818;stroke-width:0.6;" x1="627.3" x2="651.9" y1="404.1398" y2="404.1398"/><polygon fill="#181818" points="633.3,401.7398,627.3,404.1398,633.3,406.5398,630.9,404.1398" style="stroke:#181818;stroke-width:0.6;"/><text fill="#000000" font-family="sans-serif" font-size="7.8" font-weight="bold" lengthAdjust="spacing" textLength="10.8" x="630.9" y="393.4945">19</text><text fill="#000000" font-family="sans-serif" font-size="7.8" lengthAdjust="spacing" textLength="47.4" x="644.1" y="393.4945">getAgenda();</text><path d="M576.9,416.1398 L621.3,416.1398 L621.3,420.5262 L615.3,426.5262 L576.9,426.5262 L576.9,416.1398 " fill="#EEEEEE" style="stroke:#000000;stroke-width:0.8999999999999999;"/><rect fill="none" height="35.7727" style="stroke:#000000;stroke-width:0.8999999999999999;" width="209.4" x="576.9" y="416.1398"/><text fill="#000000" font-family="sans-serif" font-size="7.8" font-weight="bold" lengthAdjust="spacing" textLength="17.4" x="585.9" y="424.2809">loop</text><text fill="#000000" font-family="sans-serif" font-size="6.6" font-weight="bold" lengthAdjust="spacing" textLength="85.8" x="630.3" y="423.7207">[All Entrys are compared]</text><line style="stroke:#181818;stroke-width:0.6;" x1="626.7" x2="651.9" y1="442.3125" y2="442.3125"/><line style="stroke:#181818;stroke-width:0.6;" x1="651.9" x2="651.9" y1="442.3125" y2="450.1125"/><line style="stroke:#181818;stroke-width:0.6;" x1="623.7" x2="651.9" y1="450.1125" y2="450.1125"/><polygon fill="#181818" points="629.7,447.7125,623.7,450.1125,629.7,452.5125,627.3,450.1125" style="stroke:#181818;stroke-width:0.6;"/><text fill="#000000" font-family="sans-serif" font-size="7.8" font-weight="bold" lengthAdjust="spacing" textLength="10.8" x="630.9" y="439.4672">20</text><text fill="#000000" font-family="sans-serif" font-size="7.8" lengthAdjust="spacing" textLength="135" x="644.1" y="439.4672">entryHaveCollaborator(collaborator)</text><polygon fill="#181818" points="348.6,466.4988,342.6,468.8988,348.6,471.2988,346.2,468.8988" style="stroke:#181818;stroke-width:0.6;"/><line style="stroke:#181818;stroke-width:0.6;" x1="345" x2="620.1" y1="468.8988" y2="468.8988"/><text fill="#000000" font-family="sans-serif" font-size="7.8" font-weight="bold" lengthAdjust="spacing" textLength="10.8" x="352.2" y="466.0535">21</text><text fill="#000000" font-family="sans-serif" font-size="7.8" lengthAdjust="spacing" textLength="33" x="365.4" y="466.0535">entryList</text><polygon fill="#181818" points="909.6,484.0852,915.6,486.4852,909.6,488.8852,912,486.4852" style="stroke:#181818;stroke-width:0.6;"/><line style="stroke:#181818;stroke-width:0.6;" x1="342" x2="913.2" y1="486.4852" y2="486.4852"/><text fill="#000000" font-family="sans-serif" font-size="7.8" font-weight="bold" lengthAdjust="spacing" textLength="10.8" x="346.2" y="483.6398">22</text><text fill="#000000" font-family="sans-serif" font-size="7.8" lengthAdjust="spacing" textLength="127.2" x="359.4" y="483.6398">entryListToEntryDtoList(entryList)</text><polygon fill="#181818" points="970.8,501.6715,976.8,504.0715,970.8,506.4715,973.2,504.0715" style="stroke:#181818;stroke-width:0.6;"/><line style="stroke:#181818;stroke-width:0.6;" x1="922.8" x2="974.4" y1="504.0715" y2="504.0715"/><text fill="#000000" font-family="sans-serif" font-size="7.8" font-weight="bold" lengthAdjust="spacing" textLength="10.8" x="927" y="501.2262">23</text><text fill="#000000" font-family="sans-serif" font-size="7.8" lengthAdjust="spacing" textLength="27.6" x="940.2" y="501.2262">create()</text><rect fill="#E3E3E3" height="18.293" rx="1.5" ry="1.5" style="stroke:#181818;stroke-width:0.3;" width="126" x="978" y="491.2852"/><text fill="#000000" font-family="sans-serif" font-size="8.4" lengthAdjust="spacing" textLength="117.6" x="982.2" y="503.6063">toDoListDto : List&lt;EntryDto&gt;</text><polygon fill="#181818" points="1148.4,526.5645,1154.4,528.9645,1148.4,531.3645,1150.8,528.9645" style="stroke:#181818;stroke-width:0.6;"/><line style="stroke:#181818;stroke-width:0.6;" x1="922.8" x2="1152" y1="528.9645" y2="528.9645"/><text fill="#000000" font-family="sans-serif" font-size="7.8" font-weight="bold" lengthAdjust="spacing" textLength="10.8" x="927" y="526.1191">24</text><text fill="#000000" font-family="sans-serif" font-size="7.8" lengthAdjust="spacing" textLength="49.2" x="940.2" y="526.1191">entry = get(i)</text><line style="stroke:#181818;stroke-width:0.6;" x1="922.8" x2="951" y1="561.5508" y2="561.5508"/><line style="stroke:#181818;stroke-width:0.6;" x1="951" x2="951" y1="561.5508" y2="569.3508"/><line style="stroke:#181818;stroke-width:0.6;" x1="926.4" x2="951" y1="569.3508" y2="569.3508"/><polygon fill="#181818" points="932.4,566.9508,926.4,569.3508,932.4,571.7508,930,569.3508" style="stroke:#181818;stroke-width:0.6;"/><text fill="#000000" font-family="sans-serif" font-size="7.8" font-weight="bold" lengthAdjust="spacing" textLength="10.8" x="930" y="558.7055">25</text><text fill="#000000" font-family="sans-serif" font-size="7.8" lengthAdjust="spacing" textLength="92.4" x="943.2" y="558.7055">entryDto = toDTO(entry)</text><polygon fill="#181818" points="861,587.5371,855,589.9371,861,592.3371,858.6,589.9371" style="stroke:#181818;stroke-width:0.6;"/><line style="stroke:#181818;stroke-width:0.6;" x1="857.4" x2="916.2" y1="589.9371" y2="589.9371"/><text fill="#000000" font-family="sans-serif" font-size="7.8" font-weight="bold" lengthAdjust="spacing" textLength="10.8" x="864.6" y="587.0918">26</text><text fill="#000000" font-family="sans-serif" font-size="7.8" lengthAdjust="spacing" textLength="34.8" x="877.8" y="587.0918">create(...)</text><rect fill="#E3E3E3" height="18.293" rx="1.5" ry="1.5" style="stroke:#181818;stroke-width:0.3;" width="46.2" x="808.2" y="577.1508"/><text fill="#000000" font-family="sans-serif" font-size="8.4" lengthAdjust="spacing" textLength="37.8" x="812.4" y="589.4719">:EntryDto</text><polygon fill="#181818" points="1030.8,612.4301,1036.8,614.8301,1030.8,617.2301,1033.2,614.8301" style="stroke:#181818;stroke-width:0.6;"/><line style="stroke:#181818;stroke-width:0.6;" x1="922.8" x2="1034.4" y1="614.8301" y2="614.8301"/><text fill="#000000" font-family="sans-serif" font-size="7.8" font-weight="bold" lengthAdjust="spacing" textLength="10.8" x="927" y="611.9848">27</text><text fill="#000000" font-family="sans-serif" font-size="7.8" lengthAdjust="spacing" textLength="51.6" x="940.2" y="611.9848">add(entryDto)</text><polygon fill="#181818" points="348.6,648.0164,342.6,650.4164,348.6,652.8164,346.2,650.4164" style="stroke:#181818;stroke-width:0.6;"/><line style="stroke:#181818;stroke-width:0.6;" x1="345" x2="919.2" y1="650.4164" y2="650.4164"/><text fill="#000000" font-family="sans-serif" font-size="7.8" font-weight="bold" lengthAdjust="spacing" textLength="10.8" x="352.2" y="647.5711">28</text><text fill="#000000" font-family="sans-serif" font-size="7.8" lengthAdjust="spacing" textLength="46.8" x="365.4" y="647.5711">entryListDto</text><polygon fill="#181818" points="204.6,665.6027,198.6,668.0027,204.6,670.4027,202.2,668.0027" style="stroke:#181818;stroke-width:0.6;"/><line style="stroke:#181818;stroke-width:0.6;" x1="201" x2="338.4" y1="668.0027" y2="668.0027"/><text fill="#000000" font-family="sans-serif" font-size="7.8" font-weight="bold" lengthAdjust="spacing" textLength="10.8" x="208.2" y="665.1574">29</text><text fill="#000000" font-family="sans-serif" font-size="7.8" lengthAdjust="spacing" textLength="110.4" x="221.4" y="665.1574">entryAssignedToCollaborator</text><polygon fill="#181818" points="46.8,683.1891,40.8,685.5891,46.8,687.9891,44.4,685.5891" style="stroke:#181818;stroke-width:0.6;"/><line style="stroke:#181818;stroke-width:0.6;" x1="43.2" x2="191.4" y1="685.5891" y2="685.5891"/><text fill="#000000" font-family="sans-serif" font-size="7.8" font-weight="bold" lengthAdjust="spacing" textLength="10.8" x="50.4" y="682.7438">30</text><text fill="#000000" font-family="sans-serif" font-size="7.8" lengthAdjust="spacing" textLength="83.4" x="63.6" y="682.7438">show entry's assigned</text><!--SRC=[nLXDKzim4BtxLsYu93303w256HFIQJemC11kN8IzIJJOaYifqFpxhcGxbcKxf7Oww6HBshTFRrUVwetnZ4gQabHm4QsaI85ekOP0RLio6htH9JpfJG94GgGfNoPk1xMYiVXWV4aMD54G17Ij1L-dho23OBHYCP254FfL_0bef8KaHnEH9FHLI8f_pmha4Q6A-9K1eciMiOnoJOukGgNOaa-vbfjx7Yw1n_HvPWsVPvztdGZyGmUbh_dZhMVq29bG37qpKBRFjcBpnCo8SKnr4-bOlF0cmCDjEAzRWA5KuQBHj5vZxRmwZwTjjVtkht-rjTreOPjlvlTjpNSqomeLxiA7X-bZlPCMD-AMAOqev8AOh-ybwfKrieq-T6bLCwdw1u69F7kd6ffX3aXH_1PoTeMnHKYgtXH1FkyCFeYsVzI6669JdKA5iNM3IH6CY5CGwGm16qukCAT_hq5fHMAgAHbBM8047i4fYK55acMQ2NvA2ECB8LEQa1TURz4GhJYBiALM7Q_HY_sAXDB7WSjc54cmQfX4z6bUsUgJ4-IMTwlrg9GqjhKcKsFCMr8NiPQWPrpXz8rWN6UpRzcwRfiRlH1DQMDxLeXWebDDgrukOZWyxL9eCyLpPRr9ErHWktRqWh2K2lMGchVa35MmFwyMpTovE5Yw_obYr4fq8Cr3wTeYSPXb2Qv7Pl5v0bmf3pJz3rUsusuo3Rw4MejYLVXfaoJvukAaJfk4GVk-K8p7cte_yDHNM7g9iSTMqvLgaxN4JLH_WljP-Dl3KkpRwCLyJLFAaYu7zHE6tM2nfeit6AYWG-ScrCwasOaLxiuefsUtyda8g-Me6TZhpKvjV03FZG_VlXnsyjuDNep1spMThLHTRzoXp8fp_DZrtJ4k__nSw-Lxx29Hk3l-riD78aH6mYJ9U-5XLG9gbkA96U9_9sDty9_q7LmzTkZW166wO_F7uNsgZ7k6iEVuFVsqnZg_RRXmSr5UBSpVU5lV4TVYkb97Br0HlxYOECTcJFnU2tKTisHCBarUZDd0arr3nnvBVdwd6ZQqUZZCTUyIBrCeO1w7WQCiOpMCOnxEAfxdv-V7GxKx3BCYsSpX88x7fOG7I0rpjJv0TXYOWKFq9p-Exr3Q3xfpsIS1ooei7W7cOjAr8_KWsTnnzot5tRtvmg1MuYEdFAgUBe9cQUoVpZF9Nm00]--></g></svg>