<?xml version="1.0" encoding="us-ascii" standalone="no"?><svg xmlns="http://www.w3.org/2000/svg" xmlns:xlink="http://www.w3.org/1999/xlink" contentStyleType="text/css" height="399px" preserveAspectRatio="none" style="width:801px;height:399px;background:#FFFFFF;" version="1.1" viewBox="0 0 801 399" width="801px" zoomAndPan="magnify"><defs/><g><rect fill="#FFFFFF" height="217.9297" style="stroke:#181818;stroke-width:1.0;" width="10" x="19" y="91.2969"/><rect fill="#FFFFFF" height="29.1328" style="stroke:#181818;stroke-width:1.0;" width="10" x="570" y="112.4297"/><rect fill="#FFFFFF" height="29.1328" style="stroke:#181818;stroke-width:1.0;" width="10" x="570" y="170.6953"/><rect fill="#FFFFFF" height="71.2656" style="stroke:#181818;stroke-width:1.0;" width="10" x="570" y="228.9609"/><line style="stroke:#181818;stroke-width:0.5;stroke-dasharray:5.0,5.0;" x1="24" x2="24" y1="81.2969" y2="318.2266"/><line style="stroke:#181818;stroke-width:0.5;stroke-dasharray:5.0,5.0;" x1="575" x2="575" y1="81.2969" y2="318.2266"/><text fill="#000000" font-family="sans-serif" font-size="14" lengthAdjust="spacing" textLength="32" x="5" y="77.9951">HRM</text><ellipse cx="24" cy="13.5" fill="#E3E3E3" rx="8" ry="8" style="stroke:#181818;stroke-width:0.5;"/><path d="M24,21.5 L24,48.5 M11,29.5 L37,29.5 M24,48.5 L11,63.5 M24,48.5 L37,63.5 " fill="none" style="stroke:#181818;stroke-width:0.5;"/><text fill="#000000" font-family="sans-serif" font-size="14" lengthAdjust="spacing" textLength="32" x="5" y="330.2217">HRM</text><ellipse cx="24" cy="342.0234" fill="#E3E3E3" rx="8" ry="8" style="stroke:#181818;stroke-width:0.5;"/><path d="M24,350.0234 L24,377.0234 M11,358.0234 L37,358.0234 M24,377.0234 L11,392.0234 M24,377.0234 L37,392.0234 " fill="none" style="stroke:#181818;stroke-width:0.5;"/><rect fill="#E3E3E3" height="30.2969" rx="2.5" ry="2.5" style="stroke:#181818;stroke-width:0.5;" width="70" x="540" y="50"/><text fill="#000000" font-family="sans-serif" font-size="14" lengthAdjust="spacing" textLength="56" x="547" y="69.9951">:System</text><rect fill="#E3E3E3" height="30.2969" rx="2.5" ry="2.5" style="stroke:#181818;stroke-width:0.5;" width="70" x="540" y="317.2266"/><text fill="#000000" font-family="sans-serif" font-size="14" lengthAdjust="spacing" textLength="56" x="547" y="337.2217">:System</text><rect fill="#FFFFFF" height="217.9297" style="stroke:#181818;stroke-width:1.0;" width="10" x="19" y="91.2969"/><rect fill="#FFFFFF" height="29.1328" style="stroke:#181818;stroke-width:1.0;" width="10" x="570" y="112.4297"/><rect fill="#FFFFFF" height="29.1328" style="stroke:#181818;stroke-width:1.0;" width="10" x="570" y="170.6953"/><rect fill="#FFFFFF" height="71.2656" style="stroke:#181818;stroke-width:1.0;" width="10" x="570" y="228.9609"/><polygon fill="#181818" points="558,108.4297,568,112.4297,558,116.4297,562,112.4297" style="stroke:#181818;stroke-width:1.0;"/><line style="stroke:#181818;stroke-width:1.0;" x1="29" x2="564" y1="112.4297" y2="112.4297"/><text fill="#000000" font-family="sans-serif" font-size="13" font-weight="bold" lengthAdjust="spacing" textLength="9" x="36" y="107.3638">1</text><text fill="#000000" font-family="sans-serif" font-size="13" lengthAdjust="spacing" textLength="131" x="49" y="107.3638">Selects Employee ID</text><polygon fill="#181818" points="40,137.5625,30,141.5625,40,145.5625,36,141.5625" style="stroke:#181818;stroke-width:1.0;"/><line style="stroke:#181818;stroke-width:1.0;stroke-dasharray:2.0,2.0;" x1="34" x2="574" y1="141.5625" y2="141.5625"/><text fill="#000000" font-family="sans-serif" font-size="13" font-weight="bold" lengthAdjust="spacing" textLength="9" x="46" y="136.4966">2</text><text fill="#000000" font-family="sans-serif" font-size="13" lengthAdjust="spacing" textLength="504" x="59" y="136.4966">Validates employee ID and displays all skills already assigned to that employee</text><polygon fill="#181818" points="558,166.6953,568,170.6953,558,174.6953,562,170.6953" style="stroke:#181818;stroke-width:1.0;"/><line style="stroke:#181818;stroke-width:1.0;" x1="29" x2="564" y1="170.6953" y2="170.6953"/><text fill="#000000" font-family="sans-serif" font-size="13" font-weight="bold" lengthAdjust="spacing" textLength="9" x="36" y="165.6294">3</text><text fill="#000000" font-family="sans-serif" font-size="13" lengthAdjust="spacing" textLength="198" x="49" y="165.6294">Selects Skill Name(s) to assign</text><polygon fill="#181818" points="40,195.8281,30,199.8281,40,203.8281,36,199.8281" style="stroke:#181818;stroke-width:1.0;"/><line style="stroke:#181818;stroke-width:1.0;stroke-dasharray:2.0,2.0;" x1="34" x2="574" y1="199.8281" y2="199.8281"/><text fill="#000000" font-family="sans-serif" font-size="13" font-weight="bold" lengthAdjust="spacing" textLength="9" x="46" y="194.7622">4</text><text fill="#000000" font-family="sans-serif" font-size="13" lengthAdjust="spacing" textLength="233" x="59" y="194.7622">Confirms skill assignment is possible</text><polygon fill="#181818" points="558,224.9609,568,228.9609,558,232.9609,562,228.9609" style="stroke:#181818;stroke-width:1.0;"/><line style="stroke:#181818;stroke-width:1.0;" x1="29" x2="564" y1="228.9609" y2="228.9609"/><text fill="#000000" font-family="sans-serif" font-size="13" font-weight="bold" lengthAdjust="spacing" textLength="9" x="36" y="223.895">5</text><text fill="#000000" font-family="sans-serif" font-size="13" lengthAdjust="spacing" textLength="163" x="49" y="223.895">Confirms skill assignment</text><line style="stroke:#181818;stroke-width:1.0;" x1="580" x2="622" y1="258.0938" y2="258.0938"/><line style="stroke:#181818;stroke-width:1.0;" x1="622" x2="622" y1="258.0938" y2="271.0938"/><line style="stroke:#181818;stroke-width:1.0;" x1="581" x2="622" y1="271.0938" y2="271.0938"/><polygon fill="#181818" points="591,267.0938,581,271.0938,591,275.0938,587,271.0938" style="stroke:#181818;stroke-width:1.0;"/><text fill="#000000" font-family="sans-serif" font-size="13" font-weight="bold" lengthAdjust="spacing" textLength="9" x="587" y="253.0278">6</text><text fill="#000000" font-family="sans-serif" font-size="13" lengthAdjust="spacing" textLength="194" x="600" y="253.0278">Assigns Skill(s) to Collaborator</text><polygon fill="#181818" points="40,296.2266,30,300.2266,40,304.2266,36,300.2266" style="stroke:#181818;stroke-width:1.0;"/><line style="stroke:#181818;stroke-width:1.0;stroke-dasharray:2.0,2.0;" x1="34" x2="574" y1="300.2266" y2="300.2266"/><text fill="#000000" font-family="sans-serif" font-size="13" font-weight="bold" lengthAdjust="spacing" textLength="9" x="46" y="295.1606">7</text><text fill="#000000" font-family="sans-serif" font-size="13" lengthAdjust="spacing" textLength="236" x="59" y="295.1606">Displays operation success message</text><!--SRC=[bPBDJWCn38JlUGgh9pZq1Nf0GYqI7E30IjpTnDr6E74KPq7xzhZjzaUgYk2owsZdcynOgvyn5woO84aMlwsI25eToEdfIq7_YJrrRMI2IhvXxlbIe5iCyXrp3nja9UTmQ9A7jAPgiszIOVRy_Ze3LB0tPdEhpjWMVIoO6ymMtQYDqbvo6FTa_C965umxZJ1_c8ImW8xOOYayfS8o4i7BwamVxIRrtC2pomBW0pa64ohG6GVC0KBKmZWg83DONURTM0d3Q3arzfa2D86snNQ2NQ2hgtzFtUsSuGqJtUdzpk_W_US6IycRM9CU8avq8bjhL2XYnpN_8zPDkzk1BkZ7lNmgDVLP2ZEkfQBz2RTAh8wxba8cZ9911-z95P8zJEMkA_m0]--></g></svg>