<?xml version="1.0" encoding="us-ascii" standalone="no"?><svg xmlns="http://www.w3.org/2000/svg" xmlns:xlink="http://www.w3.org/1999/xlink" contentStyleType="text/css" height="399px" preserveAspectRatio="none" style="width:603px;height:399px;background:#FFFFFF;" version="1.1" viewBox="0 0 603 399" width="603px" zoomAndPan="magnify"><defs/><g><rect fill="#FFFFFF" height="217.9297" style="stroke:#181818;stroke-width:1.0;" width="10" x="19" y="91.2969"/><rect fill="#FFFFFF" height="29.1328" style="stroke:#181818;stroke-width:1.0;" width="10" x="347" y="112.4297"/><rect fill="#FFFFFF" height="29.1328" style="stroke:#181818;stroke-width:1.0;" width="10" x="347" y="170.6953"/><rect fill="#FFFFFF" height="71.2656" style="stroke:#181818;stroke-width:1.0;" width="10" x="347" y="228.9609"/><line style="stroke:#181818;stroke-width:0.5;stroke-dasharray:5.0,5.0;" x1="24" x2="24" y1="81.2969" y2="318.2266"/><line style="stroke:#181818;stroke-width:0.5;stroke-dasharray:5.0,5.0;" x1="352" x2="352" y1="81.2969" y2="318.2266"/><text fill="#000000" font-family="sans-serif" font-size="14" lengthAdjust="spacing" textLength="32" x="5" y="77.9951">HRM</text><ellipse cx="24" cy="13.5" fill="#E3E3E3" rx="8" ry="8" style="stroke:#181818;stroke-width:0.5;"/><path d="M24,21.5 L24,48.5 M11,29.5 L37,29.5 M24,48.5 L11,63.5 M24,48.5 L37,63.5 " fill="none" style="stroke:#181818;stroke-width:0.5;"/><text fill="#000000" font-family="sans-serif" font-size="14" lengthAdjust="spacing" textLength="32" x="5" y="330.2217">HRM</text><ellipse cx="24" cy="342.0234" fill="#E3E3E3" rx="8" ry="8" style="stroke:#181818;stroke-width:0.5;"/><path d="M24,350.0234 L24,377.0234 M11,358.0234 L37,358.0234 M24,377.0234 L11,392.0234 M24,377.0234 L37,392.0234 " fill="none" style="stroke:#181818;stroke-width:0.5;"/><rect fill="#E3E3E3" height="30.2969" rx="2.5" ry="2.5" style="stroke:#181818;stroke-width:0.5;" width="70" x="317" y="50"/><text fill="#000000" font-family="sans-serif" font-size="14" lengthAdjust="spacing" textLength="56" x="324" y="69.9951">:System</text><rect fill="#E3E3E3" height="30.2969" rx="2.5" ry="2.5" style="stroke:#181818;stroke-width:0.5;" width="70" x="317" y="317.2266"/><text fill="#000000" font-family="sans-serif" font-size="14" lengthAdjust="spacing" textLength="56" x="324" y="337.2217">:System</text><rect fill="#FFFFFF" height="217.9297" style="stroke:#181818;stroke-width:1.0;" width="10" x="19" y="91.2969"/><rect fill="#FFFFFF" height="29.1328" style="stroke:#181818;stroke-width:1.0;" width="10" x="347" y="112.4297"/><rect fill="#FFFFFF" height="29.1328" style="stroke:#181818;stroke-width:1.0;" width="10" x="347" y="170.6953"/><rect fill="#FFFFFF" height="71.2656" style="stroke:#181818;stroke-width:1.0;" width="10" x="347" y="228.9609"/><polygon fill="#181818" points="335,108.4297,345,112.4297,335,116.4297,339,112.4297" style="stroke:#181818;stroke-width:1.0;"/><line style="stroke:#181818;stroke-width:1.0;" x1="29" x2="341" y1="112.4297" y2="112.4297"/><text fill="#000000" font-family="sans-serif" font-size="13" font-weight="bold" lengthAdjust="spacing" textLength="9" x="36" y="107.3638">1</text><text fill="#000000" font-family="sans-serif" font-size="13" lengthAdjust="spacing" textLength="286" x="49" y="107.3638">Asks to assign skills to a specific collaborator</text><polygon fill="#181818" points="40,137.5625,30,141.5625,40,145.5625,36,141.5625" style="stroke:#181818;stroke-width:1.0;"/><line style="stroke:#181818;stroke-width:1.0;stroke-dasharray:2.0,2.0;" x1="34" x2="351" y1="141.5625" y2="141.5625"/><text fill="#000000" font-family="sans-serif" font-size="13" font-weight="bold" lengthAdjust="spacing" textLength="9" x="46" y="136.4966">2</text><text fill="#000000" font-family="sans-serif" font-size="13" lengthAdjust="spacing" textLength="155" x="59" y="136.4966">Displays collaborator list</text><polygon fill="#181818" points="335,166.6953,345,170.6953,335,174.6953,339,170.6953" style="stroke:#181818;stroke-width:1.0;"/><line style="stroke:#181818;stroke-width:1.0;" x1="29" x2="341" y1="170.6953" y2="170.6953"/><text fill="#000000" font-family="sans-serif" font-size="13" font-weight="bold" lengthAdjust="spacing" textLength="9" x="36" y="165.6294">3</text><text fill="#000000" font-family="sans-serif" font-size="13" lengthAdjust="spacing" textLength="127" x="49" y="165.6294">Selects collaborator</text><polygon fill="#181818" points="40,195.8281,30,199.8281,40,203.8281,36,199.8281" style="stroke:#181818;stroke-width:1.0;"/><line style="stroke:#181818;stroke-width:1.0;stroke-dasharray:2.0,2.0;" x1="34" x2="351" y1="199.8281" y2="199.8281"/><text fill="#000000" font-family="sans-serif" font-size="13" font-weight="bold" lengthAdjust="spacing" textLength="9" x="46" y="194.7622">4</text><text fill="#000000" font-family="sans-serif" font-size="13" lengthAdjust="spacing" textLength="213" x="59" y="194.7622">Displays Available Skills to Assign</text><polygon fill="#181818" points="335,224.9609,345,228.9609,335,232.9609,339,228.9609" style="stroke:#181818;stroke-width:1.0;"/><line style="stroke:#181818;stroke-width:1.0;" x1="29" x2="341" y1="228.9609" y2="228.9609"/><text fill="#000000" font-family="sans-serif" font-size="13" font-weight="bold" lengthAdjust="spacing" textLength="9" x="36" y="223.895">5</text><text fill="#000000" font-family="sans-serif" font-size="13" lengthAdjust="spacing" textLength="283" x="49" y="223.895">Confirms Skill Assignment for Selected Skills</text><line style="stroke:#181818;stroke-width:1.0;" x1="357" x2="399" y1="258.0938" y2="258.0938"/><line style="stroke:#181818;stroke-width:1.0;" x1="399" x2="399" y1="258.0938" y2="271.0938"/><line style="stroke:#181818;stroke-width:1.0;" x1="358" x2="399" y1="271.0938" y2="271.0938"/><polygon fill="#181818" points="368,267.0938,358,271.0938,368,275.0938,364,271.0938" style="stroke:#181818;stroke-width:1.0;"/><text fill="#000000" font-family="sans-serif" font-size="13" font-weight="bold" lengthAdjust="spacing" textLength="9" x="364" y="253.0278">6</text><text fill="#000000" font-family="sans-serif" font-size="13" lengthAdjust="spacing" textLength="219" x="377" y="253.0278">Assigns Skill(s) to the Collaborator</text><polygon fill="#181818" points="40,296.2266,30,300.2266,40,304.2266,36,300.2266" style="stroke:#181818;stroke-width:1.0;"/><line style="stroke:#181818;stroke-width:1.0;stroke-dasharray:2.0,2.0;" x1="34" x2="351" y1="300.2266" y2="300.2266"/><text fill="#000000" font-family="sans-serif" font-size="13" font-weight="bold" lengthAdjust="spacing" textLength="9" x="46" y="295.1606">7</text><text fill="#000000" font-family="sans-serif" font-size="13" lengthAdjust="spacing" textLength="236" x="59" y="295.1606">Displays operation success message</text><!--SRC=[dL6xRiCm3Dpr5KIcTiWFU2XWj4ENBlKNC39j4zR34EKK_liojkiuI8iMNIH2kZlUaT9p632X1nz3j5sAdY2daOniFmFQ7bkgykG84jcCeNLxW7HOnmyEBJJeX8p1CSSm-XCbhMsE2Gwlxsy7G06zCQXQCihDR7d0aE5GL9DayZDaAMScdp7JZcEs4evFAn0AAAKNo579mcq0TURSyW0oaEM6BTZe79vYGhLpbVxgjKeTLVNQeW1uOHaSJd931yUIJKrtAj-xgyZfqEH_3ZO3vHbPwRg2QejNpdd_xkGvXeQJbqLYfNlI1JIQQl59zThWPuitaxz8h88FydXnbJlIJhkilqMB0ocGesvkj9P4mEkXA7CVxHC0]--></g></svg>