<?xml version="1.0" encoding="us-ascii" standalone="no"?><svg xmlns="http://www.w3.org/2000/svg" xmlns:xlink="http://www.w3.org/1999/xlink" contentStyleType="text/css" height="1074px" preserveAspectRatio="none" style="width:1778px;height:1074px;background:#FFFFFF;" version="1.1" viewBox="0 0 1778 1074" width="1778px" zoomAndPan="magnify"><defs/><g><!--cluster Domain--><g id="cluster_Domain"><rect fill="#DDDDDD" height="1020.5" rx="2.5" ry="2.5" style="stroke:#000000;stroke-width:1.5;" width="894" x="58" y="47.5"/><text fill="#000000" font-family="sans-serif" font-size="14" font-weight="bold" lengthAdjust="spacing" textLength="52" x="479" y="64.6074">Domain</text></g><!--cluster Controller--><g id="cluster_Controller"><rect fill="#DDDDDD" height="194" rx="2.5" ry="2.5" style="stroke:#000000;stroke-width:1.5;" width="552" x="976" y="29"/><text fill="#000000" font-family="sans-serif" font-size="14" font-weight="bold" lengthAdjust="spacing" textLength="71" x="1216.5" y="46.1074">Controller</text></g><!--cluster UI--><g id="cluster_UI"><rect fill="#DDDDDD" height="101" rx="2.5" ry="2.5" style="stroke:#000000;stroke-width:1.5;" width="220" x="1552" y="75.5"/><text fill="#000000" font-family="sans-serif" font-size="14" font-weight="bold" lengthAdjust="spacing" textLength="14" x="1655" y="92.6074">UI</text></g><!--class Entry--><g id="elem_Entry"><rect codeLine="13" fill="#F1F1F1" height="196.9688" id="Entry" rx="2.5" ry="2.5" style="stroke:#181818;stroke-width:0.5;" width="189" x="746.5" y="508"/><ellipse cx="820.25" cy="524" fill="#ADD1B2" rx="11" ry="11" style="stroke:#181818;stroke-width:1.0;"/><path d="M823.0156,519.875 Q823.1719,519.6563 823.3594,519.5469 Q823.5469,519.4375 823.7656,519.4375 Q824.1406,519.4375 824.375,519.7031 Q824.6094,519.9531 824.6094,520.5625 L824.6094,522.0156 Q824.6094,522.625 824.375,522.8906 Q824.1406,523.1563 823.7656,523.1563 Q823.4219,523.1563 823.2188,522.9531 Q823.0156,522.7656 822.9063,522.25 Q822.8594,521.8906 822.6719,521.7031 Q822.3438,521.3281 821.7344,521.1094 Q821.125,520.8906 820.5,520.8906 Q819.7344,520.8906 819.0938,521.2188 Q818.4688,521.5469 817.9688,522.2969 Q817.4844,523.0469 817.4844,524.0781 L817.4844,525.1719 Q817.4844,526.4063 818.375,527.2344 Q819.2656,528.0469 820.8594,528.0469 Q821.7969,528.0469 822.4531,527.7969 Q822.8438,527.6406 823.2656,527.2031 Q823.5313,526.9375 823.6719,526.8594 Q823.8281,526.7813 824.0313,526.7813 Q824.3594,526.7813 824.6094,527.0469 Q824.875,527.2969 824.875,527.6406 Q824.875,527.9844 824.5313,528.3906 Q824.0313,528.9688 823.2344,529.2969 Q822.1563,529.75 820.8594,529.75 Q819.3438,529.75 818.1406,529.125 Q817.1563,528.625 816.4688,527.5625 Q815.7813,526.4844 815.7813,525.2031 L815.7813,524.0469 Q815.7813,522.7188 816.3906,521.5781 Q817.0156,520.4219 818.1094,519.8125 Q819.2031,519.1875 820.4375,519.1875 Q821.1719,519.1875 821.8125,519.3594 Q822.4688,519.5156 823.0156,519.875 Z " fill="#000000"/><text fill="#000000" font-family="sans-serif" font-size="14" lengthAdjust="spacing" textLength="33" x="840.75" y="529.7969">Entry</text><line style="stroke:#181818;stroke-width:0.5;" x1="747.5" x2="934.5" y1="540" y2="540"/><text fill="#000000" font-family="sans-serif" font-size="14" lengthAdjust="spacing" textLength="96" x="752.5" y="559.1074">-List&lt;Vehicles&gt;</text><text fill="#000000" font-family="sans-serif" font-size="14" lengthAdjust="spacing" textLength="41" x="752.5" y="577.7285">-Team</text><text fill="#000000" font-family="sans-serif" font-size="14" lengthAdjust="spacing" textLength="65" x="752.5" y="596.3496">-StartDate</text><text fill="#000000" font-family="sans-serif" font-size="14" lengthAdjust="spacing" textLength="65" x="752.5" y="614.9707">-StartHour</text><text fill="#000000" font-family="sans-serif" font-size="14" lengthAdjust="spacing" textLength="45" x="752.5" y="633.5918">-Status</text><line style="stroke:#181818;stroke-width:0.5;" x1="747.5" x2="934.5" y1="641.1055" y2="641.1055"/><text fill="#000000" font-family="sans-serif" font-size="14" lengthAdjust="spacing" textLength="51" x="752.5" y="660.2129">+Entry()</text><text fill="#000000" font-family="sans-serif" font-size="14" lengthAdjust="spacing" textLength="152" x="752.5" y="678.834">-setStartDate(startDate)</text><text fill="#000000" font-family="sans-serif" font-size="14" lengthAdjust="spacing" textLength="177" x="752.5" y="697.4551">+setEntryAgenda(startDate)</text></g><!--class Task--><g id="elem_Task"><rect codeLine="24" fill="#F1F1F1" height="85.2422" id="Task" rx="2.5" ry="2.5" style="stroke:#181818;stroke-width:0.5;" width="149" x="514.5" y="564"/><ellipse cx="569.25" cy="580" fill="#ADD1B2" rx="11" ry="11" style="stroke:#181818;stroke-width:1.0;"/><path d="M572.0156,575.875 Q572.1719,575.6563 572.3594,575.5469 Q572.5469,575.4375 572.7656,575.4375 Q573.1406,575.4375 573.375,575.7031 Q573.6094,575.9531 573.6094,576.5625 L573.6094,578.0156 Q573.6094,578.625 573.375,578.8906 Q573.1406,579.1563 572.7656,579.1563 Q572.4219,579.1563 572.2188,578.9531 Q572.0156,578.7656 571.9063,578.25 Q571.8594,577.8906 571.6719,577.7031 Q571.3438,577.3281 570.7344,577.1094 Q570.125,576.8906 569.5,576.8906 Q568.7344,576.8906 568.0938,577.2188 Q567.4688,577.5469 566.9688,578.2969 Q566.4844,579.0469 566.4844,580.0781 L566.4844,581.1719 Q566.4844,582.4063 567.375,583.2344 Q568.2656,584.0469 569.8594,584.0469 Q570.7969,584.0469 571.4531,583.7969 Q571.8438,583.6406 572.2656,583.2031 Q572.5313,582.9375 572.6719,582.8594 Q572.8281,582.7813 573.0313,582.7813 Q573.3594,582.7813 573.6094,583.0469 Q573.875,583.2969 573.875,583.6406 Q573.875,583.9844 573.5313,584.3906 Q573.0313,584.9688 572.2344,585.2969 Q571.1563,585.75 569.8594,585.75 Q568.3438,585.75 567.1406,585.125 Q566.1563,584.625 565.4688,583.5625 Q564.7813,582.4844 564.7813,581.2031 L564.7813,580.0469 Q564.7813,578.7188 565.3906,577.5781 Q566.0156,576.4219 567.1094,575.8125 Q568.2031,575.1875 569.4375,575.1875 Q570.1719,575.1875 570.8125,575.3594 Q571.4688,575.5156 572.0156,575.875 Z " fill="#000000"/><text fill="#000000" font-family="sans-serif" font-size="14" lengthAdjust="spacing" textLength="31" x="589.75" y="585.7969">Task</text><line style="stroke:#181818;stroke-width:0.5;" x1="515.5" x2="662.5" y1="596" y2="596"/><text fill="#000000" font-family="sans-serif" font-size="14" lengthAdjust="spacing" textLength="85" x="520.5" y="615.1074">-GreenSpace</text><text fill="#000000" font-family="sans-serif" font-size="14" lengthAdjust="spacing" textLength="137" x="520.5" y="633.7285">-Integer timeExpected</text><line style="stroke:#181818;stroke-width:0.5;" x1="515.5" x2="662.5" y1="641.2422" y2="641.2422"/></g><!--class EntryRepository--><g id="elem_EntryRepository"><rect codeLine="29" fill="#F1F1F1" height="141.1055" id="EntryRepository" rx="2.5" ry="2.5" style="stroke:#181818;stroke-width:0.5;" width="156" x="356" y="288"/><ellipse cx="381.35" cy="304" fill="#ADD1B2" rx="11" ry="11" style="stroke:#181818;stroke-width:1.0;"/><path d="M384.1156,299.875 Q384.2719,299.6563 384.4594,299.5469 Q384.6469,299.4375 384.8656,299.4375 Q385.2406,299.4375 385.475,299.7031 Q385.7094,299.9531 385.7094,300.5625 L385.7094,302.0156 Q385.7094,302.625 385.475,302.8906 Q385.2406,303.1563 384.8656,303.1563 Q384.5219,303.1563 384.3188,302.9531 Q384.1156,302.7656 384.0063,302.25 Q383.9594,301.8906 383.7719,301.7031 Q383.4438,301.3281 382.8344,301.1094 Q382.225,300.8906 381.6,300.8906 Q380.8344,300.8906 380.1938,301.2188 Q379.5688,301.5469 379.0688,302.2969 Q378.5844,303.0469 378.5844,304.0781 L378.5844,305.1719 Q378.5844,306.4063 379.475,307.2344 Q380.3656,308.0469 381.9594,308.0469 Q382.8969,308.0469 383.5531,307.7969 Q383.9438,307.6406 384.3656,307.2031 Q384.6313,306.9375 384.7719,306.8594 Q384.9281,306.7813 385.1313,306.7813 Q385.4594,306.7813 385.7094,307.0469 Q385.975,307.2969 385.975,307.6406 Q385.975,307.9844 385.6313,308.3906 Q385.1313,308.9688 384.3344,309.2969 Q383.2563,309.75 381.9594,309.75 Q380.4438,309.75 379.2406,309.125 Q378.2563,308.625 377.5688,307.5625 Q376.8813,306.4844 376.8813,305.2031 L376.8813,304.0469 Q376.8813,302.7188 377.4906,301.5781 Q378.1156,300.4219 379.2094,299.8125 Q380.3031,299.1875 381.5375,299.1875 Q382.2719,299.1875 382.9125,299.3594 Q383.5688,299.5156 384.1156,299.875 Z " fill="#000000"/><text fill="#000000" font-family="sans-serif" font-size="14" lengthAdjust="spacing" textLength="101" x="397.65" y="309.7969">EntryRepository</text><line style="stroke:#181818;stroke-width:0.5;" x1="357" x2="511" y1="320" y2="320"/><text fill="#000000" font-family="sans-serif" font-size="14" lengthAdjust="spacing" textLength="144" x="362" y="339.1074">-List &lt;Entry&gt; : toDoList</text><text fill="#000000" font-family="sans-serif" font-size="14" lengthAdjust="spacing" textLength="140" x="362" y="357.7285">-List &lt;Entry&gt; : agenda</text><line style="stroke:#181818;stroke-width:0.5;" x1="357" x2="511" y1="365.2422" y2="365.2422"/><text fill="#000000" font-family="sans-serif" font-size="14" lengthAdjust="spacing" textLength="95" x="362" y="384.3496">+getToDoList()</text><text fill="#000000" font-family="sans-serif" font-size="14" lengthAdjust="spacing" textLength="87" x="362" y="402.9707">+getAgenda()</text><text fill="#000000" font-family="sans-serif" font-size="14" lengthAdjust="spacing" textLength="138" x="362" y="421.5918">+setEntryOnAgenda()</text></g><g id="elem_GMN6"><path d="M74.5,584 L74.5,628.582 L211.5,628.582 L211.5,594 L201.5,584 L74.5,584 " fill="#FEFFDD" style="stroke:#181818;stroke-width:0.5;"/><path d="M201.5,584 L201.5,594 L211.5,594 L201.5,584 " fill="#FEFFDD" style="stroke:#181818;stroke-width:1.0;"/><text fill="#000000" font-family="sans-serif" font-size="13" lengthAdjust="spacing" textLength="116" x="80.5" y="603.0283">- used for displaying</text><text fill="#000000" font-family="sans-serif" font-size="13" lengthAdjust="spacing" textLength="72" x="80.5" y="620.3193">the to do list</text></g><!--class Repositories--><g id="elem_Repositories"><rect codeLine="43" fill="#F1F1F1" height="103.8633" id="Repositories" rx="2.5" ry="2.5" style="stroke:#181818;stroke-width:0.5;" width="194" x="524" y="84.5"/><ellipse cx="577.25" cy="100.5" fill="#ADD1B2" rx="11" ry="11" style="stroke:#181818;stroke-width:1.0;"/><path d="M580.0156,96.375 Q580.1719,96.1563 580.3594,96.0469 Q580.5469,95.9375 580.7656,95.9375 Q581.1406,95.9375 581.375,96.2031 Q581.6094,96.4531 581.6094,97.0625 L581.6094,98.5156 Q581.6094,99.125 581.375,99.3906 Q581.1406,99.6563 580.7656,99.6563 Q580.4219,99.6563 580.2188,99.4531 Q580.0156,99.2656 579.9063,98.75 Q579.8594,98.3906 579.6719,98.2031 Q579.3438,97.8281 578.7344,97.6094 Q578.125,97.3906 577.5,97.3906 Q576.7344,97.3906 576.0938,97.7188 Q575.4688,98.0469 574.9688,98.7969 Q574.4844,99.5469 574.4844,100.5781 L574.4844,101.6719 Q574.4844,102.9063 575.375,103.7344 Q576.2656,104.5469 577.8594,104.5469 Q578.7969,104.5469 579.4531,104.2969 Q579.8438,104.1406 580.2656,103.7031 Q580.5313,103.4375 580.6719,103.3594 Q580.8281,103.2813 581.0313,103.2813 Q581.3594,103.2813 581.6094,103.5469 Q581.875,103.7969 581.875,104.1406 Q581.875,104.4844 581.5313,104.8906 Q581.0313,105.4688 580.2344,105.7969 Q579.1563,106.25 577.8594,106.25 Q576.3438,106.25 575.1406,105.625 Q574.1563,105.125 573.4688,104.0625 Q572.7813,102.9844 572.7813,101.7031 L572.7813,100.5469 Q572.7813,99.2188 573.3906,98.0781 Q574.0156,96.9219 575.1094,96.3125 Q576.2031,95.6875 577.4375,95.6875 Q578.1719,95.6875 578.8125,95.8594 Q579.4688,96.0156 580.0156,96.375 Z " fill="#000000"/><text fill="#000000" font-family="sans-serif" font-size="14" lengthAdjust="spacing" textLength="79" x="597.75" y="106.2969">Repositories</text><line style="stroke:#181818;stroke-width:0.5;" x1="525" x2="717" y1="116.5" y2="116.5"/><line style="stroke:#181818;stroke-width:0.5;" x1="525" x2="717" y1="124.5" y2="124.5"/><text fill="#000000" font-family="sans-serif" font-size="14" lengthAdjust="spacing" textLength="94" x="530" y="143.6074">-Repositories()</text><text fill="#000000" font-family="sans-serif" font-size="14" lengthAdjust="spacing" textLength="182" x="530" y="162.2285">+getInstance() : Repositories</text><text fill="#000000" font-family="sans-serif" font-size="14" lengthAdjust="spacing" textLength="139" x="530" y="180.8496">+getEntryRepository()</text></g><!--class EntryMapper--><g id="elem_EntryMapper"><rect codeLine="49" fill="#F1F1F1" height="122.4844" id="EntryMapper" rx="2.5" ry="2.5" style="stroke:#181818;stroke-width:0.5;" width="232" x="247" y="545.5"/><ellipse cx="318.25" cy="561.5" fill="#ADD1B2" rx="11" ry="11" style="stroke:#181818;stroke-width:1.0;"/><path d="M321.0156,557.375 Q321.1719,557.1563 321.3594,557.0469 Q321.5469,556.9375 321.7656,556.9375 Q322.1406,556.9375 322.375,557.2031 Q322.6094,557.4531 322.6094,558.0625 L322.6094,559.5156 Q322.6094,560.125 322.375,560.3906 Q322.1406,560.6563 321.7656,560.6563 Q321.4219,560.6563 321.2188,560.4531 Q321.0156,560.2656 320.9063,559.75 Q320.8594,559.3906 320.6719,559.2031 Q320.3438,558.8281 319.7344,558.6094 Q319.125,558.3906 318.5,558.3906 Q317.7344,558.3906 317.0938,558.7188 Q316.4688,559.0469 315.9688,559.7969 Q315.4844,560.5469 315.4844,561.5781 L315.4844,562.6719 Q315.4844,563.9063 316.375,564.7344 Q317.2656,565.5469 318.8594,565.5469 Q319.7969,565.5469 320.4531,565.2969 Q320.8438,565.1406 321.2656,564.7031 Q321.5313,564.4375 321.6719,564.3594 Q321.8281,564.2813 322.0313,564.2813 Q322.3594,564.2813 322.6094,564.5469 Q322.875,564.7969 322.875,565.1406 Q322.875,565.4844 322.5313,565.8906 Q322.0313,566.4688 321.2344,566.7969 Q320.1563,567.25 318.8594,567.25 Q317.3438,567.25 316.1406,566.625 Q315.1563,566.125 314.4688,565.0625 Q313.7813,563.9844 313.7813,562.7031 L313.7813,561.5469 Q313.7813,560.2188 314.3906,559.0781 Q315.0156,557.9219 316.1094,557.3125 Q317.2031,556.6875 318.4375,556.6875 Q319.1719,556.6875 319.8125,556.8594 Q320.4688,557.0156 321.0156,557.375 Z " fill="#000000"/><text fill="#000000" font-family="sans-serif" font-size="14" lengthAdjust="spacing" textLength="81" x="338.75" y="567.2969">EntryMapper</text><line style="stroke:#181818;stroke-width:0.5;" x1="248" x2="478" y1="577.5" y2="577.5"/><text fill="#000000" font-family="sans-serif" font-size="14" lengthAdjust="spacing" textLength="98" x="253" y="596.6074">-List&lt;EntryDto&gt;</text><line style="stroke:#181818;stroke-width:0.5;" x1="248" x2="478" y1="604.1211" y2="604.1211"/><text fill="#000000" font-family="sans-serif" font-size="14" lengthAdjust="spacing" textLength="176" x="253" y="623.2285">+entryDtoToEntry(entryDto)</text><text fill="#000000" font-family="sans-serif" font-size="14" lengthAdjust="spacing" textLength="154" x="253" y="641.8496">+entryToEntryDto(entry)</text><text fill="#000000" font-family="sans-serif" font-size="14" lengthAdjust="spacing" textLength="220" x="253" y="660.4707">+entryListToEntryDtoList(entryList)</text></g><!--class EntryDto--><g id="elem_EntryDto"><rect codeLine="56" fill="#F1F1F1" height="103.8633" id="EntryDto" rx="2.5" ry="2.5" style="stroke:#181818;stroke-width:0.5;" width="189" x="268.5" y="784"/><ellipse cx="331.25" cy="800" fill="#ADD1B2" rx="11" ry="11" style="stroke:#181818;stroke-width:1.0;"/><path d="M334.0156,795.875 Q334.1719,795.6563 334.3594,795.5469 Q334.5469,795.4375 334.7656,795.4375 Q335.1406,795.4375 335.375,795.7031 Q335.6094,795.9531 335.6094,796.5625 L335.6094,798.0156 Q335.6094,798.625 335.375,798.8906 Q335.1406,799.1563 334.7656,799.1563 Q334.4219,799.1563 334.2188,798.9531 Q334.0156,798.7656 333.9063,798.25 Q333.8594,797.8906 333.6719,797.7031 Q333.3438,797.3281 332.7344,797.1094 Q332.125,796.8906 331.5,796.8906 Q330.7344,796.8906 330.0938,797.2188 Q329.4688,797.5469 328.9688,798.2969 Q328.4844,799.0469 328.4844,800.0781 L328.4844,801.1719 Q328.4844,802.4063 329.375,803.2344 Q330.2656,804.0469 331.8594,804.0469 Q332.7969,804.0469 333.4531,803.7969 Q333.8438,803.6406 334.2656,803.2031 Q334.5313,802.9375 334.6719,802.8594 Q334.8281,802.7813 335.0313,802.7813 Q335.3594,802.7813 335.6094,803.0469 Q335.875,803.2969 335.875,803.6406 Q335.875,803.9844 335.5313,804.3906 Q335.0313,804.9688 334.2344,805.2969 Q333.1563,805.75 331.8594,805.75 Q330.3438,805.75 329.1406,805.125 Q328.1563,804.625 327.4688,803.5625 Q326.7813,802.4844 326.7813,801.2031 L326.7813,800.0469 Q326.7813,798.7188 327.3906,797.5781 Q328.0156,796.4219 329.1094,795.8125 Q330.2031,795.1875 331.4375,795.1875 Q332.1719,795.1875 332.8125,795.3594 Q333.4688,795.5156 334.0156,795.875 Z " fill="#000000"/><text fill="#000000" font-family="sans-serif" font-size="14" lengthAdjust="spacing" textLength="55" x="351.75" y="805.7969">EntryDto</text><line style="stroke:#181818;stroke-width:0.5;" x1="269.5" x2="456.5" y1="816" y2="816"/><text fill="#000000" font-family="sans-serif" font-size="14" lengthAdjust="spacing" textLength="92" x="274.5" y="835.1074">+timeExpected</text><line style="stroke:#181818;stroke-width:0.5;" x1="269.5" x2="456.5" y1="842.6211" y2="842.6211"/><text fill="#000000" font-family="sans-serif" font-size="14" lengthAdjust="spacing" textLength="152" x="274.5" y="861.7285">-setStartDate(startDate)</text><text fill="#000000" font-family="sans-serif" font-size="14" lengthAdjust="spacing" textLength="177" x="274.5" y="880.3496">+setEntryAgenda(startDate)</text></g><!--class TaskDto--><g id="elem_TaskDto"><rect codeLine="62" fill="#F1F1F1" height="85.2422" id="TaskDto" rx="2.5" ry="2.5" style="stroke:#181818;stroke-width:0.5;" width="149" x="288.5" y="967"/><ellipse cx="332.3" cy="983" fill="#ADD1B2" rx="11" ry="11" style="stroke:#181818;stroke-width:1.0;"/><path d="M335.0656,978.875 Q335.2219,978.6563 335.4094,978.5469 Q335.5969,978.4375 335.8156,978.4375 Q336.1906,978.4375 336.425,978.7031 Q336.6594,978.9531 336.6594,979.5625 L336.6594,981.0156 Q336.6594,981.625 336.425,981.8906 Q336.1906,982.1563 335.8156,982.1563 Q335.4719,982.1563 335.2688,981.9531 Q335.0656,981.7656 334.9563,981.25 Q334.9094,980.8906 334.7219,980.7031 Q334.3938,980.3281 333.7844,980.1094 Q333.175,979.8906 332.55,979.8906 Q331.7844,979.8906 331.1438,980.2188 Q330.5188,980.5469 330.0188,981.2969 Q329.5344,982.0469 329.5344,983.0781 L329.5344,984.1719 Q329.5344,985.4063 330.425,986.2344 Q331.3156,987.0469 332.9094,987.0469 Q333.8469,987.0469 334.5031,986.7969 Q334.8938,986.6406 335.3156,986.2031 Q335.5813,985.9375 335.7219,985.8594 Q335.8781,985.7813 336.0813,985.7813 Q336.4094,985.7813 336.6594,986.0469 Q336.925,986.2969 336.925,986.6406 Q336.925,986.9844 336.5813,987.3906 Q336.0813,987.9688 335.2844,988.2969 Q334.2063,988.75 332.9094,988.75 Q331.3938,988.75 330.1906,988.125 Q329.2063,987.625 328.5188,986.5625 Q327.8313,985.4844 327.8313,984.2031 L327.8313,983.0469 Q327.8313,981.7188 328.4406,980.5781 Q329.0656,979.4219 330.1594,978.8125 Q331.2531,978.1875 332.4875,978.1875 Q333.2219,978.1875 333.8625,978.3594 Q334.5188,978.5156 335.0656,978.875 Z " fill="#000000"/><text fill="#000000" font-family="sans-serif" font-size="14" lengthAdjust="spacing" textLength="53" x="352.7" y="988.7969">TaskDto</text><line style="stroke:#181818;stroke-width:0.5;" x1="289.5" x2="436.5" y1="999" y2="999"/><text fill="#000000" font-family="sans-serif" font-size="14" lengthAdjust="spacing" textLength="85" x="294.5" y="1018.1074">-GreenSpace</text><text fill="#000000" font-family="sans-serif" font-size="14" lengthAdjust="spacing" textLength="137" x="294.5" y="1036.7285">-Integer timeExpected</text><line style="stroke:#181818;stroke-width:0.5;" x1="289.5" x2="436.5" y1="1044.2422" y2="1044.2422"/></g><!--class AssignEntryOnAgendaController--><g id="elem_AssignEntryOnAgendaController"><rect codeLine="73" fill="#F1F1F1" height="141.1055" id="AssignEntryOnAgendaController" rx="2.5" ry="2.5" style="stroke:#181818;stroke-width:0.5;" width="237" x="992.5" y="66"/><ellipse cx="1007.5" cy="82" fill="#ADD1B2" rx="11" ry="11" style="stroke:#181818;stroke-width:1.0;"/><path d="M1010.2656,77.875 Q1010.4219,77.6563 1010.6094,77.5469 Q1010.7969,77.4375 1011.0156,77.4375 Q1011.3906,77.4375 1011.625,77.7031 Q1011.8594,77.9531 1011.8594,78.5625 L1011.8594,80.0156 Q1011.8594,80.625 1011.625,80.8906 Q1011.3906,81.1563 1011.0156,81.1563 Q1010.6719,81.1563 1010.4688,80.9531 Q1010.2656,80.7656 1010.1563,80.25 Q1010.1094,79.8906 1009.9219,79.7031 Q1009.5938,79.3281 1008.9844,79.1094 Q1008.375,78.8906 1007.75,78.8906 Q1006.9844,78.8906 1006.3438,79.2188 Q1005.7188,79.5469 1005.2188,80.2969 Q1004.7344,81.0469 1004.7344,82.0781 L1004.7344,83.1719 Q1004.7344,84.4063 1005.625,85.2344 Q1006.5156,86.0469 1008.1094,86.0469 Q1009.0469,86.0469 1009.7031,85.7969 Q1010.0938,85.6406 1010.5156,85.2031 Q1010.7813,84.9375 1010.9219,84.8594 Q1011.0781,84.7813 1011.2813,84.7813 Q1011.6094,84.7813 1011.8594,85.0469 Q1012.125,85.2969 1012.125,85.6406 Q1012.125,85.9844 1011.7813,86.3906 Q1011.2813,86.9688 1010.4844,87.2969 Q1009.4063,87.75 1008.1094,87.75 Q1006.5938,87.75 1005.3906,87.125 Q1004.4063,86.625 1003.7188,85.5625 Q1003.0313,84.4844 1003.0313,83.2031 L1003.0313,82.0469 Q1003.0313,80.7188 1003.6406,79.5781 Q1004.2656,78.4219 1005.3594,77.8125 Q1006.4531,77.1875 1007.6875,77.1875 Q1008.4219,77.1875 1009.0625,77.3594 Q1009.7188,77.5156 1010.2656,77.875 Z " fill="#000000"/><text fill="#000000" font-family="sans-serif" font-size="14" lengthAdjust="spacing" textLength="205" x="1021.5" y="87.7969">AssignEntryOnAgendaController</text><line style="stroke:#181818;stroke-width:0.5;" x1="993.5" x2="1228.5" y1="98" y2="98"/><text fill="#000000" font-family="sans-serif" font-size="14" lengthAdjust="spacing" textLength="173" x="998.5" y="117.1074">-EntryRepository repository</text><line style="stroke:#181818;stroke-width:0.5;" x1="993.5" x2="1228.5" y1="124.6211" y2="124.6211"/><text fill="#000000" font-family="sans-serif" font-size="14" lengthAdjust="spacing" textLength="223" x="998.5" y="143.7285">+AssignEntryOnAgendaController()</text><text fill="#000000" font-family="sans-serif" font-size="14" lengthAdjust="spacing" textLength="95" x="998.5" y="162.3496">+getToDoList()</text><text fill="#000000" font-family="sans-serif" font-size="14" lengthAdjust="spacing" textLength="160" x="998.5" y="180.9707">+assignEntryOnAgenda()</text><text fill="#000000" font-family="sans-serif" font-size="14" lengthAdjust="spacing" textLength="149" x="998.5" y="199.5918">-getGSMFromSession()</text></g><g id="elem_GMN15"><path d="M1264.5,123 L1264.5,132.5 L1229.55,136.5 L1264.5,140.5 L1264.5,150.291 A0,0 0 0 0 1264.5,150.291 L1511.5,150.291 A0,0 0 0 0 1511.5,150.291 L1511.5,133 L1501.5,123 L1264.5,123 A0,0 0 0 0 1264.5,123 " fill="#FEFFDD" style="stroke:#181818;stroke-width:0.5;"/><path d="M1501.5,123 L1501.5,133 L1511.5,133 L1501.5,123 " fill="#FEFFDD" style="stroke:#181818;stroke-width:0.5;"/><text fill="#000000" font-family="sans-serif" font-size="13" lengthAdjust="spacing" textLength="226" x="1270.5" y="142.0283">- entry is achieved with entry repository</text></g><!--class AssignEntryOnAgendaUI--><g id="elem_AssignEntryOnAgendaUI"><rect codeLine="92" fill="#F1F1F1" height="48" id="AssignEntryOnAgendaUI" rx="2.5" ry="2.5" style="stroke:#181818;stroke-width:0.5;" width="187" x="1568.5" y="112.5"/><ellipse cx="1583.5" cy="128.5" fill="#ADD1B2" rx="11" ry="11" style="stroke:#181818;stroke-width:1.0;"/><path d="M1586.2656,124.375 Q1586.4219,124.1563 1586.6094,124.0469 Q1586.7969,123.9375 1587.0156,123.9375 Q1587.3906,123.9375 1587.625,124.2031 Q1587.8594,124.4531 1587.8594,125.0625 L1587.8594,126.5156 Q1587.8594,127.125 1587.625,127.3906 Q1587.3906,127.6563 1587.0156,127.6563 Q1586.6719,127.6563 1586.4688,127.4531 Q1586.2656,127.2656 1586.1563,126.75 Q1586.1094,126.3906 1585.9219,126.2031 Q1585.5938,125.8281 1584.9844,125.6094 Q1584.375,125.3906 1583.75,125.3906 Q1582.9844,125.3906 1582.3438,125.7188 Q1581.7188,126.0469 1581.2188,126.7969 Q1580.7344,127.5469 1580.7344,128.5781 L1580.7344,129.6719 Q1580.7344,130.9063 1581.625,131.7344 Q1582.5156,132.5469 1584.1094,132.5469 Q1585.0469,132.5469 1585.7031,132.2969 Q1586.0938,132.1406 1586.5156,131.7031 Q1586.7813,131.4375 1586.9219,131.3594 Q1587.0781,131.2813 1587.2813,131.2813 Q1587.6094,131.2813 1587.8594,131.5469 Q1588.125,131.7969 1588.125,132.1406 Q1588.125,132.4844 1587.7813,132.8906 Q1587.2813,133.4688 1586.4844,133.7969 Q1585.4063,134.25 1584.1094,134.25 Q1582.5938,134.25 1581.3906,133.625 Q1580.4063,133.125 1579.7188,132.0625 Q1579.0313,130.9844 1579.0313,129.7031 L1579.0313,128.5469 Q1579.0313,127.2188 1579.6406,126.0781 Q1580.2656,124.9219 1581.3594,124.3125 Q1582.4531,123.6875 1583.6875,123.6875 Q1584.4219,123.6875 1585.0625,123.8594 Q1585.7188,124.0156 1586.2656,124.375 Z " fill="#000000"/><text fill="#000000" font-family="sans-serif" font-size="14" lengthAdjust="spacing" textLength="155" x="1597.5" y="134.2969">AssignEntryOnAgendaUI</text><line style="stroke:#181818;stroke-width:0.5;" x1="1569.5" x2="1754.5" y1="144.5" y2="144.5"/><line style="stroke:#181818;stroke-width:0.5;" x1="1569.5" x2="1754.5" y1="152.5" y2="152.5"/></g><!--class GSM--><g id="elem_GSM"><rect codeLine="86" fill="#F1F1F1" height="48" id="GSM" rx="2.5" ry="2.5" style="stroke:#181818;stroke-width:0.5;" width="63" x="968.5" y="812"/><ellipse cx="983.5" cy="828" fill="#ADD1B2" rx="11" ry="11" style="stroke:#181818;stroke-width:1.0;"/><path d="M986.2656,823.875 Q986.4219,823.6563 986.6094,823.5469 Q986.7969,823.4375 987.0156,823.4375 Q987.3906,823.4375 987.625,823.7031 Q987.8594,823.9531 987.8594,824.5625 L987.8594,826.0156 Q987.8594,826.625 987.625,826.8906 Q987.3906,827.1563 987.0156,827.1563 Q986.6719,827.1563 986.4688,826.9531 Q986.2656,826.7656 986.1563,826.25 Q986.1094,825.8906 985.9219,825.7031 Q985.5938,825.3281 984.9844,825.1094 Q984.375,824.8906 983.75,824.8906 Q982.9844,824.8906 982.3438,825.2188 Q981.7188,825.5469 981.2188,826.2969 Q980.7344,827.0469 980.7344,828.0781 L980.7344,829.1719 Q980.7344,830.4063 981.625,831.2344 Q982.5156,832.0469 984.1094,832.0469 Q985.0469,832.0469 985.7031,831.7969 Q986.0938,831.6406 986.5156,831.2031 Q986.7813,830.9375 986.9219,830.8594 Q987.0781,830.7813 987.2813,830.7813 Q987.6094,830.7813 987.8594,831.0469 Q988.125,831.2969 988.125,831.6406 Q988.125,831.9844 987.7813,832.3906 Q987.2813,832.9688 986.4844,833.2969 Q985.4063,833.75 984.1094,833.75 Q982.5938,833.75 981.3906,833.125 Q980.4063,832.625 979.7188,831.5625 Q979.0313,830.4844 979.0313,829.2031 L979.0313,828.0469 Q979.0313,826.7188 979.6406,825.5781 Q980.2656,824.4219 981.3594,823.8125 Q982.4531,823.1875 983.6875,823.1875 Q984.4219,823.1875 985.0625,823.3594 Q985.7188,823.5156 986.2656,823.875 Z " fill="#000000"/><text fill="#000000" font-family="sans-serif" font-size="14" lengthAdjust="spacing" textLength="31" x="997.5" y="833.7969">GSM</text><line style="stroke:#181818;stroke-width:0.5;" x1="969.5" x2="1030.5" y1="844" y2="844"/><line style="stroke:#181818;stroke-width:0.5;" x1="969.5" x2="1030.5" y1="852" y2="852"/></g><!--class UserSession--><g id="elem_UserSession"><rect fill="#F1F1F1" height="48" id="UserSession" rx="2.5" ry="2.5" style="stroke:#181818;stroke-width:0.5;" width="111" x="1011.5" y="334.5"/><ellipse cx="1026.5" cy="350.5" fill="#ADD1B2" rx="11" ry="11" style="stroke:#181818;stroke-width:1.0;"/><path d="M1029.2656,346.375 Q1029.4219,346.1563 1029.6094,346.0469 Q1029.7969,345.9375 1030.0156,345.9375 Q1030.3906,345.9375 1030.625,346.2031 Q1030.8594,346.4531 1030.8594,347.0625 L1030.8594,348.5156 Q1030.8594,349.125 1030.625,349.3906 Q1030.3906,349.6563 1030.0156,349.6563 Q1029.6719,349.6563 1029.4688,349.4531 Q1029.2656,349.2656 1029.1563,348.75 Q1029.1094,348.3906 1028.9219,348.2031 Q1028.5938,347.8281 1027.9844,347.6094 Q1027.375,347.3906 1026.75,347.3906 Q1025.9844,347.3906 1025.3438,347.7188 Q1024.7188,348.0469 1024.2188,348.7969 Q1023.7344,349.5469 1023.7344,350.5781 L1023.7344,351.6719 Q1023.7344,352.9063 1024.625,353.7344 Q1025.5156,354.5469 1027.1094,354.5469 Q1028.0469,354.5469 1028.7031,354.2969 Q1029.0938,354.1406 1029.5156,353.7031 Q1029.7813,353.4375 1029.9219,353.3594 Q1030.0781,353.2813 1030.2813,353.2813 Q1030.6094,353.2813 1030.8594,353.5469 Q1031.125,353.7969 1031.125,354.1406 Q1031.125,354.4844 1030.7813,354.8906 Q1030.2813,355.4688 1029.4844,355.7969 Q1028.4063,356.25 1027.1094,356.25 Q1025.5938,356.25 1024.3906,355.625 Q1023.4063,355.125 1022.7188,354.0625 Q1022.0313,352.9844 1022.0313,351.7031 L1022.0313,350.5469 Q1022.0313,349.2188 1022.6406,348.0781 Q1023.2656,346.9219 1024.3594,346.3125 Q1025.4531,345.6875 1026.6875,345.6875 Q1027.4219,345.6875 1028.0625,345.8594 Q1028.7188,346.0156 1029.2656,346.375 Z " fill="#000000"/><text fill="#000000" font-family="sans-serif" font-size="14" lengthAdjust="spacing" textLength="79" x="1040.5" y="356.2969">UserSession</text><line style="stroke:#181818;stroke-width:0.5;" x1="1012.5" x2="1121.5" y1="366.5" y2="366.5"/><line style="stroke:#181818;stroke-width:0.5;" x1="1012.5" x2="1121.5" y1="374.5" y2="374.5"/></g><!--link EntryRepository to GMN6--><g id="link_EntryRepository_GMN6"><path d="M355.71,416.49 C298.18,458.37 230,508 230,508 C230,508 187.94,555.14 162.31,583.86 " fill="none" id="EntryRepository-GMN6" style="stroke:#181818;stroke-width:1.0;stroke-dasharray:7.0,7.0;"/></g><!--link Repositories to Repositories--><g id="link_Repositories_Repositories"><path codeLine="101" d="M718.28,116.24 C738.48,118.37 753,125.12 753,136.5 C753,147.88 744.4469,154.0008 724.2469,156.1308 " fill="none" id="Repositories-to-Repositories" style="stroke:#181818;stroke-width:1.0;"/><polygon fill="#181818" points="718.28,156.76,727.6498,159.7942,723.2524,156.2357,726.8109,151.8383,718.28,156.76" style="stroke:#181818;stroke-width:1.0;"/><text fill="#000000" font-family="sans-serif" font-size="13" lengthAdjust="spacing" textLength="49" x="759" y="142.0283">instance</text></g><!--link AssignEntryOnAgendaUI to AssignEntryOnAgendaController--><g id="link_AssignEntryOnAgendaUI_AssignEntryOnAgendaController"><path codeLine="103" d="M1633.91,112.29 C1594.62,78.42 1528,21 1528,21 C1528,21 1510.5,6 1510.5,6 C1510.5,6 1264.5,6 1264.5,6 C1264.5,6 1234.7813,31.2637 1198.6113,62.0137 " fill="none" id="AssignEntryOnAgendaUI-to-AssignEntryOnAgendaController" style="stroke:#181818;stroke-width:1.0;stroke-dasharray:7.0,7.0;"/><polygon fill="#181818" points="1194.04,65.9,1203.4878,63.1181,1197.8494,62.6614,1198.3061,57.023,1194.04,65.9" style="stroke:#181818;stroke-width:1.0;"/></g><!--link AssignEntryOnAgendaController to Repositories--><g id="link_AssignEntryOnAgendaController_Repositories"><path codeLine="105" d="M992.45,136.5 C908.37,136.5 802.92,136.5 724.1,136.5 " fill="none" id="AssignEntryOnAgendaController-to-Repositories" style="stroke:#181818;stroke-width:1.0;stroke-dasharray:7.0,7.0;"/><polygon fill="#181818" points="718.1,136.5,727.1,140.5,723.1,136.5,727.1,132.5,718.1,136.5" style="stroke:#181818;stroke-width:1.0;"/><text fill="#000000" font-family="sans-serif" font-size="13" lengthAdjust="spacing" textLength="67" x="821.75" y="129.5283">repositories</text></g><!--link Repositories to EntryRepository--><g id="link_Repositories_EntryRepository"><path codeLine="106" d="M577.63,188.53 C552.6,217.97 524.6462,250.8586 497.3062,283.0186 " fill="none" id="Repositories-to-EntryRepository" style="stroke:#181818;stroke-width:1.0;"/><polygon fill="#181818" points="493.42,287.59,502.2969,283.3238,496.6585,283.7805,496.2018,278.1422,493.42,287.59" style="stroke:#181818;stroke-width:1.0;"/><text fill="#000000" font-family="sans-serif" font-size="13" lengthAdjust="spacing" textLength="7" x="564.6248" y="210.3411">1</text><text fill="#000000" font-family="sans-serif" font-size="13" lengthAdjust="spacing" textLength="7" x="491.9246" y="276.8105">1</text></g><!--link EntryRepository to EntryMapper--><g id="link_EntryRepository_EntryMapper"><path codeLine="108" d="M413.94,429.01 C403.36,465.66 392.1741,504.4254 382.0241,539.5854 " fill="none" id="EntryRepository-to-EntryMapper" style="stroke:#181818;stroke-width:1.0;stroke-dasharray:7.0,7.0;"/><polygon fill="#181818" points="380.36,545.35,386.6993,537.8125,381.7468,540.5462,379.0131,535.5937,380.36,545.35" style="stroke:#181818;stroke-width:1.0;"/></g><!--link EntryMapper to EntryDto--><g id="link_EntryMapper_EntryDto"><path codeLine="110" d="M363,667.57 C363,703.77 363,743.39 363,777.86 " fill="none" id="EntryMapper-to-EntryDto" style="stroke:#181818;stroke-width:1.0;"/><polygon fill="#181818" points="363,783.86,367,774.86,363,778.86,359,774.86,363,783.86" style="stroke:#181818;stroke-width:1.0;"/></g><!--link EntryDto to TaskDto--><g id="link_EntryDto_TaskDto"><path codeLine="112" d="M363,888.46 C363,913.52 363,943.26 363,966.86 " fill="none" id="EntryDto-TaskDto" style="stroke:#181818;stroke-width:1.0;"/><text fill="#000000" font-family="sans-serif" font-size="13" lengthAdjust="spacing" textLength="46" x="364" y="933.0283">extends</text></g><!--link AssignEntryOnAgendaController to EntryRepository--><g id="link_AssignEntryOnAgendaController_EntryRepository"><path codeLine="115" d="M992.53,207.16 C969.32,220.81 952,231 952,231 C952,231 767,239 767,239 C767,239 616.1527,292.6783 517.7227,327.7083 " fill="none" id="AssignEntryOnAgendaController-to-EntryRepository" style="stroke:#181818;stroke-width:1.0;stroke-dasharray:7.0,7.0;"/><polygon fill="#181818" points="512.07,329.72,521.8902,330.4709,516.7806,328.0436,519.2079,322.934,512.07,329.72" style="stroke:#181818;stroke-width:1.0;"/><text fill="#000000" font-family="sans-serif" font-size="13" lengthAdjust="spacing" textLength="93" x="768" y="254.0283">EntryRepository</text></g><!--link AssignEntryOnAgendaController to EntryMapper--><g id="link_AssignEntryOnAgendaController_EntryMapper"><path codeLine="116" d="M1021.84,207.02 C971.27,246.46 918,288 918,288 C918,288 675,478 675,478 C675,478 497,508 497,508 C497,508 478.0008,521.8188 450.4308,541.8888 " fill="none" id="AssignEntryOnAgendaController-to-EntryMapper" style="stroke:#181818;stroke-width:1.0;stroke-dasharray:7.0,7.0;"/><polygon fill="#181818" points="445.58,545.42,455.2104,543.357,449.6223,542.4773,450.5021,536.8893,445.58,545.42" style="stroke:#181818;stroke-width:1.0;"/><text fill="#000000" font-family="sans-serif" font-size="13" lengthAdjust="spacing" textLength="74" x="919" y="364.0283">EntryMapper</text></g><!--link AssignEntryOnAgendaController to UserSession--><g id="link_AssignEntryOnAgendaController_UserSession"><path codeLine="118" d="M1097.08,207.11 C1088.34,250.79 1078.8056,298.4563 1072.8156,328.4363 " fill="none" id="AssignEntryOnAgendaController-to-UserSession" style="stroke:#181818;stroke-width:1.0;stroke-dasharray:7.0,7.0;"/><polygon fill="#181818" points="1071.64,334.32,1077.3258,326.2781,1072.6196,329.4169,1069.4809,324.7107,1071.64,334.32" style="stroke:#181818;stroke-width:1.0;"/></g><!--link UserSession to GSM--><g id="link_UserSession_GSM"><path codeLine="119" d="M1063.72,382.76 C1052.35,463.49 1015.4774,725.1787 1004.1074,805.8487 " fill="none" id="UserSession-to-GSM" style="stroke:#181818;stroke-width:1.0;"/><polygon fill="#181818" points="1003.27,811.79,1008.4869,803.4363,1003.9678,806.8389,1000.5652,802.3198,1003.27,811.79" style="stroke:#181818;stroke-width:1.0;"/><text fill="#000000" font-family="sans-serif" font-size="13" lengthAdjust="spacing" textLength="7" x="1055.1521" y="404.3977">1</text><text fill="#000000" font-family="sans-serif" font-size="13" lengthAdjust="spacing" textLength="7" x="996.2139" y="800.8807">1</text></g><!--link EntryRepository to Entry--><g id="link_EntryRepository_Entry"><path codeLine="120" d="M512.15,406.49 C584.52,449.99 681,508 681,508 C681,508 706.4964,523.5377 740.9564,544.5377 " fill="none" id="EntryRepository-to-Entry" style="stroke:#181818;stroke-width:1.0;"/><polygon fill="#181818" points="746.08,547.66,740.4762,539.5608,741.8103,545.0581,736.3131,546.3922,746.08,547.66" style="stroke:#181818;stroke-width:1.0;"/><text fill="#000000" font-family="sans-serif" font-size="13" lengthAdjust="spacing" textLength="38" x="628" y="474.0283">entry's</text><text fill="#000000" font-family="sans-serif" font-size="13" lengthAdjust="spacing" textLength="7" x="519.9323" y="407.2911">1</text><text fill="#000000" font-family="sans-serif" font-size="13" lengthAdjust="spacing" textLength="5" x="733.6213" y="539.5449">*</text></g><!--link EntryRepository to GSM--><g id="link_EntryRepository_GSM"><path codeLine="121" d="M356,386.56 C232.55,429.4 6,508 6,508 C6,508 6,705 6,705 C6,705 952,784 952,784 C952,784 961.4388,794.0198 974.1388,807.5198 " fill="none" id="EntryRepository-to-GSM" style="stroke:#181818;stroke-width:1.0;"/><polygon fill="#181818" points="978.25,811.89,974.9967,802.594,974.824,808.2482,969.1698,808.0756,978.25,811.89" style="stroke:#181818;stroke-width:1.0;"/><text fill="#000000" font-family="sans-serif" font-size="13" lengthAdjust="spacing" textLength="49" x="7" y="612.0283">employs</text><text fill="#000000" font-family="sans-serif" font-size="13" lengthAdjust="spacing" textLength="5" x="967.0359" y="800.5993">*</text></g><!--link Entry to GSM--><g id="link_Entry_GSM"><path codeLine="122" d="M909.35,705.3 C936.79,744.56 962.6024,781.4924 980.2324,806.7124 " fill="none" id="Entry-to-GSM" style="stroke:#181818;stroke-width:1.0;"/><polygon fill="#181818" points="983.67,811.63,981.7919,801.9619,980.8053,807.532,975.2352,806.5454,983.67,811.63" style="stroke:#181818;stroke-width:1.0;"/><text fill="#000000" font-family="sans-serif" font-size="13" lengthAdjust="spacing" textLength="49" x="940" y="750.0283">employs</text><text fill="#000000" font-family="sans-serif" font-size="13" lengthAdjust="spacing" textLength="5" x="974.0802" y="800.6817">*</text></g><!--reverse link Task to Entry--><g id="link_Task_Entry"><path codeLine="123" d="M669.59,606.5 C695.56,606.5 719.06,606.5 746.45,606.5 " fill="none" id="Task-backto-Entry" style="stroke:#181818;stroke-width:1.0;"/><polygon fill="#181818" points="663.59,606.5,672.59,610.5,668.59,606.5,672.59,602.5,663.59,606.5" style="stroke:#181818;stroke-width:1.0;"/><text fill="#000000" font-family="sans-serif" font-size="13" lengthAdjust="spacing" textLength="46" x="682" y="599.5283">extends</text><text fill="#000000" font-family="sans-serif" font-size="13" lengthAdjust="spacing" textLength="7" x="671.643" y="602.6543">1</text><text fill="#000000" font-family="sans-serif" font-size="13" lengthAdjust="spacing" textLength="7" x="731.6366" y="602.8638">1</text></g><!--SRC=[hLHDRzim3BthLn3P8ScA1DirA08KIzS5M35WINjN7SOMQak6nApDYlxtqOfiotQ_3ZC2nE9xeXwfHu_TlTAbjBA0mcYJPDOK26GFA5gabCczJ753nnp1Oa9IftbCS9dScGUbKzZBtCL8hZJIiKGeJNwi5cBy0cWi6H7jIdBft0MHLNS7mdLYz4RzHVWYn3Z7FG4Pi2hD27QgagEC5YA8XD7A55Bf4NnQ-UT929yEBZNP8pm9u6S6FvMZyrlCL9AZMuRW5cKHNZSaBQqaORp-OGwsNTF1-SNPAVLa6Y27rEoUkFfj6hYCUlf5YdedO_ovLhgLxhxMUMKHzOQBguMiDM6A5aWLUFbOSlcuQxVwrB-nD4wHwPKBvnvTme8Rk39Lw6LKUcaY24wHje4-cRQneBzVrY_T0Cz26qAuCqIc0BFlYmk77npkO6yiNwOhStba6tc4CgmkUcVO9woKaqALJzIbDeaKkgREE1YhNMjkj4vmCkNwOb9BwQcRJ7jTlPPbYRRZ7nzVaLc6B1ZMMtDoHBsUndW0ENp2Es2LjYNudZVnlY0cF8Mz7JFyHnVw8qu9-qPypOVyYuRnc-5JJ9wZZGRobF_2EPNgZcbQTdEXVKFRhdtEtauJMs1WOZdSsSmmywysrz_vQxX1fXdT-ldqvM4xltbooECl3vG3cMGA_x3J7nHb8HpLqhgxwJ-VprtejlDc_P4stgpzHh-LdywWp9RTmLc02gCXnCkfvijtAXLlt-HySAADvw-3ZRwEOCOIg__-rqBqhG1pJXtFPg2S5ZvFFIS1uJSEryvc9VX8hDQ9TskOBmTEN0mKVZ17qBVeIdz_yur36zmeelTEqzWqWpur-EVGrAhmwd_i1joQLvcFMKMPcsDWlO9LpVH7dC_QQujR-my0]--></g></svg>