<?xml version="1.0" encoding="us-ascii" standalone="no"?><svg xmlns="http://www.w3.org/2000/svg" xmlns:xlink="http://www.w3.org/1999/xlink" contentStyleType="text/css" height="1074px" preserveAspectRatio="none" style="width:1511px;height:1074px;background:#FFFFFF;" version="1.1" viewBox="0 0 1511 1074" width="1511px" zoomAndPan="magnify"><defs/><g><!--cluster Domain--><g id="cluster_Domain"><rect fill="#DDDDDD" height="1020.5" rx="2.5" ry="2.5" style="stroke:#000000;stroke-width:1.5;" width="678" x="7" y="47.5"/><text fill="#000000" font-family="sans-serif" font-size="14" font-weight="bold" lengthAdjust="spacing" textLength="52" x="320" y="64.6074">Domain</text></g><!--cluster Controller--><g id="cluster_Controller"><rect fill="#DDDDDD" height="194" rx="2.5" ry="2.5" style="stroke:#000000;stroke-width:1.5;" width="552" x="709" y="29"/><text fill="#000000" font-family="sans-serif" font-size="14" font-weight="bold" lengthAdjust="spacing" textLength="71" x="949.5" y="46.1074">Controller</text></g><!--cluster UI--><g id="cluster_UI"><rect fill="#DDDDDD" height="101" rx="2.5" ry="2.5" style="stroke:#000000;stroke-width:1.5;" width="220" x="1285" y="75.5"/><text fill="#000000" font-family="sans-serif" font-size="14" font-weight="bold" lengthAdjust="spacing" textLength="14" x="1388" y="92.6074">UI</text></g><!--class Entry--><g id="elem_Entry"><rect codeLine="13" fill="#F1F1F1" height="196.9688" id="Entry" rx="2.5" ry="2.5" style="stroke:#181818;stroke-width:0.5;" width="189" x="479.5" y="691"/><ellipse cx="553.25" cy="707" fill="#ADD1B2" rx="11" ry="11" style="stroke:#181818;stroke-width:1.0;"/><path d="M556.0156,702.875 Q556.1719,702.6563 556.3594,702.5469 Q556.5469,702.4375 556.7656,702.4375 Q557.1406,702.4375 557.375,702.7031 Q557.6094,702.9531 557.6094,703.5625 L557.6094,705.0156 Q557.6094,705.625 557.375,705.8906 Q557.1406,706.1563 556.7656,706.1563 Q556.4219,706.1563 556.2188,705.9531 Q556.0156,705.7656 555.9063,705.25 Q555.8594,704.8906 555.6719,704.7031 Q555.3438,704.3281 554.7344,704.1094 Q554.125,703.8906 553.5,703.8906 Q552.7344,703.8906 552.0938,704.2188 Q551.4688,704.5469 550.9688,705.2969 Q550.4844,706.0469 550.4844,707.0781 L550.4844,708.1719 Q550.4844,709.4063 551.375,710.2344 Q552.2656,711.0469 553.8594,711.0469 Q554.7969,711.0469 555.4531,710.7969 Q555.8438,710.6406 556.2656,710.2031 Q556.5313,709.9375 556.6719,709.8594 Q556.8281,709.7813 557.0313,709.7813 Q557.3594,709.7813 557.6094,710.0469 Q557.875,710.2969 557.875,710.6406 Q557.875,710.9844 557.5313,711.3906 Q557.0313,711.9688 556.2344,712.2969 Q555.1563,712.75 553.8594,712.75 Q552.3438,712.75 551.1406,712.125 Q550.1563,711.625 549.4688,710.5625 Q548.7813,709.4844 548.7813,708.2031 L548.7813,707.0469 Q548.7813,705.7188 549.3906,704.5781 Q550.0156,703.4219 551.1094,702.8125 Q552.2031,702.1875 553.4375,702.1875 Q554.1719,702.1875 554.8125,702.3594 Q555.4688,702.5156 556.0156,702.875 Z " fill="#000000"/><text fill="#000000" font-family="sans-serif" font-size="14" lengthAdjust="spacing" textLength="33" x="573.75" y="712.7969">Entry</text><line style="stroke:#181818;stroke-width:0.5;" x1="480.5" x2="667.5" y1="723" y2="723"/><text fill="#000000" font-family="sans-serif" font-size="14" lengthAdjust="spacing" textLength="96" x="485.5" y="742.1074">-List&lt;Vehicles&gt;</text><text fill="#000000" font-family="sans-serif" font-size="14" lengthAdjust="spacing" textLength="41" x="485.5" y="760.7285">-Team</text><text fill="#000000" font-family="sans-serif" font-size="14" lengthAdjust="spacing" textLength="65" x="485.5" y="779.3496">-StartDate</text><text fill="#000000" font-family="sans-serif" font-size="14" lengthAdjust="spacing" textLength="65" x="485.5" y="797.9707">-StartHour</text><text fill="#000000" font-family="sans-serif" font-size="14" lengthAdjust="spacing" textLength="45" x="485.5" y="816.5918">-Status</text><line style="stroke:#181818;stroke-width:0.5;" x1="480.5" x2="667.5" y1="824.1055" y2="824.1055"/><text fill="#000000" font-family="sans-serif" font-size="14" lengthAdjust="spacing" textLength="51" x="485.5" y="843.2129">+Entry()</text><text fill="#000000" font-family="sans-serif" font-size="14" lengthAdjust="spacing" textLength="152" x="485.5" y="861.834">-setStartDate(startDate)</text><text fill="#000000" font-family="sans-serif" font-size="14" lengthAdjust="spacing" textLength="177" x="485.5" y="880.4551">+setEntryAgenda(startDate)</text></g><!--class Task--><g id="elem_Task"><rect codeLine="24" fill="#F1F1F1" height="85.2422" id="Task" rx="2.5" ry="2.5" style="stroke:#181818;stroke-width:0.5;" width="149" x="247.5" y="747"/><ellipse cx="302.25" cy="763" fill="#ADD1B2" rx="11" ry="11" style="stroke:#181818;stroke-width:1.0;"/><path d="M305.0156,758.875 Q305.1719,758.6563 305.3594,758.5469 Q305.5469,758.4375 305.7656,758.4375 Q306.1406,758.4375 306.375,758.7031 Q306.6094,758.9531 306.6094,759.5625 L306.6094,761.0156 Q306.6094,761.625 306.375,761.8906 Q306.1406,762.1563 305.7656,762.1563 Q305.4219,762.1563 305.2188,761.9531 Q305.0156,761.7656 304.9063,761.25 Q304.8594,760.8906 304.6719,760.7031 Q304.3438,760.3281 303.7344,760.1094 Q303.125,759.8906 302.5,759.8906 Q301.7344,759.8906 301.0938,760.2188 Q300.4688,760.5469 299.9688,761.2969 Q299.4844,762.0469 299.4844,763.0781 L299.4844,764.1719 Q299.4844,765.4063 300.375,766.2344 Q301.2656,767.0469 302.8594,767.0469 Q303.7969,767.0469 304.4531,766.7969 Q304.8438,766.6406 305.2656,766.2031 Q305.5313,765.9375 305.6719,765.8594 Q305.8281,765.7813 306.0313,765.7813 Q306.3594,765.7813 306.6094,766.0469 Q306.875,766.2969 306.875,766.6406 Q306.875,766.9844 306.5313,767.3906 Q306.0313,767.9688 305.2344,768.2969 Q304.1563,768.75 302.8594,768.75 Q301.3438,768.75 300.1406,768.125 Q299.1563,767.625 298.4688,766.5625 Q297.7813,765.4844 297.7813,764.2031 L297.7813,763.0469 Q297.7813,761.7188 298.3906,760.5781 Q299.0156,759.4219 300.1094,758.8125 Q301.2031,758.1875 302.4375,758.1875 Q303.1719,758.1875 303.8125,758.3594 Q304.4688,758.5156 305.0156,758.875 Z " fill="#000000"/><text fill="#000000" font-family="sans-serif" font-size="14" lengthAdjust="spacing" textLength="31" x="322.75" y="768.7969">Task</text><line style="stroke:#181818;stroke-width:0.5;" x1="248.5" x2="395.5" y1="779" y2="779"/><text fill="#000000" font-family="sans-serif" font-size="14" lengthAdjust="spacing" textLength="85" x="253.5" y="798.1074">-GreenSpace</text><text fill="#000000" font-family="sans-serif" font-size="14" lengthAdjust="spacing" textLength="137" x="253.5" y="816.7285">-Integer timeExpected</text><line style="stroke:#181818;stroke-width:0.5;" x1="248.5" x2="395.5" y1="824.2422" y2="824.2422"/></g><!--class EntryRepository--><g id="elem_EntryRepository"><rect codeLine="29" fill="#F1F1F1" height="141.1055" id="EntryRepository" rx="2.5" ry="2.5" style="stroke:#181818;stroke-width:0.5;" width="156" x="366" y="288"/><ellipse cx="391.35" cy="304" fill="#ADD1B2" rx="11" ry="11" style="stroke:#181818;stroke-width:1.0;"/><path d="M394.1156,299.875 Q394.2719,299.6563 394.4594,299.5469 Q394.6469,299.4375 394.8656,299.4375 Q395.2406,299.4375 395.475,299.7031 Q395.7094,299.9531 395.7094,300.5625 L395.7094,302.0156 Q395.7094,302.625 395.475,302.8906 Q395.2406,303.1563 394.8656,303.1563 Q394.5219,303.1563 394.3188,302.9531 Q394.1156,302.7656 394.0063,302.25 Q393.9594,301.8906 393.7719,301.7031 Q393.4438,301.3281 392.8344,301.1094 Q392.225,300.8906 391.6,300.8906 Q390.8344,300.8906 390.1938,301.2188 Q389.5688,301.5469 389.0688,302.2969 Q388.5844,303.0469 388.5844,304.0781 L388.5844,305.1719 Q388.5844,306.4063 389.475,307.2344 Q390.3656,308.0469 391.9594,308.0469 Q392.8969,308.0469 393.5531,307.7969 Q393.9438,307.6406 394.3656,307.2031 Q394.6313,306.9375 394.7719,306.8594 Q394.9281,306.7813 395.1313,306.7813 Q395.4594,306.7813 395.7094,307.0469 Q395.975,307.2969 395.975,307.6406 Q395.975,307.9844 395.6313,308.3906 Q395.1313,308.9688 394.3344,309.2969 Q393.2563,309.75 391.9594,309.75 Q390.4438,309.75 389.2406,309.125 Q388.2563,308.625 387.5688,307.5625 Q386.8813,306.4844 386.8813,305.2031 L386.8813,304.0469 Q386.8813,302.7188 387.4906,301.5781 Q388.1156,300.4219 389.2094,299.8125 Q390.3031,299.1875 391.5375,299.1875 Q392.2719,299.1875 392.9125,299.3594 Q393.5688,299.5156 394.1156,299.875 Z " fill="#000000"/><text fill="#000000" font-family="sans-serif" font-size="14" lengthAdjust="spacing" textLength="101" x="407.65" y="309.7969">EntryRepository</text><line style="stroke:#181818;stroke-width:0.5;" x1="367" x2="521" y1="320" y2="320"/><text fill="#000000" font-family="sans-serif" font-size="14" lengthAdjust="spacing" textLength="144" x="372" y="339.1074">-List &lt;Entry&gt; : toDoList</text><text fill="#000000" font-family="sans-serif" font-size="14" lengthAdjust="spacing" textLength="140" x="372" y="357.7285">-List &lt;Entry&gt; : agenda</text><line style="stroke:#181818;stroke-width:0.5;" x1="367" x2="521" y1="365.2422" y2="365.2422"/><text fill="#000000" font-family="sans-serif" font-size="14" lengthAdjust="spacing" textLength="95" x="372" y="384.3496">+getToDoList()</text><text fill="#000000" font-family="sans-serif" font-size="14" lengthAdjust="spacing" textLength="87" x="372" y="402.9707">+getAgenda()</text><text fill="#000000" font-family="sans-serif" font-size="14" lengthAdjust="spacing" textLength="138" x="372" y="421.5918">+setEntryOnAgenda()</text></g><g id="elem_GMN6"><path d="M154.5,528.5 L154.5,573.082 A0,0 0 0 0 154.5,573.082 L291.5,573.082 A0,0 0 0 0 291.5,573.082 L291.5,538.5 L281.5,528.5 L251.99,528.5 L365.77,426.93 L243.99,528.5 L154.5,528.5 A0,0 0 0 0 154.5,528.5 " fill="#FEFFDD" style="stroke:#181818;stroke-width:0.5;"/><path d="M281.5,528.5 L281.5,538.5 L291.5,538.5 L281.5,528.5 " fill="#FEFFDD" style="stroke:#181818;stroke-width:0.5;"/><text fill="#000000" font-family="sans-serif" font-size="13" lengthAdjust="spacing" textLength="116" x="160.5" y="547.5283">- used for displaying</text><text fill="#000000" font-family="sans-serif" font-size="13" lengthAdjust="spacing" textLength="72" x="160.5" y="564.8193">the to do list</text></g><!--class Repositories--><g id="elem_Repositories"><rect codeLine="43" fill="#F1F1F1" height="103.8633" id="Repositories" rx="2.5" ry="2.5" style="stroke:#181818;stroke-width:0.5;" width="194" x="348" y="84.5"/><ellipse cx="401.25" cy="100.5" fill="#ADD1B2" rx="11" ry="11" style="stroke:#181818;stroke-width:1.0;"/><path d="M404.0156,96.375 Q404.1719,96.1563 404.3594,96.0469 Q404.5469,95.9375 404.7656,95.9375 Q405.1406,95.9375 405.375,96.2031 Q405.6094,96.4531 405.6094,97.0625 L405.6094,98.5156 Q405.6094,99.125 405.375,99.3906 Q405.1406,99.6563 404.7656,99.6563 Q404.4219,99.6563 404.2188,99.4531 Q404.0156,99.2656 403.9063,98.75 Q403.8594,98.3906 403.6719,98.2031 Q403.3438,97.8281 402.7344,97.6094 Q402.125,97.3906 401.5,97.3906 Q400.7344,97.3906 400.0938,97.7188 Q399.4688,98.0469 398.9688,98.7969 Q398.4844,99.5469 398.4844,100.5781 L398.4844,101.6719 Q398.4844,102.9063 399.375,103.7344 Q400.2656,104.5469 401.8594,104.5469 Q402.7969,104.5469 403.4531,104.2969 Q403.8438,104.1406 404.2656,103.7031 Q404.5313,103.4375 404.6719,103.3594 Q404.8281,103.2813 405.0313,103.2813 Q405.3594,103.2813 405.6094,103.5469 Q405.875,103.7969 405.875,104.1406 Q405.875,104.4844 405.5313,104.8906 Q405.0313,105.4688 404.2344,105.7969 Q403.1563,106.25 401.8594,106.25 Q400.3438,106.25 399.1406,105.625 Q398.1563,105.125 397.4688,104.0625 Q396.7813,102.9844 396.7813,101.7031 L396.7813,100.5469 Q396.7813,99.2188 397.3906,98.0781 Q398.0156,96.9219 399.1094,96.3125 Q400.2031,95.6875 401.4375,95.6875 Q402.1719,95.6875 402.8125,95.8594 Q403.4688,96.0156 404.0156,96.375 Z " fill="#000000"/><text fill="#000000" font-family="sans-serif" font-size="14" lengthAdjust="spacing" textLength="79" x="421.75" y="106.2969">Repositories</text><line style="stroke:#181818;stroke-width:0.5;" x1="349" x2="541" y1="116.5" y2="116.5"/><line style="stroke:#181818;stroke-width:0.5;" x1="349" x2="541" y1="124.5" y2="124.5"/><text fill="#000000" font-family="sans-serif" font-size="14" lengthAdjust="spacing" textLength="94" x="354" y="143.6074">-Repositories()</text><text fill="#000000" font-family="sans-serif" font-size="14" lengthAdjust="spacing" textLength="182" x="354" y="162.2285">+getInstance() : Repositories</text><text fill="#000000" font-family="sans-serif" font-size="14" lengthAdjust="spacing" textLength="139" x="354" y="180.8496">+getEntryRepository()</text></g><!--class EntryMapper--><g id="elem_EntryMapper"><rect codeLine="49" fill="#F1F1F1" height="122.4844" id="EntryMapper" rx="2.5" ry="2.5" style="stroke:#181818;stroke-width:0.5;" width="232" x="327" y="490"/><ellipse cx="398.25" cy="506" fill="#ADD1B2" rx="11" ry="11" style="stroke:#181818;stroke-width:1.0;"/><path d="M401.0156,501.875 Q401.1719,501.6563 401.3594,501.5469 Q401.5469,501.4375 401.7656,501.4375 Q402.1406,501.4375 402.375,501.7031 Q402.6094,501.9531 402.6094,502.5625 L402.6094,504.0156 Q402.6094,504.625 402.375,504.8906 Q402.1406,505.1563 401.7656,505.1563 Q401.4219,505.1563 401.2188,504.9531 Q401.0156,504.7656 400.9063,504.25 Q400.8594,503.8906 400.6719,503.7031 Q400.3438,503.3281 399.7344,503.1094 Q399.125,502.8906 398.5,502.8906 Q397.7344,502.8906 397.0938,503.2188 Q396.4688,503.5469 395.9688,504.2969 Q395.4844,505.0469 395.4844,506.0781 L395.4844,507.1719 Q395.4844,508.4063 396.375,509.2344 Q397.2656,510.0469 398.8594,510.0469 Q399.7969,510.0469 400.4531,509.7969 Q400.8438,509.6406 401.2656,509.2031 Q401.5313,508.9375 401.6719,508.8594 Q401.8281,508.7813 402.0313,508.7813 Q402.3594,508.7813 402.6094,509.0469 Q402.875,509.2969 402.875,509.6406 Q402.875,509.9844 402.5313,510.3906 Q402.0313,510.9688 401.2344,511.2969 Q400.1563,511.75 398.8594,511.75 Q397.3438,511.75 396.1406,511.125 Q395.1563,510.625 394.4688,509.5625 Q393.7813,508.4844 393.7813,507.2031 L393.7813,506.0469 Q393.7813,504.7188 394.3906,503.5781 Q395.0156,502.4219 396.1094,501.8125 Q397.2031,501.1875 398.4375,501.1875 Q399.1719,501.1875 399.8125,501.3594 Q400.4688,501.5156 401.0156,501.875 Z " fill="#000000"/><text fill="#000000" font-family="sans-serif" font-size="14" lengthAdjust="spacing" textLength="81" x="418.75" y="511.7969">EntryMapper</text><line style="stroke:#181818;stroke-width:0.5;" x1="328" x2="558" y1="522" y2="522"/><text fill="#000000" font-family="sans-serif" font-size="14" lengthAdjust="spacing" textLength="98" x="333" y="541.1074">-List&lt;EntryDto&gt;</text><line style="stroke:#181818;stroke-width:0.5;" x1="328" x2="558" y1="548.6211" y2="548.6211"/><text fill="#000000" font-family="sans-serif" font-size="14" lengthAdjust="spacing" textLength="176" x="333" y="567.7285">+entryDtoToEntry(entryDto)</text><text fill="#000000" font-family="sans-serif" font-size="14" lengthAdjust="spacing" textLength="154" x="333" y="586.3496">+entryToEntryDto(entry)</text><text fill="#000000" font-family="sans-serif" font-size="14" lengthAdjust="spacing" textLength="220" x="333" y="604.9707">+entryListToEntryDtoList(entryList)</text></g><!--class EntryDto--><g id="elem_EntryDto"><rect codeLine="56" fill="#F1F1F1" height="103.8633" id="EntryDto" rx="2.5" ry="2.5" style="stroke:#181818;stroke-width:0.5;" width="189" x="23.5" y="737.5"/><ellipse cx="86.25" cy="753.5" fill="#ADD1B2" rx="11" ry="11" style="stroke:#181818;stroke-width:1.0;"/><path d="M89.0156,749.375 Q89.1719,749.1563 89.3594,749.0469 Q89.5469,748.9375 89.7656,748.9375 Q90.1406,748.9375 90.375,749.2031 Q90.6094,749.4531 90.6094,750.0625 L90.6094,751.5156 Q90.6094,752.125 90.375,752.3906 Q90.1406,752.6563 89.7656,752.6563 Q89.4219,752.6563 89.2188,752.4531 Q89.0156,752.2656 88.9063,751.75 Q88.8594,751.3906 88.6719,751.2031 Q88.3438,750.8281 87.7344,750.6094 Q87.125,750.3906 86.5,750.3906 Q85.7344,750.3906 85.0938,750.7188 Q84.4688,751.0469 83.9688,751.7969 Q83.4844,752.5469 83.4844,753.5781 L83.4844,754.6719 Q83.4844,755.9063 84.375,756.7344 Q85.2656,757.5469 86.8594,757.5469 Q87.7969,757.5469 88.4531,757.2969 Q88.8438,757.1406 89.2656,756.7031 Q89.5313,756.4375 89.6719,756.3594 Q89.8281,756.2813 90.0313,756.2813 Q90.3594,756.2813 90.6094,756.5469 Q90.875,756.7969 90.875,757.1406 Q90.875,757.4844 90.5313,757.8906 Q90.0313,758.4688 89.2344,758.7969 Q88.1563,759.25 86.8594,759.25 Q85.3438,759.25 84.1406,758.625 Q83.1563,758.125 82.4688,757.0625 Q81.7813,755.9844 81.7813,754.7031 L81.7813,753.5469 Q81.7813,752.2188 82.3906,751.0781 Q83.0156,749.9219 84.1094,749.3125 Q85.2031,748.6875 86.4375,748.6875 Q87.1719,748.6875 87.8125,748.8594 Q88.4688,749.0156 89.0156,749.375 Z " fill="#000000"/><text fill="#000000" font-family="sans-serif" font-size="14" lengthAdjust="spacing" textLength="55" x="106.75" y="759.2969">EntryDto</text><line style="stroke:#181818;stroke-width:0.5;" x1="24.5" x2="211.5" y1="769.5" y2="769.5"/><text fill="#000000" font-family="sans-serif" font-size="14" lengthAdjust="spacing" textLength="92" x="29.5" y="788.6074">+timeExpected</text><line style="stroke:#181818;stroke-width:0.5;" x1="24.5" x2="211.5" y1="796.1211" y2="796.1211"/><text fill="#000000" font-family="sans-serif" font-size="14" lengthAdjust="spacing" textLength="152" x="29.5" y="815.2285">-setStartDate(startDate)</text><text fill="#000000" font-family="sans-serif" font-size="14" lengthAdjust="spacing" textLength="177" x="29.5" y="833.8496">+setEntryAgenda(startDate)</text></g><!--class TaskDto--><g id="elem_TaskDto"><rect codeLine="62" fill="#F1F1F1" height="85.2422" id="TaskDto" rx="2.5" ry="2.5" style="stroke:#181818;stroke-width:0.5;" width="149" x="43.5" y="967"/><ellipse cx="87.3" cy="983" fill="#ADD1B2" rx="11" ry="11" style="stroke:#181818;stroke-width:1.0;"/><path d="M90.0656,978.875 Q90.2219,978.6563 90.4094,978.5469 Q90.5969,978.4375 90.8156,978.4375 Q91.1906,978.4375 91.425,978.7031 Q91.6594,978.9531 91.6594,979.5625 L91.6594,981.0156 Q91.6594,981.625 91.425,981.8906 Q91.1906,982.1563 90.8156,982.1563 Q90.4719,982.1563 90.2688,981.9531 Q90.0656,981.7656 89.9563,981.25 Q89.9094,980.8906 89.7219,980.7031 Q89.3938,980.3281 88.7844,980.1094 Q88.175,979.8906 87.55,979.8906 Q86.7844,979.8906 86.1438,980.2188 Q85.5188,980.5469 85.0188,981.2969 Q84.5344,982.0469 84.5344,983.0781 L84.5344,984.1719 Q84.5344,985.4063 85.425,986.2344 Q86.3156,987.0469 87.9094,987.0469 Q88.8469,987.0469 89.5031,986.7969 Q89.8938,986.6406 90.3156,986.2031 Q90.5813,985.9375 90.7219,985.8594 Q90.8781,985.7813 91.0813,985.7813 Q91.4094,985.7813 91.6594,986.0469 Q91.925,986.2969 91.925,986.6406 Q91.925,986.9844 91.5813,987.3906 Q91.0813,987.9688 90.2844,988.2969 Q89.2063,988.75 87.9094,988.75 Q86.3938,988.75 85.1906,988.125 Q84.2063,987.625 83.5188,986.5625 Q82.8313,985.4844 82.8313,984.2031 L82.8313,983.0469 Q82.8313,981.7188 83.4406,980.5781 Q84.0656,979.4219 85.1594,978.8125 Q86.2531,978.1875 87.4875,978.1875 Q88.2219,978.1875 88.8625,978.3594 Q89.5188,978.5156 90.0656,978.875 Z " fill="#000000"/><text fill="#000000" font-family="sans-serif" font-size="14" lengthAdjust="spacing" textLength="53" x="107.7" y="988.7969">TaskDto</text><line style="stroke:#181818;stroke-width:0.5;" x1="44.5" x2="191.5" y1="999" y2="999"/><text fill="#000000" font-family="sans-serif" font-size="14" lengthAdjust="spacing" textLength="85" x="49.5" y="1018.1074">-GreenSpace</text><text fill="#000000" font-family="sans-serif" font-size="14" lengthAdjust="spacing" textLength="137" x="49.5" y="1036.7285">-Integer timeExpected</text><line style="stroke:#181818;stroke-width:0.5;" x1="44.5" x2="191.5" y1="1044.2422" y2="1044.2422"/></g><!--class AssignEntryOnAgendaController--><g id="elem_AssignEntryOnAgendaController"><rect codeLine="73" fill="#F1F1F1" height="141.1055" id="AssignEntryOnAgendaController" rx="2.5" ry="2.5" style="stroke:#181818;stroke-width:0.5;" width="237" x="725.5" y="66"/><ellipse cx="740.5" cy="82" fill="#ADD1B2" rx="11" ry="11" style="stroke:#181818;stroke-width:1.0;"/><path d="M743.2656,77.875 Q743.4219,77.6563 743.6094,77.5469 Q743.7969,77.4375 744.0156,77.4375 Q744.3906,77.4375 744.625,77.7031 Q744.8594,77.9531 744.8594,78.5625 L744.8594,80.0156 Q744.8594,80.625 744.625,80.8906 Q744.3906,81.1563 744.0156,81.1563 Q743.6719,81.1563 743.4688,80.9531 Q743.2656,80.7656 743.1563,80.25 Q743.1094,79.8906 742.9219,79.7031 Q742.5938,79.3281 741.9844,79.1094 Q741.375,78.8906 740.75,78.8906 Q739.9844,78.8906 739.3438,79.2188 Q738.7188,79.5469 738.2188,80.2969 Q737.7344,81.0469 737.7344,82.0781 L737.7344,83.1719 Q737.7344,84.4063 738.625,85.2344 Q739.5156,86.0469 741.1094,86.0469 Q742.0469,86.0469 742.7031,85.7969 Q743.0938,85.6406 743.5156,85.2031 Q743.7813,84.9375 743.9219,84.8594 Q744.0781,84.7813 744.2813,84.7813 Q744.6094,84.7813 744.8594,85.0469 Q745.125,85.2969 745.125,85.6406 Q745.125,85.9844 744.7813,86.3906 Q744.2813,86.9688 743.4844,87.2969 Q742.4063,87.75 741.1094,87.75 Q739.5938,87.75 738.3906,87.125 Q737.4063,86.625 736.7188,85.5625 Q736.0313,84.4844 736.0313,83.2031 L736.0313,82.0469 Q736.0313,80.7188 736.6406,79.5781 Q737.2656,78.4219 738.3594,77.8125 Q739.4531,77.1875 740.6875,77.1875 Q741.4219,77.1875 742.0625,77.3594 Q742.7188,77.5156 743.2656,77.875 Z " fill="#000000"/><text fill="#000000" font-family="sans-serif" font-size="14" lengthAdjust="spacing" textLength="205" x="754.5" y="87.7969">AssignEntryOnAgendaController</text><line style="stroke:#181818;stroke-width:0.5;" x1="726.5" x2="961.5" y1="98" y2="98"/><text fill="#000000" font-family="sans-serif" font-size="14" lengthAdjust="spacing" textLength="173" x="731.5" y="117.1074">-EntryRepository repository</text><line style="stroke:#181818;stroke-width:0.5;" x1="726.5" x2="961.5" y1="124.6211" y2="124.6211"/><text fill="#000000" font-family="sans-serif" font-size="14" lengthAdjust="spacing" textLength="223" x="731.5" y="143.7285">+AssignEntryOnAgendaController()</text><text fill="#000000" font-family="sans-serif" font-size="14" lengthAdjust="spacing" textLength="95" x="731.5" y="162.3496">+getToDoList()</text><text fill="#000000" font-family="sans-serif" font-size="14" lengthAdjust="spacing" textLength="160" x="731.5" y="180.9707">+assignEntryOnAgenda()</text><text fill="#000000" font-family="sans-serif" font-size="14" lengthAdjust="spacing" textLength="149" x="731.5" y="199.5918">-getGSMFromSession()</text></g><g id="elem_GMN15"><path d="M997.5,123 L997.5,132.5 L962.55,136.5 L997.5,140.5 L997.5,150.291 A0,0 0 0 0 997.5,150.291 L1244.5,150.291 A0,0 0 0 0 1244.5,150.291 L1244.5,133 L1234.5,123 L997.5,123 A0,0 0 0 0 997.5,123 " fill="#FEFFDD" style="stroke:#181818;stroke-width:0.5;"/><path d="M1234.5,123 L1234.5,133 L1244.5,133 L1234.5,123 " fill="#FEFFDD" style="stroke:#181818;stroke-width:0.5;"/><text fill="#000000" font-family="sans-serif" font-size="13" lengthAdjust="spacing" textLength="226" x="1003.5" y="142.0283">- entry is achieved with entry repository</text></g><!--class AssignEntryOnAgendaUI--><g id="elem_AssignEntryOnAgendaUI"><rect codeLine="92" fill="#F1F1F1" height="48" id="AssignEntryOnAgendaUI" rx="2.5" ry="2.5" style="stroke:#181818;stroke-width:0.5;" width="187" x="1301.5" y="112.5"/><ellipse cx="1316.5" cy="128.5" fill="#ADD1B2" rx="11" ry="11" style="stroke:#181818;stroke-width:1.0;"/><path d="M1319.2656,124.375 Q1319.4219,124.1563 1319.6094,124.0469 Q1319.7969,123.9375 1320.0156,123.9375 Q1320.3906,123.9375 1320.625,124.2031 Q1320.8594,124.4531 1320.8594,125.0625 L1320.8594,126.5156 Q1320.8594,127.125 1320.625,127.3906 Q1320.3906,127.6563 1320.0156,127.6563 Q1319.6719,127.6563 1319.4688,127.4531 Q1319.2656,127.2656 1319.1563,126.75 Q1319.1094,126.3906 1318.9219,126.2031 Q1318.5938,125.8281 1317.9844,125.6094 Q1317.375,125.3906 1316.75,125.3906 Q1315.9844,125.3906 1315.3438,125.7188 Q1314.7188,126.0469 1314.2188,126.7969 Q1313.7344,127.5469 1313.7344,128.5781 L1313.7344,129.6719 Q1313.7344,130.9063 1314.625,131.7344 Q1315.5156,132.5469 1317.1094,132.5469 Q1318.0469,132.5469 1318.7031,132.2969 Q1319.0938,132.1406 1319.5156,131.7031 Q1319.7813,131.4375 1319.9219,131.3594 Q1320.0781,131.2813 1320.2813,131.2813 Q1320.6094,131.2813 1320.8594,131.5469 Q1321.125,131.7969 1321.125,132.1406 Q1321.125,132.4844 1320.7813,132.8906 Q1320.2813,133.4688 1319.4844,133.7969 Q1318.4063,134.25 1317.1094,134.25 Q1315.5938,134.25 1314.3906,133.625 Q1313.4063,133.125 1312.7188,132.0625 Q1312.0313,130.9844 1312.0313,129.7031 L1312.0313,128.5469 Q1312.0313,127.2188 1312.6406,126.0781 Q1313.2656,124.9219 1314.3594,124.3125 Q1315.4531,123.6875 1316.6875,123.6875 Q1317.4219,123.6875 1318.0625,123.8594 Q1318.7188,124.0156 1319.2656,124.375 Z " fill="#000000"/><text fill="#000000" font-family="sans-serif" font-size="14" lengthAdjust="spacing" textLength="155" x="1330.5" y="134.2969">AssignEntryOnAgendaUI</text><line style="stroke:#181818;stroke-width:0.5;" x1="1302.5" x2="1487.5" y1="144.5" y2="144.5"/><line style="stroke:#181818;stroke-width:0.5;" x1="1302.5" x2="1487.5" y1="152.5" y2="152.5"/></g><!--class GSM--><g id="elem_GSM"><rect codeLine="86" fill="#F1F1F1" height="48" id="GSM" rx="2.5" ry="2.5" style="stroke:#181818;stroke-width:0.5;" width="63" x="701.5" y="985.5"/><ellipse cx="716.5" cy="1001.5" fill="#ADD1B2" rx="11" ry="11" style="stroke:#181818;stroke-width:1.0;"/><path d="M719.2656,997.375 Q719.4219,997.1563 719.6094,997.0469 Q719.7969,996.9375 720.0156,996.9375 Q720.3906,996.9375 720.625,997.2031 Q720.8594,997.4531 720.8594,998.0625 L720.8594,999.5156 Q720.8594,1000.125 720.625,1000.3906 Q720.3906,1000.6563 720.0156,1000.6563 Q719.6719,1000.6563 719.4688,1000.4531 Q719.2656,1000.2656 719.1563,999.75 Q719.1094,999.3906 718.9219,999.2031 Q718.5938,998.8281 717.9844,998.6094 Q717.375,998.3906 716.75,998.3906 Q715.9844,998.3906 715.3438,998.7188 Q714.7188,999.0469 714.2188,999.7969 Q713.7344,1000.5469 713.7344,1001.5781 L713.7344,1002.6719 Q713.7344,1003.9063 714.625,1004.7344 Q715.5156,1005.5469 717.1094,1005.5469 Q718.0469,1005.5469 718.7031,1005.2969 Q719.0938,1005.1406 719.5156,1004.7031 Q719.7813,1004.4375 719.9219,1004.3594 Q720.0781,1004.2813 720.2813,1004.2813 Q720.6094,1004.2813 720.8594,1004.5469 Q721.125,1004.7969 721.125,1005.1406 Q721.125,1005.4844 720.7813,1005.8906 Q720.2813,1006.4688 719.4844,1006.7969 Q718.4063,1007.25 717.1094,1007.25 Q715.5938,1007.25 714.3906,1006.625 Q713.4063,1006.125 712.7188,1005.0625 Q712.0313,1003.9844 712.0313,1002.7031 L712.0313,1001.5469 Q712.0313,1000.2188 712.6406,999.0781 Q713.2656,997.9219 714.3594,997.3125 Q715.4531,996.6875 716.6875,996.6875 Q717.4219,996.6875 718.0625,996.8594 Q718.7188,997.0156 719.2656,997.375 Z " fill="#000000"/><text fill="#000000" font-family="sans-serif" font-size="14" lengthAdjust="spacing" textLength="31" x="730.5" y="1007.2969">GSM</text><line style="stroke:#181818;stroke-width:0.5;" x1="702.5" x2="763.5" y1="1017.5" y2="1017.5"/><line style="stroke:#181818;stroke-width:0.5;" x1="702.5" x2="763.5" y1="1025.5" y2="1025.5"/></g><!--class UserSession--><g id="elem_UserSession"><rect fill="#F1F1F1" height="48" id="UserSession" rx="2.5" ry="2.5" style="stroke:#181818;stroke-width:0.5;" width="111" x="779.5" y="334.5"/><ellipse cx="794.5" cy="350.5" fill="#ADD1B2" rx="11" ry="11" style="stroke:#181818;stroke-width:1.0;"/><path d="M797.2656,346.375 Q797.4219,346.1563 797.6094,346.0469 Q797.7969,345.9375 798.0156,345.9375 Q798.3906,345.9375 798.625,346.2031 Q798.8594,346.4531 798.8594,347.0625 L798.8594,348.5156 Q798.8594,349.125 798.625,349.3906 Q798.3906,349.6563 798.0156,349.6563 Q797.6719,349.6563 797.4688,349.4531 Q797.2656,349.2656 797.1563,348.75 Q797.1094,348.3906 796.9219,348.2031 Q796.5938,347.8281 795.9844,347.6094 Q795.375,347.3906 794.75,347.3906 Q793.9844,347.3906 793.3438,347.7188 Q792.7188,348.0469 792.2188,348.7969 Q791.7344,349.5469 791.7344,350.5781 L791.7344,351.6719 Q791.7344,352.9063 792.625,353.7344 Q793.5156,354.5469 795.1094,354.5469 Q796.0469,354.5469 796.7031,354.2969 Q797.0938,354.1406 797.5156,353.7031 Q797.7813,353.4375 797.9219,353.3594 Q798.0781,353.2813 798.2813,353.2813 Q798.6094,353.2813 798.8594,353.5469 Q799.125,353.7969 799.125,354.1406 Q799.125,354.4844 798.7813,354.8906 Q798.2813,355.4688 797.4844,355.7969 Q796.4063,356.25 795.1094,356.25 Q793.5938,356.25 792.3906,355.625 Q791.4063,355.125 790.7188,354.0625 Q790.0313,352.9844 790.0313,351.7031 L790.0313,350.5469 Q790.0313,349.2188 790.6406,348.0781 Q791.2656,346.9219 792.3594,346.3125 Q793.4531,345.6875 794.6875,345.6875 Q795.4219,345.6875 796.0625,345.8594 Q796.7188,346.0156 797.2656,346.375 Z " fill="#000000"/><text fill="#000000" font-family="sans-serif" font-size="14" lengthAdjust="spacing" textLength="79" x="808.5" y="356.2969">UserSession</text><line style="stroke:#181818;stroke-width:0.5;" x1="780.5" x2="889.5" y1="366.5" y2="366.5"/><line style="stroke:#181818;stroke-width:0.5;" x1="780.5" x2="889.5" y1="374.5" y2="374.5"/></g><!--link Repositories to Repositories--><g id="link_Repositories_Repositories"><path codeLine="101" d="M542.28,116.24 C562.48,118.37 577,125.12 577,136.5 C577,147.88 568.4469,154.0008 548.2469,156.1308 " fill="none" id="Repositories-to-Repositories" style="stroke:#181818;stroke-width:1.0;"/><polygon fill="#181818" points="542.28,156.76,551.6498,159.7942,547.2524,156.2357,550.8109,151.8383,542.28,156.76" style="stroke:#181818;stroke-width:1.0;"/><text fill="#000000" font-family="sans-serif" font-size="13" lengthAdjust="spacing" textLength="49" x="583" y="142.0283">instance</text></g><!--link AssignEntryOnAgendaUI to AssignEntryOnAgendaController--><g id="link_AssignEntryOnAgendaUI_AssignEntryOnAgendaController"><path codeLine="103" d="M1366.91,112.29 C1327.62,78.42 1261,21 1261,21 C1261,21 1243.5,6 1243.5,6 C1243.5,6 997.5,6 997.5,6 C997.5,6 967.7813,31.2637 931.6113,62.0137 " fill="none" id="AssignEntryOnAgendaUI-to-AssignEntryOnAgendaController" style="stroke:#181818;stroke-width:1.0;stroke-dasharray:7.0,7.0;"/><polygon fill="#181818" points="927.04,65.9,936.4878,63.1181,930.8494,62.6614,931.3061,57.023,927.04,65.9" style="stroke:#181818;stroke-width:1.0;"/></g><!--link AssignEntryOnAgendaController to Repositories--><g id="link_AssignEntryOnAgendaController_Repositories"><path codeLine="105" d="M725.42,136.5 C666.96,136.5 603.34,136.5 548.1,136.5 " fill="none" id="AssignEntryOnAgendaController-to-Repositories" style="stroke:#181818;stroke-width:1.0;stroke-dasharray:7.0,7.0;"/><polygon fill="#181818" points="542.1,136.5,551.1,140.5,547.1,136.5,551.1,132.5,542.1,136.5" style="stroke:#181818;stroke-width:1.0;"/><text fill="#000000" font-family="sans-serif" font-size="13" lengthAdjust="spacing" textLength="67" x="600.25" y="129.5283">repositories</text></g><!--link Repositories to EntryRepository--><g id="link_Repositories_EntryRepository"><path codeLine="106" d="M444.77,188.53 C444.63,217.97 444.4861,249.4301 444.3461,281.5901 " fill="none" id="Repositories-to-EntryRepository" style="stroke:#181818;stroke-width:1.0;"/><polygon fill="#181818" points="444.32,287.59,448.3591,278.6075,444.3418,282.59,440.3592,278.5727,444.32,287.59" style="stroke:#181818;stroke-width:1.0;"/><text fill="#000000" font-family="sans-serif" font-size="13" lengthAdjust="spacing" textLength="7" x="437.2921" y="210.3411">1</text><text fill="#000000" font-family="sans-serif" font-size="13" lengthAdjust="spacing" textLength="7" x="437.007" y="276.8105">1</text></g><!--link EntryRepository to EntryMapper--><g id="link_EntryRepository_EntryMapper"><path codeLine="108" d="M443.63,429.08 C443.53,448.96 443.4511,464.4501 443.3511,483.7201 " fill="none" id="EntryRepository-to-EntryMapper" style="stroke:#181818;stroke-width:1.0;stroke-dasharray:7.0,7.0;"/><polygon fill="#181818" points="443.32,489.72,447.3667,480.7409,443.3459,484.7201,439.3668,480.6994,443.32,489.72" style="stroke:#181818;stroke-width:1.0;"/></g><!--link EntryMapper to EntryDto--><g id="link_EntryMapper_EntryDto"><path codeLine="110" d="M350.81,612.16 C293.25,649.73 230,691 230,691 C230,691 208.2456,709.9406 181.1456,733.5306 " fill="none" id="EntryMapper-to-EntryDto" style="stroke:#181818;stroke-width:1.0;"/><polygon fill="#181818" points="176.62,737.47,186.0347,734.5779,180.3913,734.1871,180.7821,728.5438,176.62,737.47" style="stroke:#181818;stroke-width:1.0;"/></g><!--link EntryDto to TaskDto--><g id="link_EntryDto_TaskDto"><path codeLine="112" d="M118,841.61 C118,879.74 118,931.19 118,966.84 " fill="none" id="EntryDto-TaskDto" style="stroke:#181818;stroke-width:1.0;"/><text fill="#000000" font-family="sans-serif" font-size="13" lengthAdjust="spacing" textLength="46" x="119" y="933.0283">extends</text></g><!--link AssignEntryOnAgendaController to EntryRepository--><g id="link_AssignEntryOnAgendaController_EntryRepository"><path codeLine="115" d="M725.53,207.16 C702.32,220.81 685,231 685,231 C685,231 544,239 544,239 C544,239 528.3902,257.5051 506.6202,283.2951 " fill="none" id="AssignEntryOnAgendaController-to-EntryRepository" style="stroke:#181818;stroke-width:1.0;stroke-dasharray:7.0,7.0;"/><polygon fill="#181818" points="502.75,287.88,511.6119,283.5828,505.9752,284.0593,505.4987,278.4225,502.75,287.88" style="stroke:#181818;stroke-width:1.0;"/><text fill="#000000" font-family="sans-serif" font-size="13" lengthAdjust="spacing" textLength="93" x="545" y="254.0283">EntryRepository</text></g><!--link AssignEntryOnAgendaController to EntryMapper--><g id="link_AssignEntryOnAgendaController_EntryMapper"><path codeLine="116" d="M771.01,207.02 C729.61,246.46 686,288 686,288 C686,288 574.5701,408.1408 502.8301,485.4908 " fill="none" id="AssignEntryOnAgendaController-to-EntryMapper" style="stroke:#181818;stroke-width:1.0;stroke-dasharray:7.0,7.0;"/><polygon fill="#181818" points="498.75,489.89,507.8029,486.0113,502.1501,486.224,501.9374,480.5712,498.75,489.89" style="stroke:#181818;stroke-width:1.0;"/><text fill="#000000" font-family="sans-serif" font-size="13" lengthAdjust="spacing" textLength="74" x="687" y="364.0283">EntryMapper</text></g><!--link AssignEntryOnAgendaController to UserSession--><g id="link_AssignEntryOnAgendaController_UserSession"><path codeLine="118" d="M841.15,207.11 C839.37,250.79 837.414,298.345 836.194,328.325 " fill="none" id="AssignEntryOnAgendaController-to-UserSession" style="stroke:#181818;stroke-width:1.0;stroke-dasharray:7.0,7.0;"/><polygon fill="#181818" points="835.95,334.32,840.3126,325.4901,836.1533,329.3241,832.3192,325.1648,835.95,334.32" style="stroke:#181818;stroke-width:1.0;"/></g><!--link UserSession to GSM--><g id="link_UserSession_GSM"><path codeLine="119" d="M831.37,382.6 C815.52,483.42 753.4313,878.4727 737.5713,979.4127 " fill="none" id="UserSession-to-GSM" style="stroke:#181818;stroke-width:1.0;"/><polygon fill="#181818" points="736.64,985.34,741.9885,977.07,737.4161,980.4006,734.0854,975.8282,736.64,985.34" style="stroke:#181818;stroke-width:1.0;"/><text fill="#000000" font-family="sans-serif" font-size="13" lengthAdjust="spacing" textLength="7" x="822.6321" y="404.61">1</text><text fill="#000000" font-family="sans-serif" font-size="13" lengthAdjust="spacing" textLength="7" x="729.6759" y="974.0365">1</text></g><!--link EntryRepository to Entry--><g id="link_EntryRepository_Entry"><path codeLine="120" d="M515.17,429.33 C546.79,460.36 577,490 577,490 C577,490 577,612 577,612 C577,612 576.4514,644.1409 575.7614,684.9609 " fill="none" id="EntryRepository-to-Entry" style="stroke:#181818;stroke-width:1.0;"/><polygon fill="#181818" points="575.66,690.96,579.8115,682.0289,575.7445,685.9607,571.8127,681.8937,575.66,690.96" style="stroke:#181818;stroke-width:1.0;"/><text fill="#000000" font-family="sans-serif" font-size="13" lengthAdjust="spacing" textLength="38" x="578" y="556.5283">entry's</text><text fill="#000000" font-family="sans-serif" font-size="13" lengthAdjust="spacing" textLength="7" x="514.8313" y="451.1765">1</text><text fill="#000000" font-family="sans-serif" font-size="13" lengthAdjust="spacing" textLength="5" x="570.5957" y="679.8054">*</text></g><!--link EntryRepository to GSM--><g id="link_EntryRepository_GSM"><path codeLine="121" d="M365.74,392.77 C274.78,431.43 137,490 137,490 C137,490 6,691 6,691 C6,691 6,888 6,888 C6,888 110,937 110,937 C110,937 685,967 685,967 C685,967 690.6608,971.8962 701.6508,981.3962 " fill="none" id="EntryRepository-to-GSM" style="stroke:#181818;stroke-width:1.0;"/><polygon fill="#181818" points="706.19,985.32,701.9971,976.4082,702.4074,982.0502,696.7654,982.4605,706.19,985.32" style="stroke:#181818;stroke-width:1.0;"/><text fill="#000000" font-family="sans-serif" font-size="13" lengthAdjust="spacing" textLength="49" x="37" y="657.0283">employs</text><text fill="#000000" font-family="sans-serif" font-size="13" lengthAdjust="spacing" textLength="5" x="694.0457" y="974.418">*</text></g><!--link Entry to GSM--><g id="link_Entry_GSM"><path codeLine="122" d="M645.13,888.02 C671.42,924.07 695.4132,956.9732 712.5032,980.3932 " fill="none" id="Entry-to-GSM" style="stroke:#181818;stroke-width:1.0;"/><polygon fill="#181818" points="716.04,985.24,713.966,975.612,713.0927,981.201,707.5037,980.3277,716.04,985.24" style="stroke:#181818;stroke-width:1.0;"/><text fill="#000000" font-family="sans-serif" font-size="13" lengthAdjust="spacing" textLength="49" x="678" y="933.0283">employs</text><text fill="#000000" font-family="sans-serif" font-size="13" lengthAdjust="spacing" textLength="5" x="706.2966" y="974.3185">*</text></g><!--reverse link Task to Entry--><g id="link_Task_Entry"><path codeLine="123" d="M402.59,789.5 C428.56,789.5 452.06,789.5 479.45,789.5 " fill="none" id="Task-backto-Entry" style="stroke:#181818;stroke-width:1.0;"/><polygon fill="#181818" points="396.59,789.5,405.59,793.5,401.59,789.5,405.59,785.5,396.59,789.5" style="stroke:#181818;stroke-width:1.0;"/><text fill="#000000" font-family="sans-serif" font-size="13" lengthAdjust="spacing" textLength="46" x="415" y="782.5283">extends</text><text fill="#000000" font-family="sans-serif" font-size="13" lengthAdjust="spacing" textLength="7" x="404.643" y="785.6543">1</text><text fill="#000000" font-family="sans-serif" font-size="13" lengthAdjust="spacing" textLength="7" x="464.6366" y="785.8638">1</text></g><!--link EntryMapper to Entry--><g id="link_EntryMapper_Entry"><path codeLine="124" d="M476.4,612.29 C489.59,636.1 502.1715,658.8321 516.8915,685.3921 " fill="none" id="EntryMapper-to-Entry" style="stroke:#181818;stroke-width:1.0;stroke-dasharray:7.0,7.0;"/><polygon fill="#181818" points="519.8,690.64,518.9359,680.8291,517.3763,686.2667,511.9387,684.7071,519.8,690.64" style="stroke:#181818;stroke-width:1.0;"/><text fill="#000000" font-family="sans-serif" font-size="13" lengthAdjust="spacing" textLength="7" x="472.8572" y="634.3766">1</text><text fill="#000000" font-family="sans-serif" font-size="13" lengthAdjust="spacing" textLength="7" x="508.5627" y="679.7959">1</text></g><!--SRC=[hLHDRzim3BthLn3P8ScA1DirA08KIzS5M35WINjN7SOMQak6nApDYlxtqOfiotQ_3ZC2nE9xeXwfHu_TlTAbjBA0mcYJPDOK26GFA5gabCczJ753nnp1Oa9IftbCS9dScGUbKzZBtCL8hZJIiKGeJNwi5cBy0cWi6H7jIdBft0MHLNS7mdLYz4RzHVWYn3Z7FG4Pi2hD27QgagEC5YA8XD7A55Bf4NnQ-UT929yEBZNP8pm9u6S6FvMZyrlCL9AZMuRW5cKHNZSaBQqaORp-OGwsNTF1-SNPAVLa6Y27rEoUkFfj6hYCUlf5YdedO_ovLhgLxhxMUMKHzOQBguMiDM6A5aWLUFbOSlcuQxVwrB-nD4wHwPKBvnvTme8Rk39Lw6LKUcaY24wHje4-cRQneBzVrY_T0Cz26qAuCqIc0BFlYmk77npkO6yiNwOhStba6tc4CgmkUcVO9woKaqALJzIbDeaKkgREE1YhNMjkj4vmCkNwOb9BwQcRJ7jTlPPbYRRZ7nzVaLc6B1ZMMtDoHBsUndW0ENp2Es2LjYNudZVnlY0cF8Mz7JFyHnVw8qu9-qPypOVyYuRnc-5JJ9wZZGRobF_2EPNgZcbQTdEXVKFRhdtEtauJMs1WOZdSsSmmywysrz_vQxX1fXdT-ldqvM4xltbooECl3vG3cMGA_x3J7nHb8HpLqhgxwJ-VprtejlDc_P4stgpzHh-LdywWp9RTmLc02gCXnCkfvijtAXLlt-HySAADvw-3ZRwEOCOIg__-rqBqhG1pJXtFPg2S5ZvFFIS1uJSEryvc9VX8hDQ9TskOBmTEN0mKVZ17qBVeIdz_yur36zmeelTEqzWqWpur-EVGrAhmwd_i1joQLvcFMKMPcsDWlO9LpVH7dC_QQujQ6vTSuLKb3K-8Vm00]--></g></svg>