<?xml version="1.0" encoding="us-ascii" standalone="no"?><svg xmlns="http://www.w3.org/2000/svg" xmlns:xlink="http://www.w3.org/1999/xlink" contentStyleType="text/css" height="1124px" preserveAspectRatio="none" style="width:1554px;height:1124px;background:#FFFFFF;" version="1.1" viewBox="0 0 1554 1124" width="1554px" zoomAndPan="magnify"><defs/><g><!--cluster Core--><g id="cluster_Core"><rect fill="#EEEEEE" height="1089" rx="2.5" ry="2.5" style="stroke:#000000;stroke-width:1.5;" width="1297" x="7" y="29"/><text fill="#000000" font-family="sans-serif" font-size="14" font-weight="bold" lengthAdjust="spacing" textLength="34" x="638.5" y="46.1074">Core</text></g><!--cluster Domain--><g id="cluster_Domain"><rect fill="#DDDDDD" height="1001.5" rx="2.5" ry="2.5" style="stroke:#000000;stroke-width:1.5;" width="699" x="287" y="92.5"/><text fill="#000000" font-family="sans-serif" font-size="14" font-weight="bold" lengthAdjust="spacing" textLength="52" x="610.5" y="109.6074">Domain</text></g><!--cluster Controller--><g id="cluster_Controller"><rect fill="#DDDDDD" height="194" rx="2.5" ry="2.5" style="stroke:#000000;stroke-width:1.5;" width="270" x="1010" y="74"/><text fill="#000000" font-family="sans-serif" font-size="14" font-weight="bold" lengthAdjust="spacing" textLength="71" x="1109.5" y="91.1074">Controller</text></g><!--cluster UI--><g id="cluster_UI"><rect fill="#DDDDDD" height="101" rx="2.5" ry="2.5" style="stroke:#000000;stroke-width:1.5;" width="220" x="1328" y="120.5"/><text fill="#000000" font-family="sans-serif" font-size="14" font-weight="bold" lengthAdjust="spacing" textLength="14" x="1431" y="137.6074">UI</text></g><g id="elem_GMN18"><path d="M23.5,168 L23.5,195.291 L270.5,195.291 L270.5,178 L260.5,168 L23.5,168 " fill="#FEFFDD" style="stroke:#181818;stroke-width:0.5;"/><path d="M260.5,168 L260.5,178 L270.5,178 L260.5,168 " fill="#FEFFDD" style="stroke:#181818;stroke-width:1.0;"/><text fill="#000000" font-family="sans-serif" font-size="13" lengthAdjust="spacing" textLength="226" x="29.5" y="187.0283">- entry is achieved with entry repository</text></g><!--class Entry--><g id="elem_Entry"><rect codeLine="13" fill="#F1F1F1" height="196.9688" id="Entry" rx="2.5" ry="2.5" style="stroke:#181818;stroke-width:0.5;" width="189" x="535.5" y="717"/><ellipse cx="609.25" cy="733" fill="#ADD1B2" rx="11" ry="11" style="stroke:#181818;stroke-width:1.0;"/><path d="M612.0156,728.875 Q612.1719,728.6563 612.3594,728.5469 Q612.5469,728.4375 612.7656,728.4375 Q613.1406,728.4375 613.375,728.7031 Q613.6094,728.9531 613.6094,729.5625 L613.6094,731.0156 Q613.6094,731.625 613.375,731.8906 Q613.1406,732.1563 612.7656,732.1563 Q612.4219,732.1563 612.2188,731.9531 Q612.0156,731.7656 611.9063,731.25 Q611.8594,730.8906 611.6719,730.7031 Q611.3438,730.3281 610.7344,730.1094 Q610.125,729.8906 609.5,729.8906 Q608.7344,729.8906 608.0938,730.2188 Q607.4688,730.5469 606.9688,731.2969 Q606.4844,732.0469 606.4844,733.0781 L606.4844,734.1719 Q606.4844,735.4063 607.375,736.2344 Q608.2656,737.0469 609.8594,737.0469 Q610.7969,737.0469 611.4531,736.7969 Q611.8438,736.6406 612.2656,736.2031 Q612.5313,735.9375 612.6719,735.8594 Q612.8281,735.7813 613.0313,735.7813 Q613.3594,735.7813 613.6094,736.0469 Q613.875,736.2969 613.875,736.6406 Q613.875,736.9844 613.5313,737.3906 Q613.0313,737.9688 612.2344,738.2969 Q611.1563,738.75 609.8594,738.75 Q608.3438,738.75 607.1406,738.125 Q606.1563,737.625 605.4688,736.5625 Q604.7813,735.4844 604.7813,734.2031 L604.7813,733.0469 Q604.7813,731.7188 605.3906,730.5781 Q606.0156,729.4219 607.1094,728.8125 Q608.2031,728.1875 609.4375,728.1875 Q610.1719,728.1875 610.8125,728.3594 Q611.4688,728.5156 612.0156,728.875 Z " fill="#000000"/><text fill="#000000" font-family="sans-serif" font-size="14" lengthAdjust="spacing" textLength="33" x="629.75" y="738.7969">Entry</text><line style="stroke:#181818;stroke-width:0.5;" x1="536.5" x2="723.5" y1="749" y2="749"/><text fill="#000000" font-family="sans-serif" font-size="14" lengthAdjust="spacing" textLength="96" x="541.5" y="768.1074">-List&lt;Vehicles&gt;</text><text fill="#000000" font-family="sans-serif" font-size="14" lengthAdjust="spacing" textLength="41" x="541.5" y="786.7285">-Team</text><text fill="#000000" font-family="sans-serif" font-size="14" lengthAdjust="spacing" textLength="65" x="541.5" y="805.3496">-StartDate</text><text fill="#000000" font-family="sans-serif" font-size="14" lengthAdjust="spacing" textLength="65" x="541.5" y="823.9707">-StartHour</text><text fill="#000000" font-family="sans-serif" font-size="14" lengthAdjust="spacing" textLength="45" x="541.5" y="842.5918">-Status</text><line style="stroke:#181818;stroke-width:0.5;" x1="536.5" x2="723.5" y1="850.1055" y2="850.1055"/><text fill="#000000" font-family="sans-serif" font-size="14" lengthAdjust="spacing" textLength="51" x="541.5" y="869.2129">+Entry()</text><text fill="#000000" font-family="sans-serif" font-size="14" lengthAdjust="spacing" textLength="152" x="541.5" y="887.834">-setStartDate(startDate)</text><text fill="#000000" font-family="sans-serif" font-size="14" lengthAdjust="spacing" textLength="177" x="541.5" y="906.4551">+setEntryAgenda(startDate)</text></g><!--class Task--><g id="elem_Task"><rect codeLine="24" fill="#F1F1F1" height="85.2422" id="Task" rx="2.5" ry="2.5" style="stroke:#181818;stroke-width:0.5;" width="149" x="303.5" y="773"/><ellipse cx="358.25" cy="789" fill="#ADD1B2" rx="11" ry="11" style="stroke:#181818;stroke-width:1.0;"/><path d="M361.0156,784.875 Q361.1719,784.6563 361.3594,784.5469 Q361.5469,784.4375 361.7656,784.4375 Q362.1406,784.4375 362.375,784.7031 Q362.6094,784.9531 362.6094,785.5625 L362.6094,787.0156 Q362.6094,787.625 362.375,787.8906 Q362.1406,788.1563 361.7656,788.1563 Q361.4219,788.1563 361.2188,787.9531 Q361.0156,787.7656 360.9063,787.25 Q360.8594,786.8906 360.6719,786.7031 Q360.3438,786.3281 359.7344,786.1094 Q359.125,785.8906 358.5,785.8906 Q357.7344,785.8906 357.0938,786.2188 Q356.4688,786.5469 355.9688,787.2969 Q355.4844,788.0469 355.4844,789.0781 L355.4844,790.1719 Q355.4844,791.4063 356.375,792.2344 Q357.2656,793.0469 358.8594,793.0469 Q359.7969,793.0469 360.4531,792.7969 Q360.8438,792.6406 361.2656,792.2031 Q361.5313,791.9375 361.6719,791.8594 Q361.8281,791.7813 362.0313,791.7813 Q362.3594,791.7813 362.6094,792.0469 Q362.875,792.2969 362.875,792.6406 Q362.875,792.9844 362.5313,793.3906 Q362.0313,793.9688 361.2344,794.2969 Q360.1563,794.75 358.8594,794.75 Q357.3438,794.75 356.1406,794.125 Q355.1563,793.625 354.4688,792.5625 Q353.7813,791.4844 353.7813,790.2031 L353.7813,789.0469 Q353.7813,787.7188 354.3906,786.5781 Q355.0156,785.4219 356.1094,784.8125 Q357.2031,784.1875 358.4375,784.1875 Q359.1719,784.1875 359.8125,784.3594 Q360.4688,784.5156 361.0156,784.875 Z " fill="#000000"/><text fill="#000000" font-family="sans-serif" font-size="14" lengthAdjust="spacing" textLength="31" x="378.75" y="794.7969">Task</text><line style="stroke:#181818;stroke-width:0.5;" x1="304.5" x2="451.5" y1="805" y2="805"/><text fill="#000000" font-family="sans-serif" font-size="14" lengthAdjust="spacing" textLength="85" x="309.5" y="824.1074">-GreenSpace</text><text fill="#000000" font-family="sans-serif" font-size="14" lengthAdjust="spacing" textLength="137" x="309.5" y="842.7285">-Integer timeExpected</text><line style="stroke:#181818;stroke-width:0.5;" x1="304.5" x2="451.5" y1="850.2422" y2="850.2422"/></g><!--class EntryRepository--><g id="elem_EntryRepository"><rect codeLine="29" fill="#F1F1F1" height="103.8633" id="EntryRepository" rx="2.5" ry="2.5" style="stroke:#181818;stroke-width:0.5;" width="150" x="672" y="333"/><ellipse cx="694.65" cy="349" fill="#ADD1B2" rx="11" ry="11" style="stroke:#181818;stroke-width:1.0;"/><path d="M697.4156,344.875 Q697.5719,344.6563 697.7594,344.5469 Q697.9469,344.4375 698.1656,344.4375 Q698.5406,344.4375 698.775,344.7031 Q699.0094,344.9531 699.0094,345.5625 L699.0094,347.0156 Q699.0094,347.625 698.775,347.8906 Q698.5406,348.1563 698.1656,348.1563 Q697.8219,348.1563 697.6188,347.9531 Q697.4156,347.7656 697.3063,347.25 Q697.2594,346.8906 697.0719,346.7031 Q696.7438,346.3281 696.1344,346.1094 Q695.525,345.8906 694.9,345.8906 Q694.1344,345.8906 693.4938,346.2188 Q692.8688,346.5469 692.3688,347.2969 Q691.8844,348.0469 691.8844,349.0781 L691.8844,350.1719 Q691.8844,351.4063 692.775,352.2344 Q693.6656,353.0469 695.2594,353.0469 Q696.1969,353.0469 696.8531,352.7969 Q697.2438,352.6406 697.6656,352.2031 Q697.9313,351.9375 698.0719,351.8594 Q698.2281,351.7813 698.4313,351.7813 Q698.7594,351.7813 699.0094,352.0469 Q699.275,352.2969 699.275,352.6406 Q699.275,352.9844 698.9313,353.3906 Q698.4313,353.9688 697.6344,354.2969 Q696.5563,354.75 695.2594,354.75 Q693.7438,354.75 692.5406,354.125 Q691.5563,353.625 690.8688,352.5625 Q690.1813,351.4844 690.1813,350.2031 L690.1813,349.0469 Q690.1813,347.7188 690.7906,346.5781 Q691.4156,345.4219 692.5094,344.8125 Q693.6031,344.1875 694.8375,344.1875 Q695.5719,344.1875 696.2125,344.3594 Q696.8688,344.5156 697.4156,344.875 Z " fill="#000000"/><text fill="#000000" font-family="sans-serif" font-size="14" lengthAdjust="spacing" textLength="101" x="710.35" y="354.7969">EntryRepository</text><line style="stroke:#181818;stroke-width:0.5;" x1="673" x2="821" y1="365" y2="365"/><line style="stroke:#181818;stroke-width:0.5;" x1="673" x2="821" y1="373" y2="373"/><text fill="#000000" font-family="sans-serif" font-size="14" lengthAdjust="spacing" textLength="95" x="678" y="392.1074">+getToDoList()</text><text fill="#000000" font-family="sans-serif" font-size="14" lengthAdjust="spacing" textLength="87" x="678" y="410.7285">+getAgenda()</text><text fill="#000000" font-family="sans-serif" font-size="14" lengthAdjust="spacing" textLength="138" x="678" y="429.3496">+setEntryOnAgenda()</text></g><!--class AgendaList--><g id="elem_AgendaList"><rect codeLine="36" fill="#F1F1F1" height="48" id="AgendaList" rx="2.5" ry="2.5" style="stroke:#181818;stroke-width:0.5;" width="103" x="303.5" y="553"/><ellipse cx="318.5" cy="569" fill="#ADD1B2" rx="11" ry="11" style="stroke:#181818;stroke-width:1.0;"/><path d="M321.2656,564.875 Q321.4219,564.6563 321.6094,564.5469 Q321.7969,564.4375 322.0156,564.4375 Q322.3906,564.4375 322.625,564.7031 Q322.8594,564.9531 322.8594,565.5625 L322.8594,567.0156 Q322.8594,567.625 322.625,567.8906 Q322.3906,568.1563 322.0156,568.1563 Q321.6719,568.1563 321.4688,567.9531 Q321.2656,567.7656 321.1563,567.25 Q321.1094,566.8906 320.9219,566.7031 Q320.5938,566.3281 319.9844,566.1094 Q319.375,565.8906 318.75,565.8906 Q317.9844,565.8906 317.3438,566.2188 Q316.7188,566.5469 316.2188,567.2969 Q315.7344,568.0469 315.7344,569.0781 L315.7344,570.1719 Q315.7344,571.4063 316.625,572.2344 Q317.5156,573.0469 319.1094,573.0469 Q320.0469,573.0469 320.7031,572.7969 Q321.0938,572.6406 321.5156,572.2031 Q321.7813,571.9375 321.9219,571.8594 Q322.0781,571.7813 322.2813,571.7813 Q322.6094,571.7813 322.8594,572.0469 Q323.125,572.2969 323.125,572.6406 Q323.125,572.9844 322.7813,573.3906 Q322.2813,573.9688 321.4844,574.2969 Q320.4063,574.75 319.1094,574.75 Q317.5938,574.75 316.3906,574.125 Q315.4063,573.625 314.7188,572.5625 Q314.0313,571.4844 314.0313,570.2031 L314.0313,569.0469 Q314.0313,567.7188 314.6406,566.5781 Q315.2656,565.4219 316.3594,564.8125 Q317.4531,564.1875 318.6875,564.1875 Q319.4219,564.1875 320.0625,564.3594 Q320.7188,564.5156 321.2656,564.875 Z " fill="#000000"/><text fill="#000000" font-family="sans-serif" font-size="14" lengthAdjust="spacing" textLength="71" x="332.5" y="574.7969">AgendaList</text><line style="stroke:#181818;stroke-width:0.5;" x1="304.5" x2="405.5" y1="585" y2="585"/><line style="stroke:#181818;stroke-width:0.5;" x1="304.5" x2="405.5" y1="593" y2="593"/></g><!--class ToDoList--><g id="elem_ToDoList"><rect codeLine="39" fill="#F1F1F1" height="48" id="ToDoList" rx="2.5" ry="2.5" style="stroke:#181818;stroke-width:0.5;" width="89" x="441.5" y="553"/><ellipse cx="456.5" cy="569" fill="#ADD1B2" rx="11" ry="11" style="stroke:#181818;stroke-width:1.0;"/><path d="M459.2656,564.875 Q459.4219,564.6563 459.6094,564.5469 Q459.7969,564.4375 460.0156,564.4375 Q460.3906,564.4375 460.625,564.7031 Q460.8594,564.9531 460.8594,565.5625 L460.8594,567.0156 Q460.8594,567.625 460.625,567.8906 Q460.3906,568.1563 460.0156,568.1563 Q459.6719,568.1563 459.4688,567.9531 Q459.2656,567.7656 459.1563,567.25 Q459.1094,566.8906 458.9219,566.7031 Q458.5938,566.3281 457.9844,566.1094 Q457.375,565.8906 456.75,565.8906 Q455.9844,565.8906 455.3438,566.2188 Q454.7188,566.5469 454.2188,567.2969 Q453.7344,568.0469 453.7344,569.0781 L453.7344,570.1719 Q453.7344,571.4063 454.625,572.2344 Q455.5156,573.0469 457.1094,573.0469 Q458.0469,573.0469 458.7031,572.7969 Q459.0938,572.6406 459.5156,572.2031 Q459.7813,571.9375 459.9219,571.8594 Q460.0781,571.7813 460.2813,571.7813 Q460.6094,571.7813 460.8594,572.0469 Q461.125,572.2969 461.125,572.6406 Q461.125,572.9844 460.7813,573.3906 Q460.2813,573.9688 459.4844,574.2969 Q458.4063,574.75 457.1094,574.75 Q455.5938,574.75 454.3906,574.125 Q453.4063,573.625 452.7188,572.5625 Q452.0313,571.4844 452.0313,570.2031 L452.0313,569.0469 Q452.0313,567.7188 452.6406,566.5781 Q453.2656,565.4219 454.3594,564.8125 Q455.4531,564.1875 456.6875,564.1875 Q457.4219,564.1875 458.0625,564.3594 Q458.7188,564.5156 459.2656,564.875 Z " fill="#000000"/><text fill="#000000" font-family="sans-serif" font-size="14" lengthAdjust="spacing" textLength="57" x="470.5" y="574.7969">ToDoList</text><line style="stroke:#181818;stroke-width:0.5;" x1="442.5" x2="529.5" y1="585" y2="585"/><line style="stroke:#181818;stroke-width:0.5;" x1="442.5" x2="529.5" y1="593" y2="593"/></g><g id="elem_GMN9"><path d="M565.5,554.5 L565.5,599.082 A0,0 0 0 0 565.5,599.082 L702.5,599.082 A0,0 0 0 0 702.5,599.082 L702.5,564.5 L692.5,554.5 L650.99,554.5 L716.57,437.17 L642.99,554.5 L565.5,554.5 A0,0 0 0 0 565.5,554.5 " fill="#FEFFDD" style="stroke:#181818;stroke-width:0.5;"/><path d="M692.5,554.5 L692.5,564.5 L702.5,564.5 L692.5,554.5 " fill="#FEFFDD" style="stroke:#181818;stroke-width:0.5;"/><text fill="#000000" font-family="sans-serif" font-size="13" lengthAdjust="spacing" textLength="116" x="571.5" y="573.5283">- used for displaying</text><text fill="#000000" font-family="sans-serif" font-size="13" lengthAdjust="spacing" textLength="72" x="571.5" y="590.8193">the to do list</text></g><!--class Repositories--><g id="elem_Repositories"><rect codeLine="49" fill="#F1F1F1" height="103.8633" id="Repositories" rx="2.5" ry="2.5" style="stroke:#181818;stroke-width:0.5;" width="194" x="650" y="129.5"/><ellipse cx="703.25" cy="145.5" fill="#ADD1B2" rx="11" ry="11" style="stroke:#181818;stroke-width:1.0;"/><path d="M706.0156,141.375 Q706.1719,141.1563 706.3594,141.0469 Q706.5469,140.9375 706.7656,140.9375 Q707.1406,140.9375 707.375,141.2031 Q707.6094,141.4531 707.6094,142.0625 L707.6094,143.5156 Q707.6094,144.125 707.375,144.3906 Q707.1406,144.6563 706.7656,144.6563 Q706.4219,144.6563 706.2188,144.4531 Q706.0156,144.2656 705.9063,143.75 Q705.8594,143.3906 705.6719,143.2031 Q705.3438,142.8281 704.7344,142.6094 Q704.125,142.3906 703.5,142.3906 Q702.7344,142.3906 702.0938,142.7188 Q701.4688,143.0469 700.9688,143.7969 Q700.4844,144.5469 700.4844,145.5781 L700.4844,146.6719 Q700.4844,147.9063 701.375,148.7344 Q702.2656,149.5469 703.8594,149.5469 Q704.7969,149.5469 705.4531,149.2969 Q705.8438,149.1406 706.2656,148.7031 Q706.5313,148.4375 706.6719,148.3594 Q706.8281,148.2813 707.0313,148.2813 Q707.3594,148.2813 707.6094,148.5469 Q707.875,148.7969 707.875,149.1406 Q707.875,149.4844 707.5313,149.8906 Q707.0313,150.4688 706.2344,150.7969 Q705.1563,151.25 703.8594,151.25 Q702.3438,151.25 701.1406,150.625 Q700.1563,150.125 699.4688,149.0625 Q698.7813,147.9844 698.7813,146.7031 L698.7813,145.5469 Q698.7813,144.2188 699.3906,143.0781 Q700.0156,141.9219 701.1094,141.3125 Q702.2031,140.6875 703.4375,140.6875 Q704.1719,140.6875 704.8125,140.8594 Q705.4688,141.0156 706.0156,141.375 Z " fill="#000000"/><text fill="#000000" font-family="sans-serif" font-size="14" lengthAdjust="spacing" textLength="79" x="723.75" y="151.2969">Repositories</text><line style="stroke:#181818;stroke-width:0.5;" x1="651" x2="843" y1="161.5" y2="161.5"/><line style="stroke:#181818;stroke-width:0.5;" x1="651" x2="843" y1="169.5" y2="169.5"/><text fill="#000000" font-family="sans-serif" font-size="14" lengthAdjust="spacing" textLength="94" x="656" y="188.6074">-Repositories()</text><text fill="#000000" font-family="sans-serif" font-size="14" lengthAdjust="spacing" textLength="182" x="656" y="207.2285">+getInstance() : Repositories</text><text fill="#000000" font-family="sans-serif" font-size="14" lengthAdjust="spacing" textLength="139" x="656" y="225.8496">+getEntryRepository()</text></g><!--class EntryMapper--><g id="elem_EntryMapper"><rect codeLine="55" fill="#F1F1F1" height="122.4844" id="EntryMapper" rx="2.5" ry="2.5" style="stroke:#181818;stroke-width:0.5;" width="232" x="738" y="516"/><ellipse cx="809.25" cy="532" fill="#ADD1B2" rx="11" ry="11" style="stroke:#181818;stroke-width:1.0;"/><path d="M812.0156,527.875 Q812.1719,527.6563 812.3594,527.5469 Q812.5469,527.4375 812.7656,527.4375 Q813.1406,527.4375 813.375,527.7031 Q813.6094,527.9531 813.6094,528.5625 L813.6094,530.0156 Q813.6094,530.625 813.375,530.8906 Q813.1406,531.1563 812.7656,531.1563 Q812.4219,531.1563 812.2188,530.9531 Q812.0156,530.7656 811.9063,530.25 Q811.8594,529.8906 811.6719,529.7031 Q811.3438,529.3281 810.7344,529.1094 Q810.125,528.8906 809.5,528.8906 Q808.7344,528.8906 808.0938,529.2188 Q807.4688,529.5469 806.9688,530.2969 Q806.4844,531.0469 806.4844,532.0781 L806.4844,533.1719 Q806.4844,534.4063 807.375,535.2344 Q808.2656,536.0469 809.8594,536.0469 Q810.7969,536.0469 811.4531,535.7969 Q811.8438,535.6406 812.2656,535.2031 Q812.5313,534.9375 812.6719,534.8594 Q812.8281,534.7813 813.0313,534.7813 Q813.3594,534.7813 813.6094,535.0469 Q813.875,535.2969 813.875,535.6406 Q813.875,535.9844 813.5313,536.3906 Q813.0313,536.9688 812.2344,537.2969 Q811.1563,537.75 809.8594,537.75 Q808.3438,537.75 807.1406,537.125 Q806.1563,536.625 805.4688,535.5625 Q804.7813,534.4844 804.7813,533.2031 L804.7813,532.0469 Q804.7813,530.7188 805.3906,529.5781 Q806.0156,528.4219 807.1094,527.8125 Q808.2031,527.1875 809.4375,527.1875 Q810.1719,527.1875 810.8125,527.3594 Q811.4688,527.5156 812.0156,527.875 Z " fill="#000000"/><text fill="#000000" font-family="sans-serif" font-size="14" lengthAdjust="spacing" textLength="81" x="829.75" y="537.7969">EntryMapper</text><line style="stroke:#181818;stroke-width:0.5;" x1="739" x2="969" y1="548" y2="548"/><text fill="#000000" font-family="sans-serif" font-size="14" lengthAdjust="spacing" textLength="98" x="744" y="567.1074">-List&lt;EntryDto&gt;</text><line style="stroke:#181818;stroke-width:0.5;" x1="739" x2="969" y1="574.6211" y2="574.6211"/><text fill="#000000" font-family="sans-serif" font-size="14" lengthAdjust="spacing" textLength="176" x="744" y="593.7285">+entryDtoToEntry(entryDto)</text><text fill="#000000" font-family="sans-serif" font-size="14" lengthAdjust="spacing" textLength="154" x="744" y="612.3496">+entryToEntryDto(entry)</text><text fill="#000000" font-family="sans-serif" font-size="14" lengthAdjust="spacing" textLength="220" x="744" y="630.9707">+entryListToEntryDtoList(entryList)</text></g><!--class EntryDto--><g id="elem_EntryDto"><rect codeLine="62" fill="#F1F1F1" height="103.8633" id="EntryDto" rx="2.5" ry="2.5" style="stroke:#181818;stroke-width:0.5;" width="189" x="759.5" y="763.5"/><ellipse cx="822.25" cy="779.5" fill="#ADD1B2" rx="11" ry="11" style="stroke:#181818;stroke-width:1.0;"/><path d="M825.0156,775.375 Q825.1719,775.1563 825.3594,775.0469 Q825.5469,774.9375 825.7656,774.9375 Q826.1406,774.9375 826.375,775.2031 Q826.6094,775.4531 826.6094,776.0625 L826.6094,777.5156 Q826.6094,778.125 826.375,778.3906 Q826.1406,778.6563 825.7656,778.6563 Q825.4219,778.6563 825.2188,778.4531 Q825.0156,778.2656 824.9063,777.75 Q824.8594,777.3906 824.6719,777.2031 Q824.3438,776.8281 823.7344,776.6094 Q823.125,776.3906 822.5,776.3906 Q821.7344,776.3906 821.0938,776.7188 Q820.4688,777.0469 819.9688,777.7969 Q819.4844,778.5469 819.4844,779.5781 L819.4844,780.6719 Q819.4844,781.9063 820.375,782.7344 Q821.2656,783.5469 822.8594,783.5469 Q823.7969,783.5469 824.4531,783.2969 Q824.8438,783.1406 825.2656,782.7031 Q825.5313,782.4375 825.6719,782.3594 Q825.8281,782.2813 826.0313,782.2813 Q826.3594,782.2813 826.6094,782.5469 Q826.875,782.7969 826.875,783.1406 Q826.875,783.4844 826.5313,783.8906 Q826.0313,784.4688 825.2344,784.7969 Q824.1563,785.25 822.8594,785.25 Q821.3438,785.25 820.1406,784.625 Q819.1563,784.125 818.4688,783.0625 Q817.7813,781.9844 817.7813,780.7031 L817.7813,779.5469 Q817.7813,778.2188 818.3906,777.0781 Q819.0156,775.9219 820.1094,775.3125 Q821.2031,774.6875 822.4375,774.6875 Q823.1719,774.6875 823.8125,774.8594 Q824.4688,775.0156 825.0156,775.375 Z " fill="#000000"/><text fill="#000000" font-family="sans-serif" font-size="14" lengthAdjust="spacing" textLength="55" x="842.75" y="785.2969">EntryDto</text><line style="stroke:#181818;stroke-width:0.5;" x1="760.5" x2="947.5" y1="795.5" y2="795.5"/><text fill="#000000" font-family="sans-serif" font-size="14" lengthAdjust="spacing" textLength="92" x="765.5" y="814.6074">+timeExpected</text><line style="stroke:#181818;stroke-width:0.5;" x1="760.5" x2="947.5" y1="822.1211" y2="822.1211"/><text fill="#000000" font-family="sans-serif" font-size="14" lengthAdjust="spacing" textLength="152" x="765.5" y="841.2285">-setStartDate(startDate)</text><text fill="#000000" font-family="sans-serif" font-size="14" lengthAdjust="spacing" textLength="177" x="765.5" y="859.8496">+setEntryAgenda(startDate)</text></g><!--class TaskDto--><g id="elem_TaskDto"><rect codeLine="68" fill="#F1F1F1" height="85.2422" id="TaskDto" rx="2.5" ry="2.5" style="stroke:#181818;stroke-width:0.5;" width="149" x="779.5" y="993"/><ellipse cx="823.3" cy="1009" fill="#ADD1B2" rx="11" ry="11" style="stroke:#181818;stroke-width:1.0;"/><path d="M826.0656,1004.875 Q826.2219,1004.6563 826.4094,1004.5469 Q826.5969,1004.4375 826.8156,1004.4375 Q827.1906,1004.4375 827.425,1004.7031 Q827.6594,1004.9531 827.6594,1005.5625 L827.6594,1007.0156 Q827.6594,1007.625 827.425,1007.8906 Q827.1906,1008.1563 826.8156,1008.1563 Q826.4719,1008.1563 826.2688,1007.9531 Q826.0656,1007.7656 825.9563,1007.25 Q825.9094,1006.8906 825.7219,1006.7031 Q825.3938,1006.3281 824.7844,1006.1094 Q824.175,1005.8906 823.55,1005.8906 Q822.7844,1005.8906 822.1438,1006.2188 Q821.5188,1006.5469 821.0188,1007.2969 Q820.5344,1008.0469 820.5344,1009.0781 L820.5344,1010.1719 Q820.5344,1011.4063 821.425,1012.2344 Q822.3156,1013.0469 823.9094,1013.0469 Q824.8469,1013.0469 825.5031,1012.7969 Q825.8938,1012.6406 826.3156,1012.2031 Q826.5813,1011.9375 826.7219,1011.8594 Q826.8781,1011.7813 827.0813,1011.7813 Q827.4094,1011.7813 827.6594,1012.0469 Q827.925,1012.2969 827.925,1012.6406 Q827.925,1012.9844 827.5813,1013.3906 Q827.0813,1013.9688 826.2844,1014.2969 Q825.2063,1014.75 823.9094,1014.75 Q822.3938,1014.75 821.1906,1014.125 Q820.2063,1013.625 819.5188,1012.5625 Q818.8313,1011.4844 818.8313,1010.2031 L818.8313,1009.0469 Q818.8313,1007.7188 819.4406,1006.5781 Q820.0656,1005.4219 821.1594,1004.8125 Q822.2531,1004.1875 823.4875,1004.1875 Q824.2219,1004.1875 824.8625,1004.3594 Q825.5188,1004.5156 826.0656,1004.875 Z " fill="#000000"/><text fill="#000000" font-family="sans-serif" font-size="14" lengthAdjust="spacing" textLength="53" x="843.7" y="1014.7969">TaskDto</text><line style="stroke:#181818;stroke-width:0.5;" x1="780.5" x2="927.5" y1="1025" y2="1025"/><text fill="#000000" font-family="sans-serif" font-size="14" lengthAdjust="spacing" textLength="85" x="785.5" y="1044.1074">-GreenSpace</text><text fill="#000000" font-family="sans-serif" font-size="14" lengthAdjust="spacing" textLength="137" x="785.5" y="1062.7285">-Integer timeExpected</text><line style="stroke:#181818;stroke-width:0.5;" x1="780.5" x2="927.5" y1="1070.2422" y2="1070.2422"/></g><!--class AssignEntryOnAgendaController--><g id="elem_AssignEntryOnAgendaController"><rect codeLine="79" fill="#F1F1F1" height="141.1055" id="AssignEntryOnAgendaController" rx="2.5" ry="2.5" style="stroke:#181818;stroke-width:0.5;" width="237" x="1026.5" y="111"/><ellipse cx="1041.5" cy="127" fill="#ADD1B2" rx="11" ry="11" style="stroke:#181818;stroke-width:1.0;"/><path d="M1044.2656,122.875 Q1044.4219,122.6563 1044.6094,122.5469 Q1044.7969,122.4375 1045.0156,122.4375 Q1045.3906,122.4375 1045.625,122.7031 Q1045.8594,122.9531 1045.8594,123.5625 L1045.8594,125.0156 Q1045.8594,125.625 1045.625,125.8906 Q1045.3906,126.1563 1045.0156,126.1563 Q1044.6719,126.1563 1044.4688,125.9531 Q1044.2656,125.7656 1044.1563,125.25 Q1044.1094,124.8906 1043.9219,124.7031 Q1043.5938,124.3281 1042.9844,124.1094 Q1042.375,123.8906 1041.75,123.8906 Q1040.9844,123.8906 1040.3438,124.2188 Q1039.7188,124.5469 1039.2188,125.2969 Q1038.7344,126.0469 1038.7344,127.0781 L1038.7344,128.1719 Q1038.7344,129.4063 1039.625,130.2344 Q1040.5156,131.0469 1042.1094,131.0469 Q1043.0469,131.0469 1043.7031,130.7969 Q1044.0938,130.6406 1044.5156,130.2031 Q1044.7813,129.9375 1044.9219,129.8594 Q1045.0781,129.7813 1045.2813,129.7813 Q1045.6094,129.7813 1045.8594,130.0469 Q1046.125,130.2969 1046.125,130.6406 Q1046.125,130.9844 1045.7813,131.3906 Q1045.2813,131.9688 1044.4844,132.2969 Q1043.4063,132.75 1042.1094,132.75 Q1040.5938,132.75 1039.3906,132.125 Q1038.4063,131.625 1037.7188,130.5625 Q1037.0313,129.4844 1037.0313,128.2031 L1037.0313,127.0469 Q1037.0313,125.7188 1037.6406,124.5781 Q1038.2656,123.4219 1039.3594,122.8125 Q1040.4531,122.1875 1041.6875,122.1875 Q1042.4219,122.1875 1043.0625,122.3594 Q1043.7188,122.5156 1044.2656,122.875 Z " fill="#000000"/><text fill="#000000" font-family="sans-serif" font-size="14" lengthAdjust="spacing" textLength="205" x="1055.5" y="132.7969">AssignEntryOnAgendaController</text><line style="stroke:#181818;stroke-width:0.5;" x1="1027.5" x2="1262.5" y1="143" y2="143"/><text fill="#000000" font-family="sans-serif" font-size="14" lengthAdjust="spacing" textLength="173" x="1032.5" y="162.1074">-EntryRepository repository</text><line style="stroke:#181818;stroke-width:0.5;" x1="1027.5" x2="1262.5" y1="169.6211" y2="169.6211"/><text fill="#000000" font-family="sans-serif" font-size="14" lengthAdjust="spacing" textLength="223" x="1032.5" y="188.7285">+AssignEntryOnAgendaController()</text><text fill="#000000" font-family="sans-serif" font-size="14" lengthAdjust="spacing" textLength="95" x="1032.5" y="207.3496">+getToDoList()</text><text fill="#000000" font-family="sans-serif" font-size="14" lengthAdjust="spacing" textLength="160" x="1032.5" y="225.9707">+assignEntryOnAgenda()</text><text fill="#000000" font-family="sans-serif" font-size="14" lengthAdjust="spacing" textLength="149" x="1032.5" y="244.5918">-getGSMFromSession()</text></g><!--class AssignEntryOnAgendaUI--><g id="elem_AssignEntryOnAgendaUI"><rect codeLine="99" fill="#F1F1F1" height="48" id="AssignEntryOnAgendaUI" rx="2.5" ry="2.5" style="stroke:#181818;stroke-width:0.5;" width="187" x="1344.5" y="157.5"/><ellipse cx="1359.5" cy="173.5" fill="#ADD1B2" rx="11" ry="11" style="stroke:#181818;stroke-width:1.0;"/><path d="M1362.2656,169.375 Q1362.4219,169.1563 1362.6094,169.0469 Q1362.7969,168.9375 1363.0156,168.9375 Q1363.3906,168.9375 1363.625,169.2031 Q1363.8594,169.4531 1363.8594,170.0625 L1363.8594,171.5156 Q1363.8594,172.125 1363.625,172.3906 Q1363.3906,172.6563 1363.0156,172.6563 Q1362.6719,172.6563 1362.4688,172.4531 Q1362.2656,172.2656 1362.1563,171.75 Q1362.1094,171.3906 1361.9219,171.2031 Q1361.5938,170.8281 1360.9844,170.6094 Q1360.375,170.3906 1359.75,170.3906 Q1358.9844,170.3906 1358.3438,170.7188 Q1357.7188,171.0469 1357.2188,171.7969 Q1356.7344,172.5469 1356.7344,173.5781 L1356.7344,174.6719 Q1356.7344,175.9063 1357.625,176.7344 Q1358.5156,177.5469 1360.1094,177.5469 Q1361.0469,177.5469 1361.7031,177.2969 Q1362.0938,177.1406 1362.5156,176.7031 Q1362.7813,176.4375 1362.9219,176.3594 Q1363.0781,176.2813 1363.2813,176.2813 Q1363.6094,176.2813 1363.8594,176.5469 Q1364.125,176.7969 1364.125,177.1406 Q1364.125,177.4844 1363.7813,177.8906 Q1363.2813,178.4688 1362.4844,178.7969 Q1361.4063,179.25 1360.1094,179.25 Q1358.5938,179.25 1357.3906,178.625 Q1356.4063,178.125 1355.7188,177.0625 Q1355.0313,175.9844 1355.0313,174.7031 L1355.0313,173.5469 Q1355.0313,172.2188 1355.6406,171.0781 Q1356.2656,169.9219 1357.3594,169.3125 Q1358.4531,168.6875 1359.6875,168.6875 Q1360.4219,168.6875 1361.0625,168.8594 Q1361.7188,169.0156 1362.2656,169.375 Z " fill="#000000"/><text fill="#000000" font-family="sans-serif" font-size="14" lengthAdjust="spacing" textLength="155" x="1373.5" y="179.2969">AssignEntryOnAgendaUI</text><line style="stroke:#181818;stroke-width:0.5;" x1="1345.5" x2="1530.5" y1="189.5" y2="189.5"/><line style="stroke:#181818;stroke-width:0.5;" x1="1345.5" x2="1530.5" y1="197.5" y2="197.5"/></g><!--class GSM--><g id="elem_GSM"><rect codeLine="93" fill="#F1F1F1" height="48" id="GSM" rx="2.5" ry="2.5" style="stroke:#181818;stroke-width:0.5;" width="63" x="1320.5" y="1011.5"/><ellipse cx="1335.5" cy="1027.5" fill="#ADD1B2" rx="11" ry="11" style="stroke:#181818;stroke-width:1.0;"/><path d="M1338.2656,1023.375 Q1338.4219,1023.1563 1338.6094,1023.0469 Q1338.7969,1022.9375 1339.0156,1022.9375 Q1339.3906,1022.9375 1339.625,1023.2031 Q1339.8594,1023.4531 1339.8594,1024.0625 L1339.8594,1025.5156 Q1339.8594,1026.125 1339.625,1026.3906 Q1339.3906,1026.6563 1339.0156,1026.6563 Q1338.6719,1026.6563 1338.4688,1026.4531 Q1338.2656,1026.2656 1338.1563,1025.75 Q1338.1094,1025.3906 1337.9219,1025.2031 Q1337.5938,1024.8281 1336.9844,1024.6094 Q1336.375,1024.3906 1335.75,1024.3906 Q1334.9844,1024.3906 1334.3438,1024.7188 Q1333.7188,1025.0469 1333.2188,1025.7969 Q1332.7344,1026.5469 1332.7344,1027.5781 L1332.7344,1028.6719 Q1332.7344,1029.9063 1333.625,1030.7344 Q1334.5156,1031.5469 1336.1094,1031.5469 Q1337.0469,1031.5469 1337.7031,1031.2969 Q1338.0938,1031.1406 1338.5156,1030.7031 Q1338.7813,1030.4375 1338.9219,1030.3594 Q1339.0781,1030.2813 1339.2813,1030.2813 Q1339.6094,1030.2813 1339.8594,1030.5469 Q1340.125,1030.7969 1340.125,1031.1406 Q1340.125,1031.4844 1339.7813,1031.8906 Q1339.2813,1032.4688 1338.4844,1032.7969 Q1337.4063,1033.25 1336.1094,1033.25 Q1334.5938,1033.25 1333.3906,1032.625 Q1332.4063,1032.125 1331.7188,1031.0625 Q1331.0313,1029.9844 1331.0313,1028.7031 L1331.0313,1027.5469 Q1331.0313,1026.2188 1331.6406,1025.0781 Q1332.2656,1023.9219 1333.3594,1023.3125 Q1334.4531,1022.6875 1335.6875,1022.6875 Q1336.4219,1022.6875 1337.0625,1022.8594 Q1337.7188,1023.0156 1338.2656,1023.375 Z " fill="#000000"/><text fill="#000000" font-family="sans-serif" font-size="14" lengthAdjust="spacing" textLength="31" x="1349.5" y="1033.2969">GSM</text><line style="stroke:#181818;stroke-width:0.5;" x1="1321.5" x2="1382.5" y1="1043.5" y2="1043.5"/><line style="stroke:#181818;stroke-width:0.5;" x1="1321.5" x2="1382.5" y1="1051.5" y2="1051.5"/></g><!--class UserSession--><g id="elem_UserSession"><rect fill="#F1F1F1" height="48" id="UserSession" rx="2.5" ry="2.5" style="stroke:#181818;stroke-width:0.5;" width="111" x="1320.5" y="361"/><ellipse cx="1335.5" cy="377" fill="#ADD1B2" rx="11" ry="11" style="stroke:#181818;stroke-width:1.0;"/><path d="M1338.2656,372.875 Q1338.4219,372.6563 1338.6094,372.5469 Q1338.7969,372.4375 1339.0156,372.4375 Q1339.3906,372.4375 1339.625,372.7031 Q1339.8594,372.9531 1339.8594,373.5625 L1339.8594,375.0156 Q1339.8594,375.625 1339.625,375.8906 Q1339.3906,376.1563 1339.0156,376.1563 Q1338.6719,376.1563 1338.4688,375.9531 Q1338.2656,375.7656 1338.1563,375.25 Q1338.1094,374.8906 1337.9219,374.7031 Q1337.5938,374.3281 1336.9844,374.1094 Q1336.375,373.8906 1335.75,373.8906 Q1334.9844,373.8906 1334.3438,374.2188 Q1333.7188,374.5469 1333.2188,375.2969 Q1332.7344,376.0469 1332.7344,377.0781 L1332.7344,378.1719 Q1332.7344,379.4063 1333.625,380.2344 Q1334.5156,381.0469 1336.1094,381.0469 Q1337.0469,381.0469 1337.7031,380.7969 Q1338.0938,380.6406 1338.5156,380.2031 Q1338.7813,379.9375 1338.9219,379.8594 Q1339.0781,379.7813 1339.2813,379.7813 Q1339.6094,379.7813 1339.8594,380.0469 Q1340.125,380.2969 1340.125,380.6406 Q1340.125,380.9844 1339.7813,381.3906 Q1339.2813,381.9688 1338.4844,382.2969 Q1337.4063,382.75 1336.1094,382.75 Q1334.5938,382.75 1333.3906,382.125 Q1332.4063,381.625 1331.7188,380.5625 Q1331.0313,379.4844 1331.0313,378.2031 L1331.0313,377.0469 Q1331.0313,375.7188 1331.6406,374.5781 Q1332.2656,373.4219 1333.3594,372.8125 Q1334.4531,372.1875 1335.6875,372.1875 Q1336.4219,372.1875 1337.0625,372.3594 Q1337.7188,372.5156 1338.2656,372.875 Z " fill="#000000"/><text fill="#000000" font-family="sans-serif" font-size="14" lengthAdjust="spacing" textLength="79" x="1349.5" y="382.7969">UserSession</text><line style="stroke:#181818;stroke-width:0.5;" x1="1321.5" x2="1430.5" y1="393" y2="393"/><line style="stroke:#181818;stroke-width:0.5;" x1="1321.5" x2="1430.5" y1="401" y2="401"/></g><!--link AssignEntryOnAgendaController to GMN18--><g id="link_AssignEntryOnAgendaController_GMN18"><path d="M1074.8,110.64 C1032.2,67.64 986,21 986,21 C986,21 968.5,6 968.5,6 C968.5,6 304.5,6 304.5,6 C304.5,6 287,21 287,21 C287,21 192.79,129 158.94,167.82 " fill="none" id="AssignEntryOnAgendaController-GMN18" style="stroke:#181818;stroke-width:1.0;stroke-dasharray:7.0,7.0;"/></g><!--link Repositories to Repositories--><g id="link_Repositories_Repositories"><path codeLine="109" d="M844.28,161.24 C864.48,163.37 879,170.12 879,181.5 C879,192.88 870.4469,199.0008 850.2469,201.1308 " fill="none" id="Repositories-to-Repositories" style="stroke:#181818;stroke-width:1.0;"/><polygon fill="#181818" points="844.28,201.76,853.6498,204.7942,849.2524,201.2357,852.8109,196.8383,844.28,201.76" style="stroke:#181818;stroke-width:1.0;"/><text fill="#000000" font-family="sans-serif" font-size="13" lengthAdjust="spacing" textLength="49" x="885" y="187.0283">instance</text></g><!--link AssignEntryOnAgendaUI to AssignEntryOnAgendaController--><g id="link_AssignEntryOnAgendaUI_AssignEntryOnAgendaController"><path codeLine="111" d="M1344.04,181.5 C1341.67,181.5 1340.33,181.5 1340.33,181.5 C1340.33,181.5 1298.58,181.5 1269.86,181.5 " fill="none" id="AssignEntryOnAgendaUI-to-AssignEntryOnAgendaController" style="stroke:#181818;stroke-width:1.0;stroke-dasharray:7.0,7.0;"/><polygon fill="#181818" points="1263.86,181.5,1272.86,185.5,1268.86,181.5,1272.86,177.5,1263.86,181.5" style="stroke:#181818;stroke-width:1.0;"/></g><!--link AssignEntryOnAgendaController to Repositories--><g id="link_AssignEntryOnAgendaController_Repositories"><path codeLine="113" d="M1026.5,181.5 C968.32,181.5 905.1,181.5 850.11,181.5 " fill="none" id="AssignEntryOnAgendaController-to-Repositories" style="stroke:#181818;stroke-width:1.0;stroke-dasharray:7.0,7.0;"/><polygon fill="#181818" points="844.11,181.5,853.11,185.5,849.11,181.5,853.11,177.5,844.11,181.5" style="stroke:#181818;stroke-width:1.0;"/><text fill="#000000" font-family="sans-serif" font-size="13" lengthAdjust="spacing" textLength="67" x="901.75" y="174.5283">repositories</text></g><!--link Repositories to EntryRepository--><g id="link_Repositories_EntryRepository"><path codeLine="114" d="M747,233.61 C747,264.04 747,296.53 747,326.95 " fill="none" id="Repositories-to-EntryRepository" style="stroke:#181818;stroke-width:1.0;"/><polygon fill="#181818" points="747,332.95,751,323.95,747,327.95,743,323.95,747,332.95" style="stroke:#181818;stroke-width:1.0;"/><text fill="#000000" font-family="sans-serif" font-size="13" lengthAdjust="spacing" textLength="7" x="739.5516" y="255.4314">1</text><text fill="#000000" font-family="sans-serif" font-size="13" lengthAdjust="spacing" textLength="7" x="739.5297" y="321.8707">1</text></g><!--link EntryRepository to EntryMapper--><g id="link_EntryRepository_EntryMapper"><path codeLine="116" d="M775.81,437.17 C789.49,461.46 802.9859,485.412 817.2559,510.752 " fill="none" id="EntryRepository-to-EntryMapper" style="stroke:#181818;stroke-width:1.0;stroke-dasharray:7.0,7.0;"/><polygon fill="#181818" points="820.2,515.98,819.2692,506.1752,817.7466,511.6233,812.2985,510.1007,820.2,515.98" style="stroke:#181818;stroke-width:1.0;"/></g><!--link EntryMapper to EntryDto--><g id="link_EntryMapper_EntryDto"><path codeLine="118" d="M854,638.29 C854,676.88 854,720.42 854,757.14 " fill="none" id="EntryMapper-to-EntryDto" style="stroke:#181818;stroke-width:1.0;"/><polygon fill="#181818" points="854,763.14,858,754.14,854,758.14,850,754.14,854,763.14" style="stroke:#181818;stroke-width:1.0;"/></g><!--link EntryDto to TaskDto--><g id="link_EntryDto_TaskDto"><path codeLine="120" d="M854,867.61 C854,905.74 854,957.19 854,992.84 " fill="none" id="EntryDto-TaskDto" style="stroke:#181818;stroke-width:1.0;"/><text fill="#000000" font-family="sans-serif" font-size="13" lengthAdjust="spacing" textLength="46" x="855" y="959.0283">extends</text></g><!--link AssignEntryOnAgendaController to EntryRepository--><g id="link_AssignEntryOnAgendaController_EntryRepository"><path codeLine="123" d="M1026.53,252.16 C1003.32,265.81 986,276 986,276 C986,276 942,284 942,284 C942,284 882.3891,314.5724 827.4491,342.7424 " fill="none" id="AssignEntryOnAgendaController-to-EntryRepository" style="stroke:#181818;stroke-width:1.0;stroke-dasharray:7.0,7.0;"/><polygon fill="#181818" points="822.11,345.48,831.9437,344.933,826.5592,343.1987,828.2936,337.8143,822.11,345.48" style="stroke:#181818;stroke-width:1.0;"/><text fill="#000000" font-family="sans-serif" font-size="13" lengthAdjust="spacing" textLength="93" x="943" y="299.0283">EntryRepository</text></g><!--link AssignEntryOnAgendaController to EntryMapper--><g id="link_AssignEntryOnAgendaController_EntryMapper"><path codeLine="124" d="M1093.31,252.4 C1037.94,327.27 954.5476,440.0359 902.1076,510.9459 " fill="none" id="AssignEntryOnAgendaController-to-EntryMapper" style="stroke:#181818;stroke-width:1.0;stroke-dasharray:7.0,7.0;"/><polygon fill="#181818" points="898.54,515.77,907.1075,510.9122,901.513,511.7499,900.6753,506.1554,898.54,515.77" style="stroke:#181818;stroke-width:1.0;"/><text fill="#000000" font-family="sans-serif" font-size="13" lengthAdjust="spacing" textLength="74" x="1034" y="390.5283">EntryMapper</text></g><!--link AssignEntryOnAgendaController to UserSession--><g id="link_AssignEntryOnAgendaController_UserSession"><path codeLine="126" d="M1224.82,252.13 C1268.25,290.01 1314.6189,330.4554 1344.8889,356.8654 " fill="none" id="AssignEntryOnAgendaController-to-UserSession" style="stroke:#181818;stroke-width:1.0;stroke-dasharray:7.0,7.0;"/><polygon fill="#181818" points="1349.41,360.81,1345.2581,351.8791,1345.6424,357.5229,1339.9986,357.9072,1349.41,360.81" style="stroke:#181818;stroke-width:1.0;"/></g><!--link UserSession to GSM--><g id="link_UserSession_GSM"><path codeLine="127" d="M1375.15,409.08 C1371.42,509.82 1356.8117,904.4941 1353.0817,1005.3641 " fill="none" id="UserSession-to-GSM" style="stroke:#181818;stroke-width:1.0;"/><polygon fill="#181818" points="1352.86,1011.36,1357.1898,1002.514,1353.0448,1006.3634,1349.1953,1002.2183,1352.86,1011.36" style="stroke:#181818;stroke-width:1.0;"/><text fill="#000000" font-family="sans-serif" font-size="13" lengthAdjust="spacing" textLength="7" x="1367.0897" y="431.0852">1</text><text fill="#000000" font-family="sans-serif" font-size="13" lengthAdjust="spacing" textLength="7" x="1345.1835" y="1000.0616">1</text></g><!--link EntryRepository to AgendaList--><g id="link_EntryRepository_AgendaList"><path codeLine="128" d="M671.99,415.93 C614.16,439.01 544,467 544,467 C544,467 424,516 424,516 C424,516 405.4678,532.1132 386.0078,549.0332 " fill="none" id="EntryRepository-to-AgendaList" style="stroke:#181818;stroke-width:1.0;"/><polygon fill="#181818" points="381.48,552.97,390.8963,550.0833,385.2532,549.6893,385.6472,544.0462,381.48,552.97" style="stroke:#181818;stroke-width:1.0;"/><text fill="#000000" font-family="sans-serif" font-size="13" lengthAdjust="spacing" textLength="42" x="545" y="482.0283">agenda</text><text fill="#000000" font-family="sans-serif" font-size="13" lengthAdjust="spacing" textLength="7" x="656.8937" y="415.2935">1</text><text fill="#000000" font-family="sans-serif" font-size="13" lengthAdjust="spacing" textLength="7" x="380.3686" y="541.6998">1</text></g><!--link EntryRepository to ToDoList--><g id="link_EntryRepository_ToDoList"><path codeLine="129" d="M671.77,435.15 C615.41,471.96 548,516 548,516 C548,516 531.5923,531.8782 514.1023,548.7982 " fill="none" id="EntryRepository-to-ToDoList" style="stroke:#181818;stroke-width:1.0;"/><polygon fill="#181818" points="509.79,552.97,519.0397,549.5872,513.3836,549.4935,513.4773,543.8374,509.79,552.97" style="stroke:#181818;stroke-width:1.0;"/><text fill="#000000" font-family="sans-serif" font-size="13" lengthAdjust="spacing" textLength="27" x="619" y="482.0283">toDo</text><text fill="#000000" font-family="sans-serif" font-size="13" lengthAdjust="spacing" textLength="7" x="657.02" y="436.2993">1</text><text fill="#000000" font-family="sans-serif" font-size="13" lengthAdjust="spacing" textLength="7" x="507.9893" y="541.6998">1</text></g><!--link AgendaList to Entry--><g id="link_AgendaList_Entry"><path codeLine="130" d="M381.48,601.03 C400.94,617.95 424,638 424,638 C424,638 476.7339,683.1759 530.8839,729.5759 " fill="none" id="AgendaList-to-Entry" style="stroke:#181818;stroke-width:1.0;"/><polygon fill="#181818" points="535.44,733.48,531.2085,724.5865,531.6432,730.2266,526.0031,730.6613,535.44,733.48" style="stroke:#181818;stroke-width:1.0;"/><text fill="#000000" font-family="sans-serif" font-size="13" lengthAdjust="spacing" textLength="38" x="481" y="683.0283">entry's</text><text fill="#000000" font-family="sans-serif" font-size="13" lengthAdjust="spacing" textLength="7" x="380.0814" y="623.023">1</text><text fill="#000000" font-family="sans-serif" font-size="13" lengthAdjust="spacing" textLength="5" x="522.4022" y="723.0255">*</text></g><!--link ToDoList to Entry--><g id="link_ToDoList_Entry"><path codeLine="131" d="M500.07,601.11 C516.45,628.01 541.4589,669.0957 567.3689,711.6357 " fill="none" id="ToDoList-to-Entry" style="stroke:#181818;stroke-width:1.0;"/><polygon fill="#181818" points="570.49,716.76,569.2246,706.9928,567.8891,712.4897,562.3921,711.1542,570.49,716.76" style="stroke:#181818;stroke-width:1.0;"/><text fill="#000000" font-family="sans-serif" font-size="13" lengthAdjust="spacing" textLength="38" x="550" y="683.0283">entry's</text><text fill="#000000" font-family="sans-serif" font-size="13" lengthAdjust="spacing" textLength="7" x="495.6464" y="623.1225">1</text><text fill="#000000" font-family="sans-serif" font-size="13" lengthAdjust="spacing" textLength="5" x="560.7424" y="705.5901">*</text></g><!--link EntryRepository to GSM--><g id="link_EntryRepository_GSM"><path codeLine="132" d="M822.26,426.6 C892.97,464.74 988,516 988,516 C988,516 1261.3725,905.4093 1332.2025,1006.2993 " fill="none" id="EntryRepository-to-GSM" style="stroke:#181818;stroke-width:1.0;"/><polygon fill="#181818" points="1335.65,1011.21,1333.7525,1001.5457,1332.7771,1007.1178,1327.2049,1006.1424,1335.65,1011.21" style="stroke:#181818;stroke-width:1.0;"/><text fill="#000000" font-family="sans-serif" font-size="13" lengthAdjust="spacing" textLength="49" x="1105" y="683.0283">employs</text><text fill="#000000" font-family="sans-serif" font-size="13" lengthAdjust="spacing" textLength="5" x="1326.0553" y="1000.2812">*</text></g><!--link Entry to GSM--><g id="link_Entry_GSM"><path codeLine="133" d="M724.99,899.19 C735.22,908.1 742,914 742,914 C742,914 910,944 910,944 C910,944 1212.992,1006.0364 1314.332,1026.7864 " fill="none" id="Entry-to-GSM" style="stroke:#181818;stroke-width:1.0;"/><polygon fill="#181818" points="1320.21,1027.99,1312.1953,1022.266,1315.3116,1026.987,1310.5906,1030.1033,1320.21,1027.99" style="stroke:#181818;stroke-width:1.0;"/><text fill="#000000" font-family="sans-serif" font-size="13" lengthAdjust="spacing" textLength="49" x="995" y="959.0283">employs</text><text fill="#000000" font-family="sans-serif" font-size="13" lengthAdjust="spacing" textLength="5" x="1307.7091" y="1021.548">*</text></g><!--reverse link Task to Entry--><g id="link_Task_Entry"><path codeLine="134" d="M458.59,815.5 C484.56,815.5 508.06,815.5 535.45,815.5 " fill="none" id="Task-backto-Entry" style="stroke:#181818;stroke-width:1.0;"/><polygon fill="#181818" points="452.59,815.5,461.59,819.5,457.59,815.5,461.59,811.5,452.59,815.5" style="stroke:#181818;stroke-width:1.0;"/><text fill="#000000" font-family="sans-serif" font-size="13" lengthAdjust="spacing" textLength="46" x="471" y="808.5283">extends</text><text fill="#000000" font-family="sans-serif" font-size="13" lengthAdjust="spacing" textLength="7" x="460.643" y="811.6543">1</text><text fill="#000000" font-family="sans-serif" font-size="13" lengthAdjust="spacing" textLength="7" x="520.6366" y="811.8638">1</text></g><!--link EntryMapper to Entry--><g id="link_EntryMapper_Entry"><path codeLine="135" d="M796.9,638.29 C774.34,662.1 751.9663,685.7241 726.8063,712.2841 " fill="none" id="EntryMapper-to-Entry" style="stroke:#181818;stroke-width:1.0;stroke-dasharray:7.0,7.0;"/><polygon fill="#181818" points="722.68,716.64,731.7734,712.857,726.1186,713.0101,725.9655,707.3553,722.68,716.64" style="stroke:#181818;stroke-width:1.0;"/><text fill="#000000" font-family="sans-serif" font-size="13" lengthAdjust="spacing" textLength="7" x="782.8931" y="660.3766">1</text><text fill="#000000" font-family="sans-serif" font-size="13" lengthAdjust="spacing" textLength="7" x="722.2292" y="705.7959">1</text></g><!--SRC=[hLJVRzem47xtNs6n1s0LQ7j55L8rkWvfrQG1VNV3aLWaTcGVQndg_xwpuoHEQ6aVbfVOztttmxxlFBHxgKfXHC4BhNII6Lq0HtC0rYAbIFOYXHKUS-064XGgpME2pSHMFqcLyft8ROpaKW4UI-2bpezkmuQlWDgWPf5NaWjhRn2DV3mWB1EjLl8ly2-C3NFO8KVDZKmpv5lfof5QiL0Z7tpJ1WRyqwt_JgrzeGiX5I4B_vqOyrduhK9pv2V6wPlmdzBYzGDaCid1peDn3Q88onKAWmk14Ez_w8DfztYmVdDLXHwD0sG16- -HhLVZm2NKqszIK5iHuozrfMjXztMTTmP0hUXmTI5BXP22uIWBk7qkwLPWsxhwqB-Xr5QYziSDQLF0jLveT-pHkBM5Alh5_L8Dq8IkB2x0AIernFGcfZG2VzI8kk1wroyc7E1WOSjtsb1FRPcB8wd98vY1w_TMarmiCah6NJnMfse2IR1D6sDZVAwbeejL2Op6VDOXjPHUTV5HFNGloX9CHo_Ula0z3r4WxDUwKa2z7yTu0CbSuHtGXMq9lZkDlLyG4Kx1jzFy_wWwdw8As1VUMxfpVO-7ahBeF0SJ3M3GZxKoLHrvjUoceNq1cwvyhYw7YILm9dTnxjdCBF7lLlVVwL5S0T6qyd9ugHHTFK4aw8kvGoJVFYuj5qacuGzf_KbY5ipHQLfzDnsW2lYfTw6RvKSkShFqZjxLVPrPcSoxipFZCam7Ow_7cixVEIgxtCpfMKOJZs076tmTy0cLwFxz1uFrrS2d53eUpq2fDZvEFIe1eHMPQt5J9V2CLArbxvvXEZyJu-oimW_62FNDkgM_xxonO88WMRJkN1gfvkoUOhnzjoc_y9kB_7fkY8sqv2mAqF0-XsQv2tN_eMMDtoLIFt7DSz8dLb7c-XXORs2kapx5zQJLJDJN-BuTxgwnuJ7s3m00]--></g></svg>