<?xml version="1.0" encoding="us-ascii" standalone="no"?><svg xmlns="http://www.w3.org/2000/svg" xmlns:xlink="http://www.w3.org/1999/xlink" contentStyleType="text/css" height="1028px" preserveAspectRatio="none" style="width:1132px;height:1028px;background:#FFFFFF;" version="1.1" viewBox="0 0 1132 1028" width="1132px" zoomAndPan="magnify"><defs/><g><!--class GSM--><g id="elem_GSM"><rect codeLine="12" fill="#F1F1F1" height="48" id="GSM" rx="2.5" ry="2.5" style="stroke:#181818;stroke-width:0.5;" width="63" x="578" y="780.7627"/><ellipse cx="593" cy="796.7627" fill="#ADD1B2" rx="11" ry="11" style="stroke:#181818;stroke-width:1.0;"/><path d="M595.7656,792.6377 Q595.9219,792.4189 596.1094,792.3096 Q596.2969,792.2002 596.5156,792.2002 Q596.8906,792.2002 597.125,792.4658 Q597.3594,792.7158 597.3594,793.3252 L597.3594,794.7783 Q597.3594,795.3877 597.125,795.6533 Q596.8906,795.9189 596.5156,795.9189 Q596.1719,795.9189 595.9688,795.7158 Q595.7656,795.5283 595.6563,795.0127 Q595.6094,794.6533 595.4219,794.4658 Q595.0938,794.0908 594.4844,793.8721 Q593.875,793.6533 593.25,793.6533 Q592.4844,793.6533 591.8438,793.9814 Q591.2188,794.3096 590.7188,795.0596 Q590.2344,795.8096 590.2344,796.8408 L590.2344,797.9346 Q590.2344,799.1689 591.125,799.9971 Q592.0156,800.8096 593.6094,800.8096 Q594.5469,800.8096 595.2031,800.5596 Q595.5938,800.4033 596.0156,799.9658 Q596.2813,799.7002 596.4219,799.6221 Q596.5781,799.5439 596.7813,799.5439 Q597.1094,799.5439 597.3594,799.8096 Q597.625,800.0596 597.625,800.4033 Q597.625,800.7471 597.2813,801.1533 Q596.7813,801.7314 595.9844,802.0596 Q594.9063,802.5127 593.6094,802.5127 Q592.0938,802.5127 590.8906,801.8877 Q589.9063,801.3877 589.2188,800.3252 Q588.5313,799.2471 588.5313,797.9658 L588.5313,796.8096 Q588.5313,795.4814 589.1406,794.3408 Q589.7656,793.1846 590.8594,792.5752 Q591.9531,791.9502 593.1875,791.9502 Q593.9219,791.9502 594.5625,792.1221 Q595.2188,792.2783 595.7656,792.6377 Z " fill="#000000"/><text fill="#000000" font-family="sans-serif" font-size="14" lengthAdjust="spacing" textLength="31" x="607" y="802.5596">GSM</text><line style="stroke:#181818;stroke-width:0.5;" x1="579" x2="640" y1="812.7627" y2="812.7627"/><line style="stroke:#181818;stroke-width:0.5;" x1="579" x2="640" y1="820.7627" y2="820.7627"/></g><!--class Entry--><g id="elem_Entry"><rect codeLine="16" fill="#F1F1F1" height="178.3477" id="Entry" rx="2.5" ry="2.5" style="stroke:#181818;stroke-width:0.5;" width="189" x="936" y="495.7627"/><ellipse cx="1009.75" cy="511.7627" fill="#ADD1B2" rx="11" ry="11" style="stroke:#181818;stroke-width:1.0;"/><path d="M1012.5156,507.6377 Q1012.6719,507.4189 1012.8594,507.3096 Q1013.0469,507.2002 1013.2656,507.2002 Q1013.6406,507.2002 1013.875,507.4658 Q1014.1094,507.7158 1014.1094,508.3252 L1014.1094,509.7783 Q1014.1094,510.3877 1013.875,510.6533 Q1013.6406,510.9189 1013.2656,510.9189 Q1012.9219,510.9189 1012.7188,510.7158 Q1012.5156,510.5283 1012.4063,510.0127 Q1012.3594,509.6533 1012.1719,509.4658 Q1011.8438,509.0908 1011.2344,508.8721 Q1010.625,508.6533 1010,508.6533 Q1009.2344,508.6533 1008.5938,508.9814 Q1007.9688,509.3096 1007.4688,510.0596 Q1006.9844,510.8096 1006.9844,511.8408 L1006.9844,512.9346 Q1006.9844,514.1689 1007.875,514.9971 Q1008.7656,515.8096 1010.3594,515.8096 Q1011.2969,515.8096 1011.9531,515.5596 Q1012.3438,515.4033 1012.7656,514.9658 Q1013.0313,514.7002 1013.1719,514.6221 Q1013.3281,514.5439 1013.5313,514.5439 Q1013.8594,514.5439 1014.1094,514.8096 Q1014.375,515.0596 1014.375,515.4033 Q1014.375,515.7471 1014.0313,516.1533 Q1013.5313,516.7314 1012.7344,517.0596 Q1011.6563,517.5127 1010.3594,517.5127 Q1008.8438,517.5127 1007.6406,516.8877 Q1006.6563,516.3877 1005.9688,515.3252 Q1005.2813,514.2471 1005.2813,512.9658 L1005.2813,511.8096 Q1005.2813,510.4814 1005.8906,509.3408 Q1006.5156,508.1846 1007.6094,507.5752 Q1008.7031,506.9502 1009.9375,506.9502 Q1010.6719,506.9502 1011.3125,507.1221 Q1011.9688,507.2783 1012.5156,507.6377 Z " fill="#000000"/><text fill="#000000" font-family="sans-serif" font-size="14" lengthAdjust="spacing" textLength="33" x="1030.25" y="517.5596">Entry</text><line style="stroke:#181818;stroke-width:0.5;" x1="937" x2="1124" y1="527.7627" y2="527.7627"/><text fill="#000000" font-family="sans-serif" font-size="14" lengthAdjust="spacing" textLength="96" x="942" y="546.8701">-List&lt;Vehicles&gt;</text><text fill="#000000" font-family="sans-serif" font-size="14" lengthAdjust="spacing" textLength="41" x="942" y="565.4912">-Team</text><text fill="#000000" font-family="sans-serif" font-size="14" lengthAdjust="spacing" textLength="65" x="942" y="584.1123">-StartDate</text><text fill="#000000" font-family="sans-serif" font-size="14" lengthAdjust="spacing" textLength="45" x="942" y="602.7334">-Status</text><line style="stroke:#181818;stroke-width:0.5;" x1="937" x2="1124" y1="610.2471" y2="610.2471"/><text fill="#000000" font-family="sans-serif" font-size="14" lengthAdjust="spacing" textLength="51" x="942" y="629.3545">+Entry()</text><text fill="#000000" font-family="sans-serif" font-size="14" lengthAdjust="spacing" textLength="152" x="942" y="647.9756">-setStartDate(startDate)</text><text fill="#000000" font-family="sans-serif" font-size="14" lengthAdjust="spacing" textLength="177" x="942" y="666.5967">+setEntryAgenda(startDate)</text></g><!--class Task--><g id="elem_Task"><rect codeLine="26" fill="#F1F1F1" height="85.2422" id="Task" rx="2.5" ry="2.5" style="stroke:#181818;stroke-width:0.5;" width="149" x="704" y="542.2627"/><ellipse cx="758.75" cy="558.2627" fill="#ADD1B2" rx="11" ry="11" style="stroke:#181818;stroke-width:1.0;"/><path d="M761.5156,554.1377 Q761.6719,553.9189 761.8594,553.8096 Q762.0469,553.7002 762.2656,553.7002 Q762.6406,553.7002 762.875,553.9658 Q763.1094,554.2158 763.1094,554.8252 L763.1094,556.2783 Q763.1094,556.8877 762.875,557.1533 Q762.6406,557.4189 762.2656,557.4189 Q761.9219,557.4189 761.7188,557.2158 Q761.5156,557.0283 761.4063,556.5127 Q761.3594,556.1533 761.1719,555.9658 Q760.8438,555.5908 760.2344,555.3721 Q759.625,555.1533 759,555.1533 Q758.2344,555.1533 757.5938,555.4814 Q756.9688,555.8096 756.4688,556.5596 Q755.9844,557.3096 755.9844,558.3408 L755.9844,559.4346 Q755.9844,560.6689 756.875,561.4971 Q757.7656,562.3096 759.3594,562.3096 Q760.2969,562.3096 760.9531,562.0596 Q761.3438,561.9033 761.7656,561.4658 Q762.0313,561.2002 762.1719,561.1221 Q762.3281,561.0439 762.5313,561.0439 Q762.8594,561.0439 763.1094,561.3096 Q763.375,561.5596 763.375,561.9033 Q763.375,562.2471 763.0313,562.6533 Q762.5313,563.2314 761.7344,563.5596 Q760.6563,564.0127 759.3594,564.0127 Q757.8438,564.0127 756.6406,563.3877 Q755.6563,562.8877 754.9688,561.8252 Q754.2813,560.7471 754.2813,559.4658 L754.2813,558.3096 Q754.2813,556.9814 754.8906,555.8408 Q755.5156,554.6846 756.6094,554.0752 Q757.7031,553.4502 758.9375,553.4502 Q759.6719,553.4502 760.3125,553.6221 Q760.9688,553.7783 761.5156,554.1377 Z " fill="#000000"/><text fill="#000000" font-family="sans-serif" font-size="14" lengthAdjust="spacing" textLength="31" x="779.25" y="564.0596">Task</text><line style="stroke:#181818;stroke-width:0.5;" x1="705" x2="852" y1="574.2627" y2="574.2627"/><text fill="#000000" font-family="sans-serif" font-size="14" lengthAdjust="spacing" textLength="85" x="710" y="593.3701">-GreenSpace</text><text fill="#000000" font-family="sans-serif" font-size="14" lengthAdjust="spacing" textLength="137" x="710" y="611.9912">-Integer timeExpected</text><line style="stroke:#181818;stroke-width:0.5;" x1="705" x2="852" y1="619.5049" y2="619.5049"/></g><!--class EntryRepository--><g id="elem_EntryRepository"><rect codeLine="32" fill="#F1F1F1" height="141.1055" id="EntryRepository" rx="2.5" ry="2.5" style="stroke:#181818;stroke-width:0.5;" width="156" x="522.5" y="275.7627"/><ellipse cx="547.85" cy="291.7627" fill="#ADD1B2" rx="11" ry="11" style="stroke:#181818;stroke-width:1.0;"/><path d="M550.6156,287.6377 Q550.7719,287.4189 550.9594,287.3096 Q551.1469,287.2002 551.3656,287.2002 Q551.7406,287.2002 551.975,287.4658 Q552.2094,287.7158 552.2094,288.3252 L552.2094,289.7783 Q552.2094,290.3877 551.975,290.6533 Q551.7406,290.9189 551.3656,290.9189 Q551.0219,290.9189 550.8188,290.7158 Q550.6156,290.5283 550.5063,290.0127 Q550.4594,289.6533 550.2719,289.4658 Q549.9438,289.0908 549.3344,288.8721 Q548.725,288.6533 548.1,288.6533 Q547.3344,288.6533 546.6938,288.9814 Q546.0688,289.3096 545.5688,290.0596 Q545.0844,290.8096 545.0844,291.8408 L545.0844,292.9346 Q545.0844,294.1689 545.975,294.9971 Q546.8656,295.8096 548.4594,295.8096 Q549.3969,295.8096 550.0531,295.5596 Q550.4438,295.4033 550.8656,294.9658 Q551.1313,294.7002 551.2719,294.6221 Q551.4281,294.5439 551.6313,294.5439 Q551.9594,294.5439 552.2094,294.8096 Q552.475,295.0596 552.475,295.4033 Q552.475,295.7471 552.1313,296.1533 Q551.6313,296.7314 550.8344,297.0596 Q549.7563,297.5127 548.4594,297.5127 Q546.9438,297.5127 545.7406,296.8877 Q544.7563,296.3877 544.0688,295.3252 Q543.3813,294.2471 543.3813,292.9658 L543.3813,291.8096 Q543.3813,290.4814 543.9906,289.3408 Q544.6156,288.1846 545.7094,287.5752 Q546.8031,286.9502 548.0375,286.9502 Q548.7719,286.9502 549.4125,287.1221 Q550.0688,287.2783 550.6156,287.6377 Z " fill="#000000"/><text fill="#000000" font-family="sans-serif" font-size="14" lengthAdjust="spacing" textLength="101" x="564.15" y="297.5596">EntryRepository</text><line style="stroke:#181818;stroke-width:0.5;" x1="523.5" x2="677.5" y1="307.7627" y2="307.7627"/><text fill="#000000" font-family="sans-serif" font-size="14" lengthAdjust="spacing" textLength="144" x="528.5" y="326.8701">-List &lt;Entry&gt; : toDoList</text><text fill="#000000" font-family="sans-serif" font-size="14" lengthAdjust="spacing" textLength="140" x="528.5" y="345.4912">-List &lt;Entry&gt; : agenda</text><line style="stroke:#181818;stroke-width:0.5;" x1="523.5" x2="677.5" y1="353.0049" y2="353.0049"/><text fill="#000000" font-family="sans-serif" font-size="14" lengthAdjust="spacing" textLength="95" x="528.5" y="372.1123">+getToDoList()</text><text fill="#000000" font-family="sans-serif" font-size="14" lengthAdjust="spacing" textLength="87" x="528.5" y="390.7334">+getAgenda()</text><text fill="#000000" font-family="sans-serif" font-size="14" lengthAdjust="spacing" textLength="138" x="528.5" y="409.3545">+setEntryOnAgenda()</text></g><!--class Repositories--><g id="elem_Repositories"><rect codeLine="42" fill="#F1F1F1" height="103.8633" id="Repositories" rx="2.5" ry="2.5" style="stroke:#181818;stroke-width:0.5;" width="194" x="783.5" y="74.2627"/><ellipse cx="836.75" cy="90.2627" fill="#ADD1B2" rx="11" ry="11" style="stroke:#181818;stroke-width:1.0;"/><path d="M839.5156,86.1377 Q839.6719,85.9189 839.8594,85.8096 Q840.0469,85.7002 840.2656,85.7002 Q840.6406,85.7002 840.875,85.9658 Q841.1094,86.2158 841.1094,86.8252 L841.1094,88.2783 Q841.1094,88.8877 840.875,89.1533 Q840.6406,89.4189 840.2656,89.4189 Q839.9219,89.4189 839.7188,89.2158 Q839.5156,89.0283 839.4063,88.5127 Q839.3594,88.1533 839.1719,87.9658 Q838.8438,87.5908 838.2344,87.3721 Q837.625,87.1533 837,87.1533 Q836.2344,87.1533 835.5938,87.4814 Q834.9688,87.8096 834.4688,88.5596 Q833.9844,89.3096 833.9844,90.3408 L833.9844,91.4346 Q833.9844,92.6689 834.875,93.4971 Q835.7656,94.3096 837.3594,94.3096 Q838.2969,94.3096 838.9531,94.0596 Q839.3438,93.9033 839.7656,93.4658 Q840.0313,93.2002 840.1719,93.1221 Q840.3281,93.0439 840.5313,93.0439 Q840.8594,93.0439 841.1094,93.3096 Q841.375,93.5596 841.375,93.9033 Q841.375,94.2471 841.0313,94.6533 Q840.5313,95.2314 839.7344,95.5596 Q838.6563,96.0127 837.3594,96.0127 Q835.8438,96.0127 834.6406,95.3877 Q833.6563,94.8877 832.9688,93.8252 Q832.2813,92.7471 832.2813,91.4658 L832.2813,90.3096 Q832.2813,88.9814 832.8906,87.8408 Q833.5156,86.6846 834.6094,86.0752 Q835.7031,85.4502 836.9375,85.4502 Q837.6719,85.4502 838.3125,85.6221 Q838.9688,85.7783 839.5156,86.1377 Z " fill="#000000"/><text fill="#000000" font-family="sans-serif" font-size="14" lengthAdjust="spacing" textLength="79" x="857.25" y="96.0596">Repositories</text><line style="stroke:#181818;stroke-width:0.5;" x1="784.5" x2="976.5" y1="106.2627" y2="106.2627"/><line style="stroke:#181818;stroke-width:0.5;" x1="784.5" x2="976.5" y1="114.2627" y2="114.2627"/><text fill="#000000" font-family="sans-serif" font-size="14" lengthAdjust="spacing" textLength="94" x="789.5" y="133.3701">-Repositories()</text><text fill="#000000" font-family="sans-serif" font-size="14" lengthAdjust="spacing" textLength="182" x="789.5" y="151.9912">+getInstance() : Repositories</text><text fill="#000000" font-family="sans-serif" font-size="14" lengthAdjust="spacing" textLength="139" x="789.5" y="170.6123">+getEntryRepository()</text></g><!--class AssignEntryOnAgendaController--><g id="elem_AssignEntryOnAgendaController"><rect codeLine="48" fill="#F1F1F1" height="141.1055" id="AssignEntryOnAgendaController" rx="2.5" ry="2.5" style="stroke:#181818;stroke-width:0.5;" width="237" x="229" y="55.7627"/><ellipse cx="244" cy="71.7627" fill="#ADD1B2" rx="11" ry="11" style="stroke:#181818;stroke-width:1.0;"/><path d="M246.7656,67.6377 Q246.9219,67.4189 247.1094,67.3096 Q247.2969,67.2002 247.5156,67.2002 Q247.8906,67.2002 248.125,67.4658 Q248.3594,67.7158 248.3594,68.3252 L248.3594,69.7783 Q248.3594,70.3877 248.125,70.6533 Q247.8906,70.9189 247.5156,70.9189 Q247.1719,70.9189 246.9688,70.7158 Q246.7656,70.5283 246.6563,70.0127 Q246.6094,69.6533 246.4219,69.4658 Q246.0938,69.0908 245.4844,68.8721 Q244.875,68.6533 244.25,68.6533 Q243.4844,68.6533 242.8438,68.9814 Q242.2188,69.3096 241.7188,70.0596 Q241.2344,70.8096 241.2344,71.8408 L241.2344,72.9346 Q241.2344,74.1689 242.125,74.9971 Q243.0156,75.8096 244.6094,75.8096 Q245.5469,75.8096 246.2031,75.5596 Q246.5938,75.4033 247.0156,74.9658 Q247.2813,74.7002 247.4219,74.6221 Q247.5781,74.5439 247.7813,74.5439 Q248.1094,74.5439 248.3594,74.8096 Q248.625,75.0596 248.625,75.4033 Q248.625,75.7471 248.2813,76.1533 Q247.7813,76.7314 246.9844,77.0596 Q245.9063,77.5127 244.6094,77.5127 Q243.0938,77.5127 241.8906,76.8877 Q240.9063,76.3877 240.2188,75.3252 Q239.5313,74.2471 239.5313,72.9658 L239.5313,71.8096 Q239.5313,70.4814 240.1406,69.3408 Q240.7656,68.1846 241.8594,67.5752 Q242.9531,66.9502 244.1875,66.9502 Q244.9219,66.9502 245.5625,67.1221 Q246.2188,67.2783 246.7656,67.6377 Z " fill="#000000"/><text fill="#000000" font-family="sans-serif" font-size="14" lengthAdjust="spacing" textLength="205" x="258" y="77.5596">AssignEntryOnAgendaController</text><line style="stroke:#181818;stroke-width:0.5;" x1="230" x2="465" y1="87.7627" y2="87.7627"/><text fill="#000000" font-family="sans-serif" font-size="14" lengthAdjust="spacing" textLength="173" x="235" y="106.8701">-EntryRepository repository</text><line style="stroke:#181818;stroke-width:0.5;" x1="230" x2="465" y1="114.3838" y2="114.3838"/><text fill="#000000" font-family="sans-serif" font-size="14" lengthAdjust="spacing" textLength="223" x="235" y="133.4912">+AssignEntryOnAgendaController()</text><text fill="#000000" font-family="sans-serif" font-size="14" lengthAdjust="spacing" textLength="95" x="235" y="152.1123">+getToDoList()</text><text fill="#000000" font-family="sans-serif" font-size="14" lengthAdjust="spacing" textLength="160" x="235" y="170.7334">+assignEntryOnAgenda()</text><text fill="#000000" font-family="sans-serif" font-size="14" lengthAdjust="spacing" textLength="149" x="235" y="189.3545">-getGSMFromSession()</text></g><g id="elem_GMN8"><path d="M501,112.7627 L501,122.2627 L466.05,126.2627 L501,130.2627 L501,140.0537 A0,0 0 0 0 501,140.0537 L748,140.0537 A0,0 0 0 0 748,140.0537 L748,122.7627 L738,112.7627 L501,112.7627 A0,0 0 0 0 501,112.7627 " fill="#FEFFDD" style="stroke:#181818;stroke-width:0.5;"/><path d="M738,112.7627 L738,122.7627 L748,122.7627 L738,112.7627 " fill="#FEFFDD" style="stroke:#181818;stroke-width:0.5;"/><text fill="#000000" font-family="sans-serif" font-size="13" lengthAdjust="spacing" textLength="226" x="507" y="131.791">- entry is achieved with entry repository</text></g><g id="elem_GMN11"><path d="M532,562.2627 L532,606.8447 A0,0 0 0 0 532,606.8447 L669,606.8447 A0,0 0 0 0 669,606.8447 L669,572.2627 L659,562.2627 L604.5,562.2627 L600.5,416.9427 L596.5,562.2627 L532,562.2627 A0,0 0 0 0 532,562.2627 " fill="#FEFFDD" style="stroke:#181818;stroke-width:0.5;"/><path d="M659,562.2627 L659,572.2627 L669,572.2627 L659,562.2627 " fill="#FEFFDD" style="stroke:#181818;stroke-width:0.5;"/><text fill="#000000" font-family="sans-serif" font-size="13" lengthAdjust="spacing" textLength="116" x="538" y="581.291">- used for displaying</text><text fill="#000000" font-family="sans-serif" font-size="13" lengthAdjust="spacing" textLength="72" x="538" y="598.582">the to do list</text></g><!--class AssignEntryOnAgendaUI--><g id="elem_AssignEntryOnAgendaUI"><rect codeLine="65" fill="#F1F1F1" height="48" id="AssignEntryOnAgendaUI" rx="2.5" ry="2.5" style="stroke:#181818;stroke-width:0.5;" width="187" x="7" y="102.2627"/><ellipse cx="22" cy="118.2627" fill="#ADD1B2" rx="11" ry="11" style="stroke:#181818;stroke-width:1.0;"/><path d="M24.7656,114.1377 Q24.9219,113.9189 25.1094,113.8096 Q25.2969,113.7002 25.5156,113.7002 Q25.8906,113.7002 26.125,113.9658 Q26.3594,114.2158 26.3594,114.8252 L26.3594,116.2783 Q26.3594,116.8877 26.125,117.1533 Q25.8906,117.4189 25.5156,117.4189 Q25.1719,117.4189 24.9688,117.2158 Q24.7656,117.0283 24.6563,116.5127 Q24.6094,116.1533 24.4219,115.9658 Q24.0938,115.5908 23.4844,115.3721 Q22.875,115.1533 22.25,115.1533 Q21.4844,115.1533 20.8438,115.4814 Q20.2188,115.8096 19.7188,116.5596 Q19.2344,117.3096 19.2344,118.3408 L19.2344,119.4346 Q19.2344,120.6689 20.125,121.4971 Q21.0156,122.3096 22.6094,122.3096 Q23.5469,122.3096 24.2031,122.0596 Q24.5938,121.9033 25.0156,121.4658 Q25.2813,121.2002 25.4219,121.1221 Q25.5781,121.0439 25.7813,121.0439 Q26.1094,121.0439 26.3594,121.3096 Q26.625,121.5596 26.625,121.9033 Q26.625,122.2471 26.2813,122.6533 Q25.7813,123.2314 24.9844,123.5596 Q23.9063,124.0127 22.6094,124.0127 Q21.0938,124.0127 19.8906,123.3877 Q18.9063,122.8877 18.2188,121.8252 Q17.5313,120.7471 17.5313,119.4658 L17.5313,118.3096 Q17.5313,116.9814 18.1406,115.8408 Q18.7656,114.6846 19.8594,114.0752 Q20.9531,113.4502 22.1875,113.4502 Q22.9219,113.4502 23.5625,113.6221 Q24.2188,113.7783 24.7656,114.1377 Z " fill="#000000"/><text fill="#000000" font-family="sans-serif" font-size="14" lengthAdjust="spacing" textLength="155" x="36" y="124.0596">AssignEntryOnAgendaUI</text><line style="stroke:#181818;stroke-width:0.5;" x1="8" x2="193" y1="134.2627" y2="134.2627"/><line style="stroke:#181818;stroke-width:0.5;" x1="8" x2="193" y1="142.2627" y2="142.2627"/></g><!--class EntryMapper--><g id="elem_EntryMapper"><rect codeLine="68" fill="#F1F1F1" height="103.8633" id="EntryMapper" rx="2.5" ry="2.5" style="stroke:#181818;stroke-width:0.5;" width="113" x="235" y="532.7627"/><ellipse cx="250" cy="548.7627" fill="#ADD1B2" rx="11" ry="11" style="stroke:#181818;stroke-width:1.0;"/><path d="M252.7656,544.6377 Q252.9219,544.4189 253.1094,544.3096 Q253.2969,544.2002 253.5156,544.2002 Q253.8906,544.2002 254.125,544.4658 Q254.3594,544.7158 254.3594,545.3252 L254.3594,546.7783 Q254.3594,547.3877 254.125,547.6533 Q253.8906,547.9189 253.5156,547.9189 Q253.1719,547.9189 252.9688,547.7158 Q252.7656,547.5283 252.6563,547.0127 Q252.6094,546.6533 252.4219,546.4658 Q252.0938,546.0908 251.4844,545.8721 Q250.875,545.6533 250.25,545.6533 Q249.4844,545.6533 248.8438,545.9814 Q248.2188,546.3096 247.7188,547.0596 Q247.2344,547.8096 247.2344,548.8408 L247.2344,549.9346 Q247.2344,551.1689 248.125,551.9971 Q249.0156,552.8096 250.6094,552.8096 Q251.5469,552.8096 252.2031,552.5596 Q252.5938,552.4033 253.0156,551.9658 Q253.2813,551.7002 253.4219,551.6221 Q253.5781,551.5439 253.7813,551.5439 Q254.1094,551.5439 254.3594,551.8096 Q254.625,552.0596 254.625,552.4033 Q254.625,552.7471 254.2813,553.1533 Q253.7813,553.7314 252.9844,554.0596 Q251.9063,554.5127 250.6094,554.5127 Q249.0938,554.5127 247.8906,553.8877 Q246.9063,553.3877 246.2188,552.3252 Q245.5313,551.2471 245.5313,549.9658 L245.5313,548.8096 Q245.5313,547.4814 246.1406,546.3408 Q246.7656,545.1846 247.8594,544.5752 Q248.9531,543.9502 250.1875,543.9502 Q250.9219,543.9502 251.5625,544.1221 Q252.2188,544.2783 252.7656,544.6377 Z " fill="#000000"/><text fill="#000000" font-family="sans-serif" font-size="14" lengthAdjust="spacing" textLength="81" x="264" y="554.5596">EntryMapper</text><line style="stroke:#181818;stroke-width:0.5;" x1="236" x2="347" y1="564.7627" y2="564.7627"/><text fill="#000000" font-family="sans-serif" font-size="14" lengthAdjust="spacing" textLength="98" x="241" y="583.8701">-List&lt;EntryDto&gt;</text><line style="stroke:#181818;stroke-width:0.5;" x1="236" x2="347" y1="591.3838" y2="591.3838"/><text fill="#000000" font-family="sans-serif" font-size="14" lengthAdjust="spacing" textLength="68" x="241" y="610.4912">+toModel()</text><text fill="#000000" font-family="sans-serif" font-size="14" lengthAdjust="spacing" textLength="52" x="241" y="629.1123">+toDto()</text></g><!--class EntryDto--><g id="elem_EntryDto"><rect codeLine="74" fill="#F1F1F1" height="103.8633" id="EntryDto" rx="2.5" ry="2.5" style="stroke:#181818;stroke-width:0.5;" width="189" x="197" y="752.7627"/><ellipse cx="259.75" cy="768.7627" fill="#ADD1B2" rx="11" ry="11" style="stroke:#181818;stroke-width:1.0;"/><path d="M262.5156,764.6377 Q262.6719,764.4189 262.8594,764.3096 Q263.0469,764.2002 263.2656,764.2002 Q263.6406,764.2002 263.875,764.4658 Q264.1094,764.7158 264.1094,765.3252 L264.1094,766.7783 Q264.1094,767.3877 263.875,767.6533 Q263.6406,767.9189 263.2656,767.9189 Q262.9219,767.9189 262.7188,767.7158 Q262.5156,767.5283 262.4063,767.0127 Q262.3594,766.6533 262.1719,766.4658 Q261.8438,766.0908 261.2344,765.8721 Q260.625,765.6533 260,765.6533 Q259.2344,765.6533 258.5938,765.9814 Q257.9688,766.3096 257.4688,767.0596 Q256.9844,767.8096 256.9844,768.8408 L256.9844,769.9346 Q256.9844,771.1689 257.875,771.9971 Q258.7656,772.8096 260.3594,772.8096 Q261.2969,772.8096 261.9531,772.5596 Q262.3438,772.4033 262.7656,771.9658 Q263.0313,771.7002 263.1719,771.6221 Q263.3281,771.5439 263.5313,771.5439 Q263.8594,771.5439 264.1094,771.8096 Q264.375,772.0596 264.375,772.4033 Q264.375,772.7471 264.0313,773.1533 Q263.5313,773.7314 262.7344,774.0596 Q261.6563,774.5127 260.3594,774.5127 Q258.8438,774.5127 257.6406,773.8877 Q256.6563,773.3877 255.9688,772.3252 Q255.2813,771.2471 255.2813,769.9658 L255.2813,768.8096 Q255.2813,767.4814 255.8906,766.3408 Q256.5156,765.1846 257.6094,764.5752 Q258.7031,763.9502 259.9375,763.9502 Q260.6719,763.9502 261.3125,764.1221 Q261.9688,764.2783 262.5156,764.6377 Z " fill="#000000"/><text fill="#000000" font-family="sans-serif" font-size="14" lengthAdjust="spacing" textLength="55" x="280.25" y="774.5596">EntryDto</text><line style="stroke:#181818;stroke-width:0.5;" x1="198" x2="385" y1="784.7627" y2="784.7627"/><text fill="#000000" font-family="sans-serif" font-size="14" lengthAdjust="spacing" textLength="92" x="203" y="803.8701">+timeExpected</text><line style="stroke:#181818;stroke-width:0.5;" x1="198" x2="385" y1="811.3838" y2="811.3838"/><text fill="#000000" font-family="sans-serif" font-size="14" lengthAdjust="spacing" textLength="152" x="203" y="830.4912">-setStartDate(startDate)</text><text fill="#000000" font-family="sans-serif" font-size="14" lengthAdjust="spacing" textLength="177" x="203" y="849.1123">+setEntryAgenda(startDate)</text></g><!--class TaskDto--><g id="elem_TaskDto"><rect codeLine="80" fill="#F1F1F1" height="85.2422" id="TaskDto" rx="2.5" ry="2.5" style="stroke:#181818;stroke-width:0.5;" width="149" x="217" y="935.7627"/><ellipse cx="260.8" cy="951.7627" fill="#ADD1B2" rx="11" ry="11" style="stroke:#181818;stroke-width:1.0;"/><path d="M263.5656,947.6377 Q263.7219,947.4189 263.9094,947.3096 Q264.0969,947.2002 264.3156,947.2002 Q264.6906,947.2002 264.925,947.4658 Q265.1594,947.7158 265.1594,948.3252 L265.1594,949.7783 Q265.1594,950.3877 264.925,950.6533 Q264.6906,950.9189 264.3156,950.9189 Q263.9719,950.9189 263.7688,950.7158 Q263.5656,950.5283 263.4563,950.0127 Q263.4094,949.6533 263.2219,949.4658 Q262.8938,949.0908 262.2844,948.8721 Q261.675,948.6533 261.05,948.6533 Q260.2844,948.6533 259.6438,948.9814 Q259.0188,949.3096 258.5188,950.0596 Q258.0344,950.8096 258.0344,951.8408 L258.0344,952.9346 Q258.0344,954.1689 258.925,954.9971 Q259.8156,955.8096 261.4094,955.8096 Q262.3469,955.8096 263.0031,955.5596 Q263.3938,955.4033 263.8156,954.9658 Q264.0813,954.7002 264.2219,954.6221 Q264.3781,954.5439 264.5813,954.5439 Q264.9094,954.5439 265.1594,954.8096 Q265.425,955.0596 265.425,955.4033 Q265.425,955.7471 265.0813,956.1533 Q264.5813,956.7314 263.7844,957.0596 Q262.7063,957.5127 261.4094,957.5127 Q259.8938,957.5127 258.6906,956.8877 Q257.7063,956.3877 257.0188,955.3252 Q256.3313,954.2471 256.3313,952.9658 L256.3313,951.8096 Q256.3313,950.4814 256.9406,949.3408 Q257.5656,948.1846 258.6594,947.5752 Q259.7531,946.9502 260.9875,946.9502 Q261.7219,946.9502 262.3625,947.1221 Q263.0188,947.2783 263.5656,947.6377 Z " fill="#000000"/><text fill="#000000" font-family="sans-serif" font-size="14" lengthAdjust="spacing" textLength="53" x="281.2" y="957.5596">TaskDto</text><line style="stroke:#181818;stroke-width:0.5;" x1="218" x2="365" y1="967.7627" y2="967.7627"/><text fill="#000000" font-family="sans-serif" font-size="14" lengthAdjust="spacing" textLength="85" x="223" y="986.8701">-GreenSpace</text><text fill="#000000" font-family="sans-serif" font-size="14" lengthAdjust="spacing" textLength="137" x="223" y="1005.4912">-Integer timeExpected</text><line style="stroke:#181818;stroke-width:0.5;" x1="218" x2="365" y1="1013.0049" y2="1013.0049"/></g><!--class UserSession--><g id="elem_UserSession"><rect fill="#F1F1F1" height="48" id="UserSession" rx="2.5" ry="2.5" style="stroke:#181818;stroke-width:0.5;" width="111" x="376" y="322.2627"/><ellipse cx="391" cy="338.2627" fill="#ADD1B2" rx="11" ry="11" style="stroke:#181818;stroke-width:1.0;"/><path d="M393.7656,334.1377 Q393.9219,333.9189 394.1094,333.8096 Q394.2969,333.7002 394.5156,333.7002 Q394.8906,333.7002 395.125,333.9658 Q395.3594,334.2158 395.3594,334.8252 L395.3594,336.2783 Q395.3594,336.8877 395.125,337.1533 Q394.8906,337.4189 394.5156,337.4189 Q394.1719,337.4189 393.9688,337.2158 Q393.7656,337.0283 393.6563,336.5127 Q393.6094,336.1533 393.4219,335.9658 Q393.0938,335.5908 392.4844,335.3721 Q391.875,335.1533 391.25,335.1533 Q390.4844,335.1533 389.8438,335.4814 Q389.2188,335.8096 388.7188,336.5596 Q388.2344,337.3096 388.2344,338.3408 L388.2344,339.4346 Q388.2344,340.6689 389.125,341.4971 Q390.0156,342.3096 391.6094,342.3096 Q392.5469,342.3096 393.2031,342.0596 Q393.5938,341.9033 394.0156,341.4658 Q394.2813,341.2002 394.4219,341.1221 Q394.5781,341.0439 394.7813,341.0439 Q395.1094,341.0439 395.3594,341.3096 Q395.625,341.5596 395.625,341.9033 Q395.625,342.2471 395.2813,342.6533 Q394.7813,343.2314 393.9844,343.5596 Q392.9063,344.0127 391.6094,344.0127 Q390.0938,344.0127 388.8906,343.3877 Q387.9063,342.8877 387.2188,341.8252 Q386.5313,340.7471 386.5313,339.4658 L386.5313,338.3096 Q386.5313,336.9814 387.1406,335.8408 Q387.7656,334.6846 388.8594,334.0752 Q389.9531,333.4502 391.1875,333.4502 Q391.9219,333.4502 392.5625,333.6221 Q393.2188,333.7783 393.7656,334.1377 Z " fill="#000000"/><text fill="#000000" font-family="sans-serif" font-size="14" lengthAdjust="spacing" textLength="79" x="405" y="344.0596">UserSession</text><line style="stroke:#181818;stroke-width:0.5;" x1="377" x2="486" y1="354.2627" y2="354.2627"/><line style="stroke:#181818;stroke-width:0.5;" x1="377" x2="486" y1="362.2627" y2="362.2627"/></g><!--link Repositories to Repositories--><g id="link_Repositories_Repositories"><path codeLine="86" d="M977.78,106.3627 C997.98,108.4527 1012.5,115.0927 1012.5,126.2627 C1012.5,137.4327 1003.9481,143.4552 983.7481,145.5452 " fill="none" id="Repositories-to-Repositories" style="stroke:#181818;stroke-width:1.0;"/><polygon fill="#181818" points="977.78,146.1627,987.1439,149.2152,982.7535,145.6481,986.3205,141.2577,977.78,146.1627" style="stroke:#181818;stroke-width:1.0;"/><text fill="#000000" font-family="sans-serif" font-size="13" lengthAdjust="spacing" textLength="49" x="1018.5" y="131.791">instance</text></g><!--link AssignEntryOnAgendaUI to AssignEntryOnAgendaController--><g id="link_AssignEntryOnAgendaUI_AssignEntryOnAgendaController"><path codeLine="88" d="M194.28,126.2627 C203.3,126.2627 210.38,126.2627 222.86,126.2627 " fill="none" id="AssignEntryOnAgendaUI-to-AssignEntryOnAgendaController" style="stroke:#181818;stroke-width:1.0;stroke-dasharray:7.0,7.0;"/><polygon fill="#181818" points="228.86,126.2627,219.86,122.2627,223.86,126.2627,219.86,130.2627,228.86,126.2627" style="stroke:#181818;stroke-width:1.0;"/></g><!--link AssignEntryOnAgendaController to Repositories--><g id="link_AssignEntryOnAgendaController_Repositories"><path codeLine="90" d="M466.28,64.6927 C476.76,59.2627 483.5,55.7627 483.5,55.7627 C483.5,55.7627 590,24.7627 590,24.7627 C590,24.7627 659,24.7627 659,24.7627 C659,24.7627 765.5,55.7627 765.5,55.7627 C765.5,55.7627 773.2159,60.4848 790.2959,70.9648 " fill="none" id="AssignEntryOnAgendaController-to-Repositories" style="stroke:#181818;stroke-width:1.0;stroke-dasharray:7.0,7.0;"/><polygon fill="#181818" points="795.41,74.1027,789.8308,65.9865,791.1483,71.4878,785.647,72.8052,795.41,74.1027" style="stroke:#181818;stroke-width:1.0;"/><text fill="#000000" font-family="sans-serif" font-size="13" lengthAdjust="spacing" textLength="67" x="591" y="21.791">repositories</text></g><!--link Repositories to EntryRepository--><g id="link_Repositories_EntryRepository"><path codeLine="91" d="M814.85,178.3727 C774.12,210.0927 726.2946,247.3271 683.4146,280.7071 " fill="none" id="Repositories-to-EntryRepository" style="stroke:#181818;stroke-width:1.0;"/><polygon fill="#181818" points="678.68,284.3927,688.2389,282.0206,682.6255,281.3213,683.3248,275.7079,678.68,284.3927" style="stroke:#181818;stroke-width:1.0;"/><text fill="#000000" font-family="sans-serif" font-size="13" lengthAdjust="spacing" textLength="7" x="798.9902" y="200.1941">1</text><text fill="#000000" font-family="sans-serif" font-size="13" lengthAdjust="spacing" textLength="7" x="686.4651" y="274.7227">1</text></g><!--link EntryRepository to EntryMapper--><g id="link_EntryRepository_EntryMapper"><path codeLine="93" d="M522.11,404.0127 C511.68,411.5627 504.5,416.7627 504.5,416.7627 C504.5,416.7627 419.5,446.7627 419.5,446.7627 C419.5,446.7627 379.6461,489.4184 343.2561,528.3684 " fill="none" id="EntryRepository-to-EntryMapper" style="stroke:#181818;stroke-width:1.0;stroke-dasharray:7.0,7.0;"/><polygon fill="#181818" points="339.16,532.7527,348.227,528.907,342.5734,529.0991,342.3813,523.4455,339.16,532.7527" style="stroke:#181818;stroke-width:1.0;"/></g><!--link EntryMapper to EntryDto--><g id="link_EntryMapper_EntryDto"><path codeLine="95" d="M291.5,636.8727 C291.5,671.7327 291.5,711.7227 291.5,746.5927 " fill="none" id="EntryMapper-to-EntryDto" style="stroke:#181818;stroke-width:1.0;"/><polygon fill="#181818" points="291.5,752.5927,295.5,743.5927,291.5,747.5927,287.5,743.5927,291.5,752.5927" style="stroke:#181818;stroke-width:1.0;"/></g><!--link EntryDto to TaskDto--><g id="link_EntryDto_TaskDto"><path codeLine="97" d="M291.5,857.2227 C291.5,882.2827 291.5,912.0227 291.5,935.6227 " fill="none" id="EntryDto-TaskDto" style="stroke:#181818;stroke-width:1.0;"/><text fill="#000000" font-family="sans-serif" font-size="13" lengthAdjust="spacing" textLength="46" x="292.5" y="901.791">extends</text></g><!--link AssignEntryOnAgendaController to EntryRepository--><g id="link_AssignEntryOnAgendaController_EntryRepository"><path codeLine="100" d="M428.25,196.8427 C458.33,222.7527 487.8439,248.1969 517.7039,273.9169 " fill="none" id="AssignEntryOnAgendaController-to-EntryRepository" style="stroke:#181818;stroke-width:1.0;stroke-dasharray:7.0,7.0;"/><polygon fill="#181818" points="522.25,277.8327,518.0414,268.9283,518.4616,274.5696,512.8204,274.9898,522.25,277.8327" style="stroke:#181818;stroke-width:1.0;"/><text fill="#000000" font-family="sans-serif" font-size="13" lengthAdjust="spacing" textLength="93" x="483.5" y="241.791">EntryRepository</text></g><!--link AssignEntryOnAgendaController to EntryMapper--><g id="link_AssignEntryOnAgendaController_EntryMapper"><path codeLine="101" d="M316.9,197.1627 C300.04,235.6827 282.5,275.7627 282.5,275.7627 C282.5,275.7627 282.5,416.7627 282.5,416.7627 C282.5,416.7627 285.7767,477.6514 288.4267,526.7614 " fill="none" id="AssignEntryOnAgendaController-to-EntryMapper" style="stroke:#181818;stroke-width:1.0;stroke-dasharray:7.0,7.0;"/><polygon fill="#181818" points="288.75,532.7527,292.2593,523.5502,288.4806,527.76,284.2709,523.9813,288.75,532.7527" style="stroke:#181818;stroke-width:1.0;"/><text fill="#000000" font-family="sans-serif" font-size="13" lengthAdjust="spacing" textLength="74" x="283.5" y="351.791">EntryMapper</text></g><!--link AssignEntryOnAgendaController to UserSession--><g id="link_AssignEntryOnAgendaController_UserSession"><path codeLine="103" d="M374.31,196.8427 C390.92,239.9527 409.043,286.9838 420.443,316.5738 " fill="none" id="AssignEntryOnAgendaController-to-UserSession" style="stroke:#181818;stroke-width:1.0;stroke-dasharray:7.0,7.0;"/><polygon fill="#181818" points="422.6,322.1727,423.097,312.3364,420.8025,317.507,415.6319,315.2124,422.6,322.1727" style="stroke:#181818;stroke-width:1.0;"/></g><!--link EntryRepository to Entry--><g id="link_EntryRepository_Entry"><path codeLine="104" d="M678.87,390.3627 C751.18,430.1327 853.4327,486.3812 930.5227,528.7812 " fill="none" id="EntryRepository-to-Entry" style="stroke:#181818;stroke-width:1.0;"/><polygon fill="#181818" points="935.78,531.6727,929.8218,523.8305,931.3989,529.2631,925.9664,530.8402,935.78,531.6727" style="stroke:#181818;stroke-width:1.0;"/><text fill="#000000" font-family="sans-serif" font-size="13" lengthAdjust="spacing" textLength="38" x="816.5" y="461.791">entry's</text><text fill="#000000" font-family="sans-serif" font-size="13" lengthAdjust="spacing" textLength="7" x="686.4174" y="390.6814">1</text><text fill="#000000" font-family="sans-serif" font-size="13" lengthAdjust="spacing" textLength="5" x="923.0328" y="523.7908">*</text></g><!--link EntryRepository to GSM--><g id="link_EntryRepository_GSM"><path codeLine="105" d="M536.01,417.1627 C500.48,455.6827 463.5,495.7627 463.5,495.7627 C463.5,495.7627 463.5,673.7627 463.5,673.7627 C463.5,673.7627 536.9185,739.1431 578.9185,776.5331 " fill="none" id="EntryRepository-to-GSM" style="stroke:#181818;stroke-width:1.0;"/><polygon fill="#181818" points="583.4,780.5227,579.3375,771.5507,579.6655,777.1981,574.0181,777.526,583.4,780.5227" style="stroke:#181818;stroke-width:1.0;"/><text fill="#000000" font-family="sans-serif" font-size="13" lengthAdjust="spacing" textLength="49" x="464.5" y="590.291">employs</text><text fill="#000000" font-family="sans-serif" font-size="13" lengthAdjust="spacing" textLength="5" x="571.4287" y="769.6061">*</text></g><!--link Entry to GSM--><g id="link_Entry_GSM"><path codeLine="106" d="M935.58,637.9727 C901.12,656.9227 870.5,673.7627 870.5,673.7627 C870.5,673.7627 716.1706,750.6274 646.6106,785.2774 " fill="none" id="Entry-to-GSM" style="stroke:#181818;stroke-width:1.0;"/><polygon fill="#181818" points="641.24,787.9527,651.0794,787.5202,645.7155,785.7233,647.5124,780.3594,641.24,787.9527" style="stroke:#181818;stroke-width:1.0;"/><text fill="#000000" font-family="sans-serif" font-size="13" lengthAdjust="spacing" textLength="49" x="807.5" y="718.791">employs</text><text fill="#000000" font-family="sans-serif" font-size="13" lengthAdjust="spacing" textLength="5" x="649.158" y="779.1617">*</text></g><!--reverse link Task to Entry--><g id="link_Task_Entry"><path codeLine="107" d="M859.09,584.7627 C885.06,584.7627 908.56,584.7627 935.95,584.7627 " fill="none" id="Task-backto-Entry" style="stroke:#181818;stroke-width:1.0;"/><polygon fill="#181818" points="853.09,584.7627,862.09,588.7627,858.09,584.7627,862.09,580.7627,853.09,584.7627" style="stroke:#181818;stroke-width:1.0;"/><text fill="#000000" font-family="sans-serif" font-size="13" lengthAdjust="spacing" textLength="46" x="871.5" y="577.791">extends</text><text fill="#000000" font-family="sans-serif" font-size="13" lengthAdjust="spacing" textLength="7" x="861.143" y="580.917">1</text><text fill="#000000" font-family="sans-serif" font-size="13" lengthAdjust="spacing" textLength="7" x="921.1366" y="581.1114">1</text></g><!--SRC=[hLN1Rjim3BthAuHUacn8i5s3843GTaM05GEMT7VLPcoXicX8pDgiwB-FTcHRiPDsX-LYINmY7v_ua95_qhPKJXMoG8j9xh00IMuFeekKAdbI6MpeO40wI4ZPpCG0dwiKdxNDv4uP7qUCja274cI9vb1jnEXC41sXY6ubHdc_8dBwSK-mJj1kz1-GNuGO6TYH99HEPpd9L5TqD5eXH7r9tctkvQjuQ_Utbjo1JoJ_flAxzhJu1RbE3FXbEDo2Ai9oGyhHZIBezhJtzURpCTLu4a8Ug4MFVREQ12n7Q_Wg0vkgEFxMCDig_zJmkdC0TiCwDuNNbY039qaNSFjISfEGzhlw2ILwJTZhJoxgw5BEMQSRh8xEHrNDJGJ66T0smCUJxYmqqE_hXsq37QkMa0RVKeeFuyHhowBO1COJfXA3EaYlot4atifxdTaJAjV8EpI6LMjgzsLoxJ8KUJTDp7OWZHhUR4U3yJo6tzXA6s0OsYDpYmHXRd7tVkcG2EhXrLwg9DVm6rBvh2aFnr4pV5bMsKEDHoJ2eYhI4o2atNlEj4F7zl6bKGSsRXsX72fhfSZEvA7fibxK_65zD5iqbVUgBC6T6Au-lo5S1kq8xp45qsh9OqeOlsvpuRK1n2xuZ_PhIqpx1hpelvCPdovFPtukTPXg8SwhDLj-yF3Y_ScU3Igws3ediQklLtBA5AjlVn14tnfongdZ5moGuwREqxnAYF2AZniTcGcy4BFruiCUPik1C-S3Xl-O8_2RdrB_-FA31nVSET2Y5UvJ4AvghlgE_03RuAh_7KOLfS53G5s8LOBL9HRJxcbY-Vu2]--></g></svg>