<?xml version="1.0" encoding="us-ascii" standalone="no"?><svg xmlns="http://www.w3.org/2000/svg" xmlns:xlink="http://www.w3.org/1999/xlink" contentStyleType="text/css" height="1574px" preserveAspectRatio="none" style="width:1913px;height:1574px;background:#FFFFFF;" version="1.1" viewBox="0 0 1913 1574" width="1913px" zoomAndPan="magnify"><defs/><g><rect fill="#FFFFFF" height="1379.7578" style="stroke:#181818;stroke-width:1.0;" width="10" x="18.5" y="93.6211"/><rect fill="#FFFFFF" height="722.8496" style="stroke:#181818;stroke-width:1.0;" width="10" x="323.5" y="116.9121"/><rect fill="#FFFFFF" height="31.291" style="stroke:#181818;stroke-width:1.0;" width="10" x="323.5" y="871.0527"/><rect fill="#FFFFFF" height="539.7441" style="stroke:#181818;stroke-width:1.0;" width="10" x="323.5" y="933.6348"/><rect fill="#FFFFFF" height="616.6465" style="stroke:#181818;stroke-width:1.0;" width="10" x="557.5" y="191.8242"/><rect fill="#FFFFFF" height="371.5801" style="stroke:#181818;stroke-width:1.0;" width="10" x="557.5" y="1070.5078"/><rect fill="#FFFFFF" height="31.291" style="stroke:#181818;stroke-width:1.0;" width="10" x="727.5" y="223.1152"/><rect fill="#FFFFFF" height="31.291" style="stroke:#181818;stroke-width:1.0;" width="10" x="834.5" y="285.6973"/><rect fill="#FFFFFF" height="112.2031" style="stroke:#181818;stroke-width:1.0;" width="10" x="952.5" y="348.2793"/><rect fill="#FFFFFF" height="308.998" style="stroke:#181818;stroke-width:1.0;" width="10" x="952.5" y="1101.7988"/><rect fill="#FFFFFF" height="67.291" style="stroke:#181818;stroke-width:1.0;" width="10" x="1058.5" y="1273.9238"/><rect fill="#FFFFFF" height="28" style="stroke:#181818;stroke-width:1.0;" width="10" x="1063.5" y="1313.2148"/><rect fill="#FFFFFF" height="67.291" style="stroke:#181818;stroke-width:1.0;" width="10" x="1234.5" y="964.9258"/><rect fill="#FFFFFF" height="28" style="stroke:#181818;stroke-width:1.0;" width="10" x="1239.5" y="1004.2168"/><rect fill="#FFFFFF" height="30" style="stroke:#181818;stroke-width:1.0;" width="10" x="1234.5" y="1212.6328"/><rect fill="#FFFFFF" height="285.4063" style="stroke:#181818;stroke-width:1.0;" width="10" x="1431.5" y="491.7734"/><rect fill="#FFFFFF" height="36.291" style="stroke:#181818;stroke-width:1.0;" width="10" x="1436.5" y="635.9766"/><rect fill="#FFFFFF" height="198.1641" style="stroke:#181818;stroke-width:1.0;" width="10" x="1431.5" y="1181.3418"/><rect fill="#FFFFFF" height="30" style="stroke:#181818;stroke-width:1.0;" width="10" x="1619" y="715.8887"/><rect fill="#FFFFFF" height="30" style="stroke:#181818;stroke-width:1.0;" width="10" x="1800" y="566.6855"/><line style="stroke:#181818;stroke-width:0.5;stroke-dasharray:5.0,5.0;" x1="23" x2="23" y1="83.6211" y2="1491.3789"/><line style="stroke:#181818;stroke-width:0.5;stroke-dasharray:5.0,5.0;" x1="328" x2="328" y1="83.6211" y2="1491.3789"/><line style="stroke:#181818;stroke-width:0.5;stroke-dasharray:5.0,5.0;" x1="562" x2="562" y1="156.7227" y2="1491.3789"/><line style="stroke:#181818;stroke-width:0.5;stroke-dasharray:5.0,5.0;" x1="732" x2="732" y1="83.6211" y2="1491.3789"/><line style="stroke:#181818;stroke-width:0.5;stroke-dasharray:5.0,5.0;" x1="839" x2="839" y1="83.6211" y2="1491.3789"/><line style="stroke:#181818;stroke-width:0.5;stroke-dasharray:5.0,5.0;" x1="957" x2="957" y1="83.6211" y2="1491.3789"/><line style="stroke:#181818;stroke-width:0.5;stroke-dasharray:5.0,5.0;" x1="1063" x2="1063" y1="83.6211" y2="1491.3789"/><line style="stroke:#181818;stroke-width:0.5;stroke-dasharray:5.0,5.0;" x1="1239" x2="1239" y1="680.7871" y2="1491.3789"/><line style="stroke:#181818;stroke-width:0.5;stroke-dasharray:5.0,5.0;" x1="1436" x2="1436" y1="83.6211" y2="1491.3789"/><line style="stroke:#181818;stroke-width:0.5;stroke-dasharray:5.0,5.0;" x1="1623.5" x2="1623.5" y1="531.584" y2="1491.3789"/><line style="stroke:#181818;stroke-width:0.5;stroke-dasharray:5.0,5.0;" x1="1804.5" x2="1804.5" y1="388.0898" y2="1491.3789"/><text fill="#000000" font-family="sans-serif" font-size="14" lengthAdjust="spacing" textLength="31" x="5" y="80.1074">GSM</text><ellipse cx="23.5" cy="13.5" fill="#E3E3E3" rx="8" ry="8" style="stroke:#181818;stroke-width:0.5;"/><path d="M23.5,21.5 L23.5,48.5 M10.5,29.5 L36.5,29.5 M23.5,48.5 L10.5,63.5 M23.5,48.5 L36.5,63.5 " fill="none" style="stroke:#181818;stroke-width:0.5;"/><text fill="#000000" font-family="sans-serif" font-size="14" lengthAdjust="spacing" textLength="31" x="5" y="1505.4863">GSM</text><ellipse cx="23.5" cy="1517.5" fill="#E3E3E3" rx="8" ry="8" style="stroke:#181818;stroke-width:0.5;"/><path d="M23.5,1525.5 L23.5,1552.5 M10.5,1533.5 L36.5,1533.5 M23.5,1552.5 L10.5,1567.5 M23.5,1552.5 L36.5,1567.5 " fill="none" style="stroke:#181818;stroke-width:0.5;"/><rect fill="#E3E3E3" height="32.6211" rx="2.5" ry="2.5" style="stroke:#181818;stroke-width:0.5;" width="173" x="242" y="50"/><text fill="#000000" font-family="sans-serif" font-size="14" lengthAdjust="spacing" textLength="159" x="249" y="72.1074">:AssignEntryOnAgendaUI</text><rect fill="#E3E3E3" height="32.6211" rx="2.5" ry="2.5" style="stroke:#181818;stroke-width:0.5;" width="173" x="242" y="1490.3789"/><text fill="#000000" font-family="sans-serif" font-size="14" lengthAdjust="spacing" textLength="159" x="249" y="1512.4863">:AssignEntryOnAgendaUI</text><rect fill="#E3E3E3" height="32.6211" rx="2.5" ry="2.5" style="stroke:#181818;stroke-width:0.5;" width="223" x="451" y="1490.3789"/><text fill="#000000" font-family="sans-serif" font-size="14" lengthAdjust="spacing" textLength="209" x="458" y="1512.4863">:AssignEntryOnAgendaController</text><rect fill="#E3E3E3" height="32.6211" rx="2.5" ry="2.5" style="stroke:#181818;stroke-width:0.5;" width="97" x="684" y="50"/><text fill="#000000" font-family="sans-serif" font-size="14" lengthAdjust="spacing" textLength="83" x="691" y="72.1074">:Repositories</text><rect fill="#E3E3E3" height="32.6211" rx="2.5" ry="2.5" style="stroke:#181818;stroke-width:0.5;" width="97" x="684" y="1490.3789"/><text fill="#000000" font-family="sans-serif" font-size="14" lengthAdjust="spacing" textLength="83" x="691" y="1512.4863">:Repositories</text><rect fill="#E3E3E3" height="51.2422" rx="2.5" ry="2.5" style="stroke:#181818;stroke-width:0.5;" width="97" x="791" y="31.3789"/><text fill="#000000" font-family="sans-serif" font-size="14" lengthAdjust="spacing" textLength="74" x="802.5" y="53.4863">repositories</text><text fill="#000000" font-family="sans-serif" font-size="14" lengthAdjust="spacing" textLength="83" x="798" y="72.1074">:Repositories</text><rect fill="#E3E3E3" height="51.2422" rx="2.5" ry="2.5" style="stroke:#181818;stroke-width:0.5;" width="97" x="791" y="1490.3789"/><text fill="#000000" font-family="sans-serif" font-size="14" lengthAdjust="spacing" textLength="74" x="802.5" y="1512.4863">repositories</text><text fill="#000000" font-family="sans-serif" font-size="14" lengthAdjust="spacing" textLength="83" x="798" y="1531.1074">:Repositories</text><rect fill="#E3E3E3" height="51.2422" rx="2.5" ry="2.5" style="stroke:#181818;stroke-width:0.5;" width="119" x="898" y="31.3789"/><text fill="#000000" font-family="sans-serif" font-size="14" lengthAdjust="spacing" textLength="100" x="907.5" y="53.4863">entryRepository</text><text fill="#000000" font-family="sans-serif" font-size="14" lengthAdjust="spacing" textLength="105" x="905" y="72.1074">:EntryRepository</text><rect fill="#E3E3E3" height="51.2422" rx="2.5" ry="2.5" style="stroke:#181818;stroke-width:0.5;" width="119" x="898" y="1490.3789"/><text fill="#000000" font-family="sans-serif" font-size="14" lengthAdjust="spacing" textLength="100" x="907.5" y="1512.4863">entryRepository</text><text fill="#000000" font-family="sans-serif" font-size="14" lengthAdjust="spacing" textLength="105" x="905" y="1531.1074">:EntryRepository</text><rect fill="#E3E3E3" height="32.6211" rx="2.5" ry="2.5" style="stroke:#181818;stroke-width:0.5;" width="51" x="1038" y="50"/><text fill="#000000" font-family="sans-serif" font-size="14" lengthAdjust="spacing" textLength="37" x="1045" y="72.1074">:Entry</text><rect fill="#E3E3E3" height="32.6211" rx="2.5" ry="2.5" style="stroke:#181818;stroke-width:0.5;" width="51" x="1038" y="1490.3789"/><text fill="#000000" font-family="sans-serif" font-size="14" lengthAdjust="spacing" textLength="37" x="1045" y="1512.4863">:Entry</text><rect fill="#E3E3E3" height="32.6211" rx="2.5" ry="2.5" style="stroke:#181818;stroke-width:0.5;" width="73" x="1203" y="1490.3789"/><text fill="#000000" font-family="sans-serif" font-size="14" lengthAdjust="spacing" textLength="59" x="1210" y="1512.4863">:EntryDto</text><rect fill="#E3E3E3" height="32.6211" rx="2.5" ry="2.5" style="stroke:#181818;stroke-width:0.5;" width="99" x="1387" y="50"/><text fill="#000000" font-family="sans-serif" font-size="14" lengthAdjust="spacing" textLength="85" x="1394" y="72.1074">:EntryMapper</text><rect fill="#E3E3E3" height="32.6211" rx="2.5" ry="2.5" style="stroke:#181818;stroke-width:0.5;" width="99" x="1387" y="1490.3789"/><text fill="#000000" font-family="sans-serif" font-size="14" lengthAdjust="spacing" textLength="85" x="1394" y="1512.4863">:EntryMapper</text><rect fill="#E3E3E3" height="32.6211" rx="2.5" ry="2.5" style="stroke:#181818;stroke-width:0.5;" width="193" x="1527.5" y="1490.3789"/><text fill="#000000" font-family="sans-serif" font-size="14" lengthAdjust="spacing" textLength="179" x="1534.5" y="1512.4863">toDoListDto : List&lt;EntryDto&gt;</text><rect fill="#E3E3E3" height="32.6211" rx="2.5" ry="2.5" style="stroke:#181818;stroke-width:0.5;" width="149" x="1730.5" y="1490.3789"/><text fill="#000000" font-family="sans-serif" font-size="14" lengthAdjust="spacing" textLength="135" x="1737.5" y="1512.4863">toDoList : List&lt;Entry&gt;</text><rect fill="#FFFFFF" height="1379.7578" style="stroke:#181818;stroke-width:1.0;" width="10" x="18.5" y="93.6211"/><rect fill="#FFFFFF" height="722.8496" style="stroke:#181818;stroke-width:1.0;" width="10" x="323.5" y="116.9121"/><rect fill="#FFFFFF" height="31.291" style="stroke:#181818;stroke-width:1.0;" width="10" x="323.5" y="871.0527"/><rect fill="#FFFFFF" height="539.7441" style="stroke:#181818;stroke-width:1.0;" width="10" x="323.5" y="933.6348"/><rect fill="#FFFFFF" height="616.6465" style="stroke:#181818;stroke-width:1.0;" width="10" x="557.5" y="191.8242"/><rect fill="#FFFFFF" height="371.5801" style="stroke:#181818;stroke-width:1.0;" width="10" x="557.5" y="1070.5078"/><rect fill="#FFFFFF" height="31.291" style="stroke:#181818;stroke-width:1.0;" width="10" x="727.5" y="223.1152"/><rect fill="#FFFFFF" height="31.291" style="stroke:#181818;stroke-width:1.0;" width="10" x="834.5" y="285.6973"/><rect fill="#FFFFFF" height="112.2031" style="stroke:#181818;stroke-width:1.0;" width="10" x="952.5" y="348.2793"/><rect fill="#FFFFFF" height="308.998" style="stroke:#181818;stroke-width:1.0;" width="10" x="952.5" y="1101.7988"/><rect fill="#FFFFFF" height="67.291" style="stroke:#181818;stroke-width:1.0;" width="10" x="1058.5" y="1273.9238"/><rect fill="#FFFFFF" height="28" style="stroke:#181818;stroke-width:1.0;" width="10" x="1063.5" y="1313.2148"/><rect fill="#FFFFFF" height="67.291" style="stroke:#181818;stroke-width:1.0;" width="10" x="1234.5" y="964.9258"/><rect fill="#FFFFFF" height="28" style="stroke:#181818;stroke-width:1.0;" width="10" x="1239.5" y="1004.2168"/><rect fill="#FFFFFF" height="30" style="stroke:#181818;stroke-width:1.0;" width="10" x="1234.5" y="1212.6328"/><rect fill="#FFFFFF" height="285.4063" style="stroke:#181818;stroke-width:1.0;" width="10" x="1431.5" y="491.7734"/><rect fill="#FFFFFF" height="36.291" style="stroke:#181818;stroke-width:1.0;" width="10" x="1436.5" y="635.9766"/><rect fill="#FFFFFF" height="198.1641" style="stroke:#181818;stroke-width:1.0;" width="10" x="1431.5" y="1181.3418"/><rect fill="#FFFFFF" height="30" style="stroke:#181818;stroke-width:1.0;" width="10" x="1619" y="715.8887"/><rect fill="#FFFFFF" height="30" style="stroke:#181818;stroke-width:1.0;" width="10" x="1800" y="566.6855"/><polygon fill="#181818" points="311.5,112.9121,321.5,116.9121,311.5,120.9121,315.5,116.9121" style="stroke:#181818;stroke-width:1.0;"/><line style="stroke:#181818;stroke-width:1.0;" x1="28.5" x2="317.5" y1="116.9121" y2="116.9121"/><text fill="#000000" font-family="sans-serif" font-size="13" font-weight="bold" lengthAdjust="spacing" textLength="7" x="35.5" y="111.6494">1</text><text fill="#000000" font-family="sans-serif" font-size="13" lengthAdjust="spacing" textLength="200" x="46.5" y="111.6494">asks to assign an Entry in Agenda</text><polygon fill="#181818" points="439,144.2031,449,148.2031,439,152.2031,443,148.2031" style="stroke:#181818;stroke-width:1.0;"/><line style="stroke:#181818;stroke-width:1.0;" x1="333.5" x2="445" y1="148.2031" y2="148.2031"/><text fill="#000000" font-family="sans-serif" font-size="13" font-weight="bold" lengthAdjust="spacing" textLength="7" x="340.5" y="142.9404">2</text><text fill="#000000" font-family="sans-serif" font-size="13" lengthAdjust="spacing" textLength="36" x="351.5" y="142.9404">create</text><rect fill="#E3E3E3" height="32.6211" rx="2.5" ry="2.5" style="stroke:#181818;stroke-width:0.5;" width="223" x="451" y="124.9121"/><text fill="#000000" font-family="sans-serif" font-size="14" lengthAdjust="spacing" textLength="209" x="458" y="147.0195">:AssignEntryOnAgendaController</text><polygon fill="#181818" points="545.5,187.8242,555.5,191.8242,545.5,195.8242,549.5,191.8242" style="stroke:#181818;stroke-width:1.0;"/><line style="stroke:#181818;stroke-width:1.0;" x1="333.5" x2="551.5" y1="191.8242" y2="191.8242"/><text fill="#000000" font-family="sans-serif" font-size="13" font-weight="bold" lengthAdjust="spacing" textLength="7" x="340.5" y="186.5615">3</text><text fill="#000000" font-family="sans-serif" font-size="13" lengthAdjust="spacing" textLength="77" x="351.5" y="186.5615">getToDoList()</text><polygon fill="#181818" points="715.5,219.1152,725.5,223.1152,715.5,227.1152,719.5,223.1152" style="stroke:#181818;stroke-width:1.0;"/><line style="stroke:#181818;stroke-width:1.0;" x1="567.5" x2="721.5" y1="223.1152" y2="223.1152"/><text fill="#000000" font-family="sans-serif" font-size="13" font-weight="bold" lengthAdjust="spacing" textLength="7" x="574.5" y="217.8525">4</text><text fill="#000000" font-family="sans-serif" font-size="13" lengthAdjust="spacing" textLength="75" x="585.5" y="217.8525">getInstance()</text><polygon fill="#181818" points="578.5,250.4063,568.5,254.4063,578.5,258.4063,574.5,254.4063" style="stroke:#181818;stroke-width:1.0;"/><line style="stroke:#181818;stroke-width:1.0;stroke-dasharray:2.0,2.0;" x1="572.5" x2="731.5" y1="254.4063" y2="254.4063"/><text fill="#000000" font-family="sans-serif" font-size="13" font-weight="bold" lengthAdjust="spacing" textLength="7" x="584.5" y="249.1436">5</text><text fill="#000000" font-family="sans-serif" font-size="13" lengthAdjust="spacing" textLength="67" x="595.5" y="249.1436">repositories</text><polygon fill="#181818" points="822.5,281.6973,832.5,285.6973,822.5,289.6973,826.5,285.6973" style="stroke:#181818;stroke-width:1.0;"/><line style="stroke:#181818;stroke-width:1.0;" x1="567.5" x2="828.5" y1="285.6973" y2="285.6973"/><text fill="#000000" font-family="sans-serif" font-size="13" font-weight="bold" lengthAdjust="spacing" textLength="7" x="574.5" y="280.4346">6</text><text fill="#000000" font-family="sans-serif" font-size="13" lengthAdjust="spacing" textLength="119" x="585.5" y="280.4346">getEntryRepository()</text><polygon fill="#181818" points="578.5,312.9883,568.5,316.9883,578.5,320.9883,574.5,316.9883" style="stroke:#181818;stroke-width:1.0;"/><line style="stroke:#181818;stroke-width:1.0;" x1="572.5" x2="838.5" y1="316.9883" y2="316.9883"/><text fill="#000000" font-family="sans-serif" font-size="13" font-weight="bold" lengthAdjust="spacing" textLength="7" x="584.5" y="311.7256">7</text><text fill="#000000" font-family="sans-serif" font-size="13" lengthAdjust="spacing" textLength="91" x="595.5" y="311.7256">entryRepository</text><polygon fill="#181818" points="940.5,344.2793,950.5,348.2793,940.5,352.2793,944.5,348.2793" style="stroke:#181818;stroke-width:1.0;"/><line style="stroke:#181818;stroke-width:1.0;" x1="567.5" x2="946.5" y1="348.2793" y2="348.2793"/><text fill="#000000" font-family="sans-serif" font-size="13" font-weight="bold" lengthAdjust="spacing" textLength="7" x="574.5" y="343.0166">8</text><text fill="#000000" font-family="sans-serif" font-size="13" lengthAdjust="spacing" textLength="77" x="585.5" y="343.0166">getToDoList()</text><polygon fill="#181818" points="1718.5,375.5703,1728.5,379.5703,1718.5,383.5703,1722.5,379.5703" style="stroke:#181818;stroke-width:1.0;"/><line style="stroke:#181818;stroke-width:1.0;" x1="962.5" x2="1724.5" y1="379.5703" y2="379.5703"/><text fill="#000000" font-family="sans-serif" font-size="13" font-weight="bold" lengthAdjust="spacing" textLength="7" x="969.5" y="374.3076">9</text><text fill="#000000" font-family="sans-serif" font-size="13" lengthAdjust="spacing" textLength="36" x="980.5" y="374.3076">create</text><rect fill="#E3E3E3" height="32.6211" rx="2.5" ry="2.5" style="stroke:#181818;stroke-width:0.5;" width="149" x="1730.5" y="356.2793"/><text fill="#000000" font-family="sans-serif" font-size="14" lengthAdjust="spacing" textLength="135" x="1737.5" y="378.3867">toDoList : List&lt;Entry&gt;</text><path d="M1704,404.9004 L1704,431.9004 L1906,431.9004 L1906,414.9004 L1896,404.9004 L1704,404.9004 " fill="#FAFAFA" style="stroke:#181818;stroke-width:0.5;"/><path d="M1896,404.9004 L1896,414.9004 L1906,414.9004 L1896,404.9004 " fill="#FAFAFA" style="stroke:#181818;stroke-width:0.5;"/><text fill="#000000" font-family="sans-serif" font-size="13" lengthAdjust="spacing" textLength="181" x="1710" y="423.9287">loop to populate loop is omitted</text><polygon fill="#181818" points="578.5,456.4824,568.5,460.4824,578.5,464.4824,574.5,460.4824" style="stroke:#181818;stroke-width:1.0;"/><line style="stroke:#181818;stroke-width:1.0;" x1="572.5" x2="956.5" y1="460.4824" y2="460.4824"/><text fill="#000000" font-family="sans-serif" font-size="13" font-weight="bold" lengthAdjust="spacing" textLength="14" x="584.5" y="455.2197">10</text><text fill="#000000" font-family="sans-serif" font-size="13" lengthAdjust="spacing" textLength="48" x="602.5" y="455.2197">toDoList</text><polygon fill="#181818" points="1419.5,487.7734,1429.5,491.7734,1419.5,495.7734,1423.5,491.7734" style="stroke:#181818;stroke-width:1.0;"/><line style="stroke:#181818;stroke-width:1.0;" x1="567.5" x2="1425.5" y1="491.7734" y2="491.7734"/><text fill="#000000" font-family="sans-serif" font-size="13" font-weight="bold" lengthAdjust="spacing" textLength="14" x="574.5" y="486.5107">11</text><text fill="#000000" font-family="sans-serif" font-size="13" lengthAdjust="spacing" textLength="87" x="592.5" y="486.5107">toDto(toDoList)</text><polygon fill="#181818" points="1515.5,519.0645,1525.5,523.0645,1515.5,527.0645,1519.5,523.0645" style="stroke:#181818;stroke-width:1.0;"/><line style="stroke:#181818;stroke-width:1.0;" x1="1441.5" x2="1521.5" y1="523.0645" y2="523.0645"/><text fill="#000000" font-family="sans-serif" font-size="13" font-weight="bold" lengthAdjust="spacing" textLength="14" x="1448.5" y="517.8018">12</text><text fill="#000000" font-family="sans-serif" font-size="13" lengthAdjust="spacing" textLength="44" x="1466.5" y="517.8018">create()</text><rect fill="#E3E3E3" height="32.6211" rx="2.5" ry="2.5" style="stroke:#181818;stroke-width:0.5;" width="193" x="1527.5" y="499.7734"/><text fill="#000000" font-family="sans-serif" font-size="14" lengthAdjust="spacing" textLength="179" x="1534.5" y="521.8809">toDoListDto : List&lt;EntryDto&gt;</text><polygon fill="#181818" points="1788,562.6855,1798,566.6855,1788,570.6855,1792,566.6855" style="stroke:#181818;stroke-width:1.0;"/><line style="stroke:#181818;stroke-width:1.0;" x1="1441.5" x2="1794" y1="566.6855" y2="566.6855"/><text fill="#000000" font-family="sans-serif" font-size="13" font-weight="bold" lengthAdjust="spacing" textLength="14" x="1448.5" y="561.4229">13</text><text fill="#000000" font-family="sans-serif" font-size="13" lengthAdjust="spacing" textLength="74" x="1466.5" y="561.4229">entry = get(i)</text><line style="stroke:#181818;stroke-width:1.0;" x1="1441.5" x2="1488.5" y1="622.9766" y2="622.9766"/><line style="stroke:#181818;stroke-width:1.0;" x1="1488.5" x2="1488.5" y1="622.9766" y2="635.9766"/><line style="stroke:#181818;stroke-width:1.0;" x1="1447.5" x2="1488.5" y1="635.9766" y2="635.9766"/><polygon fill="#181818" points="1457.5,631.9766,1447.5,635.9766,1457.5,639.9766,1453.5,635.9766" style="stroke:#181818;stroke-width:1.0;"/><text fill="#000000" font-family="sans-serif" font-size="13" font-weight="bold" lengthAdjust="spacing" textLength="14" x="1453.5" y="617.7139">14</text><text fill="#000000" font-family="sans-serif" font-size="13" lengthAdjust="spacing" textLength="139" x="1471.5" y="617.7139">entryDto = toDTO(entry)</text><polygon fill="#181818" points="1287,668.2676,1277,672.2676,1287,676.2676,1283,672.2676" style="stroke:#181818;stroke-width:1.0;"/><line style="stroke:#181818;stroke-width:1.0;" x1="1281" x2="1430.5" y1="672.2676" y2="672.2676"/><text fill="#000000" font-family="sans-serif" font-size="13" font-weight="bold" lengthAdjust="spacing" textLength="14" x="1293" y="667.0049">15</text><text fill="#000000" font-family="sans-serif" font-size="13" lengthAdjust="spacing" textLength="56" x="1311" y="667.0049">create(...)</text><rect fill="#E3E3E3" height="32.6211" rx="2.5" ry="2.5" style="stroke:#181818;stroke-width:0.5;" width="73" x="1203" y="648.9766"/><text fill="#000000" font-family="sans-serif" font-size="14" lengthAdjust="spacing" textLength="59" x="1210" y="671.084">:EntryDto</text><polygon fill="#181818" points="1607,711.8887,1617,715.8887,1607,719.8887,1611,715.8887" style="stroke:#181818;stroke-width:1.0;"/><line style="stroke:#181818;stroke-width:1.0;" x1="1441.5" x2="1613" y1="715.8887" y2="715.8887"/><text fill="#000000" font-family="sans-serif" font-size="13" font-weight="bold" lengthAdjust="spacing" textLength="14" x="1448.5" y="710.626">16</text><text fill="#000000" font-family="sans-serif" font-size="13" lengthAdjust="spacing" textLength="78" x="1466.5" y="710.626">add(entryDto)</text><polygon fill="#181818" points="578.5,773.1797,568.5,777.1797,578.5,781.1797,574.5,777.1797" style="stroke:#181818;stroke-width:1.0;"/><line style="stroke:#181818;stroke-width:1.0;" x1="572.5" x2="1435.5" y1="777.1797" y2="777.1797"/><text fill="#000000" font-family="sans-serif" font-size="13" font-weight="bold" lengthAdjust="spacing" textLength="14" x="584.5" y="771.917">17</text><text fill="#000000" font-family="sans-serif" font-size="13" lengthAdjust="spacing" textLength="68" x="602.5" y="771.917">toDoListDto</text><polygon fill="#181818" points="344.5,804.4707,334.5,808.4707,344.5,812.4707,340.5,808.4707" style="stroke:#181818;stroke-width:1.0;"/><line style="stroke:#181818;stroke-width:1.0;" x1="338.5" x2="561.5" y1="808.4707" y2="808.4707"/><text fill="#000000" font-family="sans-serif" font-size="13" font-weight="bold" lengthAdjust="spacing" textLength="14" x="350.5" y="803.208">18</text><text fill="#000000" font-family="sans-serif" font-size="13" lengthAdjust="spacing" textLength="68" x="368.5" y="803.208">toDoListDto</text><polygon fill="#181818" points="39.5,835.7617,29.5,839.7617,39.5,843.7617,35.5,839.7617" style="stroke:#181818;stroke-width:1.0;"/><line style="stroke:#181818;stroke-width:1.0;" x1="33.5" x2="327.5" y1="839.7617" y2="839.7617"/><text fill="#000000" font-family="sans-serif" font-size="13" font-weight="bold" lengthAdjust="spacing" textLength="14" x="45.5" y="834.499">19</text><text fill="#000000" font-family="sans-serif" font-size="13" lengthAdjust="spacing" textLength="253" x="63.5" y="834.499">show To Do list and ask to select one Entry</text><polygon fill="#181818" points="311.5,867.0527,321.5,871.0527,311.5,875.0527,315.5,871.0527" style="stroke:#181818;stroke-width:1.0;"/><line style="stroke:#181818;stroke-width:1.0;stroke-dasharray:2.0,2.0;" x1="28.5" x2="317.5" y1="871.0527" y2="871.0527"/><text fill="#000000" font-family="sans-serif" font-size="13" font-weight="bold" lengthAdjust="spacing" textLength="14" x="35.5" y="865.79">20</text><text fill="#000000" font-family="sans-serif" font-size="13" lengthAdjust="spacing" textLength="95" x="53.5" y="865.79">select one Entry</text><polygon fill="#181818" points="39.5,898.3438,29.5,902.3438,39.5,906.3438,35.5,902.3438" style="stroke:#181818;stroke-width:1.0;"/><line style="stroke:#181818;stroke-width:1.0;" x1="33.5" x2="327.5" y1="902.3438" y2="902.3438"/><text fill="#000000" font-family="sans-serif" font-size="13" font-weight="bold" lengthAdjust="spacing" textLength="14" x="45.5" y="897.0811">21</text><text fill="#000000" font-family="sans-serif" font-size="13" lengthAdjust="spacing" textLength="79" x="63.5" y="897.0811">requests data</text><polygon fill="#181818" points="311.5,929.6348,321.5,933.6348,311.5,937.6348,315.5,933.6348" style="stroke:#181818;stroke-width:1.0;"/><line style="stroke:#181818;stroke-width:1.0;stroke-dasharray:2.0,2.0;" x1="28.5" x2="317.5" y1="933.6348" y2="933.6348"/><text fill="#000000" font-family="sans-serif" font-size="13" font-weight="bold" lengthAdjust="spacing" textLength="14" x="35.5" y="928.3721">22</text><text fill="#000000" font-family="sans-serif" font-size="13" lengthAdjust="spacing" textLength="218" x="53.5" y="928.3721">types requested data (Date startDate)</text><polygon fill="#181818" points="1222.5,960.9258,1232.5,964.9258,1222.5,968.9258,1226.5,964.9258" style="stroke:#181818;stroke-width:1.0;"/><line style="stroke:#181818;stroke-width:1.0;" x1="333.5" x2="1228.5" y1="964.9258" y2="964.9258"/><text fill="#000000" font-family="sans-serif" font-size="13" font-weight="bold" lengthAdjust="spacing" textLength="14" x="340.5" y="959.6631">23</text><text fill="#000000" font-family="sans-serif" font-size="13" lengthAdjust="spacing" textLength="154" x="358.5" y="959.6631">setEntryAgenda(startDate)</text><line style="stroke:#181818;stroke-width:1.0;" x1="1249.5" x2="1291.5" y1="996.2168" y2="996.2168"/><line style="stroke:#181818;stroke-width:1.0;" x1="1291.5" x2="1291.5" y1="996.2168" y2="1009.2168"/><line style="stroke:#181818;stroke-width:1.0;" x1="1250.5" x2="1291.5" y1="1009.2168" y2="1009.2168"/><polygon fill="#181818" points="1260.5,1005.2168,1250.5,1009.2168,1260.5,1013.2168,1256.5,1009.2168" style="stroke:#181818;stroke-width:1.0;"/><text fill="#000000" font-family="sans-serif" font-size="13" font-weight="bold" lengthAdjust="spacing" textLength="14" x="1256.5" y="990.9541">24</text><text fill="#000000" font-family="sans-serif" font-size="13" lengthAdjust="spacing" textLength="134" x="1274.5" y="990.9541">setStartDate(startDate)</text><polygon fill="#181818" points="545.5,1066.5078,555.5,1070.5078,545.5,1074.5078,549.5,1070.5078" style="stroke:#181818;stroke-width:1.0;"/><line style="stroke:#181818;stroke-width:1.0;" x1="333.5" x2="551.5" y1="1070.5078" y2="1070.5078"/><text fill="#000000" font-family="sans-serif" font-size="13" font-weight="bold" lengthAdjust="spacing" textLength="14" x="340.5" y="1065.2451">25</text><text fill="#000000" font-family="sans-serif" font-size="13" lengthAdjust="spacing" textLength="187" x="358.5" y="1065.2451">assignEntryOnAgenda(entryDto)</text><polygon fill="#181818" points="940.5,1097.7988,950.5,1101.7988,940.5,1105.7988,944.5,1101.7988" style="stroke:#181818;stroke-width:1.0;"/><line style="stroke:#181818;stroke-width:1.0;" x1="567.5" x2="946.5" y1="1101.7988" y2="1101.7988"/><text fill="#000000" font-family="sans-serif" font-size="13" font-weight="bold" lengthAdjust="spacing" textLength="14" x="574.5" y="1096.5361">26</text><text fill="#000000" font-family="sans-serif" font-size="13" lengthAdjust="spacing" textLength="187" x="592.5" y="1096.5361">assignEntryOnAgenda(entryDto)</text><rect fill="none" height="43.252" style="stroke:#000000;stroke-width:1.5;" width="221" x="895" y="1109.7988"/><path d="M895,1109.7988 L957,1109.7988 L957,1118.7988 L947,1128.7988 L895,1128.7988 L895,1109.7988 " fill="#EEEEEE" style="stroke:#000000;stroke-width:2.0;"/><text fill="#000000" font-family="sans-serif" font-size="13" font-weight="bold" lengthAdjust="spacing" textLength="17" x="908" y="1125.8271">ref</text><text fill="#000000" font-family="sans-serif" font-size="12" lengthAdjust="spacing" textLength="213" x="899" y="1145.748">Get Entry equal to DTO again with Task</text><polygon fill="#181818" points="1419.5,1177.3418,1429.5,1181.3418,1419.5,1185.3418,1423.5,1181.3418" style="stroke:#181818;stroke-width:1.0;"/><line style="stroke:#181818;stroke-width:1.0;" x1="962.5" x2="1425.5" y1="1181.3418" y2="1181.3418"/><text fill="#000000" font-family="sans-serif" font-size="13" font-weight="bold" lengthAdjust="spacing" textLength="14" x="969.5" y="1176.0791">27</text><text fill="#000000" font-family="sans-serif" font-size="13" lengthAdjust="spacing" textLength="140" x="987.5" y="1176.0791">toModel(entryDto, entry)</text><polygon fill="#181818" points="1255.5,1208.6328,1245.5,1212.6328,1255.5,1216.6328,1251.5,1212.6328" style="stroke:#181818;stroke-width:1.0;"/><line style="stroke:#181818;stroke-width:1.0;" x1="1249.5" x2="1430.5" y1="1212.6328" y2="1212.6328"/><text fill="#000000" font-family="sans-serif" font-size="13" font-weight="bold" lengthAdjust="spacing" textLength="14" x="1261.5" y="1207.3701">28</text><text fill="#000000" font-family="sans-serif" font-size="13" lengthAdjust="spacing" textLength="150" x="1279.5" y="1207.3701">startDate = getStartDate()</text><polygon fill="#181818" points="1079.5,1269.9238,1069.5,1273.9238,1079.5,1277.9238,1075.5,1273.9238" style="stroke:#181818;stroke-width:1.0;"/><line style="stroke:#181818;stroke-width:1.0;" x1="1073.5" x2="1430.5" y1="1273.9238" y2="1273.9238"/><text fill="#000000" font-family="sans-serif" font-size="13" font-weight="bold" lengthAdjust="spacing" textLength="14" x="1085.5" y="1268.6611">29</text><text fill="#000000" font-family="sans-serif" font-size="13" lengthAdjust="spacing" textLength="154" x="1103.5" y="1268.6611">setEntryAgenda(startDate)</text><line style="stroke:#181818;stroke-width:1.0;" x1="1073.5" x2="1115.5" y1="1305.2148" y2="1305.2148"/><line style="stroke:#181818;stroke-width:1.0;" x1="1115.5" x2="1115.5" y1="1305.2148" y2="1318.2148"/><line style="stroke:#181818;stroke-width:1.0;" x1="1074.5" x2="1115.5" y1="1318.2148" y2="1318.2148"/><polygon fill="#181818" points="1084.5,1314.2148,1074.5,1318.2148,1084.5,1322.2148,1080.5,1318.2148" style="stroke:#181818;stroke-width:1.0;"/><text fill="#000000" font-family="sans-serif" font-size="13" font-weight="bold" lengthAdjust="spacing" textLength="14" x="1080.5" y="1299.9521">30</text><text fill="#000000" font-family="sans-serif" font-size="13" lengthAdjust="spacing" textLength="134" x="1098.5" y="1299.9521">setStartDate(startDate)</text><polygon fill="#181818" points="973.5,1375.5059,963.5,1379.5059,973.5,1383.5059,969.5,1379.5059" style="stroke:#181818;stroke-width:1.0;"/><line style="stroke:#181818;stroke-width:1.0;" x1="967.5" x2="1435.5" y1="1379.5059" y2="1379.5059"/><text fill="#000000" font-family="sans-serif" font-size="13" font-weight="bold" lengthAdjust="spacing" textLength="14" x="979.5" y="1374.2432">31</text><text fill="#000000" font-family="sans-serif" font-size="13" lengthAdjust="spacing" textLength="61" x="997.5" y="1374.2432">true / false</text><polygon fill="#181818" points="578.5,1406.7969,568.5,1410.7969,578.5,1414.7969,574.5,1410.7969" style="stroke:#181818;stroke-width:1.0;"/><line style="stroke:#181818;stroke-width:1.0;" x1="572.5" x2="956.5" y1="1410.7969" y2="1410.7969"/><text fill="#000000" font-family="sans-serif" font-size="13" font-weight="bold" lengthAdjust="spacing" textLength="14" x="584.5" y="1405.5342">32</text><text fill="#000000" font-family="sans-serif" font-size="13" lengthAdjust="spacing" textLength="61" x="602.5" y="1405.5342">true / false</text><polygon fill="#181818" points="344.5,1438.0879,334.5,1442.0879,344.5,1446.0879,340.5,1442.0879" style="stroke:#181818;stroke-width:1.0;"/><line style="stroke:#181818;stroke-width:1.0;" x1="338.5" x2="561.5" y1="1442.0879" y2="1442.0879"/><text fill="#000000" font-family="sans-serif" font-size="13" font-weight="bold" lengthAdjust="spacing" textLength="14" x="350.5" y="1436.8252">33</text><text fill="#000000" font-family="sans-serif" font-size="13" lengthAdjust="spacing" textLength="61" x="368.5" y="1436.8252">true / false</text><polygon fill="#181818" points="34.5,1469.3789,24.5,1473.3789,34.5,1477.3789,30.5,1473.3789" style="stroke:#181818;stroke-width:1.0;"/><line style="stroke:#181818;stroke-width:1.0;" x1="28.5" x2="327.5" y1="1473.3789" y2="1473.3789"/><text fill="#000000" font-family="sans-serif" font-size="13" font-weight="bold" lengthAdjust="spacing" textLength="14" x="40.5" y="1468.1162">34</text><text fill="#000000" font-family="sans-serif" font-size="13" lengthAdjust="spacing" textLength="212" x="58.5" y="1468.1162">Update Agenda and Show with Entry</text><!--SRC=[lLZ1JkCm4BtdAqPSA2jWxzKkKfSYn8ggY9OR5vDCMulKpjekRFz-ntRI96uJqe0sboOUp_FBlF5uKltAHSOKMyDQ2Xclb5mZ6BN1IEyi6OjVsH9dPfiYA8mD4ykqEa6lM2BVkLZ2WgKQeuXjZ1IRzGkgA3fTyGHX8QLvaNyZ5XkfuEHsDZa1fe5-8y8mFEOP4mPEXYEj-LBS2AEsKp5QeaZOqvsR-tJtyTHhIKyoJL4vb-lvuttWz8YPr9n8SDHkpcvWE-FslOXvtKLLF9x5Fi33_MXUzq1BgSGbfvlwYFCBnWAUpkhcJN_zFcGR6-dCu_dqa7d2iYoFmcJqy73pM9zav5ZUSsq81OPWxtuKg5VEoHb3wCAhvbBEZoAhBtzZ1fso4UGNFS355Ib8Zao_Qg1LcLCFcF2102x0QrYwxS18-kWKAXSXNH2WnHrIIlxPe3OQ4cOO31GkKA68yHmIrB7YcU5Id0Eji91gpL9u5dMBmNWbU4oMsd2oKSpVnLARiwXAu3HMQ9cv30kPNRdXRz-8cvyMDKoX2KiqypogW_eIkxTtQzHCtfb03YIlnxmJchPfZ05csxLRxz2Ew8nYhqEiBl9NjdAL6wWpR89VGwy8dDsqFbB1DkmJC5S1EhkvfSi428f5duWSjtuHWk35MtEnKnZ2WXPrvnHo8NgMHUCMQhk492xo3HNafIgLChCL9vFP9hL4tG3N8DVS64m-IJJNiQYDVGJSYzonMleIxraOEIYuz10nFomwE-OhvuBHYL7HZ9Ae9qwnB-2dJSe1x_4YVRNm1zdnj7SIO7wE4dVIOJuTk87_AeMNeTJXylBoh4yiFfqCzhnFaa4HafuosZwafvBMjGVzO4yJzQyANx5ZNI_KX5_1s3_yVVlWMn-zakymbp2MaDfjmqHY6onRxJIcrAg357bvQLh0zbPLa-lL2eAj88qGLOQrvgmN1xFDK1SucEHTtjZwKO-ZZBqxEuQOpqkT7_s-wHny11Nce0MfOiqA_wEHAd7OozRGrjn7ilsFeOPjrv9QpQr13_ZMGusQT7z61xE6S8ic_o8WnQabfrIsGMPBHby8xzoiO4uPNaSxS2fNJiI9J33TiJs70_MuTSlMwgfLkn3OdqwbyZq5RrYCllkEJrFxiLWrM90gLlSq3P4ghAsfrTRmHljfPVzfWE_vtmP7LD6MDgm3OcjcrWjq1xHo6rNhtbEMMAENpTNbcQtLBe7BKXhKmCgZ_Nx-1m00]--></g></svg>