<?xml version="1.0" encoding="us-ascii" standalone="no"?><svg xmlns="http://www.w3.org/2000/svg" xmlns:xlink="http://www.w3.org/1999/xlink" contentStyleType="text/css" height="781px" preserveAspectRatio="none" style="width:1294px;height:781px;background:#FFFFFF;" version="1.1" viewBox="0 0 1294 781" width="1294px" zoomAndPan="magnify"><defs/><g><rect fill="#FFFFFF" height="616.6465" style="stroke:#181818;stroke-width:1.0;" width="10" x="111.5" y="90.5332"/><rect fill="#FFFFFF" height="31.291" style="stroke:#181818;stroke-width:1.0;" width="10" x="281.5" y="121.8242"/><rect fill="#FFFFFF" height="31.291" style="stroke:#181818;stroke-width:1.0;" width="10" x="388.5" y="184.4063"/><rect fill="#FFFFFF" height="112.2031" style="stroke:#181818;stroke-width:1.0;" width="10" x="506.5" y="246.9883"/><rect fill="#FFFFFF" height="285.4063" style="stroke:#181818;stroke-width:1.0;" width="10" x="813" y="390.4824"/><rect fill="#FFFFFF" height="36.291" style="stroke:#181818;stroke-width:1.0;" width="10" x="818" y="534.6855"/><rect fill="#FFFFFF" height="30" style="stroke:#181818;stroke-width:1.0;" width="10" x="1000.5" y="614.5977"/><rect fill="#FFFFFF" height="30" style="stroke:#181818;stroke-width:1.0;" width="10" x="1181.5" y="465.3945"/><line style="stroke:#181818;stroke-width:0.5;stroke-dasharray:5.0,5.0;" x1="116" x2="116" y1="57.2422" y2="725.1797"/><line style="stroke:#181818;stroke-width:0.5;stroke-dasharray:5.0,5.0;" x1="286" x2="286" y1="57.2422" y2="725.1797"/><line style="stroke:#181818;stroke-width:0.5;stroke-dasharray:5.0,5.0;" x1="393" x2="393" y1="57.2422" y2="725.1797"/><line style="stroke:#181818;stroke-width:0.5;stroke-dasharray:5.0,5.0;" x1="511" x2="511" y1="57.2422" y2="725.1797"/><line style="stroke:#181818;stroke-width:0.5;stroke-dasharray:5.0,5.0;" x1="606" x2="606" y1="57.2422" y2="725.1797"/><line style="stroke:#181818;stroke-width:0.5;stroke-dasharray:5.0,5.0;" x1="678" x2="678" y1="579.4961" y2="725.1797"/><line style="stroke:#181818;stroke-width:0.5;stroke-dasharray:5.0,5.0;" x1="817.5" x2="817.5" y1="57.2422" y2="725.1797"/><line style="stroke:#181818;stroke-width:0.5;stroke-dasharray:5.0,5.0;" x1="1005" x2="1005" y1="430.293" y2="725.1797"/><line style="stroke:#181818;stroke-width:0.5;stroke-dasharray:5.0,5.0;" x1="1186" x2="1186" y1="286.7988" y2="725.1797"/><rect fill="#E3E3E3" height="32.6211" rx="2.5" ry="2.5" style="stroke:#181818;stroke-width:0.5;" width="223" x="5" y="23.6211"/><text fill="#000000" font-family="sans-serif" font-size="14" lengthAdjust="spacing" textLength="209" x="12" y="45.7285">:AssignEntryOnAgendaController</text><rect fill="#E3E3E3" height="32.6211" rx="2.5" ry="2.5" style="stroke:#181818;stroke-width:0.5;" width="223" x="5" y="724.1797"/><text fill="#000000" font-family="sans-serif" font-size="14" lengthAdjust="spacing" textLength="209" x="12" y="746.2871">:AssignEntryOnAgendaController</text><rect fill="#E3E3E3" height="32.6211" rx="2.5" ry="2.5" style="stroke:#181818;stroke-width:0.5;" width="97" x="238" y="23.6211"/><text fill="#000000" font-family="sans-serif" font-size="14" lengthAdjust="spacing" textLength="83" x="245" y="45.7285">:Repositories</text><rect fill="#E3E3E3" height="32.6211" rx="2.5" ry="2.5" style="stroke:#181818;stroke-width:0.5;" width="97" x="238" y="724.1797"/><text fill="#000000" font-family="sans-serif" font-size="14" lengthAdjust="spacing" textLength="83" x="245" y="746.2871">:Repositories</text><rect fill="#E3E3E3" height="51.2422" rx="2.5" ry="2.5" style="stroke:#181818;stroke-width:0.5;" width="97" x="345" y="5"/><text fill="#000000" font-family="sans-serif" font-size="14" lengthAdjust="spacing" textLength="74" x="356.5" y="27.1074">repositories</text><text fill="#000000" font-family="sans-serif" font-size="14" lengthAdjust="spacing" textLength="83" x="352" y="45.7285">:Repositories</text><rect fill="#E3E3E3" height="51.2422" rx="2.5" ry="2.5" style="stroke:#181818;stroke-width:0.5;" width="97" x="345" y="724.1797"/><text fill="#000000" font-family="sans-serif" font-size="14" lengthAdjust="spacing" textLength="74" x="356.5" y="746.2871">repositories</text><text fill="#000000" font-family="sans-serif" font-size="14" lengthAdjust="spacing" textLength="83" x="352" y="764.9082">:Repositories</text><rect fill="#E3E3E3" height="51.2422" rx="2.5" ry="2.5" style="stroke:#181818;stroke-width:0.5;" width="119" x="452" y="5"/><text fill="#000000" font-family="sans-serif" font-size="14" lengthAdjust="spacing" textLength="100" x="461.5" y="27.1074">entryRepository</text><text fill="#000000" font-family="sans-serif" font-size="14" lengthAdjust="spacing" textLength="105" x="459" y="45.7285">:EntryRepository</text><rect fill="#E3E3E3" height="51.2422" rx="2.5" ry="2.5" style="stroke:#181818;stroke-width:0.5;" width="119" x="452" y="724.1797"/><text fill="#000000" font-family="sans-serif" font-size="14" lengthAdjust="spacing" textLength="100" x="461.5" y="746.2871">entryRepository</text><text fill="#000000" font-family="sans-serif" font-size="14" lengthAdjust="spacing" textLength="105" x="459" y="764.9082">:EntryRepository</text><rect fill="#E3E3E3" height="32.6211" rx="2.5" ry="2.5" style="stroke:#181818;stroke-width:0.5;" width="51" x="581" y="23.6211"/><text fill="#000000" font-family="sans-serif" font-size="14" lengthAdjust="spacing" textLength="37" x="588" y="45.7285">:Entry</text><rect fill="#E3E3E3" height="32.6211" rx="2.5" ry="2.5" style="stroke:#181818;stroke-width:0.5;" width="51" x="581" y="724.1797"/><text fill="#000000" font-family="sans-serif" font-size="14" lengthAdjust="spacing" textLength="37" x="588" y="746.2871">:Entry</text><rect fill="#E3E3E3" height="32.6211" rx="2.5" ry="2.5" style="stroke:#181818;stroke-width:0.5;" width="73" x="642" y="724.1797"/><text fill="#000000" font-family="sans-serif" font-size="14" lengthAdjust="spacing" textLength="59" x="649" y="746.2871">:EntryDto</text><rect fill="#E3E3E3" height="32.6211" rx="2.5" ry="2.5" style="stroke:#181818;stroke-width:0.5;" width="99" x="768.5" y="23.6211"/><text fill="#000000" font-family="sans-serif" font-size="14" lengthAdjust="spacing" textLength="85" x="775.5" y="45.7285">:EntryMapper</text><rect fill="#E3E3E3" height="32.6211" rx="2.5" ry="2.5" style="stroke:#181818;stroke-width:0.5;" width="99" x="768.5" y="724.1797"/><text fill="#000000" font-family="sans-serif" font-size="14" lengthAdjust="spacing" textLength="85" x="775.5" y="746.2871">:EntryMapper</text><rect fill="#E3E3E3" height="32.6211" rx="2.5" ry="2.5" style="stroke:#181818;stroke-width:0.5;" width="193" x="909" y="724.1797"/><text fill="#000000" font-family="sans-serif" font-size="14" lengthAdjust="spacing" textLength="179" x="916" y="746.2871">toDoListDto : List&lt;EntryDto&gt;</text><rect fill="#E3E3E3" height="32.6211" rx="2.5" ry="2.5" style="stroke:#181818;stroke-width:0.5;" width="149" x="1112" y="724.1797"/><text fill="#000000" font-family="sans-serif" font-size="14" lengthAdjust="spacing" textLength="135" x="1119" y="746.2871">toDoList : List&lt;Entry&gt;</text><rect fill="#FFFFFF" height="616.6465" style="stroke:#181818;stroke-width:1.0;" width="10" x="111.5" y="90.5332"/><rect fill="#FFFFFF" height="31.291" style="stroke:#181818;stroke-width:1.0;" width="10" x="281.5" y="121.8242"/><rect fill="#FFFFFF" height="31.291" style="stroke:#181818;stroke-width:1.0;" width="10" x="388.5" y="184.4063"/><rect fill="#FFFFFF" height="112.2031" style="stroke:#181818;stroke-width:1.0;" width="10" x="506.5" y="246.9883"/><rect fill="#FFFFFF" height="285.4063" style="stroke:#181818;stroke-width:1.0;" width="10" x="813" y="390.4824"/><rect fill="#FFFFFF" height="36.291" style="stroke:#181818;stroke-width:1.0;" width="10" x="818" y="534.6855"/><rect fill="#FFFFFF" height="30" style="stroke:#181818;stroke-width:1.0;" width="10" x="1000.5" y="614.5977"/><rect fill="#FFFFFF" height="30" style="stroke:#181818;stroke-width:1.0;" width="10" x="1181.5" y="465.3945"/><polygon fill="#181818" points="99.5,86.5332,109.5,90.5332,99.5,94.5332,103.5,90.5332" style="stroke:#181818;stroke-width:1.0;"/><line style="stroke:#181818;stroke-width:1.0;" x1="0" x2="105.5" y1="90.5332" y2="90.5332"/><text fill="#000000" font-family="sans-serif" font-size="13" font-weight="bold" lengthAdjust="spacing" textLength="7" x="7" y="85.2705">5</text><text fill="#000000" font-family="sans-serif" font-size="13" lengthAdjust="spacing" textLength="77" x="18" y="85.2705">getToDoList()</text><polygon fill="#181818" points="269.5,117.8242,279.5,121.8242,269.5,125.8242,273.5,121.8242" style="stroke:#181818;stroke-width:1.0;"/><line style="stroke:#181818;stroke-width:1.0;" x1="121.5" x2="275.5" y1="121.8242" y2="121.8242"/><text fill="#000000" font-family="sans-serif" font-size="13" font-weight="bold" lengthAdjust="spacing" textLength="7" x="128.5" y="116.5615">6</text><text fill="#000000" font-family="sans-serif" font-size="13" lengthAdjust="spacing" textLength="75" x="139.5" y="116.5615">getInstance()</text><polygon fill="#181818" points="132.5,149.1152,122.5,153.1152,132.5,157.1152,128.5,153.1152" style="stroke:#181818;stroke-width:1.0;"/><line style="stroke:#181818;stroke-width:1.0;stroke-dasharray:2.0,2.0;" x1="126.5" x2="285.5" y1="153.1152" y2="153.1152"/><text fill="#000000" font-family="sans-serif" font-size="13" font-weight="bold" lengthAdjust="spacing" textLength="7" x="138.5" y="147.8525">7</text><text fill="#000000" font-family="sans-serif" font-size="13" lengthAdjust="spacing" textLength="67" x="149.5" y="147.8525">repositories</text><polygon fill="#181818" points="376.5,180.4063,386.5,184.4063,376.5,188.4063,380.5,184.4063" style="stroke:#181818;stroke-width:1.0;"/><line style="stroke:#181818;stroke-width:1.0;" x1="121.5" x2="382.5" y1="184.4063" y2="184.4063"/><text fill="#000000" font-family="sans-serif" font-size="13" font-weight="bold" lengthAdjust="spacing" textLength="7" x="128.5" y="179.1436">8</text><text fill="#000000" font-family="sans-serif" font-size="13" lengthAdjust="spacing" textLength="119" x="139.5" y="179.1436">getEntryRepository()</text><polygon fill="#181818" points="132.5,211.6973,122.5,215.6973,132.5,219.6973,128.5,215.6973" style="stroke:#181818;stroke-width:1.0;"/><line style="stroke:#181818;stroke-width:1.0;" x1="126.5" x2="392.5" y1="215.6973" y2="215.6973"/><text fill="#000000" font-family="sans-serif" font-size="13" font-weight="bold" lengthAdjust="spacing" textLength="7" x="138.5" y="210.4346">9</text><text fill="#000000" font-family="sans-serif" font-size="13" lengthAdjust="spacing" textLength="91" x="149.5" y="210.4346">entryRepository</text><polygon fill="#181818" points="494.5,242.9883,504.5,246.9883,494.5,250.9883,498.5,246.9883" style="stroke:#181818;stroke-width:1.0;"/><line style="stroke:#181818;stroke-width:1.0;" x1="121.5" x2="500.5" y1="246.9883" y2="246.9883"/><text fill="#000000" font-family="sans-serif" font-size="13" font-weight="bold" lengthAdjust="spacing" textLength="14" x="128.5" y="241.7256">10</text><text fill="#000000" font-family="sans-serif" font-size="13" lengthAdjust="spacing" textLength="77" x="146.5" y="241.7256">getToDoList()</text><polygon fill="#181818" points="1100,274.2793,1110,278.2793,1100,282.2793,1104,278.2793" style="stroke:#181818;stroke-width:1.0;"/><line style="stroke:#181818;stroke-width:1.0;" x1="516.5" x2="1106" y1="278.2793" y2="278.2793"/><text fill="#000000" font-family="sans-serif" font-size="13" font-weight="bold" lengthAdjust="spacing" textLength="14" x="523.5" y="273.0166">11</text><text fill="#000000" font-family="sans-serif" font-size="13" lengthAdjust="spacing" textLength="36" x="541.5" y="273.0166">create</text><rect fill="#E3E3E3" height="32.6211" rx="2.5" ry="2.5" style="stroke:#181818;stroke-width:0.5;" width="149" x="1112" y="254.9883"/><text fill="#000000" font-family="sans-serif" font-size="14" lengthAdjust="spacing" textLength="135" x="1119" y="277.0957">toDoList : List&lt;Entry&gt;</text><path d="M1085,303.6094 L1085,330.6094 L1287,330.6094 L1287,313.6094 L1277,303.6094 L1085,303.6094 " fill="#FAFAFA" style="stroke:#181818;stroke-width:0.5;"/><path d="M1277,303.6094 L1277,313.6094 L1287,313.6094 L1277,303.6094 " fill="#FAFAFA" style="stroke:#181818;stroke-width:0.5;"/><text fill="#000000" font-family="sans-serif" font-size="13" lengthAdjust="spacing" textLength="181" x="1091" y="322.6377">loop to populate loop is omitted</text><polygon fill="#181818" points="132.5,355.1914,122.5,359.1914,132.5,363.1914,128.5,359.1914" style="stroke:#181818;stroke-width:1.0;"/><line style="stroke:#181818;stroke-width:1.0;" x1="126.5" x2="510.5" y1="359.1914" y2="359.1914"/><text fill="#000000" font-family="sans-serif" font-size="13" font-weight="bold" lengthAdjust="spacing" textLength="14" x="138.5" y="353.9287">12</text><text fill="#000000" font-family="sans-serif" font-size="13" lengthAdjust="spacing" textLength="48" x="156.5" y="353.9287">toDoList</text><polygon fill="#181818" points="801,386.4824,811,390.4824,801,394.4824,805,390.4824" style="stroke:#181818;stroke-width:1.0;"/><line style="stroke:#181818;stroke-width:1.0;" x1="121.5" x2="807" y1="390.4824" y2="390.4824"/><text fill="#000000" font-family="sans-serif" font-size="13" font-weight="bold" lengthAdjust="spacing" textLength="14" x="128.5" y="385.2197">13</text><text fill="#000000" font-family="sans-serif" font-size="13" lengthAdjust="spacing" textLength="87" x="146.5" y="385.2197">toDto(toDoList)</text><polygon fill="#181818" points="897,417.7734,907,421.7734,897,425.7734,901,421.7734" style="stroke:#181818;stroke-width:1.0;"/><line style="stroke:#181818;stroke-width:1.0;" x1="823" x2="903" y1="421.7734" y2="421.7734"/><text fill="#000000" font-family="sans-serif" font-size="13" font-weight="bold" lengthAdjust="spacing" textLength="14" x="830" y="416.5107">14</text><text fill="#000000" font-family="sans-serif" font-size="13" lengthAdjust="spacing" textLength="44" x="848" y="416.5107">create()</text><rect fill="#E3E3E3" height="32.6211" rx="2.5" ry="2.5" style="stroke:#181818;stroke-width:0.5;" width="193" x="909" y="398.4824"/><text fill="#000000" font-family="sans-serif" font-size="14" lengthAdjust="spacing" textLength="179" x="916" y="420.5898">toDoListDto : List&lt;EntryDto&gt;</text><polygon fill="#181818" points="1169.5,461.3945,1179.5,465.3945,1169.5,469.3945,1173.5,465.3945" style="stroke:#181818;stroke-width:1.0;"/><line style="stroke:#181818;stroke-width:1.0;" x1="823" x2="1175.5" y1="465.3945" y2="465.3945"/><text fill="#000000" font-family="sans-serif" font-size="13" font-weight="bold" lengthAdjust="spacing" textLength="14" x="830" y="460.1318">15</text><text fill="#000000" font-family="sans-serif" font-size="13" lengthAdjust="spacing" textLength="74" x="848" y="460.1318">entry = get(i)</text><line style="stroke:#181818;stroke-width:1.0;" x1="823" x2="870" y1="521.6855" y2="521.6855"/><line style="stroke:#181818;stroke-width:1.0;" x1="870" x2="870" y1="521.6855" y2="534.6855"/><line style="stroke:#181818;stroke-width:1.0;" x1="829" x2="870" y1="534.6855" y2="534.6855"/><polygon fill="#181818" points="839,530.6855,829,534.6855,839,538.6855,835,534.6855" style="stroke:#181818;stroke-width:1.0;"/><text fill="#000000" font-family="sans-serif" font-size="13" font-weight="bold" lengthAdjust="spacing" textLength="14" x="835" y="516.4229">16</text><text fill="#000000" font-family="sans-serif" font-size="13" lengthAdjust="spacing" textLength="139" x="853" y="516.4229">entryDto = toDTO(entry)</text><polygon fill="#181818" points="726,566.9766,716,570.9766,726,574.9766,722,570.9766" style="stroke:#181818;stroke-width:1.0;"/><line style="stroke:#181818;stroke-width:1.0;" x1="720" x2="812" y1="570.9766" y2="570.9766"/><text fill="#000000" font-family="sans-serif" font-size="13" font-weight="bold" lengthAdjust="spacing" textLength="14" x="732" y="565.7139">17</text><text fill="#000000" font-family="sans-serif" font-size="13" lengthAdjust="spacing" textLength="56" x="750" y="565.7139">create(...)</text><rect fill="#E3E3E3" height="32.6211" rx="2.5" ry="2.5" style="stroke:#181818;stroke-width:0.5;" width="73" x="642" y="547.6855"/><text fill="#000000" font-family="sans-serif" font-size="14" lengthAdjust="spacing" textLength="59" x="649" y="569.793">:EntryDto</text><polygon fill="#181818" points="988.5,610.5977,998.5,614.5977,988.5,618.5977,992.5,614.5977" style="stroke:#181818;stroke-width:1.0;"/><line style="stroke:#181818;stroke-width:1.0;" x1="823" x2="994.5" y1="614.5977" y2="614.5977"/><text fill="#000000" font-family="sans-serif" font-size="13" font-weight="bold" lengthAdjust="spacing" textLength="14" x="830" y="609.335">18</text><text fill="#000000" font-family="sans-serif" font-size="13" lengthAdjust="spacing" textLength="78" x="848" y="609.335">add(entryDto)</text><polygon fill="#181818" points="132.5,671.8887,122.5,675.8887,132.5,679.8887,128.5,675.8887" style="stroke:#181818;stroke-width:1.0;"/><line style="stroke:#181818;stroke-width:1.0;" x1="126.5" x2="817" y1="675.8887" y2="675.8887"/><text fill="#000000" font-family="sans-serif" font-size="13" font-weight="bold" lengthAdjust="spacing" textLength="14" x="138.5" y="670.626">19</text><text fill="#000000" font-family="sans-serif" font-size="13" lengthAdjust="spacing" textLength="68" x="156.5" y="670.626">toDoListDto</text><polygon fill="#181818" points="11,703.1797,1,707.1797,11,711.1797,7,707.1797" style="stroke:#181818;stroke-width:1.0;"/><line style="stroke:#181818;stroke-width:1.0;stroke-dasharray:2.0,2.0;" x1="5" x2="115.5" y1="707.1797" y2="707.1797"/><text fill="#000000" font-family="sans-serif" font-size="13" font-weight="bold" lengthAdjust="spacing" textLength="14" x="17" y="701.917">15</text><text fill="#000000" font-family="sans-serif" font-size="13" lengthAdjust="spacing" textLength="68" x="35" y="701.917">toDoListDto</text><!--SRC=[pLR1Rjim3BthAuHUvXP8W1rw2Re2MPF3XXG9KXztKMtM4MgBXgLqoz-Fakt4LWnqi7oOJeaeFZu-KhJqkrIbg4J12rIO72eiW9lg24oVBQL8taK6B-QK0wyWCK9bUVU0FeWKVqkLyJUHQs1C70sgO_4A5MDV3Z85_ePeNl4FiukSZ4naAPJXDukbrZ9JQsMgqrOjCr2fU4BwXtaErGqNcZ_5-utdj8SIjJHOIT3kp7dZz28jEuhVTwaw7h_KDS1kiupx7c0fNN39QTtVSNxUdiVJMTsvxVUVGxQLGMTUnTiXyxCeoqQ5v-Lkjzxt3nbSuKPgGoXymUslXnRrqJavem_TUlLSBkTPjtxydiqUNGNeT0OcRdoZMyPuPud4o0zXe2vMp_IlomMXO0Ebh6F_K9fQBm6AFGR_J76eLqOXsZN4TjP8jk3ThXiL8eNfQRT2svQlbVMQE5HWTvT6GJXAbuRphc2eWkDvjP9vGbtTYI3P_572nd7rEH9jo-xkZjWc5L2aSRWAYID-q4neXaUEM7AQF2MMnzmcu3QavbX8Oo2TC86c7zh95Te8Lqg7z4Gzc6js1gEMOs0pDED-54Z3g2aypVzExVt1FGwplPlycxq0aGnCTegQrf-kiDJEfOJcAqhvKJtZRUGs_ekIrkMyr7C-dz-6QZTfin4raQPHA-44hM5VC1DqXuK9JD6RGvJULD8ptdbqVRrti0-psMSHEqZroykjlm00]--></g></svg>