<?xml version="1.0" encoding="us-ascii" standalone="no"?><svg xmlns="http://www.w3.org/2000/svg" xmlns:xlink="http://www.w3.org/1999/xlink" contentStyleType="text/css" height="807px" preserveAspectRatio="none" style="width:1722px;height:807px;background:#FFFFFF;" version="1.1" viewBox="0 0 1722 807" width="1722px" zoomAndPan="magnify"><defs/><g><rect fill="#FFFFFF" height="613.1992" style="stroke:#181818;stroke-width:1.0;" width="10" x="18.5" y="93.6211"/><rect fill="#FFFFFF" height="185.7461" style="stroke:#181818;stroke-width:1.0;" width="10" x="316.5" y="116.9121"/><rect fill="#FFFFFF" height="31.291" style="stroke:#181818;stroke-width:1.0;" width="10" x="316.5" y="333.9492"/><rect fill="#FFFFFF" height="310.2891" style="stroke:#181818;stroke-width:1.0;" width="10" x="316.5" y="396.5313"/><rect fill="#FFFFFF" height="79.543" style="stroke:#181818;stroke-width:1.0;" width="10" x="550.5" y="191.8242"/><rect fill="#FFFFFF" height="142.125" style="stroke:#181818;stroke-width:1.0;" width="10" x="550.5" y="533.4043"/><rect fill="#FFFFFF" height="79.543" style="stroke:#181818;stroke-width:1.0;" width="10" x="945.5" y="564.6953"/><rect fill="#FFFFFF" height="67.291" style="stroke:#181818;stroke-width:1.0;" width="10" x="1123.5" y="427.8223"/><rect fill="#FFFFFF" height="28" style="stroke:#181818;stroke-width:1.0;" width="10" x="1128.5" y="467.1133"/><line style="stroke:#181818;stroke-width:0.5;stroke-dasharray:5.0,5.0;" x1="23" x2="23" y1="83.6211" y2="724.8203"/><line style="stroke:#181818;stroke-width:0.5;stroke-dasharray:5.0,5.0;" x1="321" x2="321" y1="83.6211" y2="724.8203"/><line style="stroke:#181818;stroke-width:0.5;stroke-dasharray:5.0,5.0;" x1="555" x2="555" y1="156.7227" y2="724.8203"/><line style="stroke:#181818;stroke-width:0.5;stroke-dasharray:5.0,5.0;" x1="725" x2="725" y1="83.6211" y2="724.8203"/><line style="stroke:#181818;stroke-width:0.5;stroke-dasharray:5.0,5.0;" x1="832" x2="832" y1="83.6211" y2="724.8203"/><line style="stroke:#181818;stroke-width:0.5;stroke-dasharray:5.0,5.0;" x1="950" x2="950" y1="83.6211" y2="724.8203"/><line style="stroke:#181818;stroke-width:0.5;stroke-dasharray:5.0,5.0;" x1="1056" x2="1056" y1="83.6211" y2="724.8203"/><line style="stroke:#181818;stroke-width:0.5;stroke-dasharray:5.0,5.0;" x1="1128" x2="1128" y1="83.6211" y2="724.8203"/><line style="stroke:#181818;stroke-width:0.5;stroke-dasharray:5.0,5.0;" x1="1304" x2="1304" y1="83.6211" y2="724.8203"/><line style="stroke:#181818;stroke-width:0.5;stroke-dasharray:5.0,5.0;" x1="1460" x2="1460" y1="83.6211" y2="724.8203"/><line style="stroke:#181818;stroke-width:0.5;stroke-dasharray:5.0,5.0;" x1="1641" x2="1641" y1="83.6211" y2="724.8203"/><text fill="#000000" font-family="sans-serif" font-size="14" lengthAdjust="spacing" textLength="31" x="5" y="80.1074">GSM</text><ellipse cx="23.5" cy="13.5" fill="#E3E3E3" rx="8" ry="8" style="stroke:#181818;stroke-width:0.5;"/><path d="M23.5,21.5 L23.5,48.5 M10.5,29.5 L36.5,29.5 M23.5,48.5 L10.5,63.5 M23.5,48.5 L36.5,63.5 " fill="none" style="stroke:#181818;stroke-width:0.5;"/><text fill="#000000" font-family="sans-serif" font-size="14" lengthAdjust="spacing" textLength="31" x="5" y="738.9277">GSM</text><ellipse cx="23.5" cy="750.9414" fill="#E3E3E3" rx="8" ry="8" style="stroke:#181818;stroke-width:0.5;"/><path d="M23.5,758.9414 L23.5,785.9414 M10.5,766.9414 L36.5,766.9414 M23.5,785.9414 L10.5,800.9414 M23.5,785.9414 L36.5,800.9414 " fill="none" style="stroke:#181818;stroke-width:0.5;"/><rect fill="#E3E3E3" height="32.6211" rx="2.5" ry="2.5" style="stroke:#181818;stroke-width:0.5;" width="173" x="235" y="50"/><text fill="#000000" font-family="sans-serif" font-size="14" lengthAdjust="spacing" textLength="159" x="242" y="72.1074">:AssignEntryOnAgendaUI</text><rect fill="#E3E3E3" height="32.6211" rx="2.5" ry="2.5" style="stroke:#181818;stroke-width:0.5;" width="173" x="235" y="723.8203"/><text fill="#000000" font-family="sans-serif" font-size="14" lengthAdjust="spacing" textLength="159" x="242" y="745.9277">:AssignEntryOnAgendaUI</text><rect fill="#E3E3E3" height="32.6211" rx="2.5" ry="2.5" style="stroke:#181818;stroke-width:0.5;" width="223" x="444" y="723.8203"/><text fill="#000000" font-family="sans-serif" font-size="14" lengthAdjust="spacing" textLength="209" x="451" y="745.9277">:AssignEntryOnAgendaController</text><rect fill="#E3E3E3" height="32.6211" rx="2.5" ry="2.5" style="stroke:#181818;stroke-width:0.5;" width="97" x="677" y="50"/><text fill="#000000" font-family="sans-serif" font-size="14" lengthAdjust="spacing" textLength="83" x="684" y="72.1074">:Repositories</text><rect fill="#E3E3E3" height="32.6211" rx="2.5" ry="2.5" style="stroke:#181818;stroke-width:0.5;" width="97" x="677" y="723.8203"/><text fill="#000000" font-family="sans-serif" font-size="14" lengthAdjust="spacing" textLength="83" x="684" y="745.9277">:Repositories</text><rect fill="#E3E3E3" height="51.2422" rx="2.5" ry="2.5" style="stroke:#181818;stroke-width:0.5;" width="97" x="784" y="31.3789"/><text fill="#000000" font-family="sans-serif" font-size="14" lengthAdjust="spacing" textLength="74" x="795.5" y="53.4863">repositories</text><text fill="#000000" font-family="sans-serif" font-size="14" lengthAdjust="spacing" textLength="83" x="791" y="72.1074">:Repositories</text><rect fill="#E3E3E3" height="51.2422" rx="2.5" ry="2.5" style="stroke:#181818;stroke-width:0.5;" width="97" x="784" y="723.8203"/><text fill="#000000" font-family="sans-serif" font-size="14" lengthAdjust="spacing" textLength="74" x="795.5" y="745.9277">repositories</text><text fill="#000000" font-family="sans-serif" font-size="14" lengthAdjust="spacing" textLength="83" x="791" y="764.5488">:Repositories</text><rect fill="#E3E3E3" height="51.2422" rx="2.5" ry="2.5" style="stroke:#181818;stroke-width:0.5;" width="119" x="891" y="31.3789"/><text fill="#000000" font-family="sans-serif" font-size="14" lengthAdjust="spacing" textLength="100" x="900.5" y="53.4863">entryRepository</text><text fill="#000000" font-family="sans-serif" font-size="14" lengthAdjust="spacing" textLength="105" x="898" y="72.1074">:EntryRepository</text><rect fill="#E3E3E3" height="51.2422" rx="2.5" ry="2.5" style="stroke:#181818;stroke-width:0.5;" width="119" x="891" y="723.8203"/><text fill="#000000" font-family="sans-serif" font-size="14" lengthAdjust="spacing" textLength="100" x="900.5" y="745.9277">entryRepository</text><text fill="#000000" font-family="sans-serif" font-size="14" lengthAdjust="spacing" textLength="105" x="898" y="764.5488">:EntryRepository</text><rect fill="#E3E3E3" height="32.6211" rx="2.5" ry="2.5" style="stroke:#181818;stroke-width:0.5;" width="51" x="1031" y="50"/><text fill="#000000" font-family="sans-serif" font-size="14" lengthAdjust="spacing" textLength="37" x="1038" y="72.1074">:Entry</text><rect fill="#E3E3E3" height="32.6211" rx="2.5" ry="2.5" style="stroke:#181818;stroke-width:0.5;" width="51" x="1031" y="723.8203"/><text fill="#000000" font-family="sans-serif" font-size="14" lengthAdjust="spacing" textLength="37" x="1038" y="745.9277">:Entry</text><rect fill="#E3E3E3" height="32.6211" rx="2.5" ry="2.5" style="stroke:#181818;stroke-width:0.5;" width="73" x="1092" y="50"/><text fill="#000000" font-family="sans-serif" font-size="14" lengthAdjust="spacing" textLength="59" x="1099" y="72.1074">:EntryDto</text><rect fill="#E3E3E3" height="32.6211" rx="2.5" ry="2.5" style="stroke:#181818;stroke-width:0.5;" width="73" x="1092" y="723.8203"/><text fill="#000000" font-family="sans-serif" font-size="14" lengthAdjust="spacing" textLength="59" x="1099" y="745.9277">:EntryDto</text><rect fill="#E3E3E3" height="32.6211" rx="2.5" ry="2.5" style="stroke:#181818;stroke-width:0.5;" width="99" x="1255" y="50"/><text fill="#000000" font-family="sans-serif" font-size="14" lengthAdjust="spacing" textLength="85" x="1262" y="72.1074">:EntryMapper</text><rect fill="#E3E3E3" height="32.6211" rx="2.5" ry="2.5" style="stroke:#181818;stroke-width:0.5;" width="99" x="1255" y="723.8203"/><text fill="#000000" font-family="sans-serif" font-size="14" lengthAdjust="spacing" textLength="85" x="1262" y="745.9277">:EntryMapper</text><rect fill="#E3E3E3" height="32.6211" rx="2.5" ry="2.5" style="stroke:#181818;stroke-width:0.5;" width="193" x="1364" y="50"/><text fill="#000000" font-family="sans-serif" font-size="14" lengthAdjust="spacing" textLength="179" x="1371" y="72.1074">toDoListDto : List&lt;EntryDto&gt;</text><rect fill="#E3E3E3" height="32.6211" rx="2.5" ry="2.5" style="stroke:#181818;stroke-width:0.5;" width="193" x="1364" y="723.8203"/><text fill="#000000" font-family="sans-serif" font-size="14" lengthAdjust="spacing" textLength="179" x="1371" y="745.9277">toDoListDto : List&lt;EntryDto&gt;</text><rect fill="#E3E3E3" height="32.6211" rx="2.5" ry="2.5" style="stroke:#181818;stroke-width:0.5;" width="149" x="1567" y="50"/><text fill="#000000" font-family="sans-serif" font-size="14" lengthAdjust="spacing" textLength="135" x="1574" y="72.1074">toDoList : List&lt;Entry&gt;</text><rect fill="#E3E3E3" height="32.6211" rx="2.5" ry="2.5" style="stroke:#181818;stroke-width:0.5;" width="149" x="1567" y="723.8203"/><text fill="#000000" font-family="sans-serif" font-size="14" lengthAdjust="spacing" textLength="135" x="1574" y="745.9277">toDoList : List&lt;Entry&gt;</text><rect fill="#FFFFFF" height="613.1992" style="stroke:#181818;stroke-width:1.0;" width="10" x="18.5" y="93.6211"/><rect fill="#FFFFFF" height="185.7461" style="stroke:#181818;stroke-width:1.0;" width="10" x="316.5" y="116.9121"/><rect fill="#FFFFFF" height="31.291" style="stroke:#181818;stroke-width:1.0;" width="10" x="316.5" y="333.9492"/><rect fill="#FFFFFF" height="310.2891" style="stroke:#181818;stroke-width:1.0;" width="10" x="316.5" y="396.5313"/><rect fill="#FFFFFF" height="79.543" style="stroke:#181818;stroke-width:1.0;" width="10" x="550.5" y="191.8242"/><rect fill="#FFFFFF" height="142.125" style="stroke:#181818;stroke-width:1.0;" width="10" x="550.5" y="533.4043"/><rect fill="#FFFFFF" height="79.543" style="stroke:#181818;stroke-width:1.0;" width="10" x="945.5" y="564.6953"/><rect fill="#FFFFFF" height="67.291" style="stroke:#181818;stroke-width:1.0;" width="10" x="1123.5" y="427.8223"/><rect fill="#FFFFFF" height="28" style="stroke:#181818;stroke-width:1.0;" width="10" x="1128.5" y="467.1133"/><polygon fill="#181818" points="304.5,112.9121,314.5,116.9121,304.5,120.9121,308.5,116.9121" style="stroke:#181818;stroke-width:1.0;"/><line style="stroke:#181818;stroke-width:1.0;" x1="28.5" x2="310.5" y1="116.9121" y2="116.9121"/><text fill="#000000" font-family="sans-serif" font-size="13" font-weight="bold" lengthAdjust="spacing" textLength="7" x="35.5" y="111.6494">1</text><text fill="#000000" font-family="sans-serif" font-size="13" lengthAdjust="spacing" textLength="200" x="46.5" y="111.6494">asks to assign an Entry in Agenda</text><polygon fill="#181818" points="432,144.2031,442,148.2031,432,152.2031,436,148.2031" style="stroke:#181818;stroke-width:1.0;"/><line style="stroke:#181818;stroke-width:1.0;" x1="326.5" x2="438" y1="148.2031" y2="148.2031"/><text fill="#000000" font-family="sans-serif" font-size="13" font-weight="bold" lengthAdjust="spacing" textLength="7" x="333.5" y="142.9404">2</text><text fill="#000000" font-family="sans-serif" font-size="13" lengthAdjust="spacing" textLength="36" x="344.5" y="142.9404">create</text><rect fill="#E3E3E3" height="32.6211" rx="2.5" ry="2.5" style="stroke:#181818;stroke-width:0.5;" width="223" x="444" y="124.9121"/><text fill="#000000" font-family="sans-serif" font-size="14" lengthAdjust="spacing" textLength="209" x="451" y="147.0195">:AssignEntryOnAgendaController</text><polygon fill="#181818" points="538.5,187.8242,548.5,191.8242,538.5,195.8242,542.5,191.8242" style="stroke:#181818;stroke-width:1.0;"/><line style="stroke:#181818;stroke-width:1.0;" x1="326.5" x2="544.5" y1="191.8242" y2="191.8242"/><text fill="#000000" font-family="sans-serif" font-size="13" font-weight="bold" lengthAdjust="spacing" textLength="7" x="333.5" y="186.5615">3</text><text fill="#000000" font-family="sans-serif" font-size="13" lengthAdjust="spacing" textLength="77" x="344.5" y="186.5615">getToDoList()</text><rect fill="none" height="43.252" style="stroke:#000000;stroke-width:1.5;" width="229" x="441" y="199.8242"/><path d="M441,199.8242 L503,199.8242 L503,208.8242 L493,218.8242 L441,218.8242 L441,199.8242 " fill="#EEEEEE" style="stroke:#000000;stroke-width:2.0;"/><text fill="#000000" font-family="sans-serif" font-size="13" font-weight="bold" lengthAdjust="spacing" textLength="17" x="454" y="215.8525">ref</text><text fill="#000000" font-family="sans-serif" font-size="12" lengthAdjust="spacing" textLength="98" x="506.5" y="235.7734">Get the To Do List</text><polygon fill="#181818" points="337.5,267.3672,327.5,271.3672,337.5,275.3672,333.5,271.3672" style="stroke:#181818;stroke-width:1.0;"/><line style="stroke:#181818;stroke-width:1.0;" x1="331.5" x2="554.5" y1="271.3672" y2="271.3672"/><text fill="#000000" font-family="sans-serif" font-size="13" font-weight="bold" lengthAdjust="spacing" textLength="7" x="343.5" y="266.1045">4</text><text fill="#000000" font-family="sans-serif" font-size="13" lengthAdjust="spacing" textLength="68" x="354.5" y="266.1045">toDoListDto</text><polygon fill="#181818" points="39.5,298.6582,29.5,302.6582,39.5,306.6582,35.5,302.6582" style="stroke:#181818;stroke-width:1.0;"/><line style="stroke:#181818;stroke-width:1.0;" x1="33.5" x2="320.5" y1="302.6582" y2="302.6582"/><text fill="#000000" font-family="sans-serif" font-size="13" font-weight="bold" lengthAdjust="spacing" textLength="7" x="45.5" y="297.3955">5</text><text fill="#000000" font-family="sans-serif" font-size="13" lengthAdjust="spacing" textLength="253" x="56.5" y="297.3955">show To Do list and ask to select one Entry</text><polygon fill="#181818" points="304.5,329.9492,314.5,333.9492,304.5,337.9492,308.5,333.9492" style="stroke:#181818;stroke-width:1.0;"/><line style="stroke:#181818;stroke-width:1.0;stroke-dasharray:2.0,2.0;" x1="28.5" x2="310.5" y1="333.9492" y2="333.9492"/><text fill="#000000" font-family="sans-serif" font-size="13" font-weight="bold" lengthAdjust="spacing" textLength="7" x="35.5" y="328.6865">6</text><text fill="#000000" font-family="sans-serif" font-size="13" lengthAdjust="spacing" textLength="95" x="46.5" y="328.6865">select one Entry</text><polygon fill="#181818" points="39.5,361.2402,29.5,365.2402,39.5,369.2402,35.5,365.2402" style="stroke:#181818;stroke-width:1.0;"/><line style="stroke:#181818;stroke-width:1.0;" x1="33.5" x2="320.5" y1="365.2402" y2="365.2402"/><text fill="#000000" font-family="sans-serif" font-size="13" font-weight="bold" lengthAdjust="spacing" textLength="7" x="45.5" y="359.9775">7</text><text fill="#000000" font-family="sans-serif" font-size="13" lengthAdjust="spacing" textLength="79" x="56.5" y="359.9775">requests data</text><polygon fill="#181818" points="304.5,392.5313,314.5,396.5313,304.5,400.5313,308.5,396.5313" style="stroke:#181818;stroke-width:1.0;"/><line style="stroke:#181818;stroke-width:1.0;stroke-dasharray:2.0,2.0;" x1="28.5" x2="310.5" y1="396.5313" y2="396.5313"/><text fill="#000000" font-family="sans-serif" font-size="13" font-weight="bold" lengthAdjust="spacing" textLength="7" x="35.5" y="391.2686">8</text><text fill="#000000" font-family="sans-serif" font-size="13" lengthAdjust="spacing" textLength="218" x="46.5" y="391.2686">types requested data (Date startDate)</text><polygon fill="#181818" points="1111.5,423.8223,1121.5,427.8223,1111.5,431.8223,1115.5,427.8223" style="stroke:#181818;stroke-width:1.0;"/><line style="stroke:#181818;stroke-width:1.0;" x1="326.5" x2="1117.5" y1="427.8223" y2="427.8223"/><text fill="#000000" font-family="sans-serif" font-size="13" font-weight="bold" lengthAdjust="spacing" textLength="7" x="333.5" y="422.5596">9</text><text fill="#000000" font-family="sans-serif" font-size="13" lengthAdjust="spacing" textLength="154" x="344.5" y="422.5596">setEntryAgenda(startDate)</text><line style="stroke:#181818;stroke-width:1.0;" x1="1138.5" x2="1180.5" y1="459.1133" y2="459.1133"/><line style="stroke:#181818;stroke-width:1.0;" x1="1180.5" x2="1180.5" y1="459.1133" y2="472.1133"/><line style="stroke:#181818;stroke-width:1.0;" x1="1139.5" x2="1180.5" y1="472.1133" y2="472.1133"/><polygon fill="#181818" points="1149.5,468.1133,1139.5,472.1133,1149.5,476.1133,1145.5,472.1133" style="stroke:#181818;stroke-width:1.0;"/><text fill="#000000" font-family="sans-serif" font-size="13" font-weight="bold" lengthAdjust="spacing" textLength="14" x="1145.5" y="453.8506">10</text><text fill="#000000" font-family="sans-serif" font-size="13" lengthAdjust="spacing" textLength="134" x="1163.5" y="453.8506">setStartDate(startDate)</text><polygon fill="#181818" points="538.5,529.4043,548.5,533.4043,538.5,537.4043,542.5,533.4043" style="stroke:#181818;stroke-width:1.0;"/><line style="stroke:#181818;stroke-width:1.0;" x1="326.5" x2="544.5" y1="533.4043" y2="533.4043"/><text fill="#000000" font-family="sans-serif" font-size="13" font-weight="bold" lengthAdjust="spacing" textLength="14" x="333.5" y="528.1416">11</text><text fill="#000000" font-family="sans-serif" font-size="13" lengthAdjust="spacing" textLength="187" x="351.5" y="528.1416">assignEntryOnAgenda(entryDto)</text><polygon fill="#181818" points="933.5,560.6953,943.5,564.6953,933.5,568.6953,937.5,564.6953" style="stroke:#181818;stroke-width:1.0;"/><line style="stroke:#181818;stroke-width:1.0;" x1="560.5" x2="939.5" y1="564.6953" y2="564.6953"/><text fill="#000000" font-family="sans-serif" font-size="13" font-weight="bold" lengthAdjust="spacing" textLength="14" x="567.5" y="559.4326">12</text><text fill="#000000" font-family="sans-serif" font-size="13" lengthAdjust="spacing" textLength="187" x="585.5" y="559.4326">assignEntryOnAgenda(entryDto)</text><rect fill="none" height="43.252" style="stroke:#000000;stroke-width:1.5;" width="221" x="888" y="572.6953"/><path d="M888,572.6953 L950,572.6953 L950,581.6953 L940,591.6953 L888,591.6953 L888,572.6953 " fill="#EEEEEE" style="stroke:#000000;stroke-width:2.0;"/><text fill="#000000" font-family="sans-serif" font-size="13" font-weight="bold" lengthAdjust="spacing" textLength="17" x="901" y="588.7236">ref</text><text fill="#000000" font-family="sans-serif" font-size="12" lengthAdjust="spacing" textLength="213" x="892" y="608.6445">Get Entry equal to DTO again with Task</text><polygon fill="#181818" points="571.5,640.2383,561.5,644.2383,571.5,648.2383,567.5,644.2383" style="stroke:#181818;stroke-width:1.0;"/><line style="stroke:#181818;stroke-width:1.0;" x1="565.5" x2="949.5" y1="644.2383" y2="644.2383"/><text fill="#000000" font-family="sans-serif" font-size="13" font-weight="bold" lengthAdjust="spacing" textLength="14" x="577.5" y="638.9756">13</text><text fill="#000000" font-family="sans-serif" font-size="13" lengthAdjust="spacing" textLength="61" x="595.5" y="638.9756">true / false</text><polygon fill="#181818" points="337.5,671.5293,327.5,675.5293,337.5,679.5293,333.5,675.5293" style="stroke:#181818;stroke-width:1.0;"/><line style="stroke:#181818;stroke-width:1.0;" x1="331.5" x2="554.5" y1="675.5293" y2="675.5293"/><text fill="#000000" font-family="sans-serif" font-size="13" font-weight="bold" lengthAdjust="spacing" textLength="14" x="343.5" y="670.2666">14</text><text fill="#000000" font-family="sans-serif" font-size="13" lengthAdjust="spacing" textLength="61" x="361.5" y="670.2666">true / false</text><polygon fill="#181818" points="34.5,702.8203,24.5,706.8203,34.5,710.8203,30.5,706.8203" style="stroke:#181818;stroke-width:1.0;"/><line style="stroke:#181818;stroke-width:1.0;" x1="28.5" x2="320.5" y1="706.8203" y2="706.8203"/><text fill="#000000" font-family="sans-serif" font-size="13" font-weight="bold" lengthAdjust="spacing" textLength="14" x="40.5" y="701.5576">15</text><text fill="#000000" font-family="sans-serif" font-size="13" lengthAdjust="spacing" textLength="212" x="58.5" y="701.5576">Update Agenda and Show with Entry</text><!--SRC=[dLLDJ-Cm4BtxLuouK11exsY5rAK8WK0WMcvSXcIQMAHsrfx2zj_ls4bQ9xJbevScddbldkSh_bMR6XqkO66DpKfd5mJibgJysb9Zzee5JNbL4JZA64rHfGw-nDo-QrF072jFIk6IhLakNiWfTLZgd61kBR_OVmepjWuEhgPt1u0Uv5y91-jCrsWO3ix6tkl2N1fsgtipBiZa-7GTVP-kFtUziF9cgufSX5pC7cy7e4UghTSYGfEFFkk3rLI7UudoFiGbY6VpaU3XTZph8oX8sl0AwB9_4d63iu7EQ8r-ztzkjjacRADvChlVPhx3kcwpS3T-UBXyx3kndTXRxLbOu0p2q- -EzJo2ed58tQ5wa8s_Kg6- -WsPOcKLj3zvWTDpgQ00qRzwaAWOgmTecaI0Dj3KS0DRaqdfrI4aFs4w5SB0UoOj-NT9dZtao0WZHtDoP38wWPnyvdJDsfeJa0XpwnPOmRFfMvYoqkXCBBtZVEcmUSgivoEL2ZZC70LbiSE6oixZyV6nQ6lSr0uNSIY8PsrMH_qGwzl763sJN17i6xcEv8eOk2IOMPZOhXGf8Ffr5KXgttFAQK_8HdIJS5_QzpPM5Re1JHxA6ghggP850TPGKzPT0K95KrFia4xWNfAT5Ad2NalyI0ElQl8T3-LjRqq2phFCH7Ww-eum6QPuDOvNQbfzz1bLcC3K44XIhcc7_pPJaeTWsclRtRtuSGMFgDqZN-xchZa72_5dzCEjkdrk1bxD13LxI2ekYq1QEIGP2vIzzAwvX9bqk1haOgXuavZm2OLVxVTmHsxtIkrFx1VODdbD1-6fpeEnoLqSr6aOtdYZpMmDXY9v3MlyFm00]--></g></svg>