<?xml version="1.0" encoding="us-ascii" standalone="no"?><svg xmlns="http://www.w3.org/2000/svg" xmlns:xlink="http://www.w3.org/1999/xlink" contentStyleType="text/css" height="520px" preserveAspectRatio="none" style="width:901px;height:520px;background:#FFFFFF;" version="1.1" viewBox="0 0 901 520" width="901px" zoomAndPan="magnify"><defs/><g><rect fill="#FFFFFF" height="355.3281" style="stroke:#181818;stroke-width:1.0;" width="10" x="273.5" y="90.5332"/><rect fill="#FFFFFF" height="67.291" style="stroke:#181818;stroke-width:1.0;" width="10" x="368.5" y="301.9883"/><rect fill="#FFFFFF" height="28" style="stroke:#181818;stroke-width:1.0;" width="10" x="373.5" y="341.2793"/><rect fill="#FFFFFF" height="30" style="stroke:#181818;stroke-width:1.0;" width="10" x="548.5" y="240.6973"/><rect fill="#FFFFFF" height="198.1641" style="stroke:#181818;stroke-width:1.0;" width="10" x="749.5" y="209.4063"/><rect fill="#FFFFFF" height="30" style="stroke:#181818;stroke-width:1.0;" width="10" x="844.5" y="148.1152"/><rect fill="none" height="310.0371" style="stroke:#000000;stroke-width:1.5;" width="686" x="209" y="105.5332"/><line style="stroke:#181818;stroke-width:0.5;stroke-dasharray:5.0,5.0;" x1="53" x2="53" y1="57.2422" y2="463.8613"/><line style="stroke:#181818;stroke-width:0.5;stroke-dasharray:5.0,5.0;" x1="160" x2="160" y1="57.2422" y2="463.8613"/><line style="stroke:#181818;stroke-width:0.5;stroke-dasharray:5.0,5.0;" x1="278" x2="278" y1="57.2422" y2="463.8613"/><line style="stroke:#181818;stroke-width:0.5;stroke-dasharray:5.0,5.0;" x1="373" x2="373" y1="57.2422" y2="463.8613"/><line style="stroke:#181818;stroke-width:0.5;stroke-dasharray:5.0,5.0;" x1="553" x2="553" y1="57.2422" y2="463.8613"/><line style="stroke:#181818;stroke-width:0.5;stroke-dasharray:5.0,5.0;" x1="754" x2="754" y1="57.2422" y2="463.8613"/><line style="stroke:#181818;stroke-width:0.5;stroke-dasharray:5.0,5.0;" x1="849" x2="849" y1="57.2422" y2="463.8613"/><rect fill="#E3E3E3" height="32.6211" rx="2.5" ry="2.5" style="stroke:#181818;stroke-width:0.5;" width="97" x="5" y="23.6211"/><text fill="#000000" font-family="sans-serif" font-size="14" lengthAdjust="spacing" textLength="83" x="12" y="45.7285">:Repositories</text><rect fill="#E3E3E3" height="32.6211" rx="2.5" ry="2.5" style="stroke:#181818;stroke-width:0.5;" width="97" x="5" y="462.8613"/><text fill="#000000" font-family="sans-serif" font-size="14" lengthAdjust="spacing" textLength="83" x="12" y="484.9688">:Repositories</text><rect fill="#E3E3E3" height="51.2422" rx="2.5" ry="2.5" style="stroke:#181818;stroke-width:0.5;" width="97" x="112" y="5"/><text fill="#000000" font-family="sans-serif" font-size="14" lengthAdjust="spacing" textLength="74" x="123.5" y="27.1074">repositories</text><text fill="#000000" font-family="sans-serif" font-size="14" lengthAdjust="spacing" textLength="83" x="119" y="45.7285">:Repositories</text><rect fill="#E3E3E3" height="51.2422" rx="2.5" ry="2.5" style="stroke:#181818;stroke-width:0.5;" width="97" x="112" y="462.8613"/><text fill="#000000" font-family="sans-serif" font-size="14" lengthAdjust="spacing" textLength="74" x="123.5" y="484.9688">repositories</text><text fill="#000000" font-family="sans-serif" font-size="14" lengthAdjust="spacing" textLength="83" x="119" y="503.5898">:Repositories</text><rect fill="#E3E3E3" height="51.2422" rx="2.5" ry="2.5" style="stroke:#181818;stroke-width:0.5;" width="119" x="219" y="5"/><text fill="#000000" font-family="sans-serif" font-size="14" lengthAdjust="spacing" textLength="100" x="228.5" y="27.1074">entryRepository</text><text fill="#000000" font-family="sans-serif" font-size="14" lengthAdjust="spacing" textLength="105" x="226" y="45.7285">:EntryRepository</text><rect fill="#E3E3E3" height="51.2422" rx="2.5" ry="2.5" style="stroke:#181818;stroke-width:0.5;" width="119" x="219" y="462.8613"/><text fill="#000000" font-family="sans-serif" font-size="14" lengthAdjust="spacing" textLength="100" x="228.5" y="484.9688">entryRepository</text><text fill="#000000" font-family="sans-serif" font-size="14" lengthAdjust="spacing" textLength="105" x="226" y="503.5898">:EntryRepository</text><rect fill="#E3E3E3" height="32.6211" rx="2.5" ry="2.5" style="stroke:#181818;stroke-width:0.5;" width="51" x="348" y="23.6211"/><text fill="#000000" font-family="sans-serif" font-size="14" lengthAdjust="spacing" textLength="37" x="355" y="45.7285">:Entry</text><rect fill="#E3E3E3" height="32.6211" rx="2.5" ry="2.5" style="stroke:#181818;stroke-width:0.5;" width="51" x="348" y="462.8613"/><text fill="#000000" font-family="sans-serif" font-size="14" lengthAdjust="spacing" textLength="37" x="355" y="484.9688">:Entry</text><rect fill="#E3E3E3" height="32.6211" rx="2.5" ry="2.5" style="stroke:#181818;stroke-width:0.5;" width="73" x="517" y="23.6211"/><text fill="#000000" font-family="sans-serif" font-size="14" lengthAdjust="spacing" textLength="59" x="524" y="45.7285">:EntryDto</text><rect fill="#E3E3E3" height="32.6211" rx="2.5" ry="2.5" style="stroke:#181818;stroke-width:0.5;" width="73" x="517" y="462.8613"/><text fill="#000000" font-family="sans-serif" font-size="14" lengthAdjust="spacing" textLength="59" x="524" y="484.9688">:EntryDto</text><rect fill="#E3E3E3" height="32.6211" rx="2.5" ry="2.5" style="stroke:#181818;stroke-width:0.5;" width="99" x="705" y="23.6211"/><text fill="#000000" font-family="sans-serif" font-size="14" lengthAdjust="spacing" textLength="85" x="712" y="45.7285">:EntryMapper</text><rect fill="#E3E3E3" height="32.6211" rx="2.5" ry="2.5" style="stroke:#181818;stroke-width:0.5;" width="99" x="705" y="462.8613"/><text fill="#000000" font-family="sans-serif" font-size="14" lengthAdjust="spacing" textLength="85" x="712" y="484.9688">:EntryMapper</text><rect fill="#E3E3E3" height="32.6211" rx="2.5" ry="2.5" style="stroke:#181818;stroke-width:0.5;" width="71" x="814" y="23.6211"/><text fill="#000000" font-family="sans-serif" font-size="14" lengthAdjust="spacing" textLength="57" x="821" y="45.7285">ToDoList</text><rect fill="#E3E3E3" height="32.6211" rx="2.5" ry="2.5" style="stroke:#181818;stroke-width:0.5;" width="71" x="814" y="462.8613"/><text fill="#000000" font-family="sans-serif" font-size="14" lengthAdjust="spacing" textLength="57" x="821" y="484.9688">ToDoList</text><rect fill="#FFFFFF" height="355.3281" style="stroke:#181818;stroke-width:1.0;" width="10" x="273.5" y="90.5332"/><rect fill="#FFFFFF" height="67.291" style="stroke:#181818;stroke-width:1.0;" width="10" x="368.5" y="301.9883"/><rect fill="#FFFFFF" height="28" style="stroke:#181818;stroke-width:1.0;" width="10" x="373.5" y="341.2793"/><rect fill="#FFFFFF" height="30" style="stroke:#181818;stroke-width:1.0;" width="10" x="548.5" y="240.6973"/><rect fill="#FFFFFF" height="198.1641" style="stroke:#181818;stroke-width:1.0;" width="10" x="749.5" y="209.4063"/><rect fill="#FFFFFF" height="30" style="stroke:#181818;stroke-width:1.0;" width="10" x="844.5" y="148.1152"/><polygon fill="#181818" points="261.5,86.5332,271.5,90.5332,261.5,94.5332,265.5,90.5332" style="stroke:#181818;stroke-width:1.0;"/><line style="stroke:#181818;stroke-width:1.0;" x1="0" x2="267.5" y1="90.5332" y2="90.5332"/><text fill="#000000" font-family="sans-serif" font-size="13" font-weight="bold" lengthAdjust="spacing" textLength="7" x="7" y="85.2705">3</text><text fill="#000000" font-family="sans-serif" font-size="13" lengthAdjust="spacing" textLength="187" x="18" y="85.2705">assignEntryOnAgenda(entryDto)</text><path d="M209,105.5332 L365,105.5332 L365,114.8242 L355,124.8242 L209,124.8242 L209,105.5332 " fill="#EEEEEE" style="stroke:#000000;stroke-width:1.5;"/><rect fill="none" height="310.0371" style="stroke:#000000;stroke-width:1.5;" width="686" x="209" y="105.5332"/><text fill="#000000" font-family="sans-serif" font-size="13" font-weight="bold" lengthAdjust="spacing" textLength="111" x="224" y="120.5615">To Model Mapper</text><polygon fill="#181818" points="832.5,144.1152,842.5,148.1152,832.5,152.1152,836.5,148.1152" style="stroke:#181818;stroke-width:1.0;"/><line style="stroke:#181818;stroke-width:1.0;" x1="283.5" x2="838.5" y1="148.1152" y2="148.1152"/><text fill="#000000" font-family="sans-serif" font-size="13" font-weight="bold" lengthAdjust="spacing" textLength="18" x="290.5" y="142.8525">3.1</text><text fill="#000000" font-family="sans-serif" font-size="13" lengthAdjust="spacing" textLength="231" x="312.5" y="142.8525">searchForEntryToDo(EntryDto entryDto)</text><polygon fill="#181818" points="737.5,205.4063,747.5,209.4063,737.5,213.4063,741.5,209.4063" style="stroke:#181818;stroke-width:1.0;"/><line style="stroke:#181818;stroke-width:1.0;" x1="283.5" x2="743.5" y1="209.4063" y2="209.4063"/><text fill="#000000" font-family="sans-serif" font-size="13" font-weight="bold" lengthAdjust="spacing" textLength="18" x="290.5" y="204.1436">3.2</text><text fill="#000000" font-family="sans-serif" font-size="13" lengthAdjust="spacing" textLength="140" x="312.5" y="204.1436">toModel(entryDto, entry)</text><polygon fill="#181818" points="569.5,236.6973,559.5,240.6973,569.5,244.6973,565.5,240.6973" style="stroke:#181818;stroke-width:1.0;"/><line style="stroke:#181818;stroke-width:1.0;" x1="563.5" x2="748.5" y1="240.6973" y2="240.6973"/><text fill="#000000" font-family="sans-serif" font-size="13" font-weight="bold" lengthAdjust="spacing" textLength="18" x="575.5" y="235.4346">3.3</text><text fill="#000000" font-family="sans-serif" font-size="13" lengthAdjust="spacing" textLength="150" x="597.5" y="235.4346">startDate = getStartDate()</text><polygon fill="#181818" points="389.5,297.9883,379.5,301.9883,389.5,305.9883,385.5,301.9883" style="stroke:#181818;stroke-width:1.0;"/><line style="stroke:#181818;stroke-width:1.0;" x1="383.5" x2="748.5" y1="301.9883" y2="301.9883"/><text fill="#000000" font-family="sans-serif" font-size="13" font-weight="bold" lengthAdjust="spacing" textLength="18" x="395.5" y="296.7256">3.4</text><text fill="#000000" font-family="sans-serif" font-size="13" lengthAdjust="spacing" textLength="154" x="417.5" y="296.7256">setEntryAgenda(startDate)</text><line style="stroke:#181818;stroke-width:1.0;" x1="383.5" x2="425.5" y1="333.2793" y2="333.2793"/><line style="stroke:#181818;stroke-width:1.0;" x1="425.5" x2="425.5" y1="333.2793" y2="346.2793"/><line style="stroke:#181818;stroke-width:1.0;" x1="384.5" x2="425.5" y1="346.2793" y2="346.2793"/><polygon fill="#181818" points="394.5,342.2793,384.5,346.2793,394.5,350.2793,390.5,346.2793" style="stroke:#181818;stroke-width:1.0;"/><text fill="#000000" font-family="sans-serif" font-size="13" font-weight="bold" lengthAdjust="spacing" textLength="18" x="390.5" y="328.0166">3.5</text><text fill="#000000" font-family="sans-serif" font-size="13" lengthAdjust="spacing" textLength="134" x="412.5" y="328.0166">setStartDate(startDate)</text><polygon fill="#181818" points="294.5,403.5703,284.5,407.5703,294.5,411.5703,290.5,407.5703" style="stroke:#181818;stroke-width:1.0;"/><line style="stroke:#181818;stroke-width:1.0;" x1="288.5" x2="753.5" y1="407.5703" y2="407.5703"/><text fill="#000000" font-family="sans-serif" font-size="13" font-weight="bold" lengthAdjust="spacing" textLength="18" x="300.5" y="402.3076">3.6</text><text fill="#000000" font-family="sans-serif" font-size="13" lengthAdjust="spacing" textLength="61" x="322.5" y="402.3076">true / false</text><polygon fill="#181818" points="11,441.8613,1,445.8613,11,449.8613,7,445.8613" style="stroke:#181818;stroke-width:1.0;"/><line style="stroke:#181818;stroke-width:1.0;" x1="5" x2="277.5" y1="445.8613" y2="445.8613"/><text fill="#000000" font-family="sans-serif" font-size="13" font-weight="bold" lengthAdjust="spacing" textLength="7" x="17" y="440.5986">4</text><text fill="#000000" font-family="sans-serif" font-size="13" lengthAdjust="spacing" textLength="61" x="28" y="440.5986">true / false</text><!--SRC=[hLHDJm8n4BttLqouY8beZ9w8cc30Wu50WAENiZii3T3Pj8FAlxSji9HboNAmbytEl7dpvlN3BfNEfP5hM9EcP65eZS1cWy8McLmcIvdXXBSh18C9IvsjOe1To9H-bCvWBbSMXP0R9hrPpz08SRDGASASY6VqAuIhO9MeN6g6HdkCELd5P1JQ1aWBHM0xKRwBupajCL75bpud6FKxqzCAr6osHrvNr3kDXBfIhAGpP0Dk-FvPbUioXNHtEgnA3sIUemc8GMSqwes5Y5s29o6WzLOM0MrNO5McGtoeEndgL3Pnt_3sXE7-KSY4rRTaF1i6tCeCRNAO4WmenHNi58cGAg-o3ATiIbtgAyjEaaLfaiK7cG3pYUR10ZXAg-8jz1tOAb4fdkEkbRapruba2cCMNjtjf5NhYgKTjkS2Rj_0jN8xxSrWjzbTN_WA6VBayDkix-IFoWLCP857NQ767SkmDHnCsH-KGboz67-iBs0yTTpXEEF_y4V3UjIri7fFpc-JVzZWOVzArVSfhggFEqV3Dxfppo7mqghh556MRwRu0m00]--></g></svg>