<?xml version="1.0" encoding="us-ascii" standalone="no"?><svg xmlns="http://www.w3.org/2000/svg" xmlns:xlink="http://www.w3.org/1999/xlink" contentStyleType="text/css" height="723px" preserveAspectRatio="none" style="width:1504px;height:723px;background:#FFFFFF;" version="1.1" viewBox="0 0 1504 723" width="1504px" zoomAndPan="magnify"><defs/><g><rect fill="#FFFFFF" height="570.4219" style="stroke:#181818;stroke-width:1.0;" width="10" x="190" y="83.7266"/><rect fill="#FFFFFF" height="29.1328" style="stroke:#181818;stroke-width:1.0;" width="10" x="331" y="136.9922"/><rect fill="#FFFFFF" height="29.1328" style="stroke:#181818;stroke-width:1.0;" width="10" x="444.5" y="195.2578"/><rect fill="#FFFFFF" height="29.1328" style="stroke:#181818;stroke-width:1.0;" width="10" x="626" y="253.5234"/><rect fill="#FFFFFF" height="306.2266" style="stroke:#181818;stroke-width:1.0;" width="10" x="807.5" y="311.7891"/><rect fill="#FFFFFF" height="49.2656" style="stroke:#181818;stroke-width:1.0;" width="10" x="812.5" y="473.4844"/><rect fill="#FFFFFF" height="30" style="stroke:#181818;stroke-width:1.0;" width="10" x="993.5" y="406.3516"/><rect fill="#FFFFFF" height="30" style="stroke:#181818;stroke-width:1.0;" width="10" x="1209.5" y="551.8828"/><rect fill="none" height="527.2891" style="stroke:#000000;stroke-width:1.5;" width="1382.5" x="115.5" y="98.7266"/><rect fill="none" height="221.7969" style="stroke:#000000;stroke-width:1.5;" width="738.5" x="749.5" y="368.0859"/><line style="stroke:#181818;stroke-width:0.5;stroke-dasharray:5.0,5.0;" x1="194.5" x2="194.5" y1="52.5938" y2="672.1484"/><line style="stroke:#181818;stroke-width:0.5;stroke-dasharray:5.0,5.0;" x1="335.5" x2="335.5" y1="52.5938" y2="672.1484"/><line style="stroke:#181818;stroke-width:0.5;stroke-dasharray:5.0,5.0;" x1="449.5" x2="449.5" y1="52.5938" y2="672.1484"/><line style="stroke:#181818;stroke-width:0.5;stroke-dasharray:5.0,5.0;" x1="630.5" x2="630.5" y1="52.5938" y2="672.1484"/><line style="stroke:#181818;stroke-width:0.5;stroke-dasharray:5.0,5.0;" x1="812.5" x2="812.5" y1="52.5938" y2="672.1484"/><line style="stroke:#181818;stroke-width:0.5;stroke-dasharray:5.0,5.0;" x1="998" x2="998" y1="52.5938" y2="672.1484"/><line style="stroke:#181818;stroke-width:0.5;stroke-dasharray:5.0,5.0;" x1="1214" x2="1214" y1="350.4375" y2="672.1484"/><line style="stroke:#181818;stroke-width:0.5;stroke-dasharray:5.0,5.0;" x1="1415" x2="1415" y1="518.6172" y2="672.1484"/><rect fill="#E3E3E3" height="30.2969" rx="2.5" ry="2.5" style="stroke:#181818;stroke-width:0.5;" width="139" x="125.5" y="21.2969"/><text fill="#000000" font-family="sans-serif" font-size="14" lengthAdjust="spacing" textLength="125" x="132.5" y="41.292">:AgendaController</text><rect fill="#E3E3E3" height="30.2969" rx="2.5" ry="2.5" style="stroke:#181818;stroke-width:0.5;" width="139" x="125.5" y="671.1484"/><text fill="#000000" font-family="sans-serif" font-size="14" lengthAdjust="spacing" textLength="125" x="132.5" y="691.1436">:AgendaController</text><rect fill="#E3E3E3" height="30.2969" rx="2.5" ry="2.5" style="stroke:#181818;stroke-width:0.5;" width="101" x="285.5" y="21.2969"/><text fill="#000000" font-family="sans-serif" font-size="14" lengthAdjust="spacing" textLength="87" x="292.5" y="41.292">Repositories</text><rect fill="#E3E3E3" height="30.2969" rx="2.5" ry="2.5" style="stroke:#181818;stroke-width:0.5;" width="101" x="285.5" y="671.1484"/><text fill="#000000" font-family="sans-serif" font-size="14" lengthAdjust="spacing" textLength="87" x="292.5" y="691.1436">Repositories</text><rect fill="#E3E3E3" height="46.5938" rx="2.5" ry="2.5" style="stroke:#181818;stroke-width:0.5;" width="106" x="396.5" y="5"/><text fill="#000000" font-family="sans-serif" font-size="14" lengthAdjust="spacing" textLength="82" x="408.5" y="24.9951">repositories</text><text fill="#000000" font-family="sans-serif" font-size="14" lengthAdjust="spacing" textLength="92" x="403.5" y="41.292">:Repositories</text><rect fill="#E3E3E3" height="46.5938" rx="2.5" ry="2.5" style="stroke:#181818;stroke-width:0.5;" width="106" x="396.5" y="671.1484"/><text fill="#000000" font-family="sans-serif" font-size="14" lengthAdjust="spacing" textLength="82" x="408.5" y="691.1436">repositories</text><text fill="#000000" font-family="sans-serif" font-size="14" lengthAdjust="spacing" textLength="92" x="403.5" y="707.4404">:Repositories</text><rect fill="#E3E3E3" height="30.2969" rx="2.5" ry="2.5" style="stroke:#181818;stroke-width:0.5;" width="237" x="512.5" y="21.2969"/><text fill="#000000" font-family="sans-serif" font-size="14" lengthAdjust="spacing" textLength="223" x="519.5" y="41.292">entryRepository:EntryRepository</text><rect fill="#E3E3E3" height="30.2969" rx="2.5" ry="2.5" style="stroke:#181818;stroke-width:0.5;" width="237" x="512.5" y="671.1484"/><text fill="#000000" font-family="sans-serif" font-size="14" lengthAdjust="spacing" textLength="223" x="519.5" y="691.1436">entryRepository:EntryRepository</text><rect fill="#E3E3E3" height="30.2969" rx="2.5" ry="2.5" style="stroke:#181818;stroke-width:0.5;" width="106" x="759.5" y="21.2969"/><text fill="#000000" font-family="sans-serif" font-size="14" lengthAdjust="spacing" textLength="92" x="766.5" y="41.292">:EntryMapper</text><rect fill="#E3E3E3" height="30.2969" rx="2.5" ry="2.5" style="stroke:#181818;stroke-width:0.5;" width="106" x="759.5" y="671.1484"/><text fill="#000000" font-family="sans-serif" font-size="14" lengthAdjust="spacing" textLength="92" x="766.5" y="691.1436">:EntryMapper</text><rect fill="#E3E3E3" height="30.2969" rx="2.5" ry="2.5" style="stroke:#181818;stroke-width:0.5;" width="155" x="921" y="21.2969"/><text fill="#000000" font-family="sans-serif" font-size="14" lengthAdjust="spacing" textLength="141" x="928" y="41.292">entryList:list&lt;Entry&gt;</text><rect fill="#E3E3E3" height="30.2969" rx="2.5" ry="2.5" style="stroke:#181818;stroke-width:0.5;" width="155" x="921" y="671.1484"/><text fill="#000000" font-family="sans-serif" font-size="14" lengthAdjust="spacing" textLength="141" x="928" y="691.1436">entryList:list&lt;Entry&gt;</text><rect fill="#E3E3E3" height="30.2969" rx="2.5" ry="2.5" style="stroke:#181818;stroke-width:0.5;" width="257" x="1086" y="671.1484"/><text fill="#000000" font-family="sans-serif" font-size="14" lengthAdjust="spacing" textLength="243" x="1093" y="691.1436">agendaEntryListDto:list&lt;EntryDto&gt;</text><rect fill="#E3E3E3" height="30.2969" rx="2.5" ry="2.5" style="stroke:#181818;stroke-width:0.5;" width="125" x="1353" y="671.1484"/><text fill="#000000" font-family="sans-serif" font-size="14" lengthAdjust="spacing" textLength="111" x="1360" y="691.1436">objDto:EntryDto</text><rect fill="#FFFFFF" height="570.4219" style="stroke:#181818;stroke-width:1.0;" width="10" x="190" y="83.7266"/><rect fill="#FFFFFF" height="29.1328" style="stroke:#181818;stroke-width:1.0;" width="10" x="331" y="136.9922"/><rect fill="#FFFFFF" height="29.1328" style="stroke:#181818;stroke-width:1.0;" width="10" x="444.5" y="195.2578"/><rect fill="#FFFFFF" height="29.1328" style="stroke:#181818;stroke-width:1.0;" width="10" x="626" y="253.5234"/><rect fill="#FFFFFF" height="306.2266" style="stroke:#181818;stroke-width:1.0;" width="10" x="807.5" y="311.7891"/><rect fill="#FFFFFF" height="49.2656" style="stroke:#181818;stroke-width:1.0;" width="10" x="812.5" y="473.4844"/><rect fill="#FFFFFF" height="30" style="stroke:#181818;stroke-width:1.0;" width="10" x="993.5" y="406.3516"/><rect fill="#FFFFFF" height="30" style="stroke:#181818;stroke-width:1.0;" width="10" x="1209.5" y="551.8828"/><polygon fill="#181818" points="178,79.7266,188,83.7266,178,87.7266,182,83.7266" style="stroke:#181818;stroke-width:1.0;"/><line style="stroke:#181818;stroke-width:1.0;" x1="0" x2="184" y1="83.7266" y2="83.7266"/><text fill="#000000" font-family="sans-serif" font-size="13" font-weight="bold" lengthAdjust="spacing" textLength="9" x="7" y="78.6606">2</text><text fill="#000000" font-family="sans-serif" font-size="13" lengthAdjust="spacing" textLength="158" x="20" y="78.6606">getAgendaEntryListDto()</text><path d="M115.5,98.7266 L355.5,98.7266 L355.5,105.8594 L345.5,115.8594 L115.5,115.8594 L115.5,98.7266 " fill="#EEEEEE" style="stroke:#000000;stroke-width:1.5;"/><rect fill="none" height="527.2891" style="stroke:#000000;stroke-width:1.5;" width="1382.5" x="115.5" y="98.7266"/><text fill="#000000" font-family="sans-serif" font-size="13" font-weight="bold" lengthAdjust="spacing" textLength="195" x="130.5" y="111.7935">Get List of Agenda Entries</text><polygon fill="#181818" points="319,132.9922,329,136.9922,319,140.9922,323,136.9922" style="stroke:#181818;stroke-width:1.0;"/><line style="stroke:#181818;stroke-width:1.0;" x1="200" x2="325" y1="136.9922" y2="136.9922"/><text fill="#000000" font-family="sans-serif" font-size="13" font-weight="bold" lengthAdjust="spacing" textLength="23" x="207" y="131.9263">2.1</text><text fill="#000000" font-family="sans-serif" font-size="13" lengthAdjust="spacing" textLength="85" x="234" y="131.9263">getInstance()</text><polygon fill="#181818" points="211,162.125,201,166.125,211,170.125,207,166.125" style="stroke:#181818;stroke-width:1.0;"/><line style="stroke:#181818;stroke-width:1.0;stroke-dasharray:2.0,2.0;" x1="205" x2="335" y1="166.125" y2="166.125"/><text fill="#000000" font-family="sans-serif" font-size="13" font-weight="bold" lengthAdjust="spacing" textLength="23" x="217" y="161.0591">2.2</text><text fill="#000000" font-family="sans-serif" font-size="13" lengthAdjust="spacing" textLength="75" x="244" y="161.0591">repositories</text><polygon fill="#181818" points="432.5,191.2578,442.5,195.2578,432.5,199.2578,436.5,195.2578" style="stroke:#181818;stroke-width:1.0;"/><line style="stroke:#181818;stroke-width:1.0;" x1="200" x2="438.5" y1="195.2578" y2="195.2578"/><text fill="#000000" font-family="sans-serif" font-size="13" font-weight="bold" lengthAdjust="spacing" textLength="23" x="207" y="190.1919">2.3</text><text fill="#000000" font-family="sans-serif" font-size="13" lengthAdjust="spacing" textLength="131" x="234" y="190.1919">getEntryRepository()</text><polygon fill="#181818" points="211,220.3906,201,224.3906,211,228.3906,207,224.3906" style="stroke:#181818;stroke-width:1.0;"/><line style="stroke:#181818;stroke-width:1.0;stroke-dasharray:2.0,2.0;" x1="205" x2="448.5" y1="224.3906" y2="224.3906"/><text fill="#000000" font-family="sans-serif" font-size="13" font-weight="bold" lengthAdjust="spacing" textLength="23" x="217" y="219.3247">2.4</text><text fill="#000000" font-family="sans-serif" font-size="13" lengthAdjust="spacing" textLength="100" x="244" y="219.3247">entryRepository</text><polygon fill="#181818" points="614,249.5234,624,253.5234,614,257.5234,618,253.5234" style="stroke:#181818;stroke-width:1.0;"/><line style="stroke:#181818;stroke-width:1.0;" x1="200" x2="620" y1="253.5234" y2="253.5234"/><text fill="#000000" font-family="sans-serif" font-size="13" font-weight="bold" lengthAdjust="spacing" textLength="23" x="207" y="248.4575">2.5</text><text fill="#000000" font-family="sans-serif" font-size="13" lengthAdjust="spacing" textLength="80" x="234" y="248.4575">getAgenda()</text><polygon fill="#181818" points="211,278.6563,201,282.6563,211,286.6563,207,282.6563" style="stroke:#181818;stroke-width:1.0;"/><line style="stroke:#181818;stroke-width:1.0;" x1="205" x2="630" y1="282.6563" y2="282.6563"/><text fill="#000000" font-family="sans-serif" font-size="13" font-weight="bold" lengthAdjust="spacing" textLength="23" x="217" y="277.5903">2.6</text><text fill="#000000" font-family="sans-serif" font-size="13" lengthAdjust="spacing" textLength="103" x="244" y="277.5903">agendaEntryList</text><polygon fill="#181818" points="795.5,307.7891,805.5,311.7891,795.5,315.7891,799.5,311.7891" style="stroke:#181818;stroke-width:1.0;"/><line style="stroke:#181818;stroke-width:1.0;" x1="200" x2="801.5" y1="311.7891" y2="311.7891"/><text fill="#000000" font-family="sans-serif" font-size="13" font-weight="bold" lengthAdjust="spacing" textLength="23" x="207" y="306.7231">2.7</text><text fill="#000000" font-family="sans-serif" font-size="13" lengthAdjust="spacing" textLength="153" x="234" y="306.7231">toDTO(agendaEntryList)</text><polygon fill="#181818" points="1074,336.9219,1084,340.9219,1074,344.9219,1078,340.9219" style="stroke:#181818;stroke-width:1.0;"/><line style="stroke:#181818;stroke-width:1.0;" x1="817.5" x2="1080" y1="340.9219" y2="340.9219"/><text fill="#000000" font-family="sans-serif" font-size="13" font-weight="bold" lengthAdjust="spacing" textLength="23" x="824.5" y="335.856">2.8</text><text fill="#000000" font-family="sans-serif" font-size="13" lengthAdjust="spacing" textLength="51" x="851.5" y="335.856">create()</text><rect fill="#E3E3E3" height="30.2969" rx="2.5" ry="2.5" style="stroke:#181818;stroke-width:0.5;" width="257" x="1086" y="319.7891"/><text fill="#000000" font-family="sans-serif" font-size="14" lengthAdjust="spacing" textLength="243" x="1093" y="339.7842">agendaEntryListDto:list&lt;EntryDto&gt;</text><path d="M749.5,368.0859 L826.5,368.0859 L826.5,375.2188 L816.5,385.2188 L749.5,385.2188 L749.5,368.0859 " fill="#EEEEEE" style="stroke:#000000;stroke-width:1.5;"/><rect fill="none" height="221.7969" style="stroke:#000000;stroke-width:1.5;" width="738.5" x="749.5" y="368.0859"/><text fill="#000000" font-family="sans-serif" font-size="13" font-weight="bold" lengthAdjust="spacing" textLength="32" x="764.5" y="381.1528">loop</text><text fill="#000000" font-family="sans-serif" font-size="11" font-weight="bold" lengthAdjust="spacing" textLength="183" x="841.5" y="380.2964">[for each object in EntryList]</text><polygon fill="#181818" points="981.5,402.3516,991.5,406.3516,981.5,410.3516,985.5,406.3516" style="stroke:#181818;stroke-width:1.0;"/><line style="stroke:#181818;stroke-width:1.0;" x1="817.5" x2="987.5" y1="406.3516" y2="406.3516"/><text fill="#000000" font-family="sans-serif" font-size="13" font-weight="bold" lengthAdjust="spacing" textLength="23" x="824.5" y="401.2856">2.9</text><text fill="#000000" font-family="sans-serif" font-size="13" lengthAdjust="spacing" textLength="69" x="851.5" y="401.2856">obj = get()</text><line style="stroke:#181818;stroke-width:1.0;" x1="817.5" x2="864.5" y1="460.4844" y2="460.4844"/><line style="stroke:#181818;stroke-width:1.0;" x1="864.5" x2="864.5" y1="460.4844" y2="473.4844"/><line style="stroke:#181818;stroke-width:1.0;" x1="823.5" x2="864.5" y1="473.4844" y2="473.4844"/><polygon fill="#181818" points="833.5,469.4844,823.5,473.4844,833.5,477.4844,829.5,473.4844" style="stroke:#181818;stroke-width:1.0;"/><text fill="#000000" font-family="sans-serif" font-size="13" font-weight="bold" lengthAdjust="spacing" textLength="32" x="829.5" y="455.4185">2.10</text><text fill="#000000" font-family="sans-serif" font-size="13" lengthAdjust="spacing" textLength="126" x="865.5" y="455.4185">objDto = toDto(obj)</text><polygon fill="#181818" points="1341,518.75,1351,522.75,1341,526.75,1345,522.75" style="stroke:#181818;stroke-width:1.0;"/><line style="stroke:#181818;stroke-width:1.0;" x1="817.5" x2="1347" y1="522.75" y2="522.75"/><text fill="#000000" font-family="sans-serif" font-size="13" font-weight="bold" lengthAdjust="spacing" textLength="32" x="824.5" y="510.1177">2.11</text><text fill="#000000" font-family="sans-serif" font-size="13" lengthAdjust="spacing" textLength="271" x="860.5" y="502.5513">create(obj.getStartDate(), obj.getStatus(),</text><text fill="#000000" font-family="sans-serif" font-size="13" lengthAdjust="spacing" textLength="409" x="860.5" y="517.6841">obj.getVehicleList(), obj.getTeamAssigned(), obj.getReference())</text><rect fill="#E3E3E3" height="30.2969" rx="2.5" ry="2.5" style="stroke:#181818;stroke-width:0.5;" width="125" x="1353" y="489.4531"/><text fill="#000000" font-family="sans-serif" font-size="14" lengthAdjust="spacing" textLength="111" x="1360" y="509.4482">objDto:EntryDto</text><polygon fill="#181818" points="1197.5,547.8828,1207.5,551.8828,1197.5,555.8828,1201.5,551.8828" style="stroke:#181818;stroke-width:1.0;"/><line style="stroke:#181818;stroke-width:1.0;" x1="817.5" x2="1203.5" y1="551.8828" y2="551.8828"/><text fill="#000000" font-family="sans-serif" font-size="13" font-weight="bold" lengthAdjust="spacing" textLength="32" x="824.5" y="546.8169">2.12</text><text fill="#000000" font-family="sans-serif" font-size="13" lengthAdjust="spacing" textLength="76" x="860.5" y="546.8169">add(objDto)</text><polygon fill="#181818" points="211,614.0156,201,618.0156,211,622.0156,207,618.0156" style="stroke:#181818;stroke-width:1.0;"/><line style="stroke:#181818;stroke-width:1.0;" x1="205" x2="811.5" y1="618.0156" y2="618.0156"/><text fill="#000000" font-family="sans-serif" font-size="13" font-weight="bold" lengthAdjust="spacing" textLength="32" x="217" y="612.9497">2.13</text><text fill="#000000" font-family="sans-serif" font-size="13" lengthAdjust="spacing" textLength="126" x="253" y="612.9497">agendaEntryListDto</text><polygon fill="#181818" points="11,650.1484,1,654.1484,11,658.1484,7,654.1484" style="stroke:#181818;stroke-width:1.0;"/><line style="stroke:#181818;stroke-width:1.0;stroke-dasharray:2.0,2.0;" x1="5" x2="194" y1="654.1484" y2="654.1484"/><text fill="#000000" font-family="sans-serif" font-size="13" font-weight="bold" lengthAdjust="spacing" textLength="9" x="17" y="649.0825">3</text><text fill="#000000" font-family="sans-serif" font-size="13" lengthAdjust="spacing" textLength="126" x="30" y="649.0825">agendaEntryListDto</text><!--SRC=[XLJ1Rjim3BthAuYUqc8fiErcT0M2PXW6R1ZG5ZlrejgCezMM34dUaByVHJksBDjf3q59FRxtHD9oRqetqieQQgDDVhIcHl2sHU66aqRcRxB49t-g42pcNkgoYW7kA0lpJ-aI3h9oA8HilT5j_OfM289ubQj6QWzNsQv4NSW7exqrLONs2gI3CHG9_X4RuvGtLg5ZA2Uc61jXNdGsA-7pXJeaqTE0FcLVfp7N3hdq7dpmKpPDVuKeNb3vePpFAlgvOzpzM19EfWMIEpGSxhs9AYbAYYaphJUlVqBD6JwY0p8U3NmIOdiVDJ-34lrk9h-vdXJTVXGoz-glz1WFhhIcRU0RUWXbO0xGCR4sZK88eB-n04YQcysgtxMZhSgHj09i4EZ6nZd-5xQ9utZu32jmgNYgEsu4YoU3Jpr4-yC7OpnpawnKQYXbcheQR4HpIBr4-nZoGmY9aMI9KYCHpPgHRfSX0s_spxys2U6IhNxxHsCznPcnNwUR6oBDBL8TtOxHbJ4D78m5SdW4Mc1wOq1fcFg_n4kKL0PVGkVwdiqDJfZIRhmhquMiGxSWAMeCVHmKhkd53LbZJHf2RBTqXITFN_IUE_G1nfnl7ILUT9_vZKULLnYSHxXdbFNEELLgBABq8nxG8dzYrwjDw1s_r-rmVzgnejXqpRZKyF3gNEhv-PpMIuZLmImjLRIqiuK_iwvSKB1QzAfz5dVRRSouJ1dHHK_VVm00]--></g></svg>