<?xml version="1.0" encoding="us-ascii" standalone="no"?><svg xmlns="http://www.w3.org/2000/svg" xmlns:xlink="http://www.w3.org/1999/xlink" contentStyleType="text/css" height="662px" preserveAspectRatio="none" style="width:2049px;height:662px;background:#FFFFFF;" version="1.1" viewBox="0 0 2049 662" width="2049px" zoomAndPan="magnify"><defs/><g><rect fill="#FFFFFF" height="506.8125" style="stroke:#181818;stroke-width:1.0;" width="10" x="140" y="90.5332"/><rect fill="#FFFFFF" height="108.5332" style="stroke:#181818;stroke-width:1.0;" width="10" x="337.5" y="131.8242"/><rect fill="#FFFFFF" height="316.6973" style="stroke:#181818;stroke-width:1.0;" width="10" x="337.5" y="271.6484"/><rect fill="#FFFFFF" height="74.9121" style="stroke:#181818;stroke-width:1.0;" width="10" x="1025" y="165.4453"/><rect fill="#FFFFFF" height="285.4063" style="stroke:#181818;stroke-width:1.0;" width="10" x="1143.5" y="271.6484"/><rect fill="#FFFFFF" height="36.291" style="stroke:#181818;stroke-width:1.0;" width="10" x="1148.5" y="415.8516"/><rect fill="#FFFFFF" height="30" style="stroke:#181818;stroke-width:1.0;" width="10" x="1321.5" y="495.7637"/><rect fill="#FFFFFF" height="30" style="stroke:#181818;stroke-width:1.0;" width="10" x="1879.5" y="346.5605"/><line style="stroke:#181818;stroke-width:0.5;stroke-dasharray:5.0,5.0;" x1="144.5" x2="144.5" y1="57.2422" y2="606.3457"/><line style="stroke:#181818;stroke-width:0.5;stroke-dasharray:5.0,5.0;" x1="342" x2="342" y1="130.3438" y2="606.3457"/><line style="stroke:#181818;stroke-width:0.5;stroke-dasharray:5.0,5.0;" x1="484" x2="484" y1="57.2422" y2="606.3457"/><line style="stroke:#181818;stroke-width:0.5;stroke-dasharray:5.0,5.0;" x1="654" x2="654" y1="57.2422" y2="606.3457"/><line style="stroke:#181818;stroke-width:0.5;stroke-dasharray:5.0,5.0;" x1="805" x2="805" y1="57.2422" y2="606.3457"/><line style="stroke:#181818;stroke-width:0.5;stroke-dasharray:5.0,5.0;" x1="912" x2="912" y1="57.2422" y2="606.3457"/><line style="stroke:#181818;stroke-width:0.5;stroke-dasharray:5.0,5.0;" x1="1030" x2="1030" y1="57.2422" y2="606.3457"/><line style="stroke:#181818;stroke-width:0.5;stroke-dasharray:5.0,5.0;" x1="1148" x2="1148" y1="57.2422" y2="606.3457"/><line style="stroke:#181818;stroke-width:0.5;stroke-dasharray:5.0,5.0;" x1="1326" x2="1326" y1="57.2422" y2="606.3457"/><line style="stroke:#181818;stroke-width:0.5;stroke-dasharray:5.0,5.0;" x1="1525" x2="1525" y1="205.2559" y2="606.3457"/><line style="stroke:#181818;stroke-width:0.5;stroke-dasharray:5.0,5.0;" x1="1702" x2="1702" y1="57.2422" y2="606.3457"/><line style="stroke:#181818;stroke-width:0.5;stroke-dasharray:5.0,5.0;" x1="1884" x2="1884" y1="311.459" y2="606.3457"/><line style="stroke:#181818;stroke-width:0.5;stroke-dasharray:5.0,5.0;" x1="2006" x2="2006" y1="460.6621" y2="606.3457"/><rect fill="#E3E3E3" height="32.6211" rx="2.5" ry="2.5" style="stroke:#181818;stroke-width:0.5;" width="79" x="105.5" y="23.6211"/><text fill="#000000" font-family="sans-serif" font-size="14" lengthAdjust="spacing" textLength="65" x="112.5" y="45.7285">:AgendaUI</text><rect fill="#E3E3E3" height="32.6211" rx="2.5" ry="2.5" style="stroke:#181818;stroke-width:0.5;" width="79" x="105.5" y="605.3457"/><text fill="#000000" font-family="sans-serif" font-size="14" lengthAdjust="spacing" textLength="65" x="112.5" y="627.4531">:AgendaUI</text><rect fill="#E3E3E3" height="32.6211" rx="2.5" ry="2.5" style="stroke:#181818;stroke-width:0.5;" width="129" x="278" y="605.3457"/><text fill="#000000" font-family="sans-serif" font-size="14" lengthAdjust="spacing" textLength="115" x="285" y="627.4531">:AgendaController</text><rect fill="#E3E3E3" height="32.6211" rx="2.5" ry="2.5" style="stroke:#181818;stroke-width:0.5;" width="135" x="417" y="23.6211"/><text fill="#000000" font-family="sans-serif" font-size="14" lengthAdjust="spacing" textLength="121" x="424" y="45.7285">:ViewDetailsEntryUI</text><rect fill="#E3E3E3" height="32.6211" rx="2.5" ry="2.5" style="stroke:#181818;stroke-width:0.5;" width="135" x="417" y="605.3457"/><text fill="#000000" font-family="sans-serif" font-size="14" lengthAdjust="spacing" textLength="121" x="424" y="627.4531">:ViewDetailsEntryUI</text><rect fill="#E3E3E3" height="32.6211" rx="2.5" ry="2.5" style="stroke:#181818;stroke-width:0.5;" width="185" x="562" y="23.6211"/><text fill="#000000" font-family="sans-serif" font-size="14" lengthAdjust="spacing" textLength="171" x="569" y="45.7285">:ViewDetailsEntryController</text><rect fill="#E3E3E3" height="32.6211" rx="2.5" ry="2.5" style="stroke:#181818;stroke-width:0.5;" width="185" x="562" y="605.3457"/><text fill="#000000" font-family="sans-serif" font-size="14" lengthAdjust="spacing" textLength="171" x="569" y="627.4531">:ViewDetailsEntryController</text><rect fill="#E3E3E3" height="32.6211" rx="2.5" ry="2.5" style="stroke:#181818;stroke-width:0.5;" width="97" x="757" y="23.6211"/><text fill="#000000" font-family="sans-serif" font-size="14" lengthAdjust="spacing" textLength="83" x="764" y="45.7285">:Repositories</text><rect fill="#E3E3E3" height="32.6211" rx="2.5" ry="2.5" style="stroke:#181818;stroke-width:0.5;" width="97" x="757" y="605.3457"/><text fill="#000000" font-family="sans-serif" font-size="14" lengthAdjust="spacing" textLength="83" x="764" y="627.4531">:Repositories</text><rect fill="#E3E3E3" height="51.2422" rx="2.5" ry="2.5" style="stroke:#181818;stroke-width:0.5;" width="97" x="864" y="5"/><text fill="#000000" font-family="sans-serif" font-size="14" lengthAdjust="spacing" textLength="74" x="875.5" y="27.1074">repositories</text><text fill="#000000" font-family="sans-serif" font-size="14" lengthAdjust="spacing" textLength="83" x="871" y="45.7285">:Repositories</text><rect fill="#E3E3E3" height="51.2422" rx="2.5" ry="2.5" style="stroke:#181818;stroke-width:0.5;" width="97" x="864" y="605.3457"/><text fill="#000000" font-family="sans-serif" font-size="14" lengthAdjust="spacing" textLength="74" x="875.5" y="627.4531">repositories</text><text fill="#000000" font-family="sans-serif" font-size="14" lengthAdjust="spacing" textLength="83" x="871" y="646.0742">:Repositories</text><rect fill="#E3E3E3" height="51.2422" rx="2.5" ry="2.5" style="stroke:#181818;stroke-width:0.5;" width="118" x="971" y="5"/><text fill="#000000" font-family="sans-serif" font-size="14" lengthAdjust="spacing" textLength="104" x="978" y="27.1074">entryRepository:</text><text fill="#000000" font-family="sans-serif" font-size="14" lengthAdjust="spacing" textLength="101" x="979.5" y="45.7285">EntryRepository</text><rect fill="#E3E3E3" height="51.2422" rx="2.5" ry="2.5" style="stroke:#181818;stroke-width:0.5;" width="118" x="971" y="605.3457"/><text fill="#000000" font-family="sans-serif" font-size="14" lengthAdjust="spacing" textLength="104" x="978" y="627.4531">entryRepository:</text><text fill="#000000" font-family="sans-serif" font-size="14" lengthAdjust="spacing" textLength="101" x="979.5" y="646.0742">EntryRepository</text><rect fill="#E3E3E3" height="32.6211" rx="2.5" ry="2.5" style="stroke:#181818;stroke-width:0.5;" width="99" x="1099" y="23.6211"/><text fill="#000000" font-family="sans-serif" font-size="14" lengthAdjust="spacing" textLength="85" x="1106" y="45.7285">:EntryMapper</text><rect fill="#E3E3E3" height="32.6211" rx="2.5" ry="2.5" style="stroke:#181818;stroke-width:0.5;" width="99" x="1099" y="605.3457"/><text fill="#000000" font-family="sans-serif" font-size="14" lengthAdjust="spacing" textLength="85" x="1106" y="627.4531">:EntryMapper</text><rect fill="#E3E3E3" height="32.6211" rx="2.5" ry="2.5" style="stroke:#181818;stroke-width:0.5;" width="237" x="1208" y="23.6211"/><text fill="#000000" font-family="sans-serif" font-size="14" lengthAdjust="spacing" textLength="223" x="1215" y="45.7285">cancelEntryListDto : List&lt;EntryDto&gt;</text><rect fill="#E3E3E3" height="32.6211" rx="2.5" ry="2.5" style="stroke:#181818;stroke-width:0.5;" width="237" x="1208" y="605.3457"/><text fill="#000000" font-family="sans-serif" font-size="14" lengthAdjust="spacing" textLength="223" x="1215" y="627.4531">cancelEntryListDto : List&lt;EntryDto&gt;</text><rect fill="#E3E3E3" height="32.6211" rx="2.5" ry="2.5" style="stroke:#181818;stroke-width:0.5;" width="141" x="1455" y="605.3457"/><text fill="#000000" font-family="sans-serif" font-size="14" lengthAdjust="spacing" textLength="127" x="1462" y="627.4531">List : List&lt;EntryDto&gt;</text><rect fill="#E3E3E3" height="32.6211" rx="2.5" ry="2.5" style="stroke:#181818;stroke-width:0.5;" width="193" x="1606" y="23.6211"/><text fill="#000000" font-family="sans-serif" font-size="14" lengthAdjust="spacing" textLength="179" x="1613" y="45.7285">cancelEntryList : List&lt;Entry&gt;</text><rect fill="#E3E3E3" height="32.6211" rx="2.5" ry="2.5" style="stroke:#181818;stroke-width:0.5;" width="193" x="1606" y="605.3457"/><text fill="#000000" font-family="sans-serif" font-size="14" lengthAdjust="spacing" textLength="179" x="1613" y="627.4531">cancelEntryList : List&lt;Entry&gt;</text><rect fill="#E3E3E3" height="32.6211" rx="2.5" ry="2.5" style="stroke:#181818;stroke-width:0.5;" width="151" x="1809" y="605.3457"/><text fill="#000000" font-family="sans-serif" font-size="14" lengthAdjust="spacing" textLength="137" x="1816" y="627.4531">entryList : List&lt;Entry&gt;</text><rect fill="#E3E3E3" height="32.6211" rx="2.5" ry="2.5" style="stroke:#181818;stroke-width:0.5;" width="73" x="1970" y="605.3457"/><text fill="#000000" font-family="sans-serif" font-size="14" lengthAdjust="spacing" textLength="59" x="1977" y="627.4531">:EntryDto</text><rect fill="#FFFFFF" height="506.8125" style="stroke:#181818;stroke-width:1.0;" width="10" x="140" y="90.5332"/><rect fill="#FFFFFF" height="108.5332" style="stroke:#181818;stroke-width:1.0;" width="10" x="337.5" y="131.8242"/><rect fill="#FFFFFF" height="316.6973" style="stroke:#181818;stroke-width:1.0;" width="10" x="337.5" y="271.6484"/><rect fill="#FFFFFF" height="74.9121" style="stroke:#181818;stroke-width:1.0;" width="10" x="1025" y="165.4453"/><rect fill="#FFFFFF" height="285.4063" style="stroke:#181818;stroke-width:1.0;" width="10" x="1143.5" y="271.6484"/><rect fill="#FFFFFF" height="36.291" style="stroke:#181818;stroke-width:1.0;" width="10" x="1148.5" y="415.8516"/><rect fill="#FFFFFF" height="30" style="stroke:#181818;stroke-width:1.0;" width="10" x="1321.5" y="495.7637"/><rect fill="#FFFFFF" height="30" style="stroke:#181818;stroke-width:1.0;" width="10" x="1879.5" y="346.5605"/><polygon fill="#181818" points="128,86.5332,138,90.5332,128,94.5332,132,90.5332" style="stroke:#181818;stroke-width:1.0;"/><line style="stroke:#181818;stroke-width:1.0;" x1="0" x2="134" y1="90.5332" y2="90.5332"/><text fill="#000000" font-family="sans-serif" font-size="13" font-weight="bold" lengthAdjust="spacing" textLength="7" x="7" y="85.2705">1</text><text fill="#000000" font-family="sans-serif" font-size="13" lengthAdjust="spacing" textLength="110" x="18" y="85.2705">ask to show entrys</text><polygon fill="#181818" points="266,117.8242,276,121.8242,266,125.8242,270,121.8242" style="stroke:#181818;stroke-width:1.0;"/><line style="stroke:#181818;stroke-width:1.0;" x1="150" x2="272" y1="121.8242" y2="121.8242"/><text fill="#000000" font-family="sans-serif" font-size="13" font-weight="bold" lengthAdjust="spacing" textLength="7" x="157" y="116.5615">2</text><text fill="#000000" font-family="sans-serif" font-size="13" lengthAdjust="spacing" textLength="93" x="168" y="116.5615">create(entryDto)</text><rect fill="#E3E3E3" height="32.6211" rx="2.5" ry="2.5" style="stroke:#181818;stroke-width:0.5;" width="129" x="278" y="98.5332"/><text fill="#000000" font-family="sans-serif" font-size="14" lengthAdjust="spacing" textLength="115" x="285" y="120.6406">:AgendaController</text><polygon fill="#181818" points="1013,161.4453,1023,165.4453,1013,169.4453,1017,165.4453" style="stroke:#181818;stroke-width:1.0;"/><line style="stroke:#181818;stroke-width:1.0;" x1="347.5" x2="1019" y1="165.4453" y2="165.4453"/><text fill="#000000" font-family="sans-serif" font-size="13" font-weight="bold" lengthAdjust="spacing" textLength="7" x="354.5" y="160.1826">3</text><text fill="#000000" font-family="sans-serif" font-size="13" lengthAdjust="spacing" textLength="125" x="365.5" y="160.1826">getEntryByStateList()</text><polygon fill="#181818" points="1443,192.7363,1453,196.7363,1443,200.7363,1447,196.7363" style="stroke:#181818;stroke-width:1.0;"/><line style="stroke:#181818;stroke-width:1.0;" x1="1035" x2="1449" y1="196.7363" y2="196.7363"/><text fill="#000000" font-family="sans-serif" font-size="13" font-weight="bold" lengthAdjust="spacing" textLength="7" x="1042" y="191.4736">4</text><text fill="#000000" font-family="sans-serif" font-size="13" lengthAdjust="spacing" textLength="44" x="1053" y="191.4736">create()</text><rect fill="#E3E3E3" height="32.6211" rx="2.5" ry="2.5" style="stroke:#181818;stroke-width:0.5;" width="141" x="1455" y="173.4453"/><text fill="#000000" font-family="sans-serif" font-size="14" lengthAdjust="spacing" textLength="127" x="1462" y="195.5527">List : List&lt;EntryDto&gt;</text><polygon fill="#181818" points="353.5,236.3574,343.5,240.3574,353.5,244.3574,349.5,240.3574" style="stroke:#181818;stroke-width:1.0;"/><line style="stroke:#181818;stroke-width:1.0;stroke-dasharray:2.0,2.0;" x1="347.5" x2="1029" y1="240.3574" y2="240.3574"/><text fill="#000000" font-family="sans-serif" font-size="13" font-weight="bold" lengthAdjust="spacing" textLength="7" x="359.5" y="235.0947">5</text><text fill="#000000" font-family="sans-serif" font-size="13" lengthAdjust="spacing" textLength="97" x="370.5" y="235.0947">entryByStateList</text><polygon fill="#181818" points="1131.5,267.6484,1141.5,271.6484,1131.5,275.6484,1135.5,271.6484" style="stroke:#181818;stroke-width:1.0;"/><line style="stroke:#181818;stroke-width:1.0;" x1="347.5" x2="1137.5" y1="271.6484" y2="271.6484"/><text fill="#000000" font-family="sans-serif" font-size="13" font-weight="bold" lengthAdjust="spacing" textLength="7" x="354.5" y="266.3857">6</text><text fill="#000000" font-family="sans-serif" font-size="13" lengthAdjust="spacing" textLength="89" x="365.5" y="266.3857">toDto(entryList)</text><polygon fill="#181818" points="1797,298.9395,1807,302.9395,1797,306.9395,1801,302.9395" style="stroke:#181818;stroke-width:1.0;"/><line style="stroke:#181818;stroke-width:1.0;" x1="1153.5" x2="1803" y1="302.9395" y2="302.9395"/><text fill="#000000" font-family="sans-serif" font-size="13" font-weight="bold" lengthAdjust="spacing" textLength="7" x="1160.5" y="297.6768">7</text><text fill="#000000" font-family="sans-serif" font-size="13" lengthAdjust="spacing" textLength="44" x="1171.5" y="297.6768">create()</text><rect fill="#E3E3E3" height="32.6211" rx="2.5" ry="2.5" style="stroke:#181818;stroke-width:0.5;" width="151" x="1809" y="279.6484"/><text fill="#000000" font-family="sans-serif" font-size="14" lengthAdjust="spacing" textLength="137" x="1816" y="301.7559">entryList : List&lt;Entry&gt;</text><polygon fill="#181818" points="1867.5,342.5605,1877.5,346.5605,1867.5,350.5605,1871.5,346.5605" style="stroke:#181818;stroke-width:1.0;"/><line style="stroke:#181818;stroke-width:1.0;" x1="1153.5" x2="1873.5" y1="346.5605" y2="346.5605"/><text fill="#000000" font-family="sans-serif" font-size="13" font-weight="bold" lengthAdjust="spacing" textLength="7" x="1160.5" y="341.2979">8</text><text fill="#000000" font-family="sans-serif" font-size="13" lengthAdjust="spacing" textLength="74" x="1171.5" y="341.2979">entry = get(i)</text><line style="stroke:#181818;stroke-width:1.0;" x1="1153.5" x2="1200.5" y1="402.8516" y2="402.8516"/><line style="stroke:#181818;stroke-width:1.0;" x1="1200.5" x2="1200.5" y1="402.8516" y2="415.8516"/><line style="stroke:#181818;stroke-width:1.0;" x1="1159.5" x2="1200.5" y1="415.8516" y2="415.8516"/><polygon fill="#181818" points="1169.5,411.8516,1159.5,415.8516,1169.5,419.8516,1165.5,415.8516" style="stroke:#181818;stroke-width:1.0;"/><text fill="#000000" font-family="sans-serif" font-size="13" font-weight="bold" lengthAdjust="spacing" textLength="7" x="1165.5" y="397.5889">9</text><text fill="#000000" font-family="sans-serif" font-size="13" lengthAdjust="spacing" textLength="139" x="1176.5" y="397.5889">entryDto = toDTO(entry)</text><polygon fill="#181818" points="1958,448.1426,1968,452.1426,1958,456.1426,1962,452.1426" style="stroke:#181818;stroke-width:1.0;"/><line style="stroke:#181818;stroke-width:1.0;" x1="1153.5" x2="1964" y1="452.1426" y2="452.1426"/><text fill="#000000" font-family="sans-serif" font-size="13" font-weight="bold" lengthAdjust="spacing" textLength="14" x="1160.5" y="446.8799">10</text><text fill="#000000" font-family="sans-serif" font-size="13" lengthAdjust="spacing" textLength="56" x="1178.5" y="446.8799">create(...)</text><rect fill="#E3E3E3" height="32.6211" rx="2.5" ry="2.5" style="stroke:#181818;stroke-width:0.5;" width="73" x="1970" y="428.8516"/><text fill="#000000" font-family="sans-serif" font-size="14" lengthAdjust="spacing" textLength="59" x="1977" y="450.959">:EntryDto</text><polygon fill="#181818" points="1309.5,491.7637,1319.5,495.7637,1309.5,499.7637,1313.5,495.7637" style="stroke:#181818;stroke-width:1.0;"/><line style="stroke:#181818;stroke-width:1.0;" x1="1153.5" x2="1315.5" y1="495.7637" y2="495.7637"/><text fill="#000000" font-family="sans-serif" font-size="13" font-weight="bold" lengthAdjust="spacing" textLength="14" x="1160.5" y="490.501">11</text><text fill="#000000" font-family="sans-serif" font-size="13" lengthAdjust="spacing" textLength="78" x="1178.5" y="490.501">add(entryDto)</text><polygon fill="#181818" points="358.5,553.0547,348.5,557.0547,358.5,561.0547,354.5,557.0547" style="stroke:#181818;stroke-width:1.0;"/><line style="stroke:#181818;stroke-width:1.0;stroke-dasharray:2.0,2.0;" x1="352.5" x2="1147.5" y1="557.0547" y2="557.0547"/><text fill="#000000" font-family="sans-serif" font-size="13" font-weight="bold" lengthAdjust="spacing" textLength="14" x="364.5" y="551.792">12</text><text fill="#000000" font-family="sans-serif" font-size="13" lengthAdjust="spacing" textLength="70" x="382.5" y="551.792">entryListDto</text><polygon fill="#181818" points="161,584.3457,151,588.3457,161,592.3457,157,588.3457" style="stroke:#181818;stroke-width:1.0;"/><line style="stroke:#181818;stroke-width:1.0;stroke-dasharray:2.0,2.0;" x1="155" x2="341.5" y1="588.3457" y2="588.3457"/><text fill="#000000" font-family="sans-serif" font-size="13" font-weight="bold" lengthAdjust="spacing" textLength="14" x="167" y="583.083">13</text><text fill="#000000" font-family="sans-serif" font-size="13" lengthAdjust="spacing" textLength="70" x="185" y="583.083">entryListDto</text><!--SRC=[ZLJ1Rk8m4BtxAqQzB5HQFY3QLc9R3YjH5G6xfrxSP1eiWXtPPbd-Vct7SHB7eUL4PjvxC_CyjZeoNbD9Jt0INEG7AKu8MfwHg92fQNwa9UxqjKAGc6lAoweFK0TQY0lZ9NpGIY4XzAm5Fv_UKHBoxS0AX0yXzBluHuXXQ9Qpcd8DTzcoH5xGtx_kW2feFvAO9y6r55M5ieVjWX7d3yFBCshAAhKoaAklCDAESL6Lf_rs7J6sM0l5j90CbSE4m7N7h2zcyY55zXXlV2omMI_tGmRQLZhTx8slXX77Ys9HdoxxGklQZ_Aot6nMso4efpp7oY7NJEbdBI03- - -7YvdlHyTroVtha6o3QNZxPLCt2mxeNQc46HFee9GQtdGmQ8SGyB_lZs7NCeCuWXbS7SG5N2qLS3JNx2_Ls6rcIBMHJgjRdVlx37A9XZX3Nti-fTdRu5YyIzaYqMbdKA9siP_NdJPwreLPeaoy9G4H9K8DVt2z8UOtI8dniyR6Nb-1Nk1aNmd8sA5R1ZKBdfcpD1FCmjOaBF5NuGidqa8QHh2eyGTI1YMGu0s11tjcCpPrI3UTSib45V_Fbx0t-C4wi7zj79YUVgfZ8s56wsPRB1RpL5VJClwrC1AqA6xTWFPPIQYtgP5yOj_QuVqJzfLcn_ipU18-aqjSNV8V]--></g></svg>