<?xml version="1.0" encoding="us-ascii" standalone="no"?><svg xmlns="http://www.w3.org/2000/svg" xmlns:xlink="http://www.w3.org/1999/xlink" contentStyleType="text/css" height="1303px" preserveAspectRatio="none" style="width:2352px;height:1303px;background:#FFFFFF;" version="1.1" viewBox="0 0 2352 1303" width="2352px" zoomAndPan="magnify"><defs/><g><rect fill="#FFFFFF" height="1109.002" style="stroke:#181818;stroke-width:1.0;" width="10" x="18.5" y="93.6211"/><rect fill="#FFFFFF" height="529.1035" style="stroke:#181818;stroke-width:1.0;" width="10" x="201.5" y="116.9121"/><rect fill="#FFFFFF" height="108.5332" style="stroke:#181818;stroke-width:1.0;" width="10" x="399" y="158.2031"/><rect fill="#FFFFFF" height="316.6973" style="stroke:#181818;stroke-width:1.0;" width="10" x="399" y="298.0273"/><rect fill="#FFFFFF" height="525.3164" style="stroke:#181818;stroke-width:1.0;" width="10" x="541" y="677.3066"/><rect fill="#FFFFFF" height="493.0254" style="stroke:#181818;stroke-width:1.0;" width="10" x="726.5" y="718.5977"/><rect fill="#FFFFFF" height="31.291" style="stroke:#181818;stroke-width:1.0;" width="10" x="877.5" y="752.2188"/><rect fill="#FFFFFF" height="31.291" style="stroke:#181818;stroke-width:1.0;" width="10" x="984.5" y="814.8008"/><rect fill="#FFFFFF" height="74.9121" style="stroke:#181818;stroke-width:1.0;" width="10" x="1102" y="191.8242"/><rect fill="#FFFFFF" height="31.291" style="stroke:#181818;stroke-width:1.0;" width="10" x="1102" y="971.2559"/><rect fill="#FFFFFF" height="31.291" style="stroke:#181818;stroke-width:1.0;" width="10" x="1102" y="1108.75"/><rect fill="#FFFFFF" height="285.4063" style="stroke:#181818;stroke-width:1.0;" width="10" x="1220.5" y="298.0273"/><rect fill="#FFFFFF" height="36.291" style="stroke:#181818;stroke-width:1.0;" width="10" x="1225.5" y="442.2305"/><rect fill="#FFFFFF" height="30" style="stroke:#181818;stroke-width:1.0;" width="10" x="1398.5" y="522.1426"/><rect fill="#FFFFFF" height="30" style="stroke:#181818;stroke-width:1.0;" width="10" x="1956.5" y="372.9395"/><rect fill="#FFFFFF" height="96.2031" style="stroke:#181818;stroke-width:1.0;" width="10" x="2067.5" y="1012.5469"/><rect fill="#FFFFFF" height="31.291" style="stroke:#181818;stroke-width:1.0;" width="10" x="2304.5" y="1046.168"/><line style="stroke:#181818;stroke-width:0.5;stroke-dasharray:5.0,5.0;" x1="23" x2="23" y1="83.6211" y2="1220.623"/><line style="stroke:#181818;stroke-width:0.5;stroke-dasharray:5.0,5.0;" x1="206" x2="206" y1="83.6211" y2="1220.623"/><line style="stroke:#181818;stroke-width:0.5;stroke-dasharray:5.0,5.0;" x1="403.5" x2="403.5" y1="156.7227" y2="1220.623"/><line style="stroke:#181818;stroke-width:0.5;stroke-dasharray:5.0,5.0;" x1="545.5" x2="545.5" y1="83.6211" y2="1220.623"/><line style="stroke:#181818;stroke-width:0.5;stroke-dasharray:5.0,5.0;" x1="731" x2="731" y1="717.1172" y2="1220.623"/><line style="stroke:#181818;stroke-width:0.5;stroke-dasharray:5.0,5.0;" x1="882" x2="882" y1="83.6211" y2="1220.623"/><line style="stroke:#181818;stroke-width:0.5;stroke-dasharray:5.0,5.0;" x1="989" x2="989" y1="83.6211" y2="1220.623"/><line style="stroke:#181818;stroke-width:0.5;stroke-dasharray:5.0,5.0;" x1="1107" x2="1107" y1="83.6211" y2="1220.623"/><line style="stroke:#181818;stroke-width:0.5;stroke-dasharray:5.0,5.0;" x1="1225" x2="1225" y1="83.6211" y2="1220.623"/><line style="stroke:#181818;stroke-width:0.5;stroke-dasharray:5.0,5.0;" x1="1403" x2="1403" y1="83.6211" y2="1220.623"/><line style="stroke:#181818;stroke-width:0.5;stroke-dasharray:5.0,5.0;" x1="1602" x2="1602" y1="231.6348" y2="1220.623"/><line style="stroke:#181818;stroke-width:0.5;stroke-dasharray:5.0,5.0;" x1="1779" x2="1779" y1="83.6211" y2="1220.623"/><line style="stroke:#181818;stroke-width:0.5;stroke-dasharray:5.0,5.0;" x1="1961" x2="1961" y1="337.8379" y2="1220.623"/><line style="stroke:#181818;stroke-width:0.5;stroke-dasharray:5.0,5.0;" x1="2072" x2="2072" y1="1011.0664" y2="1220.623"/><line style="stroke:#181818;stroke-width:0.5;stroke-dasharray:5.0,5.0;" x1="2309" x2="2309" y1="487.041" y2="1220.623"/><text fill="#000000" font-family="sans-serif" font-size="14" lengthAdjust="spacing" textLength="31" x="5" y="80.1074">GSM</text><ellipse cx="23.5" cy="13.5" fill="#E3E3E3" rx="8" ry="8" style="stroke:#181818;stroke-width:0.5;"/><path d="M23.5,21.5 L23.5,48.5 M10.5,29.5 L36.5,29.5 M23.5,48.5 L10.5,63.5 M23.5,48.5 L36.5,63.5 " fill="none" style="stroke:#181818;stroke-width:0.5;"/><text fill="#000000" font-family="sans-serif" font-size="14" lengthAdjust="spacing" textLength="31" x="5" y="1234.7305">GSM</text><ellipse cx="23.5" cy="1246.7441" fill="#E3E3E3" rx="8" ry="8" style="stroke:#181818;stroke-width:0.5;"/><path d="M23.5,1254.7441 L23.5,1281.7441 M10.5,1262.7441 L36.5,1262.7441 M23.5,1281.7441 L10.5,1296.7441 M23.5,1281.7441 L36.5,1296.7441 " fill="none" style="stroke:#181818;stroke-width:0.5;"/><rect fill="#E3E3E3" height="32.6211" rx="2.5" ry="2.5" style="stroke:#181818;stroke-width:0.5;" width="79" x="167" y="50"/><text fill="#000000" font-family="sans-serif" font-size="14" lengthAdjust="spacing" textLength="65" x="174" y="72.1074">:AgendaUI</text><rect fill="#E3E3E3" height="32.6211" rx="2.5" ry="2.5" style="stroke:#181818;stroke-width:0.5;" width="79" x="167" y="1219.623"/><text fill="#000000" font-family="sans-serif" font-size="14" lengthAdjust="spacing" textLength="65" x="174" y="1241.7305">:AgendaUI</text><rect fill="#E3E3E3" height="32.6211" rx="2.5" ry="2.5" style="stroke:#181818;stroke-width:0.5;" width="129" x="339.5" y="1219.623"/><text fill="#000000" font-family="sans-serif" font-size="14" lengthAdjust="spacing" textLength="115" x="346.5" y="1241.7305">:AgendaController</text><rect fill="#E3E3E3" height="32.6211" rx="2.5" ry="2.5" style="stroke:#181818;stroke-width:0.5;" width="135" x="478.5" y="50"/><text fill="#000000" font-family="sans-serif" font-size="14" lengthAdjust="spacing" textLength="121" x="485.5" y="72.1074">:ViewDetailsEntryUI</text><rect fill="#E3E3E3" height="32.6211" rx="2.5" ry="2.5" style="stroke:#181818;stroke-width:0.5;" width="135" x="478.5" y="1219.623"/><text fill="#000000" font-family="sans-serif" font-size="14" lengthAdjust="spacing" textLength="121" x="485.5" y="1241.7305">:ViewDetailsEntryUI</text><rect fill="#E3E3E3" height="32.6211" rx="2.5" ry="2.5" style="stroke:#181818;stroke-width:0.5;" width="185" x="639" y="1219.623"/><text fill="#000000" font-family="sans-serif" font-size="14" lengthAdjust="spacing" textLength="171" x="646" y="1241.7305">:ViewDetailsEntryController</text><rect fill="#E3E3E3" height="32.6211" rx="2.5" ry="2.5" style="stroke:#181818;stroke-width:0.5;" width="97" x="834" y="50"/><text fill="#000000" font-family="sans-serif" font-size="14" lengthAdjust="spacing" textLength="83" x="841" y="72.1074">:Repositories</text><rect fill="#E3E3E3" height="32.6211" rx="2.5" ry="2.5" style="stroke:#181818;stroke-width:0.5;" width="97" x="834" y="1219.623"/><text fill="#000000" font-family="sans-serif" font-size="14" lengthAdjust="spacing" textLength="83" x="841" y="1241.7305">:Repositories</text><rect fill="#E3E3E3" height="51.2422" rx="2.5" ry="2.5" style="stroke:#181818;stroke-width:0.5;" width="97" x="941" y="31.3789"/><text fill="#000000" font-family="sans-serif" font-size="14" lengthAdjust="spacing" textLength="74" x="952.5" y="53.4863">repositories</text><text fill="#000000" font-family="sans-serif" font-size="14" lengthAdjust="spacing" textLength="83" x="948" y="72.1074">:Repositories</text><rect fill="#E3E3E3" height="51.2422" rx="2.5" ry="2.5" style="stroke:#181818;stroke-width:0.5;" width="97" x="941" y="1219.623"/><text fill="#000000" font-family="sans-serif" font-size="14" lengthAdjust="spacing" textLength="74" x="952.5" y="1241.7305">repositories</text><text fill="#000000" font-family="sans-serif" font-size="14" lengthAdjust="spacing" textLength="83" x="948" y="1260.3516">:Repositories</text><rect fill="#E3E3E3" height="51.2422" rx="2.5" ry="2.5" style="stroke:#181818;stroke-width:0.5;" width="118" x="1048" y="31.3789"/><text fill="#000000" font-family="sans-serif" font-size="14" lengthAdjust="spacing" textLength="104" x="1055" y="53.4863">entryRepository:</text><text fill="#000000" font-family="sans-serif" font-size="14" lengthAdjust="spacing" textLength="101" x="1056.5" y="72.1074">EntryRepository</text><rect fill="#E3E3E3" height="51.2422" rx="2.5" ry="2.5" style="stroke:#181818;stroke-width:0.5;" width="118" x="1048" y="1219.623"/><text fill="#000000" font-family="sans-serif" font-size="14" lengthAdjust="spacing" textLength="104" x="1055" y="1241.7305">entryRepository:</text><text fill="#000000" font-family="sans-serif" font-size="14" lengthAdjust="spacing" textLength="101" x="1056.5" y="1260.3516">EntryRepository</text><rect fill="#E3E3E3" height="32.6211" rx="2.5" ry="2.5" style="stroke:#181818;stroke-width:0.5;" width="99" x="1176" y="50"/><text fill="#000000" font-family="sans-serif" font-size="14" lengthAdjust="spacing" textLength="85" x="1183" y="72.1074">:EntryMapper</text><rect fill="#E3E3E3" height="32.6211" rx="2.5" ry="2.5" style="stroke:#181818;stroke-width:0.5;" width="99" x="1176" y="1219.623"/><text fill="#000000" font-family="sans-serif" font-size="14" lengthAdjust="spacing" textLength="85" x="1183" y="1241.7305">:EntryMapper</text><rect fill="#E3E3E3" height="32.6211" rx="2.5" ry="2.5" style="stroke:#181818;stroke-width:0.5;" width="237" x="1285" y="50"/><text fill="#000000" font-family="sans-serif" font-size="14" lengthAdjust="spacing" textLength="223" x="1292" y="72.1074">cancelEntryListDto : List&lt;EntryDto&gt;</text><rect fill="#E3E3E3" height="32.6211" rx="2.5" ry="2.5" style="stroke:#181818;stroke-width:0.5;" width="237" x="1285" y="1219.623"/><text fill="#000000" font-family="sans-serif" font-size="14" lengthAdjust="spacing" textLength="223" x="1292" y="1241.7305">cancelEntryListDto : List&lt;EntryDto&gt;</text><rect fill="#E3E3E3" height="32.6211" rx="2.5" ry="2.5" style="stroke:#181818;stroke-width:0.5;" width="141" x="1532" y="1219.623"/><text fill="#000000" font-family="sans-serif" font-size="14" lengthAdjust="spacing" textLength="127" x="1539" y="1241.7305">List : List&lt;EntryDto&gt;</text><rect fill="#E3E3E3" height="32.6211" rx="2.5" ry="2.5" style="stroke:#181818;stroke-width:0.5;" width="193" x="1683" y="50"/><text fill="#000000" font-family="sans-serif" font-size="14" lengthAdjust="spacing" textLength="179" x="1690" y="72.1074">cancelEntryList : List&lt;Entry&gt;</text><rect fill="#E3E3E3" height="32.6211" rx="2.5" ry="2.5" style="stroke:#181818;stroke-width:0.5;" width="193" x="1683" y="1219.623"/><text fill="#000000" font-family="sans-serif" font-size="14" lengthAdjust="spacing" textLength="179" x="1690" y="1241.7305">cancelEntryList : List&lt;Entry&gt;</text><rect fill="#E3E3E3" height="32.6211" rx="2.5" ry="2.5" style="stroke:#181818;stroke-width:0.5;" width="151" x="1886" y="1219.623"/><text fill="#000000" font-family="sans-serif" font-size="14" lengthAdjust="spacing" textLength="137" x="1893" y="1241.7305">entryList : List&lt;Entry&gt;</text><rect fill="#E3E3E3" height="32.6211" rx="2.5" ry="2.5" style="stroke:#181818;stroke-width:0.5;" width="51" x="2047" y="1219.623"/><text fill="#000000" font-family="sans-serif" font-size="14" lengthAdjust="spacing" textLength="37" x="2054" y="1241.7305">:Entry</text><rect fill="#E3E3E3" height="32.6211" rx="2.5" ry="2.5" style="stroke:#181818;stroke-width:0.5;" width="73" x="2273" y="1219.623"/><text fill="#000000" font-family="sans-serif" font-size="14" lengthAdjust="spacing" textLength="59" x="2280" y="1241.7305">:EntryDto</text><rect fill="#FFFFFF" height="1109.002" style="stroke:#181818;stroke-width:1.0;" width="10" x="18.5" y="93.6211"/><rect fill="#FFFFFF" height="529.1035" style="stroke:#181818;stroke-width:1.0;" width="10" x="201.5" y="116.9121"/><rect fill="#FFFFFF" height="108.5332" style="stroke:#181818;stroke-width:1.0;" width="10" x="399" y="158.2031"/><rect fill="#FFFFFF" height="316.6973" style="stroke:#181818;stroke-width:1.0;" width="10" x="399" y="298.0273"/><rect fill="#FFFFFF" height="525.3164" style="stroke:#181818;stroke-width:1.0;" width="10" x="541" y="677.3066"/><rect fill="#FFFFFF" height="493.0254" style="stroke:#181818;stroke-width:1.0;" width="10" x="726.5" y="718.5977"/><rect fill="#FFFFFF" height="31.291" style="stroke:#181818;stroke-width:1.0;" width="10" x="877.5" y="752.2188"/><rect fill="#FFFFFF" height="31.291" style="stroke:#181818;stroke-width:1.0;" width="10" x="984.5" y="814.8008"/><rect fill="#FFFFFF" height="74.9121" style="stroke:#181818;stroke-width:1.0;" width="10" x="1102" y="191.8242"/><rect fill="#FFFFFF" height="31.291" style="stroke:#181818;stroke-width:1.0;" width="10" x="1102" y="971.2559"/><rect fill="#FFFFFF" height="31.291" style="stroke:#181818;stroke-width:1.0;" width="10" x="1102" y="1108.75"/><rect fill="#FFFFFF" height="285.4063" style="stroke:#181818;stroke-width:1.0;" width="10" x="1220.5" y="298.0273"/><rect fill="#FFFFFF" height="36.291" style="stroke:#181818;stroke-width:1.0;" width="10" x="1225.5" y="442.2305"/><rect fill="#FFFFFF" height="30" style="stroke:#181818;stroke-width:1.0;" width="10" x="1398.5" y="522.1426"/><rect fill="#FFFFFF" height="30" style="stroke:#181818;stroke-width:1.0;" width="10" x="1956.5" y="372.9395"/><rect fill="#FFFFFF" height="96.2031" style="stroke:#181818;stroke-width:1.0;" width="10" x="2067.5" y="1012.5469"/><rect fill="#FFFFFF" height="31.291" style="stroke:#181818;stroke-width:1.0;" width="10" x="2304.5" y="1046.168"/><polygon fill="#181818" points="189.5,112.9121,199.5,116.9121,189.5,120.9121,193.5,116.9121" style="stroke:#181818;stroke-width:1.0;"/><line style="stroke:#181818;stroke-width:1.0;" x1="28.5" x2="195.5" y1="116.9121" y2="116.9121"/><text fill="#000000" font-family="sans-serif" font-size="13" font-weight="bold" lengthAdjust="spacing" textLength="7" x="35.5" y="111.6494">1</text><text fill="#000000" font-family="sans-serif" font-size="13" lengthAdjust="spacing" textLength="110" x="46.5" y="111.6494">ask to show entrys</text><polygon fill="#181818" points="327.5,144.2031,337.5,148.2031,327.5,152.2031,331.5,148.2031" style="stroke:#181818;stroke-width:1.0;"/><line style="stroke:#181818;stroke-width:1.0;" x1="211.5" x2="333.5" y1="148.2031" y2="148.2031"/><text fill="#000000" font-family="sans-serif" font-size="13" font-weight="bold" lengthAdjust="spacing" textLength="7" x="218.5" y="142.9404">2</text><text fill="#000000" font-family="sans-serif" font-size="13" lengthAdjust="spacing" textLength="93" x="229.5" y="142.9404">create(entryDto)</text><rect fill="#E3E3E3" height="32.6211" rx="2.5" ry="2.5" style="stroke:#181818;stroke-width:0.5;" width="129" x="339.5" y="124.9121"/><text fill="#000000" font-family="sans-serif" font-size="14" lengthAdjust="spacing" textLength="115" x="346.5" y="147.0195">:AgendaController</text><polygon fill="#181818" points="1090,187.8242,1100,191.8242,1090,195.8242,1094,191.8242" style="stroke:#181818;stroke-width:1.0;"/><line style="stroke:#181818;stroke-width:1.0;" x1="409" x2="1096" y1="191.8242" y2="191.8242"/><text fill="#000000" font-family="sans-serif" font-size="13" font-weight="bold" lengthAdjust="spacing" textLength="7" x="416" y="186.5615">3</text><text fill="#000000" font-family="sans-serif" font-size="13" lengthAdjust="spacing" textLength="125" x="427" y="186.5615">getEntryByStateList()</text><polygon fill="#181818" points="1520,219.1152,1530,223.1152,1520,227.1152,1524,223.1152" style="stroke:#181818;stroke-width:1.0;"/><line style="stroke:#181818;stroke-width:1.0;" x1="1112" x2="1526" y1="223.1152" y2="223.1152"/><text fill="#000000" font-family="sans-serif" font-size="13" font-weight="bold" lengthAdjust="spacing" textLength="7" x="1119" y="217.8525">4</text><text fill="#000000" font-family="sans-serif" font-size="13" lengthAdjust="spacing" textLength="44" x="1130" y="217.8525">create()</text><rect fill="#E3E3E3" height="32.6211" rx="2.5" ry="2.5" style="stroke:#181818;stroke-width:0.5;" width="141" x="1532" y="199.8242"/><text fill="#000000" font-family="sans-serif" font-size="14" lengthAdjust="spacing" textLength="127" x="1539" y="221.9316">List : List&lt;EntryDto&gt;</text><polygon fill="#181818" points="415,262.7363,405,266.7363,415,270.7363,411,266.7363" style="stroke:#181818;stroke-width:1.0;"/><line style="stroke:#181818;stroke-width:1.0;stroke-dasharray:2.0,2.0;" x1="409" x2="1106" y1="266.7363" y2="266.7363"/><text fill="#000000" font-family="sans-serif" font-size="13" font-weight="bold" lengthAdjust="spacing" textLength="7" x="421" y="261.4736">5</text><text fill="#000000" font-family="sans-serif" font-size="13" lengthAdjust="spacing" textLength="97" x="432" y="261.4736">entryByStateList</text><polygon fill="#181818" points="1208.5,294.0273,1218.5,298.0273,1208.5,302.0273,1212.5,298.0273" style="stroke:#181818;stroke-width:1.0;"/><line style="stroke:#181818;stroke-width:1.0;" x1="409" x2="1214.5" y1="298.0273" y2="298.0273"/><text fill="#000000" font-family="sans-serif" font-size="13" font-weight="bold" lengthAdjust="spacing" textLength="7" x="416" y="292.7646">6</text><text fill="#000000" font-family="sans-serif" font-size="13" lengthAdjust="spacing" textLength="89" x="427" y="292.7646">toDto(entryList)</text><polygon fill="#181818" points="1874,325.3184,1884,329.3184,1874,333.3184,1878,329.3184" style="stroke:#181818;stroke-width:1.0;"/><line style="stroke:#181818;stroke-width:1.0;" x1="1230.5" x2="1880" y1="329.3184" y2="329.3184"/><text fill="#000000" font-family="sans-serif" font-size="13" font-weight="bold" lengthAdjust="spacing" textLength="7" x="1237.5" y="324.0557">7</text><text fill="#000000" font-family="sans-serif" font-size="13" lengthAdjust="spacing" textLength="44" x="1248.5" y="324.0557">create()</text><rect fill="#E3E3E3" height="32.6211" rx="2.5" ry="2.5" style="stroke:#181818;stroke-width:0.5;" width="151" x="1886" y="306.0273"/><text fill="#000000" font-family="sans-serif" font-size="14" lengthAdjust="spacing" textLength="137" x="1893" y="328.1348">entryList : List&lt;Entry&gt;</text><polygon fill="#181818" points="1944.5,368.9395,1954.5,372.9395,1944.5,376.9395,1948.5,372.9395" style="stroke:#181818;stroke-width:1.0;"/><line style="stroke:#181818;stroke-width:1.0;" x1="1230.5" x2="1950.5" y1="372.9395" y2="372.9395"/><text fill="#000000" font-family="sans-serif" font-size="13" font-weight="bold" lengthAdjust="spacing" textLength="7" x="1237.5" y="367.6768">8</text><text fill="#000000" font-family="sans-serif" font-size="13" lengthAdjust="spacing" textLength="74" x="1248.5" y="367.6768">entry = get(i)</text><line style="stroke:#181818;stroke-width:1.0;" x1="1230.5" x2="1277.5" y1="429.2305" y2="429.2305"/><line style="stroke:#181818;stroke-width:1.0;" x1="1277.5" x2="1277.5" y1="429.2305" y2="442.2305"/><line style="stroke:#181818;stroke-width:1.0;" x1="1236.5" x2="1277.5" y1="442.2305" y2="442.2305"/><polygon fill="#181818" points="1246.5,438.2305,1236.5,442.2305,1246.5,446.2305,1242.5,442.2305" style="stroke:#181818;stroke-width:1.0;"/><text fill="#000000" font-family="sans-serif" font-size="13" font-weight="bold" lengthAdjust="spacing" textLength="7" x="1242.5" y="423.9678">9</text><text fill="#000000" font-family="sans-serif" font-size="13" lengthAdjust="spacing" textLength="139" x="1253.5" y="423.9678">entryDto = toDTO(entry)</text><polygon fill="#181818" points="2261,474.5215,2271,478.5215,2261,482.5215,2265,478.5215" style="stroke:#181818;stroke-width:1.0;"/><line style="stroke:#181818;stroke-width:1.0;" x1="1230.5" x2="2267" y1="478.5215" y2="478.5215"/><text fill="#000000" font-family="sans-serif" font-size="13" font-weight="bold" lengthAdjust="spacing" textLength="14" x="1237.5" y="473.2588">10</text><text fill="#000000" font-family="sans-serif" font-size="13" lengthAdjust="spacing" textLength="56" x="1255.5" y="473.2588">create(...)</text><rect fill="#E3E3E3" height="32.6211" rx="2.5" ry="2.5" style="stroke:#181818;stroke-width:0.5;" width="73" x="2273" y="455.2305"/><text fill="#000000" font-family="sans-serif" font-size="14" lengthAdjust="spacing" textLength="59" x="2280" y="477.3379">:EntryDto</text><polygon fill="#181818" points="1386.5,518.1426,1396.5,522.1426,1386.5,526.1426,1390.5,522.1426" style="stroke:#181818;stroke-width:1.0;"/><line style="stroke:#181818;stroke-width:1.0;" x1="1230.5" x2="1392.5" y1="522.1426" y2="522.1426"/><text fill="#000000" font-family="sans-serif" font-size="13" font-weight="bold" lengthAdjust="spacing" textLength="14" x="1237.5" y="516.8799">11</text><text fill="#000000" font-family="sans-serif" font-size="13" lengthAdjust="spacing" textLength="78" x="1255.5" y="516.8799">add(entryDto)</text><polygon fill="#181818" points="420,579.4336,410,583.4336,420,587.4336,416,583.4336" style="stroke:#181818;stroke-width:1.0;"/><line style="stroke:#181818;stroke-width:1.0;stroke-dasharray:2.0,2.0;" x1="414" x2="1224.5" y1="583.4336" y2="583.4336"/><text fill="#000000" font-family="sans-serif" font-size="13" font-weight="bold" lengthAdjust="spacing" textLength="14" x="426" y="578.1709">12</text><text fill="#000000" font-family="sans-serif" font-size="13" lengthAdjust="spacing" textLength="70" x="444" y="578.1709">entryListDto</text><polygon fill="#181818" points="222.5,610.7246,212.5,614.7246,222.5,618.7246,218.5,614.7246" style="stroke:#181818;stroke-width:1.0;"/><line style="stroke:#181818;stroke-width:1.0;stroke-dasharray:2.0,2.0;" x1="216.5" x2="403" y1="614.7246" y2="614.7246"/><text fill="#000000" font-family="sans-serif" font-size="13" font-weight="bold" lengthAdjust="spacing" textLength="14" x="228.5" y="609.4619">13</text><text fill="#000000" font-family="sans-serif" font-size="13" lengthAdjust="spacing" textLength="70" x="246.5" y="609.4619">entryListDto</text><polygon fill="#181818" points="39.5,642.0156,29.5,646.0156,39.5,650.0156,35.5,646.0156" style="stroke:#181818;stroke-width:1.0;"/><line style="stroke:#181818;stroke-width:1.0;stroke-dasharray:2.0,2.0;" x1="33.5" x2="205.5" y1="646.0156" y2="646.0156"/><text fill="#000000" font-family="sans-serif" font-size="13" font-weight="bold" lengthAdjust="spacing" textLength="14" x="45.5" y="640.7529">14</text><text fill="#000000" font-family="sans-serif" font-size="13" lengthAdjust="spacing" textLength="131" x="63.5" y="640.7529">shows details and wait</text><polygon fill="#181818" points="529,673.3066,539,677.3066,529,681.3066,533,677.3066" style="stroke:#181818;stroke-width:1.0;"/><line style="stroke:#181818;stroke-width:1.0;" x1="28.5" x2="535" y1="677.3066" y2="677.3066"/><text fill="#000000" font-family="sans-serif" font-size="13" font-weight="bold" lengthAdjust="spacing" textLength="14" x="35.5" y="672.0439">15</text><text fill="#000000" font-family="sans-serif" font-size="13" lengthAdjust="spacing" textLength="193" x="53.5" y="672.0439">ask and select an entry to cancel</text><polygon fill="#181818" points="627,704.5977,637,708.5977,627,712.5977,631,708.5977" style="stroke:#181818;stroke-width:1.0;"/><line style="stroke:#181818;stroke-width:1.0;" x1="551" x2="633" y1="708.5977" y2="708.5977"/><text fill="#000000" font-family="sans-serif" font-size="13" font-weight="bold" lengthAdjust="spacing" textLength="14" x="558" y="703.335">16</text><text fill="#000000" font-family="sans-serif" font-size="13" lengthAdjust="spacing" textLength="46" x="576" y="703.335">cancel()</text><rect fill="#E3E3E3" height="32.6211" rx="2.5" ry="2.5" style="stroke:#181818;stroke-width:0.5;" width="185" x="639" y="685.3066"/><text fill="#000000" font-family="sans-serif" font-size="14" lengthAdjust="spacing" textLength="171" x="646" y="707.4141">:ViewDetailsEntryController</text><polygon fill="#181818" points="865.5,748.2188,875.5,752.2188,865.5,756.2188,869.5,752.2188" style="stroke:#181818;stroke-width:1.0;"/><line style="stroke:#181818;stroke-width:1.0;" x1="736.5" x2="871.5" y1="752.2188" y2="752.2188"/><text fill="#000000" font-family="sans-serif" font-size="13" font-weight="bold" lengthAdjust="spacing" textLength="14" x="743.5" y="746.9561">17</text><text fill="#000000" font-family="sans-serif" font-size="13" lengthAdjust="spacing" textLength="75" x="761.5" y="746.9561">getInstance()</text><polygon fill="#181818" points="747.5,779.5098,737.5,783.5098,747.5,787.5098,743.5,783.5098" style="stroke:#181818;stroke-width:1.0;"/><line style="stroke:#181818;stroke-width:1.0;stroke-dasharray:2.0,2.0;" x1="741.5" x2="881.5" y1="783.5098" y2="783.5098"/><text fill="#000000" font-family="sans-serif" font-size="13" font-weight="bold" lengthAdjust="spacing" textLength="14" x="753.5" y="778.2471">18</text><text fill="#000000" font-family="sans-serif" font-size="13" lengthAdjust="spacing" textLength="67" x="771.5" y="778.2471">repositories</text><polygon fill="#181818" points="972.5,810.8008,982.5,814.8008,972.5,818.8008,976.5,814.8008" style="stroke:#181818;stroke-width:1.0;"/><line style="stroke:#181818;stroke-width:1.0;" x1="736.5" x2="978.5" y1="814.8008" y2="814.8008"/><text fill="#000000" font-family="sans-serif" font-size="13" font-weight="bold" lengthAdjust="spacing" textLength="14" x="743.5" y="809.5381">19</text><text fill="#000000" font-family="sans-serif" font-size="13" lengthAdjust="spacing" textLength="119" x="761.5" y="809.5381">getEntryRepository()</text><polygon fill="#181818" points="747.5,842.0918,737.5,846.0918,747.5,850.0918,743.5,846.0918" style="stroke:#181818;stroke-width:1.0;"/><line style="stroke:#181818;stroke-width:1.0;stroke-dasharray:2.0,2.0;" x1="741.5" x2="988.5" y1="846.0918" y2="846.0918"/><text fill="#000000" font-family="sans-serif" font-size="13" font-weight="bold" lengthAdjust="spacing" textLength="14" x="753.5" y="840.8291">20</text><text fill="#000000" font-family="sans-serif" font-size="13" lengthAdjust="spacing" textLength="91" x="771.5" y="840.8291">entryRepository</text><polygon fill="#181818" points="39.5,873.3828,29.5,877.3828,39.5,881.3828,35.5,877.3828" style="stroke:#181818;stroke-width:1.0;"/><line style="stroke:#181818;stroke-width:1.0;stroke-dasharray:2.0,2.0;" x1="33.5" x2="540" y1="877.3828" y2="877.3828"/><text fill="#000000" font-family="sans-serif" font-size="13" font-weight="bold" lengthAdjust="spacing" textLength="14" x="45.5" y="872.1201">21</text><text fill="#000000" font-family="sans-serif" font-size="13" lengthAdjust="spacing" textLength="229" x="63.5" y="872.1201">request confirmation to cancel the entry</text><polygon fill="#181818" points="529,904.6738,539,908.6738,529,912.6738,533,908.6738" style="stroke:#181818;stroke-width:1.0;"/><line style="stroke:#181818;stroke-width:1.0;" x1="28.5" x2="535" y1="908.6738" y2="908.6738"/><text fill="#000000" font-family="sans-serif" font-size="13" font-weight="bold" lengthAdjust="spacing" textLength="14" x="35.5" y="903.4111">22</text><text fill="#000000" font-family="sans-serif" font-size="13" lengthAdjust="spacing" textLength="78" x="53.5" y="903.4111">confirms data</text><polygon fill="#181818" points="714.5,935.9648,724.5,939.9648,714.5,943.9648,718.5,939.9648" style="stroke:#181818;stroke-width:1.0;"/><line style="stroke:#181818;stroke-width:1.0;" x1="551" x2="720.5" y1="939.9648" y2="939.9648"/><text fill="#000000" font-family="sans-serif" font-size="13" font-weight="bold" lengthAdjust="spacing" textLength="14" x="558" y="934.7021">23</text><text fill="#000000" font-family="sans-serif" font-size="13" lengthAdjust="spacing" textLength="126" x="576" y="934.7021">cancelEntry(entryDto)</text><polygon fill="#181818" points="1090,967.2559,1100,971.2559,1090,975.2559,1094,971.2559" style="stroke:#181818;stroke-width:1.0;"/><line style="stroke:#181818;stroke-width:1.0;" x1="736.5" x2="1096" y1="971.2559" y2="971.2559"/><text fill="#000000" font-family="sans-serif" font-size="13" font-weight="bold" lengthAdjust="spacing" textLength="14" x="743.5" y="965.9932">24</text><text fill="#000000" font-family="sans-serif" font-size="13" lengthAdjust="spacing" textLength="126" x="761.5" y="965.9932">cancelEntry(entryDto)</text><polygon fill="#181818" points="2035,998.5469,2045,1002.5469,2035,1006.5469,2039,1002.5469" style="stroke:#181818;stroke-width:1.0;"/><line style="stroke:#181818;stroke-width:1.0;" x1="1107" x2="2041" y1="1002.5469" y2="1002.5469"/><text fill="#000000" font-family="sans-serif" font-size="13" font-weight="bold" lengthAdjust="spacing" textLength="14" x="1114" y="997.2842">25</text><text fill="#000000" font-family="sans-serif" font-size="13" lengthAdjust="spacing" textLength="126" x="1132" y="997.2842">cancelEntry(entryDto)</text><rect fill="#E3E3E3" height="32.6211" rx="2.5" ry="2.5" style="stroke:#181818;stroke-width:0.5;" width="51" x="2047" y="979.2559"/><text fill="#000000" font-family="sans-serif" font-size="14" lengthAdjust="spacing" textLength="37" x="2054" y="1001.3633">:Entry</text><polygon fill="#181818" points="2292.5,1042.168,2302.5,1046.168,2292.5,1050.168,2296.5,1046.168" style="stroke:#181818;stroke-width:1.0;"/><line style="stroke:#181818;stroke-width:1.0;" x1="2077.5" x2="2298.5" y1="1046.168" y2="1046.168"/><text fill="#000000" font-family="sans-serif" font-size="13" font-weight="bold" lengthAdjust="spacing" textLength="14" x="2084.5" y="1040.9053">26</text><text fill="#000000" font-family="sans-serif" font-size="13" lengthAdjust="spacing" textLength="190" x="2102.5" y="1040.9053">stateOfEntry = setStateOfEntry()</text><polygon fill="#181818" points="2088.5,1073.459,2078.5,1077.459,2088.5,1081.459,2084.5,1077.459" style="stroke:#181818;stroke-width:1.0;"/><line style="stroke:#181818;stroke-width:1.0;stroke-dasharray:2.0,2.0;" x1="2082.5" x2="2308.5" y1="1077.459" y2="1077.459"/><text fill="#000000" font-family="sans-serif" font-size="13" font-weight="bold" lengthAdjust="spacing" textLength="14" x="2094.5" y="1072.1963">27</text><text fill="#000000" font-family="sans-serif" font-size="13" lengthAdjust="spacing" textLength="73" x="2112.5" y="1072.1963">stateOfEntry</text><polygon fill="#181818" points="1123,1104.75,1113,1108.75,1123,1112.75,1119,1108.75" style="stroke:#181818;stroke-width:1.0;"/><line style="stroke:#181818;stroke-width:1.0;stroke-dasharray:2.0,2.0;" x1="1117" x2="2071.5" y1="1108.75" y2="1108.75"/><text fill="#000000" font-family="sans-serif" font-size="13" font-weight="bold" lengthAdjust="spacing" textLength="14" x="1129" y="1103.4873">28</text><text fill="#000000" font-family="sans-serif" font-size="13" lengthAdjust="spacing" textLength="53" x="1147" y="1103.4873">true/false</text><polygon fill="#181818" points="747.5,1136.041,737.5,1140.041,747.5,1144.041,743.5,1140.041" style="stroke:#181818;stroke-width:1.0;"/><line style="stroke:#181818;stroke-width:1.0;stroke-dasharray:2.0,2.0;" x1="741.5" x2="1106" y1="1140.041" y2="1140.041"/><text fill="#000000" font-family="sans-serif" font-size="13" font-weight="bold" lengthAdjust="spacing" textLength="14" x="753.5" y="1134.7783">29</text><text fill="#000000" font-family="sans-serif" font-size="13" lengthAdjust="spacing" textLength="53" x="771.5" y="1134.7783">true/false</text><polygon fill="#181818" points="562,1167.332,552,1171.332,562,1175.332,558,1171.332" style="stroke:#181818;stroke-width:1.0;"/><line style="stroke:#181818;stroke-width:1.0;stroke-dasharray:2.0,2.0;" x1="556" x2="725.5" y1="1171.332" y2="1171.332"/><text fill="#000000" font-family="sans-serif" font-size="13" font-weight="bold" lengthAdjust="spacing" textLength="14" x="568" y="1166.0693">30</text><text fill="#000000" font-family="sans-serif" font-size="13" lengthAdjust="spacing" textLength="53" x="586" y="1166.0693">true/false</text><polygon fill="#181818" points="34.5,1198.623,24.5,1202.623,34.5,1206.623,30.5,1202.623" style="stroke:#181818;stroke-width:1.0;"/><line style="stroke:#181818;stroke-width:1.0;stroke-dasharray:2.0,2.0;" x1="28.5" x2="545" y1="1202.623" y2="1202.623"/><text fill="#000000" font-family="sans-serif" font-size="13" font-weight="bold" lengthAdjust="spacing" textLength="14" x="40.5" y="1197.3604">31</text><text fill="#000000" font-family="sans-serif" font-size="13" lengthAdjust="spacing" textLength="158" x="58.5" y="1197.3604">displays operation success</text><!--SRC=[fLR9Rjim4BthAuXSwWH8UXUQ05cC8aK21x7RKowCDBQ9oAGgqdNzznrI54L98pb0Suavovk5mpVI7qAMlE8xjbDIPTjAxO2PQW-93fgIPnzy0qjpB81La1akDqLieBSyLmSXDspD2mr9mlT6oVtk7Qea-R8LER2rKkPT_KruPbJ5phuldyyOrmp_9uXXH2PABWqxIsyt87F-yz6fcmDfSw-agLHHG1NPjiAUpoy1XmSmN1HwZYP77s60tRVhHRbVlJxrF5wXL5fWMGAqimc2urBOJc4lkYvLvF4cXm0lJxUhhWVOL5hSz4tEknBdrvFrydJQPrwMlfJdsvUN-MlNAECoWy9PFWbj7enYARE_lZaPdc-ShrEk5brdAwJDcvDLJGRikBUXY6QCM0SagdXdiRZxGUamkqwgIM9dLVpX1joK9ip_uO5TteJHJD7fWs6Vz5OTc4jD1zk040Ovg1f9YzLEsiL5oh8Aq746FftpCSneuFlWhSe6wGr7oZPWdEpkk3I8Pvis8yBqXofOz1GXXh_dg8Zp2IUY_BHkOvHNSCzXD2_2PDYXgGRLxo75kyGAPc78Y9Rub_E96sbCQe_Gehe_Z6eGOSbyGzYrlREP6BkaoKuv9H75__8Xx8E_jXrOBUeEZ5S_bZ52O6bjRLTNL-TKLkCmdbmGWkVvr0jeM8X0RrG3U6BUck8zutqcsU7yT2ZX5DofmRIqW818DQdZ5OtERYKnBdDsuCACeyOauxaAuMgQijuQ2bpX-DCF5TvuJSB3_iPGDLFPzUSUjlEWwC8jo22s9-j7h4H7G8zI6mj58L5hD5WHIjSo6p1byOAbEZK9tUHijt3BagqBbQlRs45iJr4sS9gfklxnzLVmUm_80PcIQr7jk15OQRWpPhPGunENdZPEE3xSSEekcvjq9KPFRT2CmVQW_VvhU-1cRcTh3FaJ6o0Os5NVHiHJJ5BuiknwMQpddbirc6Ka6Ts5xkEWKuPbpSkwW2xgQDOT39SOrMFx7Vwr_gGcW6nrf_izkNdh4PWECqJi3OUVjGY566Gae5peik17pHH-WTPphFTP1ffyefPxegFz1Fi7]--></g></svg>