<?xml version="1.0" encoding="us-ascii" standalone="no"?><svg xmlns="http://www.w3.org/2000/svg" xmlns:xlink="http://www.w3.org/1999/xlink" contentStyleType="text/css" height="531px" preserveAspectRatio="none" style="width:839px;height:531px;background:#FFFFFF;" version="1.1" viewBox="0 0 839 531" width="839px" zoomAndPan="magnify"><defs/><g><!--class ApplicationSession--><g id="elem_ApplicationSession"><rect codeLine="11" fill="#F1F1F1" height="85.2422" id="ApplicationSession" rx="2.5" ry="2.5" style="stroke:#181818;stroke-width:0.5;" width="151" x="455.5" y="275"/><ellipse cx="470.5" cy="291" fill="#ADD1B2" rx="11" ry="11" style="stroke:#181818;stroke-width:1.0;"/><path d="M473.2656,286.875 Q473.4219,286.6563 473.6094,286.5469 Q473.7969,286.4375 474.0156,286.4375 Q474.3906,286.4375 474.625,286.7031 Q474.8594,286.9531 474.8594,287.5625 L474.8594,289.0156 Q474.8594,289.625 474.625,289.8906 Q474.3906,290.1563 474.0156,290.1563 Q473.6719,290.1563 473.4688,289.9531 Q473.2656,289.7656 473.1563,289.25 Q473.1094,288.8906 472.9219,288.7031 Q472.5938,288.3281 471.9844,288.1094 Q471.375,287.8906 470.75,287.8906 Q469.9844,287.8906 469.3438,288.2188 Q468.7188,288.5469 468.2188,289.2969 Q467.7344,290.0469 467.7344,291.0781 L467.7344,292.1719 Q467.7344,293.4063 468.625,294.2344 Q469.5156,295.0469 471.1094,295.0469 Q472.0469,295.0469 472.7031,294.7969 Q473.0938,294.6406 473.5156,294.2031 Q473.7813,293.9375 473.9219,293.8594 Q474.0781,293.7813 474.2813,293.7813 Q474.6094,293.7813 474.8594,294.0469 Q475.125,294.2969 475.125,294.6406 Q475.125,294.9844 474.7813,295.3906 Q474.2813,295.9688 473.4844,296.2969 Q472.4063,296.75 471.1094,296.75 Q469.5938,296.75 468.3906,296.125 Q467.4063,295.625 466.7188,294.5625 Q466.0313,293.4844 466.0313,292.2031 L466.0313,291.0469 Q466.0313,289.7188 466.6406,288.5781 Q467.2656,287.4219 468.3594,286.8125 Q469.4531,286.1875 470.6875,286.1875 Q471.4219,286.1875 472.0625,286.3594 Q472.7188,286.5156 473.2656,286.875 Z " fill="#000000"/><text fill="#000000" font-family="sans-serif" font-size="14" lengthAdjust="spacing" textLength="119" x="484.5" y="296.7969">ApplicationSession</text><line style="stroke:#181818;stroke-width:0.5;" x1="456.5" x2="605.5" y1="307" y2="307"/><line style="stroke:#181818;stroke-width:0.5;" x1="456.5" x2="605.5" y1="315" y2="315"/><text fill="#000000" font-family="sans-serif" font-size="14" lengthAdjust="spacing" textLength="128" x="461.5" y="334.1074">+static getInstance()</text><text fill="#000000" font-family="sans-serif" font-size="14" lengthAdjust="spacing" textLength="136" x="461.5" y="352.7285">+getCurrentSession()</text></g><!--class UserSession--><g id="elem_UserSession"><rect codeLine="16" fill="#F1F1F1" height="48" id="UserSession" rx="2.5" ry="2.5" style="stroke:#181818;stroke-width:0.5;" width="111" x="607.5" y="457.5"/><ellipse cx="622.5" cy="473.5" fill="#ADD1B2" rx="11" ry="11" style="stroke:#181818;stroke-width:1.0;"/><path d="M625.2656,469.375 Q625.4219,469.1563 625.6094,469.0469 Q625.7969,468.9375 626.0156,468.9375 Q626.3906,468.9375 626.625,469.2031 Q626.8594,469.4531 626.8594,470.0625 L626.8594,471.5156 Q626.8594,472.125 626.625,472.3906 Q626.3906,472.6563 626.0156,472.6563 Q625.6719,472.6563 625.4688,472.4531 Q625.2656,472.2656 625.1563,471.75 Q625.1094,471.3906 624.9219,471.2031 Q624.5938,470.8281 623.9844,470.6094 Q623.375,470.3906 622.75,470.3906 Q621.9844,470.3906 621.3438,470.7188 Q620.7188,471.0469 620.2188,471.7969 Q619.7344,472.5469 619.7344,473.5781 L619.7344,474.6719 Q619.7344,475.9063 620.625,476.7344 Q621.5156,477.5469 623.1094,477.5469 Q624.0469,477.5469 624.7031,477.2969 Q625.0938,477.1406 625.5156,476.7031 Q625.7813,476.4375 625.9219,476.3594 Q626.0781,476.2813 626.2813,476.2813 Q626.6094,476.2813 626.8594,476.5469 Q627.125,476.7969 627.125,477.1406 Q627.125,477.4844 626.7813,477.8906 Q626.2813,478.4688 625.4844,478.7969 Q624.4063,479.25 623.1094,479.25 Q621.5938,479.25 620.3906,478.625 Q619.4063,478.125 618.7188,477.0625 Q618.0313,475.9844 618.0313,474.7031 L618.0313,473.5469 Q618.0313,472.2188 618.6406,471.0781 Q619.2656,469.9219 620.3594,469.3125 Q621.4531,468.6875 622.6875,468.6875 Q623.4219,468.6875 624.0625,468.8594 Q624.7188,469.0156 625.2656,469.375 Z " fill="#000000"/><text fill="#000000" font-family="sans-serif" font-size="14" lengthAdjust="spacing" textLength="79" x="636.5" y="479.2969">UserSession</text><line style="stroke:#181818;stroke-width:0.5;" x1="608.5" x2="717.5" y1="489.5" y2="489.5"/><line style="stroke:#181818;stroke-width:0.5;" x1="608.5" x2="717.5" y1="497.5" y2="497.5"/></g><!--class GSM--><g id="elem_GSM"><rect codeLine="19" fill="#F1F1F1" height="48" id="GSM" rx="2.5" ry="2.5" style="stroke:#181818;stroke-width:0.5;" width="63" x="769.5" y="35"/><ellipse cx="784.5" cy="51" fill="#ADD1B2" rx="11" ry="11" style="stroke:#181818;stroke-width:1.0;"/><path d="M787.2656,46.875 Q787.4219,46.6563 787.6094,46.5469 Q787.7969,46.4375 788.0156,46.4375 Q788.3906,46.4375 788.625,46.7031 Q788.8594,46.9531 788.8594,47.5625 L788.8594,49.0156 Q788.8594,49.625 788.625,49.8906 Q788.3906,50.1563 788.0156,50.1563 Q787.6719,50.1563 787.4688,49.9531 Q787.2656,49.7656 787.1563,49.25 Q787.1094,48.8906 786.9219,48.7031 Q786.5938,48.3281 785.9844,48.1094 Q785.375,47.8906 784.75,47.8906 Q783.9844,47.8906 783.3438,48.2188 Q782.7188,48.5469 782.2188,49.2969 Q781.7344,50.0469 781.7344,51.0781 L781.7344,52.1719 Q781.7344,53.4063 782.625,54.2344 Q783.5156,55.0469 785.1094,55.0469 Q786.0469,55.0469 786.7031,54.7969 Q787.0938,54.6406 787.5156,54.2031 Q787.7813,53.9375 787.9219,53.8594 Q788.0781,53.7813 788.2813,53.7813 Q788.6094,53.7813 788.8594,54.0469 Q789.125,54.2969 789.125,54.6406 Q789.125,54.9844 788.7813,55.3906 Q788.2813,55.9688 787.4844,56.2969 Q786.4063,56.75 785.1094,56.75 Q783.5938,56.75 782.3906,56.125 Q781.4063,55.625 780.7188,54.5625 Q780.0313,53.4844 780.0313,52.2031 L780.0313,51.0469 Q780.0313,49.7188 780.6406,48.5781 Q781.2656,47.4219 782.3594,46.8125 Q783.4531,46.1875 784.6875,46.1875 Q785.4219,46.1875 786.0625,46.3594 Q786.7188,46.5156 787.2656,46.875 Z " fill="#000000"/><text fill="#000000" font-family="sans-serif" font-size="14" lengthAdjust="spacing" textLength="31" x="798.5" y="56.7969">GSM</text><line style="stroke:#181818;stroke-width:0.5;" x1="770.5" x2="831.5" y1="67" y2="67"/><line style="stroke:#181818;stroke-width:0.5;" x1="770.5" x2="831.5" y1="75" y2="75"/></g><!--class Skill--><g id="elem_Skill"><rect codeLine="22" fill="#F1F1F1" height="85.2422" id="Skill" rx="2.5" ry="2.5" style="stroke:#181818;stroke-width:0.5;" width="93" x="321.5" y="439"/><ellipse cx="352.7" cy="455" fill="#ADD1B2" rx="11" ry="11" style="stroke:#181818;stroke-width:1.0;"/><path d="M355.4656,450.875 Q355.6219,450.6563 355.8094,450.5469 Q355.9969,450.4375 356.2156,450.4375 Q356.5906,450.4375 356.825,450.7031 Q357.0594,450.9531 357.0594,451.5625 L357.0594,453.0156 Q357.0594,453.625 356.825,453.8906 Q356.5906,454.1563 356.2156,454.1563 Q355.8719,454.1563 355.6688,453.9531 Q355.4656,453.7656 355.3563,453.25 Q355.3094,452.8906 355.1219,452.7031 Q354.7938,452.3281 354.1844,452.1094 Q353.575,451.8906 352.95,451.8906 Q352.1844,451.8906 351.5438,452.2188 Q350.9188,452.5469 350.4188,453.2969 Q349.9344,454.0469 349.9344,455.0781 L349.9344,456.1719 Q349.9344,457.4063 350.825,458.2344 Q351.7156,459.0469 353.3094,459.0469 Q354.2469,459.0469 354.9031,458.7969 Q355.2938,458.6406 355.7156,458.2031 Q355.9813,457.9375 356.1219,457.8594 Q356.2781,457.7813 356.4813,457.7813 Q356.8094,457.7813 357.0594,458.0469 Q357.325,458.2969 357.325,458.6406 Q357.325,458.9844 356.9813,459.3906 Q356.4813,459.9688 355.6844,460.2969 Q354.6063,460.75 353.3094,460.75 Q351.7938,460.75 350.5906,460.125 Q349.6063,459.625 348.9188,458.5625 Q348.2313,457.4844 348.2313,456.2031 L348.2313,455.0469 Q348.2313,453.7188 348.8406,452.5781 Q349.4656,451.4219 350.5594,450.8125 Q351.6531,450.1875 352.8875,450.1875 Q353.6219,450.1875 354.2625,450.3594 Q354.9188,450.5156 355.4656,450.875 Z " fill="#000000"/><text fill="#000000" font-family="sans-serif" font-size="14" lengthAdjust="spacing" textLength="25" x="370.3" y="460.7969">Skill</text><line style="stroke:#181818;stroke-width:0.5;" x1="322.5" x2="413.5" y1="471" y2="471"/><text fill="#000000" font-family="sans-serif" font-size="14" lengthAdjust="spacing" textLength="81" x="327.5" y="490.1074">-String name</text><line style="stroke:#181818;stroke-width:0.5;" x1="322.5" x2="413.5" y1="497.6211" y2="497.6211"/><text fill="#000000" font-family="sans-serif" font-size="14" lengthAdjust="spacing" textLength="78" x="327.5" y="516.7285">+Skill(name)</text></g><!--class skillRepository--><g id="elem_skillRepository"><rect codeLine="29" fill="#F1F1F1" height="85.2422" id="skillRepository" rx="2.5" ry="2.5" style="stroke:#181818;stroke-width:0.5;" width="123" x="143.5" y="275"/><ellipse cx="158.5" cy="291" fill="#ADD1B2" rx="11" ry="11" style="stroke:#181818;stroke-width:1.0;"/><path d="M161.2656,286.875 Q161.4219,286.6563 161.6094,286.5469 Q161.7969,286.4375 162.0156,286.4375 Q162.3906,286.4375 162.625,286.7031 Q162.8594,286.9531 162.8594,287.5625 L162.8594,289.0156 Q162.8594,289.625 162.625,289.8906 Q162.3906,290.1563 162.0156,290.1563 Q161.6719,290.1563 161.4688,289.9531 Q161.2656,289.7656 161.1563,289.25 Q161.1094,288.8906 160.9219,288.7031 Q160.5938,288.3281 159.9844,288.1094 Q159.375,287.8906 158.75,287.8906 Q157.9844,287.8906 157.3438,288.2188 Q156.7188,288.5469 156.2188,289.2969 Q155.7344,290.0469 155.7344,291.0781 L155.7344,292.1719 Q155.7344,293.4063 156.625,294.2344 Q157.5156,295.0469 159.1094,295.0469 Q160.0469,295.0469 160.7031,294.7969 Q161.0938,294.6406 161.5156,294.2031 Q161.7813,293.9375 161.9219,293.8594 Q162.0781,293.7813 162.2813,293.7813 Q162.6094,293.7813 162.8594,294.0469 Q163.125,294.2969 163.125,294.6406 Q163.125,294.9844 162.7813,295.3906 Q162.2813,295.9688 161.4844,296.2969 Q160.4063,296.75 159.1094,296.75 Q157.5938,296.75 156.3906,296.125 Q155.4063,295.625 154.7188,294.5625 Q154.0313,293.4844 154.0313,292.2031 L154.0313,291.0469 Q154.0313,289.7188 154.6406,288.5781 Q155.2656,287.4219 156.3594,286.8125 Q157.4531,286.1875 158.6875,286.1875 Q159.4219,286.1875 160.0625,286.3594 Q160.7188,286.5156 161.2656,286.875 Z " fill="#000000"/><text fill="#000000" font-family="sans-serif" font-size="14" lengthAdjust="spacing" textLength="91" x="172.5" y="296.7969">skillRepository</text><line style="stroke:#181818;stroke-width:0.5;" x1="144.5" x2="265.5" y1="307" y2="307"/><text fill="#000000" font-family="sans-serif" font-size="14" lengthAdjust="spacing" textLength="72" x="149.5" y="326.1074">-List &lt;Skill&gt;</text><line style="stroke:#181818;stroke-width:0.5;" x1="144.5" x2="265.5" y1="333.6211" y2="333.6211"/><text fill="#000000" font-family="sans-serif" font-size="14" lengthAdjust="spacing" textLength="85" x="149.5" y="352.7285">+getSkillList()</text></g><!--class Repositories--><g id="elem_Repositories"><rect codeLine="35" fill="#F1F1F1" height="103.8633" id="Repositories" rx="2.5" ry="2.5" style="stroke:#181818;stroke-width:0.5;" width="189" x="110.5" y="141"/><ellipse cx="161.25" cy="157" fill="#ADD1B2" rx="11" ry="11" style="stroke:#181818;stroke-width:1.0;"/><path d="M164.0156,152.875 Q164.1719,152.6563 164.3594,152.5469 Q164.5469,152.4375 164.7656,152.4375 Q165.1406,152.4375 165.375,152.7031 Q165.6094,152.9531 165.6094,153.5625 L165.6094,155.0156 Q165.6094,155.625 165.375,155.8906 Q165.1406,156.1563 164.7656,156.1563 Q164.4219,156.1563 164.2188,155.9531 Q164.0156,155.7656 163.9063,155.25 Q163.8594,154.8906 163.6719,154.7031 Q163.3438,154.3281 162.7344,154.1094 Q162.125,153.8906 161.5,153.8906 Q160.7344,153.8906 160.0938,154.2188 Q159.4688,154.5469 158.9688,155.2969 Q158.4844,156.0469 158.4844,157.0781 L158.4844,158.1719 Q158.4844,159.4063 159.375,160.2344 Q160.2656,161.0469 161.8594,161.0469 Q162.7969,161.0469 163.4531,160.7969 Q163.8438,160.6406 164.2656,160.2031 Q164.5313,159.9375 164.6719,159.8594 Q164.8281,159.7813 165.0313,159.7813 Q165.3594,159.7813 165.6094,160.0469 Q165.875,160.2969 165.875,160.6406 Q165.875,160.9844 165.5313,161.3906 Q165.0313,161.9688 164.2344,162.2969 Q163.1563,162.75 161.8594,162.75 Q160.3438,162.75 159.1406,162.125 Q158.1563,161.625 157.4688,160.5625 Q156.7813,159.4844 156.7813,158.2031 L156.7813,157.0469 Q156.7813,155.7188 157.3906,154.5781 Q158.0156,153.4219 159.1094,152.8125 Q160.2031,152.1875 161.4375,152.1875 Q162.1719,152.1875 162.8125,152.3594 Q163.4688,152.5156 164.0156,152.875 Z " fill="#000000"/><text fill="#000000" font-family="sans-serif" font-size="14" lengthAdjust="spacing" textLength="79" x="181.75" y="162.7969">Repositories</text><line style="stroke:#181818;stroke-width:0.5;" x1="111.5" x2="298.5" y1="173" y2="173"/><line style="stroke:#181818;stroke-width:0.5;" x1="111.5" x2="298.5" y1="181" y2="181"/><text fill="#000000" font-family="sans-serif" font-size="14" lengthAdjust="spacing" textLength="94" x="116.5" y="200.1074">-Repositories()</text><text fill="#000000" font-family="sans-serif" font-size="14" lengthAdjust="spacing" textLength="177" x="116.5" y="218.7285">+getInstance() : repositories</text><text fill="#000000" font-family="sans-serif" font-size="14" lengthAdjust="spacing" textLength="131" x="116.5" y="237.3496">+getSkillRepository()</text></g><!--class RegisterSkillController--><g id="elem_RegisterSkillController"><rect codeLine="42" fill="#F1F1F1" height="103.8633" id="RegisterSkillController" rx="2.5" ry="2.5" style="stroke:#181818;stroke-width:0.5;" width="194" x="305" y="7"/><ellipse cx="329.9" cy="23" fill="#ADD1B2" rx="11" ry="11" style="stroke:#181818;stroke-width:1.0;"/><path d="M332.6656,18.875 Q332.8219,18.6563 333.0094,18.5469 Q333.1969,18.4375 333.4156,18.4375 Q333.7906,18.4375 334.025,18.7031 Q334.2594,18.9531 334.2594,19.5625 L334.2594,21.0156 Q334.2594,21.625 334.025,21.8906 Q333.7906,22.1563 333.4156,22.1563 Q333.0719,22.1563 332.8688,21.9531 Q332.6656,21.7656 332.5563,21.25 Q332.5094,20.8906 332.3219,20.7031 Q331.9938,20.3281 331.3844,20.1094 Q330.775,19.8906 330.15,19.8906 Q329.3844,19.8906 328.7438,20.2188 Q328.1188,20.5469 327.6188,21.2969 Q327.1344,22.0469 327.1344,23.0781 L327.1344,24.1719 Q327.1344,25.4063 328.025,26.2344 Q328.9156,27.0469 330.5094,27.0469 Q331.4469,27.0469 332.1031,26.7969 Q332.4938,26.6406 332.9156,26.2031 Q333.1813,25.9375 333.3219,25.8594 Q333.4781,25.7813 333.6813,25.7813 Q334.0094,25.7813 334.2594,26.0469 Q334.525,26.2969 334.525,26.6406 Q334.525,26.9844 334.1813,27.3906 Q333.6813,27.9688 332.8844,28.2969 Q331.8063,28.75 330.5094,28.75 Q328.9938,28.75 327.7906,28.125 Q326.8063,27.625 326.1188,26.5625 Q325.4313,25.4844 325.4313,24.2031 L325.4313,23.0469 Q325.4313,21.7188 326.0406,20.5781 Q326.6656,19.4219 327.7594,18.8125 Q328.8531,18.1875 330.0875,18.1875 Q330.8219,18.1875 331.4625,18.3594 Q332.1188,18.5156 332.6656,18.875 Z " fill="#000000"/><text fill="#000000" font-family="sans-serif" font-size="14" lengthAdjust="spacing" textLength="140" x="346.1" y="28.7969">RegisterSkillController</text><line style="stroke:#181818;stroke-width:0.5;" x1="306" x2="498" y1="39" y2="39"/><text fill="#000000" font-family="sans-serif" font-size="14" lengthAdjust="spacing" textLength="121" x="311" y="58.1074">+getSkillRepository</text><line style="stroke:#181818;stroke-width:0.5;" x1="306" x2="498" y1="65.6211" y2="65.6211"/><text fill="#000000" font-family="sans-serif" font-size="14" lengthAdjust="spacing" textLength="182" x="311" y="84.7285">+registerSkill(skillRepository)</text><text fill="#000000" font-family="sans-serif" font-size="14" lengthAdjust="spacing" textLength="91" x="311" y="103.3496">+getJSkillList()</text></g><g id="elem_GMN9"><path d="M534,36.5 L534,55 L499.25,59 L534,63 L534,81.082 A0,0 0 0 0 534,81.082 L734,81.082 A0,0 0 0 0 734,81.082 L734,46.5 L724,36.5 L534,36.5 A0,0 0 0 0 534,36.5 " fill="#FEFFDD" style="stroke:#181818;stroke-width:0.5;"/><path d="M724,36.5 L724,46.5 L734,46.5 L724,36.5 " fill="#FEFFDD" style="stroke:#181818;stroke-width:0.5;"/><text fill="#000000" font-family="sans-serif" font-size="13" lengthAdjust="spacing" textLength="65" x="540" y="55.5283">- skillName</text><text fill="#000000" font-family="sans-serif" font-size="13" lengthAdjust="spacing" textLength="179" x="540" y="72.8193">is achieved with skill repository</text></g><g id="elem_GMN12"><path d="M14.5,459 L14.5,503.582 A0,0 0 0 0 14.5,503.582 L151.5,503.582 A0,0 0 0 0 151.5,503.582 L151.5,469 L141.5,459 L103.34,459 L173.58,360.22 L95.34,459 L14.5,459 A0,0 0 0 0 14.5,459 " fill="#FEFFDD" style="stroke:#181818;stroke-width:0.5;"/><path d="M141.5,459 L141.5,469 L151.5,469 L141.5,459 " fill="#FEFFDD" style="stroke:#181818;stroke-width:0.5;"/><text fill="#000000" font-family="sans-serif" font-size="13" lengthAdjust="spacing" textLength="116" x="20.5" y="478.0283">- used for displaying</text><text fill="#000000" font-family="sans-serif" font-size="13" lengthAdjust="spacing" textLength="66" x="20.5" y="495.3193">the skill list</text></g><!--class RegisterSkillUI--><g id="elem_RegisterSkillUI"><rect codeLine="58" fill="#F1F1F1" height="48" id="RegisterSkillUI" rx="2.5" ry="2.5" style="stroke:#181818;stroke-width:0.5;" width="122" x="148" y="35"/><ellipse cx="163" cy="51" fill="#ADD1B2" rx="11" ry="11" style="stroke:#181818;stroke-width:1.0;"/><path d="M165.7656,46.875 Q165.9219,46.6563 166.1094,46.5469 Q166.2969,46.4375 166.5156,46.4375 Q166.8906,46.4375 167.125,46.7031 Q167.3594,46.9531 167.3594,47.5625 L167.3594,49.0156 Q167.3594,49.625 167.125,49.8906 Q166.8906,50.1563 166.5156,50.1563 Q166.1719,50.1563 165.9688,49.9531 Q165.7656,49.7656 165.6563,49.25 Q165.6094,48.8906 165.4219,48.7031 Q165.0938,48.3281 164.4844,48.1094 Q163.875,47.8906 163.25,47.8906 Q162.4844,47.8906 161.8438,48.2188 Q161.2188,48.5469 160.7188,49.2969 Q160.2344,50.0469 160.2344,51.0781 L160.2344,52.1719 Q160.2344,53.4063 161.125,54.2344 Q162.0156,55.0469 163.6094,55.0469 Q164.5469,55.0469 165.2031,54.7969 Q165.5938,54.6406 166.0156,54.2031 Q166.2813,53.9375 166.4219,53.8594 Q166.5781,53.7813 166.7813,53.7813 Q167.1094,53.7813 167.3594,54.0469 Q167.625,54.2969 167.625,54.6406 Q167.625,54.9844 167.2813,55.3906 Q166.7813,55.9688 165.9844,56.2969 Q164.9063,56.75 163.6094,56.75 Q162.0938,56.75 160.8906,56.125 Q159.9063,55.625 159.2188,54.5625 Q158.5313,53.4844 158.5313,52.2031 L158.5313,51.0469 Q158.5313,49.7188 159.1406,48.5781 Q159.7656,47.4219 160.8594,46.8125 Q161.9531,46.1875 163.1875,46.1875 Q163.9219,46.1875 164.5625,46.3594 Q165.2188,46.5156 165.7656,46.875 Z " fill="#000000"/><text fill="#000000" font-family="sans-serif" font-size="14" lengthAdjust="spacing" textLength="90" x="177" y="56.7969">RegisterSkillUI</text><line style="stroke:#181818;stroke-width:0.5;" x1="149" x2="269" y1="67" y2="67"/><line style="stroke:#181818;stroke-width:0.5;" x1="149" x2="269" y1="75" y2="75"/></g><!--class HRM--><g id="elem_HRM"><rect fill="#F1F1F1" height="48" id="HRM" rx="2.5" ry="2.5" style="stroke:#181818;stroke-width:0.5;" width="62" x="187" y="457.5"/><ellipse cx="202" cy="473.5" fill="#ADD1B2" rx="11" ry="11" style="stroke:#181818;stroke-width:1.0;"/><path d="M204.7656,469.375 Q204.9219,469.1563 205.1094,469.0469 Q205.2969,468.9375 205.5156,468.9375 Q205.8906,468.9375 206.125,469.2031 Q206.3594,469.4531 206.3594,470.0625 L206.3594,471.5156 Q206.3594,472.125 206.125,472.3906 Q205.8906,472.6563 205.5156,472.6563 Q205.1719,472.6563 204.9688,472.4531 Q204.7656,472.2656 204.6563,471.75 Q204.6094,471.3906 204.4219,471.2031 Q204.0938,470.8281 203.4844,470.6094 Q202.875,470.3906 202.25,470.3906 Q201.4844,470.3906 200.8438,470.7188 Q200.2188,471.0469 199.7188,471.7969 Q199.2344,472.5469 199.2344,473.5781 L199.2344,474.6719 Q199.2344,475.9063 200.125,476.7344 Q201.0156,477.5469 202.6094,477.5469 Q203.5469,477.5469 204.2031,477.2969 Q204.5938,477.1406 205.0156,476.7031 Q205.2813,476.4375 205.4219,476.3594 Q205.5781,476.2813 205.7813,476.2813 Q206.1094,476.2813 206.3594,476.5469 Q206.625,476.7969 206.625,477.1406 Q206.625,477.4844 206.2813,477.8906 Q205.7813,478.4688 204.9844,478.7969 Q203.9063,479.25 202.6094,479.25 Q201.0938,479.25 199.8906,478.625 Q198.9063,478.125 198.2188,477.0625 Q197.5313,475.9844 197.5313,474.7031 L197.5313,473.5469 Q197.5313,472.2188 198.1406,471.0781 Q198.7656,469.9219 199.8594,469.3125 Q200.9531,468.6875 202.1875,468.6875 Q202.9219,468.6875 203.5625,468.8594 Q204.2188,469.0156 204.7656,469.375 Z " fill="#000000"/><text fill="#000000" font-family="sans-serif" font-size="14" lengthAdjust="spacing" textLength="30" x="216" y="479.2969">HRM</text><line style="stroke:#181818;stroke-width:0.5;" x1="188" x2="248" y1="489.5" y2="489.5"/><line style="stroke:#181818;stroke-width:0.5;" x1="188" x2="248" y1="497.5" y2="497.5"/></g><!--link Repositories to Repositories--><g id="link_Repositories_Repositories"><path codeLine="61" d="M299.58,170.47 C319.84,172.71 334.5,180.22 334.5,193 C334.5,205.78 325.8037,212.6306 305.5437,214.8706 " fill="none" id="Repositories-to-Repositories" style="stroke:#181818;stroke-width:1.0;"/><polygon fill="#181818" points="299.58,215.53,308.9651,218.5167,304.5497,214.9805,308.0859,210.5652,299.58,215.53" style="stroke:#181818;stroke-width:1.0;"/><text fill="#000000" font-family="sans-serif" font-size="13" lengthAdjust="spacing" textLength="49" x="340.5" y="198.5283">instance</text></g><!--link ApplicationSession to ApplicationSession--><g id="link_ApplicationSession_ApplicationSession"><path codeLine="62" d="M606.66,302.27 C626.5,303.17 641.5,308.25 641.5,317.5 C641.5,326.75 632.4938,331.5581 612.6538,332.4581 " fill="none" id="ApplicationSession-to-ApplicationSession" style="stroke:#181818;stroke-width:1.0;"/><polygon fill="#181818" points="606.66,332.73,615.832,336.318,611.6549,332.5034,615.4695,328.3263,606.66,332.73" style="stroke:#181818;stroke-width:1.0;"/><text fill="#000000" font-family="sans-serif" font-size="13" lengthAdjust="spacing" textLength="49" x="647.5" y="323.0283">instance</text></g><!--link RegisterSkillUI to RegisterSkillController--><g id="link_RegisterSkillUI_RegisterSkillController"><path codeLine="64" d="M270.23,59 C272.2,59 273.33,59 273.33,59 C273.33,59 282.92,59 298.75,59 " fill="none" id="RegisterSkillUI-to-RegisterSkillController" style="stroke:#181818;stroke-width:1.0;stroke-dasharray:7.0,7.0;"/><polygon fill="#181818" points="304.75,59,295.75,55,299.75,59,295.75,63,304.75,59" style="stroke:#181818;stroke-width:1.0;"/></g><!--link RegisterSkillController to Repositories--><g id="link_RegisterSkillController_Repositories"><path codeLine="66" d="M325.83,111.03 C311.22,120.83 300.8955,127.7516 286.2755,137.5416 " fill="none" id="RegisterSkillController-to-Repositories" style="stroke:#181818;stroke-width:1.0;stroke-dasharray:7.0,7.0;"/><polygon fill="#181818" points="281.29,140.88,290.9938,139.196,285.4446,138.098,286.5426,132.5487,281.29,140.88" style="stroke:#181818;stroke-width:1.0;"/><text fill="#000000" font-family="sans-serif" font-size="13" lengthAdjust="spacing" textLength="67" x="235.56" y="121.9883">repositories</text></g><!--link Repositories to skillRepository--><g id="link_Repositories_skillRepository"><path codeLine="68" d="M205,245.24 C205,255.08 205,259.26 205,268.75 " fill="none" id="Repositories-to-skillRepository" style="stroke:#181818;stroke-width:1.0;"/><polygon fill="#181818" points="205,274.75,209,265.75,205,269.75,201,265.75,205,274.75" style="stroke:#181818;stroke-width:1.0;"/><text fill="#000000" font-family="sans-serif" font-size="13" lengthAdjust="spacing" textLength="7" x="197.233" y="266.9813">1</text></g><!--link RegisterSkillController to Skill--><g id="link_RegisterSkillController_Skill"><path codeLine="69" d="M397.86,111.14 C391.06,195.3 378.1131,355.3795 371.8531,432.8695 " fill="none" id="RegisterSkillController-to-Skill" style="stroke:#181818;stroke-width:1.0;stroke-dasharray:7.0,7.0;"/><polygon fill="#181818" points="371.37,438.85,376.0817,430.2013,371.7726,433.8662,368.1077,429.5571,371.37,438.85" style="stroke:#181818;stroke-width:1.0;"/></g><!--link RegisterSkillController to skillRepository--><g id="link_RegisterSkillController_skillRepository"><path codeLine="70" d="M304.97,103.03 C294.19,107.81 287,111 287,111 C287,111 6,141 6,141 C6,141 6,245 6,245 C6,245 79.3034,271.3413 137.7534,292.3413 " fill="none" id="RegisterSkillController-to-skillRepository" style="stroke:#181818;stroke-width:1.0;stroke-dasharray:7.0,7.0;"/><polygon fill="#181818" points="143.4,294.37,136.2826,287.5625,138.6945,292.6794,133.5776,295.0913,143.4,294.37" style="stroke:#181818;stroke-width:1.0;"/><text fill="#000000" font-family="sans-serif" font-size="13" lengthAdjust="spacing" textLength="85" x="7" y="198.5283">skillRepository</text></g><!--link ApplicationSession to UserSession--><g id="link_ApplicationSession_UserSession"><path codeLine="73" d="M564.99,360.22 C590.2,391.16 619.8402,427.5284 640.4202,452.7884 " fill="none" id="ApplicationSession-to-UserSession" style="stroke:#181818;stroke-width:1.0;"/><polygon fill="#181818" points="644.21,457.44,641.6264,447.9361,641.0518,453.5637,635.4242,452.9891,644.21,457.44" style="stroke:#181818;stroke-width:1.0;"/><text fill="#000000" font-family="sans-serif" font-size="13" lengthAdjust="spacing" textLength="72" x="602" y="405.0283">userSession</text><text fill="#000000" font-family="sans-serif" font-size="13" lengthAdjust="spacing" textLength="7" x="631.4982" y="446.1621">1</text></g><!--link RegisterSkillController to ApplicationSession--><g id="link_RegisterSkillController_ApplicationSession"><path codeLine="75" d="M427.8,111.29 C451.91,159.24 484.7838,224.6099 507.2438,269.2599 " fill="none" id="RegisterSkillController-to-ApplicationSession" style="stroke:#181818;stroke-width:1.0;stroke-dasharray:7.0,7.0;"/><polygon fill="#181818" points="509.94,274.62,509.469,264.7824,507.6931,270.1533,502.3223,268.3774,509.94,274.62" style="stroke:#181818;stroke-width:1.0;"/></g><!--link RegisterSkillController to UserSession--><g id="link_RegisterSkillController_UserSession"><path codeLine="76" d="M473.71,111.22 C562.74,174.82 703,275 703,275 C703,275 703,360 703,360 C703,360 684.231,416.5558 672.601,451.5758 " fill="none" id="RegisterSkillController-to-UserSession" style="stroke:#181818;stroke-width:1.0;stroke-dasharray:7.0,7.0;"/><polygon fill="#181818" points="670.71,457.27,677.3427,449.9894,672.2859,452.5248,669.7504,447.468,670.71,457.27" style="stroke:#181818;stroke-width:1.0;"/></g><!--link skillRepository to Skill--><g id="link_skillRepository_Skill"><path codeLine="78" d="M246.98,360.22 C271.31,384.41 297.5934,410.5314 321.9134,434.6914 " fill="none" id="skillRepository-to-Skill" style="stroke:#181818;stroke-width:1.0;"/><polygon fill="#181818" points="326.17,438.92,322.6041,429.7393,322.6228,435.3962,316.966,435.4148,326.17,438.92" style="stroke:#181818;stroke-width:1.0;"/><text fill="#000000" font-family="sans-serif" font-size="13" lengthAdjust="spacing" textLength="32" x="293" y="405.0283">Skills</text><text fill="#000000" font-family="sans-serif" font-size="13" lengthAdjust="spacing" textLength="7" x="246.1127" y="382.4154">1</text><text fill="#000000" font-family="sans-serif" font-size="13" lengthAdjust="spacing" textLength="5" x="314.1049" y="427.8113">*</text></g><!--link skillRepository to HRM--><g id="link_skillRepository_HRM"><path codeLine="80" d="M208.35,360.22 C210.83,391.16 213.6394,426.1993 215.6694,451.4593 " fill="none" id="skillRepository-to-HRM" style="stroke:#181818;stroke-width:1.0;"/><polygon fill="#181818" points="216.15,457.44,219.4162,448.1485,215.7495,452.4561,211.4419,448.7893,216.15,457.44" style="stroke:#181818;stroke-width:1.0;"/><text fill="#000000" font-family="sans-serif" font-size="13" lengthAdjust="spacing" textLength="49" x="213" y="405.0283">employs</text><text fill="#000000" font-family="sans-serif" font-size="13" lengthAdjust="spacing" textLength="5" x="210.0353" y="446.1621">*</text></g><!--SRC=[VLJ1Rjim3BthAuXSagreiLs38K3HmvPYtI56Fa1r65k8B1eIiy8Rzk-JRDbMx2IvEE8ZttiaPI_TIPbQMbb1HORoqbA5mFQCOaHgcPzaWHat6i5Ypj8KEarmfJpGXp857ALsAQALGMvgX9fq4mvYUGKaooIIgbnBvvwPhNe_CsvpCfdwW_15YAN68mCJM5MK30SLx2WoGhGry5pNMkKoX39qpZ_-2l2_1t3iepaKo5lZ_viSLvyYv6ClPslHSApnoB-USU_G3bH3z7ls1ianEocjePDwXCmRzxCmiiAeqEAh46YP-p8NmZkioIacsmm4FvLZ-DOMRKQFxJb0dRt8CPGhT0D16apR75k7jT_ac3HH6Jtvwh7D7HPUtiyZvBoGOKjQe-r7R5DuDMakSV6QTd9BEAWQOeoRfkCjzTXoA_Uh7xbo8FDIuMyym8VYieF7bXk1vW21Fwgy4pDLGMRYEzAVdMSwalLNpjLQDdx1BS8bHcxjpIMiLoQsttPtvc9bZvlB5Qv1nIM9-MKEsLUYIOsOAZvjRWvEt02wcWjF5tTbri3Yws8sjflSdhoDtSsOlXdh6R-uEfve9dbfVUbvF8cxgdF6k-dxb7VgEDXexNnUnC_3kdkwUMwVzsFtvhEmgZKrJlm7]--></g></svg>