<?xml version="1.0" encoding="us-ascii" standalone="no"?><svg xmlns="http://www.w3.org/2000/svg" xmlns:xlink="http://www.w3.org/1999/xlink" contentStyleType="text/css" height="278px" preserveAspectRatio="none" style="width:391px;height:278px;background:#FFFFFF;" version="1.1" viewBox="0 0 391 278" width="391px" zoomAndPan="magnify"><defs/><g><text fill="#000000" font-family="sans-serif" font-size="14" font-weight="bold" lengthAdjust="spacing" textLength="363" x="10" y="28.5352">System Sequence Diagram (SSD) - Alternative One</text><rect fill="#FFFFFF" height="59.6211" style="stroke:#181818;stroke-width:1.0;" width="10" x="50.5" y="128.9766"/><rect fill="#FFFFFF" height="29.3105" style="stroke:#181818;stroke-width:1.0;" width="10" x="308.5" y="150.2871"/><line style="stroke:#181818;stroke-width:0.5;stroke-dasharray:5.0,5.0;" x1="55.5" x2="55.5" y1="118.9766" y2="197.5977"/><line style="stroke:#181818;stroke-width:0.5;stroke-dasharray:5.0,5.0;" x1="313.5" x2="313.5" y1="118.9766" y2="197.5977"/><text fill="#000000" font-family="sans-serif" font-size="14" lengthAdjust="spacing" textLength="30" x="37.5" y="116.0234">GSM</text><ellipse cx="55.5" cy="50.9883" fill="#E3E3E3" rx="8" ry="8" style="stroke:#181818;stroke-width:0.5;"/><path d="M55.5,58.9883 L55.5,85.9883 M42.5,66.9883 L68.5,66.9883 M55.5,85.9883 L42.5,100.9883 M55.5,85.9883 L68.5,100.9883 " fill="none" style="stroke:#181818;stroke-width:0.5;"/><text fill="#000000" font-family="sans-serif" font-size="14" lengthAdjust="spacing" textLength="30" x="37.5" y="210.1328">GSM</text><ellipse cx="55.5" cy="221.5859" fill="#E3E3E3" rx="8" ry="8" style="stroke:#181818;stroke-width:0.5;"/><path d="M55.5,229.5859 L55.5,256.5859 M42.5,237.5859 L68.5,237.5859 M55.5,256.5859 L42.5,271.5859 M55.5,256.5859 L68.5,271.5859 " fill="none" style="stroke:#181818;stroke-width:0.5;"/><rect fill="#E3E3E3" height="30.4883" rx="2.5" ry="2.5" style="stroke:#181818;stroke-width:0.5;" width="66" x="280.5" y="87.4883"/><text fill="#000000" font-family="sans-serif" font-size="14" lengthAdjust="spacing" textLength="52" x="287.5" y="108.0234">:System</text><rect fill="#E3E3E3" height="30.4883" rx="2.5" ry="2.5" style="stroke:#181818;stroke-width:0.5;" width="66" x="280.5" y="196.5977"/><text fill="#000000" font-family="sans-serif" font-size="14" lengthAdjust="spacing" textLength="52" x="287.5" y="217.1328">:System</text><rect fill="#FFFFFF" height="59.6211" style="stroke:#181818;stroke-width:1.0;" width="10" x="50.5" y="128.9766"/><rect fill="#FFFFFF" height="29.3105" style="stroke:#181818;stroke-width:1.0;" width="10" x="308.5" y="150.2871"/><polygon fill="#181818" points="296.5,146.2871,306.5,150.2871,296.5,154.2871,300.5,150.2871" style="stroke:#181818;stroke-width:1.0;"/><line style="stroke:#181818;stroke-width:1.0;" x1="60.5" x2="302.5" y1="150.2871" y2="150.2871"/><text fill="#000000" font-family="sans-serif" font-size="13" font-weight="bold" lengthAdjust="spacing" textLength="9" x="67.5" y="145.5449">1</text><text fill="#000000" font-family="sans-serif" font-size="13" lengthAdjust="spacing" textLength="216" x="80.5" y="145.5449">asks to view tasks assigned to me</text><polygon fill="#181818" points="71.5,175.5977,61.5,179.5977,71.5,183.5977,67.5,179.5977" style="stroke:#181818;stroke-width:1.0;"/><line style="stroke:#181818;stroke-width:1.0;stroke-dasharray:2.0,2.0;" x1="65.5" x2="312.5" y1="179.5977" y2="179.5977"/><text fill="#000000" font-family="sans-serif" font-size="13" font-weight="bold" lengthAdjust="spacing" textLength="9" x="77.5" y="174.8555">2</text><text fill="#000000" font-family="sans-serif" font-size="13" lengthAdjust="spacing" textLength="139" x="90.5" y="174.8555">show entry's assigned</text><!--SRC=[PP11ReGm34NtdC9YqtR11LXKgZHILwCkSW8tk1aBuj34WBXzFGpGIlqh9_d_-IkbPnanOuIO9FbRJf50yqHLELz6z3q6SheE19cyeeJXhw7Si4iBIu0l70fLbRAQrQr5AOAZxud44rmOmzt-xDpb1Hfu6vIoeF9Cy24MmqcJJF6JiirUKuRwtLrhm09N5AkGArkex7b4KQZRnuRDy1Yt7C-eT2PC-mZDwz6fjKXVG1FCJ0leTi9IE0Xrz-jeTS1quWu-xDf1ZJ4FV6iVaHOWqRm-_UAsI4V_IAOV]--></g></svg>