<?xml version="1.0" encoding="us-ascii" standalone="no"?><svg xmlns="http://www.w3.org/2000/svg" xmlns:xlink="http://www.w3.org/1999/xlink" contentStyleType="text/css" height="425px" preserveAspectRatio="none" style="width:550px;height:425px;background:#FFFFFF;" version="1.1" viewBox="0 0 550 425" width="550px" zoomAndPan="magnify"><defs/><g><text fill="#000000" font-family="sans-serif" font-size="14" font-weight="bold" lengthAdjust="spacing" textLength="363" x="92.5" y="28.5352">System Sequence Diagram (SSD) - Alternative One</text><rect fill="#FFFFFF" height="206.1738" style="stroke:#181818;stroke-width:1.0;" width="10" x="18" y="128.9766"/><rect fill="#FFFFFF" height="29.3105" style="stroke:#181818;stroke-width:1.0;" width="10" x="506" y="150.2871"/><rect fill="#FFFFFF" height="29.3105" style="stroke:#181818;stroke-width:1.0;" width="10" x="506" y="208.9082"/><rect fill="#FFFFFF" height="67.6211" style="stroke:#181818;stroke-width:1.0;" width="10" x="506" y="267.5293"/><line style="stroke:#181818;stroke-width:0.5;stroke-dasharray:5.0,5.0;" x1="23" x2="23" y1="118.9766" y2="344.1504"/><line style="stroke:#181818;stroke-width:0.5;stroke-dasharray:5.0,5.0;" x1="511" x2="511" y1="118.9766" y2="344.1504"/><text fill="#000000" font-family="sans-serif" font-size="14" lengthAdjust="spacing" textLength="30" x="5" y="116.0234">GSM</text><ellipse cx="23" cy="50.9883" fill="#E3E3E3" rx="8" ry="8" style="stroke:#181818;stroke-width:0.5;"/><path d="M23,58.9883 L23,85.9883 M10,66.9883 L36,66.9883 M23,85.9883 L10,100.9883 M23,85.9883 L36,100.9883 " fill="none" style="stroke:#181818;stroke-width:0.5;"/><text fill="#000000" font-family="sans-serif" font-size="14" lengthAdjust="spacing" textLength="30" x="5" y="356.6855">GSM</text><ellipse cx="23" cy="368.1387" fill="#E3E3E3" rx="8" ry="8" style="stroke:#181818;stroke-width:0.5;"/><path d="M23,376.1387 L23,403.1387 M10,384.1387 L36,384.1387 M23,403.1387 L10,418.1387 M23,403.1387 L36,418.1387 " fill="none" style="stroke:#181818;stroke-width:0.5;"/><rect fill="#E3E3E3" height="30.4883" rx="2.5" ry="2.5" style="stroke:#181818;stroke-width:0.5;" width="66" x="478" y="87.4883"/><text fill="#000000" font-family="sans-serif" font-size="14" lengthAdjust="spacing" textLength="52" x="485" y="108.0234">:System</text><rect fill="#E3E3E3" height="30.4883" rx="2.5" ry="2.5" style="stroke:#181818;stroke-width:0.5;" width="66" x="478" y="343.1504"/><text fill="#000000" font-family="sans-serif" font-size="14" lengthAdjust="spacing" textLength="52" x="485" y="363.6855">:System</text><rect fill="#FFFFFF" height="206.1738" style="stroke:#181818;stroke-width:1.0;" width="10" x="18" y="128.9766"/><rect fill="#FFFFFF" height="29.3105" style="stroke:#181818;stroke-width:1.0;" width="10" x="506" y="150.2871"/><rect fill="#FFFFFF" height="29.3105" style="stroke:#181818;stroke-width:1.0;" width="10" x="506" y="208.9082"/><rect fill="#FFFFFF" height="67.6211" style="stroke:#181818;stroke-width:1.0;" width="10" x="506" y="267.5293"/><polygon fill="#181818" points="494,146.2871,504,150.2871,494,154.2871,498,150.2871" style="stroke:#181818;stroke-width:1.0;"/><line style="stroke:#181818;stroke-width:1.0;" x1="28" x2="500" y1="150.2871" y2="150.2871"/><text fill="#000000" font-family="sans-serif" font-size="13" font-weight="bold" lengthAdjust="spacing" textLength="9" x="35" y="145.5449">1</text><text fill="#000000" font-family="sans-serif" font-size="13" lengthAdjust="spacing" textLength="188" x="48" y="145.5449">asks to register a green space</text><polygon fill="#181818" points="39,175.5977,29,179.5977,39,183.5977,35,179.5977" style="stroke:#181818;stroke-width:1.0;"/><line style="stroke:#181818;stroke-width:1.0;stroke-dasharray:2.0,2.0;" x1="33" x2="510" y1="179.5977" y2="179.5977"/><text fill="#000000" font-family="sans-serif" font-size="13" font-weight="bold" lengthAdjust="spacing" textLength="9" x="45" y="174.8555">2</text><text fill="#000000" font-family="sans-serif" font-size="13" lengthAdjust="spacing" textLength="198" x="58" y="174.8555">requests data (greenSpaceType)</text><polygon fill="#181818" points="494,204.9082,504,208.9082,494,212.9082,498,208.9082" style="stroke:#181818;stroke-width:1.0;"/><line style="stroke:#181818;stroke-width:1.0;" x1="28" x2="500" y1="208.9082" y2="208.9082"/><text fill="#000000" font-family="sans-serif" font-size="13" font-weight="bold" lengthAdjust="spacing" textLength="9" x="35" y="204.166">3</text><text fill="#000000" font-family="sans-serif" font-size="13" lengthAdjust="spacing" textLength="75" x="48" y="204.166">selects data</text><polygon fill="#181818" points="39,234.2188,29,238.2188,39,242.2188,35,238.2188" style="stroke:#181818;stroke-width:1.0;"/><line style="stroke:#181818;stroke-width:1.0;stroke-dasharray:2.0,2.0;" x1="33" x2="510" y1="238.2188" y2="238.2188"/><text fill="#000000" font-family="sans-serif" font-size="13" font-weight="bold" lengthAdjust="spacing" textLength="9" x="45" y="233.4766">4</text><text fill="#000000" font-family="sans-serif" font-size="13" lengthAdjust="spacing" textLength="441" x="58" y="233.4766">requests data (greenSpaceArea, greenSpaceAddress, greenSpaceName)</text><polygon fill="#181818" points="494,263.5293,504,267.5293,494,271.5293,498,267.5293" style="stroke:#181818;stroke-width:1.0;"/><line style="stroke:#181818;stroke-width:1.0;" x1="28" x2="500" y1="267.5293" y2="267.5293"/><text fill="#000000" font-family="sans-serif" font-size="13" font-weight="bold" lengthAdjust="spacing" textLength="9" x="35" y="262.7871">5</text><text fill="#000000" font-family="sans-serif" font-size="13" lengthAdjust="spacing" textLength="132" x="48" y="262.7871">typed requested data</text><polygon fill="#181818" points="39,292.8398,29,296.8398,39,300.8398,35,296.8398" style="stroke:#181818;stroke-width:1.0;"/><line style="stroke:#181818;stroke-width:1.0;stroke-dasharray:2.0,2.0;" x1="33" x2="505" y1="296.8398" y2="296.8398"/><text fill="#000000" font-family="sans-serif" font-size="13" font-weight="bold" lengthAdjust="spacing" textLength="9" x="45" y="292.0977">6</text><text fill="#000000" font-family="sans-serif" font-size="13" lengthAdjust="spacing" textLength="87" x="58" y="292.0977">confirms data</text><polygon fill="#181818" points="494,322.1504,504,326.1504,494,330.1504,498,326.1504" style="stroke:#181818;stroke-width:1.0;"/><line style="stroke:#181818;stroke-width:1.0;" x1="28" x2="500" y1="326.1504" y2="326.1504"/><text fill="#000000" font-family="sans-serif" font-size="13" font-weight="bold" lengthAdjust="spacing" textLength="9" x="35" y="321.4082">7</text><text fill="#000000" font-family="sans-serif" font-size="13" lengthAdjust="spacing" textLength="170" x="48" y="321.4082">displays operation success</text><!--SRC=[VPB1Ri8m38RlUGgB4qZZ1JXCGaBQQTkXUm4lCIMYIJhRPUhRpvIsOX8b9oVn__d_qyevvXOP4wIIYpznIGJA7JcPRrhqPwofqhuXOFAAkMxk6-I4eVp6NCCH6o7dDAgrLhqe9QZefwFi2GuHwslxkgeE6zZ2lb7YZ1el19_PPDXfoLtw9hRQQs5OlLNlAq21TyncWPqDrEXZYrbXjRjD61fkvQ2B5rIQ5GviZHlOlawkTYOw2sYnH7Mq8mQ4ceaoY0McGJR39ZgCQuHiZJUXTmQoeA820HLXFS2gA-khRsapQ0CzGaw8V_Q46dlg6-on6RVWv9cLFHE-mDq-12QH-wCFJAFRPSS0IxRLiePflbMp_UNtVFYOlkHZv3JcTyz6XYXjWxr0QOdjTohs2JllBPPpVm00]--></g></svg>