<?xml version="1.0" encoding="us-ascii" standalone="no"?><svg xmlns="http://www.w3.org/2000/svg" xmlns:xlink="http://www.w3.org/1999/xlink" contentStyleType="text/css" height="425px" preserveAspectRatio="none" style="width:391px;height:425px;background:#FFFFFF;" version="1.1" viewBox="0 0 391 425" width="391px" zoomAndPan="magnify"><defs/><g><text fill="#000000" font-family="sans-serif" font-size="14" font-weight="bold" lengthAdjust="spacing" textLength="363" x="10" y="28.5352">System Sequence Diagram (SSD) - Alternative One</text><rect fill="#FFFFFF" height="206.1738" style="stroke:#181818;stroke-width:1.0;" width="10" x="57" y="128.9766"/><rect fill="#FFFFFF" height="29.3105" style="stroke:#181818;stroke-width:1.0;" width="10" x="302" y="150.2871"/><rect fill="#FFFFFF" height="29.3105" style="stroke:#181818;stroke-width:1.0;" width="10" x="302" y="208.9082"/><rect fill="#FFFFFF" height="67.6211" style="stroke:#181818;stroke-width:1.0;" width="10" x="302" y="267.5293"/><line style="stroke:#181818;stroke-width:0.5;stroke-dasharray:5.0,5.0;" x1="62" x2="62" y1="118.9766" y2="344.1504"/><line style="stroke:#181818;stroke-width:0.5;stroke-dasharray:5.0,5.0;" x1="307" x2="307" y1="118.9766" y2="344.1504"/><text fill="#000000" font-family="sans-serif" font-size="14" lengthAdjust="spacing" textLength="30" x="44" y="116.0234">GSM</text><ellipse cx="62" cy="50.9883" fill="#E3E3E3" rx="8" ry="8" style="stroke:#181818;stroke-width:0.5;"/><path d="M62,58.9883 L62,85.9883 M49,66.9883 L75,66.9883 M62,85.9883 L49,100.9883 M62,85.9883 L75,100.9883 " fill="none" style="stroke:#181818;stroke-width:0.5;"/><text fill="#000000" font-family="sans-serif" font-size="14" lengthAdjust="spacing" textLength="30" x="44" y="356.6855">GSM</text><ellipse cx="62" cy="368.1387" fill="#E3E3E3" rx="8" ry="8" style="stroke:#181818;stroke-width:0.5;"/><path d="M62,376.1387 L62,403.1387 M49,384.1387 L75,384.1387 M62,403.1387 L49,418.1387 M62,403.1387 L75,418.1387 " fill="none" style="stroke:#181818;stroke-width:0.5;"/><rect fill="#E3E3E3" height="30.4883" rx="2.5" ry="2.5" style="stroke:#181818;stroke-width:0.5;" width="66" x="274" y="87.4883"/><text fill="#000000" font-family="sans-serif" font-size="14" lengthAdjust="spacing" textLength="52" x="281" y="108.0234">:System</text><rect fill="#E3E3E3" height="30.4883" rx="2.5" ry="2.5" style="stroke:#181818;stroke-width:0.5;" width="66" x="274" y="343.1504"/><text fill="#000000" font-family="sans-serif" font-size="14" lengthAdjust="spacing" textLength="52" x="281" y="363.6855">:System</text><rect fill="#FFFFFF" height="206.1738" style="stroke:#181818;stroke-width:1.0;" width="10" x="57" y="128.9766"/><rect fill="#FFFFFF" height="29.3105" style="stroke:#181818;stroke-width:1.0;" width="10" x="302" y="150.2871"/><rect fill="#FFFFFF" height="29.3105" style="stroke:#181818;stroke-width:1.0;" width="10" x="302" y="208.9082"/><rect fill="#FFFFFF" height="67.6211" style="stroke:#181818;stroke-width:1.0;" width="10" x="302" y="267.5293"/><polygon fill="#181818" points="290,146.2871,300,150.2871,290,154.2871,294,150.2871" style="stroke:#181818;stroke-width:1.0;"/><line style="stroke:#181818;stroke-width:1.0;" x1="67" x2="296" y1="150.2871" y2="150.2871"/><text fill="#000000" font-family="sans-serif" font-size="13" font-weight="bold" lengthAdjust="spacing" textLength="9" x="74" y="145.5449">1</text><text fill="#000000" font-family="sans-serif" font-size="13" lengthAdjust="spacing" textLength="188" x="87" y="145.5449">asks to register a green space</text><polygon fill="#181818" points="78,175.5977,68,179.5977,78,183.5977,74,179.5977" style="stroke:#181818;stroke-width:1.0;"/><line style="stroke:#181818;stroke-width:1.0;stroke-dasharray:2.0,2.0;" x1="72" x2="306" y1="179.5977" y2="179.5977"/><text fill="#000000" font-family="sans-serif" font-size="13" font-weight="bold" lengthAdjust="spacing" textLength="9" x="84" y="174.8555">2</text><text fill="#000000" font-family="sans-serif" font-size="13" lengthAdjust="spacing" textLength="198" x="97" y="174.8555">requests data (greenSpaceType)</text><polygon fill="#181818" points="290,204.9082,300,208.9082,290,212.9082,294,208.9082" style="stroke:#181818;stroke-width:1.0;"/><line style="stroke:#181818;stroke-width:1.0;" x1="67" x2="296" y1="208.9082" y2="208.9082"/><text fill="#000000" font-family="sans-serif" font-size="13" font-weight="bold" lengthAdjust="spacing" textLength="9" x="74" y="204.166">3</text><text fill="#000000" font-family="sans-serif" font-size="13" lengthAdjust="spacing" textLength="75" x="87" y="204.166">selects data</text><polygon fill="#181818" points="78,234.2188,68,238.2188,78,242.2188,74,238.2188" style="stroke:#181818;stroke-width:1.0;"/><line style="stroke:#181818;stroke-width:1.0;stroke-dasharray:2.0,2.0;" x1="72" x2="306" y1="238.2188" y2="238.2188"/><text fill="#000000" font-family="sans-serif" font-size="13" font-weight="bold" lengthAdjust="spacing" textLength="9" x="84" y="233.4766">4</text><text fill="#000000" font-family="sans-serif" font-size="13" lengthAdjust="spacing" textLength="196" x="97" y="233.4766">requests data (greenSpaceArea)</text><polygon fill="#181818" points="290,263.5293,300,267.5293,290,271.5293,294,267.5293" style="stroke:#181818;stroke-width:1.0;"/><line style="stroke:#181818;stroke-width:1.0;" x1="67" x2="296" y1="267.5293" y2="267.5293"/><text fill="#000000" font-family="sans-serif" font-size="13" font-weight="bold" lengthAdjust="spacing" textLength="9" x="74" y="262.7871">5</text><text fill="#000000" font-family="sans-serif" font-size="13" lengthAdjust="spacing" textLength="132" x="87" y="262.7871">typed requested data</text><polygon fill="#181818" points="78,292.8398,68,296.8398,78,300.8398,74,296.8398" style="stroke:#181818;stroke-width:1.0;"/><line style="stroke:#181818;stroke-width:1.0;stroke-dasharray:2.0,2.0;" x1="72" x2="301" y1="296.8398" y2="296.8398"/><text fill="#000000" font-family="sans-serif" font-size="13" font-weight="bold" lengthAdjust="spacing" textLength="9" x="84" y="292.0977">6</text><text fill="#000000" font-family="sans-serif" font-size="13" lengthAdjust="spacing" textLength="87" x="97" y="292.0977">confirms data</text><polygon fill="#181818" points="290,322.1504,300,326.1504,290,330.1504,294,326.1504" style="stroke:#181818;stroke-width:1.0;"/><line style="stroke:#181818;stroke-width:1.0;" x1="67" x2="296" y1="326.1504" y2="326.1504"/><text fill="#000000" font-family="sans-serif" font-size="13" font-weight="bold" lengthAdjust="spacing" textLength="9" x="74" y="321.4082">7</text><text fill="#000000" font-family="sans-serif" font-size="13" lengthAdjust="spacing" textLength="170" x="87" y="321.4082">displays operation success</text><!--SRC=[VPB1ReCm38RlUGghftBe2_GmgLAbdQeTiXVmWakZGi9iquctdqiRj4dGd4pm__d_3NADgKV63hgSShXmxWYK1t8ol-anNB4XhsDBm1GKKzF-RP0BrladfWREs0evfr6jrO-Yr86dxu5I83X6RExjM- -F5UpWq2fnGeqtWezaCXmqfw7x8hOwQ6ROlFlJ1b3WXCaiiBE16aFiCIbizey9KyEZd7JnXaf50Sw1dVAqUokszgQw2cYsI4sqAmQ4XeaIY2McIJRJ2XwUvmdP6Q-WzmQofA82DIh2TeBvE-jpxAcQj3Kj8GlYdpsXrdRzW2sRSIjENbavC64rnrYs0x3cIIr8NU1MpTxMbxMugP3JENBt3ETUZQoZz2sE0hadjfybs_SPGY0Hvtu1]--></g></svg>