<?xml version="1.0" encoding="us-ascii" standalone="no"?><svg xmlns="http://www.w3.org/2000/svg" xmlns:xlink="http://www.w3.org/1999/xlink" contentStyleType="text/css" height="539px" preserveAspectRatio="none" style="width:393px;height:539px;background:#FFFFFF;" version="1.1" viewBox="0 0 393 539" width="393px" zoomAndPan="magnify"><defs/><g><text fill="#000000" font-family="sans-serif" font-size="14" font-weight="bold" lengthAdjust="spacing" textLength="351" x="20.25" y="30.1074">System Sequence Diagram (SSD) - Alternative One</text><rect fill="#FFFFFF" height="313.9102" style="stroke:#181818;stroke-width:1.0;" width="10" x="18.5" y="133.2422"/><rect fill="#FFFFFF" height="31.291" style="stroke:#181818;stroke-width:1.0;" width="10" x="350.5" y="156.5332"/><rect fill="#FFFFFF" height="31.291" style="stroke:#181818;stroke-width:1.0;" width="10" x="350.5" y="219.1152"/><rect fill="#FFFFFF" height="31.291" style="stroke:#181818;stroke-width:1.0;" width="10" x="350.5" y="281.6973"/><rect fill="#FFFFFF" height="31.291" style="stroke:#181818;stroke-width:1.0;" width="10" x="350.5" y="344.2793"/><rect fill="#FFFFFF" height="31.291" style="stroke:#181818;stroke-width:1.0;" width="10" x="350.5" y="406.8613"/><line style="stroke:#181818;stroke-width:0.5;stroke-dasharray:5.0,5.0;" x1="23" x2="23" y1="123.2422" y2="456.1523"/><line style="stroke:#181818;stroke-width:0.5;stroke-dasharray:5.0,5.0;" x1="355.5" x2="355.5" y1="123.2422" y2="456.1523"/><text fill="#000000" font-family="sans-serif" font-size="14" lengthAdjust="spacing" textLength="31" x="5" y="119.7285">GSM</text><ellipse cx="23.5" cy="53.1211" fill="#E3E3E3" rx="8" ry="8" style="stroke:#181818;stroke-width:0.5;"/><path d="M23.5,61.1211 L23.5,88.1211 M10.5,69.1211 L36.5,69.1211 M23.5,88.1211 L10.5,103.1211 M23.5,88.1211 L36.5,103.1211 " fill="none" style="stroke:#181818;stroke-width:0.5;"/><text fill="#000000" font-family="sans-serif" font-size="14" lengthAdjust="spacing" textLength="31" x="5" y="470.2598">GSM</text><ellipse cx="23.5" cy="482.2734" fill="#E3E3E3" rx="8" ry="8" style="stroke:#181818;stroke-width:0.5;"/><path d="M23.5,490.2734 L23.5,517.2734 M10.5,498.2734 L36.5,498.2734 M23.5,517.2734 L10.5,532.2734 M23.5,517.2734 L36.5,532.2734 " fill="none" style="stroke:#181818;stroke-width:0.5;"/><rect fill="#E3E3E3" height="32.6211" rx="2.5" ry="2.5" style="stroke:#181818;stroke-width:0.5;" width="64" x="323.5" y="89.6211"/><text fill="#000000" font-family="sans-serif" font-size="14" lengthAdjust="spacing" textLength="50" x="330.5" y="111.7285">:System</text><rect fill="#E3E3E3" height="32.6211" rx="2.5" ry="2.5" style="stroke:#181818;stroke-width:0.5;" width="64" x="323.5" y="455.1523"/><text fill="#000000" font-family="sans-serif" font-size="14" lengthAdjust="spacing" textLength="50" x="330.5" y="477.2598">:System</text><rect fill="#FFFFFF" height="313.9102" style="stroke:#181818;stroke-width:1.0;" width="10" x="18.5" y="133.2422"/><rect fill="#FFFFFF" height="31.291" style="stroke:#181818;stroke-width:1.0;" width="10" x="350.5" y="156.5332"/><rect fill="#FFFFFF" height="31.291" style="stroke:#181818;stroke-width:1.0;" width="10" x="350.5" y="219.1152"/><rect fill="#FFFFFF" height="31.291" style="stroke:#181818;stroke-width:1.0;" width="10" x="350.5" y="281.6973"/><rect fill="#FFFFFF" height="31.291" style="stroke:#181818;stroke-width:1.0;" width="10" x="350.5" y="344.2793"/><rect fill="#FFFFFF" height="31.291" style="stroke:#181818;stroke-width:1.0;" width="10" x="350.5" y="406.8613"/><polygon fill="#181818" points="338.5,152.5332,348.5,156.5332,338.5,160.5332,342.5,156.5332" style="stroke:#181818;stroke-width:1.0;"/><line style="stroke:#181818;stroke-width:1.0;" x1="28.5" x2="344.5" y1="156.5332" y2="156.5332"/><text fill="#000000" font-family="sans-serif" font-size="13" font-weight="bold" lengthAdjust="spacing" textLength="7" x="35.5" y="151.2705">1</text><text fill="#000000" font-family="sans-serif" font-size="13" lengthAdjust="spacing" textLength="239" x="46.5" y="151.2705">asks to add a new entry to the To-Do List</text><polygon fill="#181818" points="39.5,183.8242,29.5,187.8242,39.5,191.8242,35.5,187.8242" style="stroke:#181818;stroke-width:1.0;"/><line style="stroke:#181818;stroke-width:1.0;stroke-dasharray:2.0,2.0;" x1="33.5" x2="354.5" y1="187.8242" y2="187.8242"/><text fill="#000000" font-family="sans-serif" font-size="13" font-weight="bold" lengthAdjust="spacing" textLength="7" x="45.5" y="182.5615">2</text><text fill="#000000" font-family="sans-serif" font-size="13" lengthAdjust="spacing" textLength="255" x="56.5" y="182.5615">show green space list and ask to select one</text><polygon fill="#181818" points="338.5,215.1152,348.5,219.1152,338.5,223.1152,342.5,219.1152" style="stroke:#181818;stroke-width:1.0;"/><line style="stroke:#181818;stroke-width:1.0;" x1="28.5" x2="344.5" y1="219.1152" y2="219.1152"/><text fill="#000000" font-family="sans-serif" font-size="13" font-weight="bold" lengthAdjust="spacing" textLength="7" x="35.5" y="213.8525">3</text><text fill="#000000" font-family="sans-serif" font-size="13" lengthAdjust="spacing" textLength="63" x="46.5" y="213.8525">selects list</text><polygon fill="#181818" points="39.5,246.4063,29.5,250.4063,39.5,254.4063,35.5,250.4063" style="stroke:#181818;stroke-width:1.0;"/><line style="stroke:#181818;stroke-width:1.0;stroke-dasharray:2.0,2.0;" x1="33.5" x2="354.5" y1="250.4063" y2="250.4063"/><text fill="#000000" font-family="sans-serif" font-size="13" font-weight="bold" lengthAdjust="spacing" textLength="7" x="45.5" y="245.1436">4</text><text fill="#000000" font-family="sans-serif" font-size="13" lengthAdjust="spacing" textLength="287" x="56.5" y="245.1436">show degree of urgency list and ask to select one</text><polygon fill="#181818" points="338.5,277.6973,348.5,281.6973,338.5,285.6973,342.5,281.6973" style="stroke:#181818;stroke-width:1.0;"/><line style="stroke:#181818;stroke-width:1.0;" x1="28.5" x2="344.5" y1="281.6973" y2="281.6973"/><text fill="#000000" font-family="sans-serif" font-size="13" font-weight="bold" lengthAdjust="spacing" textLength="7" x="35.5" y="276.4346">5</text><text fill="#000000" font-family="sans-serif" font-size="13" lengthAdjust="spacing" textLength="157" x="46.5" y="276.4346">selects the urgency degree</text><polygon fill="#181818" points="39.5,308.9883,29.5,312.9883,39.5,316.9883,35.5,312.9883" style="stroke:#181818;stroke-width:1.0;"/><line style="stroke:#181818;stroke-width:1.0;stroke-dasharray:2.0,2.0;" x1="33.5" x2="354.5" y1="312.9883" y2="312.9883"/><text fill="#000000" font-family="sans-serif" font-size="13" font-weight="bold" lengthAdjust="spacing" textLength="7" x="45.5" y="307.7256">6</text><text fill="#000000" font-family="sans-serif" font-size="13" lengthAdjust="spacing" textLength="194" x="56.5" y="307.7256">requests data (expected duration)</text><polygon fill="#181818" points="338.5,340.2793,348.5,344.2793,338.5,348.2793,342.5,344.2793" style="stroke:#181818;stroke-width:1.0;"/><line style="stroke:#181818;stroke-width:1.0;" x1="28.5" x2="344.5" y1="344.2793" y2="344.2793"/><text fill="#000000" font-family="sans-serif" font-size="13" font-weight="bold" lengthAdjust="spacing" textLength="7" x="35.5" y="339.0166">7</text><text fill="#000000" font-family="sans-serif" font-size="13" lengthAdjust="spacing" textLength="61" x="46.5" y="339.0166">types data</text><polygon fill="#181818" points="39.5,371.5703,29.5,375.5703,39.5,379.5703,35.5,375.5703" style="stroke:#181818;stroke-width:1.0;"/><line style="stroke:#181818;stroke-width:1.0;stroke-dasharray:2.0,2.0;" x1="33.5" x2="354.5" y1="375.5703" y2="375.5703"/><text fill="#000000" font-family="sans-serif" font-size="13" font-weight="bold" lengthAdjust="spacing" textLength="7" x="45.5" y="370.3076">8</text><text fill="#000000" font-family="sans-serif" font-size="13" lengthAdjust="spacing" textLength="205" x="56.5" y="370.3076">show data and request confirmation</text><polygon fill="#181818" points="338.5,402.8613,348.5,406.8613,338.5,410.8613,342.5,406.8613" style="stroke:#181818;stroke-width:1.0;"/><line style="stroke:#181818;stroke-width:1.0;" x1="28.5" x2="344.5" y1="406.8613" y2="406.8613"/><text fill="#000000" font-family="sans-serif" font-size="13" font-weight="bold" lengthAdjust="spacing" textLength="7" x="35.5" y="401.5986">9</text><text fill="#000000" font-family="sans-serif" font-size="13" lengthAdjust="spacing" textLength="71" x="46.5" y="401.5986">confirm data</text><polygon fill="#181818" points="39.5,434.1523,29.5,438.1523,39.5,442.1523,35.5,438.1523" style="stroke:#181818;stroke-width:1.0;"/><line style="stroke:#181818;stroke-width:1.0;stroke-dasharray:2.0,2.0;" x1="33.5" x2="354.5" y1="438.1523" y2="438.1523"/><text fill="#000000" font-family="sans-serif" font-size="13" font-weight="bold" lengthAdjust="spacing" textLength="14" x="45.5" y="432.8896">10</text><text fill="#000000" font-family="sans-serif" font-size="13" lengthAdjust="spacing" textLength="151" x="63.5" y="432.8896">display operation success</text><!--SRC=[jP91Ri8m44NtESKNArZa0YmgLKBgfbKNwGMczX0i4Zkr9z3SlkE4e5O2992QbUFCl7d-STextr6a5ctmmUnYQ1aIUoxI-Kj7PayrLp8qZCX6oDVDxuAq8nkEpjVOKfEuACI9bbP34cvHyLVFtZ0sZkfSlgogpGebdXlXw4dSWV7kjOrw2RvlFpdgsaY8MBnKRmjGmXjvLOY53XHdN4TUi5XF4yQ2QJdskGC9pnqe2kWplvLFizPQk_O94a3MWk3v2FOIXxmbEyP7A3S1hox9I3Y3vqbvyyGg5JjFM6iSuOWwCdiapOxHA0FaRPwOwOaRJH51pvmXbY-oBobFdMaaFc9bENiXRD77Md_Ay0zkERkPFisxqpJc2vEKP4a8I_xkbCiMjezwMO9VtJ2RAN_CPEXuebqrkH5PbiW1dRHWWj-ws8ugzvgSUXzmiIvr3Gq87Kyf8FN6S4fN57u0]--></g></svg>