<?xml version="1.0" encoding="us-ascii" standalone="no"?><svg xmlns="http://www.w3.org/2000/svg" xmlns:xlink="http://www.w3.org/1999/xlink" contentStyleType="text/css" height="1250px" preserveAspectRatio="none" style="width:1461px;height:1250px;background:#FFFFFF;" version="1.1" viewBox="0 0 1461 1250" width="1461px" zoomAndPan="magnify"><defs/><g><text fill="#000000" font-family="sans-serif" font-size="14" font-weight="bold" lengthAdjust="spacing" textLength="364" x="541.53" y="25.1074">Domain Model Green Spaces Software Management</text><!--class Organization--><g id="elem_Organization"><rect codeLine="15" fill="#F1F1F1" height="36.6211" id="Organization" rx="2.5" ry="2.5" style="stroke:#181818;stroke-width:0.5;" width="86" x="689.06" y="46.6211"/><text fill="#000000" font-family="sans-serif" font-size="14" lengthAdjust="spacing" textLength="80" x="692.06" y="66.7285">Organization</text><line style="stroke:#181818;stroke-width:0.5;" x1="690.06" x2="774.06" y1="75.2422" y2="75.2422"/></g><!--class Task--><g id="elem_Task"><rect codeLine="18" fill="#F1F1F1" height="36.6211" id="Task" rx="2.5" ry="2.5" style="stroke:#181818;stroke-width:0.5;" width="37" x="507.56" y="1206.6211"/><text fill="#000000" font-family="sans-serif" font-size="14" lengthAdjust="spacing" textLength="31" x="510.56" y="1226.7285">Task</text><line style="stroke:#181818;stroke-width:0.5;" x1="508.56" x2="543.56" y1="1235.2422" y2="1235.2422"/></g><!--class HRM--><g id="elem_HRM"><rect codeLine="22" fill="#F1F1F1" height="92.4844" id="HRM" rx="2.5" ry="2.5" style="stroke:#181818;stroke-width:0.5;" width="72" x="1140.06" y="315.6211"/><text fill="#000000" font-family="sans-serif" font-size="14" lengthAdjust="spacing" textLength="30" x="1161.06" y="335.7285">HRM</text><line style="stroke:#181818;stroke-width:0.5;" x1="1141.06" x2="1211.06" y1="344.2422" y2="344.2422"/><text fill="#000000" font-family="sans-serif" font-size="14" lengthAdjust="spacing" textLength="35" x="1146.06" y="363.3496">name</text><text fill="#000000" font-family="sans-serif" font-size="14" lengthAdjust="spacing" textLength="33" x="1146.06" y="381.9707">email</text><text fill="#000000" font-family="sans-serif" font-size="14" lengthAdjust="spacing" textLength="60" x="1146.06" y="400.5918">password</text></g><!--class Skill--><g id="elem_Skill"><rect codeLine="28" fill="#F1F1F1" height="55.2422" id="Skill" rx="2.5" ry="2.5" style="stroke:#181818;stroke-width:0.5;" width="71" x="1269.56" y="1063.1211"/><text fill="#000000" font-family="sans-serif" font-size="14" lengthAdjust="spacing" textLength="25" x="1292.56" y="1083.2285">Skill</text><line style="stroke:#181818;stroke-width:0.5;" x1="1270.56" x2="1339.56" y1="1091.7422" y2="1091.7422"/><text fill="#000000" font-family="sans-serif" font-size="14" lengthAdjust="spacing" textLength="59" x="1275.56" y="1110.8496">skillName</text></g><!--class VFM--><g id="elem_VFM"><rect codeLine="32" fill="#F1F1F1" height="92.4844" id="VFM" rx="2.5" ry="2.5" style="stroke:#181818;stroke-width:0.5;" width="72" x="82.06" y="315.6211"/><text fill="#000000" font-family="sans-serif" font-size="14" lengthAdjust="spacing" textLength="29" x="103.56" y="335.7285">VFM</text><line style="stroke:#181818;stroke-width:0.5;" x1="83.06" x2="153.06" y1="344.2422" y2="344.2422"/><text fill="#000000" font-family="sans-serif" font-size="14" lengthAdjust="spacing" textLength="35" x="88.06" y="363.3496">name</text><text fill="#000000" font-family="sans-serif" font-size="14" lengthAdjust="spacing" textLength="33" x="88.06" y="381.9707">email</text><text fill="#000000" font-family="sans-serif" font-size="14" lengthAdjust="spacing" textLength="60" x="88.06" y="400.5918">password</text></g><!--class GSM--><g id="elem_GSM"><rect codeLine="38" fill="#F1F1F1" height="92.4844" id="GSM" rx="2.5" ry="2.5" style="stroke:#181818;stroke-width:0.5;" width="72" x="696.06" y="162.6211"/><text fill="#000000" font-family="sans-serif" font-size="14" lengthAdjust="spacing" textLength="31" x="716.56" y="182.7285">GSM</text><line style="stroke:#181818;stroke-width:0.5;" x1="697.06" x2="767.06" y1="191.2422" y2="191.2422"/><text fill="#000000" font-family="sans-serif" font-size="14" lengthAdjust="spacing" textLength="35" x="702.06" y="210.3496">name</text><text fill="#000000" font-family="sans-serif" font-size="14" lengthAdjust="spacing" textLength="33" x="702.06" y="228.9707">email</text><text fill="#000000" font-family="sans-serif" font-size="14" lengthAdjust="spacing" textLength="60" x="702.06" y="247.5918">password</text></g><!--class Vehicle--><g id="elem_Vehicle"><rect codeLine="44" fill="#F1F1F1" height="222.832" id="Vehicle" rx="2.5" ry="2.5" style="stroke:#181818;stroke-width:0.5;" width="161" x="90.56" y="486.6211"/><text fill="#000000" font-family="sans-serif" font-size="14" lengthAdjust="spacing" textLength="46" x="148.06" y="506.7285">Vehicle</text><line style="stroke:#181818;stroke-width:0.5;" x1="91.56" x2="250.56" y1="515.2422" y2="515.2422"/><text fill="#000000" font-family="sans-serif" font-size="14" lengthAdjust="spacing" textLength="31" x="96.56" y="534.3496">plate</text><text fill="#000000" font-family="sans-serif" font-size="14" lengthAdjust="spacing" textLength="37" x="96.56" y="552.9707">brand</text><text fill="#000000" font-family="sans-serif" font-size="14" lengthAdjust="spacing" textLength="38" x="96.56" y="571.5918">model</text><text fill="#000000" font-family="sans-serif" font-size="14" lengthAdjust="spacing" textLength="27" x="96.56" y="590.2129">type</text><text fill="#000000" font-family="sans-serif" font-size="14" lengthAdjust="spacing" textLength="25" x="96.56" y="608.834">tare</text><text fill="#000000" font-family="sans-serif" font-size="14" lengthAdjust="spacing" textLength="79" x="96.56" y="627.4551">grossWeight</text><text fill="#000000" font-family="sans-serif" font-size="14" lengthAdjust="spacing" textLength="65" x="96.56" y="646.0762">currentKm</text><text fill="#000000" font-family="sans-serif" font-size="14" lengthAdjust="spacing" textLength="78" x="96.56" y="664.6973">registerDate</text><text fill="#000000" font-family="sans-serif" font-size="14" lengthAdjust="spacing" textLength="97" x="96.56" y="683.3184">acquisitionDate</text><text fill="#000000" font-family="sans-serif" font-size="14" lengthAdjust="spacing" textLength="149" x="96.56" y="701.9395">maintenanceFrequency</text></g><!--class Agenda--><g id="elem_Agenda"><rect codeLine="57" fill="#F1F1F1" height="92.4844" id="Agenda" rx="2.5" ry="2.5" style="stroke:#181818;stroke-width:0.5;" width="89" x="685.56" y="835.6211"/><text fill="#000000" font-family="sans-serif" font-size="14" lengthAdjust="spacing" textLength="49" x="705.56" y="855.7285">Agenda</text><line style="stroke:#181818;stroke-width:0.5;" x1="686.56" x2="773.56" y1="864.2422" y2="864.2422"/><text fill="#000000" font-family="sans-serif" font-size="14" lengthAdjust="spacing" textLength="77" x="691.56" y="883.3496">greenSpace</text><text fill="#000000" font-family="sans-serif" font-size="14" lengthAdjust="spacing" textLength="58" x="691.56" y="901.9707">startDate</text><text fill="#000000" font-family="sans-serif" font-size="14" lengthAdjust="spacing" textLength="63" x="691.56" y="920.5918">finishDate</text></g><!--class Equipment--><g id="elem_Equipment"><rect codeLine="63" fill="#F1F1F1" height="55.2422" id="Equipment" rx="2.5" ry="2.5" style="stroke:#181818;stroke-width:0.5;" width="79" x="393.56" y="570.6211"/><text fill="#000000" font-family="sans-serif" font-size="14" lengthAdjust="spacing" textLength="67" x="399.56" y="590.7285">Equipment</text><line style="stroke:#181818;stroke-width:0.5;" x1="394.56" x2="471.56" y1="599.2422" y2="599.2422"/><text fill="#000000" font-family="sans-serif" font-size="14" lengthAdjust="spacing" textLength="67" x="399.56" y="618.3496">nameType</text></g><!--class Job--><g id="elem_Job"><rect codeLine="67" fill="#F1F1F1" height="55.2422" id="Job" rx="2.5" ry="2.5" style="stroke:#181818;stroke-width:0.5;" width="67" x="1056.56" y="570.6211"/><text fill="#000000" font-family="sans-serif" font-size="14" lengthAdjust="spacing" textLength="22" x="1079.06" y="590.7285">Job</text><line style="stroke:#181818;stroke-width:0.5;" x1="1057.56" x2="1122.56" y1="599.2422" y2="599.2422"/><text fill="#000000" font-family="sans-serif" font-size="14" lengthAdjust="spacing" textLength="55" x="1062.56" y="618.3496">jobName</text></g><!--class Machine--><g id="elem_Machine"><rect codeLine="71" fill="#F1F1F1" height="55.2422" id="Machine" rx="2.5" ry="2.5" style="stroke:#181818;stroke-width:0.5;" width="79" x="579.56" y="570.6211"/><text fill="#000000" font-family="sans-serif" font-size="14" lengthAdjust="spacing" textLength="53" x="592.56" y="590.7285">Machine</text><line style="stroke:#181818;stroke-width:0.5;" x1="580.56" x2="657.56" y1="599.2422" y2="599.2422"/><text fill="#000000" font-family="sans-serif" font-size="14" lengthAdjust="spacing" textLength="67" x="585.56" y="618.3496">nameType</text></g><!--class Team--><g id="elem_Team"><rect codeLine="75" fill="#F1F1F1" height="73.8633" id="Team" rx="2.5" ry="2.5" style="stroke:#181818;stroke-width:0.5;" width="56" x="741.06" y="1053.6211"/><text fill="#000000" font-family="sans-serif" font-size="14" lengthAdjust="spacing" textLength="36" x="751.06" y="1073.7285">Team</text><line style="stroke:#181818;stroke-width:0.5;" x1="742.06" x2="796.06" y1="1082.2422" y2="1082.2422"/><text fill="#000000" font-family="sans-serif" font-size="14" lengthAdjust="spacing" textLength="44" x="747.06" y="1101.3496">skillSet</text><text fill="#000000" font-family="sans-serif" font-size="14" lengthAdjust="spacing" textLength="24" x="747.06" y="1119.9707">size</text></g><!--class Colaborator--><g id="elem_Colaborator"><rect codeLine="81" fill="#F1F1F1" height="185.5898" id="Colaborator" rx="2.5" ry="2.5" style="stroke:#181818;stroke-width:0.5;" width="105" x="1037.56" y="788.6211"/><text fill="#000000" font-family="sans-serif" font-size="14" lengthAdjust="spacing" textLength="75" x="1052.56" y="808.7285">Colaborator</text><line style="stroke:#181818;stroke-width:0.5;" x1="1038.56" x2="1141.56" y1="817.2422" y2="817.2422"/><text fill="#000000" font-family="sans-serif" font-size="14" lengthAdjust="spacing" textLength="35" x="1043.56" y="836.3496">name</text><text fill="#000000" font-family="sans-serif" font-size="14" lengthAdjust="spacing" textLength="56" x="1043.56" y="854.9707">birthdate</text><text fill="#000000" font-family="sans-serif" font-size="14" lengthAdjust="spacing" textLength="93" x="1043.56" y="873.5918">admissionDate</text><text fill="#000000" font-family="sans-serif" font-size="14" lengthAdjust="spacing" textLength="51" x="1043.56" y="892.2129">address</text><text fill="#000000" font-family="sans-serif" font-size="14" lengthAdjust="spacing" textLength="90" x="1043.56" y="910.834">mobileNumber</text><text fill="#000000" font-family="sans-serif" font-size="14" lengthAdjust="spacing" textLength="33" x="1043.56" y="929.4551">email</text><text fill="#000000" font-family="sans-serif" font-size="14" lengthAdjust="spacing" textLength="55" x="1043.56" y="948.0762">docType</text><text fill="#000000" font-family="sans-serif" font-size="14" lengthAdjust="spacing" textLength="72" x="1043.56" y="966.6973">docNumber</text></g><!--link Organization to HRM--><g id="link_Organization_HRM"><path codeLine="94" d="M758.51,83.6611 C834.4,134.0011 1052.99,278.9911 1139.85,336.6011 " fill="none" id="Organization-HRM" style="stroke:#181818;stroke-width:1.0;"/><polygon fill="#000000" points="1025.2267,211.5304,1019.3135,204.0815,1016.0645,208.9798,1025.2267,211.5304" style="stroke:#000000;stroke-width:1.0;"/><text fill="#000000" font-family="sans-serif" font-size="13" lengthAdjust="spacing" textLength="21" x="1030.06" y="214.1494">has</text><text fill="#000000" font-family="sans-serif" font-size="13" lengthAdjust="spacing" textLength="7" x="757.9647" y="105.3886">1</text><text fill="#000000" font-family="sans-serif" font-size="13" lengthAdjust="spacing" textLength="7" x="1125.0321" y="327.0111">1</text></g><!--link Organization to VFM--><g id="link_Organization_VFM"><path codeLine="95" d="M695.49,83.6611 C586.29,136.0411 263.39,290.9111 154.44,343.1711 " fill="none" id="Organization-VFM" style="stroke:#181818;stroke-width:1.0;"/><polygon fill="#000000" points="531.5518,210.9289,540.9782,209.6671,538.4363,204.3674,531.5518,210.9289" style="stroke:#000000;stroke-width:1.0;"/><text fill="#000000" font-family="sans-serif" font-size="13" lengthAdjust="spacing" textLength="21" x="545.06" y="214.1494">has</text><text fill="#000000" font-family="sans-serif" font-size="13" lengthAdjust="spacing" textLength="7" x="677.2203" y="105.3886">1</text><text fill="#000000" font-family="sans-serif" font-size="13" lengthAdjust="spacing" textLength="7" x="162.0421" y="335.0436">1</text></g><!--link Organization to GSM--><g id="link_Organization_GSM"><path codeLine="96" d="M732.06,83.7511 C732.06,103.3111 732.06,135.6311 732.06,162.3611 " fill="none" id="Organization-GSM" style="stroke:#181818;stroke-width:1.0;"/><polygon fill="#000000" points="737.06,128.2666,739.9989,119.2215,734.1211,119.2215,737.06,128.2666" style="stroke:#000000;stroke-width:1.0;"/><text fill="#000000" font-family="sans-serif" font-size="13" lengthAdjust="spacing" textLength="21" x="746.06" y="128.6494">has</text><text fill="#000000" font-family="sans-serif" font-size="13" lengthAdjust="spacing" textLength="7" x="724.1194" y="105.1606">1</text><text fill="#000000" font-family="sans-serif" font-size="13" lengthAdjust="spacing" textLength="7" x="724.5459" y="151.3323">1</text></g><!--link HRM to Colaborator--><g id="link_HRM_Colaborator"><path codeLine="98" d="M1175.31,407.8611 C1173.18,482.1511 1165.05,634.1711 1134.06,758.6211 C1131.64,768.3411 1128.73,778.3711 1125.58,788.3111 " fill="none" id="HRM-Colaborator" style="stroke:#181818;stroke-width:1.0;"/><polygon fill="#000000" points="1175.4119,603.2244,1179.4984,594.6366,1173.6702,593.8747,1175.4119,603.2244" style="stroke:#000000;stroke-width:1.0;"/><text fill="#000000" font-family="sans-serif" font-size="13" lengthAdjust="spacing" textLength="43" x="1185.06" y="603.6494">register</text><text fill="#000000" font-family="sans-serif" font-size="13" lengthAdjust="spacing" textLength="7" x="1167.6592" y="430.2567">1</text><text fill="#000000" font-family="sans-serif" font-size="13" lengthAdjust="spacing" textLength="20" x="1107.6136" y="777.2544">0..*</text></g><!--link HRM to Job--><g id="link_HRM_Job"><path codeLine="99" d="M1146.78,408.0111 C1141.39,417.5511 1136.18,427.7211 1132.06,437.6211 C1113.37,482.5711 1100.98,538.1611 1094.77,570.4311 " fill="none" id="HRM-Job" style="stroke:#181818;stroke-width:1.0;"/><polygon fill="#000000" points="1135.5352,452.0284,1141.0925,444.3105,1135.4947,442.5179,1135.5352,452.0284" style="stroke:#000000;stroke-width:1.0;"/><text fill="#000000" font-family="sans-serif" font-size="13" lengthAdjust="spacing" textLength="21" x="1146.06" y="452.6494">has</text><text fill="#000000" font-family="sans-serif" font-size="13" lengthAdjust="spacing" textLength="7" x="1134.9654" y="430.0872">1</text><text fill="#000000" font-family="sans-serif" font-size="13" lengthAdjust="spacing" textLength="20" x="1097.9878" y="559.5482">0..*</text></g><!--link HRM to Team--><g id="link_HRM_Team"><path codeLine="100" d="M1139.9,387.2411 C1109.19,409.8411 1065.93,445.9311 1039.06,486.6211 C899.99,697.2911 1011.21,826.0711 854.06,1023.6211 C838.4,1043.3111 825.86,1038.0911 806.06,1053.6211 C803.1,1055.9411 800.11,1058.4711 797.19,1061.0811 " fill="none" id="HRM-Team" style="stroke:#181818;stroke-width:1.0;"/><polygon fill="#000000" points="957.7933,753.7233,964.5133,746.9933,959.2742,744.3287,957.7933,753.7233" style="stroke:#000000;stroke-width:1.0;"/><text fill="#000000" font-family="sans-serif" font-size="13" lengthAdjust="spacing" textLength="43" x="969.06" y="754.6494">creates</text><text fill="#000000" font-family="sans-serif" font-size="13" lengthAdjust="spacing" textLength="7" x="1125.0919" y="387.6209">1</text><text fill="#000000" font-family="sans-serif" font-size="13" lengthAdjust="spacing" textLength="20" x="805.0543" y="1050.3078">0..*</text></g><!--link HRM to Skill--><g id="link_HRM_Skill"><path codeLine="101" d="M1203.04,407.9011 C1215.41,430.7411 1229.08,459.3311 1237.06,486.6211 C1300.17,702.2411 1305.32,977.0611 1305.29,1062.8311 " fill="none" id="HRM-Skill" style="stroke:#181818;stroke-width:1.0;"/><polygon fill="#000000" points="1293.8313,754.2068,1295.3398,744.8166,1289.5323,745.7233,1293.8313,754.2068" style="stroke:#000000;stroke-width:1.0;"/><text fill="#000000" font-family="sans-serif" font-size="13" lengthAdjust="spacing" textLength="43" x="1302.06" y="754.6494">creates</text><text fill="#000000" font-family="sans-serif" font-size="13" lengthAdjust="spacing" textLength="7" x="1199.6354" y="430.3028">1</text><text fill="#000000" font-family="sans-serif" font-size="13" lengthAdjust="spacing" textLength="20" x="1283.1528" y="1051.9263">0..*</text></g><!--link VFM to Vehicle--><g id="link_VFM_Vehicle"><path codeLine="103" d="M82.01,377.3911 C48.54,393.5611 6,421.8711 21.06,456.6211 C35.75,490.5011 63.08,519.9511 90.43,543.0211 " fill="none" id="VFM-Vehicle" style="stroke:#181818;stroke-width:1.0;"/><polygon fill="#000000" points="26.3139,452.2602,28.7898,443.0775,22.9195,443.3759,26.3139,452.2602" style="stroke:#000000;stroke-width:1.0;"/><text fill="#000000" font-family="sans-serif" font-size="13" lengthAdjust="spacing" textLength="46" x="35.06" y="452.6494">manage</text><text fill="#000000" font-family="sans-serif" font-size="13" lengthAdjust="spacing" textLength="7" x="66.8528" y="375.8989">1</text><text fill="#000000" font-family="sans-serif" font-size="13" lengthAdjust="spacing" textLength="20" x="62.6415" y="534.6035">0..*</text></g><!--link VFM to Vehicle--><g id="link_VFM_Vehicle"><path codeLine="106" d="M117.31,407.8711 C117.76,423.4411 119.05,440.9011 122.06,456.6211 C123.93,466.3911 126.35,476.4011 129.1,486.3511 " fill="none" id="VFM-Vehicle-1" style="stroke:#181818;stroke-width:1.0;"/><polygon fill="#000000" points="127.8028,452.2111,129.3654,442.8298,123.5527,443.703,127.8028,452.2111" style="stroke:#000000;stroke-width:1.0;"/><text fill="#000000" font-family="sans-serif" font-size="13" lengthAdjust="spacing" textLength="53" x="136.06" y="452.6494">manages</text><text fill="#000000" font-family="sans-serif" font-size="13" lengthAdjust="spacing" textLength="7" x="109.6592" y="430.2682">1</text><text fill="#000000" font-family="sans-serif" font-size="13" lengthAdjust="spacing" textLength="20" x="105.6089" y="475.3142">0..*</text></g><!--link VFM to Equipment--><g id="link_VFM_Equipment"><path codeLine="104" d="M154.2,389.5211 C214.96,434.7511 336.87,525.5111 397.35,570.5311 " fill="none" id="VFM-Equipment" style="stroke:#181818;stroke-width:1.0;"/><polygon fill="#000000" points="248.0707,450.2523,242.5702,442.4937,239.0603,447.2085,248.0707,450.2523" style="stroke:#000000;stroke-width:1.0;"/><text fill="#000000" font-family="sans-serif" font-size="13" lengthAdjust="spacing" textLength="46" x="253.06" y="452.6494">manage</text><text fill="#000000" font-family="sans-serif" font-size="13" lengthAdjust="spacing" textLength="7" x="162.0041" y="390.3498">1</text><text fill="#000000" font-family="sans-serif" font-size="13" lengthAdjust="spacing" textLength="20" x="366.7796" y="559.2192">0..*</text></g><!--link VFM to Machine--><g id="link_VFM_Machine"><path codeLine="105" d="M154.24,392.0511 C162.67,397.8711 171.88,403.4511 181.06,407.6211 C233.87,431.5911 251.83,423.4111 308.06,437.6211 C389.28,458.1411 415.98,447.5211 490.06,486.6211 C531.27,508.3711 570.75,545.3611 594.94,570.5011 " fill="none" id="VFM-Machine" style="stroke:#181818;stroke-width:1.0;"/><polygon fill="#000000" points="417.6945,449.1432,410.4137,443.0243,408.2076,448.4725,417.6945,449.1432" style="stroke:#000000;stroke-width:1.0;"/><text fill="#000000" font-family="sans-serif" font-size="13" lengthAdjust="spacing" textLength="46" x="422.06" y="452.6494">manage</text><text fill="#000000" font-family="sans-serif" font-size="13" lengthAdjust="spacing" textLength="7" x="162.052" y="413.7247">1</text><text fill="#000000" font-family="sans-serif" font-size="13" lengthAdjust="spacing" textLength="20" x="567.0497" y="559.1823">0..*</text></g><!--link GSM to Colaborator--><g id="link_GSM_Colaborator"><path codeLine="108" d="M768.21,226.6711 C792.43,239.6511 823.53,259.5411 844.06,284.6211 C909.88,365.0111 1009.59,642.1711 1059.43,788.4911 " fill="none" id="GSM-Colaborator" style="stroke:#181818;stroke-width:1.0;"/><polygon fill="#000000" points="941.361,451.7057,939.8077,442.3228,934.5892,445.0278,941.361,451.7057" style="stroke:#000000;stroke-width:1.0;"/><text fill="#000000" font-family="sans-serif" font-size="13" lengthAdjust="spacing" textLength="46" x="948.06" y="452.6494">manage</text><text fill="#000000" font-family="sans-serif" font-size="13" lengthAdjust="spacing" textLength="7" x="776.0161" y="245.9074">1</text><text fill="#000000" font-family="sans-serif" font-size="13" lengthAdjust="spacing" textLength="20" x="1036.1923" y="777.4487">0..*</text></g><!--link GSM to Vehicle--><g id="link_GSM_Vehicle"><path codeLine="109" d="M696.02,214.0811 C628.09,223.7511 478.23,251.2011 370.06,315.6211 C301.43,356.5011 283.91,372.2011 238.06,437.6211 C227.55,452.6211 218.24,469.5311 210.16,486.5911 " fill="none" id="GSM-Vehicle" style="stroke:#181818;stroke-width:1.0;"/><polygon fill="#000000" points="370.6991,364.2125,380.0257,362.3511,377.1503,357.2245,370.6991,364.2125" style="stroke:#000000;stroke-width:1.0;"/><text fill="#000000" font-family="sans-serif" font-size="13" lengthAdjust="spacing" textLength="46" x="384.06" y="367.1494">manage</text><text fill="#000000" font-family="sans-serif" font-size="13" lengthAdjust="spacing" textLength="7" x="680.8649" y="210.4625">1</text><text fill="#000000" font-family="sans-serif" font-size="13" lengthAdjust="spacing" textLength="20" x="192.2061" y="475.1959">0..*</text></g><!--link GSM to Team--><g id="link_GSM_Team"><path codeLine="110" d="M748.97,254.6611 C765,300.0711 787.81,372.5711 796.06,437.6211 C827.76,687.6311 799.95,752.6111 801.06,1004.6211 C801.1,1013.0611 802.95,1015.3911 801.06,1023.6211 C798.75,1033.6711 794.7,1043.9711 790.24,1053.3511 " fill="none" id="GSM-Team" style="stroke:#181818;stroke-width:1.0;"/><polygon fill="#000000" points="817.318,603.2599,819.7863,594.0752,813.9162,594.3786,817.318,603.2599" style="stroke:#000000;stroke-width:1.0;"/><text fill="#000000" font-family="sans-serif" font-size="13" lengthAdjust="spacing" textLength="46" x="826.06" y="603.6494">manage</text><text fill="#000000" font-family="sans-serif" font-size="13" lengthAdjust="spacing" textLength="7" x="744.0234" y="277.026">1</text><text fill="#000000" font-family="sans-serif" font-size="13" lengthAdjust="spacing" textLength="20" x="772.2314" y="1042.2647">0..*</text></g><!--link GSM to Task--><g id="link_GSM_Task"><path codeLine="111" d="M696.02,233.7311 C669.79,253.0211 635.29,282.2911 614.06,315.6211 C508.69,481.0811 526.06,551.9611 526.06,748.1211 C526.06,748.1211 526.06,748.1211 526.06,1091.6211 C526.06,1132.8011 526.06,1181.1711 526.06,1206.5511 " fill="none" id="GSM-Task" style="stroke:#181818;stroke-width:1.0;"/><polygon fill="#000000" points="530.1995,754.192,534.6512,745.7877,528.8611,744.7761,530.1995,754.192" style="stroke:#000000;stroke-width:1.0;"/><text fill="#000000" font-family="sans-serif" font-size="13" lengthAdjust="spacing" textLength="36" x="540.06" y="754.6494">create</text><text fill="#000000" font-family="sans-serif" font-size="13" lengthAdjust="spacing" textLength="7" x="680.8649" y="234.1653">1</text><text fill="#000000" font-family="sans-serif" font-size="13" lengthAdjust="spacing" textLength="20" x="529.1225" y="1195.3918">0..*</text></g><!--link GSM to Equipment--><g id="link_GSM_Equipment"><path codeLine="112" d="M696,210.0211 C631.47,212.9611 497.91,229.6911 443.06,315.6211 C441.36,318.2911 435.87,500.6911 433.83,570.4211 " fill="none" id="GSM-Equipment" style="stroke:#181818;stroke-width:1.0;"/><polygon fill="#000000" points="445.1187,365.81,452.8162,360.2243,448.0629,356.7666,445.1187,365.81" style="stroke:#000000;stroke-width:1.0;"/><text fill="#000000" font-family="sans-serif" font-size="13" lengthAdjust="spacing" textLength="46" x="457.06" y="367.1494">manage</text><text fill="#000000" font-family="sans-serif" font-size="13" lengthAdjust="spacing" textLength="7" x="680.8408" y="205.5651">1</text><text fill="#000000" font-family="sans-serif" font-size="13" lengthAdjust="spacing" textLength="20" x="411.8109" y="559.536">0..*</text></g><!--link GSM to Job--><g id="link_GSM_Job"><path codeLine="113" d="M768.08,213.6611 C814.31,220.5911 894.57,238.7511 945.06,284.6211 C1033.6,365.0511 1072.3,510.5411 1084.99,570.3511 " fill="none" id="GSM-Job" style="stroke:#181818;stroke-width:1.0;"/><polygon fill="#000000" points="1038.381,365.5044,1034.5703,356.7906,1030.1763,360.6947,1038.381,365.5044" style="stroke:#000000;stroke-width:1.0;"/><text fill="#000000" font-family="sans-serif" font-size="13" lengthAdjust="spacing" textLength="46" x="1044.06" y="367.1494">manage</text><text fill="#000000" font-family="sans-serif" font-size="13" lengthAdjust="spacing" textLength="7" x="776.231" y="209.9558">1</text><text fill="#000000" font-family="sans-serif" font-size="13" lengthAdjust="spacing" textLength="20" x="1061.6934" y="559.4507">0..*</text></g><!--link GSM to Machine--><g id="link_GSM_Machine"><path codeLine="114" d="M695.91,242.8611 C677.37,262.1711 656.37,288.0911 645.06,315.6211 C609.08,403.2411 612.57,518.7411 616.47,570.2911 " fill="none" id="GSM-Machine" style="stroke:#181818;stroke-width:1.0;"/><polygon fill="#000000" points="648.8811,366.6256,653.8698,358.5285,648.1577,357.1426,648.8811,366.6256" style="stroke:#000000;stroke-width:1.0;"/><text fill="#000000" font-family="sans-serif" font-size="13" lengthAdjust="spacing" textLength="46" x="659.06" y="367.1494">manage</text><text fill="#000000" font-family="sans-serif" font-size="13" lengthAdjust="spacing" textLength="7" x="681.1039" y="265.2848">1</text><text fill="#000000" font-family="sans-serif" font-size="13" lengthAdjust="spacing" textLength="20" x="593.7159" y="559.3776">0..*</text></g><!--link GSM to Agenda--><g id="link_GSM_Agenda"><path codeLine="115" d="M731.83,255.0411 C731.61,301.0611 731.27,374.2911 731.06,437.6211 C730.58,582.9811 730.26,755.1711 730.13,835.3411 " fill="none" id="GSM-Agenda" style="stroke:#181818;stroke-width:1.0;"/><polygon fill="#000000" points="736.0454,452.2666,739.0108,443.2301,733.1329,443.2129,736.0454,452.2666" style="stroke:#000000;stroke-width:1.0;"/><text fill="#000000" font-family="sans-serif" font-size="13" lengthAdjust="spacing" textLength="46" x="745.06" y="452.6494">manage</text><text fill="#000000" font-family="sans-serif" font-size="13" lengthAdjust="spacing" textLength="7" x="724.2822" y="277.1216">1</text><text fill="#000000" font-family="sans-serif" font-size="13" lengthAdjust="spacing" textLength="20" x="708.6715" y="824.3094">0..*</text></g><!--link GSM to Skill--><g id="link_GSM_Skill"><path codeLine="116" d="M768.25,223.0411 C795.84,232.8811 834.95,245.9711 870.06,254.6211 C985.2,282.9811 1393.06,242.0311 1393.06,360.6211 C1393.06,360.6211 1393.06,360.6211 1393.06,882.6211 C1393.06,952.1311 1350.52,1025.0511 1324.59,1063.0411 " fill="none" id="GSM-Skill" style="stroke:#181818;stroke-width:1.0;"/><polygon fill="#000000" points="1400.8209,602.4352,1398.2766,593.2713,1393.3761,596.5169,1400.8209,602.4352" style="stroke:#000000;stroke-width:1.0;"/><text fill="#000000" font-family="sans-serif" font-size="13" lengthAdjust="spacing" textLength="46" x="1407.06" y="603.6494">manage</text><text fill="#000000" font-family="sans-serif" font-size="13" lengthAdjust="spacing" textLength="7" x="776.064" y="221.2159">1</text><text fill="#000000" font-family="sans-serif" font-size="13" lengthAdjust="spacing" textLength="20" x="1331.4188" y="1051.7316">0..*</text></g><!--link Vehicle to Task--><g id="link_Vehicle_Task"><path codeLine="118" d="M223.05,709.6311 C280.97,828.7711 380.44,1022.1111 486.06,1176.6211 C493.12,1186.9411 501.99,1197.6711 509.59,1206.3011 " fill="none" id="Vehicle-Task" style="stroke:#181818;stroke-width:1.0;"/><polygon fill="#000000" points="394.5586,1018.5975,392.5842,1009.2942,387.4929,1012.2315,394.5586,1018.5975" style="stroke:#000000;stroke-width:1.0;"/><text fill="#000000" font-family="sans-serif" font-size="13" lengthAdjust="spacing" textLength="21" x="401.06" y="1019.6494">has</text><text fill="#000000" font-family="sans-serif" font-size="13" lengthAdjust="spacing" textLength="7" x="219.1564" y="731.3623">1</text><text fill="#000000" font-family="sans-serif" font-size="13" lengthAdjust="spacing" textLength="20" x="481.8144" y="1195.4026">0..*</text></g><!--link Equipment to Task--><g id="link_Equipment_Task"><path codeLine="120" d="M433.55,626.1111 C435.1,693.5211 441.24,874.6111 464.06,1023.6211 C474.64,1092.6711 475.06,1111.3911 500.06,1176.6211 C503.96,1186.8011 509.67,1197.5111 514.74,1206.1811 " fill="none" id="Equipment-Task" style="stroke:#181818;stroke-width:1.0;"/><polygon fill="#000000" points="469.7531,1019.2183,471.4098,1009.8532,465.5887,1010.6679,469.7531,1019.2183" style="stroke:#000000;stroke-width:1.0;"/><text fill="#000000" font-family="sans-serif" font-size="13" lengthAdjust="spacing" textLength="21" x="478.06" y="1019.6494">has</text><text fill="#000000" font-family="sans-serif" font-size="13" lengthAdjust="spacing" textLength="7" x="425.9292" y="647.6705">1</text><text fill="#000000" font-family="sans-serif" font-size="13" lengthAdjust="spacing" textLength="20" x="479.5495" y="1213.0096">0..*</text></g><!--link Colaborator to Skill--><g id="link_Colaborator_Skill"><path codeLine="122" d="M1142.63,953.1011 C1161.91,976.7811 1184.75,1002.5211 1208.06,1023.6211 C1226.79,1040.5711 1250.13,1056.5911 1269.22,1068.5911 " fill="none" id="Colaborator-Skill" style="stroke:#181818;stroke-width:1.0;"/><polygon fill="#000000" points="1216.7538,1017.6365,1212.0524,1009.3692,1208.0909,1013.7115,1216.7538,1017.6365" style="stroke:#000000;stroke-width:1.0;"/><text fill="#000000" font-family="sans-serif" font-size="13" lengthAdjust="spacing" textLength="56" x="1222.06" y="1019.6494">posesses</text><text fill="#000000" font-family="sans-serif" font-size="13" lengthAdjust="spacing" textLength="20" x="1150.6468" y="958.2436">0..*</text><text fill="#000000" font-family="sans-serif" font-size="13" lengthAdjust="spacing" textLength="20" x="1241.6278" y="1060.5669">0..*</text></g><!--link Colaborator to Team--><g id="link_Colaborator_Team"><path codeLine="123" d="M1037.52,953.9611 C1015.35,979.4511 987.58,1006.1511 957.06,1023.6211 C905.22,1053.2911 881.21,1030.6811 826.06,1053.6211 C816.23,1057.7111 806.18,1063.4411 797.32,1069.1311 " fill="none" id="Colaborator-Team" style="stroke:#181818;stroke-width:1.0;"/><polygon fill="#000000" points="983.5515,1016.4283,992.9781,1015.1678,990.4368,1009.8677,983.5515,1016.4283" style="stroke:#000000;stroke-width:1.0;"/><text fill="#000000" font-family="sans-serif" font-size="13" lengthAdjust="spacing" textLength="21" x="997.06" y="1019.6494">has</text><text fill="#000000" font-family="sans-serif" font-size="13" lengthAdjust="spacing" textLength="7" x="1022.6394" y="960.0162">1</text><text fill="#000000" font-family="sans-serif" font-size="13" lengthAdjust="spacing" textLength="20" x="805.2111" y="1080.5243">0..*</text></g><!--link Job to Colaborator--><g id="link_Job_Colaborator"><path codeLine="125" d="M1090.06,625.8611 C1090.06,662.9111 1090.06,731.7311 1090.06,788.5111 " fill="none" id="Job-Colaborator" style="stroke:#181818;stroke-width:1.0;"/><polygon fill="#000000" points="1095.06,754.2666,1097.9989,745.2215,1092.1211,745.2215,1095.06,754.2666" style="stroke:#000000;stroke-width:1.0;"/><text fill="#000000" font-family="sans-serif" font-size="13" lengthAdjust="spacing" textLength="21" x="1104.06" y="754.6494">has</text><text fill="#000000" font-family="sans-serif" font-size="13" lengthAdjust="spacing" textLength="7" x="1082.2944" y="647.8223">1</text><text fill="#000000" font-family="sans-serif" font-size="13" lengthAdjust="spacing" textLength="20" x="1069.2631" y="777.4703">0..*</text></g><!--link Team to Task--><g id="link_Team_Task"><path codeLine="127" d="M740.71,1107.0811 C690.51,1134.4511 587.28,1190.7411 544.87,1213.8611 " fill="none" id="Team-Task" style="stroke:#181818;stroke-width:1.0;"/><polygon fill="#000000" points="648.6701,1169.6601,658.0184,1167.9105,655.2046,1162.7499,648.6701,1169.6601" style="stroke:#000000;stroke-width:1.0;"/><text fill="#000000" font-family="sans-serif" font-size="13" lengthAdjust="spacing" textLength="21" x="662.06" y="1172.6494">has</text><text fill="#000000" font-family="sans-serif" font-size="13" lengthAdjust="spacing" textLength="7" x="725.9466" y="1127.2455">1</text><text fill="#000000" font-family="sans-serif" font-size="13" lengthAdjust="spacing" textLength="7" x="552.5391" y="1204.2121">1</text></g><!--link Team to Agenda--><g id="link_Team_Agenda"><path codeLine="128" d="M762.25,1053.4911 C755.67,1018.5511 745.68,965.5011 738.57,927.7911 " fill="none" id="Team-Agenda" style="stroke:#181818;stroke-width:1.0;"/><polygon fill="#000000" points="761.1344,1009.353,759.9207,1018.7858,765.697,1017.6977,761.1344,1009.353" style="stroke:#000000;stroke-width:1.0;"/><text fill="#000000" font-family="sans-serif" font-size="13" lengthAdjust="spacing" textLength="21" x="771.06" y="1019.6494">has</text><text fill="#000000" font-family="sans-serif" font-size="13" lengthAdjust="spacing" textLength="7" x="753.4135" y="1042.4297">1</text><text fill="#000000" font-family="sans-serif" font-size="13" lengthAdjust="spacing" textLength="7" x="732.3372" y="950.176">1</text></g><!--link Agenda to Team--><g id="link_Agenda_Team"><path codeLine="133" d="M711.96,927.7311 C703.32,956.0611 697.19,992.9211 709.06,1023.6211 C715.59,1040.5211 728.69,1055.7611 740.98,1067.3211 " fill="none" id="Agenda-Team" style="stroke:#181818;stroke-width:1.0;"/><polygon fill="#000000" points="715.0777,1019.1619,716.1141,1009.708,710.3593,1010.9044,715.0777,1019.1619" style="stroke:#000000;stroke-width:1.0;"/><text fill="#000000" font-family="sans-serif" font-size="13" lengthAdjust="spacing" textLength="21" x="723.06" y="1019.6494">has</text><text fill="#000000" font-family="sans-serif" font-size="13" lengthAdjust="spacing" textLength="7" x="701.6525" y="950.1068">1</text><text fill="#000000" font-family="sans-serif" font-size="13" lengthAdjust="spacing" textLength="20" x="713.126" y="1057.8348">0..*</text></g><!--link Machine to Team--><g id="link_Machine_Team"><path codeLine="130" d="M612.94,625.9111 C599.74,690.0411 574.19,855.8811 632.06,974.6211 C655.19,1022.0711 708.02,1057.2211 740.9,1075.4711 " fill="none" id="Machine-Team" style="stroke:#181818;stroke-width:1.0;"/><polygon fill="#000000" points="638.4288,886.5756,638.7793,877.0715,633.126,878.6806,638.4288,886.5756" style="stroke:#000000;stroke-width:1.0;"/><text fill="#000000" font-family="sans-serif" font-size="13" lengthAdjust="spacing" textLength="21" x="646.06" y="887.1494">has</text><text fill="#000000" font-family="sans-serif" font-size="13" lengthAdjust="spacing" textLength="7" x="603.8356" y="647.8832">1</text><text fill="#000000" font-family="sans-serif" font-size="13" lengthAdjust="spacing" textLength="20" x="713.0295" y="1088.172">0..*</text></g><!--link Agenda to Task--><g id="link_Agenda_Task"><path codeLine="134" d="M768.36,927.8411 C807.26,979.5911 856.24,1065.2211 814.06,1127.6211 C752.04,1219.3611 597.97,1225.5311 544.61,1224.7811 " fill="none" id="Agenda-Task" style="stroke:#181818;stroke-width:1.0;"/><polygon fill="#000000" points="833.051,1094.7598,840.8415,1089.3046,836.1472,1085.7674,833.051,1094.7598" style="stroke:#000000;stroke-width:1.0;"/><text fill="#000000" font-family="sans-serif" font-size="13" lengthAdjust="spacing" textLength="26" x="845.06" y="1096.1494">have</text><text fill="#000000" font-family="sans-serif" font-size="13" lengthAdjust="spacing" textLength="7" x="766.6888" y="950.2336">1</text><text fill="#000000" font-family="sans-serif" font-size="13" lengthAdjust="spacing" textLength="20" x="552.6397" y="1241.1986">0..*</text></g><!--SRC=[bPJ1Rjim38RlUWgXbm03MdJN7WOKwzfkGxfX3hgpB36s5ajo9ML1MkpTHqcsOYUkY_PIoln8aJ-fk8tKBRDCKMMquRKr2gYtMo0kUrh6Dwo2mkyRe1QuPxfgXe2hcJ0xgIkwPeq3iZYu6gd1xrkWnlhQa4K3Qq-zeLPMjQT2XdJIw44otZ3dhhstijnw-CgDBkGpq4jIIm6KIylnxcWhm9J24Iyz5dPZ59EQBes0XjvP04qBh1mSBSpQxvW5kcGQ-r2WFI6BU0_zsJ2_DbRH5xAWz5o0urQsiQJ5Fq8IzCDMJCjd5ZuZcB-lcDkaS_VX_jVoXL3yqqn1D02BQgBL8h0pLXp2YuriciIxO3w4eEnzl7rFhhlYFVGZr19bJ14jIf12IikqY9OAAaOh32yPg60qAckS-mrXWF7CjzQYfDzLF5cefFDWR_gaZ3zjfPD1k_mjJCg3Pfh3hOMdBMY-FrHtNO4MxAMx30SPvvXqmYfyJhEMMhew7dFm5xoj3IC-oB4ABMJWcocJwuyfnuel6QznNLyBN05JWsaLaDftk9s35VXi6bOQoxonz6WYfSGt8B8kGaddXgem8ImurmsWb0qyR5K9zcYSml1LFnIqEoPKG4QBUlRnZ9wVnt-ub_IAripHJwyok6zlChXbcI4XQU-xlBZuS3Rg_Ifl0hAdA4uXPphr1gdHpIsWDjD8V3mZXeGEnb2tvuYf-FIHEeNoninZtNRCGySNnhg2QWbxHQcSS8ASQ662wWIRHSAFLQ_ND3Afn0INXZT7J8YLgPv9p_oDHFsOCqDwGOus9dNNhUQXaJbgE8GEEBsuDGxVP1paY9_Qrovla6VkONHO31eyhb5nnyuiLXVS2pnN1-c2PfXfeY_aRnISaFy0]--></g></svg>