<?xml version="1.0" encoding="us-ascii" standalone="no"?><svg xmlns="http://www.w3.org/2000/svg" xmlns:xlink="http://www.w3.org/1999/xlink" contentStyleType="text/css" height="1192px" preserveAspectRatio="none" style="width:1543px;height:1192px;background:#FFFFFF;" version="1.1" viewBox="0 0 1543 1192" width="1543px" zoomAndPan="magnify"><defs/><g><text fill="#000000" font-family="sans-serif" font-size="14" font-weight="bold" lengthAdjust="spacing" textLength="409" x="560.4" y="22.9951">Domain Model Green Spaces Software Management</text><!--class Organization--><g id="elem_Organization"><rect codeLine="15" fill="#F1F1F1" height="34.2969" id="Organization" rx="2.5" ry="2.5" style="stroke:#181818;stroke-width:0.5;" width="93" x="700.8" y="44.2969"/><text fill="#000000" font-family="sans-serif" font-size="14" lengthAdjust="spacing" textLength="87" x="703.8" y="62.292">Organization</text><line style="stroke:#181818;stroke-width:0.5;" x1="701.8" x2="792.8" y1="70.5938" y2="70.5938"/></g><!--class Task--><g id="elem_Task"><rect codeLine="18" fill="#F1F1F1" height="34.2969" id="Task" rx="2.5" ry="2.5" style="stroke:#181818;stroke-width:0.5;" width="39" x="1004.8" y="1151.2969"/><text fill="#000000" font-family="sans-serif" font-size="14" lengthAdjust="spacing" textLength="33" x="1007.8" y="1169.292">Task</text><line style="stroke:#181818;stroke-width:0.5;" x1="1005.8" x2="1042.8" y1="1177.5938" y2="1177.5938"/></g><!--class HRM--><g id="elem_HRM"><rect codeLine="22" fill="#F1F1F1" height="66.8906" id="HRM" rx="2.5" ry="2.5" style="stroke:#181818;stroke-width:0.5;" width="79" x="272.8" y="299.2969"/><text fill="#000000" font-family="sans-serif" font-size="14" lengthAdjust="spacing" textLength="32" x="296.3" y="317.292">HRM</text><line style="stroke:#181818;stroke-width:0.5;" x1="273.8" x2="350.8" y1="325.5938" y2="325.5938"/><text fill="#000000" font-family="sans-serif" font-size="14" lengthAdjust="spacing" textLength="36" x="278.8" y="342.5889">email</text><text fill="#000000" font-family="sans-serif" font-size="14" lengthAdjust="spacing" textLength="67" x="278.8" y="358.8857">password</text></g><!--class Skill--><g id="elem_Skill"><rect codeLine="27" fill="#F1F1F1" height="50.5938" id="Skill" rx="2.5" ry="2.5" style="stroke:#181818;stroke-width:0.5;" width="77" x="29.8" y="1015.2969"/><text fill="#000000" font-family="sans-serif" font-size="14" lengthAdjust="spacing" textLength="26" x="55.3" y="1033.292">Skill</text><line style="stroke:#181818;stroke-width:0.5;" x1="30.8" x2="105.8" y1="1041.5938" y2="1041.5938"/><text fill="#000000" font-family="sans-serif" font-size="14" lengthAdjust="spacing" textLength="65" x="35.8" y="1058.5889">skillName</text></g><!--class VFM--><g id="elem_VFM"><rect codeLine="54" fill="#F1F1F1" height="99.4844" id="VFM" rx="2.5" ry="2.5" style="stroke:#181818;stroke-width:0.5;" width="79" x="1212.8" y="283.2969"/><text fill="#000000" font-family="sans-serif" font-size="14" lengthAdjust="spacing" textLength="29" x="1237.8" y="301.292">VFM</text><line style="stroke:#181818;stroke-width:0.5;" x1="1213.8" x2="1290.8" y1="309.5938" y2="309.5938"/><text fill="#000000" font-family="sans-serif" font-size="14" lengthAdjust="spacing" textLength="36" x="1218.8" y="326.5889">email</text><text fill="#000000" font-family="sans-serif" font-size="14" lengthAdjust="spacing" textLength="67" x="1218.8" y="342.8857">password</text><text fill="#000000" font-family="sans-serif" font-size="14" lengthAdjust="spacing" textLength="36" x="1218.8" y="359.1826">email</text><text fill="#000000" font-family="sans-serif" font-size="14" lengthAdjust="spacing" textLength="67" x="1218.8" y="375.4795">password</text></g><!--class GSM--><g id="elem_GSM"><rect codeLine="36" fill="#F1F1F1" height="66.8906" id="GSM" rx="2.5" ry="2.5" style="stroke:#181818;stroke-width:0.5;" width="79" x="707.8" y="155.2969"/><text fill="#000000" font-family="sans-serif" font-size="14" lengthAdjust="spacing" textLength="32" x="731.3" y="173.292">GSM</text><line style="stroke:#181818;stroke-width:0.5;" x1="708.8" x2="785.8" y1="181.5938" y2="181.5938"/><text fill="#000000" font-family="sans-serif" font-size="14" lengthAdjust="spacing" textLength="36" x="713.8" y="198.5889">email</text><text fill="#000000" font-family="sans-serif" font-size="14" lengthAdjust="spacing" textLength="67" x="713.8" y="214.8857">password</text></g><!--class Vehicle--><g id="elem_Vehicle"><rect codeLine="41" fill="#F1F1F1" height="197.2656" id="Vehicle" rx="2.5" ry="2.5" style="stroke:#181818;stroke-width:0.5;" width="175" x="1361.8" y="459.2969"/><text fill="#000000" font-family="sans-serif" font-size="14" lengthAdjust="spacing" textLength="50" x="1424.3" y="477.292">Vehicle</text><line style="stroke:#181818;stroke-width:0.5;" x1="1362.8" x2="1535.8" y1="485.5938" y2="485.5938"/><text fill="#000000" font-family="sans-serif" font-size="14" lengthAdjust="spacing" textLength="34" x="1367.8" y="502.5889">plate</text><text fill="#000000" font-family="sans-serif" font-size="14" lengthAdjust="spacing" textLength="40" x="1367.8" y="518.8857">brand</text><text fill="#000000" font-family="sans-serif" font-size="14" lengthAdjust="spacing" textLength="43" x="1367.8" y="535.1826">model</text><text fill="#000000" font-family="sans-serif" font-size="14" lengthAdjust="spacing" textLength="30" x="1367.8" y="551.4795">type</text><text fill="#000000" font-family="sans-serif" font-size="14" lengthAdjust="spacing" textLength="27" x="1367.8" y="567.7764">tare</text><text fill="#000000" font-family="sans-serif" font-size="14" lengthAdjust="spacing" textLength="87" x="1367.8" y="584.0732">grossWeight</text><text fill="#000000" font-family="sans-serif" font-size="14" lengthAdjust="spacing" textLength="72" x="1367.8" y="600.3701">currentKm</text><text fill="#000000" font-family="sans-serif" font-size="14" lengthAdjust="spacing" textLength="86" x="1367.8" y="616.667">registerDate</text><text fill="#000000" font-family="sans-serif" font-size="14" lengthAdjust="spacing" textLength="107" x="1367.8" y="632.9639">acquisitionDate</text><text fill="#000000" font-family="sans-serif" font-size="14" lengthAdjust="spacing" textLength="163" x="1367.8" y="649.2607">maintenanceFrequency</text></g><!--class CheckUp--><g id="elem_CheckUp"><rect codeLine="59" fill="#F1F1F1" height="66.8906" id="CheckUp" rx="2.5" ry="2.5" style="stroke:#181818;stroke-width:0.5;" width="161" x="1211.8" y="798.2969"/><text fill="#000000" font-family="sans-serif" font-size="14" lengthAdjust="spacing" textLength="63" x="1260.8" y="816.292">CheckUp</text><line style="stroke:#181818;stroke-width:0.5;" x1="1212.8" x2="1371.8" y1="824.5938" y2="824.5938"/><text fill="#000000" font-family="sans-serif" font-size="14" lengthAdjust="spacing" textLength="31" x="1217.8" y="841.5889">date</text><text fill="#000000" font-family="sans-serif" font-size="14" lengthAdjust="spacing" textLength="149" x="1217.8" y="857.8857">kilometersAtCheckUp</text></g><!--class Agenda--><g id="elem_Agenda"><rect codeLine="64" fill="#F1F1F1" height="115.7813" id="Agenda" rx="2.5" ry="2.5" style="stroke:#181818;stroke-width:0.5;" width="96" x="699.3" y="773.7969"/><text fill="#000000" font-family="sans-serif" font-size="14" lengthAdjust="spacing" textLength="53" x="720.8" y="791.792">Agenda</text><line style="stroke:#181818;stroke-width:0.5;" x1="700.3" x2="794.3" y1="800.0938" y2="800.0938"/><text fill="#000000" font-family="sans-serif" font-size="14" lengthAdjust="spacing" textLength="29" x="705.3" y="817.0889">task</text><text fill="#000000" font-family="sans-serif" font-size="14" lengthAdjust="spacing" textLength="35" x="705.3" y="833.3857">team</text><text fill="#000000" font-family="sans-serif" font-size="14" lengthAdjust="spacing" textLength="84" x="705.3" y="849.6826">greenSpace</text><text fill="#000000" font-family="sans-serif" font-size="14" lengthAdjust="spacing" textLength="64" x="705.3" y="865.9795">startDate</text><text fill="#000000" font-family="sans-serif" font-size="14" lengthAdjust="spacing" textLength="69" x="705.3" y="882.2764">finishDate</text></g><!--class Equipment--><g id="elem_Equipment"><rect codeLine="72" fill="#F1F1F1" height="50.5938" id="Equipment" rx="2.5" ry="2.5" style="stroke:#181818;stroke-width:0.5;" width="85" x="1063.8" y="532.2969"/><text fill="#000000" font-family="sans-serif" font-size="14" lengthAdjust="spacing" textLength="75" x="1068.8" y="550.292">Equipment</text><line style="stroke:#181818;stroke-width:0.5;" x1="1064.8" x2="1147.8" y1="558.5938" y2="558.5938"/><text fill="#000000" font-family="sans-serif" font-size="14" lengthAdjust="spacing" textLength="73" x="1069.8" y="575.5889">nameType</text></g><!--class Job--><g id="elem_Job"><rect codeLine="76" fill="#F1F1F1" height="50.5938" id="Job" rx="2.5" ry="2.5" style="stroke:#181818;stroke-width:0.5;" width="73" x="411.8" y="532.2969"/><text fill="#000000" font-family="sans-serif" font-size="14" lengthAdjust="spacing" textLength="21" x="437.8" y="550.292">Job</text><line style="stroke:#181818;stroke-width:0.5;" x1="412.8" x2="483.8" y1="558.5938" y2="558.5938"/><text fill="#000000" font-family="sans-serif" font-size="14" lengthAdjust="spacing" textLength="61" x="417.8" y="575.5889">jobName</text></g><!--class Machine--><g id="elem_Machine"><rect codeLine="80" fill="#F1F1F1" height="50.5938" id="Machine" rx="2.5" ry="2.5" style="stroke:#181818;stroke-width:0.5;" width="85" x="822.8" y="532.2969"/><text fill="#000000" font-family="sans-serif" font-size="14" lengthAdjust="spacing" textLength="58" x="836.3" y="550.292">Machine</text><line style="stroke:#181818;stroke-width:0.5;" x1="823.8" x2="906.8" y1="558.5938" y2="558.5938"/><text fill="#000000" font-family="sans-serif" font-size="14" lengthAdjust="spacing" textLength="73" x="828.8" y="575.5889">nameType</text></g><!--class Team--><g id="elem_Team"><rect codeLine="84" fill="#F1F1F1" height="66.8906" id="Team" rx="2.5" ry="2.5" style="stroke:#181818;stroke-width:0.5;" width="60" x="639.3" y="1007.2969"/><text fill="#000000" font-family="sans-serif" font-size="14" lengthAdjust="spacing" textLength="39" x="649.8" y="1025.292">Team</text><line style="stroke:#181818;stroke-width:0.5;" x1="640.3" x2="698.3" y1="1033.5938" y2="1033.5938"/><text fill="#000000" font-family="sans-serif" font-size="14" lengthAdjust="spacing" textLength="48" x="645.3" y="1050.5889">skillSet</text><text fill="#000000" font-family="sans-serif" font-size="14" lengthAdjust="spacing" textLength="28" x="645.3" y="1066.8857">size</text></g><!--class Colaborator--><g id="elem_Colaborator"><rect codeLine="90" fill="#F1F1F1" height="197.2656" id="Colaborator" rx="2.5" ry="2.5" style="stroke:#181818;stroke-width:0.5;" width="115" x="390.8" y="733.2969"/><text fill="#000000" font-family="sans-serif" font-size="14" lengthAdjust="spacing" textLength="80" x="408.3" y="751.292">Colaborator</text><line style="stroke:#181818;stroke-width:0.5;" x1="391.8" x2="504.8" y1="759.5938" y2="759.5938"/><text fill="#000000" font-family="sans-serif" font-size="14" lengthAdjust="spacing" textLength="21" x="396.8" y="776.5889">job</text><text fill="#000000" font-family="sans-serif" font-size="14" lengthAdjust="spacing" textLength="29" x="396.8" y="792.8857">task</text><text fill="#000000" font-family="sans-serif" font-size="14" lengthAdjust="spacing" textLength="39" x="396.8" y="809.1826">name</text><text fill="#000000" font-family="sans-serif" font-size="14" lengthAdjust="spacing" textLength="62" x="396.8" y="825.4795">birthdate</text><text fill="#000000" font-family="sans-serif" font-size="14" lengthAdjust="spacing" textLength="103" x="396.8" y="841.7764">admissionDate</text><text fill="#000000" font-family="sans-serif" font-size="14" lengthAdjust="spacing" textLength="56" x="396.8" y="858.0732">address</text><text fill="#000000" font-family="sans-serif" font-size="14" lengthAdjust="spacing" textLength="101" x="396.8" y="874.3701">mobileNumber</text><text fill="#000000" font-family="sans-serif" font-size="14" lengthAdjust="spacing" textLength="36" x="396.8" y="890.667">email</text><text fill="#000000" font-family="sans-serif" font-size="14" lengthAdjust="spacing" textLength="60" x="396.8" y="906.9639">docType</text><text fill="#000000" font-family="sans-serif" font-size="14" lengthAdjust="spacing" textLength="81" x="396.8" y="923.2607">docNumber</text></g><!--class Time--><g id="elem_Time"><rect codeLine="103" fill="#F1F1F1" height="50.5938" id="Time" rx="2.5" ry="2.5" style="stroke:#181818;stroke-width:0.5;" width="86" x="885.3" y="1015.2969"/><text fill="#000000" font-family="sans-serif" font-size="14" lengthAdjust="spacing" textLength="34" x="911.3" y="1033.292">Time</text><line style="stroke:#181818;stroke-width:0.5;" x1="886.3" x2="970.3" y1="1041.5938" y2="1041.5938"/><text fill="#000000" font-family="sans-serif" font-size="14" lengthAdjust="spacing" textLength="74" x="891.3" y="1058.5889">timePeriod</text></g><!--link Organization to HRM--><g id="link_Organization_HRM"><path codeLine="108" d="M721.39,78.3469 C648.23,123.6769 439.69,252.8669 351.96,307.2269 " fill="none" id="Organization-HRM" style="stroke:#181818;stroke-width:1.0;"/><polygon fill="#000000" points="597.0496,191.4966,606.2864,189.2312,603.1908,184.2346,597.0496,191.4966" style="stroke:#000000;stroke-width:1.0;"/><text fill="#000000" font-family="sans-serif" font-size="13" lengthAdjust="spacing" textLength="23" x="610.3" y="193.3638">has</text><text fill="#000000" font-family="sans-serif" font-size="13" lengthAdjust="spacing" textLength="8" x="703.4823" y="98.5188">1</text><text fill="#000000" font-family="sans-serif" font-size="13" lengthAdjust="spacing" textLength="8" x="359.7369" y="298.4247">1</text></g><!--link Organization to VFM--><g id="link_Organization_VFM"><path codeLine="109" d="M777.38,78.3469 C864.12,124.6369 1114.77,258.3969 1212.56,310.5869 " fill="none" id="Organization-VFM" style="stroke:#181818;stroke-width:1.0;"/><polygon fill="#000000" points="1054.7112,191.2174,1048.115,184.366,1045.3476,189.5516,1054.7112,191.2174" style="stroke:#000000;stroke-width:1.0;"/><text fill="#000000" font-family="sans-serif" font-size="13" lengthAdjust="spacing" textLength="23" x="1059.3" y="193.3638">has</text><text fill="#000000" font-family="sans-serif" font-size="13" lengthAdjust="spacing" textLength="8" x="778.019" y="98.5188">1</text><text fill="#000000" font-family="sans-serif" font-size="13" lengthAdjust="spacing" textLength="8" x="1196.7688" y="302.3304">1</text></g><!--link Organization to GSM--><g id="link_Organization_GSM"><path codeLine="110" d="M747.3,78.4469 C747.3,97.7769 747.3,130.6269 747.3,155.2869 " fill="none" id="Organization-GSM" style="stroke:#181818;stroke-width:1.0;"/><polygon fill="#000000" points="752.3,121.8633,755.2389,112.8182,749.3611,112.8182,752.3,121.8633" style="stroke:#000000;stroke-width:1.0;"/><text fill="#000000" font-family="sans-serif" font-size="13" lengthAdjust="spacing" textLength="23" x="761.3" y="121.3638">has</text><text fill="#000000" font-family="sans-serif" font-size="13" lengthAdjust="spacing" textLength="8" x="737.975" y="98.6519">1</text><text fill="#000000" font-family="sans-serif" font-size="13" lengthAdjust="spacing" textLength="8" x="738.5125" y="144.3038">1</text></g><!--link HRM to Colaborator--><g id="link_HRM_Colaborator"><path codeLine="112" d="M308.53,366.4469 C302.87,425.9169 296.17,555.0669 330.3,656.2969 C343.39,695.1069 367.61,733.3669 390.72,764.1169 " fill="none" id="HRM-Colaborator" style="stroke:#181818;stroke-width:1.0;"/><polygon fill="#000000" points="336.312,562.7598,337.3594,553.3071,331.6032,554.4968,336.312,562.7598" style="stroke:#000000;stroke-width:1.0;"/><text fill="#000000" font-family="sans-serif" font-size="13" lengthAdjust="spacing" textLength="49" x="344.3" y="562.3638">register</text><text fill="#000000" font-family="sans-serif" font-size="13" lengthAdjust="spacing" textLength="8" x="308.5738" y="386.3811">1</text><text fill="#000000" font-family="sans-serif" font-size="13" lengthAdjust="spacing" textLength="23" x="359.7326" y="752.4834">0..*</text></g><!--link HRM to Job--><g id="link_HRM_Job"><path codeLine="113" d="M330.79,366.7069 C341.3,385.2169 354.82,408.6769 367.3,429.2969 C389.16,465.4169 415.56,506.5369 432.15,532.0769 " fill="none" id="HRM-Job" style="stroke:#181818;stroke-width:1.0;"/><polygon fill="#000000" points="374.9129,425.1262,372.6918,415.8787,367.6804,418.9503,374.9129,425.1262" style="stroke:#000000;stroke-width:1.0;"/><text fill="#000000" font-family="sans-serif" font-size="13" lengthAdjust="spacing" textLength="23" x="381.3" y="425.3638">has</text><text fill="#000000" font-family="sans-serif" font-size="13" lengthAdjust="spacing" textLength="8" x="325.371" y="386.1715">1</text><text fill="#000000" font-family="sans-serif" font-size="13" lengthAdjust="spacing" textLength="23" x="431.0166" y="521.1121">0..*</text></g><!--link HRM to Team--><g id="link_HRM_Team"><path codeLine="114" d="M303.03,366.4769 C276.52,467.7669 212.21,778.6869 373.3,930.2969 C450.71,1003.1469 580.78,1028.4669 639.25,1036.4569 " fill="none" id="HRM-Team" style="stroke:#181818;stroke-width:1.0;"/><polygon fill="#000000" points="279.5426,699.3321,278.1124,689.9297,272.859,692.5661,279.5426,699.3321" style="stroke:#000000;stroke-width:1.0;"/><text fill="#000000" font-family="sans-serif" font-size="13" lengthAdjust="spacing" textLength="48" x="286.3" y="699.3638">creates</text><text fill="#000000" font-family="sans-serif" font-size="13" lengthAdjust="spacing" textLength="8" x="292.5833" y="386.1587">1</text><text fill="#000000" font-family="sans-serif" font-size="13" lengthAdjust="spacing" textLength="23" x="608.3295" y="1049.1492">0..*</text></g><!--link HRM to Skill--><g id="link_HRM_Skill"><path codeLine="115" d="M272.71,352.2069 C247.97,365.6169 217.31,386.0069 198.3,412.2969 C125.87,512.4869 81.22,911.6669 70.71,1015.1769 " fill="none" id="HRM-Skill" style="stroke:#181818;stroke-width:1.0;"/><polygon fill="#000000" points="118.8427,699.6462,124.2903,691.8504,118.6677,690.1372,118.8427,699.6462" style="stroke:#000000;stroke-width:1.0;"/><text fill="#000000" font-family="sans-serif" font-size="13" lengthAdjust="spacing" textLength="48" x="129.3" y="699.3638">creates</text><text fill="#000000" font-family="sans-serif" font-size="13" lengthAdjust="spacing" textLength="8" x="256.6731" y="351.492">1</text><text fill="#000000" font-family="sans-serif" font-size="13" lengthAdjust="spacing" textLength="23" x="74.1006" y="1004.2365">0..*</text></g><!--link VFM to Vehicle--><g id="link_VFM_Vehicle"><path codeLine="117" d="M1278.4,382.6969 C1287.61,398.2269 1298.61,415.0469 1310.3,429.2969 C1325.67,448.0269 1343.77,466.5869 1361.74,483.5069 " fill="none" id="VFM-Vehicle" style="stroke:#181818;stroke-width:1.0;"/><polygon fill="#000000" points="1318.4858,424.7169,1314.9877,415.873,1310.4575,419.6182,1318.4858,424.7169" style="stroke:#000000;stroke-width:1.0;"/><text fill="#000000" font-family="sans-serif" font-size="13" lengthAdjust="spacing" textLength="53" x="1324.3" y="425.3638">manage</text><text fill="#000000" font-family="sans-serif" font-size="13" lengthAdjust="spacing" textLength="8" x="1273.5078" y="402.8109">1</text><text fill="#000000" font-family="sans-serif" font-size="13" lengthAdjust="spacing" textLength="23" x="1330.8462" y="474.0508">0..*</text></g><!--link VFM to Vehicle--><g id="link_VFM_Vehicle"><path codeLine="120" d="M1291.81,350.0469 C1320.04,363.3169 1357.31,384.4169 1382.3,412.2969 C1394.57,425.9869 1404.99,442.3169 1413.69,458.9869 " fill="none" id="VFM-Vehicle-1" style="stroke:#181818;stroke-width:1.0;"/><polygon fill="#000000" points="1404.0279,424.1954,1399.2426,415.9764,1395.3255,420.3588,1404.0279,424.1954" style="stroke:#000000;stroke-width:1.0;"/><text fill="#000000" font-family="sans-serif" font-size="13" lengthAdjust="spacing" textLength="60" x="1409.3" y="425.3638">manages</text><text fill="#000000" font-family="sans-serif" font-size="13" lengthAdjust="spacing" textLength="8" x="1299.8322" y="348.879">1</text><text fill="#000000" font-family="sans-serif" font-size="13" lengthAdjust="spacing" textLength="23" x="1387.2304" y="448.2418">0..*</text></g><!--link VFM to Equipment--><g id="link_VFM_Equipment"><path codeLine="118" d="M1212.43,361.1269 C1194.83,374.8169 1175.07,392.6469 1161.3,412.2969 C1134.88,449.9969 1119.17,502.0369 1111.68,532.2769 " fill="none" id="VFM-Equipment" style="stroke:#181818;stroke-width:1.0;"/><polygon fill="#000000" points="1163.7635,425.1721,1170.8847,418.8682,1165.8194,415.8864,1163.7635,425.1721" style="stroke:#000000;stroke-width:1.0;"/><text fill="#000000" font-family="sans-serif" font-size="13" lengthAdjust="spacing" textLength="53" x="1175.3" y="425.3638">manage</text><text fill="#000000" font-family="sans-serif" font-size="13" lengthAdjust="spacing" textLength="8" x="1196.8898" y="361.7437">1</text><text fill="#000000" font-family="sans-serif" font-size="13" lengthAdjust="spacing" textLength="23" x="1115.7945" y="521.3608">0..*</text></g><!--link VFM to Machine--><g id="link_VFM_Machine"><path codeLine="119" d="M1212.6,364.6669 C1203.04,371.1369 1192.6,377.4469 1182.3,382.2969 C1137.61,403.3169 1120.03,391.3469 1075.3,412.2969 C1005.36,445.0569 933.2,500.2969 894.34,532.1469 " fill="none" id="VFM-Machine" style="stroke:#181818;stroke-width:1.0;"/><polygon fill="#000000" points="1075.8753,423.1917,1085.2483,421.5803,1082.5111,416.3787,1075.8753,423.1917" style="stroke:#000000;stroke-width:1.0;"/><text fill="#000000" font-family="sans-serif" font-size="13" lengthAdjust="spacing" textLength="53" x="1089.3" y="425.3638">manage</text><text fill="#000000" font-family="sans-serif" font-size="13" lengthAdjust="spacing" textLength="8" x="1196.8159" y="383.7152">1</text><text fill="#000000" font-family="sans-serif" font-size="13" lengthAdjust="spacing" textLength="23" x="875.6154" y="521.1992">0..*</text></g><!--link VFM to CheckUp--><g id="link_VFM_CheckUp"><path codeLine="121" d="M1254.81,382.4769 C1258.22,445.6569 1264.87,559.3169 1273.3,656.2969 C1277.6,705.7869 1284.13,762.9969 1288.3,798.0369 " fill="none" id="VFM-CheckUp" style="stroke:#181818;stroke-width:1.0;"/><polygon fill="#000000" points="1278.7016,562.8471,1280.9045,553.5952,1275.0456,554.0674,1278.7016,562.8471" style="stroke:#000000;stroke-width:1.0;"/><text fill="#000000" font-family="sans-serif" font-size="13" lengthAdjust="spacing" textLength="56" x="1287.3" y="562.3638">registers</text><text fill="#000000" font-family="sans-serif" font-size="13" lengthAdjust="spacing" textLength="8" x="1246.5912" y="402.9163">1</text><text fill="#000000" font-family="sans-serif" font-size="13" lengthAdjust="spacing" textLength="23" x="1262.3453" y="787.2617">0..*</text></g><!--link GSM to Colaborator--><g id="link_GSM_Colaborator"><path codeLine="123" d="M707.53,198.4069 C675.7,207.1369 631.81,223.5669 603.3,252.2969 C548.87,307.1369 555.77,337.7869 535.3,412.2969 C500.69,538.2369 527.55,576.9869 494.3,703.2969 C491.72,713.0869 488.72,723.1769 485.49,733.2069 " fill="none" id="GSM-Colaborator" style="stroke:#181818;stroke-width:1.0;"/><polygon fill="#000000" points="538.3828,425.4811,544.5654,418.2543,539.1368,416.0005,538.3828,425.4811" style="stroke:#000000;stroke-width:1.0;"/><text fill="#000000" font-family="sans-serif" font-size="13" lengthAdjust="spacing" textLength="53" x="549.3" y="425.3638">manage</text><text fill="#000000" font-family="sans-serif" font-size="13" lengthAdjust="spacing" textLength="8" x="691.7335" y="213.5431">1</text><text fill="#000000" font-family="sans-serif" font-size="13" lengthAdjust="spacing" textLength="23" x="464.4569" y="722.1462">0..*</text></g><!--link GSM to Vehicle--><g id="link_GSM_Vehicle"><path codeLine="124" d="M786.94,197.8969 C820.93,204.7469 871.25,214.6269 915.3,222.2969 C1089.87,252.6869 1146.28,213.8369 1309.3,283.2969 C1396.23,320.3369 1436.4,327.6069 1478.3,412.2969 C1485.5,426.8569 1487.35,443.0869 1486.05,459.2569 " fill="none" id="GSM-Vehicle" style="stroke:#181818;stroke-width:1.0;"/><polygon fill="#000000" points="1470.9834,334.6142,1463.5402,328.6939,1461.4819,334.1996,1470.9834,334.6142" style="stroke:#000000;stroke-width:1.0;"/><text fill="#000000" font-family="sans-serif" font-size="13" lengthAdjust="spacing" textLength="53" x="1475.3" y="337.3638">manage</text><text fill="#000000" font-family="sans-serif" font-size="13" lengthAdjust="spacing" textLength="8" x="794.7134" y="212.9422">1</text><text fill="#000000" font-family="sans-serif" font-size="13" lengthAdjust="spacing" textLength="23" x="1464.9832" y="448.2">0..*</text></g><!--link GSM to Team--><g id="link_GSM_Team"><path codeLine="125" d="M735.4,222.4269 C717.73,272.5669 685.17,371.9169 671.3,459.2969 C636.37,679.3869 655.75,737.4969 651.3,960.2969 C651.15,967.8469 650.24,969.8169 651.3,977.2969 C652.69,987.1369 655.25,997.5969 658.01,1007.0869 " fill="none" id="GSM-Team" style="stroke:#181818;stroke-width:1.0;"/><polygon fill="#000000" points="675.8092,562.8391,679.6218,554.1262,673.7723,553.5493,675.8092,562.8391" style="stroke:#000000;stroke-width:1.0;"/><text fill="#000000" font-family="sans-serif" font-size="13" lengthAdjust="spacing" textLength="53" x="685.3" y="562.3638">manage</text><text fill="#000000" font-family="sans-serif" font-size="13" lengthAdjust="spacing" textLength="8" x="724.3691" y="242.3573">1</text><text fill="#000000" font-family="sans-serif" font-size="13" lengthAdjust="spacing" textLength="23" x="630.6657" y="996.3212">0..*</text></g><!--link GSM to Task--><g id="link_GSM_Task"><path codeLine="126" d="M787.07,204.8469 C820.55,219.6269 866.9,245.5069 892.3,283.2969 C1091.59,579.8469 1039.17,1058.0569 1026.61,1151.2669 " fill="none" id="GSM-Task" style="stroke:#181818;stroke-width:1.0;"/><polygon fill="#000000" points="1035.5268,699.7104,1036.1566,690.2207,1030.4584,691.663,1035.5268,699.7104" style="stroke:#000000;stroke-width:1.0;"/><text fill="#000000" font-family="sans-serif" font-size="13" lengthAdjust="spacing" textLength="41" x="1043.3" y="699.3638">create</text><text fill="#000000" font-family="sans-serif" font-size="13" lengthAdjust="spacing" textLength="8" x="794.8665" y="203.4583">1</text><text fill="#000000" font-family="sans-serif" font-size="13" lengthAdjust="spacing" textLength="23" x="1000.5658" y="1140.181">0..*</text></g><!--link GSM to Equipment--><g id="link_GSM_Equipment"><path codeLine="127" d="M787,191.5569 C837.2,195.6169 924.19,208.9069 983.3,252.2969 C1051.09,302.0669 1054.91,333.5069 1084.3,412.2969 C1099.33,452.5969 1104.1,502.8769 1105.61,532.2569 " fill="none" id="GSM-Equipment" style="stroke:#181818;stroke-width:1.0;"/><polygon fill="#000000" points="1080.7152,336.5152,1076.6836,327.9014,1072.3905,331.9162,1080.7152,336.5152" style="stroke:#000000;stroke-width:1.0;"/><text fill="#000000" font-family="sans-serif" font-size="13" lengthAdjust="spacing" textLength="53" x="1086.3" y="337.3638">manage</text><text fill="#000000" font-family="sans-serif" font-size="13" lengthAdjust="spacing" textLength="8" x="794.7841" y="187.801">1</text><text fill="#000000" font-family="sans-serif" font-size="13" lengthAdjust="spacing" textLength="23" x="1079.6387" y="521.336">0..*</text></g><!--link GSM to Job--><g id="link_GSM_Job"><path codeLine="129" d="M707.71,196.4669 C635.33,209.5869 486.49,241.1669 458.3,283.2969 C406.37,360.8869 428.27,480.5069 441.25,531.9169 " fill="none" id="GSM-Job" style="stroke:#181818;stroke-width:1.0;"/><polygon fill="#000000" points="460.1901,336.7784,468.1173,331.5238,463.5147,327.8679,460.1901,336.7784" style="stroke:#000000;stroke-width:1.0;"/><text fill="#000000" font-family="sans-serif" font-size="13" lengthAdjust="spacing" textLength="53" x="472.3" y="337.3638">manage</text><text fill="#000000" font-family="sans-serif" font-size="13" lengthAdjust="spacing" textLength="8" x="691.6731" y="193.5874">1</text><text fill="#000000" font-family="sans-serif" font-size="13" lengthAdjust="spacing" textLength="23" x="413.9603" y="521.327">0..*</text></g><!--link GSM to Machine--><g id="link_GSM_Machine"><path codeLine="130" d="M761.56,222.3169 C765.56,231.8969 769.77,242.4469 773.3,252.2969 C809.97,354.7269 844.68,479.8269 858.74,532.0569 " fill="none" id="GSM-Machine" style="stroke:#181818;stroke-width:1.0;"/><polygon fill="#000000" points="822.7968,337.634,822.8932,328.1239,817.2849,329.8835,822.7968,337.634" style="stroke:#000000;stroke-width:1.0;"/><text fill="#000000" font-family="sans-serif" font-size="13" lengthAdjust="spacing" textLength="53" x="830.3" y="337.3638">manage</text><text fill="#000000" font-family="sans-serif" font-size="13" lengthAdjust="spacing" textLength="8" x="755.5158" y="242.2263">1</text><text fill="#000000" font-family="sans-serif" font-size="13" lengthAdjust="spacing" textLength="23" x="831.3379" y="521.0872">0..*</text></g><!--link GSM to Agenda--><g id="link_GSM_Agenda"><path codeLine="131" d="M747.3,222.4669 C747.3,325.1569 747.3,642.3369 747.3,773.3169 " fill="none" id="GSM-Agenda" style="stroke:#181818;stroke-width:1.0;"/><polygon fill="#000000" points="752.3,425.8633,755.2389,416.8182,749.3611,416.8182,752.3,425.8633" style="stroke:#000000;stroke-width:1.0;"/><text fill="#000000" font-family="sans-serif" font-size="13" lengthAdjust="spacing" textLength="53" x="761.3" y="425.3638">manage</text><text fill="#000000" font-family="sans-serif" font-size="13" lengthAdjust="spacing" textLength="8" x="738.5625" y="242.1468">1</text><text fill="#000000" font-family="sans-serif" font-size="13" lengthAdjust="spacing" textLength="23" x="722.9703" y="762.7752">0..*</text></g><!--link GSM to Skill--><g id="link_GSM_Skill"><path codeLine="132" d="M707.78,203.5069 C688.26,209.8969 664.23,217.1969 642.3,222.2969 C472.69,261.6969 398.7,184.5269 255.3,283.2969 C6,455.0069 49.64,904.4669 64.59,1014.9769 " fill="none" id="GSM-Skill" style="stroke:#181818;stroke-width:1.0;"/><polygon fill="#000000" points="116.1942,561.7817,124.1158,556.5188,119.5095,552.8677,116.1942,561.7817" style="stroke:#000000;stroke-width:1.0;"/><text fill="#000000" font-family="sans-serif" font-size="13" lengthAdjust="spacing" textLength="53" x="128.3" y="562.3638">manage</text><text fill="#000000" font-family="sans-serif" font-size="13" lengthAdjust="spacing" textLength="8" x="691.756" y="219.6911">1</text><text fill="#000000" font-family="sans-serif" font-size="13" lengthAdjust="spacing" textLength="23" x="38.0727" y="1004.4008">0..*</text></g><!--link Vehicle to Task--><g id="link_Vehicle_Task"><path codeLine="134" d="M1454.81,656.4969 C1454.65,736.2669 1443.37,848.7369 1390.3,930.2969 C1302.16,1065.7669 1106.47,1140.1169 1043.92,1161.0669 " fill="none" id="Vehicle-Task" style="stroke:#181818;stroke-width:1.0;"/><polygon fill="#000000" points="1367.1427,972.7404,1375.1332,967.5824,1370.5754,963.8709,1367.1427,972.7404" style="stroke:#000000;stroke-width:1.0;"/><text fill="#000000" font-family="sans-serif" font-size="13" lengthAdjust="spacing" textLength="23" x="1379.3" y="973.3638">has</text><text fill="#000000" font-family="sans-serif" font-size="13" lengthAdjust="spacing" textLength="8" x="1446.9256" y="676.6896">1</text><text fill="#000000" font-family="sans-serif" font-size="13" lengthAdjust="spacing" textLength="23" x="1051.8945" y="1154.3382">0..*</text></g><!--link Vehicle to CheckUp--><g id="link_Vehicle_CheckUp"><path codeLine="135" d="M1361.58,643.7169 C1350.65,657.2069 1340.46,671.5869 1332.3,686.2969 C1312.61,721.8069 1302.06,767.6969 1296.83,798.1369 " fill="none" id="Vehicle-CheckUp" style="stroke:#181818;stroke-width:1.0;"/><polygon fill="#000000" points="1335.3665,699.4743,1341.5745,692.2693,1336.1539,689.9964,1335.3665,699.4743" style="stroke:#000000;stroke-width:1.0;"/><text fill="#000000" font-family="sans-serif" font-size="13" lengthAdjust="spacing" textLength="68" x="1346.3" y="699.3638">undergoes</text><text fill="#000000" font-family="sans-serif" font-size="13" lengthAdjust="spacing" textLength="8" x="1345.6978" y="647.5173">1</text><text fill="#000000" font-family="sans-serif" font-size="13" lengthAdjust="spacing" textLength="23" x="1299.9859" y="787.1242">1..*</text></g><!--link Equipment to Task--><g id="link_Equipment_Task"><path codeLine="137" d="M1107.4,583.3669 C1110.26,663.1369 1113.66,921.3269 1050.3,1121.2969 C1046.97,1131.7869 1041.05,1142.5569 1035.7,1151.0269 " fill="none" id="Equipment-Task" style="stroke:#181818;stroke-width:1.0;"/><polygon fill="#000000" points="1089.6734,973.8239,1093.7227,965.2184,1087.8911,964.4818,1089.6734,973.8239" style="stroke:#000000;stroke-width:1.0;"/><text fill="#000000" font-family="sans-serif" font-size="13" lengthAdjust="spacing" textLength="23" x="1099.3" y="973.3638">has</text><text fill="#000000" font-family="sans-serif" font-size="13" lengthAdjust="spacing" textLength="8" x="1098.7294" y="603.1435">1</text><text fill="#000000" font-family="sans-serif" font-size="13" lengthAdjust="spacing" textLength="23" x="1042.9994" y="1140.1722">0..*</text></g><!--link Colaborator to Skill--><g id="link_Colaborator_Skill"><path codeLine="139" d="M390.59,864.2369 C312.1,906.9869 173.84,982.3069 106.84,1018.7969 " fill="none" id="Colaborator-Skill" style="stroke:#181818;stroke-width:1.0;"/><polygon fill="#000000" points="213.9091,971.255,223.2581,969.5092,220.4465,964.3475,213.9091,971.255" style="stroke:#000000;stroke-width:1.0;"/><text fill="#000000" font-family="sans-serif" font-size="13" lengthAdjust="spacing" textLength="60" x="227.3" y="973.3638">posesses</text><text fill="#000000" font-family="sans-serif" font-size="13" lengthAdjust="spacing" textLength="23" x="359.5876" y="864.1798">0..*</text><text fill="#000000" font-family="sans-serif" font-size="13" lengthAdjust="spacing" textLength="23" x="114.8151" y="1011.2052">0..*</text></g><!--link Colaborator to Team--><g id="link_Colaborator_Team"><path codeLine="140" d="M505.22,930.3969 C517.73,947.2769 531.89,963.7369 547.3,977.2969 C574.63,1001.3569 612.87,1018.9769 639.22,1029.2669 " fill="none" id="Colaborator-Team" style="stroke:#181818;stroke-width:1.0;"/><polygon fill="#000000" points="556.3234,971.8319,550.7899,964.0968,547.3001,968.8265,556.3234,971.8319" style="stroke:#000000;stroke-width:1.0;"/><text fill="#000000" font-family="sans-serif" font-size="13" lengthAdjust="spacing" textLength="23" x="561.3" y="973.3638">has</text><text fill="#000000" font-family="sans-serif" font-size="13" lengthAdjust="spacing" textLength="8" x="501.2717" y="950.582">1</text><text fill="#000000" font-family="sans-serif" font-size="13" lengthAdjust="spacing" textLength="23" x="608.2938" y="1022.7293">0..*</text></g><!--link Job to Colaborator--><g id="link_Job_Colaborator"><path codeLine="142" d="M448.3,583.4169 C448.3,617.0869 448.3,679.4669 448.3,733.1569 " fill="none" id="Job-Colaborator" style="stroke:#181818;stroke-width:1.0;"/><polygon fill="#000000" points="453.3,699.8633,456.2389,690.8182,450.3611,690.8182,453.3,699.8633" style="stroke:#000000;stroke-width:1.0;"/><text fill="#000000" font-family="sans-serif" font-size="13" lengthAdjust="spacing" textLength="23" x="462.3" y="699.3638">has</text><text fill="#000000" font-family="sans-serif" font-size="13" lengthAdjust="spacing" textLength="8" x="439.425" y="602.7877">1</text><text fill="#000000" font-family="sans-serif" font-size="13" lengthAdjust="spacing" textLength="23" x="424.4195" y="722.0923">0..*</text></g><!--link Team to Task--><g id="link_Team_Task"><path codeLine="144" d="M690.41,1074.6169 C702.89,1091.2769 720.18,1110.2669 740.3,1121.2969 C786.3,1146.4969 947.94,1161.3069 1004.54,1165.8169 " fill="none" id="Team-Task" style="stroke:#181818;stroke-width:1.0;"/><polygon fill="#000000" points="750.1017,1114.2573,742.2347,1108.9131,740.5959,1114.5578,750.1017,1114.2573" style="stroke:#000000;stroke-width:1.0;"/><text fill="#000000" font-family="sans-serif" font-size="13" lengthAdjust="spacing" textLength="23" x="754.3" y="1117.3638">has</text><text fill="#000000" font-family="sans-serif" font-size="13" lengthAdjust="spacing" textLength="8" x="685.5647" y="1094.3245">1</text><text fill="#000000" font-family="sans-serif" font-size="13" lengthAdjust="spacing" textLength="8" x="988.6695" y="1159.5507">1</text></g><!--link Team to Agenda--><g id="link_Team_Agenda"><path codeLine="145" d="M692.24,1007.0569 C698.07,997.7469 703.91,987.3769 708.3,977.2969 C720.39,949.5469 729.55,917.1269 735.95,890.0369 " fill="none" id="Team-Agenda" style="stroke:#181818;stroke-width:1.0;"/><polygon fill="#000000" points="722.0496,964.1794,716.1314,971.6243,721.6377,973.681,722.0496,964.1794" style="stroke:#000000;stroke-width:1.0;"/><text fill="#000000" font-family="sans-serif" font-size="13" lengthAdjust="spacing" textLength="23" x="729.3" y="973.3638">has</text><text fill="#000000" font-family="sans-serif" font-size="13" lengthAdjust="spacing" textLength="8" x="687.8504" y="996.2855">1</text><text fill="#000000" font-family="sans-serif" font-size="13" lengthAdjust="spacing" textLength="8" x="726.1752" y="909.7253">1</text></g><!--link Agenda to Team--><g id="link_Agenda_Team"><path codeLine="150" d="M699.22,889.3969 C684.37,910.3069 669.93,935.0869 662.3,960.2969 C657.76,975.2769 658.6,992.5269 660.94,1007.1169 " fill="none" id="Agenda-Team" style="stroke:#181818;stroke-width:1.0;"/><polygon fill="#000000" points="665.7538,973.6182,671.3458,965.9253,665.756,964.1076,665.7538,973.6182" style="stroke:#000000;stroke-width:1.0;"/><text fill="#000000" font-family="sans-serif" font-size="13" lengthAdjust="spacing" textLength="23" x="676.3" y="973.3638">has</text><text fill="#000000" font-family="sans-serif" font-size="13" lengthAdjust="spacing" textLength="8" x="683.2452" y="894.1622">1</text><text fill="#000000" font-family="sans-serif" font-size="13" lengthAdjust="spacing" textLength="23" x="661.5386" y="996.3569">0..*</text></g><!--link Machine to Team--><g id="link_Machine_Team"><path codeLine="147" d="M867.25,583.5369 C871.06,645.7869 874.29,812.3669 812.3,930.2969 C787.79,976.9369 733.59,1009.6169 699.41,1026.5069 " fill="none" id="Machine-Team" style="stroke:#181818;stroke-width:1.0;"/><polygon fill="#000000" points="868.5284,836.5389,874.4815,829.1219,868.985,827.0393,868.5284,836.5389" style="stroke:#000000;stroke-width:1.0;"/><text fill="#000000" font-family="sans-serif" font-size="13" lengthAdjust="spacing" textLength="23" x="879.3" y="836.3638">has</text><text fill="#000000" font-family="sans-serif" font-size="13" lengthAdjust="spacing" textLength="8" x="858.8016" y="602.934">1</text><text fill="#000000" font-family="sans-serif" font-size="13" lengthAdjust="spacing" textLength="23" x="707.3419" y="1019.4431">0..*</text></g><!--link Agenda to Task--><g id="link_Agenda_Task"><path codeLine="151" d="M751.59,889.9769 C758.39,943.4069 775.94,1022.5069 821.3,1074.2969 C871.49,1131.5969 964.23,1155.7269 1004.63,1163.8469 " fill="none" id="Agenda-Task" style="stroke:#181818;stroke-width:1.0;"/><polygon fill="#000000" points="829.6931,1044.5357,825.7135,1035.8978,821.3963,1039.8866,829.6931,1044.5357" style="stroke:#000000;stroke-width:1.0;"/><text fill="#000000" font-family="sans-serif" font-size="13" lengthAdjust="spacing" textLength="31" x="835.3" y="1045.3638">have</text><text fill="#000000" font-family="sans-serif" font-size="13" lengthAdjust="spacing" textLength="8" x="743.6235" y="909.6583">1</text><text fill="#000000" font-family="sans-serif" font-size="13" lengthAdjust="spacing" textLength="23" x="973.6427" y="1176.6743">0..*</text></g><!--link Agenda to Time--><g id="link_Agenda_Time"><path codeLine="152" d="M789.47,889.8669 C799.91,903.3569 811.27,917.5269 822.3,930.2969 C848.42,960.5369 880.6,993.1969 902.61,1014.9069 " fill="none" id="Agenda-Time" style="stroke:#181818;stroke-width:1.0;"/><polygon fill="#000000" points="873.6547,972.5708,869.7652,963.892,865.4067,967.8357,873.6547,972.5708" style="stroke:#000000;stroke-width:1.0;"/><text fill="#000000" font-family="sans-serif" font-size="13" lengthAdjust="spacing" textLength="23" x="879.3" y="973.3638">has</text><text fill="#000000" font-family="sans-serif" font-size="13" lengthAdjust="spacing" textLength="8" x="785.8834" y="909.5356">1</text><text fill="#000000" font-family="sans-serif" font-size="13" lengthAdjust="spacing" textLength="23" x="871.0098" y="1004.3147">0..*</text></g><!--SRC=[bPHDJnin48Rl_XKMbqYLG73bK0b1eLzGrAJjsR4dksxMzc8xHO3wtpl-M6StsImqbyok7uzdtdczRYrroonJL1bjU6sD0khj1eWhAotZQrR1t3yrG2rmptJLz05NCs4UfQxeYZKEo6oxr4WD_ga5Qgol3PariFBK6sfbLNigP4WdZUubumrpxi9xAvSR3v-uqNFv3FIKr580vT9oF3l62Z2bSCHBZuLT6SMafhT6G4DlB82cSwmS79sRbNza5kWjqzY70kq9cSLpw7t3_CfOHL_8ZD9Z0OvRsSQIPdy9IT0tMp4jdrbuZM1vls1kdPxpYu_VRry8nHzWBKsCMdp_QApOxfglPTCap8NmZYdOhlwyVaEAc_aRe9zGIzGgWIts2J5QMgP5Z5IGAaPXGYb0cM9GMUFSBmXJYizyOotgzaN59mkLT1xiLPUKyOUDT388LDw5SNZGJ7Eujl2m0SsV_hFFonhu-aTB4ocwpAWQsXJFHvzaPBldeW8js4jknwrJ04pblj0OqHTf0DYmBnMlf9QkZeybtGTih0sMIHar3ciHr2h0PxDCIx_DSZZAMyPhjF-XZGkigMU3EIIb7RgzPwbBqx2biSmRIyivm-P2wZHQYPUigCI4aixr9yA4iE1S7lvIDd2tKKkmEtCGXYywGs2ScMtTKkMUF4RtOAM98oE3Qt9qTaIFZ-CVtWfwJclcwFk33DhXLGPTNnWIadPhfoSdxuu6IfqNYoAxZ-BCIgRzrJ0ONEOMKBXn9DxX0KD21qCeNq34LFpm8BKF5NzDOzbBqz3kWMwKwYxLLgDOVr0tWGSKBGUFa2EjZb1Ps4aaV58xNSUHKSLck-1PQVGhzeYeWmFvaXccYXeHlr0TapuxhoJgR5COqWctuy2aGZBeBdAsCyMD5c0harou5MSY8-aFDWFxHRR6uSSYfXtmOtSbvmrIJbtAZCLDlOizA6vtiGYRDtV3cAg3v4qJp3ZH5V873YBupUiTHCW_]--></g></svg>