<?xml version="1.0" encoding="us-ascii" standalone="no"?><svg xmlns="http://www.w3.org/2000/svg" xmlns:xlink="http://www.w3.org/1999/xlink" contentStyleType="text/css" height="630px" preserveAspectRatio="none" style="width:342px;height:630px;background:#FFFFFF;" version="1.1" viewBox="0 0 342 630" width="342px" zoomAndPan="magnify"><defs/><g><!--class GreenSpaceUsers--><g id="elem_GreenSpaceUsers"><rect codeLine="16" fill="#F1F1F1" height="55.2422" id="GreenSpaceUsers" rx="2.5" ry="2.5" style="stroke:#181818;stroke-width:0.5;" width="122" x="130.59" y="239"/><text fill="#000000" font-family="sans-serif" font-size="14" lengthAdjust="spacing" textLength="116" x="133.59" y="259.1074">GreenSpaceUsers</text><line style="stroke:#181818;stroke-width:0.5;" x1="131.59" x2="251.59" y1="267.6211" y2="267.6211"/><text fill="#000000" font-family="sans-serif" font-size="14" lengthAdjust="spacing" textLength="27" x="136.59" y="286.7285">type</text></g><!--class Manager--><g id="elem_Manager"><rect codeLine="20" fill="#F1F1F1" height="36.6211" id="Manager" rx="2.5" ry="2.5" style="stroke:#181818;stroke-width:0.5;" width="62" x="23.59" y="172"/><text fill="#000000" font-family="sans-serif" font-size="14" lengthAdjust="spacing" textLength="56" x="26.59" y="192.1074">Manager</text><line style="stroke:#181818;stroke-width:0.5;" x1="24.59" x2="84.59" y1="200.6211" y2="200.6211"/></g><!--class CommentsAvaliation--><g id="elem_CommentsAvaliation"><rect codeLine="23" fill="#F1F1F1" height="36.6211" id="CommentsAvaliation" rx="2.5" ry="2.5" style="stroke:#181818;stroke-width:0.5;" width="134" x="69.59" y="587"/><text fill="#000000" font-family="sans-serif" font-size="14" lengthAdjust="spacing" textLength="128" x="72.59" y="607.1074">CommentsAvaliation</text><line style="stroke:#181818;stroke-width:0.5;" x1="70.59" x2="202.59" y1="615.6211" y2="615.6211"/></g><!--class ReportFault--><g id="elem_ReportFault"><rect codeLine="26" fill="#F1F1F1" height="36.6211" id="ReportFault" rx="2.5" ry="2.5" style="stroke:#181818;stroke-width:0.5;" width="81" x="254.09" y="587"/><text fill="#000000" font-family="sans-serif" font-size="14" lengthAdjust="spacing" textLength="75" x="257.09" y="607.1074">ReportFault</text><line style="stroke:#181818;stroke-width:0.5;" x1="255.09" x2="334.09" y1="615.6211" y2="615.6211"/></g><!--class Park--><g id="elem_Park"><rect codeLine="29" fill="#F1F1F1" height="36.6211" id="Park" rx="2.5" ry="2.5" style="stroke:#181818;stroke-width:0.5;" width="35" x="169.09" y="471"/><text fill="#000000" font-family="sans-serif" font-size="14" lengthAdjust="spacing" textLength="29" x="172.09" y="491.1074">Park</text><line style="stroke:#181818;stroke-width:0.5;" x1="170.09" x2="203.09" y1="499.6211" y2="499.6211"/></g><!--class Portal--><g id="elem_Portal"><rect codeLine="32" fill="#F1F1F1" height="36.6211" id="Portal" rx="2.5" ry="2.5" style="stroke:#181818;stroke-width:0.5;" width="43" x="112.09" y="7"/><text fill="#000000" font-family="sans-serif" font-size="14" lengthAdjust="spacing" textLength="37" x="115.09" y="27.1074">Portal</text><line style="stroke:#181818;stroke-width:0.5;" x1="113.09" x2="154.09" y1="35.6211" y2="35.6211"/></g><!--link Manager to Park--><g id="link_Manager_Park"><path codeLine="36" d="M48.65,209.31 C34.83,254.38 6,374.18 64.59,441 C91.86,472.1 142.02,482.99 168.74,486.68 " fill="none" id="Manager-Park" style="stroke:#181818;stroke-width:1.0;"/><polygon fill="#000000" points="36.5766,338.2339,35.6798,328.7657,30.2858,331.1011,36.5766,338.2339" style="stroke:#000000;stroke-width:1.0;"/><text fill="#000000" font-family="sans-serif" font-size="13" lengthAdjust="spacing" textLength="26" x="43.59" y="339.0283">have</text><text fill="#000000" font-family="sans-serif" font-size="13" lengthAdjust="spacing" textLength="7" x="39.113" y="230.7679">1</text><text fill="#000000" font-family="sans-serif" font-size="13" lengthAdjust="spacing" textLength="20" x="141.2553" y="502.3248">0..*</text></g><!--link Portal to GreenSpaceUsers--><g id="link_Portal_GreenSpaceUsers"><path codeLine="38" d="M145.21,44.33 C150.35,52.98 156.02,63.69 159.59,74 C179.21,130.7 187.02,201.13 189.95,238.79 " fill="none" id="Portal-GreenSpaceUsers" style="stroke:#181818;stroke-width:1.0;"/><polygon fill="#000000" points="183.7111,137.5182,184.5471,128.0445,178.8189,129.3624,183.7111,137.5182" style="stroke:#000000;stroke-width:1.0;"/><text fill="#000000" font-family="sans-serif" font-size="13" lengthAdjust="spacing" textLength="26" x="191.59" y="138.0283">have</text><text fill="#000000" font-family="sans-serif" font-size="13" lengthAdjust="spacing" textLength="7" x="140.3923" y="65.7933">1</text><text fill="#000000" font-family="sans-serif" font-size="13" lengthAdjust="spacing" textLength="20" x="167.4038" y="227.9027">0..*</text></g><!--link Portal to Manager--><g id="link_Portal_Manager"><path codeLine="39" d="M124.99,44.25 C109.79,75.61 78.37,140.43 63.18,171.77 " fill="none" id="Portal-Manager" style="stroke:#181818;stroke-width:1.0;"/><polygon fill="#000000" points="113.4091,88.1448,119.999,81.2874,114.7097,78.7236,113.4091,88.1448" style="stroke:#000000;stroke-width:1.0;"/><text fill="#000000" font-family="sans-serif" font-size="13" lengthAdjust="spacing" textLength="26" x="124.59" y="89.0283">have</text><text fill="#000000" font-family="sans-serif" font-size="13" lengthAdjust="spacing" textLength="7" x="114.7381" y="65.6918">1</text><text fill="#000000" font-family="sans-serif" font-size="13" lengthAdjust="spacing" textLength="7" x="57.6752" y="160.8979">1</text></g><!--link GreenSpaceUsers to Park--><g id="link_GreenSpaceUsers_Park"><path codeLine="41" d="M190.99,294.16 C189.95,339.96 187.86,432.4 186.99,470.97 " fill="none" id="GreenSpaceUsers-Park" style="stroke:#181818;stroke-width:1.0;"/><polygon fill="#000000" points="193.4769,387.6442,196.6197,378.6679,190.7433,378.535,193.4769,387.6442" style="stroke:#000000;stroke-width:1.0;"/><text fill="#000000" font-family="sans-serif" font-size="13" lengthAdjust="spacing" textLength="26" x="202.59" y="388.0283">have</text><text fill="#000000" font-family="sans-serif" font-size="13" lengthAdjust="spacing" textLength="7" x="183.0931" y="316.1037">1</text><text fill="#000000" font-family="sans-serif" font-size="13" lengthAdjust="spacing" textLength="20" x="164.05" y="459.823">0..*</text></g><!--link GreenSpaceUsers to CommentsAvaliation--><g id="link_GreenSpaceUsers_CommentsAvaliation"><path codeLine="42" d="M176.99,294.14 C161.44,324.17 137.81,374.95 128.59,422 C116.91,481.6 127.18,554.15 133.1,586.93 " fill="none" id="GreenSpaceUsers-CommentsAvaliation" style="stroke:#181818;stroke-width:1.0;"/><polygon fill="#000000" points="132.8488,436.5903,137.0961,428.0808,131.2832,427.2094,132.8488,436.5903" style="stroke:#000000;stroke-width:1.0;"/><text fill="#000000" font-family="sans-serif" font-size="13" lengthAdjust="spacing" textLength="36" x="142.59" y="437.0283">create</text><text fill="#000000" font-family="sans-serif" font-size="13" lengthAdjust="spacing" textLength="7" x="166.0306" y="316.0793">1</text><text fill="#000000" font-family="sans-serif" font-size="13" lengthAdjust="spacing" textLength="7" x="123.9593" y="575.7707">1</text></g><!--link GreenSpaceUsers to ReportFault--><g id="link_GreenSpaceUsers_ReportFault"><path codeLine="43" d="M204.29,294.38 C226.16,342.14 270.33,445.49 288.59,538 C291.82,554.38 293.32,573.37 294.01,586.86 " fill="none" id="GreenSpaceUsers-ReportFault" style="stroke:#181818;stroke-width:1.0;"/><polygon fill="#000000" points="267.0563,436.4257,267.2134,426.9164,261.594,428.6402,267.0563,436.4257" style="stroke:#000000;stroke-width:1.0;"/><text fill="#000000" font-family="sans-serif" font-size="13" lengthAdjust="spacing" textLength="36" x="274.59" y="437.0283">create</text><text fill="#000000" font-family="sans-serif" font-size="13" lengthAdjust="spacing" textLength="7" x="199.3025" y="316.3718">1</text><text fill="#000000" font-family="sans-serif" font-size="13" lengthAdjust="spacing" textLength="20" x="270.7699" y="575.6793">0..*</text></g><!--link Park to CommentsAvaliation--><g id="link_Park_CommentsAvaliation"><path codeLine="46" d="M177.06,508.35 C172.49,517.18 167.04,528.05 162.59,538 C155.31,554.3 147.99,573.3 142.98,586.81 " fill="none" id="Park-CommentsAvaliation" style="stroke:#181818;stroke-width:1.0;"/><polygon fill="#000000" points="165.598,552.2316,171.8972,545.1062,166.506,542.7644,165.598,552.2316" style="stroke:#000000;stroke-width:1.0;"/><text fill="#000000" font-family="sans-serif" font-size="13" lengthAdjust="spacing" textLength="26" x="176.59" y="553.0283">have</text><text fill="#000000" font-family="sans-serif" font-size="13" lengthAdjust="spacing" textLength="7" x="166.5582" y="529.8187">1</text><text fill="#000000" font-family="sans-serif" font-size="13" lengthAdjust="spacing" textLength="20" x="147.9994" y="575.614">0..*</text></g><!--link Park to ReportFault--><g id="link_Park_ReportFault"><path codeLine="47" d="M200.84,508.19 C212.07,521.87 228.32,541.09 243.59,557 C253.48,567.3 265.08,578.2 274.73,586.95 " fill="none" id="Park-ReportFault" style="stroke:#181818;stroke-width:1.0;"/><polygon fill="#000000" points="252.011,551.292,247.9657,542.6846,243.679,546.7063,252.011,551.292" style="stroke:#000000;stroke-width:1.0;"/><text fill="#000000" font-family="sans-serif" font-size="13" lengthAdjust="spacing" textLength="26" x="257.59" y="553.0283">have</text><text fill="#000000" font-family="sans-serif" font-size="13" lengthAdjust="spacing" textLength="7" x="196.7291" y="529.6157">1</text><text fill="#000000" font-family="sans-serif" font-size="13" lengthAdjust="spacing" textLength="20" x="245.5854" y="575.7968">0..*</text></g><!--SRC=[VL1BJyCm3BxdLrYzL48Q6bSEI1C8n67InCGFCAdNHikZShoXCV7VIRj7qmt89OdzFVmvherlaT612pxeXeCZ4DwGYkTEYtgDDIrbPmcOjA2lRGw83LRXq_WQLcWZgN9eMUD9TYr1O6c2AYsj12G0cxeHg4mdPuBFnBJ566SYR3usGgyw-ANv8fYgnbG4sh1EtltRKPAiebAb64cZFGM7niCyL6HJiHU2XKLP1NQmLoN0fAAesRIzP_cjr07qmaH-cNBIUoIEUmNfT6EhCsIEFks0zqFbCJX7Nk9iYzPWfvWrtwXDYPznOoMhBf3N-JT1qFO5TTI7ugw0oGIAwUtjJT4Ju1uQt18yA7KW735dqCNq0tu4xw-Joo1vIRxG7W_m9pZTr-j8FCs4yY_pO9EjAsUbn9t_U2U_6fqINyF7qgVOwWS0]--></g></svg>